  0
SECTION
  2
HEADER
  9
$ANGBASE
  50
0.0
  9
$ANGDIR
  70
1
  9
$MEASUREMENT
  70
0
  0
ENDSEC
  0
SECTION
  2
TABLES
  0
TABLE
  2
LTYPE
  70
4
  0
LTYPE
  5
40F
  2
CONTINUOUS
  70
0
  3
Solid line
  72
65
  73
0
  40
0.0
  0
LTYPE
  5
410
  2
DASHDOT
 70
0
  3
Dash Dot ____ _ ____ _
 72
65
 73
4
 40
2.0
 49
1.25
 49
-0.25
 49
0.25
 49
-0.25
  0
LTYPE
  5
411
  2
DASHED
 70
0
  3
Dashed __ __ __ __ __
 72
65
 73
2
 40
0.75
 49
0.5
 49
-0.25
  0
LTYPE
  5
43B
  2
DOTTED
 70
0
  3
Dotted .  .  .  .
 72
65
 73
2
 40
0.2
 49
0.0
 49
-0.2
  0
ENDTAB
  0
TABLE
  2
STYLE
  70
4
  0
STYLE
  2
KICAD
  70
0
  40
0
  41
1
  42
1
  50
0
  71
0
  3
isocp.shx
  0
STYLE
  2
KICADB
  70
0
  40
0
  41
1
  42
1
  50
0
  71
0
  3
isocp.shx
  0
STYLE
  2
KICADI
  70
0
  40
0
  41
1
  42
1
  50
15
  71
0
  3
isocp.shx
  0
STYLE
  2
KICADBI
  70
0
  40
0
  41
1
  42
1
  50
15
  71
0
  3
isocp.shx
  0
ENDTAB
  0
TABLE
  2
LAYER
  70
1
  0
LAYER
  2
BLACK
  70
0
  62
7
  6
CONTINUOUS
  0
ENDTAB
  0
ENDSEC
  0
SECTION
  2
ENTITIES
0
LINE
8
BLACK
6
CONTINUOUS
10
-0.9979641732283464
20
-0.6747153149606299
11
-0.9979170078740157
21
-0.6747184251968503
0
LINE
8
BLACK
6
CONTINUOUS
10
-0.9979170078740157
20
-0.6747184251968503
11
-0.9953560236220472
21
-0.6754046456692914
0
LINE
8
BLACK
6
CONTINUOUS
10
-0.9953560236220472
20
-0.6754046456692914
11
-0.9953137795275591
21
-0.6754254724409449
0
LINE
8
BLACK
6
CONTINUOUS
10
-0.9953137795275591
20
-0.6754254724409449
11
-0.9952697637795276
21
-0.6754434251968504
0
LINE
8
BLACK
6
CONTINUOUS
10
-0.9952697637795276
20
-0.6754434251968504
11
-0.9917713779527558
21
-0.6777532283464567
0
LINE
8
BLACK
6
CONTINUOUS
10
-0.9917713779527558
20
-0.6777532283464567
11
-0.9917483858267716
21
-0.6777759448818897
0
LINE
8
BLACK
6
CONTINUOUS
10
-0.9917483858267716
20
-0.6777759448818897
11
-0.9917217716535432
21
-0.6777944094488189
0
LINE
8
BLACK
6
CONTINUOUS
10
-0.9917217716535432
20
-0.6777944094488189
11
-0.9863486614173228
21
-0.6833513779527559
0
LINE
8
BLACK
6
CONTINUOUS
10
-0.9863486614173228
20
-0.6833513779527559
11
-0.9863290551181102
21
-0.6833818110236221
0
LINE
8
BLACK
6
CONTINUOUS
10
-0.9863290551181102
20
-0.6833818110236221
11
-0.9863052362204724
21
-0.6834089763779527
0
LINE
8
BLACK
6
CONTINUOUS
10
-0.9863052362204724
20
-0.6834089763779527
11
-0.9816183070866141
21
-0.691526968503937
0
LINE
8
BLACK
6
CONTINUOUS
10
-0.9816183070866141
20
-0.691526968503937
11
-0.9816066929133858
21
-0.6915611811023622
0
LINE
8
BLACK
6
CONTINUOUS
10
-0.9816066929133858
20
-0.6915611811023622
11
-0.9815901181102362
21
-0.6915933858267717
0
LINE
8
BLACK
6
CONTINUOUS
10
-0.9815901181102362
20
-0.6915933858267717
11
-0.9794642125984252
21
-0.6990251574803149
0
LINE
8
BLACK
6
CONTINUOUS
10
-0.9794642125984252
20
-0.6990251574803149
11
-0.9794615748031495
21
-0.6990573228346456
0
LINE
8
BLACK
6
CONTINUOUS
10
-0.9794615748031495
20
-0.6990573228346456
11
-0.9794533464566929
21
-0.6990887007874016
0
LINE
8
BLACK
6
CONTINUOUS
10
-0.9794533464566929
20
-0.6990887007874016
11
-0.9792021653543307
21
-0.7032732283464567
0
LINE
8
BLACK
6
CONTINUOUS
10
-0.9792021653543307
20
-0.7032732283464567
11
-0.9792086220472441
21
-0.7033198818897638
0
LINE
8
BLACK
6
CONTINUOUS
10
-0.9792086220472441
20
-0.7033198818897638
11
-0.9792116929133858
21
-0.7033673622047244
0
LINE
8
BLACK
6
CONTINUOUS
10
-0.9792116929133858
20
-0.7033673622047244
11
-0.9798979527559055
21
-0.7059283464566929
0
LINE
8
BLACK
6
CONTINUOUS
10
-0.9798979527559055
20
-0.7059283464566929
11
-0.9799187401574803
21
-0.7059704724409449
0
LINE
8
BLACK
6
CONTINUOUS
10
-0.9799187401574803
20
-0.7059704724409449
11
-0.9799367322834646
21
-0.7060146456692913
0
LINE
8
BLACK
6
CONTINUOUS
10
-0.9799367322834646
20
-0.7060146456692913
11
-0.9822465354330708
21
-0.7095129527559055
0
LINE
8
BLACK
6
CONTINUOUS
10
-0.9822465354330708
20
-0.7095129527559055
11
-0.982256968503937
21
-0.7095234645669292
0
LINE
8
BLACK
6
CONTINUOUS
10
-0.982256968503937
20
-0.7095234645669292
11
-0.9822587007874015
21
-0.70953
0
LINE
8
BLACK
6
CONTINUOUS
10
-0.9822587007874015
20
-0.70953
11
-0.9822941732283464
21
-0.709561062992126
0
LINE
8
BLACK
6
CONTINUOUS
10
-0.9822941732283464
20
-0.709561062992126
11
-0.982327559055118
21
-0.7095948818897637
0
LINE
8
BLACK
6
CONTINUOUS
10
-0.982327559055118
20
-0.7095948818897637
11
-0.9823342125984251
21
-0.709596220472441
0
LINE
8
BLACK
6
CONTINUOUS
10
-0.9823342125984251
20
-0.709596220472441
11
-0.9823453149606299
21
-0.7096059842519685
0
LINE
8
BLACK
6
CONTINUOUS
10
-0.9823453149606299
20
-0.7096059842519685
11
-0.9855924803149606
21
-0.7114807480314961
0
LINE
8
BLACK
6
CONTINUOUS
10
-0.9855924803149606
20
-0.7114807480314961
11
-0.9856064960629921
21
-0.7114854724409448
0
LINE
8
BLACK
6
CONTINUOUS
10
-0.9856064960629921
20
-0.7114854724409448
11
-0.9856109842519685
21
-0.7114905905511811
0
LINE
8
BLACK
6
CONTINUOUS
10
-0.9856109842519685
20
-0.7114905905511811
11
-0.9856569291338583
21
-0.7115025984251968
0
LINE
8
BLACK
6
CONTINUOUS
10
-0.9856569291338583
20
-0.7115025984251968
11
-0.9857015748031496
21
-0.7115177952755906
0
LINE
8
BLACK
6
CONTINUOUS
10
-0.9857015748031496
20
-0.7115177952755906
11
-0.9857081102362204
21
-0.7115160236220472
0
LINE
8
BLACK
6
CONTINUOUS
10
-0.9857081102362204
20
-0.7115160236220472
11
-0.9857224409448818
21
-0.7115198031496063
0
LINE
8
BLACK
6
CONTINUOUS
10
-0.9857224409448818
20
-0.7115198031496063
11
-0.9899070078740158
21
-0.7117709842519685
0
LINE
8
BLACK
6
CONTINUOUS
10
-0.9899070078740158
20
-0.7117709842519685
11
-0.989953937007874
21
-0.7117645275590551
0
LINE
8
BLACK
6
CONTINUOUS
10
-0.989953937007874
20
-0.7117645275590551
11
-0.9900011023622047
21
-0.7117614566929134
0
LINE
8
BLACK
6
CONTINUOUS
10
-0.9900011023622047
20
-0.7117614566929134
11
-0.9925620866141732
21
-0.7110751968503937
0
LINE
8
BLACK
6
CONTINUOUS
10
-0.9925620866141732
20
-0.7110751968503937
11
-0.9926043700787401
21
-0.7110543307086614
0
LINE
8
BLACK
6
CONTINUOUS
10
-0.9926043700787401
20
-0.7110543307086614
11
-0.9926483464566929
21
-0.7110364173228346
0
LINE
8
BLACK
6
CONTINUOUS
10
-0.9926483464566929
20
-0.7110364173228346
11
-0.9961467322834645
21
-0.7087266141732284
0
LINE
8
BLACK
6
CONTINUOUS
10
-0.9961467322834645
20
-0.7087266141732284
11
-0.9961697637795275
21
-0.7087038188976378
0
LINE
8
BLACK
6
CONTINUOUS
10
-0.9961697637795275
20
-0.7087038188976378
11
-0.9961963385826771
21
-0.7086854330708662
0
LINE
8
BLACK
6
CONTINUOUS
10
-0.9961963385826771
20
-0.7086854330708662
11
-1.0015694488188975
21
-0.7031284251968504
0
LINE
8
BLACK
6
CONTINUOUS
10
-1.0015694488188975
20
-0.7031284251968504
11
-1.0015890551181101
21
-0.703098031496063
0
LINE
8
BLACK
6
CONTINUOUS
10
-1.0015890551181101
20
-0.703098031496063
11
-1.0016128740157479
21
-0.7030708267716536
0
LINE
8
BLACK
6
CONTINUOUS
10
-1.0016128740157479
20
-0.7030708267716536
11
-1.0062998031496062
21
-0.694952874015748
0
LINE
8
BLACK
6
CONTINUOUS
10
-1.0062998031496062
20
-0.694952874015748
11
-1.0063114566929134
21
-0.6949186220472441
0
LINE
8
BLACK
6
CONTINUOUS
10
-1.0063114566929134
20
-0.6949186220472441
11
-1.0063279921259842
21
-0.6948864173228346
0
LINE
8
BLACK
6
CONTINUOUS
10
-1.0063279921259842
20
-0.6948864173228346
11
-1.0084538976377952
21
-0.68745468503937
0
LINE
8
BLACK
6
CONTINUOUS
10
-1.0084538976377952
20
-0.68745468503937
11
-1.0084565748031495
21
-0.6874224803149606
0
LINE
8
BLACK
6
CONTINUOUS
10
-1.0084565748031495
20
-0.6874224803149606
11
-1.0084647637795274
21
-0.6873911417322834
0
LINE
8
BLACK
6
CONTINUOUS
10
-1.0084647637795274
20
-0.6873911417322834
11
-1.0087159448818896
21
-0.6832065748031496
0
LINE
8
BLACK
6
CONTINUOUS
10
-1.0087159448818896
20
-0.6832065748031496
11
-1.0087094881889764
21
-0.6831592913385827
0
LINE
8
BLACK
6
CONTINUOUS
10
-1.0087094881889764
20
-0.6831592913385827
11
-1.0087063779527559
21
-0.6831124803149606
0
LINE
8
BLACK
6
CONTINUOUS
10
-1.0087063779527559
20
-0.6831124803149606
11
-1.0080201574803149
21
-0.6805514960629921
0
LINE
8
BLACK
6
CONTINUOUS
10
-1.0080201574803149
20
-0.6805514960629921
11
-1.0079993307086614
21
-0.6805092125984252
0
LINE
8
BLACK
6
CONTINUOUS
10
-1.0079993307086614
20
-0.6805092125984252
11
-1.0079813779527558
21
-0.6804652362204724
0
LINE
8
BLACK
6
CONTINUOUS
10
-1.0079813779527558
20
-0.6804652362204724
11
-1.0056715748031495
21
-0.6769668897637795
0
LINE
8
BLACK
6
CONTINUOUS
10
-1.0056715748031495
20
-0.6769668897637795
11
-1.0056611811023621
21
-0.6769563385826771
0
LINE
8
BLACK
6
CONTINUOUS
10
-1.0056611811023621
20
-0.6769563385826771
11
-1.0056594094488189
21
-0.6769498031496063
0
LINE
8
BLACK
6
CONTINUOUS
10
-1.0056594094488189
20
-0.6769498031496063
11
-1.0056238188976379
21
-0.6769185433070866
0
LINE
8
BLACK
6
CONTINUOUS
10
-1.0056238188976379
20
-0.6769185433070866
11
-1.0055905511811023
21
-0.6768849606299212
0
LINE
8
BLACK
6
CONTINUOUS
10
-1.0055905511811023
20
-0.6768849606299212
11
-1.0055839370078741
21
-0.6768835826771653
0
LINE
8
BLACK
6
CONTINUOUS
10
-1.0055839370078741
20
-0.6768835826771653
11
-1.0055727952755906
21
-0.6768738582677165
0
LINE
8
BLACK
6
CONTINUOUS
10
-1.0055727952755906
20
-0.6768738582677165
11
-1.0023256299212597
21
-0.674999094488189
0
LINE
8
BLACK
6
CONTINUOUS
10
-1.0023256299212597
20
-0.674999094488189
11
-1.002311653543307
21
-0.6749943307086614
0
LINE
8
BLACK
6
CONTINUOUS
10
-1.002311653543307
20
-0.6749943307086614
11
-1.002307125984252
21
-0.6749892519685039
0
LINE
8
BLACK
6
CONTINUOUS
10
-1.002307125984252
20
-0.6749892519685039
11
-1.0022612204724408
21
-0.6749772047244095
0
LINE
8
BLACK
6
CONTINUOUS
10
-1.0022612204724408
20
-0.6749772047244095
11
-1.0022165354330708
21
-0.6749620472440945
0
LINE
8
BLACK
6
CONTINUOUS
10
-1.0022165354330708
20
-0.6749620472440945
11
-1.0022100393700788
21
-0.674963779527559
0
LINE
8
BLACK
6
CONTINUOUS
10
-1.0022100393700788
20
-0.674963779527559
11
-1.0021956692913385
21
-0.6749600393700788
0
LINE
8
BLACK
6
CONTINUOUS
10
-1.0021956692913385
20
-0.6749600393700788
11
-0.9980111417322834
21
-0.6747088582677165
0
LINE
8
BLACK
6
CONTINUOUS
10
-0.9980111417322834
20
-0.6747088582677165
11
-0.9979641732283464
21
-0.6747153149606299
0
LINE
8
BLACK
6
CONTINUOUS
10
-1.0020907874015748
20
-0.6755453543307086
11
-1.0052171259842519
21
-0.6773503937007874
0
LINE
8
BLACK
6
CONTINUOUS
10
-1.0052171259842519
20
-0.6773503937007874
11
-1.007462125984252
21
-0.6807505511811024
0
LINE
8
BLACK
6
CONTINUOUS
10
-1.007462125984252
20
-0.6807505511811024
11
-1.0081235826771653
21
-0.6832188976377953
0
LINE
8
BLACK
6
CONTINUOUS
10
-1.0081235826771653
20
-0.6832188976377953
11
-1.0078772047244093
21
-0.6873234251968504
0
LINE
8
BLACK
6
CONTINUOUS
10
-1.0078772047244093
20
-0.6873234251968504
11
-1.0057701968503936
21
-0.6946891338582677
0
LINE
8
BLACK
6
CONTINUOUS
10
-1.0057701968503936
20
-0.6946891338582677
11
-1.0011196456692912
21
-0.7027440551181102
0
LINE
8
BLACK
6
CONTINUOUS
10
-1.0011196456692912
20
-0.7027440551181102
11
-0.9957942125984252
21
-0.7082516929133859
0
LINE
8
BLACK
6
CONTINUOUS
10
-0.9957942125984252
20
-0.7082516929133859
11
-0.9923629527559055
21
-0.7105172047244094
0
LINE
8
BLACK
6
CONTINUOUS
10
-0.9923629527559055
20
-0.7105172047244094
11
-0.9898946850393701
21
-0.7111785826771654
0
LINE
8
BLACK
6
CONTINUOUS
10
-0.9898946850393701
20
-0.7111785826771654
11
-0.9858273622047243
21
-0.7109344094488189
0
LINE
8
BLACK
6
CONTINUOUS
10
-0.9858273622047243
20
-0.7109344094488189
11
-0.9827009842519685
21
-0.7091294094488189
0
LINE
8
BLACK
6
CONTINUOUS
10
-0.9827009842519685
20
-0.7091294094488189
11
-0.9804559448818897
21
-0.7057291732283465
0
LINE
8
BLACK
6
CONTINUOUS
10
-0.9804559448818897
20
-0.7057291732283465
11
-0.9797945669291338
21
-0.703260905511811
0
LINE
8
BLACK
6
CONTINUOUS
10
-0.9797945669291338
20
-0.703260905511811
11
-0.9800409448818898
21
-0.6991563385826771
0
LINE
8
BLACK
6
CONTINUOUS
10
-0.9800409448818898
20
-0.6991563385826771
11
-0.9821479527559055
21
-0.6917906692913386
0
LINE
8
BLACK
6
CONTINUOUS
10
-0.9821479527559055
20
-0.6917906692913386
11
-0.9867985039370079
21
-0.6837357086614173
0
LINE
8
BLACK
6
CONTINUOUS
10
-0.9867985039370079
20
-0.6837357086614173
11
-0.9921238188976378
21
-0.6782281889763779
0
LINE
8
BLACK
6
CONTINUOUS
10
-0.9921238188976378
20
-0.6782281889763779
11
-0.9955551181102362
21
-0.6759626771653543
0
LINE
8
BLACK
6
CONTINUOUS
10
-0.9955551181102362
20
-0.6759626771653543
11
-0.9980234645669291
21
-0.6753012204724409
0
LINE
8
BLACK
6
CONTINUOUS
10
-0.9980234645669291
20
-0.6753012204724409
11
-1.0020907874015748
21
-0.6755453543307086
0
LINE
8
BLACK
6
CONTINUOUS
10
-0.9622450787401574
20
-0.654092874015748
11
-0.9621979133858267
21
-0.6540959842519685
0
LINE
8
BLACK
6
CONTINUOUS
10
-0.9621979133858267
20
-0.6540959842519685
11
-0.9596369291338582
21
-0.6547822047244094
0
LINE
8
BLACK
6
CONTINUOUS
10
-0.9596369291338582
20
-0.6547822047244094
11
-0.9595335826771654
21
-0.6548331496062992
0
LINE
8
BLACK
6
CONTINUOUS
10
-0.9595335826771654
20
-0.6548331496062992
11
-0.9594205905511811
21
-0.6550288582677165
0
LINE
8
BLACK
6
CONTINUOUS
10
-0.9594205905511811
20
-0.6550288582677165
11
-0.9594790944881889
21
-0.6552471653543307
0
LINE
8
BLACK
6
CONTINUOUS
10
-0.9594790944881889
20
-0.6552471653543307
11
-0.9596748031496063
21
-0.655360157480315
0
LINE
8
BLACK
6
CONTINUOUS
10
-0.9596748031496063
20
-0.655360157480315
11
-0.9597897637795275
21
-0.6553526377952755
0
LINE
8
BLACK
6
CONTINUOUS
10
-0.9597897637795275
20
-0.6553526377952755
11
-0.9623043700787401
21
-0.654678779527559
0
LINE
8
BLACK
6
CONTINUOUS
10
-0.9623043700787401
20
-0.654678779527559
11
-0.9663716929133858
21
-0.6549229133858268
0
LINE
8
BLACK
6
CONTINUOUS
10
-0.9663716929133858
20
-0.6549229133858268
11
-0.9743688582677165
21
-0.6595401181102362
0
LINE
8
BLACK
6
CONTINUOUS
10
-0.9743688582677165
20
-0.6595401181102362
11
-0.9766138976377953
21
-0.6629403543307086
0
LINE
8
BLACK
6
CONTINUOUS
10
-0.9766138976377953
20
-0.6629403543307086
11
-0.9772752755905512
21
-0.665408622047244
0
LINE
8
BLACK
6
CONTINUOUS
10
-0.9772752755905512
20
-0.665408622047244
11
-0.9770311417322834
21
-0.6694759448818898
0
LINE
8
BLACK
6
CONTINUOUS
10
-0.9770311417322834
20
-0.6694759448818898
11
-0.9752152755905512
21
-0.6726211811023622
0
LINE
8
BLACK
6
CONTINUOUS
10
-0.9752152755905512
20
-0.6726211811023622
11
-0.9708674409448819
21
-0.6764766141732284
0
LINE
8
BLACK
6
CONTINUOUS
10
-0.9708674409448819
20
-0.6764766141732284
11
-0.9402030708661417
21
-0.6846931102362205
0
LINE
8
BLACK
6
CONTINUOUS
10
-0.9402030708661417
20
-0.6846931102362205
11
-0.9400997244094488
21
-0.6847440551181102
0
LINE
8
BLACK
6
CONTINUOUS
10
-0.9400997244094488
20
-0.6847440551181102
11
-0.9399867322834645
21
-0.6849397637795276
0
LINE
8
BLACK
6
CONTINUOUS
10
-0.9399867322834645
20
-0.6849397637795276
11
-0.9400452362204724
21
-0.6851580708661417
0
LINE
8
BLACK
6
CONTINUOUS
10
-0.9400452362204724
20
-0.6851580708661417
11
-0.9401318503937007
21
-0.6852340157480314
0
LINE
8
BLACK
6
CONTINUOUS
10
-0.9401318503937007
20
-0.6852340157480314
11
-0.9612385826771653
21
-0.6974199999999999
0
LINE
8
BLACK
6
CONTINUOUS
10
-0.9612385826771653
20
-0.6974199999999999
11
-0.9613476771653543
21
-0.6974570472440945
0
LINE
8
BLACK
6
CONTINUOUS
10
-0.9613476771653543
20
-0.6974570472440945
11
-0.9615659842519685
21
-0.6973985433070866
0
LINE
8
BLACK
6
CONTINUOUS
10
-0.9615659842519685
20
-0.6973985433070866
11
-0.9616789763779527
21
-0.6972028346456692
0
LINE
8
BLACK
6
CONTINUOUS
10
-0.9616789763779527
20
-0.6972028346456692
11
-0.9616204724409448
21
-0.6969845275590552
0
LINE
8
BLACK
6
CONTINUOUS
10
-0.9616204724409448
20
-0.6969845275590552
11
-0.9615338582677165
21
-0.6969085826771654
0
LINE
8
BLACK
6
CONTINUOUS
10
-0.9615338582677165
20
-0.6969085826771654
11
-0.9410444488188976
21
-0.6850789763779528
0
LINE
8
BLACK
6
CONTINUOUS
10
-0.9410444488188976
20
-0.6850789763779528
11
-0.9710876377952755
21
-0.6770289763779528
0
LINE
8
BLACK
6
CONTINUOUS
10
-0.9710876377952755
20
-0.6770289763779528
11
-0.9711009448818897
21
-0.6770224015748031
0
LINE
8
BLACK
6
CONTINUOUS
10
-0.9711009448818897
20
-0.6770224015748031
11
-0.9711076771653543
21
-0.6770228346456693
0
LINE
8
BLACK
6
CONTINUOUS
10
-0.9711076771653543
20
-0.6770228346456693
11
-0.9711484251968504
21
-0.6769990157480315
0
LINE
8
BLACK
6
CONTINUOUS
10
-0.9711484251968504
20
-0.6769990157480315
11
-0.9711909842519685
21
-0.6769780314960629
0
LINE
8
BLACK
6
CONTINUOUS
10
-0.9711909842519685
20
-0.6769780314960629
11
-0.9711944094488189
21
-0.6769721259842519
0
LINE
8
BLACK
6
CONTINUOUS
10
-0.9711944094488189
20
-0.6769721259842519
11
-0.971207125984252
21
-0.67696468503937
0
LINE
8
BLACK
6
CONTINUOUS
10
-0.971207125984252
20
-0.67696468503937
11
-0.975642874015748
21
-0.6730313385826772
0
LINE
8
BLACK
6
CONTINUOUS
10
-0.975642874015748
20
-0.6730313385826772
11
-0.9756716141732283
21
-0.6729934645669291
0
LINE
8
BLACK
6
CONTINUOUS
10
-0.9756716141732283
20
-0.6729934645669291
11
-0.9757026771653543
21
-0.6729580314960629
0
LINE
8
BLACK
6
CONTINUOUS
10
-0.9757026771653543
20
-0.6729580314960629
11
-0.9775774409448819
21
-0.6697108267716535
0
LINE
8
BLACK
6
CONTINUOUS
10
-0.9775774409448819
20
-0.6697108267716535
11
-0.9775822047244094
21
-0.669696811023622
0
LINE
8
BLACK
6
CONTINUOUS
10
-0.9775822047244094
20
-0.669696811023622
11
-0.9775872834645669
21
-0.6696923228346456
0
LINE
8
BLACK
6
CONTINUOUS
10
-0.9775872834645669
20
-0.6696923228346456
11
-0.9775993307086613
21
-0.6696463779527559
0
LINE
8
BLACK
6
CONTINUOUS
10
-0.9775993307086613
20
-0.6696463779527559
11
-0.9776144881889763
21
-0.6696017322834645
0
LINE
8
BLACK
6
CONTINUOUS
10
-0.9776144881889763
20
-0.6696017322834645
11
-0.9776127559055118
21
-0.6695951968503937
0
LINE
8
BLACK
6
CONTINUOUS
10
-0.9776127559055118
20
-0.6695951968503937
11
-0.9776164960629921
21
-0.6695808661417323
0
LINE
8
BLACK
6
CONTINUOUS
10
-0.9776164960629921
20
-0.6695808661417323
11
-0.9778676377952755
21
-0.6653962992125985
0
LINE
8
BLACK
6
CONTINUOUS
10
-0.9778676377952755
20
-0.6653962992125985
11
-0.9778611811023622
21
-0.6653492519685039
0
LINE
8
BLACK
6
CONTINUOUS
10
-0.9778611811023622
20
-0.6653492519685039
11
-0.9778580708661417
21
-0.6653022047244095
0
LINE
8
BLACK
6
CONTINUOUS
10
-0.9778580708661417
20
-0.6653022047244095
11
-0.9771719291338582
21
-0.6627412204724409
0
LINE
8
BLACK
6
CONTINUOUS
10
-0.9771719291338582
20
-0.6627412204724409
11
-0.9771510236220472
21
-0.6626987795275591
0
LINE
8
BLACK
6
CONTINUOUS
10
-0.9771510236220472
20
-0.6626987795275591
11
-0.9771331102362204
21
-0.6626549606299212
0
LINE
8
BLACK
6
CONTINUOUS
10
-0.9771331102362204
20
-0.6626549606299212
11
-0.9748232677165354
21
-0.6591565748031496
0
LINE
8
BLACK
6
CONTINUOUS
10
-0.9748232677165354
20
-0.6591565748031496
11
-0.974812874015748
21
-0.6591460236220472
0
LINE
8
BLACK
6
CONTINUOUS
10
-0.974812874015748
20
-0.6591460236220472
11
-0.9748111023622047
21
-0.6591395275590551
0
LINE
8
BLACK
6
CONTINUOUS
10
-0.9748111023622047
20
-0.6591395275590551
11
-0.9747756299212598
21
-0.6591083858267717
0
LINE
8
BLACK
6
CONTINUOUS
10
-0.9747756299212598
20
-0.6591083858267717
11
-0.9747422440944882
21
-0.6590746850393701
0
LINE
8
BLACK
6
CONTINUOUS
10
-0.9747422440944882
20
-0.6590746850393701
11
-0.9747356299212598
21
-0.6590733070866142
0
LINE
8
BLACK
6
CONTINUOUS
10
-0.9747356299212598
20
-0.6590733070866142
11
-0.9747244881889764
21
-0.6590635826771654
0
LINE
8
BLACK
6
CONTINUOUS
10
-0.9747244881889764
20
-0.6590635826771654
11
-0.9666065354330708
21
-0.6543766535433071
0
LINE
8
BLACK
6
CONTINUOUS
10
-0.9666065354330708
20
-0.6543766535433071
11
-0.9665925590551181
21
-0.6543718897637795
0
LINE
8
BLACK
6
CONTINUOUS
10
-0.9665925590551181
20
-0.6543718897637795
11
-0.966588031496063
21
-0.654366811023622
0
LINE
8
BLACK
6
CONTINUOUS
10
-0.966588031496063
20
-0.654366811023622
11
-0.9665421259842519
21
-0.6543547637795275
0
LINE
8
BLACK
6
CONTINUOUS
10
-0.9665421259842519
20
-0.6543547637795275
11
-0.9664974409448819
21
-0.6543396062992126
0
LINE
8
BLACK
6
CONTINUOUS
10
-0.9664974409448819
20
-0.6543396062992126
11
-0.9664909448818897
21
-0.6543413385826772
0
LINE
8
BLACK
6
CONTINUOUS
10
-0.9664909448818897
20
-0.6543413385826772
11
-0.9664765748031496
21
-0.6543375984251968
0
LINE
8
BLACK
6
CONTINUOUS
10
-0.9664765748031496
20
-0.6543375984251968
11
-0.9622920472440945
21
-0.6540864173228347
0
LINE
8
BLACK
6
CONTINUOUS
10
-0.9622920472440945
20
-0.6540864173228347
11
-0.9622450787401574
21
-0.654092874015748
0
LINE
8
BLACK
6
CONTINUOUS
10
-0.9330203543307086
20
-0.63722
11
-0.9329731889763779
21
-0.6372231102362205
0
LINE
8
BLACK
6
CONTINUOUS
10
-0.9329731889763779
20
-0.6372231102362205
11
-0.9304122047244094
21
-0.6379093307086614
0
LINE
8
BLACK
6
CONTINUOUS
10
-0.9304122047244094
20
-0.6379093307086614
11
-0.9303699606299213
21
-0.6379301574803149
0
LINE
8
BLACK
6
CONTINUOUS
10
-0.9303699606299213
20
-0.6379301574803149
11
-0.9303259448818897
21
-0.6379481102362204
0
LINE
8
BLACK
6
CONTINUOUS
10
-0.9303259448818897
20
-0.6379481102362204
11
-0.9268275984251968
21
-0.6402579133858267
0
LINE
8
BLACK
6
CONTINUOUS
10
-0.9268275984251968
20
-0.6402579133858267
11
-0.9268046062992126
21
-0.6402806299212598
0
LINE
8
BLACK
6
CONTINUOUS
10
-0.9268046062992126
20
-0.6402806299212598
11
-0.9267779921259842
21
-0.640299094488189
0
LINE
8
BLACK
6
CONTINUOUS
10
-0.9267779921259842
20
-0.640299094488189
11
-0.9214048818897638
21
-0.6458560629921259
0
LINE
8
BLACK
6
CONTINUOUS
10
-0.9214048818897638
20
-0.6458560629921259
11
-0.9213852755905512
21
-0.6458864960629921
0
LINE
8
BLACK
6
CONTINUOUS
10
-0.9213852755905512
20
-0.6458864960629921
11
-0.9213614566929134
21
-0.6459136614173229
0
LINE
8
BLACK
6
CONTINUOUS
10
-0.9213614566929134
20
-0.6459136614173229
11
-0.9166745275590551
21
-0.6540316535433071
0
LINE
8
BLACK
6
CONTINUOUS
10
-0.9166745275590551
20
-0.6540316535433071
11
-0.9166629133858267
21
-0.6540658661417322
0
LINE
8
BLACK
6
CONTINUOUS
10
-0.9166629133858267
20
-0.6540658661417322
11
-0.9166463385826772
21
-0.6540980708661417
0
LINE
8
BLACK
6
CONTINUOUS
10
-0.9166463385826772
20
-0.6540980708661417
11
-0.9145203937007874
21
-0.6615298818897638
0
LINE
8
BLACK
6
CONTINUOUS
10
-0.9145203937007874
20
-0.6615298818897638
11
-0.9145177559055118
21
-0.6615620078740158
0
LINE
8
BLACK
6
CONTINUOUS
10
-0.9145177559055118
20
-0.6615620078740158
11
-0.9145095275590551
21
-0.6615933858267716
0
LINE
8
BLACK
6
CONTINUOUS
10
-0.9145095275590551
20
-0.6615933858267716
11
-0.9142583858267717
21
-0.6657779133858267
0
LINE
8
BLACK
6
CONTINUOUS
10
-0.9142583858267717
20
-0.6657779133858267
11
-0.9142648818897637
21
-0.665824842519685
0
LINE
8
BLACK
6
CONTINUOUS
10
-0.9142648818897637
20
-0.665824842519685
11
-0.9142679527559054
21
-0.6658720866141732
0
LINE
8
BLACK
6
CONTINUOUS
10
-0.9142679527559054
20
-0.6658720866141732
11
-0.9149541338582677
21
-0.6684330314960629
0
LINE
8
BLACK
6
CONTINUOUS
10
-0.9149541338582677
20
-0.6684330314960629
11
-0.9149748818897637
21
-0.6684750787401574
0
LINE
8
BLACK
6
CONTINUOUS
10
-0.9149748818897637
20
-0.6684750787401574
11
-0.9149929133858268
21
-0.6685193307086614
0
LINE
8
BLACK
6
CONTINUOUS
10
-0.9149929133858268
20
-0.6685193307086614
11
-0.917302716535433
21
-0.6720176377952756
0
LINE
8
BLACK
6
CONTINUOUS
10
-0.917302716535433
20
-0.6720176377952756
11
-0.9173131496062992
21
-0.6720281496062992
0
LINE
8
BLACK
6
CONTINUOUS
10
-0.9173131496062992
20
-0.6720281496062992
11
-0.9173148818897637
21
-0.6720347244094488
0
LINE
8
BLACK
6
CONTINUOUS
10
-0.9173148818897637
20
-0.6720347244094488
11
-0.9173505118110236
21
-0.6720659448818898
0
LINE
8
BLACK
6
CONTINUOUS
10
-0.9173505118110236
20
-0.6720659448818898
11
-0.9173837401574803
21
-0.6720995669291339
0
LINE
8
BLACK
6
CONTINUOUS
10
-0.9173837401574803
20
-0.6720995669291339
11
-0.9173903937007873
21
-0.672100905511811
0
LINE
8
BLACK
6
CONTINUOUS
10
-0.9173903937007873
20
-0.672100905511811
11
-0.9174014960629922
21
-0.6721106692913386
0
LINE
8
BLACK
6
CONTINUOUS
10
-0.9174014960629922
20
-0.6721106692913386
11
-0.9206487007874016
21
-0.6739854330708661
0
LINE
8
BLACK
6
CONTINUOUS
10
-0.9206487007874016
20
-0.6739854330708661
11
-0.9206627165354331
21
-0.673990157480315
0
LINE
8
BLACK
6
CONTINUOUS
10
-0.9206627165354331
20
-0.673990157480315
11
-0.9206672047244094
21
-0.6739952755905512
0
LINE
8
BLACK
6
CONTINUOUS
10
-0.9206672047244094
20
-0.6739952755905512
11
-0.9207131496062992
21
-0.674007283464567
0
LINE
8
BLACK
6
CONTINUOUS
10
-0.9207131496062992
20
-0.674007283464567
11
-0.9207577952755905
21
-0.6740224803149606
0
LINE
8
BLACK
6
CONTINUOUS
10
-0.9207577952755905
20
-0.6740224803149606
11
-0.9207643307086614
21
-0.6740207086614173
0
LINE
8
BLACK
6
CONTINUOUS
10
-0.9207643307086614
20
-0.6740207086614173
11
-0.9207786614173228
21
-0.6740244881889763
0
LINE
8
BLACK
6
CONTINUOUS
10
-0.9207786614173228
20
-0.6740244881889763
11
-0.9249632283464567
21
-0.6742756692913385
0
LINE
8
BLACK
6
CONTINUOUS
10
-0.9249632283464567
20
-0.6742756692913385
11
-0.9250101574803149
21
-0.6742692125984252
0
LINE
8
BLACK
6
CONTINUOUS
10
-0.9250101574803149
20
-0.6742692125984252
11
-0.9250573228346457
21
-0.6742661417322835
0
LINE
8
BLACK
6
CONTINUOUS
10
-0.9250573228346457
20
-0.6742661417322835
11
-0.9276183070866142
21
-0.6735798818897638
0
LINE
8
BLACK
6
CONTINUOUS
10
-0.9276183070866142
20
-0.6735798818897638
11
-0.9276604724409448
21
-0.673559094488189
0
LINE
8
BLACK
6
CONTINUOUS
10
-0.9276604724409448
20
-0.673559094488189
11
-0.9277046062992126
21
-0.6735411023622047
0
LINE
8
BLACK
6
CONTINUOUS
10
-0.9277046062992126
20
-0.6735411023622047
11
-0.9312029133858267
21
-0.6712312992125984
0
LINE
8
BLACK
6
CONTINUOUS
10
-0.9312029133858267
20
-0.6712312992125984
11
-0.9312259448818897
21
-0.6712085433070866
0
LINE
8
BLACK
6
CONTINUOUS
10
-0.9312259448818897
20
-0.6712085433070866
11
-0.9312525196850393
21
-0.6711901181102362
0
LINE
8
BLACK
6
CONTINUOUS
10
-0.9312525196850393
20
-0.6711901181102362
11
-0.9366256692913386
21
-0.6656331102362204
0
LINE
8
BLACK
6
CONTINUOUS
10
-0.9366256692913386
20
-0.6656331102362204
11
-0.9366452755905511
21
-0.665602716535433
0
LINE
8
BLACK
6
CONTINUOUS
10
-0.9366452755905511
20
-0.665602716535433
11
-0.9366690944881889
21
-0.6655755118110236
0
LINE
8
BLACK
6
CONTINUOUS
10
-0.9366690944881889
20
-0.6655755118110236
11
-0.9413559842519685
21
-0.657457559055118
0
LINE
8
BLACK
6
CONTINUOUS
10
-0.9413559842519685
20
-0.657457559055118
11
-0.9413676377952755
21
-0.6574233070866141
0
LINE
8
BLACK
6
CONTINUOUS
10
-0.9413676377952755
20
-0.6574233070866141
11
-0.9413841732283464
21
-0.6573911417322834
0
LINE
8
BLACK
6
CONTINUOUS
10
-0.9413841732283464
20
-0.6573911417322834
11
-0.9435101181102362
21
-0.6499593700787402
0
LINE
8
BLACK
6
CONTINUOUS
10
-0.9435101181102362
20
-0.6499593700787402
11
-0.9435127952755905
21
-0.6499271653543307
0
LINE
8
BLACK
6
CONTINUOUS
10
-0.9435127952755905
20
-0.6499271653543307
11
-0.9435209842519685
21
-0.6498958267716535
0
LINE
8
BLACK
6
CONTINUOUS
10
-0.9435209842519685
20
-0.6498958267716535
11
-0.9437721653543307
21
-0.6457112598425196
0
LINE
8
BLACK
6
CONTINUOUS
10
-0.9437721653543307
20
-0.6457112598425196
11
-0.9437657086614173
21
-0.6456639763779527
0
LINE
8
BLACK
6
CONTINUOUS
10
-0.9437657086614173
20
-0.6456639763779527
11
-0.9437625984251968
21
-0.6456171653543307
0
LINE
8
BLACK
6
CONTINUOUS
10
-0.9437625984251968
20
-0.6456171653543307
11
-0.9430763779527559
21
-0.6430561811023622
0
LINE
8
BLACK
6
CONTINUOUS
10
-0.9430763779527559
20
-0.6430561811023622
11
-0.9430555511811023
21
-0.6430138976377953
0
LINE
8
BLACK
6
CONTINUOUS
10
-0.9430555511811023
20
-0.6430138976377953
11
-0.9430375984251969
21
-0.6429699212598425
0
LINE
8
BLACK
6
CONTINUOUS
10
-0.9430375984251969
20
-0.6429699212598425
11
-0.9407277952755906
21
-0.6394715748031496
0
LINE
8
BLACK
6
CONTINUOUS
10
-0.9407277952755906
20
-0.6394715748031496
11
-0.9407174015748031
21
-0.6394610236220473
0
LINE
8
BLACK
6
CONTINUOUS
10
-0.9407174015748031
20
-0.6394610236220473
11
-0.9407156299212598
21
-0.6394544881889763
0
LINE
8
BLACK
6
CONTINUOUS
10
-0.9407156299212598
20
-0.6394544881889763
11
-0.9406800393700787
21
-0.6394232283464567
0
LINE
8
BLACK
6
CONTINUOUS
10
-0.9406800393700787
20
-0.6394232283464567
11
-0.9406467716535433
21
-0.6393896456692914
0
LINE
8
BLACK
6
CONTINUOUS
10
-0.9406467716535433
20
-0.6393896456692914
11
-0.9406401574803149
21
-0.6393882677165355
0
LINE
8
BLACK
6
CONTINUOUS
10
-0.9406401574803149
20
-0.6393882677165355
11
-0.9406290157480315
21
-0.6393785433070865
0
LINE
8
BLACK
6
CONTINUOUS
10
-0.9406290157480315
20
-0.6393785433070865
11
-0.9373818110236221
21
-0.637503779527559
0
LINE
8
BLACK
6
CONTINUOUS
10
-0.9373818110236221
20
-0.637503779527559
11
-0.9373678346456693
21
-0.6374990157480315
0
LINE
8
BLACK
6
CONTINUOUS
10
-0.9373678346456693
20
-0.6374990157480315
11
-0.9373633070866142
21
-0.637493937007874
0
LINE
8
BLACK
6
CONTINUOUS
10
-0.9373633070866142
20
-0.637493937007874
11
-0.9373170866141732
21
-0.637481811023622
0
LINE
8
BLACK
6
CONTINUOUS
10
-0.9373170866141732
20
-0.637481811023622
11
-0.9372727165354331
21
-0.6374667716535433
0
LINE
8
BLACK
6
CONTINUOUS
10
-0.9372727165354331
20
-0.6374667716535433
11
-0.9372662992125984
21
-0.6374684645669291
0
LINE
8
BLACK
6
CONTINUOUS
10
-0.9372662992125984
20
-0.6374684645669291
11
-0.9372518503937007
21
-0.6374647244094488
0
LINE
8
BLACK
6
CONTINUOUS
10
-0.9372518503937007
20
-0.6374647244094488
11
-0.9330673228346457
21
-0.6372135433070866
0
LINE
8
BLACK
6
CONTINUOUS
10
-0.9330673228346457
20
-0.6372135433070866
11
-0.9330203543307086
21
-0.63722
0
LINE
8
BLACK
6
CONTINUOUS
10
-0.937146968503937
20
-0.6380500393700788
11
-0.9402733464566929
21
-0.6398550787401575
0
LINE
8
BLACK
6
CONTINUOUS
10
-0.9402733464566929
20
-0.6398550787401575
11
-0.9425183464566929
21
-0.6432552362204724
0
LINE
8
BLACK
6
CONTINUOUS
10
-0.9425183464566929
20
-0.6432552362204724
11
-0.9431798031496063
21
-0.6457235826771653
0
LINE
8
BLACK
6
CONTINUOUS
10
-0.9431798031496063
20
-0.6457235826771653
11
-0.9429334251968504
21
-0.6498281102362204
0
LINE
8
BLACK
6
CONTINUOUS
10
-0.9429334251968504
20
-0.6498281102362204
11
-0.9408263779527559
21
-0.6571937795275591
0
LINE
8
BLACK
6
CONTINUOUS
10
-0.9408263779527559
20
-0.6571937795275591
11
-0.9361758661417323
21
-0.6652487401574803
0
LINE
8
BLACK
6
CONTINUOUS
10
-0.9361758661417323
20
-0.6652487401574803
11
-0.9308505118110236
21
-0.6707562992125984
0
LINE
8
BLACK
6
CONTINUOUS
10
-0.9308505118110236
20
-0.6707562992125984
11
-0.9274191732283464
21
-0.6730218897637795
0
LINE
8
BLACK
6
CONTINUOUS
10
-0.9274191732283464
20
-0.6730218897637795
11
-0.924950905511811
21
-0.6736832677165354
0
LINE
8
BLACK
6
CONTINUOUS
10
-0.924950905511811
20
-0.6736832677165354
11
-0.9208835826771653
21
-0.6734390944881889
0
LINE
8
BLACK
6
CONTINUOUS
10
-0.9208835826771653
20
-0.6734390944881889
11
-0.9177571653543307
21
-0.671634094488189
0
LINE
8
BLACK
6
CONTINUOUS
10
-0.9177571653543307
20
-0.671634094488189
11
-0.9155121259842519
21
-0.6682338582677165
0
LINE
8
BLACK
6
CONTINUOUS
10
-0.9155121259842519
20
-0.6682338582677165
11
-0.9148507874015748
21
-0.6657654724409449
0
LINE
8
BLACK
6
CONTINUOUS
10
-0.9148507874015748
20
-0.6657654724409449
11
-0.915097125984252
21
-0.661661062992126
0
LINE
8
BLACK
6
CONTINUOUS
10
-0.915097125984252
20
-0.661661062992126
11
-0.9172041732283465
21
-0.6542953543307086
0
LINE
8
BLACK
6
CONTINUOUS
10
-0.9172041732283465
20
-0.6542953543307086
11
-0.9218547244094488
21
-0.6462403937007873
0
LINE
8
BLACK
6
CONTINUOUS
10
-0.9218547244094488
20
-0.6462403937007873
11
-0.9271799606299213
21
-0.6407329133858267
0
LINE
8
BLACK
6
CONTINUOUS
10
-0.9271799606299213
20
-0.6407329133858267
11
-0.9306112992125984
21
-0.6384673622047244
0
LINE
8
BLACK
6
CONTINUOUS
10
-0.9306112992125984
20
-0.6384673622047244
11
-0.9330796456692914
21
-0.637805905511811
0
LINE
8
BLACK
6
CONTINUOUS
10
-0.9330796456692914
20
-0.637805905511811
11
-0.937146968503937
21
-0.6380500393700788
0
LINE
8
BLACK
6
CONTINUOUS
10
-0.8973012992125984
20
-0.6165975590551181
11
-0.8972541338582677
21
-0.6166006692913386
0
LINE
8
BLACK
6
CONTINUOUS
10
-0.8972541338582677
20
-0.6166006692913386
11
-0.8946931496062992
21
-0.6172868897637795
0
LINE
8
BLACK
6
CONTINUOUS
10
-0.8946931496062992
20
-0.6172868897637795
11
-0.8945898031496062
21
-0.6173378346456693
0
LINE
8
BLACK
6
CONTINUOUS
10
-0.8945898031496062
20
-0.6173378346456693
11
-0.894476811023622
21
-0.6175335433070867
0
LINE
8
BLACK
6
CONTINUOUS
10
-0.894476811023622
20
-0.6175335433070867
11
-0.8945353149606299
21
-0.6177518503937007
0
LINE
8
BLACK
6
CONTINUOUS
10
-0.8945353149606299
20
-0.6177518503937007
11
-0.8947310236220473
21
-0.617864842519685
0
LINE
8
BLACK
6
CONTINUOUS
10
-0.8947310236220473
20
-0.617864842519685
11
-0.8948459842519685
21
-0.6178573228346457
0
LINE
8
BLACK
6
CONTINUOUS
10
-0.8948459842519685
20
-0.6178573228346457
11
-0.8973605905511811
21
-0.6171834645669291
0
LINE
8
BLACK
6
CONTINUOUS
10
-0.8973605905511811
20
-0.6171834645669291
11
-0.9014279133858267
21
-0.6174275984251968
0
LINE
8
BLACK
6
CONTINUOUS
10
-0.9014279133858267
20
-0.6174275984251968
11
-0.9094250393700787
21
-0.6220448031496063
0
LINE
8
BLACK
6
CONTINUOUS
10
-0.9094250393700787
20
-0.6220448031496063
11
-0.9116700393700787
21
-0.6254449606299213
0
LINE
8
BLACK
6
CONTINUOUS
10
-0.9116700393700787
20
-0.6254449606299213
11
-0.9123314960629921
21
-0.6279133070866142
0
LINE
8
BLACK
6
CONTINUOUS
10
-0.9123314960629921
20
-0.6279133070866142
11
-0.9120873228346457
21
-0.6319806299212598
0
LINE
8
BLACK
6
CONTINUOUS
10
-0.9120873228346457
20
-0.6319806299212598
11
-0.9102714566929133
21
-0.6351258661417323
0
LINE
8
BLACK
6
CONTINUOUS
10
-0.9102714566929133
20
-0.6351258661417323
11
-0.9059236220472441
21
-0.6389812992125984
0
LINE
8
BLACK
6
CONTINUOUS
10
-0.9059236220472441
20
-0.6389812992125984
11
-0.875259251968504
21
-0.6471977952755905
0
LINE
8
BLACK
6
CONTINUOUS
10
-0.875259251968504
20
-0.6471977952755905
11
-0.875155905511811
21
-0.6472487401574804
0
LINE
8
BLACK
6
CONTINUOUS
10
-0.875155905511811
20
-0.6472487401574804
11
-0.8750429133858267
21
-0.6474444488188976
0
LINE
8
BLACK
6
CONTINUOUS
10
-0.8750429133858267
20
-0.6474444488188976
11
-0.8751014173228346
21
-0.6476627559055118
0
LINE
8
BLACK
6
CONTINUOUS
10
-0.8751014173228346
20
-0.6476627559055118
11
-0.8751880314960629
21
-0.6477387007874016
0
LINE
8
BLACK
6
CONTINUOUS
10
-0.8751880314960629
20
-0.6477387007874016
11
-0.8962947637795275
21
-0.6599246850393701
0
LINE
8
BLACK
6
CONTINUOUS
10
-0.8962947637795275
20
-0.6599246850393701
11
-0.8964038582677165
21
-0.6599617322834646
0
LINE
8
BLACK
6
CONTINUOUS
10
-0.8964038582677165
20
-0.6599617322834646
11
-0.8966221653543307
21
-0.6599032283464566
0
LINE
8
BLACK
6
CONTINUOUS
10
-0.8966221653543307
20
-0.6599032283464566
11
-0.896735157480315
21
-0.6597075196850394
0
LINE
8
BLACK
6
CONTINUOUS
10
-0.896735157480315
20
-0.6597075196850394
11
-0.8966766535433071
21
-0.6594892125984252
0
LINE
8
BLACK
6
CONTINUOUS
10
-0.8966766535433071
20
-0.6594892125984252
11
-0.8965900393700788
21
-0.6594132677165354
0
LINE
8
BLACK
6
CONTINUOUS
10
-0.8965900393700788
20
-0.6594132677165354
11
-0.8761006299212598
21
-0.6475836614173228
0
LINE
8
BLACK
6
CONTINUOUS
10
-0.8761006299212598
20
-0.6475836614173228
11
-0.9061438188976377
21
-0.6395336614173228
0
LINE
8
BLACK
6
CONTINUOUS
10
-0.9061438188976377
20
-0.6395336614173228
11
-0.9061571259842519
21
-0.6395270866141732
0
LINE
8
BLACK
6
CONTINUOUS
10
-0.9061571259842519
20
-0.6395270866141732
11
-0.9061638582677165
21
-0.6395275196850394
0
LINE
8
BLACK
6
CONTINUOUS
10
-0.9061638582677165
20
-0.6395275196850394
11
-0.9062046062992126
21
-0.6395037007874016
0
LINE
8
BLACK
6
CONTINUOUS
10
-0.9062046062992126
20
-0.6395037007874016
11
-0.9062471653543307
21
-0.6394827165354331
0
LINE
8
BLACK
6
CONTINUOUS
10
-0.9062471653543307
20
-0.6394827165354331
11
-0.9062505905511811
21
-0.6394768110236221
0
LINE
8
BLACK
6
CONTINUOUS
10
-0.9062505905511811
20
-0.6394768110236221
11
-0.9062633070866142
21
-0.6394693700787402
0
LINE
8
BLACK
6
CONTINUOUS
10
-0.9062633070866142
20
-0.6394693700787402
11
-0.9106990551181102
21
-0.6355360236220472
0
LINE
8
BLACK
6
CONTINUOUS
10
-0.9106990551181102
20
-0.6355360236220472
11
-0.9107277952755906
21
-0.6354981496062992
0
LINE
8
BLACK
6
CONTINUOUS
10
-0.9107277952755906
20
-0.6354981496062992
11
-0.9107588582677165
21
-0.6354627165354331
0
LINE
8
BLACK
6
CONTINUOUS
10
-0.9107588582677165
20
-0.6354627165354331
11
-0.9126336220472441
21
-0.6322155118110236
0
LINE
8
BLACK
6
CONTINUOUS
10
-0.9126336220472441
20
-0.6322155118110236
11
-0.9126383858267716
21
-0.6322014960629921
0
LINE
8
BLACK
6
CONTINUOUS
10
-0.9126383858267716
20
-0.6322014960629921
11
-0.9126434645669291
21
-0.6321970078740158
0
LINE
8
BLACK
6
CONTINUOUS
10
-0.9126434645669291
20
-0.6321970078740158
11
-0.9126555118110236
21
-0.632151062992126
0
LINE
8
BLACK
6
CONTINUOUS
10
-0.9126555118110236
20
-0.632151062992126
11
-0.9126706692913386
21
-0.6321064173228347
0
LINE
8
BLACK
6
CONTINUOUS
10
-0.9126706692913386
20
-0.6321064173228347
11
-0.912668937007874
21
-0.6320998818897637
0
LINE
8
BLACK
6
CONTINUOUS
10
-0.912668937007874
20
-0.6320998818897637
11
-0.9126726771653543
21
-0.6320855511811023
0
LINE
8
BLACK
6
CONTINUOUS
10
-0.9126726771653543
20
-0.6320855511811023
11
-0.9129238582677165
21
-0.6279009842519685
0
LINE
8
BLACK
6
CONTINUOUS
10
-0.9129238582677165
20
-0.6279009842519685
11
-0.9129174015748032
21
-0.6278537007874015
0
LINE
8
BLACK
6
CONTINUOUS
10
-0.9129174015748032
20
-0.6278537007874015
11
-0.9129142913385827
21
-0.6278068897637795
0
LINE
8
BLACK
6
CONTINUOUS
10
-0.9129142913385827
20
-0.6278068897637795
11
-0.9122280708661417
21
-0.625245905511811
0
LINE
8
BLACK
6
CONTINUOUS
10
-0.9122280708661417
20
-0.625245905511811
11
-0.9122072440944882
21
-0.6252036220472441
0
LINE
8
BLACK
6
CONTINUOUS
10
-0.9122072440944882
20
-0.6252036220472441
11
-0.9121892913385826
21
-0.6251596456692913
0
LINE
8
BLACK
6
CONTINUOUS
10
-0.9121892913385826
20
-0.6251596456692913
11
-0.9098794881889763
21
-0.6216612992125984
0
LINE
8
BLACK
6
CONTINUOUS
10
-0.9098794881889763
20
-0.6216612992125984
11
-0.909869094488189
21
-0.621650748031496
0
LINE
8
BLACK
6
CONTINUOUS
10
-0.909869094488189
20
-0.621650748031496
11
-0.9098673228346457
21
-0.6216442125984252
0
LINE
8
BLACK
6
CONTINUOUS
10
-0.9098673228346457
20
-0.6216442125984252
11
-0.9098317322834646
21
-0.6216129527559054
0
LINE
8
BLACK
6
CONTINUOUS
10
-0.9098317322834646
20
-0.6216129527559054
11
-0.9097984645669291
21
-0.6215793700787401
0
LINE
8
BLACK
6
CONTINUOUS
10
-0.9097984645669291
20
-0.6215793700787401
11
-0.9097918503937008
21
-0.6215779921259842
0
LINE
8
BLACK
6
CONTINUOUS
10
-0.9097918503937008
20
-0.6215779921259842
11
-0.9097807086614172
21
-0.6215682677165354
0
LINE
8
BLACK
6
CONTINUOUS
10
-0.9097807086614172
20
-0.6215682677165354
11
-0.9016627559055118
21
-0.6168813385826771
0
LINE
8
BLACK
6
CONTINUOUS
10
-0.9016627559055118
20
-0.6168813385826771
11
-0.9016487795275591
21
-0.6168765748031496
0
LINE
8
BLACK
6
CONTINUOUS
10
-0.9016487795275591
20
-0.6168765748031496
11
-0.901644251968504
21
-0.6168714960629921
0
LINE
8
BLACK
6
CONTINUOUS
10
-0.901644251968504
20
-0.6168714960629921
11
-0.9015983464566929
21
-0.6168594488188976
0
LINE
8
BLACK
6
CONTINUOUS
10
-0.9015983464566929
20
-0.6168594488188976
11
-0.9015536614173228
21
-0.6168442913385827
0
LINE
8
BLACK
6
CONTINUOUS
10
-0.9015536614173228
20
-0.6168442913385827
11
-0.9015471653543307
21
-0.6168460236220472
0
LINE
8
BLACK
6
CONTINUOUS
10
-0.9015471653543307
20
-0.6168460236220472
11
-0.9015327952755905
21
-0.6168422834645669
0
LINE
8
BLACK
6
CONTINUOUS
10
-0.9015327952755905
20
-0.6168422834645669
11
-0.8973482677165354
21
-0.6165911023622047
0
LINE
8
BLACK
6
CONTINUOUS
10
-0.8973482677165354
20
-0.6165911023622047
11
-0.8973012992125984
21
-0.6165975590551181
0
LINE
8
BLACK
6
CONTINUOUS
10
-0.867239842519685
20
-0.5972177559055118
11
-0.8671268503937007
21
-0.5974134645669291
0
LINE
8
BLACK
6
CONTINUOUS
10
-0.8671268503937007
20
-0.5974134645669291
11
-0.8671853543307086
21
-0.5976317716535433
0
LINE
8
BLACK
6
CONTINUOUS
10
-0.8671853543307086
20
-0.5976317716535433
11
-0.867271968503937
21
-0.5977077165354331
0
LINE
8
BLACK
6
CONTINUOUS
10
-0.867271968503937
20
-0.5977077165354331
11
-0.876757874015748
21
-0.6031843700787402
0
LINE
8
BLACK
6
CONTINUOUS
10
-0.876757874015748
20
-0.6031843700787402
11
-0.8572204330708662
21
-0.6370241732283465
0
LINE
8
BLACK
6
CONTINUOUS
10
-0.8572204330708662
20
-0.6370241732283465
11
-0.8571833858267717
21
-0.6371332677165354
0
LINE
8
BLACK
6
CONTINUOUS
10
-0.8571833858267717
20
-0.6371332677165354
11
-0.8572418897637795
21
-0.6373515748031496
0
LINE
8
BLACK
6
CONTINUOUS
10
-0.8572418897637795
20
-0.6373515748031496
11
-0.8574375984251968
21
-0.6374645669291339
0
LINE
8
BLACK
6
CONTINUOUS
10
-0.8574375984251968
20
-0.6374645669291339
11
-0.8576558661417323
21
-0.637406062992126
0
LINE
8
BLACK
6
CONTINUOUS
10
-0.8576558661417323
20
-0.637406062992126
11
-0.8577318503937008
21
-0.6373194488188976
0
LINE
8
BLACK
6
CONTINUOUS
10
-0.8577318503937008
20
-0.6373194488188976
11
-0.8772692913385827
21
-0.6034796062992126
0
LINE
8
BLACK
6
CONTINUOUS
10
-0.8772692913385827
20
-0.6034796062992126
11
-0.8867551181102362
21
-0.6089562992125984
0
LINE
8
BLACK
6
CONTINUOUS
10
-0.8867551181102362
20
-0.6089562992125984
11
-0.8868642125984252
21
-0.6089933464566929
0
LINE
8
BLACK
6
CONTINUOUS
10
-0.8868642125984252
20
-0.6089933464566929
11
-0.8870825196850394
21
-0.608934842519685
0
LINE
8
BLACK
6
CONTINUOUS
10
-0.8870825196850394
20
-0.608934842519685
11
-0.8871955118110236
21
-0.6087391338582677
0
LINE
8
BLACK
6
CONTINUOUS
10
-0.8871955118110236
20
-0.6087391338582677
11
-0.8871370078740157
21
-0.6085208267716535
0
LINE
8
BLACK
6
CONTINUOUS
10
-0.8871370078740157
20
-0.6085208267716535
11
-0.8870503937007874
21
-0.6084448818897638
0
LINE
8
BLACK
6
CONTINUOUS
10
-0.8870503937007874
20
-0.6084448818897638
11
-0.8675672440944882
21
-0.5971962992125984
0
LINE
8
BLACK
6
CONTINUOUS
10
-0.8675672440944882
20
-0.5971962992125984
11
-0.8674581496062992
21
-0.5971592519685039
0
LINE
8
BLACK
6
CONTINUOUS
10
-0.8674581496062992
20
-0.5971592519685039
11
-0.867239842519685
21
-0.5972177559055118
0
LINE
8
BLACK
6
CONTINUOUS
10
-0.8365359842519685
20
-0.5793687401574803
11
-0.8364595275590551
21
-0.5793684251968504
0
LINE
8
BLACK
6
CONTINUOUS
10
-0.8364595275590551
20
-0.5793684251968504
11
-0.8364307480314961
21
-0.579396968503937
0
LINE
8
BLACK
6
CONTINUOUS
10
-0.8364307480314961
20
-0.579396968503937
11
-0.8363915354330709
21
-0.5794074803149606
0
LINE
8
BLACK
6
CONTINUOUS
10
-0.8363915354330709
20
-0.5794074803149606
11
-0.8363155905511811
21
-0.579494094488189
0
LINE
8
BLACK
6
CONTINUOUS
10
-0.8363155905511811
20
-0.579494094488189
11
-0.8166305511811024
21
-0.6135895669291338
0
LINE
8
BLACK
6
CONTINUOUS
10
-0.8166305511811024
20
-0.6135895669291338
11
-0.8165935039370078
21
-0.6136986614173228
0
LINE
8
BLACK
6
CONTINUOUS
10
-0.8165935039370078
20
-0.6136986614173228
11
-0.8166520078740157
21
-0.613916968503937
0
LINE
8
BLACK
6
CONTINUOUS
10
-0.8166520078740157
20
-0.613916968503937
11
-0.8168477165354331
21
-0.6140299606299212
0
LINE
8
BLACK
6
CONTINUOUS
10
-0.8168477165354331
20
-0.6140299606299212
11
-0.8170660236220473
21
-0.6139714566929134
0
LINE
8
BLACK
6
CONTINUOUS
10
-0.8170660236220473
20
-0.6139714566929134
11
-0.8171419685039369
21
-0.613884842519685
0
LINE
8
BLACK
6
CONTINUOUS
10
-0.8171419685039369
20
-0.613884842519685
11
-0.8362711023622047
21
-0.5807522440944882
0
LINE
8
BLACK
6
CONTINUOUS
10
-0.8362711023622047
20
-0.5807522440944882
11
-0.8360741338582677
21
-0.6249844881889763
0
LINE
8
BLACK
6
CONTINUOUS
10
-0.8360741338582677
20
-0.6249844881889763
11
-0.8360961023622047
21
-0.6250975984251969
0
LINE
8
BLACK
6
CONTINUOUS
10
-0.8360961023622047
20
-0.6250975984251969
11
-0.8361246850393701
21
-0.6251263779527559
0
LINE
8
BLACK
6
CONTINUOUS
10
-0.8361246850393701
20
-0.6251263779527559
11
-0.836135157480315
21
-0.625165590551181
0
LINE
8
BLACK
6
CONTINUOUS
10
-0.836135157480315
20
-0.625165590551181
11
-0.8362014173228346
21
-0.6252038188976378
0
LINE
8
BLACK
6
CONTINUOUS
10
-0.8362014173228346
20
-0.6252038188976378
11
-0.8362551968503937
21
-0.6252581102362205
0
LINE
8
BLACK
6
CONTINUOUS
10
-0.8362551968503937
20
-0.6252581102362205
11
-0.8362957480314961
21
-0.6252582677165354
0
LINE
8
BLACK
6
CONTINUOUS
10
-0.8362957480314961
20
-0.6252582677165354
11
-0.8363308661417322
21
-0.6252785826771653
0
LINE
8
BLACK
6
CONTINUOUS
10
-0.8363308661417322
20
-0.6252785826771653
11
-0.8364048425196851
21
-0.6252587401574803
0
LINE
8
BLACK
6
CONTINUOUS
10
-0.8364048425196851
20
-0.6252587401574803
11
-0.8364811811023621
21
-0.6252590944881889
0
LINE
8
BLACK
6
CONTINUOUS
10
-0.8364811811023621
20
-0.6252590944881889
11
-0.8365099606299212
21
-0.6252305511811024
0
LINE
8
BLACK
6
CONTINUOUS
10
-0.8365099606299212
20
-0.6252305511811024
11
-0.8365491338582677
21
-0.6252200787401575
0
LINE
8
BLACK
6
CONTINUOUS
10
-0.8365491338582677
20
-0.6252200787401575
11
-0.8366251181102362
21
-0.6251334645669291
0
LINE
8
BLACK
6
CONTINUOUS
10
-0.8366251181102362
20
-0.6251334645669291
11
-0.8563101574803149
21
-0.5910379527559055
0
LINE
8
BLACK
6
CONTINUOUS
10
-0.8563101574803149
20
-0.5910379527559055
11
-0.8563472047244094
21
-0.5909288582677166
0
LINE
8
BLACK
6
CONTINUOUS
10
-0.8563472047244094
20
-0.5909288582677166
11
-0.8562887007874016
21
-0.5907105511811024
0
LINE
8
BLACK
6
CONTINUOUS
10
-0.8562887007874016
20
-0.5907105511811024
11
-0.8560929921259842
21
-0.5905975590551181
0
LINE
8
BLACK
6
CONTINUOUS
10
-0.8560929921259842
20
-0.5905975590551181
11
-0.85587468503937
21
-0.5906560629921259
0
LINE
8
BLACK
6
CONTINUOUS
10
-0.85587468503937
20
-0.5906560629921259
11
-0.8557987401574803
21
-0.5907426771653543
0
LINE
8
BLACK
6
CONTINUOUS
10
-0.8557987401574803
20
-0.5907426771653543
11
-0.8366696456692914
21
-0.6238752755905511
0
LINE
8
BLACK
6
CONTINUOUS
10
-0.8366696456692914
20
-0.6238752755905511
11
-0.8368665748031496
21
-0.579643031496063
0
LINE
8
BLACK
6
CONTINUOUS
10
-0.8368665748031496
20
-0.579643031496063
11
-0.8368446062992125
21
-0.5795299606299212
0
LINE
8
BLACK
6
CONTINUOUS
10
-0.8368446062992125
20
-0.5795299606299212
11
-0.836816062992126
21
-0.5795011417322834
0
LINE
8
BLACK
6
CONTINUOUS
10
-0.836816062992126
20
-0.5795011417322834
11
-0.8368055511811023
21
-0.5794619685039369
0
LINE
8
BLACK
6
CONTINUOUS
10
-0.8368055511811023
20
-0.5794619685039369
11
-0.8367393307086614
21
-0.5794237007874016
0
LINE
8
BLACK
6
CONTINUOUS
10
-0.8367393307086614
20
-0.5794237007874016
11
-0.8366855118110236
21
-0.5793694488188976
0
LINE
8
BLACK
6
CONTINUOUS
10
-0.8366855118110236
20
-0.5793694488188976
11
-0.836645
21
-0.579369251968504
0
LINE
8
BLACK
6
CONTINUOUS
10
-0.836645
20
-0.579369251968504
11
-0.8366098425196851
21
-0.5793489763779528
0
LINE
8
BLACK
6
CONTINUOUS
10
-0.8366098425196851
20
-0.5793489763779528
11
-0.8365359842519685
21
-0.5793687401574803
0
LINE
8
BLACK
6
CONTINUOUS
10
-0.8064007086614173
20
-0.5641027559055118
11
-0.8063532283464567
21
-0.5641025196850393
0
LINE
8
BLACK
6
CONTINUOUS
10
-0.8063532283464567
20
-0.5641025196850393
11
-0.8063475590551181
21
-0.5641062598425197
0
LINE
8
BLACK
6
CONTINUOUS
10
-0.8063475590551181
20
-0.5641062598425197
11
-0.8063327952755905
21
-0.5641072440944882
0
LINE
8
BLACK
6
CONTINUOUS
10
-0.8063327952755905
20
-0.5641072440944882
11
-0.8012108661417323
21
-0.5654796456692913
0
LINE
8
BLACK
6
CONTINUOUS
10
-0.8012108661417323
20
-0.5654796456692913
11
-0.8011684645669291
21
-0.5655005511811023
0
LINE
8
BLACK
6
CONTINUOUS
10
-0.8011684645669291
20
-0.5655005511811023
11
-0.8011246062992126
21
-0.5655184645669291
0
LINE
8
BLACK
6
CONTINUOUS
10
-0.8011246062992126
20
-0.5655184645669291
11
-0.7976262204724409
21
-0.5678282677165354
0
LINE
8
BLACK
6
CONTINUOUS
10
-0.7976262204724409
20
-0.5678282677165354
11
-0.7976032283464567
21
-0.5678509842519684
0
LINE
8
BLACK
6
CONTINUOUS
10
-0.7976032283464567
20
-0.5678509842519684
11
-0.7975766141732283
21
-0.5678694488188977
0
LINE
8
BLACK
6
CONTINUOUS
10
-0.7975766141732283
20
-0.5678694488188977
11
-0.7922035039370079
21
-0.5734264173228346
0
LINE
8
BLACK
6
CONTINUOUS
10
-0.7922035039370079
20
-0.5734264173228346
11
-0.7921838976377953
21
-0.5734568503937008
0
LINE
8
BLACK
6
CONTINUOUS
10
-0.7921838976377953
20
-0.5734568503937008
11
-0.7921600787401575
21
-0.5734840157480314
0
LINE
8
BLACK
6
CONTINUOUS
10
-0.7921600787401575
20
-0.5734840157480314
11
-0.7893479133858268
21
-0.5783548031496063
0
LINE
8
BLACK
6
CONTINUOUS
10
-0.7893479133858268
20
-0.5783548031496063
11
-0.7893363385826772
21
-0.578388937007874
0
LINE
8
BLACK
6
CONTINUOUS
10
-0.7893363385826772
20
-0.578388937007874
11
-0.7893197244094488
21
-0.5784212204724409
0
LINE
8
BLACK
6
CONTINUOUS
10
-0.7893197244094488
20
-0.5784212204724409
11
-0.7871938188976377
21
-0.5858529921259842
0
LINE
8
BLACK
6
CONTINUOUS
10
-0.7871938188976377
20
-0.5858529921259842
11
-0.7871911811023622
21
-0.585885157480315
0
LINE
8
BLACK
6
CONTINUOUS
10
-0.7871911811023622
20
-0.585885157480315
11
-0.7871829527559054
21
-0.5859165354330709
0
LINE
8
BLACK
6
CONTINUOUS
10
-0.7871829527559054
20
-0.5859165354330709
11
-0.7869317716535433
21
-0.5901010629921259
0
LINE
8
BLACK
6
CONTINUOUS
10
-0.7869317716535433
20
-0.5901010629921259
11
-0.7869382677165354
21
-0.590148031496063
0
LINE
8
BLACK
6
CONTINUOUS
10
-0.7869382677165354
20
-0.590148031496063
11
-0.7869413385826771
21
-0.5901951968503937
0
LINE
8
BLACK
6
CONTINUOUS
10
-0.7869413385826771
20
-0.5901951968503937
11
-0.7883137401574803
21
-0.5953171653543307
0
LINE
8
BLACK
6
CONTINUOUS
10
-0.7883137401574803
20
-0.5953171653543307
11
-0.7883203149606299
21
-0.5953304330708661
0
LINE
8
BLACK
6
CONTINUOUS
10
-0.7883203149606299
20
-0.5953304330708661
11
-0.7883198818897638
21
-0.5953372047244094
0
LINE
8
BLACK
6
CONTINUOUS
10
-0.7883198818897638
20
-0.5953372047244094
11
-0.7883437007874016
21
-0.5953779133858268
0
LINE
8
BLACK
6
CONTINUOUS
10
-0.7883437007874016
20
-0.5953779133858268
11
-0.7883646850393701
21
-0.5954205118110236
0
LINE
8
BLACK
6
CONTINUOUS
10
-0.7883646850393701
20
-0.5954205118110236
11
-0.7883705905511811
21
-0.5954238976377952
0
LINE
8
BLACK
6
CONTINUOUS
10
-0.7883705905511811
20
-0.5954238976377952
11
-0.788378031496063
21
-0.5954366535433071
0
LINE
8
BLACK
6
CONTINUOUS
10
-0.788378031496063
20
-0.5954366535433071
11
-0.7923114173228346
21
-0.5998724015748031
0
LINE
8
BLACK
6
CONTINUOUS
10
-0.7923114173228346
20
-0.5998724015748031
11
-0.7923494094488189
21
-0.5999011811023622
0
LINE
8
BLACK
6
CONTINUOUS
10
-0.7923494094488189
20
-0.5999011811023622
11
-0.7923847244094488
21
-0.5999322047244094
0
LINE
8
BLACK
6
CONTINUOUS
10
-0.7923847244094488
20
-0.5999322047244094
11
-0.7956318897637795
21
-0.601806968503937
0
LINE
8
BLACK
6
CONTINUOUS
10
-0.7956318897637795
20
-0.601806968503937
11
-0.7956766929133858
21
-0.6018221653543306
0
LINE
8
BLACK
6
CONTINUOUS
10
-0.7956766929133858
20
-0.6018221653543306
11
-0.7957203543307086
21
-0.6018405511811024
0
LINE
8
BLACK
6
CONTINUOUS
10
-0.7957203543307086
20
-0.6018405511811024
11
-0.8015285039370078
21
-0.603029094488189
0
LINE
8
BLACK
6
CONTINUOUS
10
-0.8015285039370078
20
-0.603029094488189
11
-0.8015433464566929
21
-0.6030291732283465
0
LINE
8
BLACK
6
CONTINUOUS
10
-0.8015433464566929
20
-0.6030291732283465
11
-0.8015491732283464
21
-0.6030325590551181
0
LINE
8
BLACK
6
CONTINUOUS
10
-0.8015491732283464
20
-0.6030325590551181
11
-0.8015964960629921
21
-0.6030294488188976
0
LINE
8
BLACK
6
CONTINUOUS
10
-0.8015964960629921
20
-0.6030294488188976
11
-0.8016437401574803
21
-0.6030297244094488
0
LINE
8
BLACK
6
CONTINUOUS
10
-0.8016437401574803
20
-0.6030297244094488
11
-0.8016494094488189
21
-0.6030259842519685
0
LINE
8
BLACK
6
CONTINUOUS
10
-0.8016494094488189
20
-0.6030259842519685
11
-0.8016641338582677
21
-0.6030250393700787
0
LINE
8
BLACK
6
CONTINUOUS
10
-0.8016641338582677
20
-0.6030250393700787
11
-0.8042251181102362
21
-0.602338779527559
0
LINE
8
BLACK
6
CONTINUOUS
10
-0.8042251181102362
20
-0.602338779527559
11
-0.8043284645669291
21
-0.6022878346456693
0
LINE
8
BLACK
6
CONTINUOUS
10
-0.8043284645669291
20
-0.6022878346456693
11
-0.8044414566929133
21
-0.602092125984252
0
LINE
8
BLACK
6
CONTINUOUS
10
-0.8044414566929133
20
-0.602092125984252
11
-0.8043829527559055
21
-0.6018738188976378
0
LINE
8
BLACK
6
CONTINUOUS
10
-0.8043829527559055
20
-0.6018738188976378
11
-0.8041872440944882
21
-0.6017608267716535
0
LINE
8
BLACK
6
CONTINUOUS
10
-0.8041872440944882
20
-0.6017608267716535
11
-0.8040722834645669
21
-0.6017683858267716
0
LINE
8
BLACK
6
CONTINUOUS
10
-0.8040722834645669
20
-0.6017683858267716
11
-0.8015787007874016
21
-0.6024365354330709
0
LINE
8
BLACK
6
CONTINUOUS
10
-0.8015787007874016
20
-0.6024365354330709
11
-0.7958856299212598
21
-0.6012715354330709
0
LINE
8
BLACK
6
CONTINUOUS
10
-0.7958856299212598
20
-0.6012715354330709
11
-0.7927215748031496
21
-0.5994447637795276
0
LINE
8
BLACK
6
CONTINUOUS
10
-0.7927215748031496
20
-0.5994447637795276
11
-0.7888661023622047
21
-0.5950969291338583
0
LINE
8
BLACK
6
CONTINUOUS
10
-0.7888661023622047
20
-0.5950969291338583
11
-0.7875241732283464
21
-0.5900886220472441
0
LINE
8
BLACK
6
CONTINUOUS
10
-0.7875241732283464
20
-0.5900886220472441
11
-0.7877705511811024
21
-0.5859841732283464
0
LINE
8
BLACK
6
CONTINUOUS
10
-0.7877705511811024
20
-0.5859841732283464
11
-0.7898775590551181
21
-0.5786185039370079
0
LINE
8
BLACK
6
CONTINUOUS
10
-0.7898775590551181
20
-0.5786185039370079
11
-0.7926533464566929
21
-0.573810748031496
0
LINE
8
BLACK
6
CONTINUOUS
10
-0.7926533464566929
20
-0.573810748031496
11
-0.7979786614173228
21
-0.5683032283464566
0
LINE
8
BLACK
6
CONTINUOUS
10
-0.7979786614173228
20
-0.5683032283464566
11
-0.8014100393700787
21
-0.5660376771653544
0
LINE
8
BLACK
6
CONTINUOUS
10
-0.8014100393700787
20
-0.5660376771653544
11
-0.8064182677165355
21
-0.5646956692913385
0
LINE
8
BLACK
6
CONTINUOUS
10
-0.8064182677165355
20
-0.5646956692913385
11
-0.8121113385826771
21
-0.5658606692913386
0
LINE
8
BLACK
6
CONTINUOUS
10
-0.8121113385826771
20
-0.5658606692913386
11
-0.8152754724409449
21
-0.5676874803149606
0
LINE
8
BLACK
6
CONTINUOUS
10
-0.8152754724409449
20
-0.5676874803149606
11
-0.8191308661417323
21
-0.5720352755905511
0
LINE
8
BLACK
6
CONTINUOUS
10
-0.8191308661417323
20
-0.5720352755905511
11
-0.8197989763779527
21
-0.5745288976377952
0
LINE
8
BLACK
6
CONTINUOUS
10
-0.8197989763779527
20
-0.5745288976377952
11
-0.8198499212598425
21
-0.5746322047244095
0
LINE
8
BLACK
6
CONTINUOUS
10
-0.8198499212598425
20
-0.5746322047244095
11
-0.8200456299212598
21
-0.5747452362204725
0
LINE
8
BLACK
6
CONTINUOUS
10
-0.8200456299212598
20
-0.5747452362204725
11
-0.8202638976377953
21
-0.5746867322834646
0
LINE
8
BLACK
6
CONTINUOUS
10
-0.8202638976377953
20
-0.5746867322834646
11
-0.8203769291338583
21
-0.5744910236220472
0
LINE
8
BLACK
6
CONTINUOUS
10
-0.8203769291338583
20
-0.5744910236220472
11
-0.8203693700787401
21
-0.574376062992126
0
LINE
8
BLACK
6
CONTINUOUS
10
-0.8203693700787401
20
-0.574376062992126
11
-0.8196832283464567
21
-0.5718150787401575
0
LINE
8
BLACK
6
CONTINUOUS
10
-0.8196832283464567
20
-0.5718150787401575
11
-0.8196766535433071
21
-0.5718017322834645
0
LINE
8
BLACK
6
CONTINUOUS
10
-0.8196766535433071
20
-0.5718017322834645
11
-0.8196770472440945
21
-0.5717950393700787
0
LINE
8
BLACK
6
CONTINUOUS
10
-0.8196770472440945
20
-0.5717950393700787
11
-0.819653188976378
21
-0.5717541732283464
0
LINE
8
BLACK
6
CONTINUOUS
10
-0.819653188976378
20
-0.5717541732283464
11
-0.8196322440944882
21
-0.5717117716535433
0
LINE
8
BLACK
6
CONTINUOUS
10
-0.8196322440944882
20
-0.5717117716535433
11
-0.8196264566929133
21
-0.5717083858267716
0
LINE
8
BLACK
6
CONTINUOUS
10
-0.8196264566929133
20
-0.5717083858267716
11
-0.819618937007874
21
-0.5716955905511811
0
LINE
8
BLACK
6
CONTINUOUS
10
-0.819618937007874
20
-0.5716955905511811
11
-0.8156855118110236
21
-0.567259842519685
0
LINE
8
BLACK
6
CONTINUOUS
10
-0.8156855118110236
20
-0.567259842519685
11
-0.8156478346456693
21
-0.5672312598425197
0
LINE
8
BLACK
6
CONTINUOUS
10
-0.8156478346456693
20
-0.5672312598425197
11
-0.8156122047244094
21
-0.5672000393700787
0
LINE
8
BLACK
6
CONTINUOUS
10
-0.8156122047244094
20
-0.5672000393700787
11
-0.8123650393700788
21
-0.5653252755905511
0
LINE
8
BLACK
6
CONTINUOUS
10
-0.8123650393700788
20
-0.5653252755905511
11
-0.8123203937007873
21
-0.5653100787401575
0
LINE
8
BLACK
6
CONTINUOUS
10
-0.8123203937007873
20
-0.5653100787401575
11
-0.8122766141732283
21
-0.5652916929133858
0
LINE
8
BLACK
6
CONTINUOUS
10
-0.8122766141732283
20
-0.5652916929133858
11
-0.8064684251968504
21
-0.5641031496062991
0
LINE
8
BLACK
6
CONTINUOUS
10
-0.8064684251968504
20
-0.5641031496062991
11
-0.806453622047244
21
-0.564103031496063
0
LINE
8
BLACK
6
CONTINUOUS
10
-0.806453622047244
20
-0.564103031496063
11
-0.8064477559055118
21
-0.56409968503937
0
LINE
8
BLACK
6
CONTINUOUS
10
-0.8064477559055118
20
-0.56409968503937
11
-0.8064007086614173
21
-0.5641027559055118
0
LINE
8
BLACK
6
CONTINUOUS
10
-0.7681357086614173
20
-0.5401062598425197
11
-0.7680910236220472
21
-0.5402124409448819
0
LINE
8
BLACK
6
CONTINUOUS
10
-0.7680910236220472
20
-0.5402124409448819
11
-0.7597711417322834
21
-0.5808696456692913
0
LINE
8
BLACK
6
CONTINUOUS
10
-0.7597711417322834
20
-0.5808696456692913
11
-0.7597705118110236
21
-0.5809848425196851
0
LINE
8
BLACK
6
CONTINUOUS
10
-0.7597705118110236
20
-0.5809848425196851
11
-0.7597827165354331
21
-0.5810032677165354
0
LINE
8
BLACK
6
CONTINUOUS
10
-0.7597827165354331
20
-0.5810032677165354
11
-0.7597813779527559
21
-0.5810252755905512
0
LINE
8
BLACK
6
CONTINUOUS
10
-0.7597813779527559
20
-0.5810252755905512
11
-0.7598433858267717
21
-0.5810951574803149
0
LINE
8
BLACK
6
CONTINUOUS
10
-0.7598433858267717
20
-0.5810951574803149
11
-0.7598950393700787
21
-0.5811734251968503
0
LINE
8
BLACK
6
CONTINUOUS
10
-0.7598950393700787
20
-0.5811734251968503
11
-0.7599166929133858
21
-0.5811778346456693
0
LINE
8
BLACK
6
CONTINUOUS
10
-0.7599166929133858
20
-0.5811778346456693
11
-0.7599312992125984
21
-0.5811943307086614
0
LINE
8
BLACK
6
CONTINUOUS
10
-0.7599312992125984
20
-0.5811943307086614
11
-0.7600245669291339
21
-0.5811999212598425
0
LINE
8
BLACK
6
CONTINUOUS
10
-0.7600245669291339
20
-0.5811999212598425
11
-0.7601164566929134
21
-0.5812187401574803
0
LINE
8
BLACK
6
CONTINUOUS
10
-0.7601164566929134
20
-0.5812187401574803
11
-0.7601349212598425
21
-0.5812065354330709
0
LINE
8
BLACK
6
CONTINUOUS
10
-0.7601349212598425
20
-0.5812065354330709
11
-0.7601568897637795
21
-0.581207874015748
0
LINE
8
BLACK
6
CONTINUOUS
10
-0.7601568897637795
20
-0.581207874015748
11
-0.7602563385826772
21
-0.5811497244094488
0
LINE
8
BLACK
6
CONTINUOUS
10
-0.7602563385826772
20
-0.5811497244094488
11
-0.7913065748031496
21
-0.5536159448818897
0
LINE
8
BLACK
6
CONTINUOUS
10
-0.7913065748031496
20
-0.5536159448818897
11
-0.7913762204724409
21
-0.5535241338582677
0
LINE
8
BLACK
6
CONTINUOUS
10
-0.7913762204724409
20
-0.5535241338582677
11
-0.7913897244094488
21
-0.5532985433070866
0
LINE
8
BLACK
6
CONTINUOUS
10
-0.7913897244094488
20
-0.5532985433070866
11
-0.7912398031496063
21
-0.5531294488188976
0
LINE
8
BLACK
6
CONTINUOUS
10
-0.7912398031496063
20
-0.5531294488188976
11
-0.7910142125984252
21
-0.5531159448818898
0
LINE
8
BLACK
6
CONTINUOUS
10
-0.7910142125984252
20
-0.5531159448818898
11
-0.7909147637795275
21
-0.5531740551181102
0
LINE
8
BLACK
6
CONTINUOUS
10
-0.7909147637795275
20
-0.5531740551181102
11
-0.7605273622047244
21
-0.5801201181102362
0
LINE
8
BLACK
6
CONTINUOUS
10
-0.7605273622047244
20
-0.5801201181102362
11
-0.7686696062992125
21
-0.5403308661417323
0
LINE
8
BLACK
6
CONTINUOUS
10
-0.7686696062992125
20
-0.5403308661417323
11
-0.7686702362204724
21
-0.5402156299212598
0
LINE
8
BLACK
6
CONTINUOUS
10
-0.7686702362204724
20
-0.5402156299212598
11
-0.7685457086614174
21
-0.5400270472440944
0
LINE
8
BLACK
6
CONTINUOUS
10
-0.7685457086614174
20
-0.5400270472440944
11
-0.7683242913385827
21
-0.5399817322834646
0
LINE
8
BLACK
6
CONTINUOUS
10
-0.7683242913385827
20
-0.5399817322834646
11
-0.7681357086614173
21
-0.5401062598425197
0
LINE
8
BLACK
6
CONTINUOUS
10
-0.7600636614173228
20
-0.4110066535433071
11
-0.7599162598425196
21
-0.4109872834645669
0
LINE
8
BLACK
6
CONTINUOUS
10
-0.7599162598425196
20
-0.4109872834645669
11
-0.7594994881889764
21
-0.411098937007874
0
LINE
8
BLACK
6
CONTINUOUS
10
-0.7594994881889764
20
-0.411098937007874
11
-0.7590733858267716
21
-0.4111686614173228
0
LINE
8
BLACK
6
CONTINUOUS
10
-0.7590733858267716
20
-0.4111686614173228
11
-0.7589469685039369
21
-0.4112470078740157
0
LINE
8
BLACK
6
CONTINUOUS
10
-0.7589469685039369
20
-0.4112470078740157
11
-0.7588034251968504
21
-0.4112854724409449
0
LINE
8
BLACK
6
CONTINUOUS
10
-0.7588034251968504
20
-0.4112854724409449
11
-0.7584612598425197
21
-0.4115479921259843
0
LINE
8
BLACK
6
CONTINUOUS
10
-0.7584612598425197
20
-0.4115479921259843
11
-0.758094094488189
21
-0.4117755511811024
0
LINE
8
BLACK
6
CONTINUOUS
10
-0.758094094488189
20
-0.4117755511811024
11
-0.7579475590551181
21
-0.4119421653543307
0
LINE
8
BLACK
6
CONTINUOUS
10
-0.7579475590551181
20
-0.4119421653543307
11
-0.7578893700787401
21
-0.4119868110236221
0
LINE
8
BLACK
6
CONTINUOUS
10
-0.7578893700787401
20
-0.4119868110236221
11
-0.7578532677165354
21
-0.4120493700787402
0
LINE
8
BLACK
6
CONTINUOUS
10
-0.7578532677165354
20
-0.4120493700787402
11
-0.7577118110236221
21
-0.4122101968503937
0
LINE
8
BLACK
6
CONTINUOUS
10
-0.7577118110236221
20
-0.4122101968503937
11
-0.7467143700787401
21
-0.4275087795275591
0
LINE
8
BLACK
6
CONTINUOUS
10
-0.7467143700787401
20
-0.4275087795275591
11
-0.7464241732283464
21
-0.4280096456692913
0
LINE
8
BLACK
6
CONTINUOUS
10
-0.7464241732283464
20
-0.4280096456692913
11
-0.7463901968503937
21
-0.4281543700787401
0
LINE
8
BLACK
6
CONTINUOUS
10
-0.7463901968503937
20
-0.4281543700787401
11
-0.7463158661417323
21
-0.4282831496062992
0
LINE
8
BLACK
6
CONTINUOUS
10
-0.7463158661417323
20
-0.4282831496062992
11
-0.7462595275590551
21
-0.4287111417322835
0
LINE
8
BLACK
6
CONTINUOUS
10
-0.7462595275590551
20
-0.4287111417322835
11
-0.746160905511811
21
-0.4291312598425197
0
LINE
8
BLACK
6
CONTINUOUS
10
-0.746160905511811
20
-0.4291312598425197
11
-0.7461849212598425
21
-0.429277874015748
0
LINE
8
BLACK
6
CONTINUOUS
10
-0.7461849212598425
20
-0.429277874015748
11
-0.7461654724409449
21
-0.4294253937007874
0
LINE
8
BLACK
6
CONTINUOUS
10
-0.7461654724409449
20
-0.4294253937007874
11
-0.7462772834645669
21
-0.4298426377952756
0
LINE
8
BLACK
6
CONTINUOUS
10
-0.7462772834645669
20
-0.4298426377952756
11
-0.7463468897637795
21
-0.4302682283464567
0
LINE
8
BLACK
6
CONTINUOUS
10
-0.7463468897637795
20
-0.4302682283464567
11
-0.7464251574803149
21
-0.4303944488188976
0
LINE
8
BLACK
6
CONTINUOUS
10
-0.7464251574803149
20
-0.4303944488188976
11
-0.7464636614173228
21
-0.4305382677165354
0
LINE
8
BLACK
6
CONTINUOUS
10
-0.7464636614173228
20
-0.4305382677165354
11
-0.7467266929133858
21
-0.4308809842519685
0
LINE
8
BLACK
6
CONTINUOUS
10
-0.7467266929133858
20
-0.4308809842519685
11
-0.7469538188976378
21
-0.4312475196850394
0
LINE
8
BLACK
6
CONTINUOUS
10
-0.7469538188976378
20
-0.4312475196850394
11
-0.7470744881889764
21
-0.4313342519685039
0
LINE
8
BLACK
6
CONTINUOUS
10
-0.7470744881889764
20
-0.4313342519685039
11
-0.7471650393700787
21
-0.4314522834645669
0
LINE
8
BLACK
6
CONTINUOUS
10
-0.7471650393700787
20
-0.4314522834645669
11
-0.7475388976377952
21
-0.4316681102362205
0
LINE
8
BLACK
6
CONTINUOUS
10
-0.7475388976377952
20
-0.4316681102362205
11
-0.7478892913385826
21
-0.4319200393700787
0
LINE
8
BLACK
6
CONTINUOUS
10
-0.7478892913385826
20
-0.4319200393700787
11
-0.7480340944881889
21
-0.4319540157480315
0
LINE
8
BLACK
6
CONTINUOUS
10
-0.7480340944881889
20
-0.4319540157480315
11
-0.7481627952755905
21
-0.4320283464566929
0
LINE
8
BLACK
6
CONTINUOUS
10
-0.7481627952755905
20
-0.4320283464566929
11
-0.7485908267716536
21
-0.4320846850393701
0
LINE
8
BLACK
6
CONTINUOUS
10
-0.7485908267716536
20
-0.4320846850393701
11
-0.749010905511811
21
-0.4321833070866142
0
LINE
8
BLACK
6
CONTINUOUS
10
-0.749010905511811
20
-0.4321833070866142
11
-0.749157559055118
21
-0.4321592913385827
0
LINE
8
BLACK
6
CONTINUOUS
10
-0.749157559055118
20
-0.4321592913385827
11
-0.7493050393700788
21
-0.4321787401574803
0
LINE
8
BLACK
6
CONTINUOUS
10
-0.7493050393700788
20
-0.4321787401574803
11
-0.7498761417322835
21
-0.4320844094488189
0
LINE
8
BLACK
6
CONTINUOUS
10
-0.7498761417322835
20
-0.4320844094488189
11
-0.7519743307086614
21
-0.4315222047244094
0
LINE
8
BLACK
6
CONTINUOUS
10
-0.7519743307086614
20
-0.4315222047244094
11
-0.7549848031496063
21
-0.4317029133858268
0
LINE
8
BLACK
6
CONTINUOUS
10
-0.7549848031496063
20
-0.4317029133858268
11
-0.7618954330708662
21
-0.4356927559055118
0
LINE
8
BLACK
6
CONTINUOUS
10
-0.7618954330708662
20
-0.4356927559055118
11
-0.7635572047244095
21
-0.4382096456692913
0
LINE
8
BLACK
6
CONTINUOUS
10
-0.7635572047244095
20
-0.4382096456692913
11
-0.7639953543307086
21
-0.439844842519685
0
LINE
8
BLACK
6
CONTINUOUS
10
-0.7639953543307086
20
-0.439844842519685
11
-0.7638146456692914
21
-0.4428552755905512
0
LINE
8
BLACK
6
CONTINUOUS
10
-0.7638146456692914
20
-0.4428552755905512
11
-0.7598247244094488
21
-0.4497659842519685
0
LINE
8
BLACK
6
CONTINUOUS
10
-0.7598247244094488
20
-0.4497659842519685
11
-0.757308031496063
21
-0.4514276771653543
0
LINE
8
BLACK
6
CONTINUOUS
10
-0.757308031496063
20
-0.4514276771653543
11
-0.7556726771653544
21
-0.4518658661417323
0
LINE
8
BLACK
6
CONTINUOUS
10
-0.7556726771653544
20
-0.4518658661417323
11
-0.7526622440944881
21
-0.451685157480315
0
LINE
8
BLACK
6
CONTINUOUS
10
-0.7526622440944881
20
-0.451685157480315
11
-0.7457515748031496
21
-0.4476953149606299
0
LINE
8
BLACK
6
CONTINUOUS
10
-0.7457515748031496
20
-0.4476953149606299
11
-0.7440898818897638
21
-0.4451785039370079
0
LINE
8
BLACK
6
CONTINUOUS
10
-0.7440898818897638
20
-0.4451785039370079
11
-0.7435276771653543
21
-0.4430804330708661
0
LINE
8
BLACK
6
CONTINUOUS
10
-0.7435276771653543
20
-0.4430804330708661
11
-0.743323779527559
21
-0.4425386614173228
0
LINE
8
BLACK
6
CONTINUOUS
10
-0.743323779527559
20
-0.4425386614173228
11
-0.7426224015748031
21
-0.4416246456692913
0
LINE
8
BLACK
6
CONTINUOUS
10
-0.7426224015748031
20
-0.4416246456692913
11
-0.7416246850393701
21
-0.4410485826771653
0
LINE
8
BLACK
6
CONTINUOUS
10
-0.7416246850393701
20
-0.4410485826771653
11
-0.7404824409448819
21
-0.4408981889763779
0
LINE
8
BLACK
6
CONTINUOUS
10
-0.7404824409448819
20
-0.4408981889763779
11
-0.7393695669291338
21
-0.4411963779527559
0
LINE
8
BLACK
6
CONTINUOUS
10
-0.7393695669291338
20
-0.4411963779527559
11
-0.7384555511811024
21
-0.4418977165354331
0
LINE
8
BLACK
6
CONTINUOUS
10
-0.7384555511811024
20
-0.4418977165354331
11
-0.7378794881889763
21
-0.4428954330708662
0
LINE
8
BLACK
6
CONTINUOUS
10
-0.7378794881889763
20
-0.4428954330708662
11
-0.7377290551181103
21
-0.4440377165354331
0
LINE
8
BLACK
6
CONTINUOUS
10
-0.7377290551181103
20
-0.4440377165354331
11
-0.7378233464566929
21
-0.4446088188976378
0
LINE
8
BLACK
6
CONTINUOUS
10
-0.7378233464566929
20
-0.4446088188976378
11
-0.7385095275590551
21
-0.4471698031496063
0
LINE
8
BLACK
6
CONTINUOUS
10
-0.7385095275590551
20
-0.4471698031496063
11
-0.7386127559055118
21
-0.4474440157480315
0
LINE
8
BLACK
6
CONTINUOUS
10
-0.7386127559055118
20
-0.4474440157480315
11
-0.7386275196850394
21
-0.4475205118110236
0
LINE
8
BLACK
6
CONTINUOUS
10
-0.7386275196850394
20
-0.4475205118110236
11
-0.7386764566929134
21
-0.4476132283464567
0
LINE
8
BLACK
6
CONTINUOUS
10
-0.7386764566929134
20
-0.4476132283464567
11
-0.7387134251968503
21
-0.4477115354330709
0
LINE
8
BLACK
6
CONTINUOUS
10
-0.7387134251968503
20
-0.4477115354330709
11
-0.7387609055118111
21
-0.4477733858267716
0
LINE
8
BLACK
6
CONTINUOUS
10
-0.7387609055118111
20
-0.4477733858267716
11
-0.7388975590551181
21
-0.4480325196850394
0
LINE
8
BLACK
6
CONTINUOUS
10
-0.7388975590551181
20
-0.4480325196850394
11
-0.7412073622047244
21
-0.451530905511811
0
LINE
8
BLACK
6
CONTINUOUS
10
-0.7412073622047244
20
-0.451530905511811
11
-0.7415721259842519
21
-0.4519803937007874
0
LINE
8
BLACK
6
CONTINUOUS
10
-0.7415721259842519
20
-0.4519803937007874
11
-0.7416600787401575
21
-0.4520398031496063
0
LINE
8
BLACK
6
CONTINUOUS
10
-0.7416600787401575
20
-0.4520398031496063
11
-0.7417246062992126
21
-0.4521239763779528
0
LINE
8
BLACK
6
CONTINUOUS
10
-0.7417246062992126
20
-0.4521239763779528
11
-0.7421951574803149
21
-0.4524611417322835
0
LINE
8
BLACK
6
CONTINUOUS
10
-0.7421951574803149
20
-0.4524611417322835
11
-0.7503131102362205
21
-0.457148031496063
0
LINE
8
BLACK
6
CONTINUOUS
10
-0.7503131102362205
20
-0.457148031496063
11
-0.7508403543307086
21
-0.4573869291338583
0
LINE
8
BLACK
6
CONTINUOUS
10
-0.7508403543307086
20
-0.4573869291338583
11
-0.750945590551181
21
-0.4574007480314961
0
LINE
8
BLACK
6
CONTINUOUS
10
-0.750945590551181
20
-0.4574007480314961
11
-0.7510409448818898
21
-0.4574471653543307
0
LINE
8
BLACK
6
CONTINUOUS
10
-0.7510409448818898
20
-0.4574471653543307
11
-0.7516125590551181
21
-0.4575383070866141
0
LINE
8
BLACK
6
CONTINUOUS
10
-0.7516125590551181
20
-0.4575383070866141
11
-0.755797125984252
21
-0.4577894881889764
0
LINE
8
BLACK
6
CONTINUOUS
10
-0.755797125984252
20
-0.4577894881889764
11
-0.7560898031496063
21
-0.4577783070866142
0
LINE
8
BLACK
6
CONTINUOUS
10
-0.7560898031496063
20
-0.4577783070866142
11
-0.7561671653543307
21
-0.4577885039370079
0
LINE
8
BLACK
6
CONTINUOUS
10
-0.7561671653543307
20
-0.4577885039370079
11
-0.7562707086614173
21
-0.4577713779527559
0
LINE
8
BLACK
6
CONTINUOUS
10
-0.7562707086614173
20
-0.4577713779527559
11
-0.7563755511811023
21
-0.4577674015748031
0
LINE
8
BLACK
6
CONTINUOUS
10
-0.7563755511811023
20
-0.4577674015748031
11
-0.7564493700787401
21
-0.4577418897637795
0
LINE
8
BLACK
6
CONTINUOUS
10
-0.7564493700787401
20
-0.4577418897637795
11
-0.7567382677165354
21
-0.4576941732283464
0
LINE
8
BLACK
6
CONTINUOUS
10
-0.7567382677165354
20
-0.4576941732283464
11
-0.7592992913385826
21
-0.4570079527559055
0
LINE
8
BLACK
6
CONTINUOUS
10
-0.7592992913385826
20
-0.4570079527559055
11
-0.7595733464566929
21
-0.4569048031496063
0
LINE
8
BLACK
6
CONTINUOUS
10
-0.7595733464566929
20
-0.4569048031496063
11
-0.7596499999999999
21
-0.45689
0
LINE
8
BLACK
6
CONTINUOUS
10
-0.7596499999999999
20
-0.45689
11
-0.7597429527559055
21
-0.4568409448818898
0
LINE
8
BLACK
6
CONTINUOUS
10
-0.7597429527559055
20
-0.4568409448818898
11
-0.7598410236220472
21
-0.4568040551181102
0
LINE
8
BLACK
6
CONTINUOUS
10
-0.7598410236220472
20
-0.4568040551181102
11
-0.759902874015748
21
-0.4567565748031496
0
LINE
8
BLACK
6
CONTINUOUS
10
-0.759902874015748
20
-0.4567565748031496
11
-0.760161968503937
21
-0.4566199212598425
0
LINE
8
BLACK
6
CONTINUOUS
10
-0.760161968503937
20
-0.4566199212598425
11
-0.7636603149606299
21
-0.4543101181102362
0
LINE
8
BLACK
6
CONTINUOUS
10
-0.7636603149606299
20
-0.4543101181102362
11
-0.7641098031496063
21
-0.4539453937007874
0
LINE
8
BLACK
6
CONTINUOUS
10
-0.7641098031496063
20
-0.4539453937007874
11
-0.7641692519685039
21
-0.4538574409448819
0
LINE
8
BLACK
6
CONTINUOUS
10
-0.7641692519685039
20
-0.4538574409448819
11
-0.7642533858267716
21
-0.4537929133858268
0
LINE
8
BLACK
6
CONTINUOUS
10
-0.7642533858267716
20
-0.4537929133858268
11
-0.7645905511811023
21
-0.4533224015748031
0
LINE
8
BLACK
6
CONTINUOUS
10
-0.7645905511811023
20
-0.4533224015748031
11
-0.7692774803149606
21
-0.4452044094488189
0
LINE
8
BLACK
6
CONTINUOUS
10
-0.7692774803149606
20
-0.4452044094488189
11
-0.7695163779527558
21
-0.4446771653543307
0
LINE
8
BLACK
6
CONTINUOUS
10
-0.7695163779527558
20
-0.4446771653543307
11
-0.7695302362204725
21
-0.4445719291338582
0
LINE
8
BLACK
6
CONTINUOUS
10
-0.7695302362204725
20
-0.4445719291338582
11
-0.7695766141732283
21
-0.4444765748031496
0
LINE
8
BLACK
6
CONTINUOUS
10
-0.7695766141732283
20
-0.4444765748031496
11
-0.7696677559055118
21
-0.4439049606299212
0
LINE
8
BLACK
6
CONTINUOUS
10
-0.7696677559055118
20
-0.4439049606299212
11
-0.7699189370078739
21
-0.4397203937007874
0
LINE
8
BLACK
6
CONTINUOUS
10
-0.7699189370078739
20
-0.4397203937007874
11
-0.7699077952755905
21
-0.4394277165354331
0
LINE
8
BLACK
6
CONTINUOUS
10
-0.7699077952755905
20
-0.4394277165354331
11
-0.7699179527559055
21
-0.4393503149606299
0
LINE
8
BLACK
6
CONTINUOUS
10
-0.7699179527559055
20
-0.4393503149606299
11
-0.7699008661417323
21
-0.4392467716535433
0
LINE
8
BLACK
6
CONTINUOUS
10
-0.7699008661417323
20
-0.4392467716535433
11
-0.7698968503937008
21
-0.439141968503937
0
LINE
8
BLACK
6
CONTINUOUS
10
-0.7698968503937008
20
-0.439141968503937
11
-0.7698713779527558
21
-0.4390681889763779
0
LINE
8
BLACK
6
CONTINUOUS
10
-0.7698713779527558
20
-0.4390681889763779
11
-0.7698236220472441
21
-0.4387792125984252
0
LINE
8
BLACK
6
CONTINUOUS
10
-0.7698236220472441
20
-0.4387792125984252
11
-0.7691374015748031
21
-0.4362182677165354
0
LINE
8
BLACK
6
CONTINUOUS
10
-0.7691374015748031
20
-0.4362182677165354
11
-0.7690342519685039
21
-0.4359441338582677
0
LINE
8
BLACK
6
CONTINUOUS
10
-0.7690342519685039
20
-0.4359441338582677
11
-0.7690194488188976
21
-0.4358675984251968
0
LINE
8
BLACK
6
CONTINUOUS
10
-0.7690194488188976
20
-0.4358675984251968
11
-0.7689705118110236
21
-0.4357747637795276
0
LINE
8
BLACK
6
CONTINUOUS
10
-0.7689705118110236
20
-0.4357747637795276
11
-0.7689335039370079
21
-0.4356764960629921
0
LINE
8
BLACK
6
CONTINUOUS
10
-0.7689335039370079
20
-0.4356764960629921
11
-0.7688860629921259
21
-0.4356146062992126
0
LINE
8
BLACK
6
CONTINUOUS
10
-0.7688860629921259
20
-0.4356146062992126
11
-0.7687494094488189
21
-0.4353555905511811
0
LINE
8
BLACK
6
CONTINUOUS
10
-0.7687494094488189
20
-0.4353555905511811
11
-0.7664396062992126
21
-0.4318572047244094
0
LINE
8
BLACK
6
CONTINUOUS
10
-0.7664396062992126
20
-0.4318572047244094
11
-0.7660748425196851
21
-0.4314077165354331
0
LINE
8
BLACK
6
CONTINUOUS
10
-0.7660748425196851
20
-0.4314077165354331
11
-0.7659869291338582
21
-0.4313482677165354
0
LINE
8
BLACK
6
CONTINUOUS
10
-0.7659869291338582
20
-0.4313482677165354
11
-0.7659223622047244
21
-0.4312641338582677
0
LINE
8
BLACK
6
CONTINUOUS
10
-0.7659223622047244
20
-0.4312641338582677
11
-0.7654518503937008
21
-0.430926968503937
0
LINE
8
BLACK
6
CONTINUOUS
10
-0.7654518503937008
20
-0.430926968503937
11
-0.7573338582677165
21
-0.4262400787401575
0
LINE
8
BLACK
6
CONTINUOUS
10
-0.7573338582677165
20
-0.4262400787401575
11
-0.7568066141732284
21
-0.4260011811023622
0
LINE
8
BLACK
6
CONTINUOUS
10
-0.7568066141732284
20
-0.4260011811023622
11
-0.7567014173228346
21
-0.4259873228346456
0
LINE
8
BLACK
6
CONTINUOUS
10
-0.7567014173228346
20
-0.4259873228346456
11
-0.7566060236220472
21
-0.4259409448818898
0
LINE
8
BLACK
6
CONTINUOUS
10
-0.7566060236220472
20
-0.4259409448818898
11
-0.7560344094488188
21
-0.4258498031496063
0
LINE
8
BLACK
6
CONTINUOUS
10
-0.7560344094488188
20
-0.4258498031496063
11
-0.7552153149606299
21
-0.4258006299212598
0
LINE
8
BLACK
6
CONTINUOUS
10
-0.7552153149606299
20
-0.4258006299212598
11
-0.7609472047244095
21
-0.4178269291338583
0
LINE
8
BLACK
6
CONTINUOUS
10
-0.7609472047244095
20
-0.4178269291338583
11
-0.774868937007874
21
-0.4258646850393701
0
LINE
8
BLACK
6
CONTINUOUS
10
-0.774868937007874
20
-0.4258646850393701
11
-0.7753961811023622
21
-0.4261035826771654
0
LINE
8
BLACK
6
CONTINUOUS
10
-0.7753961811023622
20
-0.4261035826771654
11
-0.7765384645669291
21
-0.426253937007874
0
LINE
8
BLACK
6
CONTINUOUS
10
-0.7765384645669291
20
-0.426253937007874
11
-0.7776512598425197
21
-0.4259557874015748
0
LINE
8
BLACK
6
CONTINUOUS
10
-0.7776512598425197
20
-0.4259557874015748
11
-0.7785653149606299
21
-0.4252544094488189
0
LINE
8
BLACK
6
CONTINUOUS
10
-0.7785653149606299
20
-0.4252544094488189
11
-0.7791413779527558
21
-0.424256653543307
0
LINE
8
BLACK
6
CONTINUOUS
10
-0.7791413779527558
20
-0.424256653543307
11
-0.7792917322834646
21
-0.4231143700787401
0
LINE
8
BLACK
6
CONTINUOUS
10
-0.7792917322834646
20
-0.4231143700787401
11
-0.7789935826771653
21
-0.4220015748031496
0
LINE
8
BLACK
6
CONTINUOUS
10
-0.7789935826771653
20
-0.4220015748031496
11
-0.7782922047244094
21
-0.4210875196850394
0
LINE
8
BLACK
6
CONTINUOUS
10
-0.7782922047244094
20
-0.4210875196850394
11
-0.7778216929133858
21
-0.4207503543307087
0
LINE
8
BLACK
6
CONTINUOUS
10
-0.7778216929133858
20
-0.4207503543307087
11
-0.761585748031496
21
-0.4113765354330708
0
LINE
8
BLACK
6
CONTINUOUS
10
-0.761585748031496
20
-0.4113765354330708
11
-0.7613907874015747
21
-0.4112881889763779
0
LINE
8
BLACK
6
CONTINUOUS
10
-0.7613907874015747
20
-0.4112881889763779
11
-0.7613320078740158
21
-0.4112459448818898
0
LINE
8
BLACK
6
CONTINUOUS
10
-0.7613320078740158
20
-0.4112459448818898
11
-0.7612605118110236
21
-0.4112291338582677
0
LINE
8
BLACK
6
CONTINUOUS
10
-0.7612605118110236
20
-0.4112291338582677
11
-0.7610585039370078
21
-0.4111376377952756
0
LINE
8
BLACK
6
CONTINUOUS
10
-0.7610585039370078
20
-0.4111376377952756
11
-0.7606306692913386
21
-0.4110812992125984
0
LINE
8
BLACK
6
CONTINUOUS
10
-0.7606306692913386
20
-0.4110812992125984
11
-0.7602103937007874
21
-0.4109826771653543
0
LINE
8
BLACK
6
CONTINUOUS
10
-0.7602103937007874
20
-0.4109826771653543
11
-0.7600636614173228
21
-0.4110066535433071
0
LINE
8
BLACK
6
CONTINUOUS
10
-0.7230843307086614
20
-0.390663031496063
11
-0.7221702755905511
21
-0.3913644094488189
0
LINE
8
BLACK
6
CONTINUOUS
10
-0.7221702755905511
20
-0.3913644094488189
11
-0.7218331102362204
21
-0.3918349212598425
0
LINE
8
BLACK
6
CONTINUOUS
10
-0.7218331102362204
20
-0.3918349212598425
11
-0.7058975984251968
21
-0.4194360236220472
0
LINE
8
BLACK
6
CONTINUOUS
10
-0.7058975984251968
20
-0.4194360236220472
11
-0.7056587007874016
21
-0.4199632677165354
0
LINE
8
BLACK
6
CONTINUOUS
10
-0.7056587007874016
20
-0.4199632677165354
11
-0.7056448818897637
21
-0.4200684645669291
0
LINE
8
BLACK
6
CONTINUOUS
10
-0.7056448818897637
20
-0.4200684645669291
11
-0.7055984645669291
21
-0.4201638582677165
0
LINE
8
BLACK
6
CONTINUOUS
10
-0.7055984645669291
20
-0.4201638582677165
11
-0.7055073228346457
21
-0.4207354724409449
0
LINE
8
BLACK
6
CONTINUOUS
10
-0.7055073228346457
20
-0.4207354724409449
11
-0.7052561417322835
21
-0.4249200393700787
0
LINE
8
BLACK
6
CONTINUOUS
10
-0.7052561417322835
20
-0.4249200393700787
11
-0.7052673228346457
21
-0.4252126771653543
0
LINE
8
BLACK
6
CONTINUOUS
10
-0.7052673228346457
20
-0.4252126771653543
11
-0.7052571259842519
21
-0.4252900787401575
0
LINE
8
BLACK
6
CONTINUOUS
10
-0.7052571259842519
20
-0.4252900787401575
11
-0.7052742519685039
21
-0.4253935826771654
0
LINE
8
BLACK
6
CONTINUOUS
10
-0.7052742519685039
20
-0.4253935826771654
11
-0.7052782283464567
21
-0.4254984645669291
0
LINE
8
BLACK
6
CONTINUOUS
10
-0.7052782283464567
20
-0.4254984645669291
11
-0.7053037401574803
21
-0.4255722440944882
0
LINE
8
BLACK
6
CONTINUOUS
10
-0.7053037401574803
20
-0.4255722440944882
11
-0.7053514566929133
21
-0.4258611811023622
0
LINE
8
BLACK
6
CONTINUOUS
10
-0.7053514566929133
20
-0.4258611811023622
11
-0.7060376771653543
21
-0.4284222047244095
0
LINE
8
BLACK
6
CONTINUOUS
10
-0.7060376771653543
20
-0.4284222047244095
11
-0.7061408267716536
21
-0.4286962204724409
0
LINE
8
BLACK
6
CONTINUOUS
10
-0.7061408267716536
20
-0.4286962204724409
11
-0.7061556299212598
21
-0.4287729133858267
0
LINE
8
BLACK
6
CONTINUOUS
10
-0.7061556299212598
20
-0.4287729133858267
11
-0.7062046850393701
21
-0.4288658267716535
0
LINE
8
BLACK
6
CONTINUOUS
10
-0.7062046850393701
20
-0.4288658267716535
11
-0.7062415748031496
21
-0.428963937007874
0
LINE
8
BLACK
6
CONTINUOUS
10
-0.7062415748031496
20
-0.428963937007874
11
-0.7062890551181102
21
-0.4290257480314961
0
LINE
8
BLACK
6
CONTINUOUS
10
-0.7062890551181102
20
-0.4290257480314961
11
-0.7064257086614173
21
-0.4292848818897638
0
LINE
8
BLACK
6
CONTINUOUS
10
-0.7064257086614173
20
-0.4292848818897638
11
-0.7087355118110236
21
-0.4327832283464567
0
LINE
8
BLACK
6
CONTINUOUS
10
-0.7087355118110236
20
-0.4327832283464567
11
-0.7091002362204725
21
-0.433232716535433
0
LINE
8
BLACK
6
CONTINUOUS
10
-0.7091002362204725
20
-0.433232716535433
11
-0.7091881889763779
21
-0.433292125984252
0
LINE
8
BLACK
6
CONTINUOUS
10
-0.7091881889763779
20
-0.433292125984252
11
-0.7092527165354331
21
-0.4333762992125984
0
LINE
8
BLACK
6
CONTINUOUS
10
-0.7092527165354331
20
-0.4333762992125984
11
-0.7097232283464566
21
-0.4337134645669291
0
LINE
8
BLACK
6
CONTINUOUS
10
-0.7097232283464566
20
-0.4337134645669291
11
-0.7162176377952756
21
-0.4374629921259842
0
LINE
8
BLACK
6
CONTINUOUS
10
-0.7162176377952756
20
-0.4374629921259842
11
-0.7167448818897638
21
-0.4377018897637795
0
LINE
8
BLACK
6
CONTINUOUS
10
-0.7167448818897638
20
-0.4377018897637795
11
-0.7168501181102362
21
-0.4377157086614173
0
LINE
8
BLACK
6
CONTINUOUS
10
-0.7168501181102362
20
-0.4377157086614173
11
-0.7169454724409449
21
-0.437762125984252
0
LINE
8
BLACK
6
CONTINUOUS
10
-0.7169454724409449
20
-0.437762125984252
11
-0.7175170866141732
21
-0.4378532677165354
0
LINE
8
BLACK
6
CONTINUOUS
10
-0.7175170866141732
20
-0.4378532677165354
11
-0.7217016535433071
21
-0.4381044488188977
0
LINE
8
BLACK
6
CONTINUOUS
10
-0.7217016535433071
20
-0.4381044488188977
11
-0.7219943307086614
21
-0.4380932677165355
0
LINE
8
BLACK
6
CONTINUOUS
10
-0.7219943307086614
20
-0.4380932677165355
11
-0.7220716929133858
21
-0.4381034645669291
0
LINE
8
BLACK
6
CONTINUOUS
10
-0.7220716929133858
20
-0.4381034645669291
11
-0.7221752362204724
21
-0.4380863385826771
0
LINE
8
BLACK
6
CONTINUOUS
10
-0.7221752362204724
20
-0.4380863385826771
11
-0.7222800787401574
21
-0.4380823622047244
0
LINE
8
BLACK
6
CONTINUOUS
10
-0.7222800787401574
20
-0.4380823622047244
11
-0.7223538976377952
21
-0.4380568503937008
0
LINE
8
BLACK
6
CONTINUOUS
10
-0.7223538976377952
20
-0.4380568503937008
11
-0.7226428346456693
21
-0.4380091338582677
0
LINE
8
BLACK
6
CONTINUOUS
10
-0.7226428346456693
20
-0.4380091338582677
11
-0.725203779527559
21
-0.4373229133858267
0
LINE
8
BLACK
6
CONTINUOUS
10
-0.725203779527559
20
-0.4373229133858267
11
-0.725477874015748
21
-0.4372197244094488
0
LINE
8
BLACK
6
CONTINUOUS
10
-0.725477874015748
20
-0.4372197244094488
11
-0.7255544488188976
21
-0.4372049606299213
0
LINE
8
BLACK
6
CONTINUOUS
10
-0.7255544488188976
20
-0.4372049606299213
11
-0.7256473622047244
21
-0.4371559448818897
0
LINE
8
BLACK
6
CONTINUOUS
10
-0.7256473622047244
20
-0.4371559448818897
11
-0.7257455118110236
21
-0.4371190157480315
0
LINE
8
BLACK
6
CONTINUOUS
10
-0.7257455118110236
20
-0.4371190157480315
11
-0.7258073228346457
21
-0.4370715748031496
0
LINE
8
BLACK
6
CONTINUOUS
10
-0.7258073228346457
20
-0.4370715748031496
11
-0.7260664566929134
21
-0.4369349212598425
0
LINE
8
BLACK
6
CONTINUOUS
10
-0.7260664566929134
20
-0.4369349212598425
11
-0.729564842519685
21
-0.4346251181102362
0
LINE
8
BLACK
6
CONTINUOUS
10
-0.729564842519685
20
-0.4346251181102362
11
-0.7300143307086614
21
-0.4342603543307086
0
LINE
8
BLACK
6
CONTINUOUS
10
-0.7300143307086614
20
-0.4342603543307086
11
-0.730073779527559
21
-0.4341724015748031
0
LINE
8
BLACK
6
CONTINUOUS
10
-0.730073779527559
20
-0.4341724015748031
11
-0.7301579133858268
21
-0.434107874015748
0
LINE
8
BLACK
6
CONTINUOUS
10
-0.7301579133858268
20
-0.434107874015748
11
-0.7304950787401575
21
-0.4336373622047244
0
LINE
8
BLACK
6
CONTINUOUS
10
-0.7304950787401575
20
-0.4336373622047244
11
-0.7464305905511811
21
-0.4060362598425197
0
LINE
8
BLACK
6
CONTINUOUS
10
-0.7464305905511811
20
-0.4060362598425197
11
-0.7466694881889764
21
-0.4055090157480315
0
LINE
8
BLACK
6
CONTINUOUS
10
-0.7466694881889764
20
-0.4055090157480315
11
-0.746819842519685
21
-0.4043667322834645
0
LINE
8
BLACK
6
CONTINUOUS
10
-0.746819842519685
20
-0.4043667322834645
11
-0.7465216929133858
21
-0.403253937007874
0
LINE
8
BLACK
6
CONTINUOUS
10
-0.7465216929133858
20
-0.403253937007874
11
-0.7458203149606299
21
-0.4023398818897638
0
LINE
8
BLACK
6
CONTINUOUS
10
-0.7458203149606299
20
-0.4023398818897638
11
-0.7448225590551181
21
-0.4017638188976378
0
LINE
8
BLACK
6
CONTINUOUS
10
-0.7448225590551181
20
-0.4017638188976378
11
-0.7436802755905512
21
-0.4016134645669291
0
LINE
8
BLACK
6
CONTINUOUS
10
-0.7436802755905512
20
-0.4016134645669291
11
-0.7425674803149606
21
-0.4019116141732283
0
LINE
8
BLACK
6
CONTINUOUS
10
-0.7425674803149606
20
-0.4019116141732283
11
-0.7416534251968504
21
-0.4026129921259842
0
LINE
8
BLACK
6
CONTINUOUS
10
-0.7416534251968504
20
-0.4026129921259842
11
-0.7413162598425197
21
-0.4030835039370079
0
LINE
8
BLACK
6
CONTINUOUS
10
-0.7413162598425197
20
-0.4030835039370079
11
-0.7257292913385827
21
-0.430080905511811
0
LINE
8
BLACK
6
CONTINUOUS
10
-0.7257292913385827
20
-0.430080905511811
11
-0.7232124015748032
21
-0.4317426771653543
0
LINE
8
BLACK
6
CONTINUOUS
10
-0.7232124015748032
20
-0.4317426771653543
11
-0.7215772047244094
21
-0.4321808267716535
0
LINE
8
BLACK
6
CONTINUOUS
10
-0.7215772047244094
20
-0.4321808267716535
11
-0.7185667716535433
21
-0.4320001181102362
0
LINE
8
BLACK
6
CONTINUOUS
10
-0.7185667716535433
20
-0.4320001181102362
11
-0.7132796062992126
21
-0.4289475984251969
0
LINE
8
BLACK
6
CONTINUOUS
10
-0.7132796062992126
20
-0.4289475984251969
11
-0.7116179527559054
21
-0.426430905511811
0
LINE
8
BLACK
6
CONTINUOUS
10
-0.7116179527559054
20
-0.426430905511811
11
-0.7111797637795275
21
-0.4247955511811023
0
LINE
8
BLACK
6
CONTINUOUS
10
-0.7111797637795275
20
-0.4247955511811023
11
-0.7113604724409449
21
-0.4217851181102362
0
LINE
8
BLACK
6
CONTINUOUS
10
-0.7113604724409449
20
-0.4217851181102362
11
-0.7269474409448818
21
-0.3947876771653543
0
LINE
8
BLACK
6
CONTINUOUS
10
-0.7269474409448818
20
-0.3947876771653543
11
-0.7271863385826771
21
-0.3942604330708661
0
LINE
8
BLACK
6
CONTINUOUS
10
-0.7271863385826771
20
-0.3942604330708661
11
-0.7273366929133858
21
-0.3931181496062992
0
LINE
8
BLACK
6
CONTINUOUS
10
-0.7273366929133858
20
-0.3931181496062992
11
-0.7270385433070866
21
-0.3920053543307087
0
LINE
8
BLACK
6
CONTINUOUS
10
-0.7270385433070866
20
-0.3920053543307087
11
-0.7263371653543307
21
-0.3910912992125984
0
LINE
8
BLACK
6
CONTINUOUS
10
-0.7263371653543307
20
-0.3910912992125984
11
-0.7253394094488189
21
-0.3905152362204724
0
LINE
8
BLACK
6
CONTINUOUS
10
-0.7253394094488189
20
-0.3905152362204724
11
-0.7241971259842519
21
-0.3903648818897638
0
LINE
8
BLACK
6
CONTINUOUS
10
-0.7241971259842519
20
-0.3903648818897638
11
-0.7230843307086614
21
-0.390663031496063
0
LINE
8
BLACK
6
CONTINUOUS
10
-0.7151796456692914
20
-0.3662125196850394
11
-0.7145364566929133
21
-0.3669458661417323
0
LINE
8
BLACK
6
CONTINUOUS
10
-0.7145364566929133
20
-0.3669458661417323
11
-0.6751664173228347
21
-0.4351368110236221
0
LINE
8
BLACK
6
CONTINUOUS
10
-0.6751664173228347
20
-0.4351368110236221
11
-0.674852874015748
21
-0.4360604724409449
0
LINE
8
BLACK
6
CONTINUOUS
10
-0.674852874015748
20
-0.4360604724409449
11
-0.6748529133858268
21
-0.4360604724409449
0
LINE
8
BLACK
6
CONTINUOUS
10
-0.6748529133858268
20
-0.4360604724409449
11
-0.674852874015748
21
-0.4360605118110236
0
LINE
8
BLACK
6
CONTINUOUS
10
-0.674852874015748
20
-0.4360605118110236
11
-0.6753481102362204
21
-0.4379087007874016
0
LINE
8
BLACK
6
CONTINUOUS
10
-0.6753481102362204
20
-0.4379087007874016
11
-0.6760814566929134
21
-0.4385518897637795
0
LINE
8
BLACK
6
CONTINUOUS
10
-0.6760814566929134
20
-0.4385518897637795
11
-0.7613201968503936
21
-0.4877644881889764
0
LINE
8
BLACK
6
CONTINUOUS
10
-0.7613201968503936
20
-0.4877644881889764
11
-0.7622438582677166
21
-0.4880779921259842
0
LINE
8
BLACK
6
CONTINUOUS
10
-0.7622438582677166
20
-0.4880779921259842
11
-0.7622438976377952
21
-0.4880779527559055
0
LINE
8
BLACK
6
CONTINUOUS
10
-0.7622438976377952
20
-0.4880779527559055
11
-0.7622438976377952
21
-0.4880779921259842
0
LINE
8
BLACK
6
CONTINUOUS
10
-0.7622438976377952
20
-0.4880779921259842
11
-0.7640920866141732
21
-0.4875827559055118
0
LINE
8
BLACK
6
CONTINUOUS
10
-0.7640920866141732
20
-0.4875827559055118
11
-0.7647352755905512
21
-0.4868494094488189
0
LINE
8
BLACK
6
CONTINUOUS
10
-0.7647352755905512
20
-0.4868494094488189
11
-0.8041053543307086
21
-0.4186584645669291
0
LINE
8
BLACK
6
CONTINUOUS
10
-0.8041053543307086
20
-0.4186584645669291
11
-0.8044188582677165
21
-0.4177348031496063
0
LINE
8
BLACK
6
CONTINUOUS
10
-0.8044188582677165
20
-0.4177348031496063
11
-0.8039236220472441
21
-0.4158865748031496
0
LINE
8
BLACK
6
CONTINUOUS
10
-0.8039236220472441
20
-0.4158865748031496
11
-0.8031902755905511
21
-0.4152433858267717
0
LINE
8
BLACK
6
CONTINUOUS
10
-0.8031902755905511
20
-0.4152433858267717
11
-0.7179515354330709
21
-0.3660308267716536
0
LINE
8
BLACK
6
CONTINUOUS
10
-0.7179515354330709
20
-0.3660308267716536
11
-0.717027874015748
21
-0.3657172834645669
0
LINE
8
BLACK
6
CONTINUOUS
10
-0.717027874015748
20
-0.3657172834645669
11
-0.7151796456692914
21
-0.3662125196850394
0
LINE
8
BLACK
6
CONTINUOUS
10
-0.7985251968503937
20
-0.4183235039370078
11
-0.761655157480315
21
-0.4821843307086614
0
LINE
8
BLACK
6
CONTINUOUS
10
-0.761655157480315
20
-0.4821843307086614
11
-0.6807465354330708
21
-0.4354717322834645
0
LINE
8
BLACK
6
CONTINUOUS
10
-0.6807465354330708
20
-0.4354717322834645
11
-0.7176166141732283
21
-0.3716109448818898
0
LINE
8
BLACK
6
CONTINUOUS
10
-0.7176166141732283
20
-0.3716109448818898
11
-0.7985251968503937
21
-0.4183235039370078
0
LINE
8
BLACK
6
CONTINUOUS
10
-0.6846369291338582
20
-0.3568283464566929
11
-0.6824520472440945
21
-0.3595680708661417
0
LINE
8
BLACK
6
CONTINUOUS
10
-0.6824520472440945
20
-0.3595680708661417
11
-0.6816722834645669
21
-0.3629844881889764
0
LINE
8
BLACK
6
CONTINUOUS
10
-0.6816722834645669
20
-0.3629844881889764
11
-0.6824520472440945
21
-0.366400905511811
0
LINE
8
BLACK
6
CONTINUOUS
10
-0.6824520472440945
20
-0.366400905511811
11
-0.6846369291338582
21
-0.3691406299212598
0
LINE
8
BLACK
6
CONTINUOUS
10
-0.6846369291338582
20
-0.3691406299212598
11
-0.6877941732283465
21
-0.3706611023622047
0
LINE
8
BLACK
6
CONTINUOUS
10
-0.6877941732283465
20
-0.3706611023622047
11
-0.6912984251968504
21
-0.3706611023622047
0
LINE
8
BLACK
6
CONTINUOUS
10
-0.6912984251968504
20
-0.3706611023622047
11
-0.6944556692913386
21
-0.3691406299212598
0
LINE
8
BLACK
6
CONTINUOUS
10
-0.6944556692913386
20
-0.3691406299212598
11
-0.6966405511811024
21
-0.366400905511811
0
LINE
8
BLACK
6
CONTINUOUS
10
-0.6966405511811024
20
-0.366400905511811
11
-0.69742031496063
21
-0.3629844881889764
0
LINE
8
BLACK
6
CONTINUOUS
10
-0.69742031496063
20
-0.3629844881889764
11
-0.6966405511811024
21
-0.3595680708661417
0
LINE
8
BLACK
6
CONTINUOUS
10
-0.6966405511811024
20
-0.3595680708661417
11
-0.6944556692913386
21
-0.3568283464566929
0
LINE
8
BLACK
6
CONTINUOUS
10
-0.6944556692913386
20
-0.3568283464566929
11
-0.6912984251968504
21
-0.355307874015748
0
LINE
8
BLACK
6
CONTINUOUS
10
-0.6912984251968504
20
-0.355307874015748
11
-0.6877941732283465
21
-0.355307874015748
0
LINE
8
BLACK
6
CONTINUOUS
10
-0.6877941732283465
20
-0.355307874015748
11
-0.6846369291338582
21
-0.3568283464566929
0
LINE
8
BLACK
6
CONTINUOUS
10
-0.6016735433070866
20
0.2452681102362205
11
-0.6008241338582677
21
0.2444897637795276
0
LINE
8
BLACK
6
CONTINUOUS
10
-0.6008241338582677
20
0.2444897637795276
11
-0.6003372440944882
21
0.2434456299212598
0
LINE
8
BLACK
6
CONTINUOUS
10
-0.6003372440944882
20
0.2434456299212598
11
-0.600286968503937
21
0.2422946062992126
0
LINE
8
BLACK
6
CONTINUOUS
10
-0.600286968503937
20
0.2422946062992126
11
-0.6004306692913386
21
0.2417338582677165
0
LINE
8
BLACK
6
CONTINUOUS
10
-0.6004306692913386
20
0.2417338582677165
11
-0.6110927952755906
21
0.2124399606299213
0
LINE
8
BLACK
6
CONTINUOUS
10
-0.6110927952755906
20
0.2124399606299213
11
-0.6107479921259842
21
0.2094438976377953
0
LINE
8
BLACK
6
CONTINUOUS
10
-0.6107479921259842
20
0.2094438976377953
11
-0.6100324803149606
21
0.2079094881889764
0
LINE
8
BLACK
6
CONTINUOUS
10
-0.6100324803149606
20
0.2079094881889764
11
-0.6079590157480315
21
0.2057194881889764
0
LINE
8
BLACK
6
CONTINUOUS
10
-0.6079590157480315
20
0.2057194881889764
11
-0.6022222047244095
21
0.2036314566929134
0
LINE
8
BLACK
6
CONTINUOUS
10
-0.6022222047244095
20
0.2036314566929134
11
-0.5992261023622047
21
0.2039762598425197
0
LINE
8
BLACK
6
CONTINUOUS
10
-0.5992261023622047
20
0.2039762598425197
11
-0.5976916929133859
21
0.2046917716535433
0
LINE
8
BLACK
6
CONTINUOUS
10
-0.5976916929133859
20
0.2046917716535433
11
-0.5955017716535433
21
0.2067652362204724
0
LINE
8
BLACK
6
CONTINUOUS
10
-0.5955017716535433
20
0.2067652362204724
11
-0.5848395669291339
21
0.2360591732283465
0
LINE
8
BLACK
6
CONTINUOUS
10
-0.5848395669291339
20
0.2360591732283465
11
-0.584589251968504
21
0.2365811023622047
0
LINE
8
BLACK
6
CONTINUOUS
10
-0.584589251968504
20
0.2365811023622047
11
-0.5838108661417323
21
0.2374305118110236
0
LINE
8
BLACK
6
CONTINUOUS
10
-0.5838108661417323
20
0.2374305118110236
11
-0.5827667322834645
21
0.2379174015748032
0
LINE
8
BLACK
6
CONTINUOUS
10
-0.5827667322834645
20
0.2379174015748032
11
-0.5816157086614173
21
0.2379676771653543
0
LINE
8
BLACK
6
CONTINUOUS
10
-0.5816157086614173
20
0.2379676771653543
11
-0.5805330708661417
21
0.2375736220472441
0
LINE
8
BLACK
6
CONTINUOUS
10
-0.5805330708661417
20
0.2375736220472441
11
-0.5796836614173229
21
0.2367952362204724
0
LINE
8
BLACK
6
CONTINUOUS
10
-0.5796836614173229
20
0.2367952362204724
11
-0.5791967716535433
21
0.2357511023622047
0
LINE
8
BLACK
6
CONTINUOUS
10
-0.5791967716535433
20
0.2357511023622047
11
-0.5791464960629921
21
0.2346000787401575
0
LINE
8
BLACK
6
CONTINUOUS
10
-0.5791464960629921
20
0.2346000787401575
11
-0.5792901968503937
21
0.2340393700787401
0
LINE
8
BLACK
6
CONTINUOUS
10
-0.5792901968503937
20
0.2340393700787401
11
-0.5901907480314961
21
0.2040904330708661
0
LINE
8
BLACK
6
CONTINUOUS
10
-0.5901907480314961
20
0.2040904330708661
11
-0.5904411023622047
21
0.2035685433070866
0
LINE
8
BLACK
6
CONTINUOUS
10
-0.5904411023622047
20
0.2035685433070866
11
-0.5905127952755905
21
0.2034903543307087
0
LINE
8
BLACK
6
CONTINUOUS
10
-0.5905127952755905
20
0.2034903543307087
11
-0.5905560236220472
21
0.2033934645669291
0
LINE
8
BLACK
6
CONTINUOUS
10
-0.5905560236220472
20
0.2033934645669291
11
-0.5909353149606299
21
0.2029562204724409
0
LINE
8
BLACK
6
CONTINUOUS
10
-0.5909353149606299
20
0.2029562204724409
11
-0.5939794094488189
21
0.2000740157480315
0
LINE
8
BLACK
6
CONTINUOUS
10
-0.5939794094488189
20
0.2000740157480315
11
-0.5942107874015747
21
0.1998944881889764
0
LINE
8
BLACK
6
CONTINUOUS
10
-0.5942107874015747
20
0.1998944881889764
11
-0.5942635039370079
21
0.1998369291338583
0
LINE
8
BLACK
6
CONTINUOUS
10
-0.5942635039370079
20
0.1998369291338583
11
-0.5943538976377952
21
0.1997834251968504
0
LINE
8
BLACK
6
CONTINUOUS
10
-0.5943538976377952
20
0.1997834251968504
11
-0.5944367322834646
21
0.1997191338582677
0
LINE
8
BLACK
6
CONTINUOUS
10
-0.5944367322834646
20
0.1997191338582677
11
-0.5945095275590551
21
0.1996912992125984
0
LINE
8
BLACK
6
CONTINUOUS
10
-0.5945095275590551
20
0.1996912992125984
11
-0.5947616141732284
21
0.1995420472440945
0
LINE
8
BLACK
6
CONTINUOUS
10
-0.5947616141732284
20
0.1995420472440945
11
-0.5971645275590551
21
0.1984215354330709
0
LINE
8
BLACK
6
CONTINUOUS
10
-0.5971645275590551
20
0.1984215354330709
11
-0.5974409448818897
21
0.1983243700787402
0
LINE
8
BLACK
6
CONTINUOUS
10
-0.5974409448818897
20
0.1983243700787402
11
-0.5975090551181103
21
0.1982864566929134
0
LINE
8
BLACK
6
CONTINUOUS
10
-0.5975090551181103
20
0.1982864566929134
11
-0.5976115748031496
21
0.1982643307086614
0
LINE
8
BLACK
6
CONTINUOUS
10
-0.5976115748031496
20
0.1982643307086614
11
-0.5977105905511811
21
0.1982294881889764
0
LINE
8
BLACK
6
CONTINUOUS
10
-0.5977105905511811
20
0.1982294881889764
11
-0.5977885826771654
21
0.1982261023622047
0
LINE
8
BLACK
6
CONTINUOUS
10
-0.5977885826771654
20
0.1982261023622047
11
-0.598074842519685
21
0.1981642519685039
0
LINE
8
BLACK
6
CONTINUOUS
10
-0.598074842519685
20
0.1981642519685039
11
-0.6022394881889763
21
0.1976849606299212
0
LINE
8
BLACK
6
CONTINUOUS
10
-0.6022394881889763
20
0.1976849606299212
11
-0.6028182677165355
21
0.1976754330708661
0
LINE
8
BLACK
6
CONTINUOUS
10
-0.6028182677165355
20
0.1976754330708661
11
-0.6029203937007874
21
0.1977046062992126
0
LINE
8
BLACK
6
CONTINUOUS
10
-0.6029203937007874
20
0.1977046062992126
11
-0.6030262598425197
21
0.1976999606299213
0
LINE
8
BLACK
6
CONTINUOUS
10
-0.6030262598425197
20
0.1976999606299213
11
-0.6035870078740158
21
0.1978436614173228
0
LINE
8
BLACK
6
CONTINUOUS
10
-0.6035870078740158
20
0.1978436614173228
11
-0.6106338188976378
21
0.2004085039370079
0
LINE
8
BLACK
6
CONTINUOUS
10
-0.6106338188976378
20
0.2004085039370079
11
-0.6111557086614173
21
0.2006588582677165
0
LINE
8
BLACK
6
CONTINUOUS
10
-0.6111557086614173
20
0.2006588582677165
11
-0.6112338976377952
21
0.2007305118110236
0
LINE
8
BLACK
6
CONTINUOUS
10
-0.6112338976377952
20
0.2007305118110236
11
-0.6113308267716535
21
0.200773779527559
0
LINE
8
BLACK
6
CONTINUOUS
10
-0.6113308267716535
20
0.200773779527559
11
-0.6117680708661417
21
0.2011531102362205
0
LINE
8
BLACK
6
CONTINUOUS
10
-0.6117680708661417
20
0.2011531102362205
11
-0.6146502362204724
21
0.2041972440944882
0
LINE
8
BLACK
6
CONTINUOUS
10
-0.6146502362204724
20
0.2041972440944882
11
-0.6148297637795276
21
0.2044286220472441
0
LINE
8
BLACK
6
CONTINUOUS
10
-0.6148297637795276
20
0.2044286220472441
11
-0.6148872834645669
21
0.2044812992125984
0
LINE
8
BLACK
6
CONTINUOUS
10
-0.6148872834645669
20
0.2044812992125984
11
-0.6149407874015748
21
0.2045716535433071
0
LINE
8
BLACK
6
CONTINUOUS
10
-0.6149407874015748
20
0.2045716535433071
11
-0.6150051181102362
21
0.2046545669291339
0
LINE
8
BLACK
6
CONTINUOUS
10
-0.6150051181102362
20
0.2046545669291339
11
-0.6150329921259843
21
0.2047274409448819
0
LINE
8
BLACK
6
CONTINUOUS
10
-0.6150329921259843
20
0.2047274409448819
11
-0.6151821653543307
21
0.2049794094488189
0
LINE
8
BLACK
6
CONTINUOUS
10
-0.6151821653543307
20
0.2049794094488189
11
-0.6163026771653544
21
0.2073823228346457
0
LINE
8
BLACK
6
CONTINUOUS
10
-0.6163026771653544
20
0.2073823228346457
11
-0.6163998818897638
21
0.2076587401574803
0
LINE
8
BLACK
6
CONTINUOUS
10
-0.6163998818897638
20
0.2076587401574803
11
-0.6164377559055118
21
0.2077268503937008
0
LINE
8
BLACK
6
CONTINUOUS
10
-0.6164377559055118
20
0.2077268503937008
11
-0.6164599212598425
21
0.2078293700787402
0
LINE
8
BLACK
6
CONTINUOUS
10
-0.6164599212598425
20
0.2078293700787402
11
-0.6164947244094489
21
0.2079283858267716
0
LINE
8
BLACK
6
CONTINUOUS
10
-0.6164947244094489
20
0.2079283858267716
11
-0.6164981496062992
21
0.2080063779527559
0
LINE
8
BLACK
6
CONTINUOUS
10
-0.6164981496062992
20
0.2080063779527559
11
-0.6165599606299212
21
0.2082926377952756
0
LINE
8
BLACK
6
CONTINUOUS
10
-0.6165599606299212
20
0.2082926377952756
11
-0.617039251968504
21
0.2124572440944882
0
LINE
8
BLACK
6
CONTINUOUS
10
-0.617039251968504
20
0.2124572440944882
11
-0.617048779527559
21
0.2130360236220472
0
LINE
8
BLACK
6
CONTINUOUS
10
-0.617048779527559
20
0.2130360236220472
11
-0.6170196456692914
21
0.2131381102362205
0
LINE
8
BLACK
6
CONTINUOUS
10
-0.6170196456692914
20
0.2131381102362205
11
-0.617024251968504
21
0.2132440157480315
0
LINE
8
BLACK
6
CONTINUOUS
10
-0.617024251968504
20
0.2132440157480315
11
-0.6168805511811023
21
0.2138047244094488
0
LINE
8
BLACK
6
CONTINUOUS
10
-0.6168805511811023
20
0.2138047244094488
11
-0.6059800393700787
21
0.2437536614173228
0
LINE
8
BLACK
6
CONTINUOUS
10
-0.6059800393700787
20
0.2437536614173228
11
-0.6057296850393701
21
0.2442755905511811
0
LINE
8
BLACK
6
CONTINUOUS
10
-0.6057296850393701
20
0.2442755905511811
11
-0.6049513385826771
21
0.245125
0
LINE
8
BLACK
6
CONTINUOUS
10
-0.6049513385826771
20
0.245125
11
-0.6039072047244094
21
0.2456118897637795
0
LINE
8
BLACK
6
CONTINUOUS
10
-0.6039072047244094
20
0.2456118897637795
11
-0.6027561811023622
21
0.2456621653543307
0
LINE
8
BLACK
6
CONTINUOUS
10
-0.6027561811023622
20
0.2456621653543307
11
-0.6016735433070866
21
0.2452681102362205
0
LINE
8
BLACK
6
CONTINUOUS
10
-0.6356677952755906
20
0.2577014173228346
11
-0.6286210236220472
21
0.2551365748031496
0
LINE
8
BLACK
6
CONTINUOUS
10
-0.6286210236220472
20
0.2551365748031496
11
-0.628099094488189
21
0.2548862204724409
0
LINE
8
BLACK
6
CONTINUOUS
10
-0.628099094488189
20
0.2548862204724409
11
-0.628020905511811
21
0.2548145669291338
0
LINE
8
BLACK
6
CONTINUOUS
10
-0.628020905511811
20
0.2548145669291338
11
-0.6279240157480315
21
0.2547712992125984
0
LINE
8
BLACK
6
CONTINUOUS
10
-0.6279240157480315
20
0.2547712992125984
11
-0.6274867716535433
21
0.2543920078740157
0
LINE
8
BLACK
6
CONTINUOUS
10
-0.6274867716535433
20
0.2543920078740157
11
-0.6246045669291338
21
0.2513479133858268
0
LINE
8
BLACK
6
CONTINUOUS
10
-0.6246045669291338
20
0.2513479133858268
11
-0.6244250393700788
21
0.2511165748031496
0
LINE
8
BLACK
6
CONTINUOUS
10
-0.6244250393700788
20
0.2511165748031496
11
-0.6243674803149606
21
0.2510638188976378
0
LINE
8
BLACK
6
CONTINUOUS
10
-0.6243674803149606
20
0.2510638188976378
11
-0.6243139763779527
21
0.2509734645669291
0
LINE
8
BLACK
6
CONTINUOUS
10
-0.6243139763779527
20
0.2509734645669291
11
-0.6242496850393701
21
0.2508905905511811
0
LINE
8
BLACK
6
CONTINUOUS
10
-0.6242496850393701
20
0.2508905905511811
11
-0.6242218503937008
21
0.2508178346456693
0
LINE
8
BLACK
6
CONTINUOUS
10
-0.6242218503937008
20
0.2508178346456693
11
-0.6240725984251968
21
0.2505657086614173
0
LINE
8
BLACK
6
CONTINUOUS
10
-0.6240725984251968
20
0.2505657086614173
11
-0.6229520866141732
21
0.2481627559055118
0
LINE
8
BLACK
6
CONTINUOUS
10
-0.6229520866141732
20
0.2481627559055118
11
-0.6229514173228347
21
0.2481608267716535
0
LINE
8
BLACK
6
CONTINUOUS
10
-0.6229514173228347
20
0.2481608267716535
11
-0.6229507874015748
21
0.2481599606299213
0
LINE
8
BLACK
6
CONTINUOUS
10
-0.6229507874015748
20
0.2481599606299213
11
-0.6228590551181102
21
0.2478982283464567
0
LINE
8
BLACK
6
CONTINUOUS
10
-0.6228590551181102
20
0.2478982283464567
11
-0.6227600393700787
21
0.2476166929133858
0
LINE
8
BLACK
6
CONTINUOUS
10
-0.6227600393700787
20
0.2476166929133858
11
-0.62276
21
0.2476155905511811
0
LINE
8
BLACK
6
CONTINUOUS
10
-0.62276
20
0.2476155905511811
11
-0.6227593307086614
21
0.2476137007874016
0
LINE
8
BLACK
6
CONTINUOUS
10
-0.6227593307086614
20
0.2476137007874016
11
-0.6211595669291339
21
0.2410461811023622
0
LINE
8
BLACK
6
CONTINUOUS
10
-0.6211595669291339
20
0.2410461811023622
11
-0.6211090551181102
21
0.2406894881889764
0
LINE
8
BLACK
6
CONTINUOUS
10
-0.6211090551181102
20
0.2406894881889764
11
-0.6210882283464567
21
0.2406194488188976
0
LINE
8
BLACK
6
CONTINUOUS
10
-0.6210882283464567
20
0.2406194488188976
11
-0.6210887007874015
21
0.2405458661417323
0
LINE
8
BLACK
6
CONTINUOUS
10
-0.6210887007874015
20
0.2405458661417323
11
-0.6210783464566929
21
0.240473031496063
0
LINE
8
BLACK
6
CONTINUOUS
10
-0.6210783464566929
20
0.240473031496063
11
-0.6210895275590551
21
0.2404009448818898
0
LINE
8
BLACK
6
CONTINUOUS
10
-0.6210895275590551
20
0.2404009448818898
11
-0.6210916535433071
21
0.2400405905511811
0
LINE
8
BLACK
6
CONTINUOUS
10
-0.6210916535433071
20
0.2400405905511811
11
-0.6218947637795276
21
0.2323525590551181
0
LINE
8
BLACK
6
CONTINUOUS
10
-0.6218947637795276
20
0.2323525590551181
11
-0.6219150787401575
21
0.2322536614173228
0
LINE
8
BLACK
6
CONTINUOUS
10
-0.6219150787401575
20
0.2322536614173228
11
-0.6219131496062992
21
0.232210157480315
0
LINE
8
BLACK
6
CONTINUOUS
10
-0.6219131496062992
20
0.232210157480315
11
-0.6219672440944882
21
0.2319992125984252
0
LINE
8
BLACK
6
CONTINUOUS
10
-0.6219672440944882
20
0.2319992125984252
11
-0.6220110236220472
21
0.2317855118110236
0
LINE
8
BLACK
6
CONTINUOUS
10
-0.6220110236220472
20
0.2317855118110236
11
-0.622031811023622
21
0.2317472440944882
0
LINE
8
BLACK
6
CONTINUOUS
10
-0.622031811023622
20
0.2317472440944882
11
-0.6220568503937007
21
0.2316494094488189
0
LINE
8
BLACK
6
CONTINUOUS
10
-0.6220568503937007
20
0.2316494094488189
11
-0.6271864960629921
21
0.2175558267716535
0
LINE
8
BLACK
6
CONTINUOUS
10
-0.6271864960629921
20
0.2175558267716535
11
-0.6274368503937008
21
0.2170338976377953
0
LINE
8
BLACK
6
CONTINUOUS
10
-0.6274368503937008
20
0.2170338976377953
11
-0.6275085433070866
21
0.2169557086614173
0
LINE
8
BLACK
6
CONTINUOUS
10
-0.6275085433070866
20
0.2169557086614173
11
-0.6275517716535433
21
0.2168588188976378
0
LINE
8
BLACK
6
CONTINUOUS
10
-0.6275517716535433
20
0.2168588188976378
11
-0.627931062992126
21
0.2164215354330709
0
LINE
8
BLACK
6
CONTINUOUS
10
-0.627931062992126
20
0.2164215354330709
11
-0.6309751968503937
21
0.2135393307086614
0
LINE
8
BLACK
6
CONTINUOUS
10
-0.6309751968503937
20
0.2135393307086614
11
-0.6312066535433071
21
0.2133598031496063
0
LINE
8
BLACK
6
CONTINUOUS
10
-0.6312066535433071
20
0.2133598031496063
11
-0.6312592913385827
21
0.2133022834645669
0
LINE
8
BLACK
6
CONTINUOUS
10
-0.6312592913385827
20
0.2133022834645669
11
-0.6313496456692913
21
0.2132488188976378
0
LINE
8
BLACK
6
CONTINUOUS
10
-0.6313496456692913
20
0.2132488188976378
11
-0.6314325196850393
21
0.2131844881889764
0
LINE
8
BLACK
6
CONTINUOUS
10
-0.6314325196850393
20
0.2131844881889764
11
-0.6315053149606299
21
0.2131566535433071
0
LINE
8
BLACK
6
CONTINUOUS
10
-0.6315053149606299
20
0.2131566535433071
11
-0.6317574015748031
21
0.2130074015748031
0
LINE
8
BLACK
6
CONTINUOUS
10
-0.6317574015748031
20
0.2130074015748031
11
-0.6341603149606299
21
0.2118868897637795
0
LINE
8
BLACK
6
CONTINUOUS
10
-0.6341603149606299
20
0.2118868897637795
11
-0.6344367322834645
21
0.2117897244094488
0
LINE
8
BLACK
6
CONTINUOUS
10
-0.6344367322834645
20
0.2117897244094488
11
-0.634504842519685
21
0.211751811023622
0
LINE
8
BLACK
6
CONTINUOUS
10
-0.634504842519685
20
0.211751811023622
11
-0.6346073622047244
21
0.2117296850393701
0
LINE
8
BLACK
6
CONTINUOUS
10
-0.6346073622047244
20
0.2117296850393701
11
-0.6347063779527559
21
0.211694842519685
0
LINE
8
BLACK
6
CONTINUOUS
10
-0.6347063779527559
20
0.211694842519685
11
-0.6347843700787401
21
0.2116914566929134
0
LINE
8
BLACK
6
CONTINUOUS
10
-0.6347843700787401
20
0.2116914566929134
11
-0.6350706299212598
21
0.2116296062992126
0
LINE
8
BLACK
6
CONTINUOUS
10
-0.6350706299212598
20
0.2116296062992126
11
-0.6392352362204724
21
0.2111503149606299
0
LINE
8
BLACK
6
CONTINUOUS
10
-0.6392352362204724
20
0.2111503149606299
11
-0.6398140157480314
21
0.2111407874015748
0
LINE
8
BLACK
6
CONTINUOUS
10
-0.6398140157480314
20
0.2111407874015748
11
-0.6399161417322835
21
0.2111699606299212
0
LINE
8
BLACK
6
CONTINUOUS
10
-0.6399161417322835
20
0.2111699606299212
11
-0.6400220078740158
21
0.2111653149606299
0
LINE
8
BLACK
6
CONTINUOUS
10
-0.6400220078740158
20
0.2111653149606299
11
-0.6405827559055118
21
0.2113090157480315
0
LINE
8
BLACK
6
CONTINUOUS
10
-0.6405827559055118
20
0.2113090157480315
11
-0.6476295669291339
21
0.2138738582677165
0
LINE
8
BLACK
6
CONTINUOUS
10
-0.6476295669291339
20
0.2138738582677165
11
-0.6481514566929134
21
0.2141242125984252
0
LINE
8
BLACK
6
CONTINUOUS
10
-0.6481514566929134
20
0.2141242125984252
11
-0.6482296850393701
21
0.214195905511811
0
LINE
8
BLACK
6
CONTINUOUS
10
-0.6482296850393701
20
0.214195905511811
11
-0.6483265354330708
21
0.2142391338582677
0
LINE
8
BLACK
6
CONTINUOUS
10
-0.6483265354330708
20
0.2142391338582677
11
-0.6487638188976378
21
0.2146184251968504
0
LINE
8
BLACK
6
CONTINUOUS
10
-0.6487638188976378
20
0.2146184251968504
11
-0.6516460236220473
21
0.2176625590551181
0
LINE
8
BLACK
6
CONTINUOUS
10
-0.6516460236220473
20
0.2176625590551181
11
-0.6518255905511811
21
0.2178940157480315
0
LINE
8
BLACK
6
CONTINUOUS
10
-0.6518255905511811
20
0.2178940157480315
11
-0.6518830708661417
21
0.2179466535433071
0
LINE
8
BLACK
6
CONTINUOUS
10
-0.6518830708661417
20
0.2179466535433071
11
-0.6519365748031496
21
0.2180370078740158
0
LINE
8
BLACK
6
CONTINUOUS
10
-0.6519365748031496
20
0.2180370078740158
11
-0.6520008661417322
21
0.2181198818897638
0
LINE
8
BLACK
6
CONTINUOUS
10
-0.6520008661417322
20
0.2181198818897638
11
-0.6520287401574802
21
0.2181926771653543
0
LINE
8
BLACK
6
CONTINUOUS
10
-0.6520287401574802
20
0.2181926771653543
11
-0.6521779527559055
21
0.2184447637795276
0
LINE
8
BLACK
6
CONTINUOUS
10
-0.6521779527559055
20
0.2184447637795276
11
-0.6532984645669291
21
0.2208476771653543
0
LINE
8
BLACK
6
CONTINUOUS
10
-0.6532984645669291
20
0.2208476771653543
11
-0.6533956692913385
21
0.221124094488189
0
LINE
8
BLACK
6
CONTINUOUS
10
-0.6533956692913385
20
0.221124094488189
11
-0.6534335433070866
21
0.2211922047244095
0
LINE
8
BLACK
6
CONTINUOUS
10
-0.6534335433070866
20
0.2211922047244095
11
-0.6534557086614173
21
0.2212947244094488
0
LINE
8
BLACK
6
CONTINUOUS
10
-0.6534557086614173
20
0.2212947244094488
11
-0.6534905118110236
21
0.2213937401574803
0
LINE
8
BLACK
6
CONTINUOUS
10
-0.6534905118110236
20
0.2213937401574803
11
-0.6534939370078739
21
0.2214717322834646
0
LINE
8
BLACK
6
CONTINUOUS
10
-0.6534939370078739
20
0.2214717322834646
11
-0.6535557480314961
21
0.2217579921259842
0
LINE
8
BLACK
6
CONTINUOUS
10
-0.6535557480314961
20
0.2217579921259842
11
-0.6540350393700787
21
0.2259225984251969
0
LINE
8
BLACK
6
CONTINUOUS
10
-0.6540350393700787
20
0.2259225984251969
11
-0.6540445669291338
21
0.2265013779527559
0
LINE
8
BLACK
6
CONTINUOUS
10
-0.6540445669291338
20
0.2265013779527559
11
-0.6540154330708662
21
0.2266034645669291
0
LINE
8
BLACK
6
CONTINUOUS
10
-0.6540154330708662
20
0.2266034645669291
11
-0.6540200393700787
21
0.2267093700787401
0
LINE
8
BLACK
6
CONTINUOUS
10
-0.6540200393700787
20
0.2267093700787401
11
-0.6538763385826771
21
0.2272701181102362
0
LINE
8
BLACK
6
CONTINUOUS
10
-0.6538763385826771
20
0.2272701181102362
11
-0.6506702755905511
21
0.2360786220472441
0
LINE
8
BLACK
6
CONTINUOUS
10
-0.6506702755905511
20
0.2360786220472441
11
-0.6504199212598425
21
0.2366005118110236
0
LINE
8
BLACK
6
CONTINUOUS
10
-0.6504199212598425
20
0.2366005118110236
11
-0.6503482677165354
21
0.2366787401574803
0
LINE
8
BLACK
6
CONTINUOUS
10
-0.6503482677165354
20
0.2366787401574803
11
-0.650305
21
0.2367755905511811
0
LINE
8
BLACK
6
CONTINUOUS
10
-0.650305
20
0.2367755905511811
11
-0.6499257086614173
21
0.2372128346456693
0
LINE
8
BLACK
6
CONTINUOUS
10
-0.6499257086614173
20
0.2372128346456693
11
-0.6468816141732283
21
0.2400950393700787
0
LINE
8
BLACK
6
CONTINUOUS
10
-0.6468816141732283
20
0.2400950393700787
11
-0.6466502755905512
21
0.2402746062992126
0
LINE
8
BLACK
6
CONTINUOUS
10
-0.6466502755905512
20
0.2402746062992126
11
-0.6465975196850393
21
0.240332125984252
0
LINE
8
BLACK
6
CONTINUOUS
10
-0.6465975196850393
20
0.240332125984252
11
-0.6465071653543307
21
0.2403856692913386
0
LINE
8
BLACK
6
CONTINUOUS
10
-0.6465071653543307
20
0.2403856692913386
11
-0.6464242913385827
21
0.2404499212598425
0
LINE
8
BLACK
6
CONTINUOUS
10
-0.6464242913385827
20
0.2404499212598425
11
-0.6463515354330709
21
0.2404777952755905
0
LINE
8
BLACK
6
CONTINUOUS
10
-0.6463515354330709
20
0.2404777952755905
11
-0.6460994094488188
21
0.2406270078740158
0
LINE
8
BLACK
6
CONTINUOUS
10
-0.6460994094488188
20
0.2406270078740158
11
-0.6436964566929134
21
0.2417475196850394
0
LINE
8
BLACK
6
CONTINUOUS
10
-0.6436964566929134
20
0.2417475196850394
11
-0.6434201968503936
21
0.2418446850393701
0
LINE
8
BLACK
6
CONTINUOUS
10
-0.6434201968503936
20
0.2418446850393701
11
-0.6433519685039369
21
0.2418825984251969
0
LINE
8
BLACK
6
CONTINUOUS
10
-0.6433519685039369
20
0.2418825984251969
11
-0.6432493700787402
21
0.2419047637795275
0
LINE
8
BLACK
6
CONTINUOUS
10
-0.6432493700787402
20
0.2419047637795275
11
-0.6431503937007874
21
0.2419395669291338
0
LINE
8
BLACK
6
CONTINUOUS
10
-0.6431503937007874
20
0.2419395669291338
11
-0.6430724803149607
21
0.2419429921259842
0
LINE
8
BLACK
6
CONTINUOUS
10
-0.6430724803149607
20
0.2419429921259842
11
-0.6427861811023622
21
0.2420048031496063
0
LINE
8
BLACK
6
CONTINUOUS
10
-0.6427861811023622
20
0.2420048031496063
11
-0.6386215354330709
21
0.242484094488189
0
LINE
8
BLACK
6
CONTINUOUS
10
-0.6386215354330709
20
0.242484094488189
11
-0.6380427559055118
21
0.2424936220472441
0
LINE
8
BLACK
6
CONTINUOUS
10
-0.6380427559055118
20
0.2424936220472441
11
-0.6379407086614173
21
0.2424644881889764
0
LINE
8
BLACK
6
CONTINUOUS
10
-0.6379407086614173
20
0.2424644881889764
11
-0.6378347637795275
21
0.242469094488189
0
LINE
8
BLACK
6
CONTINUOUS
10
-0.6378347637795275
20
0.242469094488189
11
-0.6372740157480314
21
0.2423253937007874
0
LINE
8
BLACK
6
CONTINUOUS
10
-0.6372740157480314
20
0.2423253937007874
11
-0.6302272440944882
21
0.2397605511811023
0
LINE
8
BLACK
6
CONTINUOUS
10
-0.6302272440944882
20
0.2397605511811023
11
-0.6297053149606299
21
0.2395101968503937
0
LINE
8
BLACK
6
CONTINUOUS
10
-0.6297053149606299
20
0.2395101968503937
11
-0.6296271653543307
21
0.2394385826771654
0
LINE
8
BLACK
6
CONTINUOUS
10
-0.6296271653543307
20
0.2394385826771654
11
-0.6295301968503937
21
0.2393952755905512
0
LINE
8
BLACK
6
CONTINUOUS
10
-0.6295301968503937
20
0.2393952755905512
11
-0.6290929527559055
21
0.2390159448818898
0
LINE
8
BLACK
6
CONTINUOUS
10
-0.6290929527559055
20
0.2390159448818898
11
-0.6273307874015748
21
0.2371547244094488
0
LINE
8
BLACK
6
CONTINUOUS
10
-0.6273307874015748
20
0.2371547244094488
11
-0.6270183464566929
21
0.2401455118110236
0
LINE
8
BLACK
6
CONTINUOUS
10
-0.6270183464566929
20
0.2401455118110236
11
-0.6284278346456693
21
0.2459318897637795
0
LINE
8
BLACK
6
CONTINUOUS
10
-0.6284278346456693
20
0.2459318897637795
11
-0.6292223622047244
21
0.2476357086614173
0
LINE
8
BLACK
6
CONTINUOUS
10
-0.6292223622047244
20
0.2476357086614173
11
-0.6312957874015748
21
0.2498255905511811
0
LINE
8
BLACK
6
CONTINUOUS
10
-0.6312957874015748
20
0.2498255905511811
11
-0.6376876377952756
21
0.2521520472440945
0
LINE
8
BLACK
6
CONTINUOUS
10
-0.6376876377952756
20
0.2521520472440945
11
-0.6382095275590551
21
0.2524024015748031
0
LINE
8
BLACK
6
CONTINUOUS
10
-0.6382095275590551
20
0.2524024015748031
11
-0.6390589763779527
21
0.253180748031496
0
LINE
8
BLACK
6
CONTINUOUS
10
-0.6390589763779527
20
0.253180748031496
11
-0.6395458661417323
21
0.2542248818897638
0
LINE
8
BLACK
6
CONTINUOUS
10
-0.6395458661417323
20
0.2542248818897638
11
-0.6395961023622047
21
0.255375905511811
0
LINE
8
BLACK
6
CONTINUOUS
10
-0.6395961023622047
20
0.255375905511811
11
-0.6392020472440945
21
0.2564585433070866
0
LINE
8
BLACK
6
CONTINUOUS
10
-0.6392020472440945
20
0.2564585433070866
11
-0.6384237007874015
21
0.2573079921259843
0
LINE
8
BLACK
6
CONTINUOUS
10
-0.6384237007874015
20
0.2573079921259843
11
-0.6373795669291339
21
0.2577948818897638
0
LINE
8
BLACK
6
CONTINUOUS
10
-0.6373795669291339
20
0.2577948818897638
11
-0.6362285433070866
21
0.2578451181102362
0
LINE
8
BLACK
6
CONTINUOUS
10
-0.6362285433070866
20
0.2578451181102362
11
-0.6356677952755906
21
0.2577014173228346
0
LINE
8
BLACK
6
CONTINUOUS
10
-0.6416349212598425
20
0.2361928346456693
11
-0.6431694094488188
21
0.2354772834645669
0
LINE
8
BLACK
6
CONTINUOUS
10
-0.6431694094488188
20
0.2354772834645669
11
-0.6453592913385826
21
0.2334038582677165
0
LINE
8
BLACK
6
CONTINUOUS
10
-0.6453592913385826
20
0.2334038582677165
11
-0.6480885826771653
21
0.2259052755905512
0
LINE
8
BLACK
6
CONTINUOUS
10
-0.6480885826771653
20
0.2259052755905512
11
-0.647743779527559
21
0.2229092519685039
0
LINE
8
BLACK
6
CONTINUOUS
10
-0.647743779527559
20
0.2229092519685039
11
-0.6470283070866142
21
0.2213749212598425
0
LINE
8
BLACK
6
CONTINUOUS
10
-0.6470283070866142
20
0.2213749212598425
11
-0.6449547244094488
21
0.219184842519685
0
LINE
8
BLACK
6
CONTINUOUS
10
-0.6449547244094488
20
0.219184842519685
11
-0.6392179527559055
21
0.217096811023622
0
LINE
8
BLACK
6
CONTINUOUS
10
-0.6392179527559055
20
0.217096811023622
11
-0.6362218897637795
21
0.2174416141732284
0
LINE
8
BLACK
6
CONTINUOUS
10
-0.6362218897637795
20
0.2174416141732284
11
-0.6346875590551181
21
0.2181570866141732
0
LINE
8
BLACK
6
CONTINUOUS
10
-0.6346875590551181
20
0.2181570866141732
11
-0.6324974409448819
21
0.2202306692913386
0
LINE
8
BLACK
6
CONTINUOUS
10
-0.6324974409448819
20
0.2202306692913386
11
-0.6297682677165354
21
0.2277291338582677
0
LINE
8
BLACK
6
CONTINUOUS
10
-0.6297682677165354
20
0.2277291338582677
11
-0.6301130708661418
21
0.230725157480315
0
LINE
8
BLACK
6
CONTINUOUS
10
-0.6301130708661418
20
0.230725157480315
11
-0.6308286220472441
21
0.2322596456692913
0
LINE
8
BLACK
6
CONTINUOUS
10
-0.6308286220472441
20
0.2322596456692913
11
-0.6329020472440945
21
0.2344496062992126
0
LINE
8
BLACK
6
CONTINUOUS
10
-0.6329020472440945
20
0.2344496062992126
11
-0.6386388976377952
21
0.2365376377952756
0
LINE
8
BLACK
6
CONTINUOUS
10
-0.6386388976377952
20
0.2365376377952756
11
-0.6416349212598425
21
0.2361928346456693
0
LINE
8
BLACK
6
CONTINUOUS
10
-0.6504815748031496
20
0.2814642913385827
11
-0.6495175196850393
21
0.281315905511811
0
LINE
8
BLACK
6
CONTINUOUS
10
-0.6495175196850393
20
0.281315905511811
11
-0.5570280314960629
21
0.2476524803149606
0
LINE
8
BLACK
6
CONTINUOUS
10
-0.5570280314960629
20
0.2476524803149606
11
-0.5561941338582677
21
0.2471464566929134
0
LINE
8
BLACK
6
CONTINUOUS
10
-0.5561941338582677
20
0.2471464566929134
11
-0.5553855118110236
21
0.2454123228346457
0
LINE
8
BLACK
6
CONTINUOUS
10
-0.5553855118110236
20
0.2454123228346457
11
-0.5555338582677165
21
0.2444482283464567
0
LINE
8
BLACK
6
CONTINUOUS
10
-0.5555338582677165
20
0.2444482283464567
11
-0.5824646062992126
21
0.1704566929133858
0
LINE
8
BLACK
6
CONTINUOUS
10
-0.5824646062992126
20
0.1704566929133858
11
-0.5829706299212598
21
0.169622874015748
0
LINE
8
BLACK
6
CONTINUOUS
10
-0.5829706299212598
20
0.169622874015748
11
-0.5829706299212598
21
0.1696227559055118
0
LINE
8
BLACK
6
CONTINUOUS
10
-0.5829706299212598
20
0.1696227559055118
11
-0.5847047637795275
21
0.1688141338582677
0
LINE
8
BLACK
6
CONTINUOUS
10
-0.5847047637795275
20
0.1688141338582677
11
-0.5856688582677165
21
0.1689624803149606
0
LINE
8
BLACK
6
CONTINUOUS
10
-0.5856688582677165
20
0.1689624803149606
11
-0.6781583070866142
21
0.2026259448818898
0
LINE
8
BLACK
6
CONTINUOUS
10
-0.6781583070866142
20
0.2026259448818898
11
-0.6789922047244095
21
0.203131968503937
0
LINE
8
BLACK
6
CONTINUOUS
10
-0.6789922047244095
20
0.203131968503937
11
-0.6798008661417323
21
0.2048661023622047
0
LINE
8
BLACK
6
CONTINUOUS
10
-0.6798008661417323
20
0.2048661023622047
11
-0.6796524803149606
21
0.2058301968503937
0
LINE
8
BLACK
6
CONTINUOUS
10
-0.6796524803149606
20
0.2058301968503937
11
-0.6527217716535433
21
0.2798217716535433
0
LINE
8
BLACK
6
CONTINUOUS
10
-0.6527217716535433
20
0.2798217716535433
11
-0.6522157480314961
21
0.2806556692913386
0
LINE
8
BLACK
6
CONTINUOUS
10
-0.6522157480314961
20
0.2806556692913386
11
-0.6507998031496063
21
0.281315905511811
0
LINE
8
BLACK
6
CONTINUOUS
10
-0.6507998031496063
20
0.281315905511811
11
-0.6504816141732284
21
0.2814642913385827
0
LINE
8
BLACK
6
CONTINUOUS
10
-0.6504816141732284
20
0.2814642913385827
11
-0.6504815748031496
21
0.2814642913385827
0
LINE
8
BLACK
6
CONTINUOUS
10
-0.6740990157480314
20
0.2064693307086614
11
-0.5863079921259843
21
0.1745160236220472
0
LINE
8
BLACK
6
CONTINUOUS
10
-0.5863079921259843
20
0.1745160236220472
11
-0.5610874015748032
21
0.243809094488189
0
LINE
8
BLACK
6
CONTINUOUS
10
-0.5610874015748032
20
0.243809094488189
11
-0.6488783858267716
21
0.2757624409448819
0
LINE
8
BLACK
6
CONTINUOUS
10
-0.6488783858267716
20
0.2757624409448819
11
-0.6740990157480314
21
0.2064693307086614
0
LINE
8
BLACK
6
CONTINUOUS
10
-0.5315265354330708
20
0.2340070866141732
11
-0.5293416535433071
21
0.2312673622047244
0
LINE
8
BLACK
6
CONTINUOUS
10
-0.5293416535433071
20
0.2312673622047244
11
-0.5285618897637795
21
0.2278509448818898
0
LINE
8
BLACK
6
CONTINUOUS
10
-0.5285618897637795
20
0.2278509448818898
11
-0.5293416535433071
21
0.2244345275590551
0
LINE
8
BLACK
6
CONTINUOUS
10
-0.5293416535433071
20
0.2244345275590551
11
-0.5315265354330708
21
0.2216948031496063
0
LINE
8
BLACK
6
CONTINUOUS
10
-0.5315265354330708
20
0.2216948031496063
11
-0.5346837795275591
21
0.2201743307086614
0
LINE
8
BLACK
6
CONTINUOUS
10
-0.5346837795275591
20
0.2201743307086614
11
-0.538188031496063
21
0.2201743307086614
0
LINE
8
BLACK
6
CONTINUOUS
10
-0.538188031496063
20
0.2201743307086614
11
-0.5413452755905511
21
0.2216948031496063
0
LINE
8
BLACK
6
CONTINUOUS
10
-0.5413452755905511
20
0.2216948031496063
11
-0.543530157480315
21
0.2244345275590551
0
LINE
8
BLACK
6
CONTINUOUS
10
-0.543530157480315
20
0.2244345275590551
11
-0.5443099212598425
21
0.2278509448818898
0
LINE
8
BLACK
6
CONTINUOUS
10
-0.5443099212598425
20
0.2278509448818898
11
-0.543530157480315
21
0.2312673622047244
0
LINE
8
BLACK
6
CONTINUOUS
10
-0.543530157480315
20
0.2312673622047244
11
-0.5413452755905511
21
0.2340070866141732
0
LINE
8
BLACK
6
CONTINUOUS
10
-0.5413452755905511
20
0.2340070866141732
11
-0.538188031496063
21
0.2355275590551181
0
LINE
8
BLACK
6
CONTINUOUS
10
-0.538188031496063
20
0.2355275590551181
11
-0.5346837795275591
21
0.2355275590551181
0
LINE
8
BLACK
6
CONTINUOUS
10
-0.5346837795275591
20
0.2355275590551181
11
-0.5315265354330708
21
0.2340070866141732
0
LINE
8
BLACK
6
CONTINUOUS
10
0.2327603149606299
20
0.5425920472440945
11
0.2349451968503937
21
0.5398523228346457
0
LINE
8
BLACK
6
CONTINUOUS
10
0.2349451968503937
20
0.5398523228346457
11
0.2357249606299213
21
0.536435905511811
0
LINE
8
BLACK
6
CONTINUOUS
10
0.2357249606299213
20
0.536435905511811
11
0.2349451968503937
21
0.5330194881889764
0
LINE
8
BLACK
6
CONTINUOUS
10
0.2349451968503937
20
0.5330194881889764
11
0.2327603149606299
21
0.5302797637795276
0
LINE
8
BLACK
6
CONTINUOUS
10
0.2327603149606299
20
0.5302797637795276
11
0.2296030708661417
21
0.5287592913385827
0
LINE
8
BLACK
6
CONTINUOUS
10
0.2296030708661417
20
0.5287592913385827
11
0.2260988188976378
21
0.5287592913385827
0
LINE
8
BLACK
6
CONTINUOUS
10
0.2260988188976378
20
0.5287592913385827
11
0.2229415748031496
21
0.5302797637795276
0
LINE
8
BLACK
6
CONTINUOUS
10
0.2229415748031496
20
0.5302797637795276
11
0.2207566929133858
21
0.5330194881889764
0
LINE
8
BLACK
6
CONTINUOUS
10
0.2207566929133858
20
0.5330194881889764
11
0.2199769291338583
21
0.536435905511811
0
LINE
8
BLACK
6
CONTINUOUS
10
0.2199769291338583
20
0.536435905511811
11
0.2207566929133858
21
0.5398523228346457
0
LINE
8
BLACK
6
CONTINUOUS
10
0.2207566929133858
20
0.5398523228346457
11
0.2229415748031496
21
0.5425920472440945
0
LINE
8
BLACK
6
CONTINUOUS
10
0.2229415748031496
20
0.5425920472440945
11
0.2260988188976378
21
0.5441125196850394
0
LINE
8
BLACK
6
CONTINUOUS
10
0.2260988188976378
20
0.5441125196850394
11
0.2296030708661417
21
0.5441125196850394
0
LINE
8
BLACK
6
CONTINUOUS
10
0.2296030708661417
20
0.5441125196850394
11
0.2327603149606299
21
0.5425920472440945
0
LINE
8
BLACK
6
CONTINUOUS
10
0.2143330708661417
20
0.638573779527559
11
0.2151824803149606
21
0.6377954330708662
0
LINE
8
BLACK
6
CONTINUOUS
10
0.2151824803149606
20
0.6377954330708662
11
0.2156693700787402
21
0.6367512598425197
0
LINE
8
BLACK
6
CONTINUOUS
10
0.2156693700787402
20
0.6367512598425197
11
0.2157196456692913
21
0.6356002755905512
0
LINE
8
BLACK
6
CONTINUOUS
10
0.2157196456692913
20
0.6356002755905512
11
0.2155759448818897
21
0.6350395275590551
0
LINE
8
BLACK
6
CONTINUOUS
10
0.2155759448818897
20
0.6350395275590551
11
0.2127385826771654
21
0.6272440157480315
0
LINE
8
BLACK
6
CONTINUOUS
10
0.2127385826771654
20
0.6272440157480315
11
0.2469596850393701
21
0.6147885433070867
0
LINE
8
BLACK
6
CONTINUOUS
10
0.2469596850393701
20
0.6147885433070867
11
0.2469615354330709
21
0.6147876771653543
0
LINE
8
BLACK
6
CONTINUOUS
10
0.2469615354330709
20
0.6147876771653543
11
0.2469626377952756
21
0.6147874803149607
0
LINE
8
BLACK
6
CONTINUOUS
10
0.2469626377952756
20
0.6147874803149607
11
0.2469653543307087
21
0.6147858267716535
0
LINE
8
BLACK
6
CONTINUOUS
10
0.2469653543307087
20
0.6147858267716535
11
0.2474816141732283
21
0.6145382283464567
0
LINE
8
BLACK
6
CONTINUOUS
10
0.2474816141732283
20
0.6145382283464567
11
0.2476971653543307
21
0.6143407086614173
0
LINE
8
BLACK
6
CONTINUOUS
10
0.2476971653543307
20
0.6143407086614173
11
0.2479469291338583
21
0.614188779527559
0
LINE
8
BLACK
6
CONTINUOUS
10
0.2479469291338583
20
0.614188779527559
11
0.2481177952755906
21
0.6139552755905512
0
LINE
8
BLACK
6
CONTINUOUS
10
0.2481177952755906
20
0.6139552755905512
11
0.2483310236220472
21
0.6137598425196851
0
LINE
8
BLACK
6
CONTINUOUS
10
0.2483310236220472
20
0.6137598425196851
11
0.2484544881889764
21
0.6134950393700788
0
LINE
8
BLACK
6
CONTINUOUS
10
0.2484544881889764
20
0.6134950393700788
11
0.2486272440944882
21
0.613258937007874
0
LINE
8
BLACK
6
CONTINUOUS
10
0.2486272440944882
20
0.613258937007874
11
0.2486957480314961
21
0.6129776771653543
0
LINE
8
BLACK
6
CONTINUOUS
10
0.2486957480314961
20
0.6129776771653543
11
0.2488179133858268
21
0.6127157086614173
0
LINE
8
BLACK
6
CONTINUOUS
10
0.2488179133858268
20
0.6127157086614173
11
0.2488306299212598
21
0.6124238976377953
0
LINE
8
BLACK
6
CONTINUOUS
10
0.2488306299212598
20
0.6124238976377953
11
0.2488999212598425
21
0.6121395669291338
0
LINE
8
BLACK
6
CONTINUOUS
10
0.2488999212598425
20
0.6121395669291338
11
0.2488555511811024
21
0.6118535039370079
0
LINE
8
BLACK
6
CONTINUOUS
10
0.2488555511811024
20
0.6118535039370079
11
0.2488681889763779
21
0.6115646850393701
0
LINE
8
BLACK
6
CONTINUOUS
10
0.2488681889763779
20
0.6115646850393701
11
0.2487682283464567
21
0.6112900787401575
0
LINE
8
BLACK
6
CONTINUOUS
10
0.2487682283464567
20
0.6112900787401575
11
0.2487234251968504
21
0.6110010236220472
0
LINE
8
BLACK
6
CONTINUOUS
10
0.2487234251968504
20
0.6110010236220472
11
0.248573031496063
21
0.6107538188976378
0
LINE
8
BLACK
6
CONTINUOUS
10
0.248573031496063
20
0.6107538188976378
11
0.2484741338582677
21
0.6104820472440945
0
LINE
8
BLACK
6
CONTINUOUS
10
0.2484741338582677
20
0.6104820472440945
11
0.2482766929133858
21
0.6102666141732284
0
LINE
8
BLACK
6
CONTINUOUS
10
0.2482766929133858
20
0.6102666141732284
11
0.2481247244094488
21
0.6100167322834645
0
LINE
8
BLACK
6
CONTINUOUS
10
0.2481247244094488
20
0.6100167322834645
11
0.2478911417322835
21
0.6098458661417323
0
LINE
8
BLACK
6
CONTINUOUS
10
0.2478911417322835
20
0.6098458661417323
11
0.2476957874015748
21
0.6096326377952755
0
LINE
8
BLACK
6
CONTINUOUS
10
0.2476957874015748
20
0.6096326377952755
11
0.2474309448818898
21
0.6095091732283464
0
LINE
8
BLACK
6
CONTINUOUS
10
0.2474309448818898
20
0.6095091732283464
11
0.2471949212598425
21
0.6093364566929134
0
LINE
8
BLACK
6
CONTINUOUS
10
0.2471949212598425
20
0.6093364566929134
11
0.2466541732283465
21
0.609146968503937
0
LINE
8
BLACK
6
CONTINUOUS
10
0.2466541732283465
20
0.609146968503937
11
0.2466516141732283
21
0.609145748031496
0
LINE
8
BLACK
6
CONTINUOUS
10
0.2466516141732283
20
0.609145748031496
11
0.2466506299212598
21
0.6091457086614173
0
LINE
8
BLACK
6
CONTINUOUS
10
0.2466506299212598
20
0.6091457086614173
11
0.2466486220472441
21
0.6091449999999999
0
LINE
8
BLACK
6
CONTINUOUS
10
0.2466486220472441
20
0.6091449999999999
11
0.240365157480315
21
0.6076144488188976
0
LINE
8
BLACK
6
CONTINUOUS
10
0.240365157480315
20
0.6076144488188976
11
0.2362586614173228
21
0.6056995669291338
0
LINE
8
BLACK
6
CONTINUOUS
10
0.2362586614173228
20
0.6056995669291338
11
0.2335624409448819
21
0.6031467322834646
0
LINE
8
BLACK
6
CONTINUOUS
10
0.2335624409448819
20
0.6031467322834646
11
0.2331051181102362
21
0.6027918897637795
0
LINE
8
BLACK
6
CONTINUOUS
10
0.2331051181102362
20
0.6027918897637795
11
0.2320290551181102
21
0.6023802362204724
0
LINE
8
BLACK
6
CONTINUOUS
10
0.2320290551181102
20
0.6023802362204724
11
0.2308774015748031
21
0.6024116929133858
0
LINE
8
BLACK
6
CONTINUOUS
10
0.2308774015748031
20
0.6024116929133858
11
0.2298254330708661
21
0.6028814960629921
0
LINE
8
BLACK
6
CONTINUOUS
10
0.2298254330708661
20
0.6028814960629921
11
0.2290333070866142
21
0.6037181102362205
0
LINE
8
BLACK
6
CONTINUOUS
10
0.2290333070866142
20
0.6037181102362205
11
0.2286216535433071
21
0.6047941732283464
0
LINE
8
BLACK
6
CONTINUOUS
10
0.2286216535433071
20
0.6047941732283464
11
0.2286531102362205
21
0.6059458267716535
0
LINE
8
BLACK
6
CONTINUOUS
10
0.2286531102362205
20
0.6059458267716535
11
0.2291229133858268
21
0.6069977952755905
0
LINE
8
BLACK
6
CONTINUOUS
10
0.2291229133858268
20
0.6069977952755905
11
0.2295022047244094
21
0.6074350787401575
0
LINE
8
BLACK
6
CONTINUOUS
10
0.2295022047244094
20
0.6074350787401575
11
0.2325463385826771
21
0.6103172834645669
0
LINE
8
BLACK
6
CONTINUOUS
10
0.2325463385826771
20
0.6103172834645669
11
0.232777874015748
21
0.610496968503937
0
LINE
8
BLACK
6
CONTINUOUS
10
0.232777874015748
20
0.610496968503937
11
0.2328304724409449
21
0.6105543307086614
0
LINE
8
BLACK
6
CONTINUOUS
10
0.2328304724409449
20
0.6105543307086614
11
0.2329206299212598
21
0.6106077165354331
0
LINE
8
BLACK
6
CONTINUOUS
10
0.2329206299212598
20
0.6106077165354331
11
0.2330036614173228
21
0.6106721259842519
0
LINE
8
BLACK
6
CONTINUOUS
10
0.2330036614173228
20
0.6106721259842519
11
0.2330765354330709
21
0.6107000393700788
0
LINE
8
BLACK
6
CONTINUOUS
10
0.2330765354330709
20
0.6107000393700788
11
0.2333285826771654
21
0.6108492125984252
0
LINE
8
BLACK
6
CONTINUOUS
10
0.2333285826771654
20
0.6108492125984252
11
0.2364794881889764
21
0.6123185039370078
0
LINE
8
BLACK
6
CONTINUOUS
10
0.2364794881889764
20
0.6123185039370078
11
0.210718779527559
21
0.6216946456692913
0
LINE
8
BLACK
6
CONTINUOUS
10
0.210718779527559
20
0.6216946456692913
11
0.2078814566929134
21
0.6138990944881889
0
LINE
8
BLACK
6
CONTINUOUS
10
0.2078814566929134
20
0.6138990944881889
11
0.2076311023622047
21
0.6133772047244095
0
LINE
8
BLACK
6
CONTINUOUS
10
0.2076311023622047
20
0.6133772047244095
11
0.2068527559055118
21
0.6125277952755905
0
LINE
8
BLACK
6
CONTINUOUS
10
0.2068527559055118
20
0.6125277952755905
11
0.2058086220472441
21
0.6120408661417323
0
LINE
8
BLACK
6
CONTINUOUS
10
0.2058086220472441
20
0.6120408661417323
11
0.2046575984251968
21
0.6119906299212599
0
LINE
8
BLACK
6
CONTINUOUS
10
0.2046575984251968
20
0.6119906299212599
11
0.2035749606299213
21
0.61238468503937
0
LINE
8
BLACK
6
CONTINUOUS
10
0.2035749606299213
20
0.61238468503937
11
0.2027255511811024
21
0.613163031496063
0
LINE
8
BLACK
6
CONTINUOUS
10
0.2027255511811024
20
0.613163031496063
11
0.2022386220472441
21
0.6142071653543307
0
LINE
8
BLACK
6
CONTINUOUS
10
0.2022386220472441
20
0.6142071653543307
11
0.2021883858267716
21
0.615358188976378
0
LINE
8
BLACK
6
CONTINUOUS
10
0.2021883858267716
20
0.615358188976378
11
0.2023320866141732
21
0.615918937007874
0
LINE
8
BLACK
6
CONTINUOUS
10
0.2023320866141732
20
0.615918937007874
11
0.2100265748031496
21
0.6370593307086614
0
LINE
8
BLACK
6
CONTINUOUS
10
0.2100265748031496
20
0.6370593307086614
11
0.2102768897637795
21
0.6375812598425197
0
LINE
8
BLACK
6
CONTINUOUS
10
0.2102768897637795
20
0.6375812598425197
11
0.2110552755905512
21
0.6384306692913385
0
LINE
8
BLACK
6
CONTINUOUS
10
0.2110552755905512
20
0.6384306692913385
11
0.2120994094488189
21
0.638917559055118
0
LINE
8
BLACK
6
CONTINUOUS
10
0.2120994094488189
20
0.638917559055118
11
0.2132504330708661
21
0.6389678346456693
0
LINE
8
BLACK
6
CONTINUOUS
10
0.2132504330708661
20
0.6389678346456693
11
0.2143330708661417
21
0.638573779527559
0
LINE
8
BLACK
6
CONTINUOUS
10
0.2048661417322835
20
0.6798008661417323
11
0.2058301968503937
21
0.6796524803149606
0
LINE
8
BLACK
6
CONTINUOUS
10
0.2058301968503937
20
0.6796524803149606
11
0.2288977952755905
21
0.6712565748031496
0
LINE
8
BLACK
6
CONTINUOUS
10
0.2288977952755905
20
0.6712565748031496
11
0.2323346456692913
21
0.6716520866141732
0
LINE
8
BLACK
6
CONTINUOUS
10
0.2323346456692913
20
0.6716520866141732
11
0.2329134251968504
21
0.6716616141732283
0
LINE
8
BLACK
6
CONTINUOUS
10
0.2329134251968504
20
0.6716616141732283
11
0.2330154724409449
21
0.6716324803149606
0
LINE
8
BLACK
6
CONTINUOUS
10
0.2330154724409449
20
0.6716324803149606
11
0.2331214173228346
21
0.6716370866141732
0
LINE
8
BLACK
6
CONTINUOUS
10
0.2331214173228346
20
0.6716370866141732
11
0.2336821653543307
21
0.6714933858267716
0
LINE
8
BLACK
6
CONTINUOUS
10
0.2336821653543307
20
0.6714933858267716
11
0.2424906692913386
21
0.6682873228346456
0
LINE
8
BLACK
6
CONTINUOUS
10
0.2424906692913386
20
0.6682873228346456
11
0.2430125590551181
21
0.668036968503937
0
LINE
8
BLACK
6
CONTINUOUS
10
0.2430125590551181
20
0.668036968503937
11
0.2430907480314961
21
0.6679653149606299
0
LINE
8
BLACK
6
CONTINUOUS
10
0.2430907480314961
20
0.6679653149606299
11
0.2431876377952756
21
0.6679220472440944
0
LINE
8
BLACK
6
CONTINUOUS
10
0.2431876377952756
20
0.6679220472440944
11
0.2436248818897638
21
0.6675427559055118
0
LINE
8
BLACK
6
CONTINUOUS
10
0.2436248818897638
20
0.6675427559055118
11
0.2460033858267716
21
0.6650306692913386
0
LINE
8
BLACK
6
CONTINUOUS
10
0.2460033858267716
20
0.6650306692913386
11
0.2599564566929134
21
0.6599521653543307
0
LINE
8
BLACK
6
CONTINUOUS
10
0.2599564566929134
20
0.6599521653543307
11
0.2615540551181103
21
0.6605713385826771
0
LINE
8
BLACK
6
CONTINUOUS
10
0.2615540551181103
20
0.6605713385826771
11
0.261848779527559
21
0.6606534251968503
0
LINE
8
BLACK
6
CONTINUOUS
10
0.261848779527559
20
0.6606534251968503
11
0.2619193307086614
21
0.6606862992125984
0
LINE
8
BLACK
6
CONTINUOUS
10
0.2619193307086614
20
0.6606862992125984
11
0.261975748031496
21
0.660688779527559
0
LINE
8
BLACK
6
CONTINUOUS
10
0.261975748031496
20
0.660688779527559
11
0.2621116929133858
21
0.6607266141732283
0
LINE
8
BLACK
6
CONTINUOUS
10
0.2621116929133858
20
0.6607266141732283
11
0.2625911023622047
21
0.6607156299212599
0
LINE
8
BLACK
6
CONTINUOUS
10
0.2625911023622047
20
0.6607156299212599
11
0.2630703543307086
21
0.6607365354330709
0
LINE
8
BLACK
6
CONTINUOUS
10
0.2630703543307086
20
0.6607365354330709
11
0.2631638976377953
21
0.6607025196850393
0
LINE
8
BLACK
6
CONTINUOUS
10
0.2631638976377953
20
0.6607025196850393
11
0.2632635039370079
21
0.6607001968503937
0
LINE
8
BLACK
6
CONTINUOUS
10
0.2632635039370079
20
0.6607001968503937
11
0.2637020078740158
21
0.6605066535433071
0
LINE
8
BLACK
6
CONTINUOUS
10
0.2637020078740158
20
0.6605066535433071
11
0.2641529921259843
21
0.6603425196850393
0
LINE
8
BLACK
6
CONTINUOUS
10
0.2641529921259843
20
0.6603425196850393
11
0.2642264960629921
21
0.660275157480315
0
LINE
8
BLACK
6
CONTINUOUS
10
0.2642264960629921
20
0.660275157480315
11
0.2643174803149606
21
0.660235
0
LINE
8
BLACK
6
CONTINUOUS
10
0.2643174803149606
20
0.660235
11
0.2646485826771653
21
0.6598883858267717
0
LINE
8
BLACK
6
CONTINUOUS
10
0.2646485826771653
20
0.6598883858267717
11
0.2650024015748031
21
0.6595641338582677
0
LINE
8
BLACK
6
CONTINUOUS
10
0.2650024015748031
20
0.6595641338582677
11
0.2650444488188976
21
0.659473937007874
0
LINE
8
BLACK
6
CONTINUOUS
10
0.2650444488188976
20
0.659473937007874
11
0.2651132677165354
21
0.6594018897637796
0
LINE
8
BLACK
6
CONTINUOUS
10
0.2651132677165354
20
0.6594018897637796
11
0.2652865354330708
21
0.6589548818897638
0
LINE
8
BLACK
6
CONTINUOUS
10
0.2652865354330708
20
0.6589548818897638
11
0.2654893307086614
21
0.65852
0
LINE
8
BLACK
6
CONTINUOUS
10
0.2654893307086614
20
0.65852
11
0.2654936614173228
21
0.6584204724409448
0
LINE
8
BLACK
6
CONTINUOUS
10
0.2654936614173228
20
0.6584204724409448
11
0.2655296456692913
21
0.6583276377952756
0
LINE
8
BLACK
6
CONTINUOUS
10
0.2655296456692913
20
0.6583276377952756
11
0.2655203937007874
21
0.6579270472440945
0
LINE
8
BLACK
6
CONTINUOUS
10
0.2655203937007874
20
0.6579270472440945
11
0.2798217716535433
21
0.6527217716535433
0
LINE
8
BLACK
6
CONTINUOUS
10
0.2798217716535433
20
0.6527217716535433
11
0.2806556692913386
21
0.6522157480314961
0
LINE
8
BLACK
6
CONTINUOUS
10
0.2806556692913386
20
0.6522157480314961
11
0.2814642913385827
21
0.6504816141732284
0
LINE
8
BLACK
6
CONTINUOUS
10
0.2814642913385827
20
0.6504816141732284
11
0.2813159448818898
21
0.6495175196850393
0
LINE
8
BLACK
6
CONTINUOUS
10
0.2813159448818898
20
0.6495175196850393
11
0.2476524803149606
21
0.5570280708661417
0
LINE
8
BLACK
6
CONTINUOUS
10
0.2476524803149606
20
0.5570280708661417
11
0.2471464566929134
21
0.5561942519685039
0
LINE
8
BLACK
6
CONTINUOUS
10
0.2471464566929134
20
0.5561942519685039
11
0.2471464566929134
21
0.5561941338582677
0
LINE
8
BLACK
6
CONTINUOUS
10
0.2471464566929134
20
0.5561941338582677
11
0.2454123228346457
21
0.5553855118110236
0
LINE
8
BLACK
6
CONTINUOUS
10
0.2454123228346457
20
0.5553855118110236
11
0.2444482283464567
21
0.5555338582677165
0
LINE
8
BLACK
6
CONTINUOUS
10
0.2444482283464567
20
0.5555338582677165
11
0.1704566929133858
21
0.5824646062992126
0
LINE
8
BLACK
6
CONTINUOUS
10
0.1704566929133858
20
0.5824646062992126
11
0.1696227952755905
21
0.5829706299212598
0
LINE
8
BLACK
6
CONTINUOUS
10
0.1696227952755905
20
0.5829706299212598
11
0.1688141338582677
21
0.5847047637795275
0
LINE
8
BLACK
6
CONTINUOUS
10
0.1688141338582677
20
0.5847047637795275
11
0.1689625196850394
21
0.5856688582677165
0
LINE
8
BLACK
6
CONTINUOUS
10
0.1689625196850394
20
0.5856688582677165
11
0.2026259448818898
21
0.6781583464566929
0
LINE
8
BLACK
6
CONTINUOUS
10
0.2026259448818898
20
0.6781583464566929
11
0.203131968503937
21
0.6789922440944882
0
LINE
8
BLACK
6
CONTINUOUS
10
0.203131968503937
20
0.6789922440944882
11
0.2045479133858268
21
0.6796524803149606
0
LINE
8
BLACK
6
CONTINUOUS
10
0.2045479133858268
20
0.6796524803149606
11
0.2048661023622047
21
0.6798008661417323
0
LINE
8
BLACK
6
CONTINUOUS
10
0.2048661023622047
20
0.6798008661417323
11
0.2048661417322835
21
0.6798008661417323
0
LINE
8
BLACK
6
CONTINUOUS
10
0.1745159842519685
20
0.5863079921259843
11
0.1918507874015748
21
0.5799986614173228
0
LINE
8
BLACK
6
CONTINUOUS
10
0.1918507874015748
20
0.5799986614173228
11
0.1918174015748031
21
0.5800936220472441
0
LINE
8
BLACK
6
CONTINUOUS
10
0.1918174015748031
20
0.5800936220472441
11
0.1918139763779527
21
0.5801715748031496
0
LINE
8
BLACK
6
CONTINUOUS
10
0.1918139763779527
20
0.5801715748031496
11
0.1917521653543307
21
0.5804578346456692
0
LINE
8
BLACK
6
CONTINUOUS
10
0.1917521653543307
20
0.5804578346456692
11
0.191272874015748
21
0.5846224409448819
0
LINE
8
BLACK
6
CONTINUOUS
10
0.191272874015748
20
0.5846224409448819
11
0.1912633464566929
21
0.5852012204724409
0
LINE
8
BLACK
6
CONTINUOUS
10
0.1912633464566929
20
0.5852012204724409
11
0.1912924803149606
21
0.5853033464566929
0
LINE
8
BLACK
6
CONTINUOUS
10
0.1912924803149606
20
0.5853033464566929
11
0.191287874015748
21
0.5854092125984252
0
LINE
8
BLACK
6
CONTINUOUS
10
0.191287874015748
20
0.5854092125984252
11
0.1914315748031496
21
0.5859699212598425
0
LINE
8
BLACK
6
CONTINUOUS
10
0.1914315748031496
20
0.5859699212598425
11
0.1939963779527559
21
0.5930167322834645
0
LINE
8
BLACK
6
CONTINUOUS
10
0.1939963779527559
20
0.5930167322834645
11
0.1942466929133858
21
0.5935386614173228
0
LINE
8
BLACK
6
CONTINUOUS
10
0.1942466929133858
20
0.5935386614173228
11
0.1943183858267717
21
0.593616968503937
0
LINE
8
BLACK
6
CONTINUOUS
10
0.1943183858267717
20
0.593616968503937
11
0.1943616535433071
21
0.5937137401574804
0
LINE
8
BLACK
6
CONTINUOUS
10
0.1943616535433071
20
0.5937137401574804
11
0.1947409448818898
21
0.5941510236220472
0
LINE
8
BLACK
6
CONTINUOUS
10
0.1947409448818898
20
0.5941510236220472
11
0.1977850787401575
21
0.5970332283464567
0
LINE
8
BLACK
6
CONTINUOUS
10
0.1977850787401575
20
0.5970332283464567
11
0.1980164960629921
21
0.5972127952755906
0
LINE
8
BLACK
6
CONTINUOUS
10
0.1980164960629921
20
0.5972127952755906
11
0.1980691732283464
21
0.5972702755905511
0
LINE
8
BLACK
6
CONTINUOUS
10
0.1980691732283464
20
0.5972702755905511
11
0.1981594881889764
21
0.597323779527559
0
LINE
8
BLACK
6
CONTINUOUS
10
0.1981594881889764
20
0.597323779527559
11
0.1982424015748031
21
0.5973880708661418
0
LINE
8
BLACK
6
CONTINUOUS
10
0.1982424015748031
20
0.5973880708661418
11
0.1983151574803149
21
0.5974159448818898
0
LINE
8
BLACK
6
CONTINUOUS
10
0.1983151574803149
20
0.5974159448818898
11
0.1985672834645669
21
0.5975651574803149
0
LINE
8
BLACK
6
CONTINUOUS
10
0.1985672834645669
20
0.5975651574803149
11
0.2009702362204724
21
0.5986856692913386
0
LINE
8
BLACK
6
CONTINUOUS
10
0.2009702362204724
20
0.5986856692913386
11
0.2012464960629921
21
0.5987828346456693
0
LINE
8
BLACK
6
CONTINUOUS
10
0.2012464960629921
20
0.5987828346456693
11
0.2013147244094488
21
0.5988207480314961
0
LINE
8
BLACK
6
CONTINUOUS
10
0.2013147244094488
20
0.5988207480314961
11
0.2014173228346457
21
0.5988429133858267
0
LINE
8
BLACK
6
CONTINUOUS
10
0.2014173228346457
20
0.5988429133858267
11
0.2015162992125984
21
0.5988777165354331
0
LINE
8
BLACK
6
CONTINUOUS
10
0.2015162992125984
20
0.5988777165354331
11
0.2015942125984252
21
0.5988811417322835
0
LINE
8
BLACK
6
CONTINUOUS
10
0.2015942125984252
20
0.5988811417322835
11
0.2018805118110236
21
0.5989429527559055
0
LINE
8
BLACK
6
CONTINUOUS
10
0.2018805118110236
20
0.5989429527559055
11
0.2060451181102362
21
0.5994222440944882
0
LINE
8
BLACK
6
CONTINUOUS
10
0.2060451181102362
20
0.5994222440944882
11
0.2066238976377953
21
0.5994317716535433
0
LINE
8
BLACK
6
CONTINUOUS
10
0.2066238976377953
20
0.5994317716535433
11
0.2067259448818898
21
0.5994026377952756
0
LINE
8
BLACK
6
CONTINUOUS
10
0.2067259448818898
20
0.5994026377952756
11
0.2068318897637795
21
0.5994072440944882
0
LINE
8
BLACK
6
CONTINUOUS
10
0.2068318897637795
20
0.5994072440944882
11
0.2073926377952756
21
0.5992635433070866
0
LINE
8
BLACK
6
CONTINUOUS
10
0.2073926377952756
20
0.5992635433070866
11
0.2373415748031496
21
0.5883629921259842
0
LINE
8
BLACK
6
CONTINUOUS
10
0.2373415748031496
20
0.5883629921259842
11
0.2378635039370079
21
0.5881126771653543
0
LINE
8
BLACK
6
CONTINUOUS
10
0.2378635039370079
20
0.5881126771653543
11
0.2387129133858268
21
0.5873342913385826
0
LINE
8
BLACK
6
CONTINUOUS
10
0.2387129133858268
20
0.5873342913385826
11
0.2391998031496063
21
0.586290157480315
0
LINE
8
BLACK
6
CONTINUOUS
10
0.2391998031496063
20
0.586290157480315
11
0.2392500787401575
21
0.5851391338582677
0
LINE
8
BLACK
6
CONTINUOUS
10
0.2392500787401575
20
0.5851391338582677
11
0.2388560236220472
21
0.5840564960629921
0
LINE
8
BLACK
6
CONTINUOUS
10
0.2388560236220472
20
0.5840564960629921
11
0.2380776771653543
21
0.5832070866141732
0
LINE
8
BLACK
6
CONTINUOUS
10
0.2380776771653543
20
0.5832070866141732
11
0.2370335039370079
21
0.5827201968503937
0
LINE
8
BLACK
6
CONTINUOUS
10
0.2370335039370079
20
0.5827201968503937
11
0.2358824803149606
21
0.5826699212598425
0
LINE
8
BLACK
6
CONTINUOUS
10
0.2358824803149606
20
0.5826699212598425
11
0.2353217716535433
21
0.5828136220472441
0
LINE
8
BLACK
6
CONTINUOUS
10
0.2353217716535433
20
0.5828136220472441
11
0.2060277559055118
21
0.5934757874015748
0
LINE
8
BLACK
6
CONTINUOUS
10
0.2060277559055118
20
0.5934757874015748
11
0.2030317716535433
21
0.5931309842519685
0
LINE
8
BLACK
6
CONTINUOUS
10
0.2030317716535433
20
0.5931309842519685
11
0.2014973622047244
21
0.5924154724409448
0
LINE
8
BLACK
6
CONTINUOUS
10
0.2014973622047244
20
0.5924154724409448
11
0.1993073228346457
21
0.5903419291338583
0
LINE
8
BLACK
6
CONTINUOUS
10
0.1993073228346457
20
0.5903419291338583
11
0.1972193307086614
21
0.5846051574803149
0
LINE
8
BLACK
6
CONTINUOUS
10
0.1972193307086614
20
0.5846051574803149
11
0.1975641338582677
21
0.5816090551181102
0
LINE
8
BLACK
6
CONTINUOUS
10
0.1975641338582677
20
0.5816090551181102
11
0.1982796062992126
21
0.5800746850393701
0
LINE
8
BLACK
6
CONTINUOUS
10
0.1982796062992126
20
0.5800746850393701
11
0.2003530708661417
21
0.5778847637795276
0
LINE
8
BLACK
6
CONTINUOUS
10
0.2003530708661417
20
0.5778847637795276
11
0.2296470866141732
21
0.5672225590551181
0
LINE
8
BLACK
6
CONTINUOUS
10
0.2296470866141732
20
0.5672225590551181
11
0.2301690157480315
21
0.5669722440944882
0
LINE
8
BLACK
6
CONTINUOUS
10
0.2301690157480315
20
0.5669722440944882
11
0.2310184251968504
21
0.5661938582677165
0
LINE
8
BLACK
6
CONTINUOUS
10
0.2310184251968504
20
0.5661938582677165
11
0.2312717322834646
21
0.5656506299212598
0
LINE
8
BLACK
6
CONTINUOUS
10
0.2312717322834646
20
0.5656506299212598
11
0.243809094488189
21
0.5610874015748032
0
LINE
8
BLACK
6
CONTINUOUS
10
0.243809094488189
20
0.5610874015748032
11
0.2757624015748031
21
0.6488783858267716
0
LINE
8
BLACK
6
CONTINUOUS
10
0.2757624015748031
20
0.6488783858267716
11
0.2640598818897638
21
0.6531377559055118
0
LINE
8
BLACK
6
CONTINUOUS
10
0.2640598818897638
20
0.6531377559055118
11
0.2570601968503937
21
0.6339061417322834
0
LINE
8
BLACK
6
CONTINUOUS
10
0.2570601968503937
20
0.6339061417322834
11
0.256809842519685
21
0.6333842125984251
0
LINE
8
BLACK
6
CONTINUOUS
10
0.256809842519685
20
0.6333842125984251
11
0.2560314960629921
21
0.6325348031496063
0
LINE
8
BLACK
6
CONTINUOUS
10
0.2560314960629921
20
0.6325348031496063
11
0.2549873622047244
21
0.632047874015748
0
LINE
8
BLACK
6
CONTINUOUS
10
0.2549873622047244
20
0.632047874015748
11
0.2538363385826772
21
0.6319976377952756
0
LINE
8
BLACK
6
CONTINUOUS
10
0.2538363385826772
20
0.6319976377952756
11
0.2527537007874016
21
0.6323916929133858
0
LINE
8
BLACK
6
CONTINUOUS
10
0.2527537007874016
20
0.6323916929133858
11
0.2519042913385827
21
0.6331700393700788
0
LINE
8
BLACK
6
CONTINUOUS
10
0.2519042913385827
20
0.6331700393700788
11
0.2514173622047244
21
0.6342141732283464
0
LINE
8
BLACK
6
CONTINUOUS
10
0.2514173622047244
20
0.6342141732283464
11
0.251367125984252
21
0.6353651968503937
0
LINE
8
BLACK
6
CONTINUOUS
10
0.251367125984252
20
0.6353651968503937
11
0.2515108267716535
21
0.6359259055118111
0
LINE
8
BLACK
6
CONTINUOUS
10
0.2515108267716535
20
0.6359259055118111
11
0.257620905511811
21
0.6527133070866141
0
LINE
8
BLACK
6
CONTINUOUS
10
0.257620905511811
20
0.6527133070866141
11
0.2451062598425197
21
0.647862716535433
0
LINE
8
BLACK
6
CONTINUOUS
10
0.2451062598425197
20
0.647862716535433
11
0.2448114566929134
21
0.6477806692913386
0
LINE
8
BLACK
6
CONTINUOUS
10
0.2448114566929134
20
0.6477806692913386
11
0.2447409842519685
21
0.6477477559055118
0
LINE
8
BLACK
6
CONTINUOUS
10
0.2447409842519685
20
0.6477477559055118
11
0.2446845275590551
21
0.6477453149606299
0
LINE
8
BLACK
6
CONTINUOUS
10
0.2446845275590551
20
0.6477453149606299
11
0.2445486220472441
21
0.6477074409448819
0
LINE
8
BLACK
6
CONTINUOUS
10
0.2445486220472441
20
0.6477074409448819
11
0.2440691732283465
21
0.6477184645669292
0
LINE
8
BLACK
6
CONTINUOUS
10
0.2440691732283465
20
0.6477184645669292
11
0.2435899606299212
21
0.6476975196850393
0
LINE
8
BLACK
6
CONTINUOUS
10
0.2435899606299212
20
0.6476975196850393
11
0.2434963779527559
21
0.6477315748031496
0
LINE
8
BLACK
6
CONTINUOUS
10
0.2434963779527559
20
0.6477315748031496
11
0.243396811023622
21
0.6477338582677166
0
LINE
8
BLACK
6
CONTINUOUS
10
0.243396811023622
20
0.6477338582677166
11
0.242957874015748
21
0.6479275984251969
0
LINE
8
BLACK
6
CONTINUOUS
10
0.242957874015748
20
0.6479275984251969
11
0.2425073228346457
21
0.6480915748031496
0
LINE
8
BLACK
6
CONTINUOUS
10
0.2425073228346457
20
0.6480915748031496
11
0.2424338976377953
21
0.6481588582677166
0
LINE
8
BLACK
6
CONTINUOUS
10
0.2424338976377953
20
0.6481588582677166
11
0.2423427952755906
21
0.6481990551181103
0
LINE
8
BLACK
6
CONTINUOUS
10
0.2423427952755906
20
0.6481990551181103
11
0.2420113779527559
21
0.6485460236220473
0
LINE
8
BLACK
6
CONTINUOUS
10
0.2420113779527559
20
0.6485460236220473
11
0.2416579133858268
21
0.6488699212598426
0
LINE
8
BLACK
6
CONTINUOUS
10
0.2416579133858268
20
0.6488699212598426
11
0.2416158267716535
21
0.648960157480315
0
LINE
8
BLACK
6
CONTINUOUS
10
0.2416158267716535
20
0.648960157480315
11
0.2415470472440945
21
0.6490321653543307
0
LINE
8
BLACK
6
CONTINUOUS
10
0.2415470472440945
20
0.6490321653543307
11
0.2413737401574803
21
0.6494792125984252
0
LINE
8
BLACK
6
CONTINUOUS
10
0.2413737401574803
20
0.6494792125984252
11
0.2411709842519685
21
0.6499140551181102
0
LINE
8
BLACK
6
CONTINUOUS
10
0.2411709842519685
20
0.6499140551181102
11
0.2411666141732283
21
0.6500136220472441
0
LINE
8
BLACK
6
CONTINUOUS
10
0.2411666141732283
20
0.6500136220472441
11
0.2411306692913386
21
0.6501064173228346
0
LINE
8
BLACK
6
CONTINUOUS
10
0.2411306692913386
20
0.6501064173228346
11
0.2411416535433071
21
0.6505858661417323
0
LINE
8
BLACK
6
CONTINUOUS
10
0.2411416535433071
20
0.6505858661417323
11
0.2411207480314961
21
0.6510650787401575
0
LINE
8
BLACK
6
CONTINUOUS
10
0.2411207480314961
20
0.6510650787401575
11
0.2411557874015748
21
0.6512018503937008
0
LINE
8
BLACK
6
CONTINUOUS
10
0.2411557874015748
20
0.6512018503937008
11
0.2411570866141732
21
0.6512582283464566
0
LINE
8
BLACK
6
CONTINUOUS
10
0.2411570866141732
20
0.6512582283464566
11
0.2411884645669291
21
0.6513293700787401
0
LINE
8
BLACK
6
CONTINUOUS
10
0.2411884645669291
20
0.6513293700787401
11
0.2412644488188976
21
0.6516257874015748
0
LINE
8
BLACK
6
CONTINUOUS
10
0.2412644488188976
20
0.6516257874015748
11
0.2429496456692913
21
0.6562559448818898
0
LINE
8
BLACK
6
CONTINUOUS
10
0.2429496456692913
20
0.6562559448818898
11
0.242604842519685
21
0.659251968503937
0
LINE
8
BLACK
6
CONTINUOUS
10
0.242604842519685
20
0.659251968503937
11
0.2418892913385827
21
0.6607864566929134
0
LINE
8
BLACK
6
CONTINUOUS
10
0.2418892913385827
20
0.6607864566929134
11
0.2412814566929134
21
0.6614284251968504
0
LINE
8
BLACK
6
CONTINUOUS
10
0.2412814566929134
20
0.6614284251968504
11
0.2301995275590551
21
0.6654619291338583
0
LINE
8
BLACK
6
CONTINUOUS
10
0.2301995275590551
20
0.6654619291338583
11
0.2293212992125984
21
0.6653608267716535
0
LINE
8
BLACK
6
CONTINUOUS
10
0.2293212992125984
20
0.6653608267716535
11
0.2277868897637795
21
0.66464531496063
0
LINE
8
BLACK
6
CONTINUOUS
10
0.2277868897637795
20
0.66464531496063
11
0.225596811023622
21
0.6625717716535433
0
LINE
8
BLACK
6
CONTINUOUS
10
0.225596811023622
20
0.6625717716535433
11
0.2222264173228346
21
0.6533116141732284
0
LINE
8
BLACK
6
CONTINUOUS
10
0.2222264173228346
20
0.6533116141732284
11
0.2225712204724409
21
0.6503155511811024
0
LINE
8
BLACK
6
CONTINUOUS
10
0.2225712204724409
20
0.6503155511811024
11
0.2234892519685039
21
0.6483468503937008
0
LINE
8
BLACK
6
CONTINUOUS
10
0.2234892519685039
20
0.6483468503937008
11
0.2236812992125984
21
0.6478007874015748
0
LINE
8
BLACK
6
CONTINUOUS
10
0.2236812992125984
20
0.6478007874015748
11
0.2237315354330709
21
0.6466498031496063
0
LINE
8
BLACK
6
CONTINUOUS
10
0.2237315354330709
20
0.6466498031496063
11
0.2233375196850394
21
0.6455671653543307
0
LINE
8
BLACK
6
CONTINUOUS
10
0.2233375196850394
20
0.6455671653543307
11
0.2225591732283465
21
0.6447177559055118
0
LINE
8
BLACK
6
CONTINUOUS
10
0.2225591732283465
20
0.6447177559055118
11
0.221515
21
0.6442308267716536
0
LINE
8
BLACK
6
CONTINUOUS
10
0.221515
20
0.6442308267716536
11
0.2203639763779527
21
0.644180590551181
0
LINE
8
BLACK
6
CONTINUOUS
10
0.2203639763779527
20
0.644180590551181
11
0.2192813779527559
21
0.6445746062992126
0
LINE
8
BLACK
6
CONTINUOUS
10
0.2192813779527559
20
0.6445746062992126
11
0.2184319291338583
21
0.6453529527559055
0
LINE
8
BLACK
6
CONTINUOUS
10
0.2184319291338583
20
0.6453529527559055
11
0.2181370472440945
21
0.645851062992126
0
LINE
8
BLACK
6
CONTINUOUS
10
0.2181370472440945
20
0.645851062992126
11
0.2170165354330709
21
0.6482539763779528
0
LINE
8
BLACK
6
CONTINUOUS
10
0.2170165354330709
20
0.6482539763779528
11
0.2169193307086614
21
0.6485303937007874
0
LINE
8
BLACK
6
CONTINUOUS
10
0.2169193307086614
20
0.6485303937007874
11
0.2168814566929134
21
0.6485985039370079
0
LINE
8
BLACK
6
CONTINUOUS
10
0.2168814566929134
20
0.6485985039370079
11
0.2168592913385827
21
0.6487010236220472
0
LINE
8
BLACK
6
CONTINUOUS
10
0.2168592913385827
20
0.6487010236220472
11
0.2168244881889764
21
0.6488000393700787
0
LINE
8
BLACK
6
CONTINUOUS
10
0.2168244881889764
20
0.6488000393700787
11
0.216821062992126
21
0.6488780314960629
0
LINE
8
BLACK
6
CONTINUOUS
10
0.216821062992126
20
0.6488780314960629
11
0.2167592519685039
21
0.6491642913385827
0
LINE
8
BLACK
6
CONTINUOUS
10
0.2167592519685039
20
0.6491642913385827
11
0.2162799606299212
21
0.6533288976377952
0
LINE
8
BLACK
6
CONTINUOUS
10
0.2162799606299212
20
0.6533288976377952
11
0.2162704330708661
21
0.6539076771653544
0
LINE
8
BLACK
6
CONTINUOUS
10
0.2162704330708661
20
0.6539076771653544
11
0.2162995669291339
21
0.6540097637795276
0
LINE
8
BLACK
6
CONTINUOUS
10
0.2162995669291339
20
0.6540097637795276
11
0.2162949606299213
21
0.6541156692913386
0
LINE
8
BLACK
6
CONTINUOUS
10
0.2162949606299213
20
0.6541156692913386
11
0.2164386614173228
21
0.6546764173228347
0
LINE
8
BLACK
6
CONTINUOUS
10
0.2164386614173228
20
0.6546764173228347
11
0.220285905511811
21
0.6652466141732283
0
LINE
8
BLACK
6
CONTINUOUS
10
0.220285905511811
20
0.6652466141732283
11
0.2205362598425197
21
0.6657685433070866
0
LINE
8
BLACK
6
CONTINUOUS
10
0.2205362598425197
20
0.6657685433070866
11
0.2206079133858268
21
0.6658468110236221
0
LINE
8
BLACK
6
CONTINUOUS
10
0.2206079133858268
20
0.6658468110236221
11
0.2206511811023622
21
0.6659435826771654
0
LINE
8
BLACK
6
CONTINUOUS
10
0.2206511811023622
20
0.6659435826771654
11
0.2210304724409449
21
0.6663808661417323
0
LINE
8
BLACK
6
CONTINUOUS
10
0.2210304724409449
20
0.6663808661417323
11
0.2228753937007874
21
0.6681276771653543
0
LINE
8
BLACK
6
CONTINUOUS
10
0.2228753937007874
20
0.6681276771653543
11
0.2064693307086614
21
0.6740990157480314
0
LINE
8
BLACK
6
CONTINUOUS
10
0.2064693307086614
20
0.6740990157480314
11
0.1745159842519685
21
0.5863079921259843
0
LINE
8
BLACK
6
CONTINUOUS
10
0.2488961417322835
20
0.656238622047244
11
0.2489055118110236
21
0.6556688976377952
0
LINE
8
BLACK
6
CONTINUOUS
10
0.2489055118110236
20
0.6556688976377952
11
0.2528766929133858
21
0.6572081102362205
0
LINE
8
BLACK
6
CONTINUOUS
10
0.2528766929133858
20
0.6572081102362205
11
0.2486056299212598
21
0.6587626377952756
0
LINE
8
BLACK
6
CONTINUOUS
10
0.2486056299212598
20
0.6587626377952756
11
0.2488961417322835
21
0.656238622047244
0
CIRCLE
8
BLACK
10
1.3700787401574803
20
-0.1732283464566929
40
0.0068897637795276
  0
ENDSEC
  0
EOF
