  0
SECTION
  2
HEADER
  9
$ANGBASE
  50
0.0
  9
$ANGDIR
  70
1
  9
$MEASUREMENT
  70
0
  0
ENDSEC
  0
SECTION
  2
TABLES
  0
TABLE
  2
LTYPE
  70
4
  0
LTYPE
  5
40F
  2
CONTINUOUS
  70
0
  3
Solid line
  72
65
  73
0
  40
0.0
  0
LTYPE
  5
410
  2
DASHDOT
 70
0
  3
Dash Dot ____ _ ____ _
 72
65
 73
4
 40
2.0
 49
1.25
 49
-0.25
 49
0.25
 49
-0.25
  0
LTYPE
  5
411
  2
DASHED
 70
0
  3
Dashed __ __ __ __ __
 72
65
 73
2
 40
0.75
 49
0.5
 49
-0.25
  0
LTYPE
  5
43B
  2
DOTTED
 70
0
  3
Dotted .  .  .  .
 72
65
 73
2
 40
0.2
 49
0.0
 49
-0.2
  0
ENDTAB
  0
TABLE
  2
STYLE
  70
4
  0
STYLE
  2
KICAD
  70
0
  40
0
  41
1
  42
1
  50
0
  71
0
  3
isocp.shx
  0
STYLE
  2
KICADB
  70
0
  40
0
  41
1
  42
1
  50
0
  71
0
  3
isocp.shx
  0
STYLE
  2
KICADI
  70
0
  40
0
  41
1
  42
1
  50
15
  71
0
  3
isocp.shx
  0
STYLE
  2
KICADBI
  70
0
  40
0
  41
1
  42
1
  50
15
  71
0
  3
isocp.shx
  0
ENDTAB
  0
TABLE
  2
LAYER
  70
1
  0
LAYER
  2
BLACK
  70
0
  62
7
  6
CONTINUOUS
  0
ENDTAB
  0
ENDSEC
  0
SECTION
  2
ENTITIES
0
LINE
8
BLACK
6
CONTINUOUS
10
1.5349593307086613
20
0.5509250787401575
11
1.5354920078740157
21
0.5503924015748032
0
LINE
8
BLACK
6
CONTINUOUS
10
1.5354920078740157
20
0.5503924015748032
11
1.5355669291338583
21
0.550015748031496
0
LINE
8
BLACK
6
CONTINUOUS
10
1.5355669291338583
20
0.550015748031496
11
1.5355669291338583
21
0.4728503937007874
0
LINE
8
BLACK
6
CONTINUOUS
10
1.5355669291338583
20
0.4728503937007874
11
1.5354920078740157
21
0.4724737401574803
0
LINE
8
BLACK
6
CONTINUOUS
10
1.5354920078740157
20
0.4724737401574803
11
1.5349593307086613
21
0.471941062992126
0
LINE
8
BLACK
6
CONTINUOUS
10
1.5349593307086613
20
0.471941062992126
11
1.5345826771653543
21
0.4718661417322835
0
LINE
8
BLACK
6
CONTINUOUS
10
1.5345826771653543
20
0.4718661417322835
11
1.4007244094488189
21
0.4718661417322835
0
LINE
8
BLACK
6
CONTINUOUS
10
1.4007244094488189
20
0.4718661417322835
11
1.4003477559055117
21
0.471941062992126
0
LINE
8
BLACK
6
CONTINUOUS
10
1.4003477559055117
20
0.471941062992126
11
1.3998150787401575
21
0.4724737401574803
0
LINE
8
BLACK
6
CONTINUOUS
10
1.3998150787401575
20
0.4724737401574803
11
1.399740157480315
21
0.4728503937007874
0
LINE
8
BLACK
6
CONTINUOUS
10
1.399740157480315
20
0.4728503937007874
11
1.399740157480315
21
0.550015748031496
0
LINE
8
BLACK
6
CONTINUOUS
10
1.399740157480315
20
0.550015748031496
11
1.3998150787401575
21
0.5503924015748032
0
LINE
8
BLACK
6
CONTINUOUS
10
1.3998150787401575
20
0.5503924015748032
11
1.4003477559055117
21
0.5509250787401575
0
LINE
8
BLACK
6
CONTINUOUS
10
1.4003477559055117
20
0.5509250787401575
11
1.4007244094488189
21
0.5509999999999999
0
LINE
8
BLACK
6
CONTINUOUS
10
1.4007244094488189
20
0.5509999999999999
11
1.5345826771653543
21
0.5509999999999999
0
LINE
8
BLACK
6
CONTINUOUS
10
1.5345826771653543
20
0.5509999999999999
11
1.5349593307086613
21
0.5509250787401575
0
LINE
8
BLACK
6
CONTINUOUS
10
1.4017086614173229
20
0.5490314960629921
11
1.4017086614173229
21
0.4738346456692913
0
LINE
8
BLACK
6
CONTINUOUS
10
1.4017086614173229
20
0.4738346456692913
11
1.5335984251968504
21
0.4738346456692913
0
LINE
8
BLACK
6
CONTINUOUS
10
1.5335984251968504
20
0.4738346456692913
11
1.5335984251968504
21
0.5490314960629921
0
LINE
8
BLACK
6
CONTINUOUS
10
1.5335984251968504
20
0.5490314960629921
11
1.4017086614173229
21
0.5490314960629921
0
LINE
8
BLACK
6
CONTINUOUS
10
1.8034632677165354
20
0.6519093307086614
11
1.8039959448818896
21
0.6513766535433071
0
LINE
8
BLACK
6
CONTINUOUS
10
1.8039959448818896
20
0.6513766535433071
11
1.8040708661417322
21
0.651
0
LINE
8
BLACK
6
CONTINUOUS
10
1.8040708661417322
20
0.651
11
1.8040708661417322
21
0.5171417322834646
0
LINE
8
BLACK
6
CONTINUOUS
10
1.8040708661417322
20
0.5171417322834646
11
1.8039959448818896
21
0.5167650787401574
0
LINE
8
BLACK
6
CONTINUOUS
10
1.8039959448818896
20
0.5167650787401574
11
1.8034632677165354
21
0.5162324015748031
0
LINE
8
BLACK
6
CONTINUOUS
10
1.8034632677165354
20
0.5162324015748031
11
1.8030866141732282
21
0.5161574803149607
0
LINE
8
BLACK
6
CONTINUOUS
10
1.8030866141732282
20
0.5161574803149607
11
1.6416692913385826
21
0.5161574803149607
0
LINE
8
BLACK
6
CONTINUOUS
10
1.6416692913385826
20
0.5161574803149607
11
1.6412926377952755
21
0.5162324015748031
0
LINE
8
BLACK
6
CONTINUOUS
10
1.6412926377952755
20
0.5162324015748031
11
1.6407599606299212
21
0.5167650787401574
0
LINE
8
BLACK
6
CONTINUOUS
10
1.6407599606299212
20
0.5167650787401574
11
1.6406850393700787
21
0.5171417322834646
0
LINE
8
BLACK
6
CONTINUOUS
10
1.6406850393700787
20
0.5171417322834646
11
1.6406850393700787
21
0.651
0
LINE
8
BLACK
6
CONTINUOUS
10
1.6406850393700787
20
0.651
11
1.6407599606299212
21
0.6513766535433071
0
LINE
8
BLACK
6
CONTINUOUS
10
1.6407599606299212
20
0.6513766535433071
11
1.6412926377952755
21
0.6519093307086614
0
LINE
8
BLACK
6
CONTINUOUS
10
1.6412926377952755
20
0.6519093307086614
11
1.6416692913385826
21
0.651984251968504
0
LINE
8
BLACK
6
CONTINUOUS
10
1.6416692913385826
20
0.651984251968504
11
1.8030866141732282
21
0.651984251968504
0
LINE
8
BLACK
6
CONTINUOUS
10
1.8030866141732282
20
0.651984251968504
11
1.8034632677165354
21
0.6519093307086614
0
LINE
8
BLACK
6
CONTINUOUS
10
1.6426535433070866
20
0.6500157480314961
11
1.6426535433070866
21
0.5181259842519685
0
LINE
8
BLACK
6
CONTINUOUS
10
1.6426535433070866
20
0.5181259842519685
11
1.8021023622047243
21
0.5181259842519685
0
LINE
8
BLACK
6
CONTINUOUS
10
1.8021023622047243
20
0.5181259842519685
11
1.8021023622047243
21
0.6500157480314961
0
LINE
8
BLACK
6
CONTINUOUS
10
1.8021023622047243
20
0.6500157480314961
11
1.6426535433070866
21
0.6500157480314961
0
LINE
8
BLACK
6
CONTINUOUS
10
1.3239199606299212
20
0.6406494881889764
11
1.3244526377952757
21
0.6401168110236221
0
LINE
8
BLACK
6
CONTINUOUS
10
1.3244526377952757
20
0.6401168110236221
11
1.324527559055118
21
0.639740157480315
0
LINE
8
BLACK
6
CONTINUOUS
10
1.324527559055118
20
0.639740157480315
11
1.324527559055118
21
0.582259842519685
0
LINE
8
BLACK
6
CONTINUOUS
10
1.324527559055118
20
0.582259842519685
11
1.3244526377952757
21
0.5818831889763779
0
LINE
8
BLACK
6
CONTINUOUS
10
1.3244526377952757
20
0.5818831889763779
11
1.3239199606299212
21
0.5813505118110236
0
LINE
8
BLACK
6
CONTINUOUS
10
1.3239199606299212
20
0.5813505118110236
11
1.3235433070866141
21
0.5812755905511811
0
LINE
8
BLACK
6
CONTINUOUS
10
1.3235433070866141
20
0.5812755905511811
11
1.2070078740157479
21
0.5812755905511811
0
LINE
8
BLACK
6
CONTINUOUS
10
1.2070078740157479
20
0.5812755905511811
11
1.206631220472441
21
0.5813505118110236
0
LINE
8
BLACK
6
CONTINUOUS
10
1.206631220472441
20
0.5813505118110236
11
1.2060985433070865
21
0.5818831889763779
0
LINE
8
BLACK
6
CONTINUOUS
10
1.2060985433070865
20
0.5818831889763779
11
1.206023622047244
21
0.582259842519685
0
LINE
8
BLACK
6
CONTINUOUS
10
1.206023622047244
20
0.582259842519685
11
1.206023622047244
21
0.639740157480315
0
LINE
8
BLACK
6
CONTINUOUS
10
1.206023622047244
20
0.639740157480315
11
1.2060985433070865
21
0.6401168110236221
0
LINE
8
BLACK
6
CONTINUOUS
10
1.2060985433070865
20
0.6401168110236221
11
1.206631220472441
21
0.6406494881889764
0
LINE
8
BLACK
6
CONTINUOUS
10
1.206631220472441
20
0.6406494881889764
11
1.2070078740157479
21
0.6407244094488189
0
LINE
8
BLACK
6
CONTINUOUS
10
1.2070078740157479
20
0.6407244094488189
11
1.3235433070866141
21
0.6407244094488189
0
LINE
8
BLACK
6
CONTINUOUS
10
1.3235433070866141
20
0.6407244094488189
11
1.3239199606299212
21
0.6406494881889764
0
LINE
8
BLACK
6
CONTINUOUS
10
1.2079921259842519
20
0.6387559055118111
11
1.2079921259842519
21
0.5832440944881889
0
LINE
8
BLACK
6
CONTINUOUS
10
1.2079921259842519
20
0.5832440944881889
11
1.3225590551181101
21
0.5832440944881889
0
LINE
8
BLACK
6
CONTINUOUS
10
1.3225590551181101
20
0.5832440944881889
11
1.3225590551181101
21
0.6387559055118111
0
LINE
8
BLACK
6
CONTINUOUS
10
1.3225590551181101
20
0.6387559055118111
11
1.2079921259842519
21
0.6387559055118111
0
LINE
8
BLACK
6
CONTINUOUS
10
1.5349593307086613
20
0.6694290157480315
11
1.5354920078740157
21
0.6688963385826772
0
LINE
8
BLACK
6
CONTINUOUS
10
1.5354920078740157
20
0.6688963385826772
11
1.5355669291338583
21
0.6685196850393701
0
LINE
8
BLACK
6
CONTINUOUS
10
1.5355669291338583
20
0.6685196850393701
11
1.5355669291338583
21
0.5913543307086614
0
LINE
8
BLACK
6
CONTINUOUS
10
1.5355669291338583
20
0.5913543307086614
11
1.5354920078740157
21
0.5909776771653543
0
LINE
8
BLACK
6
CONTINUOUS
10
1.5354920078740157
20
0.5909776771653543
11
1.5349593307086613
21
0.590445
0
LINE
8
BLACK
6
CONTINUOUS
10
1.5349593307086613
20
0.590445
11
1.5345826771653543
21
0.5903700787401575
0
LINE
8
BLACK
6
CONTINUOUS
10
1.5345826771653543
20
0.5903700787401575
11
1.4007244094488189
21
0.5903700787401575
0
LINE
8
BLACK
6
CONTINUOUS
10
1.4007244094488189
20
0.5903700787401575
11
1.4003477559055117
21
0.590445
0
LINE
8
BLACK
6
CONTINUOUS
10
1.4003477559055117
20
0.590445
11
1.3998150787401575
21
0.5909776771653543
0
LINE
8
BLACK
6
CONTINUOUS
10
1.3998150787401575
20
0.5909776771653543
11
1.399740157480315
21
0.5913543307086614
0
LINE
8
BLACK
6
CONTINUOUS
10
1.399740157480315
20
0.5913543307086614
11
1.399740157480315
21
0.6685196850393701
0
LINE
8
BLACK
6
CONTINUOUS
10
1.399740157480315
20
0.6685196850393701
11
1.3998150787401575
21
0.6688963385826772
0
LINE
8
BLACK
6
CONTINUOUS
10
1.3998150787401575
20
0.6688963385826772
11
1.4003477559055117
21
0.6694290157480315
0
LINE
8
BLACK
6
CONTINUOUS
10
1.4003477559055117
20
0.6694290157480315
11
1.4007244094488189
21
0.669503937007874
0
LINE
8
BLACK
6
CONTINUOUS
10
1.4007244094488189
20
0.669503937007874
11
1.5345826771653543
21
0.669503937007874
0
LINE
8
BLACK
6
CONTINUOUS
10
1.5345826771653543
20
0.669503937007874
11
1.5349593307086613
21
0.6694290157480315
0
LINE
8
BLACK
6
CONTINUOUS
10
1.4017086614173229
20
0.6675354330708662
11
1.4017086614173229
21
0.5923385826771653
0
LINE
8
BLACK
6
CONTINUOUS
10
1.4017086614173229
20
0.5923385826771653
11
1.5335984251968504
21
0.5923385826771653
0
LINE
8
BLACK
6
CONTINUOUS
10
1.5335984251968504
20
0.5923385826771653
11
1.5335984251968504
21
0.6675354330708662
0
LINE
8
BLACK
6
CONTINUOUS
10
1.5335984251968504
20
0.6675354330708662
11
1.4017086614173229
21
0.6675354330708662
0
LINE
8
BLACK
6
CONTINUOUS
10
1.3239199606299212
20
0.7394683858267717
11
1.3244526377952757
21
0.7389357086614173
0
LINE
8
BLACK
6
CONTINUOUS
10
1.3244526377952757
20
0.7389357086614173
11
1.324527559055118
21
0.7385590551181103
0
LINE
8
BLACK
6
CONTINUOUS
10
1.324527559055118
20
0.7385590551181103
11
1.324527559055118
21
0.6810787401574803
0
LINE
8
BLACK
6
CONTINUOUS
10
1.324527559055118
20
0.6810787401574803
11
1.3244526377952757
21
0.6807020866141732
0
LINE
8
BLACK
6
CONTINUOUS
10
1.3244526377952757
20
0.6807020866141732
11
1.3239199606299212
21
0.6801694094488189
0
LINE
8
BLACK
6
CONTINUOUS
10
1.3239199606299212
20
0.6801694094488189
11
1.3235433070866141
21
0.6800944881889763
0
LINE
8
BLACK
6
CONTINUOUS
10
1.3235433070866141
20
0.6800944881889763
11
1.2070078740157479
21
0.6800944881889763
0
LINE
8
BLACK
6
CONTINUOUS
10
1.2070078740157479
20
0.6800944881889763
11
1.206631220472441
21
0.6801694094488189
0
LINE
8
BLACK
6
CONTINUOUS
10
1.206631220472441
20
0.6801694094488189
11
1.2060985433070865
21
0.6807020866141732
0
LINE
8
BLACK
6
CONTINUOUS
10
1.2060985433070865
20
0.6807020866141732
11
1.206023622047244
21
0.6810787401574803
0
LINE
8
BLACK
6
CONTINUOUS
10
1.206023622047244
20
0.6810787401574803
11
1.206023622047244
21
0.7385590551181103
0
LINE
8
BLACK
6
CONTINUOUS
10
1.206023622047244
20
0.7385590551181103
11
1.2060985433070865
21
0.7389357086614173
0
LINE
8
BLACK
6
CONTINUOUS
10
1.2060985433070865
20
0.7389357086614173
11
1.206631220472441
21
0.7394683858267717
0
LINE
8
BLACK
6
CONTINUOUS
10
1.206631220472441
20
0.7394683858267717
11
1.2070078740157479
21
0.7395433070866142
0
LINE
8
BLACK
6
CONTINUOUS
10
1.2070078740157479
20
0.7395433070866142
11
1.3235433070866141
21
0.7395433070866142
0
LINE
8
BLACK
6
CONTINUOUS
10
1.3235433070866141
20
0.7395433070866142
11
1.3239199606299212
21
0.7394683858267717
0
LINE
8
BLACK
6
CONTINUOUS
10
1.2079921259842519
20
0.7375748031496063
11
1.2079921259842519
21
0.6820629921259842
0
LINE
8
BLACK
6
CONTINUOUS
10
1.2079921259842519
20
0.6820629921259842
11
1.3225590551181101
21
0.6820629921259842
0
LINE
8
BLACK
6
CONTINUOUS
10
1.3225590551181101
20
0.6820629921259842
11
1.3225590551181101
21
0.7375748031496063
0
LINE
8
BLACK
6
CONTINUOUS
10
1.3225590551181101
20
0.7375748031496063
11
1.2079921259842519
21
0.7375748031496063
0
LINE
8
BLACK
6
CONTINUOUS
10
1.7646837401574802
20
0.790295157480315
11
1.7652164173228346
21
0.7897624803149607
0
LINE
8
BLACK
6
CONTINUOUS
10
1.7652164173228346
20
0.7897624803149607
11
1.7652913385826772
21
0.7893858267716535
0
LINE
8
BLACK
6
CONTINUOUS
10
1.7652913385826772
20
0.7893858267716535
11
1.7652913385826772
21
0.7067086614173228
0
LINE
8
BLACK
6
CONTINUOUS
10
1.7652913385826772
20
0.7067086614173228
11
1.7652164173228346
21
0.7063320078740157
0
LINE
8
BLACK
6
CONTINUOUS
10
1.7652164173228346
20
0.7063320078740157
11
1.7646837401574802
21
0.7057993307086614
0
LINE
8
BLACK
6
CONTINUOUS
10
1.7646837401574802
20
0.7057993307086614
11
1.7643070866141732
21
0.7057244094488189
0
LINE
8
BLACK
6
CONTINUOUS
10
1.7643070866141732
20
0.7057244094488189
11
1.5832047244094487
21
0.7057244094488189
0
LINE
8
BLACK
6
CONTINUOUS
10
1.5832047244094487
20
0.7057244094488189
11
1.5828280708661417
21
0.7057993307086614
0
LINE
8
BLACK
6
CONTINUOUS
10
1.5828280708661417
20
0.7057993307086614
11
1.5822953937007873
21
0.7063320078740157
0
LINE
8
BLACK
6
CONTINUOUS
10
1.5822953937007873
20
0.7063320078740157
11
1.5822204724409448
21
0.7067086614173228
0
LINE
8
BLACK
6
CONTINUOUS
10
1.5822204724409448
20
0.7067086614173228
11
1.5822204724409448
21
0.7893858267716535
0
LINE
8
BLACK
6
CONTINUOUS
10
1.5822204724409448
20
0.7893858267716535
11
1.5822953937007873
21
0.7897624803149607
0
LINE
8
BLACK
6
CONTINUOUS
10
1.5822953937007873
20
0.7897624803149607
11
1.5828280708661417
21
0.790295157480315
0
LINE
8
BLACK
6
CONTINUOUS
10
1.5828280708661417
20
0.790295157480315
11
1.5832047244094487
21
0.7903700787401574
0
LINE
8
BLACK
6
CONTINUOUS
10
1.5832047244094487
20
0.7903700787401574
11
1.7643070866141732
21
0.7903700787401574
0
LINE
8
BLACK
6
CONTINUOUS
10
1.7643070866141732
20
0.7903700787401574
11
1.7646837401574802
21
0.790295157480315
0
LINE
8
BLACK
6
CONTINUOUS
10
1.5841889763779526
20
0.7884015748031495
11
1.5841889763779526
21
0.7076929133858267
0
LINE
8
BLACK
6
CONTINUOUS
10
1.5841889763779526
20
0.7076929133858267
11
1.7633228346456693
21
0.7076929133858267
0
LINE
8
BLACK
6
CONTINUOUS
10
1.7633228346456693
20
0.7076929133858267
11
1.7633228346456693
21
0.7884015748031495
0
LINE
8
BLACK
6
CONTINUOUS
10
1.7633228346456693
20
0.7884015748031495
11
1.5841889763779526
21
0.7884015748031495
0
LINE
8
BLACK
6
CONTINUOUS
10
1.5349593307086613
20
0.7879329527559055
11
1.5354920078740157
21
0.7874002755905511
0
LINE
8
BLACK
6
CONTINUOUS
10
1.5354920078740157
20
0.7874002755905511
11
1.5355669291338583
21
0.7870236220472441
0
LINE
8
BLACK
6
CONTINUOUS
10
1.5355669291338583
20
0.7870236220472441
11
1.5355669291338583
21
0.7098582677165354
0
LINE
8
BLACK
6
CONTINUOUS
10
1.5355669291338583
20
0.7098582677165354
11
1.5354920078740157
21
0.7094816141732283
0
LINE
8
BLACK
6
CONTINUOUS
10
1.5354920078740157
20
0.7094816141732283
11
1.5349593307086613
21
0.708948937007874
0
LINE
8
BLACK
6
CONTINUOUS
10
1.5349593307086613
20
0.708948937007874
11
1.5345826771653543
21
0.7088740157480314
0
LINE
8
BLACK
6
CONTINUOUS
10
1.5345826771653543
20
0.7088740157480314
11
1.4007244094488189
21
0.7088740157480314
0
LINE
8
BLACK
6
CONTINUOUS
10
1.4007244094488189
20
0.7088740157480314
11
1.4003477559055117
21
0.708948937007874
0
LINE
8
BLACK
6
CONTINUOUS
10
1.4003477559055117
20
0.708948937007874
11
1.3998150787401575
21
0.7094816141732283
0
LINE
8
BLACK
6
CONTINUOUS
10
1.3998150787401575
20
0.7094816141732283
11
1.399740157480315
21
0.7098582677165354
0
LINE
8
BLACK
6
CONTINUOUS
10
1.399740157480315
20
0.7098582677165354
11
1.399740157480315
21
0.7870236220472441
0
LINE
8
BLACK
6
CONTINUOUS
10
1.399740157480315
20
0.7870236220472441
11
1.3998150787401575
21
0.7874002755905511
0
LINE
8
BLACK
6
CONTINUOUS
10
1.3998150787401575
20
0.7874002755905511
11
1.4003477559055117
21
0.7879329527559055
0
LINE
8
BLACK
6
CONTINUOUS
10
1.4003477559055117
20
0.7879329527559055
11
1.4007244094488189
21
0.788007874015748
0
LINE
8
BLACK
6
CONTINUOUS
10
1.4007244094488189
20
0.788007874015748
11
1.5345826771653543
21
0.788007874015748
0
LINE
8
BLACK
6
CONTINUOUS
10
1.5345826771653543
20
0.788007874015748
11
1.5349593307086613
21
0.7879329527559055
0
LINE
8
BLACK
6
CONTINUOUS
10
1.4017086614173229
20
0.7860393700787401
11
1.4017086614173229
21
0.7108425196850393
0
LINE
8
BLACK
6
CONTINUOUS
10
1.4017086614173229
20
0.7108425196850393
11
1.5335984251968504
21
0.7108425196850393
0
LINE
8
BLACK
6
CONTINUOUS
10
1.5335984251968504
20
0.7108425196850393
11
1.5335984251968504
21
0.7860393700787401
0
LINE
8
BLACK
6
CONTINUOUS
10
1.5335984251968504
20
0.7860393700787401
11
1.4017086614173229
21
0.7860393700787401
0
LINE
8
BLACK
6
CONTINUOUS
10
1.5349593307086613
20
0.9064368897637795
11
1.5354920078740157
21
0.9059042125984251
0
LINE
8
BLACK
6
CONTINUOUS
10
1.5354920078740157
20
0.9059042125984251
11
1.5355669291338583
21
0.9055275590551181
0
LINE
8
BLACK
6
CONTINUOUS
10
1.5355669291338583
20
0.9055275590551181
11
1.5355669291338583
21
0.8283622047244095
0
LINE
8
BLACK
6
CONTINUOUS
10
1.5355669291338583
20
0.8283622047244095
11
1.5354920078740157
21
0.8279855511811024
0
LINE
8
BLACK
6
CONTINUOUS
10
1.5354920078740157
20
0.8279855511811024
11
1.5349593307086613
21
0.827452874015748
0
LINE
8
BLACK
6
CONTINUOUS
10
1.5349593307086613
20
0.827452874015748
11
1.5345826771653543
21
0.8273779527559055
0
LINE
8
BLACK
6
CONTINUOUS
10
1.5345826771653543
20
0.8273779527559055
11
1.4007244094488189
21
0.8273779527559055
0
LINE
8
BLACK
6
CONTINUOUS
10
1.4007244094488189
20
0.8273779527559055
11
1.4003477559055117
21
0.827452874015748
0
LINE
8
BLACK
6
CONTINUOUS
10
1.4003477559055117
20
0.827452874015748
11
1.3998150787401575
21
0.8279855511811024
0
LINE
8
BLACK
6
CONTINUOUS
10
1.3998150787401575
20
0.8279855511811024
11
1.399740157480315
21
0.8283622047244095
0
LINE
8
BLACK
6
CONTINUOUS
10
1.399740157480315
20
0.8283622047244095
11
1.399740157480315
21
0.9055275590551181
0
LINE
8
BLACK
6
CONTINUOUS
10
1.399740157480315
20
0.9055275590551181
11
1.3998150787401575
21
0.9059042125984251
0
LINE
8
BLACK
6
CONTINUOUS
10
1.3998150787401575
20
0.9059042125984251
11
1.4003477559055117
21
0.9064368897637795
0
LINE
8
BLACK
6
CONTINUOUS
10
1.4003477559055117
20
0.9064368897637795
11
1.4007244094488189
21
0.906511811023622
0
LINE
8
BLACK
6
CONTINUOUS
10
1.4007244094488189
20
0.906511811023622
11
1.5345826771653543
21
0.906511811023622
0
LINE
8
BLACK
6
CONTINUOUS
10
1.5345826771653543
20
0.906511811023622
11
1.5349593307086613
21
0.9064368897637795
0
LINE
8
BLACK
6
CONTINUOUS
10
1.4017086614173229
20
0.9045433070866141
11
1.4017086614173229
21
0.8293464566929134
0
LINE
8
BLACK
6
CONTINUOUS
10
1.4017086614173229
20
0.8293464566929134
11
1.5335984251968504
21
0.8293464566929134
0
LINE
8
BLACK
6
CONTINUOUS
10
1.5335984251968504
20
0.8293464566929134
11
1.5335984251968504
21
0.9045433070866141
0
LINE
8
BLACK
6
CONTINUOUS
10
1.5335984251968504
20
0.9045433070866141
11
1.4017086614173229
21
0.9045433070866141
0
LINE
8
BLACK
6
CONTINUOUS
10
0.8979357086614173
20
0.9701219291338582
11
0.8984683858267717
21
0.9695892519685039
0
LINE
8
BLACK
6
CONTINUOUS
10
0.8984683858267717
20
0.9695892519685039
11
0.8985433070866141
21
0.9692125984251968
0
LINE
8
BLACK
6
CONTINUOUS
10
0.8985433070866141
20
0.9692125984251968
11
0.8985433070866141
21
0.8707874015748032
0
LINE
8
BLACK
6
CONTINUOUS
10
0.8985433070866141
20
0.8707874015748032
11
0.8984683858267717
21
0.8704107480314961
0
LINE
8
BLACK
6
CONTINUOUS
10
0.8984683858267717
20
0.8704107480314961
11
0.8979357086614173
21
0.8698780708661417
0
LINE
8
BLACK
6
CONTINUOUS
10
0.8979357086614173
20
0.8698780708661417
11
0.8975590551181102
21
0.8698031496062992
0
LINE
8
BLACK
6
CONTINUOUS
10
0.8975590551181102
20
0.8698031496062992
11
0.8424409448818897
21
0.8698031496062992
0
LINE
8
BLACK
6
CONTINUOUS
10
0.8424409448818897
20
0.8698031496062992
11
0.8420642913385826
21
0.8698780708661417
0
LINE
8
BLACK
6
CONTINUOUS
10
0.8420642913385826
20
0.8698780708661417
11
0.8415316141732283
21
0.8704107480314961
0
LINE
8
BLACK
6
CONTINUOUS
10
0.8415316141732283
20
0.8704107480314961
11
0.8414566929133858
21
0.8707874015748032
0
LINE
8
BLACK
6
CONTINUOUS
10
0.8414566929133858
20
0.8707874015748032
11
0.8414566929133858
21
0.9692125984251968
0
LINE
8
BLACK
6
CONTINUOUS
10
0.8414566929133858
20
0.9692125984251968
11
0.8415316141732283
21
0.9695892519685039
0
LINE
8
BLACK
6
CONTINUOUS
10
0.8415316141732283
20
0.9695892519685039
11
0.8420642913385826
21
0.9701219291338582
0
LINE
8
BLACK
6
CONTINUOUS
10
0.8420642913385826
20
0.9701219291338582
11
0.8424409448818897
21
0.9701968503937007
0
LINE
8
BLACK
6
CONTINUOUS
10
0.8424409448818897
20
0.9701968503937007
11
0.8975590551181102
21
0.9701968503937007
0
LINE
8
BLACK
6
CONTINUOUS
10
0.8975590551181102
20
0.9701968503937007
11
0.8979357086614173
21
0.9701219291338582
0
LINE
8
BLACK
6
CONTINUOUS
10
0.8434251968503936
20
0.9682283464566929
11
0.8434251968503936
21
0.8717716535433071
0
LINE
8
BLACK
6
CONTINUOUS
10
0.8434251968503936
20
0.8717716535433071
11
0.8965748031496062
21
0.8717716535433071
0
LINE
8
BLACK
6
CONTINUOUS
10
0.8965748031496062
20
0.8717716535433071
11
0.8965748031496062
21
0.9682283464566929
0
LINE
8
BLACK
6
CONTINUOUS
10
0.8965748031496062
20
0.9682283464566929
11
0.8434251968503936
21
0.9682283464566929
0
LINE
8
BLACK
6
CONTINUOUS
10
1.3239199606299212
20
0.9371061811023622
11
1.3244526377952757
21
0.9365735039370079
0
LINE
8
BLACK
6
CONTINUOUS
10
1.3244526377952757
20
0.9365735039370079
11
1.324527559055118
21
0.9361968503937008
0
LINE
8
BLACK
6
CONTINUOUS
10
1.324527559055118
20
0.9361968503937008
11
1.324527559055118
21
0.8787165354330708
0
LINE
8
BLACK
6
CONTINUOUS
10
1.324527559055118
20
0.8787165354330708
11
1.3244526377952757
21
0.8783398818897638
0
LINE
8
BLACK
6
CONTINUOUS
10
1.3244526377952757
20
0.8783398818897638
11
1.3239199606299212
21
0.8778072047244094
0
LINE
8
BLACK
6
CONTINUOUS
10
1.3239199606299212
20
0.8778072047244094
11
1.3235433070866141
21
0.8777322834645669
0
LINE
8
BLACK
6
CONTINUOUS
10
1.3235433070866141
20
0.8777322834645669
11
1.2070078740157479
21
0.8777322834645669
0
LINE
8
BLACK
6
CONTINUOUS
10
1.2070078740157479
20
0.8777322834645669
11
1.206631220472441
21
0.8778072047244094
0
LINE
8
BLACK
6
CONTINUOUS
10
1.206631220472441
20
0.8778072047244094
11
1.2060985433070865
21
0.8783398818897638
0
LINE
8
BLACK
6
CONTINUOUS
10
1.2060985433070865
20
0.8783398818897638
11
1.206023622047244
21
0.8787165354330708
0
LINE
8
BLACK
6
CONTINUOUS
10
1.206023622047244
20
0.8787165354330708
11
1.206023622047244
21
0.9361968503937008
0
LINE
8
BLACK
6
CONTINUOUS
10
1.206023622047244
20
0.9361968503937008
11
1.2060985433070865
21
0.9365735039370079
0
LINE
8
BLACK
6
CONTINUOUS
10
1.2060985433070865
20
0.9365735039370079
11
1.206631220472441
21
0.9371061811023622
0
LINE
8
BLACK
6
CONTINUOUS
10
1.206631220472441
20
0.9371061811023622
11
1.2070078740157479
21
0.9371811023622048
0
LINE
8
BLACK
6
CONTINUOUS
10
1.2070078740157479
20
0.9371811023622048
11
1.3235433070866141
21
0.9371811023622048
0
LINE
8
BLACK
6
CONTINUOUS
10
1.3235433070866141
20
0.9371811023622048
11
1.3239199606299212
21
0.9371061811023622
0
LINE
8
BLACK
6
CONTINUOUS
10
1.2079921259842519
20
0.9352125984251969
11
1.2079921259842519
21
0.8797007874015748
0
LINE
8
BLACK
6
CONTINUOUS
10
1.2079921259842519
20
0.8797007874015748
11
1.3225590551181101
21
0.8797007874015748
0
LINE
8
BLACK
6
CONTINUOUS
10
1.3225590551181101
20
0.8797007874015748
11
1.3225590551181101
21
0.9352125984251969
0
LINE
8
BLACK
6
CONTINUOUS
10
1.3225590551181101
20
0.9352125984251969
11
1.2079921259842519
21
0.9352125984251969
0
LINE
8
BLACK
6
CONTINUOUS
10
1.9355735039370079
20
1.0298069291338583
11
1.9361061811023621
21
1.0292742519685039
0
LINE
8
BLACK
6
CONTINUOUS
10
1.9361061811023621
20
1.0292742519685039
11
1.9361811023622046
21
1.0288975984251969
0
LINE
8
BLACK
6
CONTINUOUS
10
1.9361811023622046
20
1.0288975984251969
11
1.9361811023622046
21
0.8911024015748031
0
LINE
8
BLACK
6
CONTINUOUS
10
1.9361811023622046
20
0.8911024015748031
11
1.9361061811023621
21
0.8907257480314961
0
LINE
8
BLACK
6
CONTINUOUS
10
1.9361061811023621
20
0.8907257480314961
11
1.9355735039370079
21
0.8901930708661417
0
LINE
8
BLACK
6
CONTINUOUS
10
1.9355735039370079
20
0.8901930708661417
11
1.9351968503937007
21
0.8901181496062992
0
LINE
8
BLACK
6
CONTINUOUS
10
1.9351968503937007
20
0.8901181496062992
11
1.6848031496062992
21
0.8901181496062992
0
LINE
8
BLACK
6
CONTINUOUS
10
1.6848031496062992
20
0.8901181496062992
11
1.684426496062992
21
0.8901930708661417
0
LINE
8
BLACK
6
CONTINUOUS
10
1.684426496062992
20
0.8901930708661417
11
1.6838938188976378
21
0.8907257480314961
0
LINE
8
BLACK
6
CONTINUOUS
10
1.6838938188976378
20
0.8907257480314961
11
1.6838188976377952
21
0.8911024015748031
0
LINE
8
BLACK
6
CONTINUOUS
10
1.6838188976377952
20
0.8911024015748031
11
1.6838188976377952
21
1.0288975984251969
0
LINE
8
BLACK
6
CONTINUOUS
10
1.6838188976377952
20
1.0288975984251969
11
1.6838938188976378
21
1.0292742519685039
0
LINE
8
BLACK
6
CONTINUOUS
10
1.6838938188976378
20
1.0292742519685039
11
1.684426496062992
21
1.0298069291338583
0
LINE
8
BLACK
6
CONTINUOUS
10
1.684426496062992
20
1.0298069291338583
11
1.6848031496062992
21
1.0298818503937008
0
LINE
8
BLACK
6
CONTINUOUS
10
1.6848031496062992
20
1.0298818503937008
11
1.9351968503937007
21
1.0298818503937008
0
LINE
8
BLACK
6
CONTINUOUS
10
1.9351968503937007
20
1.0298818503937008
11
1.9355735039370079
21
1.0298069291338583
0
LINE
8
BLACK
6
CONTINUOUS
10
1.6857874015748031
20
1.027913346456693
11
1.6857874015748031
21
0.8920866535433071
0
LINE
8
BLACK
6
CONTINUOUS
10
1.6857874015748031
20
0.8920866535433071
11
1.9342125984251968
21
0.8920866535433071
0
LINE
8
BLACK
6
CONTINUOUS
10
1.9342125984251968
20
0.8920866535433071
11
1.9342125984251968
21
1.027913346456693
0
LINE
8
BLACK
6
CONTINUOUS
10
1.9342125984251968
20
1.027913346456693
11
1.6857874015748031
21
1.027913346456693
0
LINE
8
BLACK
6
CONTINUOUS
10
1.5349593307086613
20
1.0249408267716535
11
1.5354920078740157
21
1.0244081496062991
0
LINE
8
BLACK
6
CONTINUOUS
10
1.5354920078740157
20
1.0244081496062991
11
1.5355669291338583
21
1.0240314960629922
0
LINE
8
BLACK
6
CONTINUOUS
10
1.5355669291338583
20
1.0240314960629922
11
1.5355669291338583
21
0.9468661417322835
0
LINE
8
BLACK
6
CONTINUOUS
10
1.5355669291338583
20
0.9468661417322835
11
1.5354920078740157
21
0.9464894881889764
0
LINE
8
BLACK
6
CONTINUOUS
10
1.5354920078740157
20
0.9464894881889764
11
1.5349593307086613
21
0.9459568110236221
0
LINE
8
BLACK
6
CONTINUOUS
10
1.5349593307086613
20
0.9459568110236221
11
1.5345826771653543
21
0.9458818897637795
0
LINE
8
BLACK
6
CONTINUOUS
10
1.5345826771653543
20
0.9458818897637795
11
1.4007244094488189
21
0.9458818897637795
0
LINE
8
BLACK
6
CONTINUOUS
10
1.4007244094488189
20
0.9458818897637795
11
1.4003477559055117
21
0.9459568110236221
0
LINE
8
BLACK
6
CONTINUOUS
10
1.4003477559055117
20
0.9459568110236221
11
1.3998150787401575
21
0.9464894881889764
0
LINE
8
BLACK
6
CONTINUOUS
10
1.3998150787401575
20
0.9464894881889764
11
1.399740157480315
21
0.9468661417322835
0
LINE
8
BLACK
6
CONTINUOUS
10
1.399740157480315
20
0.9468661417322835
11
1.399740157480315
21
1.0240314960629922
0
LINE
8
BLACK
6
CONTINUOUS
10
1.399740157480315
20
1.0240314960629922
11
1.3998150787401575
21
1.0244081496062991
0
LINE
8
BLACK
6
CONTINUOUS
10
1.3998150787401575
20
1.0244081496062991
11
1.4003477559055117
21
1.0249408267716535
0
LINE
8
BLACK
6
CONTINUOUS
10
1.4003477559055117
20
1.0249408267716535
11
1.4007244094488189
21
1.0250157480314961
0
LINE
8
BLACK
6
CONTINUOUS
10
1.4007244094488189
20
1.0250157480314961
11
1.5345826771653543
21
1.0250157480314961
0
LINE
8
BLACK
6
CONTINUOUS
10
1.5345826771653543
20
1.0250157480314961
11
1.5349593307086613
21
1.0249408267716535
0
LINE
8
BLACK
6
CONTINUOUS
10
1.4017086614173229
20
1.0230472440944882
11
1.4017086614173229
21
0.9478503937007874
0
LINE
8
BLACK
6
CONTINUOUS
10
1.4017086614173229
20
0.9478503937007874
11
1.5335984251968504
21
0.9478503937007874
0
LINE
8
BLACK
6
CONTINUOUS
10
1.5335984251968504
20
0.9478503937007874
11
1.5335984251968504
21
1.0230472440944882
0
LINE
8
BLACK
6
CONTINUOUS
10
1.5335984251968504
20
1.0230472440944882
11
1.4017086614173229
21
1.0230472440944882
0
LINE
8
BLACK
6
CONTINUOUS
10
1.3239199606299212
20
1.0359250787401575
11
1.3244526377952757
21
1.0353924015748031
0
LINE
8
BLACK
6
CONTINUOUS
10
1.3244526377952757
20
1.0353924015748031
11
1.324527559055118
21
1.0350157480314961
0
LINE
8
BLACK
6
CONTINUOUS
10
1.324527559055118
20
1.0350157480314961
11
1.324527559055118
21
0.9775354330708661
0
LINE
8
BLACK
6
CONTINUOUS
10
1.324527559055118
20
0.9775354330708661
11
1.3244526377952757
21
0.977158779527559
0
LINE
8
BLACK
6
CONTINUOUS
10
1.3244526377952757
20
0.977158779527559
11
1.3239199606299212
21
0.9766261023622047
0
LINE
8
BLACK
6
CONTINUOUS
10
1.3239199606299212
20
0.9766261023622047
11
1.3235433070866141
21
0.9765511811023622
0
LINE
8
BLACK
6
CONTINUOUS
10
1.3235433070866141
20
0.9765511811023622
11
1.2070078740157479
21
0.9765511811023622
0
LINE
8
BLACK
6
CONTINUOUS
10
1.2070078740157479
20
0.9765511811023622
11
1.206631220472441
21
0.9766261023622047
0
LINE
8
BLACK
6
CONTINUOUS
10
1.206631220472441
20
0.9766261023622047
11
1.2060985433070865
21
0.977158779527559
0
LINE
8
BLACK
6
CONTINUOUS
10
1.2060985433070865
20
0.977158779527559
11
1.206023622047244
21
0.9775354330708661
0
LINE
8
BLACK
6
CONTINUOUS
10
1.206023622047244
20
0.9775354330708661
11
1.206023622047244
21
1.0350157480314961
0
LINE
8
BLACK
6
CONTINUOUS
10
1.206023622047244
20
1.0350157480314961
11
1.2060985433070865
21
1.0353924015748031
0
LINE
8
BLACK
6
CONTINUOUS
10
1.2060985433070865
20
1.0353924015748031
11
1.206631220472441
21
1.0359250787401575
0
LINE
8
BLACK
6
CONTINUOUS
10
1.206631220472441
20
1.0359250787401575
11
1.2070078740157479
21
1.036
0
LINE
8
BLACK
6
CONTINUOUS
10
1.2070078740157479
20
1.036
11
1.3235433070866141
21
1.036
0
LINE
8
BLACK
6
CONTINUOUS
10
1.3235433070866141
20
1.036
11
1.3239199606299212
21
1.0359250787401575
0
LINE
8
BLACK
6
CONTINUOUS
10
1.2079921259842519
20
1.0340314960629922
11
1.2079921259842519
21
0.97851968503937
0
LINE
8
BLACK
6
CONTINUOUS
10
1.2079921259842519
20
0.97851968503937
11
1.3225590551181101
21
0.97851968503937
0
LINE
8
BLACK
6
CONTINUOUS
10
1.3225590551181101
20
0.97851968503937
11
1.3225590551181101
21
1.0340314960629922
0
LINE
8
BLACK
6
CONTINUOUS
10
1.3225590551181101
20
1.0340314960629922
11
1.2079921259842519
21
1.0340314960629922
0
LINE
8
BLACK
6
CONTINUOUS
10
0.8991168110236221
20
1.0991770472440945
11
0.8996494881889764
21
1.0986443700787401
0
LINE
8
BLACK
6
CONTINUOUS
10
0.8996494881889764
20
1.0986443700787401
11
0.8997244094488189
21
1.0982677165354331
0
LINE
8
BLACK
6
CONTINUOUS
10
0.8997244094488189
20
1.0982677165354331
11
0.8997244094488189
21
0.9817322834645669
0
LINE
8
BLACK
6
CONTINUOUS
10
0.8997244094488189
20
0.9817322834645669
11
0.8996494881889764
21
0.9813556299212598
0
LINE
8
BLACK
6
CONTINUOUS
10
0.8996494881889764
20
0.9813556299212598
11
0.8991168110236221
21
0.9808229527559055
0
LINE
8
BLACK
6
CONTINUOUS
10
0.8991168110236221
20
0.9808229527559055
11
0.898740157480315
21
0.9807480314960629
0
LINE
8
BLACK
6
CONTINUOUS
10
0.898740157480315
20
0.9807480314960629
11
0.841259842519685
21
0.9807480314960629
0
LINE
8
BLACK
6
CONTINUOUS
10
0.841259842519685
20
0.9807480314960629
11
0.8408831889763779
21
0.9808229527559055
0
LINE
8
BLACK
6
CONTINUOUS
10
0.8408831889763779
20
0.9808229527559055
11
0.8403505118110236
21
0.9813556299212598
0
LINE
8
BLACK
6
CONTINUOUS
10
0.8403505118110236
20
0.9813556299212598
11
0.8402755905511811
21
0.9817322834645669
0
LINE
8
BLACK
6
CONTINUOUS
10
0.8402755905511811
20
0.9817322834645669
11
0.8402755905511811
21
1.0982677165354331
0
LINE
8
BLACK
6
CONTINUOUS
10
0.8402755905511811
20
1.0982677165354331
11
0.8403505118110236
21
1.0986443700787401
0
LINE
8
BLACK
6
CONTINUOUS
10
0.8403505118110236
20
1.0986443700787401
11
0.8408831889763779
21
1.0991770472440945
0
LINE
8
BLACK
6
CONTINUOUS
10
0.8408831889763779
20
1.0991770472440945
11
0.841259842519685
21
1.099251968503937
0
LINE
8
BLACK
6
CONTINUOUS
10
0.841259842519685
20
1.099251968503937
11
0.898740157480315
21
1.099251968503937
0
LINE
8
BLACK
6
CONTINUOUS
10
0.898740157480315
20
1.099251968503937
11
0.8991168110236221
21
1.0991770472440945
0
LINE
8
BLACK
6
CONTINUOUS
10
0.8422440944881889
20
1.0972834645669292
11
0.8422440944881889
21
0.9827165354330708
0
LINE
8
BLACK
6
CONTINUOUS
10
0.8422440944881889
20
0.9827165354330708
11
0.8977559055118111
21
0.9827165354330708
0
LINE
8
BLACK
6
CONTINUOUS
10
0.8977559055118111
20
0.9827165354330708
11
0.8977559055118111
21
1.0972834645669292
0
LINE
8
BLACK
6
CONTINUOUS
10
0.8977559055118111
20
1.0972834645669292
11
0.8422440944881889
21
1.0972834645669292
0
LINE
8
BLACK
6
CONTINUOUS
10
1.9073058267716534
20
1.2264998818897637
11
1.9078385039370078
21
1.2259672047244095
0
LINE
8
BLACK
6
CONTINUOUS
10
1.9078385039370078
20
1.2259672047244095
11
1.9079134251968504
21
1.2255905511811023
0
LINE
8
BLACK
6
CONTINUOUS
10
1.9079134251968504
20
1.2255905511811023
11
1.9079134251968504
21
1.0744094488188976
0
LINE
8
BLACK
6
CONTINUOUS
10
1.9079134251968504
20
1.0744094488188976
11
1.9078385039370078
21
1.0740327952755906
0
LINE
8
BLACK
6
CONTINUOUS
10
1.9078385039370078
20
1.0740327952755906
11
1.9073058267716534
21
1.0735001181102362
0
LINE
8
BLACK
6
CONTINUOUS
10
1.9073058267716534
20
1.0735001181102362
11
1.9069291732283464
21
1.0734251968503936
0
LINE
8
BLACK
6
CONTINUOUS
10
1.9069291732283464
20
1.0734251968503936
11
1.7730708267716535
21
1.0734251968503936
0
LINE
8
BLACK
6
CONTINUOUS
10
1.7730708267716535
20
1.0734251968503936
11
1.7726941732283463
21
1.0735001181102362
0
LINE
8
BLACK
6
CONTINUOUS
10
1.7726941732283463
20
1.0735001181102362
11
1.7721614960629921
21
1.0740327952755906
0
LINE
8
BLACK
6
CONTINUOUS
10
1.7721614960629921
20
1.0740327952755906
11
1.7720865748031496
21
1.0744094488188976
0
LINE
8
BLACK
6
CONTINUOUS
10
1.7720865748031496
20
1.0744094488188976
11
1.7720865748031496
21
1.2255905511811023
0
LINE
8
BLACK
6
CONTINUOUS
10
1.7720865748031496
20
1.2255905511811023
11
1.7721614960629921
21
1.2259672047244095
0
LINE
8
BLACK
6
CONTINUOUS
10
1.7721614960629921
20
1.2259672047244095
11
1.7726941732283463
21
1.2264998818897637
0
LINE
8
BLACK
6
CONTINUOUS
10
1.7726941732283463
20
1.2264998818897637
11
1.7730708267716535
21
1.2265748031496062
0
LINE
8
BLACK
6
CONTINUOUS
10
1.7730708267716535
20
1.2265748031496062
11
1.9069291732283464
21
1.2265748031496062
0
LINE
8
BLACK
6
CONTINUOUS
10
1.9069291732283464
20
1.2265748031496062
11
1.9073058267716534
21
1.2264998818897637
0
LINE
8
BLACK
6
CONTINUOUS
10
1.7740550787401574
20
1.2246062992125983
11
1.7740550787401574
21
1.0753937007874015
0
LINE
8
BLACK
6
CONTINUOUS
10
1.7740550787401574
20
1.0753937007874015
11
1.9059449212598425
21
1.0753937007874015
0
LINE
8
BLACK
6
CONTINUOUS
10
1.9059449212598425
20
1.0753937007874015
11
1.9059449212598425
21
1.2246062992125983
0
LINE
8
BLACK
6
CONTINUOUS
10
1.9059449212598425
20
1.2246062992125983
11
1.7740550787401574
21
1.2246062992125983
0
LINE
8
BLACK
6
CONTINUOUS
10
1.3239199606299212
20
1.1347439763779528
11
1.3244526377952757
21
1.1342112992125983
0
LINE
8
BLACK
6
CONTINUOUS
10
1.3244526377952757
20
1.1342112992125983
11
1.324527559055118
21
1.1338346456692914
0
LINE
8
BLACK
6
CONTINUOUS
10
1.324527559055118
20
1.1338346456692914
11
1.324527559055118
21
1.0763543307086614
0
LINE
8
BLACK
6
CONTINUOUS
10
1.324527559055118
20
1.0763543307086614
11
1.3244526377952757
21
1.0759776771653542
0
LINE
8
BLACK
6
CONTINUOUS
10
1.3244526377952757
20
1.0759776771653542
11
1.3239199606299212
21
1.075445
0
LINE
8
BLACK
6
CONTINUOUS
10
1.3239199606299212
20
1.075445
11
1.3235433070866141
21
1.0753700787401574
0
LINE
8
BLACK
6
CONTINUOUS
10
1.3235433070866141
20
1.0753700787401574
11
1.2070078740157479
21
1.0753700787401574
0
LINE
8
BLACK
6
CONTINUOUS
10
1.2070078740157479
20
1.0753700787401574
11
1.206631220472441
21
1.075445
0
LINE
8
BLACK
6
CONTINUOUS
10
1.206631220472441
20
1.075445
11
1.2060985433070865
21
1.0759776771653542
0
LINE
8
BLACK
6
CONTINUOUS
10
1.2060985433070865
20
1.0759776771653542
11
1.206023622047244
21
1.0763543307086614
0
LINE
8
BLACK
6
CONTINUOUS
10
1.206023622047244
20
1.0763543307086614
11
1.206023622047244
21
1.1338346456692914
0
LINE
8
BLACK
6
CONTINUOUS
10
1.206023622047244
20
1.1338346456692914
11
1.2060985433070865
21
1.1342112992125983
0
LINE
8
BLACK
6
CONTINUOUS
10
1.2060985433070865
20
1.1342112992125983
11
1.206631220472441
21
1.1347439763779528
0
LINE
8
BLACK
6
CONTINUOUS
10
1.206631220472441
20
1.1347439763779528
11
1.2070078740157479
21
1.1348188976377953
0
LINE
8
BLACK
6
CONTINUOUS
10
1.2070078740157479
20
1.1348188976377953
11
1.3235433070866141
21
1.1348188976377953
0
LINE
8
BLACK
6
CONTINUOUS
10
1.3235433070866141
20
1.1348188976377953
11
1.3239199606299212
21
1.1347439763779528
0
LINE
8
BLACK
6
CONTINUOUS
10
1.2079921259842519
20
1.1328503937007874
11
1.2079921259842519
21
1.0773385826771653
0
LINE
8
BLACK
6
CONTINUOUS
10
1.2079921259842519
20
1.0773385826771653
11
1.3225590551181101
21
1.0773385826771653
0
LINE
8
BLACK
6
CONTINUOUS
10
1.3225590551181101
20
1.0773385826771653
11
1.3225590551181101
21
1.1328503937007874
0
LINE
8
BLACK
6
CONTINUOUS
10
1.3225590551181101
20
1.1328503937007874
11
1.2079921259842519
21
1.1328503937007874
0
LINE
8
BLACK
6
CONTINUOUS
10
1.3239199606299212
20
1.3323817716535433
11
1.3244526377952757
21
1.3318490944881889
0
LINE
8
BLACK
6
CONTINUOUS
10
1.3244526377952757
20
1.3318490944881889
11
1.324527559055118
21
1.3314724409448819
0
LINE
8
BLACK
6
CONTINUOUS
10
1.324527559055118
20
1.3314724409448819
11
1.324527559055118
21
1.2739921259842519
0
LINE
8
BLACK
6
CONTINUOUS
10
1.324527559055118
20
1.2739921259842519
11
1.3244526377952757
21
1.2736154724409448
0
LINE
8
BLACK
6
CONTINUOUS
10
1.3244526377952757
20
1.2736154724409448
11
1.3239199606299212
21
1.2730827952755905
0
LINE
8
BLACK
6
CONTINUOUS
10
1.3239199606299212
20
1.2730827952755905
11
1.3235433070866141
21
1.273007874015748
0
LINE
8
BLACK
6
CONTINUOUS
10
1.3235433070866141
20
1.273007874015748
11
1.2070078740157479
21
1.273007874015748
0
LINE
8
BLACK
6
CONTINUOUS
10
1.2070078740157479
20
1.273007874015748
11
1.206631220472441
21
1.2730827952755905
0
LINE
8
BLACK
6
CONTINUOUS
10
1.206631220472441
20
1.2730827952755905
11
1.2060985433070865
21
1.2736154724409448
0
LINE
8
BLACK
6
CONTINUOUS
10
1.2060985433070865
20
1.2736154724409448
11
1.206023622047244
21
1.2739921259842519
0
LINE
8
BLACK
6
CONTINUOUS
10
1.206023622047244
20
1.2739921259842519
11
1.206023622047244
21
1.3314724409448819
0
LINE
8
BLACK
6
CONTINUOUS
10
1.206023622047244
20
1.3314724409448819
11
1.2060985433070865
21
1.3318490944881889
0
LINE
8
BLACK
6
CONTINUOUS
10
1.2060985433070865
20
1.3318490944881889
11
1.206631220472441
21
1.3323817716535433
0
LINE
8
BLACK
6
CONTINUOUS
10
1.206631220472441
20
1.3323817716535433
11
1.2070078740157479
21
1.3324566929133859
0
LINE
8
BLACK
6
CONTINUOUS
10
1.2070078740157479
20
1.3324566929133859
11
1.3235433070866141
21
1.3324566929133859
0
LINE
8
BLACK
6
CONTINUOUS
10
1.3235433070866141
20
1.3324566929133859
11
1.3239199606299212
21
1.3323817716535433
0
LINE
8
BLACK
6
CONTINUOUS
10
1.2079921259842519
20
1.330488188976378
11
1.2079921259842519
21
1.2749763779527559
0
LINE
8
BLACK
6
CONTINUOUS
10
1.2079921259842519
20
1.2749763779527559
11
1.3225590551181101
21
1.2749763779527559
0
LINE
8
BLACK
6
CONTINUOUS
10
1.3225590551181101
20
1.2749763779527559
11
1.3225590551181101
21
1.330488188976378
0
LINE
8
BLACK
6
CONTINUOUS
10
1.3225590551181101
20
1.330488188976378
11
1.2079921259842519
21
1.330488188976378
0
LINE
8
BLACK
6
CONTINUOUS
10
1.642876653543307
20
1.4278384645669291
11
1.6434093307086615
21
1.4273057874015749
0
LINE
8
BLACK
6
CONTINUOUS
10
1.6434093307086615
20
1.4273057874015749
11
1.643484251968504
21
1.4269291338582677
0
LINE
8
BLACK
6
CONTINUOUS
10
1.643484251968504
20
1.4269291338582677
11
1.643484251968504
21
1.2930708661417323
0
LINE
8
BLACK
6
CONTINUOUS
10
1.643484251968504
20
1.2930708661417323
11
1.6434093307086615
21
1.2926942125984251
0
LINE
8
BLACK
6
CONTINUOUS
10
1.6434093307086615
20
1.2926942125984251
11
1.642876653543307
21
1.2921615354330709
0
LINE
8
BLACK
6
CONTINUOUS
10
1.642876653543307
20
1.2921615354330709
11
1.6425000000000001
21
1.2920866141732283
0
LINE
8
BLACK
6
CONTINUOUS
10
1.6425000000000001
20
1.2920866141732283
11
1.4913188976377953
21
1.2920866141732283
0
LINE
8
BLACK
6
CONTINUOUS
10
1.4913188976377953
20
1.2920866141732283
11
1.4909422440944882
21
1.2921615354330709
0
LINE
8
BLACK
6
CONTINUOUS
10
1.4909422440944882
20
1.2921615354330709
11
1.4904095669291337
21
1.2926942125984251
0
LINE
8
BLACK
6
CONTINUOUS
10
1.4904095669291337
20
1.2926942125984251
11
1.4903346456692914
21
1.2930708661417323
0
LINE
8
BLACK
6
CONTINUOUS
10
1.4903346456692914
20
1.2930708661417323
11
1.4903346456692914
21
1.4269291338582677
0
LINE
8
BLACK
6
CONTINUOUS
10
1.4903346456692914
20
1.4269291338582677
11
1.4904095669291337
21
1.4273057874015749
0
LINE
8
BLACK
6
CONTINUOUS
10
1.4904095669291337
20
1.4273057874015749
11
1.4909422440944882
21
1.4278384645669291
0
LINE
8
BLACK
6
CONTINUOUS
10
1.4909422440944882
20
1.4278384645669291
11
1.4913188976377953
21
1.4279133858267716
0
LINE
8
BLACK
6
CONTINUOUS
10
1.4913188976377953
20
1.4279133858267716
11
1.6425000000000001
21
1.4279133858267716
0
LINE
8
BLACK
6
CONTINUOUS
10
1.6425000000000001
20
1.4279133858267716
11
1.642876653543307
21
1.4278384645669291
0
LINE
8
BLACK
6
CONTINUOUS
10
1.4923031496062993
20
1.4259448818897638
11
1.4923031496062993
21
1.2940551181102362
0
LINE
8
BLACK
6
CONTINUOUS
10
1.4923031496062993
20
1.2940551181102362
11
1.6415157480314961
21
1.2940551181102362
0
LINE
8
BLACK
6
CONTINUOUS
10
1.6415157480314961
20
1.2940551181102362
11
1.6415157480314961
21
1.4259448818897638
0
LINE
8
BLACK
6
CONTINUOUS
10
1.6415157480314961
20
1.4259448818897638
11
1.4923031496062993
21
1.4259448818897638
0
LINE
8
BLACK
6
CONTINUOUS
10
1.996833346456693
20
1.5973660236220473
11
1.9973660236220472
21
1.5968333464566928
0
LINE
8
BLACK
6
CONTINUOUS
10
1.9973660236220472
20
1.5968333464566928
11
1.9974409448818897
21
1.5964566929133859
0
LINE
8
BLACK
6
CONTINUOUS
10
1.9974409448818897
20
1.5964566929133859
11
1.9974409448818897
21
0.4035433070866142
0
LINE
8
BLACK
6
CONTINUOUS
10
1.9974409448818897
20
0.4035433070866142
11
1.9973660236220472
21
0.4031666535433071
0
LINE
8
BLACK
6
CONTINUOUS
10
1.9973660236220472
20
0.4031666535433071
11
1.996833346456693
21
0.4026339763779527
0
LINE
8
BLACK
6
CONTINUOUS
10
1.996833346456693
20
0.4026339763779527
11
1.9964566929133858
21
0.4025590551181102
0
LINE
8
BLACK
6
CONTINUOUS
10
1.9964566929133858
20
0.4025590551181102
11
0.8035433070866141
21
0.4025590551181102
0
LINE
8
BLACK
6
CONTINUOUS
10
0.8035433070866141
20
0.4025590551181102
11
0.8031666535433071
21
0.4026339763779527
0
LINE
8
BLACK
6
CONTINUOUS
10
0.8031666535433071
20
0.4026339763779527
11
0.8026339763779528
21
0.4031666535433071
0
LINE
8
BLACK
6
CONTINUOUS
10
0.8026339763779528
20
0.4031666535433071
11
0.8025590551181102
21
0.4035433070866142
0
LINE
8
BLACK
6
CONTINUOUS
10
0.8025590551181102
20
0.4035433070866142
11
0.8025590551181102
21
1.5964566929133859
0
LINE
8
BLACK
6
CONTINUOUS
10
0.8025590551181102
20
1.5964566929133859
11
0.8026339763779528
21
1.5968333464566928
0
LINE
8
BLACK
6
CONTINUOUS
10
0.8026339763779528
20
1.5968333464566928
11
0.8031666535433071
21
1.5973660236220473
0
LINE
8
BLACK
6
CONTINUOUS
10
0.8031666535433071
20
1.5973660236220473
11
0.8035433070866141
21
1.5974409448818898
0
LINE
8
BLACK
6
CONTINUOUS
10
0.8035433070866141
20
1.5974409448818898
11
1.9964566929133858
21
1.5974409448818898
0
LINE
8
BLACK
6
CONTINUOUS
10
1.9964566929133858
20
1.5974409448818898
11
1.996833346456693
21
1.5973660236220473
0
LINE
8
BLACK
6
CONTINUOUS
10
0.8045275590551181
20
1.5954724409448819
11
0.8045275590551181
21
0.4045275590551181
0
LINE
8
BLACK
6
CONTINUOUS
10
0.8045275590551181
20
0.4045275590551181
11
1.9954724409448819
21
0.4045275590551181
0
LINE
8
BLACK
6
CONTINUOUS
10
1.9954724409448819
20
0.4045275590551181
11
1.9954724409448819
21
1.5954724409448819
0
LINE
8
BLACK
6
CONTINUOUS
10
1.9954724409448819
20
1.5954724409448819
11
0.8045275590551181
21
1.5954724409448819
0
LINE
8
BLACK
6
CONTINUOUS
10
2.0558884645669293
20
1.6564211417322834
11
2.0564211417322835
21
1.6558884645669292
0
LINE
8
BLACK
6
CONTINUOUS
10
2.0564211417322835
20
1.6558884645669292
11
2.0564960629921258
21
1.655511811023622
0
LINE
8
BLACK
6
CONTINUOUS
10
2.0564960629921258
20
1.655511811023622
11
2.0564960629921258
21
0.344488188976378
0
LINE
8
BLACK
6
CONTINUOUS
10
2.0564960629921258
20
0.344488188976378
11
2.0564211417322835
21
0.3441115354330709
0
LINE
8
BLACK
6
CONTINUOUS
10
2.0564211417322835
20
0.3441115354330709
11
2.0558884645669293
21
0.3435788582677165
0
LINE
8
BLACK
6
CONTINUOUS
10
2.0558884645669293
20
0.3435788582677165
11
2.0555118110236221
21
0.343503937007874
0
LINE
8
BLACK
6
CONTINUOUS
10
2.0555118110236221
20
0.343503937007874
11
0.7444881889763779
21
0.343503937007874
0
LINE
8
BLACK
6
CONTINUOUS
10
0.7444881889763779
20
0.343503937007874
11
0.7441115354330708
21
0.3435788582677165
0
LINE
8
BLACK
6
CONTINUOUS
10
0.7441115354330708
20
0.3435788582677165
11
0.7435788582677165
21
0.3441115354330709
0
LINE
8
BLACK
6
CONTINUOUS
10
0.7435788582677165
20
0.3441115354330709
11
0.743503937007874
21
0.344488188976378
0
LINE
8
BLACK
6
CONTINUOUS
10
0.743503937007874
20
0.344488188976378
11
0.743503937007874
21
1.655511811023622
0
LINE
8
BLACK
6
CONTINUOUS
10
0.743503937007874
20
1.655511811023622
11
0.7435788582677165
21
1.6558884645669292
0
LINE
8
BLACK
6
CONTINUOUS
10
0.7435788582677165
20
1.6558884645669292
11
0.7441115354330708
21
1.6564211417322834
0
LINE
8
BLACK
6
CONTINUOUS
10
0.7441115354330708
20
1.6564211417322834
11
0.7444881889763779
21
1.6564960629921259
0
LINE
8
BLACK
6
CONTINUOUS
10
0.7444881889763779
20
1.6564960629921259
11
2.0555118110236221
21
1.6564960629921259
0
LINE
8
BLACK
6
CONTINUOUS
10
2.0555118110236221
20
1.6564960629921259
11
2.0558884645669293
21
1.6564211417322834
0
LINE
8
BLACK
6
CONTINUOUS
10
0.7454724409448819
20
1.6545275590551181
11
0.7454724409448819
21
0.3454724409448819
0
LINE
8
BLACK
6
CONTINUOUS
10
0.7454724409448819
20
0.3454724409448819
11
2.054527559055118
21
0.3454724409448819
0
LINE
8
BLACK
6
CONTINUOUS
10
2.054527559055118
20
0.3454724409448819
11
2.054527559055118
21
1.6545275590551181
0
LINE
8
BLACK
6
CONTINUOUS
10
2.054527559055118
20
1.6545275590551181
11
0.7454724409448819
21
1.6545275590551181
0
LINE
8
BLACK
6
CONTINUOUS
10
0.3187165748031496
20
0.709434251968504
11
0.3271683464566929
21
0.7071696062992125
0
LINE
8
BLACK
6
CONTINUOUS
10
0.3271683464566929
20
0.7071696062992125
11
0.3350984251968504
21
0.7034717322834646
0
LINE
8
BLACK
6
CONTINUOUS
10
0.3350984251968504
20
0.7034717322834646
11
0.342265905511811
21
0.698453031496063
0
LINE
8
BLACK
6
CONTINUOUS
10
0.342265905511811
20
0.698453031496063
11
0.348453031496063
21
0.692265905511811
0
LINE
8
BLACK
6
CONTINUOUS
10
0.348453031496063
20
0.692265905511811
11
0.3534717322834646
21
0.6850984251968504
0
LINE
8
BLACK
6
CONTINUOUS
10
0.3534717322834646
20
0.6850984251968504
11
0.3571696062992126
21
0.6771683464566929
0
LINE
8
BLACK
6
CONTINUOUS
10
0.3571696062992126
20
0.6771683464566929
11
0.3594342519685039
21
0.6687165748031496
0
LINE
8
BLACK
6
CONTINUOUS
10
0.3594342519685039
20
0.6687165748031496
11
0.3601968503937008
21
0.66
0
LINE
8
BLACK
6
CONTINUOUS
10
0.3601968503937008
20
0.66
11
0.3594342519685039
21
0.6512834251968503
0
LINE
8
BLACK
6
CONTINUOUS
10
0.3594342519685039
20
0.6512834251968503
11
0.3571696062992126
21
0.6428316535433071
0
LINE
8
BLACK
6
CONTINUOUS
10
0.3571696062992126
20
0.6428316535433071
11
0.3534717322834646
21
0.6349015748031496
0
LINE
8
BLACK
6
CONTINUOUS
10
0.3534717322834646
20
0.6349015748031496
11
0.348453031496063
21
0.627734094488189
0
LINE
8
BLACK
6
CONTINUOUS
10
0.348453031496063
20
0.627734094488189
11
0.342265905511811
21
0.621546968503937
0
LINE
8
BLACK
6
CONTINUOUS
10
0.342265905511811
20
0.621546968503937
11
0.3350984251968504
21
0.6165282677165355
0
LINE
8
BLACK
6
CONTINUOUS
10
0.3350984251968504
20
0.6165282677165355
11
0.3271683464566929
21
0.6128303937007874
0
LINE
8
BLACK
6
CONTINUOUS
10
0.3271683464566929
20
0.6128303937007874
11
0.3187165748031496
21
0.6105657480314961
0
LINE
8
BLACK
6
CONTINUOUS
10
0.3187165748031496
20
0.6105657480314961
11
0.31
21
0.6098031496062992
0
LINE
8
BLACK
6
CONTINUOUS
10
0.31
20
0.6098031496062992
11
0.3012834251968504
21
0.6105657480314961
0
LINE
8
BLACK
6
CONTINUOUS
10
0.3012834251968504
20
0.6105657480314961
11
0.2928316535433071
21
0.6128303937007874
0
LINE
8
BLACK
6
CONTINUOUS
10
0.2928316535433071
20
0.6128303937007874
11
0.2849015748031496
21
0.6165282677165355
0
LINE
8
BLACK
6
CONTINUOUS
10
0.2849015748031496
20
0.6165282677165355
11
0.277734094488189
21
0.621546968503937
0
LINE
8
BLACK
6
CONTINUOUS
10
0.277734094488189
20
0.621546968503937
11
0.271546968503937
21
0.627734094488189
0
LINE
8
BLACK
6
CONTINUOUS
10
0.271546968503937
20
0.627734094488189
11
0.2665282677165354
21
0.6349015748031496
0
LINE
8
BLACK
6
CONTINUOUS
10
0.2665282677165354
20
0.6349015748031496
11
0.2628303937007874
21
0.6428316535433071
0
LINE
8
BLACK
6
CONTINUOUS
10
0.2628303937007874
20
0.6428316535433071
11
0.2605657480314961
21
0.6512834251968503
0
LINE
8
BLACK
6
CONTINUOUS
10
0.2605657480314961
20
0.6512834251968503
11
0.2598031496062992
21
0.66
0
LINE
8
BLACK
6
CONTINUOUS
10
0.2598031496062992
20
0.66
11
0.2605657480314961
21
0.6687165748031496
0
LINE
8
BLACK
6
CONTINUOUS
10
0.2605657480314961
20
0.6687165748031496
11
0.2628303937007874
21
0.6771683464566929
0
LINE
8
BLACK
6
CONTINUOUS
10
0.2628303937007874
20
0.6771683464566929
11
0.2665282677165354
21
0.6850984251968504
0
LINE
8
BLACK
6
CONTINUOUS
10
0.2665282677165354
20
0.6850984251968504
11
0.271546968503937
21
0.692265905511811
0
LINE
8
BLACK
6
CONTINUOUS
10
0.271546968503937
20
0.692265905511811
11
0.277734094488189
21
0.698453031496063
0
LINE
8
BLACK
6
CONTINUOUS
10
0.277734094488189
20
0.698453031496063
11
0.2849015748031496
21
0.7034717322834646
0
LINE
8
BLACK
6
CONTINUOUS
10
0.2849015748031496
20
0.7034717322834646
11
0.2928316535433071
21
0.7071696062992125
0
LINE
8
BLACK
6
CONTINUOUS
10
0.2928316535433071
20
0.7071696062992125
11
0.3012834251968504
21
0.709434251968504
0
LINE
8
BLACK
6
CONTINUOUS
10
0.3012834251968504
20
0.709434251968504
11
0.31
21
0.7101968503937007
0
LINE
8
BLACK
6
CONTINUOUS
10
0.31
20
0.7101968503937007
11
0.3187165748031496
21
0.709434251968504
0
LINE
8
BLACK
6
CONTINUOUS
10
0.2623229527559055
20
0.6515932283464567
11
0.2645070866141732
21
0.6434419291338582
0
LINE
8
BLACK
6
CONTINUOUS
10
0.2645070866141732
20
0.6434419291338582
11
0.2680735039370079
21
0.6357937007874016
0
LINE
8
BLACK
6
CONTINUOUS
10
0.2680735039370079
20
0.6357937007874016
11
0.2729138188976378
21
0.6288810236220472
0
LINE
8
BLACK
6
CONTINUOUS
10
0.2729138188976378
20
0.6288810236220472
11
0.2788810236220473
21
0.6229138188976377
0
LINE
8
BLACK
6
CONTINUOUS
10
0.2788810236220473
20
0.6229138188976377
11
0.2857937007874016
21
0.6180735039370079
0
LINE
8
BLACK
6
CONTINUOUS
10
0.2857937007874016
20
0.6180735039370079
11
0.2934419291338582
21
0.6145070866141732
0
LINE
8
BLACK
6
CONTINUOUS
10
0.2934419291338582
20
0.6145070866141732
11
0.3015932283464567
21
0.6123229527559055
0
LINE
8
BLACK
6
CONTINUOUS
10
0.3015932283464567
20
0.6123229527559055
11
0.31
21
0.6115874409448818
0
LINE
8
BLACK
6
CONTINUOUS
10
0.31
20
0.6115874409448818
11
0.3184067716535433
21
0.6123229527559055
0
LINE
8
BLACK
6
CONTINUOUS
10
0.3184067716535433
20
0.6123229527559055
11
0.3265580708661417
21
0.6145070866141732
0
LINE
8
BLACK
6
CONTINUOUS
10
0.3265580708661417
20
0.6145070866141732
11
0.3342062992125984
21
0.6180735039370079
0
LINE
8
BLACK
6
CONTINUOUS
10
0.3342062992125984
20
0.6180735039370079
11
0.3411189763779527
21
0.6229138188976377
0
LINE
8
BLACK
6
CONTINUOUS
10
0.3411189763779527
20
0.6229138188976377
11
0.3470861811023622
21
0.6288810236220472
0
LINE
8
BLACK
6
CONTINUOUS
10
0.3470861811023622
20
0.6288810236220472
11
0.3519264960629921
21
0.6357937007874016
0
LINE
8
BLACK
6
CONTINUOUS
10
0.3519264960629921
20
0.6357937007874016
11
0.3554929133858268
21
0.6434419291338582
0
LINE
8
BLACK
6
CONTINUOUS
10
0.3554929133858268
20
0.6434419291338582
11
0.3576770472440945
21
0.6515932283464567
0
LINE
8
BLACK
6
CONTINUOUS
10
0.3576770472440945
20
0.6515932283464567
11
0.3584125590551181
21
0.66
0
LINE
8
BLACK
6
CONTINUOUS
10
0.3584125590551181
20
0.66
11
0.3576770472440945
21
0.6684067716535433
0
LINE
8
BLACK
6
CONTINUOUS
10
0.3576770472440945
20
0.6684067716535433
11
0.3554929133858268
21
0.6765580708661417
0
LINE
8
BLACK
6
CONTINUOUS
10
0.3554929133858268
20
0.6765580708661417
11
0.3519264960629921
21
0.6842062598425197
0
LINE
8
BLACK
6
CONTINUOUS
10
0.3519264960629921
20
0.6842062598425197
11
0.3470861811023622
21
0.6911189763779527
0
LINE
8
BLACK
6
CONTINUOUS
10
0.3470861811023622
20
0.6911189763779527
11
0.3411189763779527
21
0.6970861811023622
0
LINE
8
BLACK
6
CONTINUOUS
10
0.3411189763779527
20
0.6970861811023622
11
0.3342062992125984
21
0.7019264960629921
0
LINE
8
BLACK
6
CONTINUOUS
10
0.3342062992125984
20
0.7019264960629921
11
0.3265580708661417
21
0.7054929133858268
0
LINE
8
BLACK
6
CONTINUOUS
10
0.3265580708661417
20
0.7054929133858268
11
0.3184067716535433
21
0.7076770472440945
0
LINE
8
BLACK
6
CONTINUOUS
10
0.3184067716535433
20
0.7076770472440945
11
0.31
21
0.7084125590551181
0
LINE
8
BLACK
6
CONTINUOUS
10
0.31
20
0.7084125590551181
11
0.3015932283464567
21
0.7076770472440945
0
LINE
8
BLACK
6
CONTINUOUS
10
0.3015932283464567
20
0.7076770472440945
11
0.2934419291338582
21
0.7054929133858268
0
LINE
8
BLACK
6
CONTINUOUS
10
0.2934419291338582
20
0.7054929133858268
11
0.2857937401574803
21
0.7019264960629921
0
LINE
8
BLACK
6
CONTINUOUS
10
0.2857937401574803
20
0.7019264960629921
11
0.2788810236220473
21
0.6970861811023622
0
LINE
8
BLACK
6
CONTINUOUS
10
0.2788810236220473
20
0.6970861811023622
11
0.2729138188976378
21
0.6911189763779527
0
LINE
8
BLACK
6
CONTINUOUS
10
0.2729138188976378
20
0.6911189763779527
11
0.2680735039370079
21
0.6842062598425197
0
LINE
8
BLACK
6
CONTINUOUS
10
0.2680735039370079
20
0.6842062598425197
11
0.2645070866141732
21
0.6765580708661417
0
LINE
8
BLACK
6
CONTINUOUS
10
0.2645070866141732
20
0.6765580708661417
11
0.2623229527559055
21
0.6684067716535433
0
LINE
8
BLACK
6
CONTINUOUS
10
0.2623229527559055
20
0.6684067716535433
11
0.2615874409448819
21
0.66
0
LINE
8
BLACK
6
CONTINUOUS
10
0.2615874409448819
20
0.66
11
0.2623229527559055
21
0.6515932283464567
0
LINE
8
BLACK
6
CONTINUOUS
10
2.5236837007874016
20
0.9563424015748031
11
2.5242163779527558
21
0.9558097244094488
0
LINE
8
BLACK
6
CONTINUOUS
10
2.5242163779527558
20
0.9558097244094488
11
2.5242912992125985
21
0.9554330708661417
0
LINE
8
BLACK
6
CONTINUOUS
10
2.5242912992125985
20
0.9554330708661417
11
2.5242912992125985
21
0.7467716535433071
0
LINE
8
BLACK
6
CONTINUOUS
10
2.5242912992125985
20
0.7467716535433071
11
2.5242163779527558
21
0.746395
0
LINE
8
BLACK
6
CONTINUOUS
10
2.5242163779527558
20
0.746395
11
2.5236837007874016
21
0.7458623228346456
0
LINE
8
BLACK
6
CONTINUOUS
10
2.5236837007874016
20
0.7458623228346456
11
2.5233070472440944
21
0.7457874015748032
0
LINE
8
BLACK
6
CONTINUOUS
10
2.5233070472440944
20
0.7457874015748032
11
2.4366929527559056
21
0.7457874015748032
0
LINE
8
BLACK
6
CONTINUOUS
10
2.4366929527559056
20
0.7457874015748032
11
2.4363162992125984
21
0.7458623228346456
0
LINE
8
BLACK
6
CONTINUOUS
10
2.4363162992125984
20
0.7458623228346456
11
2.4357836220472442
21
0.746395
0
LINE
8
BLACK
6
CONTINUOUS
10
2.4357836220472442
20
0.746395
11
2.4357087007874014
21
0.7467716535433071
0
LINE
8
BLACK
6
CONTINUOUS
10
2.4357087007874014
20
0.7467716535433071
11
2.4357087007874014
21
0.9554330708661417
0
LINE
8
BLACK
6
CONTINUOUS
10
2.4357087007874014
20
0.9554330708661417
11
2.4357836220472442
21
0.9558097244094488
0
LINE
8
BLACK
6
CONTINUOUS
10
2.4357836220472442
20
0.9558097244094488
11
2.4363162992125984
21
0.9563424015748031
0
LINE
8
BLACK
6
CONTINUOUS
10
2.4363162992125984
20
0.9563424015748031
11
2.4366929527559056
21
0.9564173228346456
0
LINE
8
BLACK
6
CONTINUOUS
10
2.4366929527559056
20
0.9564173228346456
11
2.5233070472440944
21
0.9564173228346456
0
LINE
8
BLACK
6
CONTINUOUS
10
2.5233070472440944
20
0.9564173228346456
11
2.5236837007874016
21
0.9563424015748031
0
LINE
8
BLACK
6
CONTINUOUS
10
2.4376772047244093
20
0.9544488188976378
11
2.4376772047244093
21
0.747755905511811
0
LINE
8
BLACK
6
CONTINUOUS
10
2.4376772047244093
20
0.747755905511811
11
2.5223227952755907
21
0.747755905511811
0
LINE
8
BLACK
6
CONTINUOUS
10
2.5223227952755907
20
0.747755905511811
11
2.5223227952755907
21
0.9544488188976378
0
LINE
8
BLACK
6
CONTINUOUS
10
2.5223227952755907
20
0.9544488188976378
11
2.4376772047244093
21
0.9544488188976378
0
LINE
8
BLACK
6
CONTINUOUS
10
0.6386443700787402
20
1.0296494881889764
11
0.6391770472440945
21
1.029116811023622
0
LINE
8
BLACK
6
CONTINUOUS
10
0.6391770472440945
20
1.029116811023622
11
0.639251968503937
21
1.028740157480315
0
LINE
8
BLACK
6
CONTINUOUS
10
0.639251968503937
20
1.028740157480315
11
0.639251968503937
21
0.971259842519685
0
LINE
8
BLACK
6
CONTINUOUS
10
0.639251968503937
20
0.971259842519685
11
0.6391770472440945
21
0.9708831889763779
0
LINE
8
BLACK
6
CONTINUOUS
10
0.6391770472440945
20
0.9708831889763779
11
0.6386443700787402
21
0.9703505118110236
0
LINE
8
BLACK
6
CONTINUOUS
10
0.6386443700787402
20
0.9703505118110236
11
0.638267716535433
21
0.9702755905511811
0
LINE
8
BLACK
6
CONTINUOUS
10
0.638267716535433
20
0.9702755905511811
11
0.5217322834645669
21
0.9702755905511811
0
LINE
8
BLACK
6
CONTINUOUS
10
0.5217322834645669
20
0.9702755905511811
11
0.5213556299212598
21
0.9703505118110236
0
LINE
8
BLACK
6
CONTINUOUS
10
0.5213556299212598
20
0.9703505118110236
11
0.5208229527559055
21
0.9708831889763779
0
LINE
8
BLACK
6
CONTINUOUS
10
0.5208229527559055
20
0.9708831889763779
11
0.520748031496063
21
0.971259842519685
0
LINE
8
BLACK
6
CONTINUOUS
10
0.520748031496063
20
0.971259842519685
11
0.520748031496063
21
1.028740157480315
0
LINE
8
BLACK
6
CONTINUOUS
10
0.520748031496063
20
1.028740157480315
11
0.5208229527559055
21
1.029116811023622
0
LINE
8
BLACK
6
CONTINUOUS
10
0.5208229527559055
20
1.029116811023622
11
0.5213556299212598
21
1.0296494881889764
0
LINE
8
BLACK
6
CONTINUOUS
10
0.5213556299212598
20
1.0296494881889764
11
0.5217322834645669
21
1.0297244094488189
0
LINE
8
BLACK
6
CONTINUOUS
10
0.5217322834645669
20
1.0297244094488189
11
0.638267716535433
21
1.0297244094488189
0
LINE
8
BLACK
6
CONTINUOUS
10
0.638267716535433
20
1.0297244094488189
11
0.6386443700787402
21
1.0296494881889764
0
LINE
8
BLACK
6
CONTINUOUS
10
0.5227165354330708
20
1.0277559055118111
11
0.5227165354330708
21
0.9722440944881889
0
LINE
8
BLACK
6
CONTINUOUS
10
0.5227165354330708
20
0.9722440944881889
11
0.6372834645669291
21
0.9722440944881889
0
LINE
8
BLACK
6
CONTINUOUS
10
0.6372834645669291
20
0.9722440944881889
11
0.6372834645669291
21
1.0277559055118111
0
LINE
8
BLACK
6
CONTINUOUS
10
0.6372834645669291
20
1.0277559055118111
11
0.5227165354330708
21
1.0277559055118111
0
LINE
8
BLACK
6
CONTINUOUS
10
2.1687165748031494
20
1.729434251968504
11
2.1771683464566927
21
1.7271696062992126
0
LINE
8
BLACK
6
CONTINUOUS
10
2.1771683464566927
20
1.7271696062992126
11
2.1850984251968502
21
1.7234717322834645
0
LINE
8
BLACK
6
CONTINUOUS
10
2.1850984251968502
20
1.7234717322834645
11
2.1922659055118108
21
1.7184530314960629
0
LINE
8
BLACK
6
CONTINUOUS
10
2.1922659055118108
20
1.7184530314960629
11
2.1984530314960629
21
1.712265905511811
0
LINE
8
BLACK
6
CONTINUOUS
10
2.1984530314960629
20
1.712265905511811
11
2.2034717322834645
21
1.7050984251968504
0
LINE
8
BLACK
6
CONTINUOUS
10
2.2034717322834645
20
1.7050984251968504
11
2.2071696062992125
21
1.6971683464566929
0
LINE
8
BLACK
6
CONTINUOUS
10
2.2071696062992125
20
1.6971683464566929
11
2.2094342519685037
21
1.6887165748031496
0
LINE
8
BLACK
6
CONTINUOUS
10
2.2094342519685037
20
1.6887165748031496
11
2.2101968503937006
21
1.6799999999999999
0
LINE
8
BLACK
6
CONTINUOUS
10
2.2101968503937006
20
1.6799999999999999
11
2.2094342519685037
21
1.6712834251968502
0
LINE
8
BLACK
6
CONTINUOUS
10
2.2094342519685037
20
1.6712834251968502
11
2.2071696062992125
21
1.662831653543307
0
LINE
8
BLACK
6
CONTINUOUS
10
2.2071696062992125
20
1.662831653543307
11
2.2034717322834645
21
1.6549015748031495
0
LINE
8
BLACK
6
CONTINUOUS
10
2.2034717322834645
20
1.6549015748031495
11
2.1984530314960629
21
1.6477340944881889
0
LINE
8
BLACK
6
CONTINUOUS
10
2.1984530314960629
20
1.6477340944881889
11
2.1922659055118108
21
1.641546968503937
0
LINE
8
BLACK
6
CONTINUOUS
10
2.1922659055118108
20
1.641546968503937
11
2.1850984251968502
21
1.6365282677165354
0
LINE
8
BLACK
6
CONTINUOUS
10
2.1850984251968502
20
1.6365282677165354
11
2.1771683464566927
21
1.6328303937007873
0
LINE
8
BLACK
6
CONTINUOUS
10
2.1771683464566927
20
1.6328303937007873
11
2.1687165748031494
21
1.6305657480314961
0
LINE
8
BLACK
6
CONTINUOUS
10
2.1687165748031494
20
1.6305657480314961
11
2.1600000000000001
21
1.6298031496062992
0
LINE
8
BLACK
6
CONTINUOUS
10
2.1600000000000001
20
1.6298031496062992
11
2.1512834251968505
21
1.6305657480314961
0
LINE
8
BLACK
6
CONTINUOUS
10
2.1512834251968505
20
1.6305657480314961
11
2.1428316535433072
21
1.6328303937007873
0
LINE
8
BLACK
6
CONTINUOUS
10
2.1428316535433072
20
1.6328303937007873
11
2.1349015748031497
21
1.6365282677165354
0
LINE
8
BLACK
6
CONTINUOUS
10
2.1349015748031497
20
1.6365282677165354
11
2.1277340944881891
21
1.641546968503937
0
LINE
8
BLACK
6
CONTINUOUS
10
2.1277340944881891
20
1.641546968503937
11
2.121546968503937
21
1.6477340944881889
0
LINE
8
BLACK
6
CONTINUOUS
10
2.121546968503937
20
1.6477340944881889
11
2.1165282677165353
21
1.6549015748031495
0
LINE
8
BLACK
6
CONTINUOUS
10
2.1165282677165353
20
1.6549015748031495
11
2.1128303937007873
21
1.662831653543307
0
LINE
8
BLACK
6
CONTINUOUS
10
2.1128303937007873
20
1.662831653543307
11
2.1105657480314961
21
1.6712834251968502
0
LINE
8
BLACK
6
CONTINUOUS
10
2.1105657480314961
20
1.6712834251968502
11
2.1098031496062992
21
1.6799999999999999
0
LINE
8
BLACK
6
CONTINUOUS
10
2.1098031496062992
20
1.6799999999999999
11
2.1105657480314961
21
1.6887165748031496
0
LINE
8
BLACK
6
CONTINUOUS
10
2.1105657480314961
20
1.6887165748031496
11
2.1128303937007873
21
1.6971683464566929
0
LINE
8
BLACK
6
CONTINUOUS
10
2.1128303937007873
20
1.6971683464566929
11
2.1165282677165353
21
1.7050984251968504
0
LINE
8
BLACK
6
CONTINUOUS
10
2.1165282677165353
20
1.7050984251968504
11
2.121546968503937
21
1.712265905511811
0
LINE
8
BLACK
6
CONTINUOUS
10
2.121546968503937
20
1.712265905511811
11
2.1277340944881891
21
1.7184530314960629
0
LINE
8
BLACK
6
CONTINUOUS
10
2.1277340944881891
20
1.7184530314960629
11
2.1349015748031497
21
1.7234717322834645
0
LINE
8
BLACK
6
CONTINUOUS
10
2.1349015748031497
20
1.7234717322834645
11
2.1428316535433072
21
1.7271696062992126
0
LINE
8
BLACK
6
CONTINUOUS
10
2.1428316535433072
20
1.7271696062992126
11
2.1512834251968505
21
1.729434251968504
0
LINE
8
BLACK
6
CONTINUOUS
10
2.1512834251968505
20
1.729434251968504
11
2.1600000000000001
21
1.7301968503937009
0
LINE
8
BLACK
6
CONTINUOUS
10
2.1600000000000001
20
1.7301968503937009
11
2.1687165748031494
21
1.729434251968504
0
LINE
8
BLACK
6
CONTINUOUS
10
2.1123229527559055
20
1.6715932283464567
11
2.1145070866141733
21
1.6634419291338582
0
LINE
8
BLACK
6
CONTINUOUS
10
2.1145070866141733
20
1.6634419291338582
11
2.118073503937008
21
1.6557937007874015
0
LINE
8
BLACK
6
CONTINUOUS
10
2.118073503937008
20
1.6557937007874015
11
2.1229138188976377
21
1.6488810236220472
0
LINE
8
BLACK
6
CONTINUOUS
10
2.1229138188976377
20
1.6488810236220472
11
2.1288810236220472
21
1.6429138188976378
0
LINE
8
BLACK
6
CONTINUOUS
10
2.1288810236220472
20
1.6429138188976378
11
2.1357937007874015
21
1.6380735039370078
0
LINE
8
BLACK
6
CONTINUOUS
10
2.1357937007874015
20
1.6380735039370078
11
2.143441929133858
21
1.6345070866141731
0
LINE
8
BLACK
6
CONTINUOUS
10
2.143441929133858
20
1.6345070866141731
11
2.1515932283464565
21
1.6323229527559056
0
LINE
8
BLACK
6
CONTINUOUS
10
2.1515932283464565
20
1.6323229527559056
11
2.1600000000000001
21
1.6315874409448818
0
LINE
8
BLACK
6
CONTINUOUS
10
2.1600000000000001
20
1.6315874409448818
11
2.1684067716535433
21
1.6323229527559056
0
LINE
8
BLACK
6
CONTINUOUS
10
2.1684067716535433
20
1.6323229527559056
11
2.1765580708661418
21
1.6345070866141731
0
LINE
8
BLACK
6
CONTINUOUS
10
2.1765580708661418
20
1.6345070866141731
11
2.1842062992125983
21
1.6380735039370078
0
LINE
8
BLACK
6
CONTINUOUS
10
2.1842062992125983
20
1.6380735039370078
11
2.1911189763779526
21
1.6429138188976378
0
LINE
8
BLACK
6
CONTINUOUS
10
2.1911189763779526
20
1.6429138188976378
11
2.1970861811023621
21
1.6488810236220472
0
LINE
8
BLACK
6
CONTINUOUS
10
2.1970861811023621
20
1.6488810236220472
11
2.2019264960629923
21
1.6557937007874015
0
LINE
8
BLACK
6
CONTINUOUS
10
2.2019264960629923
20
1.6557937007874015
11
2.2054929133858265
21
1.6634419291338582
0
LINE
8
BLACK
6
CONTINUOUS
10
2.2054929133858265
20
1.6634419291338582
11
2.2076770472440943
21
1.6715932283464567
0
LINE
8
BLACK
6
CONTINUOUS
10
2.2076770472440943
20
1.6715932283464567
11
2.2084125590551182
21
1.6799999999999999
0
LINE
8
BLACK
6
CONTINUOUS
10
2.2084125590551182
20
1.6799999999999999
11
2.2076770472440943
21
1.6884067716535434
0
LINE
8
BLACK
6
CONTINUOUS
10
2.2076770472440943
20
1.6884067716535434
11
2.2054929133858265
21
1.6965580708661416
0
LINE
8
BLACK
6
CONTINUOUS
10
2.2054929133858265
20
1.6965580708661416
11
2.2019264960629923
21
1.7042062598425196
0
LINE
8
BLACK
6
CONTINUOUS
10
2.2019264960629923
20
1.7042062598425196
11
2.1970861811023621
21
1.7111189763779526
0
LINE
8
BLACK
6
CONTINUOUS
10
2.1970861811023621
20
1.7111189763779526
11
2.1911189763779526
21
1.7170861811023621
0
LINE
8
BLACK
6
CONTINUOUS
10
2.1911189763779526
20
1.7170861811023621
11
2.1842062992125983
21
1.7219264960629921
0
LINE
8
BLACK
6
CONTINUOUS
10
2.1842062992125983
20
1.7219264960629921
11
2.1765580708661418
21
1.7254929133858268
0
LINE
8
BLACK
6
CONTINUOUS
10
2.1765580708661418
20
1.7254929133858268
11
2.1684067716535433
21
1.7276770472440945
0
LINE
8
BLACK
6
CONTINUOUS
10
2.1684067716535433
20
1.7276770472440945
11
2.1600000000000001
21
1.728412559055118
0
LINE
8
BLACK
6
CONTINUOUS
10
2.1600000000000001
20
1.728412559055118
11
2.1515932283464565
21
1.7276770472440945
0
LINE
8
BLACK
6
CONTINUOUS
10
2.1515932283464565
20
1.7276770472440945
11
2.143441929133858
21
1.7254929133858268
0
LINE
8
BLACK
6
CONTINUOUS
10
2.143441929133858
20
1.7254929133858268
11
2.1357937401574802
21
1.7219264960629921
0
LINE
8
BLACK
6
CONTINUOUS
10
2.1357937401574802
20
1.7219264960629921
11
2.1288810236220472
21
1.7170861811023621
0
LINE
8
BLACK
6
CONTINUOUS
10
2.1288810236220472
20
1.7170861811023621
11
2.1229138188976377
21
1.7111189763779526
0
LINE
8
BLACK
6
CONTINUOUS
10
2.1229138188976377
20
1.7111189763779526
11
2.118073503937008
21
1.7042062598425196
0
LINE
8
BLACK
6
CONTINUOUS
10
2.118073503937008
20
1.7042062598425196
11
2.1145070866141733
21
1.6965580708661416
0
LINE
8
BLACK
6
CONTINUOUS
10
2.1145070866141733
20
1.6965580708661416
11
2.1123229527559055
21
1.6884067716535434
0
LINE
8
BLACK
6
CONTINUOUS
10
2.1123229527559055
20
1.6884067716535434
11
2.111587440944882
21
1.6799999999999999
0
LINE
8
BLACK
6
CONTINUOUS
10
2.111587440944882
20
1.6799999999999999
11
2.1123229527559055
21
1.6715932283464567
0
CIRCLE
8
BLACK
10
2.3999999999999999
20
0.4
40
0.0068897637795276
0
CIRCLE
8
BLACK
10
0.4
20
0.4
40
0.0068897637795276
0
CIRCLE
8
BLACK
10
0.4
20
1.5999999999999999
40
0.0068897637795276
0
CIRCLE
8
BLACK
10
2.3600000393700786
20
1.3599999999999999
40
0.0068897637795276
0
CIRCLE
8
BLACK
10
2.259999960629921
20
1.3599999999999999
40
0.0068897637795276
0
CIRCLE
8
BLACK
10
2.3600000393700786
20
1.26
40
0.0068897637795276
0
CIRCLE
8
BLACK
10
2.259999960629921
20
1.26
40
0.0068897637795276
0
CIRCLE
8
BLACK
10
2.3999999999999999
20
1.5999999999999999
40
0.0068897637795276
0
CIRCLE
8
BLACK
10
2.3600000393700786
20
1.0600000000000001
40
0.0068897637795276
0
CIRCLE
8
BLACK
10
2.259999960629921
20
1.0600000000000001
40
0.0068897637795276
0
CIRCLE
8
BLACK
10
2.2599999999999998
20
0.89
40
0.0068897637795276
0
CIRCLE
8
BLACK
10
2.3599999999999999
20
0.89
40
0.0068897637795276
0
CIRCLE
8
BLACK
10
2.2599999999999998
20
0.79
40
0.0068897637795276
0
CIRCLE
8
BLACK
10
2.3599999999999999
20
0.79
40
0.0068897637795276
0
CIRCLE
8
BLACK
10
2.2599999999999998
20
0.6899999999999999
40
0.0068897637795276
0
CIRCLE
8
BLACK
10
2.3599999999999999
20
0.6899999999999999
40
0.0068897637795276
0
CIRCLE
8
BLACK
10
2.3600000393700786
20
1.1599999999999999
40
0.0068897637795276
0
CIRCLE
8
BLACK
10
2.259999960629921
20
1.1599999999999999
40
0.0068897637795276
0
CIRCLE
8
BLACK
10
0.439
20
1.
40
0.0068897637795276
0
CIRCLE
8
BLACK
10
0.339
20
1.0999999999999999
40
0.0068897637795276
0
CIRCLE
8
BLACK
10
0.339
20
0.9
40
0.0068897637795276
0
CIRCLE
8
BLACK
10
0.539
20
1.0999999999999999
40
0.0068897637795276
0
CIRCLE
8
BLACK
10
0.539
20
0.9
40
0.0068897637795276
0
CIRCLE
8
BLACK
10
1.74
20
1.3499999999999999
40
0.0068897637795276
0
CIRCLE
8
BLACK
10
1.8399999999999999
20
1.3499999999999999
40
0.0068897637795276
  0
ENDSEC
  0
EOF
