  0
SECTION
  2
HEADER
  9
$ANGBASE
  50
0.0
  9
$ANGDIR
  70
1
  9
$MEASUREMENT
  70
0
  0
ENDSEC
  0
SECTION
  2
TABLES
  0
TABLE
  2
LTYPE
  70
4
  0
LTYPE
  5
40F
  2
CONTINUOUS
  70
0
  3
Solid line
  72
65
  73
0
  40
0.0
  0
LTYPE
  5
410
  2
DASHDOT
 70
0
  3
Dash Dot ____ _ ____ _
 72
65
 73
4
 40
2.0
 49
1.25
 49
-0.25
 49
0.25
 49
-0.25
  0
LTYPE
  5
411
  2
DASHED
 70
0
  3
Dashed __ __ __ __ __
 72
65
 73
2
 40
0.75
 49
0.5
 49
-0.25
  0
LTYPE
  5
43B
  2
DOTTED
 70
0
  3
Dotted .  .  .  .
 72
65
 73
2
 40
0.2
 49
0.0
 49
-0.2
  0
ENDTAB
  0
TABLE
  2
STYLE
  70
4
  0
STYLE
  2
KICAD
  70
0
  40
0
  41
1
  42
1
  50
0
  71
0
  3
isocp.shx
  0
STYLE
  2
KICADB
  70
0
  40
0
  41
1
  42
1
  50
0
  71
0
  3
isocp.shx
  0
STYLE
  2
KICADI
  70
0
  40
0
  41
1
  42
1
  50
15
  71
0
  3
isocp.shx
  0
STYLE
  2
KICADBI
  70
0
  40
0
  41
1
  42
1
  50
15
  71
0
  3
isocp.shx
  0
ENDTAB
  0
TABLE
  2
LAYER
  70
1
  0
LAYER
  2
BLACK
  70
0
  62
7
  6
CONTINUOUS
  0
ENDTAB
  0
ENDSEC
  0
SECTION
  2
ENTITIES
0
LINE
8
BLACK
6
CONTINUOUS
10
2.410576062992126
20
0.9428960236220473
11
2.4116404724409448
21
0.9424551181102362
0
LINE
8
BLACK
6
CONTINUOUS
10
2.4116404724409448
20
0.9424551181102362
11
2.4124551181102363
21
0.9416404724409448
0
LINE
8
BLACK
6
CONTINUOUS
10
2.4124551181102363
20
0.9416404724409448
11
2.4128960236220474
21
0.9405760629921259
0
LINE
8
BLACK
6
CONTINUOUS
10
2.4128960236220474
20
0.9405760629921259
11
2.4129527559055117
21
0.9399999999999999
0
LINE
8
BLACK
6
CONTINUOUS
10
2.4129527559055117
20
0.9399999999999999
11
2.4129527559055117
21
0.64
0
LINE
8
BLACK
6
CONTINUOUS
10
2.4129527559055117
20
0.64
11
2.4128960236220474
21
0.639423937007874
0
LINE
8
BLACK
6
CONTINUOUS
10
2.4128960236220474
20
0.639423937007874
11
2.4124551181102363
21
0.6383595275590551
0
LINE
8
BLACK
6
CONTINUOUS
10
2.4124551181102363
20
0.6383595275590551
11
2.4116404724409448
21
0.6375448818897638
0
LINE
8
BLACK
6
CONTINUOUS
10
2.4116404724409448
20
0.6375448818897638
11
2.410576062992126
21
0.6371039763779528
0
LINE
8
BLACK
6
CONTINUOUS
10
2.410576062992126
20
0.6371039763779528
11
2.4100000000000001
21
0.6370472440944882
0
LINE
8
BLACK
6
CONTINUOUS
10
2.4100000000000001
20
0.6370472440944882
11
2.21
21
0.6370472440944882
0
LINE
8
BLACK
6
CONTINUOUS
10
2.21
20
0.6370472440944882
11
2.2094239370078741
21
0.6371039763779528
0
LINE
8
BLACK
6
CONTINUOUS
10
2.2094239370078741
20
0.6371039763779528
11
2.2083595275590548
21
0.6375448818897638
0
LINE
8
BLACK
6
CONTINUOUS
10
2.2083595275590548
20
0.6375448818897638
11
2.2075448818897638
21
0.6383595275590551
0
LINE
8
BLACK
6
CONTINUOUS
10
2.2075448818897638
20
0.6383595275590551
11
2.2071039763779527
21
0.639423937007874
0
LINE
8
BLACK
6
CONTINUOUS
10
2.2071039763779527
20
0.639423937007874
11
2.2070472440944879
21
0.64
0
LINE
8
BLACK
6
CONTINUOUS
10
2.2070472440944879
20
0.64
11
2.2070472440944879
21
0.9399999999999999
0
LINE
8
BLACK
6
CONTINUOUS
10
2.2070472440944879
20
0.9399999999999999
11
2.2071039763779527
21
0.9405760629921259
0
LINE
8
BLACK
6
CONTINUOUS
10
2.2071039763779527
20
0.9405760629921259
11
2.2075448818897638
21
0.9416404724409448
0
LINE
8
BLACK
6
CONTINUOUS
10
2.2075448818897638
20
0.9416404724409448
11
2.2083595275590548
21
0.9424551181102362
0
LINE
8
BLACK
6
CONTINUOUS
10
2.2083595275590548
20
0.9424551181102362
11
2.2094239370078741
21
0.9428960236220473
0
LINE
8
BLACK
6
CONTINUOUS
10
2.2094239370078741
20
0.9428960236220473
11
2.21
21
0.9429527559055118
0
LINE
8
BLACK
6
CONTINUOUS
10
2.21
20
0.9429527559055118
11
2.4100000000000001
21
0.9429527559055118
0
LINE
8
BLACK
6
CONTINUOUS
10
2.4100000000000001
20
0.9429527559055118
11
2.410576062992126
21
0.9428960236220473
0
LINE
8
BLACK
6
CONTINUOUS
10
2.2129527559055115
20
0.9370472440944881
11
2.2129527559055115
21
0.6429527559055118
0
LINE
8
BLACK
6
CONTINUOUS
10
2.2129527559055115
20
0.6429527559055118
11
2.4070472440944881
21
0.6429527559055118
0
LINE
8
BLACK
6
CONTINUOUS
10
2.4070472440944881
20
0.6429527559055118
11
2.4070472440944881
21
0.9370472440944881
0
LINE
8
BLACK
6
CONTINUOUS
10
2.4070472440944881
20
0.9370472440944881
11
2.2129527559055115
21
0.9370472440944881
0
LINE
8
BLACK
6
CONTINUOUS
10
0.4969905905511811
20
0.8700957874015748
11
0.4982690157480315
21
0.8688173622047244
0
LINE
8
BLACK
6
CONTINUOUS
10
0.4982690157480315
20
0.8688173622047244
11
0.4982690157480315
21
0.8670094094488189
0
LINE
8
BLACK
6
CONTINUOUS
10
0.4982690157480315
20
0.8670094094488189
11
0.4969905905511811
21
0.8657309842519685
0
LINE
8
BLACK
6
CONTINUOUS
10
0.4969905905511811
20
0.8657309842519685
11
0.4960866141732284
21
0.8655511811023622
0
LINE
8
BLACK
6
CONTINUOUS
10
0.4960866141732284
20
0.8655511811023622
11
0.3819133858267716
21
0.8655511811023622
0
LINE
8
BLACK
6
CONTINUOUS
10
0.3819133858267716
20
0.8655511811023622
11
0.3810094094488189
21
0.8657309842519685
0
LINE
8
BLACK
6
CONTINUOUS
10
0.3810094094488189
20
0.8657309842519685
11
0.3797309842519685
21
0.8670094094488189
0
LINE
8
BLACK
6
CONTINUOUS
10
0.3797309842519685
20
0.8670094094488189
11
0.3797309842519685
21
0.8688173622047244
0
LINE
8
BLACK
6
CONTINUOUS
10
0.3797309842519685
20
0.8688173622047244
11
0.3810094094488189
21
0.8700957874015748
0
LINE
8
BLACK
6
CONTINUOUS
10
0.3810094094488189
20
0.8700957874015748
11
0.3819133858267716
21
0.8702755905511811
0
LINE
8
BLACK
6
CONTINUOUS
10
0.3819133858267716
20
0.8702755905511811
11
0.4960866141732284
21
0.8702755905511811
0
LINE
8
BLACK
6
CONTINUOUS
10
0.4960866141732284
20
0.8702755905511811
11
0.4969905905511811
21
0.8700957874015748
0
LINE
8
BLACK
6
CONTINUOUS
10
0.3090957874015748
20
1.0579905905511811
11
0.3092755905511811
21
1.0570866141732282
0
LINE
8
BLACK
6
CONTINUOUS
10
0.3092755905511811
20
1.0570866141732282
11
0.3092755905511811
21
0.9429133858267716
0
LINE
8
BLACK
6
CONTINUOUS
10
0.3092755905511811
20
0.9429133858267716
11
0.3090957874015748
21
0.9420094094488188
0
LINE
8
BLACK
6
CONTINUOUS
10
0.3090957874015748
20
0.9420094094488188
11
0.3078173622047244
21
0.9407309842519684
0
LINE
8
BLACK
6
CONTINUOUS
10
0.3078173622047244
20
0.9407309842519684
11
0.3060094094488189
21
0.9407309842519684
0
LINE
8
BLACK
6
CONTINUOUS
10
0.3060094094488189
20
0.9407309842519684
11
0.3047309842519685
21
0.9420094094488188
0
LINE
8
BLACK
6
CONTINUOUS
10
0.3047309842519685
20
0.9420094094488188
11
0.3045511811023622
21
0.9429133858267716
0
LINE
8
BLACK
6
CONTINUOUS
10
0.3045511811023622
20
0.9429133858267716
11
0.3045511811023622
21
1.0570866141732282
0
LINE
8
BLACK
6
CONTINUOUS
10
0.3045511811023622
20
1.0570866141732282
11
0.3047309842519685
21
1.0579905905511811
0
LINE
8
BLACK
6
CONTINUOUS
10
0.3047309842519685
20
1.0579905905511811
11
0.3060094094488189
21
1.0592690157480316
0
LINE
8
BLACK
6
CONTINUOUS
10
0.3060094094488189
20
1.0592690157480316
11
0.3078173622047244
21
1.0592690157480316
0
LINE
8
BLACK
6
CONTINUOUS
10
0.3078173622047244
20
1.0592690157480316
11
0.3090957874015748
21
1.0579905905511811
0
LINE
8
BLACK
6
CONTINUOUS
10
0.5732690157480315
20
1.0579905905511811
11
0.5734488188976378
21
1.0570866141732282
0
LINE
8
BLACK
6
CONTINUOUS
10
0.5734488188976378
20
1.0570866141732282
11
0.5734488188976378
21
0.9429133858267716
0
LINE
8
BLACK
6
CONTINUOUS
10
0.5734488188976378
20
0.9429133858267716
11
0.5732690157480315
21
0.9420094094488188
0
LINE
8
BLACK
6
CONTINUOUS
10
0.5732690157480315
20
0.9420094094488188
11
0.5719905905511811
21
0.9407309842519684
0
LINE
8
BLACK
6
CONTINUOUS
10
0.5719905905511811
20
0.9407309842519684
11
0.5701826377952756
21
0.9407309842519684
0
LINE
8
BLACK
6
CONTINUOUS
10
0.5701826377952756
20
0.9407309842519684
11
0.5689042125984252
21
0.9420094094488188
0
LINE
8
BLACK
6
CONTINUOUS
10
0.5689042125984252
20
0.9420094094488188
11
0.5687244094488189
21
0.9429133858267716
0
LINE
8
BLACK
6
CONTINUOUS
10
0.5687244094488189
20
0.9429133858267716
11
0.5687244094488189
21
1.0570866141732282
0
LINE
8
BLACK
6
CONTINUOUS
10
0.5687244094488189
20
1.0570866141732282
11
0.5689042125984252
21
1.0579905905511811
0
LINE
8
BLACK
6
CONTINUOUS
10
0.5689042125984252
20
1.0579905905511811
11
0.5701826377952756
21
1.0592690157480316
0
LINE
8
BLACK
6
CONTINUOUS
10
0.5701826377952756
20
1.0592690157480316
11
0.5719905905511811
21
1.0592690157480316
0
LINE
8
BLACK
6
CONTINUOUS
10
0.5719905905511811
20
1.0592690157480316
11
0.5732690157480315
21
1.0579905905511811
0
LINE
8
BLACK
6
CONTINUOUS
10
2.410576062992126
20
1.1128960236220473
11
2.4116404724409448
21
1.1124551181102362
0
LINE
8
BLACK
6
CONTINUOUS
10
2.4116404724409448
20
1.1124551181102362
11
2.4124551181102363
21
1.1116404724409448
0
LINE
8
BLACK
6
CONTINUOUS
10
2.4124551181102363
20
1.1116404724409448
11
2.4128960236220474
21
1.110576062992126
0
LINE
8
BLACK
6
CONTINUOUS
10
2.4128960236220474
20
1.110576062992126
11
2.4129527559055117
21
1.1099999999999999
0
LINE
8
BLACK
6
CONTINUOUS
10
2.4129527559055117
20
1.1099999999999999
11
2.4129527559055117
21
1.02
0
LINE
8
BLACK
6
CONTINUOUS
10
2.4129527559055117
20
1.02
11
2.4128960236220474
21
1.0194239370078739
0
LINE
8
BLACK
6
CONTINUOUS
10
2.4128960236220474
20
1.0194239370078739
11
2.4124551181102363
21
1.0183595275590551
0
LINE
8
BLACK
6
CONTINUOUS
10
2.4124551181102363
20
1.0183595275590551
11
2.4116404724409448
21
1.0175448818897637
0
LINE
8
BLACK
6
CONTINUOUS
10
2.4116404724409448
20
1.0175448818897637
11
2.410576062992126
21
1.0171039763779528
0
LINE
8
BLACK
6
CONTINUOUS
10
2.410576062992126
20
1.0171039763779528
11
2.4094239370078738
21
1.0171039763779528
0
LINE
8
BLACK
6
CONTINUOUS
10
2.4094239370078738
20
1.0171039763779528
11
2.408359527559055
21
1.0175448818897637
0
LINE
8
BLACK
6
CONTINUOUS
10
2.408359527559055
20
1.0175448818897637
11
2.4075448818897636
21
1.0183595275590551
0
LINE
8
BLACK
6
CONTINUOUS
10
2.4075448818897636
20
1.0183595275590551
11
2.4071039763779525
21
1.0194239370078739
0
LINE
8
BLACK
6
CONTINUOUS
10
2.4071039763779525
20
1.0194239370078739
11
2.4070472440944881
21
1.02
0
LINE
8
BLACK
6
CONTINUOUS
10
2.4070472440944881
20
1.02
11
2.4070472440944881
21
1.1070472440944881
0
LINE
8
BLACK
6
CONTINUOUS
10
2.4070472440944881
20
1.1070472440944881
11
2.2129527559055115
21
1.1070472440944881
0
LINE
8
BLACK
6
CONTINUOUS
10
2.2129527559055115
20
1.1070472440944881
11
2.2129527559055115
21
1.02
0
LINE
8
BLACK
6
CONTINUOUS
10
2.2129527559055115
20
1.02
11
2.2128960236220472
21
1.0194239370078739
0
LINE
8
BLACK
6
CONTINUOUS
10
2.2128960236220472
20
1.0194239370078739
11
2.2124551181102361
21
1.0183595275590551
0
LINE
8
BLACK
6
CONTINUOUS
10
2.2124551181102361
20
1.0183595275590551
11
2.2116404724409446
21
1.0175448818897637
0
LINE
8
BLACK
6
CONTINUOUS
10
2.2116404724409446
20
1.0175448818897637
11
2.2105760629921258
21
1.0171039763779528
0
LINE
8
BLACK
6
CONTINUOUS
10
2.2105760629921258
20
1.0171039763779528
11
2.2094239370078741
21
1.0171039763779528
0
LINE
8
BLACK
6
CONTINUOUS
10
2.2094239370078741
20
1.0171039763779528
11
2.2083595275590548
21
1.0175448818897637
0
LINE
8
BLACK
6
CONTINUOUS
10
2.2083595275590548
20
1.0175448818897637
11
2.2075448818897638
21
1.0183595275590551
0
LINE
8
BLACK
6
CONTINUOUS
10
2.2075448818897638
20
1.0183595275590551
11
2.2071039763779527
21
1.0194239370078739
0
LINE
8
BLACK
6
CONTINUOUS
10
2.2071039763779527
20
1.0194239370078739
11
2.2070472440944879
21
1.02
0
LINE
8
BLACK
6
CONTINUOUS
10
2.2070472440944879
20
1.02
11
2.2070472440944879
21
1.1099999999999999
0
LINE
8
BLACK
6
CONTINUOUS
10
2.2070472440944879
20
1.1099999999999999
11
2.2071039763779527
21
1.110576062992126
0
LINE
8
BLACK
6
CONTINUOUS
10
2.2071039763779527
20
1.110576062992126
11
2.2075448818897638
21
1.1116404724409448
0
LINE
8
BLACK
6
CONTINUOUS
10
2.2075448818897638
20
1.1116404724409448
11
2.2083595275590548
21
1.1124551181102362
0
LINE
8
BLACK
6
CONTINUOUS
10
2.2083595275590548
20
1.1124551181102362
11
2.2094239370078741
21
1.1128960236220473
0
LINE
8
BLACK
6
CONTINUOUS
10
2.2094239370078741
20
1.1128960236220473
11
2.21
21
1.1129527559055117
0
LINE
8
BLACK
6
CONTINUOUS
10
2.21
20
1.1129527559055117
11
2.4100000000000001
21
1.1129527559055117
0
LINE
8
BLACK
6
CONTINUOUS
10
2.4100000000000001
20
1.1129527559055117
11
2.410576062992126
21
1.1128960236220473
0
LINE
8
BLACK
6
CONTINUOUS
10
2.410576062992126
20
1.2128960236220472
11
2.4116404724409448
21
1.2124551181102361
0
LINE
8
BLACK
6
CONTINUOUS
10
2.4116404724409448
20
1.2124551181102361
11
2.4124551181102363
21
1.2116404724409449
0
LINE
8
BLACK
6
CONTINUOUS
10
2.4124551181102363
20
1.2116404724409449
11
2.4128960236220474
21
1.2105760629921261
0
LINE
8
BLACK
6
CONTINUOUS
10
2.4128960236220474
20
1.2105760629921261
11
2.4129527559055117
21
1.21
0
LINE
8
BLACK
6
CONTINUOUS
10
2.4129527559055117
20
1.21
11
2.4129527559055117
21
1.1199999999999999
0
LINE
8
BLACK
6
CONTINUOUS
10
2.4129527559055117
20
1.1199999999999999
11
2.4128960236220474
21
1.119423937007874
0
LINE
8
BLACK
6
CONTINUOUS
10
2.4128960236220474
20
1.119423937007874
11
2.4124551181102363
21
1.118359527559055
0
LINE
8
BLACK
6
CONTINUOUS
10
2.4124551181102363
20
1.118359527559055
11
2.4116404724409448
21
1.1175448818897638
0
LINE
8
BLACK
6
CONTINUOUS
10
2.4116404724409448
20
1.1175448818897638
11
2.410576062992126
21
1.1171039763779527
0
LINE
8
BLACK
6
CONTINUOUS
10
2.410576062992126
20
1.1171039763779527
11
2.4094239370078738
21
1.1171039763779527
0
LINE
8
BLACK
6
CONTINUOUS
10
2.4094239370078738
20
1.1171039763779527
11
2.408359527559055
21
1.1175448818897638
0
LINE
8
BLACK
6
CONTINUOUS
10
2.408359527559055
20
1.1175448818897638
11
2.4075448818897636
21
1.118359527559055
0
LINE
8
BLACK
6
CONTINUOUS
10
2.4075448818897636
20
1.118359527559055
11
2.4071039763779525
21
1.119423937007874
0
LINE
8
BLACK
6
CONTINUOUS
10
2.4071039763779525
20
1.119423937007874
11
2.4070472440944881
21
1.1199999999999999
0
LINE
8
BLACK
6
CONTINUOUS
10
2.4070472440944881
20
1.1199999999999999
11
2.4070472440944881
21
1.2070472440944882
0
LINE
8
BLACK
6
CONTINUOUS
10
2.4070472440944881
20
1.2070472440944882
11
2.2129527559055115
21
1.2070472440944882
0
LINE
8
BLACK
6
CONTINUOUS
10
2.2129527559055115
20
1.2070472440944882
11
2.2129527559055115
21
1.1199999999999999
0
LINE
8
BLACK
6
CONTINUOUS
10
2.2129527559055115
20
1.1199999999999999
11
2.2128960236220472
21
1.119423937007874
0
LINE
8
BLACK
6
CONTINUOUS
10
2.2128960236220472
20
1.119423937007874
11
2.2124551181102361
21
1.118359527559055
0
LINE
8
BLACK
6
CONTINUOUS
10
2.2124551181102361
20
1.118359527559055
11
2.2116404724409446
21
1.1175448818897638
0
LINE
8
BLACK
6
CONTINUOUS
10
2.2116404724409446
20
1.1175448818897638
11
2.2105760629921258
21
1.1171039763779527
0
LINE
8
BLACK
6
CONTINUOUS
10
2.2105760629921258
20
1.1171039763779527
11
2.2094239370078741
21
1.1171039763779527
0
LINE
8
BLACK
6
CONTINUOUS
10
2.2094239370078741
20
1.1171039763779527
11
2.2083595275590548
21
1.1175448818897638
0
LINE
8
BLACK
6
CONTINUOUS
10
2.2083595275590548
20
1.1175448818897638
11
2.2075448818897638
21
1.118359527559055
0
LINE
8
BLACK
6
CONTINUOUS
10
2.2075448818897638
20
1.118359527559055
11
2.2071039763779527
21
1.119423937007874
0
LINE
8
BLACK
6
CONTINUOUS
10
2.2071039763779527
20
1.119423937007874
11
2.2070472440944879
21
1.1199999999999999
0
LINE
8
BLACK
6
CONTINUOUS
10
2.2070472440944879
20
1.1199999999999999
11
2.2070472440944879
21
1.21
0
LINE
8
BLACK
6
CONTINUOUS
10
2.2070472440944879
20
1.21
11
2.2071039763779527
21
1.2105760629921261
0
LINE
8
BLACK
6
CONTINUOUS
10
2.2071039763779527
20
1.2105760629921261
11
2.2075448818897638
21
1.2116404724409449
0
LINE
8
BLACK
6
CONTINUOUS
10
2.2075448818897638
20
1.2116404724409449
11
2.2083595275590548
21
1.2124551181102361
0
LINE
8
BLACK
6
CONTINUOUS
10
2.2083595275590548
20
1.2124551181102361
11
2.2094239370078741
21
1.2128960236220472
0
LINE
8
BLACK
6
CONTINUOUS
10
2.2094239370078741
20
1.2128960236220472
11
2.21
21
1.2129527559055118
0
LINE
8
BLACK
6
CONTINUOUS
10
2.21
20
1.2129527559055118
11
2.4100000000000001
21
1.2129527559055118
0
LINE
8
BLACK
6
CONTINUOUS
10
2.4100000000000001
20
1.2129527559055118
11
2.410576062992126
21
1.2128960236220472
0
LINE
8
BLACK
6
CONTINUOUS
10
0.4969905905511811
20
1.1342690157480315
11
0.4982690157480315
21
1.132990590551181
0
LINE
8
BLACK
6
CONTINUOUS
10
0.4982690157480315
20
1.132990590551181
11
0.4982690157480315
21
1.1311826377952756
0
LINE
8
BLACK
6
CONTINUOUS
10
0.4982690157480315
20
1.1311826377952756
11
0.4969905905511811
21
1.1299042125984251
0
LINE
8
BLACK
6
CONTINUOUS
10
0.4969905905511811
20
1.1299042125984251
11
0.4960866141732284
21
1.1297244094488188
0
LINE
8
BLACK
6
CONTINUOUS
10
0.4960866141732284
20
1.1297244094488188
11
0.3819133858267716
21
1.1297244094488188
0
LINE
8
BLACK
6
CONTINUOUS
10
0.3819133858267716
20
1.1297244094488188
11
0.3810094094488189
21
1.1299042125984251
0
LINE
8
BLACK
6
CONTINUOUS
10
0.3810094094488189
20
1.1299042125984251
11
0.3797309842519685
21
1.1311826377952756
0
LINE
8
BLACK
6
CONTINUOUS
10
0.3797309842519685
20
1.1311826377952756
11
0.3797309842519685
21
1.132990590551181
0
LINE
8
BLACK
6
CONTINUOUS
10
0.3797309842519685
20
1.132990590551181
11
0.3810094094488189
21
1.1342690157480315
0
LINE
8
BLACK
6
CONTINUOUS
10
0.3810094094488189
20
1.1342690157480315
11
0.3819133858267716
21
1.1344488188976378
0
LINE
8
BLACK
6
CONTINUOUS
10
0.3819133858267716
20
1.1344488188976378
11
0.4960866141732284
21
1.1344488188976378
0
LINE
8
BLACK
6
CONTINUOUS
10
0.4960866141732284
20
1.1344488188976378
11
0.4969905905511811
21
1.1342690157480315
0
LINE
8
BLACK
6
CONTINUOUS
10
0.4275170866141732
20
1.210926811023622
11
0.4283317322834646
21
1.2101121653543307
0
LINE
8
BLACK
6
CONTINUOUS
10
0.4283317322834646
20
1.2101121653543307
11
0.4287726377952756
21
1.2090477559055117
0
LINE
8
BLACK
6
CONTINUOUS
10
0.4287726377952756
20
1.2090477559055117
11
0.4288293700787402
21
1.2084716929133859
0
LINE
8
BLACK
6
CONTINUOUS
10
0.4288293700787402
20
1.2084716929133859
11
0.4288293700787402
21
1.1803502362204723
0
LINE
8
BLACK
6
CONTINUOUS
10
0.4288293700787402
20
1.1803502362204723
11
0.4288006299212598
21
1.1800586614173227
0
LINE
8
BLACK
6
CONTINUOUS
10
0.4288006299212598
20
1.1800586614173227
11
0.4288061811023622
21
1.1799809055118109
0
LINE
8
BLACK
6
CONTINUOUS
10
0.4288061811023622
20
1.1799809055118109
11
0.4287829133858267
21
1.1798786614173229
0
LINE
8
BLACK
6
CONTINUOUS
10
0.4287829133858267
20
1.1798786614173229
11
0.4287726377952756
21
1.1797741732283464
0
LINE
8
BLACK
6
CONTINUOUS
10
0.4287726377952756
20
1.1797741732283464
11
0.4287427559055118
21
1.1797021259842519
0
LINE
8
BLACK
6
CONTINUOUS
10
0.4287427559055118
20
1.1797021259842519
11
0.4286778346456693
21
1.1794164566929133
0
LINE
8
BLACK
6
CONTINUOUS
10
0.4286778346456693
20
1.1794164566929133
11
0.4268030708661417
21
1.1737922047244094
0
LINE
8
BLACK
6
CONTINUOUS
10
0.4268030708661417
20
1.1737922047244094
11
0.4265670866141732
21
1.1732636220472441
0
LINE
8
BLACK
6
CONTINUOUS
10
0.4265670866141732
20
1.1732636220472441
11
0.4264975590551181
21
1.1731835039370078
0
LINE
8
BLACK
6
CONTINUOUS
10
0.4264975590551181
20
1.1731835039370078
11
0.4264570078740157
21
1.1730855118110235
0
LINE
8
BLACK
6
CONTINUOUS
10
0.4264570078740157
20
1.1730855118110235
11
0.4260898031496063
21
1.1726380708661417
0
LINE
8
BLACK
6
CONTINUOUS
10
0.4260898031496063
20
1.1726380708661417
11
0.4223402362204725
21
1.1688884645669291
0
LINE
8
BLACK
6
CONTINUOUS
10
0.4223402362204725
20
1.1688884645669291
11
0.4218927952755905
21
1.1685212598425196
0
LINE
8
BLACK
6
CONTINUOUS
10
0.4218927952755905
20
1.1685212598425196
11
0.4217947244094488
21
1.1684806692913385
0
LINE
8
BLACK
6
CONTINUOUS
10
0.4217947244094488
20
1.1684806692913385
11
0.4217146062992126
21
1.1684111417322833
0
LINE
8
BLACK
6
CONTINUOUS
10
0.4217146062992126
20
1.1684111417322833
11
0.421186062992126
21
1.168175157480315
0
LINE
8
BLACK
6
CONTINUOUS
10
0.421186062992126
20
1.168175157480315
11
0.4155617716535433
21
1.1663003937007874
0
LINE
8
BLACK
6
CONTINUOUS
10
0.4155617716535433
20
1.1663003937007874
11
0.4152761811023622
21
1.1662354724409449
0
LINE
8
BLACK
6
CONTINUOUS
10
0.4152761811023622
20
1.1662354724409449
11
0.415204094488189
21
1.166205590551181
0
LINE
8
BLACK
6
CONTINUOUS
10
0.415204094488189
20
1.166205590551181
11
0.4150995669291339
21
1.1661953149606299
0
LINE
8
BLACK
6
CONTINUOUS
10
0.4150995669291339
20
1.1661953149606299
11
0.4149973228346456
21
1.1661720472440944
0
LINE
8
BLACK
6
CONTINUOUS
10
0.4149973228346456
20
1.1661720472440944
11
0.4149195669291338
21
1.1661775984251967
0
LINE
8
BLACK
6
CONTINUOUS
10
0.4149195669291338
20
1.1661775984251967
11
0.414628031496063
21
1.1661488582677164
0
LINE
8
BLACK
6
CONTINUOUS
10
0.414628031496063
20
1.1661488582677164
11
0.4108785039370079
21
1.1661488582677164
0
LINE
8
BLACK
6
CONTINUOUS
10
0.4108785039370079
20
1.1661488582677164
11
0.4103024409448819
21
1.166205590551181
0
LINE
8
BLACK
6
CONTINUOUS
10
0.4103024409448819
20
1.166205590551181
11
0.409238031496063
21
1.1666464960629921
0
LINE
8
BLACK
6
CONTINUOUS
10
0.409238031496063
20
1.1666464960629921
11
0.4084233858267716
21
1.1674611417322835
0
LINE
8
BLACK
6
CONTINUOUS
10
0.4084233858267716
20
1.1674611417322835
11
0.4079824803149606
21
1.1685255511811024
0
LINE
8
BLACK
6
CONTINUOUS
10
0.4079824803149606
20
1.1685255511811024
11
0.4079824803149606
21
1.1696776771653543
0
LINE
8
BLACK
6
CONTINUOUS
10
0.4079824803149606
20
1.1696776771653543
11
0.4084233858267716
21
1.1707420866141731
0
LINE
8
BLACK
6
CONTINUOUS
10
0.4084233858267716
20
1.1707420866141731
11
0.409238031496063
21
1.1715567322834646
0
LINE
8
BLACK
6
CONTINUOUS
10
0.409238031496063
20
1.1715567322834646
11
0.4103024409448819
21
1.1719976377952757
0
LINE
8
BLACK
6
CONTINUOUS
10
0.4103024409448819
20
1.1719976377952757
11
0.4108785039370079
21
1.17205437007874
0
LINE
8
BLACK
6
CONTINUOUS
10
0.4108785039370079
20
1.17205437007874
11
0.4141488976377953
21
1.17205437007874
0
LINE
8
BLACK
6
CONTINUOUS
10
0.4141488976377953
20
1.17205437007874
11
0.4186572834645669
21
1.1735572047244094
0
LINE
8
BLACK
6
CONTINUOUS
10
0.4186572834645669
20
1.1735572047244094
11
0.4214210236220473
21
1.1763209842519684
0
LINE
8
BLACK
6
CONTINUOUS
10
0.4214210236220473
20
1.1763209842519684
11
0.4229238582677165
21
1.1808293700787402
0
LINE
8
BLACK
6
CONTINUOUS
10
0.4229238582677165
20
1.1808293700787402
11
0.4229238582677165
21
1.2084716929133859
0
LINE
8
BLACK
6
CONTINUOUS
10
0.4229238582677165
20
1.2084716929133859
11
0.4229805905511811
21
1.2090477559055117
0
LINE
8
BLACK
6
CONTINUOUS
10
0.4229805905511811
20
1.2090477559055117
11
0.4234214960629921
21
1.2101121653543307
0
LINE
8
BLACK
6
CONTINUOUS
10
0.4234214960629921
20
1.2101121653543307
11
0.4242361417322835
21
1.210926811023622
0
LINE
8
BLACK
6
CONTINUOUS
10
0.4242361417322835
20
1.210926811023622
11
0.4253005511811023
21
1.2113677165354331
0
LINE
8
BLACK
6
CONTINUOUS
10
0.4253005511811023
20
1.2113677165354331
11
0.4264526771653543
21
1.2113677165354331
0
LINE
8
BLACK
6
CONTINUOUS
10
0.4264526771653543
20
1.2113677165354331
11
0.4275170866141732
21
1.210926811023622
0
LINE
8
BLACK
6
CONTINUOUS
10
0.4583237007874016
20
1.2113677165354331
11
0.4584216929133858
21
1.211327125984252
0
LINE
8
BLACK
6
CONTINUOUS
10
0.4584216929133858
20
1.211327125984252
11
0.4585275196850394
21
1.2113196062992126
0
LINE
8
BLACK
6
CONTINUOUS
10
0.4585275196850394
20
1.2113196062992126
11
0.4590681496062992
21
1.211112716535433
0
LINE
8
BLACK
6
CONTINUOUS
10
0.4590681496062992
20
1.211112716535433
11
0.4628176771653543
21
1.2092379527559054
0
LINE
8
BLACK
6
CONTINUOUS
10
0.4628176771653543
20
1.2092379527559054
11
0.4630656692913386
21
1.2090818897637794
0
LINE
8
BLACK
6
CONTINUOUS
10
0.4630656692913386
20
1.2090818897637794
11
0.4631376377952756
21
1.2090520472440944
0
LINE
8
BLACK
6
CONTINUOUS
10
0.4631376377952756
20
1.2090520472440944
11
0.4632185826771654
21
1.208985590551181
0
LINE
8
BLACK
6
CONTINUOUS
10
0.4632185826771654
20
1.208985590551181
11
0.4633075590551181
21
1.2089296062992125
0
LINE
8
BLACK
6
CONTINUOUS
10
0.4633075590551181
20
1.2089296062992125
11
0.4633587007874015
21
1.2088706299212597
0
LINE
8
BLACK
6
CONTINUOUS
10
0.4633587007874015
20
1.2088706299212597
11
0.4635850787401575
21
1.208684842519685
0
LINE
8
BLACK
6
CONTINUOUS
10
0.4635850787401575
20
1.208684842519685
11
0.465459842519685
21
1.2068100787401574
0
LINE
8
BLACK
6
CONTINUOUS
10
0.465459842519685
20
1.2068100787401574
11
0.4656455905511811
21
1.2065837401574804
0
LINE
8
BLACK
6
CONTINUOUS
10
0.4656455905511811
20
1.2065837401574804
11
0.4657046062992126
21
1.2065325590551181
0
LINE
8
BLACK
6
CONTINUOUS
10
0.4657046062992126
20
1.2065325590551181
11
0.4657605511811024
21
1.2064436220472441
0
LINE
8
BLACK
6
CONTINUOUS
10
0.4657605511811024
20
1.2064436220472441
11
0.4658270472440945
21
1.2063626377952756
0
LINE
8
BLACK
6
CONTINUOUS
10
0.4658270472440945
20
1.2063626377952756
11
0.4658568503937008
21
1.2062907086614172
0
LINE
8
BLACK
6
CONTINUOUS
10
0.4658568503937008
20
1.2062907086614172
11
0.4660129527559055
21
1.2060426771653543
0
LINE
8
BLACK
6
CONTINUOUS
10
0.4660129527559055
20
1.2060426771653543
11
0.467887716535433
21
1.2022931496062992
0
LINE
8
BLACK
6
CONTINUOUS
10
0.467887716535433
20
1.2022931496062992
11
0.4680946062992126
21
1.2017525590551181
0
LINE
8
BLACK
6
CONTINUOUS
10
0.4680946062992126
20
1.2017525590551181
11
0.4681021259842519
21
1.2016466929133858
0
LINE
8
BLACK
6
CONTINUOUS
10
0.4681021259842519
20
1.2016466929133858
11
0.468142716535433
21
1.2015487007874015
0
LINE
8
BLACK
6
CONTINUOUS
10
0.468142716535433
20
1.2015487007874015
11
0.4681994488188976
21
1.2009726377952756
0
LINE
8
BLACK
6
CONTINUOUS
10
0.4681994488188976
20
1.2009726377952756
11
0.4681994488188976
21
1.1859745275590552
0
LINE
8
BLACK
6
CONTINUOUS
10
0.4681994488188976
20
1.1859745275590552
11
0.4681895275590551
21
1.1858740157480314
0
LINE
8
BLACK
6
CONTINUOUS
10
0.4681895275590551
20
1.1858740157480314
11
0.4681959448818898
21
1.1858309842519685
0
LINE
8
BLACK
6
CONTINUOUS
10
0.4681959448818898
20
1.1858309842519685
11
0.4681640551181102
21
1.1856155118110236
0
LINE
8
BLACK
6
CONTINUOUS
10
0.4681640551181102
20
1.1856155118110236
11
0.468142716535433
21
1.1853984645669291
0
LINE
8
BLACK
6
CONTINUOUS
10
0.468142716535433
20
1.1853984645669291
11
0.4681260629921259
21
1.1853582677165353
0
LINE
8
BLACK
6
CONTINUOUS
10
0.4681260629921259
20
1.1853582677165353
11
0.4681112992125984
21
1.1852583858267716
0
LINE
8
BLACK
6
CONTINUOUS
10
0.4681112992125984
20
1.1852583858267716
11
0.4662365354330709
21
1.1777593307086613
0
LINE
8
BLACK
6
CONTINUOUS
10
0.4662365354330709
20
1.1777593307086613
11
0.4661151968503937
21
1.1774198425196851
0
LINE
8
BLACK
6
CONTINUOUS
10
0.4661151968503937
20
1.1774198425196851
11
0.4661011023622047
21
1.1773483858267717
0
LINE
8
BLACK
6
CONTINUOUS
10
0.4661011023622047
20
1.1773483858267717
11
0.4660665354330709
21
1.177283622047244
0
LINE
8
BLACK
6
CONTINUOUS
10
0.4660665354330709
20
1.177283622047244
11
0.4660417716535433
21
1.1772142125984251
0
LINE
8
BLACK
6
CONTINUOUS
10
0.4660417716535433
20
1.1772142125984251
11
0.4659982283464567
21
1.1771555118110235
0
LINE
8
BLACK
6
CONTINUOUS
10
0.4659982283464567
20
1.1771555118110235
11
0.465828779527559
21
1.1768375984251969
0
LINE
8
BLACK
6
CONTINUOUS
10
0.465828779527559
20
1.1768375984251969
11
0.4620792519685039
21
1.1712132677165354
0
LINE
8
BLACK
6
CONTINUOUS
10
0.4620792519685039
20
1.1712132677165354
11
0.4620779133858268
21
1.1712116929133858
0
LINE
8
BLACK
6
CONTINUOUS
10
0.4620779133858268
20
1.1712116929133858
11
0.4620775590551181
21
1.1712107480314959
0
LINE
8
BLACK
6
CONTINUOUS
10
0.4620775590551181
20
1.1712107480314959
11
0.4618990551181102
21
1.1709932677165353
0
LINE
8
BLACK
6
CONTINUOUS
10
0.4618990551181102
20
1.1709932677165353
11
0.4617124803149606
21
1.1707654330708661
0
LINE
8
BLACK
6
CONTINUOUS
10
0.4617124803149606
20
1.1707654330708661
11
0.4617116141732283
21
1.1707648818897638
0
LINE
8
BLACK
6
CONTINUOUS
10
0.4617116141732283
20
1.1707648818897638
11
0.4617103149606299
21
1.1707632677165354
0
LINE
8
BLACK
6
CONTINUOUS
10
0.4617103149606299
20
1.1707632677165354
11
0.4598355905511811
21
1.1688885039370078
0
LINE
8
BLACK
6
CONTINUOUS
10
0.4598355905511811
20
1.1688885039370078
11
0.4596092125984252
21
1.1687027559055119
0
LINE
8
BLACK
6
CONTINUOUS
10
0.4596092125984252
20
1.1687027559055119
11
0.459558031496063
21
1.1686437007874015
0
LINE
8
BLACK
6
CONTINUOUS
10
0.459558031496063
20
1.1686437007874015
11
0.4594690551181102
21
1.168587716535433
0
LINE
8
BLACK
6
CONTINUOUS
10
0.4594690551181102
20
1.168587716535433
11
0.4593881102362204
21
1.1685212598425196
0
LINE
8
BLACK
6
CONTINUOUS
10
0.4593881102362204
20
1.1685212598425196
11
0.4593161417322835
21
1.1684914566929134
0
LINE
8
BLACK
6
CONTINUOUS
10
0.4593161417322835
20
1.1684914566929134
11
0.4590681496062992
21
1.1683353543307087
0
LINE
8
BLACK
6
CONTINUOUS
10
0.4590681496062992
20
1.1683353543307087
11
0.4553186220472441
21
1.1664605905511811
0
LINE
8
BLACK
6
CONTINUOUS
10
0.4553186220472441
20
1.1664605905511811
11
0.4547779921259842
21
1.1662537007874016
0
LINE
8
BLACK
6
CONTINUOUS
10
0.4547779921259842
20
1.1662537007874016
11
0.4546721653543307
21
1.1662462204724409
0
LINE
8
BLACK
6
CONTINUOUS
10
0.4546721653543307
20
1.1662462204724409
11
0.4545741732283464
21
1.166205590551181
0
LINE
8
BLACK
6
CONTINUOUS
10
0.4545741732283464
20
1.166205590551181
11
0.4539981102362204
21
1.1661488582677164
0
LINE
8
BLACK
6
CONTINUOUS
10
0.4539981102362204
20
1.1661488582677164
11
0.4464990551181102
21
1.1661488582677164
0
LINE
8
BLACK
6
CONTINUOUS
10
0.4464990551181102
20
1.1661488582677164
11
0.4459229921259842
21
1.166205590551181
0
LINE
8
BLACK
6
CONTINUOUS
10
0.4459229921259842
20
1.166205590551181
11
0.4448585826771653
21
1.1666464960629921
0
LINE
8
BLACK
6
CONTINUOUS
10
0.4448585826771653
20
1.1666464960629921
11
0.444043937007874
21
1.1674611417322835
0
LINE
8
BLACK
6
CONTINUOUS
10
0.444043937007874
20
1.1674611417322835
11
0.443603031496063
21
1.1685255511811024
0
LINE
8
BLACK
6
CONTINUOUS
10
0.443603031496063
20
1.1685255511811024
11
0.443603031496063
21
1.1696776771653543
0
LINE
8
BLACK
6
CONTINUOUS
10
0.443603031496063
20
1.1696776771653543
11
0.444043937007874
21
1.1707420866141731
0
LINE
8
BLACK
6
CONTINUOUS
10
0.444043937007874
20
1.1707420866141731
11
0.4448585826771653
21
1.1715567322834646
0
LINE
8
BLACK
6
CONTINUOUS
10
0.4448585826771653
20
1.1715567322834646
11
0.4459229921259842
21
1.1719976377952757
0
LINE
8
BLACK
6
CONTINUOUS
10
0.4459229921259842
20
1.1719976377952757
11
0.4464990551181102
21
1.17205437007874
0
LINE
8
BLACK
6
CONTINUOUS
10
0.4464990551181102
20
1.17205437007874
11
0.453301062992126
21
1.17205437007874
0
LINE
8
BLACK
6
CONTINUOUS
10
0.453301062992126
20
1.17205437007874
11
0.4559985039370079
21
1.1734031102362203
0
LINE
8
BLACK
6
CONTINUOUS
10
0.4559985039370079
20
1.1734031102362203
11
0.4573276377952756
21
1.1747322834645668
0
LINE
8
BLACK
6
CONTINUOUS
10
0.4573276377952756
20
1.1747322834645668
11
0.4606313779527559
21
1.1796878346456692
0
LINE
8
BLACK
6
CONTINUOUS
10
0.4606313779527559
20
1.1796878346456692
11
0.4613606692913386
21
1.1826049999999999
0
LINE
8
BLACK
6
CONTINUOUS
10
0.4613606692913386
20
1.1826049999999999
11
0.4590681496062992
21
1.1814587401574803
0
LINE
8
BLACK
6
CONTINUOUS
10
0.4590681496062992
20
1.1814587401574803
11
0.4585275196850394
21
1.1812518503937008
0
LINE
8
BLACK
6
CONTINUOUS
10
0.4585275196850394
20
1.1812518503937008
11
0.4584216929133858
21
1.1812443700787401
0
LINE
8
BLACK
6
CONTINUOUS
10
0.4584216929133858
20
1.1812443700787401
11
0.4583237007874016
21
1.1812037401574802
0
LINE
8
BLACK
6
CONTINUOUS
10
0.4583237007874016
20
1.1812037401574802
11
0.4577476377952756
21
1.1811470078740158
0
LINE
8
BLACK
6
CONTINUOUS
10
0.4577476377952756
20
1.1811470078740158
11
0.4502485826771653
21
1.1811470078740158
0
LINE
8
BLACK
6
CONTINUOUS
10
0.4502485826771653
20
1.1811470078740158
11
0.4496725196850394
21
1.1812037401574802
0
LINE
8
BLACK
6
CONTINUOUS
10
0.4496725196850394
20
1.1812037401574802
11
0.4495745275590551
21
1.1812443307086613
0
LINE
8
BLACK
6
CONTINUOUS
10
0.4495745275590551
20
1.1812443307086613
11
0.4494686614173228
21
1.1812518503937008
0
LINE
8
BLACK
6
CONTINUOUS
10
0.4494686614173228
20
1.1812518503937008
11
0.4489280708661417
21
1.1814587401574803
0
LINE
8
BLACK
6
CONTINUOUS
10
0.4489280708661417
20
1.1814587401574803
11
0.4451785433070866
21
1.1833335039370079
0
LINE
8
BLACK
6
CONTINUOUS
10
0.4451785433070866
20
1.1833335039370079
11
0.4449305118110236
21
1.1834896062992126
0
LINE
8
BLACK
6
CONTINUOUS
10
0.4449305118110236
20
1.1834896062992126
11
0.4448585826771653
21
1.1835194094488188
0
LINE
8
BLACK
6
CONTINUOUS
10
0.4448585826771653
20
1.1835194094488188
11
0.4447775984251968
21
1.183585905511811
0
LINE
8
BLACK
6
CONTINUOUS
10
0.4447775984251968
20
1.183585905511811
11
0.4446886614173228
21
1.1836418503937007
0
LINE
8
BLACK
6
CONTINUOUS
10
0.4446886614173228
20
1.1836418503937007
11
0.4446374803149606
21
1.1837008661417323
0
LINE
8
BLACK
6
CONTINUOUS
10
0.4446374803149606
20
1.1837008661417323
11
0.4444111417322835
21
1.1838866141732283
0
LINE
8
BLACK
6
CONTINUOUS
10
0.4444111417322835
20
1.1838866141732283
11
0.4425363779527559
21
1.1857613779527558
0
LINE
8
BLACK
6
CONTINUOUS
10
0.4425363779527559
20
1.1857613779527558
11
0.4423505905511811
21
1.1859877559055119
0
LINE
8
BLACK
6
CONTINUOUS
10
0.4423505905511811
20
1.1859877559055119
11
0.4422916141732283
21
1.1860388976377954
0
LINE
8
BLACK
6
CONTINUOUS
10
0.4422916141732283
20
1.1860388976377954
11
0.4422356299212598
21
1.1861278740157479
0
LINE
8
BLACK
6
CONTINUOUS
10
0.4422356299212598
20
1.1861278740157479
11
0.4421691732283464
21
1.1862088188976379
0
LINE
8
BLACK
6
CONTINUOUS
10
0.4421691732283464
20
1.1862088188976379
11
0.4421393307086614
21
1.1862807874015748
0
LINE
8
BLACK
6
CONTINUOUS
10
0.4421393307086614
20
1.1862807874015748
11
0.4419832677165354
21
1.186528779527559
0
LINE
8
BLACK
6
CONTINUOUS
10
0.4419832677165354
20
1.186528779527559
11
0.4401085039370078
21
1.1902783070866141
0
LINE
8
BLACK
6
CONTINUOUS
10
0.4401085039370078
20
1.1902783070866141
11
0.4399016141732283
21
1.1908189370078739
0
LINE
8
BLACK
6
CONTINUOUS
10
0.4399016141732283
20
1.1908189370078739
11
0.4398940944881889
21
1.1909247637795275
0
LINE
8
BLACK
6
CONTINUOUS
10
0.4398940944881889
20
1.1909247637795275
11
0.4398535039370078
21
1.1910227559055118
0
LINE
8
BLACK
6
CONTINUOUS
10
0.4398535039370078
20
1.1910227559055118
11
0.4397967716535433
21
1.1915988188976379
0
LINE
8
BLACK
6
CONTINUOUS
10
0.4397967716535433
20
1.1915988188976379
11
0.4397967716535433
21
1.2009726377952756
0
LINE
8
BLACK
6
CONTINUOUS
10
0.4397967716535433
20
1.2009726377952756
11
0.4398535039370078
21
1.2015487007874015
0
LINE
8
BLACK
6
CONTINUOUS
10
0.4398535039370078
20
1.2015487007874015
11
0.4398940944881889
21
1.2016467322834645
0
LINE
8
BLACK
6
CONTINUOUS
10
0.4398940944881889
20
1.2016467322834645
11
0.4399016141732283
21
1.2017525196850394
0
LINE
8
BLACK
6
CONTINUOUS
10
0.4399016141732283
20
1.2017525196850394
11
0.4401085039370078
21
1.2022931496062992
0
LINE
8
BLACK
6
CONTINUOUS
10
0.4401085039370078
20
1.2022931496062992
11
0.4419832677165354
21
1.2060426771653543
0
LINE
8
BLACK
6
CONTINUOUS
10
0.4419832677165354
20
1.2060426771653543
11
0.4421393307086614
21
1.2062907086614172
0
LINE
8
BLACK
6
CONTINUOUS
10
0.4421393307086614
20
1.2062907086614172
11
0.4421691732283464
21
1.2063626377952756
0
LINE
8
BLACK
6
CONTINUOUS
10
0.4421691732283464
20
1.2063626377952756
11
0.4422356299212598
21
1.2064436220472441
0
LINE
8
BLACK
6
CONTINUOUS
10
0.4422356299212598
20
1.2064436220472441
11
0.4422916141732283
21
1.2065325590551181
0
LINE
8
BLACK
6
CONTINUOUS
10
0.4422916141732283
20
1.2065325590551181
11
0.4423505905511811
21
1.2065837401574804
0
LINE
8
BLACK
6
CONTINUOUS
10
0.4423505905511811
20
1.2065837401574804
11
0.4425363779527559
21
1.2068100787401574
0
LINE
8
BLACK
6
CONTINUOUS
10
0.4425363779527559
20
1.2068100787401574
11
0.4444111417322835
21
1.208684842519685
0
LINE
8
BLACK
6
CONTINUOUS
10
0.4444111417322835
20
1.208684842519685
11
0.4446374803149606
21
1.2088706299212597
0
LINE
8
BLACK
6
CONTINUOUS
10
0.4446374803149606
20
1.2088706299212597
11
0.4446886614173228
21
1.2089296062992125
0
LINE
8
BLACK
6
CONTINUOUS
10
0.4446886614173228
20
1.2089296062992125
11
0.4447775984251968
21
1.208985590551181
0
LINE
8
BLACK
6
CONTINUOUS
10
0.4447775984251968
20
1.208985590551181
11
0.4448585826771653
21
1.2090520472440944
0
LINE
8
BLACK
6
CONTINUOUS
10
0.4448585826771653
20
1.2090520472440944
11
0.4449305118110236
21
1.2090818897637794
0
LINE
8
BLACK
6
CONTINUOUS
10
0.4449305118110236
20
1.2090818897637794
11
0.4451785433070866
21
1.2092379527559054
0
LINE
8
BLACK
6
CONTINUOUS
10
0.4451785433070866
20
1.2092379527559054
11
0.4489280708661417
21
1.211112716535433
0
LINE
8
BLACK
6
CONTINUOUS
10
0.4489280708661417
20
1.211112716535433
11
0.4494686614173228
21
1.2113196062992126
0
LINE
8
BLACK
6
CONTINUOUS
10
0.4494686614173228
20
1.2113196062992126
11
0.4495745275590551
21
1.2113271653543307
0
LINE
8
BLACK
6
CONTINUOUS
10
0.4495745275590551
20
1.2113271653543307
11
0.4496725196850394
21
1.2113677165354331
0
LINE
8
BLACK
6
CONTINUOUS
10
0.4496725196850394
20
1.2113677165354331
11
0.4502485826771653
21
1.2114244488188977
0
LINE
8
BLACK
6
CONTINUOUS
10
0.4502485826771653
20
1.2114244488188977
11
0.4577476377952756
21
1.2114244488188977
0
LINE
8
BLACK
6
CONTINUOUS
10
0.4577476377952756
20
1.2114244488188977
11
0.4583237007874016
21
1.2113677165354331
0
LINE
8
BLACK
6
CONTINUOUS
10
0.4482481496062992
20
1.2041701968503937
11
0.4470510236220472
21
1.2029730708661417
0
LINE
8
BLACK
6
CONTINUOUS
10
0.4470510236220472
20
1.2029730708661417
11
0.4457022834645669
21
1.200275590551181
0
LINE
8
BLACK
6
CONTINUOUS
10
0.4457022834645669
20
1.200275590551181
11
0.4457022834645669
21
1.1922958661417322
0
LINE
8
BLACK
6
CONTINUOUS
10
0.4457022834645669
20
1.1922958661417322
11
0.4470510236220472
21
1.1895983858267716
0
LINE
8
BLACK
6
CONTINUOUS
10
0.4470510236220472
20
1.1895983858267716
11
0.4482481496062992
21
1.1884012598425198
0
LINE
8
BLACK
6
CONTINUOUS
10
0.4482481496062992
20
1.1884012598425198
11
0.4509456299212598
21
1.1870525196850394
0
LINE
8
BLACK
6
CONTINUOUS
10
0.4509456299212598
20
1.1870525196850394
11
0.4570505905511811
21
1.1870525196850394
0
LINE
8
BLACK
6
CONTINUOUS
10
0.4570505905511811
20
1.1870525196850394
11
0.4597480708661417
21
1.1884012598425198
0
LINE
8
BLACK
6
CONTINUOUS
10
0.4597480708661417
20
1.1884012598425198
11
0.4609451968503937
21
1.1895983858267716
0
LINE
8
BLACK
6
CONTINUOUS
10
0.4609451968503937
20
1.1895983858267716
11
0.462293937007874
21
1.1922958661417322
0
LINE
8
BLACK
6
CONTINUOUS
10
0.462293937007874
20
1.1922958661417322
11
0.462293937007874
21
1.200275590551181
0
LINE
8
BLACK
6
CONTINUOUS
10
0.462293937007874
20
1.200275590551181
11
0.4609451968503937
21
1.2029730708661417
0
LINE
8
BLACK
6
CONTINUOUS
10
0.4609451968503937
20
1.2029730708661417
11
0.4597480708661417
21
1.2041701968503937
0
LINE
8
BLACK
6
CONTINUOUS
10
0.4597480708661417
20
1.2041701968503937
11
0.4570505905511811
21
1.205518937007874
0
LINE
8
BLACK
6
CONTINUOUS
10
0.4570505905511811
20
1.205518937007874
11
0.4509456299212598
21
1.205518937007874
0
LINE
8
BLACK
6
CONTINUOUS
10
0.4509456299212598
20
1.205518937007874
11
0.4482481496062992
21
1.2041701968503937
0
LINE
8
BLACK
6
CONTINUOUS
10
2.410576062992126
20
1.3128960236220473
11
2.4116404724409448
21
1.3124551181102362
0
LINE
8
BLACK
6
CONTINUOUS
10
2.4116404724409448
20
1.3124551181102362
11
2.4124551181102363
21
1.3116404724409449
0
LINE
8
BLACK
6
CONTINUOUS
10
2.4124551181102363
20
1.3116404724409449
11
2.4128960236220474
21
1.3105760629921259
0
LINE
8
BLACK
6
CONTINUOUS
10
2.4128960236220474
20
1.3105760629921259
11
2.4129527559055117
21
1.3100000000000001
0
LINE
8
BLACK
6
CONTINUOUS
10
2.4129527559055117
20
1.3100000000000001
11
2.4129527559055117
21
1.22
0
LINE
8
BLACK
6
CONTINUOUS
10
2.4129527559055117
20
1.22
11
2.4128960236220474
21
1.2194239370078739
0
LINE
8
BLACK
6
CONTINUOUS
10
2.4128960236220474
20
1.2194239370078739
11
2.4124551181102363
21
1.2183595275590551
0
LINE
8
BLACK
6
CONTINUOUS
10
2.4124551181102363
20
1.2183595275590551
11
2.4116404724409448
21
1.2175448818897638
0
LINE
8
BLACK
6
CONTINUOUS
10
2.4116404724409448
20
1.2175448818897638
11
2.410576062992126
21
1.2171039763779528
0
LINE
8
BLACK
6
CONTINUOUS
10
2.410576062992126
20
1.2171039763779528
11
2.4094239370078738
21
1.2171039763779528
0
LINE
8
BLACK
6
CONTINUOUS
10
2.4094239370078738
20
1.2171039763779528
11
2.408359527559055
21
1.2175448818897638
0
LINE
8
BLACK
6
CONTINUOUS
10
2.408359527559055
20
1.2175448818897638
11
2.4075448818897636
21
1.2183595275590551
0
LINE
8
BLACK
6
CONTINUOUS
10
2.4075448818897636
20
1.2183595275590551
11
2.4071039763779525
21
1.2194239370078739
0
LINE
8
BLACK
6
CONTINUOUS
10
2.4071039763779525
20
1.2194239370078739
11
2.4070472440944881
21
1.22
0
LINE
8
BLACK
6
CONTINUOUS
10
2.4070472440944881
20
1.22
11
2.4070472440944881
21
1.3070472440944882
0
LINE
8
BLACK
6
CONTINUOUS
10
2.4070472440944881
20
1.3070472440944882
11
2.2129527559055115
21
1.3070472440944882
0
LINE
8
BLACK
6
CONTINUOUS
10
2.2129527559055115
20
1.3070472440944882
11
2.2129527559055115
21
1.22
0
LINE
8
BLACK
6
CONTINUOUS
10
2.2129527559055115
20
1.22
11
2.2128960236220472
21
1.2194239370078739
0
LINE
8
BLACK
6
CONTINUOUS
10
2.2128960236220472
20
1.2194239370078739
11
2.2124551181102361
21
1.2183595275590551
0
LINE
8
BLACK
6
CONTINUOUS
10
2.2124551181102361
20
1.2183595275590551
11
2.2116404724409446
21
1.2175448818897638
0
LINE
8
BLACK
6
CONTINUOUS
10
2.2116404724409446
20
1.2175448818897638
11
2.2105760629921258
21
1.2171039763779528
0
LINE
8
BLACK
6
CONTINUOUS
10
2.2105760629921258
20
1.2171039763779528
11
2.2094239370078741
21
1.2171039763779528
0
LINE
8
BLACK
6
CONTINUOUS
10
2.2094239370078741
20
1.2171039763779528
11
2.2083595275590548
21
1.2175448818897638
0
LINE
8
BLACK
6
CONTINUOUS
10
2.2083595275590548
20
1.2175448818897638
11
2.2075448818897638
21
1.2183595275590551
0
LINE
8
BLACK
6
CONTINUOUS
10
2.2075448818897638
20
1.2183595275590551
11
2.2071039763779527
21
1.2194239370078739
0
LINE
8
BLACK
6
CONTINUOUS
10
2.2071039763779527
20
1.2194239370078739
11
2.2070472440944879
21
1.22
0
LINE
8
BLACK
6
CONTINUOUS
10
2.2070472440944879
20
1.22
11
2.2070472440944879
21
1.3100000000000001
0
LINE
8
BLACK
6
CONTINUOUS
10
2.2070472440944879
20
1.3100000000000001
11
2.2071039763779527
21
1.3105760629921259
0
LINE
8
BLACK
6
CONTINUOUS
10
2.2071039763779527
20
1.3105760629921259
11
2.2075448818897638
21
1.3116404724409449
0
LINE
8
BLACK
6
CONTINUOUS
10
2.2075448818897638
20
1.3116404724409449
11
2.2083595275590548
21
1.3124551181102362
0
LINE
8
BLACK
6
CONTINUOUS
10
2.2083595275590548
20
1.3124551181102362
11
2.2094239370078741
21
1.3128960236220473
0
LINE
8
BLACK
6
CONTINUOUS
10
2.2094239370078741
20
1.3128960236220473
11
2.21
21
1.3129527559055119
0
LINE
8
BLACK
6
CONTINUOUS
10
2.21
20
1.3129527559055119
11
2.4100000000000001
21
1.3129527559055119
0
LINE
8
BLACK
6
CONTINUOUS
10
2.4100000000000001
20
1.3129527559055119
11
2.410576062992126
21
1.3128960236220473
0
LINE
8
BLACK
6
CONTINUOUS
10
1.6916404724409448
20
1.3924551181102363
11
1.6924551181102361
21
1.3916404724409448
0
LINE
8
BLACK
6
CONTINUOUS
10
1.6924551181102361
20
1.3916404724409448
11
1.6928960236220472
21
1.390576062992126
0
LINE
8
BLACK
6
CONTINUOUS
10
1.6928960236220472
20
1.390576062992126
11
1.6929527559055118
21
1.3899999999999999
0
LINE
8
BLACK
6
CONTINUOUS
10
1.6929527559055118
20
1.3899999999999999
11
1.6929527559055118
21
1.3029527559055119
0
LINE
8
BLACK
6
CONTINUOUS
10
1.6929527559055118
20
1.3029527559055119
11
1.8870472440944881
21
1.3029527559055119
0
LINE
8
BLACK
6
CONTINUOUS
10
1.8870472440944881
20
1.3029527559055119
11
1.8870472440944881
21
1.3899999999999999
0
LINE
8
BLACK
6
CONTINUOUS
10
1.8870472440944881
20
1.3899999999999999
11
1.8871039763779527
21
1.390576062992126
0
LINE
8
BLACK
6
CONTINUOUS
10
1.8871039763779527
20
1.390576062992126
11
1.8875448818897638
21
1.3916404724409448
0
LINE
8
BLACK
6
CONTINUOUS
10
1.8875448818897638
20
1.3916404724409448
11
1.888359527559055
21
1.3924551181102363
0
LINE
8
BLACK
6
CONTINUOUS
10
1.888359527559055
20
1.3924551181102363
11
1.889423937007874
21
1.3928960236220471
0
LINE
8
BLACK
6
CONTINUOUS
10
1.889423937007874
20
1.3928960236220471
11
1.890576062992126
21
1.3928960236220471
0
LINE
8
BLACK
6
CONTINUOUS
10
1.890576062992126
20
1.3928960236220471
11
1.8916404724409448
21
1.3924551181102363
0
LINE
8
BLACK
6
CONTINUOUS
10
1.8916404724409448
20
1.3924551181102363
11
1.8924551181102363
21
1.3916404724409448
0
LINE
8
BLACK
6
CONTINUOUS
10
1.8924551181102363
20
1.3916404724409448
11
1.8928960236220471
21
1.390576062992126
0
LINE
8
BLACK
6
CONTINUOUS
10
1.8928960236220471
20
1.390576062992126
11
1.8929527559055117
21
1.3899999999999999
0
LINE
8
BLACK
6
CONTINUOUS
10
1.8929527559055117
20
1.3899999999999999
11
1.8929527559055117
21
1.3
0
LINE
8
BLACK
6
CONTINUOUS
10
1.8929527559055117
20
1.3
11
1.8928960236220471
21
1.299423937007874
0
LINE
8
BLACK
6
CONTINUOUS
10
1.8928960236220471
20
1.299423937007874
11
1.8924551181102363
21
1.2983595275590551
0
LINE
8
BLACK
6
CONTINUOUS
10
1.8924551181102363
20
1.2983595275590551
11
1.8916404724409448
21
1.2975448818897637
0
LINE
8
BLACK
6
CONTINUOUS
10
1.8916404724409448
20
1.2975448818897637
11
1.890576062992126
21
1.2971039763779528
0
LINE
8
BLACK
6
CONTINUOUS
10
1.890576062992126
20
1.2971039763779528
11
1.8899999999999999
21
1.2970472440944882
0
LINE
8
BLACK
6
CONTINUOUS
10
1.8899999999999999
20
1.2970472440944882
11
1.6899999999999999
21
1.2970472440944882
0
LINE
8
BLACK
6
CONTINUOUS
10
1.6899999999999999
20
1.2970472440944882
11
1.6894239370078741
21
1.2971039763779528
0
LINE
8
BLACK
6
CONTINUOUS
10
1.6894239370078741
20
1.2971039763779528
11
1.6883595275590551
21
1.2975448818897637
0
LINE
8
BLACK
6
CONTINUOUS
10
1.6883595275590551
20
1.2975448818897637
11
1.6875448818897638
21
1.2983595275590551
0
LINE
8
BLACK
6
CONTINUOUS
10
1.6875448818897638
20
1.2983595275590551
11
1.6871039763779527
21
1.299423937007874
0
LINE
8
BLACK
6
CONTINUOUS
10
1.6871039763779527
20
1.299423937007874
11
1.6870472440944881
21
1.3
0
LINE
8
BLACK
6
CONTINUOUS
10
1.6870472440944881
20
1.3
11
1.6870472440944881
21
1.3899999999999999
0
LINE
8
BLACK
6
CONTINUOUS
10
1.6870472440944881
20
1.3899999999999999
11
1.6871039763779527
21
1.390576062992126
0
LINE
8
BLACK
6
CONTINUOUS
10
1.6871039763779527
20
1.390576062992126
11
1.6875448818897638
21
1.3916404724409448
0
LINE
8
BLACK
6
CONTINUOUS
10
1.6875448818897638
20
1.3916404724409448
11
1.6883595275590551
21
1.3924551181102363
0
LINE
8
BLACK
6
CONTINUOUS
10
1.6883595275590551
20
1.3924551181102363
11
1.6894239370078741
21
1.3928960236220471
0
LINE
8
BLACK
6
CONTINUOUS
10
1.6894239370078741
20
1.3928960236220471
11
1.690576062992126
21
1.3928960236220471
0
LINE
8
BLACK
6
CONTINUOUS
10
1.690576062992126
20
1.3928960236220471
11
1.6916404724409448
21
1.3924551181102363
0
LINE
8
BLACK
6
CONTINUOUS
10
2.410576062992126
20
1.4128960236220471
11
2.4116404724409448
21
1.4124551181102363
0
LINE
8
BLACK
6
CONTINUOUS
10
2.4116404724409448
20
1.4124551181102363
11
2.4124551181102363
21
1.4116404724409448
0
LINE
8
BLACK
6
CONTINUOUS
10
2.4124551181102363
20
1.4116404724409448
11
2.4128960236220474
21
1.410576062992126
0
LINE
8
BLACK
6
CONTINUOUS
10
2.4128960236220474
20
1.410576062992126
11
2.4129527559055117
21
1.4099999999999999
0
LINE
8
BLACK
6
CONTINUOUS
10
2.4129527559055117
20
1.4099999999999999
11
2.4129527559055117
21
1.3200000000000001
0
LINE
8
BLACK
6
CONTINUOUS
10
2.4129527559055117
20
1.3200000000000001
11
2.4128960236220474
21
1.319423937007874
0
LINE
8
BLACK
6
CONTINUOUS
10
2.4128960236220474
20
1.319423937007874
11
2.4124551181102363
21
1.3183595275590552
0
LINE
8
BLACK
6
CONTINUOUS
10
2.4124551181102363
20
1.3183595275590552
11
2.4116404724409448
21
1.3175448818897637
0
LINE
8
BLACK
6
CONTINUOUS
10
2.4116404724409448
20
1.3175448818897637
11
2.410576062992126
21
1.3171039763779526
0
LINE
8
BLACK
6
CONTINUOUS
10
2.410576062992126
20
1.3171039763779526
11
2.4094239370078738
21
1.3171039763779526
0
LINE
8
BLACK
6
CONTINUOUS
10
2.4094239370078738
20
1.3171039763779526
11
2.408359527559055
21
1.3175448818897637
0
LINE
8
BLACK
6
CONTINUOUS
10
2.408359527559055
20
1.3175448818897637
11
2.4075448818897636
21
1.3183595275590552
0
LINE
8
BLACK
6
CONTINUOUS
10
2.4075448818897636
20
1.3183595275590552
11
2.4071039763779525
21
1.319423937007874
0
LINE
8
BLACK
6
CONTINUOUS
10
2.4071039763779525
20
1.319423937007874
11
2.4070472440944881
21
1.3200000000000001
0
LINE
8
BLACK
6
CONTINUOUS
10
2.4070472440944881
20
1.3200000000000001
11
2.4070472440944881
21
1.4070472440944881
0
LINE
8
BLACK
6
CONTINUOUS
10
2.4070472440944881
20
1.4070472440944881
11
2.2129527559055115
21
1.4070472440944881
0
LINE
8
BLACK
6
CONTINUOUS
10
2.2129527559055115
20
1.4070472440944881
11
2.2129527559055115
21
1.3200000000000001
0
LINE
8
BLACK
6
CONTINUOUS
10
2.2129527559055115
20
1.3200000000000001
11
2.2128960236220472
21
1.319423937007874
0
LINE
8
BLACK
6
CONTINUOUS
10
2.2128960236220472
20
1.319423937007874
11
2.2124551181102361
21
1.3183595275590552
0
LINE
8
BLACK
6
CONTINUOUS
10
2.2124551181102361
20
1.3183595275590552
11
2.2116404724409446
21
1.3175448818897637
0
LINE
8
BLACK
6
CONTINUOUS
10
2.2116404724409446
20
1.3175448818897637
11
2.2105760629921258
21
1.3171039763779526
0
LINE
8
BLACK
6
CONTINUOUS
10
2.2105760629921258
20
1.3171039763779526
11
2.2094239370078741
21
1.3171039763779526
0
LINE
8
BLACK
6
CONTINUOUS
10
2.2094239370078741
20
1.3171039763779526
11
2.2083595275590548
21
1.3175448818897637
0
LINE
8
BLACK
6
CONTINUOUS
10
2.2083595275590548
20
1.3175448818897637
11
2.2075448818897638
21
1.3183595275590552
0
LINE
8
BLACK
6
CONTINUOUS
10
2.2075448818897638
20
1.3183595275590552
11
2.2071039763779527
21
1.319423937007874
0
LINE
8
BLACK
6
CONTINUOUS
10
2.2071039763779527
20
1.319423937007874
11
2.2070472440944879
21
1.3200000000000001
0
LINE
8
BLACK
6
CONTINUOUS
10
2.2070472440944879
20
1.3200000000000001
11
2.2070472440944879
21
1.4099999999999999
0
LINE
8
BLACK
6
CONTINUOUS
10
2.2070472440944879
20
1.4099999999999999
11
2.2071039763779527
21
1.410576062992126
0
LINE
8
BLACK
6
CONTINUOUS
10
2.2071039763779527
20
1.410576062992126
11
2.2075448818897638
21
1.4116404724409448
0
LINE
8
BLACK
6
CONTINUOUS
10
2.2075448818897638
20
1.4116404724409448
11
2.2083595275590548
21
1.4124551181102363
0
LINE
8
BLACK
6
CONTINUOUS
10
2.2083595275590548
20
1.4124551181102363
11
2.2094239370078741
21
1.4128960236220471
0
LINE
8
BLACK
6
CONTINUOUS
10
2.2094239370078741
20
1.4128960236220471
11
2.21
21
1.4129527559055117
0
LINE
8
BLACK
6
CONTINUOUS
10
2.21
20
1.4129527559055117
11
2.4100000000000001
21
1.4129527559055117
0
LINE
8
BLACK
6
CONTINUOUS
10
2.4100000000000001
20
1.4129527559055117
11
2.410576062992126
21
1.4128960236220471
0
CIRCLE
8
BLACK
10
2.3999999999999999
20
0.4
40
0.0068897637795276
0
CIRCLE
8
BLACK
10
0.4
20
0.4
40
0.0068897637795276
0
CIRCLE
8
BLACK
10
0.4
20
1.5999999999999999
40
0.0068897637795276
0
CIRCLE
8
BLACK
10
2.3600000393700786
20
1.3599999999999999
40
0.0068897637795276
0
CIRCLE
8
BLACK
10
2.259999960629921
20
1.3599999999999999
40
0.0068897637795276
0
CIRCLE
8
BLACK
10
2.3600000393700786
20
1.26
40
0.0068897637795276
0
CIRCLE
8
BLACK
10
2.259999960629921
20
1.26
40
0.0068897637795276
0
CIRCLE
8
BLACK
10
2.3999999999999999
20
1.5999999999999999
40
0.0068897637795276
0
CIRCLE
8
BLACK
10
2.3600000393700786
20
1.0600000000000001
40
0.0068897637795276
0
CIRCLE
8
BLACK
10
2.259999960629921
20
1.0600000000000001
40
0.0068897637795276
0
CIRCLE
8
BLACK
10
2.2599999999999998
20
0.89
40
0.0068897637795276
0
CIRCLE
8
BLACK
10
2.3599999999999999
20
0.89
40
0.0068897637795276
0
CIRCLE
8
BLACK
10
2.2599999999999998
20
0.79
40
0.0068897637795276
0
CIRCLE
8
BLACK
10
2.3599999999999999
20
0.79
40
0.0068897637795276
0
CIRCLE
8
BLACK
10
2.2599999999999998
20
0.6899999999999999
40
0.0068897637795276
0
CIRCLE
8
BLACK
10
2.3599999999999999
20
0.6899999999999999
40
0.0068897637795276
0
CIRCLE
8
BLACK
10
2.3600000393700786
20
1.1599999999999999
40
0.0068897637795276
0
CIRCLE
8
BLACK
10
2.259999960629921
20
1.1599999999999999
40
0.0068897637795276
0
CIRCLE
8
BLACK
10
0.439
20
1.
40
0.0068897637795276
0
CIRCLE
8
BLACK
10
0.339
20
1.0999999999999999
40
0.0068897637795276
0
CIRCLE
8
BLACK
10
0.339
20
0.9
40
0.0068897637795276
0
CIRCLE
8
BLACK
10
0.539
20
1.0999999999999999
40
0.0068897637795276
0
CIRCLE
8
BLACK
10
0.539
20
0.9
40
0.0068897637795276
0
CIRCLE
8
BLACK
10
1.74
20
1.3499999999999999
40
0.0068897637795276
0
CIRCLE
8
BLACK
10
1.8399999999999999
20
1.3499999999999999
40
0.0068897637795276
  0
ENDSEC
  0
EOF
