  0
SECTION
  2
HEADER
  9
$ANGBASE
  50
0.0
  9
$ANGDIR
  70
1
  9
$MEASUREMENT
  70
0
  0
ENDSEC
  0
SECTION
  2
TABLES
  0
TABLE
  2
LTYPE
  70
4
  0
LTYPE
  5
40F
  2
CONTINUOUS
  70
0
  3
Solid line
  72
65
  73
0
  40
0.0
  0
LTYPE
  5
410
  2
DASHDOT
 70
0
  3
Dash Dot ____ _ ____ _
 72
65
 73
4
 40
2.0
 49
1.25
 49
-0.25
 49
0.25
 49
-0.25
  0
LTYPE
  5
411
  2
DASHED
 70
0
  3
Dashed __ __ __ __ __
 72
65
 73
2
 40
0.75
 49
0.5
 49
-0.25
  0
LTYPE
  5
43B
  2
DOTTED
 70
0
  3
Dotted .  .  .  .
 72
65
 73
2
 40
0.2
 49
0.0
 49
-0.2
  0
ENDTAB
  0
TABLE
  2
STYLE
  70
4
  0
STYLE
  2
KICAD
  70
0
  40
0
  41
1
  42
1
  50
0
  71
0
  3
isocp.shx
  0
STYLE
  2
KICADB
  70
0
  40
0
  41
1
  42
1
  50
0
  71
0
  3
isocp.shx
  0
STYLE
  2
KICADI
  70
0
  40
0
  41
1
  42
1
  50
15
  71
0
  3
isocp.shx
  0
STYLE
  2
KICADBI
  70
0
  40
0
  41
1
  42
1
  50
15
  71
0
  3
isocp.shx
  0
ENDTAB
  0
TABLE
  2
LAYER
  70
1
  0
LAYER
  2
BLACK
  70
0
  62
7
  6
CONTINUOUS
  0
ENDTAB
  0
ENDSEC
  0
SECTION
  2
ENTITIES
0
LINE
8
BLACK
6
CONTINUOUS
10
0.9889593307086614
20
0.8696101181102363
11
0.9894920078740157
21
0.8690774409448818
0
LINE
8
BLACK
6
CONTINUOUS
10
0.9894920078740157
20
0.8690774409448818
11
0.9895669291338582
21
0.8687007874015747
0
LINE
8
BLACK
6
CONTINUOUS
10
0.9895669291338582
20
0.8687007874015747
11
0.9895669291338582
21
0.5812992125984252
0
LINE
8
BLACK
6
CONTINUOUS
10
0.9895669291338582
20
0.5812992125984252
11
0.9894920078740157
21
0.5809225590551181
0
LINE
8
BLACK
6
CONTINUOUS
10
0.9894920078740157
20
0.5809225590551181
11
0.9889593307086614
21
0.5803898818897638
0
LINE
8
BLACK
6
CONTINUOUS
10
0.9889593307086614
20
0.5803898818897638
11
0.9885826771653543
21
0.5803149606299213
0
LINE
8
BLACK
6
CONTINUOUS
10
0.9885826771653543
20
0.5803149606299213
11
0.8114173228346456
21
0.5803149606299213
0
LINE
8
BLACK
6
CONTINUOUS
10
0.8114173228346456
20
0.5803149606299213
11
0.8110406692913386
21
0.5803898818897638
0
LINE
8
BLACK
6
CONTINUOUS
10
0.8110406692913386
20
0.5803898818897638
11
0.8105079921259842
21
0.5809225590551181
0
LINE
8
BLACK
6
CONTINUOUS
10
0.8105079921259842
20
0.5809225590551181
11
0.8104330708661417
21
0.5812992125984252
0
LINE
8
BLACK
6
CONTINUOUS
10
0.8104330708661417
20
0.5812992125984252
11
0.8104330708661417
21
0.8687007874015747
0
LINE
8
BLACK
6
CONTINUOUS
10
0.8104330708661417
20
0.8687007874015747
11
0.8105079921259842
21
0.8690774409448818
0
LINE
8
BLACK
6
CONTINUOUS
10
0.8105079921259842
20
0.8690774409448818
11
0.8110406692913386
21
0.8696101181102363
0
LINE
8
BLACK
6
CONTINUOUS
10
0.8110406692913386
20
0.8696101181102363
11
0.8114173228346456
21
0.8696850393700787
0
LINE
8
BLACK
6
CONTINUOUS
10
0.8114173228346456
20
0.8696850393700787
11
0.9885826771653543
21
0.8696850393700787
0
LINE
8
BLACK
6
CONTINUOUS
10
0.9885826771653543
20
0.8696850393700787
11
0.9889593307086614
21
0.8696101181102363
0
LINE
8
BLACK
6
CONTINUOUS
10
0.8124015748031496
20
0.8677165354330708
11
0.8124015748031496
21
0.5822834645669291
0
LINE
8
BLACK
6
CONTINUOUS
10
0.8124015748031496
20
0.5822834645669291
11
0.9875984251968504
21
0.5822834645669291
0
LINE
8
BLACK
6
CONTINUOUS
10
0.9875984251968504
20
0.5822834645669291
11
0.9875984251968504
21
0.8677165354330708
0
LINE
8
BLACK
6
CONTINUOUS
10
0.9875984251968504
20
0.8677165354330708
11
0.8124015748031496
21
0.8677165354330708
0
LINE
8
BLACK
6
CONTINUOUS
10
1.0970853149606299
20
1.0228384645669291
11
1.0976179921259843
21
1.0223057874015749
0
LINE
8
BLACK
6
CONTINUOUS
10
1.0976179921259843
20
1.0223057874015749
11
1.0976929133858266
21
1.0219291338582677
0
LINE
8
BLACK
6
CONTINUOUS
10
1.0976929133858266
20
1.0219291338582677
11
1.0976929133858266
21
0.8880708661417323
0
LINE
8
BLACK
6
CONTINUOUS
10
1.0976929133858266
20
0.8880708661417323
11
1.0976179921259843
21
0.8876942125984252
0
LINE
8
BLACK
6
CONTINUOUS
10
1.0976179921259843
20
0.8876942125984252
11
1.0970853149606299
21
0.8871615354330709
0
LINE
8
BLACK
6
CONTINUOUS
10
1.0970853149606299
20
0.8871615354330709
11
1.0967086614173227
21
0.8870866141732283
0
LINE
8
BLACK
6
CONTINUOUS
10
1.0967086614173227
20
0.8870866141732283
11
0.9352913385826771
21
0.8870866141732283
0
LINE
8
BLACK
6
CONTINUOUS
10
0.9352913385826771
20
0.8870866141732283
11
0.93491468503937
21
0.8871615354330709
0
LINE
8
BLACK
6
CONTINUOUS
10
0.93491468503937
20
0.8871615354330709
11
0.9343820078740157
21
0.8876942125984252
0
LINE
8
BLACK
6
CONTINUOUS
10
0.9343820078740157
20
0.8876942125984252
11
0.9343070866141732
21
0.8880708661417323
0
LINE
8
BLACK
6
CONTINUOUS
10
0.9343070866141732
20
0.8880708661417323
11
0.9343070866141732
21
1.0219291338582677
0
LINE
8
BLACK
6
CONTINUOUS
10
0.9343070866141732
20
1.0219291338582677
11
0.9343820078740157
21
1.0223057874015749
0
LINE
8
BLACK
6
CONTINUOUS
10
0.9343820078740157
20
1.0223057874015749
11
0.93491468503937
21
1.0228384645669291
0
LINE
8
BLACK
6
CONTINUOUS
10
0.93491468503937
20
1.0228384645669291
11
0.9352913385826771
21
1.0229133858267716
0
LINE
8
BLACK
6
CONTINUOUS
10
0.9352913385826771
20
1.0229133858267716
11
1.0967086614173227
21
1.0229133858267716
0
LINE
8
BLACK
6
CONTINUOUS
10
1.0967086614173227
20
1.0229133858267716
11
1.0970853149606299
21
1.0228384645669291
0
LINE
8
BLACK
6
CONTINUOUS
10
0.936275590551181
20
1.0209448818897637
11
0.936275590551181
21
0.8890551181102362
0
LINE
8
BLACK
6
CONTINUOUS
10
0.936275590551181
20
0.8890551181102362
11
1.0957244094488188
21
0.8890551181102362
0
LINE
8
BLACK
6
CONTINUOUS
10
1.0957244094488188
20
0.8890551181102362
11
1.0957244094488188
21
1.0209448818897637
0
LINE
8
BLACK
6
CONTINUOUS
10
1.0957244094488188
20
1.0209448818897637
11
0.936275590551181
21
1.0209448818897637
0
LINE
8
BLACK
6
CONTINUOUS
10
1.2239593307086614
20
1.0228384645669291
11
1.2244920078740158
21
1.0223057874015749
0
LINE
8
BLACK
6
CONTINUOUS
10
1.2244920078740158
20
1.0223057874015749
11
1.2245669291338583
21
1.0219291338582677
0
LINE
8
BLACK
6
CONTINUOUS
10
1.2245669291338583
20
1.0219291338582677
11
1.2245669291338583
21
0.8880708661417323
0
LINE
8
BLACK
6
CONTINUOUS
10
1.2245669291338583
20
0.8880708661417323
11
1.2244920078740158
21
0.8876942125984252
0
LINE
8
BLACK
6
CONTINUOUS
10
1.2244920078740158
20
0.8876942125984252
11
1.2239593307086614
21
0.8871615354330709
0
LINE
8
BLACK
6
CONTINUOUS
10
1.2239593307086614
20
0.8871615354330709
11
1.2235826771653544
21
0.8870866141732283
0
LINE
8
BLACK
6
CONTINUOUS
10
1.2235826771653544
20
0.8870866141732283
11
1.1464173228346457
21
0.8870866141732283
0
LINE
8
BLACK
6
CONTINUOUS
10
1.1464173228346457
20
0.8870866141732283
11
1.1460406692913385
21
0.8871615354330709
0
LINE
8
BLACK
6
CONTINUOUS
10
1.1460406692913385
20
0.8871615354330709
11
1.1455079921259843
21
0.8876942125984252
0
LINE
8
BLACK
6
CONTINUOUS
10
1.1455079921259843
20
0.8876942125984252
11
1.1454330708661418
21
0.8880708661417323
0
LINE
8
BLACK
6
CONTINUOUS
10
1.1454330708661418
20
0.8880708661417323
11
1.1454330708661418
21
1.0219291338582677
0
LINE
8
BLACK
6
CONTINUOUS
10
1.1454330708661418
20
1.0219291338582677
11
1.1455079921259843
21
1.0223057874015749
0
LINE
8
BLACK
6
CONTINUOUS
10
1.1455079921259843
20
1.0223057874015749
11
1.1460406692913385
21
1.0228384645669291
0
LINE
8
BLACK
6
CONTINUOUS
10
1.1460406692913385
20
1.0228384645669291
11
1.1464173228346457
21
1.0229133858267716
0
LINE
8
BLACK
6
CONTINUOUS
10
1.1464173228346457
20
1.0229133858267716
11
1.2235826771653544
21
1.0229133858267716
0
LINE
8
BLACK
6
CONTINUOUS
10
1.2235826771653544
20
1.0229133858267716
11
1.2239593307086614
21
1.0228384645669291
0
LINE
8
BLACK
6
CONTINUOUS
10
1.1474015748031496
20
1.0209448818897637
11
1.1474015748031496
21
0.8890551181102362
0
LINE
8
BLACK
6
CONTINUOUS
10
1.1474015748031496
20
0.8890551181102362
11
1.2225984251968505
21
0.8890551181102362
0
LINE
8
BLACK
6
CONTINUOUS
10
1.2225984251968505
20
0.8890551181102362
11
1.2225984251968505
21
1.0209448818897637
0
LINE
8
BLACK
6
CONTINUOUS
10
1.2225984251968505
20
1.0209448818897637
11
1.1474015748031496
21
1.0209448818897637
0
LINE
8
BLACK
6
CONTINUOUS
10
0.9327782283464566
20
1.097051062992126
11
0.933310905511811
21
1.0965183858267715
0
LINE
8
BLACK
6
CONTINUOUS
10
0.933310905511811
20
1.0965183858267715
11
0.9333858267716535
21
1.0961417322834646
0
LINE
8
BLACK
6
CONTINUOUS
10
0.9333858267716535
20
1.0961417322834646
11
0.9333858267716535
21
0.9638582677165354
0
LINE
8
BLACK
6
CONTINUOUS
10
0.9333858267716535
20
0.9638582677165354
11
0.933310905511811
21
0.9634816141732283
0
LINE
8
BLACK
6
CONTINUOUS
10
0.933310905511811
20
0.9634816141732283
11
0.9327782283464566
21
0.962948937007874
0
LINE
8
BLACK
6
CONTINUOUS
10
0.9327782283464566
20
0.962948937007874
11
0.9324015748031496
21
0.9628740157480314
0
LINE
8
BLACK
6
CONTINUOUS
10
0.9324015748031496
20
0.9628740157480314
11
0.8575984251968504
21
0.9628740157480314
0
LINE
8
BLACK
6
CONTINUOUS
10
0.8575984251968504
20
0.9628740157480314
11
0.8572217716535433
21
0.962948937007874
0
LINE
8
BLACK
6
CONTINUOUS
10
0.8572217716535433
20
0.962948937007874
11
0.856689094488189
21
0.9634816141732283
0
LINE
8
BLACK
6
CONTINUOUS
10
0.856689094488189
20
0.9634816141732283
11
0.8566141732283464
21
0.9638582677165354
0
LINE
8
BLACK
6
CONTINUOUS
10
0.8566141732283464
20
0.9638582677165354
11
0.8566141732283464
21
1.0961417322834646
0
LINE
8
BLACK
6
CONTINUOUS
10
0.8566141732283464
20
1.0961417322834646
11
0.856689094488189
21
1.0965183858267715
0
LINE
8
BLACK
6
CONTINUOUS
10
0.856689094488189
20
1.0965183858267715
11
0.8572217716535433
21
1.097051062992126
0
LINE
8
BLACK
6
CONTINUOUS
10
0.8572217716535433
20
1.097051062992126
11
0.8575984251968504
21
1.0971259842519685
0
LINE
8
BLACK
6
CONTINUOUS
10
0.8575984251968504
20
1.0971259842519685
11
0.9324015748031496
21
1.0971259842519685
0
LINE
8
BLACK
6
CONTINUOUS
10
0.9324015748031496
20
1.0971259842519685
11
0.9327782283464566
21
1.097051062992126
0
LINE
8
BLACK
6
CONTINUOUS
10
0.8585826771653543
20
1.0951574803149606
11
0.8585826771653543
21
0.9648425196850393
0
LINE
8
BLACK
6
CONTINUOUS
10
0.8585826771653543
20
0.9648425196850393
11
0.9314173228346456
21
0.9648425196850393
0
LINE
8
BLACK
6
CONTINUOUS
10
0.9314173228346456
20
0.9648425196850393
11
0.9314173228346456
21
1.0951574803149606
0
LINE
8
BLACK
6
CONTINUOUS
10
0.9314173228346456
20
1.0951574803149606
11
0.8585826771653543
21
1.0951574803149606
0
LINE
8
BLACK
6
CONTINUOUS
10
1.7383057874015748
20
1.0454920078740157
11
1.738838464566929
21
1.0449593307086613
0
LINE
8
BLACK
6
CONTINUOUS
10
1.738838464566929
20
1.0449593307086613
11
1.7389133858267716
21
1.0445826771653544
0
LINE
8
BLACK
6
CONTINUOUS
10
1.7389133858267716
20
1.0445826771653544
11
1.7389133858267716
21
0.9674173228346457
0
LINE
8
BLACK
6
CONTINUOUS
10
1.7389133858267716
20
0.9674173228346457
11
1.738838464566929
21
0.9670406692913386
0
LINE
8
BLACK
6
CONTINUOUS
10
1.738838464566929
20
0.9670406692913386
11
1.7383057874015748
21
0.9665079921259843
0
LINE
8
BLACK
6
CONTINUOUS
10
1.7383057874015748
20
0.9665079921259843
11
1.7379291338582676
21
0.9664330708661417
0
LINE
8
BLACK
6
CONTINUOUS
10
1.7379291338582676
20
0.9664330708661417
11
1.6040708661417322
21
0.9664330708661417
0
LINE
8
BLACK
6
CONTINUOUS
10
1.6040708661417322
20
0.9664330708661417
11
1.6036942125984253
21
0.9665079921259843
0
LINE
8
BLACK
6
CONTINUOUS
10
1.6036942125984253
20
0.9665079921259843
11
1.6031615354330708
21
0.9670406692913386
0
LINE
8
BLACK
6
CONTINUOUS
10
1.6031615354330708
20
0.9670406692913386
11
1.6030866141732283
21
0.9674173228346457
0
LINE
8
BLACK
6
CONTINUOUS
10
1.6030866141732283
20
0.9674173228346457
11
1.6030866141732283
21
1.0445826771653544
0
LINE
8
BLACK
6
CONTINUOUS
10
1.6030866141732283
20
1.0445826771653544
11
1.6031615354330708
21
1.0449593307086613
0
LINE
8
BLACK
6
CONTINUOUS
10
1.6031615354330708
20
1.0449593307086613
11
1.6036942125984253
21
1.0454920078740157
0
LINE
8
BLACK
6
CONTINUOUS
10
1.6036942125984253
20
1.0454920078740157
11
1.6040708661417322
21
1.0455669291338583
0
LINE
8
BLACK
6
CONTINUOUS
10
1.6040708661417322
20
1.0455669291338583
11
1.7379291338582676
21
1.0455669291338583
0
LINE
8
BLACK
6
CONTINUOUS
10
1.7379291338582676
20
1.0455669291338583
11
1.7383057874015748
21
1.0454920078740157
0
LINE
8
BLACK
6
CONTINUOUS
10
1.6050551181102362
20
1.0435984251968504
11
1.6050551181102362
21
0.9684015748031496
0
LINE
8
BLACK
6
CONTINUOUS
10
1.6050551181102362
20
0.9684015748031496
11
1.7369448818897637
21
0.9684015748031496
0
LINE
8
BLACK
6
CONTINUOUS
10
1.7369448818897637
20
0.9684015748031496
11
1.7369448818897637
21
1.0435984251968504
0
LINE
8
BLACK
6
CONTINUOUS
10
1.7369448818897637
20
1.0435984251968504
11
1.6050551181102362
21
1.0435984251968504
0
LINE
8
BLACK
6
CONTINUOUS
10
1.8639593307086613
20
1.1228384645669292
11
1.8644920078740157
21
1.1223057874015747
0
LINE
8
BLACK
6
CONTINUOUS
10
1.8644920078740157
20
1.1223057874015747
11
1.8645669291338582
21
1.1219291338582678
0
LINE
8
BLACK
6
CONTINUOUS
10
1.8645669291338582
20
1.1219291338582678
11
1.8645669291338582
21
0.9880708661417322
0
LINE
8
BLACK
6
CONTINUOUS
10
1.8645669291338582
20
0.9880708661417322
11
1.8644920078740157
21
0.9876942125984252
0
LINE
8
BLACK
6
CONTINUOUS
10
1.8644920078740157
20
0.9876942125984252
11
1.8639593307086613
21
0.9871615354330708
0
LINE
8
BLACK
6
CONTINUOUS
10
1.8639593307086613
20
0.9871615354330708
11
1.8635826771653543
21
0.9870866141732283
0
LINE
8
BLACK
6
CONTINUOUS
10
1.8635826771653543
20
0.9870866141732283
11
1.7864173228346456
21
0.9870866141732283
0
LINE
8
BLACK
6
CONTINUOUS
10
1.7864173228346456
20
0.9870866141732283
11
1.7860406692913386
21
0.9871615354330708
0
LINE
8
BLACK
6
CONTINUOUS
10
1.7860406692913386
20
0.9871615354330708
11
1.7855079921259842
21
0.9876942125984252
0
LINE
8
BLACK
6
CONTINUOUS
10
1.7855079921259842
20
0.9876942125984252
11
1.7854330708661417
21
0.9880708661417322
0
LINE
8
BLACK
6
CONTINUOUS
10
1.7854330708661417
20
0.9880708661417322
11
1.7854330708661417
21
1.1219291338582678
0
LINE
8
BLACK
6
CONTINUOUS
10
1.7854330708661417
20
1.1219291338582678
11
1.7855079921259842
21
1.1223057874015747
0
LINE
8
BLACK
6
CONTINUOUS
10
1.7855079921259842
20
1.1223057874015747
11
1.7860406692913386
21
1.1228384645669292
0
LINE
8
BLACK
6
CONTINUOUS
10
1.7860406692913386
20
1.1228384645669292
11
1.7864173228346456
21
1.1229133858267717
0
LINE
8
BLACK
6
CONTINUOUS
10
1.7864173228346456
20
1.1229133858267717
11
1.8635826771653543
21
1.1229133858267717
0
LINE
8
BLACK
6
CONTINUOUS
10
1.8635826771653543
20
1.1229133858267717
11
1.8639593307086613
21
1.1228384645669292
0
LINE
8
BLACK
6
CONTINUOUS
10
1.7874015748031495
20
1.1209448818897638
11
1.7874015748031495
21
0.9890551181102362
0
LINE
8
BLACK
6
CONTINUOUS
10
1.7874015748031495
20
0.9890551181102362
11
1.8625984251968504
21
0.9890551181102362
0
LINE
8
BLACK
6
CONTINUOUS
10
1.8625984251968504
20
0.9890551181102362
11
1.8625984251968504
21
1.1209448818897638
0
LINE
8
BLACK
6
CONTINUOUS
10
1.8625984251968504
20
1.1209448818897638
11
1.7874015748031495
21
1.1209448818897638
0
LINE
8
BLACK
6
CONTINUOUS
10
1.9439593307086613
20
1.1228384645669292
11
1.9444920078740158
21
1.1223057874015747
0
LINE
8
BLACK
6
CONTINUOUS
10
1.9444920078740158
20
1.1223057874015747
11
1.9445669291338583
21
1.1219291338582678
0
LINE
8
BLACK
6
CONTINUOUS
10
1.9445669291338583
20
1.1219291338582678
11
1.9445669291338583
21
0.9880708661417322
0
LINE
8
BLACK
6
CONTINUOUS
10
1.9445669291338583
20
0.9880708661417322
11
1.9444920078740158
21
0.9876942125984252
0
LINE
8
BLACK
6
CONTINUOUS
10
1.9444920078740158
20
0.9876942125984252
11
1.9439593307086613
21
0.9871615354330708
0
LINE
8
BLACK
6
CONTINUOUS
10
1.9439593307086613
20
0.9871615354330708
11
1.9435826771653544
21
0.9870866141732283
0
LINE
8
BLACK
6
CONTINUOUS
10
1.9435826771653544
20
0.9870866141732283
11
1.8664173228346457
21
0.9870866141732283
0
LINE
8
BLACK
6
CONTINUOUS
10
1.8664173228346457
20
0.9870866141732283
11
1.8660406692913385
21
0.9871615354330708
0
LINE
8
BLACK
6
CONTINUOUS
10
1.8660406692913385
20
0.9871615354330708
11
1.8655079921259843
21
0.9876942125984252
0
LINE
8
BLACK
6
CONTINUOUS
10
1.8655079921259843
20
0.9876942125984252
11
1.8654330708661417
21
0.9880708661417322
0
LINE
8
BLACK
6
CONTINUOUS
10
1.8654330708661417
20
0.9880708661417322
11
1.8654330708661417
21
1.1219291338582678
0
LINE
8
BLACK
6
CONTINUOUS
10
1.8654330708661417
20
1.1219291338582678
11
1.8655079921259843
21
1.1223057874015747
0
LINE
8
BLACK
6
CONTINUOUS
10
1.8655079921259843
20
1.1223057874015747
11
1.8660406692913385
21
1.1228384645669292
0
LINE
8
BLACK
6
CONTINUOUS
10
1.8660406692913385
20
1.1228384645669292
11
1.8664173228346457
21
1.1229133858267717
0
LINE
8
BLACK
6
CONTINUOUS
10
1.8664173228346457
20
1.1229133858267717
11
1.9435826771653544
21
1.1229133858267717
0
LINE
8
BLACK
6
CONTINUOUS
10
1.9435826771653544
20
1.1229133858267717
11
1.9439593307086613
21
1.1228384645669292
0
LINE
8
BLACK
6
CONTINUOUS
10
1.8674015748031496
20
1.1209448818897638
11
1.8674015748031496
21
0.9890551181102362
0
LINE
8
BLACK
6
CONTINUOUS
10
1.8674015748031496
20
0.9890551181102362
11
1.9425984251968504
21
0.9890551181102362
0
LINE
8
BLACK
6
CONTINUOUS
10
1.9425984251968504
20
0.9890551181102362
11
1.9425984251968504
21
1.1209448818897638
0
LINE
8
BLACK
6
CONTINUOUS
10
1.9425984251968504
20
1.1209448818897638
11
1.8674015748031496
21
1.1209448818897638
0
LINE
8
BLACK
6
CONTINUOUS
10
1.1333057874015748
20
1.1104920078740157
11
1.133838464566929
21
1.1099593307086615
0
LINE
8
BLACK
6
CONTINUOUS
10
1.133838464566929
20
1.1099593307086615
11
1.1339133858267716
21
1.1095826771653543
0
LINE
8
BLACK
6
CONTINUOUS
10
1.1339133858267716
20
1.1095826771653543
11
1.1339133858267716
21
1.0324173228346456
0
LINE
8
BLACK
6
CONTINUOUS
10
1.1339133858267716
20
1.0324173228346456
11
1.133838464566929
21
1.0320406692913386
0
LINE
8
BLACK
6
CONTINUOUS
10
1.133838464566929
20
1.0320406692913386
11
1.1333057874015748
21
1.0315079921259842
0
LINE
8
BLACK
6
CONTINUOUS
10
1.1333057874015748
20
1.0315079921259842
11
1.1329291338582677
21
1.0314330708661417
0
LINE
8
BLACK
6
CONTINUOUS
10
1.1329291338582677
20
1.0314330708661417
11
0.9990708661417322
21
1.0314330708661417
0
LINE
8
BLACK
6
CONTINUOUS
10
0.9990708661417322
20
1.0314330708661417
11
0.9986942125984252
21
1.0315079921259842
0
LINE
8
BLACK
6
CONTINUOUS
10
0.9986942125984252
20
1.0315079921259842
11
0.9981615354330708
21
1.0320406692913386
0
LINE
8
BLACK
6
CONTINUOUS
10
0.9981615354330708
20
1.0320406692913386
11
0.9980866141732283
21
1.0324173228346456
0
LINE
8
BLACK
6
CONTINUOUS
10
0.9980866141732283
20
1.0324173228346456
11
0.9980866141732283
21
1.1095826771653543
0
LINE
8
BLACK
6
CONTINUOUS
10
0.9980866141732283
20
1.1095826771653543
11
0.9981615354330708
21
1.1099593307086615
0
LINE
8
BLACK
6
CONTINUOUS
10
0.9981615354330708
20
1.1099593307086615
11
0.9986942125984252
21
1.1104920078740157
0
LINE
8
BLACK
6
CONTINUOUS
10
0.9986942125984252
20
1.1104920078740157
11
0.9990708661417322
21
1.1105669291338582
0
LINE
8
BLACK
6
CONTINUOUS
10
0.9990708661417322
20
1.1105669291338582
11
1.1329291338582677
21
1.1105669291338582
0
LINE
8
BLACK
6
CONTINUOUS
10
1.1329291338582677
20
1.1105669291338582
11
1.1333057874015748
21
1.1104920078740157
0
LINE
8
BLACK
6
CONTINUOUS
10
1.0000551181102362
20
1.1085984251968504
11
1.0000551181102362
21
1.0334015748031495
0
LINE
8
BLACK
6
CONTINUOUS
10
1.0000551181102362
20
1.0334015748031495
11
1.1319448818897637
21
1.0334015748031495
0
LINE
8
BLACK
6
CONTINUOUS
10
1.1319448818897637
20
1.0334015748031495
11
1.1319448818897637
21
1.1085984251968504
0
LINE
8
BLACK
6
CONTINUOUS
10
1.1319448818897637
20
1.1085984251968504
11
1.0000551181102362
21
1.1085984251968504
0
LINE
8
BLACK
6
CONTINUOUS
10
1.7505735039370078
20
1.189806968503937
11
1.7511061811023623
21
1.1892742913385828
0
LINE
8
BLACK
6
CONTINUOUS
10
1.7511061811023623
20
1.1892742913385828
11
1.7511811023622046
21
1.1888976377952756
0
LINE
8
BLACK
6
CONTINUOUS
10
1.7511811023622046
20
1.1888976377952756
11
1.7511811023622046
21
1.0511023622047244
0
LINE
8
BLACK
6
CONTINUOUS
10
1.7511811023622046
20
1.0511023622047244
11
1.7511061811023623
21
1.0507257086614172
0
LINE
8
BLACK
6
CONTINUOUS
10
1.7511061811023623
20
1.0507257086614172
11
1.7505735039370078
21
1.050193031496063
0
LINE
8
BLACK
6
CONTINUOUS
10
1.7505735039370078
20
1.050193031496063
11
1.7501968503937007
21
1.0501181102362205
0
LINE
8
BLACK
6
CONTINUOUS
10
1.7501968503937007
20
1.0501181102362205
11
1.4998031496062991
21
1.0501181102362205
0
LINE
8
BLACK
6
CONTINUOUS
10
1.4998031496062991
20
1.0501181102362205
11
1.4994264960629922
21
1.050193031496063
0
LINE
8
BLACK
6
CONTINUOUS
10
1.4994264960629922
20
1.050193031496063
11
1.4988938188976377
21
1.0507257086614172
0
LINE
8
BLACK
6
CONTINUOUS
10
1.4988938188976377
20
1.0507257086614172
11
1.4988188976377952
21
1.0511023622047244
0
LINE
8
BLACK
6
CONTINUOUS
10
1.4988188976377952
20
1.0511023622047244
11
1.4988188976377952
21
1.1888976377952756
0
LINE
8
BLACK
6
CONTINUOUS
10
1.4988188976377952
20
1.1888976377952756
11
1.4988938188976377
21
1.1892742913385828
0
LINE
8
BLACK
6
CONTINUOUS
10
1.4988938188976377
20
1.1892742913385828
11
1.4994264960629922
21
1.189806968503937
0
LINE
8
BLACK
6
CONTINUOUS
10
1.4994264960629922
20
1.189806968503937
11
1.4998031496062991
21
1.1898818897637795
0
LINE
8
BLACK
6
CONTINUOUS
10
1.4998031496062991
20
1.1898818897637795
11
1.7501968503937007
21
1.1898818897637795
0
LINE
8
BLACK
6
CONTINUOUS
10
1.7501968503937007
20
1.1898818897637795
11
1.7505735039370078
21
1.189806968503937
0
LINE
8
BLACK
6
CONTINUOUS
10
1.5007874015748031
20
1.1879133858267716
11
1.5007874015748031
21
1.0520866141732284
0
LINE
8
BLACK
6
CONTINUOUS
10
1.5007874015748031
20
1.0520866141732284
11
1.7492125984251967
21
1.0520866141732284
0
LINE
8
BLACK
6
CONTINUOUS
10
1.7492125984251967
20
1.0520866141732284
11
1.7492125984251967
21
1.1879133858267716
0
LINE
8
BLACK
6
CONTINUOUS
10
1.7492125984251967
20
1.1879133858267716
11
1.5007874015748031
21
1.1879133858267716
0
LINE
8
BLACK
6
CONTINUOUS
10
1.4739593307086614
20
1.2078384645669291
11
1.4744920078740158
21
1.2073057874015747
0
LINE
8
BLACK
6
CONTINUOUS
10
1.4744920078740158
20
1.2073057874015747
11
1.4745669291338583
21
1.2069291338582677
0
LINE
8
BLACK
6
CONTINUOUS
10
1.4745669291338583
20
1.2069291338582677
11
1.4745669291338583
21
1.0730708661417323
0
LINE
8
BLACK
6
CONTINUOUS
10
1.4745669291338583
20
1.0730708661417323
11
1.4744920078740158
21
1.0726942125984251
0
LINE
8
BLACK
6
CONTINUOUS
10
1.4744920078740158
20
1.0726942125984251
11
1.4739593307086614
21
1.0721615354330709
0
LINE
8
BLACK
6
CONTINUOUS
10
1.4739593307086614
20
1.0721615354330709
11
1.4735826771653544
21
1.0720866141732284
0
LINE
8
BLACK
6
CONTINUOUS
10
1.4735826771653544
20
1.0720866141732284
11
1.3964173228346457
21
1.0720866141732284
0
LINE
8
BLACK
6
CONTINUOUS
10
1.3964173228346457
20
1.0720866141732284
11
1.3960406692913385
21
1.0721615354330709
0
LINE
8
BLACK
6
CONTINUOUS
10
1.3960406692913385
20
1.0721615354330709
11
1.3955079921259843
21
1.0726942125984251
0
LINE
8
BLACK
6
CONTINUOUS
10
1.3955079921259843
20
1.0726942125984251
11
1.3954330708661418
21
1.0730708661417323
0
LINE
8
BLACK
6
CONTINUOUS
10
1.3954330708661418
20
1.0730708661417323
11
1.3954330708661418
21
1.2069291338582677
0
LINE
8
BLACK
6
CONTINUOUS
10
1.3954330708661418
20
1.2069291338582677
11
1.3955079921259843
21
1.2073057874015747
0
LINE
8
BLACK
6
CONTINUOUS
10
1.3955079921259843
20
1.2073057874015747
11
1.3960406692913385
21
1.2078384645669291
0
LINE
8
BLACK
6
CONTINUOUS
10
1.3960406692913385
20
1.2078384645669291
11
1.3964173228346457
21
1.2079133858267717
0
LINE
8
BLACK
6
CONTINUOUS
10
1.3964173228346457
20
1.2079133858267717
11
1.4735826771653544
21
1.2079133858267717
0
LINE
8
BLACK
6
CONTINUOUS
10
1.4735826771653544
20
1.2079133858267717
11
1.4739593307086614
21
1.2078384645669291
0
LINE
8
BLACK
6
CONTINUOUS
10
1.3974015748031496
20
1.2059448818897638
11
1.3974015748031496
21
1.0740551181102362
0
LINE
8
BLACK
6
CONTINUOUS
10
1.3974015748031496
20
1.0740551181102362
11
1.4725984251968505
21
1.0740551181102362
0
LINE
8
BLACK
6
CONTINUOUS
10
1.4725984251968505
20
1.0740551181102362
11
1.4725984251968505
21
1.2059448818897638
0
LINE
8
BLACK
6
CONTINUOUS
10
1.4725984251968505
20
1.2059448818897638
11
1.3974015748031496
21
1.2059448818897638
0
LINE
8
BLACK
6
CONTINUOUS
10
1.3759672047244094
20
1.2178384645669291
11
1.3764998818897638
21
1.2173057874015747
0
LINE
8
BLACK
6
CONTINUOUS
10
1.3764998818897638
20
1.2173057874015747
11
1.3765748031496063
21
1.2169291338582677
0
LINE
8
BLACK
6
CONTINUOUS
10
1.3765748031496063
20
1.2169291338582677
11
1.3765748031496063
21
1.0830708661417323
0
LINE
8
BLACK
6
CONTINUOUS
10
1.3765748031496063
20
1.0830708661417323
11
1.3764998818897638
21
1.0826942125984251
0
LINE
8
BLACK
6
CONTINUOUS
10
1.3764998818897638
20
1.0826942125984251
11
1.3759672047244094
21
1.0821615354330709
0
LINE
8
BLACK
6
CONTINUOUS
10
1.3759672047244094
20
1.0821615354330709
11
1.3755905511811024
21
1.0820866141732284
0
LINE
8
BLACK
6
CONTINUOUS
10
1.3755905511811024
20
1.0820866141732284
11
1.2244094488188977
21
1.0820866141732284
0
LINE
8
BLACK
6
CONTINUOUS
10
1.2244094488188977
20
1.0820866141732284
11
1.2240327952755905
21
1.0821615354330709
0
LINE
8
BLACK
6
CONTINUOUS
10
1.2240327952755905
20
1.0821615354330709
11
1.2235001181102363
21
1.0826942125984251
0
LINE
8
BLACK
6
CONTINUOUS
10
1.2235001181102363
20
1.0826942125984251
11
1.2234251968503937
21
1.0830708661417323
0
LINE
8
BLACK
6
CONTINUOUS
10
1.2234251968503937
20
1.0830708661417323
11
1.2234251968503937
21
1.2169291338582677
0
LINE
8
BLACK
6
CONTINUOUS
10
1.2234251968503937
20
1.2169291338582677
11
1.2235001181102363
21
1.2173057874015747
0
LINE
8
BLACK
6
CONTINUOUS
10
1.2235001181102363
20
1.2173057874015747
11
1.2240327952755905
21
1.2178384645669291
0
LINE
8
BLACK
6
CONTINUOUS
10
1.2240327952755905
20
1.2178384645669291
11
1.2244094488188977
21
1.2179133858267717
0
LINE
8
BLACK
6
CONTINUOUS
10
1.2244094488188977
20
1.2179133858267717
11
1.3755905511811024
21
1.2179133858267717
0
LINE
8
BLACK
6
CONTINUOUS
10
1.3755905511811024
20
1.2179133858267717
11
1.3759672047244094
21
1.2178384645669291
0
LINE
8
BLACK
6
CONTINUOUS
10
1.2253937007874016
20
1.2159448818897638
11
1.2253937007874016
21
1.0840551181102362
0
LINE
8
BLACK
6
CONTINUOUS
10
1.2253937007874016
20
1.0840551181102362
11
1.3746062992125985
21
1.0840551181102362
0
LINE
8
BLACK
6
CONTINUOUS
10
1.3746062992125985
20
1.0840551181102362
11
1.3746062992125985
21
1.2159448818897638
0
LINE
8
BLACK
6
CONTINUOUS
10
1.3746062992125985
20
1.2159448818897638
11
1.2253937007874016
21
1.2159448818897638
0
LINE
8
BLACK
6
CONTINUOUS
10
1.1325183858267716
20
1.191310905511811
11
1.133051062992126
21
1.1907782283464567
0
LINE
8
BLACK
6
CONTINUOUS
10
1.133051062992126
20
1.1907782283464567
11
1.1331259842519685
21
1.1904015748031496
0
LINE
8
BLACK
6
CONTINUOUS
10
1.1331259842519685
20
1.1904015748031496
11
1.1331259842519685
21
1.1155984251968503
0
LINE
8
BLACK
6
CONTINUOUS
10
1.1331259842519685
20
1.1155984251968503
11
1.133051062992126
21
1.1152217716535433
0
LINE
8
BLACK
6
CONTINUOUS
10
1.133051062992126
20
1.1152217716535433
11
1.1325183858267716
21
1.1146890944881889
0
LINE
8
BLACK
6
CONTINUOUS
10
1.1325183858267716
20
1.1146890944881889
11
1.1321417322834646
21
1.1146141732283463
0
LINE
8
BLACK
6
CONTINUOUS
10
1.1321417322834646
20
1.1146141732283463
11
0.9998582677165354
21
1.1146141732283463
0
LINE
8
BLACK
6
CONTINUOUS
10
0.9998582677165354
20
1.1146141732283463
11
0.9994816141732283
21
1.1146890944881889
0
LINE
8
BLACK
6
CONTINUOUS
10
0.9994816141732283
20
1.1146890944881889
11
0.998948937007874
21
1.1152217716535433
0
LINE
8
BLACK
6
CONTINUOUS
10
0.998948937007874
20
1.1152217716535433
11
0.9988740157480315
21
1.1155984251968503
0
LINE
8
BLACK
6
CONTINUOUS
10
0.9988740157480315
20
1.1155984251968503
11
0.9988740157480315
21
1.1904015748031496
0
LINE
8
BLACK
6
CONTINUOUS
10
0.9988740157480315
20
1.1904015748031496
11
0.998948937007874
21
1.1907782283464567
0
LINE
8
BLACK
6
CONTINUOUS
10
0.998948937007874
20
1.1907782283464567
11
0.9994816141732283
21
1.191310905511811
0
LINE
8
BLACK
6
CONTINUOUS
10
0.9994816141732283
20
1.191310905511811
11
0.9998582677165354
21
1.1913858267716535
0
LINE
8
BLACK
6
CONTINUOUS
10
0.9998582677165354
20
1.1913858267716535
11
1.1321417322834646
21
1.1913858267716535
0
LINE
8
BLACK
6
CONTINUOUS
10
1.1321417322834646
20
1.1913858267716535
11
1.1325183858267716
21
1.191310905511811
0
LINE
8
BLACK
6
CONTINUOUS
10
1.0008425196850395
20
1.1894173228346456
11
1.0008425196850395
21
1.1165826771653542
0
LINE
8
BLACK
6
CONTINUOUS
10
1.0008425196850395
20
1.1165826771653542
11
1.1311574803149607
21
1.1165826771653542
0
LINE
8
BLACK
6
CONTINUOUS
10
1.1311574803149607
20
1.1165826771653542
11
1.1311574803149607
21
1.1894173228346456
0
LINE
8
BLACK
6
CONTINUOUS
10
1.1311574803149607
20
1.1894173228346456
11
1.0008425196850395
21
1.1894173228346456
0
LINE
8
BLACK
6
CONTINUOUS
10
1.2139593307086614
20
1.3128384645669291
11
1.2144920078740158
21
1.3123057874015747
0
LINE
8
BLACK
6
CONTINUOUS
10
1.2144920078740158
20
1.3123057874015747
11
1.2145669291338583
21
1.3119291338582677
0
LINE
8
BLACK
6
CONTINUOUS
10
1.2145669291338583
20
1.3119291338582677
11
1.2145669291338583
21
1.1780708661417323
0
LINE
8
BLACK
6
CONTINUOUS
10
1.2145669291338583
20
1.1780708661417323
11
1.2144920078740158
21
1.1776942125984251
0
LINE
8
BLACK
6
CONTINUOUS
10
1.2144920078740158
20
1.1776942125984251
11
1.2139593307086614
21
1.1771615354330709
0
LINE
8
BLACK
6
CONTINUOUS
10
1.2139593307086614
20
1.1771615354330709
11
1.2135826771653544
21
1.1770866141732284
0
LINE
8
BLACK
6
CONTINUOUS
10
1.2135826771653544
20
1.1770866141732284
11
1.1364173228346457
21
1.1770866141732284
0
LINE
8
BLACK
6
CONTINUOUS
10
1.1364173228346457
20
1.1770866141732284
11
1.1360406692913385
21
1.1771615354330709
0
LINE
8
BLACK
6
CONTINUOUS
10
1.1360406692913385
20
1.1771615354330709
11
1.1355079921259843
21
1.1776942125984251
0
LINE
8
BLACK
6
CONTINUOUS
10
1.1355079921259843
20
1.1776942125984251
11
1.1354330708661418
21
1.1780708661417323
0
LINE
8
BLACK
6
CONTINUOUS
10
1.1354330708661418
20
1.1780708661417323
11
1.1354330708661418
21
1.3119291338582677
0
LINE
8
BLACK
6
CONTINUOUS
10
1.1354330708661418
20
1.3119291338582677
11
1.1355079921259843
21
1.3123057874015747
0
LINE
8
BLACK
6
CONTINUOUS
10
1.1355079921259843
20
1.3123057874015747
11
1.1360406692913385
21
1.3128384645669291
0
LINE
8
BLACK
6
CONTINUOUS
10
1.1360406692913385
20
1.3128384645669291
11
1.1364173228346457
21
1.3129133858267716
0
LINE
8
BLACK
6
CONTINUOUS
10
1.1364173228346457
20
1.3129133858267716
11
1.2135826771653544
21
1.3129133858267716
0
LINE
8
BLACK
6
CONTINUOUS
10
1.2135826771653544
20
1.3129133858267716
11
1.2139593307086614
21
1.3128384645669291
0
LINE
8
BLACK
6
CONTINUOUS
10
1.1374015748031496
20
1.3109448818897638
11
1.1374015748031496
21
1.1790551181102362
0
LINE
8
BLACK
6
CONTINUOUS
10
1.1374015748031496
20
1.1790551181102362
11
1.2125984251968505
21
1.1790551181102362
0
LINE
8
BLACK
6
CONTINUOUS
10
1.2125984251968505
20
1.1790551181102362
11
1.2125984251968505
21
1.3109448818897638
0
LINE
8
BLACK
6
CONTINUOUS
10
1.2125984251968505
20
1.3109448818897638
11
1.1374015748031496
21
1.3109448818897638
0
LINE
8
BLACK
6
CONTINUOUS
10
1.0667782283464566
20
1.3280510629921261
11
1.0673109055118111
21
1.3275183858267716
0
LINE
8
BLACK
6
CONTINUOUS
10
1.0673109055118111
20
1.3275183858267716
11
1.0673858267716536
21
1.3271417322834644
0
LINE
8
BLACK
6
CONTINUOUS
10
1.0673858267716536
20
1.3271417322834644
11
1.0673858267716536
21
1.1948582677165354
0
LINE
8
BLACK
6
CONTINUOUS
10
1.0673858267716536
20
1.1948582677165354
11
1.0673109055118111
21
1.1944816141732284
0
LINE
8
BLACK
6
CONTINUOUS
10
1.0673109055118111
20
1.1944816141732284
11
1.0667782283464566
21
1.193948937007874
0
LINE
8
BLACK
6
CONTINUOUS
10
1.0667782283464566
20
1.193948937007874
11
1.0664015748031497
21
1.1938740157480314
0
LINE
8
BLACK
6
CONTINUOUS
10
1.0664015748031497
20
1.1938740157480314
11
0.9915984251968504
21
1.1938740157480314
0
LINE
8
BLACK
6
CONTINUOUS
10
0.9915984251968504
20
1.1938740157480314
11
0.9912217716535433
21
1.193948937007874
0
LINE
8
BLACK
6
CONTINUOUS
10
0.9912217716535433
20
1.193948937007874
11
0.990689094488189
21
1.1944816141732284
0
LINE
8
BLACK
6
CONTINUOUS
10
0.990689094488189
20
1.1944816141732284
11
0.9906141732283464
21
1.1948582677165354
0
LINE
8
BLACK
6
CONTINUOUS
10
0.9906141732283464
20
1.1948582677165354
11
0.9906141732283464
21
1.3271417322834644
0
LINE
8
BLACK
6
CONTINUOUS
10
0.9906141732283464
20
1.3271417322834644
11
0.990689094488189
21
1.3275183858267716
0
LINE
8
BLACK
6
CONTINUOUS
10
0.990689094488189
20
1.3275183858267716
11
0.9912217716535433
21
1.3280510629921261
0
LINE
8
BLACK
6
CONTINUOUS
10
0.9912217716535433
20
1.3280510629921261
11
0.9915984251968504
21
1.3281259842519684
0
LINE
8
BLACK
6
CONTINUOUS
10
0.9915984251968504
20
1.3281259842519684
11
1.0664015748031497
21
1.3281259842519684
0
LINE
8
BLACK
6
CONTINUOUS
10
1.0664015748031497
20
1.3281259842519684
11
1.0667782283464566
21
1.3280510629921261
0
LINE
8
BLACK
6
CONTINUOUS
10
0.9925826771653543
20
1.3261574803149605
11
0.9925826771653543
21
1.1958425196850393
0
LINE
8
BLACK
6
CONTINUOUS
10
0.9925826771653543
20
1.1958425196850393
11
1.0654173228346457
21
1.1958425196850393
0
LINE
8
BLACK
6
CONTINUOUS
10
1.0654173228346457
20
1.1958425196850393
11
1.0654173228346457
21
1.3261574803149605
0
LINE
8
BLACK
6
CONTINUOUS
10
1.0654173228346457
20
1.3261574803149605
11
0.9925826771653543
21
1.3261574803149605
0
LINE
8
BLACK
6
CONTINUOUS
10
1.3673057874015748
20
1.2994920078740158
11
1.367838464566929
21
1.2989593307086613
0
LINE
8
BLACK
6
CONTINUOUS
10
1.367838464566929
20
1.2989593307086613
11
1.3679133858267716
21
1.2985826771653544
0
LINE
8
BLACK
6
CONTINUOUS
10
1.3679133858267716
20
1.2985826771653544
11
1.3679133858267716
21
1.2214173228346457
0
LINE
8
BLACK
6
CONTINUOUS
10
1.3679133858267716
20
1.2214173228346457
11
1.367838464566929
21
1.2210406692913385
0
LINE
8
BLACK
6
CONTINUOUS
10
1.367838464566929
20
1.2210406692913385
11
1.3673057874015748
21
1.2205079921259843
0
LINE
8
BLACK
6
CONTINUOUS
10
1.3673057874015748
20
1.2205079921259843
11
1.3669291338582676
21
1.2204330708661417
0
LINE
8
BLACK
6
CONTINUOUS
10
1.3669291338582676
20
1.2204330708661417
11
1.2330708661417322
21
1.2204330708661417
0
LINE
8
BLACK
6
CONTINUOUS
10
1.2330708661417322
20
1.2204330708661417
11
1.2326942125984253
21
1.2205079921259843
0
LINE
8
BLACK
6
CONTINUOUS
10
1.2326942125984253
20
1.2205079921259843
11
1.2321615354330708
21
1.2210406692913385
0
LINE
8
BLACK
6
CONTINUOUS
10
1.2321615354330708
20
1.2210406692913385
11
1.2320866141732283
21
1.2214173228346457
0
LINE
8
BLACK
6
CONTINUOUS
10
1.2320866141732283
20
1.2214173228346457
11
1.2320866141732283
21
1.2985826771653544
0
LINE
8
BLACK
6
CONTINUOUS
10
1.2320866141732283
20
1.2985826771653544
11
1.2321615354330708
21
1.2989593307086613
0
LINE
8
BLACK
6
CONTINUOUS
10
1.2321615354330708
20
1.2989593307086613
11
1.2326942125984253
21
1.2994920078740158
0
LINE
8
BLACK
6
CONTINUOUS
10
1.2326942125984253
20
1.2994920078740158
11
1.2330708661417322
21
1.2995669291338583
0
LINE
8
BLACK
6
CONTINUOUS
10
1.2330708661417322
20
1.2995669291338583
11
1.3669291338582676
21
1.2995669291338583
0
LINE
8
BLACK
6
CONTINUOUS
10
1.3669291338582676
20
1.2995669291338583
11
1.3673057874015748
21
1.2994920078740158
0
LINE
8
BLACK
6
CONTINUOUS
10
1.2340551181102362
20
1.2975984251968504
11
1.2340551181102362
21
1.2224015748031496
0
LINE
8
BLACK
6
CONTINUOUS
10
1.2340551181102362
20
1.2224015748031496
11
1.3659448818897637
21
1.2224015748031496
0
LINE
8
BLACK
6
CONTINUOUS
10
1.3659448818897637
20
1.2224015748031496
11
1.3659448818897637
21
1.2975984251968504
0
LINE
8
BLACK
6
CONTINUOUS
10
1.3659448818897637
20
1.2975984251968504
11
1.2340551181102362
21
1.2975984251968504
0
LINE
8
BLACK
6
CONTINUOUS
10
1.8362378740157479
20
1.4713192519685039
11
1.8367705511811023
21
1.4707865748031497
0
LINE
8
BLACK
6
CONTINUOUS
10
1.8367705511811023
20
1.4707865748031497
11
1.8368454724409449
21
1.4704099212598425
0
LINE
8
BLACK
6
CONTINUOUS
10
1.8368454724409449
20
1.4704099212598425
11
1.8368454724409449
21
1.3192288188976378
0
LINE
8
BLACK
6
CONTINUOUS
10
1.8368454724409449
20
1.3192288188976378
11
1.8367705511811023
21
1.3188521653543306
0
LINE
8
BLACK
6
CONTINUOUS
10
1.8367705511811023
20
1.3188521653543306
11
1.8362378740157479
21
1.3183194881889764
0
LINE
8
BLACK
6
CONTINUOUS
10
1.8362378740157479
20
1.3183194881889764
11
1.8358612204724409
21
1.3182445669291338
0
LINE
8
BLACK
6
CONTINUOUS
10
1.8358612204724409
20
1.3182445669291338
11
1.7020029527559055
21
1.3182445669291338
0
LINE
8
BLACK
6
CONTINUOUS
10
1.7020029527559055
20
1.3182445669291338
11
1.7016262992125983
21
1.3183194881889764
0
LINE
8
BLACK
6
CONTINUOUS
10
1.7016262992125983
20
1.3183194881889764
11
1.7010936220472441
21
1.3188521653543306
0
LINE
8
BLACK
6
CONTINUOUS
10
1.7010936220472441
20
1.3188521653543306
11
1.7010187007874016
21
1.3192288188976378
0
LINE
8
BLACK
6
CONTINUOUS
10
1.7010187007874016
20
1.3192288188976378
11
1.7010187007874016
21
1.4704099212598425
0
LINE
8
BLACK
6
CONTINUOUS
10
1.7010187007874016
20
1.4704099212598425
11
1.7010936220472441
21
1.4707865748031497
0
LINE
8
BLACK
6
CONTINUOUS
10
1.7010936220472441
20
1.4707865748031497
11
1.7016262992125983
21
1.4713192519685039
0
LINE
8
BLACK
6
CONTINUOUS
10
1.7016262992125983
20
1.4713192519685039
11
1.7020029527559055
21
1.4713941732283464
0
LINE
8
BLACK
6
CONTINUOUS
10
1.7020029527559055
20
1.4713941732283464
11
1.8358612204724409
21
1.4713941732283464
0
LINE
8
BLACK
6
CONTINUOUS
10
1.8358612204724409
20
1.4713941732283464
11
1.8362378740157479
21
1.4713192519685039
0
LINE
8
BLACK
6
CONTINUOUS
10
1.7029872047244095
20
1.4694256692913386
11
1.7029872047244095
21
1.3202130708661417
0
LINE
8
BLACK
6
CONTINUOUS
10
1.7029872047244095
20
1.3202130708661417
11
1.834876968503937
21
1.3202130708661417
0
LINE
8
BLACK
6
CONTINUOUS
10
1.834876968503937
20
1.3202130708661417
11
1.834876968503937
21
1.4694256692913386
0
LINE
8
BLACK
6
CONTINUOUS
10
1.834876968503937
20
1.4694256692913386
11
1.7029872047244095
21
1.4694256692913386
0
LINE
8
BLACK
6
CONTINUOUS
10
1.9189593307086614
20
1.462838464566929
11
1.9194920078740156
21
1.4623057874015748
0
LINE
8
BLACK
6
CONTINUOUS
10
1.9194920078740156
20
1.4623057874015748
11
1.9195669291338582
21
1.4619291338582676
0
LINE
8
BLACK
6
CONTINUOUS
10
1.9195669291338582
20
1.4619291338582676
11
1.9195669291338582
21
1.3280708661417322
0
LINE
8
BLACK
6
CONTINUOUS
10
1.9195669291338582
20
1.3280708661417322
11
1.9194920078740156
21
1.3276942125984252
0
LINE
8
BLACK
6
CONTINUOUS
10
1.9194920078740156
20
1.3276942125984252
11
1.9189593307086614
21
1.3271615354330708
0
LINE
8
BLACK
6
CONTINUOUS
10
1.9189593307086614
20
1.3271615354330708
11
1.9185826771653542
21
1.3270866141732283
0
LINE
8
BLACK
6
CONTINUOUS
10
1.9185826771653542
20
1.3270866141732283
11
1.8414173228346455
21
1.3270866141732283
0
LINE
8
BLACK
6
CONTINUOUS
10
1.8414173228346455
20
1.3270866141732283
11
1.8410406692913386
21
1.3271615354330708
0
LINE
8
BLACK
6
CONTINUOUS
10
1.8410406692913386
20
1.3271615354330708
11
1.8405079921259841
21
1.3276942125984252
0
LINE
8
BLACK
6
CONTINUOUS
10
1.8405079921259841
20
1.3276942125984252
11
1.8404330708661416
21
1.3280708661417322
0
LINE
8
BLACK
6
CONTINUOUS
10
1.8404330708661416
20
1.3280708661417322
11
1.8404330708661416
21
1.4619291338582676
0
LINE
8
BLACK
6
CONTINUOUS
10
1.8404330708661416
20
1.4619291338582676
11
1.8405079921259841
21
1.4623057874015748
0
LINE
8
BLACK
6
CONTINUOUS
10
1.8405079921259841
20
1.4623057874015748
11
1.8410406692913386
21
1.462838464566929
0
LINE
8
BLACK
6
CONTINUOUS
10
1.8410406692913386
20
1.462838464566929
11
1.8414173228346455
21
1.4629133858267716
0
LINE
8
BLACK
6
CONTINUOUS
10
1.8414173228346455
20
1.4629133858267716
11
1.9185826771653542
21
1.4629133858267716
0
LINE
8
BLACK
6
CONTINUOUS
10
1.9185826771653542
20
1.4629133858267716
11
1.9189593307086614
21
1.462838464566929
0
LINE
8
BLACK
6
CONTINUOUS
10
1.8424015748031495
20
1.4609448818897637
11
1.8424015748031495
21
1.3290551181102361
0
LINE
8
BLACK
6
CONTINUOUS
10
1.8424015748031495
20
1.3290551181102361
11
1.9175984251968503
21
1.3290551181102361
0
LINE
8
BLACK
6
CONTINUOUS
10
1.9175984251968503
20
1.3290551181102361
11
1.9175984251968503
21
1.4609448818897637
0
LINE
8
BLACK
6
CONTINUOUS
10
1.9175984251968503
20
1.4609448818897637
11
1.8424015748031495
21
1.4609448818897637
0
LINE
8
BLACK
6
CONTINUOUS
10
1.996833346456693
20
1.5973660236220473
11
1.9973660236220472
21
1.5968333464566928
0
LINE
8
BLACK
6
CONTINUOUS
10
1.9973660236220472
20
1.5968333464566928
11
1.9974409448818897
21
1.5964566929133859
0
LINE
8
BLACK
6
CONTINUOUS
10
1.9974409448818897
20
1.5964566929133859
11
1.9974409448818897
21
0.4035433070866142
0
LINE
8
BLACK
6
CONTINUOUS
10
1.9974409448818897
20
0.4035433070866142
11
1.9973660236220472
21
0.4031666535433071
0
LINE
8
BLACK
6
CONTINUOUS
10
1.9973660236220472
20
0.4031666535433071
11
1.996833346456693
21
0.4026339763779527
0
LINE
8
BLACK
6
CONTINUOUS
10
1.996833346456693
20
0.4026339763779527
11
1.9964566929133858
21
0.4025590551181102
0
LINE
8
BLACK
6
CONTINUOUS
10
1.9964566929133858
20
0.4025590551181102
11
0.8035433070866141
21
0.4025590551181102
0
LINE
8
BLACK
6
CONTINUOUS
10
0.8035433070866141
20
0.4025590551181102
11
0.8031666535433071
21
0.4026339763779527
0
LINE
8
BLACK
6
CONTINUOUS
10
0.8031666535433071
20
0.4026339763779527
11
0.8026339763779528
21
0.4031666535433071
0
LINE
8
BLACK
6
CONTINUOUS
10
0.8026339763779528
20
0.4031666535433071
11
0.8025590551181102
21
0.4035433070866142
0
LINE
8
BLACK
6
CONTINUOUS
10
0.8025590551181102
20
0.4035433070866142
11
0.8025590551181102
21
1.5964566929133859
0
LINE
8
BLACK
6
CONTINUOUS
10
0.8025590551181102
20
1.5964566929133859
11
0.8026339763779528
21
1.5968333464566928
0
LINE
8
BLACK
6
CONTINUOUS
10
0.8026339763779528
20
1.5968333464566928
11
0.8031666535433071
21
1.5973660236220473
0
LINE
8
BLACK
6
CONTINUOUS
10
0.8031666535433071
20
1.5973660236220473
11
0.8035433070866141
21
1.5974409448818898
0
LINE
8
BLACK
6
CONTINUOUS
10
0.8035433070866141
20
1.5974409448818898
11
1.9964566929133858
21
1.5974409448818898
0
LINE
8
BLACK
6
CONTINUOUS
10
1.9964566929133858
20
1.5974409448818898
11
1.996833346456693
21
1.5973660236220473
0
LINE
8
BLACK
6
CONTINUOUS
10
0.8045275590551181
20
1.5954724409448819
11
0.8045275590551181
21
0.4045275590551181
0
LINE
8
BLACK
6
CONTINUOUS
10
0.8045275590551181
20
0.4045275590551181
11
1.9954724409448819
21
0.4045275590551181
0
LINE
8
BLACK
6
CONTINUOUS
10
1.9954724409448819
20
0.4045275590551181
11
1.9954724409448819
21
1.5954724409448819
0
LINE
8
BLACK
6
CONTINUOUS
10
1.9954724409448819
20
1.5954724409448819
11
0.8045275590551181
21
1.5954724409448819
0
LINE
8
BLACK
6
CONTINUOUS
10
2.0558884645669293
20
1.6564211417322834
11
2.0564211417322835
21
1.6558884645669292
0
LINE
8
BLACK
6
CONTINUOUS
10
2.0564211417322835
20
1.6558884645669292
11
2.0564960629921258
21
1.655511811023622
0
LINE
8
BLACK
6
CONTINUOUS
10
2.0564960629921258
20
1.655511811023622
11
2.0564960629921258
21
0.344488188976378
0
LINE
8
BLACK
6
CONTINUOUS
10
2.0564960629921258
20
0.344488188976378
11
2.0564211417322835
21
0.3441115354330709
0
LINE
8
BLACK
6
CONTINUOUS
10
2.0564211417322835
20
0.3441115354330709
11
2.0558884645669293
21
0.3435788582677165
0
LINE
8
BLACK
6
CONTINUOUS
10
2.0558884645669293
20
0.3435788582677165
11
2.0555118110236221
21
0.343503937007874
0
LINE
8
BLACK
6
CONTINUOUS
10
2.0555118110236221
20
0.343503937007874
11
0.7444881889763779
21
0.343503937007874
0
LINE
8
BLACK
6
CONTINUOUS
10
0.7444881889763779
20
0.343503937007874
11
0.7441115354330708
21
0.3435788582677165
0
LINE
8
BLACK
6
CONTINUOUS
10
0.7441115354330708
20
0.3435788582677165
11
0.7435788582677165
21
0.3441115354330709
0
LINE
8
BLACK
6
CONTINUOUS
10
0.7435788582677165
20
0.3441115354330709
11
0.743503937007874
21
0.344488188976378
0
LINE
8
BLACK
6
CONTINUOUS
10
0.743503937007874
20
0.344488188976378
11
0.743503937007874
21
1.655511811023622
0
LINE
8
BLACK
6
CONTINUOUS
10
0.743503937007874
20
1.655511811023622
11
0.7435788582677165
21
1.6558884645669292
0
LINE
8
BLACK
6
CONTINUOUS
10
0.7435788582677165
20
1.6558884645669292
11
0.7441115354330708
21
1.6564211417322834
0
LINE
8
BLACK
6
CONTINUOUS
10
0.7441115354330708
20
1.6564211417322834
11
0.7444881889763779
21
1.6564960629921259
0
LINE
8
BLACK
6
CONTINUOUS
10
0.7444881889763779
20
1.6564960629921259
11
2.0555118110236221
21
1.6564960629921259
0
LINE
8
BLACK
6
CONTINUOUS
10
2.0555118110236221
20
1.6564960629921259
11
2.0558884645669293
21
1.6564211417322834
0
LINE
8
BLACK
6
CONTINUOUS
10
0.7454724409448819
20
1.6545275590551181
11
0.7454724409448819
21
0.3454724409448819
0
LINE
8
BLACK
6
CONTINUOUS
10
0.7454724409448819
20
0.3454724409448819
11
2.054527559055118
21
0.3454724409448819
0
LINE
8
BLACK
6
CONTINUOUS
10
2.054527559055118
20
0.3454724409448819
11
2.054527559055118
21
1.6545275590551181
0
LINE
8
BLACK
6
CONTINUOUS
10
2.054527559055118
20
1.6545275590551181
11
0.7454724409448819
21
1.6545275590551181
0
LINE
8
BLACK
6
CONTINUOUS
10
0.3187165748031496
20
0.709434251968504
11
0.3271683464566929
21
0.7071696062992125
0
LINE
8
BLACK
6
CONTINUOUS
10
0.3271683464566929
20
0.7071696062992125
11
0.3350984251968504
21
0.7034717322834646
0
LINE
8
BLACK
6
CONTINUOUS
10
0.3350984251968504
20
0.7034717322834646
11
0.342265905511811
21
0.698453031496063
0
LINE
8
BLACK
6
CONTINUOUS
10
0.342265905511811
20
0.698453031496063
11
0.348453031496063
21
0.692265905511811
0
LINE
8
BLACK
6
CONTINUOUS
10
0.348453031496063
20
0.692265905511811
11
0.3534717322834646
21
0.6850984251968504
0
LINE
8
BLACK
6
CONTINUOUS
10
0.3534717322834646
20
0.6850984251968504
11
0.3571696062992126
21
0.6771683464566929
0
LINE
8
BLACK
6
CONTINUOUS
10
0.3571696062992126
20
0.6771683464566929
11
0.3594342519685039
21
0.6687165748031496
0
LINE
8
BLACK
6
CONTINUOUS
10
0.3594342519685039
20
0.6687165748031496
11
0.3601968503937008
21
0.66
0
LINE
8
BLACK
6
CONTINUOUS
10
0.3601968503937008
20
0.66
11
0.3594342519685039
21
0.6512834251968503
0
LINE
8
BLACK
6
CONTINUOUS
10
0.3594342519685039
20
0.6512834251968503
11
0.3571696062992126
21
0.6428316535433071
0
LINE
8
BLACK
6
CONTINUOUS
10
0.3571696062992126
20
0.6428316535433071
11
0.3534717322834646
21
0.6349015748031496
0
LINE
8
BLACK
6
CONTINUOUS
10
0.3534717322834646
20
0.6349015748031496
11
0.348453031496063
21
0.627734094488189
0
LINE
8
BLACK
6
CONTINUOUS
10
0.348453031496063
20
0.627734094488189
11
0.342265905511811
21
0.621546968503937
0
LINE
8
BLACK
6
CONTINUOUS
10
0.342265905511811
20
0.621546968503937
11
0.3350984251968504
21
0.6165282677165355
0
LINE
8
BLACK
6
CONTINUOUS
10
0.3350984251968504
20
0.6165282677165355
11
0.3271683464566929
21
0.6128303937007874
0
LINE
8
BLACK
6
CONTINUOUS
10
0.3271683464566929
20
0.6128303937007874
11
0.3187165748031496
21
0.6105657480314961
0
LINE
8
BLACK
6
CONTINUOUS
10
0.3187165748031496
20
0.6105657480314961
11
0.31
21
0.6098031496062992
0
LINE
8
BLACK
6
CONTINUOUS
10
0.31
20
0.6098031496062992
11
0.3012834251968504
21
0.6105657480314961
0
LINE
8
BLACK
6
CONTINUOUS
10
0.3012834251968504
20
0.6105657480314961
11
0.2928316535433071
21
0.6128303937007874
0
LINE
8
BLACK
6
CONTINUOUS
10
0.2928316535433071
20
0.6128303937007874
11
0.2849015748031496
21
0.6165282677165355
0
LINE
8
BLACK
6
CONTINUOUS
10
0.2849015748031496
20
0.6165282677165355
11
0.277734094488189
21
0.621546968503937
0
LINE
8
BLACK
6
CONTINUOUS
10
0.277734094488189
20
0.621546968503937
11
0.271546968503937
21
0.627734094488189
0
LINE
8
BLACK
6
CONTINUOUS
10
0.271546968503937
20
0.627734094488189
11
0.2665282677165354
21
0.6349015748031496
0
LINE
8
BLACK
6
CONTINUOUS
10
0.2665282677165354
20
0.6349015748031496
11
0.2628303937007874
21
0.6428316535433071
0
LINE
8
BLACK
6
CONTINUOUS
10
0.2628303937007874
20
0.6428316535433071
11
0.2605657480314961
21
0.6512834251968503
0
LINE
8
BLACK
6
CONTINUOUS
10
0.2605657480314961
20
0.6512834251968503
11
0.2598031496062992
21
0.66
0
LINE
8
BLACK
6
CONTINUOUS
10
0.2598031496062992
20
0.66
11
0.2605657480314961
21
0.6687165748031496
0
LINE
8
BLACK
6
CONTINUOUS
10
0.2605657480314961
20
0.6687165748031496
11
0.2628303937007874
21
0.6771683464566929
0
LINE
8
BLACK
6
CONTINUOUS
10
0.2628303937007874
20
0.6771683464566929
11
0.2665282677165354
21
0.6850984251968504
0
LINE
8
BLACK
6
CONTINUOUS
10
0.2665282677165354
20
0.6850984251968504
11
0.271546968503937
21
0.692265905511811
0
LINE
8
BLACK
6
CONTINUOUS
10
0.271546968503937
20
0.692265905511811
11
0.277734094488189
21
0.698453031496063
0
LINE
8
BLACK
6
CONTINUOUS
10
0.277734094488189
20
0.698453031496063
11
0.2849015748031496
21
0.7034717322834646
0
LINE
8
BLACK
6
CONTINUOUS
10
0.2849015748031496
20
0.7034717322834646
11
0.2928316535433071
21
0.7071696062992125
0
LINE
8
BLACK
6
CONTINUOUS
10
0.2928316535433071
20
0.7071696062992125
11
0.3012834251968504
21
0.709434251968504
0
LINE
8
BLACK
6
CONTINUOUS
10
0.3012834251968504
20
0.709434251968504
11
0.31
21
0.7101968503937007
0
LINE
8
BLACK
6
CONTINUOUS
10
0.31
20
0.7101968503937007
11
0.3187165748031496
21
0.709434251968504
0
LINE
8
BLACK
6
CONTINUOUS
10
0.2623229527559055
20
0.6515932283464567
11
0.2645070866141732
21
0.6434419291338582
0
LINE
8
BLACK
6
CONTINUOUS
10
0.2645070866141732
20
0.6434419291338582
11
0.2680735039370079
21
0.6357937007874016
0
LINE
8
BLACK
6
CONTINUOUS
10
0.2680735039370079
20
0.6357937007874016
11
0.2729138188976378
21
0.6288810236220472
0
LINE
8
BLACK
6
CONTINUOUS
10
0.2729138188976378
20
0.6288810236220472
11
0.2788810236220473
21
0.6229138188976377
0
LINE
8
BLACK
6
CONTINUOUS
10
0.2788810236220473
20
0.6229138188976377
11
0.2857937007874016
21
0.6180735039370079
0
LINE
8
BLACK
6
CONTINUOUS
10
0.2857937007874016
20
0.6180735039370079
11
0.2934419291338582
21
0.6145070866141732
0
LINE
8
BLACK
6
CONTINUOUS
10
0.2934419291338582
20
0.6145070866141732
11
0.3015932283464567
21
0.6123229527559055
0
LINE
8
BLACK
6
CONTINUOUS
10
0.3015932283464567
20
0.6123229527559055
11
0.31
21
0.6115874409448818
0
LINE
8
BLACK
6
CONTINUOUS
10
0.31
20
0.6115874409448818
11
0.3184067716535433
21
0.6123229527559055
0
LINE
8
BLACK
6
CONTINUOUS
10
0.3184067716535433
20
0.6123229527559055
11
0.3265580708661417
21
0.6145070866141732
0
LINE
8
BLACK
6
CONTINUOUS
10
0.3265580708661417
20
0.6145070866141732
11
0.3342062992125984
21
0.6180735039370079
0
LINE
8
BLACK
6
CONTINUOUS
10
0.3342062992125984
20
0.6180735039370079
11
0.3411189763779527
21
0.6229138188976377
0
LINE
8
BLACK
6
CONTINUOUS
10
0.3411189763779527
20
0.6229138188976377
11
0.3470861811023622
21
0.6288810236220472
0
LINE
8
BLACK
6
CONTINUOUS
10
0.3470861811023622
20
0.6288810236220472
11
0.3519264960629921
21
0.6357937007874016
0
LINE
8
BLACK
6
CONTINUOUS
10
0.3519264960629921
20
0.6357937007874016
11
0.3554929133858268
21
0.6434419291338582
0
LINE
8
BLACK
6
CONTINUOUS
10
0.3554929133858268
20
0.6434419291338582
11
0.3576770472440945
21
0.6515932283464567
0
LINE
8
BLACK
6
CONTINUOUS
10
0.3576770472440945
20
0.6515932283464567
11
0.3584125590551181
21
0.66
0
LINE
8
BLACK
6
CONTINUOUS
10
0.3584125590551181
20
0.66
11
0.3576770472440945
21
0.6684067716535433
0
LINE
8
BLACK
6
CONTINUOUS
10
0.3576770472440945
20
0.6684067716535433
11
0.3554929133858268
21
0.6765580708661417
0
LINE
8
BLACK
6
CONTINUOUS
10
0.3554929133858268
20
0.6765580708661417
11
0.3519264960629921
21
0.6842062598425197
0
LINE
8
BLACK
6
CONTINUOUS
10
0.3519264960629921
20
0.6842062598425197
11
0.3470861811023622
21
0.6911189763779527
0
LINE
8
BLACK
6
CONTINUOUS
10
0.3470861811023622
20
0.6911189763779527
11
0.3411189763779527
21
0.6970861811023622
0
LINE
8
BLACK
6
CONTINUOUS
10
0.3411189763779527
20
0.6970861811023622
11
0.3342062992125984
21
0.7019264960629921
0
LINE
8
BLACK
6
CONTINUOUS
10
0.3342062992125984
20
0.7019264960629921
11
0.3265580708661417
21
0.7054929133858268
0
LINE
8
BLACK
6
CONTINUOUS
10
0.3265580708661417
20
0.7054929133858268
11
0.3184067716535433
21
0.7076770472440945
0
LINE
8
BLACK
6
CONTINUOUS
10
0.3184067716535433
20
0.7076770472440945
11
0.31
21
0.7084125590551181
0
LINE
8
BLACK
6
CONTINUOUS
10
0.31
20
0.7084125590551181
11
0.3015932283464567
21
0.7076770472440945
0
LINE
8
BLACK
6
CONTINUOUS
10
0.3015932283464567
20
0.7076770472440945
11
0.2934419291338582
21
0.7054929133858268
0
LINE
8
BLACK
6
CONTINUOUS
10
0.2934419291338582
20
0.7054929133858268
11
0.2857937401574803
21
0.7019264960629921
0
LINE
8
BLACK
6
CONTINUOUS
10
0.2857937401574803
20
0.7019264960629921
11
0.2788810236220473
21
0.6970861811023622
0
LINE
8
BLACK
6
CONTINUOUS
10
0.2788810236220473
20
0.6970861811023622
11
0.2729138188976378
21
0.6911189763779527
0
LINE
8
BLACK
6
CONTINUOUS
10
0.2729138188976378
20
0.6911189763779527
11
0.2680735039370079
21
0.6842062598425197
0
LINE
8
BLACK
6
CONTINUOUS
10
0.2680735039370079
20
0.6842062598425197
11
0.2645070866141732
21
0.6765580708661417
0
LINE
8
BLACK
6
CONTINUOUS
10
0.2645070866141732
20
0.6765580708661417
11
0.2623229527559055
21
0.6684067716535433
0
LINE
8
BLACK
6
CONTINUOUS
10
0.2623229527559055
20
0.6684067716535433
11
0.2615874409448819
21
0.66
0
LINE
8
BLACK
6
CONTINUOUS
10
0.2615874409448819
20
0.66
11
0.2623229527559055
21
0.6515932283464567
0
LINE
8
BLACK
6
CONTINUOUS
10
2.2039593307086616
20
0.9228384645669291
11
2.2044920078740158
21
0.9223057874015748
0
LINE
8
BLACK
6
CONTINUOUS
10
2.2044920078740158
20
0.9223057874015748
11
2.2045669291338581
21
0.9219291338582677
0
LINE
8
BLACK
6
CONTINUOUS
10
2.2045669291338581
20
0.9219291338582677
11
2.2045669291338581
21
0.7880708661417323
0
LINE
8
BLACK
6
CONTINUOUS
10
2.2045669291338581
20
0.7880708661417323
11
2.2044920078740158
21
0.7876942125984252
0
LINE
8
BLACK
6
CONTINUOUS
10
2.2044920078740158
20
0.7876942125984252
11
2.2042977952755907
21
0.7875
0
LINE
8
BLACK
6
CONTINUOUS
10
2.2042977952755907
20
0.7875
11
2.2044920078740158
21
0.7873057874015748
0
LINE
8
BLACK
6
CONTINUOUS
10
2.2044920078740158
20
0.7873057874015748
11
2.2045669291338581
21
0.7869291338582677
0
LINE
8
BLACK
6
CONTINUOUS
10
2.2045669291338581
20
0.7869291338582677
11
2.2045669291338581
21
0.6530708661417323
0
LINE
8
BLACK
6
CONTINUOUS
10
2.2045669291338581
20
0.6530708661417323
11
2.2044920078740158
21
0.6526942125984252
0
LINE
8
BLACK
6
CONTINUOUS
10
2.2044920078740158
20
0.6526942125984252
11
2.2039593307086616
21
0.6521615354330709
0
LINE
8
BLACK
6
CONTINUOUS
10
2.2039593307086616
20
0.6521615354330709
11
2.2035826771653544
21
0.6520866141732283
0
LINE
8
BLACK
6
CONTINUOUS
10
2.2035826771653544
20
0.6520866141732283
11
2.1264173228346457
21
0.6520866141732283
0
LINE
8
BLACK
6
CONTINUOUS
10
2.1264173228346457
20
0.6520866141732283
11
2.1260406692913385
21
0.6521615354330709
0
LINE
8
BLACK
6
CONTINUOUS
10
2.1260406692913385
20
0.6521615354330709
11
2.1255079921259843
21
0.6526942125984252
0
LINE
8
BLACK
6
CONTINUOUS
10
2.1255079921259843
20
0.6526942125984252
11
2.1254330708661415
21
0.6530708661417323
0
LINE
8
BLACK
6
CONTINUOUS
10
2.1254330708661415
20
0.6530708661417323
11
2.1254330708661415
21
0.7869291338582677
0
LINE
8
BLACK
6
CONTINUOUS
10
2.1254330708661415
20
0.7869291338582677
11
2.1255079921259843
21
0.7873057874015748
0
LINE
8
BLACK
6
CONTINUOUS
10
2.1255079921259843
20
0.7873057874015748
11
2.1257022047244094
21
0.7875
0
LINE
8
BLACK
6
CONTINUOUS
10
2.1257022047244094
20
0.7875
11
2.1255079921259843
21
0.7876942125984252
0
LINE
8
BLACK
6
CONTINUOUS
10
2.1255079921259843
20
0.7876942125984252
11
2.1254330708661415
21
0.7880708661417323
0
LINE
8
BLACK
6
CONTINUOUS
10
2.1254330708661415
20
0.7880708661417323
11
2.1254330708661415
21
0.9219291338582677
0
LINE
8
BLACK
6
CONTINUOUS
10
2.1254330708661415
20
0.9219291338582677
11
2.1255079921259843
21
0.9223057874015748
0
LINE
8
BLACK
6
CONTINUOUS
10
2.1255079921259843
20
0.9223057874015748
11
2.1260406692913385
21
0.9228384645669291
0
LINE
8
BLACK
6
CONTINUOUS
10
2.1260406692913385
20
0.9228384645669291
11
2.1264173228346457
21
0.9229133858267716
0
LINE
8
BLACK
6
CONTINUOUS
10
2.1264173228346457
20
0.9229133858267716
11
2.2035826771653544
21
0.9229133858267716
0
LINE
8
BLACK
6
CONTINUOUS
10
2.2035826771653544
20
0.9229133858267716
11
2.2039593307086616
21
0.9228384645669291
0
LINE
8
BLACK
6
CONTINUOUS
10
2.1274015748031494
20
0.7859448818897637
11
2.1274015748031494
21
0.6540551181102362
0
LINE
8
BLACK
6
CONTINUOUS
10
2.1274015748031494
20
0.6540551181102362
11
2.2025984251968502
21
0.6540551181102362
0
LINE
8
BLACK
6
CONTINUOUS
10
2.2025984251968502
20
0.6540551181102362
11
2.2025984251968502
21
0.7859448818897637
0
LINE
8
BLACK
6
CONTINUOUS
10
2.2025984251968502
20
0.7859448818897637
11
2.1274015748031494
21
0.7859448818897637
0
LINE
8
BLACK
6
CONTINUOUS
10
2.1274015748031494
20
0.9209448818897638
11
2.1274015748031494
21
0.7890551181102362
0
LINE
8
BLACK
6
CONTINUOUS
10
2.1274015748031494
20
0.7890551181102362
11
2.2025984251968502
21
0.7890551181102362
0
LINE
8
BLACK
6
CONTINUOUS
10
2.2025984251968502
20
0.7890551181102362
11
2.2025984251968502
21
0.9209448818897638
0
LINE
8
BLACK
6
CONTINUOUS
10
2.2025984251968502
20
0.9209448818897638
11
2.1274015748031494
21
0.9209448818897638
0
LINE
8
BLACK
6
CONTINUOUS
10
2.5176837401574801
20
0.9612400393700787
11
2.5182164173228347
21
0.9607073622047244
0
LINE
8
BLACK
6
CONTINUOUS
10
2.5182164173228347
20
0.9607073622047244
11
2.5182913385826771
21
0.9603307086614173
0
LINE
8
BLACK
6
CONTINUOUS
10
2.5182913385826771
20
0.9603307086614173
11
2.5182913385826771
21
0.7516692913385826
0
LINE
8
BLACK
6
CONTINUOUS
10
2.5182913385826771
20
0.7516692913385826
11
2.5182164173228347
21
0.7512926377952756
0
LINE
8
BLACK
6
CONTINUOUS
10
2.5182164173228347
20
0.7512926377952756
11
2.5176837401574801
21
0.7507599606299212
0
LINE
8
BLACK
6
CONTINUOUS
10
2.5176837401574801
20
0.7507599606299212
11
2.5173070866141734
21
0.7506850393700787
0
LINE
8
BLACK
6
CONTINUOUS
10
2.5173070866141734
20
0.7506850393700787
11
2.4306929133858266
21
0.7506850393700787
0
LINE
8
BLACK
6
CONTINUOUS
10
2.4306929133858266
20
0.7506850393700787
11
2.4303162598425194
21
0.7507599606299212
0
LINE
8
BLACK
6
CONTINUOUS
10
2.4303162598425194
20
0.7507599606299212
11
2.4297835826771652
21
0.7512926377952756
0
LINE
8
BLACK
6
CONTINUOUS
10
2.4297835826771652
20
0.7512926377952756
11
2.4297086614173229
21
0.7516692913385826
0
LINE
8
BLACK
6
CONTINUOUS
10
2.4297086614173229
20
0.7516692913385826
11
2.4297086614173229
21
0.9603307086614173
0
LINE
8
BLACK
6
CONTINUOUS
10
2.4297086614173229
20
0.9603307086614173
11
2.4297835826771652
21
0.9607073622047244
0
LINE
8
BLACK
6
CONTINUOUS
10
2.4297835826771652
20
0.9607073622047244
11
2.4303162598425194
21
0.9612400393700787
0
LINE
8
BLACK
6
CONTINUOUS
10
2.4303162598425194
20
0.9612400393700787
11
2.4306929133858266
21
0.9613149606299213
0
LINE
8
BLACK
6
CONTINUOUS
10
2.4306929133858266
20
0.9613149606299213
11
2.5173070866141734
21
0.9613149606299213
0
LINE
8
BLACK
6
CONTINUOUS
10
2.5173070866141734
20
0.9613149606299213
11
2.5176837401574801
21
0.9612400393700787
0
LINE
8
BLACK
6
CONTINUOUS
10
2.4316771653543308
20
0.9593464566929134
11
2.4316771653543308
21
0.7526535433070866
0
LINE
8
BLACK
6
CONTINUOUS
10
2.4316771653543308
20
0.7526535433070866
11
2.5163228346456692
21
0.7526535433070866
0
LINE
8
BLACK
6
CONTINUOUS
10
2.5163228346456692
20
0.7526535433070866
11
2.5163228346456692
21
0.9593464566929134
0
LINE
8
BLACK
6
CONTINUOUS
10
2.5163228346456692
20
0.9593464566929134
11
2.4316771653543308
21
0.9593464566929134
0
LINE
8
BLACK
6
CONTINUOUS
10
2.2115183858267717
20
1.0183109055118109
11
2.2120510629921259
21
1.0177782283464567
0
LINE
8
BLACK
6
CONTINUOUS
10
2.2120510629921259
20
1.0177782283464567
11
2.2121259842519683
21
1.0174015748031495
0
LINE
8
BLACK
6
CONTINUOUS
10
2.2121259842519683
20
1.0174015748031495
11
2.2121259842519683
21
0.9425984251968503
0
LINE
8
BLACK
6
CONTINUOUS
10
2.2121259842519683
20
0.9425984251968503
11
2.2120510629921259
21
0.9422217716535433
0
LINE
8
BLACK
6
CONTINUOUS
10
2.2120510629921259
20
0.9422217716535433
11
2.2115183858267717
21
0.9416890944881889
0
LINE
8
BLACK
6
CONTINUOUS
10
2.2115183858267717
20
0.9416890944881889
11
2.2111417322834646
21
0.9416141732283464
0
LINE
8
BLACK
6
CONTINUOUS
10
2.2111417322834646
20
0.9416141732283464
11
2.0788582677165355
21
0.9416141732283464
0
LINE
8
BLACK
6
CONTINUOUS
10
2.0788582677165355
20
0.9416141732283464
11
2.0784816141732283
21
0.9416890944881889
0
LINE
8
BLACK
6
CONTINUOUS
10
2.0784816141732283
20
0.9416890944881889
11
2.0779489370078741
21
0.9422217716535433
0
LINE
8
BLACK
6
CONTINUOUS
10
2.0779489370078741
20
0.9422217716535433
11
2.0778740157480313
21
0.9425984251968503
0
LINE
8
BLACK
6
CONTINUOUS
10
2.0778740157480313
20
0.9425984251968503
11
2.0778740157480313
21
1.0174015748031495
0
LINE
8
BLACK
6
CONTINUOUS
10
2.0778740157480313
20
1.0174015748031495
11
2.0779489370078741
21
1.0177782283464567
0
LINE
8
BLACK
6
CONTINUOUS
10
2.0779489370078741
20
1.0177782283464567
11
2.0784816141732283
21
1.0183109055118109
0
LINE
8
BLACK
6
CONTINUOUS
10
2.0784816141732283
20
1.0183109055118109
11
2.0788582677165355
21
1.0183858267716535
0
LINE
8
BLACK
6
CONTINUOUS
10
2.0788582677165355
20
1.0183858267716535
11
2.2111417322834646
21
1.0183858267716535
0
LINE
8
BLACK
6
CONTINUOUS
10
2.2111417322834646
20
1.0183858267716535
11
2.2115183858267717
21
1.0183109055118109
0
LINE
8
BLACK
6
CONTINUOUS
10
2.0798425196850392
20
1.0164173228346456
11
2.0798425196850392
21
0.9435826771653543
0
LINE
8
BLACK
6
CONTINUOUS
10
2.0798425196850392
20
0.9435826771653543
11
2.2101574803149604
21
0.9435826771653543
0
LINE
8
BLACK
6
CONTINUOUS
10
2.2101574803149604
20
0.9435826771653543
11
2.2101574803149604
21
1.0164173228346456
0
LINE
8
BLACK
6
CONTINUOUS
10
2.2101574803149604
20
1.0164173228346456
11
2.0798425196850392
21
1.0164173228346456
0
LINE
8
BLACK
6
CONTINUOUS
10
0.6473057874015747
20
1.0394920078740157
11
0.6478384645669292
21
1.0389593307086613
0
LINE
8
BLACK
6
CONTINUOUS
10
0.6478384645669292
20
1.0389593307086613
11
0.6479133858267716
21
1.0385826771653544
0
LINE
8
BLACK
6
CONTINUOUS
10
0.6479133858267716
20
1.0385826771653544
11
0.6479133858267716
21
0.9614173228346456
0
LINE
8
BLACK
6
CONTINUOUS
10
0.6479133858267716
20
0.9614173228346456
11
0.6478384645669292
21
0.9610406692913386
0
LINE
8
BLACK
6
CONTINUOUS
10
0.6478384645669292
20
0.9610406692913386
11
0.6473057874015747
21
0.9605079921259843
0
LINE
8
BLACK
6
CONTINUOUS
10
0.6473057874015747
20
0.9605079921259843
11
0.6469291338582677
21
0.9604330708661417
0
LINE
8
BLACK
6
CONTINUOUS
10
0.6469291338582677
20
0.9604330708661417
11
0.5130708661417323
21
0.9604330708661417
0
LINE
8
BLACK
6
CONTINUOUS
10
0.5130708661417323
20
0.9604330708661417
11
0.5126942125984252
21
0.9605079921259843
0
LINE
8
BLACK
6
CONTINUOUS
10
0.5126942125984252
20
0.9605079921259843
11
0.5121615354330709
21
0.9610406692913386
0
LINE
8
BLACK
6
CONTINUOUS
10
0.5121615354330709
20
0.9610406692913386
11
0.5120866141732283
21
0.9614173228346456
0
LINE
8
BLACK
6
CONTINUOUS
10
0.5120866141732283
20
0.9614173228346456
11
0.5120866141732283
21
1.0385826771653544
0
LINE
8
BLACK
6
CONTINUOUS
10
0.5120866141732283
20
1.0385826771653544
11
0.5121615354330709
21
1.0389593307086613
0
LINE
8
BLACK
6
CONTINUOUS
10
0.5121615354330709
20
1.0389593307086613
11
0.5126942125984252
21
1.0394920078740157
0
LINE
8
BLACK
6
CONTINUOUS
10
0.5126942125984252
20
1.0394920078740157
11
0.5130708661417323
21
1.0395669291338583
0
LINE
8
BLACK
6
CONTINUOUS
10
0.5130708661417323
20
1.0395669291338583
11
0.6469291338582677
21
1.0395669291338583
0
LINE
8
BLACK
6
CONTINUOUS
10
0.6469291338582677
20
1.0395669291338583
11
0.6473057874015747
21
1.0394920078740157
0
LINE
8
BLACK
6
CONTINUOUS
10
0.5140551181102362
20
1.0375984251968504
11
0.5140551181102362
21
0.9624015748031496
0
LINE
8
BLACK
6
CONTINUOUS
10
0.5140551181102362
20
0.9624015748031496
11
0.6459448818897637
21
0.9624015748031496
0
LINE
8
BLACK
6
CONTINUOUS
10
0.6459448818897637
20
0.9624015748031496
11
0.6459448818897637
21
1.0375984251968504
0
LINE
8
BLACK
6
CONTINUOUS
10
0.6459448818897637
20
1.0375984251968504
11
0.5140551181102362
21
1.0375984251968504
0
LINE
8
BLACK
6
CONTINUOUS
10
2.2165183858267716
20
1.1983109055118111
11
2.2170510629921258
21
1.1977782283464566
0
LINE
8
BLACK
6
CONTINUOUS
10
2.2170510629921258
20
1.1977782283464566
11
2.2171259842519686
21
1.1974015748031497
0
LINE
8
BLACK
6
CONTINUOUS
10
2.2171259842519686
20
1.1974015748031497
11
2.2171259842519686
21
1.1225984251968504
0
LINE
8
BLACK
6
CONTINUOUS
10
2.2171259842519686
20
1.1225984251968504
11
2.2170510629921258
21
1.1222217716535432
0
LINE
8
BLACK
6
CONTINUOUS
10
2.2170510629921258
20
1.1222217716535432
11
2.2165183858267716
21
1.121689094488189
0
LINE
8
BLACK
6
CONTINUOUS
10
2.2165183858267716
20
1.121689094488189
11
2.2161417322834644
21
1.1216141732283464
0
LINE
8
BLACK
6
CONTINUOUS
10
2.2161417322834644
20
1.1216141732283464
11
2.0838582677165354
21
1.1216141732283464
0
LINE
8
BLACK
6
CONTINUOUS
10
2.0838582677165354
20
1.1216141732283464
11
2.0834816141732282
21
1.121689094488189
0
LINE
8
BLACK
6
CONTINUOUS
10
2.0834816141732282
20
1.121689094488189
11
2.082948937007874
21
1.1222217716535432
0
LINE
8
BLACK
6
CONTINUOUS
10
2.082948937007874
20
1.1222217716535432
11
2.0828740157480317
21
1.1225984251968504
0
LINE
8
BLACK
6
CONTINUOUS
10
2.0828740157480317
20
1.1225984251968504
11
2.0828740157480317
21
1.1974015748031497
0
LINE
8
BLACK
6
CONTINUOUS
10
2.0828740157480317
20
1.1974015748031497
11
2.082948937007874
21
1.1977782283464566
0
LINE
8
BLACK
6
CONTINUOUS
10
2.082948937007874
20
1.1977782283464566
11
2.0834816141732282
21
1.1983109055118111
0
LINE
8
BLACK
6
CONTINUOUS
10
2.0834816141732282
20
1.1983109055118111
11
2.0838582677165354
21
1.1983858267716536
0
LINE
8
BLACK
6
CONTINUOUS
10
2.0838582677165354
20
1.1983858267716536
11
2.2161417322834644
21
1.1983858267716536
0
LINE
8
BLACK
6
CONTINUOUS
10
2.2161417322834644
20
1.1983858267716536
11
2.2165183858267716
21
1.1983109055118111
0
LINE
8
BLACK
6
CONTINUOUS
10
2.0848425196850395
20
1.1964173228346457
11
2.0848425196850395
21
1.1235826771653543
0
LINE
8
BLACK
6
CONTINUOUS
10
2.0848425196850395
20
1.1235826771653543
11
2.2151574803149607
21
1.1235826771653543
0
LINE
8
BLACK
6
CONTINUOUS
10
2.2151574803149607
20
1.1235826771653543
11
2.2151574803149607
21
1.1964173228346457
0
LINE
8
BLACK
6
CONTINUOUS
10
2.2151574803149607
20
1.1964173228346457
11
2.0848425196850395
21
1.1964173228346457
0
LINE
8
BLACK
6
CONTINUOUS
10
2.2165183858267716
20
1.293310905511811
11
2.2170510629921258
21
1.2927782283464566
0
LINE
8
BLACK
6
CONTINUOUS
10
2.2170510629921258
20
1.2927782283464566
11
2.2171259842519686
21
1.2924015748031497
0
LINE
8
BLACK
6
CONTINUOUS
10
2.2171259842519686
20
1.2924015748031497
11
2.2171259842519686
21
1.2175984251968504
0
LINE
8
BLACK
6
CONTINUOUS
10
2.2171259842519686
20
1.2175984251968504
11
2.2170510629921258
21
1.2172217716535432
0
LINE
8
BLACK
6
CONTINUOUS
10
2.2170510629921258
20
1.2172217716535432
11
2.2165183858267716
21
1.216689094488189
0
LINE
8
BLACK
6
CONTINUOUS
10
2.2165183858267716
20
1.216689094488189
11
2.2161417322834644
21
1.2166141732283464
0
LINE
8
BLACK
6
CONTINUOUS
10
2.2161417322834644
20
1.2166141732283464
11
2.0838582677165354
21
1.2166141732283464
0
LINE
8
BLACK
6
CONTINUOUS
10
2.0838582677165354
20
1.2166141732283464
11
2.0834816141732282
21
1.216689094488189
0
LINE
8
BLACK
6
CONTINUOUS
10
2.0834816141732282
20
1.216689094488189
11
2.082948937007874
21
1.2172217716535432
0
LINE
8
BLACK
6
CONTINUOUS
10
2.082948937007874
20
1.2172217716535432
11
2.0828740157480317
21
1.2175984251968504
0
LINE
8
BLACK
6
CONTINUOUS
10
2.0828740157480317
20
1.2175984251968504
11
2.0828740157480317
21
1.2924015748031497
0
LINE
8
BLACK
6
CONTINUOUS
10
2.0828740157480317
20
1.2924015748031497
11
2.082948937007874
21
1.2927782283464566
0
LINE
8
BLACK
6
CONTINUOUS
10
2.082948937007874
20
1.2927782283464566
11
2.0834816141732282
21
1.293310905511811
0
LINE
8
BLACK
6
CONTINUOUS
10
2.0834816141732282
20
1.293310905511811
11
2.0838582677165354
21
1.2933858267716536
0
LINE
8
BLACK
6
CONTINUOUS
10
2.0838582677165354
20
1.2933858267716536
11
2.2161417322834644
21
1.2933858267716536
0
LINE
8
BLACK
6
CONTINUOUS
10
2.2161417322834644
20
1.2933858267716536
11
2.2165183858267716
21
1.293310905511811
0
LINE
8
BLACK
6
CONTINUOUS
10
2.0848425196850395
20
1.2914173228346457
11
2.0848425196850395
21
1.2185826771653543
0
LINE
8
BLACK
6
CONTINUOUS
10
2.0848425196850395
20
1.2185826771653543
11
2.2151574803149607
21
1.2185826771653543
0
LINE
8
BLACK
6
CONTINUOUS
10
2.2151574803149607
20
1.2185826771653543
11
2.2151574803149607
21
1.2914173228346457
0
LINE
8
BLACK
6
CONTINUOUS
10
2.2151574803149607
20
1.2914173228346457
11
2.0848425196850395
21
1.2914173228346457
0
LINE
8
BLACK
6
CONTINUOUS
10
2.2165183858267716
20
1.398310905511811
11
2.2170510629921258
21
1.3977782283464566
0
LINE
8
BLACK
6
CONTINUOUS
10
2.2170510629921258
20
1.3977782283464566
11
2.2171259842519686
21
1.3974015748031496
0
LINE
8
BLACK
6
CONTINUOUS
10
2.2171259842519686
20
1.3974015748031496
11
2.2171259842519686
21
1.3225984251968503
0
LINE
8
BLACK
6
CONTINUOUS
10
2.2171259842519686
20
1.3225984251968503
11
2.2170510629921258
21
1.3222217716535434
0
LINE
8
BLACK
6
CONTINUOUS
10
2.2170510629921258
20
1.3222217716535434
11
2.2165183858267716
21
1.3216890944881889
0
LINE
8
BLACK
6
CONTINUOUS
10
2.2165183858267716
20
1.3216890944881889
11
2.2161417322834644
21
1.3216141732283464
0
LINE
8
BLACK
6
CONTINUOUS
10
2.2161417322834644
20
1.3216141732283464
11
2.0838582677165354
21
1.3216141732283464
0
LINE
8
BLACK
6
CONTINUOUS
10
2.0838582677165354
20
1.3216141732283464
11
2.0834816141732282
21
1.3216890944881889
0
LINE
8
BLACK
6
CONTINUOUS
10
2.0834816141732282
20
1.3216890944881889
11
2.082948937007874
21
1.3222217716535434
0
LINE
8
BLACK
6
CONTINUOUS
10
2.082948937007874
20
1.3222217716535434
11
2.0828740157480317
21
1.3225984251968503
0
LINE
8
BLACK
6
CONTINUOUS
10
2.0828740157480317
20
1.3225984251968503
11
2.0828740157480317
21
1.3974015748031496
0
LINE
8
BLACK
6
CONTINUOUS
10
2.0828740157480317
20
1.3974015748031496
11
2.082948937007874
21
1.3977782283464566
0
LINE
8
BLACK
6
CONTINUOUS
10
2.082948937007874
20
1.3977782283464566
11
2.0834816141732282
21
1.398310905511811
0
LINE
8
BLACK
6
CONTINUOUS
10
2.0834816141732282
20
1.398310905511811
11
2.0838582677165354
21
1.3983858267716536
0
LINE
8
BLACK
6
CONTINUOUS
10
2.0838582677165354
20
1.3983858267716536
11
2.2161417322834644
21
1.3983858267716536
0
LINE
8
BLACK
6
CONTINUOUS
10
2.2161417322834644
20
1.3983858267716536
11
2.2165183858267716
21
1.398310905511811
0
LINE
8
BLACK
6
CONTINUOUS
10
2.0848425196850395
20
1.3964173228346457
11
2.0848425196850395
21
1.3235826771653543
0
LINE
8
BLACK
6
CONTINUOUS
10
2.0848425196850395
20
1.3235826771653543
11
2.2151574803149607
21
1.3235826771653543
0
LINE
8
BLACK
6
CONTINUOUS
10
2.2151574803149607
20
1.3235826771653543
11
2.2151574803149607
21
1.3964173228346457
0
LINE
8
BLACK
6
CONTINUOUS
10
2.2151574803149607
20
1.3964173228346457
11
2.0848425196850395
21
1.3964173228346457
0
LINE
8
BLACK
6
CONTINUOUS
10
2.1687165748031494
20
1.729434251968504
11
2.1771683464566927
21
1.7271696062992126
0
LINE
8
BLACK
6
CONTINUOUS
10
2.1771683464566927
20
1.7271696062992126
11
2.1850984251968502
21
1.7234717322834645
0
LINE
8
BLACK
6
CONTINUOUS
10
2.1850984251968502
20
1.7234717322834645
11
2.1922659055118108
21
1.7184530314960629
0
LINE
8
BLACK
6
CONTINUOUS
10
2.1922659055118108
20
1.7184530314960629
11
2.1984530314960629
21
1.712265905511811
0
LINE
8
BLACK
6
CONTINUOUS
10
2.1984530314960629
20
1.712265905511811
11
2.2034717322834645
21
1.7050984251968504
0
LINE
8
BLACK
6
CONTINUOUS
10
2.2034717322834645
20
1.7050984251968504
11
2.2071696062992125
21
1.6971683464566929
0
LINE
8
BLACK
6
CONTINUOUS
10
2.2071696062992125
20
1.6971683464566929
11
2.2094342519685037
21
1.6887165748031496
0
LINE
8
BLACK
6
CONTINUOUS
10
2.2094342519685037
20
1.6887165748031496
11
2.2101968503937006
21
1.6799999999999999
0
LINE
8
BLACK
6
CONTINUOUS
10
2.2101968503937006
20
1.6799999999999999
11
2.2094342519685037
21
1.6712834251968502
0
LINE
8
BLACK
6
CONTINUOUS
10
2.2094342519685037
20
1.6712834251968502
11
2.2071696062992125
21
1.662831653543307
0
LINE
8
BLACK
6
CONTINUOUS
10
2.2071696062992125
20
1.662831653543307
11
2.2034717322834645
21
1.6549015748031495
0
LINE
8
BLACK
6
CONTINUOUS
10
2.2034717322834645
20
1.6549015748031495
11
2.1984530314960629
21
1.6477340944881889
0
LINE
8
BLACK
6
CONTINUOUS
10
2.1984530314960629
20
1.6477340944881889
11
2.1922659055118108
21
1.641546968503937
0
LINE
8
BLACK
6
CONTINUOUS
10
2.1922659055118108
20
1.641546968503937
11
2.1850984251968502
21
1.6365282677165354
0
LINE
8
BLACK
6
CONTINUOUS
10
2.1850984251968502
20
1.6365282677165354
11
2.1771683464566927
21
1.6328303937007873
0
LINE
8
BLACK
6
CONTINUOUS
10
2.1771683464566927
20
1.6328303937007873
11
2.1687165748031494
21
1.6305657480314961
0
LINE
8
BLACK
6
CONTINUOUS
10
2.1687165748031494
20
1.6305657480314961
11
2.1600000000000001
21
1.6298031496062992
0
LINE
8
BLACK
6
CONTINUOUS
10
2.1600000000000001
20
1.6298031496062992
11
2.1512834251968505
21
1.6305657480314961
0
LINE
8
BLACK
6
CONTINUOUS
10
2.1512834251968505
20
1.6305657480314961
11
2.1428316535433072
21
1.6328303937007873
0
LINE
8
BLACK
6
CONTINUOUS
10
2.1428316535433072
20
1.6328303937007873
11
2.1349015748031497
21
1.6365282677165354
0
LINE
8
BLACK
6
CONTINUOUS
10
2.1349015748031497
20
1.6365282677165354
11
2.1277340944881891
21
1.641546968503937
0
LINE
8
BLACK
6
CONTINUOUS
10
2.1277340944881891
20
1.641546968503937
11
2.121546968503937
21
1.6477340944881889
0
LINE
8
BLACK
6
CONTINUOUS
10
2.121546968503937
20
1.6477340944881889
11
2.1165282677165353
21
1.6549015748031495
0
LINE
8
BLACK
6
CONTINUOUS
10
2.1165282677165353
20
1.6549015748031495
11
2.1128303937007873
21
1.662831653543307
0
LINE
8
BLACK
6
CONTINUOUS
10
2.1128303937007873
20
1.662831653543307
11
2.1105657480314961
21
1.6712834251968502
0
LINE
8
BLACK
6
CONTINUOUS
10
2.1105657480314961
20
1.6712834251968502
11
2.1098031496062992
21
1.6799999999999999
0
LINE
8
BLACK
6
CONTINUOUS
10
2.1098031496062992
20
1.6799999999999999
11
2.1105657480314961
21
1.6887165748031496
0
LINE
8
BLACK
6
CONTINUOUS
10
2.1105657480314961
20
1.6887165748031496
11
2.1128303937007873
21
1.6971683464566929
0
LINE
8
BLACK
6
CONTINUOUS
10
2.1128303937007873
20
1.6971683464566929
11
2.1165282677165353
21
1.7050984251968504
0
LINE
8
BLACK
6
CONTINUOUS
10
2.1165282677165353
20
1.7050984251968504
11
2.121546968503937
21
1.712265905511811
0
LINE
8
BLACK
6
CONTINUOUS
10
2.121546968503937
20
1.712265905511811
11
2.1277340944881891
21
1.7184530314960629
0
LINE
8
BLACK
6
CONTINUOUS
10
2.1277340944881891
20
1.7184530314960629
11
2.1349015748031497
21
1.7234717322834645
0
LINE
8
BLACK
6
CONTINUOUS
10
2.1349015748031497
20
1.7234717322834645
11
2.1428316535433072
21
1.7271696062992126
0
LINE
8
BLACK
6
CONTINUOUS
10
2.1428316535433072
20
1.7271696062992126
11
2.1512834251968505
21
1.729434251968504
0
LINE
8
BLACK
6
CONTINUOUS
10
2.1512834251968505
20
1.729434251968504
11
2.1600000000000001
21
1.7301968503937009
0
LINE
8
BLACK
6
CONTINUOUS
10
2.1600000000000001
20
1.7301968503937009
11
2.1687165748031494
21
1.729434251968504
0
LINE
8
BLACK
6
CONTINUOUS
10
2.1123229527559055
20
1.6715932283464567
11
2.1145070866141733
21
1.6634419291338582
0
LINE
8
BLACK
6
CONTINUOUS
10
2.1145070866141733
20
1.6634419291338582
11
2.118073503937008
21
1.6557937007874015
0
LINE
8
BLACK
6
CONTINUOUS
10
2.118073503937008
20
1.6557937007874015
11
2.1229138188976377
21
1.6488810236220472
0
LINE
8
BLACK
6
CONTINUOUS
10
2.1229138188976377
20
1.6488810236220472
11
2.1288810236220472
21
1.6429138188976378
0
LINE
8
BLACK
6
CONTINUOUS
10
2.1288810236220472
20
1.6429138188976378
11
2.1357937007874015
21
1.6380735039370078
0
LINE
8
BLACK
6
CONTINUOUS
10
2.1357937007874015
20
1.6380735039370078
11
2.143441929133858
21
1.6345070866141731
0
LINE
8
BLACK
6
CONTINUOUS
10
2.143441929133858
20
1.6345070866141731
11
2.1515932283464565
21
1.6323229527559056
0
LINE
8
BLACK
6
CONTINUOUS
10
2.1515932283464565
20
1.6323229527559056
11
2.1600000000000001
21
1.6315874409448818
0
LINE
8
BLACK
6
CONTINUOUS
10
2.1600000000000001
20
1.6315874409448818
11
2.1684067716535433
21
1.6323229527559056
0
LINE
8
BLACK
6
CONTINUOUS
10
2.1684067716535433
20
1.6323229527559056
11
2.1765580708661418
21
1.6345070866141731
0
LINE
8
BLACK
6
CONTINUOUS
10
2.1765580708661418
20
1.6345070866141731
11
2.1842062992125983
21
1.6380735039370078
0
LINE
8
BLACK
6
CONTINUOUS
10
2.1842062992125983
20
1.6380735039370078
11
2.1911189763779526
21
1.6429138188976378
0
LINE
8
BLACK
6
CONTINUOUS
10
2.1911189763779526
20
1.6429138188976378
11
2.1970861811023621
21
1.6488810236220472
0
LINE
8
BLACK
6
CONTINUOUS
10
2.1970861811023621
20
1.6488810236220472
11
2.2019264960629923
21
1.6557937007874015
0
LINE
8
BLACK
6
CONTINUOUS
10
2.2019264960629923
20
1.6557937007874015
11
2.2054929133858265
21
1.6634419291338582
0
LINE
8
BLACK
6
CONTINUOUS
10
2.2054929133858265
20
1.6634419291338582
11
2.2076770472440943
21
1.6715932283464567
0
LINE
8
BLACK
6
CONTINUOUS
10
2.2076770472440943
20
1.6715932283464567
11
2.2084125590551182
21
1.6799999999999999
0
LINE
8
BLACK
6
CONTINUOUS
10
2.2084125590551182
20
1.6799999999999999
11
2.2076770472440943
21
1.6884067716535434
0
LINE
8
BLACK
6
CONTINUOUS
10
2.2076770472440943
20
1.6884067716535434
11
2.2054929133858265
21
1.6965580708661416
0
LINE
8
BLACK
6
CONTINUOUS
10
2.2054929133858265
20
1.6965580708661416
11
2.2019264960629923
21
1.7042062598425196
0
LINE
8
BLACK
6
CONTINUOUS
10
2.2019264960629923
20
1.7042062598425196
11
2.1970861811023621
21
1.7111189763779526
0
LINE
8
BLACK
6
CONTINUOUS
10
2.1970861811023621
20
1.7111189763779526
11
2.1911189763779526
21
1.7170861811023621
0
LINE
8
BLACK
6
CONTINUOUS
10
2.1911189763779526
20
1.7170861811023621
11
2.1842062992125983
21
1.7219264960629921
0
LINE
8
BLACK
6
CONTINUOUS
10
2.1842062992125983
20
1.7219264960629921
11
2.1765580708661418
21
1.7254929133858268
0
LINE
8
BLACK
6
CONTINUOUS
10
2.1765580708661418
20
1.7254929133858268
11
2.1684067716535433
21
1.7276770472440945
0
LINE
8
BLACK
6
CONTINUOUS
10
2.1684067716535433
20
1.7276770472440945
11
2.1600000000000001
21
1.728412559055118
0
LINE
8
BLACK
6
CONTINUOUS
10
2.1600000000000001
20
1.728412559055118
11
2.1515932283464565
21
1.7276770472440945
0
LINE
8
BLACK
6
CONTINUOUS
10
2.1515932283464565
20
1.7276770472440945
11
2.143441929133858
21
1.7254929133858268
0
LINE
8
BLACK
6
CONTINUOUS
10
2.143441929133858
20
1.7254929133858268
11
2.1357937401574802
21
1.7219264960629921
0
LINE
8
BLACK
6
CONTINUOUS
10
2.1357937401574802
20
1.7219264960629921
11
2.1288810236220472
21
1.7170861811023621
0
LINE
8
BLACK
6
CONTINUOUS
10
2.1288810236220472
20
1.7170861811023621
11
2.1229138188976377
21
1.7111189763779526
0
LINE
8
BLACK
6
CONTINUOUS
10
2.1229138188976377
20
1.7111189763779526
11
2.118073503937008
21
1.7042062598425196
0
LINE
8
BLACK
6
CONTINUOUS
10
2.118073503937008
20
1.7042062598425196
11
2.1145070866141733
21
1.6965580708661416
0
LINE
8
BLACK
6
CONTINUOUS
10
2.1145070866141733
20
1.6965580708661416
11
2.1123229527559055
21
1.6884067716535434
0
LINE
8
BLACK
6
CONTINUOUS
10
2.1123229527559055
20
1.6884067716535434
11
2.111587440944882
21
1.6799999999999999
0
LINE
8
BLACK
6
CONTINUOUS
10
2.111587440944882
20
1.6799999999999999
11
2.1123229527559055
21
1.6715932283464567
0
CIRCLE
8
BLACK
10
2.3999999999999999
20
0.4
40
0.0068897637795276
0
CIRCLE
8
BLACK
10
0.4
20
0.4
40
0.0068897637795276
0
CIRCLE
8
BLACK
10
0.4
20
1.5999999999999999
40
0.0068897637795276
0
CIRCLE
8
BLACK
10
2.3600000393700786
20
1.3599999999999999
40
0.0068897637795276
0
CIRCLE
8
BLACK
10
2.259999960629921
20
1.3599999999999999
40
0.0068897637795276
0
CIRCLE
8
BLACK
10
2.3600000393700786
20
1.26
40
0.0068897637795276
0
CIRCLE
8
BLACK
10
2.259999960629921
20
1.26
40
0.0068897637795276
0
CIRCLE
8
BLACK
10
2.3999999999999999
20
1.5999999999999999
40
0.0068897637795276
0
CIRCLE
8
BLACK
10
2.3600000393700786
20
1.0600000000000001
40
0.0068897637795276
0
CIRCLE
8
BLACK
10
2.259999960629921
20
1.0600000000000001
40
0.0068897637795276
0
CIRCLE
8
BLACK
10
2.2599999999999998
20
0.89
40
0.0068897637795276
0
CIRCLE
8
BLACK
10
2.3599999999999999
20
0.89
40
0.0068897637795276
0
CIRCLE
8
BLACK
10
2.2599999999999998
20
0.79
40
0.0068897637795276
0
CIRCLE
8
BLACK
10
2.3599999999999999
20
0.79
40
0.0068897637795276
0
CIRCLE
8
BLACK
10
2.2599999999999998
20
0.6899999999999999
40
0.0068897637795276
0
CIRCLE
8
BLACK
10
2.3599999999999999
20
0.6899999999999999
40
0.0068897637795276
0
CIRCLE
8
BLACK
10
2.3600000393700786
20
1.1599999999999999
40
0.0068897637795276
0
CIRCLE
8
BLACK
10
2.259999960629921
20
1.1599999999999999
40
0.0068897637795276
0
CIRCLE
8
BLACK
10
0.439
20
1.
40
0.0068897637795276
0
CIRCLE
8
BLACK
10
0.339
20
1.0999999999999999
40
0.0068897637795276
0
CIRCLE
8
BLACK
10
0.339
20
0.9
40
0.0068897637795276
0
CIRCLE
8
BLACK
10
0.539
20
1.0999999999999999
40
0.0068897637795276
0
CIRCLE
8
BLACK
10
0.539
20
0.9
40
0.0068897637795276
0
CIRCLE
8
BLACK
10
1.6199999999999999
20
1.25
40
0.0068897637795276
0
CIRCLE
8
BLACK
10
1.6199999999999999
20
1.3499999999999999
40
0.0068897637795276
  0
ENDSEC
  0
EOF
