  0
SECTION
  2
HEADER
  9
$ANGBASE
  50
0.0
  9
$ANGDIR
  70
1
  9
$MEASUREMENT
  70
0
  0
ENDSEC
  0
SECTION
  2
TABLES
  0
TABLE
  2
LTYPE
  70
4
  0
LTYPE
  5
40F
  2
CONTINUOUS
  70
0
  3
Solid line
  72
65
  73
0
  40
0.0
  0
LTYPE
  5
410
  2
DASHDOT
 70
0
  3
Dash Dot ____ _ ____ _
 72
65
 73
4
 40
2.0
 49
1.25
 49
-0.25
 49
0.25
 49
-0.25
  0
LTYPE
  5
411
  2
DASHED
 70
0
  3
Dashed __ __ __ __ __
 72
65
 73
2
 40
0.75
 49
0.5
 49
-0.25
  0
LTYPE
  5
43B
  2
DOTTED
 70
0
  3
Dotted .  .  .  .
 72
65
 73
2
 40
0.2
 49
0.0
 49
-0.2
  0
ENDTAB
  0
TABLE
  2
STYLE
  70
4
  0
STYLE
  2
KICAD
  70
0
  40
0
  41
1
  42
1
  50
0
  71
0
  3
isocp.shx
  0
STYLE
  2
KICADB
  70
0
  40
0
  41
1
  42
1
  50
0
  71
0
  3
isocp.shx
  0
STYLE
  2
KICADI
  70
0
  40
0
  41
1
  42
1
  50
15
  71
0
  3
isocp.shx
  0
STYLE
  2
KICADBI
  70
0
  40
0
  41
1
  42
1
  50
15
  71
0
  3
isocp.shx
  0
ENDTAB
  0
TABLE
  2
LAYER
  70
1
  0
LAYER
  2
BLACK
  70
0
  62
7
  6
CONTINUOUS
  0
ENDTAB
  0
ENDSEC
  0
SECTION
  2
ENTITIES
0
LINE
8
BLACK
6
CONTINUOUS
10
0.420113937007874
20
0.5183821653543307
11
0.4332420472440945
21
0.5153857480314961
0
LINE
8
BLACK
6
CONTINUOUS
10
0.4332420472440945
20
0.5153857480314961
11
0.4459521259842519
21
0.5109383070866141
0
LINE
8
BLACK
6
CONTINUOUS
10
0.4459521259842519
20
0.5109383070866141
11
0.4580843700787401
21
0.5050957086614173
0
LINE
8
BLACK
6
CONTINUOUS
10
0.4580843700787401
20
0.5050957086614173
11
0.4694861023622047
21
0.4979315354330708
0
LINE
8
BLACK
6
CONTINUOUS
10
0.4694861023622047
20
0.4979315354330708
11
0.4800140551181102
21
0.4895357874015748
0
LINE
8
BLACK
6
CONTINUOUS
10
0.4800140551181102
20
0.4895357874015748
11
0.4895357874015748
21
0.4800140551181102
0
LINE
8
BLACK
6
CONTINUOUS
10
0.4895357874015748
20
0.4800140551181102
11
0.4979315354330708
21
0.4694861023622047
0
LINE
8
BLACK
6
CONTINUOUS
10
0.4979315354330708
20
0.4694861023622047
11
0.5050957086614173
21
0.4580843700787401
0
LINE
8
BLACK
6
CONTINUOUS
10
0.5050957086614173
20
0.4580843700787401
11
0.5109383070866141
21
0.4459521259842519
0
LINE
8
BLACK
6
CONTINUOUS
10
0.5109383070866141
20
0.4459521259842519
11
0.5153857480314961
21
0.4332420472440945
0
LINE
8
BLACK
6
CONTINUOUS
10
0.5153857480314961
20
0.4332420472440945
11
0.5183821653543307
21
0.420113937007874
0
LINE
8
BLACK
6
CONTINUOUS
10
0.5183821653543307
20
0.420113937007874
11
0.5198898425196851
21
0.406732874015748
0
LINE
8
BLACK
6
CONTINUOUS
10
0.5198898425196851
20
0.406732874015748
11
0.5198898425196851
21
0.393267125984252
0
LINE
8
BLACK
6
CONTINUOUS
10
0.5198898425196851
20
0.393267125984252
11
0.5183821653543307
21
0.379886062992126
0
LINE
8
BLACK
6
CONTINUOUS
10
0.5183821653543307
20
0.379886062992126
11
0.5153857480314961
21
0.3667579527559055
0
LINE
8
BLACK
6
CONTINUOUS
10
0.5153857480314961
20
0.3667579527559055
11
0.5109383070866141
21
0.354047874015748
0
LINE
8
BLACK
6
CONTINUOUS
10
0.5109383070866141
20
0.354047874015748
11
0.5050957086614173
21
0.3419156299212598
0
LINE
8
BLACK
6
CONTINUOUS
10
0.5050957086614173
20
0.3419156299212598
11
0.4979315354330708
21
0.3305138976377953
0
LINE
8
BLACK
6
CONTINUOUS
10
0.4979315354330708
20
0.3305138976377953
11
0.4895357874015748
21
0.3199859448818898
0
LINE
8
BLACK
6
CONTINUOUS
10
0.4895357874015748
20
0.3199859448818898
11
0.4800140551181102
21
0.3104642125984252
0
LINE
8
BLACK
6
CONTINUOUS
10
0.4800140551181102
20
0.3104642125984252
11
0.4694861023622047
21
0.3020684645669292
0
LINE
8
BLACK
6
CONTINUOUS
10
0.4694861023622047
20
0.3020684645669292
11
0.4580843700787401
21
0.2949042913385826
0
LINE
8
BLACK
6
CONTINUOUS
10
0.4580843700787401
20
0.2949042913385826
11
0.4459521259842519
21
0.2890616929133858
0
LINE
8
BLACK
6
CONTINUOUS
10
0.4459521259842519
20
0.2890616929133858
11
0.4332420472440945
21
0.2846142519685039
0
LINE
8
BLACK
6
CONTINUOUS
10
0.4332420472440945
20
0.2846142519685039
11
0.420113937007874
21
0.2816178346456693
0
LINE
8
BLACK
6
CONTINUOUS
10
0.420113937007874
20
0.2816178346456693
11
0.406732874015748
21
0.280110157480315
0
LINE
8
BLACK
6
CONTINUOUS
10
0.406732874015748
20
0.280110157480315
11
0.393267125984252
21
0.280110157480315
0
LINE
8
BLACK
6
CONTINUOUS
10
0.393267125984252
20
0.280110157480315
11
0.379886062992126
21
0.2816178346456693
0
LINE
8
BLACK
6
CONTINUOUS
10
0.379886062992126
20
0.2816178346456693
11
0.3667579527559055
21
0.2846142519685039
0
LINE
8
BLACK
6
CONTINUOUS
10
0.3667579527559055
20
0.2846142519685039
11
0.354047874015748
21
0.2890616929133858
0
LINE
8
BLACK
6
CONTINUOUS
10
0.354047874015748
20
0.2890616929133858
11
0.3419156299212598
21
0.2949042913385826
0
LINE
8
BLACK
6
CONTINUOUS
10
0.3419156299212598
20
0.2949042913385826
11
0.3305138976377953
21
0.3020684645669292
0
LINE
8
BLACK
6
CONTINUOUS
10
0.3305138976377953
20
0.3020684645669292
11
0.3199859448818898
21
0.3104642125984252
0
LINE
8
BLACK
6
CONTINUOUS
10
0.3199859448818898
20
0.3104642125984252
11
0.3104642125984252
21
0.3199859448818898
0
LINE
8
BLACK
6
CONTINUOUS
10
0.3104642125984252
20
0.3199859448818898
11
0.3020684645669292
21
0.3305138976377953
0
LINE
8
BLACK
6
CONTINUOUS
10
0.3020684645669292
20
0.3305138976377953
11
0.2949042913385826
21
0.3419156299212598
0
LINE
8
BLACK
6
CONTINUOUS
10
0.2949042913385826
20
0.3419156299212598
11
0.2890616929133858
21
0.354047874015748
0
LINE
8
BLACK
6
CONTINUOUS
10
0.2890616929133858
20
0.354047874015748
11
0.2846142519685039
21
0.3667579527559055
0
LINE
8
BLACK
6
CONTINUOUS
10
0.2846142519685039
20
0.3667579527559055
11
0.2816178346456693
21
0.379886062992126
0
LINE
8
BLACK
6
CONTINUOUS
10
0.2816178346456693
20
0.379886062992126
11
0.280110157480315
21
0.393267125984252
0
LINE
8
BLACK
6
CONTINUOUS
10
0.280110157480315
20
0.393267125984252
11
0.280110157480315
21
0.406732874015748
0
LINE
8
BLACK
6
CONTINUOUS
10
0.280110157480315
20
0.406732874015748
11
0.2816178346456693
21
0.420113937007874
0
LINE
8
BLACK
6
CONTINUOUS
10
0.2816178346456693
20
0.420113937007874
11
0.2846142519685039
21
0.4332420472440945
0
LINE
8
BLACK
6
CONTINUOUS
10
0.2846142519685039
20
0.4332420472440945
11
0.2890616929133858
21
0.4459521259842519
0
LINE
8
BLACK
6
CONTINUOUS
10
0.2890616929133858
20
0.4459521259842519
11
0.2949042913385826
21
0.4580843700787401
0
LINE
8
BLACK
6
CONTINUOUS
10
0.2949042913385826
20
0.4580843700787401
11
0.3020684645669292
21
0.4694861023622047
0
LINE
8
BLACK
6
CONTINUOUS
10
0.3020684645669292
20
0.4694861023622047
11
0.3104642125984252
21
0.4800140551181102
0
LINE
8
BLACK
6
CONTINUOUS
10
0.3104642125984252
20
0.4800140551181102
11
0.3199859448818898
21
0.4895357874015748
0
LINE
8
BLACK
6
CONTINUOUS
10
0.3199859448818898
20
0.4895357874015748
11
0.3305138976377953
21
0.4979315354330708
0
LINE
8
BLACK
6
CONTINUOUS
10
0.3305138976377953
20
0.4979315354330708
11
0.3419156299212598
21
0.5050957086614173
0
LINE
8
BLACK
6
CONTINUOUS
10
0.3419156299212598
20
0.5050957086614173
11
0.354047874015748
21
0.5109383070866141
0
LINE
8
BLACK
6
CONTINUOUS
10
0.354047874015748
20
0.5109383070866141
11
0.3667579527559055
21
0.5153857480314961
0
LINE
8
BLACK
6
CONTINUOUS
10
0.3667579527559055
20
0.5153857480314961
11
0.379886062992126
21
0.5183821653543307
0
LINE
8
BLACK
6
CONTINUOUS
10
0.379886062992126
20
0.5183821653543307
11
0.393267125984252
21
0.5198898425196851
0
LINE
8
BLACK
6
CONTINUOUS
10
0.393267125984252
20
0.5198898425196851
11
0.406732874015748
21
0.5198898425196851
0
LINE
8
BLACK
6
CONTINUOUS
10
0.406732874015748
20
0.5198898425196851
11
0.420113937007874
21
0.5183821653543307
0
LINE
8
BLACK
6
CONTINUOUS
10
2.4201139370078741
20
0.5183821653543307
11
2.4332420472440943
21
0.5153857480314961
0
LINE
8
BLACK
6
CONTINUOUS
10
2.4332420472440943
20
0.5153857480314961
11
2.445952125984252
21
0.5109383070866141
0
LINE
8
BLACK
6
CONTINUOUS
10
2.445952125984252
20
0.5109383070866141
11
2.45808437007874
21
0.5050957086614173
0
LINE
8
BLACK
6
CONTINUOUS
10
2.45808437007874
20
0.5050957086614173
11
2.4694861023622048
21
0.4979315354330708
0
LINE
8
BLACK
6
CONTINUOUS
10
2.4694861023622048
20
0.4979315354330708
11
2.4800140551181102
21
0.4895357874015748
0
LINE
8
BLACK
6
CONTINUOUS
10
2.4800140551181102
20
0.4895357874015748
11
2.4895357874015747
21
0.4800140551181102
0
LINE
8
BLACK
6
CONTINUOUS
10
2.4895357874015747
20
0.4800140551181102
11
2.4979315354330707
21
0.4694861023622047
0
LINE
8
BLACK
6
CONTINUOUS
10
2.4979315354330707
20
0.4694861023622047
11
2.5050957086614174
21
0.4580843700787401
0
LINE
8
BLACK
6
CONTINUOUS
10
2.5050957086614174
20
0.4580843700787401
11
2.5109383070866143
21
0.4459521259842519
0
LINE
8
BLACK
6
CONTINUOUS
10
2.5109383070866143
20
0.4459521259842519
11
2.5153857480314961
21
0.4332420472440945
0
LINE
8
BLACK
6
CONTINUOUS
10
2.5153857480314961
20
0.4332420472440945
11
2.5183821653543306
21
0.420113937007874
0
LINE
8
BLACK
6
CONTINUOUS
10
2.5183821653543306
20
0.420113937007874
11
2.5198898425196852
21
0.406732874015748
0
LINE
8
BLACK
6
CONTINUOUS
10
2.5198898425196852
20
0.406732874015748
11
2.5198898425196852
21
0.393267125984252
0
LINE
8
BLACK
6
CONTINUOUS
10
2.5198898425196852
20
0.393267125984252
11
2.5183821653543306
21
0.379886062992126
0
LINE
8
BLACK
6
CONTINUOUS
10
2.5183821653543306
20
0.379886062992126
11
2.5153857480314961
21
0.3667579527559055
0
LINE
8
BLACK
6
CONTINUOUS
10
2.5153857480314961
20
0.3667579527559055
11
2.5109383070866143
21
0.354047874015748
0
LINE
8
BLACK
6
CONTINUOUS
10
2.5109383070866143
20
0.354047874015748
11
2.5050957086614174
21
0.3419156299212598
0
LINE
8
BLACK
6
CONTINUOUS
10
2.5050957086614174
20
0.3419156299212598
11
2.4979315354330707
21
0.3305138976377953
0
LINE
8
BLACK
6
CONTINUOUS
10
2.4979315354330707
20
0.3305138976377953
11
2.4895357874015747
21
0.3199859448818898
0
LINE
8
BLACK
6
CONTINUOUS
10
2.4895357874015747
20
0.3199859448818898
11
2.4800140551181102
21
0.3104642125984252
0
LINE
8
BLACK
6
CONTINUOUS
10
2.4800140551181102
20
0.3104642125984252
11
2.4694861023622048
21
0.3020684645669292
0
LINE
8
BLACK
6
CONTINUOUS
10
2.4694861023622048
20
0.3020684645669292
11
2.45808437007874
21
0.2949042913385826
0
LINE
8
BLACK
6
CONTINUOUS
10
2.45808437007874
20
0.2949042913385826
11
2.445952125984252
21
0.2890616929133858
0
LINE
8
BLACK
6
CONTINUOUS
10
2.445952125984252
20
0.2890616929133858
11
2.4332420472440943
21
0.2846142519685039
0
LINE
8
BLACK
6
CONTINUOUS
10
2.4332420472440943
20
0.2846142519685039
11
2.4201139370078741
21
0.2816178346456693
0
LINE
8
BLACK
6
CONTINUOUS
10
2.4201139370078741
20
0.2816178346456693
11
2.4067328740157481
21
0.280110157480315
0
LINE
8
BLACK
6
CONTINUOUS
10
2.4067328740157481
20
0.280110157480315
11
2.3932671259842517
21
0.280110157480315
0
LINE
8
BLACK
6
CONTINUOUS
10
2.3932671259842517
20
0.280110157480315
11
2.3798860629921261
21
0.2816178346456693
0
LINE
8
BLACK
6
CONTINUOUS
10
2.3798860629921261
20
0.2816178346456693
11
2.3667579527559055
21
0.2846142519685039
0
LINE
8
BLACK
6
CONTINUOUS
10
2.3667579527559055
20
0.2846142519685039
11
2.3540478740157478
21
0.2890616929133858
0
LINE
8
BLACK
6
CONTINUOUS
10
2.3540478740157478
20
0.2890616929133858
11
2.3419156299212598
21
0.2949042913385826
0
LINE
8
BLACK
6
CONTINUOUS
10
2.3419156299212598
20
0.2949042913385826
11
2.330513897637795
21
0.3020684645669292
0
LINE
8
BLACK
6
CONTINUOUS
10
2.330513897637795
20
0.3020684645669292
11
2.3199859448818896
21
0.3104642125984252
0
LINE
8
BLACK
6
CONTINUOUS
10
2.3199859448818896
20
0.3104642125984252
11
2.3104642125984252
21
0.3199859448818898
0
LINE
8
BLACK
6
CONTINUOUS
10
2.3104642125984252
20
0.3199859448818898
11
2.3020684645669292
21
0.3305138976377953
0
LINE
8
BLACK
6
CONTINUOUS
10
2.3020684645669292
20
0.3305138976377953
11
2.2949042913385824
21
0.3419156299212598
0
LINE
8
BLACK
6
CONTINUOUS
10
2.2949042913385824
20
0.3419156299212598
11
2.2890616929133856
21
0.354047874015748
0
LINE
8
BLACK
6
CONTINUOUS
10
2.2890616929133856
20
0.354047874015748
11
2.2846142519685038
21
0.3667579527559055
0
LINE
8
BLACK
6
CONTINUOUS
10
2.2846142519685038
20
0.3667579527559055
11
2.2816178346456693
21
0.379886062992126
0
LINE
8
BLACK
6
CONTINUOUS
10
2.2816178346456693
20
0.379886062992126
11
2.2801101574803151
21
0.393267125984252
0
LINE
8
BLACK
6
CONTINUOUS
10
2.2801101574803151
20
0.393267125984252
11
2.2801101574803151
21
0.406732874015748
0
LINE
8
BLACK
6
CONTINUOUS
10
2.2801101574803151
20
0.406732874015748
11
2.2816178346456693
21
0.420113937007874
0
LINE
8
BLACK
6
CONTINUOUS
10
2.2816178346456693
20
0.420113937007874
11
2.2846142519685038
21
0.4332420472440945
0
LINE
8
BLACK
6
CONTINUOUS
10
2.2846142519685038
20
0.4332420472440945
11
2.2890616929133856
21
0.4459521259842519
0
LINE
8
BLACK
6
CONTINUOUS
10
2.2890616929133856
20
0.4459521259842519
11
2.2949042913385824
21
0.4580843700787401
0
LINE
8
BLACK
6
CONTINUOUS
10
2.2949042913385824
20
0.4580843700787401
11
2.3020684645669292
21
0.4694861023622047
0
LINE
8
BLACK
6
CONTINUOUS
10
2.3020684645669292
20
0.4694861023622047
11
2.3104642125984252
21
0.4800140551181102
0
LINE
8
BLACK
6
CONTINUOUS
10
2.3104642125984252
20
0.4800140551181102
11
2.3199859448818896
21
0.4895357874015748
0
LINE
8
BLACK
6
CONTINUOUS
10
2.3199859448818896
20
0.4895357874015748
11
2.330513897637795
21
0.4979315354330708
0
LINE
8
BLACK
6
CONTINUOUS
10
2.330513897637795
20
0.4979315354330708
11
2.3419156299212598
21
0.5050957086614173
0
LINE
8
BLACK
6
CONTINUOUS
10
2.3419156299212598
20
0.5050957086614173
11
2.3540478740157478
21
0.5109383070866141
0
LINE
8
BLACK
6
CONTINUOUS
10
2.3540478740157478
20
0.5109383070866141
11
2.3667579527559055
21
0.5153857480314961
0
LINE
8
BLACK
6
CONTINUOUS
10
2.3667579527559055
20
0.5153857480314961
11
2.3798860629921261
21
0.5183821653543307
0
LINE
8
BLACK
6
CONTINUOUS
10
2.3798860629921261
20
0.5183821653543307
11
2.3932671259842517
21
0.5198898425196851
0
LINE
8
BLACK
6
CONTINUOUS
10
2.3932671259842517
20
0.5198898425196851
11
2.4067328740157481
21
0.5198898425196851
0
LINE
8
BLACK
6
CONTINUOUS
10
2.4067328740157481
20
0.5198898425196851
11
2.4201139370078741
21
0.5183821653543307
0
LINE
8
BLACK
6
CONTINUOUS
10
2.290753307086614
20
0.7218186614173229
11
2.2913919291338583
21
0.7213919291338583
0
LINE
8
BLACK
6
CONTINUOUS
10
2.2913919291338583
20
0.7213919291338583
11
2.2918186614173228
21
0.7207533070866141
0
LINE
8
BLACK
6
CONTINUOUS
10
2.2918186614173228
20
0.7207533070866141
11
2.2919685039370079
21
0.72
0
LINE
8
BLACK
6
CONTINUOUS
10
2.2919685039370079
20
0.72
11
2.2919685039370079
21
0.66
0
LINE
8
BLACK
6
CONTINUOUS
10
2.2919685039370079
20
0.66
11
2.2918186614173228
21
0.6592466929133858
0
LINE
8
BLACK
6
CONTINUOUS
10
2.2918186614173228
20
0.6592466929133858
11
2.2913919291338583
21
0.6586080708661417
0
LINE
8
BLACK
6
CONTINUOUS
10
2.2913919291338583
20
0.6586080708661417
11
2.290753307086614
21
0.6581813385826771
0
LINE
8
BLACK
6
CONTINUOUS
10
2.290753307086614
20
0.6581813385826771
11
2.29
21
0.6580314960629922
0
LINE
8
BLACK
6
CONTINUOUS
10
2.29
20
0.6580314960629922
11
2.23
21
0.6580314960629922
0
LINE
8
BLACK
6
CONTINUOUS
10
2.23
20
0.6580314960629922
11
2.2292466929133856
21
0.6581813385826771
0
LINE
8
BLACK
6
CONTINUOUS
10
2.2292466929133856
20
0.6581813385826771
11
2.2286080708661418
21
0.6586080708661417
0
LINE
8
BLACK
6
CONTINUOUS
10
2.2286080708661418
20
0.6586080708661417
11
2.2281813385826772
21
0.6592466929133858
0
LINE
8
BLACK
6
CONTINUOUS
10
2.2281813385826772
20
0.6592466929133858
11
2.2280314960629921
21
0.66
0
LINE
8
BLACK
6
CONTINUOUS
10
2.2280314960629921
20
0.66
11
2.2280314960629921
21
0.72
0
LINE
8
BLACK
6
CONTINUOUS
10
2.2280314960629921
20
0.72
11
2.2281813385826772
21
0.7207533070866141
0
LINE
8
BLACK
6
CONTINUOUS
10
2.2281813385826772
20
0.7207533070866141
11
2.2286080708661418
21
0.7213919291338583
0
LINE
8
BLACK
6
CONTINUOUS
10
2.2286080708661418
20
0.7213919291338583
11
2.2292466929133856
21
0.7218186614173229
0
LINE
8
BLACK
6
CONTINUOUS
10
2.2292466929133856
20
0.7218186614173229
11
2.23
21
0.7219685039370078
0
LINE
8
BLACK
6
CONTINUOUS
10
2.23
20
0.7219685039370078
11
2.29
21
0.7219685039370078
0
LINE
8
BLACK
6
CONTINUOUS
10
2.29
20
0.7219685039370078
11
2.290753307086614
21
0.7218186614173229
0
LINE
8
BLACK
6
CONTINUOUS
10
2.390753307086614
20
0.7218186614173229
11
2.3913919291338583
21
0.7213919291338583
0
LINE
8
BLACK
6
CONTINUOUS
10
2.3913919291338583
20
0.7213919291338583
11
2.3918186614173229
21
0.7207533070866141
0
LINE
8
BLACK
6
CONTINUOUS
10
2.3918186614173229
20
0.7207533070866141
11
2.391968503937008
21
0.72
0
LINE
8
BLACK
6
CONTINUOUS
10
2.391968503937008
20
0.72
11
2.391968503937008
21
0.66
0
LINE
8
BLACK
6
CONTINUOUS
10
2.391968503937008
20
0.66
11
2.3918186614173229
21
0.6592466929133858
0
LINE
8
BLACK
6
CONTINUOUS
10
2.3918186614173229
20
0.6592466929133858
11
2.3913919291338583
21
0.6586080708661417
0
LINE
8
BLACK
6
CONTINUOUS
10
2.3913919291338583
20
0.6586080708661417
11
2.390753307086614
21
0.6581813385826771
0
LINE
8
BLACK
6
CONTINUOUS
10
2.390753307086614
20
0.6581813385826771
11
2.3900000000000001
21
0.6580314960629922
0
LINE
8
BLACK
6
CONTINUOUS
10
2.3900000000000001
20
0.6580314960629922
11
2.3300000000000001
21
0.6580314960629922
0
LINE
8
BLACK
6
CONTINUOUS
10
2.3300000000000001
20
0.6580314960629922
11
2.3292466929133857
21
0.6581813385826771
0
LINE
8
BLACK
6
CONTINUOUS
10
2.3292466929133857
20
0.6581813385826771
11
2.3286080708661419
21
0.6586080708661417
0
LINE
8
BLACK
6
CONTINUOUS
10
2.3286080708661419
20
0.6586080708661417
11
2.3281813385826773
21
0.6592466929133858
0
LINE
8
BLACK
6
CONTINUOUS
10
2.3281813385826773
20
0.6592466929133858
11
2.3280314960629922
21
0.66
0
LINE
8
BLACK
6
CONTINUOUS
10
2.3280314960629922
20
0.66
11
2.3280314960629922
21
0.72
0
LINE
8
BLACK
6
CONTINUOUS
10
2.3280314960629922
20
0.72
11
2.3281813385826773
21
0.7207533070866141
0
LINE
8
BLACK
6
CONTINUOUS
10
2.3281813385826773
20
0.7207533070866141
11
2.3286080708661419
21
0.7213919291338583
0
LINE
8
BLACK
6
CONTINUOUS
10
2.3286080708661419
20
0.7213919291338583
11
2.3292466929133857
21
0.7218186614173229
0
LINE
8
BLACK
6
CONTINUOUS
10
2.3292466929133857
20
0.7218186614173229
11
2.3300000000000001
21
0.7219685039370078
0
LINE
8
BLACK
6
CONTINUOUS
10
2.3300000000000001
20
0.7219685039370078
11
2.3900000000000001
21
0.7219685039370078
0
LINE
8
BLACK
6
CONTINUOUS
10
2.3900000000000001
20
0.7219685039370078
11
2.390753307086614
21
0.7218186614173229
0
LINE
8
BLACK
6
CONTINUOUS
10
2.290753307086614
20
0.8218186614173228
11
2.2913919291338583
21
0.8213919291338583
0
LINE
8
BLACK
6
CONTINUOUS
10
2.2913919291338583
20
0.8213919291338583
11
2.2918186614173228
21
0.8207533070866142
0
LINE
8
BLACK
6
CONTINUOUS
10
2.2918186614173228
20
0.8207533070866142
11
2.2919685039370079
21
0.82
0
LINE
8
BLACK
6
CONTINUOUS
10
2.2919685039370079
20
0.82
11
2.2919685039370079
21
0.76
0
LINE
8
BLACK
6
CONTINUOUS
10
2.2919685039370079
20
0.76
11
2.2918186614173228
21
0.7592466929133858
0
LINE
8
BLACK
6
CONTINUOUS
10
2.2918186614173228
20
0.7592466929133858
11
2.2913919291338583
21
0.7586080708661417
0
LINE
8
BLACK
6
CONTINUOUS
10
2.2913919291338583
20
0.7586080708661417
11
2.290753307086614
21
0.7581813385826771
0
LINE
8
BLACK
6
CONTINUOUS
10
2.290753307086614
20
0.7581813385826771
11
2.29
21
0.7580314960629921
0
LINE
8
BLACK
6
CONTINUOUS
10
2.29
20
0.7580314960629921
11
2.23
21
0.7580314960629921
0
LINE
8
BLACK
6
CONTINUOUS
10
2.23
20
0.7580314960629921
11
2.2292466929133856
21
0.7581813385826771
0
LINE
8
BLACK
6
CONTINUOUS
10
2.2292466929133856
20
0.7581813385826771
11
2.2286080708661418
21
0.7586080708661417
0
LINE
8
BLACK
6
CONTINUOUS
10
2.2286080708661418
20
0.7586080708661417
11
2.2281813385826772
21
0.7592466929133858
0
LINE
8
BLACK
6
CONTINUOUS
10
2.2281813385826772
20
0.7592466929133858
11
2.2280314960629921
21
0.76
0
LINE
8
BLACK
6
CONTINUOUS
10
2.2280314960629921
20
0.76
11
2.2280314960629921
21
0.82
0
LINE
8
BLACK
6
CONTINUOUS
10
2.2280314960629921
20
0.82
11
2.2281813385826772
21
0.8207533070866142
0
LINE
8
BLACK
6
CONTINUOUS
10
2.2281813385826772
20
0.8207533070866142
11
2.2286080708661418
21
0.8213919291338583
0
LINE
8
BLACK
6
CONTINUOUS
10
2.2286080708661418
20
0.8213919291338583
11
2.2292466929133856
21
0.8218186614173228
0
LINE
8
BLACK
6
CONTINUOUS
10
2.2292466929133856
20
0.8218186614173228
11
2.23
21
0.8219685039370078
0
LINE
8
BLACK
6
CONTINUOUS
10
2.23
20
0.8219685039370078
11
2.29
21
0.8219685039370078
0
LINE
8
BLACK
6
CONTINUOUS
10
2.29
20
0.8219685039370078
11
2.290753307086614
21
0.8218186614173228
0
LINE
8
BLACK
6
CONTINUOUS
10
2.390753307086614
20
0.8218186614173228
11
2.3913919291338583
21
0.8213919291338583
0
LINE
8
BLACK
6
CONTINUOUS
10
2.3913919291338583
20
0.8213919291338583
11
2.3918186614173229
21
0.8207533070866142
0
LINE
8
BLACK
6
CONTINUOUS
10
2.3918186614173229
20
0.8207533070866142
11
2.391968503937008
21
0.82
0
LINE
8
BLACK
6
CONTINUOUS
10
2.391968503937008
20
0.82
11
2.391968503937008
21
0.76
0
LINE
8
BLACK
6
CONTINUOUS
10
2.391968503937008
20
0.76
11
2.3918186614173229
21
0.7592466929133858
0
LINE
8
BLACK
6
CONTINUOUS
10
2.3918186614173229
20
0.7592466929133858
11
2.3913919291338583
21
0.7586080708661417
0
LINE
8
BLACK
6
CONTINUOUS
10
2.3913919291338583
20
0.7586080708661417
11
2.390753307086614
21
0.7581813385826771
0
LINE
8
BLACK
6
CONTINUOUS
10
2.390753307086614
20
0.7581813385826771
11
2.3900000000000001
21
0.7580314960629921
0
LINE
8
BLACK
6
CONTINUOUS
10
2.3900000000000001
20
0.7580314960629921
11
2.3300000000000001
21
0.7580314960629921
0
LINE
8
BLACK
6
CONTINUOUS
10
2.3300000000000001
20
0.7580314960629921
11
2.3292466929133857
21
0.7581813385826771
0
LINE
8
BLACK
6
CONTINUOUS
10
2.3292466929133857
20
0.7581813385826771
11
2.3286080708661419
21
0.7586080708661417
0
LINE
8
BLACK
6
CONTINUOUS
10
2.3286080708661419
20
0.7586080708661417
11
2.3281813385826773
21
0.7592466929133858
0
LINE
8
BLACK
6
CONTINUOUS
10
2.3281813385826773
20
0.7592466929133858
11
2.3280314960629922
21
0.76
0
LINE
8
BLACK
6
CONTINUOUS
10
2.3280314960629922
20
0.76
11
2.3280314960629922
21
0.82
0
LINE
8
BLACK
6
CONTINUOUS
10
2.3280314960629922
20
0.82
11
2.3281813385826773
21
0.8207533070866142
0
LINE
8
BLACK
6
CONTINUOUS
10
2.3281813385826773
20
0.8207533070866142
11
2.3286080708661419
21
0.8213919291338583
0
LINE
8
BLACK
6
CONTINUOUS
10
2.3286080708661419
20
0.8213919291338583
11
2.3292466929133857
21
0.8218186614173228
0
LINE
8
BLACK
6
CONTINUOUS
10
2.3292466929133857
20
0.8218186614173228
11
2.3300000000000001
21
0.8219685039370078
0
LINE
8
BLACK
6
CONTINUOUS
10
2.3300000000000001
20
0.8219685039370078
11
2.3900000000000001
21
0.8219685039370078
0
LINE
8
BLACK
6
CONTINUOUS
10
2.3900000000000001
20
0.8219685039370078
11
2.390753307086614
21
0.8218186614173228
0
LINE
8
BLACK
6
CONTINUOUS
10
0.3497991338582677
20
0.9449816929133859
11
0.356702874015748
21
0.9427385039370079
0
LINE
8
BLACK
6
CONTINUOUS
10
0.356702874015748
20
0.9427385039370079
11
0.3631707086614173
21
0.9394429921259843
0
LINE
8
BLACK
6
CONTINUOUS
10
0.3631707086614173
20
0.9394429921259843
11
0.3690433464566929
21
0.9351762598425196
0
LINE
8
BLACK
6
CONTINUOUS
10
0.3690433464566929
20
0.9351762598425196
11
0.3741762598425197
21
0.9300433464566928
0
LINE
8
BLACK
6
CONTINUOUS
10
0.3741762598425197
20
0.9300433464566928
11
0.3784429921259843
21
0.9241707086614173
0
LINE
8
BLACK
6
CONTINUOUS
10
0.3784429921259843
20
0.9241707086614173
11
0.3817385039370079
21
0.917702874015748
0
LINE
8
BLACK
6
CONTINUOUS
10
0.3817385039370079
20
0.917702874015748
11
0.3839816929133858
21
0.9107991338582677
0
LINE
8
BLACK
6
CONTINUOUS
10
0.3839816929133858
20
0.9107991338582677
11
0.3851172440944882
21
0.9036294881889764
0
LINE
8
BLACK
6
CONTINUOUS
10
0.3851172440944882
20
0.9036294881889764
11
0.3851172440944882
21
0.8963705118110236
0
LINE
8
BLACK
6
CONTINUOUS
10
0.3851172440944882
20
0.8963705118110236
11
0.3839816929133858
21
0.8892008661417322
0
LINE
8
BLACK
6
CONTINUOUS
10
0.3839816929133858
20
0.8892008661417322
11
0.3817385039370079
21
0.8822971259842519
0
LINE
8
BLACK
6
CONTINUOUS
10
0.3817385039370079
20
0.8822971259842519
11
0.3784429921259843
21
0.8758292913385827
0
LINE
8
BLACK
6
CONTINUOUS
10
0.3784429921259843
20
0.8758292913385827
11
0.3741762598425197
21
0.8699566535433071
0
LINE
8
BLACK
6
CONTINUOUS
10
0.3741762598425197
20
0.8699566535433071
11
0.3690433464566929
21
0.8648237401574803
0
LINE
8
BLACK
6
CONTINUOUS
10
0.3690433464566929
20
0.8648237401574803
11
0.3631707086614173
21
0.8605570078740157
0
LINE
8
BLACK
6
CONTINUOUS
10
0.3631707086614173
20
0.8605570078740157
11
0.356702874015748
21
0.8572614960629921
0
LINE
8
BLACK
6
CONTINUOUS
10
0.356702874015748
20
0.8572614960629921
11
0.3497991338582677
21
0.8550183070866142
0
LINE
8
BLACK
6
CONTINUOUS
10
0.3497991338582677
20
0.8550183070866142
11
0.3426294881889764
21
0.8538827559055118
0
LINE
8
BLACK
6
CONTINUOUS
10
0.3426294881889764
20
0.8538827559055118
11
0.3353705118110236
21
0.8538827559055118
0
LINE
8
BLACK
6
CONTINUOUS
10
0.3353705118110236
20
0.8538827559055118
11
0.3282008661417323
21
0.8550183070866142
0
LINE
8
BLACK
6
CONTINUOUS
10
0.3282008661417323
20
0.8550183070866142
11
0.321297125984252
21
0.8572614960629921
0
LINE
8
BLACK
6
CONTINUOUS
10
0.321297125984252
20
0.8572614960629921
11
0.3148292913385827
21
0.8605570078740157
0
LINE
8
BLACK
6
CONTINUOUS
10
0.3148292913385827
20
0.8605570078740157
11
0.3089566535433071
21
0.8648237401574803
0
LINE
8
BLACK
6
CONTINUOUS
10
0.3089566535433071
20
0.8648237401574803
11
0.3038237401574803
21
0.8699566535433071
0
LINE
8
BLACK
6
CONTINUOUS
10
0.3038237401574803
20
0.8699566535433071
11
0.2995570078740157
21
0.8758292913385827
0
LINE
8
BLACK
6
CONTINUOUS
10
0.2995570078740157
20
0.8758292913385827
11
0.2962614960629921
21
0.8822971259842519
0
LINE
8
BLACK
6
CONTINUOUS
10
0.2962614960629921
20
0.8822971259842519
11
0.2940183070866141
21
0.8892008661417322
0
LINE
8
BLACK
6
CONTINUOUS
10
0.2940183070866141
20
0.8892008661417322
11
0.2928827559055118
21
0.8963705118110236
0
LINE
8
BLACK
6
CONTINUOUS
10
0.2928827559055118
20
0.8963705118110236
11
0.2928827559055118
21
0.9036294881889764
0
LINE
8
BLACK
6
CONTINUOUS
10
0.2928827559055118
20
0.9036294881889764
11
0.2940183070866141
21
0.9107991338582677
0
LINE
8
BLACK
6
CONTINUOUS
10
0.2940183070866141
20
0.9107991338582677
11
0.2962614960629921
21
0.917702874015748
0
LINE
8
BLACK
6
CONTINUOUS
10
0.2962614960629921
20
0.917702874015748
11
0.2995570078740157
21
0.9241707086614173
0
LINE
8
BLACK
6
CONTINUOUS
10
0.2995570078740157
20
0.9241707086614173
11
0.3038237401574803
21
0.9300433464566928
0
LINE
8
BLACK
6
CONTINUOUS
10
0.3038237401574803
20
0.9300433464566928
11
0.3089566535433071
21
0.9351762598425196
0
LINE
8
BLACK
6
CONTINUOUS
10
0.3089566535433071
20
0.9351762598425196
11
0.3148292913385827
21
0.9394429921259843
0
LINE
8
BLACK
6
CONTINUOUS
10
0.3148292913385827
20
0.9394429921259843
11
0.321297125984252
21
0.9427385039370079
0
LINE
8
BLACK
6
CONTINUOUS
10
0.321297125984252
20
0.9427385039370079
11
0.3282008661417323
21
0.9449816929133859
0
LINE
8
BLACK
6
CONTINUOUS
10
0.3282008661417323
20
0.9449816929133859
11
0.3353705118110236
21
0.9461172440944882
0
LINE
8
BLACK
6
CONTINUOUS
10
0.3353705118110236
20
0.9461172440944882
11
0.3426294881889764
21
0.9461172440944882
0
LINE
8
BLACK
6
CONTINUOUS
10
0.3426294881889764
20
0.9461172440944882
11
0.3497991338582677
21
0.9449816929133859
0
LINE
8
BLACK
6
CONTINUOUS
10
0.5497991338582677
20
0.9449816929133859
11
0.556702874015748
21
0.9427385039370079
0
LINE
8
BLACK
6
CONTINUOUS
10
0.556702874015748
20
0.9427385039370079
11
0.5631707086614173
21
0.9394429921259843
0
LINE
8
BLACK
6
CONTINUOUS
10
0.5631707086614173
20
0.9394429921259843
11
0.5690433464566929
21
0.9351762598425196
0
LINE
8
BLACK
6
CONTINUOUS
10
0.5690433464566929
20
0.9351762598425196
11
0.5741762598425196
21
0.9300433464566928
0
LINE
8
BLACK
6
CONTINUOUS
10
0.5741762598425196
20
0.9300433464566928
11
0.5784429921259843
21
0.9241707086614173
0
LINE
8
BLACK
6
CONTINUOUS
10
0.5784429921259843
20
0.9241707086614173
11
0.5817385039370079
21
0.917702874015748
0
LINE
8
BLACK
6
CONTINUOUS
10
0.5817385039370079
20
0.917702874015748
11
0.5839816929133859
21
0.9107991338582677
0
LINE
8
BLACK
6
CONTINUOUS
10
0.5839816929133859
20
0.9107991338582677
11
0.5851172440944882
21
0.9036294881889764
0
LINE
8
BLACK
6
CONTINUOUS
10
0.5851172440944882
20
0.9036294881889764
11
0.5851172440944882
21
0.8963705118110236
0
LINE
8
BLACK
6
CONTINUOUS
10
0.5851172440944882
20
0.8963705118110236
11
0.5839816929133859
21
0.8892008661417322
0
LINE
8
BLACK
6
CONTINUOUS
10
0.5839816929133859
20
0.8892008661417322
11
0.5817385039370079
21
0.8822971259842519
0
LINE
8
BLACK
6
CONTINUOUS
10
0.5817385039370079
20
0.8822971259842519
11
0.5784429921259843
21
0.8758292913385827
0
LINE
8
BLACK
6
CONTINUOUS
10
0.5784429921259843
20
0.8758292913385827
11
0.5741762598425196
21
0.8699566535433071
0
LINE
8
BLACK
6
CONTINUOUS
10
0.5741762598425196
20
0.8699566535433071
11
0.5690433464566929
21
0.8648237401574803
0
LINE
8
BLACK
6
CONTINUOUS
10
0.5690433464566929
20
0.8648237401574803
11
0.5631707086614173
21
0.8605570078740157
0
LINE
8
BLACK
6
CONTINUOUS
10
0.5631707086614173
20
0.8605570078740157
11
0.556702874015748
21
0.8572614960629921
0
LINE
8
BLACK
6
CONTINUOUS
10
0.556702874015748
20
0.8572614960629921
11
0.5497991338582677
21
0.8550183070866142
0
LINE
8
BLACK
6
CONTINUOUS
10
0.5497991338582677
20
0.8550183070866142
11
0.5426294881889764
21
0.8538827559055118
0
LINE
8
BLACK
6
CONTINUOUS
10
0.5426294881889764
20
0.8538827559055118
11
0.5353705118110236
21
0.8538827559055118
0
LINE
8
BLACK
6
CONTINUOUS
10
0.5353705118110236
20
0.8538827559055118
11
0.5282008661417322
21
0.8550183070866142
0
LINE
8
BLACK
6
CONTINUOUS
10
0.5282008661417322
20
0.8550183070866142
11
0.5212971259842519
21
0.8572614960629921
0
LINE
8
BLACK
6
CONTINUOUS
10
0.5212971259842519
20
0.8572614960629921
11
0.5148292913385827
21
0.8605570078740157
0
LINE
8
BLACK
6
CONTINUOUS
10
0.5148292913385827
20
0.8605570078740157
11
0.5089566535433071
21
0.8648237401574803
0
LINE
8
BLACK
6
CONTINUOUS
10
0.5089566535433071
20
0.8648237401574803
11
0.5038237401574803
21
0.8699566535433071
0
LINE
8
BLACK
6
CONTINUOUS
10
0.5038237401574803
20
0.8699566535433071
11
0.4995570078740157
21
0.8758292913385827
0
LINE
8
BLACK
6
CONTINUOUS
10
0.4995570078740157
20
0.8758292913385827
11
0.4962614960629921
21
0.8822971259842519
0
LINE
8
BLACK
6
CONTINUOUS
10
0.4962614960629921
20
0.8822971259842519
11
0.4940183070866142
21
0.8892008661417322
0
LINE
8
BLACK
6
CONTINUOUS
10
0.4940183070866142
20
0.8892008661417322
11
0.4928827559055118
21
0.8963705118110236
0
LINE
8
BLACK
6
CONTINUOUS
10
0.4928827559055118
20
0.8963705118110236
11
0.4928827559055118
21
0.9036294881889764
0
LINE
8
BLACK
6
CONTINUOUS
10
0.4928827559055118
20
0.9036294881889764
11
0.4940183070866142
21
0.9107991338582677
0
LINE
8
BLACK
6
CONTINUOUS
10
0.4940183070866142
20
0.9107991338582677
11
0.4962614960629921
21
0.917702874015748
0
LINE
8
BLACK
6
CONTINUOUS
10
0.4962614960629921
20
0.917702874015748
11
0.4995570078740157
21
0.9241707086614173
0
LINE
8
BLACK
6
CONTINUOUS
10
0.4995570078740157
20
0.9241707086614173
11
0.5038237401574803
21
0.9300433464566928
0
LINE
8
BLACK
6
CONTINUOUS
10
0.5038237401574803
20
0.9300433464566928
11
0.5089566535433071
21
0.9351762598425196
0
LINE
8
BLACK
6
CONTINUOUS
10
0.5089566535433071
20
0.9351762598425196
11
0.5148292913385827
21
0.9394429921259843
0
LINE
8
BLACK
6
CONTINUOUS
10
0.5148292913385827
20
0.9394429921259843
11
0.5212971259842519
21
0.9427385039370079
0
LINE
8
BLACK
6
CONTINUOUS
10
0.5212971259842519
20
0.9427385039370079
11
0.5282008661417322
21
0.9449816929133859
0
LINE
8
BLACK
6
CONTINUOUS
10
0.5282008661417322
20
0.9449816929133859
11
0.5353705118110236
21
0.9461172440944882
0
LINE
8
BLACK
6
CONTINUOUS
10
0.5353705118110236
20
0.9461172440944882
11
0.5426294881889764
21
0.9461172440944882
0
LINE
8
BLACK
6
CONTINUOUS
10
0.5426294881889764
20
0.9461172440944882
11
0.5497991338582677
21
0.9449816929133859
0
LINE
8
BLACK
6
CONTINUOUS
10
2.290753307086614
20
0.9218186614173228
11
2.2913919291338583
21
0.9213919291338583
0
LINE
8
BLACK
6
CONTINUOUS
10
2.2913919291338583
20
0.9213919291338583
11
2.2918186614173228
21
0.9207533070866142
0
LINE
8
BLACK
6
CONTINUOUS
10
2.2918186614173228
20
0.9207533070866142
11
2.2919685039370079
21
0.9199999999999999
0
LINE
8
BLACK
6
CONTINUOUS
10
2.2919685039370079
20
0.9199999999999999
11
2.2919685039370079
21
0.86
0
LINE
8
BLACK
6
CONTINUOUS
10
2.2919685039370079
20
0.86
11
2.2918186614173228
21
0.8592466929133858
0
LINE
8
BLACK
6
CONTINUOUS
10
2.2918186614173228
20
0.8592466929133858
11
2.2913919291338583
21
0.8586080708661417
0
LINE
8
BLACK
6
CONTINUOUS
10
2.2913919291338583
20
0.8586080708661417
11
2.290753307086614
21
0.8581813385826772
0
LINE
8
BLACK
6
CONTINUOUS
10
2.290753307086614
20
0.8581813385826772
11
2.29
21
0.8580314960629921
0
LINE
8
BLACK
6
CONTINUOUS
10
2.29
20
0.8580314960629921
11
2.23
21
0.8580314960629921
0
LINE
8
BLACK
6
CONTINUOUS
10
2.23
20
0.8580314960629921
11
2.2292466929133856
21
0.8581813385826772
0
LINE
8
BLACK
6
CONTINUOUS
10
2.2292466929133856
20
0.8581813385826772
11
2.2286080708661418
21
0.8586080708661417
0
LINE
8
BLACK
6
CONTINUOUS
10
2.2286080708661418
20
0.8586080708661417
11
2.2281813385826772
21
0.8592466929133858
0
LINE
8
BLACK
6
CONTINUOUS
10
2.2281813385826772
20
0.8592466929133858
11
2.2280314960629921
21
0.86
0
LINE
8
BLACK
6
CONTINUOUS
10
2.2280314960629921
20
0.86
11
2.2280314960629921
21
0.9199999999999999
0
LINE
8
BLACK
6
CONTINUOUS
10
2.2280314960629921
20
0.9199999999999999
11
2.2281813385826772
21
0.9207533070866142
0
LINE
8
BLACK
6
CONTINUOUS
10
2.2281813385826772
20
0.9207533070866142
11
2.2286080708661418
21
0.9213919291338583
0
LINE
8
BLACK
6
CONTINUOUS
10
2.2286080708661418
20
0.9213919291338583
11
2.2292466929133856
21
0.9218186614173228
0
LINE
8
BLACK
6
CONTINUOUS
10
2.2292466929133856
20
0.9218186614173228
11
2.23
21
0.9219685039370078
0
LINE
8
BLACK
6
CONTINUOUS
10
2.23
20
0.9219685039370078
11
2.29
21
0.9219685039370078
0
LINE
8
BLACK
6
CONTINUOUS
10
2.29
20
0.9219685039370078
11
2.290753307086614
21
0.9218186614173228
0
LINE
8
BLACK
6
CONTINUOUS
10
2.390753307086614
20
0.9218186614173228
11
2.3913919291338583
21
0.9213919291338583
0
LINE
8
BLACK
6
CONTINUOUS
10
2.3913919291338583
20
0.9213919291338583
11
2.3918186614173229
21
0.9207533070866142
0
LINE
8
BLACK
6
CONTINUOUS
10
2.3918186614173229
20
0.9207533070866142
11
2.391968503937008
21
0.9199999999999999
0
LINE
8
BLACK
6
CONTINUOUS
10
2.391968503937008
20
0.9199999999999999
11
2.391968503937008
21
0.86
0
LINE
8
BLACK
6
CONTINUOUS
10
2.391968503937008
20
0.86
11
2.3918186614173229
21
0.8592466929133858
0
LINE
8
BLACK
6
CONTINUOUS
10
2.3918186614173229
20
0.8592466929133858
11
2.3913919291338583
21
0.8586080708661417
0
LINE
8
BLACK
6
CONTINUOUS
10
2.3913919291338583
20
0.8586080708661417
11
2.390753307086614
21
0.8581813385826772
0
LINE
8
BLACK
6
CONTINUOUS
10
2.390753307086614
20
0.8581813385826772
11
2.3900000000000001
21
0.8580314960629921
0
LINE
8
BLACK
6
CONTINUOUS
10
2.3900000000000001
20
0.8580314960629921
11
2.3300000000000001
21
0.8580314960629921
0
LINE
8
BLACK
6
CONTINUOUS
10
2.3300000000000001
20
0.8580314960629921
11
2.3292466929133857
21
0.8581813385826772
0
LINE
8
BLACK
6
CONTINUOUS
10
2.3292466929133857
20
0.8581813385826772
11
2.3286080708661419
21
0.8586080708661417
0
LINE
8
BLACK
6
CONTINUOUS
10
2.3286080708661419
20
0.8586080708661417
11
2.3281813385826773
21
0.8592466929133858
0
LINE
8
BLACK
6
CONTINUOUS
10
2.3281813385826773
20
0.8592466929133858
11
2.3280314960629922
21
0.86
0
LINE
8
BLACK
6
CONTINUOUS
10
2.3280314960629922
20
0.86
11
2.3280314960629922
21
0.9199999999999999
0
LINE
8
BLACK
6
CONTINUOUS
10
2.3280314960629922
20
0.9199999999999999
11
2.3281813385826773
21
0.9207533070866142
0
LINE
8
BLACK
6
CONTINUOUS
10
2.3281813385826773
20
0.9207533070866142
11
2.3286080708661419
21
0.9213919291338583
0
LINE
8
BLACK
6
CONTINUOUS
10
2.3286080708661419
20
0.9213919291338583
11
2.3292466929133857
21
0.9218186614173228
0
LINE
8
BLACK
6
CONTINUOUS
10
2.3292466929133857
20
0.9218186614173228
11
2.3300000000000001
21
0.9219685039370078
0
LINE
8
BLACK
6
CONTINUOUS
10
2.3300000000000001
20
0.9219685039370078
11
2.3900000000000001
21
0.9219685039370078
0
LINE
8
BLACK
6
CONTINUOUS
10
2.3900000000000001
20
0.9219685039370078
11
2.390753307086614
21
0.9218186614173228
0
LINE
8
BLACK
6
CONTINUOUS
10
0.4488800787401575
20
1.0411534645669291
11
0.4551962598425197
21
1.0391011811023623
0
LINE
8
BLACK
6
CONTINUOUS
10
0.4551962598425197
20
1.0391011811023623
11
0.4611136220472441
21
1.0360861417322835
0
LINE
8
BLACK
6
CONTINUOUS
10
0.4611136220472441
20
1.0360861417322835
11
0.4664864960629921
21
1.0321825196850394
0
LINE
8
BLACK
6
CONTINUOUS
10
0.4664864960629921
20
1.0321825196850394
11
0.4711825196850394
21
1.0274864960629921
0
LINE
8
BLACK
6
CONTINUOUS
10
0.4711825196850394
20
1.0274864960629921
11
0.4750861417322835
21
1.022113622047244
0
LINE
8
BLACK
6
CONTINUOUS
10
0.4750861417322835
20
1.022113622047244
11
0.4781011811023622
21
1.0161962598425196
0
LINE
8
BLACK
6
CONTINUOUS
10
0.4781011811023622
20
1.0161962598425196
11
0.4801534645669291
21
1.0098800787401574
0
LINE
8
BLACK
6
CONTINUOUS
10
0.4801534645669291
20
1.0098800787401574
11
0.4811923622047244
21
1.0033206299212598
0
LINE
8
BLACK
6
CONTINUOUS
10
0.4811923622047244
20
1.0033206299212598
11
0.4811923622047244
21
0.9966793700787402
0
LINE
8
BLACK
6
CONTINUOUS
10
0.4811923622047244
20
0.9966793700787402
11
0.4801534645669291
21
0.9901199212598425
0
LINE
8
BLACK
6
CONTINUOUS
10
0.4801534645669291
20
0.9901199212598425
11
0.4781011811023622
21
0.9838037401574803
0
LINE
8
BLACK
6
CONTINUOUS
10
0.4781011811023622
20
0.9838037401574803
11
0.4750861417322835
21
0.9778863779527559
0
LINE
8
BLACK
6
CONTINUOUS
10
0.4750861417322835
20
0.9778863779527559
11
0.4711825196850394
21
0.9725135039370079
0
LINE
8
BLACK
6
CONTINUOUS
10
0.4711825196850394
20
0.9725135039370079
11
0.4664864960629921
21
0.9678174803149606
0
LINE
8
BLACK
6
CONTINUOUS
10
0.4664864960629921
20
0.9678174803149606
11
0.4611136220472441
21
0.9639138582677165
0
LINE
8
BLACK
6
CONTINUOUS
10
0.4611136220472441
20
0.9639138582677165
11
0.4551962598425197
21
0.9608988188976377
0
LINE
8
BLACK
6
CONTINUOUS
10
0.4551962598425197
20
0.9608988188976377
11
0.4488800787401575
21
0.9588465354330709
0
LINE
8
BLACK
6
CONTINUOUS
10
0.4488800787401575
20
0.9588465354330709
11
0.4423206299212598
21
0.9578076377952756
0
LINE
8
BLACK
6
CONTINUOUS
10
0.4423206299212598
20
0.9578076377952756
11
0.4356793700787401
21
0.9578076377952756
0
LINE
8
BLACK
6
CONTINUOUS
10
0.4356793700787401
20
0.9578076377952756
11
0.4291199212598425
21
0.9588465354330709
0
LINE
8
BLACK
6
CONTINUOUS
10
0.4291199212598425
20
0.9588465354330709
11
0.4228037401574803
21
0.9608988188976377
0
LINE
8
BLACK
6
CONTINUOUS
10
0.4228037401574803
20
0.9608988188976377
11
0.4168863779527559
21
0.9639138582677165
0
LINE
8
BLACK
6
CONTINUOUS
10
0.4168863779527559
20
0.9639138582677165
11
0.4115135039370079
21
0.9678174803149606
0
LINE
8
BLACK
6
CONTINUOUS
10
0.4115135039370079
20
0.9678174803149606
11
0.4068174803149606
21
0.9725135039370079
0
LINE
8
BLACK
6
CONTINUOUS
10
0.4068174803149606
20
0.9725135039370079
11
0.4029138582677165
21
0.9778863779527559
0
LINE
8
BLACK
6
CONTINUOUS
10
0.4029138582677165
20
0.9778863779527559
11
0.3998988188976378
21
0.9838037401574803
0
LINE
8
BLACK
6
CONTINUOUS
10
0.3998988188976378
20
0.9838037401574803
11
0.3978465354330709
21
0.9901199212598425
0
LINE
8
BLACK
6
CONTINUOUS
10
0.3978465354330709
20
0.9901199212598425
11
0.3968076377952756
21
0.9966793700787402
0
LINE
8
BLACK
6
CONTINUOUS
10
0.3968076377952756
20
0.9966793700787402
11
0.3968076377952756
21
1.0033206299212598
0
LINE
8
BLACK
6
CONTINUOUS
10
0.3968076377952756
20
1.0033206299212598
11
0.3978465354330709
21
1.0098800787401574
0
LINE
8
BLACK
6
CONTINUOUS
10
0.3978465354330709
20
1.0098800787401574
11
0.3998988188976378
21
1.0161962598425196
0
LINE
8
BLACK
6
CONTINUOUS
10
0.3998988188976378
20
1.0161962598425196
11
0.4029138582677165
21
1.022113622047244
0
LINE
8
BLACK
6
CONTINUOUS
10
0.4029138582677165
20
1.022113622047244
11
0.4068174803149606
21
1.0274864960629921
0
LINE
8
BLACK
6
CONTINUOUS
10
0.4068174803149606
20
1.0274864960629921
11
0.4115135039370079
21
1.0321825196850394
0
LINE
8
BLACK
6
CONTINUOUS
10
0.4115135039370079
20
1.0321825196850394
11
0.4168863779527559
21
1.0360861417322835
0
LINE
8
BLACK
6
CONTINUOUS
10
0.4168863779527559
20
1.0360861417322835
11
0.4228037401574803
21
1.0391011811023623
0
LINE
8
BLACK
6
CONTINUOUS
10
0.4228037401574803
20
1.0391011811023623
11
0.4291199212598425
21
1.0411534645669291
0
LINE
8
BLACK
6
CONTINUOUS
10
0.4291199212598425
20
1.0411534645669291
11
0.4356793700787401
21
1.0421923622047244
0
LINE
8
BLACK
6
CONTINUOUS
10
0.4356793700787401
20
1.0421923622047244
11
0.4423206299212598
21
1.0421923622047244
0
LINE
8
BLACK
6
CONTINUOUS
10
0.4423206299212598
20
1.0421923622047244
11
0.4488800787401575
21
1.0411534645669291
0
LINE
8
BLACK
6
CONTINUOUS
10
2.2907532677165352
20
1.0918186614173229
11
2.2913918897637795
21
1.0913919291338583
0
LINE
8
BLACK
6
CONTINUOUS
10
2.2913918897637795
20
1.0913919291338583
11
2.2918186220472441
21
1.0907533070866142
0
LINE
8
BLACK
6
CONTINUOUS
10
2.2918186220472441
20
1.0907533070866142
11
2.2919684645669292
21
1.0900000000000001
0
LINE
8
BLACK
6
CONTINUOUS
10
2.2919684645669292
20
1.0900000000000001
11
2.2919684645669292
21
1.03
0
LINE
8
BLACK
6
CONTINUOUS
10
2.2919684645669292
20
1.03
11
2.2918186220472441
21
1.0292466929133859
0
LINE
8
BLACK
6
CONTINUOUS
10
2.2918186220472441
20
1.0292466929133859
11
2.2913918897637795
21
1.0286080708661418
0
LINE
8
BLACK
6
CONTINUOUS
10
2.2913918897637795
20
1.0286080708661418
11
2.2907532677165352
21
1.0281813385826772
0
LINE
8
BLACK
6
CONTINUOUS
10
2.2907532677165352
20
1.0281813385826772
11
2.2899999606299213
21
1.0280314960629922
0
LINE
8
BLACK
6
CONTINUOUS
10
2.2899999606299213
20
1.0280314960629922
11
2.2299999606299212
21
1.0280314960629922
0
LINE
8
BLACK
6
CONTINUOUS
10
2.2299999606299212
20
1.0280314960629922
11
2.2292466535433069
21
1.0281813385826772
0
LINE
8
BLACK
6
CONTINUOUS
10
2.2292466535433069
20
1.0281813385826772
11
2.228608031496063
21
1.0286080708661418
0
LINE
8
BLACK
6
CONTINUOUS
10
2.228608031496063
20
1.0286080708661418
11
2.2281812992125984
21
1.0292466929133859
0
LINE
8
BLACK
6
CONTINUOUS
10
2.2281812992125984
20
1.0292466929133859
11
2.2280314566929134
21
1.03
0
LINE
8
BLACK
6
CONTINUOUS
10
2.2280314566929134
20
1.03
11
2.2280314566929134
21
1.0900000000000001
0
LINE
8
BLACK
6
CONTINUOUS
10
2.2280314566929134
20
1.0900000000000001
11
2.2281812992125984
21
1.0907533070866142
0
LINE
8
BLACK
6
CONTINUOUS
10
2.2281812992125984
20
1.0907533070866142
11
2.228608031496063
21
1.0913919291338583
0
LINE
8
BLACK
6
CONTINUOUS
10
2.228608031496063
20
1.0913919291338583
11
2.2292466535433069
21
1.0918186614173229
0
LINE
8
BLACK
6
CONTINUOUS
10
2.2292466535433069
20
1.0918186614173229
11
2.2299999606299212
21
1.091968503937008
0
LINE
8
BLACK
6
CONTINUOUS
10
2.2299999606299212
20
1.091968503937008
11
2.2899999606299213
21
1.091968503937008
0
LINE
8
BLACK
6
CONTINUOUS
10
2.2899999606299213
20
1.091968503937008
11
2.2907532677165352
21
1.0918186614173229
0
LINE
8
BLACK
6
CONTINUOUS
10
2.3907533464566928
20
1.0918186614173229
11
2.3913919685039371
21
1.0913919291338583
0
LINE
8
BLACK
6
CONTINUOUS
10
2.3913919685039371
20
1.0913919291338583
11
2.3918187007874017
21
1.0907533070866142
0
LINE
8
BLACK
6
CONTINUOUS
10
2.3918187007874017
20
1.0907533070866142
11
2.3919685433070867
21
1.0900000000000001
0
LINE
8
BLACK
6
CONTINUOUS
10
2.3919685433070867
20
1.0900000000000001
11
2.3919685433070867
21
1.03
0
LINE
8
BLACK
6
CONTINUOUS
10
2.3919685433070867
20
1.03
11
2.3918187007874017
21
1.0292466929133859
0
LINE
8
BLACK
6
CONTINUOUS
10
2.3918187007874017
20
1.0292466929133859
11
2.3913919685039371
21
1.0286080708661418
0
LINE
8
BLACK
6
CONTINUOUS
10
2.3913919685039371
20
1.0286080708661418
11
2.3907533464566928
21
1.0281813385826772
0
LINE
8
BLACK
6
CONTINUOUS
10
2.3907533464566928
20
1.0281813385826772
11
2.3900000393700789
21
1.0280314960629922
0
LINE
8
BLACK
6
CONTINUOUS
10
2.3900000393700789
20
1.0280314960629922
11
2.3300000393700788
21
1.0280314960629922
0
LINE
8
BLACK
6
CONTINUOUS
10
2.3300000393700788
20
1.0280314960629922
11
2.3292467322834645
21
1.0281813385826772
0
LINE
8
BLACK
6
CONTINUOUS
10
2.3292467322834645
20
1.0281813385826772
11
2.3286081102362206
21
1.0286080708661418
0
LINE
8
BLACK
6
CONTINUOUS
10
2.3286081102362206
20
1.0286080708661418
11
2.328181377952756
21
1.0292466929133859
0
LINE
8
BLACK
6
CONTINUOUS
10
2.328181377952756
20
1.0292466929133859
11
2.328031535433071
21
1.03
0
LINE
8
BLACK
6
CONTINUOUS
10
2.328031535433071
20
1.03
11
2.328031535433071
21
1.0900000000000001
0
LINE
8
BLACK
6
CONTINUOUS
10
2.328031535433071
20
1.0900000000000001
11
2.328181377952756
21
1.0907533070866142
0
LINE
8
BLACK
6
CONTINUOUS
10
2.328181377952756
20
1.0907533070866142
11
2.3286081102362206
21
1.0913919291338583
0
LINE
8
BLACK
6
CONTINUOUS
10
2.3286081102362206
20
1.0913919291338583
11
2.3292467322834645
21
1.0918186614173229
0
LINE
8
BLACK
6
CONTINUOUS
10
2.3292467322834645
20
1.0918186614173229
11
2.3300000393700788
21
1.091968503937008
0
LINE
8
BLACK
6
CONTINUOUS
10
2.3300000393700788
20
1.091968503937008
11
2.3900000393700789
21
1.091968503937008
0
LINE
8
BLACK
6
CONTINUOUS
10
2.3900000393700789
20
1.091968503937008
11
2.3907533464566928
21
1.0918186614173229
0
LINE
8
BLACK
6
CONTINUOUS
10
0.3497991338582677
20
1.1449816929133858
11
0.356702874015748
21
1.1427385039370079
0
LINE
8
BLACK
6
CONTINUOUS
10
0.356702874015748
20
1.1427385039370079
11
0.3631707086614173
21
1.1394429921259843
0
LINE
8
BLACK
6
CONTINUOUS
10
0.3631707086614173
20
1.1394429921259843
11
0.3690433464566929
21
1.1351762598425197
0
LINE
8
BLACK
6
CONTINUOUS
10
0.3690433464566929
20
1.1351762598425197
11
0.3741762598425197
21
1.1300433464566928
0
LINE
8
BLACK
6
CONTINUOUS
10
0.3741762598425197
20
1.1300433464566928
11
0.3784429921259843
21
1.1241707086614172
0
LINE
8
BLACK
6
CONTINUOUS
10
0.3784429921259843
20
1.1241707086614172
11
0.3817385039370079
21
1.117702874015748
0
LINE
8
BLACK
6
CONTINUOUS
10
0.3817385039370079
20
1.117702874015748
11
0.3839816929133858
21
1.1107991338582677
0
LINE
8
BLACK
6
CONTINUOUS
10
0.3839816929133858
20
1.1107991338582677
11
0.3851172440944882
21
1.1036294881889763
0
LINE
8
BLACK
6
CONTINUOUS
10
0.3851172440944882
20
1.1036294881889763
11
0.3851172440944882
21
1.0963705118110236
0
LINE
8
BLACK
6
CONTINUOUS
10
0.3851172440944882
20
1.0963705118110236
11
0.3839816929133858
21
1.0892008661417323
0
LINE
8
BLACK
6
CONTINUOUS
10
0.3839816929133858
20
1.0892008661417323
11
0.3817385039370079
21
1.082297125984252
0
LINE
8
BLACK
6
CONTINUOUS
10
0.3817385039370079
20
1.082297125984252
11
0.3784429921259843
21
1.0758292913385827
0
LINE
8
BLACK
6
CONTINUOUS
10
0.3784429921259843
20
1.0758292913385827
11
0.3741762598425197
21
1.0699566535433072
0
LINE
8
BLACK
6
CONTINUOUS
10
0.3741762598425197
20
1.0699566535433072
11
0.3690433464566929
21
1.0648237401574803
0
LINE
8
BLACK
6
CONTINUOUS
10
0.3690433464566929
20
1.0648237401574803
11
0.3631707086614173
21
1.0605570078740156
0
LINE
8
BLACK
6
CONTINUOUS
10
0.3631707086614173
20
1.0605570078740156
11
0.356702874015748
21
1.057261496062992
0
LINE
8
BLACK
6
CONTINUOUS
10
0.356702874015748
20
1.057261496062992
11
0.3497991338582677
21
1.0550183070866141
0
LINE
8
BLACK
6
CONTINUOUS
10
0.3497991338582677
20
1.0550183070866141
11
0.3426294881889764
21
1.0538827559055117
0
LINE
8
BLACK
6
CONTINUOUS
10
0.3426294881889764
20
1.0538827559055117
11
0.3353705118110236
21
1.0538827559055117
0
LINE
8
BLACK
6
CONTINUOUS
10
0.3353705118110236
20
1.0538827559055117
11
0.3282008661417323
21
1.0550183070866141
0
LINE
8
BLACK
6
CONTINUOUS
10
0.3282008661417323
20
1.0550183070866141
11
0.321297125984252
21
1.057261496062992
0
LINE
8
BLACK
6
CONTINUOUS
10
0.321297125984252
20
1.057261496062992
11
0.3148292913385827
21
1.0605570078740156
0
LINE
8
BLACK
6
CONTINUOUS
10
0.3148292913385827
20
1.0605570078740156
11
0.3089566535433071
21
1.0648237401574803
0
LINE
8
BLACK
6
CONTINUOUS
10
0.3089566535433071
20
1.0648237401574803
11
0.3038237401574803
21
1.0699566535433072
0
LINE
8
BLACK
6
CONTINUOUS
10
0.3038237401574803
20
1.0699566535433072
11
0.2995570078740157
21
1.0758292913385827
0
LINE
8
BLACK
6
CONTINUOUS
10
0.2995570078740157
20
1.0758292913385827
11
0.2962614960629921
21
1.082297125984252
0
LINE
8
BLACK
6
CONTINUOUS
10
0.2962614960629921
20
1.082297125984252
11
0.2940183070866141
21
1.0892008661417323
0
LINE
8
BLACK
6
CONTINUOUS
10
0.2940183070866141
20
1.0892008661417323
11
0.2928827559055118
21
1.0963705118110236
0
LINE
8
BLACK
6
CONTINUOUS
10
0.2928827559055118
20
1.0963705118110236
11
0.2928827559055118
21
1.1036294881889763
0
LINE
8
BLACK
6
CONTINUOUS
10
0.2928827559055118
20
1.1036294881889763
11
0.2940183070866141
21
1.1107991338582677
0
LINE
8
BLACK
6
CONTINUOUS
10
0.2940183070866141
20
1.1107991338582677
11
0.2962614960629921
21
1.117702874015748
0
LINE
8
BLACK
6
CONTINUOUS
10
0.2962614960629921
20
1.117702874015748
11
0.2995570078740157
21
1.1241707086614172
0
LINE
8
BLACK
6
CONTINUOUS
10
0.2995570078740157
20
1.1241707086614172
11
0.3038237401574803
21
1.1300433464566928
0
LINE
8
BLACK
6
CONTINUOUS
10
0.3038237401574803
20
1.1300433464566928
11
0.3089566535433071
21
1.1351762598425197
0
LINE
8
BLACK
6
CONTINUOUS
10
0.3089566535433071
20
1.1351762598425197
11
0.3148292913385827
21
1.1394429921259843
0
LINE
8
BLACK
6
CONTINUOUS
10
0.3148292913385827
20
1.1394429921259843
11
0.321297125984252
21
1.1427385039370079
0
LINE
8
BLACK
6
CONTINUOUS
10
0.321297125984252
20
1.1427385039370079
11
0.3282008661417323
21
1.1449816929133858
0
LINE
8
BLACK
6
CONTINUOUS
10
0.3282008661417323
20
1.1449816929133858
11
0.3353705118110236
21
1.1461172440944882
0
LINE
8
BLACK
6
CONTINUOUS
10
0.3353705118110236
20
1.1461172440944882
11
0.3426294881889764
21
1.1461172440944882
0
LINE
8
BLACK
6
CONTINUOUS
10
0.3426294881889764
20
1.1461172440944882
11
0.3497991338582677
21
1.1449816929133858
0
LINE
8
BLACK
6
CONTINUOUS
10
0.5497991338582677
20
1.1449816929133858
11
0.556702874015748
21
1.1427385039370079
0
LINE
8
BLACK
6
CONTINUOUS
10
0.556702874015748
20
1.1427385039370079
11
0.5631707086614173
21
1.1394429921259843
0
LINE
8
BLACK
6
CONTINUOUS
10
0.5631707086614173
20
1.1394429921259843
11
0.5690433464566929
21
1.1351762598425197
0
LINE
8
BLACK
6
CONTINUOUS
10
0.5690433464566929
20
1.1351762598425197
11
0.5741762598425196
21
1.1300433464566928
0
LINE
8
BLACK
6
CONTINUOUS
10
0.5741762598425196
20
1.1300433464566928
11
0.5784429921259843
21
1.1241707086614172
0
LINE
8
BLACK
6
CONTINUOUS
10
0.5784429921259843
20
1.1241707086614172
11
0.5817385039370079
21
1.117702874015748
0
LINE
8
BLACK
6
CONTINUOUS
10
0.5817385039370079
20
1.117702874015748
11
0.5839816929133859
21
1.1107991338582677
0
LINE
8
BLACK
6
CONTINUOUS
10
0.5839816929133859
20
1.1107991338582677
11
0.5851172440944882
21
1.1036294881889763
0
LINE
8
BLACK
6
CONTINUOUS
10
0.5851172440944882
20
1.1036294881889763
11
0.5851172440944882
21
1.0963705118110236
0
LINE
8
BLACK
6
CONTINUOUS
10
0.5851172440944882
20
1.0963705118110236
11
0.5839816929133859
21
1.0892008661417323
0
LINE
8
BLACK
6
CONTINUOUS
10
0.5839816929133859
20
1.0892008661417323
11
0.5817385039370079
21
1.082297125984252
0
LINE
8
BLACK
6
CONTINUOUS
10
0.5817385039370079
20
1.082297125984252
11
0.5784429921259843
21
1.0758292913385827
0
LINE
8
BLACK
6
CONTINUOUS
10
0.5784429921259843
20
1.0758292913385827
11
0.5741762598425196
21
1.0699566535433072
0
LINE
8
BLACK
6
CONTINUOUS
10
0.5741762598425196
20
1.0699566535433072
11
0.5690433464566929
21
1.0648237401574803
0
LINE
8
BLACK
6
CONTINUOUS
10
0.5690433464566929
20
1.0648237401574803
11
0.5631707086614173
21
1.0605570078740156
0
LINE
8
BLACK
6
CONTINUOUS
10
0.5631707086614173
20
1.0605570078740156
11
0.556702874015748
21
1.057261496062992
0
LINE
8
BLACK
6
CONTINUOUS
10
0.556702874015748
20
1.057261496062992
11
0.5497991338582677
21
1.0550183070866141
0
LINE
8
BLACK
6
CONTINUOUS
10
0.5497991338582677
20
1.0550183070866141
11
0.5426294881889764
21
1.0538827559055117
0
LINE
8
BLACK
6
CONTINUOUS
10
0.5426294881889764
20
1.0538827559055117
11
0.5353705118110236
21
1.0538827559055117
0
LINE
8
BLACK
6
CONTINUOUS
10
0.5353705118110236
20
1.0538827559055117
11
0.5282008661417322
21
1.0550183070866141
0
LINE
8
BLACK
6
CONTINUOUS
10
0.5282008661417322
20
1.0550183070866141
11
0.5212971259842519
21
1.057261496062992
0
LINE
8
BLACK
6
CONTINUOUS
10
0.5212971259842519
20
1.057261496062992
11
0.5148292913385827
21
1.0605570078740156
0
LINE
8
BLACK
6
CONTINUOUS
10
0.5148292913385827
20
1.0605570078740156
11
0.5089566535433071
21
1.0648237401574803
0
LINE
8
BLACK
6
CONTINUOUS
10
0.5089566535433071
20
1.0648237401574803
11
0.5038237401574803
21
1.0699566535433072
0
LINE
8
BLACK
6
CONTINUOUS
10
0.5038237401574803
20
1.0699566535433072
11
0.4995570078740157
21
1.0758292913385827
0
LINE
8
BLACK
6
CONTINUOUS
10
0.4995570078740157
20
1.0758292913385827
11
0.4962614960629921
21
1.082297125984252
0
LINE
8
BLACK
6
CONTINUOUS
10
0.4962614960629921
20
1.082297125984252
11
0.4940183070866142
21
1.0892008661417323
0
LINE
8
BLACK
6
CONTINUOUS
10
0.4940183070866142
20
1.0892008661417323
11
0.4928827559055118
21
1.0963705118110236
0
LINE
8
BLACK
6
CONTINUOUS
10
0.4928827559055118
20
1.0963705118110236
11
0.4928827559055118
21
1.1036294881889763
0
LINE
8
BLACK
6
CONTINUOUS
10
0.4928827559055118
20
1.1036294881889763
11
0.4940183070866142
21
1.1107991338582677
0
LINE
8
BLACK
6
CONTINUOUS
10
0.4940183070866142
20
1.1107991338582677
11
0.4962614960629921
21
1.117702874015748
0
LINE
8
BLACK
6
CONTINUOUS
10
0.4962614960629921
20
1.117702874015748
11
0.4995570078740157
21
1.1241707086614172
0
LINE
8
BLACK
6
CONTINUOUS
10
0.4995570078740157
20
1.1241707086614172
11
0.5038237401574803
21
1.1300433464566928
0
LINE
8
BLACK
6
CONTINUOUS
10
0.5038237401574803
20
1.1300433464566928
11
0.5089566535433071
21
1.1351762598425197
0
LINE
8
BLACK
6
CONTINUOUS
10
0.5089566535433071
20
1.1351762598425197
11
0.5148292913385827
21
1.1394429921259843
0
LINE
8
BLACK
6
CONTINUOUS
10
0.5148292913385827
20
1.1394429921259843
11
0.5212971259842519
21
1.1427385039370079
0
LINE
8
BLACK
6
CONTINUOUS
10
0.5212971259842519
20
1.1427385039370079
11
0.5282008661417322
21
1.1449816929133858
0
LINE
8
BLACK
6
CONTINUOUS
10
0.5282008661417322
20
1.1449816929133858
11
0.5353705118110236
21
1.1461172440944882
0
LINE
8
BLACK
6
CONTINUOUS
10
0.5353705118110236
20
1.1461172440944882
11
0.5426294881889764
21
1.1461172440944882
0
LINE
8
BLACK
6
CONTINUOUS
10
0.5426294881889764
20
1.1461172440944882
11
0.5497991338582677
21
1.1449816929133858
0
LINE
8
BLACK
6
CONTINUOUS
10
2.2907532677165352
20
1.1918186614173227
11
2.2913918897637795
21
1.1913919291338582
0
LINE
8
BLACK
6
CONTINUOUS
10
2.2913918897637795
20
1.1913919291338582
11
2.2918186220472441
21
1.1907533070866141
0
LINE
8
BLACK
6
CONTINUOUS
10
2.2918186220472441
20
1.1907533070866141
11
2.2919684645669292
21
1.1899999999999999
0
LINE
8
BLACK
6
CONTINUOUS
10
2.2919684645669292
20
1.1899999999999999
11
2.2919684645669292
21
1.1299999999999999
0
LINE
8
BLACK
6
CONTINUOUS
10
2.2919684645669292
20
1.1299999999999999
11
2.2918186220472441
21
1.1292466929133858
0
LINE
8
BLACK
6
CONTINUOUS
10
2.2918186220472441
20
1.1292466929133858
11
2.2913918897637795
21
1.1286080708661417
0
LINE
8
BLACK
6
CONTINUOUS
10
2.2913918897637795
20
1.1286080708661417
11
2.2907532677165352
21
1.1281813385826771
0
LINE
8
BLACK
6
CONTINUOUS
10
2.2907532677165352
20
1.1281813385826771
11
2.2899999606299213
21
1.128031496062992
0
LINE
8
BLACK
6
CONTINUOUS
10
2.2899999606299213
20
1.128031496062992
11
2.2299999606299212
21
1.128031496062992
0
LINE
8
BLACK
6
CONTINUOUS
10
2.2299999606299212
20
1.128031496062992
11
2.2292466535433069
21
1.1281813385826771
0
LINE
8
BLACK
6
CONTINUOUS
10
2.2292466535433069
20
1.1281813385826771
11
2.228608031496063
21
1.1286080708661417
0
LINE
8
BLACK
6
CONTINUOUS
10
2.228608031496063
20
1.1286080708661417
11
2.2281812992125984
21
1.1292466929133858
0
LINE
8
BLACK
6
CONTINUOUS
10
2.2281812992125984
20
1.1292466929133858
11
2.2280314566929134
21
1.1299999999999999
0
LINE
8
BLACK
6
CONTINUOUS
10
2.2280314566929134
20
1.1299999999999999
11
2.2280314566929134
21
1.1899999999999999
0
LINE
8
BLACK
6
CONTINUOUS
10
2.2280314566929134
20
1.1899999999999999
11
2.2281812992125984
21
1.1907533070866141
0
LINE
8
BLACK
6
CONTINUOUS
10
2.2281812992125984
20
1.1907533070866141
11
2.228608031496063
21
1.1913919291338582
0
LINE
8
BLACK
6
CONTINUOUS
10
2.228608031496063
20
1.1913919291338582
11
2.2292466535433069
21
1.1918186614173227
0
LINE
8
BLACK
6
CONTINUOUS
10
2.2292466535433069
20
1.1918186614173227
11
2.2299999606299212
21
1.1919685039370078
0
LINE
8
BLACK
6
CONTINUOUS
10
2.2299999606299212
20
1.1919685039370078
11
2.2899999606299213
21
1.1919685039370078
0
LINE
8
BLACK
6
CONTINUOUS
10
2.2899999606299213
20
1.1919685039370078
11
2.2907532677165352
21
1.1918186614173227
0
LINE
8
BLACK
6
CONTINUOUS
10
2.3907533464566928
20
1.1918186614173227
11
2.3913919685039371
21
1.1913919291338582
0
LINE
8
BLACK
6
CONTINUOUS
10
2.3913919685039371
20
1.1913919291338582
11
2.3918187007874017
21
1.1907533070866141
0
LINE
8
BLACK
6
CONTINUOUS
10
2.3918187007874017
20
1.1907533070866141
11
2.3919685433070867
21
1.1899999999999999
0
LINE
8
BLACK
6
CONTINUOUS
10
2.3919685433070867
20
1.1899999999999999
11
2.3919685433070867
21
1.1299999999999999
0
LINE
8
BLACK
6
CONTINUOUS
10
2.3919685433070867
20
1.1299999999999999
11
2.3918187007874017
21
1.1292466929133858
0
LINE
8
BLACK
6
CONTINUOUS
10
2.3918187007874017
20
1.1292466929133858
11
2.3913919685039371
21
1.1286080708661417
0
LINE
8
BLACK
6
CONTINUOUS
10
2.3913919685039371
20
1.1286080708661417
11
2.3907533464566928
21
1.1281813385826771
0
LINE
8
BLACK
6
CONTINUOUS
10
2.3907533464566928
20
1.1281813385826771
11
2.3900000393700789
21
1.128031496062992
0
LINE
8
BLACK
6
CONTINUOUS
10
2.3900000393700789
20
1.128031496062992
11
2.3300000393700788
21
1.128031496062992
0
LINE
8
BLACK
6
CONTINUOUS
10
2.3300000393700788
20
1.128031496062992
11
2.3292467322834645
21
1.1281813385826771
0
LINE
8
BLACK
6
CONTINUOUS
10
2.3292467322834645
20
1.1281813385826771
11
2.3286081102362206
21
1.1286080708661417
0
LINE
8
BLACK
6
CONTINUOUS
10
2.3286081102362206
20
1.1286080708661417
11
2.328181377952756
21
1.1292466929133858
0
LINE
8
BLACK
6
CONTINUOUS
10
2.328181377952756
20
1.1292466929133858
11
2.328031535433071
21
1.1299999999999999
0
LINE
8
BLACK
6
CONTINUOUS
10
2.328031535433071
20
1.1299999999999999
11
2.328031535433071
21
1.1899999999999999
0
LINE
8
BLACK
6
CONTINUOUS
10
2.328031535433071
20
1.1899999999999999
11
2.328181377952756
21
1.1907533070866141
0
LINE
8
BLACK
6
CONTINUOUS
10
2.328181377952756
20
1.1907533070866141
11
2.3286081102362206
21
1.1913919291338582
0
LINE
8
BLACK
6
CONTINUOUS
10
2.3286081102362206
20
1.1913919291338582
11
2.3292467322834645
21
1.1918186614173227
0
LINE
8
BLACK
6
CONTINUOUS
10
2.3292467322834645
20
1.1918186614173227
11
2.3300000393700788
21
1.1919685039370078
0
LINE
8
BLACK
6
CONTINUOUS
10
2.3300000393700788
20
1.1919685039370078
11
2.3900000393700789
21
1.1919685039370078
0
LINE
8
BLACK
6
CONTINUOUS
10
2.3900000393700789
20
1.1919685039370078
11
2.3907533464566928
21
1.1918186614173227
0
LINE
8
BLACK
6
CONTINUOUS
10
1.6507533070866141
20
1.2818186614173228
11
1.6513919291338581
21
1.2813919291338582
0
LINE
8
BLACK
6
CONTINUOUS
10
1.6513919291338581
20
1.2813919291338582
11
1.6518186614173227
21
1.2807533070866142
0
LINE
8
BLACK
6
CONTINUOUS
10
1.6518186614173227
20
1.2807533070866142
11
1.6519685039370078
21
1.28
0
LINE
8
BLACK
6
CONTINUOUS
10
1.6519685039370078
20
1.28
11
1.6519685039370078
21
1.22
0
LINE
8
BLACK
6
CONTINUOUS
10
1.6519685039370078
20
1.22
11
1.6518186614173227
21
1.2192466929133858
0
LINE
8
BLACK
6
CONTINUOUS
10
1.6518186614173227
20
1.2192466929133858
11
1.6513919291338581
21
1.2186080708661418
0
LINE
8
BLACK
6
CONTINUOUS
10
1.6513919291338581
20
1.2186080708661418
11
1.6507533070866141
21
1.2181813385826772
0
LINE
8
BLACK
6
CONTINUOUS
10
1.6507533070866141
20
1.2181813385826772
11
1.6499999999999999
21
1.2180314960629921
0
LINE
8
BLACK
6
CONTINUOUS
10
1.6499999999999999
20
1.2180314960629921
11
1.5899999999999999
21
1.2180314960629921
0
LINE
8
BLACK
6
CONTINUOUS
10
1.5899999999999999
20
1.2180314960629921
11
1.5892466929133857
21
1.2181813385826772
0
LINE
8
BLACK
6
CONTINUOUS
10
1.5892466929133857
20
1.2181813385826772
11
1.5886080708661416
21
1.2186080708661418
0
LINE
8
BLACK
6
CONTINUOUS
10
1.5886080708661416
20
1.2186080708661418
11
1.5881813385826771
21
1.2192466929133858
0
LINE
8
BLACK
6
CONTINUOUS
10
1.5881813385826771
20
1.2192466929133858
11
1.588031496062992
21
1.22
0
LINE
8
BLACK
6
CONTINUOUS
10
1.588031496062992
20
1.22
11
1.588031496062992
21
1.28
0
LINE
8
BLACK
6
CONTINUOUS
10
1.588031496062992
20
1.28
11
1.5881813385826771
21
1.2807533070866142
0
LINE
8
BLACK
6
CONTINUOUS
10
1.5881813385826771
20
1.2807533070866142
11
1.5886080708661416
21
1.2813919291338582
0
LINE
8
BLACK
6
CONTINUOUS
10
1.5886080708661416
20
1.2813919291338582
11
1.5892466929133857
21
1.2818186614173228
0
LINE
8
BLACK
6
CONTINUOUS
10
1.5892466929133857
20
1.2818186614173228
11
1.5899999999999999
21
1.2819685039370079
0
LINE
8
BLACK
6
CONTINUOUS
10
1.5899999999999999
20
1.2819685039370079
11
1.6499999999999999
21
1.2819685039370079
0
LINE
8
BLACK
6
CONTINUOUS
10
1.6499999999999999
20
1.2819685039370079
11
1.6507533070866141
21
1.2818186614173228
0
LINE
8
BLACK
6
CONTINUOUS
10
2.2907532677165352
20
1.2918186614173228
11
2.2913918897637795
21
1.2913919291338583
0
LINE
8
BLACK
6
CONTINUOUS
10
2.2913918897637795
20
1.2913919291338583
11
2.2918186220472441
21
1.2907533070866142
0
LINE
8
BLACK
6
CONTINUOUS
10
2.2918186220472441
20
1.2907533070866142
11
2.2919684645669292
21
1.29
0
LINE
8
BLACK
6
CONTINUOUS
10
2.2919684645669292
20
1.29
11
2.2919684645669292
21
1.23
0
LINE
8
BLACK
6
CONTINUOUS
10
2.2919684645669292
20
1.23
11
2.2918186220472441
21
1.2292466929133858
0
LINE
8
BLACK
6
CONTINUOUS
10
2.2918186220472441
20
1.2292466929133858
11
2.2913918897637795
21
1.2286080708661418
0
LINE
8
BLACK
6
CONTINUOUS
10
2.2913918897637795
20
1.2286080708661418
11
2.2907532677165352
21
1.2281813385826772
0
LINE
8
BLACK
6
CONTINUOUS
10
2.2907532677165352
20
1.2281813385826772
11
2.2899999606299213
21
1.2280314960629921
0
LINE
8
BLACK
6
CONTINUOUS
10
2.2899999606299213
20
1.2280314960629921
11
2.2299999606299212
21
1.2280314960629921
0
LINE
8
BLACK
6
CONTINUOUS
10
2.2299999606299212
20
1.2280314960629921
11
2.2292466535433069
21
1.2281813385826772
0
LINE
8
BLACK
6
CONTINUOUS
10
2.2292466535433069
20
1.2281813385826772
11
2.228608031496063
21
1.2286080708661418
0
LINE
8
BLACK
6
CONTINUOUS
10
2.228608031496063
20
1.2286080708661418
11
2.2281812992125984
21
1.2292466929133858
0
LINE
8
BLACK
6
CONTINUOUS
10
2.2281812992125984
20
1.2292466929133858
11
2.2280314566929134
21
1.23
0
LINE
8
BLACK
6
CONTINUOUS
10
2.2280314566929134
20
1.23
11
2.2280314566929134
21
1.29
0
LINE
8
BLACK
6
CONTINUOUS
10
2.2280314566929134
20
1.29
11
2.2281812992125984
21
1.2907533070866142
0
LINE
8
BLACK
6
CONTINUOUS
10
2.2281812992125984
20
1.2907533070866142
11
2.228608031496063
21
1.2913919291338583
0
LINE
8
BLACK
6
CONTINUOUS
10
2.228608031496063
20
1.2913919291338583
11
2.2292466535433069
21
1.2918186614173228
0
LINE
8
BLACK
6
CONTINUOUS
10
2.2292466535433069
20
1.2918186614173228
11
2.2299999606299212
21
1.2919685039370079
0
LINE
8
BLACK
6
CONTINUOUS
10
2.2299999606299212
20
1.2919685039370079
11
2.2899999606299213
21
1.2919685039370079
0
LINE
8
BLACK
6
CONTINUOUS
10
2.2899999606299213
20
1.2919685039370079
11
2.2907532677165352
21
1.2918186614173228
0
LINE
8
BLACK
6
CONTINUOUS
10
2.3907533464566928
20
1.2918186614173228
11
2.3913919685039371
21
1.2913919291338583
0
LINE
8
BLACK
6
CONTINUOUS
10
2.3913919685039371
20
1.2913919291338583
11
2.3918187007874017
21
1.2907533070866142
0
LINE
8
BLACK
6
CONTINUOUS
10
2.3918187007874017
20
1.2907533070866142
11
2.3919685433070867
21
1.29
0
LINE
8
BLACK
6
CONTINUOUS
10
2.3919685433070867
20
1.29
11
2.3919685433070867
21
1.23
0
LINE
8
BLACK
6
CONTINUOUS
10
2.3919685433070867
20
1.23
11
2.3918187007874017
21
1.2292466929133858
0
LINE
8
BLACK
6
CONTINUOUS
10
2.3918187007874017
20
1.2292466929133858
11
2.3913919685039371
21
1.2286080708661418
0
LINE
8
BLACK
6
CONTINUOUS
10
2.3913919685039371
20
1.2286080708661418
11
2.3907533464566928
21
1.2281813385826772
0
LINE
8
BLACK
6
CONTINUOUS
10
2.3907533464566928
20
1.2281813385826772
11
2.3900000393700789
21
1.2280314960629921
0
LINE
8
BLACK
6
CONTINUOUS
10
2.3900000393700789
20
1.2280314960629921
11
2.3300000393700788
21
1.2280314960629921
0
LINE
8
BLACK
6
CONTINUOUS
10
2.3300000393700788
20
1.2280314960629921
11
2.3292467322834645
21
1.2281813385826772
0
LINE
8
BLACK
6
CONTINUOUS
10
2.3292467322834645
20
1.2281813385826772
11
2.3286081102362206
21
1.2286080708661418
0
LINE
8
BLACK
6
CONTINUOUS
10
2.3286081102362206
20
1.2286080708661418
11
2.328181377952756
21
1.2292466929133858
0
LINE
8
BLACK
6
CONTINUOUS
10
2.328181377952756
20
1.2292466929133858
11
2.328031535433071
21
1.23
0
LINE
8
BLACK
6
CONTINUOUS
10
2.328031535433071
20
1.23
11
2.328031535433071
21
1.29
0
LINE
8
BLACK
6
CONTINUOUS
10
2.328031535433071
20
1.29
11
2.328181377952756
21
1.2907533070866142
0
LINE
8
BLACK
6
CONTINUOUS
10
2.328181377952756
20
1.2907533070866142
11
2.3286081102362206
21
1.2913919291338583
0
LINE
8
BLACK
6
CONTINUOUS
10
2.3286081102362206
20
1.2913919291338583
11
2.3292467322834645
21
1.2918186614173228
0
LINE
8
BLACK
6
CONTINUOUS
10
2.3292467322834645
20
1.2918186614173228
11
2.3300000393700788
21
1.2919685039370079
0
LINE
8
BLACK
6
CONTINUOUS
10
2.3300000393700788
20
1.2919685039370079
11
2.3900000393700789
21
1.2919685039370079
0
LINE
8
BLACK
6
CONTINUOUS
10
2.3900000393700789
20
1.2919685039370079
11
2.3907533464566928
21
1.2918186614173228
0
LINE
8
BLACK
6
CONTINUOUS
10
1.6507533070866141
20
1.3818186614173229
11
1.6513919291338581
21
1.3813919291338583
0
LINE
8
BLACK
6
CONTINUOUS
10
1.6513919291338581
20
1.3813919291338583
11
1.6518186614173227
21
1.380753307086614
0
LINE
8
BLACK
6
CONTINUOUS
10
1.6518186614173227
20
1.380753307086614
11
1.6519685039370078
21
1.3799999999999999
0
LINE
8
BLACK
6
CONTINUOUS
10
1.6519685039370078
20
1.3799999999999999
11
1.6519685039370078
21
1.3200000000000001
0
LINE
8
BLACK
6
CONTINUOUS
10
1.6519685039370078
20
1.3200000000000001
11
1.6518186614173227
21
1.3192466929133857
0
LINE
8
BLACK
6
CONTINUOUS
10
1.6518186614173227
20
1.3192466929133857
11
1.6513919291338581
21
1.3186080708661416
0
LINE
8
BLACK
6
CONTINUOUS
10
1.6513919291338581
20
1.3186080708661416
11
1.6507533070866141
21
1.3181813385826771
0
LINE
8
BLACK
6
CONTINUOUS
10
1.6507533070866141
20
1.3181813385826771
11
1.6499999999999999
21
1.3180314960629922
0
LINE
8
BLACK
6
CONTINUOUS
10
1.6499999999999999
20
1.3180314960629922
11
1.5899999999999999
21
1.3180314960629922
0
LINE
8
BLACK
6
CONTINUOUS
10
1.5899999999999999
20
1.3180314960629922
11
1.5892466929133857
21
1.3181813385826771
0
LINE
8
BLACK
6
CONTINUOUS
10
1.5892466929133857
20
1.3181813385826771
11
1.5886080708661416
21
1.3186080708661416
0
LINE
8
BLACK
6
CONTINUOUS
10
1.5886080708661416
20
1.3186080708661416
11
1.5881813385826771
21
1.3192466929133857
0
LINE
8
BLACK
6
CONTINUOUS
10
1.5881813385826771
20
1.3192466929133857
11
1.588031496062992
21
1.3200000000000001
0
LINE
8
BLACK
6
CONTINUOUS
10
1.588031496062992
20
1.3200000000000001
11
1.588031496062992
21
1.3799999999999999
0
LINE
8
BLACK
6
CONTINUOUS
10
1.588031496062992
20
1.3799999999999999
11
1.5881813385826771
21
1.380753307086614
0
LINE
8
BLACK
6
CONTINUOUS
10
1.5881813385826771
20
1.380753307086614
11
1.5886080708661416
21
1.3813919291338583
0
LINE
8
BLACK
6
CONTINUOUS
10
1.5886080708661416
20
1.3813919291338583
11
1.5892466929133857
21
1.3818186614173229
0
LINE
8
BLACK
6
CONTINUOUS
10
1.5892466929133857
20
1.3818186614173229
11
1.5899999999999999
21
1.3819685039370078
0
LINE
8
BLACK
6
CONTINUOUS
10
1.5899999999999999
20
1.3819685039370078
11
1.6499999999999999
21
1.3819685039370078
0
LINE
8
BLACK
6
CONTINUOUS
10
1.6499999999999999
20
1.3819685039370078
11
1.6507533070866141
21
1.3818186614173229
0
LINE
8
BLACK
6
CONTINUOUS
10
2.2907532677165352
20
1.3918186614173229
11
2.2913918897637795
21
1.3913919291338583
0
LINE
8
BLACK
6
CONTINUOUS
10
2.2913918897637795
20
1.3913919291338583
11
2.2918186220472441
21
1.390753307086614
0
LINE
8
BLACK
6
CONTINUOUS
10
2.2918186220472441
20
1.390753307086614
11
2.2919684645669292
21
1.3899999999999999
0
LINE
8
BLACK
6
CONTINUOUS
10
2.2919684645669292
20
1.3899999999999999
11
2.2919684645669292
21
1.3300000000000001
0
LINE
8
BLACK
6
CONTINUOUS
10
2.2919684645669292
20
1.3300000000000001
11
2.2918186220472441
21
1.3292466929133857
0
LINE
8
BLACK
6
CONTINUOUS
10
2.2918186220472441
20
1.3292466929133857
11
2.2913918897637795
21
1.3286080708661416
0
LINE
8
BLACK
6
CONTINUOUS
10
2.2913918897637795
20
1.3286080708661416
11
2.2907532677165352
21
1.3281813385826771
0
LINE
8
BLACK
6
CONTINUOUS
10
2.2907532677165352
20
1.3281813385826771
11
2.2899999606299213
21
1.3280314960629922
0
LINE
8
BLACK
6
CONTINUOUS
10
2.2899999606299213
20
1.3280314960629922
11
2.2299999606299212
21
1.3280314960629922
0
LINE
8
BLACK
6
CONTINUOUS
10
2.2299999606299212
20
1.3280314960629922
11
2.2292466535433069
21
1.3281813385826771
0
LINE
8
BLACK
6
CONTINUOUS
10
2.2292466535433069
20
1.3281813385826771
11
2.228608031496063
21
1.3286080708661416
0
LINE
8
BLACK
6
CONTINUOUS
10
2.228608031496063
20
1.3286080708661416
11
2.2281812992125984
21
1.3292466929133857
0
LINE
8
BLACK
6
CONTINUOUS
10
2.2281812992125984
20
1.3292466929133857
11
2.2280314566929134
21
1.3300000000000001
0
LINE
8
BLACK
6
CONTINUOUS
10
2.2280314566929134
20
1.3300000000000001
11
2.2280314566929134
21
1.3899999999999999
0
LINE
8
BLACK
6
CONTINUOUS
10
2.2280314566929134
20
1.3899999999999999
11
2.2281812992125984
21
1.390753307086614
0
LINE
8
BLACK
6
CONTINUOUS
10
2.2281812992125984
20
1.390753307086614
11
2.228608031496063
21
1.3913919291338583
0
LINE
8
BLACK
6
CONTINUOUS
10
2.228608031496063
20
1.3913919291338583
11
2.2292466535433069
21
1.3918186614173229
0
LINE
8
BLACK
6
CONTINUOUS
10
2.2292466535433069
20
1.3918186614173229
11
2.2299999606299212
21
1.3919685039370078
0
LINE
8
BLACK
6
CONTINUOUS
10
2.2299999606299212
20
1.3919685039370078
11
2.2899999606299213
21
1.3919685039370078
0
LINE
8
BLACK
6
CONTINUOUS
10
2.2899999606299213
20
1.3919685039370078
11
2.2907532677165352
21
1.3918186614173229
0
LINE
8
BLACK
6
CONTINUOUS
10
2.3907533464566928
20
1.3918186614173229
11
2.3913919685039371
21
1.3913919291338583
0
LINE
8
BLACK
6
CONTINUOUS
10
2.3913919685039371
20
1.3913919291338583
11
2.3918187007874017
21
1.390753307086614
0
LINE
8
BLACK
6
CONTINUOUS
10
2.3918187007874017
20
1.390753307086614
11
2.3919685433070867
21
1.3899999999999999
0
LINE
8
BLACK
6
CONTINUOUS
10
2.3919685433070867
20
1.3899999999999999
11
2.3919685433070867
21
1.3300000000000001
0
LINE
8
BLACK
6
CONTINUOUS
10
2.3919685433070867
20
1.3300000000000001
11
2.3918187007874017
21
1.3292466929133857
0
LINE
8
BLACK
6
CONTINUOUS
10
2.3918187007874017
20
1.3292466929133857
11
2.3913919685039371
21
1.3286080708661416
0
LINE
8
BLACK
6
CONTINUOUS
10
2.3913919685039371
20
1.3286080708661416
11
2.3907533464566928
21
1.3281813385826771
0
LINE
8
BLACK
6
CONTINUOUS
10
2.3907533464566928
20
1.3281813385826771
11
2.3900000393700789
21
1.3280314960629922
0
LINE
8
BLACK
6
CONTINUOUS
10
2.3900000393700789
20
1.3280314960629922
11
2.3300000393700788
21
1.3280314960629922
0
LINE
8
BLACK
6
CONTINUOUS
10
2.3300000393700788
20
1.3280314960629922
11
2.3292467322834645
21
1.3281813385826771
0
LINE
8
BLACK
6
CONTINUOUS
10
2.3292467322834645
20
1.3281813385826771
11
2.3286081102362206
21
1.3286080708661416
0
LINE
8
BLACK
6
CONTINUOUS
10
2.3286081102362206
20
1.3286080708661416
11
2.328181377952756
21
1.3292466929133857
0
LINE
8
BLACK
6
CONTINUOUS
10
2.328181377952756
20
1.3292466929133857
11
2.328031535433071
21
1.3300000000000001
0
LINE
8
BLACK
6
CONTINUOUS
10
2.328031535433071
20
1.3300000000000001
11
2.328031535433071
21
1.3899999999999999
0
LINE
8
BLACK
6
CONTINUOUS
10
2.328031535433071
20
1.3899999999999999
11
2.328181377952756
21
1.390753307086614
0
LINE
8
BLACK
6
CONTINUOUS
10
2.328181377952756
20
1.390753307086614
11
2.3286081102362206
21
1.3913919291338583
0
LINE
8
BLACK
6
CONTINUOUS
10
2.3286081102362206
20
1.3913919291338583
11
2.3292467322834645
21
1.3918186614173229
0
LINE
8
BLACK
6
CONTINUOUS
10
2.3292467322834645
20
1.3918186614173229
11
2.3300000393700788
21
1.3919685039370078
0
LINE
8
BLACK
6
CONTINUOUS
10
2.3300000393700788
20
1.3919685039370078
11
2.3900000393700789
21
1.3919685039370078
0
LINE
8
BLACK
6
CONTINUOUS
10
2.3900000393700789
20
1.3919685039370078
11
2.3907533464566928
21
1.3918186614173229
0
LINE
8
BLACK
6
CONTINUOUS
10
0.420113937007874
20
1.7183821653543307
11
0.4332420472440945
21
1.715385748031496
0
LINE
8
BLACK
6
CONTINUOUS
10
0.4332420472440945
20
1.715385748031496
11
0.4459521259842519
21
1.7109383070866142
0
LINE
8
BLACK
6
CONTINUOUS
10
0.4459521259842519
20
1.7109383070866142
11
0.4580843700787401
21
1.7050957086614174
0
LINE
8
BLACK
6
CONTINUOUS
10
0.4580843700787401
20
1.7050957086614174
11
0.4694861023622047
21
1.6979315354330708
0
LINE
8
BLACK
6
CONTINUOUS
10
0.4694861023622047
20
1.6979315354330708
11
0.4800140551181102
21
1.6895357874015748
0
LINE
8
BLACK
6
CONTINUOUS
10
0.4800140551181102
20
1.6895357874015748
11
0.4895357874015748
21
1.6800140551181102
0
LINE
8
BLACK
6
CONTINUOUS
10
0.4895357874015748
20
1.6800140551181102
11
0.4979315354330708
21
1.6694861023622047
0
LINE
8
BLACK
6
CONTINUOUS
10
0.4979315354330708
20
1.6694861023622047
11
0.5050957086614173
21
1.6580843700787402
0
LINE
8
BLACK
6
CONTINUOUS
10
0.5050957086614173
20
1.6580843700787402
11
0.5109383070866141
21
1.645952125984252
0
LINE
8
BLACK
6
CONTINUOUS
10
0.5109383070866141
20
1.645952125984252
11
0.5153857480314961
21
1.6332420472440945
0
LINE
8
BLACK
6
CONTINUOUS
10
0.5153857480314961
20
1.6332420472440945
11
0.5183821653543307
21
1.6201139370078739
0
LINE
8
BLACK
6
CONTINUOUS
10
0.5183821653543307
20
1.6201139370078739
11
0.5198898425196851
21
1.606732874015748
0
LINE
8
BLACK
6
CONTINUOUS
10
0.5198898425196851
20
1.606732874015748
11
0.5198898425196851
21
1.5932671259842519
0
LINE
8
BLACK
6
CONTINUOUS
10
0.5198898425196851
20
1.5932671259842519
11
0.5183821653543307
21
1.5798860629921259
0
LINE
8
BLACK
6
CONTINUOUS
10
0.5183821653543307
20
1.5798860629921259
11
0.5153857480314961
21
1.5667579527559055
0
LINE
8
BLACK
6
CONTINUOUS
10
0.5153857480314961
20
1.5667579527559055
11
0.5109383070866141
21
1.554047874015748
0
LINE
8
BLACK
6
CONTINUOUS
10
0.5109383070866141
20
1.554047874015748
11
0.5050957086614173
21
1.5419156299212597
0
LINE
8
BLACK
6
CONTINUOUS
10
0.5050957086614173
20
1.5419156299212597
11
0.4979315354330708
21
1.5305138976377952
0
LINE
8
BLACK
6
CONTINUOUS
10
0.4979315354330708
20
1.5305138976377952
11
0.4895357874015748
21
1.5199859448818898
0
LINE
8
BLACK
6
CONTINUOUS
10
0.4895357874015748
20
1.5199859448818898
11
0.4800140551181102
21
1.5104642125984251
0
LINE
8
BLACK
6
CONTINUOUS
10
0.4800140551181102
20
1.5104642125984251
11
0.4694861023622047
21
1.5020684645669291
0
LINE
8
BLACK
6
CONTINUOUS
10
0.4694861023622047
20
1.5020684645669291
11
0.4580843700787401
21
1.4949042913385826
0
LINE
8
BLACK
6
CONTINUOUS
10
0.4580843700787401
20
1.4949042913385826
11
0.4459521259842519
21
1.4890616929133857
0
LINE
8
BLACK
6
CONTINUOUS
10
0.4459521259842519
20
1.4890616929133857
11
0.4332420472440945
21
1.4846142519685039
0
LINE
8
BLACK
6
CONTINUOUS
10
0.4332420472440945
20
1.4846142519685039
11
0.420113937007874
21
1.4816178346456692
0
LINE
8
BLACK
6
CONTINUOUS
10
0.420113937007874
20
1.4816178346456692
11
0.406732874015748
21
1.4801101574803148
0
LINE
8
BLACK
6
CONTINUOUS
10
0.406732874015748
20
1.4801101574803148
11
0.393267125984252
21
1.4801101574803148
0
LINE
8
BLACK
6
CONTINUOUS
10
0.393267125984252
20
1.4801101574803148
11
0.379886062992126
21
1.4816178346456692
0
LINE
8
BLACK
6
CONTINUOUS
10
0.379886062992126
20
1.4816178346456692
11
0.3667579527559055
21
1.4846142519685039
0
LINE
8
BLACK
6
CONTINUOUS
10
0.3667579527559055
20
1.4846142519685039
11
0.354047874015748
21
1.4890616929133857
0
LINE
8
BLACK
6
CONTINUOUS
10
0.354047874015748
20
1.4890616929133857
11
0.3419156299212598
21
1.4949042913385826
0
LINE
8
BLACK
6
CONTINUOUS
10
0.3419156299212598
20
1.4949042913385826
11
0.3305138976377953
21
1.5020684645669291
0
LINE
8
BLACK
6
CONTINUOUS
10
0.3305138976377953
20
1.5020684645669291
11
0.3199859448818898
21
1.5104642125984251
0
LINE
8
BLACK
6
CONTINUOUS
10
0.3199859448818898
20
1.5104642125984251
11
0.3104642125984252
21
1.5199859448818898
0
LINE
8
BLACK
6
CONTINUOUS
10
0.3104642125984252
20
1.5199859448818898
11
0.3020684645669292
21
1.5305138976377952
0
LINE
8
BLACK
6
CONTINUOUS
10
0.3020684645669292
20
1.5305138976377952
11
0.2949042913385826
21
1.5419156299212597
0
LINE
8
BLACK
6
CONTINUOUS
10
0.2949042913385826
20
1.5419156299212597
11
0.2890616929133858
21
1.554047874015748
0
LINE
8
BLACK
6
CONTINUOUS
10
0.2890616929133858
20
1.554047874015748
11
0.2846142519685039
21
1.5667579527559055
0
LINE
8
BLACK
6
CONTINUOUS
10
0.2846142519685039
20
1.5667579527559055
11
0.2816178346456693
21
1.5798860629921259
0
LINE
8
BLACK
6
CONTINUOUS
10
0.2816178346456693
20
1.5798860629921259
11
0.280110157480315
21
1.5932671259842519
0
LINE
8
BLACK
6
CONTINUOUS
10
0.280110157480315
20
1.5932671259842519
11
0.280110157480315
21
1.606732874015748
0
LINE
8
BLACK
6
CONTINUOUS
10
0.280110157480315
20
1.606732874015748
11
0.2816178346456693
21
1.6201139370078739
0
LINE
8
BLACK
6
CONTINUOUS
10
0.2816178346456693
20
1.6201139370078739
11
0.2846142519685039
21
1.6332420472440945
0
LINE
8
BLACK
6
CONTINUOUS
10
0.2846142519685039
20
1.6332420472440945
11
0.2890616929133858
21
1.645952125984252
0
LINE
8
BLACK
6
CONTINUOUS
10
0.2890616929133858
20
1.645952125984252
11
0.2949042913385826
21
1.6580843700787402
0
LINE
8
BLACK
6
CONTINUOUS
10
0.2949042913385826
20
1.6580843700787402
11
0.3020684645669292
21
1.6694861023622047
0
LINE
8
BLACK
6
CONTINUOUS
10
0.3020684645669292
20
1.6694861023622047
11
0.3104642125984252
21
1.6800140551181102
0
LINE
8
BLACK
6
CONTINUOUS
10
0.3104642125984252
20
1.6800140551181102
11
0.3199859448818898
21
1.6895357874015748
0
LINE
8
BLACK
6
CONTINUOUS
10
0.3199859448818898
20
1.6895357874015748
11
0.3305138976377953
21
1.6979315354330708
0
LINE
8
BLACK
6
CONTINUOUS
10
0.3305138976377953
20
1.6979315354330708
11
0.3419156299212598
21
1.7050957086614174
0
LINE
8
BLACK
6
CONTINUOUS
10
0.3419156299212598
20
1.7050957086614174
11
0.354047874015748
21
1.7109383070866142
0
LINE
8
BLACK
6
CONTINUOUS
10
0.354047874015748
20
1.7109383070866142
11
0.3667579527559055
21
1.715385748031496
0
LINE
8
BLACK
6
CONTINUOUS
10
0.3667579527559055
20
1.715385748031496
11
0.379886062992126
21
1.7183821653543307
0
LINE
8
BLACK
6
CONTINUOUS
10
0.379886062992126
20
1.7183821653543307
11
0.393267125984252
21
1.7198898425196849
0
LINE
8
BLACK
6
CONTINUOUS
10
0.393267125984252
20
1.7198898425196849
11
0.406732874015748
21
1.7198898425196849
0
LINE
8
BLACK
6
CONTINUOUS
10
0.406732874015748
20
1.7198898425196849
11
0.420113937007874
21
1.7183821653543307
0
LINE
8
BLACK
6
CONTINUOUS
10
2.4201139370078741
20
1.7183821653543307
11
2.4332420472440943
21
1.715385748031496
0
LINE
8
BLACK
6
CONTINUOUS
10
2.4332420472440943
20
1.715385748031496
11
2.445952125984252
21
1.7109383070866142
0
LINE
8
BLACK
6
CONTINUOUS
10
2.445952125984252
20
1.7109383070866142
11
2.45808437007874
21
1.7050957086614174
0
LINE
8
BLACK
6
CONTINUOUS
10
2.45808437007874
20
1.7050957086614174
11
2.4694861023622048
21
1.6979315354330708
0
LINE
8
BLACK
6
CONTINUOUS
10
2.4694861023622048
20
1.6979315354330708
11
2.4800140551181102
21
1.6895357874015748
0
LINE
8
BLACK
6
CONTINUOUS
10
2.4800140551181102
20
1.6895357874015748
11
2.4895357874015747
21
1.6800140551181102
0
LINE
8
BLACK
6
CONTINUOUS
10
2.4895357874015747
20
1.6800140551181102
11
2.4979315354330707
21
1.6694861023622047
0
LINE
8
BLACK
6
CONTINUOUS
10
2.4979315354330707
20
1.6694861023622047
11
2.5050957086614174
21
1.6580843700787402
0
LINE
8
BLACK
6
CONTINUOUS
10
2.5050957086614174
20
1.6580843700787402
11
2.5109383070866143
21
1.645952125984252
0
LINE
8
BLACK
6
CONTINUOUS
10
2.5109383070866143
20
1.645952125984252
11
2.5153857480314961
21
1.6332420472440945
0
LINE
8
BLACK
6
CONTINUOUS
10
2.5153857480314961
20
1.6332420472440945
11
2.5183821653543306
21
1.6201139370078739
0
LINE
8
BLACK
6
CONTINUOUS
10
2.5183821653543306
20
1.6201139370078739
11
2.5198898425196852
21
1.606732874015748
0
LINE
8
BLACK
6
CONTINUOUS
10
2.5198898425196852
20
1.606732874015748
11
2.5198898425196852
21
1.5932671259842519
0
LINE
8
BLACK
6
CONTINUOUS
10
2.5198898425196852
20
1.5932671259842519
11
2.5183821653543306
21
1.5798860629921259
0
LINE
8
BLACK
6
CONTINUOUS
10
2.5183821653543306
20
1.5798860629921259
11
2.5153857480314961
21
1.5667579527559055
0
LINE
8
BLACK
6
CONTINUOUS
10
2.5153857480314961
20
1.5667579527559055
11
2.5109383070866143
21
1.554047874015748
0
LINE
8
BLACK
6
CONTINUOUS
10
2.5109383070866143
20
1.554047874015748
11
2.5050957086614174
21
1.5419156299212597
0
LINE
8
BLACK
6
CONTINUOUS
10
2.5050957086614174
20
1.5419156299212597
11
2.4979315354330707
21
1.5305138976377952
0
LINE
8
BLACK
6
CONTINUOUS
10
2.4979315354330707
20
1.5305138976377952
11
2.4895357874015747
21
1.5199859448818898
0
LINE
8
BLACK
6
CONTINUOUS
10
2.4895357874015747
20
1.5199859448818898
11
2.4800140551181102
21
1.5104642125984251
0
LINE
8
BLACK
6
CONTINUOUS
10
2.4800140551181102
20
1.5104642125984251
11
2.4694861023622048
21
1.5020684645669291
0
LINE
8
BLACK
6
CONTINUOUS
10
2.4694861023622048
20
1.5020684645669291
11
2.45808437007874
21
1.4949042913385826
0
LINE
8
BLACK
6
CONTINUOUS
10
2.45808437007874
20
1.4949042913385826
11
2.445952125984252
21
1.4890616929133857
0
LINE
8
BLACK
6
CONTINUOUS
10
2.445952125984252
20
1.4890616929133857
11
2.4332420472440943
21
1.4846142519685039
0
LINE
8
BLACK
6
CONTINUOUS
10
2.4332420472440943
20
1.4846142519685039
11
2.4201139370078741
21
1.4816178346456692
0
LINE
8
BLACK
6
CONTINUOUS
10
2.4201139370078741
20
1.4816178346456692
11
2.4067328740157481
21
1.4801101574803148
0
LINE
8
BLACK
6
CONTINUOUS
10
2.4067328740157481
20
1.4801101574803148
11
2.3932671259842517
21
1.4801101574803148
0
LINE
8
BLACK
6
CONTINUOUS
10
2.3932671259842517
20
1.4801101574803148
11
2.3798860629921261
21
1.4816178346456692
0
LINE
8
BLACK
6
CONTINUOUS
10
2.3798860629921261
20
1.4816178346456692
11
2.3667579527559055
21
1.4846142519685039
0
LINE
8
BLACK
6
CONTINUOUS
10
2.3667579527559055
20
1.4846142519685039
11
2.3540478740157478
21
1.4890616929133857
0
LINE
8
BLACK
6
CONTINUOUS
10
2.3540478740157478
20
1.4890616929133857
11
2.3419156299212598
21
1.4949042913385826
0
LINE
8
BLACK
6
CONTINUOUS
10
2.3419156299212598
20
1.4949042913385826
11
2.330513897637795
21
1.5020684645669291
0
LINE
8
BLACK
6
CONTINUOUS
10
2.330513897637795
20
1.5020684645669291
11
2.3199859448818896
21
1.5104642125984251
0
LINE
8
BLACK
6
CONTINUOUS
10
2.3199859448818896
20
1.5104642125984251
11
2.3104642125984252
21
1.5199859448818898
0
LINE
8
BLACK
6
CONTINUOUS
10
2.3104642125984252
20
1.5199859448818898
11
2.3020684645669292
21
1.5305138976377952
0
LINE
8
BLACK
6
CONTINUOUS
10
2.3020684645669292
20
1.5305138976377952
11
2.2949042913385824
21
1.5419156299212597
0
LINE
8
BLACK
6
CONTINUOUS
10
2.2949042913385824
20
1.5419156299212597
11
2.2890616929133856
21
1.554047874015748
0
LINE
8
BLACK
6
CONTINUOUS
10
2.2890616929133856
20
1.554047874015748
11
2.2846142519685038
21
1.5667579527559055
0
LINE
8
BLACK
6
CONTINUOUS
10
2.2846142519685038
20
1.5667579527559055
11
2.2816178346456693
21
1.5798860629921259
0
LINE
8
BLACK
6
CONTINUOUS
10
2.2816178346456693
20
1.5798860629921259
11
2.2801101574803151
21
1.5932671259842519
0
LINE
8
BLACK
6
CONTINUOUS
10
2.2801101574803151
20
1.5932671259842519
11
2.2801101574803151
21
1.606732874015748
0
LINE
8
BLACK
6
CONTINUOUS
10
2.2801101574803151
20
1.606732874015748
11
2.2816178346456693
21
1.6201139370078739
0
LINE
8
BLACK
6
CONTINUOUS
10
2.2816178346456693
20
1.6201139370078739
11
2.2846142519685038
21
1.6332420472440945
0
LINE
8
BLACK
6
CONTINUOUS
10
2.2846142519685038
20
1.6332420472440945
11
2.2890616929133856
21
1.645952125984252
0
LINE
8
BLACK
6
CONTINUOUS
10
2.2890616929133856
20
1.645952125984252
11
2.2949042913385824
21
1.6580843700787402
0
LINE
8
BLACK
6
CONTINUOUS
10
2.2949042913385824
20
1.6580843700787402
11
2.3020684645669292
21
1.6694861023622047
0
LINE
8
BLACK
6
CONTINUOUS
10
2.3020684645669292
20
1.6694861023622047
11
2.3104642125984252
21
1.6800140551181102
0
LINE
8
BLACK
6
CONTINUOUS
10
2.3104642125984252
20
1.6800140551181102
11
2.3199859448818896
21
1.6895357874015748
0
LINE
8
BLACK
6
CONTINUOUS
10
2.3199859448818896
20
1.6895357874015748
11
2.330513897637795
21
1.6979315354330708
0
LINE
8
BLACK
6
CONTINUOUS
10
2.330513897637795
20
1.6979315354330708
11
2.3419156299212598
21
1.7050957086614174
0
LINE
8
BLACK
6
CONTINUOUS
10
2.3419156299212598
20
1.7050957086614174
11
2.3540478740157478
21
1.7109383070866142
0
LINE
8
BLACK
6
CONTINUOUS
10
2.3540478740157478
20
1.7109383070866142
11
2.3667579527559055
21
1.715385748031496
0
LINE
8
BLACK
6
CONTINUOUS
10
2.3667579527559055
20
1.715385748031496
11
2.3798860629921261
21
1.7183821653543307
0
LINE
8
BLACK
6
CONTINUOUS
10
2.3798860629921261
20
1.7183821653543307
11
2.3932671259842517
21
1.7198898425196849
0
LINE
8
BLACK
6
CONTINUOUS
10
2.3932671259842517
20
1.7198898425196849
11
2.4067328740157481
21
1.7198898425196849
0
LINE
8
BLACK
6
CONTINUOUS
10
2.4067328740157481
20
1.7198898425196849
11
2.4201139370078741
21
1.7183821653543307
  0
ENDSEC
  0
EOF
