  0
SECTION
  2
HEADER
  9
$ANGBASE
  50
0.0
  9
$ANGDIR
  70
1
  9
$MEASUREMENT
  70
0
  0
ENDSEC
  0
SECTION
  2
TABLES
  0
TABLE
  2
LTYPE
  70
4
  0
LTYPE
  5
40F
  2
CONTINUOUS
  70
0
  3
Solid line
  72
65
  73
0
  40
0.0
  0
LTYPE
  5
410
  2
DASHDOT
 70
0
  3
Dash Dot ____ _ ____ _
 72
65
 73
4
 40
2.0
 49
1.25
 49
-0.25
 49
0.25
 49
-0.25
  0
LTYPE
  5
411
  2
DASHED
 70
0
  3
Dashed __ __ __ __ __
 72
65
 73
2
 40
0.75
 49
0.5
 49
-0.25
  0
LTYPE
  5
43B
  2
DOTTED
 70
0
  3
Dotted .  .  .  .
 72
65
 73
2
 40
0.2
 49
0.0
 49
-0.2
  0
ENDTAB
  0
TABLE
  2
STYLE
  70
4
  0
STYLE
  2
KICAD
  70
0
  40
0
  41
1
  42
1
  50
0
  71
0
  3
isocp.shx
  0
STYLE
  2
KICADB
  70
0
  40
0
  41
1
  42
1
  50
0
  71
0
  3
isocp.shx
  0
STYLE
  2
KICADI
  70
0
  40
0
  41
1
  42
1
  50
15
  71
0
  3
isocp.shx
  0
STYLE
  2
KICADBI
  70
0
  40
0
  41
1
  42
1
  50
15
  71
0
  3
isocp.shx
  0
ENDTAB
  0
TABLE
  2
LAYER
  70
1
  0
LAYER
  2
BLACK
  70
0
  62
7
  6
CONTINUOUS
  0
ENDTAB
  0
ENDSEC
  0
SECTION
  2
ENTITIES
0
LINE
8
BLACK
6
CONTINUOUS
10
0.3954488188976378
20
-0.6243228346456693
11
0.3354488188976378
21
-0.6243228346456693
0
LINE
8
BLACK
6
CONTINUOUS
10
0.3354488188976378
20
-0.6243228346456693
11
0.3354488188976378
21
-0.5643228346456692
0
LINE
8
BLACK
6
CONTINUOUS
10
0.3354488188976378
20
-0.5643228346456692
11
0.3954488188976378
21
-0.5643228346456692
0
LINE
8
BLACK
6
CONTINUOUS
10
0.3954488188976378
20
-0.5643228346456692
11
0.3954488188976378
21
-0.6243228346456693
0
LINE
8
BLACK
6
CONTINUOUS
10
0.4954488188976378
20
-0.6243228346456693
11
0.4354488188976378
21
-0.6243228346456693
0
LINE
8
BLACK
6
CONTINUOUS
10
0.4354488188976378
20
-0.6243228346456693
11
0.4354488188976378
21
-0.5643228346456692
0
LINE
8
BLACK
6
CONTINUOUS
10
0.4354488188976378
20
-0.5643228346456692
11
0.4954488188976378
21
-0.5643228346456692
0
LINE
8
BLACK
6
CONTINUOUS
10
0.4954488188976378
20
-0.5643228346456692
11
0.4954488188976378
21
-0.6243228346456693
0
LINE
8
BLACK
6
CONTINUOUS
10
0.5954488188976378
20
-0.6243228346456693
11
0.5354488188976377
21
-0.6243228346456693
0
LINE
8
BLACK
6
CONTINUOUS
10
0.5354488188976377
20
-0.6243228346456693
11
0.5354488188976377
21
-0.5643228346456692
0
LINE
8
BLACK
6
CONTINUOUS
10
0.5354488188976377
20
-0.5643228346456692
11
0.5954488188976378
21
-0.5643228346456692
0
LINE
8
BLACK
6
CONTINUOUS
10
0.5954488188976378
20
-0.5643228346456692
11
0.5954488188976378
21
-0.6243228346456693
0
LINE
8
BLACK
6
CONTINUOUS
10
0.3954488188976378
20
-0.5243228346456693
11
0.3354488188976378
21
-0.5243228346456693
0
LINE
8
BLACK
6
CONTINUOUS
10
0.3354488188976378
20
-0.5243228346456693
11
0.3354488188976378
21
-0.4643228346456693
0
LINE
8
BLACK
6
CONTINUOUS
10
0.3354488188976378
20
-0.4643228346456693
11
0.3954488188976378
21
-0.4643228346456693
0
LINE
8
BLACK
6
CONTINUOUS
10
0.3954488188976378
20
-0.4643228346456693
11
0.3954488188976378
21
-0.5243228346456693
0
LINE
8
BLACK
6
CONTINUOUS
10
0.4954488188976378
20
-0.5243228346456693
11
0.4354488188976378
21
-0.5243228346456693
0
LINE
8
BLACK
6
CONTINUOUS
10
0.4354488188976378
20
-0.5243228346456693
11
0.4354488188976378
21
-0.4643228346456693
0
LINE
8
BLACK
6
CONTINUOUS
10
0.4354488188976378
20
-0.4643228346456693
11
0.4954488188976378
21
-0.4643228346456693
0
LINE
8
BLACK
6
CONTINUOUS
10
0.4954488188976378
20
-0.4643228346456693
11
0.4954488188976378
21
-0.5243228346456693
0
LINE
8
BLACK
6
CONTINUOUS
10
0.5954488188976378
20
-0.5243228346456693
11
0.5354488188976377
21
-0.5243228346456693
0
LINE
8
BLACK
6
CONTINUOUS
10
0.5354488188976377
20
-0.5243228346456693
11
0.5354488188976377
21
-0.4643228346456693
0
LINE
8
BLACK
6
CONTINUOUS
10
0.5354488188976377
20
-0.4643228346456693
11
0.5954488188976378
21
-0.4643228346456693
0
LINE
8
BLACK
6
CONTINUOUS
10
0.5954488188976378
20
-0.4643228346456693
11
0.5954488188976378
21
-0.5243228346456693
0
LINE
8
BLACK
6
CONTINUOUS
10
-0.7230033858267716
20
-0.4718476771653543
11
-0.7519845669291338
21
-0.4885799606299213
0
LINE
8
BLACK
6
CONTINUOUS
10
-0.7519845669291338
20
-0.4885799606299213
11
-0.7746223622047244
21
-0.4493701181102362
0
LINE
8
BLACK
6
CONTINUOUS
10
-0.7746223622047244
20
-0.4493701181102362
11
-0.7456411811023622
21
-0.4326378346456693
0
LINE
8
BLACK
6
CONTINUOUS
10
-0.7456411811023622
20
-0.4326378346456693
11
-0.7230033858267716
21
-0.4718476771653543
0
LINE
8
BLACK
6
CONTINUOUS
10
-0.6800431102362204
20
-0.4470445275590551
11
-0.7131157086614173
21
-0.4661390157480315
0
LINE
8
BLACK
6
CONTINUOUS
10
-0.7131157086614173
20
-0.4661390157480315
11
-0.7357535039370079
21
-0.4269291732283464
0
LINE
8
BLACK
6
CONTINUOUS
10
-0.7357535039370079
20
-0.4269291732283464
11
-0.7026809055118111
21
-0.4078346850393701
0
LINE
8
BLACK
6
CONTINUOUS
10
-0.7026809055118111
20
-0.4078346850393701
11
-0.6800431102362204
21
-0.4470445275590551
0
LINE
8
BLACK
6
CONTINUOUS
10
-0.7515466929133858
20
-0.4224092125984252
11
-0.780527874015748
21
-0.4391414960629921
0
LINE
8
BLACK
6
CONTINUOUS
10
-0.780527874015748
20
-0.4391414960629921
11
-0.7992286614173228
21
-0.4067507874015748
0
LINE
8
BLACK
6
CONTINUOUS
10
-0.7992286614173228
20
-0.4067507874015748
11
-0.7702474803149606
21
-0.3900185039370079
0
LINE
8
BLACK
6
CONTINUOUS
10
-0.7702474803149606
20
-0.3900185039370079
11
-0.7515466929133858
21
-0.4224092125984252
0
LINE
8
BLACK
6
CONTINUOUS
10
-0.7085864173228347
20
-0.397606062992126
11
-0.7416590157480315
21
-0.4167005511811023
0
LINE
8
BLACK
6
CONTINUOUS
10
-0.7416590157480315
20
-0.4167005511811023
11
-0.7603598031496063
21
-0.384309842519685
0
LINE
8
BLACK
6
CONTINUOUS
10
-0.7603598031496063
20
-0.384309842519685
11
-0.7272872047244094
21
-0.3652153543307087
0
LINE
8
BLACK
6
CONTINUOUS
10
-0.7272872047244094
20
-0.3652153543307087
11
-0.7085864173228347
21
-0.397606062992126
0
LINE
8
BLACK
6
CONTINUOUS
10
-0.579235905511811
20
0.2090834645669291
11
-0.5947211023622047
21
0.1665383464566929
0
LINE
8
BLACK
6
CONTINUOUS
10
-0.5947211023622047
20
0.1665383464566929
11
-0.6306070078740157
21
0.1795997637795275
0
LINE
8
BLACK
6
CONTINUOUS
10
-0.6306070078740157
20
0.1795997637795275
11
-0.6151218110236221
21
0.2221448818897638
0
LINE
8
BLACK
6
CONTINUOUS
10
-0.6151218110236221
20
0.2221448818897638
11
-0.579235905511811
21
0.2090834645669291
0
LINE
8
BLACK
6
CONTINUOUS
10
-0.6258505905511811
20
0.226049842519685
11
-0.6413357480314961
21
0.1835046850393701
0
LINE
8
BLACK
6
CONTINUOUS
10
-0.6413357480314961
20
0.1835046850393701
11
-0.6727821653543307
21
0.1949502362204724
0
LINE
8
BLACK
6
CONTINUOUS
10
-0.6727821653543307
20
0.1949502362204724
11
-0.6572970078740157
21
0.2374953937007874
0
LINE
8
BLACK
6
CONTINUOUS
10
-0.6572970078740157
20
0.2374953937007874
11
-0.6258505905511811
21
0.226049842519685
0
LINE
8
BLACK
6
CONTINUOUS
10
-0.562404251968504
20
0.2553281889763779
11
-0.5751963385826772
21
0.2201822047244094
0
LINE
8
BLACK
6
CONTINUOUS
10
-0.5751963385826772
20
0.2201822047244094
11
-0.6110822047244094
21
0.2332436220472441
0
LINE
8
BLACK
6
CONTINUOUS
10
-0.6110822047244094
20
0.2332436220472441
11
-0.5982901181102362
21
0.2683896062992126
0
LINE
8
BLACK
6
CONTINUOUS
10
-0.5982901181102362
20
0.2683896062992126
11
-0.562404251968504
21
0.2553281889763779
0
LINE
8
BLACK
6
CONTINUOUS
10
-0.6090188976377953
20
0.2722945275590551
11
-0.6218109842519685
21
0.2371485433070866
0
LINE
8
BLACK
6
CONTINUOUS
10
-0.6218109842519685
20
0.2371485433070866
11
-0.6532574015748032
21
0.2485941338582677
0
LINE
8
BLACK
6
CONTINUOUS
10
-0.6532574015748032
20
0.2485941338582677
11
-0.6404653149606299
21
0.2837401181102362
0
LINE
8
BLACK
6
CONTINUOUS
10
-0.6404653149606299
20
0.2837401181102362
11
-0.6090188976377953
21
0.2722945275590551
0
LINE
8
BLACK
6
CONTINUOUS
10
0.2683896062992126
20
0.5982901181102362
11
0.2553281889763779
21
0.562404251968504
0
LINE
8
BLACK
6
CONTINUOUS
10
0.2553281889763779
20
0.562404251968504
11
0.2201822047244094
21
0.5751963385826772
0
LINE
8
BLACK
6
CONTINUOUS
10
0.2201822047244094
20
0.5751963385826772
11
0.2332436220472441
21
0.6110822047244094
0
LINE
8
BLACK
6
CONTINUOUS
10
0.2332436220472441
20
0.6110822047244094
11
0.2683896062992126
21
0.5982901181102362
0
LINE
8
BLACK
6
CONTINUOUS
10
0.2221448818897638
20
0.6151218110236221
11
0.2090834645669291
21
0.579235905511811
0
LINE
8
BLACK
6
CONTINUOUS
10
0.2090834645669291
20
0.579235905511811
11
0.1665383464566929
21
0.5947211023622047
0
LINE
8
BLACK
6
CONTINUOUS
10
0.1665383464566929
20
0.5947211023622047
11
0.1795997637795275
21
0.6306070078740157
0
LINE
8
BLACK
6
CONTINUOUS
10
0.1795997637795275
20
0.6306070078740157
11
0.2221448818897638
21
0.6151218110236221
0
LINE
8
BLACK
6
CONTINUOUS
10
0.2837401181102362
20
0.6404653149606299
11
0.2722945275590551
21
0.6090188976377953
0
LINE
8
BLACK
6
CONTINUOUS
10
0.2722945275590551
20
0.6090188976377953
11
0.2371485433070866
21
0.6218109842519685
0
LINE
8
BLACK
6
CONTINUOUS
10
0.2371485433070866
20
0.6218109842519685
11
0.2485941338582677
21
0.6532574015748032
0
LINE
8
BLACK
6
CONTINUOUS
10
0.2485941338582677
20
0.6532574015748032
11
0.2837401181102362
21
0.6404653149606299
0
LINE
8
BLACK
6
CONTINUOUS
10
0.2374953937007874
20
0.6572970078740157
11
0.226049842519685
21
0.6258505905511811
0
LINE
8
BLACK
6
CONTINUOUS
10
0.226049842519685
20
0.6258505905511811
11
0.1835046850393701
21
0.6413357480314961
0
LINE
8
BLACK
6
CONTINUOUS
10
0.1835046850393701
20
0.6413357480314961
11
0.1949502362204724
21
0.6727821653543307
0
LINE
8
BLACK
6
CONTINUOUS
10
0.1949502362204724
20
0.6727821653543307
11
0.2374953937007874
21
0.6572970078740157
  0
ENDSEC
  0
EOF
