  0
SECTION
  2
HEADER
  9
$ANGBASE
  50
0.0
  9
$ANGDIR
  70
1
  9
$MEASUREMENT
  70
0
  0
ENDSEC
  0
SECTION
  2
TABLES
  0
TABLE
  2
LTYPE
  70
4
  0
LTYPE
  5
40F
  2
CONTINUOUS
  70
0
  3
Solid line
  72
65
  73
0
  40
0.0
  0
LTYPE
  5
410
  2
DASHDOT
 70
0
  3
Dash Dot ____ _ ____ _
 72
65
 73
4
 40
2.0
 49
1.25
 49
-0.25
 49
0.25
 49
-0.25
  0
LTYPE
  5
411
  2
DASHED
 70
0
  3
Dashed __ __ __ __ __
 72
65
 73
2
 40
0.75
 49
0.5
 49
-0.25
  0
LTYPE
  5
43B
  2
DOTTED
 70
0
  3
Dotted .  .  .  .
 72
65
 73
2
 40
0.2
 49
0.0
 49
-0.2
  0
ENDTAB
  0
TABLE
  2
STYLE
  70
4
  0
STYLE
  2
KICAD
  70
0
  40
0
  41
1
  42
1
  50
0
  71
0
  3
isocp.shx
  0
STYLE
  2
KICADB
  70
0
  40
0
  41
1
  42
1
  50
0
  71
0
  3
isocp.shx
  0
STYLE
  2
KICADI
  70
0
  40
0
  41
1
  42
1
  50
15
  71
0
  3
isocp.shx
  0
STYLE
  2
KICADBI
  70
0
  40
0
  41
1
  42
1
  50
15
  71
0
  3
isocp.shx
  0
ENDTAB
  0
TABLE
  2
LAYER
  70
1
  0
LAYER
  2
BLACK
  70
0
  62
7
  6
CONTINUOUS
  0
ENDTAB
  0
ENDSEC
  0
SECTION
  2
ENTITIES
0
LINE
8
BLACK
6
CONTINUOUS
10
2.29
20
0.76
11
2.23
21
0.76
0
LINE
8
BLACK
6
CONTINUOUS
10
2.23
20
0.76
11
2.23
21
0.82
0
LINE
8
BLACK
6
CONTINUOUS
10
2.23
20
0.82
11
2.29
21
0.82
0
LINE
8
BLACK
6
CONTINUOUS
10
2.29
20
0.82
11
2.29
21
0.76
0
LINE
8
BLACK
6
CONTINUOUS
10
2.3900000000000001
20
0.76
11
2.3300000000000001
21
0.76
0
LINE
8
BLACK
6
CONTINUOUS
10
2.3300000000000001
20
0.76
11
2.3300000000000001
21
0.82
0
LINE
8
BLACK
6
CONTINUOUS
10
2.3300000000000001
20
0.82
11
2.3900000000000001
21
0.82
0
LINE
8
BLACK
6
CONTINUOUS
10
2.3900000000000001
20
0.82
11
2.3900000000000001
21
0.76
0
LINE
8
BLACK
6
CONTINUOUS
10
0.4468727559055118
20
1.0395789370078741
11
0.4544429527559055
21
1.037282559055118
0
LINE
8
BLACK
6
CONTINUOUS
10
0.4544429527559055
20
1.037282559055118
11
0.4614196456692913
21
1.0335533858267716
0
LINE
8
BLACK
6
CONTINUOUS
10
0.4614196456692913
20
1.0335533858267716
11
0.4675348031496063
21
1.0285348031496062
0
LINE
8
BLACK
6
CONTINUOUS
10
0.4675348031496063
20
1.0285348031496062
11
0.4725533858267716
21
1.0224196456692913
0
LINE
8
BLACK
6
CONTINUOUS
10
0.4725533858267716
20
1.0224196456692913
11
0.4762825590551181
21
1.0154429527559055
0
LINE
8
BLACK
6
CONTINUOUS
10
0.4762825590551181
20
1.0154429527559055
11
0.478578937007874
21
1.0078727559055118
0
LINE
8
BLACK
6
CONTINUOUS
10
0.478578937007874
20
1.0078727559055118
11
0.4793543307086614
21
1.
0
LINE
8
BLACK
6
CONTINUOUS
10
0.4793543307086614
20
1.
11
0.478578937007874
21
0.9921272440944882
0
LINE
8
BLACK
6
CONTINUOUS
10
0.478578937007874
20
0.9921272440944882
11
0.4762825590551181
21
0.9845570472440944
0
LINE
8
BLACK
6
CONTINUOUS
10
0.4762825590551181
20
0.9845570472440944
11
0.4725533858267716
21
0.9775803543307087
0
LINE
8
BLACK
6
CONTINUOUS
10
0.4725533858267716
20
0.9775803543307087
11
0.4675348031496063
21
0.9714651968503937
0
LINE
8
BLACK
6
CONTINUOUS
10
0.4675348031496063
20
0.9714651968503937
11
0.4614196456692913
21
0.9664466141732283
0
LINE
8
BLACK
6
CONTINUOUS
10
0.4614196456692913
20
0.9664466141732283
11
0.4544429527559055
21
0.9627174409448819
0
LINE
8
BLACK
6
CONTINUOUS
10
0.4544429527559055
20
0.9627174409448819
11
0.4468727559055118
21
0.9604210629921259
0
LINE
8
BLACK
6
CONTINUOUS
10
0.4468727559055118
20
0.9604210629921259
11
0.439
21
0.9596456692913385
0
LINE
8
BLACK
6
CONTINUOUS
10
0.439
20
0.9596456692913385
11
0.4311272440944882
21
0.9604210629921259
0
LINE
8
BLACK
6
CONTINUOUS
10
0.4311272440944882
20
0.9604210629921259
11
0.4235570472440945
21
0.9627174409448819
0
LINE
8
BLACK
6
CONTINUOUS
10
0.4235570472440945
20
0.9627174409448819
11
0.4165803543307087
21
0.9664466141732283
0
LINE
8
BLACK
6
CONTINUOUS
10
0.4165803543307087
20
0.9664466141732283
11
0.4104651968503937
21
0.9714651968503937
0
LINE
8
BLACK
6
CONTINUOUS
10
0.4104651968503937
20
0.9714651968503937
11
0.4054466141732284
21
0.9775803543307087
0
LINE
8
BLACK
6
CONTINUOUS
10
0.4054466141732284
20
0.9775803543307087
11
0.4017174409448819
21
0.9845570472440944
0
LINE
8
BLACK
6
CONTINUOUS
10
0.4017174409448819
20
0.9845570472440944
11
0.399421062992126
21
0.9921272440944882
0
LINE
8
BLACK
6
CONTINUOUS
10
0.399421062992126
20
0.9921272440944882
11
0.3986456692913386
21
1.
0
LINE
8
BLACK
6
CONTINUOUS
10
0.3986456692913386
20
1.
11
0.399421062992126
21
1.0078727559055118
0
LINE
8
BLACK
6
CONTINUOUS
10
0.399421062992126
20
1.0078727559055118
11
0.4017174409448819
21
1.0154429527559055
0
LINE
8
BLACK
6
CONTINUOUS
10
0.4017174409448819
20
1.0154429527559055
11
0.4054466141732284
21
1.0224196456692913
0
LINE
8
BLACK
6
CONTINUOUS
10
0.4054466141732284
20
1.0224196456692913
11
0.4104651968503937
21
1.0285348031496062
0
LINE
8
BLACK
6
CONTINUOUS
10
0.4104651968503937
20
1.0285348031496062
11
0.4165803543307087
21
1.0335533858267716
0
LINE
8
BLACK
6
CONTINUOUS
10
0.4165803543307087
20
1.0335533858267716
11
0.4235570472440945
21
1.037282559055118
0
LINE
8
BLACK
6
CONTINUOUS
10
0.4235570472440945
20
1.037282559055118
11
0.4311272440944882
21
1.0395789370078741
0
LINE
8
BLACK
6
CONTINUOUS
10
0.4311272440944882
20
1.0395789370078741
11
0.439
21
1.0403543307086613
0
LINE
8
BLACK
6
CONTINUOUS
10
0.439
20
1.0403543307086613
11
0.4468727559055118
21
1.0395789370078741
0
LINE
8
BLACK
6
CONTINUOUS
10
2.2899999606299213
20
1.03
11
2.2299999606299212
21
1.03
0
LINE
8
BLACK
6
CONTINUOUS
10
2.2299999606299212
20
1.03
11
2.2299999606299212
21
1.0900000000000001
0
LINE
8
BLACK
6
CONTINUOUS
10
2.2299999606299212
20
1.0900000000000001
11
2.2899999606299213
21
1.0900000000000001
0
LINE
8
BLACK
6
CONTINUOUS
10
2.2899999606299213
20
1.0900000000000001
11
2.2899999606299213
21
1.03
0
LINE
8
BLACK
6
CONTINUOUS
10
2.3900000393700789
20
1.03
11
2.3300000393700788
21
1.03
0
LINE
8
BLACK
6
CONTINUOUS
10
2.3300000393700788
20
1.03
11
2.3300000393700788
21
1.0900000000000001
0
LINE
8
BLACK
6
CONTINUOUS
10
2.3300000393700788
20
1.0900000000000001
11
2.3900000393700789
21
1.0900000000000001
0
LINE
8
BLACK
6
CONTINUOUS
10
2.3900000393700789
20
1.0900000000000001
11
2.3900000393700789
21
1.03
0
LINE
8
BLACK
6
CONTINUOUS
10
2.2899999606299213
20
1.1299999999999999
11
2.2299999606299212
21
1.1299999999999999
0
LINE
8
BLACK
6
CONTINUOUS
10
2.2299999606299212
20
1.1299999999999999
11
2.2299999606299212
21
1.1899999999999999
0
LINE
8
BLACK
6
CONTINUOUS
10
2.2299999606299212
20
1.1899999999999999
11
2.2899999606299213
21
1.1899999999999999
0
LINE
8
BLACK
6
CONTINUOUS
10
2.2899999606299213
20
1.1899999999999999
11
2.2899999606299213
21
1.1299999999999999
0
LINE
8
BLACK
6
CONTINUOUS
10
2.3900000393700789
20
1.1299999999999999
11
2.3300000393700788
21
1.1299999999999999
0
LINE
8
BLACK
6
CONTINUOUS
10
2.3300000393700788
20
1.1299999999999999
11
2.3300000393700788
21
1.1899999999999999
0
LINE
8
BLACK
6
CONTINUOUS
10
2.3300000393700788
20
1.1899999999999999
11
2.3900000393700789
21
1.1899999999999999
0
LINE
8
BLACK
6
CONTINUOUS
10
2.3900000393700789
20
1.1899999999999999
11
2.3900000393700789
21
1.1299999999999999
0
LINE
8
BLACK
6
CONTINUOUS
10
1.6499999999999999
20
1.22
11
1.5899999999999999
21
1.22
0
LINE
8
BLACK
6
CONTINUOUS
10
1.5899999999999999
20
1.22
11
1.5899999999999999
21
1.28
0
LINE
8
BLACK
6
CONTINUOUS
10
1.5899999999999999
20
1.28
11
1.6499999999999999
21
1.28
0
LINE
8
BLACK
6
CONTINUOUS
10
1.6499999999999999
20
1.28
11
1.6499999999999999
21
1.22
0
LINE
8
BLACK
6
CONTINUOUS
10
2.2899999606299213
20
1.23
11
2.2299999606299212
21
1.23
0
LINE
8
BLACK
6
CONTINUOUS
10
2.2299999606299212
20
1.23
11
2.2299999606299212
21
1.29
0
LINE
8
BLACK
6
CONTINUOUS
10
2.2299999606299212
20
1.29
11
2.2899999606299213
21
1.29
0
LINE
8
BLACK
6
CONTINUOUS
10
2.2899999606299213
20
1.29
11
2.2899999606299213
21
1.23
0
LINE
8
BLACK
6
CONTINUOUS
10
2.3900000393700789
20
1.23
11
2.3300000393700788
21
1.23
0
LINE
8
BLACK
6
CONTINUOUS
10
2.3300000393700788
20
1.23
11
2.3300000393700788
21
1.29
0
LINE
8
BLACK
6
CONTINUOUS
10
2.3300000393700788
20
1.29
11
2.3900000393700789
21
1.29
0
LINE
8
BLACK
6
CONTINUOUS
10
2.3900000393700789
20
1.29
11
2.3900000393700789
21
1.23
0
LINE
8
BLACK
6
CONTINUOUS
10
1.6499999999999999
20
1.3200000000000001
11
1.5899999999999999
21
1.3200000000000001
0
LINE
8
BLACK
6
CONTINUOUS
10
1.5899999999999999
20
1.3200000000000001
11
1.5899999999999999
21
1.3799999999999999
0
LINE
8
BLACK
6
CONTINUOUS
10
1.5899999999999999
20
1.3799999999999999
11
1.6499999999999999
21
1.3799999999999999
0
LINE
8
BLACK
6
CONTINUOUS
10
1.6499999999999999
20
1.3799999999999999
11
1.6499999999999999
21
1.3200000000000001
0
LINE
8
BLACK
6
CONTINUOUS
10
2.2899999606299213
20
1.3300000000000001
11
2.2299999606299212
21
1.3300000000000001
0
LINE
8
BLACK
6
CONTINUOUS
10
2.2299999606299212
20
1.3300000000000001
11
2.2299999606299212
21
1.3899999999999999
0
LINE
8
BLACK
6
CONTINUOUS
10
2.2299999606299212
20
1.3899999999999999
11
2.2899999606299213
21
1.3899999999999999
0
LINE
8
BLACK
6
CONTINUOUS
10
2.2899999606299213
20
1.3899999999999999
11
2.2899999606299213
21
1.3300000000000001
0
LINE
8
BLACK
6
CONTINUOUS
10
2.3900000393700789
20
1.3300000000000001
11
2.3300000393700788
21
1.3300000000000001
0
LINE
8
BLACK
6
CONTINUOUS
10
2.3300000393700788
20
1.3300000000000001
11
2.3300000393700788
21
1.3899999999999999
0
LINE
8
BLACK
6
CONTINUOUS
10
2.3300000393700788
20
1.3899999999999999
11
2.3900000393700789
21
1.3899999999999999
0
LINE
8
BLACK
6
CONTINUOUS
10
2.3900000393700789
20
1.3899999999999999
11
2.3900000393700789
21
1.3300000000000001
0
LINE
8
BLACK
6
CONTINUOUS
10
2.5877574409448818
20
1.7892250000000001
11
2.5895588188976379
21
1.7871461023622046
0
LINE
8
BLACK
6
CONTINUOUS
10
2.5895588188976379
20
1.7871461023622046
11
2.5899999999999999
21
1.7851181102362204
0
LINE
8
BLACK
6
CONTINUOUS
10
2.5899999999999999
20
1.7851181102362204
11
2.5899999999999999
21
0.2148818897637795
0
LINE
8
BLACK
6
CONTINUOUS
10
2.5899999999999999
20
0.2148818897637795
11
2.5892249999999999
21
0.2122425590551181
0
LINE
8
BLACK
6
CONTINUOUS
10
2.5892249999999999
20
0.2122425590551181
11
2.5871461023622047
21
0.2104411811023622
0
LINE
8
BLACK
6
CONTINUOUS
10
2.5871461023622047
20
0.2104411811023622
11
2.5851181102362206
21
0.21
0
LINE
8
BLACK
6
CONTINUOUS
10
2.5851181102362206
20
0.21
11
0.2148818897637795
21
0.21
0
LINE
8
BLACK
6
CONTINUOUS
10
0.2148818897637795
20
0.21
11
0.2122425590551181
21
0.210775
0
LINE
8
BLACK
6
CONTINUOUS
10
0.2122425590551181
20
0.210775
11
0.2104411811023622
21
0.2128538976377953
0
LINE
8
BLACK
6
CONTINUOUS
10
0.2104411811023622
20
0.2128538976377953
11
0.21
21
0.2148818897637795
0
LINE
8
BLACK
6
CONTINUOUS
10
0.21
20
0.2148818897637795
11
0.21
21
0.7218836614173229
0
LINE
8
BLACK
6
CONTINUOUS
10
0.21
20
0.7218836614173229
11
0.21
21
0.8207776771653543
0
LINE
8
BLACK
6
CONTINUOUS
10
0.21
20
0.8207776771653543
11
0.21
21
0.9
0
LINE
8
BLACK
6
CONTINUOUS
10
0.21
20
0.9
11
0.21
21
1.0000000787401575
0
LINE
8
BLACK
6
CONTINUOUS
10
0.21
20
1.0000000787401575
11
0.21
21
1.0999999999999999
0
LINE
8
BLACK
6
CONTINUOUS
10
0.21
20
1.0999999999999999
11
0.21
21
1.1907776771653542
0
LINE
8
BLACK
6
CONTINUOUS
10
0.21
20
1.1907776771653542
11
0.21
21
1.2807776771653543
0
LINE
8
BLACK
6
CONTINUOUS
10
0.21
20
1.2807776771653543
11
0.21
21
1.2907776771653543
0
LINE
8
BLACK
6
CONTINUOUS
10
0.21
20
1.2907776771653543
11
0.21
21
1.3807776771653544
0
LINE
8
BLACK
6
CONTINUOUS
10
0.21
20
1.3807776771653544
11
0.21
21
1.3907776771653544
0
LINE
8
BLACK
6
CONTINUOUS
10
0.21
20
1.3907776771653544
11
0.21
21
1.7851181102362204
0
LINE
8
BLACK
6
CONTINUOUS
10
0.21
20
1.7851181102362204
11
0.210775
21
1.7877574409448818
0
LINE
8
BLACK
6
CONTINUOUS
10
0.210775
20
1.7877574409448818
11
0.2128538976377953
21
1.7895588188976377
0
LINE
8
BLACK
6
CONTINUOUS
10
0.2128538976377953
20
1.7895588188976377
11
0.2148818897637795
21
1.79
0
LINE
8
BLACK
6
CONTINUOUS
10
0.2148818897637795
20
1.79
11
2.5851181102362206
21
1.79
0
LINE
8
BLACK
6
CONTINUOUS
10
2.5851181102362206
20
1.79
11
2.5877574409448818
21
1.7892250000000001
0
LINE
8
BLACK
6
CONTINUOUS
10
2.2103149606299213
20
0.6801574803149606
11
2.2103149606299213
21
0.6581163779527559
0
LINE
8
BLACK
6
CONTINUOUS
10
2.2103149606299213
20
0.6581163779527559
11
2.2105669685039371
21
0.6557727559055118
0
LINE
8
BLACK
6
CONTINUOUS
10
2.2105669685039371
20
0.6557727559055118
11
2.2105670472440946
21
0.6557724803149606
0
LINE
8
BLACK
6
CONTINUOUS
10
2.2105670472440946
20
0.6557724803149606
11
2.2125450787401575
21
0.6504690551181103
0
LINE
8
BLACK
6
CONTINUOUS
10
2.2125450787401575
20
0.6504690551181103
11
2.2125452362204725
21
0.650468779527559
0
LINE
8
BLACK
6
CONTINUOUS
10
2.2125452362204725
20
0.650468779527559
11
2.2159373622047243
21
0.6459375196850393
0
LINE
8
BLACK
6
CONTINUOUS
10
2.2159373622047243
20
0.6459375196850393
11
2.2159374803149605
21
0.6459374015748032
0
LINE
8
BLACK
6
CONTINUOUS
10
2.2159374803149605
20
0.6459374015748032
11
2.2204687401574801
21
0.6425452755905512
0
LINE
8
BLACK
6
CONTINUOUS
10
2.2204687401574801
20
0.6425452755905512
11
2.2204690157480313
21
0.6425451181102362
0
LINE
8
BLACK
6
CONTINUOUS
10
2.2204690157480313
20
0.6425451181102362
11
2.225772440944882
21
0.6405670866141732
0
LINE
8
BLACK
6
CONTINUOUS
10
2.225772440944882
20
0.6405670866141732
11
2.2257727165354328
21
0.6405670078740158
0
LINE
8
BLACK
6
CONTINUOUS
10
2.2257727165354328
20
0.6405670078740158
11
2.228116338582677
21
0.640315
0
LINE
8
BLACK
6
CONTINUOUS
10
2.228116338582677
20
0.640315
11
2.2281170078740158
21
0.6403149606299212
0
LINE
8
BLACK
6
CONTINUOUS
10
2.2281170078740158
20
0.6403149606299212
11
2.2501574803149604
21
0.6403149606299212
0
LINE
8
BLACK
6
CONTINUOUS
10
2.2501574803149604
20
0.6403149606299212
11
2.2501574803149604
21
0.66
0
LINE
8
BLACK
6
CONTINUOUS
10
2.2501574803149604
20
0.66
11
2.23
21
0.66
0
LINE
8
BLACK
6
CONTINUOUS
10
2.23
20
0.66
11
2.23
21
0.6801574803149606
0
LINE
8
BLACK
6
CONTINUOUS
10
2.23
20
0.6801574803149606
11
2.2103149606299213
21
0.6801574803149606
0
LINE
8
BLACK
6
CONTINUOUS
10
2.29
20
0.6801574803149606
11
2.29
21
0.66
0
LINE
8
BLACK
6
CONTINUOUS
10
2.29
20
0.66
11
2.2698425196850391
21
0.66
0
LINE
8
BLACK
6
CONTINUOUS
10
2.2698425196850391
20
0.66
11
2.2698425196850391
21
0.6403149606299212
0
LINE
8
BLACK
6
CONTINUOUS
10
2.2698425196850391
20
0.6403149606299212
11
2.2918829921259842
21
0.6403149606299212
0
LINE
8
BLACK
6
CONTINUOUS
10
2.2918829921259842
20
0.6403149606299212
11
2.2918836220472438
21
0.640315
0
LINE
8
BLACK
6
CONTINUOUS
10
2.2918836220472438
20
0.640315
11
2.294227244094488
21
0.6405670078740158
0
LINE
8
BLACK
6
CONTINUOUS
10
2.294227244094488
20
0.6405670078740158
11
2.2942275196850392
21
0.6405670866141732
0
LINE
8
BLACK
6
CONTINUOUS
10
2.2942275196850392
20
0.6405670866141732
11
2.2995309448818899
21
0.6425451181102362
0
LINE
8
BLACK
6
CONTINUOUS
10
2.2995309448818899
20
0.6425451181102362
11
2.2995312204724407
21
0.6425452755905512
0
LINE
8
BLACK
6
CONTINUOUS
10
2.2995312204724407
20
0.6425452755905512
11
2.304062440944882
21
0.6459373622047244
0
LINE
8
BLACK
6
CONTINUOUS
10
2.304062440944882
20
0.6459373622047244
11
2.3060918503937007
21
0.6486482677165354
0
LINE
8
BLACK
6
CONTINUOUS
10
2.3060918503937007
20
0.6486482677165354
11
2.3082939763779526
21
0.6502967322834645
0
LINE
8
BLACK
6
CONTINUOUS
10
2.3082939763779526
20
0.6502967322834645
11
2.3110377559055117
21
0.6504929527559055
0
LINE
8
BLACK
6
CONTINUOUS
10
2.3110377559055117
20
0.6504929527559055
11
2.3134520472440943
21
0.6491746456692913
0
LINE
8
BLACK
6
CONTINUOUS
10
2.3134520472440943
20
0.6491746456692913
11
2.313908149606299
21
0.6486482677165354
0
LINE
8
BLACK
6
CONTINUOUS
10
2.313908149606299
20
0.6486482677165354
11
2.3159375196850394
21
0.6459373622047244
0
LINE
8
BLACK
6
CONTINUOUS
10
2.3159375196850394
20
0.6459373622047244
11
2.3204687401574802
21
0.6425452755905512
0
LINE
8
BLACK
6
CONTINUOUS
10
2.3204687401574802
20
0.6425452755905512
11
2.3204690157480314
21
0.6425451181102362
0
LINE
8
BLACK
6
CONTINUOUS
10
2.3204690157480314
20
0.6425451181102362
11
2.3257724409448817
21
0.6405670866141732
0
LINE
8
BLACK
6
CONTINUOUS
10
2.3257724409448817
20
0.6405670866141732
11
2.3257727165354329
21
0.6405670078740158
0
LINE
8
BLACK
6
CONTINUOUS
10
2.3257727165354329
20
0.6405670078740158
11
2.3281163385826771
21
0.640315
0
LINE
8
BLACK
6
CONTINUOUS
10
2.3281163385826771
20
0.640315
11
2.3281170078740159
21
0.6403149606299212
0
LINE
8
BLACK
6
CONTINUOUS
10
2.3281170078740159
20
0.6403149606299212
11
2.3501574803149605
21
0.6403149606299212
0
LINE
8
BLACK
6
CONTINUOUS
10
2.3501574803149605
20
0.6403149606299212
11
2.3501574803149605
21
0.66
0
LINE
8
BLACK
6
CONTINUOUS
10
2.3501574803149605
20
0.66
11
2.3300000000000001
21
0.66
0
LINE
8
BLACK
6
CONTINUOUS
10
2.3300000000000001
20
0.66
11
2.3300000000000001
21
0.6801574803149606
0
LINE
8
BLACK
6
CONTINUOUS
10
2.3300000000000001
20
0.6801574803149606
11
2.29
21
0.6801574803149606
0
LINE
8
BLACK
6
CONTINUOUS
10
2.3900000000000001
20
0.66
11
2.3698425196850392
21
0.66
0
LINE
8
BLACK
6
CONTINUOUS
10
2.3698425196850392
20
0.66
11
2.3698425196850392
21
0.6403149606299212
0
LINE
8
BLACK
6
CONTINUOUS
10
2.3698425196850392
20
0.6403149606299212
11
2.3918829921259843
21
0.6403149606299212
0
LINE
8
BLACK
6
CONTINUOUS
10
2.3918829921259843
20
0.6403149606299212
11
2.3918836220472439
21
0.640315
0
LINE
8
BLACK
6
CONTINUOUS
10
2.3918836220472439
20
0.640315
11
2.3942272440944881
21
0.6405670078740158
0
LINE
8
BLACK
6
CONTINUOUS
10
2.3942272440944881
20
0.6405670078740158
11
2.3942275196850393
21
0.6405670866141732
0
LINE
8
BLACK
6
CONTINUOUS
10
2.3942275196850393
20
0.6405670866141732
11
2.3995309448818896
21
0.6425451181102362
0
LINE
8
BLACK
6
CONTINUOUS
10
2.3995309448818896
20
0.6425451181102362
11
2.3995312204724408
21
0.6425452755905512
0
LINE
8
BLACK
6
CONTINUOUS
10
2.3995312204724408
20
0.6425452755905512
11
2.4040624803149604
21
0.6459374015748032
0
LINE
8
BLACK
6
CONTINUOUS
10
2.4040624803149604
20
0.6459374015748032
11
2.4040625984251967
21
0.6459375196850393
0
LINE
8
BLACK
6
CONTINUOUS
10
2.4040625984251967
20
0.6459375196850393
11
2.4074547244094489
21
0.650468779527559
0
LINE
8
BLACK
6
CONTINUOUS
10
2.4074547244094489
20
0.650468779527559
11
2.4074548818897639
21
0.6504690551181103
0
LINE
8
BLACK
6
CONTINUOUS
10
2.4074548818897639
20
0.6504690551181103
11
2.4094329133858268
21
0.6557724803149606
0
LINE
8
BLACK
6
CONTINUOUS
10
2.4094329133858268
20
0.6557724803149606
11
2.4094329921259843
21
0.6557727559055118
0
LINE
8
BLACK
6
CONTINUOUS
10
2.4094329921259843
20
0.6557727559055118
11
2.4096850000000001
21
0.6581163779527559
0
LINE
8
BLACK
6
CONTINUOUS
10
2.4096850000000001
20
0.6581163779527559
11
2.4096850393700788
21
0.6581170472440945
0
LINE
8
BLACK
6
CONTINUOUS
10
2.4096850393700788
20
0.6581170472440945
11
2.4096850393700788
21
0.6801574803149606
0
LINE
8
BLACK
6
CONTINUOUS
10
2.4096850393700788
20
0.6801574803149606
11
2.3900000000000001
21
0.6801574803149606
0
LINE
8
BLACK
6
CONTINUOUS
10
2.3900000000000001
20
0.6801574803149606
11
2.3900000000000001
21
0.66
0
LINE
8
BLACK
6
CONTINUOUS
10
2.3698425196850392
20
0.72
11
2.3900000000000001
21
0.72
0
LINE
8
BLACK
6
CONTINUOUS
10
2.3900000000000001
20
0.72
11
2.3900000000000001
21
0.6998425196850393
0
LINE
8
BLACK
6
CONTINUOUS
10
2.3900000000000001
20
0.6998425196850393
11
2.4096850393700788
21
0.6998425196850393
0
LINE
8
BLACK
6
CONTINUOUS
10
2.4096850393700788
20
0.6998425196850393
11
2.4096850393700788
21
0.7218829921259843
0
LINE
8
BLACK
6
CONTINUOUS
10
2.4096850393700788
20
0.7218829921259843
11
2.4096850000000001
21
0.7218836614173229
0
LINE
8
BLACK
6
CONTINUOUS
10
2.4096850000000001
20
0.7218836614173229
11
2.4094329921259843
21
0.7242272834645669
0
LINE
8
BLACK
6
CONTINUOUS
10
2.4094329921259843
20
0.7242272834645669
11
2.4094329133858268
21
0.724227559055118
0
LINE
8
BLACK
6
CONTINUOUS
10
2.4094329133858268
20
0.724227559055118
11
2.4074548818897639
21
0.7295309842519685
0
LINE
8
BLACK
6
CONTINUOUS
10
2.4074548818897639
20
0.7295309842519685
11
2.4074547244094489
21
0.7295312598425197
0
LINE
8
BLACK
6
CONTINUOUS
10
2.4074547244094489
20
0.7295312598425197
11
2.4040625984251967
21
0.7340625196850393
0
LINE
8
BLACK
6
CONTINUOUS
10
2.4040625984251967
20
0.7340625196850393
11
2.4040624803149604
21
0.7340626377952756
0
LINE
8
BLACK
6
CONTINUOUS
10
2.4040624803149604
20
0.7340626377952756
11
2.3995312204724408
21
0.7374547637795276
0
LINE
8
BLACK
6
CONTINUOUS
10
2.3995312204724408
20
0.7374547637795276
11
2.3995309448818896
21
0.7374549212598425
0
LINE
8
BLACK
6
CONTINUOUS
10
2.3995309448818896
20
0.7374549212598425
11
2.3942275196850393
21
0.7394329527559055
0
LINE
8
BLACK
6
CONTINUOUS
10
2.3942275196850393
20
0.7394329527559055
11
2.3942272440944881
21
0.739433031496063
0
LINE
8
BLACK
6
CONTINUOUS
10
2.3942272440944881
20
0.739433031496063
11
2.3918836220472439
21
0.7396850393700787
0
LINE
8
BLACK
6
CONTINUOUS
10
2.3918836220472439
20
0.7396850393700787
11
2.3698425196850392
21
0.7396850393700787
0
LINE
8
BLACK
6
CONTINUOUS
10
2.3698425196850392
20
0.7396850393700787
11
2.3698425196850392
21
0.72
0
LINE
8
BLACK
6
CONTINUOUS
10
2.2698425196850391
20
0.72
11
2.29
21
0.72
0
LINE
8
BLACK
6
CONTINUOUS
10
2.29
20
0.72
11
2.29
21
0.6998425196850393
0
LINE
8
BLACK
6
CONTINUOUS
10
2.29
20
0.6998425196850393
11
2.3300000000000001
21
0.6998425196850393
0
LINE
8
BLACK
6
CONTINUOUS
10
2.3300000000000001
20
0.6998425196850393
11
2.3300000000000001
21
0.72
0
LINE
8
BLACK
6
CONTINUOUS
10
2.3300000000000001
20
0.72
11
2.3501574803149605
21
0.72
0
LINE
8
BLACK
6
CONTINUOUS
10
2.3501574803149605
20
0.72
11
2.3501574803149605
21
0.7396850393700787
0
LINE
8
BLACK
6
CONTINUOUS
10
2.3501574803149605
20
0.7396850393700787
11
2.3281163385826771
21
0.7396850393700787
0
LINE
8
BLACK
6
CONTINUOUS
10
2.3281163385826771
20
0.7396850393700787
11
2.3257727165354329
21
0.739433031496063
0
LINE
8
BLACK
6
CONTINUOUS
10
2.3257727165354329
20
0.739433031496063
11
2.3257724409448817
21
0.7394329527559055
0
LINE
8
BLACK
6
CONTINUOUS
10
2.3257724409448817
20
0.7394329527559055
11
2.3204690157480314
21
0.7374549212598425
0
LINE
8
BLACK
6
CONTINUOUS
10
2.3204690157480314
20
0.7374549212598425
11
2.3204687401574802
21
0.7374547637795276
0
LINE
8
BLACK
6
CONTINUOUS
10
2.3204687401574802
20
0.7374547637795276
11
2.3159374803149606
21
0.7340626377952756
0
LINE
8
BLACK
6
CONTINUOUS
10
2.3159374803149606
20
0.7340626377952756
11
2.3139081102362202
21
0.7313517322834645
0
LINE
8
BLACK
6
CONTINUOUS
10
2.3139081102362202
20
0.7313517322834645
11
2.3117059842519683
21
0.7297033070866141
0
LINE
8
BLACK
6
CONTINUOUS
10
2.3117059842519683
20
0.7297033070866141
11
2.3089622440944879
21
0.7295070866141732
0
LINE
8
BLACK
6
CONTINUOUS
10
2.3089622440944879
20
0.7295070866141732
11
2.3065479527559054
21
0.7308254330708661
0
LINE
8
BLACK
6
CONTINUOUS
10
2.3065479527559054
20
0.7308254330708661
11
2.3060918897637794
21
0.7313517322834645
0
LINE
8
BLACK
6
CONTINUOUS
10
2.3060918897637794
20
0.7313517322834645
11
2.3040624803149607
21
0.7340626377952756
0
LINE
8
BLACK
6
CONTINUOUS
10
2.3040624803149607
20
0.7340626377952756
11
2.2995312204724407
21
0.7374547637795276
0
LINE
8
BLACK
6
CONTINUOUS
10
2.2995312204724407
20
0.7374547637795276
11
2.2995309448818899
21
0.7374549212598425
0
LINE
8
BLACK
6
CONTINUOUS
10
2.2995309448818899
20
0.7374549212598425
11
2.2942275196850392
21
0.7394329527559055
0
LINE
8
BLACK
6
CONTINUOUS
10
2.2942275196850392
20
0.7394329527559055
11
2.294227244094488
21
0.739433031496063
0
LINE
8
BLACK
6
CONTINUOUS
10
2.294227244094488
20
0.739433031496063
11
2.2918836220472438
21
0.7396850393700787
0
LINE
8
BLACK
6
CONTINUOUS
10
2.2918836220472438
20
0.7396850393700787
11
2.2698425196850391
21
0.7396850393700787
0
LINE
8
BLACK
6
CONTINUOUS
10
2.2698425196850391
20
0.7396850393700787
11
2.2698425196850391
21
0.72
0
LINE
8
BLACK
6
CONTINUOUS
10
2.2221062992125984
20
0.7592223622047244
11
2.2225642125984253
21
0.7569201181102362
0
LINE
8
BLACK
6
CONTINUOUS
10
2.2225642125984253
20
0.7569201181102362
11
2.222564251968504
21
0.7569200787401574
0
LINE
8
BLACK
6
CONTINUOUS
10
2.222564251968504
20
0.7569200787401574
11
2.2243089370078741
21
0.7543089763779527
0
LINE
8
BLACK
6
CONTINUOUS
10
2.2243089370078741
20
0.7543089763779527
11
2.2269200393700785
21
0.7525642913385827
0
LINE
8
BLACK
6
CONTINUOUS
10
2.2269200393700785
20
0.7525642913385827
11
2.2269200787401573
21
0.752564251968504
0
LINE
8
BLACK
6
CONTINUOUS
10
2.2269200787401573
20
0.752564251968504
11
2.2292223228346457
21
0.7521063385826772
0
LINE
8
BLACK
6
CONTINUOUS
10
2.2292223228346457
20
0.7521063385826772
11
2.229222440944882
21
0.7521062992125984
0
LINE
8
BLACK
6
CONTINUOUS
10
2.229222440944882
20
0.7521062992125984
11
2.2292225196850395
21
0.7521062992125984
0
LINE
8
BLACK
6
CONTINUOUS
10
2.2292225196850395
20
0.7521062992125984
11
2.290777559055118
21
0.7521062992125984
0
LINE
8
BLACK
6
CONTINUOUS
10
2.290777559055118
20
0.7521062992125984
11
2.2907775984251968
21
0.7521063385826772
0
LINE
8
BLACK
6
CONTINUOUS
10
2.2907775984251968
20
0.7521063385826772
11
2.2913609448818897
21
0.7522223622047244
0
LINE
8
BLACK
6
CONTINUOUS
10
2.2913609448818897
20
0.7522223622047244
11
2.2930798818897635
21
0.752564251968504
0
LINE
8
BLACK
6
CONTINUOUS
10
2.2930798818897635
20
0.752564251968504
11
2.2930798818897635
21
0.7525642913385827
0
LINE
8
BLACK
6
CONTINUOUS
10
2.2930798818897635
20
0.7525642913385827
11
2.293079960629921
21
0.7525642913385827
0
LINE
8
BLACK
6
CONTINUOUS
10
2.293079960629921
20
0.7525642913385827
11
2.2956910236220471
21
0.7543089763779527
0
LINE
8
BLACK
6
CONTINUOUS
10
2.2956910236220471
20
0.7543089763779527
11
2.2974357086614172
21
0.7569200393700787
0
LINE
8
BLACK
6
CONTINUOUS
10
2.2974357086614172
20
0.7569200393700787
11
2.2974357086614172
21
0.7569201181102362
0
LINE
8
BLACK
6
CONTINUOUS
10
2.2974357086614172
20
0.7569201181102362
11
2.297435748031496
21
0.7569201181102362
0
LINE
8
BLACK
6
CONTINUOUS
10
2.297435748031496
20
0.7569201181102362
11
2.2978936614173229
21
0.7592223622047244
0
LINE
8
BLACK
6
CONTINUOUS
10
2.2978936614173229
20
0.7592223622047244
11
2.2978937007874016
21
0.7592224409448819
0
LINE
8
BLACK
6
CONTINUOUS
10
2.2978937007874016
20
0.7592224409448819
11
2.2978937007874016
21
0.8207775984251968
0
LINE
8
BLACK
6
CONTINUOUS
10
2.2978937007874016
20
0.8207775984251968
11
2.2978936614173229
21
0.8207776771653543
0
LINE
8
BLACK
6
CONTINUOUS
10
2.2978936614173229
20
0.8207776771653543
11
2.297435748031496
21
0.8230799212598425
0
LINE
8
BLACK
6
CONTINUOUS
10
2.297435748031496
20
0.8230799212598425
11
2.2974357086614172
21
0.8230799606299213
0
LINE
8
BLACK
6
CONTINUOUS
10
2.2974357086614172
20
0.8230799606299213
11
2.2956910236220471
21
0.8256910629921259
0
LINE
8
BLACK
6
CONTINUOUS
10
2.2956910236220471
20
0.8256910629921259
11
2.2930799212598423
21
0.827435748031496
0
LINE
8
BLACK
6
CONTINUOUS
10
2.2930799212598423
20
0.827435748031496
11
2.2930798818897635
21
0.8274357874015748
0
LINE
8
BLACK
6
CONTINUOUS
10
2.2930798818897635
20
0.8274357874015748
11
2.2907776377952755
21
0.8278937007874015
0
LINE
8
BLACK
6
CONTINUOUS
10
2.2907776377952755
20
0.8278937007874015
11
2.2907774803149605
21
0.8278937007874015
0
LINE
8
BLACK
6
CONTINUOUS
10
2.2907774803149605
20
0.8278937007874015
11
2.2292225196850395
21
0.8278937007874015
0
LINE
8
BLACK
6
CONTINUOUS
10
2.2292225196850395
20
0.8278937007874015
11
2.2292223228346457
21
0.8278937007874015
0
LINE
8
BLACK
6
CONTINUOUS
10
2.2292223228346457
20
0.8278937007874015
11
2.2269200787401573
21
0.8274357874015748
0
LINE
8
BLACK
6
CONTINUOUS
10
2.2269200787401573
20
0.8274357874015748
11
2.2269200393700785
21
0.827435748031496
0
LINE
8
BLACK
6
CONTINUOUS
10
2.2269200393700785
20
0.827435748031496
11
2.2243089370078741
21
0.8256910629921259
0
LINE
8
BLACK
6
CONTINUOUS
10
2.2243089370078741
20
0.8256910629921259
11
2.222564251968504
21
0.8230799606299213
0
LINE
8
BLACK
6
CONTINUOUS
10
2.222564251968504
20
0.8230799606299213
11
2.2225642125984253
21
0.8230799212598425
0
LINE
8
BLACK
6
CONTINUOUS
10
2.2225642125984253
20
0.8230799212598425
11
2.2221062992125984
21
0.8207776771653543
0
LINE
8
BLACK
6
CONTINUOUS
10
2.2221062992125984
20
0.8207776771653543
11
2.2221062992125984
21
0.7592223622047244
0
LINE
8
BLACK
6
CONTINUOUS
10
2.3221062992125985
20
0.7592223622047244
11
2.3225642125984249
21
0.7569201181102362
0
LINE
8
BLACK
6
CONTINUOUS
10
2.3225642125984249
20
0.7569201181102362
11
2.3225642519685037
21
0.7569200787401574
0
LINE
8
BLACK
6
CONTINUOUS
10
2.3225642519685037
20
0.7569200787401574
11
2.3243089370078738
21
0.7543089763779527
0
LINE
8
BLACK
6
CONTINUOUS
10
2.3243089370078738
20
0.7543089763779527
11
2.3269200393700786
21
0.7525642913385827
0
LINE
8
BLACK
6
CONTINUOUS
10
2.3269200393700786
20
0.7525642913385827
11
2.3269200787401574
21
0.752564251968504
0
LINE
8
BLACK
6
CONTINUOUS
10
2.3269200787401574
20
0.752564251968504
11
2.3292223228346458
21
0.7521063385826772
0
LINE
8
BLACK
6
CONTINUOUS
10
2.3292223228346458
20
0.7521063385826772
11
2.3292224409448816
21
0.7521062992125984
0
LINE
8
BLACK
6
CONTINUOUS
10
2.3292224409448816
20
0.7521062992125984
11
2.3292225196850391
21
0.7521062992125984
0
LINE
8
BLACK
6
CONTINUOUS
10
2.3292225196850391
20
0.7521062992125984
11
2.3907775590551181
21
0.7521062992125984
0
LINE
8
BLACK
6
CONTINUOUS
10
2.3907775590551181
20
0.7521062992125984
11
2.3907775984251969
21
0.7521063385826772
0
LINE
8
BLACK
6
CONTINUOUS
10
2.3907775984251969
20
0.7521063385826772
11
2.3913609448818898
21
0.7522223622047244
0
LINE
8
BLACK
6
CONTINUOUS
10
2.3913609448818898
20
0.7522223622047244
11
2.3930798818897636
21
0.752564251968504
0
LINE
8
BLACK
6
CONTINUOUS
10
2.3930798818897636
20
0.752564251968504
11
2.3930798818897636
21
0.7525642913385827
0
LINE
8
BLACK
6
CONTINUOUS
10
2.3930798818897636
20
0.7525642913385827
11
2.3930799606299211
21
0.7525642913385827
0
LINE
8
BLACK
6
CONTINUOUS
10
2.3930799606299211
20
0.7525642913385827
11
2.3956910236220472
21
0.7543089763779527
0
LINE
8
BLACK
6
CONTINUOUS
10
2.3956910236220472
20
0.7543089763779527
11
2.3974357086614173
21
0.7569200393700787
0
LINE
8
BLACK
6
CONTINUOUS
10
2.3974357086614173
20
0.7569200393700787
11
2.3974357086614173
21
0.7569201181102362
0
LINE
8
BLACK
6
CONTINUOUS
10
2.3974357086614173
20
0.7569201181102362
11
2.3974357480314961
21
0.7569201181102362
0
LINE
8
BLACK
6
CONTINUOUS
10
2.3974357480314961
20
0.7569201181102362
11
2.397893661417323
21
0.7592223622047244
0
LINE
8
BLACK
6
CONTINUOUS
10
2.397893661417323
20
0.7592223622047244
11
2.3978937007874017
21
0.7592224409448819
0
LINE
8
BLACK
6
CONTINUOUS
10
2.3978937007874017
20
0.7592224409448819
11
2.3978937007874017
21
0.8207775984251968
0
LINE
8
BLACK
6
CONTINUOUS
10
2.3978937007874017
20
0.8207775984251968
11
2.397893661417323
21
0.8207776771653543
0
LINE
8
BLACK
6
CONTINUOUS
10
2.397893661417323
20
0.8207776771653543
11
2.3974357480314961
21
0.8230799212598425
0
LINE
8
BLACK
6
CONTINUOUS
10
2.3974357480314961
20
0.8230799212598425
11
2.3974357086614173
21
0.8230799606299213
0
LINE
8
BLACK
6
CONTINUOUS
10
2.3974357086614173
20
0.8230799606299213
11
2.3956910236220472
21
0.8256910629921259
0
LINE
8
BLACK
6
CONTINUOUS
10
2.3956910236220472
20
0.8256910629921259
11
2.3930799212598424
21
0.827435748031496
0
LINE
8
BLACK
6
CONTINUOUS
10
2.3930799212598424
20
0.827435748031496
11
2.3930798818897636
21
0.8274357874015748
0
LINE
8
BLACK
6
CONTINUOUS
10
2.3930798818897636
20
0.8274357874015748
11
2.3907776377952756
21
0.8278937007874015
0
LINE
8
BLACK
6
CONTINUOUS
10
2.3907776377952756
20
0.8278937007874015
11
2.3907774803149606
21
0.8278937007874015
0
LINE
8
BLACK
6
CONTINUOUS
10
2.3907774803149606
20
0.8278937007874015
11
2.3292225196850391
21
0.8278937007874015
0
LINE
8
BLACK
6
CONTINUOUS
10
2.3292225196850391
20
0.8278937007874015
11
2.3292223228346458
21
0.8278937007874015
0
LINE
8
BLACK
6
CONTINUOUS
10
2.3292223228346458
20
0.8278937007874015
11
2.3269200787401574
21
0.8274357874015748
0
LINE
8
BLACK
6
CONTINUOUS
10
2.3269200787401574
20
0.8274357874015748
11
2.3269200393700786
21
0.827435748031496
0
LINE
8
BLACK
6
CONTINUOUS
10
2.3269200393700786
20
0.827435748031496
11
2.3243089370078738
21
0.8256910629921259
0
LINE
8
BLACK
6
CONTINUOUS
10
2.3243089370078738
20
0.8256910629921259
11
2.3225642519685037
21
0.8230799606299213
0
LINE
8
BLACK
6
CONTINUOUS
10
2.3225642519685037
20
0.8230799606299213
11
2.3225642125984249
21
0.8230799212598425
0
LINE
8
BLACK
6
CONTINUOUS
10
2.3225642125984249
20
0.8230799212598425
11
2.3221062992125985
21
0.8207776771653543
0
LINE
8
BLACK
6
CONTINUOUS
10
2.3221062992125985
20
0.8207776771653543
11
2.3221062992125985
21
0.7592223622047244
0
LINE
8
BLACK
6
CONTINUOUS
10
0.3011294094488189
20
0.8482100787401574
11
0.3011294094488189
21
0.8482100393700788
0
LINE
8
BLACK
6
CONTINUOUS
10
0.3011294094488189
20
0.8482100393700788
11
0.3012790551181102
21
0.8480822047244094
0
LINE
8
BLACK
6
CONTINUOUS
10
0.3012790551181102
20
0.8480822047244094
11
0.3012794488188976
21
0.8480819291338583
0
LINE
8
BLACK
6
CONTINUOUS
10
0.3012794488188976
20
0.8480819291338583
11
0.3098655118110236
21
0.8428203543307087
0
LINE
8
BLACK
6
CONTINUOUS
10
0.3098655118110236
20
0.8428203543307087
11
0.3098656299212598
21
0.8428202755905512
0
LINE
8
BLACK
6
CONTINUOUS
10
0.3098656299212598
20
0.8428202755905512
11
0.3191691732283464
21
0.838966653543307
0
LINE
8
BLACK
6
CONTINUOUS
10
0.3191691732283464
20
0.838966653543307
11
0.328961062992126
21
0.8366158661417322
0
LINE
8
BLACK
6
CONTINUOUS
10
0.328961062992126
20
0.8366158661417322
11
0.3289610236220472
21
0.8366158661417322
0
LINE
8
BLACK
6
CONTINUOUS
10
0.3289610236220472
20
0.8366158661417322
11
0.339
21
0.8358258267716535
0
LINE
8
BLACK
6
CONTINUOUS
10
0.339
20
0.8358258267716535
11
0.349038937007874
21
0.8366158661417322
0
LINE
8
BLACK
6
CONTINUOUS
10
0.349038937007874
20
0.8366158661417322
11
0.3588307874015748
21
0.838966653543307
0
LINE
8
BLACK
6
CONTINUOUS
10
0.3588307874015748
20
0.838966653543307
11
0.3681343307086614
21
0.8428202755905512
0
LINE
8
BLACK
6
CONTINUOUS
10
0.3681343307086614
20
0.8428202755905512
11
0.3681344488188976
21
0.8428203543307087
0
LINE
8
BLACK
6
CONTINUOUS
10
0.3681344488188976
20
0.8428203543307087
11
0.3767205905511811
21
0.8480819291338583
0
LINE
8
BLACK
6
CONTINUOUS
10
0.3767205905511811
20
0.8480819291338583
11
0.3768705511811024
21
0.8482100787401574
0
LINE
8
BLACK
6
CONTINUOUS
10
0.3768705511811024
20
0.8482100787401574
11
0.3624394488188976
21
0.8626411811023622
0
LINE
8
BLACK
6
CONTINUOUS
10
0.3624394488188976
20
0.8626411811023622
11
0.3587423622047244
21
0.8603520078740158
0
LINE
8
BLACK
6
CONTINUOUS
10
0.3587423622047244
20
0.8603520078740158
11
0.351120905511811
21
0.8573994488188976
0
LINE
8
BLACK
6
CONTINUOUS
10
0.351120905511811
20
0.8573994488188976
11
0.3430866929133858
21
0.8558975984251969
0
LINE
8
BLACK
6
CONTINUOUS
10
0.3430866929133858
20
0.8558975984251969
11
0.3349133070866142
21
0.8558975984251969
0
LINE
8
BLACK
6
CONTINUOUS
10
0.3349133070866142
20
0.8558975984251969
11
0.326879094488189
21
0.8573994488188976
0
LINE
8
BLACK
6
CONTINUOUS
10
0.326879094488189
20
0.8573994488188976
11
0.3192576377952756
21
0.8603520078740158
0
LINE
8
BLACK
6
CONTINUOUS
10
0.3192576377952756
20
0.8603520078740158
11
0.3155605118110236
21
0.862641220472441
0
LINE
8
BLACK
6
CONTINUOUS
10
0.3155605118110236
20
0.862641220472441
11
0.3011294094488189
21
0.8482100787401574
0
LINE
8
BLACK
6
CONTINUOUS
10
0.5011294094488189
20
0.8482100787401574
11
0.5011294094488189
21
0.8482100393700788
0
LINE
8
BLACK
6
CONTINUOUS
10
0.5011294094488189
20
0.8482100393700788
11
0.5012790551181102
21
0.8480822047244094
0
LINE
8
BLACK
6
CONTINUOUS
10
0.5012790551181102
20
0.8480822047244094
11
0.5012794488188976
21
0.8480819291338583
0
LINE
8
BLACK
6
CONTINUOUS
10
0.5012794488188976
20
0.8480819291338583
11
0.5098655118110236
21
0.8428203543307087
0
LINE
8
BLACK
6
CONTINUOUS
10
0.5098655118110236
20
0.8428203543307087
11
0.5098656299212598
21
0.8428202755905512
0
LINE
8
BLACK
6
CONTINUOUS
10
0.5098656299212598
20
0.8428202755905512
11
0.5191691732283464
21
0.838966653543307
0
LINE
8
BLACK
6
CONTINUOUS
10
0.5191691732283464
20
0.838966653543307
11
0.528961062992126
21
0.8366158661417322
0
LINE
8
BLACK
6
CONTINUOUS
10
0.528961062992126
20
0.8366158661417322
11
0.5289610236220472
21
0.8366158661417322
0
LINE
8
BLACK
6
CONTINUOUS
10
0.5289610236220472
20
0.8366158661417322
11
0.539
21
0.8358258267716535
0
LINE
8
BLACK
6
CONTINUOUS
10
0.539
20
0.8358258267716535
11
0.549038937007874
21
0.8366158661417322
0
LINE
8
BLACK
6
CONTINUOUS
10
0.549038937007874
20
0.8366158661417322
11
0.5588307874015748
21
0.838966653543307
0
LINE
8
BLACK
6
CONTINUOUS
10
0.5588307874015748
20
0.838966653543307
11
0.5681343307086614
21
0.8428202755905512
0
LINE
8
BLACK
6
CONTINUOUS
10
0.5681343307086614
20
0.8428202755905512
11
0.5681344488188976
21
0.8428203543307087
0
LINE
8
BLACK
6
CONTINUOUS
10
0.5681344488188976
20
0.8428203543307087
11
0.5767205905511811
21
0.8480819291338583
0
LINE
8
BLACK
6
CONTINUOUS
10
0.5767205905511811
20
0.8480819291338583
11
0.5768705511811023
21
0.8482100787401574
0
LINE
8
BLACK
6
CONTINUOUS
10
0.5768705511811023
20
0.8482100787401574
11
0.5624394488188976
21
0.8626411811023622
0
LINE
8
BLACK
6
CONTINUOUS
10
0.5624394488188976
20
0.8626411811023622
11
0.5587423622047244
21
0.8603520078740158
0
LINE
8
BLACK
6
CONTINUOUS
10
0.5587423622047244
20
0.8603520078740158
11
0.551120905511811
21
0.8573994488188976
0
LINE
8
BLACK
6
CONTINUOUS
10
0.551120905511811
20
0.8573994488188976
11
0.5430866929133858
21
0.8558975984251969
0
LINE
8
BLACK
6
CONTINUOUS
10
0.5430866929133858
20
0.8558975984251969
11
0.5349133070866141
21
0.8558975984251969
0
LINE
8
BLACK
6
CONTINUOUS
10
0.5349133070866141
20
0.8558975984251969
11
0.5268790944881889
21
0.8573994488188976
0
LINE
8
BLACK
6
CONTINUOUS
10
0.5268790944881889
20
0.8573994488188976
11
0.5192576377952756
21
0.8603520078740158
0
LINE
8
BLACK
6
CONTINUOUS
10
0.5192576377952756
20
0.8603520078740158
11
0.5155605118110236
21
0.862641220472441
0
LINE
8
BLACK
6
CONTINUOUS
10
0.5155605118110236
20
0.862641220472441
11
0.5011294094488189
21
0.8482100787401574
0
LINE
8
BLACK
6
CONTINUOUS
10
2.2103149606299213
20
0.8801574803149607
11
2.2103149606299213
21
0.8581163779527559
0
LINE
8
BLACK
6
CONTINUOUS
10
2.2103149606299213
20
0.8581163779527559
11
2.2105669685039371
21
0.8557727559055118
0
LINE
8
BLACK
6
CONTINUOUS
10
2.2105669685039371
20
0.8557727559055118
11
2.2105670472440946
21
0.8557724803149606
0
LINE
8
BLACK
6
CONTINUOUS
10
2.2105670472440946
20
0.8557724803149606
11
2.2125450787401575
21
0.8504690551181102
0
LINE
8
BLACK
6
CONTINUOUS
10
2.2125450787401575
20
0.8504690551181102
11
2.2125452362204725
21
0.8504687795275591
0
LINE
8
BLACK
6
CONTINUOUS
10
2.2125452362204725
20
0.8504687795275591
11
2.2159373622047243
21
0.8459375196850394
0
LINE
8
BLACK
6
CONTINUOUS
10
2.2159373622047243
20
0.8459375196850394
11
2.2159374803149605
21
0.8459374015748031
0
LINE
8
BLACK
6
CONTINUOUS
10
2.2159374803149605
20
0.8459374015748031
11
2.2204687401574801
21
0.8425452755905511
0
LINE
8
BLACK
6
CONTINUOUS
10
2.2204687401574801
20
0.8425452755905511
11
2.2204690157480313
21
0.8425451181102362
0
LINE
8
BLACK
6
CONTINUOUS
10
2.2204690157480313
20
0.8425451181102362
11
2.225772440944882
21
0.8405670866141732
0
LINE
8
BLACK
6
CONTINUOUS
10
2.225772440944882
20
0.8405670866141732
11
2.2257727165354328
21
0.8405670078740157
0
LINE
8
BLACK
6
CONTINUOUS
10
2.2257727165354328
20
0.8405670078740157
11
2.228116338582677
21
0.840315
0
LINE
8
BLACK
6
CONTINUOUS
10
2.228116338582677
20
0.840315
11
2.2281170078740158
21
0.8403149606299213
0
LINE
8
BLACK
6
CONTINUOUS
10
2.2281170078740158
20
0.8403149606299213
11
2.2501574803149604
21
0.8403149606299213
0
LINE
8
BLACK
6
CONTINUOUS
10
2.2501574803149604
20
0.8403149606299213
11
2.2501574803149604
21
0.86
0
LINE
8
BLACK
6
CONTINUOUS
10
2.2501574803149604
20
0.86
11
2.23
21
0.86
0
LINE
8
BLACK
6
CONTINUOUS
10
2.23
20
0.86
11
2.23
21
0.8801574803149607
0
LINE
8
BLACK
6
CONTINUOUS
10
2.23
20
0.8801574803149607
11
2.2103149606299213
21
0.8801574803149607
0
LINE
8
BLACK
6
CONTINUOUS
10
2.29
20
0.8801574803149607
11
2.29
21
0.86
0
LINE
8
BLACK
6
CONTINUOUS
10
2.29
20
0.86
11
2.2698425196850391
21
0.86
0
LINE
8
BLACK
6
CONTINUOUS
10
2.2698425196850391
20
0.86
11
2.2698425196850391
21
0.8403149606299213
0
LINE
8
BLACK
6
CONTINUOUS
10
2.2698425196850391
20
0.8403149606299213
11
2.2918829921259842
21
0.8403149606299213
0
LINE
8
BLACK
6
CONTINUOUS
10
2.2918829921259842
20
0.8403149606299213
11
2.2918836220472438
21
0.840315
0
LINE
8
BLACK
6
CONTINUOUS
10
2.2918836220472438
20
0.840315
11
2.294227244094488
21
0.8405670078740157
0
LINE
8
BLACK
6
CONTINUOUS
10
2.294227244094488
20
0.8405670078740157
11
2.2942275196850392
21
0.8405670866141732
0
LINE
8
BLACK
6
CONTINUOUS
10
2.2942275196850392
20
0.8405670866141732
11
2.2995309448818899
21
0.8425451181102362
0
LINE
8
BLACK
6
CONTINUOUS
10
2.2995309448818899
20
0.8425451181102362
11
2.2995312204724407
21
0.8425452755905511
0
LINE
8
BLACK
6
CONTINUOUS
10
2.2995312204724407
20
0.8425452755905511
11
2.304062440944882
21
0.8459373622047244
0
LINE
8
BLACK
6
CONTINUOUS
10
2.304062440944882
20
0.8459373622047244
11
2.3060918503937007
21
0.8486482677165355
0
LINE
8
BLACK
6
CONTINUOUS
10
2.3060918503937007
20
0.8486482677165355
11
2.3082939763779526
21
0.8502967322834646
0
LINE
8
BLACK
6
CONTINUOUS
10
2.3082939763779526
20
0.8502967322834646
11
2.3110377559055117
21
0.8504929527559055
0
LINE
8
BLACK
6
CONTINUOUS
10
2.3110377559055117
20
0.8504929527559055
11
2.3134520472440943
21
0.8491746456692914
0
LINE
8
BLACK
6
CONTINUOUS
10
2.3134520472440943
20
0.8491746456692914
11
2.313908149606299
21
0.8486482677165355
0
LINE
8
BLACK
6
CONTINUOUS
10
2.313908149606299
20
0.8486482677165355
11
2.3159375196850394
21
0.8459373622047244
0
LINE
8
BLACK
6
CONTINUOUS
10
2.3159375196850394
20
0.8459373622047244
11
2.3204687401574802
21
0.8425452755905511
0
LINE
8
BLACK
6
CONTINUOUS
10
2.3204687401574802
20
0.8425452755905511
11
2.3204690157480314
21
0.8425451181102362
0
LINE
8
BLACK
6
CONTINUOUS
10
2.3204690157480314
20
0.8425451181102362
11
2.3257724409448817
21
0.8405670866141732
0
LINE
8
BLACK
6
CONTINUOUS
10
2.3257724409448817
20
0.8405670866141732
11
2.3257727165354329
21
0.8405670078740157
0
LINE
8
BLACK
6
CONTINUOUS
10
2.3257727165354329
20
0.8405670078740157
11
2.3281163385826771
21
0.840315
0
LINE
8
BLACK
6
CONTINUOUS
10
2.3281163385826771
20
0.840315
11
2.3281170078740159
21
0.8403149606299213
0
LINE
8
BLACK
6
CONTINUOUS
10
2.3281170078740159
20
0.8403149606299213
11
2.3501574803149605
21
0.8403149606299213
0
LINE
8
BLACK
6
CONTINUOUS
10
2.3501574803149605
20
0.8403149606299213
11
2.3501574803149605
21
0.86
0
LINE
8
BLACK
6
CONTINUOUS
10
2.3501574803149605
20
0.86
11
2.3300000000000001
21
0.86
0
LINE
8
BLACK
6
CONTINUOUS
10
2.3300000000000001
20
0.86
11
2.3300000000000001
21
0.8801574803149607
0
LINE
8
BLACK
6
CONTINUOUS
10
2.3300000000000001
20
0.8801574803149607
11
2.29
21
0.8801574803149607
0
LINE
8
BLACK
6
CONTINUOUS
10
2.3900000000000001
20
0.86
11
2.3698425196850392
21
0.86
0
LINE
8
BLACK
6
CONTINUOUS
10
2.3698425196850392
20
0.86
11
2.3698425196850392
21
0.8403149606299213
0
LINE
8
BLACK
6
CONTINUOUS
10
2.3698425196850392
20
0.8403149606299213
11
2.3918829921259843
21
0.8403149606299213
0
LINE
8
BLACK
6
CONTINUOUS
10
2.3918829921259843
20
0.8403149606299213
11
2.3918836220472439
21
0.840315
0
LINE
8
BLACK
6
CONTINUOUS
10
2.3918836220472439
20
0.840315
11
2.3942272440944881
21
0.8405670078740157
0
LINE
8
BLACK
6
CONTINUOUS
10
2.3942272440944881
20
0.8405670078740157
11
2.3942275196850393
21
0.8405670866141732
0
LINE
8
BLACK
6
CONTINUOUS
10
2.3942275196850393
20
0.8405670866141732
11
2.3995309448818896
21
0.8425451181102362
0
LINE
8
BLACK
6
CONTINUOUS
10
2.3995309448818896
20
0.8425451181102362
11
2.3995312204724408
21
0.8425452755905511
0
LINE
8
BLACK
6
CONTINUOUS
10
2.3995312204724408
20
0.8425452755905511
11
2.4040624803149604
21
0.8459374015748031
0
LINE
8
BLACK
6
CONTINUOUS
10
2.4040624803149604
20
0.8459374015748031
11
2.4040625984251967
21
0.8459375196850394
0
LINE
8
BLACK
6
CONTINUOUS
10
2.4040625984251967
20
0.8459375196850394
11
2.4074547244094489
21
0.8504687795275591
0
LINE
8
BLACK
6
CONTINUOUS
10
2.4074547244094489
20
0.8504687795275591
11
2.4074548818897639
21
0.8504690551181102
0
LINE
8
BLACK
6
CONTINUOUS
10
2.4074548818897639
20
0.8504690551181102
11
2.4094329133858268
21
0.8557724803149606
0
LINE
8
BLACK
6
CONTINUOUS
10
2.4094329133858268
20
0.8557724803149606
11
2.4094329921259843
21
0.8557727559055118
0
LINE
8
BLACK
6
CONTINUOUS
10
2.4094329921259843
20
0.8557727559055118
11
2.4096850000000001
21
0.8581163779527559
0
LINE
8
BLACK
6
CONTINUOUS
10
2.4096850000000001
20
0.8581163779527559
11
2.4096850393700788
21
0.8581170472440944
0
LINE
8
BLACK
6
CONTINUOUS
10
2.4096850393700788
20
0.8581170472440944
11
2.4096850393700788
21
0.8801574803149607
0
LINE
8
BLACK
6
CONTINUOUS
10
2.4096850393700788
20
0.8801574803149607
11
2.3900000000000001
21
0.8801574803149607
0
LINE
8
BLACK
6
CONTINUOUS
10
2.3900000000000001
20
0.8801574803149607
11
2.3900000000000001
21
0.86
0
LINE
8
BLACK
6
CONTINUOUS
10
0.3764758661417323
20
0.9235565748031496
11
0.3766572440944882
21
0.9233163779527559
0
LINE
8
BLACK
6
CONTINUOUS
10
0.3766572440944882
20
0.9233163779527559
11
0.3803004330708661
21
0.9159998818897638
0
LINE
8
BLACK
6
CONTINUOUS
10
0.3803004330708661
20
0.9159998818897638
11
0.3825372047244094
21
0.9081385039370079
0
LINE
8
BLACK
6
CONTINUOUS
10
0.3825372047244094
20
0.9081385039370079
11
0.3832913385826772
21
0.9
0
LINE
8
BLACK
6
CONTINUOUS
10
0.3832913385826772
20
0.9
11
0.3825372047244094
21
0.8918614960629921
0
LINE
8
BLACK
6
CONTINUOUS
10
0.3825372047244094
20
0.8918614960629921
11
0.3803004330708661
21
0.8840001181102362
0
LINE
8
BLACK
6
CONTINUOUS
10
0.3803004330708661
20
0.8840001181102362
11
0.3766572440944882
21
0.876683622047244
0
LINE
8
BLACK
6
CONTINUOUS
10
0.3766572440944882
20
0.876683622047244
11
0.3764758661417323
21
0.8764435039370079
0
LINE
8
BLACK
6
CONTINUOUS
10
0.3764758661417323
20
0.8764435039370079
11
0.3907899212598425
21
0.8621294488188976
0
LINE
8
BLACK
6
CONTINUOUS
10
0.3907899212598425
20
0.8621294488188976
11
0.3909180708661417
21
0.8622794094488189
0
LINE
8
BLACK
6
CONTINUOUS
10
0.3909180708661417
20
0.8622794094488189
11
0.3961796456692913
21
0.8708655511811023
0
LINE
8
BLACK
6
CONTINUOUS
10
0.3961796456692913
20
0.8708655511811023
11
0.3961797244094488
21
0.8708656692913386
0
LINE
8
BLACK
6
CONTINUOUS
10
0.3961797244094488
20
0.8708656692913386
11
0.4000333464566929
21
0.8801692125984252
0
LINE
8
BLACK
6
CONTINUOUS
10
0.4000333464566929
20
0.8801692125984252
11
0.4023841338582677
21
0.889961062992126
0
LINE
8
BLACK
6
CONTINUOUS
10
0.4023841338582677
20
0.889961062992126
11
0.4031741732283464
21
0.9
0
LINE
8
BLACK
6
CONTINUOUS
10
0.4031741732283464
20
0.9
11
0.4023841338582677
21
0.9100389763779527
0
LINE
8
BLACK
6
CONTINUOUS
10
0.4023841338582677
20
0.9100389763779527
11
0.4000333464566929
21
0.9198308267716535
0
LINE
8
BLACK
6
CONTINUOUS
10
0.4000333464566929
20
0.9198308267716535
11
0.3961797244094488
21
0.9291343700787401
0
LINE
8
BLACK
6
CONTINUOUS
10
0.3961797244094488
20
0.9291343700787401
11
0.3961796456692913
21
0.9291344881889764
0
LINE
8
BLACK
6
CONTINUOUS
10
0.3961796456692913
20
0.9291344881889764
11
0.3909180708661417
21
0.9377205511811023
0
LINE
8
BLACK
6
CONTINUOUS
10
0.3909180708661417
20
0.9377205511811023
11
0.3909177952755906
21
0.9377209448818897
0
LINE
8
BLACK
6
CONTINUOUS
10
0.3909177952755906
20
0.9377209448818897
11
0.3907899606299213
21
0.937870590551181
0
LINE
8
BLACK
6
CONTINUOUS
10
0.3907899606299213
20
0.937870590551181
11
0.3907899212598425
21
0.937870590551181
0
LINE
8
BLACK
6
CONTINUOUS
10
0.3907899212598425
20
0.937870590551181
11
0.3764758661417323
21
0.9235565748031496
0
LINE
8
BLACK
6
CONTINUOUS
10
0.5961797244094488
20
0.9291343700787401
11
0.5961796456692914
21
0.9291344881889764
0
LINE
8
BLACK
6
CONTINUOUS
10
0.5961796456692914
20
0.9291344881889764
11
0.5909180708661417
21
0.9377205511811023
0
LINE
8
BLACK
6
CONTINUOUS
10
0.5909180708661417
20
0.9377205511811023
11
0.5909177952755905
21
0.9377209448818897
0
LINE
8
BLACK
6
CONTINUOUS
10
0.5909177952755905
20
0.9377209448818897
11
0.5907899606299213
21
0.937870590551181
0
LINE
8
BLACK
6
CONTINUOUS
10
0.5907899606299213
20
0.937870590551181
11
0.5907899212598425
21
0.937870590551181
0
LINE
8
BLACK
6
CONTINUOUS
10
0.5907899212598425
20
0.937870590551181
11
0.5764758661417323
21
0.9235565748031496
0
LINE
8
BLACK
6
CONTINUOUS
10
0.5764758661417323
20
0.9235565748031496
11
0.5766572440944882
21
0.9233163779527559
0
LINE
8
BLACK
6
CONTINUOUS
10
0.5766572440944882
20
0.9233163779527559
11
0.5803004330708661
21
0.9159998818897638
0
LINE
8
BLACK
6
CONTINUOUS
10
0.5803004330708661
20
0.9159998818897638
11
0.5825372047244094
21
0.9081385039370079
0
LINE
8
BLACK
6
CONTINUOUS
10
0.5825372047244094
20
0.9081385039370079
11
0.5832913385826771
21
0.9
0
LINE
8
BLACK
6
CONTINUOUS
10
0.5832913385826771
20
0.9
11
0.5825372047244094
21
0.8918614960629921
0
LINE
8
BLACK
6
CONTINUOUS
10
0.5825372047244094
20
0.8918614960629921
11
0.5803004330708661
21
0.8840001181102362
0
LINE
8
BLACK
6
CONTINUOUS
10
0.5803004330708661
20
0.8840001181102362
11
0.5766572440944882
21
0.876683622047244
0
LINE
8
BLACK
6
CONTINUOUS
10
0.5766572440944882
20
0.876683622047244
11
0.5764758661417323
21
0.8764435039370079
0
LINE
8
BLACK
6
CONTINUOUS
10
0.5764758661417323
20
0.8764435039370079
11
0.5907899212598425
21
0.8621294488188976
0
LINE
8
BLACK
6
CONTINUOUS
10
0.5907899212598425
20
0.8621294488188976
11
0.5909180708661417
21
0.8622794094488189
0
LINE
8
BLACK
6
CONTINUOUS
10
0.5909180708661417
20
0.8622794094488189
11
0.5961796456692914
21
0.8708655511811023
0
LINE
8
BLACK
6
CONTINUOUS
10
0.5961796456692914
20
0.8708655511811023
11
0.5961797244094488
21
0.8708656692913386
0
LINE
8
BLACK
6
CONTINUOUS
10
0.5961797244094488
20
0.8708656692913386
11
0.6000333464566929
21
0.8801692125984252
0
LINE
8
BLACK
6
CONTINUOUS
10
0.6000333464566929
20
0.8801692125984252
11
0.6023841338582677
21
0.889961062992126
0
LINE
8
BLACK
6
CONTINUOUS
10
0.6023841338582677
20
0.889961062992126
11
0.6031741732283464
21
0.9
0
LINE
8
BLACK
6
CONTINUOUS
10
0.6031741732283464
20
0.9
11
0.6023841338582677
21
0.9100389763779527
0
LINE
8
BLACK
6
CONTINUOUS
10
0.6023841338582677
20
0.9100389763779527
11
0.6000333464566929
21
0.9198308267716535
0
LINE
8
BLACK
6
CONTINUOUS
10
0.6000333464566929
20
0.9198308267716535
11
0.599183031496063
21
0.9218836614173228
0
LINE
8
BLACK
6
CONTINUOUS
10
0.599183031496063
20
0.9218836614173228
11
0.5961797244094488
21
0.9291343700787401
0
LINE
8
BLACK
6
CONTINUOUS
10
2.3698425196850392
20
0.9199999999999999
11
2.3900000000000001
21
0.9199999999999999
0
LINE
8
BLACK
6
CONTINUOUS
10
2.3900000000000001
20
0.9199999999999999
11
2.3900000000000001
21
0.8998425196850394
0
LINE
8
BLACK
6
CONTINUOUS
10
2.3900000000000001
20
0.8998425196850394
11
2.4096850393700788
21
0.8998425196850394
0
LINE
8
BLACK
6
CONTINUOUS
10
2.4096850393700788
20
0.8998425196850394
11
2.4096850393700788
21
0.9218829921259842
0
LINE
8
BLACK
6
CONTINUOUS
10
2.4096850393700788
20
0.9218829921259842
11
2.4096850000000001
21
0.9218836614173228
0
LINE
8
BLACK
6
CONTINUOUS
10
2.4096850000000001
20
0.9218836614173228
11
2.4094329921259843
21
0.924227283464567
0
LINE
8
BLACK
6
CONTINUOUS
10
2.4094329921259843
20
0.924227283464567
11
2.4094329133858268
21
0.9242275590551181
0
LINE
8
BLACK
6
CONTINUOUS
10
2.4094329133858268
20
0.9242275590551181
11
2.4074548818897639
21
0.9295309842519685
0
LINE
8
BLACK
6
CONTINUOUS
10
2.4074548818897639
20
0.9295309842519685
11
2.4074547244094489
21
0.9295312598425197
0
LINE
8
BLACK
6
CONTINUOUS
10
2.4074547244094489
20
0.9295312598425197
11
2.4040625984251967
21
0.9340625196850394
0
LINE
8
BLACK
6
CONTINUOUS
10
2.4040625984251967
20
0.9340625196850394
11
2.4040624803149604
21
0.9340626377952755
0
LINE
8
BLACK
6
CONTINUOUS
10
2.4040624803149604
20
0.9340626377952755
11
2.3995312204724408
21
0.9374547637795275
0
LINE
8
BLACK
6
CONTINUOUS
10
2.3995312204724408
20
0.9374547637795275
11
2.3995309448818896
21
0.9374549212598425
0
LINE
8
BLACK
6
CONTINUOUS
10
2.3995309448818896
20
0.9374549212598425
11
2.3942275196850393
21
0.9394329527559054
0
LINE
8
BLACK
6
CONTINUOUS
10
2.3942275196850393
20
0.9394329527559054
11
2.3942272440944881
21
0.9394330314960629
0
LINE
8
BLACK
6
CONTINUOUS
10
2.3942272440944881
20
0.9394330314960629
11
2.3918836220472439
21
0.9396850393700787
0
LINE
8
BLACK
6
CONTINUOUS
10
2.3918836220472439
20
0.9396850393700787
11
2.3698425196850392
21
0.9396850393700787
0
LINE
8
BLACK
6
CONTINUOUS
10
2.3698425196850392
20
0.9396850393700787
11
2.3698425196850392
21
0.9199999999999999
0
LINE
8
BLACK
6
CONTINUOUS
10
2.2698425196850391
20
0.9199999999999999
11
2.29
21
0.9199999999999999
0
LINE
8
BLACK
6
CONTINUOUS
10
2.29
20
0.9199999999999999
11
2.29
21
0.8998425196850394
0
LINE
8
BLACK
6
CONTINUOUS
10
2.29
20
0.8998425196850394
11
2.3300000000000001
21
0.8998425196850394
0
LINE
8
BLACK
6
CONTINUOUS
10
2.3300000000000001
20
0.8998425196850394
11
2.3300000000000001
21
0.9199999999999999
0
LINE
8
BLACK
6
CONTINUOUS
10
2.3300000000000001
20
0.9199999999999999
11
2.3501574803149605
21
0.9199999999999999
0
LINE
8
BLACK
6
CONTINUOUS
10
2.3501574803149605
20
0.9199999999999999
11
2.3501574803149605
21
0.9396850393700787
0
LINE
8
BLACK
6
CONTINUOUS
10
2.3501574803149605
20
0.9396850393700787
11
2.3281163385826771
21
0.9396850393700787
0
LINE
8
BLACK
6
CONTINUOUS
10
2.3281163385826771
20
0.9396850393700787
11
2.3257727165354329
21
0.9394330314960629
0
LINE
8
BLACK
6
CONTINUOUS
10
2.3257727165354329
20
0.9394330314960629
11
2.3257724409448817
21
0.9394329527559054
0
LINE
8
BLACK
6
CONTINUOUS
10
2.3257724409448817
20
0.9394329527559054
11
2.3204690157480314
21
0.9374549212598425
0
LINE
8
BLACK
6
CONTINUOUS
10
2.3204690157480314
20
0.9374549212598425
11
2.3204687401574802
21
0.9374547637795275
0
LINE
8
BLACK
6
CONTINUOUS
10
2.3204687401574802
20
0.9374547637795275
11
2.3159374803149606
21
0.9340626377952755
0
LINE
8
BLACK
6
CONTINUOUS
10
2.3159374803149606
20
0.9340626377952755
11
2.3139081102362202
21
0.9313517322834646
0
LINE
8
BLACK
6
CONTINUOUS
10
2.3139081102362202
20
0.9313517322834646
11
2.3117059842519683
21
0.9297033070866142
0
LINE
8
BLACK
6
CONTINUOUS
10
2.3117059842519683
20
0.9297033070866142
11
2.3089622440944879
21
0.9295070866141733
0
LINE
8
BLACK
6
CONTINUOUS
10
2.3089622440944879
20
0.9295070866141733
11
2.3065479527559054
21
0.9308254330708661
0
LINE
8
BLACK
6
CONTINUOUS
10
2.3065479527559054
20
0.9308254330708661
11
2.3060918897637794
21
0.9313517322834646
0
LINE
8
BLACK
6
CONTINUOUS
10
2.3060918897637794
20
0.9313517322834646
11
2.3040624803149607
21
0.9340626377952755
0
LINE
8
BLACK
6
CONTINUOUS
10
2.3040624803149607
20
0.9340626377952755
11
2.2995312204724407
21
0.9374547637795275
0
LINE
8
BLACK
6
CONTINUOUS
10
2.2995312204724407
20
0.9374547637795275
11
2.2995309448818899
21
0.9374549212598425
0
LINE
8
BLACK
6
CONTINUOUS
10
2.2995309448818899
20
0.9374549212598425
11
2.2942275196850392
21
0.9394329527559054
0
LINE
8
BLACK
6
CONTINUOUS
10
2.2942275196850392
20
0.9394329527559054
11
2.294227244094488
21
0.9394330314960629
0
LINE
8
BLACK
6
CONTINUOUS
10
2.294227244094488
20
0.9394330314960629
11
2.2918836220472438
21
0.9396850393700787
0
LINE
8
BLACK
6
CONTINUOUS
10
2.2918836220472438
20
0.9396850393700787
11
2.2698425196850391
21
0.9396850393700787
0
LINE
8
BLACK
6
CONTINUOUS
10
2.2698425196850391
20
0.9396850393700787
11
2.2698425196850391
21
0.9199999999999999
0
LINE
8
BLACK
6
CONTINUOUS
10
0.3289610236220472
20
0.9633841732283465
11
0.3191691732283464
21
0.9610333858267717
0
LINE
8
BLACK
6
CONTINUOUS
10
0.3191691732283464
20
0.9610333858267717
11
0.3098656299212598
21
0.9571797637795275
0
LINE
8
BLACK
6
CONTINUOUS
10
0.3098656299212598
20
0.9571797637795275
11
0.3098655118110236
21
0.95717968503937
0
LINE
8
BLACK
6
CONTINUOUS
10
0.3098655118110236
20
0.95717968503937
11
0.3012794094488189
21
0.9519181102362204
0
LINE
8
BLACK
6
CONTINUOUS
10
0.3012794094488189
20
0.9519181102362204
11
0.3011294094488189
21
0.95179
0
LINE
8
BLACK
6
CONTINUOUS
10
0.3011294094488189
20
0.95179
11
0.3155605511811024
21
0.9373588582677165
0
LINE
8
BLACK
6
CONTINUOUS
10
0.3155605511811024
20
0.9373588582677165
11
0.3192576377952756
21
0.9396479921259843
0
LINE
8
BLACK
6
CONTINUOUS
10
0.3192576377952756
20
0.9396479921259843
11
0.326879094488189
21
0.9426005511811023
0
LINE
8
BLACK
6
CONTINUOUS
10
0.326879094488189
20
0.9426005511811023
11
0.3349133070866142
21
0.9441024015748031
0
LINE
8
BLACK
6
CONTINUOUS
10
0.3349133070866142
20
0.9441024015748031
11
0.3430866929133858
21
0.9441024015748031
0
LINE
8
BLACK
6
CONTINUOUS
10
0.3430866929133858
20
0.9441024015748031
11
0.351120905511811
21
0.9426005511811023
0
LINE
8
BLACK
6
CONTINUOUS
10
0.351120905511811
20
0.9426005511811023
11
0.3587423622047244
21
0.9396479921259843
0
LINE
8
BLACK
6
CONTINUOUS
10
0.3587423622047244
20
0.9396479921259843
11
0.3624393700787402
21
0.9373588976377952
0
LINE
8
BLACK
6
CONTINUOUS
10
0.3624393700787402
20
0.9373588976377952
11
0.3768705118110236
21
0.9517899606299213
0
LINE
8
BLACK
6
CONTINUOUS
10
0.3768705118110236
20
0.9517899606299213
11
0.3768705118110236
21
0.9517900393700787
0
LINE
8
BLACK
6
CONTINUOUS
10
0.3768705118110236
20
0.9517900393700787
11
0.3767208661417323
21
0.951917874015748
0
LINE
8
BLACK
6
CONTINUOUS
10
0.3767208661417323
20
0.951917874015748
11
0.3767202755905512
21
0.9519183070866142
0
LINE
8
BLACK
6
CONTINUOUS
10
0.3767202755905512
20
0.9519183070866142
11
0.3681344488188976
21
0.95717968503937
0
LINE
8
BLACK
6
CONTINUOUS
10
0.3681344488188976
20
0.95717968503937
11
0.3681343307086614
21
0.9571797637795275
0
LINE
8
BLACK
6
CONTINUOUS
10
0.3681343307086614
20
0.9571797637795275
11
0.3588307874015748
21
0.9610333858267717
0
LINE
8
BLACK
6
CONTINUOUS
10
0.3588307874015748
20
0.9610333858267717
11
0.3490388976377953
21
0.9633841732283465
0
LINE
8
BLACK
6
CONTINUOUS
10
0.3490388976377953
20
0.9633841732283465
11
0.349038937007874
21
0.9633841732283465
0
LINE
8
BLACK
6
CONTINUOUS
10
0.349038937007874
20
0.9633841732283465
11
0.339
21
0.9641742125984252
0
LINE
8
BLACK
6
CONTINUOUS
10
0.339
20
0.9641742125984252
11
0.3289610236220472
21
0.9633841732283465
0
LINE
8
BLACK
6
CONTINUOUS
10
0.5289610236220472
20
0.9633841732283465
11
0.5191691732283464
21
0.9610333858267717
0
LINE
8
BLACK
6
CONTINUOUS
10
0.5191691732283464
20
0.9610333858267717
11
0.5098656299212598
21
0.9571797637795275
0
LINE
8
BLACK
6
CONTINUOUS
10
0.5098656299212598
20
0.9571797637795275
11
0.5098655118110236
21
0.95717968503937
0
LINE
8
BLACK
6
CONTINUOUS
10
0.5098655118110236
20
0.95717968503937
11
0.5012794094488189
21
0.9519181102362204
0
LINE
8
BLACK
6
CONTINUOUS
10
0.5012794094488189
20
0.9519181102362204
11
0.5011294094488189
21
0.95179
0
LINE
8
BLACK
6
CONTINUOUS
10
0.5011294094488189
20
0.95179
11
0.5155605511811023
21
0.9373588582677165
0
LINE
8
BLACK
6
CONTINUOUS
10
0.5155605511811023
20
0.9373588582677165
11
0.5192576377952756
21
0.9396479921259843
0
LINE
8
BLACK
6
CONTINUOUS
10
0.5192576377952756
20
0.9396479921259843
11
0.5268790944881889
21
0.9426005511811023
0
LINE
8
BLACK
6
CONTINUOUS
10
0.5268790944881889
20
0.9426005511811023
11
0.5349133070866141
21
0.9441024015748031
0
LINE
8
BLACK
6
CONTINUOUS
10
0.5349133070866141
20
0.9441024015748031
11
0.5430866929133858
21
0.9441024015748031
0
LINE
8
BLACK
6
CONTINUOUS
10
0.5430866929133858
20
0.9441024015748031
11
0.551120905511811
21
0.9426005511811023
0
LINE
8
BLACK
6
CONTINUOUS
10
0.551120905511811
20
0.9426005511811023
11
0.5587423622047244
21
0.9396479921259843
0
LINE
8
BLACK
6
CONTINUOUS
10
0.5587423622047244
20
0.9396479921259843
11
0.5624393700787401
21
0.9373588976377952
0
LINE
8
BLACK
6
CONTINUOUS
10
0.5624393700787401
20
0.9373588976377952
11
0.5768705118110236
21
0.9517899606299213
0
LINE
8
BLACK
6
CONTINUOUS
10
0.5768705118110236
20
0.9517899606299213
11
0.5768705118110236
21
0.9517900393700787
0
LINE
8
BLACK
6
CONTINUOUS
10
0.5768705118110236
20
0.9517900393700787
11
0.5767208661417322
21
0.951917874015748
0
LINE
8
BLACK
6
CONTINUOUS
10
0.5767208661417322
20
0.951917874015748
11
0.5767202755905512
21
0.9519183070866142
0
LINE
8
BLACK
6
CONTINUOUS
10
0.5767202755905512
20
0.9519183070866142
11
0.5681344488188976
21
0.95717968503937
0
LINE
8
BLACK
6
CONTINUOUS
10
0.5681344488188976
20
0.95717968503937
11
0.5681343307086614
21
0.9571797637795275
0
LINE
8
BLACK
6
CONTINUOUS
10
0.5681343307086614
20
0.9571797637795275
11
0.5588307874015748
21
0.9610333858267717
0
LINE
8
BLACK
6
CONTINUOUS
10
0.5588307874015748
20
0.9610333858267717
11
0.5490388976377952
21
0.9633841732283465
0
LINE
8
BLACK
6
CONTINUOUS
10
0.5490388976377952
20
0.9633841732283465
11
0.549038937007874
21
0.9633841732283465
0
LINE
8
BLACK
6
CONTINUOUS
10
0.549038937007874
20
0.9633841732283465
11
0.539
21
0.9641742125984252
0
LINE
8
BLACK
6
CONTINUOUS
10
0.539
20
0.9641742125984252
11
0.5289610236220472
21
0.9633841732283465
0
LINE
8
BLACK
6
CONTINUOUS
10
0.3905676771653543
20
0.9999999606299212
11
0.3913034251968504
21
0.9915900393700787
0
LINE
8
BLACK
6
CONTINUOUS
10
0.3913034251968504
20
0.9915900393700787
11
0.3913035039370079
21
0.9915896062992126
0
LINE
8
BLACK
6
CONTINUOUS
10
0.3913035039370079
20
0.9915896062992126
11
0.3934883858267716
21
0.9834354724409449
0
LINE
8
BLACK
6
CONTINUOUS
10
0.3934883858267716
20
0.9834354724409449
11
0.3934884645669292
21
0.9834353149606299
0
LINE
8
BLACK
6
CONTINUOUS
10
0.3934884645669292
20
0.9834353149606299
11
0.3934885039370078
21
0.983435157480315
0
LINE
8
BLACK
6
CONTINUOUS
10
0.3934885039370078
20
0.983435157480315
11
0.3952724409448819
21
0.9796094881889763
0
LINE
8
BLACK
6
CONTINUOUS
10
0.3952724409448819
20
0.9796094881889763
11
0.3970563385826771
21
0.9757838582677165
0
LINE
8
BLACK
6
CONTINUOUS
10
0.3970563385826771
20
0.9757838582677165
11
0.3970563779527559
21
0.9757838188976378
0
LINE
8
BLACK
6
CONTINUOUS
10
0.3970563779527559
20
0.9757838188976378
11
0.4018987007874016
21
0.9688683070866142
0
LINE
8
BLACK
6
CONTINUOUS
10
0.4018987007874016
20
0.9688683070866142
11
0.4078683070866141
21
0.9628987007874016
0
LINE
8
BLACK
6
CONTINUOUS
10
0.4078683070866141
20
0.9628987007874016
11
0.4147838188976378
21
0.9580563779527559
0
LINE
8
BLACK
6
CONTINUOUS
10
0.4147838188976378
20
0.9580563779527559
11
0.422435157480315
21
0.9544885039370079
0
LINE
8
BLACK
6
CONTINUOUS
10
0.422435157480315
20
0.9544885039370079
11
0.4305898031496063
21
0.9523034645669292
0
LINE
8
BLACK
6
CONTINUOUS
10
0.4305898031496063
20
0.9523034645669292
11
0.4364583464566929
21
0.9517900393700787
0
LINE
8
BLACK
6
CONTINUOUS
10
0.4364583464566929
20
0.9517900393700787
11
0.4389999212598425
21
0.9515676771653543
0
LINE
8
BLACK
6
CONTINUOUS
10
0.4389999212598425
20
0.9515676771653543
11
0.439
21
0.9515676771653543
0
LINE
8
BLACK
6
CONTINUOUS
10
0.439
20
0.9515676771653543
11
0.4390000787401575
21
0.9515676771653543
0
LINE
8
BLACK
6
CONTINUOUS
10
0.4390000787401575
20
0.9515676771653543
11
0.4411025196850394
21
0.951751653543307
0
LINE
8
BLACK
6
CONTINUOUS
10
0.4411025196850394
20
0.951751653543307
11
0.4474101968503937
21
0.9523034645669292
0
LINE
8
BLACK
6
CONTINUOUS
10
0.4474101968503937
20
0.9523034645669292
11
0.455564842519685
21
0.9544885039370079
0
LINE
8
BLACK
6
CONTINUOUS
10
0.455564842519685
20
0.9544885039370079
11
0.4632161811023622
21
0.9580563779527559
0
LINE
8
BLACK
6
CONTINUOUS
10
0.4632161811023622
20
0.9580563779527559
11
0.4701316929133858
21
0.9628987007874016
0
LINE
8
BLACK
6
CONTINUOUS
10
0.4701316929133858
20
0.9628987007874016
11
0.4761012992125984
21
0.9688683070866142
0
LINE
8
BLACK
6
CONTINUOUS
10
0.4761012992125984
20
0.9688683070866142
11
0.4809436220472441
21
0.9757838188976378
0
LINE
8
BLACK
6
CONTINUOUS
10
0.4809436220472441
20
0.9757838188976378
11
0.4845114960629921
21
0.983435157480315
0
LINE
8
BLACK
6
CONTINUOUS
10
0.4845114960629921
20
0.983435157480315
11
0.4866965354330708
21
0.9915898031496063
0
LINE
8
BLACK
6
CONTINUOUS
10
0.4866965354330708
20
0.9915898031496063
11
0.4874323228346457
21
1.
0
LINE
8
BLACK
6
CONTINUOUS
10
0.4874323228346457
20
1.
11
0.4866965354330708
21
1.0084101968503936
0
LINE
8
BLACK
6
CONTINUOUS
10
0.4866965354330708
20
1.0084101968503936
11
0.4845114960629921
21
1.0165648425196849
0
LINE
8
BLACK
6
CONTINUOUS
10
0.4845114960629921
20
1.0165648425196849
11
0.4809436220472441
21
1.0242161417322835
0
LINE
8
BLACK
6
CONTINUOUS
10
0.4809436220472441
20
1.0242161417322835
11
0.4790503149606299
21
1.0269200393700788
0
LINE
8
BLACK
6
CONTINUOUS
10
0.4790503149606299
20
1.0269200393700788
11
0.4761014173228346
21
1.0311315354330708
0
LINE
8
BLACK
6
CONTINUOUS
10
0.4761014173228346
20
1.0311315354330708
11
0.4761012204724409
21
1.0311317716535433
0
LINE
8
BLACK
6
CONTINUOUS
10
0.4761012204724409
20
1.0311317716535433
11
0.4701316929133858
21
1.0371012992125983
0
LINE
8
BLACK
6
CONTINUOUS
10
0.4701316929133858
20
1.0371012992125983
11
0.4632161417322835
21
1.0419436614173228
0
LINE
8
BLACK
6
CONTINUOUS
10
0.4632161417322835
20
1.0419436614173228
11
0.4593905118110236
21
1.043727559055118
0
LINE
8
BLACK
6
CONTINUOUS
10
0.4593905118110236
20
1.043727559055118
11
0.455564842519685
21
1.0455114960629921
0
LINE
8
BLACK
6
CONTINUOUS
10
0.455564842519685
20
1.0455114960629921
11
0.4555646850393701
21
1.0455115354330708
0
LINE
8
BLACK
6
CONTINUOUS
10
0.4555646850393701
20
1.0455115354330708
11
0.4555645275590551
21
1.0455116141732284
0
LINE
8
BLACK
6
CONTINUOUS
10
0.4555645275590551
20
1.0455116141732284
11
0.4474103937007874
21
1.0476964960629922
0
LINE
8
BLACK
6
CONTINUOUS
10
0.4474103937007874
20
1.0476964960629922
11
0.4474102362204724
21
1.047696535433071
0
LINE
8
BLACK
6
CONTINUOUS
10
0.4474102362204724
20
1.047696535433071
11
0.4474101968503937
21
1.047696535433071
0
LINE
8
BLACK
6
CONTINUOUS
10
0.4474101968503937
20
1.047696535433071
11
0.4474101574803149
21
1.0476965748031495
0
LINE
8
BLACK
6
CONTINUOUS
10
0.4474101574803149
20
1.0476965748031495
11
0.4474099606299213
21
1.0476965748031495
0
LINE
8
BLACK
6
CONTINUOUS
10
0.4474099606299213
20
1.0476965748031495
11
0.4390000787401575
21
1.0484323228346457
0
LINE
8
BLACK
6
CONTINUOUS
10
0.4390000787401575
20
1.0484323228346457
11
0.4389999212598425
21
1.0484323228346457
0
LINE
8
BLACK
6
CONTINUOUS
10
0.4389999212598425
20
1.0484323228346457
11
0.43059
21
1.0476965748031495
0
LINE
8
BLACK
6
CONTINUOUS
10
0.43059
20
1.0476965748031495
11
0.4305895669291339
21
1.0476964960629922
0
LINE
8
BLACK
6
CONTINUOUS
10
0.4305895669291339
20
1.0476964960629922
11
0.4224354330708661
21
1.0455116141732284
0
LINE
8
BLACK
6
CONTINUOUS
10
0.4224354330708661
20
1.0455116141732284
11
0.4224350787401575
21
1.0455114566929133
0
LINE
8
BLACK
6
CONTINUOUS
10
0.4224350787401575
20
1.0455114566929133
11
0.4147838582677165
21
1.0419436614173228
0
LINE
8
BLACK
6
CONTINUOUS
10
0.4147838582677165
20
1.0419436614173228
11
0.4147837795275591
21
1.041943622047244
0
LINE
8
BLACK
6
CONTINUOUS
10
0.4147837795275591
20
1.041943622047244
11
0.4078684645669291
21
1.0371014566929133
0
LINE
8
BLACK
6
CONTINUOUS
10
0.4078684645669291
20
1.0371014566929133
11
0.4078682283464567
21
1.0371012598425196
0
LINE
8
BLACK
6
CONTINUOUS
10
0.4078682283464567
20
1.0371012598425196
11
0.4018987401574803
21
1.0311317716535433
0
LINE
8
BLACK
6
CONTINUOUS
10
0.4018987401574803
20
1.0311317716535433
11
0.4018985433070866
21
1.0311315354330708
0
LINE
8
BLACK
6
CONTINUOUS
10
0.4018985433070866
20
1.0311315354330708
11
0.3970563779527559
21
1.024216220472441
0
LINE
8
BLACK
6
CONTINUOUS
10
0.3970563779527559
20
1.024216220472441
11
0.3970563385826771
21
1.0242161417322835
0
LINE
8
BLACK
6
CONTINUOUS
10
0.3970563385826771
20
1.0242161417322835
11
0.3934885433070866
21
1.0165649212598424
0
LINE
8
BLACK
6
CONTINUOUS
10
0.3934885433070866
20
1.0165649212598424
11
0.3934883858267716
21
1.0165645669291339
0
LINE
8
BLACK
6
CONTINUOUS
10
0.3934883858267716
20
1.0165645669291339
11
0.3913035039370079
21
1.0084104330708661
0
LINE
8
BLACK
6
CONTINUOUS
10
0.3913035039370079
20
1.0084104330708661
11
0.3913034251968504
21
1.00841
0
LINE
8
BLACK
6
CONTINUOUS
10
0.3913034251968504
20
1.00841
11
0.3905676771653543
21
1.0000000787401575
0
LINE
8
BLACK
6
CONTINUOUS
10
0.3905676771653543
20
1.0000000787401575
11
0.3905676771653543
21
0.9999999606299212
0
LINE
8
BLACK
6
CONTINUOUS
10
0.5764758661417323
20
1.1235565748031495
11
0.5766572440944882
21
1.123316377952756
0
LINE
8
BLACK
6
CONTINUOUS
10
0.5766572440944882
20
1.123316377952756
11
0.5803004330708661
21
1.1159998818897638
0
LINE
8
BLACK
6
CONTINUOUS
10
0.5803004330708661
20
1.1159998818897638
11
0.5825372047244094
21
1.1081385039370077
0
LINE
8
BLACK
6
CONTINUOUS
10
0.5825372047244094
20
1.1081385039370077
11
0.5832913385826771
21
1.0999999999999999
0
LINE
8
BLACK
6
CONTINUOUS
10
0.5832913385826771
20
1.0999999999999999
11
0.5825372047244094
21
1.0918614960629922
0
LINE
8
BLACK
6
CONTINUOUS
10
0.5825372047244094
20
1.0918614960629922
11
0.5803004330708661
21
1.0840001181102361
0
LINE
8
BLACK
6
CONTINUOUS
10
0.5803004330708661
20
1.0840001181102361
11
0.5766572440944882
21
1.076683622047244
0
LINE
8
BLACK
6
CONTINUOUS
10
0.5766572440944882
20
1.076683622047244
11
0.5764758661417323
21
1.0764435039370079
0
LINE
8
BLACK
6
CONTINUOUS
10
0.5764758661417323
20
1.0764435039370079
11
0.5907899212598425
21
1.0621294488188977
0
LINE
8
BLACK
6
CONTINUOUS
10
0.5907899212598425
20
1.0621294488188977
11
0.5909180708661417
21
1.0622794094488188
0
LINE
8
BLACK
6
CONTINUOUS
10
0.5909180708661417
20
1.0622794094488188
11
0.5961796456692914
21
1.0708655511811023
0
LINE
8
BLACK
6
CONTINUOUS
10
0.5961796456692914
20
1.0708655511811023
11
0.5961797244094488
21
1.0708656692913385
0
LINE
8
BLACK
6
CONTINUOUS
10
0.5961797244094488
20
1.0708656692913385
11
0.6000333464566929
21
1.0801692125984252
0
LINE
8
BLACK
6
CONTINUOUS
10
0.6000333464566929
20
1.0801692125984252
11
0.6023841338582677
21
1.0899610629921259
0
LINE
8
BLACK
6
CONTINUOUS
10
0.6023841338582677
20
1.0899610629921259
11
0.6024483858267716
21
1.0907776771653543
0
LINE
8
BLACK
6
CONTINUOUS
10
0.6024483858267716
20
1.0907776771653543
11
0.6031741732283464
21
1.0999999999999999
0
LINE
8
BLACK
6
CONTINUOUS
10
0.6031741732283464
20
1.0999999999999999
11
0.6023841338582677
21
1.1100389763779528
0
LINE
8
BLACK
6
CONTINUOUS
10
0.6023841338582677
20
1.1100389763779528
11
0.6000333464566929
21
1.1198308267716535
0
LINE
8
BLACK
6
CONTINUOUS
10
0.6000333464566929
20
1.1198308267716535
11
0.5961797244094488
21
1.1291343700787402
0
LINE
8
BLACK
6
CONTINUOUS
10
0.5961797244094488
20
1.1291343700787402
11
0.5961796456692914
21
1.1291344881889764
0
LINE
8
BLACK
6
CONTINUOUS
10
0.5961796456692914
20
1.1291344881889764
11
0.5909180708661417
21
1.1377205511811024
0
LINE
8
BLACK
6
CONTINUOUS
10
0.5909180708661417
20
1.1377205511811024
11
0.5909177952755905
21
1.1377209448818897
0
LINE
8
BLACK
6
CONTINUOUS
10
0.5909177952755905
20
1.1377209448818897
11
0.5907899606299213
21
1.137870590551181
0
LINE
8
BLACK
6
CONTINUOUS
10
0.5907899606299213
20
1.137870590551181
11
0.5907899212598425
21
1.137870590551181
0
LINE
8
BLACK
6
CONTINUOUS
10
0.5907899212598425
20
1.137870590551181
11
0.5764758661417323
21
1.1235565748031495
0
LINE
8
BLACK
6
CONTINUOUS
10
2.2221062598425196
20
1.0292223622047243
11
2.2225641732283465
21
1.0269201181102361
0
LINE
8
BLACK
6
CONTINUOUS
10
2.2225641732283465
20
1.0269201181102361
11
2.2225642125984253
21
1.0269200787401576
0
LINE
8
BLACK
6
CONTINUOUS
10
2.2225642125984253
20
1.0269200787401576
11
2.2243088976377954
21
1.0243089763779527
0
LINE
8
BLACK
6
CONTINUOUS
10
2.2243088976377954
20
1.0243089763779527
11
2.2269199999999998
21
1.0225642913385826
0
LINE
8
BLACK
6
CONTINUOUS
10
2.2269199999999998
20
1.0225642913385826
11
2.2269200393700785
21
1.0225642519685039
0
LINE
8
BLACK
6
CONTINUOUS
10
2.2269200393700785
20
1.0225642519685039
11
2.229222283464567
21
1.0221063385826772
0
LINE
8
BLACK
6
CONTINUOUS
10
2.229222283464567
20
1.0221063385826772
11
2.2292224015748032
21
1.0221062992125984
0
LINE
8
BLACK
6
CONTINUOUS
10
2.2292224015748032
20
1.0221062992125984
11
2.2292224803149607
21
1.0221062992125984
0
LINE
8
BLACK
6
CONTINUOUS
10
2.2292224803149607
20
1.0221062992125984
11
2.2907775196850393
21
1.0221062992125984
0
LINE
8
BLACK
6
CONTINUOUS
10
2.2907775196850393
20
1.0221062992125984
11
2.290777559055118
21
1.0221063385826772
0
LINE
8
BLACK
6
CONTINUOUS
10
2.290777559055118
20
1.0221063385826772
11
2.2913609055118109
21
1.0222223622047244
0
LINE
8
BLACK
6
CONTINUOUS
10
2.2913609055118109
20
1.0222223622047244
11
2.2930798425196848
21
1.0225642519685039
0
LINE
8
BLACK
6
CONTINUOUS
10
2.2930798425196848
20
1.0225642519685039
11
2.2930798425196848
21
1.0225642913385826
0
LINE
8
BLACK
6
CONTINUOUS
10
2.2930798425196848
20
1.0225642913385826
11
2.2930799212598423
21
1.0225642913385826
0
LINE
8
BLACK
6
CONTINUOUS
10
2.2930799212598423
20
1.0225642913385826
11
2.2956909842519684
21
1.0243089763779527
0
LINE
8
BLACK
6
CONTINUOUS
10
2.2956909842519684
20
1.0243089763779527
11
2.2974356692913385
21
1.0269200393700788
0
LINE
8
BLACK
6
CONTINUOUS
10
2.2974356692913385
20
1.0269200393700788
11
2.2974356692913385
21
1.0269201181102361
0
LINE
8
BLACK
6
CONTINUOUS
10
2.2974356692913385
20
1.0269201181102361
11
2.2974357086614172
21
1.0269201181102361
0
LINE
8
BLACK
6
CONTINUOUS
10
2.2974357086614172
20
1.0269201181102361
11
2.2978936220472441
21
1.0292223622047243
0
LINE
8
BLACK
6
CONTINUOUS
10
2.2978936220472441
20
1.0292223622047243
11
2.2978936614173229
21
1.0292224409448818
0
LINE
8
BLACK
6
CONTINUOUS
10
2.2978936614173229
20
1.0292224409448818
11
2.2978936614173229
21
1.0907775984251968
0
LINE
8
BLACK
6
CONTINUOUS
10
2.2978936614173229
20
1.0907775984251968
11
2.2978936220472441
21
1.0907776771653543
0
LINE
8
BLACK
6
CONTINUOUS
10
2.2978936220472441
20
1.0907776771653543
11
2.2974357086614172
21
1.0930799212598425
0
LINE
8
BLACK
6
CONTINUOUS
10
2.2974357086614172
20
1.0930799212598425
11
2.2974356692913385
21
1.0930799606299213
0
LINE
8
BLACK
6
CONTINUOUS
10
2.2974356692913385
20
1.0930799606299213
11
2.2956909842519684
21
1.0956910629921259
0
LINE
8
BLACK
6
CONTINUOUS
10
2.2956909842519684
20
1.0956910629921259
11
2.2930798818897635
21
1.097435748031496
0
LINE
8
BLACK
6
CONTINUOUS
10
2.2930798818897635
20
1.097435748031496
11
2.2930798425196848
21
1.0974357874015748
0
LINE
8
BLACK
6
CONTINUOUS
10
2.2930798425196848
20
1.0974357874015748
11
2.2907775984251968
21
1.0978937007874014
0
LINE
8
BLACK
6
CONTINUOUS
10
2.2907775984251968
20
1.0978937007874014
11
2.2907774409448818
21
1.0978937007874014
0
LINE
8
BLACK
6
CONTINUOUS
10
2.2907774409448818
20
1.0978937007874014
11
2.2292224803149607
21
1.0978937007874014
0
LINE
8
BLACK
6
CONTINUOUS
10
2.2292224803149607
20
1.0978937007874014
11
2.229222283464567
21
1.0978937007874014
0
LINE
8
BLACK
6
CONTINUOUS
10
2.229222283464567
20
1.0978937007874014
11
2.2269200393700785
21
1.0974357874015748
0
LINE
8
BLACK
6
CONTINUOUS
10
2.2269200393700785
20
1.0974357874015748
11
2.2269199999999998
21
1.097435748031496
0
LINE
8
BLACK
6
CONTINUOUS
10
2.2269199999999998
20
1.097435748031496
11
2.2243088976377954
21
1.0956910629921259
0
LINE
8
BLACK
6
CONTINUOUS
10
2.2243088976377954
20
1.0956910629921259
11
2.2225642125984253
21
1.0930799606299213
0
LINE
8
BLACK
6
CONTINUOUS
10
2.2225642125984253
20
1.0930799606299213
11
2.2225641732283465
21
1.0930799212598425
0
LINE
8
BLACK
6
CONTINUOUS
10
2.2225641732283465
20
1.0930799212598425
11
2.2221062598425196
21
1.0907776771653543
0
LINE
8
BLACK
6
CONTINUOUS
10
2.2221062598425196
20
1.0907776771653543
11
2.2221062598425196
21
1.0292223622047243
0
LINE
8
BLACK
6
CONTINUOUS
10
2.3221063385826772
20
1.0292223622047243
11
2.3225642519685037
21
1.0269201181102361
0
LINE
8
BLACK
6
CONTINUOUS
10
2.3225642519685037
20
1.0269201181102361
11
2.3225642913385824
21
1.0269200787401576
0
LINE
8
BLACK
6
CONTINUOUS
10
2.3225642913385824
20
1.0269200787401576
11
2.3243089763779525
21
1.0243089763779527
0
LINE
8
BLACK
6
CONTINUOUS
10
2.3243089763779525
20
1.0243089763779527
11
2.3269200787401574
21
1.0225642913385826
0
LINE
8
BLACK
6
CONTINUOUS
10
2.3269200787401574
20
1.0225642913385826
11
2.3269201181102361
21
1.0225642519685039
0
LINE
8
BLACK
6
CONTINUOUS
10
2.3269201181102361
20
1.0225642519685039
11
2.3292223622047246
21
1.0221063385826772
0
LINE
8
BLACK
6
CONTINUOUS
10
2.3292223622047246
20
1.0221063385826772
11
2.3292224803149604
21
1.0221062992125984
0
LINE
8
BLACK
6
CONTINUOUS
10
2.3292224803149604
20
1.0221062992125984
11
2.3292225590551179
21
1.0221062992125984
0
LINE
8
BLACK
6
CONTINUOUS
10
2.3292225590551179
20
1.0221062992125984
11
2.3907775984251969
21
1.0221062992125984
0
LINE
8
BLACK
6
CONTINUOUS
10
2.3907775984251969
20
1.0221062992125984
11
2.3907776377952756
21
1.0221063385826772
0
LINE
8
BLACK
6
CONTINUOUS
10
2.3907776377952756
20
1.0221063385826772
11
2.3913609842519685
21
1.0222223622047244
0
LINE
8
BLACK
6
CONTINUOUS
10
2.3913609842519685
20
1.0222223622047244
11
2.3930799212598424
21
1.0225642519685039
0
LINE
8
BLACK
6
CONTINUOUS
10
2.3930799212598424
20
1.0225642519685039
11
2.3930799212598424
21
1.0225642913385826
0
LINE
8
BLACK
6
CONTINUOUS
10
2.3930799212598424
20
1.0225642913385826
11
2.3930799999999999
21
1.0225642913385826
0
LINE
8
BLACK
6
CONTINUOUS
10
2.3930799999999999
20
1.0225642913385826
11
2.395691062992126
21
1.0243089763779527
0
LINE
8
BLACK
6
CONTINUOUS
10
2.395691062992126
20
1.0243089763779527
11
2.3974357480314961
21
1.0269200393700788
0
LINE
8
BLACK
6
CONTINUOUS
10
2.3974357480314961
20
1.0269200393700788
11
2.3974357480314961
21
1.0269201181102361
0
LINE
8
BLACK
6
CONTINUOUS
10
2.3974357480314961
20
1.0269201181102361
11
2.3974357874015748
21
1.0269201181102361
0
LINE
8
BLACK
6
CONTINUOUS
10
2.3974357874015748
20
1.0269201181102361
11
2.3978937007874017
21
1.0292223622047243
0
LINE
8
BLACK
6
CONTINUOUS
10
2.3978937007874017
20
1.0292223622047243
11
2.3978937401574805
21
1.0292224409448818
0
LINE
8
BLACK
6
CONTINUOUS
10
2.3978937401574805
20
1.0292224409448818
11
2.3978937401574805
21
1.0907775984251968
0
LINE
8
BLACK
6
CONTINUOUS
10
2.3978937401574805
20
1.0907775984251968
11
2.3978937007874017
21
1.0907776771653543
0
LINE
8
BLACK
6
CONTINUOUS
10
2.3978937007874017
20
1.0907776771653543
11
2.3974357874015748
21
1.0930799212598425
0
LINE
8
BLACK
6
CONTINUOUS
10
2.3974357874015748
20
1.0930799212598425
11
2.3974357480314961
21
1.0930799606299213
0
LINE
8
BLACK
6
CONTINUOUS
10
2.3974357480314961
20
1.0930799606299213
11
2.395691062992126
21
1.0956910629921259
0
LINE
8
BLACK
6
CONTINUOUS
10
2.395691062992126
20
1.0956910629921259
11
2.3930799606299211
21
1.097435748031496
0
LINE
8
BLACK
6
CONTINUOUS
10
2.3930799606299211
20
1.097435748031496
11
2.3930799212598424
21
1.0974357874015748
0
LINE
8
BLACK
6
CONTINUOUS
10
2.3930799212598424
20
1.0974357874015748
11
2.3907776771653544
21
1.0978937007874014
0
LINE
8
BLACK
6
CONTINUOUS
10
2.3907776771653544
20
1.0978937007874014
11
2.3907775196850394
21
1.0978937007874014
0
LINE
8
BLACK
6
CONTINUOUS
10
2.3907775196850394
20
1.0978937007874014
11
2.3292225590551179
21
1.0978937007874014
0
LINE
8
BLACK
6
CONTINUOUS
10
2.3292225590551179
20
1.0978937007874014
11
2.3292223622047246
21
1.0978937007874014
0
LINE
8
BLACK
6
CONTINUOUS
10
2.3292223622047246
20
1.0978937007874014
11
2.3269201181102361
21
1.0974357874015748
0
LINE
8
BLACK
6
CONTINUOUS
10
2.3269201181102361
20
1.0974357874015748
11
2.3269200787401574
21
1.097435748031496
0
LINE
8
BLACK
6
CONTINUOUS
10
2.3269200787401574
20
1.097435748031496
11
2.3243089763779525
21
1.0956910629921259
0
LINE
8
BLACK
6
CONTINUOUS
10
2.3243089763779525
20
1.0956910629921259
11
2.3225642913385824
21
1.0930799606299213
0
LINE
8
BLACK
6
CONTINUOUS
10
2.3225642913385824
20
1.0930799606299213
11
2.3225642519685037
21
1.0930799212598425
0
LINE
8
BLACK
6
CONTINUOUS
10
2.3225642519685037
20
1.0930799212598425
11
2.3221063385826772
21
1.0907776771653543
0
LINE
8
BLACK
6
CONTINUOUS
10
2.3221063385826772
20
1.0907776771653543
11
2.3221063385826772
21
1.0292223622047243
0
LINE
8
BLACK
6
CONTINUOUS
10
0.3011294094488189
20
1.0482100787401574
11
0.3011294094488189
21
1.0482100393700786
0
LINE
8
BLACK
6
CONTINUOUS
10
0.3011294094488189
20
1.0482100393700786
11
0.3012790551181102
21
1.0480822047244094
0
LINE
8
BLACK
6
CONTINUOUS
10
0.3012790551181102
20
1.0480822047244094
11
0.3012794488188976
21
1.0480819291338583
0
LINE
8
BLACK
6
CONTINUOUS
10
0.3012794488188976
20
1.0480819291338583
11
0.3098655118110236
21
1.0428203543307086
0
LINE
8
BLACK
6
CONTINUOUS
10
0.3098655118110236
20
1.0428203543307086
11
0.3098656299212598
21
1.0428202755905511
0
LINE
8
BLACK
6
CONTINUOUS
10
0.3098656299212598
20
1.0428202755905511
11
0.3191691732283464
21
1.0389666535433071
0
LINE
8
BLACK
6
CONTINUOUS
10
0.3191691732283464
20
1.0389666535433071
11
0.328961062992126
21
1.0366158661417322
0
LINE
8
BLACK
6
CONTINUOUS
10
0.328961062992126
20
1.0366158661417322
11
0.3289610236220472
21
1.0366158661417322
0
LINE
8
BLACK
6
CONTINUOUS
10
0.3289610236220472
20
1.0366158661417322
11
0.339
21
1.0358258267716536
0
LINE
8
BLACK
6
CONTINUOUS
10
0.339
20
1.0358258267716536
11
0.349038937007874
21
1.0366158661417322
0
LINE
8
BLACK
6
CONTINUOUS
10
0.349038937007874
20
1.0366158661417322
11
0.3588307874015748
21
1.0389666535433071
0
LINE
8
BLACK
6
CONTINUOUS
10
0.3588307874015748
20
1.0389666535433071
11
0.3681343307086614
21
1.0428202755905511
0
LINE
8
BLACK
6
CONTINUOUS
10
0.3681343307086614
20
1.0428202755905511
11
0.3681344488188976
21
1.0428203543307086
0
LINE
8
BLACK
6
CONTINUOUS
10
0.3681344488188976
20
1.0428203543307086
11
0.3767205905511811
21
1.0480819291338583
0
LINE
8
BLACK
6
CONTINUOUS
10
0.3767205905511811
20
1.0480819291338583
11
0.3768705511811024
21
1.0482100787401574
0
LINE
8
BLACK
6
CONTINUOUS
10
0.3768705511811024
20
1.0482100787401574
11
0.3624394488188976
21
1.0626411811023622
0
LINE
8
BLACK
6
CONTINUOUS
10
0.3624394488188976
20
1.0626411811023622
11
0.3587423622047244
21
1.0603520078740156
0
LINE
8
BLACK
6
CONTINUOUS
10
0.3587423622047244
20
1.0603520078740156
11
0.351120905511811
21
1.0573994488188976
0
LINE
8
BLACK
6
CONTINUOUS
10
0.351120905511811
20
1.0573994488188976
11
0.3430866929133858
21
1.0558975984251968
0
LINE
8
BLACK
6
CONTINUOUS
10
0.3430866929133858
20
1.0558975984251968
11
0.3349133070866142
21
1.0558975984251968
0
LINE
8
BLACK
6
CONTINUOUS
10
0.3349133070866142
20
1.0558975984251968
11
0.326879094488189
21
1.0573994488188976
0
LINE
8
BLACK
6
CONTINUOUS
10
0.326879094488189
20
1.0573994488188976
11
0.3192576377952756
21
1.0603520078740156
0
LINE
8
BLACK
6
CONTINUOUS
10
0.3192576377952756
20
1.0603520078740156
11
0.3155605118110236
21
1.0626412204724409
0
LINE
8
BLACK
6
CONTINUOUS
10
0.3155605118110236
20
1.0626412204724409
11
0.3011294094488189
21
1.0482100787401574
0
LINE
8
BLACK
6
CONTINUOUS
10
0.5011294094488189
20
1.0482100787401574
11
0.5011294094488189
21
1.0482100393700786
0
LINE
8
BLACK
6
CONTINUOUS
10
0.5011294094488189
20
1.0482100393700786
11
0.5012790551181102
21
1.0480822047244094
0
LINE
8
BLACK
6
CONTINUOUS
10
0.5012790551181102
20
1.0480822047244094
11
0.5012794488188976
21
1.0480819291338583
0
LINE
8
BLACK
6
CONTINUOUS
10
0.5012794488188976
20
1.0480819291338583
11
0.5098655118110236
21
1.0428203543307086
0
LINE
8
BLACK
6
CONTINUOUS
10
0.5098655118110236
20
1.0428203543307086
11
0.5098656299212598
21
1.0428202755905511
0
LINE
8
BLACK
6
CONTINUOUS
10
0.5098656299212598
20
1.0428202755905511
11
0.5191691732283464
21
1.0389666535433071
0
LINE
8
BLACK
6
CONTINUOUS
10
0.5191691732283464
20
1.0389666535433071
11
0.528961062992126
21
1.0366158661417322
0
LINE
8
BLACK
6
CONTINUOUS
10
0.528961062992126
20
1.0366158661417322
11
0.5289610236220472
21
1.0366158661417322
0
LINE
8
BLACK
6
CONTINUOUS
10
0.5289610236220472
20
1.0366158661417322
11
0.539
21
1.0358258267716536
0
LINE
8
BLACK
6
CONTINUOUS
10
0.539
20
1.0358258267716536
11
0.549038937007874
21
1.0366158661417322
0
LINE
8
BLACK
6
CONTINUOUS
10
0.549038937007874
20
1.0366158661417322
11
0.5588307874015748
21
1.0389666535433071
0
LINE
8
BLACK
6
CONTINUOUS
10
0.5588307874015748
20
1.0389666535433071
11
0.5681343307086614
21
1.0428202755905511
0
LINE
8
BLACK
6
CONTINUOUS
10
0.5681343307086614
20
1.0428202755905511
11
0.5681344488188976
21
1.0428203543307086
0
LINE
8
BLACK
6
CONTINUOUS
10
0.5681344488188976
20
1.0428203543307086
11
0.5767205905511811
21
1.0480819291338583
0
LINE
8
BLACK
6
CONTINUOUS
10
0.5767205905511811
20
1.0480819291338583
11
0.5768705511811023
21
1.0482100787401574
0
LINE
8
BLACK
6
CONTINUOUS
10
0.5768705511811023
20
1.0482100787401574
11
0.5624394488188976
21
1.0626411811023622
0
LINE
8
BLACK
6
CONTINUOUS
10
0.5624394488188976
20
1.0626411811023622
11
0.5587423622047244
21
1.0603520078740156
0
LINE
8
BLACK
6
CONTINUOUS
10
0.5587423622047244
20
1.0603520078740156
11
0.551120905511811
21
1.0573994488188976
0
LINE
8
BLACK
6
CONTINUOUS
10
0.551120905511811
20
1.0573994488188976
11
0.5430866929133858
21
1.0558975984251968
0
LINE
8
BLACK
6
CONTINUOUS
10
0.5430866929133858
20
1.0558975984251968
11
0.5349133070866141
21
1.0558975984251968
0
LINE
8
BLACK
6
CONTINUOUS
10
0.5349133070866141
20
1.0558975984251968
11
0.5268790944881889
21
1.0573994488188976
0
LINE
8
BLACK
6
CONTINUOUS
10
0.5268790944881889
20
1.0573994488188976
11
0.5192576377952756
21
1.0603520078740156
0
LINE
8
BLACK
6
CONTINUOUS
10
0.5192576377952756
20
1.0603520078740156
11
0.5155605118110236
21
1.0626412204724409
0
LINE
8
BLACK
6
CONTINUOUS
10
0.5155605118110236
20
1.0626412204724409
11
0.5011294094488189
21
1.0482100787401574
0
LINE
8
BLACK
6
CONTINUOUS
10
0.3764758661417323
20
1.1235565748031495
11
0.3766572440944882
21
1.123316377952756
0
LINE
8
BLACK
6
CONTINUOUS
10
0.3766572440944882
20
1.123316377952756
11
0.3803004330708661
21
1.1159998818897638
0
LINE
8
BLACK
6
CONTINUOUS
10
0.3803004330708661
20
1.1159998818897638
11
0.3825372047244094
21
1.1081385039370077
0
LINE
8
BLACK
6
CONTINUOUS
10
0.3825372047244094
20
1.1081385039370077
11
0.3832913385826772
21
1.0999999999999999
0
LINE
8
BLACK
6
CONTINUOUS
10
0.3832913385826772
20
1.0999999999999999
11
0.3825372047244094
21
1.0918614960629922
0
LINE
8
BLACK
6
CONTINUOUS
10
0.3825372047244094
20
1.0918614960629922
11
0.3803004330708661
21
1.0840001181102361
0
LINE
8
BLACK
6
CONTINUOUS
10
0.3803004330708661
20
1.0840001181102361
11
0.3766572440944882
21
1.076683622047244
0
LINE
8
BLACK
6
CONTINUOUS
10
0.3766572440944882
20
1.076683622047244
11
0.3764758661417323
21
1.0764435039370079
0
LINE
8
BLACK
6
CONTINUOUS
10
0.3764758661417323
20
1.0764435039370079
11
0.3907899212598425
21
1.0621294488188977
0
LINE
8
BLACK
6
CONTINUOUS
10
0.3907899212598425
20
1.0621294488188977
11
0.3909180708661417
21
1.0622794094488188
0
LINE
8
BLACK
6
CONTINUOUS
10
0.3909180708661417
20
1.0622794094488188
11
0.3961796456692913
21
1.0708655511811023
0
LINE
8
BLACK
6
CONTINUOUS
10
0.3961796456692913
20
1.0708655511811023
11
0.3961797244094488
21
1.0708656692913385
0
LINE
8
BLACK
6
CONTINUOUS
10
0.3961797244094488
20
1.0708656692913385
11
0.4000333464566929
21
1.0801692125984252
0
LINE
8
BLACK
6
CONTINUOUS
10
0.4000333464566929
20
1.0801692125984252
11
0.4023841338582677
21
1.0899610629921259
0
LINE
8
BLACK
6
CONTINUOUS
10
0.4023841338582677
20
1.0899610629921259
11
0.4031741732283464
21
1.0999999999999999
0
LINE
8
BLACK
6
CONTINUOUS
10
0.4031741732283464
20
1.0999999999999999
11
0.4023841338582677
21
1.1100389763779528
0
LINE
8
BLACK
6
CONTINUOUS
10
0.4023841338582677
20
1.1100389763779528
11
0.4000333464566929
21
1.1198308267716535
0
LINE
8
BLACK
6
CONTINUOUS
10
0.4000333464566929
20
1.1198308267716535
11
0.3961797244094488
21
1.1291343700787402
0
LINE
8
BLACK
6
CONTINUOUS
10
0.3961797244094488
20
1.1291343700787402
11
0.3961796456692913
21
1.1291344881889764
0
LINE
8
BLACK
6
CONTINUOUS
10
0.3961796456692913
20
1.1291344881889764
11
0.3909180708661417
21
1.1377205511811024
0
LINE
8
BLACK
6
CONTINUOUS
10
0.3909180708661417
20
1.1377205511811024
11
0.3909177952755906
21
1.1377209448818897
0
LINE
8
BLACK
6
CONTINUOUS
10
0.3909177952755906
20
1.1377209448818897
11
0.3907899606299213
21
1.137870590551181
0
LINE
8
BLACK
6
CONTINUOUS
10
0.3907899606299213
20
1.137870590551181
11
0.3907899212598425
21
1.137870590551181
0
LINE
8
BLACK
6
CONTINUOUS
10
0.3907899212598425
20
1.137870590551181
11
0.3764758661417323
21
1.1235565748031495
0
LINE
8
BLACK
6
CONTINUOUS
10
2.2269200393700785
20
1.1974357874015749
11
2.2269199999999998
21
1.1974357480314961
0
LINE
8
BLACK
6
CONTINUOUS
10
2.2269199999999998
20
1.1974357480314961
11
2.2243088976377954
21
1.195691062992126
0
LINE
8
BLACK
6
CONTINUOUS
10
2.2243088976377954
20
1.195691062992126
11
2.2225642125984253
21
1.1930799606299212
0
LINE
8
BLACK
6
CONTINUOUS
10
2.2225642125984253
20
1.1930799606299212
11
2.2225641732283465
21
1.1930799212598424
0
LINE
8
BLACK
6
CONTINUOUS
10
2.2225641732283465
20
1.1930799212598424
11
2.2221062598425196
21
1.1907776771653542
0
LINE
8
BLACK
6
CONTINUOUS
10
2.2221062598425196
20
1.1907776771653542
11
2.2221062598425196
21
1.1292223622047244
0
LINE
8
BLACK
6
CONTINUOUS
10
2.2221062598425196
20
1.1292223622047244
11
2.2225641732283465
21
1.1269201181102362
0
LINE
8
BLACK
6
CONTINUOUS
10
2.2225641732283465
20
1.1269201181102362
11
2.2225642125984253
21
1.1269200787401574
0
LINE
8
BLACK
6
CONTINUOUS
10
2.2225642125984253
20
1.1269200787401574
11
2.2243088976377954
21
1.1243089763779528
0
LINE
8
BLACK
6
CONTINUOUS
10
2.2243088976377954
20
1.1243089763779528
11
2.2269199999999998
21
1.1225642913385827
0
LINE
8
BLACK
6
CONTINUOUS
10
2.2269199999999998
20
1.1225642913385827
11
2.2269200393700785
21
1.122564251968504
0
LINE
8
BLACK
6
CONTINUOUS
10
2.2269200393700785
20
1.122564251968504
11
2.229222283464567
21
1.1221063385826771
0
LINE
8
BLACK
6
CONTINUOUS
10
2.229222283464567
20
1.1221063385826771
11
2.2292224015748032
21
1.1221062992125983
0
LINE
8
BLACK
6
CONTINUOUS
10
2.2292224015748032
20
1.1221062992125983
11
2.2292224803149607
21
1.1221062992125983
0
LINE
8
BLACK
6
CONTINUOUS
10
2.2292224803149607
20
1.1221062992125983
11
2.2907775196850393
21
1.1221062992125983
0
LINE
8
BLACK
6
CONTINUOUS
10
2.2907775196850393
20
1.1221062992125983
11
2.290777559055118
21
1.1221063385826771
0
LINE
8
BLACK
6
CONTINUOUS
10
2.290777559055118
20
1.1221063385826771
11
2.2913609055118109
21
1.1222223622047245
0
LINE
8
BLACK
6
CONTINUOUS
10
2.2913609055118109
20
1.1222223622047245
11
2.2930798425196848
21
1.122564251968504
0
LINE
8
BLACK
6
CONTINUOUS
10
2.2930798425196848
20
1.122564251968504
11
2.2930798425196848
21
1.1225642913385827
0
LINE
8
BLACK
6
CONTINUOUS
10
2.2930798425196848
20
1.1225642913385827
11
2.2930799212598423
21
1.1225642913385827
0
LINE
8
BLACK
6
CONTINUOUS
10
2.2930799212598423
20
1.1225642913385827
11
2.2956909842519684
21
1.1243089763779528
0
LINE
8
BLACK
6
CONTINUOUS
10
2.2956909842519684
20
1.1243089763779528
11
2.2974356692913385
21
1.1269200393700787
0
LINE
8
BLACK
6
CONTINUOUS
10
2.2974356692913385
20
1.1269200393700787
11
2.2974356692913385
21
1.1269201181102362
0
LINE
8
BLACK
6
CONTINUOUS
10
2.2974356692913385
20
1.1269201181102362
11
2.2974357086614172
21
1.1269201181102362
0
LINE
8
BLACK
6
CONTINUOUS
10
2.2974357086614172
20
1.1269201181102362
11
2.2977775984251969
21
1.1286390551181102
0
LINE
8
BLACK
6
CONTINUOUS
10
2.2977775984251969
20
1.1286390551181102
11
2.2978936614173229
21
1.1292225196850394
0
LINE
8
BLACK
6
CONTINUOUS
10
2.2978936614173229
20
1.1292225196850394
11
2.2978936614173229
21
1.1907774803149607
0
LINE
8
BLACK
6
CONTINUOUS
10
2.2978936614173229
20
1.1907774803149607
11
2.2978936614173229
21
1.1907775984251969
0
LINE
8
BLACK
6
CONTINUOUS
10
2.2978936614173229
20
1.1907775984251969
11
2.2978936220472441
21
1.1907776771653542
0
LINE
8
BLACK
6
CONTINUOUS
10
2.2978936220472441
20
1.1907776771653542
11
2.2974357086614172
21
1.1930799212598424
0
LINE
8
BLACK
6
CONTINUOUS
10
2.2974357086614172
20
1.1930799212598424
11
2.2974356692913385
21
1.1930799606299212
0
LINE
8
BLACK
6
CONTINUOUS
10
2.2974356692913385
20
1.1930799606299212
11
2.2956909842519684
21
1.195691062992126
0
LINE
8
BLACK
6
CONTINUOUS
10
2.2956909842519684
20
1.195691062992126
11
2.2930798818897635
21
1.1974357480314961
0
LINE
8
BLACK
6
CONTINUOUS
10
2.2930798818897635
20
1.1974357480314961
11
2.2930798425196848
21
1.1974357874015749
0
LINE
8
BLACK
6
CONTINUOUS
10
2.2930798425196848
20
1.1974357874015749
11
2.2907775984251968
21
1.1978937007874015
0
LINE
8
BLACK
6
CONTINUOUS
10
2.2907775984251968
20
1.1978937007874015
11
2.2907774409448818
21
1.1978937007874015
0
LINE
8
BLACK
6
CONTINUOUS
10
2.2907774409448818
20
1.1978937007874015
11
2.2292224803149607
21
1.1978937007874015
0
LINE
8
BLACK
6
CONTINUOUS
10
2.2292224803149607
20
1.1978937007874015
11
2.229222283464567
21
1.1978937007874015
0
LINE
8
BLACK
6
CONTINUOUS
10
2.229222283464567
20
1.1978937007874015
11
2.2269200393700785
21
1.1974357874015749
0
LINE
8
BLACK
6
CONTINUOUS
10
2.3221063385826772
20
1.1292223622047244
11
2.3225642519685037
21
1.1269201181102362
0
LINE
8
BLACK
6
CONTINUOUS
10
2.3225642519685037
20
1.1269201181102362
11
2.3225642913385824
21
1.1269200787401574
0
LINE
8
BLACK
6
CONTINUOUS
10
2.3225642913385824
20
1.1269200787401574
11
2.3243089763779525
21
1.1243089763779528
0
LINE
8
BLACK
6
CONTINUOUS
10
2.3243089763779525
20
1.1243089763779528
11
2.3269200787401574
21
1.1225642913385827
0
LINE
8
BLACK
6
CONTINUOUS
10
2.3269200787401574
20
1.1225642913385827
11
2.3269201181102361
21
1.122564251968504
0
LINE
8
BLACK
6
CONTINUOUS
10
2.3269201181102361
20
1.122564251968504
11
2.3292223622047246
21
1.1221063385826771
0
LINE
8
BLACK
6
CONTINUOUS
10
2.3292223622047246
20
1.1221063385826771
11
2.3292224803149604
21
1.1221062992125983
0
LINE
8
BLACK
6
CONTINUOUS
10
2.3292224803149604
20
1.1221062992125983
11
2.3292225590551179
21
1.1221062992125983
0
LINE
8
BLACK
6
CONTINUOUS
10
2.3292225590551179
20
1.1221062992125983
11
2.3907775984251969
21
1.1221062992125983
0
LINE
8
BLACK
6
CONTINUOUS
10
2.3907775984251969
20
1.1221062992125983
11
2.3907776377952756
21
1.1221063385826771
0
LINE
8
BLACK
6
CONTINUOUS
10
2.3907776377952756
20
1.1221063385826771
11
2.3913609842519685
21
1.1222223622047245
0
LINE
8
BLACK
6
CONTINUOUS
10
2.3913609842519685
20
1.1222223622047245
11
2.3930799212598424
21
1.122564251968504
0
LINE
8
BLACK
6
CONTINUOUS
10
2.3930799212598424
20
1.122564251968504
11
2.3930799212598424
21
1.1225642913385827
0
LINE
8
BLACK
6
CONTINUOUS
10
2.3930799212598424
20
1.1225642913385827
11
2.3930799999999999
21
1.1225642913385827
0
LINE
8
BLACK
6
CONTINUOUS
10
2.3930799999999999
20
1.1225642913385827
11
2.395691062992126
21
1.1243089763779528
0
LINE
8
BLACK
6
CONTINUOUS
10
2.395691062992126
20
1.1243089763779528
11
2.3974357480314961
21
1.1269200393700787
0
LINE
8
BLACK
6
CONTINUOUS
10
2.3974357480314961
20
1.1269200393700787
11
2.3974357480314961
21
1.1269201181102362
0
LINE
8
BLACK
6
CONTINUOUS
10
2.3974357480314961
20
1.1269201181102362
11
2.3974357874015748
21
1.1269201181102362
0
LINE
8
BLACK
6
CONTINUOUS
10
2.3974357874015748
20
1.1269201181102362
11
2.3977776771653541
21
1.1286390551181102
0
LINE
8
BLACK
6
CONTINUOUS
10
2.3977776771653541
20
1.1286390551181102
11
2.3978937401574805
21
1.1292225196850394
0
LINE
8
BLACK
6
CONTINUOUS
10
2.3978937401574805
20
1.1292225196850394
11
2.3978937401574805
21
1.1907774803149607
0
LINE
8
BLACK
6
CONTINUOUS
10
2.3978937401574805
20
1.1907774803149607
11
2.3978937401574805
21
1.1907775984251969
0
LINE
8
BLACK
6
CONTINUOUS
10
2.3978937401574805
20
1.1907775984251969
11
2.3978937007874017
21
1.1907776771653542
0
LINE
8
BLACK
6
CONTINUOUS
10
2.3978937007874017
20
1.1907776771653542
11
2.3974357874015748
21
1.1930799212598424
0
LINE
8
BLACK
6
CONTINUOUS
10
2.3974357874015748
20
1.1930799212598424
11
2.3974357480314961
21
1.1930799606299212
0
LINE
8
BLACK
6
CONTINUOUS
10
2.3974357480314961
20
1.1930799606299212
11
2.395691062992126
21
1.195691062992126
0
LINE
8
BLACK
6
CONTINUOUS
10
2.395691062992126
20
1.195691062992126
11
2.3930799606299211
21
1.1974357480314961
0
LINE
8
BLACK
6
CONTINUOUS
10
2.3930799606299211
20
1.1974357480314961
11
2.3930799212598424
21
1.1974357874015749
0
LINE
8
BLACK
6
CONTINUOUS
10
2.3930799212598424
20
1.1974357874015749
11
2.3907776771653544
21
1.1978937007874015
0
LINE
8
BLACK
6
CONTINUOUS
10
2.3907776771653544
20
1.1978937007874015
11
2.3907775196850394
21
1.1978937007874015
0
LINE
8
BLACK
6
CONTINUOUS
10
2.3907775196850394
20
1.1978937007874015
11
2.3292225590551179
21
1.1978937007874015
0
LINE
8
BLACK
6
CONTINUOUS
10
2.3292225590551179
20
1.1978937007874015
11
2.3292223622047246
21
1.1978937007874015
0
LINE
8
BLACK
6
CONTINUOUS
10
2.3292223622047246
20
1.1978937007874015
11
2.3269201181102361
21
1.1974357874015749
0
LINE
8
BLACK
6
CONTINUOUS
10
2.3269201181102361
20
1.1974357874015749
11
2.3269200787401574
21
1.1974357480314961
0
LINE
8
BLACK
6
CONTINUOUS
10
2.3269200787401574
20
1.1974357480314961
11
2.3243089763779525
21
1.195691062992126
0
LINE
8
BLACK
6
CONTINUOUS
10
2.3243089763779525
20
1.195691062992126
11
2.3225642913385824
21
1.1930799606299212
0
LINE
8
BLACK
6
CONTINUOUS
10
2.3225642913385824
20
1.1930799606299212
11
2.3225642519685037
21
1.1930799212598424
0
LINE
8
BLACK
6
CONTINUOUS
10
2.3225642519685037
20
1.1930799212598424
11
2.3221063385826772
21
1.1907776771653542
0
LINE
8
BLACK
6
CONTINUOUS
10
2.3221063385826772
20
1.1907776771653542
11
2.3221063385826772
21
1.1292223622047244
0
LINE
8
BLACK
6
CONTINUOUS
10
0.3289610236220472
20
1.1633841732283465
11
0.3191691732283464
21
1.1610333858267716
0
LINE
8
BLACK
6
CONTINUOUS
10
0.3191691732283464
20
1.1610333858267716
11
0.3098656299212598
21
1.1571797637795276
0
LINE
8
BLACK
6
CONTINUOUS
10
0.3098656299212598
20
1.1571797637795276
11
0.3098655118110236
21
1.1571796850393701
0
LINE
8
BLACK
6
CONTINUOUS
10
0.3098655118110236
20
1.1571796850393701
11
0.3012794094488189
21
1.1519181102362204
0
LINE
8
BLACK
6
CONTINUOUS
10
0.3012794094488189
20
1.1519181102362204
11
0.3011294094488189
21
1.1517899999999999
0
LINE
8
BLACK
6
CONTINUOUS
10
0.3011294094488189
20
1.1517899999999999
11
0.3155605511811024
21
1.1373588582677165
0
LINE
8
BLACK
6
CONTINUOUS
10
0.3155605511811024
20
1.1373588582677165
11
0.3192576377952756
21
1.1396479921259843
0
LINE
8
BLACK
6
CONTINUOUS
10
0.3192576377952756
20
1.1396479921259843
11
0.326879094488189
21
1.1426005511811024
0
LINE
8
BLACK
6
CONTINUOUS
10
0.326879094488189
20
1.1426005511811024
11
0.3349133070866142
21
1.1441024015748031
0
LINE
8
BLACK
6
CONTINUOUS
10
0.3349133070866142
20
1.1441024015748031
11
0.3430866929133858
21
1.1441024015748031
0
LINE
8
BLACK
6
CONTINUOUS
10
0.3430866929133858
20
1.1441024015748031
11
0.351120905511811
21
1.1426005511811024
0
LINE
8
BLACK
6
CONTINUOUS
10
0.351120905511811
20
1.1426005511811024
11
0.3587423622047244
21
1.1396479921259843
0
LINE
8
BLACK
6
CONTINUOUS
10
0.3587423622047244
20
1.1396479921259843
11
0.3624393700787402
21
1.1373588976377953
0
LINE
8
BLACK
6
CONTINUOUS
10
0.3624393700787402
20
1.1373588976377953
11
0.3768705118110236
21
1.1517899606299213
0
LINE
8
BLACK
6
CONTINUOUS
10
0.3768705118110236
20
1.1517899606299213
11
0.3768705118110236
21
1.1517900393700786
0
LINE
8
BLACK
6
CONTINUOUS
10
0.3768705118110236
20
1.1517900393700786
11
0.3767208661417323
21
1.1519178740157481
0
LINE
8
BLACK
6
CONTINUOUS
10
0.3767208661417323
20
1.1519178740157481
11
0.3767202755905512
21
1.1519183070866141
0
LINE
8
BLACK
6
CONTINUOUS
10
0.3767202755905512
20
1.1519183070866141
11
0.3681344488188976
21
1.1571796850393701
0
LINE
8
BLACK
6
CONTINUOUS
10
0.3681344488188976
20
1.1571796850393701
11
0.3681343307086614
21
1.1571797637795276
0
LINE
8
BLACK
6
CONTINUOUS
10
0.3681343307086614
20
1.1571797637795276
11
0.3588307874015748
21
1.1610333858267716
0
LINE
8
BLACK
6
CONTINUOUS
10
0.3588307874015748
20
1.1610333858267716
11
0.3490388976377953
21
1.1633841732283465
0
LINE
8
BLACK
6
CONTINUOUS
10
0.3490388976377953
20
1.1633841732283465
11
0.349038937007874
21
1.1633841732283465
0
LINE
8
BLACK
6
CONTINUOUS
10
0.349038937007874
20
1.1633841732283465
11
0.339
21
1.1641742125984251
0
LINE
8
BLACK
6
CONTINUOUS
10
0.339
20
1.1641742125984251
11
0.3289610236220472
21
1.1633841732283465
0
LINE
8
BLACK
6
CONTINUOUS
10
0.5289610236220472
20
1.1633841732283465
11
0.5191691732283464
21
1.1610333858267716
0
LINE
8
BLACK
6
CONTINUOUS
10
0.5191691732283464
20
1.1610333858267716
11
0.5098656299212598
21
1.1571797637795276
0
LINE
8
BLACK
6
CONTINUOUS
10
0.5098656299212598
20
1.1571797637795276
11
0.5098655118110236
21
1.1571796850393701
0
LINE
8
BLACK
6
CONTINUOUS
10
0.5098655118110236
20
1.1571796850393701
11
0.5012794094488189
21
1.1519181102362204
0
LINE
8
BLACK
6
CONTINUOUS
10
0.5012794094488189
20
1.1519181102362204
11
0.5011294094488189
21
1.1517899999999999
0
LINE
8
BLACK
6
CONTINUOUS
10
0.5011294094488189
20
1.1517899999999999
11
0.5155605511811023
21
1.1373588582677165
0
LINE
8
BLACK
6
CONTINUOUS
10
0.5155605511811023
20
1.1373588582677165
11
0.5192576377952756
21
1.1396479921259843
0
LINE
8
BLACK
6
CONTINUOUS
10
0.5192576377952756
20
1.1396479921259843
11
0.5268790944881889
21
1.1426005511811024
0
LINE
8
BLACK
6
CONTINUOUS
10
0.5268790944881889
20
1.1426005511811024
11
0.5349133070866141
21
1.1441024015748031
0
LINE
8
BLACK
6
CONTINUOUS
10
0.5349133070866141
20
1.1441024015748031
11
0.5430866929133858
21
1.1441024015748031
0
LINE
8
BLACK
6
CONTINUOUS
10
0.5430866929133858
20
1.1441024015748031
11
0.551120905511811
21
1.1426005511811024
0
LINE
8
BLACK
6
CONTINUOUS
10
0.551120905511811
20
1.1426005511811024
11
0.5587423622047244
21
1.1396479921259843
0
LINE
8
BLACK
6
CONTINUOUS
10
0.5587423622047244
20
1.1396479921259843
11
0.5624393700787401
21
1.1373588976377953
0
LINE
8
BLACK
6
CONTINUOUS
10
0.5624393700787401
20
1.1373588976377953
11
0.5768705118110236
21
1.1517899606299213
0
LINE
8
BLACK
6
CONTINUOUS
10
0.5768705118110236
20
1.1517899606299213
11
0.5768705118110236
21
1.1517900393700786
0
LINE
8
BLACK
6
CONTINUOUS
10
0.5768705118110236
20
1.1517900393700786
11
0.5767208661417322
21
1.1519178740157481
0
LINE
8
BLACK
6
CONTINUOUS
10
0.5767208661417322
20
1.1519178740157481
11
0.5767202755905512
21
1.1519183070866141
0
LINE
8
BLACK
6
CONTINUOUS
10
0.5767202755905512
20
1.1519183070866141
11
0.5681344488188976
21
1.1571796850393701
0
LINE
8
BLACK
6
CONTINUOUS
10
0.5681344488188976
20
1.1571796850393701
11
0.5681343307086614
21
1.1571797637795276
0
LINE
8
BLACK
6
CONTINUOUS
10
0.5681343307086614
20
1.1571797637795276
11
0.5588307874015748
21
1.1610333858267716
0
LINE
8
BLACK
6
CONTINUOUS
10
0.5588307874015748
20
1.1610333858267716
11
0.5490388976377952
21
1.1633841732283465
0
LINE
8
BLACK
6
CONTINUOUS
10
0.5490388976377952
20
1.1633841732283465
11
0.549038937007874
21
1.1633841732283465
0
LINE
8
BLACK
6
CONTINUOUS
10
0.549038937007874
20
1.1633841732283465
11
0.539
21
1.1641742125984251
0
LINE
8
BLACK
6
CONTINUOUS
10
0.539
20
1.1641742125984251
11
0.5289610236220472
21
1.1633841732283465
0
LINE
8
BLACK
6
CONTINUOUS
10
1.5821062992125985
20
1.2192223622047245
11
1.5825642125984252
21
1.2169201181102363
0
LINE
8
BLACK
6
CONTINUOUS
10
1.5825642125984252
20
1.2169201181102363
11
1.5825642519685039
21
1.2169200787401575
0
LINE
8
BLACK
6
CONTINUOUS
10
1.5825642519685039
20
1.2169200787401575
11
1.584308937007874
21
1.2143089763779527
0
LINE
8
BLACK
6
CONTINUOUS
10
1.584308937007874
20
1.2143089763779527
11
1.5869200393700786
21
1.2125642913385826
0
LINE
8
BLACK
6
CONTINUOUS
10
1.5869200393700786
20
1.2125642913385826
11
1.5869200787401574
21
1.2125642519685038
0
LINE
8
BLACK
6
CONTINUOUS
10
1.5869200787401574
20
1.2125642519685038
11
1.5892223228346456
21
1.2121063385826771
0
LINE
8
BLACK
6
CONTINUOUS
10
1.5892223228346456
20
1.2121063385826771
11
1.5892224409448819
21
1.2121062992125984
0
LINE
8
BLACK
6
CONTINUOUS
10
1.5892224409448819
20
1.2121062992125984
11
1.5892225196850394
21
1.2121062992125984
0
LINE
8
BLACK
6
CONTINUOUS
10
1.5892225196850394
20
1.2121062992125984
11
1.6507775590551181
21
1.2121062992125984
0
LINE
8
BLACK
6
CONTINUOUS
10
1.6507775590551181
20
1.2121062992125984
11
1.6507775984251969
21
1.2121063385826771
0
LINE
8
BLACK
6
CONTINUOUS
10
1.6507775984251969
20
1.2121063385826771
11
1.6513609448818898
21
1.2122223622047243
0
LINE
8
BLACK
6
CONTINUOUS
10
1.6513609448818898
20
1.2122223622047243
11
1.6530798818897638
21
1.2125642519685038
0
LINE
8
BLACK
6
CONTINUOUS
10
1.6530798818897638
20
1.2125642519685038
11
1.6530798818897638
21
1.2125642913385826
0
LINE
8
BLACK
6
CONTINUOUS
10
1.6530798818897638
20
1.2125642913385826
11
1.6530799606299211
21
1.2125642913385826
0
LINE
8
BLACK
6
CONTINUOUS
10
1.6530799606299211
20
1.2125642913385826
11
1.6556910236220472
21
1.2143089763779527
0
LINE
8
BLACK
6
CONTINUOUS
10
1.6556910236220472
20
1.2143089763779527
11
1.6574357086614173
21
1.2169200393700788
0
LINE
8
BLACK
6
CONTINUOUS
10
1.6574357086614173
20
1.2169200393700788
11
1.6574357086614173
21
1.2169201181102363
0
LINE
8
BLACK
6
CONTINUOUS
10
1.6574357086614173
20
1.2169201181102363
11
1.6574357480314961
21
1.2169201181102363
0
LINE
8
BLACK
6
CONTINUOUS
10
1.6574357480314961
20
1.2169201181102363
11
1.6578936614173228
21
1.2192223622047245
0
LINE
8
BLACK
6
CONTINUOUS
10
1.6578936614173228
20
1.2192223622047245
11
1.6578937007874015
21
1.219222440944882
0
LINE
8
BLACK
6
CONTINUOUS
10
1.6578937007874015
20
1.219222440944882
11
1.6578937007874015
21
1.2807775984251968
0
LINE
8
BLACK
6
CONTINUOUS
10
1.6578937007874015
20
1.2807775984251968
11
1.6578936614173228
21
1.2807776771653543
0
LINE
8
BLACK
6
CONTINUOUS
10
1.6578936614173228
20
1.2807776771653543
11
1.6574357480314961
21
1.2830799212598425
0
LINE
8
BLACK
6
CONTINUOUS
10
1.6574357480314961
20
1.2830799212598425
11
1.6574357086614173
21
1.2830799606299212
0
LINE
8
BLACK
6
CONTINUOUS
10
1.6574357086614173
20
1.2830799606299212
11
1.6556910236220472
21
1.2856910629921259
0
LINE
8
BLACK
6
CONTINUOUS
10
1.6556910236220472
20
1.2856910629921259
11
1.6530799212598424
21
1.287435748031496
0
LINE
8
BLACK
6
CONTINUOUS
10
1.6530799212598424
20
1.287435748031496
11
1.6530798818897638
21
1.2874357874015747
0
LINE
8
BLACK
6
CONTINUOUS
10
1.6530798818897638
20
1.2874357874015747
11
1.6507776377952756
21
1.2878937007874016
0
LINE
8
BLACK
6
CONTINUOUS
10
1.6507776377952756
20
1.2878937007874016
11
1.6507774803149606
21
1.2878937007874016
0
LINE
8
BLACK
6
CONTINUOUS
10
1.6507774803149606
20
1.2878937007874016
11
1.5892225196850394
21
1.2878937007874016
0
LINE
8
BLACK
6
CONTINUOUS
10
1.5892225196850394
20
1.2878937007874016
11
1.5892223228346456
21
1.2878937007874016
0
LINE
8
BLACK
6
CONTINUOUS
10
1.5892223228346456
20
1.2878937007874016
11
1.5869200787401574
21
1.2874357874015747
0
LINE
8
BLACK
6
CONTINUOUS
10
1.5869200787401574
20
1.2874357874015747
11
1.5869200393700786
21
1.287435748031496
0
LINE
8
BLACK
6
CONTINUOUS
10
1.5869200393700786
20
1.287435748031496
11
1.584308937007874
21
1.2856910629921259
0
LINE
8
BLACK
6
CONTINUOUS
10
1.584308937007874
20
1.2856910629921259
11
1.5825642519685039
21
1.2830799606299212
0
LINE
8
BLACK
6
CONTINUOUS
10
1.5825642519685039
20
1.2830799606299212
11
1.5825642125984252
21
1.2830799212598425
0
LINE
8
BLACK
6
CONTINUOUS
10
1.5825642125984252
20
1.2830799212598425
11
1.5821062992125985
21
1.2807776771653543
0
LINE
8
BLACK
6
CONTINUOUS
10
1.5821062992125985
20
1.2807776771653543
11
1.5821062992125985
21
1.2192223622047245
0
LINE
8
BLACK
6
CONTINUOUS
10
2.2221062598425196
20
1.2292223622047245
11
2.2225641732283465
21
1.2269201181102363
0
LINE
8
BLACK
6
CONTINUOUS
10
2.2225641732283465
20
1.2269201181102363
11
2.2225642125984253
21
1.2269200787401575
0
LINE
8
BLACK
6
CONTINUOUS
10
2.2225642125984253
20
1.2269200787401575
11
2.2243088976377954
21
1.2243089763779527
0
LINE
8
BLACK
6
CONTINUOUS
10
2.2243088976377954
20
1.2243089763779527
11
2.2269199999999998
21
1.2225642913385826
0
LINE
8
BLACK
6
CONTINUOUS
10
2.2269199999999998
20
1.2225642913385826
11
2.2269200393700785
21
1.2225642519685038
0
LINE
8
BLACK
6
CONTINUOUS
10
2.2269200393700785
20
1.2225642519685038
11
2.229222283464567
21
1.2221063385826771
0
LINE
8
BLACK
6
CONTINUOUS
10
2.229222283464567
20
1.2221063385826771
11
2.2292224015748032
21
1.2221062992125984
0
LINE
8
BLACK
6
CONTINUOUS
10
2.2292224015748032
20
1.2221062992125984
11
2.2292224803149607
21
1.2221062992125984
0
LINE
8
BLACK
6
CONTINUOUS
10
2.2292224803149607
20
1.2221062992125984
11
2.2907775196850393
21
1.2221062992125984
0
LINE
8
BLACK
6
CONTINUOUS
10
2.2907775196850393
20
1.2221062992125984
11
2.290777559055118
21
1.2221063385826771
0
LINE
8
BLACK
6
CONTINUOUS
10
2.290777559055118
20
1.2221063385826771
11
2.2913609055118109
21
1.2222223622047244
0
LINE
8
BLACK
6
CONTINUOUS
10
2.2913609055118109
20
1.2222223622047244
11
2.2930798425196848
21
1.2225642519685038
0
LINE
8
BLACK
6
CONTINUOUS
10
2.2930798425196848
20
1.2225642519685038
11
2.2930798425196848
21
1.2225642913385826
0
LINE
8
BLACK
6
CONTINUOUS
10
2.2930798425196848
20
1.2225642913385826
11
2.2930799212598423
21
1.2225642913385826
0
LINE
8
BLACK
6
CONTINUOUS
10
2.2930799212598423
20
1.2225642913385826
11
2.2956909842519684
21
1.2243089763779527
0
LINE
8
BLACK
6
CONTINUOUS
10
2.2956909842519684
20
1.2243089763779527
11
2.2974356692913385
21
1.2269200393700788
0
LINE
8
BLACK
6
CONTINUOUS
10
2.2974356692913385
20
1.2269200393700788
11
2.2974356692913385
21
1.2269201181102363
0
LINE
8
BLACK
6
CONTINUOUS
10
2.2974356692913385
20
1.2269201181102363
11
2.2974357086614172
21
1.2269201181102363
0
LINE
8
BLACK
6
CONTINUOUS
10
2.2974357086614172
20
1.2269201181102363
11
2.2978936220472441
21
1.2292223622047245
0
LINE
8
BLACK
6
CONTINUOUS
10
2.2978936220472441
20
1.2292223622047245
11
2.2978936614173229
21
1.2292224409448818
0
LINE
8
BLACK
6
CONTINUOUS
10
2.2978936614173229
20
1.2292224409448818
11
2.2978936614173229
21
1.2907775984251968
0
LINE
8
BLACK
6
CONTINUOUS
10
2.2978936614173229
20
1.2907775984251968
11
2.2978936220472441
21
1.2907776771653543
0
LINE
8
BLACK
6
CONTINUOUS
10
2.2978936220472441
20
1.2907776771653543
11
2.2974357086614172
21
1.2930799212598425
0
LINE
8
BLACK
6
CONTINUOUS
10
2.2974357086614172
20
1.2930799212598425
11
2.2974356692913385
21
1.2930799606299213
0
LINE
8
BLACK
6
CONTINUOUS
10
2.2974356692913385
20
1.2930799606299213
11
2.2956909842519684
21
1.2956910629921259
0
LINE
8
BLACK
6
CONTINUOUS
10
2.2956909842519684
20
1.2956910629921259
11
2.2930798818897635
21
1.297435748031496
0
LINE
8
BLACK
6
CONTINUOUS
10
2.2930798818897635
20
1.297435748031496
11
2.2930798425196848
21
1.2974357874015747
0
LINE
8
BLACK
6
CONTINUOUS
10
2.2930798425196848
20
1.2974357874015747
11
2.2907775984251968
21
1.2978937007874016
0
LINE
8
BLACK
6
CONTINUOUS
10
2.2907775984251968
20
1.2978937007874016
11
2.2907774409448818
21
1.2978937007874016
0
LINE
8
BLACK
6
CONTINUOUS
10
2.2907774409448818
20
1.2978937007874016
11
2.2292224803149607
21
1.2978937007874016
0
LINE
8
BLACK
6
CONTINUOUS
10
2.2292224803149607
20
1.2978937007874016
11
2.229222283464567
21
1.2978937007874016
0
LINE
8
BLACK
6
CONTINUOUS
10
2.229222283464567
20
1.2978937007874016
11
2.2269200393700785
21
1.2974357874015747
0
LINE
8
BLACK
6
CONTINUOUS
10
2.2269200393700785
20
1.2974357874015747
11
2.2269199999999998
21
1.297435748031496
0
LINE
8
BLACK
6
CONTINUOUS
10
2.2269199999999998
20
1.297435748031496
11
2.2243088976377954
21
1.2956910629921259
0
LINE
8
BLACK
6
CONTINUOUS
10
2.2243088976377954
20
1.2956910629921259
11
2.2225642125984253
21
1.2930799606299213
0
LINE
8
BLACK
6
CONTINUOUS
10
2.2225642125984253
20
1.2930799606299213
11
2.2225641732283465
21
1.2930799212598425
0
LINE
8
BLACK
6
CONTINUOUS
10
2.2225641732283465
20
1.2930799212598425
11
2.2221062598425196
21
1.2907776771653543
0
LINE
8
BLACK
6
CONTINUOUS
10
2.2221062598425196
20
1.2907776771653543
11
2.2221062598425196
21
1.2292223622047245
0
LINE
8
BLACK
6
CONTINUOUS
10
2.3221063385826772
20
1.2292223622047245
11
2.3225642519685037
21
1.2269201181102363
0
LINE
8
BLACK
6
CONTINUOUS
10
2.3225642519685037
20
1.2269201181102363
11
2.3225642913385824
21
1.2269200787401575
0
LINE
8
BLACK
6
CONTINUOUS
10
2.3225642913385824
20
1.2269200787401575
11
2.3243089763779525
21
1.2243089763779527
0
LINE
8
BLACK
6
CONTINUOUS
10
2.3243089763779525
20
1.2243089763779527
11
2.3269200787401574
21
1.2225642913385826
0
LINE
8
BLACK
6
CONTINUOUS
10
2.3269200787401574
20
1.2225642913385826
11
2.3269201181102361
21
1.2225642519685038
0
LINE
8
BLACK
6
CONTINUOUS
10
2.3269201181102361
20
1.2225642519685038
11
2.3292223622047246
21
1.2221063385826771
0
LINE
8
BLACK
6
CONTINUOUS
10
2.3292223622047246
20
1.2221063385826771
11
2.3292224803149604
21
1.2221062992125984
0
LINE
8
BLACK
6
CONTINUOUS
10
2.3292224803149604
20
1.2221062992125984
11
2.3292225590551179
21
1.2221062992125984
0
LINE
8
BLACK
6
CONTINUOUS
10
2.3292225590551179
20
1.2221062992125984
11
2.3907775984251969
21
1.2221062992125984
0
LINE
8
BLACK
6
CONTINUOUS
10
2.3907775984251969
20
1.2221062992125984
11
2.3907776377952756
21
1.2221063385826771
0
LINE
8
BLACK
6
CONTINUOUS
10
2.3907776377952756
20
1.2221063385826771
11
2.3913609842519685
21
1.2222223622047244
0
LINE
8
BLACK
6
CONTINUOUS
10
2.3913609842519685
20
1.2222223622047244
11
2.3930799212598424
21
1.2225642519685038
0
LINE
8
BLACK
6
CONTINUOUS
10
2.3930799212598424
20
1.2225642519685038
11
2.3930799212598424
21
1.2225642913385826
0
LINE
8
BLACK
6
CONTINUOUS
10
2.3930799212598424
20
1.2225642913385826
11
2.3930799999999999
21
1.2225642913385826
0
LINE
8
BLACK
6
CONTINUOUS
10
2.3930799999999999
20
1.2225642913385826
11
2.395691062992126
21
1.2243089763779527
0
LINE
8
BLACK
6
CONTINUOUS
10
2.395691062992126
20
1.2243089763779527
11
2.3974357480314961
21
1.2269200393700788
0
LINE
8
BLACK
6
CONTINUOUS
10
2.3974357480314961
20
1.2269200393700788
11
2.3974357480314961
21
1.2269201181102363
0
LINE
8
BLACK
6
CONTINUOUS
10
2.3974357480314961
20
1.2269201181102363
11
2.3974357874015748
21
1.2269201181102363
0
LINE
8
BLACK
6
CONTINUOUS
10
2.3974357874015748
20
1.2269201181102363
11
2.3978937007874017
21
1.2292223622047245
0
LINE
8
BLACK
6
CONTINUOUS
10
2.3978937007874017
20
1.2292223622047245
11
2.3978937401574805
21
1.2292224409448818
0
LINE
8
BLACK
6
CONTINUOUS
10
2.3978937401574805
20
1.2292224409448818
11
2.3978937401574805
21
1.2907775984251968
0
LINE
8
BLACK
6
CONTINUOUS
10
2.3978937401574805
20
1.2907775984251968
11
2.3978937007874017
21
1.2907776771653543
0
LINE
8
BLACK
6
CONTINUOUS
10
2.3978937007874017
20
1.2907776771653543
11
2.3974357874015748
21
1.2930799212598425
0
LINE
8
BLACK
6
CONTINUOUS
10
2.3974357874015748
20
1.2930799212598425
11
2.3974357480314961
21
1.2930799606299213
0
LINE
8
BLACK
6
CONTINUOUS
10
2.3974357480314961
20
1.2930799606299213
11
2.395691062992126
21
1.2956910629921259
0
LINE
8
BLACK
6
CONTINUOUS
10
2.395691062992126
20
1.2956910629921259
11
2.3930799606299211
21
1.297435748031496
0
LINE
8
BLACK
6
CONTINUOUS
10
2.3930799606299211
20
1.297435748031496
11
2.3930799212598424
21
1.2974357874015747
0
LINE
8
BLACK
6
CONTINUOUS
10
2.3930799212598424
20
1.2974357874015747
11
2.3907776771653544
21
1.2978937007874016
0
LINE
8
BLACK
6
CONTINUOUS
10
2.3907776771653544
20
1.2978937007874016
11
2.3907775196850394
21
1.2978937007874016
0
LINE
8
BLACK
6
CONTINUOUS
10
2.3907775196850394
20
1.2978937007874016
11
2.3292225590551179
21
1.2978937007874016
0
LINE
8
BLACK
6
CONTINUOUS
10
2.3292225590551179
20
1.2978937007874016
11
2.3292223622047246
21
1.2978937007874016
0
LINE
8
BLACK
6
CONTINUOUS
10
2.3292223622047246
20
1.2978937007874016
11
2.3269201181102361
21
1.2974357874015747
0
LINE
8
BLACK
6
CONTINUOUS
10
2.3269201181102361
20
1.2974357874015747
11
2.3269200787401574
21
1.297435748031496
0
LINE
8
BLACK
6
CONTINUOUS
10
2.3269200787401574
20
1.297435748031496
11
2.3243089763779525
21
1.2956910629921259
0
LINE
8
BLACK
6
CONTINUOUS
10
2.3243089763779525
20
1.2956910629921259
11
2.3225642913385824
21
1.2930799606299213
0
LINE
8
BLACK
6
CONTINUOUS
10
2.3225642913385824
20
1.2930799606299213
11
2.3225642519685037
21
1.2930799212598425
0
LINE
8
BLACK
6
CONTINUOUS
10
2.3225642519685037
20
1.2930799212598425
11
2.3221063385826772
21
1.2907776771653543
0
LINE
8
BLACK
6
CONTINUOUS
10
2.3221063385826772
20
1.2907776771653543
11
2.3221063385826772
21
1.2292223622047245
0
LINE
8
BLACK
6
CONTINUOUS
10
1.5821062992125985
20
1.3192223622047243
11
1.5825642125984252
21
1.3169201181102361
0
LINE
8
BLACK
6
CONTINUOUS
10
1.5825642125984252
20
1.3169201181102361
11
1.5825642519685039
21
1.3169200787401574
0
LINE
8
BLACK
6
CONTINUOUS
10
1.5825642519685039
20
1.3169200787401574
11
1.584308937007874
21
1.3143089763779527
0
LINE
8
BLACK
6
CONTINUOUS
10
1.584308937007874
20
1.3143089763779527
11
1.5869200393700786
21
1.3125642913385827
0
LINE
8
BLACK
6
CONTINUOUS
10
1.5869200393700786
20
1.3125642913385827
11
1.5869200787401574
21
1.3125642519685039
0
LINE
8
BLACK
6
CONTINUOUS
10
1.5869200787401574
20
1.3125642519685039
11
1.5892223228346456
21
1.3121063385826772
0
LINE
8
BLACK
6
CONTINUOUS
10
1.5892223228346456
20
1.3121063385826772
11
1.5892224409448819
21
1.3121062992125985
0
LINE
8
BLACK
6
CONTINUOUS
10
1.5892224409448819
20
1.3121062992125985
11
1.5892225196850394
21
1.3121062992125985
0
LINE
8
BLACK
6
CONTINUOUS
10
1.5892225196850394
20
1.3121062992125985
11
1.6507775590551181
21
1.3121062992125985
0
LINE
8
BLACK
6
CONTINUOUS
10
1.6507775590551181
20
1.3121062992125985
11
1.6507775984251969
21
1.3121063385826772
0
LINE
8
BLACK
6
CONTINUOUS
10
1.6507775984251969
20
1.3121063385826772
11
1.6513609448818898
21
1.3122223622047244
0
LINE
8
BLACK
6
CONTINUOUS
10
1.6513609448818898
20
1.3122223622047244
11
1.6530798818897638
21
1.3125642519685039
0
LINE
8
BLACK
6
CONTINUOUS
10
1.6530798818897638
20
1.3125642519685039
11
1.6530798818897638
21
1.3125642913385827
0
LINE
8
BLACK
6
CONTINUOUS
10
1.6530798818897638
20
1.3125642913385827
11
1.6530799606299211
21
1.3125642913385827
0
LINE
8
BLACK
6
CONTINUOUS
10
1.6530799606299211
20
1.3125642913385827
11
1.6556910236220472
21
1.3143089763779527
0
LINE
8
BLACK
6
CONTINUOUS
10
1.6556910236220472
20
1.3143089763779527
11
1.6574357086614173
21
1.3169200393700786
0
LINE
8
BLACK
6
CONTINUOUS
10
1.6574357086614173
20
1.3169200393700786
11
1.6574357086614173
21
1.3169201181102361
0
LINE
8
BLACK
6
CONTINUOUS
10
1.6574357086614173
20
1.3169201181102361
11
1.6574357480314961
21
1.3169201181102361
0
LINE
8
BLACK
6
CONTINUOUS
10
1.6574357480314961
20
1.3169201181102361
11
1.6578936614173228
21
1.3192223622047243
0
LINE
8
BLACK
6
CONTINUOUS
10
1.6578936614173228
20
1.3192223622047243
11
1.6578937007874015
21
1.3192224409448818
0
LINE
8
BLACK
6
CONTINUOUS
10
1.6578937007874015
20
1.3192224409448818
11
1.6578937007874015
21
1.3807775984251969
0
LINE
8
BLACK
6
CONTINUOUS
10
1.6578937007874015
20
1.3807775984251969
11
1.6578936614173228
21
1.3807776771653544
0
LINE
8
BLACK
6
CONTINUOUS
10
1.6578936614173228
20
1.3807776771653544
11
1.6574357480314961
21
1.3830799212598426
0
LINE
8
BLACK
6
CONTINUOUS
10
1.6574357480314961
20
1.3830799212598426
11
1.6574357086614173
21
1.3830799606299213
0
LINE
8
BLACK
6
CONTINUOUS
10
1.6574357086614173
20
1.3830799606299213
11
1.6556910236220472
21
1.385691062992126
0
LINE
8
BLACK
6
CONTINUOUS
10
1.6556910236220472
20
1.385691062992126
11
1.6530799212598424
21
1.3874357480314961
0
LINE
8
BLACK
6
CONTINUOUS
10
1.6530799212598424
20
1.3874357480314961
11
1.6530798818897638
21
1.3874357874015748
0
LINE
8
BLACK
6
CONTINUOUS
10
1.6530798818897638
20
1.3874357874015748
11
1.6507776377952756
21
1.3878937007874015
0
LINE
8
BLACK
6
CONTINUOUS
10
1.6507776377952756
20
1.3878937007874015
11
1.6507774803149606
21
1.3878937007874015
0
LINE
8
BLACK
6
CONTINUOUS
10
1.6507774803149606
20
1.3878937007874015
11
1.5892225196850394
21
1.3878937007874015
0
LINE
8
BLACK
6
CONTINUOUS
10
1.5892225196850394
20
1.3878937007874015
11
1.5892223228346456
21
1.3878937007874015
0
LINE
8
BLACK
6
CONTINUOUS
10
1.5892223228346456
20
1.3878937007874015
11
1.5869200787401574
21
1.3874357874015748
0
LINE
8
BLACK
6
CONTINUOUS
10
1.5869200787401574
20
1.3874357874015748
11
1.5869200393700786
21
1.3874357480314961
0
LINE
8
BLACK
6
CONTINUOUS
10
1.5869200393700786
20
1.3874357480314961
11
1.584308937007874
21
1.385691062992126
0
LINE
8
BLACK
6
CONTINUOUS
10
1.584308937007874
20
1.385691062992126
11
1.5825642519685039
21
1.3830799606299213
0
LINE
8
BLACK
6
CONTINUOUS
10
1.5825642519685039
20
1.3830799606299213
11
1.5825642125984252
21
1.3830799212598426
0
LINE
8
BLACK
6
CONTINUOUS
10
1.5825642125984252
20
1.3830799212598426
11
1.5821062992125985
21
1.3807776771653544
0
LINE
8
BLACK
6
CONTINUOUS
10
1.5821062992125985
20
1.3807776771653544
11
1.5821062992125985
21
1.3192223622047243
0
LINE
8
BLACK
6
CONTINUOUS
10
2.2221062598425196
20
1.3292223622047243
11
2.2225641732283465
21
1.3269201181102361
0
LINE
8
BLACK
6
CONTINUOUS
10
2.2225641732283465
20
1.3269201181102361
11
2.2225642125984253
21
1.3269200787401574
0
LINE
8
BLACK
6
CONTINUOUS
10
2.2225642125984253
20
1.3269200787401574
11
2.2243088976377954
21
1.3243089763779528
0
LINE
8
BLACK
6
CONTINUOUS
10
2.2243088976377954
20
1.3243089763779528
11
2.2269199999999998
21
1.3225642913385827
0
LINE
8
BLACK
6
CONTINUOUS
10
2.2269199999999998
20
1.3225642913385827
11
2.2269200393700785
21
1.3225642519685039
0
LINE
8
BLACK
6
CONTINUOUS
10
2.2269200393700785
20
1.3225642519685039
11
2.229222283464567
21
1.3221063385826772
0
LINE
8
BLACK
6
CONTINUOUS
10
2.229222283464567
20
1.3221063385826772
11
2.2292224015748032
21
1.3221062992125985
0
LINE
8
BLACK
6
CONTINUOUS
10
2.2292224015748032
20
1.3221062992125985
11
2.2292224803149607
21
1.3221062992125985
0
LINE
8
BLACK
6
CONTINUOUS
10
2.2292224803149607
20
1.3221062992125985
11
2.2907775196850393
21
1.3221062992125985
0
LINE
8
BLACK
6
CONTINUOUS
10
2.2907775196850393
20
1.3221062992125985
11
2.290777559055118
21
1.3221063385826772
0
LINE
8
BLACK
6
CONTINUOUS
10
2.290777559055118
20
1.3221063385826772
11
2.2913609055118109
21
1.3222223622047244
0
LINE
8
BLACK
6
CONTINUOUS
10
2.2913609055118109
20
1.3222223622047244
11
2.2930798425196848
21
1.3225642519685039
0
LINE
8
BLACK
6
CONTINUOUS
10
2.2930798425196848
20
1.3225642519685039
11
2.2930798425196848
21
1.3225642913385827
0
LINE
8
BLACK
6
CONTINUOUS
10
2.2930798425196848
20
1.3225642913385827
11
2.2930799212598423
21
1.3225642913385827
0
LINE
8
BLACK
6
CONTINUOUS
10
2.2930799212598423
20
1.3225642913385827
11
2.2956909842519684
21
1.3243089763779528
0
LINE
8
BLACK
6
CONTINUOUS
10
2.2956909842519684
20
1.3243089763779528
11
2.2974356692913385
21
1.3269200393700786
0
LINE
8
BLACK
6
CONTINUOUS
10
2.2974356692913385
20
1.3269200393700786
11
2.2974356692913385
21
1.3269201181102361
0
LINE
8
BLACK
6
CONTINUOUS
10
2.2974356692913385
20
1.3269201181102361
11
2.2974357086614172
21
1.3269201181102361
0
LINE
8
BLACK
6
CONTINUOUS
10
2.2974357086614172
20
1.3269201181102361
11
2.2978936220472441
21
1.3292223622047243
0
LINE
8
BLACK
6
CONTINUOUS
10
2.2978936220472441
20
1.3292223622047243
11
2.2978936614173229
21
1.3292224409448818
0
LINE
8
BLACK
6
CONTINUOUS
10
2.2978936614173229
20
1.3292224409448818
11
2.2978936614173229
21
1.3907775984251969
0
LINE
8
BLACK
6
CONTINUOUS
10
2.2978936614173229
20
1.3907775984251969
11
2.2978936220472441
21
1.3907776771653544
0
LINE
8
BLACK
6
CONTINUOUS
10
2.2978936220472441
20
1.3907776771653544
11
2.2974357086614172
21
1.3930799212598426
0
LINE
8
BLACK
6
CONTINUOUS
10
2.2974357086614172
20
1.3930799212598426
11
2.2974356692913385
21
1.3930799606299211
0
LINE
8
BLACK
6
CONTINUOUS
10
2.2974356692913385
20
1.3930799606299211
11
2.2956909842519684
21
1.395691062992126
0
LINE
8
BLACK
6
CONTINUOUS
10
2.2956909842519684
20
1.395691062992126
11
2.2930798818897635
21
1.3974357480314961
0
LINE
8
BLACK
6
CONTINUOUS
10
2.2930798818897635
20
1.3974357480314961
11
2.2930798425196848
21
1.3974357874015748
0
LINE
8
BLACK
6
CONTINUOUS
10
2.2930798425196848
20
1.3974357874015748
11
2.2907775984251968
21
1.3978937007874015
0
LINE
8
BLACK
6
CONTINUOUS
10
2.2907775984251968
20
1.3978937007874015
11
2.2907774409448818
21
1.3978937007874015
0
LINE
8
BLACK
6
CONTINUOUS
10
2.2907774409448818
20
1.3978937007874015
11
2.2292224803149607
21
1.3978937007874015
0
LINE
8
BLACK
6
CONTINUOUS
10
2.2292224803149607
20
1.3978937007874015
11
2.229222283464567
21
1.3978937007874015
0
LINE
8
BLACK
6
CONTINUOUS
10
2.229222283464567
20
1.3978937007874015
11
2.2269200393700785
21
1.3974357874015748
0
LINE
8
BLACK
6
CONTINUOUS
10
2.2269200393700785
20
1.3974357874015748
11
2.2269199999999998
21
1.3974357480314961
0
LINE
8
BLACK
6
CONTINUOUS
10
2.2269199999999998
20
1.3974357480314961
11
2.2243088976377954
21
1.395691062992126
0
LINE
8
BLACK
6
CONTINUOUS
10
2.2243088976377954
20
1.395691062992126
11
2.2225642125984253
21
1.3930799606299211
0
LINE
8
BLACK
6
CONTINUOUS
10
2.2225642125984253
20
1.3930799606299211
11
2.2225641732283465
21
1.3930799212598426
0
LINE
8
BLACK
6
CONTINUOUS
10
2.2225641732283465
20
1.3930799212598426
11
2.2221062598425196
21
1.3907776771653544
0
LINE
8
BLACK
6
CONTINUOUS
10
2.2221062598425196
20
1.3907776771653544
11
2.2221062598425196
21
1.3292223622047243
0
LINE
8
BLACK
6
CONTINUOUS
10
2.3221063385826772
20
1.3292223622047243
11
2.3225642519685037
21
1.3269201181102361
0
LINE
8
BLACK
6
CONTINUOUS
10
2.3225642519685037
20
1.3269201181102361
11
2.3225642913385824
21
1.3269200787401574
0
LINE
8
BLACK
6
CONTINUOUS
10
2.3225642913385824
20
1.3269200787401574
11
2.3243089763779525
21
1.3243089763779528
0
LINE
8
BLACK
6
CONTINUOUS
10
2.3243089763779525
20
1.3243089763779528
11
2.3269200787401574
21
1.3225642913385827
0
LINE
8
BLACK
6
CONTINUOUS
10
2.3269200787401574
20
1.3225642913385827
11
2.3269201181102361
21
1.3225642519685039
0
LINE
8
BLACK
6
CONTINUOUS
10
2.3269201181102361
20
1.3225642519685039
11
2.3292223622047246
21
1.3221063385826772
0
LINE
8
BLACK
6
CONTINUOUS
10
2.3292223622047246
20
1.3221063385826772
11
2.3292224803149604
21
1.3221062992125985
0
LINE
8
BLACK
6
CONTINUOUS
10
2.3292224803149604
20
1.3221062992125985
11
2.3292225590551179
21
1.3221062992125985
0
LINE
8
BLACK
6
CONTINUOUS
10
2.3292225590551179
20
1.3221062992125985
11
2.3907775984251969
21
1.3221062992125985
0
LINE
8
BLACK
6
CONTINUOUS
10
2.3907775984251969
20
1.3221062992125985
11
2.3907776377952756
21
1.3221063385826772
0
LINE
8
BLACK
6
CONTINUOUS
10
2.3907776377952756
20
1.3221063385826772
11
2.3913609842519685
21
1.3222223622047244
0
LINE
8
BLACK
6
CONTINUOUS
10
2.3913609842519685
20
1.3222223622047244
11
2.3930799212598424
21
1.3225642519685039
0
LINE
8
BLACK
6
CONTINUOUS
10
2.3930799212598424
20
1.3225642519685039
11
2.3930799212598424
21
1.3225642913385827
0
LINE
8
BLACK
6
CONTINUOUS
10
2.3930799212598424
20
1.3225642913385827
11
2.3930799999999999
21
1.3225642913385827
0
LINE
8
BLACK
6
CONTINUOUS
10
2.3930799999999999
20
1.3225642913385827
11
2.395691062992126
21
1.3243089763779528
0
LINE
8
BLACK
6
CONTINUOUS
10
2.395691062992126
20
1.3243089763779528
11
2.3974357480314961
21
1.3269200393700786
0
LINE
8
BLACK
6
CONTINUOUS
10
2.3974357480314961
20
1.3269200393700786
11
2.3974357480314961
21
1.3269201181102361
0
LINE
8
BLACK
6
CONTINUOUS
10
2.3974357480314961
20
1.3269201181102361
11
2.3974357874015748
21
1.3269201181102361
0
LINE
8
BLACK
6
CONTINUOUS
10
2.3974357874015748
20
1.3269201181102361
11
2.3978937007874017
21
1.3292223622047243
0
LINE
8
BLACK
6
CONTINUOUS
10
2.3978937007874017
20
1.3292223622047243
11
2.3978937401574805
21
1.3292224409448818
0
LINE
8
BLACK
6
CONTINUOUS
10
2.3978937401574805
20
1.3292224409448818
11
2.3978937401574805
21
1.3907775984251969
0
LINE
8
BLACK
6
CONTINUOUS
10
2.3978937401574805
20
1.3907775984251969
11
2.3978937007874017
21
1.3907776771653544
0
LINE
8
BLACK
6
CONTINUOUS
10
2.3978937007874017
20
1.3907776771653544
11
2.3974357874015748
21
1.3930799212598426
0
LINE
8
BLACK
6
CONTINUOUS
10
2.3974357874015748
20
1.3930799212598426
11
2.3974357480314961
21
1.3930799606299211
0
LINE
8
BLACK
6
CONTINUOUS
10
2.3974357480314961
20
1.3930799606299211
11
2.395691062992126
21
1.395691062992126
0
LINE
8
BLACK
6
CONTINUOUS
10
2.395691062992126
20
1.395691062992126
11
2.3930799606299211
21
1.3974357480314961
0
LINE
8
BLACK
6
CONTINUOUS
10
2.3930799606299211
20
1.3974357480314961
11
2.3930799212598424
21
1.3974357874015748
0
LINE
8
BLACK
6
CONTINUOUS
10
2.3930799212598424
20
1.3974357874015748
11
2.3907776771653544
21
1.3978937007874015
0
LINE
8
BLACK
6
CONTINUOUS
10
2.3907776771653544
20
1.3978937007874015
11
2.3907775196850394
21
1.3978937007874015
0
LINE
8
BLACK
6
CONTINUOUS
10
2.3907775196850394
20
1.3978937007874015
11
2.3292225590551179
21
1.3978937007874015
0
LINE
8
BLACK
6
CONTINUOUS
10
2.3292225590551179
20
1.3978937007874015
11
2.3292223622047246
21
1.3978937007874015
0
LINE
8
BLACK
6
CONTINUOUS
10
2.3292223622047246
20
1.3978937007874015
11
2.3269201181102361
21
1.3974357874015748
0
LINE
8
BLACK
6
CONTINUOUS
10
2.3269201181102361
20
1.3974357874015748
11
2.3269200787401574
21
1.3974357480314961
0
LINE
8
BLACK
6
CONTINUOUS
10
2.3269200787401574
20
1.3974357480314961
11
2.3243089763779525
21
1.395691062992126
0
LINE
8
BLACK
6
CONTINUOUS
10
2.3243089763779525
20
1.395691062992126
11
2.3225642913385824
21
1.3930799606299211
0
LINE
8
BLACK
6
CONTINUOUS
10
2.3225642913385824
20
1.3930799606299211
11
2.3225642519685037
21
1.3930799212598426
0
LINE
8
BLACK
6
CONTINUOUS
10
2.3225642519685037
20
1.3930799212598426
11
2.3221063385826772
21
1.3907776771653544
0
LINE
8
BLACK
6
CONTINUOUS
10
2.3221063385826772
20
1.3907776771653544
11
2.3221063385826772
21
1.3292223622047243
0
LINE
8
BLACK
6
CONTINUOUS
10
2.2103149606299213
20
0.6998425196850393
11
2.23
21
0.6998425196850393
0
LINE
8
BLACK
6
CONTINUOUS
10
2.23
20
0.6998425196850393
11
2.23
21
0.72
0
LINE
8
BLACK
6
CONTINUOUS
10
2.23
20
0.72
11
2.2501574803149604
21
0.72
0
LINE
8
BLACK
6
CONTINUOUS
10
2.2501574803149604
20
0.72
11
2.2501574803149604
21
0.7396850393700787
0
LINE
8
BLACK
6
CONTINUOUS
10
2.2501574803149604
20
0.7396850393700787
11
2.228116338582677
21
0.7396850393700787
0
LINE
8
BLACK
6
CONTINUOUS
10
2.228116338582677
20
0.7396850393700787
11
2.2257727165354328
21
0.739433031496063
0
LINE
8
BLACK
6
CONTINUOUS
10
2.2257727165354328
20
0.739433031496063
11
2.225772440944882
21
0.7394329527559055
0
LINE
8
BLACK
6
CONTINUOUS
10
2.225772440944882
20
0.7394329527559055
11
2.2204690157480313
21
0.7374549212598425
0
LINE
8
BLACK
6
CONTINUOUS
10
2.2204690157480313
20
0.7374549212598425
11
2.2204687401574801
21
0.7374547637795276
0
LINE
8
BLACK
6
CONTINUOUS
10
2.2204687401574801
20
0.7374547637795276
11
2.2159374803149605
21
0.7340626377952756
0
LINE
8
BLACK
6
CONTINUOUS
10
2.2159374803149605
20
0.7340626377952756
11
2.2159373622047243
21
0.7340625196850393
0
LINE
8
BLACK
6
CONTINUOUS
10
2.2159373622047243
20
0.7340625196850393
11
2.2125452362204725
21
0.7295312598425197
0
LINE
8
BLACK
6
CONTINUOUS
10
2.2125452362204725
20
0.7295312598425197
11
2.2125450787401575
21
0.7295309842519685
0
LINE
8
BLACK
6
CONTINUOUS
10
2.2125450787401575
20
0.7295309842519685
11
2.2105670472440946
21
0.724227559055118
0
LINE
8
BLACK
6
CONTINUOUS
10
2.2105670472440946
20
0.724227559055118
11
2.2105669685039371
21
0.7242272834645669
0
LINE
8
BLACK
6
CONTINUOUS
10
2.2105669685039371
20
0.7242272834645669
11
2.2103149606299213
21
0.7218836614173229
0
LINE
8
BLACK
6
CONTINUOUS
10
2.2103149606299213
20
0.7218836614173229
11
2.2103149606299213
21
0.6998425196850393
0
LINE
8
BLACK
6
CONTINUOUS
10
0.2756158267716535
20
0.889961062992126
11
0.2779666141732283
21
0.8801692125984252
0
LINE
8
BLACK
6
CONTINUOUS
10
0.2779666141732283
20
0.8801692125984252
11
0.2818202362204724
21
0.8708656692913386
0
LINE
8
BLACK
6
CONTINUOUS
10
0.2818202362204724
20
0.8708656692913386
11
0.2818203149606299
21
0.8708655511811023
0
LINE
8
BLACK
6
CONTINUOUS
10
0.2818203149606299
20
0.8708655511811023
11
0.2870816929133858
21
0.8622797244094488
0
LINE
8
BLACK
6
CONTINUOUS
10
0.2870816929133858
20
0.8622797244094488
11
0.287082125984252
21
0.8622791338582677
0
LINE
8
BLACK
6
CONTINUOUS
10
0.287082125984252
20
0.8622791338582677
11
0.2872099606299213
21
0.8621294881889764
0
LINE
8
BLACK
6
CONTINUOUS
10
0.2872099606299213
20
0.8621294881889764
11
0.2872100393700787
21
0.8621294881889764
0
LINE
8
BLACK
6
CONTINUOUS
10
0.2872100393700787
20
0.8621294881889764
11
0.3015240551181103
21
0.8764435433070866
0
LINE
8
BLACK
6
CONTINUOUS
10
0.3015240551181103
20
0.8764435433070866
11
0.3013427559055118
21
0.876683622047244
0
LINE
8
BLACK
6
CONTINUOUS
10
0.3013427559055118
20
0.876683622047244
11
0.2976995669291339
21
0.8840001181102362
0
LINE
8
BLACK
6
CONTINUOUS
10
0.2976995669291339
20
0.8840001181102362
11
0.2954627952755906
21
0.8918614960629921
0
LINE
8
BLACK
6
CONTINUOUS
10
0.2954627952755906
20
0.8918614960629921
11
0.2947086614173228
21
0.9
0
LINE
8
BLACK
6
CONTINUOUS
10
0.2947086614173228
20
0.9
11
0.2954627952755906
21
0.9081385039370079
0
LINE
8
BLACK
6
CONTINUOUS
10
0.2954627952755906
20
0.9081385039370079
11
0.2976995669291339
21
0.9159998818897638
0
LINE
8
BLACK
6
CONTINUOUS
10
0.2976995669291339
20
0.9159998818897638
11
0.3013427559055118
21
0.9233163779527559
0
LINE
8
BLACK
6
CONTINUOUS
10
0.3013427559055118
20
0.9233163779527559
11
0.3015240551181103
21
0.9235565354330708
0
LINE
8
BLACK
6
CONTINUOUS
10
0.3015240551181103
20
0.9235565354330708
11
0.28721
21
0.937870590551181
0
LINE
8
BLACK
6
CONTINUOUS
10
0.28721
20
0.937870590551181
11
0.2870818897637795
21
0.9377205905511811
0
LINE
8
BLACK
6
CONTINUOUS
10
0.2870818897637795
20
0.9377205905511811
11
0.2818203149606299
21
0.9291344881889764
0
LINE
8
BLACK
6
CONTINUOUS
10
0.2818203149606299
20
0.9291344881889764
11
0.2818202362204724
21
0.9291343700787401
0
LINE
8
BLACK
6
CONTINUOUS
10
0.2818202362204724
20
0.9291343700787401
11
0.2779666141732283
21
0.9198308267716535
0
LINE
8
BLACK
6
CONTINUOUS
10
0.2779666141732283
20
0.9198308267716535
11
0.2756158267716535
21
0.9100389763779527
0
LINE
8
BLACK
6
CONTINUOUS
10
0.2756158267716535
20
0.9100389763779527
11
0.2748257874015748
21
0.9
0
LINE
8
BLACK
6
CONTINUOUS
10
0.2748257874015748
20
0.9
11
0.2756158267716535
21
0.889961062992126
0
LINE
8
BLACK
6
CONTINUOUS
10
0.4756158267716535
20
0.889961062992126
11
0.4779666141732283
21
0.8801692125984252
0
LINE
8
BLACK
6
CONTINUOUS
10
0.4779666141732283
20
0.8801692125984252
11
0.4818202362204724
21
0.8708656692913386
0
LINE
8
BLACK
6
CONTINUOUS
10
0.4818202362204724
20
0.8708656692913386
11
0.4818203149606299
21
0.8708655511811023
0
LINE
8
BLACK
6
CONTINUOUS
10
0.4818203149606299
20
0.8708655511811023
11
0.4870816929133858
21
0.8622797244094488
0
LINE
8
BLACK
6
CONTINUOUS
10
0.4870816929133858
20
0.8622797244094488
11
0.4870821259842519
21
0.8622791338582677
0
LINE
8
BLACK
6
CONTINUOUS
10
0.4870821259842519
20
0.8622791338582677
11
0.4872099606299212
21
0.8621294881889764
0
LINE
8
BLACK
6
CONTINUOUS
10
0.4872099606299212
20
0.8621294881889764
11
0.4872100393700787
21
0.8621294881889764
0
LINE
8
BLACK
6
CONTINUOUS
10
0.4872100393700787
20
0.8621294881889764
11
0.5015240551181103
21
0.8764435433070866
0
LINE
8
BLACK
6
CONTINUOUS
10
0.5015240551181103
20
0.8764435433070866
11
0.5013427559055118
21
0.876683622047244
0
LINE
8
BLACK
6
CONTINUOUS
10
0.5013427559055118
20
0.876683622047244
11
0.4976995669291339
21
0.8840001181102362
0
LINE
8
BLACK
6
CONTINUOUS
10
0.4976995669291339
20
0.8840001181102362
11
0.4954627952755906
21
0.8918614960629921
0
LINE
8
BLACK
6
CONTINUOUS
10
0.4954627952755906
20
0.8918614960629921
11
0.4947086614173228
21
0.9
0
LINE
8
BLACK
6
CONTINUOUS
10
0.4947086614173228
20
0.9
11
0.4954627952755906
21
0.9081385039370079
0
LINE
8
BLACK
6
CONTINUOUS
10
0.4954627952755906
20
0.9081385039370079
11
0.4976995669291339
21
0.9159998818897638
0
LINE
8
BLACK
6
CONTINUOUS
10
0.4976995669291339
20
0.9159998818897638
11
0.5013427559055118
21
0.9233163779527559
0
LINE
8
BLACK
6
CONTINUOUS
10
0.5013427559055118
20
0.9233163779527559
11
0.5015240551181103
21
0.9235564960629921
0
LINE
8
BLACK
6
CONTINUOUS
10
0.5015240551181103
20
0.9235564960629921
11
0.4872099606299212
21
0.937870590551181
0
LINE
8
BLACK
6
CONTINUOUS
10
0.4872099606299212
20
0.937870590551181
11
0.4870818897637795
21
0.9377205905511811
0
LINE
8
BLACK
6
CONTINUOUS
10
0.4870818897637795
20
0.9377205905511811
11
0.4818203149606299
21
0.9291344881889764
0
LINE
8
BLACK
6
CONTINUOUS
10
0.4818203149606299
20
0.9291344881889764
11
0.4818202362204724
21
0.9291343700787401
0
LINE
8
BLACK
6
CONTINUOUS
10
0.4818202362204724
20
0.9291343700787401
11
0.4779666141732283
21
0.9198308267716535
0
LINE
8
BLACK
6
CONTINUOUS
10
0.4779666141732283
20
0.9198308267716535
11
0.4756158267716535
21
0.9100389763779527
0
LINE
8
BLACK
6
CONTINUOUS
10
0.4756158267716535
20
0.9100389763779527
11
0.4748257874015748
21
0.9
0
LINE
8
BLACK
6
CONTINUOUS
10
0.4748257874015748
20
0.9
11
0.4756158267716535
21
0.889961062992126
0
LINE
8
BLACK
6
CONTINUOUS
10
2.2103149606299213
20
0.8998425196850394
11
2.23
21
0.8998425196850394
0
LINE
8
BLACK
6
CONTINUOUS
10
2.23
20
0.8998425196850394
11
2.23
21
0.9199999999999999
0
LINE
8
BLACK
6
CONTINUOUS
10
2.23
20
0.9199999999999999
11
2.2501574803149604
21
0.9199999999999999
0
LINE
8
BLACK
6
CONTINUOUS
10
2.2501574803149604
20
0.9199999999999999
11
2.2501574803149604
21
0.9396850393700787
0
LINE
8
BLACK
6
CONTINUOUS
10
2.2501574803149604
20
0.9396850393700787
11
2.228116338582677
21
0.9396850393700787
0
LINE
8
BLACK
6
CONTINUOUS
10
2.228116338582677
20
0.9396850393700787
11
2.2257727165354328
21
0.9394330314960629
0
LINE
8
BLACK
6
CONTINUOUS
10
2.2257727165354328
20
0.9394330314960629
11
2.225772440944882
21
0.9394329527559054
0
LINE
8
BLACK
6
CONTINUOUS
10
2.225772440944882
20
0.9394329527559054
11
2.2204690157480313
21
0.9374549212598425
0
LINE
8
BLACK
6
CONTINUOUS
10
2.2204690157480313
20
0.9374549212598425
11
2.2204687401574801
21
0.9374547637795275
0
LINE
8
BLACK
6
CONTINUOUS
10
2.2204687401574801
20
0.9374547637795275
11
2.2159374803149605
21
0.9340626377952755
0
LINE
8
BLACK
6
CONTINUOUS
10
2.2159374803149605
20
0.9340626377952755
11
2.2159373622047243
21
0.9340625196850394
0
LINE
8
BLACK
6
CONTINUOUS
10
2.2159373622047243
20
0.9340625196850394
11
2.2125452362204725
21
0.9295312598425197
0
LINE
8
BLACK
6
CONTINUOUS
10
2.2125452362204725
20
0.9295312598425197
11
2.2125450787401575
21
0.9295309842519685
0
LINE
8
BLACK
6
CONTINUOUS
10
2.2125450787401575
20
0.9295309842519685
11
2.2105670472440946
21
0.9242275590551181
0
LINE
8
BLACK
6
CONTINUOUS
10
2.2105670472440946
20
0.9242275590551181
11
2.2105669685039371
21
0.924227283464567
0
LINE
8
BLACK
6
CONTINUOUS
10
2.2105669685039371
20
0.924227283464567
11
2.2103149606299213
21
0.9218836614173228
0
LINE
8
BLACK
6
CONTINUOUS
10
2.2103149606299213
20
0.9218836614173228
11
2.2103149606299213
21
0.8998425196850394
0
LINE
8
BLACK
6
CONTINUOUS
10
0.2756158267716535
20
1.0899610629921259
11
0.2779666141732283
21
1.0801692125984252
0
LINE
8
BLACK
6
CONTINUOUS
10
0.2779666141732283
20
1.0801692125984252
11
0.2818202362204724
21
1.0708656692913385
0
LINE
8
BLACK
6
CONTINUOUS
10
0.2818202362204724
20
1.0708656692913385
11
0.2818203149606299
21
1.0708655511811023
0
LINE
8
BLACK
6
CONTINUOUS
10
0.2818203149606299
20
1.0708655511811023
11
0.2870816929133858
21
1.0622797244094488
0
LINE
8
BLACK
6
CONTINUOUS
10
0.2870816929133858
20
1.0622797244094488
11
0.287082125984252
21
1.0622791338582678
0
LINE
8
BLACK
6
CONTINUOUS
10
0.287082125984252
20
1.0622791338582678
11
0.2872099606299213
21
1.0621294881889765
0
LINE
8
BLACK
6
CONTINUOUS
10
0.2872099606299213
20
1.0621294881889765
11
0.2872100393700787
21
1.0621294881889765
0
LINE
8
BLACK
6
CONTINUOUS
10
0.2872100393700787
20
1.0621294881889765
11
0.3015240551181103
21
1.0764435433070867
0
LINE
8
BLACK
6
CONTINUOUS
10
0.3015240551181103
20
1.0764435433070867
11
0.3013427559055118
21
1.076683622047244
0
LINE
8
BLACK
6
CONTINUOUS
10
0.3013427559055118
20
1.076683622047244
11
0.2976995669291339
21
1.0840001181102361
0
LINE
8
BLACK
6
CONTINUOUS
10
0.2976995669291339
20
1.0840001181102361
11
0.2954627952755906
21
1.0918614960629922
0
LINE
8
BLACK
6
CONTINUOUS
10
0.2954627952755906
20
1.0918614960629922
11
0.2947086614173228
21
1.0999999999999999
0
LINE
8
BLACK
6
CONTINUOUS
10
0.2947086614173228
20
1.0999999999999999
11
0.2954627952755906
21
1.1081385039370077
0
LINE
8
BLACK
6
CONTINUOUS
10
0.2954627952755906
20
1.1081385039370077
11
0.2976995669291339
21
1.1159998818897638
0
LINE
8
BLACK
6
CONTINUOUS
10
0.2976995669291339
20
1.1159998818897638
11
0.3013427559055118
21
1.123316377952756
0
LINE
8
BLACK
6
CONTINUOUS
10
0.3013427559055118
20
1.123316377952756
11
0.3015240551181103
21
1.1235565354330708
0
LINE
8
BLACK
6
CONTINUOUS
10
0.3015240551181103
20
1.1235565354330708
11
0.28721
21
1.137870590551181
0
LINE
8
BLACK
6
CONTINUOUS
10
0.28721
20
1.137870590551181
11
0.2870818897637795
21
1.1377205905511811
0
LINE
8
BLACK
6
CONTINUOUS
10
0.2870818897637795
20
1.1377205905511811
11
0.2818203149606299
21
1.1291344881889764
0
LINE
8
BLACK
6
CONTINUOUS
10
0.2818203149606299
20
1.1291344881889764
11
0.2818202362204724
21
1.1291343700787402
0
LINE
8
BLACK
6
CONTINUOUS
10
0.2818202362204724
20
1.1291343700787402
11
0.2779666141732283
21
1.1198308267716535
0
LINE
8
BLACK
6
CONTINUOUS
10
0.2779666141732283
20
1.1198308267716535
11
0.2756158267716535
21
1.1100389763779528
0
LINE
8
BLACK
6
CONTINUOUS
10
0.2756158267716535
20
1.1100389763779528
11
0.2748257874015748
21
1.0999999999999999
0
LINE
8
BLACK
6
CONTINUOUS
10
0.2748257874015748
20
1.0999999999999999
11
0.2756158267716535
21
1.0899610629921259
0
LINE
8
BLACK
6
CONTINUOUS
10
0.4756158267716535
20
1.0899610629921259
11
0.4779666141732283
21
1.0801692125984252
0
LINE
8
BLACK
6
CONTINUOUS
10
0.4779666141732283
20
1.0801692125984252
11
0.4818202362204724
21
1.0708656692913385
0
LINE
8
BLACK
6
CONTINUOUS
10
0.4818202362204724
20
1.0708656692913385
11
0.4818203149606299
21
1.0708655511811023
0
LINE
8
BLACK
6
CONTINUOUS
10
0.4818203149606299
20
1.0708655511811023
11
0.4870816929133858
21
1.0622797244094488
0
LINE
8
BLACK
6
CONTINUOUS
10
0.4870816929133858
20
1.0622797244094488
11
0.4870821259842519
21
1.0622791338582678
0
LINE
8
BLACK
6
CONTINUOUS
10
0.4870821259842519
20
1.0622791338582678
11
0.4872099606299212
21
1.0621294881889765
0
LINE
8
BLACK
6
CONTINUOUS
10
0.4872099606299212
20
1.0621294881889765
11
0.4872100393700787
21
1.0621294881889765
0
LINE
8
BLACK
6
CONTINUOUS
10
0.4872100393700787
20
1.0621294881889765
11
0.5015240551181103
21
1.0764435433070867
0
LINE
8
BLACK
6
CONTINUOUS
10
0.5015240551181103
20
1.0764435433070867
11
0.5013427559055118
21
1.076683622047244
0
LINE
8
BLACK
6
CONTINUOUS
10
0.5013427559055118
20
1.076683622047244
11
0.4976995669291339
21
1.0840001181102361
0
LINE
8
BLACK
6
CONTINUOUS
10
0.4976995669291339
20
1.0840001181102361
11
0.4954627952755906
21
1.0918614960629922
0
LINE
8
BLACK
6
CONTINUOUS
10
0.4954627952755906
20
1.0918614960629922
11
0.4947086614173228
21
1.0999999999999999
0
LINE
8
BLACK
6
CONTINUOUS
10
0.4947086614173228
20
1.0999999999999999
11
0.4954627952755906
21
1.1081385039370077
0
LINE
8
BLACK
6
CONTINUOUS
10
0.4954627952755906
20
1.1081385039370077
11
0.4976995669291339
21
1.1159998818897638
0
LINE
8
BLACK
6
CONTINUOUS
10
0.4976995669291339
20
1.1159998818897638
11
0.5013427559055118
21
1.123316377952756
0
LINE
8
BLACK
6
CONTINUOUS
10
0.5013427559055118
20
1.123316377952756
11
0.5015240551181103
21
1.123556496062992
0
LINE
8
BLACK
6
CONTINUOUS
10
0.5015240551181103
20
1.123556496062992
11
0.4872099606299212
21
1.137870590551181
0
LINE
8
BLACK
6
CONTINUOUS
10
0.4872099606299212
20
1.137870590551181
11
0.4870818897637795
21
1.1377205905511811
0
LINE
8
BLACK
6
CONTINUOUS
10
0.4870818897637795
20
1.1377205905511811
11
0.4818203149606299
21
1.1291344881889764
0
LINE
8
BLACK
6
CONTINUOUS
10
0.4818203149606299
20
1.1291344881889764
11
0.4818202362204724
21
1.1291343700787402
0
LINE
8
BLACK
6
CONTINUOUS
10
0.4818202362204724
20
1.1291343700787402
11
0.4779666141732283
21
1.1198308267716535
0
LINE
8
BLACK
6
CONTINUOUS
10
0.4779666141732283
20
1.1198308267716535
11
0.4756158267716535
21
1.1100389763779528
0
LINE
8
BLACK
6
CONTINUOUS
10
0.4756158267716535
20
1.1100389763779528
11
0.4748257874015748
21
1.0999999999999999
0
LINE
8
BLACK
6
CONTINUOUS
10
0.4748257874015748
20
1.0999999999999999
11
0.4756158267716535
21
1.0899610629921259
0
CIRCLE
8
BLACK
10
2.3999999999999999
20
0.4
40
0.0068897637795276
0
CIRCLE
8
BLACK
10
0.4
20
0.4
40
0.0068897637795276
0
CIRCLE
8
BLACK
10
0.4
20
1.5999999999999999
40
0.0068897637795276
0
CIRCLE
8
BLACK
10
2.3600000393700786
20
1.3599999999999999
40
0.0068897637795276
0
CIRCLE
8
BLACK
10
2.259999960629921
20
1.3599999999999999
40
0.0068897637795276
0
CIRCLE
8
BLACK
10
2.3600000393700786
20
1.26
40
0.0068897637795276
0
CIRCLE
8
BLACK
10
2.259999960629921
20
1.26
40
0.0068897637795276
0
CIRCLE
8
BLACK
10
2.3999999999999999
20
1.5999999999999999
40
0.0068897637795276
0
CIRCLE
8
BLACK
10
2.3600000393700786
20
1.0600000000000001
40
0.0068897637795276
0
CIRCLE
8
BLACK
10
2.259999960629921
20
1.0600000000000001
40
0.0068897637795276
0
CIRCLE
8
BLACK
10
2.2599999999999998
20
0.89
40
0.0068897637795276
0
CIRCLE
8
BLACK
10
2.3599999999999999
20
0.89
40
0.0068897637795276
0
CIRCLE
8
BLACK
10
2.2599999999999998
20
0.79
40
0.0068897637795276
0
CIRCLE
8
BLACK
10
2.3599999999999999
20
0.79
40
0.0068897637795276
0
CIRCLE
8
BLACK
10
2.2599999999999998
20
0.6899999999999999
40
0.0068897637795276
0
CIRCLE
8
BLACK
10
2.3599999999999999
20
0.6899999999999999
40
0.0068897637795276
0
CIRCLE
8
BLACK
10
2.3600000393700786
20
1.1599999999999999
40
0.0068897637795276
0
CIRCLE
8
BLACK
10
2.259999960629921
20
1.1599999999999999
40
0.0068897637795276
0
CIRCLE
8
BLACK
10
0.439
20
1.
40
0.0068897637795276
0
CIRCLE
8
BLACK
10
0.339
20
1.0999999999999999
40
0.0068897637795276
0
CIRCLE
8
BLACK
10
0.339
20
0.9
40
0.0068897637795276
0
CIRCLE
8
BLACK
10
0.539
20
1.0999999999999999
40
0.0068897637795276
0
CIRCLE
8
BLACK
10
0.539
20
0.9
40
0.0068897637795276
0
CIRCLE
8
BLACK
10
1.6199999999999999
20
1.25
40
0.0068897637795276
0
CIRCLE
8
BLACK
10
1.6199999999999999
20
1.3499999999999999
40
0.0068897637795276
0
CIRCLE
8
BLACK
10
2.0829999999999997
20
0.883
40
0.0078740157480315
0
CIRCLE
8
BLACK
10
1.54
20
1.1850000000000001
40
0.0078740157480315
0
CIRCLE
8
BLACK
10
1.825
20
1.02
40
0.0078740157480315
0
CIRCLE
8
BLACK
10
1.905
20
1.0175984251968504
40
0.0078740157480315
  0
ENDSEC
  0
EOF
