  0
SECTION
  2
HEADER
  9
$ANGBASE
  50
0.0
  9
$ANGDIR
  70
1
  9
$MEASUREMENT
  70
0
  0
ENDSEC
  0
SECTION
  2
TABLES
  0
TABLE
  2
LTYPE
  70
4
  0
LTYPE
  5
40F
  2
CONTINUOUS
  70
0
  3
Solid line
  72
65
  73
0
  40
0.0
  0
LTYPE
  5
410
  2
DASHDOT
 70
0
  3
Dash Dot ____ _ ____ _
 72
65
 73
4
 40
2.0
 49
1.25
 49
-0.25
 49
0.25
 49
-0.25
  0
LTYPE
  5
411
  2
DASHED
 70
0
  3
Dashed __ __ __ __ __
 72
65
 73
2
 40
0.75
 49
0.5
 49
-0.25
  0
LTYPE
  5
43B
  2
DOTTED
 70
0
  3
Dotted .  .  .  .
 72
65
 73
2
 40
0.2
 49
0.0
 49
-0.2
  0
ENDTAB
  0
TABLE
  2
STYLE
  70
4
  0
STYLE
  2
KICAD
  70
0
  40
0
  41
1
  42
1
  50
0
  71
0
  3
isocp.shx
  0
STYLE
  2
KICADB
  70
0
  40
0
  41
1
  42
1
  50
0
  71
0
  3
isocp.shx
  0
STYLE
  2
KICADI
  70
0
  40
0
  41
1
  42
1
  50
15
  71
0
  3
isocp.shx
  0
STYLE
  2
KICADBI
  70
0
  40
0
  41
1
  42
1
  50
15
  71
0
  3
isocp.shx
  0
ENDTAB
  0
TABLE
  2
LAYER
  70
1
  0
LAYER
  2
BLACK
  70
0
  62
7
  6
CONTINUOUS
  0
ENDTAB
  0
ENDSEC
  0
SECTION
  2
ENTITIES
0
LINE
8
BLACK
6
CONTINUOUS
10
0.1781622440944882
20
-1.3549336220472441
11
0.1787793307086614
21
-1.3553657086614173
0
LINE
8
BLACK
6
CONTINUOUS
10
0.1787793307086614
20
-1.3553657086614173
11
0.1789185039370079
21
-1.3557236220472442
0
LINE
8
BLACK
6
CONTINUOUS
10
0.1789185039370079
20
-1.3557236220472442
11
0.1991546850393701
21
-1.470488622047244
0
LINE
8
BLACK
6
CONTINUOUS
10
0.1991546850393701
20
-1.470488622047244
11
0.1991462992125984
21
-1.4708723228346456
0
LINE
8
BLACK
6
CONTINUOUS
10
0.1991462992125984
20
-1.4708723228346456
11
0.1991463385826772
21
-1.4708725590551182
0
LINE
8
BLACK
6
CONTINUOUS
10
0.1991463385826772
20
-1.4708725590551182
11
0.1987142519685039
21
-1.4714896456692914
0
LINE
8
BLACK
6
CONTINUOUS
10
0.1987142519685039
20
-1.4714896456692914
11
0.1983562992125984
21
-1.4716288188976379
0
LINE
8
BLACK
6
CONTINUOUS
10
0.1983562992125984
20
-1.4716288188976379
11
0.1417492519685039
21
-1.4816101968503936
0
LINE
8
BLACK
6
CONTINUOUS
10
0.1417492519685039
20
-1.4816101968503936
11
0.1413653149606299
21
-1.481601811023622
0
LINE
8
BLACK
6
CONTINUOUS
10
0.1413653149606299
20
-1.481601811023622
11
0.1407482283464567
21
-1.4811697244094488
0
LINE
8
BLACK
6
CONTINUOUS
10
0.1407482283464567
20
-1.4811697244094488
11
0.1406090551181102
21
-1.4808118110236219
0
LINE
8
BLACK
6
CONTINUOUS
10
0.1406090551181102
20
-1.4808118110236219
11
0.120372874015748
21
-1.3660468110236219
0
LINE
8
BLACK
6
CONTINUOUS
10
0.120372874015748
20
-1.3660468110236219
11
0.1203812598425197
21
-1.3656628740157479
0
LINE
8
BLACK
6
CONTINUOUS
10
0.1203812598425197
20
-1.3656628740157479
11
0.1208133464566929
21
-1.3650457874015747
0
LINE
8
BLACK
6
CONTINUOUS
10
0.1208133464566929
20
-1.3650457874015747
11
0.1211712598425197
21
-1.3649066141732282
0
LINE
8
BLACK
6
CONTINUOUS
10
0.1211712598425197
20
-1.3649066141732282
11
0.1777783070866142
21
-1.3549252362204725
0
LINE
8
BLACK
6
CONTINUOUS
10
0.1777783070866142
20
-1.3549252362204725
11
0.1781622440944882
21
-1.3549336220472441
0
LINE
8
BLACK
6
CONTINUOUS
10
0.1224823622047244
20
-1.366674251968504
11
0.1423766929133858
21
-1.4795006692913386
0
LINE
8
BLACK
6
CONTINUOUS
10
0.1423766929133858
20
-1.4795006692913386
11
0.197045157480315
21
-1.4698611417322833
0
LINE
8
BLACK
6
CONTINUOUS
10
0.197045157480315
20
-1.4698611417322833
11
0.1771508267716535
21
-1.3570347244094487
0
LINE
8
BLACK
6
CONTINUOUS
10
0.1771508267716535
20
-1.3570347244094487
11
0.1224823622047244
21
-1.366674251968504
0
LINE
8
BLACK
6
CONTINUOUS
10
0.3232247244094488
20
-1.3289477559055118
11
0.3233945669291339
21
-1.3292922047244093
0
LINE
8
BLACK
6
CONTINUOUS
10
0.3233945669291339
20
-1.3292922047244093
11
0.3535561417322834
21
-1.4418567322834646
0
LINE
8
BLACK
6
CONTINUOUS
10
0.3535561417322834
20
-1.4418567322834646
11
0.3535812598425197
21
-1.4422399606299212
0
LINE
8
BLACK
6
CONTINUOUS
10
0.3535812598425197
20
-1.4422399606299212
11
0.3532046062992126
21
-1.4428923622047243
0
LINE
8
BLACK
6
CONTINUOUS
10
0.3532046062992126
20
-1.4428923622047243
11
0.352860157480315
21
-1.4430622047244095
0
LINE
8
BLACK
6
CONTINUOUS
10
0.352860157480315
20
-1.4430622047244095
11
0.2973384251968504
21
-1.4579392125984252
0
LINE
8
BLACK
6
CONTINUOUS
10
0.2973384251968504
20
-1.4579392125984252
11
0.2969552362204724
21
-1.4579643307086614
0
LINE
8
BLACK
6
CONTINUOUS
10
0.2969552362204724
20
-1.4579643307086614
11
0.2963028346456693
21
-1.4575876771653542
0
LINE
8
BLACK
6
CONTINUOUS
10
0.2963028346456693
20
-1.4575876771653542
11
0.2963027952755906
21
-1.4575875590551182
0
LINE
8
BLACK
6
CONTINUOUS
10
0.2963027952755906
20
-1.4575875590551182
11
0.2961329921259843
21
-1.4572432283464567
0
LINE
8
BLACK
6
CONTINUOUS
10
0.2961329921259843
20
-1.4572432283464567
11
0.2659714173228346
21
-1.3446786614173227
0
LINE
8
BLACK
6
CONTINUOUS
10
0.2659714173228346
20
-1.3446786614173227
11
0.2659462992125984
21
-1.3442954724409448
0
LINE
8
BLACK
6
CONTINUOUS
10
0.2659462992125984
20
-1.3442954724409448
11
0.2663229527559055
21
-1.3436430708661418
0
LINE
8
BLACK
6
CONTINUOUS
10
0.2663229527559055
20
-1.3436430708661418
11
0.2666674015748031
21
-1.3434732283464568
0
LINE
8
BLACK
6
CONTINUOUS
10
0.2666674015748031
20
-1.3434732283464568
11
0.3221890944881889
21
-1.3285962204724409
0
LINE
8
BLACK
6
CONTINUOUS
10
0.3221890944881889
20
-1.3285962204724409
11
0.3225723228346457
21
-1.3285711023622047
0
LINE
8
BLACK
6
CONTINUOUS
10
0.3225723228346457
20
-1.3285711023622047
11
0.3232247244094488
21
-1.3289477559055118
0
LINE
8
BLACK
6
CONTINUOUS
10
0.2681275590551181
20
-1.3451198818897638
11
0.2977796456692913
21
-1.4557830314960629
0
LINE
8
BLACK
6
CONTINUOUS
10
0.2977796456692913
20
-1.4557830314960629
11
0.3513999606299212
21
-1.4414155118110237
0
LINE
8
BLACK
6
CONTINUOUS
10
0.3513999606299212
20
-1.4414155118110237
11
0.321747874015748
21
-1.3307523622047244
0
LINE
8
BLACK
6
CONTINUOUS
10
0.321747874015748
20
-1.3307523622047244
11
0.2681275590551181
21
-1.3451198818897638
0
LINE
8
BLACK
6
CONTINUOUS
10
0.4625676377952756
20
-1.2880192913385826
11
0.4627668503937008
21
-1.2883476377952756
0
LINE
8
BLACK
6
CONTINUOUS
10
0.4627668503937008
20
-1.2883476377952756
11
0.5026242913385827
21
-1.3978551181102361
0
LINE
8
BLACK
6
CONTINUOUS
10
0.5026242913385827
20
-1.3978551181102361
11
0.5026826771653543
21
-1.3982346062992126
0
LINE
8
BLACK
6
CONTINUOUS
10
0.5026826771653543
20
-1.3982346062992126
11
0.5026827165354331
21
-1.3982346456692913
0
LINE
8
BLACK
6
CONTINUOUS
10
0.5026827165354331
20
-1.3982346456692913
11
0.5023643700787401
21
-1.3989174015748032
0
LINE
8
BLACK
6
CONTINUOUS
10
0.5023643700787401
20
-1.3989174015748032
11
0.502036062992126
21
-1.3991166141732283
0
LINE
8
BLACK
6
CONTINUOUS
10
0.502036062992126
20
-1.3991166141732283
11
0.4480222440944882
21
-1.418776062992126
0
LINE
8
BLACK
6
CONTINUOUS
10
0.4480222440944882
20
-1.418776062992126
11
0.4476428346456693
21
-1.4188344488188975
0
LINE
8
BLACK
6
CONTINUOUS
10
0.4476428346456693
20
-1.4188344488188975
11
0.4476426771653543
21
-1.418834527559055
0
LINE
8
BLACK
6
CONTINUOUS
10
0.4476426771653543
20
-1.418834527559055
11
0.4469599212598425
21
-1.4185161417322834
0
LINE
8
BLACK
6
CONTINUOUS
10
0.4469599212598425
20
-1.4185161417322834
11
0.4467607086614173
21
-1.4181878346456693
0
LINE
8
BLACK
6
CONTINUOUS
10
0.4467607086614173
20
-1.4181878346456693
11
0.4069032677165354
21
-1.3086803149606299
0
LINE
8
BLACK
6
CONTINUOUS
10
0.4069032677165354
20
-1.3086803149606299
11
0.4068448425196851
21
-1.3083007874015748
0
LINE
8
BLACK
6
CONTINUOUS
10
0.4068448425196851
20
-1.3083007874015748
11
0.4071631889763779
21
-1.307618031496063
0
LINE
8
BLACK
6
CONTINUOUS
10
0.4071631889763779
20
-1.307618031496063
11
0.4074914960629921
21
-1.3074188188976377
0
LINE
8
BLACK
6
CONTINUOUS
10
0.4074914960629921
20
-1.3074188188976377
11
0.4615053149606299
21
-1.2877593700787402
0
LINE
8
BLACK
6
CONTINUOUS
10
0.4615053149606299
20
-1.2877593700787402
11
0.4618848818897638
21
-1.2877009448818897
0
LINE
8
BLACK
6
CONTINUOUS
10
0.4618848818897638
20
-1.2877009448818897
11
0.4625676377952756
21
-1.2880192913385826
0
LINE
8
BLACK
6
CONTINUOUS
10
0.4090896456692913
20
-1.3089319291338581
11
0.4482738188976378
21
-1.4165896456692912
0
LINE
8
BLACK
6
CONTINUOUS
10
0.4482738188976378
20
-1.4165896456692912
11
0.500437874015748
21
-1.3976034645669291
0
LINE
8
BLACK
6
CONTINUOUS
10
0.500437874015748
20
-1.3976034645669291
11
0.4612537007874016
21
-1.289945748031496
0
LINE
8
BLACK
6
CONTINUOUS
10
0.4612537007874016
20
-1.289945748031496
11
0.4090896456692913
21
-1.3089319291338581
0
LINE
8
BLACK
6
CONTINUOUS
10
0.5968511811023622
20
-1.2325874409448818
11
0.5970782677165354
21
-1.2328971653543306
0
LINE
8
BLACK
6
CONTINUOUS
10
0.5970782677165354
20
-1.2328971653543306
11
0.6463282677165354
21
-1.3385141338582678
0
LINE
8
BLACK
6
CONTINUOUS
10
0.6463282677165354
20
-1.3385141338582678
11
0.6464195275590551
21
-1.3388871259842519
0
LINE
8
BLACK
6
CONTINUOUS
10
0.6464195275590551
20
-1.3388871259842519
11
0.6461618897637795
21
-1.3395950393700786
0
LINE
8
BLACK
6
CONTINUOUS
10
0.6461618897637795
20
-1.3395950393700786
11
0.6458522047244094
21
-1.339822125984252
0
LINE
8
BLACK
6
CONTINUOUS
10
0.6458522047244094
20
-1.339822125984252
11
0.5937572834645669
21
-1.3641143700787401
0
LINE
8
BLACK
6
CONTINUOUS
10
0.5937572834645669
20
-1.3641143700787401
11
0.5933842913385826
21
-1.3642056299212597
0
LINE
8
BLACK
6
CONTINUOUS
10
0.5933842913385826
20
-1.3642056299212597
11
0.5926763779527559
21
-1.3639479921259843
0
LINE
8
BLACK
6
CONTINUOUS
10
0.5926763779527559
20
-1.3639479921259843
11
0.5924492913385827
21
-1.363638307086614
0
LINE
8
BLACK
6
CONTINUOUS
10
0.5924492913385827
20
-1.363638307086614
11
0.5431992913385827
21
-1.2580212992125983
0
LINE
8
BLACK
6
CONTINUOUS
10
0.5431992913385827
20
-1.2580212992125983
11
0.543108031496063
21
-1.2576483070866142
0
LINE
8
BLACK
6
CONTINUOUS
10
0.543108031496063
20
-1.2576483070866142
11
0.5433656692913386
21
-1.2569403937007875
0
LINE
8
BLACK
6
CONTINUOUS
10
0.5433656692913386
20
-1.2569403937007875
11
0.5436753937007874
21
-1.2567133070866141
0
LINE
8
BLACK
6
CONTINUOUS
10
0.5436753937007874
20
-1.2567133070866141
11
0.5957702755905512
21
-1.2324210629921259
0
LINE
8
BLACK
6
CONTINUOUS
10
0.5957702755905512
20
-1.2324210629921259
11
0.596143188976378
21
-1.2323298031496062
0
LINE
8
BLACK
6
CONTINUOUS
10
0.596143188976378
20
-1.2323298031496062
11
0.5961432677165355
21
-1.2323298031496062
0
LINE
8
BLACK
6
CONTINUOUS
10
0.5961432677165355
20
-1.2323298031496062
11
0.5961433070866141
21
-1.2323298031496062
0
LINE
8
BLACK
6
CONTINUOUS
10
0.5961433070866141
20
-1.2323298031496062
11
0.5968511811023622
21
-1.2325874409448818
0
LINE
8
BLACK
6
CONTINUOUS
10
0.5453993307086614
20
-1.2580814173228345
11
0.5938174015748031
21
-1.3619142913385827
0
LINE
8
BLACK
6
CONTINUOUS
10
0.5938174015748031
20
-1.3619142913385827
11
0.6441281889763779
21
-1.3384539763779528
0
LINE
8
BLACK
6
CONTINUOUS
10
0.6441281889763779
20
-1.3384539763779528
11
0.5957101181102362
21
-1.2346211023622047
0
LINE
8
BLACK
6
CONTINUOUS
10
0.5957101181102362
20
-1.2346211023622047
11
0.5453993307086614
21
-1.2580814173228345
0
LINE
8
BLACK
6
CONTINUOUS
10
-0.2830879133858268
20
-1.2215316141732284
11
-0.2825552362204725
21
-1.2220642913385826
0
LINE
8
BLACK
6
CONTINUOUS
10
-0.2825552362204725
20
-1.2220642913385826
11
-0.2824803149606299
21
-1.2224409448818898
0
LINE
8
BLACK
6
CONTINUOUS
10
-0.2824803149606299
20
-1.2224409448818898
11
-0.2824803149606299
21
-1.3287401574803148
0
LINE
8
BLACK
6
CONTINUOUS
10
-0.2824803149606299
20
-1.3287401574803148
11
-0.2825552362204725
21
-1.329116811023622
0
LINE
8
BLACK
6
CONTINUOUS
10
-0.2825552362204725
20
-1.329116811023622
11
-0.2830879133858268
21
-1.3296494881889764
0
LINE
8
BLACK
6
CONTINUOUS
10
-0.2830879133858268
20
-1.3296494881889764
11
-0.2834645669291339
21
-1.329724409448819
0
LINE
8
BLACK
6
CONTINUOUS
10
-0.2834645669291339
20
-1.329724409448819
11
-0.3937007874015748
21
-1.329724409448819
0
LINE
8
BLACK
6
CONTINUOUS
10
-0.3937007874015748
20
-1.329724409448819
11
-0.3940774409448819
21
-1.3296494881889764
0
LINE
8
BLACK
6
CONTINUOUS
10
-0.3940774409448819
20
-1.3296494881889764
11
-0.3946101181102362
21
-1.329116811023622
0
LINE
8
BLACK
6
CONTINUOUS
10
-0.3946101181102362
20
-1.329116811023622
11
-0.3946850393700787
21
-1.3287401574803148
0
LINE
8
BLACK
6
CONTINUOUS
10
-0.3946850393700787
20
-1.3287401574803148
11
-0.3946850393700787
21
-1.2224409448818898
0
LINE
8
BLACK
6
CONTINUOUS
10
-0.3946850393700787
20
-1.2224409448818898
11
-0.3946101181102362
21
-1.2220642913385826
0
LINE
8
BLACK
6
CONTINUOUS
10
-0.3946101181102362
20
-1.2220642913385826
11
-0.3940774409448819
21
-1.2215316141732284
0
LINE
8
BLACK
6
CONTINUOUS
10
-0.3940774409448819
20
-1.2215316141732284
11
-0.3937007874015748
21
-1.2214566929133859
0
LINE
8
BLACK
6
CONTINUOUS
10
-0.3937007874015748
20
-1.2214566929133859
11
-0.2834645669291339
21
-1.2214566929133859
0
LINE
8
BLACK
6
CONTINUOUS
10
-0.2834645669291339
20
-1.2214566929133859
11
-0.2830879133858268
21
-1.2215316141732284
0
LINE
8
BLACK
6
CONTINUOUS
10
-0.3927165354330708
20
-1.2234251968503937
11
-0.3927165354330708
21
-1.3277559055118109
0
LINE
8
BLACK
6
CONTINUOUS
10
-0.3927165354330708
20
-1.3277559055118109
11
-0.2844488188976378
21
-1.3277559055118109
0
LINE
8
BLACK
6
CONTINUOUS
10
-0.2844488188976378
20
-1.3277559055118109
11
-0.2844488188976378
21
-1.2234251968503937
0
LINE
8
BLACK
6
CONTINUOUS
10
-0.2844488188976378
20
-1.2234251968503937
11
-0.3927165354330708
21
-1.2234251968503937
0
LINE
8
BLACK
6
CONTINUOUS
10
0.3088805905511811
20
-1.1565709842519685
11
0.3094132677165354
21
-1.1571036614173229
0
LINE
8
BLACK
6
CONTINUOUS
10
0.3094132677165354
20
-1.1571036614173229
11
0.3094881889763779
21
-1.1574803149606299
0
LINE
8
BLACK
6
CONTINUOUS
10
0.3094881889763779
20
-1.1574803149606299
11
0.3094881889763779
21
-1.274015748031496
0
LINE
8
BLACK
6
CONTINUOUS
10
0.3094881889763779
20
-1.274015748031496
11
0.3094132677165354
21
-1.2743924015748032
0
LINE
8
BLACK
6
CONTINUOUS
10
0.3094132677165354
20
-1.2743924015748032
11
0.3088805905511811
21
-1.2749250787401574
0
LINE
8
BLACK
6
CONTINUOUS
10
0.3088805905511811
20
-1.2749250787401574
11
0.308503937007874
21
-1.2749999999999999
0
LINE
8
BLACK
6
CONTINUOUS
10
0.308503937007874
20
-1.2749999999999999
11
0.2510236220472441
21
-1.2749999999999999
0
LINE
8
BLACK
6
CONTINUOUS
10
0.2510236220472441
20
-1.2749999999999999
11
0.250646968503937
21
-1.2749250787401574
0
LINE
8
BLACK
6
CONTINUOUS
10
0.250646968503937
20
-1.2749250787401574
11
0.2501142913385827
21
-1.2743924015748032
0
LINE
8
BLACK
6
CONTINUOUS
10
0.2501142913385827
20
-1.2743924015748032
11
0.2500393700787402
21
-1.274015748031496
0
LINE
8
BLACK
6
CONTINUOUS
10
0.2500393700787402
20
-1.274015748031496
11
0.2500393700787402
21
-1.1574803149606299
0
LINE
8
BLACK
6
CONTINUOUS
10
0.2500393700787402
20
-1.1574803149606299
11
0.2501142913385827
21
-1.1571036614173229
0
LINE
8
BLACK
6
CONTINUOUS
10
0.2501142913385827
20
-1.1571036614173229
11
0.250646968503937
21
-1.1565709842519685
0
LINE
8
BLACK
6
CONTINUOUS
10
0.250646968503937
20
-1.1565709842519685
11
0.2510236220472441
21
-1.1564960629921259
0
LINE
8
BLACK
6
CONTINUOUS
10
0.2510236220472441
20
-1.1564960629921259
11
0.308503937007874
21
-1.1564960629921259
0
LINE
8
BLACK
6
CONTINUOUS
10
0.308503937007874
20
-1.1564960629921259
11
0.3088805905511811
21
-1.1565709842519685
0
LINE
8
BLACK
6
CONTINUOUS
10
0.252007874015748
20
-1.1584645669291338
11
0.252007874015748
21
-1.273031496062992
0
LINE
8
BLACK
6
CONTINUOUS
10
0.252007874015748
20
-1.273031496062992
11
0.30751968503937
21
-1.273031496062992
0
LINE
8
BLACK
6
CONTINUOUS
10
0.30751968503937
20
-1.273031496062992
11
0.30751968503937
21
-1.1584645669291338
0
LINE
8
BLACK
6
CONTINUOUS
10
0.30751968503937
20
-1.1584645669291338
11
0.252007874015748
21
-1.1584645669291338
0
LINE
8
BLACK
6
CONTINUOUS
10
0.3788805905511811
20
-1.1561930314960629
11
0.3794132677165354
21
-1.1567257086614173
0
LINE
8
BLACK
6
CONTINUOUS
10
0.3794132677165354
20
-1.1567257086614173
11
0.3794881889763779
21
-1.1571023622047243
0
LINE
8
BLACK
6
CONTINUOUS
10
0.3794881889763779
20
-1.1571023622047243
11
0.3794881889763779
21
-1.2736377952755906
0
LINE
8
BLACK
6
CONTINUOUS
10
0.3794881889763779
20
-1.2736377952755906
11
0.3794132677165354
21
-1.2740144488188976
0
LINE
8
BLACK
6
CONTINUOUS
10
0.3794132677165354
20
-1.2740144488188976
11
0.3788805905511811
21
-1.274547125984252
0
LINE
8
BLACK
6
CONTINUOUS
10
0.3788805905511811
20
-1.274547125984252
11
0.378503937007874
21
-1.2746220472440946
0
LINE
8
BLACK
6
CONTINUOUS
10
0.378503937007874
20
-1.2746220472440946
11
0.3210236220472441
21
-1.2746220472440946
0
LINE
8
BLACK
6
CONTINUOUS
10
0.3210236220472441
20
-1.2746220472440946
11
0.320646968503937
21
-1.274547125984252
0
LINE
8
BLACK
6
CONTINUOUS
10
0.320646968503937
20
-1.274547125984252
11
0.3201142913385827
21
-1.2740144488188976
0
LINE
8
BLACK
6
CONTINUOUS
10
0.3201142913385827
20
-1.2740144488188976
11
0.3200393700787402
21
-1.2736377952755906
0
LINE
8
BLACK
6
CONTINUOUS
10
0.3200393700787402
20
-1.2736377952755906
11
0.3200393700787402
21
-1.1571023622047243
0
LINE
8
BLACK
6
CONTINUOUS
10
0.3200393700787402
20
-1.1571023622047243
11
0.3201142913385827
21
-1.1567257086614173
0
LINE
8
BLACK
6
CONTINUOUS
10
0.3201142913385827
20
-1.1567257086614173
11
0.320646968503937
21
-1.1561930314960629
0
LINE
8
BLACK
6
CONTINUOUS
10
0.320646968503937
20
-1.1561930314960629
11
0.3210236220472441
21
-1.1561181102362204
0
LINE
8
BLACK
6
CONTINUOUS
10
0.3210236220472441
20
-1.1561181102362204
11
0.378503937007874
21
-1.1561181102362204
0
LINE
8
BLACK
6
CONTINUOUS
10
0.378503937007874
20
-1.1561181102362204
11
0.3788805905511811
21
-1.1561930314960629
0
LINE
8
BLACK
6
CONTINUOUS
10
0.322007874015748
20
-1.1580866141732282
11
0.322007874015748
21
-1.2726535433070867
0
LINE
8
BLACK
6
CONTINUOUS
10
0.322007874015748
20
-1.2726535433070867
11
0.3775196850393701
21
-1.2726535433070867
0
LINE
8
BLACK
6
CONTINUOUS
10
0.3775196850393701
20
-1.2726535433070867
11
0.3775196850393701
21
-1.1580866141732282
0
LINE
8
BLACK
6
CONTINUOUS
10
0.3775196850393701
20
-1.1580866141732282
11
0.322007874015748
21
-1.1580866141732282
0
LINE
8
BLACK
6
CONTINUOUS
10
0.4488805905511811
20
-1.1540906692913386
11
0.4494132677165354
21
-1.1546233464566928
0
LINE
8
BLACK
6
CONTINUOUS
10
0.4494132677165354
20
-1.1546233464566928
11
0.4494881889763779
21
-1.155
0
LINE
8
BLACK
6
CONTINUOUS
10
0.4494881889763779
20
-1.155
11
0.4494881889763779
21
-1.2715354330708661
0
LINE
8
BLACK
6
CONTINUOUS
10
0.4494881889763779
20
-1.2715354330708661
11
0.4494132677165354
21
-1.2719120866141731
0
LINE
8
BLACK
6
CONTINUOUS
10
0.4494132677165354
20
-1.2719120866141731
11
0.4488805905511811
21
-1.2724447637795275
0
LINE
8
BLACK
6
CONTINUOUS
10
0.4488805905511811
20
-1.2724447637795275
11
0.448503937007874
21
-1.2725196850393701
0
LINE
8
BLACK
6
CONTINUOUS
10
0.448503937007874
20
-1.2725196850393701
11
0.3910236220472441
21
-1.2725196850393701
0
LINE
8
BLACK
6
CONTINUOUS
10
0.3910236220472441
20
-1.2725196850393701
11
0.390646968503937
21
-1.2724447637795275
0
LINE
8
BLACK
6
CONTINUOUS
10
0.390646968503937
20
-1.2724447637795275
11
0.3901142913385827
21
-1.2719120866141731
0
LINE
8
BLACK
6
CONTINUOUS
10
0.3901142913385827
20
-1.2719120866141731
11
0.3900393700787401
21
-1.2715354330708661
0
LINE
8
BLACK
6
CONTINUOUS
10
0.3900393700787401
20
-1.2715354330708661
11
0.3900393700787401
21
-1.155
0
LINE
8
BLACK
6
CONTINUOUS
10
0.3900393700787401
20
-1.155
11
0.3901142913385827
21
-1.1546233464566928
0
LINE
8
BLACK
6
CONTINUOUS
10
0.3901142913385827
20
-1.1546233464566928
11
0.390646968503937
21
-1.1540906692913386
0
LINE
8
BLACK
6
CONTINUOUS
10
0.390646968503937
20
-1.1540906692913386
11
0.3910236220472441
21
-1.1540157480314961
0
LINE
8
BLACK
6
CONTINUOUS
10
0.3910236220472441
20
-1.1540157480314961
11
0.448503937007874
21
-1.1540157480314961
0
LINE
8
BLACK
6
CONTINUOUS
10
0.448503937007874
20
-1.1540157480314961
11
0.4488805905511811
21
-1.1540906692913386
0
LINE
8
BLACK
6
CONTINUOUS
10
0.392007874015748
20
-1.155984251968504
11
0.392007874015748
21
-1.2705511811023622
0
LINE
8
BLACK
6
CONTINUOUS
10
0.392007874015748
20
-1.2705511811023622
11
0.4475196850393701
21
-1.2705511811023622
0
LINE
8
BLACK
6
CONTINUOUS
10
0.4475196850393701
20
-1.2705511811023622
11
0.4475196850393701
21
-1.155984251968504
0
LINE
8
BLACK
6
CONTINUOUS
10
0.4475196850393701
20
-1.155984251968504
11
0.392007874015748
21
-1.155984251968504
0
LINE
8
BLACK
6
CONTINUOUS
10
0.5638805905511811
20
-1.1115709842519685
11
0.5644132677165354
21
-1.1121036614173228
0
LINE
8
BLACK
6
CONTINUOUS
10
0.5644132677165354
20
-1.1121036614173228
11
0.564488188976378
21
-1.1124803149606299
0
LINE
8
BLACK
6
CONTINUOUS
10
0.564488188976378
20
-1.1124803149606299
11
0.564488188976378
21
-1.229015748031496
0
LINE
8
BLACK
6
CONTINUOUS
10
0.564488188976378
20
-1.229015748031496
11
0.5644132677165354
21
-1.2293924015748032
0
LINE
8
BLACK
6
CONTINUOUS
10
0.5644132677165354
20
-1.2293924015748032
11
0.5638805905511811
21
-1.2299250787401574
0
LINE
8
BLACK
6
CONTINUOUS
10
0.5638805905511811
20
-1.2299250787401574
11
0.563503937007874
21
-1.23
0
LINE
8
BLACK
6
CONTINUOUS
10
0.563503937007874
20
-1.23
11
0.506023622047244
21
-1.23
0
LINE
8
BLACK
6
CONTINUOUS
10
0.506023622047244
20
-1.23
11
0.505646968503937
21
-1.2299250787401574
0
LINE
8
BLACK
6
CONTINUOUS
10
0.505646968503937
20
-1.2299250787401574
11
0.5051142913385827
21
-1.2293924015748032
0
LINE
8
BLACK
6
CONTINUOUS
10
0.5051142913385827
20
-1.2293924015748032
11
0.5050393700787401
21
-1.229015748031496
0
LINE
8
BLACK
6
CONTINUOUS
10
0.5050393700787401
20
-1.229015748031496
11
0.5050393700787401
21
-1.1124803149606299
0
LINE
8
BLACK
6
CONTINUOUS
10
0.5050393700787401
20
-1.1124803149606299
11
0.5051142913385827
21
-1.1121036614173228
0
LINE
8
BLACK
6
CONTINUOUS
10
0.5051142913385827
20
-1.1121036614173228
11
0.505646968503937
21
-1.1115709842519685
0
LINE
8
BLACK
6
CONTINUOUS
10
0.505646968503937
20
-1.1115709842519685
11
0.506023622047244
21
-1.111496062992126
0
LINE
8
BLACK
6
CONTINUOUS
10
0.506023622047244
20
-1.111496062992126
11
0.563503937007874
21
-1.111496062992126
0
LINE
8
BLACK
6
CONTINUOUS
10
0.563503937007874
20
-1.111496062992126
11
0.5638805905511811
21
-1.1115709842519685
0
LINE
8
BLACK
6
CONTINUOUS
10
0.507007874015748
20
-1.1134645669291339
11
0.507007874015748
21
-1.2280314960629921
0
LINE
8
BLACK
6
CONTINUOUS
10
0.507007874015748
20
-1.2280314960629921
11
0.5625196850393701
21
-1.2280314960629921
0
LINE
8
BLACK
6
CONTINUOUS
10
0.5625196850393701
20
-1.2280314960629921
11
0.5625196850393701
21
-1.1134645669291339
0
LINE
8
BLACK
6
CONTINUOUS
10
0.5625196850393701
20
-1.1134645669291339
11
0.507007874015748
21
-1.1134645669291339
0
LINE
8
BLACK
6
CONTINUOUS
10
-0.3015918503937008
20
-1.0914135039370079
11
-0.3010591732283465
21
-1.0919461811023621
0
LINE
8
BLACK
6
CONTINUOUS
10
-0.3010591732283465
20
-1.0919461811023621
11
-0.3009842519685039
21
-1.0923228346456693
0
LINE
8
BLACK
6
CONTINUOUS
10
-0.3009842519685039
20
-1.0923228346456693
11
-0.3009842519685039
21
-1.2088582677165354
0
LINE
8
BLACK
6
CONTINUOUS
10
-0.3009842519685039
20
-1.2088582677165354
11
-0.3010591732283465
21
-1.2092349212598426
0
LINE
8
BLACK
6
CONTINUOUS
10
-0.3010591732283465
20
-1.2092349212598426
11
-0.3015918503937008
21
-1.2097675984251968
0
LINE
8
BLACK
6
CONTINUOUS
10
-0.3015918503937008
20
-1.2097675984251968
11
-0.3019685039370079
21
-1.2098425196850393
0
LINE
8
BLACK
6
CONTINUOUS
10
-0.3019685039370079
20
-1.2098425196850393
11
-0.3594488188976378
21
-1.2098425196850393
0
LINE
8
BLACK
6
CONTINUOUS
10
-0.3594488188976378
20
-1.2098425196850393
11
-0.3598254724409449
21
-1.2097675984251968
0
LINE
8
BLACK
6
CONTINUOUS
10
-0.3598254724409449
20
-1.2097675984251968
11
-0.3603581496062992
21
-1.2092349212598426
0
LINE
8
BLACK
6
CONTINUOUS
10
-0.3603581496062992
20
-1.2092349212598426
11
-0.3604330708661417
21
-1.2088582677165354
0
LINE
8
BLACK
6
CONTINUOUS
10
-0.3604330708661417
20
-1.2088582677165354
11
-0.3604330708661417
21
-1.0923228346456693
0
LINE
8
BLACK
6
CONTINUOUS
10
-0.3604330708661417
20
-1.0923228346456693
11
-0.3603581496062992
21
-1.0919461811023621
0
LINE
8
BLACK
6
CONTINUOUS
10
-0.3603581496062992
20
-1.0919461811023621
11
-0.3598254724409449
21
-1.0914135039370079
0
LINE
8
BLACK
6
CONTINUOUS
10
-0.3598254724409449
20
-1.0914135039370079
11
-0.3594488188976378
21
-1.0913385826771653
0
LINE
8
BLACK
6
CONTINUOUS
10
-0.3594488188976378
20
-1.0913385826771653
11
-0.3019685039370079
21
-1.0913385826771653
0
LINE
8
BLACK
6
CONTINUOUS
10
-0.3019685039370079
20
-1.0913385826771653
11
-0.3015918503937008
21
-1.0914135039370079
0
LINE
8
BLACK
6
CONTINUOUS
10
-0.3584645669291339
20
-1.0933070866141732
11
-0.3584645669291339
21
-1.2078740157480314
0
LINE
8
BLACK
6
CONTINUOUS
10
-0.3584645669291339
20
-1.2078740157480314
11
-0.3029527559055118
21
-1.2078740157480314
0
LINE
8
BLACK
6
CONTINUOUS
10
-0.3029527559055118
20
-1.2078740157480314
11
-0.3029527559055118
21
-1.0933070866141732
0
LINE
8
BLACK
6
CONTINUOUS
10
-0.3029527559055118
20
-1.0933070866141732
11
-0.3584645669291339
21
-1.0933070866141732
0
LINE
8
BLACK
6
CONTINUOUS
10
-0.6070207086614173
20
-0.7241897637795276
11
-0.6067013779527559
21
-0.7244031102362205
0
LINE
8
BLACK
6
CONTINUOUS
10
-0.6067013779527559
20
-0.7244031102362205
11
-0.4563716141732284
21
-0.8747328740157481
0
LINE
8
BLACK
6
CONTINUOUS
10
-0.4563716141732284
20
-0.8747328740157481
11
-0.4561582677165354
21
-0.8750522047244095
0
LINE
8
BLACK
6
CONTINUOUS
10
-0.4561582677165354
20
-0.8750522047244095
11
-0.4561582677165354
21
-0.8758055118110236
0
LINE
8
BLACK
6
CONTINUOUS
10
-0.4561582677165354
20
-0.8758055118110236
11
-0.4563716141732284
21
-0.8761248031496063
0
LINE
8
BLACK
6
CONTINUOUS
10
-0.4563716141732284
20
-0.8761248031496063
11
-0.662379094488189
21
-1.0821323228346456
0
LINE
8
BLACK
6
CONTINUOUS
10
-0.662379094488189
20
-1.0821323228346456
11
-0.6626984251968504
21
-1.0823456692913385
0
LINE
8
BLACK
6
CONTINUOUS
10
-0.6626984251968504
20
-1.0823456692913385
11
-0.6634517322834645
21
-1.0823456692913385
0
LINE
8
BLACK
6
CONTINUOUS
10
-0.6634517322834645
20
-1.0823456692913385
11
-0.663771062992126
21
-1.0821323228346456
0
LINE
8
BLACK
6
CONTINUOUS
10
-0.663771062992126
20
-1.0821323228346456
11
-0.8141008267716535
21
-0.9318025590551181
0
LINE
8
BLACK
6
CONTINUOUS
10
-0.8141008267716535
20
-0.9318025590551181
11
-0.8143141732283464
21
-0.9314832283464567
0
LINE
8
BLACK
6
CONTINUOUS
10
-0.8143141732283464
20
-0.9314832283464567
11
-0.8143141732283464
21
-0.9307299212598426
0
LINE
8
BLACK
6
CONTINUOUS
10
-0.8143141732283464
20
-0.9307299212598426
11
-0.8141008267716535
21
-0.930410590551181
0
LINE
8
BLACK
6
CONTINUOUS
10
-0.8141008267716535
20
-0.930410590551181
11
-0.6080933070866141
21
-0.7244031102362205
0
LINE
8
BLACK
6
CONTINUOUS
10
-0.6080933070866141
20
-0.7244031102362205
11
-0.6077740157480315
21
-0.7241897637795276
0
LINE
8
BLACK
6
CONTINUOUS
10
-0.6077740157480315
20
-0.7241897637795276
11
-0.6070207086614173
21
-0.7241897637795276
0
LINE
8
BLACK
6
CONTINUOUS
10
-0.8120129133858267
20
-0.9311065354330709
11
-0.6630750787401575
21
-1.0800443700787401
0
LINE
8
BLACK
6
CONTINUOUS
10
-0.6630750787401575
20
-1.0800443700787401
11
-0.4584595669291339
21
-0.8754288582677165
0
LINE
8
BLACK
6
CONTINUOUS
10
-0.4584595669291339
20
-0.8754288582677165
11
-0.6073974015748032
21
-0.7264910236220472
0
LINE
8
BLACK
6
CONTINUOUS
10
-0.6073974015748032
20
-0.7264910236220472
11
-0.8120129133858267
21
-0.9311065354330709
0
LINE
8
BLACK
6
CONTINUOUS
10
0.4538805905511811
20
-0.9040906692913385
11
0.4544132677165354
21
-0.9046233464566928
0
LINE
8
BLACK
6
CONTINUOUS
10
0.4544132677165354
20
-0.9046233464566928
11
0.4544881889763779
21
-0.905
0
LINE
8
BLACK
6
CONTINUOUS
10
0.4544881889763779
20
-0.905
11
0.4544881889763779
21
-1.0215354330708661
0
LINE
8
BLACK
6
CONTINUOUS
10
0.4544881889763779
20
-1.0215354330708661
11
0.4544132677165354
21
-1.0219120866141731
0
LINE
8
BLACK
6
CONTINUOUS
10
0.4544132677165354
20
-1.0219120866141731
11
0.4538805905511811
21
-1.0224447637795275
0
LINE
8
BLACK
6
CONTINUOUS
10
0.4538805905511811
20
-1.0224447637795275
11
0.453503937007874
21
-1.0225196850393701
0
LINE
8
BLACK
6
CONTINUOUS
10
0.453503937007874
20
-1.0225196850393701
11
0.3960236220472441
21
-1.0225196850393701
0
LINE
8
BLACK
6
CONTINUOUS
10
0.3960236220472441
20
-1.0225196850393701
11
0.395646968503937
21
-1.0224447637795275
0
LINE
8
BLACK
6
CONTINUOUS
10
0.395646968503937
20
-1.0224447637795275
11
0.3951142913385827
21
-1.0219120866141731
0
LINE
8
BLACK
6
CONTINUOUS
10
0.3951142913385827
20
-1.0219120866141731
11
0.3950393700787401
21
-1.0215354330708661
0
LINE
8
BLACK
6
CONTINUOUS
10
0.3950393700787401
20
-1.0215354330708661
11
0.3950393700787401
21
-0.905
0
LINE
8
BLACK
6
CONTINUOUS
10
0.3950393700787401
20
-0.905
11
0.3951142913385827
21
-0.9046233464566928
0
LINE
8
BLACK
6
CONTINUOUS
10
0.3951142913385827
20
-0.9046233464566928
11
0.395646968503937
21
-0.9040906692913385
0
LINE
8
BLACK
6
CONTINUOUS
10
0.395646968503937
20
-0.9040906692913385
11
0.3960236220472441
21
-0.9040157480314961
0
LINE
8
BLACK
6
CONTINUOUS
10
0.3960236220472441
20
-0.9040157480314961
11
0.453503937007874
21
-0.9040157480314961
0
LINE
8
BLACK
6
CONTINUOUS
10
0.453503937007874
20
-0.9040157480314961
11
0.4538805905511811
21
-0.9040906692913385
0
LINE
8
BLACK
6
CONTINUOUS
10
0.397007874015748
20
-0.905984251968504
11
0.397007874015748
21
-1.0205511811023622
0
LINE
8
BLACK
6
CONTINUOUS
10
0.397007874015748
20
-1.0205511811023622
11
0.4525196850393701
21
-1.0205511811023622
0
LINE
8
BLACK
6
CONTINUOUS
10
0.4525196850393701
20
-1.0205511811023622
11
0.4525196850393701
21
-0.905984251968504
0
LINE
8
BLACK
6
CONTINUOUS
10
0.4525196850393701
20
-0.905984251968504
11
0.397007874015748
21
-0.905984251968504
0
LINE
8
BLACK
6
CONTINUOUS
10
0.0566758661417323
20
-0.8530276771653543
11
0.0572085433070866
21
-0.8535603543307086
0
LINE
8
BLACK
6
CONTINUOUS
10
0.0572085433070866
20
-0.8535603543307086
11
0.0572834645669291
21
-0.8539370078740157
0
LINE
8
BLACK
6
CONTINUOUS
10
0.0572834645669291
20
-0.8539370078740157
11
0.0572834645669291
21
-0.9114173228346456
0
LINE
8
BLACK
6
CONTINUOUS
10
0.0572834645669291
20
-0.9114173228346456
11
0.0572085433070866
21
-0.9117939763779528
0
LINE
8
BLACK
6
CONTINUOUS
10
0.0572085433070866
20
-0.9117939763779528
11
0.0566758661417323
21
-0.9123266535433071
0
LINE
8
BLACK
6
CONTINUOUS
10
0.0566758661417323
20
-0.9123266535433071
11
0.0562992125984252
21
-0.9124015748031495
0
LINE
8
BLACK
6
CONTINUOUS
10
0.0562992125984252
20
-0.9124015748031495
11
-0.0602362204724409
21
-0.9124015748031495
0
LINE
8
BLACK
6
CONTINUOUS
10
-0.0602362204724409
20
-0.9124015748031495
11
-0.060612874015748
21
-0.9123266535433071
0
LINE
8
BLACK
6
CONTINUOUS
10
-0.060612874015748
20
-0.9123266535433071
11
-0.0611455511811024
21
-0.9117939763779528
0
LINE
8
BLACK
6
CONTINUOUS
10
-0.0611455511811024
20
-0.9117939763779528
11
-0.0612204724409449
21
-0.9114173228346456
0
LINE
8
BLACK
6
CONTINUOUS
10
-0.0612204724409449
20
-0.9114173228346456
11
-0.0612204724409449
21
-0.8539370078740157
0
LINE
8
BLACK
6
CONTINUOUS
10
-0.0612204724409449
20
-0.8539370078740157
11
-0.0611455511811024
21
-0.8535603543307086
0
LINE
8
BLACK
6
CONTINUOUS
10
-0.0611455511811024
20
-0.8535603543307086
11
-0.060612874015748
21
-0.8530276771653543
0
LINE
8
BLACK
6
CONTINUOUS
10
-0.060612874015748
20
-0.8530276771653543
11
-0.0602362204724409
21
-0.8529527559055118
0
LINE
8
BLACK
6
CONTINUOUS
10
-0.0602362204724409
20
-0.8529527559055118
11
0.0562992125984252
21
-0.8529527559055118
0
LINE
8
BLACK
6
CONTINUOUS
10
0.0562992125984252
20
-0.8529527559055118
11
0.0566758661417323
21
-0.8530276771653543
0
LINE
8
BLACK
6
CONTINUOUS
10
-0.059251968503937
20
-0.8549212598425197
11
-0.059251968503937
21
-0.9104330708661417
0
LINE
8
BLACK
6
CONTINUOUS
10
-0.059251968503937
20
-0.9104330708661417
11
0.0553149606299213
21
-0.9104330708661417
0
LINE
8
BLACK
6
CONTINUOUS
10
0.0553149606299213
20
-0.9104330708661417
11
0.0553149606299213
21
-0.8549212598425197
0
LINE
8
BLACK
6
CONTINUOUS
10
0.0553149606299213
20
-0.8549212598425197
11
-0.059251968503937
21
-0.8549212598425197
0
LINE
8
BLACK
6
CONTINUOUS
10
-1.2692285433070867
20
-0.3755512204724409
11
-1.2692285039370079
21
-0.3755513385826771
0
LINE
8
BLACK
6
CONTINUOUS
10
-1.2692285039370079
20
-0.3755513385826771
11
-1.2689908267716534
21
-0.3758527952755906
0
LINE
8
BLACK
6
CONTINUOUS
10
-1.2689908267716534
20
-0.3758527952755906
11
-1.0552220866141733
21
-0.7953975984251969
0
LINE
8
BLACK
6
CONTINUOUS
10
-1.0552220866141733
20
-0.7953975984251969
11
-1.0551178740157481
21
-0.7957671259842519
0
LINE
8
BLACK
6
CONTINUOUS
10
-1.0551178740157481
20
-0.7957671259842519
11
-1.0551178346456693
21
-0.7957672047244094
0
LINE
8
BLACK
6
CONTINUOUS
10
-1.0551178346456693
20
-0.7957672047244094
11
-1.0553506299212598
21
-0.7964836614173229
0
LINE
8
BLACK
6
CONTINUOUS
10
-1.0553506299212598
20
-0.7964836614173229
11
-1.0556522047244095
21
-0.7967214173228346
0
LINE
8
BLACK
6
CONTINUOUS
10
-1.0556522047244095
20
-0.7967214173228346
11
-1.2801577952755905
21
-0.9111127559055118
0
LINE
8
BLACK
6
CONTINUOUS
10
-1.2801577952755905
20
-0.9111127559055118
11
-1.2805274015748032
21
-0.9112170078740157
0
LINE
8
BLACK
6
CONTINUOUS
10
-1.2805274015748032
20
-0.9112170078740157
11
-1.2812438582677166
21
-0.9109842125984252
0
LINE
8
BLACK
6
CONTINUOUS
10
-1.2812438582677166
20
-0.9109842125984252
11
-1.2814816141732284
21
-0.9106826377952756
0
LINE
8
BLACK
6
CONTINUOUS
10
-1.2814816141732284
20
-0.9106826377952756
11
-1.4952503543307085
21
-0.4911378346456693
0
LINE
8
BLACK
6
CONTINUOUS
10
-1.4952503543307085
20
-0.4911378346456693
11
-1.4953546062992125
21
-0.4907682283464567
0
LINE
8
BLACK
6
CONTINUOUS
10
-1.4953546062992125
20
-0.4907682283464567
11
-1.495121811023622
21
-0.4900517716535433
0
LINE
8
BLACK
6
CONTINUOUS
10
-1.495121811023622
20
-0.4900517716535433
11
-1.4948202362204723
21
-0.4898140157480315
0
LINE
8
BLACK
6
CONTINUOUS
10
-1.4948202362204723
20
-0.4898140157480315
11
-1.2703146062992126
21
-0.3754226771653543
0
LINE
8
BLACK
6
CONTINUOUS
10
-1.2703146062992126
20
-0.3754226771653543
11
-1.2699451181102361
21
-0.3753184251968504
0
LINE
8
BLACK
6
CONTINUOUS
10
-1.2699451181102361
20
-0.3753184251968504
11
-1.2699450393700786
21
-0.3753184251968504
0
LINE
8
BLACK
6
CONTINUOUS
10
-1.2699450393700786
20
-0.3753184251968504
11
-1.2699449999999999
21
-0.3753184251968504
0
LINE
8
BLACK
6
CONTINUOUS
10
-1.2699449999999999
20
-0.3753184251968504
11
-1.2692285433070867
21
-0.3755512204724409
0
LINE
8
BLACK
6
CONTINUOUS
10
-1.4930496062992125
20
-0.4911211023622047
11
-1.280174527559055
21
-0.908911968503937
0
LINE
8
BLACK
6
CONTINUOUS
10
-1.280174527559055
20
-0.908911968503937
11
-1.0574228740157481
21
-0.7954143307086614
0
LINE
8
BLACK
6
CONTINUOUS
10
-1.0574228740157481
20
-0.7954143307086614
11
-1.2702979527559055
21
-0.3776234251968504
0
LINE
8
BLACK
6
CONTINUOUS
10
-1.2702979527559055
20
-0.3776234251968504
11
-1.4930496062992125
21
-0.4911211023622047
0
LINE
8
BLACK
6
CONTINUOUS
10
0.675605
20
-0.3506654724409449
11
0.6761376771653543
21
-0.3511981496062992
0
LINE
8
BLACK
6
CONTINUOUS
10
0.6761376771653543
20
-0.3511981496062992
11
0.6762125984251969
21
-0.3515748031496063
0
LINE
8
BLACK
6
CONTINUOUS
10
0.6762125984251969
20
-0.3515748031496063
11
0.6762125984251969
21
-0.8791338582677165
0
LINE
8
BLACK
6
CONTINUOUS
10
0.6762125984251969
20
-0.8791338582677165
11
0.6761376771653543
21
-0.8795105118110236
0
LINE
8
BLACK
6
CONTINUOUS
10
0.6761376771653543
20
-0.8795105118110236
11
0.675605
21
-0.8800431889763779
0
LINE
8
BLACK
6
CONTINUOUS
10
0.675605
20
-0.8800431889763779
11
0.6752283464566929
21
-0.8801181102362204
0
LINE
8
BLACK
6
CONTINUOUS
10
0.6752283464566929
20
-0.8801181102362204
11
0.1476692913385827
21
-0.8801181102362204
0
LINE
8
BLACK
6
CONTINUOUS
10
0.1476692913385827
20
-0.8801181102362204
11
0.1472926377952756
21
-0.8800431889763779
0
LINE
8
BLACK
6
CONTINUOUS
10
0.1472926377952756
20
-0.8800431889763779
11
0.1467599606299212
21
-0.8795105118110236
0
LINE
8
BLACK
6
CONTINUOUS
10
0.1467599606299212
20
-0.8795105118110236
11
0.1466850393700787
21
-0.8791338582677165
0
LINE
8
BLACK
6
CONTINUOUS
10
0.1466850393700787
20
-0.8791338582677165
11
0.1466850393700787
21
-0.3515748031496063
0
LINE
8
BLACK
6
CONTINUOUS
10
0.1466850393700787
20
-0.3515748031496063
11
0.1467599606299212
21
-0.3511981496062992
0
LINE
8
BLACK
6
CONTINUOUS
10
0.1467599606299212
20
-0.3511981496062992
11
0.1472926377952756
21
-0.3506654724409449
0
LINE
8
BLACK
6
CONTINUOUS
10
0.1472926377952756
20
-0.3506654724409449
11
0.1476692913385827
21
-0.3505905511811023
0
LINE
8
BLACK
6
CONTINUOUS
10
0.1476692913385827
20
-0.3505905511811023
11
0.6752283464566929
21
-0.3505905511811023
0
LINE
8
BLACK
6
CONTINUOUS
10
0.6752283464566929
20
-0.3505905511811023
11
0.675605
21
-0.3506654724409449
0
LINE
8
BLACK
6
CONTINUOUS
10
0.1486535433070866
20
-0.3525590551181103
11
0.1486535433070866
21
-0.8781496062992126
0
LINE
8
BLACK
6
CONTINUOUS
10
0.1486535433070866
20
-0.8781496062992126
11
0.674244094488189
21
-0.8781496062992126
0
LINE
8
BLACK
6
CONTINUOUS
10
0.674244094488189
20
-0.8781496062992126
11
0.674244094488189
21
-0.3525590551181103
0
LINE
8
BLACK
6
CONTINUOUS
10
0.674244094488189
20
-0.3525590551181103
11
0.1486535433070866
21
-0.3525590551181103
0
LINE
8
BLACK
6
CONTINUOUS
10
-0.3339804330708661
20
-0.7108345275590551
11
-0.3336611023622047
21
-0.711047874015748
0
LINE
8
BLACK
6
CONTINUOUS
10
-0.3336611023622047
20
-0.711047874015748
11
-0.2930163779527559
21
-0.7516925984251969
0
LINE
8
BLACK
6
CONTINUOUS
10
-0.2930163779527559
20
-0.7516925984251969
11
-0.292803031496063
21
-0.7520119291338583
0
LINE
8
BLACK
6
CONTINUOUS
10
-0.292803031496063
20
-0.7520119291338583
11
-0.292803031496063
21
-0.7527652362204724
0
LINE
8
BLACK
6
CONTINUOUS
10
-0.292803031496063
20
-0.7527652362204724
11
-0.2930163779527559
21
-0.7530845669291338
0
LINE
8
BLACK
6
CONTINUOUS
10
-0.2930163779527559
20
-0.7530845669291338
11
-0.3754193700787402
21
-0.8354875590551181
0
LINE
8
BLACK
6
CONTINUOUS
10
-0.3754193700787402
20
-0.8354875590551181
11
-0.3757387007874016
21
-0.835700905511811
0
LINE
8
BLACK
6
CONTINUOUS
10
-0.3757387007874016
20
-0.835700905511811
11
-0.3764920078740158
21
-0.835700905511811
0
LINE
8
BLACK
6
CONTINUOUS
10
-0.3764920078740158
20
-0.835700905511811
11
-0.3768113385826772
21
-0.8354875590551181
0
LINE
8
BLACK
6
CONTINUOUS
10
-0.3768113385826772
20
-0.8354875590551181
11
-0.417456062992126
21
-0.7948428346456693
0
LINE
8
BLACK
6
CONTINUOUS
10
-0.417456062992126
20
-0.7948428346456693
11
-0.4176694094488189
21
-0.7945235039370079
0
LINE
8
BLACK
6
CONTINUOUS
10
-0.4176694094488189
20
-0.7945235039370079
11
-0.4176694094488189
21
-0.7937701968503936
0
LINE
8
BLACK
6
CONTINUOUS
10
-0.4176694094488189
20
-0.7937701968503936
11
-0.417456062992126
21
-0.7934508661417322
0
LINE
8
BLACK
6
CONTINUOUS
10
-0.417456062992126
20
-0.7934508661417322
11
-0.3350530708661417
21
-0.711047874015748
0
LINE
8
BLACK
6
CONTINUOUS
10
-0.3350530708661417
20
-0.711047874015748
11
-0.3347337401574803
21
-0.7108345275590551
0
LINE
8
BLACK
6
CONTINUOUS
10
-0.3347337401574803
20
-0.7108345275590551
11
-0.3339804330708661
21
-0.7108345275590551
0
LINE
8
BLACK
6
CONTINUOUS
10
-0.4153681102362204
20
-0.7941468503937008
11
-0.3761153543307086
21
-0.8333996062992126
0
LINE
8
BLACK
6
CONTINUOUS
10
-0.3761153543307086
20
-0.8333996062992126
11
-0.2951043307086614
21
-0.7523885826771654
0
LINE
8
BLACK
6
CONTINUOUS
10
-0.2951043307086614
20
-0.7523885826771654
11
-0.3343570866141732
21
-0.7131358267716535
0
LINE
8
BLACK
6
CONTINUOUS
10
-0.3343570866141732
20
-0.7131358267716535
11
-0.4153681102362204
21
-0.7941468503937008
0
LINE
8
BLACK
6
CONTINUOUS
10
0.0827231102362205
20
-0.6542638976377952
11
0.0832557874015748
21
-0.6547965748031496
0
LINE
8
BLACK
6
CONTINUOUS
10
0.0832557874015748
20
-0.6547965748031496
11
0.0833307086614173
21
-0.6551732283464566
0
LINE
8
BLACK
6
CONTINUOUS
10
0.0833307086614173
20
-0.6551732283464566
11
0.0833307086614173
21
-0.8205275590551181
0
LINE
8
BLACK
6
CONTINUOUS
10
0.0833307086614173
20
-0.8205275590551181
11
0.0832557874015748
21
-0.8209042125984252
0
LINE
8
BLACK
6
CONTINUOUS
10
0.0832557874015748
20
-0.8209042125984252
11
0.0827231102362205
21
-0.8214368897637795
0
LINE
8
BLACK
6
CONTINUOUS
10
0.0827231102362205
20
-0.8214368897637795
11
0.0823464566929134
21
-0.821511811023622
0
LINE
8
BLACK
6
CONTINUOUS
10
0.0823464566929134
20
-0.821511811023622
11
-0.051511811023622
21
-0.821511811023622
0
LINE
8
BLACK
6
CONTINUOUS
10
-0.051511811023622
20
-0.821511811023622
11
-0.0518884645669291
21
-0.8214368897637795
0
LINE
8
BLACK
6
CONTINUOUS
10
-0.0518884645669291
20
-0.8214368897637795
11
-0.0524211417322835
21
-0.8209042125984252
0
LINE
8
BLACK
6
CONTINUOUS
10
-0.0524211417322835
20
-0.8209042125984252
11
-0.052496062992126
21
-0.8205275590551181
0
LINE
8
BLACK
6
CONTINUOUS
10
-0.052496062992126
20
-0.8205275590551181
11
-0.052496062992126
21
-0.6551732283464566
0
LINE
8
BLACK
6
CONTINUOUS
10
-0.052496062992126
20
-0.6551732283464566
11
-0.0524211417322835
21
-0.6547965748031496
0
LINE
8
BLACK
6
CONTINUOUS
10
-0.0524211417322835
20
-0.6547965748031496
11
-0.0518884645669291
21
-0.6542638976377952
0
LINE
8
BLACK
6
CONTINUOUS
10
-0.0518884645669291
20
-0.6542638976377952
11
-0.051511811023622
21
-0.6541889763779527
0
LINE
8
BLACK
6
CONTINUOUS
10
-0.051511811023622
20
-0.6541889763779527
11
0.0823464566929134
21
-0.6541889763779527
0
LINE
8
BLACK
6
CONTINUOUS
10
0.0823464566929134
20
-0.6541889763779527
11
0.0827231102362205
21
-0.6542638976377952
0
LINE
8
BLACK
6
CONTINUOUS
10
-0.0505275590551181
20
-0.6561574803149606
11
-0.0505275590551181
21
-0.8195433070866142
0
LINE
8
BLACK
6
CONTINUOUS
10
-0.0505275590551181
20
-0.8195433070866142
11
0.0813622047244094
21
-0.8195433070866142
0
LINE
8
BLACK
6
CONTINUOUS
10
0.0813622047244094
20
-0.8195433070866142
11
0.0813622047244094
21
-0.6561574803149606
0
LINE
8
BLACK
6
CONTINUOUS
10
0.0813622047244094
20
-0.6561574803149606
11
-0.0505275590551181
21
-0.6561574803149606
0
LINE
8
BLACK
6
CONTINUOUS
10
-0.0693083858267717
20
-0.6573583858267716
11
-0.0687757086614173
21
-0.657891062992126
0
LINE
8
BLACK
6
CONTINUOUS
10
-0.0687757086614173
20
-0.657891062992126
11
-0.0687007874015748
21
-0.658267716535433
0
LINE
8
BLACK
6
CONTINUOUS
10
-0.0687007874015748
20
-0.658267716535433
11
-0.0687007874015748
21
-0.7748031496062991
0
LINE
8
BLACK
6
CONTINUOUS
10
-0.0687007874015748
20
-0.7748031496062991
11
-0.0687757086614173
21
-0.7751798031496063
0
LINE
8
BLACK
6
CONTINUOUS
10
-0.0687757086614173
20
-0.7751798031496063
11
-0.0693083858267717
21
-0.7757124803149607
0
LINE
8
BLACK
6
CONTINUOUS
10
-0.0693083858267717
20
-0.7757124803149607
11
-0.0696850393700787
21
-0.7757874015748031
0
LINE
8
BLACK
6
CONTINUOUS
10
-0.0696850393700787
20
-0.7757874015748031
11
-0.1271653543307087
21
-0.7757874015748031
0
LINE
8
BLACK
6
CONTINUOUS
10
-0.1271653543307087
20
-0.7757874015748031
11
-0.1275420078740157
21
-0.7757124803149607
0
LINE
8
BLACK
6
CONTINUOUS
10
-0.1275420078740157
20
-0.7757124803149607
11
-0.1280746850393701
21
-0.7751798031496063
0
LINE
8
BLACK
6
CONTINUOUS
10
-0.1280746850393701
20
-0.7751798031496063
11
-0.1281496062992126
21
-0.7748031496062991
0
LINE
8
BLACK
6
CONTINUOUS
10
-0.1281496062992126
20
-0.7748031496062991
11
-0.1281496062992126
21
-0.658267716535433
0
LINE
8
BLACK
6
CONTINUOUS
10
-0.1281496062992126
20
-0.658267716535433
11
-0.1280746850393701
21
-0.657891062992126
0
LINE
8
BLACK
6
CONTINUOUS
10
-0.1280746850393701
20
-0.657891062992126
11
-0.1275420078740157
21
-0.6573583858267716
0
LINE
8
BLACK
6
CONTINUOUS
10
-0.1275420078740157
20
-0.6573583858267716
11
-0.1271653543307087
21
-0.6572834645669291
0
LINE
8
BLACK
6
CONTINUOUS
10
-0.1271653543307087
20
-0.6572834645669291
11
-0.0696850393700787
21
-0.6572834645669291
0
LINE
8
BLACK
6
CONTINUOUS
10
-0.0696850393700787
20
-0.6572834645669291
11
-0.0693083858267717
21
-0.6573583858267716
0
LINE
8
BLACK
6
CONTINUOUS
10
-0.1261811023622047
20
-0.659251968503937
11
-0.1261811023622047
21
-0.7738188976377952
0
LINE
8
BLACK
6
CONTINUOUS
10
-0.1261811023622047
20
-0.7738188976377952
11
-0.0706692913385827
21
-0.7738188976377952
0
LINE
8
BLACK
6
CONTINUOUS
10
-0.0706692913385827
20
-0.7738188976377952
11
-0.0706692913385827
21
-0.659251968503937
0
LINE
8
BLACK
6
CONTINUOUS
10
-0.0706692913385827
20
-0.659251968503937
11
-0.1261811023622047
21
-0.659251968503937
0
LINE
8
BLACK
6
CONTINUOUS
10
-0.4089804330708661
20
-0.6358345275590551
11
-0.4086611023622047
21
-0.636047874015748
0
LINE
8
BLACK
6
CONTINUOUS
10
-0.4086611023622047
20
-0.636047874015748
11
-0.3680163779527559
21
-0.6766925984251968
0
LINE
8
BLACK
6
CONTINUOUS
10
-0.3680163779527559
20
-0.6766925984251968
11
-0.367803031496063
21
-0.6770119291338582
0
LINE
8
BLACK
6
CONTINUOUS
10
-0.367803031496063
20
-0.6770119291338582
11
-0.367803031496063
21
-0.6777652362204725
0
LINE
8
BLACK
6
CONTINUOUS
10
-0.367803031496063
20
-0.6777652362204725
11
-0.3680163779527559
21
-0.6780845669291339
0
LINE
8
BLACK
6
CONTINUOUS
10
-0.3680163779527559
20
-0.6780845669291339
11
-0.4504193700787402
21
-0.7604875590551181
0
LINE
8
BLACK
6
CONTINUOUS
10
-0.4504193700787402
20
-0.7604875590551181
11
-0.4507387007874016
21
-0.760700905511811
0
LINE
8
BLACK
6
CONTINUOUS
10
-0.4507387007874016
20
-0.760700905511811
11
-0.4514920078740157
21
-0.760700905511811
0
LINE
8
BLACK
6
CONTINUOUS
10
-0.4514920078740157
20
-0.760700905511811
11
-0.4518113385826771
21
-0.7604875590551181
0
LINE
8
BLACK
6
CONTINUOUS
10
-0.4518113385826771
20
-0.7604875590551181
11
-0.492456062992126
21
-0.7198428346456692
0
LINE
8
BLACK
6
CONTINUOUS
10
-0.492456062992126
20
-0.7198428346456692
11
-0.4926694094488189
21
-0.7195235039370078
0
LINE
8
BLACK
6
CONTINUOUS
10
-0.4926694094488189
20
-0.7195235039370078
11
-0.4926694094488189
21
-0.7187701968503937
0
LINE
8
BLACK
6
CONTINUOUS
10
-0.4926694094488189
20
-0.7187701968503937
11
-0.492456062992126
21
-0.7184508661417323
0
LINE
8
BLACK
6
CONTINUOUS
10
-0.492456062992126
20
-0.7184508661417323
11
-0.4100530708661417
21
-0.636047874015748
0
LINE
8
BLACK
6
CONTINUOUS
10
-0.4100530708661417
20
-0.636047874015748
11
-0.4097337401574803
21
-0.6358345275590551
0
LINE
8
BLACK
6
CONTINUOUS
10
-0.4097337401574803
20
-0.6358345275590551
11
-0.4089804330708661
21
-0.6358345275590551
0
LINE
8
BLACK
6
CONTINUOUS
10
-0.4903681102362205
20
-0.7191468503937007
11
-0.4511153543307087
21
-0.7583996062992125
0
LINE
8
BLACK
6
CONTINUOUS
10
-0.4511153543307087
20
-0.7583996062992125
11
-0.3701043307086614
21
-0.6773885826771653
0
LINE
8
BLACK
6
CONTINUOUS
10
-0.3701043307086614
20
-0.6773885826771653
11
-0.4093570866141732
21
-0.6381358267716535
0
LINE
8
BLACK
6
CONTINUOUS
10
-0.4093570866141732
20
-0.6381358267716535
11
-0.4903681102362205
21
-0.7191468503937007
0
LINE
8
BLACK
6
CONTINUOUS
10
-0.5913686220472441
20
-0.610795157480315
11
-0.5910492913385826
21
-0.6110085039370079
0
LINE
8
BLACK
6
CONTINUOUS
10
-0.5910492913385826
20
-0.6110085039370079
11
-0.5086462992125984
21
-0.6934114960629921
0
LINE
8
BLACK
6
CONTINUOUS
10
-0.5086462992125984
20
-0.6934114960629921
11
-0.5084329527559055
21
-0.6937308267716535
0
LINE
8
BLACK
6
CONTINUOUS
10
-0.5084329527559055
20
-0.6937308267716535
11
-0.5084329527559055
21
-0.6944841338582677
0
LINE
8
BLACK
6
CONTINUOUS
10
-0.5084329527559055
20
-0.6944841338582677
11
-0.5086462992125984
21
-0.6948034645669291
0
LINE
8
BLACK
6
CONTINUOUS
10
-0.5086462992125984
20
-0.6948034645669291
11
-0.5492910236220472
21
-0.735448188976378
0
LINE
8
BLACK
6
CONTINUOUS
10
-0.5492910236220472
20
-0.735448188976378
11
-0.5496103543307086
21
-0.7356615354330709
0
LINE
8
BLACK
6
CONTINUOUS
10
-0.5496103543307086
20
-0.7356615354330709
11
-0.5503636614173228
21
-0.7356615354330709
0
LINE
8
BLACK
6
CONTINUOUS
10
-0.5503636614173228
20
-0.7356615354330709
11
-0.5506829921259843
21
-0.735448188976378
0
LINE
8
BLACK
6
CONTINUOUS
10
-0.5506829921259843
20
-0.735448188976378
11
-0.6330859842519685
21
-0.6530451968503936
0
LINE
8
BLACK
6
CONTINUOUS
10
-0.6330859842519685
20
-0.6530451968503936
11
-0.6332993307086614
21
-0.6527258661417322
0
LINE
8
BLACK
6
CONTINUOUS
10
-0.6332993307086614
20
-0.6527258661417322
11
-0.6332993307086614
21
-0.6519725590551181
0
LINE
8
BLACK
6
CONTINUOUS
10
-0.6332993307086614
20
-0.6519725590551181
11
-0.6330859842519685
21
-0.6516532283464567
0
LINE
8
BLACK
6
CONTINUOUS
10
-0.6330859842519685
20
-0.6516532283464567
11
-0.5924412598425197
21
-0.6110085039370079
0
LINE
8
BLACK
6
CONTINUOUS
10
-0.5924412598425197
20
-0.6110085039370079
11
-0.5921219291338583
21
-0.610795157480315
0
LINE
8
BLACK
6
CONTINUOUS
10
-0.5921219291338583
20
-0.610795157480315
11
-0.5913686220472441
21
-0.610795157480315
0
LINE
8
BLACK
6
CONTINUOUS
10
-0.6309980314960629
20
-0.6523492125984252
11
-0.5499870078740158
21
-0.7333602362204724
0
LINE
8
BLACK
6
CONTINUOUS
10
-0.5499870078740158
20
-0.7333602362204724
11
-0.510734251968504
21
-0.6941074803149606
0
LINE
8
BLACK
6
CONTINUOUS
10
-0.510734251968504
20
-0.6941074803149606
11
-0.5917452755905511
21
-0.6130964566929133
0
LINE
8
BLACK
6
CONTINUOUS
10
-0.5917452755905511
20
-0.6130964566929133
11
-0.6309980314960629
21
-0.6523492125984252
0
LINE
8
BLACK
6
CONTINUOUS
10
0.842108937007874
20
-0.6347205905511811
11
0.8426416141732284
21
-0.6352532677165355
0
LINE
8
BLACK
6
CONTINUOUS
10
0.8426416141732284
20
-0.6352532677165355
11
0.8427165354330709
21
-0.6356299212598425
0
LINE
8
BLACK
6
CONTINUOUS
10
0.8427165354330709
20
-0.6356299212598425
11
0.8427165354330709
21
-0.6931102362204724
0
LINE
8
BLACK
6
CONTINUOUS
10
0.8427165354330709
20
-0.6931102362204724
11
0.8426416141732284
21
-0.6934868897637795
0
LINE
8
BLACK
6
CONTINUOUS
10
0.8426416141732284
20
-0.6934868897637795
11
0.842108937007874
21
-0.6940195669291338
0
LINE
8
BLACK
6
CONTINUOUS
10
0.842108937007874
20
-0.6940195669291338
11
0.8417322834645669
21
-0.6940944881889763
0
LINE
8
BLACK
6
CONTINUOUS
10
0.8417322834645669
20
-0.6940944881889763
11
0.7251968503937007
21
-0.6940944881889763
0
LINE
8
BLACK
6
CONTINUOUS
10
0.7251968503937007
20
-0.6940944881889763
11
0.7248201968503937
21
-0.6940195669291338
0
LINE
8
BLACK
6
CONTINUOUS
10
0.7248201968503937
20
-0.6940195669291338
11
0.7242875196850393
21
-0.6934868897637795
0
LINE
8
BLACK
6
CONTINUOUS
10
0.7242875196850393
20
-0.6934868897637795
11
0.7242125984251968
21
-0.6931102362204724
0
LINE
8
BLACK
6
CONTINUOUS
10
0.7242125984251968
20
-0.6931102362204724
11
0.7242125984251968
21
-0.6356299212598425
0
LINE
8
BLACK
6
CONTINUOUS
10
0.7242125984251968
20
-0.6356299212598425
11
0.7242875196850393
21
-0.6352532677165355
0
LINE
8
BLACK
6
CONTINUOUS
10
0.7242875196850393
20
-0.6352532677165355
11
0.7248201968503937
21
-0.6347205905511811
0
LINE
8
BLACK
6
CONTINUOUS
10
0.7248201968503937
20
-0.6347205905511811
11
0.7251968503937007
21
-0.6346456692913386
0
LINE
8
BLACK
6
CONTINUOUS
10
0.7251968503937007
20
-0.6346456692913386
11
0.8417322834645669
21
-0.6346456692913386
0
LINE
8
BLACK
6
CONTINUOUS
10
0.8417322834645669
20
-0.6346456692913386
11
0.842108937007874
21
-0.6347205905511811
0
LINE
8
BLACK
6
CONTINUOUS
10
0.7261811023622047
20
-0.6366141732283465
11
0.7261811023622047
21
-0.6921259842519685
0
LINE
8
BLACK
6
CONTINUOUS
10
0.7261811023622047
20
-0.6921259842519685
11
0.8407480314960629
21
-0.6921259842519685
0
LINE
8
BLACK
6
CONTINUOUS
10
0.8407480314960629
20
-0.6921259842519685
11
0.8407480314960629
21
-0.6366141732283465
0
LINE
8
BLACK
6
CONTINUOUS
10
0.8407480314960629
20
-0.6366141732283465
11
0.7261811023622047
21
-0.6366141732283465
0
LINE
8
BLACK
6
CONTINUOUS
10
-1.0727716535433072
20
-0.5488015748031496
11
-1.0724523228346456
21
-0.5490149212598425
0
LINE
8
BLACK
6
CONTINUOUS
10
-1.0724523228346456
20
-0.5490149212598425
11
-0.9900493307086614
21
-0.6314179133858268
0
LINE
8
BLACK
6
CONTINUOUS
10
-0.9900493307086614
20
-0.6314179133858268
11
-0.9898359842519685
21
-0.6317372440944882
0
LINE
8
BLACK
6
CONTINUOUS
10
-0.9898359842519685
20
-0.6317372440944882
11
-0.9898359842519685
21
-0.6324905511811023
0
LINE
8
BLACK
6
CONTINUOUS
10
-0.9898359842519685
20
-0.6324905511811023
11
-0.9900493307086614
21
-0.6328098818897637
0
LINE
8
BLACK
6
CONTINUOUS
10
-0.9900493307086614
20
-0.6328098818897637
11
-1.0306940551181103
21
-0.6734546062992126
0
LINE
8
BLACK
6
CONTINUOUS
10
-1.0306940551181103
20
-0.6734546062992126
11
-1.0310133858267716
21
-0.6736679527559055
0
LINE
8
BLACK
6
CONTINUOUS
10
-1.0310133858267716
20
-0.6736679527559055
11
-1.0317666929133857
21
-0.6736679527559055
0
LINE
8
BLACK
6
CONTINUOUS
10
-1.0317666929133857
20
-0.6736679527559055
11
-1.0320860236220473
21
-0.6734546062992126
0
LINE
8
BLACK
6
CONTINUOUS
10
-1.0320860236220473
20
-0.6734546062992126
11
-1.1144890157480314
21
-0.5910516141732284
0
LINE
8
BLACK
6
CONTINUOUS
10
-1.1144890157480314
20
-0.5910516141732284
11
-1.1147023622047243
21
-0.590732283464567
0
LINE
8
BLACK
6
CONTINUOUS
10
-1.1147023622047243
20
-0.590732283464567
11
-1.1147023622047243
21
-0.5899789763779527
0
LINE
8
BLACK
6
CONTINUOUS
10
-1.1147023622047243
20
-0.5899789763779527
11
-1.1144890157480314
21
-0.5896596456692913
0
LINE
8
BLACK
6
CONTINUOUS
10
-1.1144890157480314
20
-0.5896596456692913
11
-1.0738442913385826
21
-0.5490149212598425
0
LINE
8
BLACK
6
CONTINUOUS
10
-1.0738442913385826
20
-0.5490149212598425
11
-1.0735249606299213
21
-0.5488015748031496
0
LINE
8
BLACK
6
CONTINUOUS
10
-1.0735249606299213
20
-0.5488015748031496
11
-1.0727716535433072
21
-0.5488015748031496
0
LINE
8
BLACK
6
CONTINUOUS
10
-1.1124010629921259
20
-0.5903556299212598
11
-1.0313900393700788
21
-0.671366653543307
0
LINE
8
BLACK
6
CONTINUOUS
10
-1.0313900393700788
20
-0.671366653543307
11
-0.9921372834645669
21
-0.6321138976377952
0
LINE
8
BLACK
6
CONTINUOUS
10
-0.9921372834645669
20
-0.6321138976377952
11
-1.0731483070866141
21
-0.551102874015748
0
LINE
8
BLACK
6
CONTINUOUS
10
-1.0731483070866141
20
-0.551102874015748
11
-1.1124010629921259
21
-0.5903556299212598
0
LINE
8
BLACK
6
CONTINUOUS
10
-1.0187057480314961
20
-0.4978674803149606
11
-1.0183864173228345
21
-0.4980808267716536
0
LINE
8
BLACK
6
CONTINUOUS
10
-1.0183864173228345
20
-0.4980808267716536
11
-0.9359834251968504
21
-0.5804838188976378
0
LINE
8
BLACK
6
CONTINUOUS
10
-0.9359834251968504
20
-0.5804838188976378
11
-0.9357700787401575
21
-0.5808031496062992
0
LINE
8
BLACK
6
CONTINUOUS
10
-0.9357700787401575
20
-0.5808031496062992
11
-0.9357700787401575
21
-0.5815564566929133
0
LINE
8
BLACK
6
CONTINUOUS
10
-0.9357700787401575
20
-0.5815564566929133
11
-0.9359834251968504
21
-0.5818757874015748
0
LINE
8
BLACK
6
CONTINUOUS
10
-0.9359834251968504
20
-0.5818757874015748
11
-0.9766281496062992
21
-0.6225205118110236
0
LINE
8
BLACK
6
CONTINUOUS
10
-0.9766281496062992
20
-0.6225205118110236
11
-0.9769474803149606
21
-0.6227338582677165
0
LINE
8
BLACK
6
CONTINUOUS
10
-0.9769474803149606
20
-0.6227338582677165
11
-0.9777007874015747
21
-0.6227338582677165
0
LINE
8
BLACK
6
CONTINUOUS
10
-0.9777007874015747
20
-0.6227338582677165
11
-0.9780201181102361
21
-0.6225205118110236
0
LINE
8
BLACK
6
CONTINUOUS
10
-0.9780201181102361
20
-0.6225205118110236
11
-1.0604231102362205
21
-0.5401175196850394
0
LINE
8
BLACK
6
CONTINUOUS
10
-1.0604231102362205
20
-0.5401175196850394
11
-1.0606364566929134
21
-0.539798188976378
0
LINE
8
BLACK
6
CONTINUOUS
10
-1.0606364566929134
20
-0.539798188976378
11
-1.0606364566929134
21
-0.5390448818897637
0
LINE
8
BLACK
6
CONTINUOUS
10
-1.0606364566929134
20
-0.5390448818897637
11
-1.0604231102362205
21
-0.5387255511811023
0
LINE
8
BLACK
6
CONTINUOUS
10
-1.0604231102362205
20
-0.5387255511811023
11
-1.0197783858267717
21
-0.4980808267716536
0
LINE
8
BLACK
6
CONTINUOUS
10
-1.0197783858267717
20
-0.4980808267716536
11
-1.0194590551181102
21
-0.4978674803149606
0
LINE
8
BLACK
6
CONTINUOUS
10
-1.0194590551181102
20
-0.4978674803149606
11
-1.0187057480314961
21
-0.4978674803149606
0
LINE
8
BLACK
6
CONTINUOUS
10
-1.058335157480315
20
-0.5394215354330708
11
-0.9773241338582677
21
-0.6204325590551181
0
LINE
8
BLACK
6
CONTINUOUS
10
-0.9773241338582677
20
-0.6204325590551181
11
-0.9380713779527559
21
-0.5811798031496063
0
LINE
8
BLACK
6
CONTINUOUS
10
-0.9380713779527559
20
-0.5811798031496063
11
-1.0190824015748032
21
-0.500168779527559
0
LINE
8
BLACK
6
CONTINUOUS
10
-1.0190824015748032
20
-0.500168779527559
11
-1.058335157480315
21
-0.5394215354330708
0
LINE
8
BLACK
6
CONTINUOUS
10
0.0822664173228346
20
-0.5557835826771653
11
0.082799094488189
21
-0.5563162598425196
0
LINE
8
BLACK
6
CONTINUOUS
10
0.082799094488189
20
-0.5563162598425196
11
0.0828740157480315
21
-0.5566929133858267
0
LINE
8
BLACK
6
CONTINUOUS
10
0.0828740157480315
20
-0.5566929133858267
11
0.0828740157480315
21
-0.6141732283464567
0
LINE
8
BLACK
6
CONTINUOUS
10
0.0828740157480315
20
-0.6141732283464567
11
0.082799094488189
21
-0.6145498818897638
0
LINE
8
BLACK
6
CONTINUOUS
10
0.082799094488189
20
-0.6145498818897638
11
0.0822664173228346
21
-0.6150825590551181
0
LINE
8
BLACK
6
CONTINUOUS
10
0.0822664173228346
20
-0.6150825590551181
11
0.0818897637795276
21
-0.6151574803149606
0
LINE
8
BLACK
6
CONTINUOUS
10
0.0818897637795276
20
-0.6151574803149606
11
-0.0346456692913386
21
-0.6151574803149606
0
LINE
8
BLACK
6
CONTINUOUS
10
-0.0346456692913386
20
-0.6151574803149606
11
-0.0350223228346457
21
-0.6150825590551181
0
LINE
8
BLACK
6
CONTINUOUS
10
-0.0350223228346457
20
-0.6150825590551181
11
-0.035555
21
-0.6145498818897638
0
LINE
8
BLACK
6
CONTINUOUS
10
-0.035555
20
-0.6145498818897638
11
-0.0356299212598425
21
-0.6141732283464567
0
LINE
8
BLACK
6
CONTINUOUS
10
-0.0356299212598425
20
-0.6141732283464567
11
-0.0356299212598425
21
-0.5566929133858267
0
LINE
8
BLACK
6
CONTINUOUS
10
-0.0356299212598425
20
-0.5566929133858267
11
-0.035555
21
-0.5563162598425196
0
LINE
8
BLACK
6
CONTINUOUS
10
-0.035555
20
-0.5563162598425196
11
-0.0350223228346457
21
-0.5557835826771653
0
LINE
8
BLACK
6
CONTINUOUS
10
-0.0350223228346457
20
-0.5557835826771653
11
-0.0346456692913386
21
-0.5557086614173228
0
LINE
8
BLACK
6
CONTINUOUS
10
-0.0346456692913386
20
-0.5557086614173228
11
0.0818897637795276
21
-0.5557086614173228
0
LINE
8
BLACK
6
CONTINUOUS
10
0.0818897637795276
20
-0.5557086614173228
11
0.0822664173228346
21
-0.5557835826771653
0
LINE
8
BLACK
6
CONTINUOUS
10
-0.0336614173228346
20
-0.5576771653543307
11
-0.0336614173228346
21
-0.6131889763779528
0
LINE
8
BLACK
6
CONTINUOUS
10
-0.0336614173228346
20
-0.6131889763779528
11
0.0809055118110236
21
-0.6131889763779528
0
LINE
8
BLACK
6
CONTINUOUS
10
0.0809055118110236
20
-0.6131889763779528
11
0.0809055118110236
21
-0.5576771653543307
0
LINE
8
BLACK
6
CONTINUOUS
10
0.0809055118110236
20
-0.5576771653543307
11
-0.0336614173228346
21
-0.5576771653543307
0
LINE
8
BLACK
6
CONTINUOUS
10
0.829116811023622
20
-0.511689094488189
11
0.8296494881889763
21
-0.5122217716535433
0
LINE
8
BLACK
6
CONTINUOUS
10
0.8296494881889763
20
-0.5122217716535433
11
0.8297244094488189
21
-0.5125984251968504
0
LINE
8
BLACK
6
CONTINUOUS
10
0.8297244094488189
20
-0.5125984251968504
11
0.8297244094488189
21
-0.5897637795275591
0
LINE
8
BLACK
6
CONTINUOUS
10
0.8297244094488189
20
-0.5897637795275591
11
0.8296494881889763
21
-0.5901404330708662
0
LINE
8
BLACK
6
CONTINUOUS
10
0.8296494881889763
20
-0.5901404330708662
11
0.829116811023622
21
-0.5906731102362205
0
LINE
8
BLACK
6
CONTINUOUS
10
0.829116811023622
20
-0.5906731102362205
11
0.8287401574803149
21
-0.590748031496063
0
LINE
8
BLACK
6
CONTINUOUS
10
0.8287401574803149
20
-0.590748031496063
11
0.6948818897637795
21
-0.590748031496063
0
LINE
8
BLACK
6
CONTINUOUS
10
0.6948818897637795
20
-0.590748031496063
11
0.6945052362204724
21
-0.5906731102362205
0
LINE
8
BLACK
6
CONTINUOUS
10
0.6945052362204724
20
-0.5906731102362205
11
0.6939725590551181
21
-0.5901404330708662
0
LINE
8
BLACK
6
CONTINUOUS
10
0.6939725590551181
20
-0.5901404330708662
11
0.6938976377952756
21
-0.5897637795275591
0
LINE
8
BLACK
6
CONTINUOUS
10
0.6938976377952756
20
-0.5897637795275591
11
0.6938976377952756
21
-0.5125984251968504
0
LINE
8
BLACK
6
CONTINUOUS
10
0.6938976377952756
20
-0.5125984251968504
11
0.6939725590551181
21
-0.5122217716535433
0
LINE
8
BLACK
6
CONTINUOUS
10
0.6939725590551181
20
-0.5122217716535433
11
0.6945052362204724
21
-0.511689094488189
0
LINE
8
BLACK
6
CONTINUOUS
10
0.6945052362204724
20
-0.511689094488189
11
0.6948818897637795
21
-0.5116141732283465
0
LINE
8
BLACK
6
CONTINUOUS
10
0.6948818897637795
20
-0.5116141732283465
11
0.8287401574803149
21
-0.5116141732283465
0
LINE
8
BLACK
6
CONTINUOUS
10
0.8287401574803149
20
-0.5116141732283465
11
0.829116811023622
21
-0.511689094488189
0
LINE
8
BLACK
6
CONTINUOUS
10
0.6958661417322834
20
-0.5135826771653543
11
0.6958661417322834
21
-0.588779527559055
0
LINE
8
BLACK
6
CONTINUOUS
10
0.6958661417322834
20
-0.588779527559055
11
0.827755905511811
21
-0.588779527559055
0
LINE
8
BLACK
6
CONTINUOUS
10
0.827755905511811
20
-0.588779527559055
11
0.827755905511811
21
-0.5135826771653543
0
LINE
8
BLACK
6
CONTINUOUS
10
0.827755905511811
20
-0.5135826771653543
11
0.6958661417322834
21
-0.5135826771653543
0
LINE
8
BLACK
6
CONTINUOUS
10
0.0799042125984252
20
-0.4888544488188976
11
0.0804368897637795
21
-0.4893871259842519
0
LINE
8
BLACK
6
CONTINUOUS
10
0.0804368897637795
20
-0.4893871259842519
11
0.0805118110236221
21
-0.4897637795275591
0
LINE
8
BLACK
6
CONTINUOUS
10
0.0805118110236221
20
-0.4897637795275591
11
0.0805118110236221
21
-0.547244094488189
0
LINE
8
BLACK
6
CONTINUOUS
10
0.0805118110236221
20
-0.547244094488189
11
0.0804368897637795
21
-0.5476207480314961
0
LINE
8
BLACK
6
CONTINUOUS
10
0.0804368897637795
20
-0.5476207480314961
11
0.0799042125984252
21
-0.5481534251968504
0
LINE
8
BLACK
6
CONTINUOUS
10
0.0799042125984252
20
-0.5481534251968504
11
0.0795275590551181
21
-0.5482283464566929
0
LINE
8
BLACK
6
CONTINUOUS
10
0.0795275590551181
20
-0.5482283464566929
11
-0.037007874015748
21
-0.5482283464566929
0
LINE
8
BLACK
6
CONTINUOUS
10
-0.037007874015748
20
-0.5482283464566929
11
-0.0373845275590551
21
-0.5481534251968504
0
LINE
8
BLACK
6
CONTINUOUS
10
-0.0373845275590551
20
-0.5481534251968504
11
-0.0379172047244094
21
-0.5476207480314961
0
LINE
8
BLACK
6
CONTINUOUS
10
-0.0379172047244094
20
-0.5476207480314961
11
-0.037992125984252
21
-0.547244094488189
0
LINE
8
BLACK
6
CONTINUOUS
10
-0.037992125984252
20
-0.547244094488189
11
-0.037992125984252
21
-0.4897637795275591
0
LINE
8
BLACK
6
CONTINUOUS
10
-0.037992125984252
20
-0.4897637795275591
11
-0.0379172047244094
21
-0.4893871259842519
0
LINE
8
BLACK
6
CONTINUOUS
10
-0.0379172047244094
20
-0.4893871259842519
11
-0.0373845275590551
21
-0.4888544488188976
0
LINE
8
BLACK
6
CONTINUOUS
10
-0.0373845275590551
20
-0.4888544488188976
11
-0.037007874015748
21
-0.4887795275590551
0
LINE
8
BLACK
6
CONTINUOUS
10
-0.037007874015748
20
-0.4887795275590551
11
0.0795275590551181
21
-0.4887795275590551
0
LINE
8
BLACK
6
CONTINUOUS
10
0.0795275590551181
20
-0.4887795275590551
11
0.0799042125984252
21
-0.4888544488188976
0
LINE
8
BLACK
6
CONTINUOUS
10
-0.0360236220472441
20
-0.490748031496063
11
-0.0360236220472441
21
-0.5462598425196851
0
LINE
8
BLACK
6
CONTINUOUS
10
-0.0360236220472441
20
-0.5462598425196851
11
0.0785433070866142
21
-0.5462598425196851
0
LINE
8
BLACK
6
CONTINUOUS
10
0.0785433070866142
20
-0.5462598425196851
11
0.0785433070866142
21
-0.490748031496063
0
LINE
8
BLACK
6
CONTINUOUS
10
0.0785433070866142
20
-0.490748031496063
11
-0.0360236220472441
21
-0.490748031496063
0
LINE
8
BLACK
6
CONTINUOUS
10
-0.3401745275590551
20
-0.4380670472440945
11
-0.3396418503937008
21
-0.4385997244094488
0
LINE
8
BLACK
6
CONTINUOUS
10
-0.3396418503937008
20
-0.4385997244094488
11
-0.3395669291338583
21
-0.4389763779527559
0
LINE
8
BLACK
6
CONTINUOUS
10
-0.3395669291338583
20
-0.4389763779527559
11
-0.3395669291338583
21
-0.5374015748031495
0
LINE
8
BLACK
6
CONTINUOUS
10
-0.3395669291338583
20
-0.5374015748031495
11
-0.3396418503937008
21
-0.5377782283464567
0
LINE
8
BLACK
6
CONTINUOUS
10
-0.3396418503937008
20
-0.5377782283464567
11
-0.3401745275590551
21
-0.538310905511811
0
LINE
8
BLACK
6
CONTINUOUS
10
-0.3401745275590551
20
-0.538310905511811
11
-0.3405511811023622
21
-0.5383858267716536
0
LINE
8
BLACK
6
CONTINUOUS
10
-0.3405511811023622
20
-0.5383858267716536
11
-0.4704724409448819
21
-0.5383858267716536
0
LINE
8
BLACK
6
CONTINUOUS
10
-0.4704724409448819
20
-0.5383858267716536
11
-0.470849094488189
21
-0.538310905511811
0
LINE
8
BLACK
6
CONTINUOUS
10
-0.470849094488189
20
-0.538310905511811
11
-0.4713817716535433
21
-0.5377782283464567
0
LINE
8
BLACK
6
CONTINUOUS
10
-0.4713817716535433
20
-0.5377782283464567
11
-0.4714566929133858
21
-0.5374015748031495
0
LINE
8
BLACK
6
CONTINUOUS
10
-0.4714566929133858
20
-0.5374015748031495
11
-0.4714566929133858
21
-0.4389763779527559
0
LINE
8
BLACK
6
CONTINUOUS
10
-0.4714566929133858
20
-0.4389763779527559
11
-0.4713817716535433
21
-0.4385997244094488
0
LINE
8
BLACK
6
CONTINUOUS
10
-0.4713817716535433
20
-0.4385997244094488
11
-0.470849094488189
21
-0.4380670472440945
0
LINE
8
BLACK
6
CONTINUOUS
10
-0.470849094488189
20
-0.4380670472440945
11
-0.4704724409448819
21
-0.437992125984252
0
LINE
8
BLACK
6
CONTINUOUS
10
-0.4704724409448819
20
-0.437992125984252
11
-0.3405511811023622
21
-0.437992125984252
0
LINE
8
BLACK
6
CONTINUOUS
10
-0.3405511811023622
20
-0.437992125984252
11
-0.3401745275590551
21
-0.4380670472440945
0
LINE
8
BLACK
6
CONTINUOUS
10
-0.469488188976378
20
-0.4399606299212598
11
-0.469488188976378
21
-0.5364173228346456
0
LINE
8
BLACK
6
CONTINUOUS
10
-0.469488188976378
20
-0.5364173228346456
11
-0.3415354330708661
21
-0.5364173228346456
0
LINE
8
BLACK
6
CONTINUOUS
10
-0.3415354330708661
20
-0.5364173228346456
11
-0.3415354330708661
21
-0.4399606299212598
0
LINE
8
BLACK
6
CONTINUOUS
10
-0.3415354330708661
20
-0.4399606299212598
11
-0.469488188976378
21
-0.4399606299212598
0
LINE
8
BLACK
6
CONTINUOUS
10
1.3035262598425197
20
-0.3396418503937008
11
1.3040589370078739
21
-0.3401745275590551
0
LINE
8
BLACK
6
CONTINUOUS
10
1.3040589370078739
20
-0.3401745275590551
11
1.3041338582677164
21
-0.3405511811023622
0
LINE
8
BLACK
6
CONTINUOUS
10
1.3041338582677164
20
-0.3405511811023622
11
1.3041338582677164
21
-0.5216535433070866
0
LINE
8
BLACK
6
CONTINUOUS
10
1.3041338582677164
20
-0.5216535433070866
11
1.3040589370078739
21
-0.5220301968503936
0
LINE
8
BLACK
6
CONTINUOUS
10
1.3040589370078739
20
-0.5220301968503936
11
1.3035262598425197
21
-0.522562874015748
0
LINE
8
BLACK
6
CONTINUOUS
10
1.3035262598425197
20
-0.522562874015748
11
1.3031496062992125
21
-0.5226377952755905
0
LINE
8
BLACK
6
CONTINUOUS
10
1.3031496062992125
20
-0.5226377952755905
11
1.0393700787401574
21
-0.5226377952755905
0
LINE
8
BLACK
6
CONTINUOUS
10
1.0393700787401574
20
-0.5226377952755905
11
1.0389934251968505
21
-0.522562874015748
0
LINE
8
BLACK
6
CONTINUOUS
10
1.0389934251968505
20
-0.522562874015748
11
1.038460748031496
21
-0.5220301968503936
0
LINE
8
BLACK
6
CONTINUOUS
10
1.038460748031496
20
-0.5220301968503936
11
1.0383858267716535
21
-0.5216535433070866
0
LINE
8
BLACK
6
CONTINUOUS
10
1.0383858267716535
20
-0.5216535433070866
11
1.0383858267716535
21
-0.3405511811023622
0
LINE
8
BLACK
6
CONTINUOUS
10
1.0383858267716535
20
-0.3405511811023622
11
1.038460748031496
21
-0.3401745275590551
0
LINE
8
BLACK
6
CONTINUOUS
10
1.038460748031496
20
-0.3401745275590551
11
1.0389934251968505
21
-0.3396418503937008
0
LINE
8
BLACK
6
CONTINUOUS
10
1.0389934251968505
20
-0.3396418503937008
11
1.0393700787401574
21
-0.3395669291338583
0
LINE
8
BLACK
6
CONTINUOUS
10
1.0393700787401574
20
-0.3395669291338583
11
1.3031496062992125
21
-0.3395669291338583
0
LINE
8
BLACK
6
CONTINUOUS
10
1.3031496062992125
20
-0.3395669291338583
11
1.3035262598425197
21
-0.3396418503937008
0
LINE
8
BLACK
6
CONTINUOUS
10
1.0403543307086613
20
-0.3415354330708661
11
1.0403543307086613
21
-0.5206692913385826
0
LINE
8
BLACK
6
CONTINUOUS
10
1.0403543307086613
20
-0.5206692913385826
11
1.3021653543307086
21
-0.5206692913385826
0
LINE
8
BLACK
6
CONTINUOUS
10
1.3021653543307086
20
-0.5206692913385826
11
1.3021653543307086
21
-0.3415354330708661
0
LINE
8
BLACK
6
CONTINUOUS
10
1.3021653543307086
20
-0.3415354330708661
11
1.0403543307086613
21
-0.3415354330708661
0
LINE
8
BLACK
6
CONTINUOUS
10
0.8175026377952755
20
-0.4467284645669291
11
0.8180353149606299
21
-0.4472611417322834
0
LINE
8
BLACK
6
CONTINUOUS
10
0.8180353149606299
20
-0.4472611417322834
11
0.8181102362204724
21
-0.4476377952755906
0
LINE
8
BLACK
6
CONTINUOUS
10
0.8181102362204724
20
-0.4476377952755906
11
0.8181102362204724
21
-0.5051181102362204
0
LINE
8
BLACK
6
CONTINUOUS
10
0.8181102362204724
20
-0.5051181102362204
11
0.8180353149606299
21
-0.5054947637795275
0
LINE
8
BLACK
6
CONTINUOUS
10
0.8180353149606299
20
-0.5054947637795275
11
0.8175026377952755
21
-0.5060274409448818
0
LINE
8
BLACK
6
CONTINUOUS
10
0.8175026377952755
20
-0.5060274409448818
11
0.8171259842519685
21
-0.5061023622047244
0
LINE
8
BLACK
6
CONTINUOUS
10
0.8171259842519685
20
-0.5061023622047244
11
0.7005905511811024
21
-0.5061023622047244
0
LINE
8
BLACK
6
CONTINUOUS
10
0.7005905511811024
20
-0.5061023622047244
11
0.7002138976377953
21
-0.5060274409448818
0
LINE
8
BLACK
6
CONTINUOUS
10
0.7002138976377953
20
-0.5060274409448818
11
0.699681220472441
21
-0.5054947637795275
0
LINE
8
BLACK
6
CONTINUOUS
10
0.699681220472441
20
-0.5054947637795275
11
0.6996062992125984
21
-0.5051181102362204
0
LINE
8
BLACK
6
CONTINUOUS
10
0.6996062992125984
20
-0.5051181102362204
11
0.6996062992125984
21
-0.4476377952755906
0
LINE
8
BLACK
6
CONTINUOUS
10
0.6996062992125984
20
-0.4476377952755906
11
0.699681220472441
21
-0.4472611417322834
0
LINE
8
BLACK
6
CONTINUOUS
10
0.699681220472441
20
-0.4472611417322834
11
0.7002138976377953
21
-0.4467284645669291
0
LINE
8
BLACK
6
CONTINUOUS
10
0.7002138976377953
20
-0.4467284645669291
11
0.7005905511811024
21
-0.4466535433070866
0
LINE
8
BLACK
6
CONTINUOUS
10
0.7005905511811024
20
-0.4466535433070866
11
0.8171259842519685
21
-0.4466535433070866
0
LINE
8
BLACK
6
CONTINUOUS
10
0.8171259842519685
20
-0.4466535433070866
11
0.8175026377952755
21
-0.4467284645669291
0
LINE
8
BLACK
6
CONTINUOUS
10
0.7015748031496063
20
-0.4486220472440945
11
0.7015748031496063
21
-0.5041338582677165
0
LINE
8
BLACK
6
CONTINUOUS
10
0.7015748031496063
20
-0.5041338582677165
11
0.8161417322834645
21
-0.5041338582677165
0
LINE
8
BLACK
6
CONTINUOUS
10
0.8161417322834645
20
-0.5041338582677165
11
0.8161417322834645
21
-0.4486220472440945
0
LINE
8
BLACK
6
CONTINUOUS
10
0.8161417322834645
20
-0.4486220472440945
11
0.7015748031496063
21
-0.4486220472440945
0
LINE
8
BLACK
6
CONTINUOUS
10
-0.064387125984252
20
-0.4427914566929134
11
-0.0638544488188976
21
-0.4433241338582677
0
LINE
8
BLACK
6
CONTINUOUS
10
-0.0638544488188976
20
-0.4433241338582677
11
-0.0637795275590551
21
-0.4437007874015748
0
LINE
8
BLACK
6
CONTINUOUS
10
-0.0637795275590551
20
-0.4437007874015748
11
-0.0637795275590551
21
-0.5011811023622047
0
LINE
8
BLACK
6
CONTINUOUS
10
-0.0637795275590551
20
-0.5011811023622047
11
-0.0638544488188976
21
-0.5015577559055118
0
LINE
8
BLACK
6
CONTINUOUS
10
-0.0638544488188976
20
-0.5015577559055118
11
-0.064387125984252
21
-0.5020904330708661
0
LINE
8
BLACK
6
CONTINUOUS
10
-0.064387125984252
20
-0.5020904330708661
11
-0.0647637795275591
21
-0.5021653543307086
0
LINE
8
BLACK
6
CONTINUOUS
10
-0.0647637795275591
20
-0.5021653543307086
11
-0.1812992125984252
21
-0.5021653543307086
0
LINE
8
BLACK
6
CONTINUOUS
10
-0.1812992125984252
20
-0.5021653543307086
11
-0.1816758661417323
21
-0.5020904330708661
0
LINE
8
BLACK
6
CONTINUOUS
10
-0.1816758661417323
20
-0.5020904330708661
11
-0.1822085433070866
21
-0.5015577559055118
0
LINE
8
BLACK
6
CONTINUOUS
10
-0.1822085433070866
20
-0.5015577559055118
11
-0.1822834645669291
21
-0.5011811023622047
0
LINE
8
BLACK
6
CONTINUOUS
10
-0.1822834645669291
20
-0.5011811023622047
11
-0.1822834645669291
21
-0.4437007874015748
0
LINE
8
BLACK
6
CONTINUOUS
10
-0.1822834645669291
20
-0.4437007874015748
11
-0.1822085433070866
21
-0.4433241338582677
0
LINE
8
BLACK
6
CONTINUOUS
10
-0.1822085433070866
20
-0.4433241338582677
11
-0.1816758661417323
21
-0.4427914566929134
0
LINE
8
BLACK
6
CONTINUOUS
10
-0.1816758661417323
20
-0.4427914566929134
11
-0.1812992125984252
21
-0.4427165354330709
0
LINE
8
BLACK
6
CONTINUOUS
10
-0.1812992125984252
20
-0.4427165354330709
11
-0.0647637795275591
21
-0.4427165354330709
0
LINE
8
BLACK
6
CONTINUOUS
10
-0.0647637795275591
20
-0.4427165354330709
11
-0.064387125984252
21
-0.4427914566929134
0
LINE
8
BLACK
6
CONTINUOUS
10
-0.1803149606299213
20
-0.4446850393700787
11
-0.1803149606299213
21
-0.5001968503937008
0
LINE
8
BLACK
6
CONTINUOUS
10
-0.1803149606299213
20
-0.5001968503937008
11
-0.065748031496063
21
-0.5001968503937008
0
LINE
8
BLACK
6
CONTINUOUS
10
-0.065748031496063
20
-0.5001968503937008
11
-0.065748031496063
21
-0.4446850393700787
0
LINE
8
BLACK
6
CONTINUOUS
10
-0.065748031496063
20
-0.4446850393700787
11
-0.1803149606299213
21
-0.4446850393700787
0
LINE
8
BLACK
6
CONTINUOUS
10
0.389353031496063
20
-0.2252717716535433
11
0.3898857086614173
21
-0.2258044488188976
0
LINE
8
BLACK
6
CONTINUOUS
10
0.3898857086614173
20
-0.2258044488188976
11
0.3899606299212598
21
-0.2261811023622047
0
LINE
8
BLACK
6
CONTINUOUS
10
0.3899606299212598
20
-0.2261811023622047
11
0.3899606299212598
21
-0.3427165354330708
0
LINE
8
BLACK
6
CONTINUOUS
10
0.3899606299212598
20
-0.3427165354330708
11
0.3898857086614173
21
-0.343093188976378
0
LINE
8
BLACK
6
CONTINUOUS
10
0.3898857086614173
20
-0.343093188976378
11
0.389353031496063
21
-0.3436258661417323
0
LINE
8
BLACK
6
CONTINUOUS
10
0.389353031496063
20
-0.3436258661417323
11
0.3889763779527559
21
-0.3437007874015748
0
LINE
8
BLACK
6
CONTINUOUS
10
0.3889763779527559
20
-0.3437007874015748
11
0.331496062992126
21
-0.3437007874015748
0
LINE
8
BLACK
6
CONTINUOUS
10
0.331496062992126
20
-0.3437007874015748
11
0.3311194094488189
21
-0.3436258661417323
0
LINE
8
BLACK
6
CONTINUOUS
10
0.3311194094488189
20
-0.3436258661417323
11
0.3305867322834646
21
-0.343093188976378
0
LINE
8
BLACK
6
CONTINUOUS
10
0.3305867322834646
20
-0.343093188976378
11
0.330511811023622
21
-0.3427165354330708
0
LINE
8
BLACK
6
CONTINUOUS
10
0.330511811023622
20
-0.3427165354330708
11
0.330511811023622
21
-0.2261811023622047
0
LINE
8
BLACK
6
CONTINUOUS
10
0.330511811023622
20
-0.2261811023622047
11
0.3305867322834646
21
-0.2258044488188976
0
LINE
8
BLACK
6
CONTINUOUS
10
0.3305867322834646
20
-0.2258044488188976
11
0.3311194094488189
21
-0.2252717716535433
0
LINE
8
BLACK
6
CONTINUOUS
10
0.3311194094488189
20
-0.2252717716535433
11
0.331496062992126
21
-0.2251968503937008
0
LINE
8
BLACK
6
CONTINUOUS
10
0.331496062992126
20
-0.2251968503937008
11
0.3889763779527559
21
-0.2251968503937008
0
LINE
8
BLACK
6
CONTINUOUS
10
0.3889763779527559
20
-0.2251968503937008
11
0.389353031496063
21
-0.2252717716535433
0
LINE
8
BLACK
6
CONTINUOUS
10
0.3324803149606299
20
-0.2271653543307087
11
0.3324803149606299
21
-0.3417322834645669
0
LINE
8
BLACK
6
CONTINUOUS
10
0.3324803149606299
20
-0.3417322834645669
11
0.387992125984252
21
-0.3417322834645669
0
LINE
8
BLACK
6
CONTINUOUS
10
0.387992125984252
20
-0.3417322834645669
11
0.387992125984252
21
-0.2271653543307087
0
LINE
8
BLACK
6
CONTINUOUS
10
0.387992125984252
20
-0.2271653543307087
11
0.3324803149606299
21
-0.2271653543307087
0
LINE
8
BLACK
6
CONTINUOUS
10
-0.6027729527559055
20
-0.2183820078740157
11
-0.6022402755905512
21
-0.2189146850393701
0
LINE
8
BLACK
6
CONTINUOUS
10
-0.6022402755905512
20
-0.2189146850393701
11
-0.6021653543307086
21
-0.2192913385826772
0
LINE
8
BLACK
6
CONTINUOUS
10
-0.6021653543307086
20
-0.2192913385826772
11
-0.6021653543307086
21
-0.2767716535433071
0
LINE
8
BLACK
6
CONTINUOUS
10
-0.6021653543307086
20
-0.2767716535433071
11
-0.6022402755905512
21
-0.2771483070866141
0
LINE
8
BLACK
6
CONTINUOUS
10
-0.6022402755905512
20
-0.2771483070866141
11
-0.6027729527559055
21
-0.2776809842519685
0
LINE
8
BLACK
6
CONTINUOUS
10
-0.6027729527559055
20
-0.2776809842519685
11
-0.6031496062992125
21
-0.277755905511811
0
LINE
8
BLACK
6
CONTINUOUS
10
-0.6031496062992125
20
-0.277755905511811
11
-0.7196850393700788
21
-0.277755905511811
0
LINE
8
BLACK
6
CONTINUOUS
10
-0.7196850393700788
20
-0.277755905511811
11
-0.7200616929133858
21
-0.2776809842519685
0
LINE
8
BLACK
6
CONTINUOUS
10
-0.7200616929133858
20
-0.2776809842519685
11
-0.7205943700787402
21
-0.2771483070866141
0
LINE
8
BLACK
6
CONTINUOUS
10
-0.7205943700787402
20
-0.2771483070866141
11
-0.7206692913385827
21
-0.2767716535433071
0
LINE
8
BLACK
6
CONTINUOUS
10
-0.7206692913385827
20
-0.2767716535433071
11
-0.7206692913385827
21
-0.2192913385826772
0
LINE
8
BLACK
6
CONTINUOUS
10
-0.7206692913385827
20
-0.2192913385826772
11
-0.7205943700787402
21
-0.2189146850393701
0
LINE
8
BLACK
6
CONTINUOUS
10
-0.7205943700787402
20
-0.2189146850393701
11
-0.7200616929133858
21
-0.2183820078740157
0
LINE
8
BLACK
6
CONTINUOUS
10
-0.7200616929133858
20
-0.2183820078740157
11
-0.7196850393700788
21
-0.2183070866141732
0
LINE
8
BLACK
6
CONTINUOUS
10
-0.7196850393700788
20
-0.2183070866141732
11
-0.6031496062992125
21
-0.2183070866141732
0
LINE
8
BLACK
6
CONTINUOUS
10
-0.6031496062992125
20
-0.2183070866141732
11
-0.6027729527559055
21
-0.2183820078740157
0
LINE
8
BLACK
6
CONTINUOUS
10
-0.7187007874015748
20
-0.2202755905511811
11
-0.7187007874015748
21
-0.2757874015748031
0
LINE
8
BLACK
6
CONTINUOUS
10
-0.7187007874015748
20
-0.2757874015748031
11
-0.6041338582677165
21
-0.2757874015748031
0
LINE
8
BLACK
6
CONTINUOUS
10
-0.6041338582677165
20
-0.2757874015748031
11
-0.6041338582677165
21
-0.2202755905511811
0
LINE
8
BLACK
6
CONTINUOUS
10
-0.6041338582677165
20
-0.2202755905511811
11
-0.7187007874015748
21
-0.2202755905511811
0
LINE
8
BLACK
6
CONTINUOUS
10
-1.2902342125984252
20
0.2960617322834646
11
-1.2897015354330708
21
0.2955290551181102
0
LINE
8
BLACK
6
CONTINUOUS
10
-1.2897015354330708
20
0.2955290551181102
11
-1.2896266141732282
21
0.2951524015748032
0
LINE
8
BLACK
6
CONTINUOUS
10
-1.2896266141732282
20
0.2951524015748032
11
-1.2896266141732282
21
-0.2733515354330708
0
LINE
8
BLACK
6
CONTINUOUS
10
-1.2896266141732282
20
-0.2733515354330708
11
-1.2897015354330708
21
-0.273728188976378
0
LINE
8
BLACK
6
CONTINUOUS
10
-1.2897015354330708
20
-0.273728188976378
11
-1.2902342125984252
21
-0.2742608661417323
0
LINE
8
BLACK
6
CONTINUOUS
10
-1.2902342125984252
20
-0.2742608661417323
11
-1.2906108661417321
21
-0.2743357874015748
0
LINE
8
BLACK
6
CONTINUOUS
10
-1.2906108661417321
20
-0.2743357874015748
11
-1.54257937007874
21
-0.2743357874015748
0
LINE
8
BLACK
6
CONTINUOUS
10
-1.54257937007874
20
-0.2743357874015748
11
-1.5429560236220472
21
-0.2742608661417323
0
LINE
8
BLACK
6
CONTINUOUS
10
-1.5429560236220472
20
-0.2742608661417323
11
-1.5434887007874016
21
-0.273728188976378
0
LINE
8
BLACK
6
CONTINUOUS
10
-1.5434887007874016
20
-0.273728188976378
11
-1.543563622047244
21
-0.2733515354330708
0
LINE
8
BLACK
6
CONTINUOUS
10
-1.543563622047244
20
-0.2733515354330708
11
-1.543563622047244
21
0.2951524015748032
0
LINE
8
BLACK
6
CONTINUOUS
10
-1.543563622047244
20
0.2951524015748032
11
-1.5434887007874016
21
0.2955290551181102
0
LINE
8
BLACK
6
CONTINUOUS
10
-1.5434887007874016
20
0.2955290551181102
11
-1.5429560236220472
21
0.2960617322834646
0
LINE
8
BLACK
6
CONTINUOUS
10
-1.5429560236220472
20
0.2960617322834646
11
-1.54257937007874
21
0.2961366535433071
0
LINE
8
BLACK
6
CONTINUOUS
10
-1.54257937007874
20
0.2961366535433071
11
-1.2906108661417321
21
0.2961366535433071
0
LINE
8
BLACK
6
CONTINUOUS
10
-1.2906108661417321
20
0.2961366535433071
11
-1.2902342125984252
21
0.2960617322834646
0
LINE
8
BLACK
6
CONTINUOUS
10
-1.5415951181102361
20
0.2941681496062992
11
-1.5415951181102361
21
-0.2723672834645669
0
LINE
8
BLACK
6
CONTINUOUS
10
-1.5415951181102361
20
-0.2723672834645669
11
-1.2915951181102361
21
-0.2723672834645669
0
LINE
8
BLACK
6
CONTINUOUS
10
-1.2915951181102361
20
-0.2723672834645669
11
-1.2915951181102361
21
0.2941681496062992
0
LINE
8
BLACK
6
CONTINUOUS
10
-1.2915951181102361
20
0.2941681496062992
11
-1.5415951181102361
21
0.2941681496062992
0
LINE
8
BLACK
6
CONTINUOUS
10
0.826360905511811
20
-0.1309804330708661
11
0.8268935826771653
21
-0.1315131102362205
0
LINE
8
BLACK
6
CONTINUOUS
10
0.8268935826771653
20
-0.1315131102362205
11
0.8269685039370078
21
-0.1318897637795275
0
LINE
8
BLACK
6
CONTINUOUS
10
0.8269685039370078
20
-0.1318897637795275
11
0.8269685039370078
21
-0.265748031496063
0
LINE
8
BLACK
6
CONTINUOUS
10
0.8269685039370078
20
-0.265748031496063
11
0.8268935826771653
21
-0.2661246850393701
0
LINE
8
BLACK
6
CONTINUOUS
10
0.8268935826771653
20
-0.2661246850393701
11
0.826360905511811
21
-0.2666573622047244
0
LINE
8
BLACK
6
CONTINUOUS
10
0.826360905511811
20
-0.2666573622047244
11
0.8259842519685039
21
-0.2667322834645669
0
LINE
8
BLACK
6
CONTINUOUS
10
0.8259842519685039
20
-0.2667322834645669
11
0.7488188976377953
21
-0.2667322834645669
0
LINE
8
BLACK
6
CONTINUOUS
10
0.7488188976377953
20
-0.2667322834645669
11
0.7484422440944881
21
-0.2666573622047244
0
LINE
8
BLACK
6
CONTINUOUS
10
0.7484422440944881
20
-0.2666573622047244
11
0.7479095669291338
21
-0.2661246850393701
0
LINE
8
BLACK
6
CONTINUOUS
10
0.7479095669291338
20
-0.2661246850393701
11
0.7478346456692914
21
-0.265748031496063
0
LINE
8
BLACK
6
CONTINUOUS
10
0.7478346456692914
20
-0.265748031496063
11
0.7478346456692914
21
-0.1318897637795275
0
LINE
8
BLACK
6
CONTINUOUS
10
0.7478346456692914
20
-0.1318897637795275
11
0.7479095669291338
21
-0.1315131102362205
0
LINE
8
BLACK
6
CONTINUOUS
10
0.7479095669291338
20
-0.1315131102362205
11
0.7484422440944881
21
-0.1309804330708661
0
LINE
8
BLACK
6
CONTINUOUS
10
0.7484422440944881
20
-0.1309804330708661
11
0.7488188976377953
21
-0.1309055118110236
0
LINE
8
BLACK
6
CONTINUOUS
10
0.7488188976377953
20
-0.1309055118110236
11
0.8259842519685039
21
-0.1309055118110236
0
LINE
8
BLACK
6
CONTINUOUS
10
0.8259842519685039
20
-0.1309055118110236
11
0.826360905511811
21
-0.1309804330708661
0
LINE
8
BLACK
6
CONTINUOUS
10
0.7498031496062992
20
-0.1328740157480315
11
0.7498031496062992
21
-0.264763779527559
0
LINE
8
BLACK
6
CONTINUOUS
10
0.7498031496062992
20
-0.264763779527559
11
0.825
21
-0.264763779527559
0
LINE
8
BLACK
6
CONTINUOUS
10
0.825
20
-0.264763779527559
11
0.825
21
-0.1328740157480315
0
LINE
8
BLACK
6
CONTINUOUS
10
0.825
20
-0.1328740157480315
11
0.7498031496062992
21
-0.1328740157480315
0
LINE
8
BLACK
6
CONTINUOUS
10
0.8913215354330708
20
-0.1327520866141732
11
0.8918542125984251
21
-0.1332847637795276
0
LINE
8
BLACK
6
CONTINUOUS
10
0.8918542125984251
20
-0.1332847637795276
11
0.8919291338582677
21
-0.1336614173228347
0
LINE
8
BLACK
6
CONTINUOUS
10
0.8919291338582677
20
-0.1336614173228347
11
0.8919291338582677
21
-0.2501968503937008
0
LINE
8
BLACK
6
CONTINUOUS
10
0.8919291338582677
20
-0.2501968503937008
11
0.8918542125984251
21
-0.2505735039370079
0
LINE
8
BLACK
6
CONTINUOUS
10
0.8918542125984251
20
-0.2505735039370079
11
0.8913215354330708
21
-0.2511061811023622
0
LINE
8
BLACK
6
CONTINUOUS
10
0.8913215354330708
20
-0.2511061811023622
11
0.8909448818897637
21
-0.2511811023622047
0
LINE
8
BLACK
6
CONTINUOUS
10
0.8909448818897637
20
-0.2511811023622047
11
0.8334645669291338
21
-0.2511811023622047
0
LINE
8
BLACK
6
CONTINUOUS
10
0.8334645669291338
20
-0.2511811023622047
11
0.8330879133858268
21
-0.2511061811023622
0
LINE
8
BLACK
6
CONTINUOUS
10
0.8330879133858268
20
-0.2511061811023622
11
0.8325552362204724
21
-0.2505735039370079
0
LINE
8
BLACK
6
CONTINUOUS
10
0.8325552362204724
20
-0.2505735039370079
11
0.8324803149606299
21
-0.2501968503937008
0
LINE
8
BLACK
6
CONTINUOUS
10
0.8324803149606299
20
-0.2501968503937008
11
0.8324803149606299
21
-0.1336614173228347
0
LINE
8
BLACK
6
CONTINUOUS
10
0.8324803149606299
20
-0.1336614173228347
11
0.8325552362204724
21
-0.1332847637795276
0
LINE
8
BLACK
6
CONTINUOUS
10
0.8325552362204724
20
-0.1332847637795276
11
0.8330879133858268
21
-0.1327520866141732
0
LINE
8
BLACK
6
CONTINUOUS
10
0.8330879133858268
20
-0.1327520866141732
11
0.8334645669291338
21
-0.1326771653543307
0
LINE
8
BLACK
6
CONTINUOUS
10
0.8334645669291338
20
-0.1326771653543307
11
0.8909448818897637
21
-0.1326771653543307
0
LINE
8
BLACK
6
CONTINUOUS
10
0.8909448818897637
20
-0.1326771653543307
11
0.8913215354330708
21
-0.1327520866141732
0
LINE
8
BLACK
6
CONTINUOUS
10
0.8344488188976378
20
-0.1346456692913386
11
0.8344488188976378
21
-0.2492125984251969
0
LINE
8
BLACK
6
CONTINUOUS
10
0.8344488188976378
20
-0.2492125984251969
11
0.8899606299212598
21
-0.2492125984251969
0
LINE
8
BLACK
6
CONTINUOUS
10
0.8899606299212598
20
-0.2492125984251969
11
0.8899606299212598
21
-0.1346456692913386
0
LINE
8
BLACK
6
CONTINUOUS
10
0.8899606299212598
20
-0.1346456692913386
11
0.8344488188976378
21
-0.1346456692913386
0
LINE
8
BLACK
6
CONTINUOUS
10
-1.203166653543307
20
-0.1160198031496063
11
-1.2026339763779528
21
-0.1165524803149606
0
LINE
8
BLACK
6
CONTINUOUS
10
-1.2026339763779528
20
-0.1165524803149606
11
-1.2025590551181102
21
-0.1169291338582677
0
LINE
8
BLACK
6
CONTINUOUS
10
-1.2025590551181102
20
-0.1169291338582677
11
-1.2025590551181102
21
-0.2334645669291339
0
LINE
8
BLACK
6
CONTINUOUS
10
-1.2025590551181102
20
-0.2334645669291339
11
-1.2026339763779528
21
-0.2338412204724409
0
LINE
8
BLACK
6
CONTINUOUS
10
-1.2026339763779528
20
-0.2338412204724409
11
-1.203166653543307
21
-0.2343738976377953
0
LINE
8
BLACK
6
CONTINUOUS
10
-1.203166653543307
20
-0.2343738976377953
11
-1.2035433070866142
21
-0.2344488188976378
0
LINE
8
BLACK
6
CONTINUOUS
10
-1.2035433070866142
20
-0.2344488188976378
11
-1.2610236220472442
21
-0.2344488188976378
0
LINE
8
BLACK
6
CONTINUOUS
10
-1.2610236220472442
20
-0.2344488188976378
11
-1.2614002755905511
21
-0.2343738976377953
0
LINE
8
BLACK
6
CONTINUOUS
10
-1.2614002755905511
20
-0.2343738976377953
11
-1.2619329527559056
21
-0.2338412204724409
0
LINE
8
BLACK
6
CONTINUOUS
10
-1.2619329527559056
20
-0.2338412204724409
11
-1.2620078740157481
21
-0.2334645669291339
0
LINE
8
BLACK
6
CONTINUOUS
10
-1.2620078740157481
20
-0.2334645669291339
11
-1.2620078740157481
21
-0.1169291338582677
0
LINE
8
BLACK
6
CONTINUOUS
10
-1.2620078740157481
20
-0.1169291338582677
11
-1.2619329527559056
21
-0.1165524803149606
0
LINE
8
BLACK
6
CONTINUOUS
10
-1.2619329527559056
20
-0.1165524803149606
11
-1.2614002755905511
21
-0.1160198031496063
0
LINE
8
BLACK
6
CONTINUOUS
10
-1.2614002755905511
20
-0.1160198031496063
11
-1.2610236220472442
21
-0.1159448818897638
0
LINE
8
BLACK
6
CONTINUOUS
10
-1.2610236220472442
20
-0.1159448818897638
11
-1.2035433070866142
21
-0.1159448818897638
0
LINE
8
BLACK
6
CONTINUOUS
10
-1.2035433070866142
20
-0.1159448818897638
11
-1.203166653543307
21
-0.1160198031496063
0
LINE
8
BLACK
6
CONTINUOUS
10
-1.2600393700787402
20
-0.1179133858267716
11
-1.2600393700787402
21
-0.2324803149606299
0
LINE
8
BLACK
6
CONTINUOUS
10
-1.2600393700787402
20
-0.2324803149606299
11
-1.2045275590551181
21
-0.2324803149606299
0
LINE
8
BLACK
6
CONTINUOUS
10
-1.2045275590551181
20
-0.2324803149606299
11
-1.2045275590551181
21
-0.1179133858267716
0
LINE
8
BLACK
6
CONTINUOUS
10
-1.2045275590551181
20
-0.1179133858267716
11
-1.2600393700787402
21
-0.1179133858267716
0
LINE
8
BLACK
6
CONTINUOUS
10
-1.1303320078740158
20
-0.1160198031496063
11
-1.1297993307086613
21
-0.1165524803149606
0
LINE
8
BLACK
6
CONTINUOUS
10
-1.1297993307086613
20
-0.1165524803149606
11
-1.1297244094488188
21
-0.1169291338582677
0
LINE
8
BLACK
6
CONTINUOUS
10
-1.1297244094488188
20
-0.1169291338582677
11
-1.1297244094488188
21
-0.2334645669291339
0
LINE
8
BLACK
6
CONTINUOUS
10
-1.1297244094488188
20
-0.2334645669291339
11
-1.1297993307086613
21
-0.2338412204724409
0
LINE
8
BLACK
6
CONTINUOUS
10
-1.1297993307086613
20
-0.2338412204724409
11
-1.1303320078740158
21
-0.2343738976377953
0
LINE
8
BLACK
6
CONTINUOUS
10
-1.1303320078740158
20
-0.2343738976377953
11
-1.1307086614173227
21
-0.2344488188976378
0
LINE
8
BLACK
6
CONTINUOUS
10
-1.1307086614173227
20
-0.2344488188976378
11
-1.1881889763779527
21
-0.2344488188976378
0
LINE
8
BLACK
6
CONTINUOUS
10
-1.1881889763779527
20
-0.2344488188976378
11
-1.1885656299212599
21
-0.2343738976377953
0
LINE
8
BLACK
6
CONTINUOUS
10
-1.1885656299212599
20
-0.2343738976377953
11
-1.1890983070866141
21
-0.2338412204724409
0
LINE
8
BLACK
6
CONTINUOUS
10
-1.1890983070866141
20
-0.2338412204724409
11
-1.1891732283464567
21
-0.2334645669291339
0
LINE
8
BLACK
6
CONTINUOUS
10
-1.1891732283464567
20
-0.2334645669291339
11
-1.1891732283464567
21
-0.1169291338582677
0
LINE
8
BLACK
6
CONTINUOUS
10
-1.1891732283464567
20
-0.1169291338582677
11
-1.1890983070866141
21
-0.1165524803149606
0
LINE
8
BLACK
6
CONTINUOUS
10
-1.1890983070866141
20
-0.1165524803149606
11
-1.1885656299212599
21
-0.1160198031496063
0
LINE
8
BLACK
6
CONTINUOUS
10
-1.1885656299212599
20
-0.1160198031496063
11
-1.1881889763779527
21
-0.1159448818897638
0
LINE
8
BLACK
6
CONTINUOUS
10
-1.1881889763779527
20
-0.1159448818897638
11
-1.1307086614173227
21
-0.1159448818897638
0
LINE
8
BLACK
6
CONTINUOUS
10
-1.1307086614173227
20
-0.1159448818897638
11
-1.1303320078740158
21
-0.1160198031496063
0
LINE
8
BLACK
6
CONTINUOUS
10
-1.1872047244094488
20
-0.1179133858267716
11
-1.1872047244094488
21
-0.2324803149606299
0
LINE
8
BLACK
6
CONTINUOUS
10
-1.1872047244094488
20
-0.2324803149606299
11
-1.1316929133858267
21
-0.2324803149606299
0
LINE
8
BLACK
6
CONTINUOUS
10
-1.1316929133858267
20
-0.2324803149606299
11
-1.1316929133858267
21
-0.1179133858267716
0
LINE
8
BLACK
6
CONTINUOUS
10
-1.1316929133858267
20
-0.1179133858267716
11
-1.1872047244094488
21
-0.1179133858267716
0
LINE
8
BLACK
6
CONTINUOUS
10
-0.6027729527559055
20
-0.1553898818897638
11
-0.6022402755905512
21
-0.1559225590551181
0
LINE
8
BLACK
6
CONTINUOUS
10
-0.6022402755905512
20
-0.1559225590551181
11
-0.6021653543307086
21
-0.1562992125984252
0
LINE
8
BLACK
6
CONTINUOUS
10
-0.6021653543307086
20
-0.1562992125984252
11
-0.6021653543307086
21
-0.2137795275590551
0
LINE
8
BLACK
6
CONTINUOUS
10
-0.6021653543307086
20
-0.2137795275590551
11
-0.6022402755905512
21
-0.2141561811023622
0
LINE
8
BLACK
6
CONTINUOUS
10
-0.6022402755905512
20
-0.2141561811023622
11
-0.6027729527559055
21
-0.2146888582677165
0
LINE
8
BLACK
6
CONTINUOUS
10
-0.6027729527559055
20
-0.2146888582677165
11
-0.6031496062992125
21
-0.214763779527559
0
LINE
8
BLACK
6
CONTINUOUS
10
-0.6031496062992125
20
-0.214763779527559
11
-0.7196850393700788
21
-0.214763779527559
0
LINE
8
BLACK
6
CONTINUOUS
10
-0.7196850393700788
20
-0.214763779527559
11
-0.7200616929133858
21
-0.2146888582677165
0
LINE
8
BLACK
6
CONTINUOUS
10
-0.7200616929133858
20
-0.2146888582677165
11
-0.7205943700787402
21
-0.2141561811023622
0
LINE
8
BLACK
6
CONTINUOUS
10
-0.7205943700787402
20
-0.2141561811023622
11
-0.7206692913385827
21
-0.2137795275590551
0
LINE
8
BLACK
6
CONTINUOUS
10
-0.7206692913385827
20
-0.2137795275590551
11
-0.7206692913385827
21
-0.1562992125984252
0
LINE
8
BLACK
6
CONTINUOUS
10
-0.7206692913385827
20
-0.1562992125984252
11
-0.7205943700787402
21
-0.1559225590551181
0
LINE
8
BLACK
6
CONTINUOUS
10
-0.7205943700787402
20
-0.1559225590551181
11
-0.7200616929133858
21
-0.1553898818897638
0
LINE
8
BLACK
6
CONTINUOUS
10
-0.7200616929133858
20
-0.1553898818897638
11
-0.7196850393700788
21
-0.1553149606299213
0
LINE
8
BLACK
6
CONTINUOUS
10
-0.7196850393700788
20
-0.1553149606299213
11
-0.6031496062992125
21
-0.1553149606299213
0
LINE
8
BLACK
6
CONTINUOUS
10
-0.6031496062992125
20
-0.1553149606299213
11
-0.6027729527559055
21
-0.1553898818897638
0
LINE
8
BLACK
6
CONTINUOUS
10
-0.7187007874015748
20
-0.1572834645669291
11
-0.7187007874015748
21
-0.2127952755905512
0
LINE
8
BLACK
6
CONTINUOUS
10
-0.7187007874015748
20
-0.2127952755905512
11
-0.6041338582677165
21
-0.2127952755905512
0
LINE
8
BLACK
6
CONTINUOUS
10
-0.6041338582677165
20
-0.2127952755905512
11
-0.6041338582677165
21
-0.1572834645669291
0
LINE
8
BLACK
6
CONTINUOUS
10
-0.6041338582677165
20
-0.1572834645669291
11
-0.7187007874015748
21
-0.1572834645669291
0
LINE
8
BLACK
6
CONTINUOUS
10
1.1657309842519685
20
-0.0573583858267716
11
1.1662636614173227
21
-0.057891062992126
0
LINE
8
BLACK
6
CONTINUOUS
10
1.1662636614173227
20
-0.057891062992126
11
1.1663385826771653
21
-0.0582677165354331
0
LINE
8
BLACK
6
CONTINUOUS
10
1.1663385826771653
20
-0.0582677165354331
11
1.1663385826771653
21
-0.2094488188976378
0
LINE
8
BLACK
6
CONTINUOUS
10
1.1663385826771653
20
-0.2094488188976378
11
1.1662636614173227
21
-0.2098254724409449
0
LINE
8
BLACK
6
CONTINUOUS
10
1.1662636614173227
20
-0.2098254724409449
11
1.1657309842519685
21
-0.2103581496062992
0
LINE
8
BLACK
6
CONTINUOUS
10
1.1657309842519685
20
-0.2103581496062992
11
1.1653543307086613
21
-0.2104330708661417
0
LINE
8
BLACK
6
CONTINUOUS
10
1.1653543307086613
20
-0.2104330708661417
11
1.0314960629921259
21
-0.2104330708661417
0
LINE
8
BLACK
6
CONTINUOUS
10
1.0314960629921259
20
-0.2104330708661417
11
1.031119409448819
21
-0.2103581496062992
0
LINE
8
BLACK
6
CONTINUOUS
10
1.031119409448819
20
-0.2103581496062992
11
1.0305867322834645
21
-0.2098254724409449
0
LINE
8
BLACK
6
CONTINUOUS
10
1.0305867322834645
20
-0.2098254724409449
11
1.030511811023622
21
-0.2094488188976378
0
LINE
8
BLACK
6
CONTINUOUS
10
1.030511811023622
20
-0.2094488188976378
11
1.030511811023622
21
-0.0582677165354331
0
LINE
8
BLACK
6
CONTINUOUS
10
1.030511811023622
20
-0.0582677165354331
11
1.0305867322834645
21
-0.057891062992126
0
LINE
8
BLACK
6
CONTINUOUS
10
1.0305867322834645
20
-0.057891062992126
11
1.031119409448819
21
-0.0573583858267716
0
LINE
8
BLACK
6
CONTINUOUS
10
1.031119409448819
20
-0.0573583858267716
11
1.0314960629921259
21
-0.0572834645669291
0
LINE
8
BLACK
6
CONTINUOUS
10
1.0314960629921259
20
-0.0572834645669291
11
1.1653543307086613
21
-0.0572834645669291
0
LINE
8
BLACK
6
CONTINUOUS
10
1.1653543307086613
20
-0.0572834645669291
11
1.1657309842519685
21
-0.0573583858267716
0
LINE
8
BLACK
6
CONTINUOUS
10
1.0324803149606299
20
-0.059251968503937
11
1.0324803149606299
21
-0.2084645669291338
0
LINE
8
BLACK
6
CONTINUOUS
10
1.0324803149606299
20
-0.2084645669291338
11
1.1643700787401574
21
-0.2084645669291338
0
LINE
8
BLACK
6
CONTINUOUS
10
1.1643700787401574
20
-0.2084645669291338
11
1.1643700787401574
21
-0.059251968503937
0
LINE
8
BLACK
6
CONTINUOUS
10
1.1643700787401574
20
-0.059251968503937
11
1.0324803149606299
21
-0.059251968503937
0
LINE
8
BLACK
6
CONTINUOUS
10
0.4434868897637795
20
-0.1396418503937008
11
0.4440195669291339
21
-0.1401745275590551
0
LINE
8
BLACK
6
CONTINUOUS
10
0.4440195669291339
20
-0.1401745275590551
11
0.4440944881889763
21
-0.1405511811023622
0
LINE
8
BLACK
6
CONTINUOUS
10
0.4440944881889763
20
-0.1405511811023622
11
0.4440944881889763
21
-0.1980314960629921
0
LINE
8
BLACK
6
CONTINUOUS
10
0.4440944881889763
20
-0.1980314960629921
11
0.4440195669291339
21
-0.1984081496062992
0
LINE
8
BLACK
6
CONTINUOUS
10
0.4440195669291339
20
-0.1984081496062992
11
0.4434868897637795
21
-0.1989408267716535
0
LINE
8
BLACK
6
CONTINUOUS
10
0.4434868897637795
20
-0.1989408267716535
11
0.4431102362204724
21
-0.199015748031496
0
LINE
8
BLACK
6
CONTINUOUS
10
0.4431102362204724
20
-0.199015748031496
11
0.3265748031496063
21
-0.199015748031496
0
LINE
8
BLACK
6
CONTINUOUS
10
0.3265748031496063
20
-0.199015748031496
11
0.3261981496062992
21
-0.1989408267716535
0
LINE
8
BLACK
6
CONTINUOUS
10
0.3261981496062992
20
-0.1989408267716535
11
0.3256654724409448
21
-0.1984081496062992
0
LINE
8
BLACK
6
CONTINUOUS
10
0.3256654724409448
20
-0.1984081496062992
11
0.3255905511811024
21
-0.1980314960629921
0
LINE
8
BLACK
6
CONTINUOUS
10
0.3255905511811024
20
-0.1980314960629921
11
0.3255905511811024
21
-0.1405511811023622
0
LINE
8
BLACK
6
CONTINUOUS
10
0.3255905511811024
20
-0.1405511811023622
11
0.3256654724409448
21
-0.1401745275590551
0
LINE
8
BLACK
6
CONTINUOUS
10
0.3256654724409448
20
-0.1401745275590551
11
0.3261981496062992
21
-0.1396418503937008
0
LINE
8
BLACK
6
CONTINUOUS
10
0.3261981496062992
20
-0.1396418503937008
11
0.3265748031496063
21
-0.1395669291338583
0
LINE
8
BLACK
6
CONTINUOUS
10
0.3265748031496063
20
-0.1395669291338583
11
0.4431102362204724
21
-0.1395669291338583
0
LINE
8
BLACK
6
CONTINUOUS
10
0.4431102362204724
20
-0.1395669291338583
11
0.4434868897637795
21
-0.1396418503937008
0
LINE
8
BLACK
6
CONTINUOUS
10
0.3275590551181102
20
-0.1415354330708661
11
0.3275590551181102
21
-0.1970472440944882
0
LINE
8
BLACK
6
CONTINUOUS
10
0.3275590551181102
20
-0.1970472440944882
11
0.4421259842519685
21
-0.1970472440944882
0
LINE
8
BLACK
6
CONTINUOUS
10
0.4421259842519685
20
-0.1970472440944882
11
0.4421259842519685
21
-0.1415354330708661
0
LINE
8
BLACK
6
CONTINUOUS
10
0.4421259842519685
20
-0.1415354330708661
11
0.3275590551181102
21
-0.1415354330708661
0
LINE
8
BLACK
6
CONTINUOUS
10
1.0173057874015747
20
-0.0658229527559055
11
1.0178384645669292
21
-0.0663556299212598
0
LINE
8
BLACK
6
CONTINUOUS
10
1.0178384645669292
20
-0.0663556299212598
11
1.0179133858267717
21
-0.0667322834645669
0
LINE
8
BLACK
6
CONTINUOUS
10
1.0179133858267717
20
-0.0667322834645669
11
1.0179133858267717
21
-0.1832677165354331
0
LINE
8
BLACK
6
CONTINUOUS
10
1.0179133858267717
20
-0.1832677165354331
11
1.0178384645669292
21
-0.1836443700787402
0
LINE
8
BLACK
6
CONTINUOUS
10
1.0178384645669292
20
-0.1836443700787402
11
1.0173057874015747
21
-0.1841770472440945
0
LINE
8
BLACK
6
CONTINUOUS
10
1.0173057874015747
20
-0.1841770472440945
11
1.0169291338582678
21
-0.184251968503937
0
LINE
8
BLACK
6
CONTINUOUS
10
1.0169291338582678
20
-0.184251968503937
11
0.9594488188976378
21
-0.184251968503937
0
LINE
8
BLACK
6
CONTINUOUS
10
0.9594488188976378
20
-0.184251968503937
11
0.9590721653543307
21
-0.1841770472440945
0
LINE
8
BLACK
6
CONTINUOUS
10
0.9590721653543307
20
-0.1841770472440945
11
0.9585394881889764
21
-0.1836443700787402
0
LINE
8
BLACK
6
CONTINUOUS
10
0.9585394881889764
20
-0.1836443700787402
11
0.9584645669291338
21
-0.1832677165354331
0
LINE
8
BLACK
6
CONTINUOUS
10
0.9584645669291338
20
-0.1832677165354331
11
0.9584645669291338
21
-0.0667322834645669
0
LINE
8
BLACK
6
CONTINUOUS
10
0.9584645669291338
20
-0.0667322834645669
11
0.9585394881889764
21
-0.0663556299212598
0
LINE
8
BLACK
6
CONTINUOUS
10
0.9585394881889764
20
-0.0663556299212598
11
0.9590721653543307
21
-0.0658229527559055
0
LINE
8
BLACK
6
CONTINUOUS
10
0.9590721653543307
20
-0.0658229527559055
11
0.9594488188976378
21
-0.065748031496063
0
LINE
8
BLACK
6
CONTINUOUS
10
0.9594488188976378
20
-0.065748031496063
11
1.0169291338582678
21
-0.065748031496063
0
LINE
8
BLACK
6
CONTINUOUS
10
1.0169291338582678
20
-0.065748031496063
11
1.0173057874015747
21
-0.0658229527559055
0
LINE
8
BLACK
6
CONTINUOUS
10
0.9604330708661417
20
-0.0677165354330709
11
0.9604330708661417
21
-0.1822834645669291
0
LINE
8
BLACK
6
CONTINUOUS
10
0.9604330708661417
20
-0.1822834645669291
11
1.0159448818897638
21
-0.1822834645669291
0
LINE
8
BLACK
6
CONTINUOUS
10
1.0159448818897638
20
-0.1822834645669291
11
1.0159448818897638
21
-0.0677165354330709
0
LINE
8
BLACK
6
CONTINUOUS
10
1.0159448818897638
20
-0.0677165354330709
11
0.9604330708661417
21
-0.0677165354330709
0
LINE
8
BLACK
6
CONTINUOUS
10
-0.6413556299212598
20
-0.0345237401574803
11
-0.6408229527559055
21
-0.0350564173228346
0
LINE
8
BLACK
6
CONTINUOUS
10
-0.6408229527559055
20
-0.0350564173228346
11
-0.640748031496063
21
-0.0354330708661417
0
LINE
8
BLACK
6
CONTINUOUS
10
-0.640748031496063
20
-0.0354330708661417
11
-0.640748031496063
21
-0.1456692913385827
0
LINE
8
BLACK
6
CONTINUOUS
10
-0.640748031496063
20
-0.1456692913385827
11
-0.6408229527559055
21
-0.1460459448818898
0
LINE
8
BLACK
6
CONTINUOUS
10
-0.6408229527559055
20
-0.1460459448818898
11
-0.6413556299212598
21
-0.1465786220472441
0
LINE
8
BLACK
6
CONTINUOUS
10
-0.6413556299212598
20
-0.1465786220472441
11
-0.6417322834645669
21
-0.1466535433070866
0
LINE
8
BLACK
6
CONTINUOUS
10
-0.6417322834645669
20
-0.1466535433070866
11
-0.7677165354330708
21
-0.1466535433070866
0
LINE
8
BLACK
6
CONTINUOUS
10
-0.7677165354330708
20
-0.1466535433070866
11
-0.7680931889763779
21
-0.1465786220472441
0
LINE
8
BLACK
6
CONTINUOUS
10
-0.7680931889763779
20
-0.1465786220472441
11
-0.7686258661417322
21
-0.1460459448818898
0
LINE
8
BLACK
6
CONTINUOUS
10
-0.7686258661417322
20
-0.1460459448818898
11
-0.7687007874015748
21
-0.1456692913385827
0
LINE
8
BLACK
6
CONTINUOUS
10
-0.7687007874015748
20
-0.1456692913385827
11
-0.7687007874015748
21
-0.0354330708661417
0
LINE
8
BLACK
6
CONTINUOUS
10
-0.7687007874015748
20
-0.0354330708661417
11
-0.7686258661417322
21
-0.0350564173228346
0
LINE
8
BLACK
6
CONTINUOUS
10
-0.7686258661417322
20
-0.0350564173228346
11
-0.7680931889763779
21
-0.0345237401574803
0
LINE
8
BLACK
6
CONTINUOUS
10
-0.7680931889763779
20
-0.0345237401574803
11
-0.7677165354330708
21
-0.0344488188976378
0
LINE
8
BLACK
6
CONTINUOUS
10
-0.7677165354330708
20
-0.0344488188976378
11
-0.6417322834645669
21
-0.0344488188976378
0
LINE
8
BLACK
6
CONTINUOUS
10
-0.6417322834645669
20
-0.0344488188976378
11
-0.6413556299212598
21
-0.0345237401574803
0
LINE
8
BLACK
6
CONTINUOUS
10
-0.7667322834645669
20
-0.0364173228346457
11
-0.7667322834645669
21
-0.1446850393700787
0
LINE
8
BLACK
6
CONTINUOUS
10
-0.7667322834645669
20
-0.1446850393700787
11
-0.6427165354330708
21
-0.1446850393700787
0
LINE
8
BLACK
6
CONTINUOUS
10
-0.6427165354330708
20
-0.1446850393700787
11
-0.6427165354330708
21
-0.0364173228346457
0
LINE
8
BLACK
6
CONTINUOUS
10
-0.6427165354330708
20
-0.0364173228346457
11
-0.7667322834645669
21
-0.0364173228346457
0
LINE
8
BLACK
6
CONTINUOUS
10
1.3822664173228345
20
-0.0325552362204724
11
1.3827990944881889
21
-0.0330879133858268
0
LINE
8
BLACK
6
CONTINUOUS
10
1.3827990944881889
20
-0.0330879133858268
11
1.3828740157480315
21
-0.0334645669291339
0
LINE
8
BLACK
6
CONTINUOUS
10
1.3828740157480315
20
-0.0334645669291339
11
1.3828740157480315
21
-0.1318897637795275
0
LINE
8
BLACK
6
CONTINUOUS
10
1.3828740157480315
20
-0.1318897637795275
11
1.3827990944881889
21
-0.1322664173228346
0
LINE
8
BLACK
6
CONTINUOUS
10
1.3827990944881889
20
-0.1322664173228346
11
1.3822664173228345
21
-0.132799094488189
0
LINE
8
BLACK
6
CONTINUOUS
10
1.3822664173228345
20
-0.132799094488189
11
1.3818897637795275
21
-0.1328740157480315
0
LINE
8
BLACK
6
CONTINUOUS
10
1.3818897637795275
20
-0.1328740157480315
11
1.326771653543307
21
-0.1328740157480315
0
LINE
8
BLACK
6
CONTINUOUS
10
1.326771653543307
20
-0.1328740157480315
11
1.326395
21
-0.132799094488189
0
LINE
8
BLACK
6
CONTINUOUS
10
1.326395
20
-0.132799094488189
11
1.3258623228346456
21
-0.1322664173228346
0
LINE
8
BLACK
6
CONTINUOUS
10
1.3258623228346456
20
-0.1322664173228346
11
1.325787401574803
21
-0.1318897637795275
0
LINE
8
BLACK
6
CONTINUOUS
10
1.325787401574803
20
-0.1318897637795275
11
1.325787401574803
21
-0.0334645669291339
0
LINE
8
BLACK
6
CONTINUOUS
10
1.325787401574803
20
-0.0334645669291339
11
1.3258623228346456
21
-0.0330879133858268
0
LINE
8
BLACK
6
CONTINUOUS
10
1.3258623228346456
20
-0.0330879133858268
11
1.326395
21
-0.0325552362204724
0
LINE
8
BLACK
6
CONTINUOUS
10
1.326395
20
-0.0325552362204724
11
1.326771653543307
21
-0.0324803149606299
0
LINE
8
BLACK
6
CONTINUOUS
10
1.326771653543307
20
-0.0324803149606299
11
1.3818897637795275
21
-0.0324803149606299
0
LINE
8
BLACK
6
CONTINUOUS
10
1.3818897637795275
20
-0.0324803149606299
11
1.3822664173228345
21
-0.0325552362204724
0
LINE
8
BLACK
6
CONTINUOUS
10
1.3277559055118109
20
-0.0344488188976378
11
1.3277559055118109
21
-0.1309055118110236
0
LINE
8
BLACK
6
CONTINUOUS
10
1.3277559055118109
20
-0.1309055118110236
11
1.3809055118110236
21
-0.1309055118110236
0
LINE
8
BLACK
6
CONTINUOUS
10
1.3809055118110236
20
-0.1309055118110236
11
1.3809055118110236
21
-0.0344488188976378
0
LINE
8
BLACK
6
CONTINUOUS
10
1.3809055118110236
20
-0.0344488188976378
11
1.3277559055118109
21
-0.0344488188976378
0
LINE
8
BLACK
6
CONTINUOUS
10
0.5970311811023622
20
0.0847452362204724
11
0.5973505118110236
21
0.0845318897637795
0
LINE
8
BLACK
6
CONTINUOUS
10
0.5973505118110236
20
0.0845318897637795
11
0.7242956692913386
21
-0.0424132677165354
0
LINE
8
BLACK
6
CONTINUOUS
10
0.7242956692913386
20
-0.0424132677165354
11
0.7245090157480315
21
-0.0427325984251968
0
LINE
8
BLACK
6
CONTINUOUS
10
0.7245090157480315
20
-0.0427325984251968
11
0.7245090157480315
21
-0.043485905511811
0
LINE
8
BLACK
6
CONTINUOUS
10
0.7245090157480315
20
-0.043485905511811
11
0.7242956299212598
21
-0.0438052362204724
0
LINE
8
BLACK
6
CONTINUOUS
10
0.7242956299212598
20
-0.0438052362204724
11
0.6363249212598425
21
-0.1317759842519685
0
LINE
8
BLACK
6
CONTINUOUS
10
0.6363249212598425
20
-0.1317759842519685
11
0.6360055905511811
21
-0.1319893307086614
0
LINE
8
BLACK
6
CONTINUOUS
10
0.6360055905511811
20
-0.1319893307086614
11
0.635252283464567
21
-0.1319893307086614
0
LINE
8
BLACK
6
CONTINUOUS
10
0.635252283464567
20
-0.1319893307086614
11
0.6349329527559054
21
-0.1317759842519685
0
LINE
8
BLACK
6
CONTINUOUS
10
0.6349329527559054
20
-0.1317759842519685
11
0.5079877952755906
21
-0.0048308267716535
0
LINE
8
BLACK
6
CONTINUOUS
10
0.5079877952755906
20
-0.0048308267716535
11
0.5077744488188977
21
-0.0045114960629921
0
LINE
8
BLACK
6
CONTINUOUS
10
0.5077744488188977
20
-0.0045114960629921
11
0.5077744488188977
21
-0.003758188976378
0
LINE
8
BLACK
6
CONTINUOUS
10
0.5077744488188977
20
-0.003758188976378
11
0.5079877952755906
21
-0.0034388582677165
0
LINE
8
BLACK
6
CONTINUOUS
10
0.5079877952755906
20
-0.0034388582677165
11
0.5959585433070866
21
0.0845318503937008
0
LINE
8
BLACK
6
CONTINUOUS
10
0.5959585433070866
20
0.0845318503937008
11
0.5962778740157481
21
0.0847452362204724
0
LINE
8
BLACK
6
CONTINUOUS
10
0.5962778740157481
20
0.0847452362204724
11
0.5970311811023622
21
0.0847452362204724
0
LINE
8
BLACK
6
CONTINUOUS
10
0.5100757086614173
20
-0.0041348031496063
11
0.635628937007874
21
-0.129688031496063
0
LINE
8
BLACK
6
CONTINUOUS
10
0.635628937007874
20
-0.129688031496063
11
0.722207716535433
21
-0.0431092519685039
0
LINE
8
BLACK
6
CONTINUOUS
10
0.722207716535433
20
-0.0431092519685039
11
0.5966544881889764
21
0.0824439763779528
0
LINE
8
BLACK
6
CONTINUOUS
10
0.5966544881889764
20
0.0824439763779528
11
0.5100757086614173
21
-0.0041348031496063
0
LINE
8
BLACK
6
CONTINUOUS
10
0.9818727165354331
20
0.0680353149606299
11
0.9824053937007874
21
0.0675026377952756
0
LINE
8
BLACK
6
CONTINUOUS
10
0.9824053937007874
20
0.0675026377952756
11
0.9824803149606299
21
0.0671259842519685
0
LINE
8
BLACK
6
CONTINUOUS
10
0.9824803149606299
20
0.0671259842519685
11
0.9824803149606299
21
-0.0494094488188976
0
LINE
8
BLACK
6
CONTINUOUS
10
0.9824803149606299
20
-0.0494094488188976
11
0.9824053937007874
21
-0.0497861023622047
0
LINE
8
BLACK
6
CONTINUOUS
10
0.9824053937007874
20
-0.0497861023622047
11
0.9818727165354331
21
-0.0503187795275591
0
LINE
8
BLACK
6
CONTINUOUS
10
0.9818727165354331
20
-0.0503187795275591
11
0.981496062992126
21
-0.0503937007874016
0
LINE
8
BLACK
6
CONTINUOUS
10
0.981496062992126
20
-0.0503937007874016
11
0.924015748031496
21
-0.0503937007874016
0
LINE
8
BLACK
6
CONTINUOUS
10
0.924015748031496
20
-0.0503937007874016
11
0.9236390944881889
21
-0.0503187795275591
0
LINE
8
BLACK
6
CONTINUOUS
10
0.9236390944881889
20
-0.0503187795275591
11
0.9234251968503937
21
-0.0501048818897638
0
LINE
8
BLACK
6
CONTINUOUS
10
0.9234251968503937
20
-0.0501048818897638
11
0.9234251968503937
21
-0.1124015748031496
0
LINE
8
BLACK
6
CONTINUOUS
10
0.9234251968503937
20
-0.1124015748031496
11
0.9233502755905512
21
-0.1127782283464567
0
LINE
8
BLACK
6
CONTINUOUS
10
0.9233502755905512
20
-0.1127782283464567
11
0.9228175984251968
21
-0.113310905511811
0
LINE
8
BLACK
6
CONTINUOUS
10
0.9228175984251968
20
-0.113310905511811
11
0.9224409448818898
21
-0.1133858267716535
0
LINE
8
BLACK
6
CONTINUOUS
10
0.9224409448818898
20
-0.1133858267716535
11
0.8649606299212598
21
-0.1133858267716535
0
LINE
8
BLACK
6
CONTINUOUS
10
0.8649606299212598
20
-0.1133858267716535
11
0.8645839763779527
21
-0.113310905511811
0
LINE
8
BLACK
6
CONTINUOUS
10
0.8645839763779527
20
-0.113310905511811
11
0.8640512992125984
21
-0.1127782283464567
0
LINE
8
BLACK
6
CONTINUOUS
10
0.8640512992125984
20
-0.1127782283464567
11
0.8639763779527558
21
-0.1124015748031496
0
LINE
8
BLACK
6
CONTINUOUS
10
0.8639763779527558
20
-0.1124015748031496
11
0.8639763779527558
21
0.0041338582677165
0
LINE
8
BLACK
6
CONTINUOUS
10
0.8639763779527558
20
0.0041338582677165
11
0.8640512992125984
21
0.0045105118110236
0
LINE
8
BLACK
6
CONTINUOUS
10
0.8640512992125984
20
0.0045105118110236
11
0.8645839763779527
21
0.005043188976378
0
LINE
8
BLACK
6
CONTINUOUS
10
0.8645839763779527
20
0.005043188976378
11
0.8649606299212598
21
0.0051181102362205
0
LINE
8
BLACK
6
CONTINUOUS
10
0.8649606299212598
20
0.0051181102362205
11
0.9224409448818898
21
0.0051181102362205
0
LINE
8
BLACK
6
CONTINUOUS
10
0.9224409448818898
20
0.0051181102362205
11
0.9228175984251968
21
0.005043188976378
0
LINE
8
BLACK
6
CONTINUOUS
10
0.9228175984251968
20
0.005043188976378
11
0.9230314960629921
21
0.0048292913385827
0
LINE
8
BLACK
6
CONTINUOUS
10
0.9230314960629921
20
0.0048292913385827
11
0.9230314960629921
21
0.0671259842519685
0
LINE
8
BLACK
6
CONTINUOUS
10
0.9230314960629921
20
0.0671259842519685
11
0.9231064173228346
21
0.0675026377952756
0
LINE
8
BLACK
6
CONTINUOUS
10
0.9231064173228346
20
0.0675026377952756
11
0.9236390944881889
21
0.0680353149606299
0
LINE
8
BLACK
6
CONTINUOUS
10
0.9236390944881889
20
0.0680353149606299
11
0.924015748031496
21
0.0681102362204724
0
LINE
8
BLACK
6
CONTINUOUS
10
0.924015748031496
20
0.0681102362204724
11
0.981496062992126
21
0.0681102362204724
0
LINE
8
BLACK
6
CONTINUOUS
10
0.981496062992126
20
0.0681102362204724
11
0.9818727165354331
21
0.0680353149606299
0
LINE
8
BLACK
6
CONTINUOUS
10
0.8659448818897637
20
0.0031496062992126
11
0.8659448818897637
21
-0.1114173228346457
0
LINE
8
BLACK
6
CONTINUOUS
10
0.8659448818897637
20
-0.1114173228346457
11
0.9214566929133858
21
-0.1114173228346457
0
LINE
8
BLACK
6
CONTINUOUS
10
0.9214566929133858
20
-0.1114173228346457
11
0.9214566929133858
21
0.0031496062992126
0
LINE
8
BLACK
6
CONTINUOUS
10
0.9214566929133858
20
0.0031496062992126
11
0.8659448818897637
21
0.0031496062992126
0
LINE
8
BLACK
6
CONTINUOUS
10
0.9249999999999999
20
0.0661417322834646
11
0.9249999999999999
21
-0.0484251968503937
0
LINE
8
BLACK
6
CONTINUOUS
10
0.9249999999999999
20
-0.0484251968503937
11
0.9805118110236221
21
-0.0484251968503937
0
LINE
8
BLACK
6
CONTINUOUS
10
0.9805118110236221
20
-0.0484251968503937
11
0.9805118110236221
21
0.0661417322834646
0
LINE
8
BLACK
6
CONTINUOUS
10
0.9805118110236221
20
0.0661417322834646
11
0.9249999999999999
21
0.0661417322834646
0
LINE
8
BLACK
6
CONTINUOUS
10
1.3214396456692914
20
-0.0294056299212598
11
1.3219723228346456
21
-0.0299383070866142
0
LINE
8
BLACK
6
CONTINUOUS
10
1.3219723228346456
20
-0.0299383070866142
11
1.3220472440944881
21
-0.0303149606299213
0
LINE
8
BLACK
6
CONTINUOUS
10
1.3220472440944881
20
-0.0303149606299213
11
1.3220472440944881
21
-0.0877952755905512
0
LINE
8
BLACK
6
CONTINUOUS
10
1.3220472440944881
20
-0.0877952755905512
11
1.3219723228346456
21
-0.0881719291338583
0
LINE
8
BLACK
6
CONTINUOUS
10
1.3219723228346456
20
-0.0881719291338583
11
1.3214396456692914
21
-0.0887046062992126
0
LINE
8
BLACK
6
CONTINUOUS
10
1.3214396456692914
20
-0.0887046062992126
11
1.3210629921259842
21
-0.0887795275590551
0
LINE
8
BLACK
6
CONTINUOUS
10
1.3210629921259842
20
-0.0887795275590551
11
1.2045275590551181
21
-0.0887795275590551
0
LINE
8
BLACK
6
CONTINUOUS
10
1.2045275590551181
20
-0.0887795275590551
11
1.2041509055118109
21
-0.0887046062992126
0
LINE
8
BLACK
6
CONTINUOUS
10
1.2041509055118109
20
-0.0887046062992126
11
1.2036182283464567
21
-0.0881719291338583
0
LINE
8
BLACK
6
CONTINUOUS
10
1.2036182283464567
20
-0.0881719291338583
11
1.2035433070866142
21
-0.0877952755905512
0
LINE
8
BLACK
6
CONTINUOUS
10
1.2035433070866142
20
-0.0877952755905512
11
1.2035433070866142
21
-0.0303149606299213
0
LINE
8
BLACK
6
CONTINUOUS
10
1.2035433070866142
20
-0.0303149606299213
11
1.2036182283464567
21
-0.0299383070866142
0
LINE
8
BLACK
6
CONTINUOUS
10
1.2036182283464567
20
-0.0299383070866142
11
1.2041509055118109
21
-0.0294056299212598
0
LINE
8
BLACK
6
CONTINUOUS
10
1.2041509055118109
20
-0.0294056299212598
11
1.2045275590551181
21
-0.0293307086614173
0
LINE
8
BLACK
6
CONTINUOUS
10
1.2045275590551181
20
-0.0293307086614173
11
1.3210629921259842
21
-0.0293307086614173
0
LINE
8
BLACK
6
CONTINUOUS
10
1.3210629921259842
20
-0.0293307086614173
11
1.3214396456692914
21
-0.0294056299212598
0
LINE
8
BLACK
6
CONTINUOUS
10
1.205511811023622
20
-0.0312992125984252
11
1.205511811023622
21
-0.0868110236220472
0
LINE
8
BLACK
6
CONTINUOUS
10
1.205511811023622
20
-0.0868110236220472
11
1.3200787401574803
21
-0.0868110236220472
0
LINE
8
BLACK
6
CONTINUOUS
10
1.3200787401574803
20
-0.0868110236220472
11
1.3200787401574803
21
-0.0312992125984252
0
LINE
8
BLACK
6
CONTINUOUS
10
1.3200787401574803
20
-0.0312992125984252
11
1.205511811023622
21
-0.0312992125984252
0
LINE
8
BLACK
6
CONTINUOUS
10
-1.1598595669291338
20
-0.0215316141732283
11
-1.1593268897637794
21
-0.0220642913385827
0
LINE
8
BLACK
6
CONTINUOUS
10
-1.1593268897637794
20
-0.0220642913385827
11
-1.1592519685039371
21
-0.0224409448818898
0
LINE
8
BLACK
6
CONTINUOUS
10
-1.1592519685039371
20
-0.0224409448818898
11
-1.1592519685039371
21
-0.0799212598425197
0
LINE
8
BLACK
6
CONTINUOUS
10
-1.1592519685039371
20
-0.0799212598425197
11
-1.1593268897637794
21
-0.0802979133858268
0
LINE
8
BLACK
6
CONTINUOUS
10
-1.1593268897637794
20
-0.0802979133858268
11
-1.1598595669291338
21
-0.0808305905511811
0
LINE
8
BLACK
6
CONTINUOUS
10
-1.1598595669291338
20
-0.0808305905511811
11
-1.160236220472441
21
-0.0809055118110236
0
LINE
8
BLACK
6
CONTINUOUS
10
-1.160236220472441
20
-0.0809055118110236
11
-1.2767716535433071
21
-0.0809055118110236
0
LINE
8
BLACK
6
CONTINUOUS
10
-1.2767716535433071
20
-0.0809055118110236
11
-1.2771483070866141
21
-0.0808305905511811
0
LINE
8
BLACK
6
CONTINUOUS
10
-1.2771483070866141
20
-0.0808305905511811
11
-1.2776809842519685
21
-0.0802979133858268
0
LINE
8
BLACK
6
CONTINUOUS
10
-1.2776809842519685
20
-0.0802979133858268
11
-1.2777559055118111
21
-0.0799212598425197
0
LINE
8
BLACK
6
CONTINUOUS
10
-1.2777559055118111
20
-0.0799212598425197
11
-1.2777559055118111
21
-0.0224409448818898
0
LINE
8
BLACK
6
CONTINUOUS
10
-1.2777559055118111
20
-0.0224409448818898
11
-1.2776809842519685
21
-0.0220642913385827
0
LINE
8
BLACK
6
CONTINUOUS
10
-1.2776809842519685
20
-0.0220642913385827
11
-1.2771483070866141
21
-0.0215316141732283
0
LINE
8
BLACK
6
CONTINUOUS
10
-1.2771483070866141
20
-0.0215316141732283
11
-1.2767716535433071
21
-0.0214566929133858
0
LINE
8
BLACK
6
CONTINUOUS
10
-1.2767716535433071
20
-0.0214566929133858
11
-1.160236220472441
21
-0.0214566929133858
0
LINE
8
BLACK
6
CONTINUOUS
10
-1.160236220472441
20
-0.0214566929133858
11
-1.1598595669291338
21
-0.0215316141732283
0
LINE
8
BLACK
6
CONTINUOUS
10
-1.2757874015748032
20
-0.0234251968503937
11
-1.2757874015748032
21
-0.0789370078740158
0
LINE
8
BLACK
6
CONTINUOUS
10
-1.2757874015748032
20
-0.0789370078740158
11
-1.161220472440945
21
-0.0789370078740158
0
LINE
8
BLACK
6
CONTINUOUS
10
-1.161220472440945
20
-0.0789370078740158
11
-1.161220472440945
21
-0.0234251968503937
0
LINE
8
BLACK
6
CONTINUOUS
10
-1.161220472440945
20
-0.0234251968503937
11
-1.2757874015748032
21
-0.0234251968503937
0
LINE
8
BLACK
6
CONTINUOUS
10
0.5114132677165354
20
0.0860552362204724
11
0.5117325984251968
21
0.0858418897637795
0
LINE
8
BLACK
6
CONTINUOUS
10
0.5117325984251968
20
0.0858418897637795
11
0.5523773228346457
21
0.0451971653543307
0
LINE
8
BLACK
6
CONTINUOUS
10
0.5523773228346457
20
0.0451971653543307
11
0.5525906692913386
21
0.0448778346456693
0
LINE
8
BLACK
6
CONTINUOUS
10
0.5525906692913386
20
0.0448778346456693
11
0.5525906692913386
21
0.0441245275590551
0
LINE
8
BLACK
6
CONTINUOUS
10
0.5525906692913386
20
0.0441245275590551
11
0.5523773228346457
21
0.0438051968503937
0
LINE
8
BLACK
6
CONTINUOUS
10
0.5523773228346457
20
0.0438051968503937
11
0.4699743307086614
21
-0.0385977952755905
0
LINE
8
BLACK
6
CONTINUOUS
10
0.4699743307086614
20
-0.0385977952755905
11
0.469655
21
-0.0388111417322835
0
LINE
8
BLACK
6
CONTINUOUS
10
0.469655
20
-0.0388111417322835
11
0.4689016929133858
21
-0.0388111417322835
0
LINE
8
BLACK
6
CONTINUOUS
10
0.4689016929133858
20
-0.0388111417322835
11
0.4685823622047244
21
-0.0385977952755905
0
LINE
8
BLACK
6
CONTINUOUS
10
0.4685823622047244
20
-0.0385977952755905
11
0.4279376377952756
21
0.0020469291338583
0
LINE
8
BLACK
6
CONTINUOUS
10
0.4279376377952756
20
0.0020469291338583
11
0.4277242913385826
21
0.0023662598425197
0
LINE
8
BLACK
6
CONTINUOUS
10
0.4277242913385826
20
0.0023662598425197
11
0.4277242913385826
21
0.0031195669291339
0
LINE
8
BLACK
6
CONTINUOUS
10
0.4277242913385826
20
0.0031195669291339
11
0.4279376377952756
21
0.0034388976377953
0
LINE
8
BLACK
6
CONTINUOUS
10
0.4279376377952756
20
0.0034388976377953
11
0.5103406299212598
21
0.0858418897637795
0
LINE
8
BLACK
6
CONTINUOUS
10
0.5103406299212598
20
0.0858418897637795
11
0.5106599606299213
21
0.0860552362204724
0
LINE
8
BLACK
6
CONTINUOUS
10
0.5106599606299213
20
0.0860552362204724
11
0.5114132677165354
21
0.0860552362204724
0
LINE
8
BLACK
6
CONTINUOUS
10
0.4300255905511811
20
0.0027429133858268
11
0.4692783464566929
21
-0.036509842519685
0
LINE
8
BLACK
6
CONTINUOUS
10
0.4692783464566929
20
-0.036509842519685
11
0.5502893700787401
21
0.0445011811023622
0
LINE
8
BLACK
6
CONTINUOUS
10
0.5502893700787401
20
0.0445011811023622
11
0.5110366141732283
21
0.083753937007874
0
LINE
8
BLACK
6
CONTINUOUS
10
0.5110366141732283
20
0.083753937007874
11
0.4300255905511811
21
0.0027429133858268
0
LINE
8
BLACK
6
CONTINUOUS
10
1.4629750787401574
20
0.1544526377952756
11
1.4635077559055119
21
0.1539199606299212
0
LINE
8
BLACK
6
CONTINUOUS
10
1.4635077559055119
20
0.1539199606299212
11
1.4635826771653544
21
0.1535433070866142
0
LINE
8
BLACK
6
CONTINUOUS
10
1.4635826771653544
20
0.1535433070866142
11
1.4635826771653544
21
0.0236220472440945
0
LINE
8
BLACK
6
CONTINUOUS
10
1.4635826771653544
20
0.0236220472440945
11
1.4635077559055119
21
0.0232453937007874
0
LINE
8
BLACK
6
CONTINUOUS
10
1.4635077559055119
20
0.0232453937007874
11
1.4629750787401574
21
0.0227127165354331
0
LINE
8
BLACK
6
CONTINUOUS
10
1.4629750787401574
20
0.0227127165354331
11
1.4625984251968505
21
0.0226377952755905
0
LINE
8
BLACK
6
CONTINUOUS
10
1.4625984251968505
20
0.0226377952755905
11
1.4431102362204724
21
0.0226377952755905
0
LINE
8
BLACK
6
CONTINUOUS
10
1.4431102362204724
20
0.0226377952755905
11
1.4431102362204724
21
-0.028740157480315
0
LINE
8
BLACK
6
CONTINUOUS
10
1.4431102362204724
20
-0.028740157480315
11
1.4430353149606299
21
-0.029116811023622
0
LINE
8
BLACK
6
CONTINUOUS
10
1.4430353149606299
20
-0.029116811023622
11
1.4425026377952757
21
-0.0296494881889764
0
LINE
8
BLACK
6
CONTINUOUS
10
1.4425026377952757
20
-0.0296494881889764
11
1.4421259842519685
21
-0.0297244094488189
0
LINE
8
BLACK
6
CONTINUOUS
10
1.4421259842519685
20
-0.0297244094488189
11
1.3255905511811024
21
-0.0297244094488189
0
LINE
8
BLACK
6
CONTINUOUS
10
1.3255905511811024
20
-0.0297244094488189
11
1.3252138976377952
21
-0.0296494881889764
0
LINE
8
BLACK
6
CONTINUOUS
10
1.3252138976377952
20
-0.0296494881889764
11
1.324681220472441
21
-0.029116811023622
0
LINE
8
BLACK
6
CONTINUOUS
10
1.324681220472441
20
-0.029116811023622
11
1.3246062992125984
21
-0.028740157480315
0
LINE
8
BLACK
6
CONTINUOUS
10
1.3246062992125984
20
-0.028740157480315
11
1.3246062992125984
21
0.028740157480315
0
LINE
8
BLACK
6
CONTINUOUS
10
1.3246062992125984
20
0.028740157480315
11
1.324681220472441
21
0.029116811023622
0
LINE
8
BLACK
6
CONTINUOUS
10
1.324681220472441
20
0.029116811023622
11
1.3252138976377952
21
0.0296494881889764
0
LINE
8
BLACK
6
CONTINUOUS
10
1.3252138976377952
20
0.0296494881889764
11
1.3255905511811024
21
0.0297244094488189
0
LINE
8
BLACK
6
CONTINUOUS
10
1.3255905511811024
20
0.0297244094488189
11
1.3631889763779528
21
0.0297244094488189
0
LINE
8
BLACK
6
CONTINUOUS
10
1.3631889763779528
20
0.0297244094488189
11
1.3631889763779528
21
0.1535433070866142
0
LINE
8
BLACK
6
CONTINUOUS
10
1.3631889763779528
20
0.1535433070866142
11
1.3632638976377953
21
0.1539199606299212
0
LINE
8
BLACK
6
CONTINUOUS
10
1.3632638976377953
20
0.1539199606299212
11
1.3637965748031495
21
0.1544526377952756
0
LINE
8
BLACK
6
CONTINUOUS
10
1.3637965748031495
20
0.1544526377952756
11
1.3641732283464567
21
0.1545275590551181
0
LINE
8
BLACK
6
CONTINUOUS
10
1.3641732283464567
20
0.1545275590551181
11
1.4625984251968505
21
0.1545275590551181
0
LINE
8
BLACK
6
CONTINUOUS
10
1.4625984251968505
20
0.1545275590551181
11
1.4629750787401574
21
0.1544526377952756
0
LINE
8
BLACK
6
CONTINUOUS
10
1.3265748031496063
20
0.027755905511811
11
1.3265748031496063
21
-0.027755905511811
0
LINE
8
BLACK
6
CONTINUOUS
10
1.3265748031496063
20
-0.027755905511811
11
1.4411417322834645
21
-0.027755905511811
0
LINE
8
BLACK
6
CONTINUOUS
10
1.4411417322834645
20
-0.027755905511811
11
1.4411417322834645
21
0.0226377952755905
0
LINE
8
BLACK
6
CONTINUOUS
10
1.4411417322834645
20
0.0226377952755905
11
1.3641732283464567
21
0.0226377952755905
0
LINE
8
BLACK
6
CONTINUOUS
10
1.3641732283464567
20
0.0226377952755905
11
1.3637965748031495
21
0.0227127165354331
0
LINE
8
BLACK
6
CONTINUOUS
10
1.3637965748031495
20
0.0227127165354331
11
1.3632638976377953
21
0.0232453937007874
0
LINE
8
BLACK
6
CONTINUOUS
10
1.3632638976377953
20
0.0232453937007874
11
1.3631889763779528
21
0.0236220472440945
0
LINE
8
BLACK
6
CONTINUOUS
10
1.3631889763779528
20
0.0236220472440945
11
1.3631889763779528
21
0.027755905511811
0
LINE
8
BLACK
6
CONTINUOUS
10
1.3631889763779528
20
0.027755905511811
11
1.3265748031496063
21
0.027755905511811
0
LINE
8
BLACK
6
CONTINUOUS
10
1.3651574803149606
20
0.027755905511811
11
1.3651574803149606
21
0.0246062992125984
0
LINE
8
BLACK
6
CONTINUOUS
10
1.3651574803149606
20
0.0246062992125984
11
1.4411417322834645
21
0.0246062992125984
0
LINE
8
BLACK
6
CONTINUOUS
10
1.4411417322834645
20
0.0246062992125984
11
1.4411417322834645
21
0.027755905511811
0
LINE
8
BLACK
6
CONTINUOUS
10
1.4411417322834645
20
0.027755905511811
11
1.3651574803149606
21
0.027755905511811
0
LINE
8
BLACK
6
CONTINUOUS
10
1.3651574803149606
20
0.1525590551181102
11
1.3651574803149606
21
0.0297244094488189
0
LINE
8
BLACK
6
CONTINUOUS
10
1.3651574803149606
20
0.0297244094488189
11
1.4421259842519685
21
0.0297244094488189
0
LINE
8
BLACK
6
CONTINUOUS
10
1.4421259842519685
20
0.0297244094488189
11
1.4425026377952757
21
0.0296494881889764
0
LINE
8
BLACK
6
CONTINUOUS
10
1.4425026377952757
20
0.0296494881889764
11
1.4430353149606299
21
0.029116811023622
0
LINE
8
BLACK
6
CONTINUOUS
10
1.4430353149606299
20
0.029116811023622
11
1.4431102362204724
21
0.028740157480315
0
LINE
8
BLACK
6
CONTINUOUS
10
1.4431102362204724
20
0.028740157480315
11
1.4431102362204724
21
0.0246062992125984
0
LINE
8
BLACK
6
CONTINUOUS
10
1.4431102362204724
20
0.0246062992125984
11
1.4616141732283465
21
0.0246062992125984
0
LINE
8
BLACK
6
CONTINUOUS
10
1.4616141732283465
20
0.0246062992125984
11
1.4616141732283465
21
0.1525590551181102
0
LINE
8
BLACK
6
CONTINUOUS
10
1.4616141732283465
20
0.1525590551181102
11
1.3651574803149606
21
0.1525590551181102
0
LINE
8
BLACK
6
CONTINUOUS
10
-0.6413556299212598
20
0.0835864960629921
11
-0.6408229527559055
21
0.0830538188976378
0
LINE
8
BLACK
6
CONTINUOUS
10
-0.6408229527559055
20
0.0830538188976378
11
-0.640748031496063
21
0.0826771653543307
0
LINE
8
BLACK
6
CONTINUOUS
10
-0.640748031496063
20
0.0826771653543307
11
-0.640748031496063
21
-0.0275590551181102
0
LINE
8
BLACK
6
CONTINUOUS
10
-0.640748031496063
20
-0.0275590551181102
11
-0.6408229527559055
21
-0.0279357086614173
0
LINE
8
BLACK
6
CONTINUOUS
10
-0.6408229527559055
20
-0.0279357086614173
11
-0.6413556299212598
21
-0.0284683858267717
0
LINE
8
BLACK
6
CONTINUOUS
10
-0.6413556299212598
20
-0.0284683858267717
11
-0.6417322834645669
21
-0.0285433070866142
0
LINE
8
BLACK
6
CONTINUOUS
10
-0.6417322834645669
20
-0.0285433070866142
11
-0.7677165354330708
21
-0.0285433070866142
0
LINE
8
BLACK
6
CONTINUOUS
10
-0.7677165354330708
20
-0.0285433070866142
11
-0.7680931889763779
21
-0.0284683858267717
0
LINE
8
BLACK
6
CONTINUOUS
10
-0.7680931889763779
20
-0.0284683858267717
11
-0.7686258661417322
21
-0.0279357086614173
0
LINE
8
BLACK
6
CONTINUOUS
10
-0.7686258661417322
20
-0.0279357086614173
11
-0.7687007874015748
21
-0.0275590551181102
0
LINE
8
BLACK
6
CONTINUOUS
10
-0.7687007874015748
20
-0.0275590551181102
11
-0.7687007874015748
21
0.0826771653543307
0
LINE
8
BLACK
6
CONTINUOUS
10
-0.7687007874015748
20
0.0826771653543307
11
-0.7686258661417322
21
0.0830538188976378
0
LINE
8
BLACK
6
CONTINUOUS
10
-0.7686258661417322
20
0.0830538188976378
11
-0.7680931889763779
21
0.0835864960629921
0
LINE
8
BLACK
6
CONTINUOUS
10
-0.7680931889763779
20
0.0835864960629921
11
-0.7677165354330708
21
0.0836614173228346
0
LINE
8
BLACK
6
CONTINUOUS
10
-0.7677165354330708
20
0.0836614173228346
11
-0.6417322834645669
21
0.0836614173228346
0
LINE
8
BLACK
6
CONTINUOUS
10
-0.6417322834645669
20
0.0836614173228346
11
-0.6413556299212598
21
0.0835864960629921
0
LINE
8
BLACK
6
CONTINUOUS
10
-0.7667322834645669
20
0.0816929133858268
11
-0.7667322834645669
21
-0.0265748031496063
0
LINE
8
BLACK
6
CONTINUOUS
10
-0.7667322834645669
20
-0.0265748031496063
11
-0.6427165354330708
21
-0.0265748031496063
0
LINE
8
BLACK
6
CONTINUOUS
10
-0.6427165354330708
20
-0.0265748031496063
11
-0.6427165354330708
21
0.0816929133858268
0
LINE
8
BLACK
6
CONTINUOUS
10
-0.6427165354330708
20
0.0816929133858268
11
-0.7667322834645669
21
0.0816929133858268
0
LINE
8
BLACK
6
CONTINUOUS
10
1.3212427952755905
20
0.1352597244094488
11
1.321775472440945
21
0.1347270472440945
0
LINE
8
BLACK
6
CONTINUOUS
10
1.321775472440945
20
0.1347270472440945
11
1.3218503937007873
21
0.1343503937007874
0
LINE
8
BLACK
6
CONTINUOUS
10
1.3218503937007873
20
0.1343503937007874
11
1.3218503937007873
21
-0.0270669291338583
0
LINE
8
BLACK
6
CONTINUOUS
10
1.3218503937007873
20
-0.0270669291338583
11
1.321775472440945
21
-0.0274435826771654
0
LINE
8
BLACK
6
CONTINUOUS
10
1.321775472440945
20
-0.0274435826771654
11
1.3212427952755905
21
-0.0279762598425197
0
LINE
8
BLACK
6
CONTINUOUS
10
1.3212427952755905
20
-0.0279762598425197
11
1.3208661417322833
21
-0.0280511811023622
0
LINE
8
BLACK
6
CONTINUOUS
10
1.3208661417322833
20
-0.0280511811023622
11
1.1870078740157479
21
-0.0280511811023622
0
LINE
8
BLACK
6
CONTINUOUS
10
1.1870078740157479
20
-0.0280511811023622
11
1.186631220472441
21
-0.0279762598425197
0
LINE
8
BLACK
6
CONTINUOUS
10
1.186631220472441
20
-0.0279762598425197
11
1.1860985433070865
21
-0.0274435826771654
0
LINE
8
BLACK
6
CONTINUOUS
10
1.1860985433070865
20
-0.0274435826771654
11
1.186023622047244
21
-0.0270669291338583
0
LINE
8
BLACK
6
CONTINUOUS
10
1.186023622047244
20
-0.0270669291338583
11
1.186023622047244
21
0.1343503937007874
0
LINE
8
BLACK
6
CONTINUOUS
10
1.186023622047244
20
0.1343503937007874
11
1.1860985433070865
21
0.1347270472440945
0
LINE
8
BLACK
6
CONTINUOUS
10
1.1860985433070865
20
0.1347270472440945
11
1.186631220472441
21
0.1352597244094488
0
LINE
8
BLACK
6
CONTINUOUS
10
1.186631220472441
20
0.1352597244094488
11
1.1870078740157479
21
0.1353346456692913
0
LINE
8
BLACK
6
CONTINUOUS
10
1.1870078740157479
20
0.1353346456692913
11
1.3208661417322833
21
0.1353346456692913
0
LINE
8
BLACK
6
CONTINUOUS
10
1.3208661417322833
20
0.1353346456692913
11
1.3212427952755905
21
0.1352597244094488
0
LINE
8
BLACK
6
CONTINUOUS
10
1.1879921259842519
20
0.1333661417322834
11
1.1879921259842519
21
-0.0260826771653543
0
LINE
8
BLACK
6
CONTINUOUS
10
1.1879921259842519
20
-0.0260826771653543
11
1.3198818897637794
21
-0.0260826771653543
0
LINE
8
BLACK
6
CONTINUOUS
10
1.3198818897637794
20
-0.0260826771653543
11
1.3198818897637794
21
0.1333661417322834
0
LINE
8
BLACK
6
CONTINUOUS
10
1.3198818897637794
20
0.1333661417322834
11
1.1879921259842519
21
0.1333661417322834
0
LINE
8
BLACK
6
CONTINUOUS
10
1.1117939763779527
20
0.0906731102362205
11
1.112326653543307
21
0.0901404330708661
0
LINE
8
BLACK
6
CONTINUOUS
10
1.112326653543307
20
0.0901404330708661
11
1.1124015748031495
21
0.0897637795275591
0
LINE
8
BLACK
6
CONTINUOUS
10
1.1124015748031495
20
0.0897637795275591
11
1.1124015748031495
21
-0.0267716535433071
0
LINE
8
BLACK
6
CONTINUOUS
10
1.1124015748031495
20
-0.0267716535433071
11
1.112326653543307
21
-0.0271483070866142
0
LINE
8
BLACK
6
CONTINUOUS
10
1.112326653543307
20
-0.0271483070866142
11
1.1117939763779527
21
-0.0276809842519685
0
LINE
8
BLACK
6
CONTINUOUS
10
1.1117939763779527
20
-0.0276809842519685
11
1.1114173228346456
21
-0.027755905511811
0
LINE
8
BLACK
6
CONTINUOUS
10
1.1114173228346456
20
-0.027755905511811
11
1.0539370078740158
21
-0.027755905511811
0
LINE
8
BLACK
6
CONTINUOUS
10
1.0539370078740158
20
-0.027755905511811
11
1.0535603543307086
21
-0.0276809842519685
0
LINE
8
BLACK
6
CONTINUOUS
10
1.0535603543307086
20
-0.0276809842519685
11
1.0530276771653544
21
-0.0271483070866142
0
LINE
8
BLACK
6
CONTINUOUS
10
1.0530276771653544
20
-0.0271483070866142
11
1.0529527559055119
21
-0.0267716535433071
0
LINE
8
BLACK
6
CONTINUOUS
10
1.0529527559055119
20
-0.0267716535433071
11
1.0529527559055119
21
0.0897637795275591
0
LINE
8
BLACK
6
CONTINUOUS
10
1.0529527559055119
20
0.0897637795275591
11
1.0530276771653544
21
0.0901404330708661
0
LINE
8
BLACK
6
CONTINUOUS
10
1.0530276771653544
20
0.0901404330708661
11
1.0535603543307086
21
0.0906731102362205
0
LINE
8
BLACK
6
CONTINUOUS
10
1.0535603543307086
20
0.0906731102362205
11
1.0539370078740158
21
0.090748031496063
0
LINE
8
BLACK
6
CONTINUOUS
10
1.0539370078740158
20
0.090748031496063
11
1.1114173228346456
21
0.090748031496063
0
LINE
8
BLACK
6
CONTINUOUS
10
1.1114173228346456
20
0.090748031496063
11
1.1117939763779527
21
0.0906731102362205
0
LINE
8
BLACK
6
CONTINUOUS
10
1.0549212598425197
20
0.0887795275590551
11
1.0549212598425197
21
-0.0257874015748031
0
LINE
8
BLACK
6
CONTINUOUS
10
1.0549212598425197
20
-0.0257874015748031
11
1.1104330708661416
21
-0.0257874015748031
0
LINE
8
BLACK
6
CONTINUOUS
10
1.1104330708661416
20
-0.0257874015748031
11
1.1104330708661416
21
0.0887795275590551
0
LINE
8
BLACK
6
CONTINUOUS
10
1.1104330708661416
20
0.0887795275590551
11
1.0549212598425197
21
0.0887795275590551
0
LINE
8
BLACK
6
CONTINUOUS
10
1.1747861023622046
20
0.0906731102362205
11
1.175318779527559
21
0.0901404330708661
0
LINE
8
BLACK
6
CONTINUOUS
10
1.175318779527559
20
0.0901404330708661
11
1.1753937007874016
21
0.0897637795275591
0
LINE
8
BLACK
6
CONTINUOUS
10
1.1753937007874016
20
0.0897637795275591
11
1.1753937007874016
21
-0.0267716535433071
0
LINE
8
BLACK
6
CONTINUOUS
10
1.1753937007874016
20
-0.0267716535433071
11
1.175318779527559
21
-0.0271483070866142
0
LINE
8
BLACK
6
CONTINUOUS
10
1.175318779527559
20
-0.0271483070866142
11
1.1747861023622046
21
-0.0276809842519685
0
LINE
8
BLACK
6
CONTINUOUS
10
1.1747861023622046
20
-0.0276809842519685
11
1.1744094488188976
21
-0.027755905511811
0
LINE
8
BLACK
6
CONTINUOUS
10
1.1744094488188976
20
-0.027755905511811
11
1.1169291338582676
21
-0.027755905511811
0
LINE
8
BLACK
6
CONTINUOUS
10
1.1169291338582676
20
-0.027755905511811
11
1.1165524803149607
21
-0.0276809842519685
0
LINE
8
BLACK
6
CONTINUOUS
10
1.1165524803149607
20
-0.0276809842519685
11
1.1160198031496062
21
-0.0271483070866142
0
LINE
8
BLACK
6
CONTINUOUS
10
1.1160198031496062
20
-0.0271483070866142
11
1.1159448818897637
21
-0.0267716535433071
0
LINE
8
BLACK
6
CONTINUOUS
10
1.1159448818897637
20
-0.0267716535433071
11
1.1159448818897637
21
0.0897637795275591
0
LINE
8
BLACK
6
CONTINUOUS
10
1.1159448818897637
20
0.0897637795275591
11
1.1160198031496062
21
0.0901404330708661
0
LINE
8
BLACK
6
CONTINUOUS
10
1.1160198031496062
20
0.0901404330708661
11
1.1165524803149607
21
0.0906731102362205
0
LINE
8
BLACK
6
CONTINUOUS
10
1.1165524803149607
20
0.0906731102362205
11
1.1169291338582676
21
0.090748031496063
0
LINE
8
BLACK
6
CONTINUOUS
10
1.1169291338582676
20
0.090748031496063
11
1.1744094488188976
21
0.090748031496063
0
LINE
8
BLACK
6
CONTINUOUS
10
1.1744094488188976
20
0.090748031496063
11
1.1747861023622046
21
0.0906731102362205
0
LINE
8
BLACK
6
CONTINUOUS
10
1.1179133858267716
20
0.0887795275590551
11
1.1179133858267716
21
-0.0257874015748031
0
LINE
8
BLACK
6
CONTINUOUS
10
1.1179133858267716
20
-0.0257874015748031
11
1.1734251968503937
21
-0.0257874015748031
0
LINE
8
BLACK
6
CONTINUOUS
10
1.1734251968503937
20
-0.0257874015748031
11
1.1734251968503937
21
0.0887795275590551
0
LINE
8
BLACK
6
CONTINUOUS
10
1.1734251968503937
20
0.0887795275590551
11
1.1179133858267716
21
0.0887795275590551
0
LINE
8
BLACK
6
CONTINUOUS
10
-1.1598595669291338
20
0.0493345275590551
11
-1.1593268897637794
21
0.0488018503937008
0
LINE
8
BLACK
6
CONTINUOUS
10
-1.1593268897637794
20
0.0488018503937008
11
-1.1592519685039371
21
0.0484251968503937
0
LINE
8
BLACK
6
CONTINUOUS
10
-1.1592519685039371
20
0.0484251968503937
11
-1.1592519685039371
21
-0.0090551181102362
0
LINE
8
BLACK
6
CONTINUOUS
10
-1.1592519685039371
20
-0.0090551181102362
11
-1.1593268897637794
21
-0.0094317716535433
0
LINE
8
BLACK
6
CONTINUOUS
10
-1.1593268897637794
20
-0.0094317716535433
11
-1.1598595669291338
21
-0.0099644488188976
0
LINE
8
BLACK
6
CONTINUOUS
10
-1.1598595669291338
20
-0.0099644488188976
11
-1.160236220472441
21
-0.0100393700787402
0
LINE
8
BLACK
6
CONTINUOUS
10
-1.160236220472441
20
-0.0100393700787402
11
-1.2767716535433071
21
-0.0100393700787402
0
LINE
8
BLACK
6
CONTINUOUS
10
-1.2767716535433071
20
-0.0100393700787402
11
-1.2771483070866141
21
-0.0099644488188976
0
LINE
8
BLACK
6
CONTINUOUS
10
-1.2771483070866141
20
-0.0099644488188976
11
-1.2776809842519685
21
-0.0094317716535433
0
LINE
8
BLACK
6
CONTINUOUS
10
-1.2776809842519685
20
-0.0094317716535433
11
-1.2777559055118111
21
-0.0090551181102362
0
LINE
8
BLACK
6
CONTINUOUS
10
-1.2777559055118111
20
-0.0090551181102362
11
-1.2777559055118111
21
0.0484251968503937
0
LINE
8
BLACK
6
CONTINUOUS
10
-1.2777559055118111
20
0.0484251968503937
11
-1.2776809842519685
21
0.0488018503937008
0
LINE
8
BLACK
6
CONTINUOUS
10
-1.2776809842519685
20
0.0488018503937008
11
-1.2771483070866141
21
0.0493345275590551
0
LINE
8
BLACK
6
CONTINUOUS
10
-1.2771483070866141
20
0.0493345275590551
11
-1.2767716535433071
21
0.0494094488188976
0
LINE
8
BLACK
6
CONTINUOUS
10
-1.2767716535433071
20
0.0494094488188976
11
-1.160236220472441
21
0.0494094488188976
0
LINE
8
BLACK
6
CONTINUOUS
10
-1.160236220472441
20
0.0494094488188976
11
-1.1598595669291338
21
0.0493345275590551
0
LINE
8
BLACK
6
CONTINUOUS
10
-1.2757874015748032
20
0.0474409448818898
11
-1.2757874015748032
21
-0.0080708661417323
0
LINE
8
BLACK
6
CONTINUOUS
10
-1.2757874015748032
20
-0.0080708661417323
11
-1.161220472440945
21
-0.0080708661417323
0
LINE
8
BLACK
6
CONTINUOUS
10
-1.161220472440945
20
-0.0080708661417323
11
-1.161220472440945
21
0.0474409448818898
0
LINE
8
BLACK
6
CONTINUOUS
10
-1.161220472440945
20
0.0474409448818898
11
-1.2757874015748032
21
0.0474409448818898
0
LINE
8
BLACK
6
CONTINUOUS
10
0.5980274409448819
20
0.1726694094488189
11
0.5983467716535433
21
0.172456062992126
0
LINE
8
BLACK
6
CONTINUOUS
10
0.5983467716535433
20
0.172456062992126
11
0.6389914960629921
21
0.1318113385826772
0
LINE
8
BLACK
6
CONTINUOUS
10
0.6389914960629921
20
0.1318113385826772
11
0.639204842519685
21
0.1314920078740157
0
LINE
8
BLACK
6
CONTINUOUS
10
0.639204842519685
20
0.1314920078740157
11
0.639204842519685
21
0.1307387007874016
0
LINE
8
BLACK
6
CONTINUOUS
10
0.639204842519685
20
0.1307387007874016
11
0.6389914960629921
21
0.1304193700787402
0
LINE
8
BLACK
6
CONTINUOUS
10
0.6389914960629921
20
0.1304193700787402
11
0.5565885039370079
21
0.0480163779527559
0
LINE
8
BLACK
6
CONTINUOUS
10
0.5565885039370079
20
0.0480163779527559
11
0.5562691732283465
21
0.047803031496063
0
LINE
8
BLACK
6
CONTINUOUS
10
0.5562691732283465
20
0.047803031496063
11
0.5555158661417323
21
0.047803031496063
0
LINE
8
BLACK
6
CONTINUOUS
10
0.5555158661417323
20
0.047803031496063
11
0.5551965354330709
21
0.0480163779527559
0
LINE
8
BLACK
6
CONTINUOUS
10
0.5551965354330709
20
0.0480163779527559
11
0.514551811023622
21
0.0886611023622047
0
LINE
8
BLACK
6
CONTINUOUS
10
0.514551811023622
20
0.0886611023622047
11
0.5143384645669291
21
0.0889804330708661
0
LINE
8
BLACK
6
CONTINUOUS
10
0.5143384645669291
20
0.0889804330708661
11
0.5143384645669291
21
0.0897337401574803
0
LINE
8
BLACK
6
CONTINUOUS
10
0.5143384645669291
20
0.0897337401574803
11
0.514551811023622
21
0.0900530708661417
0
LINE
8
BLACK
6
CONTINUOUS
10
0.514551811023622
20
0.0900530708661417
11
0.5969548031496063
21
0.172456062992126
0
LINE
8
BLACK
6
CONTINUOUS
10
0.5969548031496063
20
0.172456062992126
11
0.5972741338582677
21
0.1726694094488189
0
LINE
8
BLACK
6
CONTINUOUS
10
0.5972741338582677
20
0.1726694094488189
11
0.5980274409448819
21
0.1726694094488189
0
LINE
8
BLACK
6
CONTINUOUS
10
0.5166397637795276
20
0.0893570866141732
11
0.5558925196850394
21
0.0501043307086614
0
LINE
8
BLACK
6
CONTINUOUS
10
0.5558925196850394
20
0.0501043307086614
11
0.6369035433070867
21
0.1311153543307087
0
LINE
8
BLACK
6
CONTINUOUS
10
0.6369035433070867
20
0.1311153543307087
11
0.5976507874015747
21
0.1703681102362205
0
LINE
8
BLACK
6
CONTINUOUS
10
0.5976507874015747
20
0.1703681102362205
11
0.5166397637795276
21
0.0893570866141732
0
LINE
8
BLACK
6
CONTINUOUS
10
0.9964396456692913
20
0.3257124803149606
11
0.9969723228346457
21
0.3251798031496063
0
LINE
8
BLACK
6
CONTINUOUS
10
0.9969723228346457
20
0.3251798031496063
11
0.9970472440944882
21
0.3248031496062992
0
LINE
8
BLACK
6
CONTINUOUS
10
0.9970472440944882
20
0.3248031496062992
11
0.9970472440944882
21
0.0728346456692913
0
LINE
8
BLACK
6
CONTINUOUS
10
0.9970472440944882
20
0.0728346456692913
11
0.9969723228346457
21
0.0724579921259842
0
LINE
8
BLACK
6
CONTINUOUS
10
0.9969723228346457
20
0.0724579921259842
11
0.9964396456692913
21
0.0719253149606299
0
LINE
8
BLACK
6
CONTINUOUS
10
0.9964396456692913
20
0.0719253149606299
11
0.9960629921259843
21
0.0718503937007874
0
LINE
8
BLACK
6
CONTINUOUS
10
0.9960629921259843
20
0.0718503937007874
11
0.6732283464566929
21
0.0718503937007874
0
LINE
8
BLACK
6
CONTINUOUS
10
0.6732283464566929
20
0.0718503937007874
11
0.6728516929133858
21
0.0719253149606299
0
LINE
8
BLACK
6
CONTINUOUS
10
0.6728516929133858
20
0.0719253149606299
11
0.6723190157480314
21
0.0724579921259842
0
LINE
8
BLACK
6
CONTINUOUS
10
0.6723190157480314
20
0.0724579921259842
11
0.672244094488189
21
0.0728346456692913
0
LINE
8
BLACK
6
CONTINUOUS
10
0.672244094488189
20
0.0728346456692913
11
0.672244094488189
21
0.3248031496062992
0
LINE
8
BLACK
6
CONTINUOUS
10
0.672244094488189
20
0.3248031496062992
11
0.6723190157480314
21
0.3251798031496063
0
LINE
8
BLACK
6
CONTINUOUS
10
0.6723190157480314
20
0.3251798031496063
11
0.6728516929133858
21
0.3257124803149606
0
LINE
8
BLACK
6
CONTINUOUS
10
0.6728516929133858
20
0.3257124803149606
11
0.6732283464566929
21
0.3257874015748031
0
LINE
8
BLACK
6
CONTINUOUS
10
0.6732283464566929
20
0.3257874015748031
11
0.9960629921259843
21
0.3257874015748031
0
LINE
8
BLACK
6
CONTINUOUS
10
0.9960629921259843
20
0.3257874015748031
11
0.9964396456692913
21
0.3257124803149606
0
LINE
8
BLACK
6
CONTINUOUS
10
0.6742125984251969
20
0.3238188976377953
11
0.6742125984251969
21
0.0738188976377953
0
LINE
8
BLACK
6
CONTINUOUS
10
0.6742125984251969
20
0.0738188976377953
11
0.9950787401574803
21
0.0738188976377953
0
LINE
8
BLACK
6
CONTINUOUS
10
0.9950787401574803
20
0.0738188976377953
11
0.9950787401574803
21
0.3238188976377953
0
LINE
8
BLACK
6
CONTINUOUS
10
0.9950787401574803
20
0.3238188976377953
11
0.6742125984251969
21
0.3238188976377953
0
LINE
8
BLACK
6
CONTINUOUS
10
1.3106128740157481
20
0.2028778346456693
11
1.3111455511811023
21
0.202345157480315
0
LINE
8
BLACK
6
CONTINUOUS
10
1.3111455511811023
20
0.202345157480315
11
1.3112204724409449
21
0.2019685039370079
0
LINE
8
BLACK
6
CONTINUOUS
10
1.3112204724409449
20
0.2019685039370079
11
1.3112204724409449
21
0.1444881889763779
0
LINE
8
BLACK
6
CONTINUOUS
10
1.3112204724409449
20
0.1444881889763779
11
1.3111455511811023
21
0.1441115354330709
0
LINE
8
BLACK
6
CONTINUOUS
10
1.3111455511811023
20
0.1441115354330709
11
1.3106128740157481
21
0.1435788582677165
0
LINE
8
BLACK
6
CONTINUOUS
10
1.3106128740157481
20
0.1435788582677165
11
1.3102362204724409
21
0.143503937007874
0
LINE
8
BLACK
6
CONTINUOUS
10
1.3102362204724409
20
0.143503937007874
11
1.1937007874015748
21
0.143503937007874
0
LINE
8
BLACK
6
CONTINUOUS
10
1.1937007874015748
20
0.143503937007874
11
1.1933241338582676
21
0.1435788582677165
0
LINE
8
BLACK
6
CONTINUOUS
10
1.1933241338582676
20
0.1435788582677165
11
1.1927914566929134
21
0.1441115354330709
0
LINE
8
BLACK
6
CONTINUOUS
10
1.1927914566929134
20
0.1441115354330709
11
1.1927165354330709
21
0.1444881889763779
0
LINE
8
BLACK
6
CONTINUOUS
10
1.1927165354330709
20
0.1444881889763779
11
1.1927165354330709
21
0.2019685039370079
0
LINE
8
BLACK
6
CONTINUOUS
10
1.1927165354330709
20
0.2019685039370079
11
1.1927914566929134
21
0.202345157480315
0
LINE
8
BLACK
6
CONTINUOUS
10
1.1927914566929134
20
0.202345157480315
11
1.1933241338582676
21
0.2028778346456693
0
LINE
8
BLACK
6
CONTINUOUS
10
1.1933241338582676
20
0.2028778346456693
11
1.1937007874015748
21
0.2029527559055118
0
LINE
8
BLACK
6
CONTINUOUS
10
1.1937007874015748
20
0.2029527559055118
11
1.3102362204724409
21
0.2029527559055118
0
LINE
8
BLACK
6
CONTINUOUS
10
1.3102362204724409
20
0.2029527559055118
11
1.3106128740157481
21
0.2028778346456693
0
LINE
8
BLACK
6
CONTINUOUS
10
1.1946850393700787
20
0.2009842519685039
11
1.1946850393700787
21
0.1454724409448819
0
LINE
8
BLACK
6
CONTINUOUS
10
1.1946850393700787
20
0.1454724409448819
11
1.309251968503937
21
0.1454724409448819
0
LINE
8
BLACK
6
CONTINUOUS
10
1.309251968503937
20
0.1454724409448819
11
1.309251968503937
21
0.2009842519685039
0
LINE
8
BLACK
6
CONTINUOUS
10
1.309251968503937
20
0.2009842519685039
11
1.1946850393700787
21
0.2009842519685039
0
LINE
8
BLACK
6
CONTINUOUS
10
0.3912561023622047
20
0.3162917716535433
11
0.3915754330708661
21
0.3160784251968504
0
LINE
8
BLACK
6
CONTINUOUS
10
0.3915754330708661
20
0.3160784251968504
11
0.4322201574803149
21
0.2754337007874016
0
LINE
8
BLACK
6
CONTINUOUS
10
0.4322201574803149
20
0.2754337007874016
11
0.4324335039370079
21
0.2751143700787402
0
LINE
8
BLACK
6
CONTINUOUS
10
0.4324335039370079
20
0.2751143700787402
11
0.4324335039370079
21
0.274361062992126
0
LINE
8
BLACK
6
CONTINUOUS
10
0.4324335039370079
20
0.274361062992126
11
0.4322201574803149
21
0.2740417322834646
0
LINE
8
BLACK
6
CONTINUOUS
10
0.4322201574803149
20
0.2740417322834646
11
0.3498171653543307
21
0.1916387401574803
0
LINE
8
BLACK
6
CONTINUOUS
10
0.3498171653543307
20
0.1916387401574803
11
0.3494978346456693
21
0.1914253937007874
0
LINE
8
BLACK
6
CONTINUOUS
10
0.3494978346456693
20
0.1914253937007874
11
0.3487445275590551
21
0.1914253937007874
0
LINE
8
BLACK
6
CONTINUOUS
10
0.3487445275590551
20
0.1914253937007874
11
0.3484251968503937
21
0.1916387401574803
0
LINE
8
BLACK
6
CONTINUOUS
10
0.3484251968503937
20
0.1916387401574803
11
0.3077804724409449
21
0.2322834645669291
0
LINE
8
BLACK
6
CONTINUOUS
10
0.3077804724409449
20
0.2322834645669291
11
0.307567125984252
21
0.2326027952755906
0
LINE
8
BLACK
6
CONTINUOUS
10
0.307567125984252
20
0.2326027952755906
11
0.307567125984252
21
0.2333561023622047
0
LINE
8
BLACK
6
CONTINUOUS
10
0.307567125984252
20
0.2333561023622047
11
0.3077804724409449
21
0.2336754330708661
0
LINE
8
BLACK
6
CONTINUOUS
10
0.3077804724409449
20
0.2336754330708661
11
0.3901834645669292
21
0.3160784251968504
0
LINE
8
BLACK
6
CONTINUOUS
10
0.3901834645669292
20
0.3160784251968504
11
0.3905027952755906
21
0.3162917716535433
0
LINE
8
BLACK
6
CONTINUOUS
10
0.3905027952755906
20
0.3162917716535433
11
0.3912561023622047
21
0.3162917716535433
0
LINE
8
BLACK
6
CONTINUOUS
10
0.3098684251968504
20
0.2329794488188976
11
0.3491211811023622
21
0.1937266929133858
0
LINE
8
BLACK
6
CONTINUOUS
10
0.3491211811023622
20
0.1937266929133858
11
0.4301322047244094
21
0.2747377165354331
0
LINE
8
BLACK
6
CONTINUOUS
10
0.4301322047244094
20
0.2747377165354331
11
0.3908794488188976
21
0.3139904724409449
0
LINE
8
BLACK
6
CONTINUOUS
10
0.3908794488188976
20
0.3139904724409449
11
0.3098684251968504
21
0.2329794488188976
0
LINE
8
BLACK
6
CONTINUOUS
10
1.3145498818897638
20
0.269806968503937
11
1.3150825590551181
21
0.2692742913385827
0
LINE
8
BLACK
6
CONTINUOUS
10
1.3150825590551181
20
0.2692742913385827
11
1.3151574803149606
21
0.2688976377952756
0
LINE
8
BLACK
6
CONTINUOUS
10
1.3151574803149606
20
0.2688976377952756
11
1.3151574803149606
21
0.2114173228346457
0
LINE
8
BLACK
6
CONTINUOUS
10
1.3151574803149606
20
0.2114173228346457
11
1.3150825590551181
21
0.2110406692913386
0
LINE
8
BLACK
6
CONTINUOUS
10
1.3150825590551181
20
0.2110406692913386
11
1.3145498818897638
21
0.2105079921259843
0
LINE
8
BLACK
6
CONTINUOUS
10
1.3145498818897638
20
0.2105079921259843
11
1.3141732283464567
21
0.2104330708661417
0
LINE
8
BLACK
6
CONTINUOUS
10
1.3141732283464567
20
0.2104330708661417
11
1.1976377952755906
21
0.2104330708661417
0
LINE
8
BLACK
6
CONTINUOUS
10
1.1976377952755906
20
0.2104330708661417
11
1.1972611417322834
21
0.2105079921259843
0
LINE
8
BLACK
6
CONTINUOUS
10
1.1972611417322834
20
0.2105079921259843
11
1.1967284645669292
21
0.2110406692913386
0
LINE
8
BLACK
6
CONTINUOUS
10
1.1967284645669292
20
0.2110406692913386
11
1.1966535433070866
21
0.2114173228346457
0
LINE
8
BLACK
6
CONTINUOUS
10
1.1966535433070866
20
0.2114173228346457
11
1.1966535433070866
21
0.2688976377952756
0
LINE
8
BLACK
6
CONTINUOUS
10
1.1966535433070866
20
0.2688976377952756
11
1.1967284645669292
21
0.2692742913385827
0
LINE
8
BLACK
6
CONTINUOUS
10
1.1967284645669292
20
0.2692742913385827
11
1.1972611417322834
21
0.269806968503937
0
LINE
8
BLACK
6
CONTINUOUS
10
1.1972611417322834
20
0.269806968503937
11
1.1976377952755906
21
0.2698818897637795
0
LINE
8
BLACK
6
CONTINUOUS
10
1.1976377952755906
20
0.2698818897637795
11
1.3141732283464567
21
0.2698818897637795
0
LINE
8
BLACK
6
CONTINUOUS
10
1.3141732283464567
20
0.2698818897637795
11
1.3145498818897638
21
0.269806968503937
0
LINE
8
BLACK
6
CONTINUOUS
10
1.1986220472440945
20
0.2679133858267717
11
1.1986220472440945
21
0.2124015748031496
0
LINE
8
BLACK
6
CONTINUOUS
10
1.1986220472440945
20
0.2124015748031496
11
1.3131889763779527
21
0.2124015748031496
0
LINE
8
BLACK
6
CONTINUOUS
10
1.3131889763779527
20
0.2124015748031496
11
1.3131889763779527
21
0.2679133858267717
0
LINE
8
BLACK
6
CONTINUOUS
10
1.3131889763779527
20
0.2679133858267717
11
1.1986220472440945
21
0.2679133858267717
0
LINE
8
BLACK
6
CONTINUOUS
10
-0.9858438188976377
20
0.3178384645669291
11
-0.9853111417322834
21
0.3173057874015748
0
LINE
8
BLACK
6
CONTINUOUS
10
-0.9853111417322834
20
0.3173057874015748
11
-0.985236220472441
21
0.3169291338582677
0
LINE
8
BLACK
6
CONTINUOUS
10
-0.985236220472441
20
0.3169291338582677
11
-0.985236220472441
21
0.218503937007874
0
LINE
8
BLACK
6
CONTINUOUS
10
-0.985236220472441
20
0.218503937007874
11
-0.9853111417322834
21
0.2181272834645669
0
LINE
8
BLACK
6
CONTINUOUS
10
-0.9853111417322834
20
0.2181272834645669
11
-0.9858438188976377
21
0.2175946062992126
0
LINE
8
BLACK
6
CONTINUOUS
10
-0.9858438188976377
20
0.2175946062992126
11
-0.9862204724409449
21
0.2175196850393701
0
LINE
8
BLACK
6
CONTINUOUS
10
-0.9862204724409449
20
0.2175196850393701
11
-1.1161417322834646
21
0.2175196850393701
0
LINE
8
BLACK
6
CONTINUOUS
10
-1.1161417322834646
20
0.2175196850393701
11
-1.1165183858267715
21
0.2175946062992126
0
LINE
8
BLACK
6
CONTINUOUS
10
-1.1165183858267715
20
0.2175946062992126
11
-1.117051062992126
21
0.2181272834645669
0
LINE
8
BLACK
6
CONTINUOUS
10
-1.117051062992126
20
0.2181272834645669
11
-1.1171259842519685
21
0.218503937007874
0
LINE
8
BLACK
6
CONTINUOUS
10
-1.1171259842519685
20
0.218503937007874
11
-1.1171259842519685
21
0.3169291338582677
0
LINE
8
BLACK
6
CONTINUOUS
10
-1.1171259842519685
20
0.3169291338582677
11
-1.117051062992126
21
0.3173057874015748
0
LINE
8
BLACK
6
CONTINUOUS
10
-1.117051062992126
20
0.3173057874015748
11
-1.1165183858267715
21
0.3178384645669291
0
LINE
8
BLACK
6
CONTINUOUS
10
-1.1165183858267715
20
0.3178384645669291
11
-1.1161417322834646
21
0.3179133858267716
0
LINE
8
BLACK
6
CONTINUOUS
10
-1.1161417322834646
20
0.3179133858267716
11
-0.9862204724409449
21
0.3179133858267716
0
LINE
8
BLACK
6
CONTINUOUS
10
-0.9862204724409449
20
0.3179133858267716
11
-0.9858438188976377
21
0.3178384645669291
0
LINE
8
BLACK
6
CONTINUOUS
10
-1.1151574803149606
20
0.3159448818897638
11
-1.1151574803149606
21
0.219488188976378
0
LINE
8
BLACK
6
CONTINUOUS
10
-1.1151574803149606
20
0.219488188976378
11
-0.9872047244094488
21
0.219488188976378
0
LINE
8
BLACK
6
CONTINUOUS
10
-0.9872047244094488
20
0.219488188976378
11
-0.9872047244094488
21
0.3159448818897638
0
LINE
8
BLACK
6
CONTINUOUS
10
-0.9872047244094488
20
0.3159448818897638
11
-1.1151574803149606
21
0.3159448818897638
0
LINE
8
BLACK
6
CONTINUOUS
10
-0.5496233464566929
20
0.3544526377952756
11
-0.5490906692913385
21
0.3539199606299213
0
LINE
8
BLACK
6
CONTINUOUS
10
-0.5490906692913385
20
0.3539199606299213
11
-0.549015748031496
21
0.3535433070866142
0
LINE
8
BLACK
6
CONTINUOUS
10
-0.549015748031496
20
0.3535433070866142
11
-0.549015748031496
21
0.237007874015748
0
LINE
8
BLACK
6
CONTINUOUS
10
-0.549015748031496
20
0.237007874015748
11
-0.5490906692913385
21
0.236631220472441
0
LINE
8
BLACK
6
CONTINUOUS
10
-0.5490906692913385
20
0.236631220472441
11
-0.5496233464566929
21
0.2360985433070866
0
LINE
8
BLACK
6
CONTINUOUS
10
-0.5496233464566929
20
0.2360985433070866
11
-0.5499999999999999
21
0.2360236220472441
0
LINE
8
BLACK
6
CONTINUOUS
10
-0.5499999999999999
20
0.2360236220472441
11
-0.6074803149606299
21
0.2360236220472441
0
LINE
8
BLACK
6
CONTINUOUS
10
-0.6074803149606299
20
0.2360236220472441
11
-0.607856968503937
21
0.2360985433070866
0
LINE
8
BLACK
6
CONTINUOUS
10
-0.607856968503937
20
0.2360985433070866
11
-0.6083896456692913
21
0.236631220472441
0
LINE
8
BLACK
6
CONTINUOUS
10
-0.6083896456692913
20
0.236631220472441
11
-0.6084645669291339
21
0.237007874015748
0
LINE
8
BLACK
6
CONTINUOUS
10
-0.6084645669291339
20
0.237007874015748
11
-0.6084645669291339
21
0.3535433070866142
0
LINE
8
BLACK
6
CONTINUOUS
10
-0.6084645669291339
20
0.3535433070866142
11
-0.6083896456692913
21
0.3539199606299213
0
LINE
8
BLACK
6
CONTINUOUS
10
-0.6083896456692913
20
0.3539199606299213
11
-0.607856968503937
21
0.3544526377952756
0
LINE
8
BLACK
6
CONTINUOUS
10
-0.607856968503937
20
0.3544526377952756
11
-0.6074803149606299
21
0.3545275590551181
0
LINE
8
BLACK
6
CONTINUOUS
10
-0.6074803149606299
20
0.3545275590551181
11
-0.5499999999999999
21
0.3545275590551181
0
LINE
8
BLACK
6
CONTINUOUS
10
-0.5499999999999999
20
0.3545275590551181
11
-0.5496233464566929
21
0.3544526377952756
0
LINE
8
BLACK
6
CONTINUOUS
10
-0.606496062992126
20
0.3525590551181103
11
-0.606496062992126
21
0.237992125984252
0
LINE
8
BLACK
6
CONTINUOUS
10
-0.606496062992126
20
0.237992125984252
11
-0.550984251968504
21
0.237992125984252
0
LINE
8
BLACK
6
CONTINUOUS
10
-0.550984251968504
20
0.237992125984252
11
-0.550984251968504
21
0.3525590551181103
0
LINE
8
BLACK
6
CONTINUOUS
10
-0.550984251968504
20
0.3525590551181103
11
-0.606496062992126
21
0.3525590551181103
0
LINE
8
BLACK
6
CONTINUOUS
10
-0.9858438188976377
20
0.4241376771653543
11
-0.9853111417322834
21
0.423605
0
LINE
8
BLACK
6
CONTINUOUS
10
-0.9853111417322834
20
0.423605
11
-0.985236220472441
21
0.4232283464566929
0
LINE
8
BLACK
6
CONTINUOUS
10
-0.985236220472441
20
0.4232283464566929
11
-0.985236220472441
21
0.3248031496062992
0
LINE
8
BLACK
6
CONTINUOUS
10
-0.985236220472441
20
0.3248031496062992
11
-0.9853111417322834
21
0.3244264960629921
0
LINE
8
BLACK
6
CONTINUOUS
10
-0.9853111417322834
20
0.3244264960629921
11
-0.9858438188976377
21
0.3238938188976378
0
LINE
8
BLACK
6
CONTINUOUS
10
-0.9858438188976377
20
0.3238938188976378
11
-0.9862204724409449
21
0.3238188976377953
0
LINE
8
BLACK
6
CONTINUOUS
10
-0.9862204724409449
20
0.3238188976377953
11
-1.1161417322834646
21
0.3238188976377953
0
LINE
8
BLACK
6
CONTINUOUS
10
-1.1161417322834646
20
0.3238188976377953
11
-1.1165183858267715
21
0.3238938188976378
0
LINE
8
BLACK
6
CONTINUOUS
10
-1.1165183858267715
20
0.3238938188976378
11
-1.117051062992126
21
0.3244264960629921
0
LINE
8
BLACK
6
CONTINUOUS
10
-1.117051062992126
20
0.3244264960629921
11
-1.1171259842519685
21
0.3248031496062992
0
LINE
8
BLACK
6
CONTINUOUS
10
-1.1171259842519685
20
0.3248031496062992
11
-1.1171259842519685
21
0.4232283464566929
0
LINE
8
BLACK
6
CONTINUOUS
10
-1.1171259842519685
20
0.4232283464566929
11
-1.117051062992126
21
0.423605
0
LINE
8
BLACK
6
CONTINUOUS
10
-1.117051062992126
20
0.423605
11
-1.1165183858267715
21
0.4241376771653543
0
LINE
8
BLACK
6
CONTINUOUS
10
-1.1165183858267715
20
0.4241376771653543
11
-1.1161417322834646
21
0.4242125984251968
0
LINE
8
BLACK
6
CONTINUOUS
10
-1.1161417322834646
20
0.4242125984251968
11
-0.9862204724409449
21
0.4242125984251968
0
LINE
8
BLACK
6
CONTINUOUS
10
-0.9862204724409449
20
0.4242125984251968
11
-0.9858438188976377
21
0.4241376771653543
0
LINE
8
BLACK
6
CONTINUOUS
10
-1.1151574803149606
20
0.4222440944881889
11
-1.1151574803149606
21
0.3257874015748031
0
LINE
8
BLACK
6
CONTINUOUS
10
-1.1151574803149606
20
0.3257874015748031
11
-0.9872047244094488
21
0.3257874015748031
0
LINE
8
BLACK
6
CONTINUOUS
10
-0.9872047244094488
20
0.3257874015748031
11
-0.9872047244094488
21
0.4222440944881889
0
LINE
8
BLACK
6
CONTINUOUS
10
-0.9872047244094488
20
0.4222440944881889
11
-1.1151574803149606
21
0.4222440944881889
0
LINE
8
BLACK
6
CONTINUOUS
10
0.2813336220472441
20
0.4495734645669291
11
0.2816529527559055
21
0.4493601181102362
0
LINE
8
BLACK
6
CONTINUOUS
10
0.2816529527559055
20
0.4493601181102362
11
0.3640559448818897
21
0.366957125984252
0
LINE
8
BLACK
6
CONTINUOUS
10
0.3640559448818897
20
0.366957125984252
11
0.3642692913385827
21
0.3666377952755905
0
LINE
8
BLACK
6
CONTINUOUS
10
0.3642692913385827
20
0.3666377952755905
11
0.3642692913385827
21
0.3658844881889763
0
LINE
8
BLACK
6
CONTINUOUS
10
0.3642692913385827
20
0.3658844881889763
11
0.3640559448818897
21
0.3655651574803149
0
LINE
8
BLACK
6
CONTINUOUS
10
0.3640559448818897
20
0.3655651574803149
11
0.3234112204724409
21
0.3249204330708662
0
LINE
8
BLACK
6
CONTINUOUS
10
0.3234112204724409
20
0.3249204330708662
11
0.3230918897637795
21
0.3247070866141732
0
LINE
8
BLACK
6
CONTINUOUS
10
0.3230918897637795
20
0.3247070866141732
11
0.3223385826771654
21
0.3247070866141732
0
LINE
8
BLACK
6
CONTINUOUS
10
0.3223385826771654
20
0.3247070866141732
11
0.322019251968504
21
0.3249204330708662
0
LINE
8
BLACK
6
CONTINUOUS
10
0.322019251968504
20
0.3249204330708662
11
0.2396162598425197
21
0.4073234251968504
0
LINE
8
BLACK
6
CONTINUOUS
10
0.2396162598425197
20
0.4073234251968504
11
0.2394029133858268
21
0.4076427559055118
0
LINE
8
BLACK
6
CONTINUOUS
10
0.2394029133858268
20
0.4076427559055118
11
0.2394029133858268
21
0.408396062992126
0
LINE
8
BLACK
6
CONTINUOUS
10
0.2394029133858268
20
0.408396062992126
11
0.2396162598425197
21
0.4087153937007874
0
LINE
8
BLACK
6
CONTINUOUS
10
0.2396162598425197
20
0.4087153937007874
11
0.2802609842519685
21
0.4493601181102362
0
LINE
8
BLACK
6
CONTINUOUS
10
0.2802609842519685
20
0.4493601181102362
11
0.2805803149606299
21
0.4495734645669291
0
LINE
8
BLACK
6
CONTINUOUS
10
0.2805803149606299
20
0.4495734645669291
11
0.2813336220472441
21
0.4495734645669291
0
LINE
8
BLACK
6
CONTINUOUS
10
0.2417042125984252
20
0.4080194094488189
11
0.3227152362204724
21
0.3270083858267717
0
LINE
8
BLACK
6
CONTINUOUS
10
0.3227152362204724
20
0.3270083858267717
11
0.3619679921259842
21
0.3662611417322835
0
LINE
8
BLACK
6
CONTINUOUS
10
0.3619679921259842
20
0.3662611417322835
11
0.280956968503937
21
0.4472721653543307
0
LINE
8
BLACK
6
CONTINUOUS
10
0.280956968503937
20
0.4472721653543307
11
0.2417042125984252
21
0.4080194094488189
0
LINE
8
BLACK
6
CONTINUOUS
10
0.4838542125984252
20
0.452196968503937
11
0.4841735433070866
21
0.4519836220472441
0
LINE
8
BLACK
6
CONTINUOUS
10
0.4841735433070866
20
0.4519836220472441
11
0.5248182677165354
21
0.4113388976377952
0
LINE
8
BLACK
6
CONTINUOUS
10
0.5248182677165354
20
0.4113388976377952
11
0.5250316141732283
21
0.4110195669291338
0
LINE
8
BLACK
6
CONTINUOUS
10
0.5250316141732283
20
0.4110195669291338
11
0.5250316141732283
21
0.4102662598425197
0
LINE
8
BLACK
6
CONTINUOUS
10
0.5250316141732283
20
0.4102662598425197
11
0.5248182677165354
21
0.4099469291338583
0
LINE
8
BLACK
6
CONTINUOUS
10
0.5248182677165354
20
0.4099469291338583
11
0.4424152755905512
21
0.327543937007874
0
LINE
8
BLACK
6
CONTINUOUS
10
0.4424152755905512
20
0.327543937007874
11
0.4420959448818897
21
0.3273305905511811
0
LINE
8
BLACK
6
CONTINUOUS
10
0.4420959448818897
20
0.3273305905511811
11
0.4413426377952756
21
0.3273305905511811
0
LINE
8
BLACK
6
CONTINUOUS
10
0.4413426377952756
20
0.3273305905511811
11
0.4410233070866141
21
0.327543937007874
0
LINE
8
BLACK
6
CONTINUOUS
10
0.4410233070866141
20
0.327543937007874
11
0.4003785826771654
21
0.3681886614173228
0
LINE
8
BLACK
6
CONTINUOUS
10
0.4003785826771654
20
0.3681886614173228
11
0.4001652362204725
21
0.3685079921259842
0
LINE
8
BLACK
6
CONTINUOUS
10
0.4001652362204725
20
0.3685079921259842
11
0.4001652362204725
21
0.3692612992125984
0
LINE
8
BLACK
6
CONTINUOUS
10
0.4001652362204725
20
0.3692612992125984
11
0.4003785826771654
21
0.3695806299212598
0
LINE
8
BLACK
6
CONTINUOUS
10
0.4003785826771654
20
0.3695806299212598
11
0.4827815748031496
21
0.4519836220472441
0
LINE
8
BLACK
6
CONTINUOUS
10
0.4827815748031496
20
0.4519836220472441
11
0.483100905511811
21
0.452196968503937
0
LINE
8
BLACK
6
CONTINUOUS
10
0.483100905511811
20
0.452196968503937
11
0.4838542125984252
21
0.452196968503937
0
LINE
8
BLACK
6
CONTINUOUS
10
0.4024665354330709
20
0.3688846456692914
11
0.4417192913385827
21
0.3296318897637795
0
LINE
8
BLACK
6
CONTINUOUS
10
0.4417192913385827
20
0.3296318897637795
11
0.5227303149606299
21
0.4106429133858268
0
LINE
8
BLACK
6
CONTINUOUS
10
0.5227303149606299
20
0.4106429133858268
11
0.4834775590551181
21
0.4498956692913386
0
LINE
8
BLACK
6
CONTINUOUS
10
0.4834775590551181
20
0.4498956692913386
11
0.4024665354330709
21
0.3688846456692914
0
LINE
8
BLACK
6
CONTINUOUS
10
-1.3134788582677166
20
0.8738093307086614
11
-1.0851178346456694
21
0.7673228346456693
0
LINE
8
BLACK
6
CONTINUOUS
10
-1.0851178346456694
20
0.7673228346456693
11
-1.0848081102362204
21
0.767095748031496
0
LINE
8
BLACK
6
CONTINUOUS
10
-1.0848081102362204
20
0.767095748031496
11
-1.0845504724409449
21
0.766387874015748
0
LINE
8
BLACK
6
CONTINUOUS
10
-1.0845504724409449
20
0.766387874015748
11
-1.0846417322834645
21
0.766014842519685
0
LINE
8
BLACK
6
CONTINUOUS
10
-1.0846417322834645
20
0.766014842519685
11
-1.2836383464566929
21
0.3392651968503937
0
LINE
8
BLACK
6
CONTINUOUS
10
-1.2836383464566929
20
0.3392651968503937
11
-1.2838654330708661
21
0.3389554724409449
0
LINE
8
BLACK
6
CONTINUOUS
10
-1.2838654330708661
20
0.3389554724409449
11
-1.2845733464566929
21
0.3386978346456693
0
LINE
8
BLACK
6
CONTINUOUS
10
-1.2845733464566929
20
0.3386978346456693
11
-1.2849463779527559
21
0.3387890944881889
0
LINE
8
BLACK
6
CONTINUOUS
10
-1.2849463779527559
20
0.3387890944881889
11
-1.5133073622047244
21
0.4452755905511811
0
LINE
8
BLACK
6
CONTINUOUS
10
-1.5133073622047244
20
0.4452755905511811
11
-1.5136170866141732
21
0.4455026771653543
0
LINE
8
BLACK
6
CONTINUOUS
10
-1.5136170866141732
20
0.4455026771653543
11
-1.5138747244094488
21
0.4462105905511811
0
LINE
8
BLACK
6
CONTINUOUS
10
-1.5138747244094488
20
0.4462105905511811
11
-1.513783464566929
21
0.4465835826771654
0
LINE
8
BLACK
6
CONTINUOUS
10
-1.513783464566929
20
0.4465835826771654
11
-1.3147868503937008
21
0.8733332677165354
0
LINE
8
BLACK
6
CONTINUOUS
10
-1.3147868503937008
20
0.8733332677165354
11
-1.3145597637795274
21
0.8736429527559055
0
LINE
8
BLACK
6
CONTINUOUS
10
-1.3145597637795274
20
0.8736429527559055
11
-1.3138518503937007
21
0.8739005905511811
0
LINE
8
BLACK
6
CONTINUOUS
10
-1.3138518503937007
20
0.8739005905511811
11
-1.3134788582677166
21
0.8738093307086614
0
LINE
8
BLACK
6
CONTINUOUS
10
-1.5115834251968503
20
0.4466437401574803
11
-1.2850064960629921
21
0.3409891732283464
0
LINE
8
BLACK
6
CONTINUOUS
10
-1.2850064960629921
20
0.3409891732283464
11
-1.086841811023622
21
0.7659547244094488
0
LINE
8
BLACK
6
CONTINUOUS
10
-1.086841811023622
20
0.7659547244094488
11
-1.3134187401574804
21
0.8716092913385827
0
LINE
8
BLACK
6
CONTINUOUS
10
-1.3134187401574804
20
0.8716092913385827
11
-1.5115834251968503
21
0.4466437401574803
0
LINE
8
BLACK
6
CONTINUOUS
10
-0.5535603543307086
20
0.4814211417322835
11
-0.5530276771653543
21
0.4808884645669291
0
LINE
8
BLACK
6
CONTINUOUS
10
-0.5530276771653543
20
0.4808884645669291
11
-0.5529527559055119
21
0.4805118110236221
0
LINE
8
BLACK
6
CONTINUOUS
10
-0.5529527559055119
20
0.4805118110236221
11
-0.5529527559055119
21
0.3639763779527559
0
LINE
8
BLACK
6
CONTINUOUS
10
-0.5529527559055119
20
0.3639763779527559
11
-0.5530276771653543
21
0.3635997244094488
0
LINE
8
BLACK
6
CONTINUOUS
10
-0.5530276771653543
20
0.3635997244094488
11
-0.5535603543307086
21
0.3630670472440945
0
LINE
8
BLACK
6
CONTINUOUS
10
-0.5535603543307086
20
0.3630670472440945
11
-0.5539370078740158
21
0.362992125984252
0
LINE
8
BLACK
6
CONTINUOUS
10
-0.5539370078740158
20
0.362992125984252
11
-0.6114173228346457
21
0.362992125984252
0
LINE
8
BLACK
6
CONTINUOUS
10
-0.6114173228346457
20
0.362992125984252
11
-0.6117939763779527
21
0.3630670472440945
0
LINE
8
BLACK
6
CONTINUOUS
10
-0.6117939763779527
20
0.3630670472440945
11
-0.6123266535433071
21
0.3635997244094488
0
LINE
8
BLACK
6
CONTINUOUS
10
-0.6123266535433071
20
0.3635997244094488
11
-0.6124015748031496
21
0.3639763779527559
0
LINE
8
BLACK
6
CONTINUOUS
10
-0.6124015748031496
20
0.3639763779527559
11
-0.6124015748031496
21
0.4805118110236221
0
LINE
8
BLACK
6
CONTINUOUS
10
-0.6124015748031496
20
0.4805118110236221
11
-0.6123266535433071
21
0.4808884645669291
0
LINE
8
BLACK
6
CONTINUOUS
10
-0.6123266535433071
20
0.4808884645669291
11
-0.6117939763779527
21
0.4814211417322835
0
LINE
8
BLACK
6
CONTINUOUS
10
-0.6117939763779527
20
0.4814211417322835
11
-0.6114173228346457
21
0.481496062992126
0
LINE
8
BLACK
6
CONTINUOUS
10
-0.6114173228346457
20
0.481496062992126
11
-0.5539370078740158
21
0.481496062992126
0
LINE
8
BLACK
6
CONTINUOUS
10
-0.5539370078740158
20
0.481496062992126
11
-0.5535603543307086
21
0.4814211417322835
0
LINE
8
BLACK
6
CONTINUOUS
10
-0.6104330708661417
20
0.4795275590551181
11
-0.6104330708661417
21
0.3649606299212598
0
LINE
8
BLACK
6
CONTINUOUS
10
-0.6104330708661417
20
0.3649606299212598
11
-0.5549212598425197
21
0.3649606299212598
0
LINE
8
BLACK
6
CONTINUOUS
10
-0.5549212598425197
20
0.3649606299212598
11
-0.5549212598425197
21
0.4795275590551181
0
LINE
8
BLACK
6
CONTINUOUS
10
-0.5549212598425197
20
0.4795275590551181
11
-0.6104330708661417
21
0.4795275590551181
0
LINE
8
BLACK
6
CONTINUOUS
10
0.4035822047244094
20
0.541118779527559
11
0.4039015354330708
21
0.5409054330708661
0
LINE
8
BLACK
6
CONTINUOUS
10
0.4039015354330708
20
0.5409054330708661
11
0.4818503149606299
21
0.4629566535433071
0
LINE
8
BLACK
6
CONTINUOUS
10
0.4818503149606299
20
0.4629566535433071
11
0.4820636614173228
21
0.4626373228346456
0
LINE
8
BLACK
6
CONTINUOUS
10
0.4820636614173228
20
0.4626373228346456
11
0.4820636614173228
21
0.4618840157480315
0
LINE
8
BLACK
6
CONTINUOUS
10
0.4820636614173228
20
0.4618840157480315
11
0.4818503149606299
21
0.4615646850393701
0
LINE
8
BLACK
6
CONTINUOUS
10
0.4818503149606299
20
0.4615646850393701
11
0.3927660236220472
21
0.3724803937007874
0
LINE
8
BLACK
6
CONTINUOUS
10
0.3927660236220472
20
0.3724803937007874
11
0.3924466929133858
21
0.3722670472440945
0
LINE
8
BLACK
6
CONTINUOUS
10
0.3924466929133858
20
0.3722670472440945
11
0.3916933858267717
21
0.3722670472440945
0
LINE
8
BLACK
6
CONTINUOUS
10
0.3916933858267717
20
0.3722670472440945
11
0.3913740551181102
21
0.3724803937007874
0
LINE
8
BLACK
6
CONTINUOUS
10
0.3913740551181102
20
0.3724803937007874
11
0.3134252755905512
21
0.4504291732283465
0
LINE
8
BLACK
6
CONTINUOUS
10
0.3134252755905512
20
0.4504291732283465
11
0.3132119291338583
21
0.4507485039370079
0
LINE
8
BLACK
6
CONTINUOUS
10
0.3132119291338583
20
0.4507485039370079
11
0.3132119291338583
21
0.451501811023622
0
LINE
8
BLACK
6
CONTINUOUS
10
0.3132119291338583
20
0.451501811023622
11
0.3134252755905512
21
0.4518211417322834
0
LINE
8
BLACK
6
CONTINUOUS
10
0.3134252755905512
20
0.4518211417322834
11
0.4025095669291339
21
0.5409054330708661
0
LINE
8
BLACK
6
CONTINUOUS
10
0.4025095669291339
20
0.5409054330708661
11
0.4028288976377953
21
0.541118779527559
0
LINE
8
BLACK
6
CONTINUOUS
10
0.4028288976377953
20
0.541118779527559
11
0.4035822047244094
21
0.541118779527559
0
LINE
8
BLACK
6
CONTINUOUS
10
0.3155132283464567
20
0.451125157480315
11
0.3920700393700787
21
0.3745683464566929
0
LINE
8
BLACK
6
CONTINUOUS
10
0.3920700393700787
20
0.3745683464566929
11
0.4797623622047244
21
0.4622606692913386
0
LINE
8
BLACK
6
CONTINUOUS
10
0.4797623622047244
20
0.4622606692913386
11
0.4032055511811024
21
0.5388174803149606
0
LINE
8
BLACK
6
CONTINUOUS
10
0.4032055511811024
20
0.5388174803149606
11
0.3155132283464567
21
0.451125157480315
0
LINE
8
BLACK
6
CONTINUOUS
10
0.062838779527559
20
0.5840671259842519
11
0.0631382677165354
21
0.5838267716535432
0
LINE
8
BLACK
6
CONTINUOUS
10
0.0631382677165354
20
0.5838267716535432
11
0.1668953149606299
21
0.4601738976377953
0
LINE
8
BLACK
6
CONTINUOUS
10
0.1668953149606299
20
0.4601738976377953
11
0.1670799606299213
21
0.4598373228346457
0
LINE
8
BLACK
6
CONTINUOUS
10
0.1670799606299213
20
0.4598373228346457
11
0.1670800393700787
21
0.4598372440944882
0
LINE
8
BLACK
6
CONTINUOUS
10
0.1670800393700787
20
0.4598372440944882
11
0.1670143700787401
21
0.4590867716535433
0
LINE
8
BLACK
6
CONTINUOUS
10
0.1670143700787401
20
0.4590867716535433
11
0.1667740157480315
21
0.4587872834645669
0
LINE
8
BLACK
6
CONTINUOUS
10
0.1667740157480315
20
0.4587872834645669
11
0.0642326377952756
21
0.372744842519685
0
LINE
8
BLACK
6
CONTINUOUS
10
0.0642326377952756
20
0.372744842519685
11
0.0638959448818898
21
0.3725601181102362
0
LINE
8
BLACK
6
CONTINUOUS
10
0.0638959448818898
20
0.3725601181102362
11
0.0631454724409449
21
0.3726257874015748
0
LINE
8
BLACK
6
CONTINUOUS
10
0.0631454724409449
20
0.3726257874015748
11
0.0628459842519685
21
0.3728661417322834
0
LINE
8
BLACK
6
CONTINUOUS
10
0.0628459842519685
20
0.3728661417322834
11
-0.040911062992126
21
0.4965189763779527
0
LINE
8
BLACK
6
CONTINUOUS
10
-0.040911062992126
20
0.4965189763779527
11
-0.0410957874015748
21
0.4968556692913386
0
LINE
8
BLACK
6
CONTINUOUS
10
-0.0410957874015748
20
0.4968556692913386
11
-0.0410301181102362
21
0.4976061417322835
0
LINE
8
BLACK
6
CONTINUOUS
10
-0.0410301181102362
20
0.4976061417322835
11
-0.0407897637795276
21
0.4979056299212598
0
LINE
8
BLACK
6
CONTINUOUS
10
-0.0407897637795276
20
0.4979056299212598
11
0.0617516141732283
21
0.5839480708661418
0
LINE
8
BLACK
6
CONTINUOUS
10
0.0617516141732283
20
0.5839480708661418
11
0.0620883070866142
21
0.5841327952755906
0
LINE
8
BLACK
6
CONTINUOUS
10
0.0620883070866142
20
0.5841327952755906
11
0.062838779527559
21
0.5840671259842519
0
LINE
8
BLACK
6
CONTINUOUS
10
-0.0387704724409449
20
0.4970303543307086
11
0.0637212204724409
21
0.3748854724409449
0
LINE
8
BLACK
6
CONTINUOUS
10
0.0637212204724409
20
0.3748854724409449
11
0.1647546850393701
21
0.4596625984251969
0
LINE
8
BLACK
6
CONTINUOUS
10
0.1647546850393701
20
0.4596625984251969
11
0.0622629527559055
21
0.5818074803149607
0
LINE
8
BLACK
6
CONTINUOUS
10
0.0622629527559055
20
0.5818074803149607
11
-0.0387704724409449
21
0.4970303543307086
0
LINE
8
BLACK
6
CONTINUOUS
10
-1.1287387007874015
20
0.5672597637795276
11
-1.0231216929133857
21
0.5180097637795276
0
LINE
8
BLACK
6
CONTINUOUS
10
-1.0231216929133857
20
0.5180097637795276
11
-1.0228120078740157
21
0.5177826771653543
0
LINE
8
BLACK
6
CONTINUOUS
10
-1.0228120078740157
20
0.5177826771653543
11
-1.0225543700787401
21
0.5170748031496063
0
LINE
8
BLACK
6
CONTINUOUS
10
-1.0225543700787401
20
0.5170748031496063
11
-1.0226456299212598
21
0.5167017716535433
0
LINE
8
BLACK
6
CONTINUOUS
10
-1.0226456299212598
20
0.5167017716535433
11
-1.046937874015748
21
0.4646068897637795
0
LINE
8
BLACK
6
CONTINUOUS
10
-1.046937874015748
20
0.4646068897637795
11
-1.0471649606299211
21
0.4642971653543307
0
LINE
8
BLACK
6
CONTINUOUS
10
-1.0471649606299211
20
0.4642971653543307
11
-1.0478728740157479
21
0.4640395275590551
0
LINE
8
BLACK
6
CONTINUOUS
10
-1.0478728740157479
20
0.4640395275590551
11
-1.0482458661417322
21
0.4641307874015748
0
LINE
8
BLACK
6
CONTINUOUS
10
-1.0482458661417322
20
0.4641307874015748
11
-1.1538628346456692
21
0.5133807874015748
0
LINE
8
BLACK
6
CONTINUOUS
10
-1.1538628346456692
20
0.5133807874015748
11
-1.1541725590551182
21
0.513607874015748
0
LINE
8
BLACK
6
CONTINUOUS
10
-1.1541725590551182
20
0.513607874015748
11
-1.1544301968503936
21
0.5143157874015748
0
LINE
8
BLACK
6
CONTINUOUS
10
-1.1544301968503936
20
0.5143157874015748
11
-1.154338937007874
21
0.5146887795275591
0
LINE
8
BLACK
6
CONTINUOUS
10
-1.154338937007874
20
0.5146887795275591
11
-1.1300466929133859
21
0.5667837007874016
0
LINE
8
BLACK
6
CONTINUOUS
10
-1.1300466929133859
20
0.5667837007874016
11
-1.1298196062992125
21
0.5670933858267716
0
LINE
8
BLACK
6
CONTINUOUS
10
-1.1298196062992125
20
0.5670933858267716
11
-1.1291116929133858
21
0.5673510236220473
0
LINE
8
BLACK
6
CONTINUOUS
10
-1.1291116929133858
20
0.5673510236220473
11
-1.1287387007874015
21
0.5672597637795276
0
LINE
8
BLACK
6
CONTINUOUS
10
-1.1521388976377953
20
0.5147489370078741
11
-1.0483060236220472
21
0.4663308661417322
0
LINE
8
BLACK
6
CONTINUOUS
10
-1.0483060236220472
20
0.4663308661417322
11
-1.0248457086614173
21
0.516641653543307
0
LINE
8
BLACK
6
CONTINUOUS
10
-1.0248457086614173
20
0.516641653543307
11
-1.1286785826771653
21
0.5650597244094488
0
LINE
8
BLACK
6
CONTINUOUS
10
-1.1286785826771653
20
0.5650597244094488
11
-1.1521388976377953
21
0.5147489370078741
0
LINE
8
BLACK
6
CONTINUOUS
10
0.1346232677165354
20
0.5994155905511811
11
0.1349227559055118
21
0.5991752362204724
0
LINE
8
BLACK
6
CONTINUOUS
10
0.1349227559055118
20
0.5991752362204724
11
0.2098302755905512
21
0.5099038976377953
0
LINE
8
BLACK
6
CONTINUOUS
10
0.2098302755905512
20
0.5099038976377953
11
0.210015
21
0.5095672047244094
0
LINE
8
BLACK
6
CONTINUOUS
10
0.210015
20
0.5095672047244094
11
0.2099493307086614
21
0.5088167322834646
0
LINE
8
BLACK
6
CONTINUOUS
10
0.2099493307086614
20
0.5088167322834646
11
0.2097089763779527
21
0.5085172440944882
0
LINE
8
BLACK
6
CONTINUOUS
10
0.2097089763779527
20
0.5085172440944882
11
0.1656764960629921
21
0.4715696062992126
0
LINE
8
BLACK
6
CONTINUOUS
10
0.1656764960629921
20
0.4715696062992126
11
0.1653398031496063
21
0.4713848818897638
0
LINE
8
BLACK
6
CONTINUOUS
10
0.1653398031496063
20
0.4713848818897638
11
0.1645893307086614
21
0.4714505511811024
0
LINE
8
BLACK
6
CONTINUOUS
10
0.1645893307086614
20
0.4714505511811024
11
0.164289842519685
21
0.471690905511811
0
LINE
8
BLACK
6
CONTINUOUS
10
0.164289842519685
20
0.471690905511811
11
0.0893823228346457
21
0.5609622440944881
0
LINE
8
BLACK
6
CONTINUOUS
10
0.0893823228346457
20
0.5609622440944881
11
0.0891975984251969
21
0.561298937007874
0
LINE
8
BLACK
6
CONTINUOUS
10
0.0891975984251969
20
0.561298937007874
11
0.0892632677165354
21
0.5620494094488189
0
LINE
8
BLACK
6
CONTINUOUS
10
0.0892632677165354
20
0.5620494094488189
11
0.0895036220472441
21
0.5623488976377953
0
LINE
8
BLACK
6
CONTINUOUS
10
0.0895036220472441
20
0.5623488976377953
11
0.1335361023622047
21
0.5992965354330708
0
LINE
8
BLACK
6
CONTINUOUS
10
0.1335361023622047
20
0.5992965354330708
11
0.1338727952755905
21
0.5994812598425197
0
LINE
8
BLACK
6
CONTINUOUS
10
0.1338727952755905
20
0.5994812598425197
11
0.1346232677165354
21
0.5994155905511811
0
LINE
8
BLACK
6
CONTINUOUS
10
0.0915229133858268
20
0.561473622047244
11
0.1651651181102362
21
0.4737102362204724
0
LINE
8
BLACK
6
CONTINUOUS
10
0.1651651181102362
20
0.4737102362204724
11
0.2076896456692913
21
0.509392559055118
0
LINE
8
BLACK
6
CONTINUOUS
10
0.2076896456692913
20
0.509392559055118
11
0.1340474409448819
21
0.5971559448818897
0
LINE
8
BLACK
6
CONTINUOUS
10
0.1340474409448819
20
0.5971559448818897
11
0.0915229133858268
21
0.561473622047244
0
LINE
8
BLACK
6
CONTINUOUS
10
-0.0268483464566929
20
0.6195882283464567
11
-0.0265488582677165
21
0.619347874015748
0
LINE
8
BLACK
6
CONTINUOUS
10
-0.0265488582677165
20
0.619347874015748
11
0.0230520472440945
21
0.5602357874015748
0
LINE
8
BLACK
6
CONTINUOUS
10
0.0230520472440945
20
0.5602357874015748
11
0.0232367716535433
21
0.559899094488189
0
LINE
8
BLACK
6
CONTINUOUS
10
0.0232367716535433
20
0.559899094488189
11
0.0232367322834646
21
0.559899094488189
0
LINE
8
BLACK
6
CONTINUOUS
10
0.0232367322834646
20
0.559899094488189
11
0.0232367716535433
21
0.5598990551181102
0
LINE
8
BLACK
6
CONTINUOUS
10
0.0232367716535433
20
0.5598990551181102
11
0.0231711023622047
21
0.5591486220472441
0
LINE
8
BLACK
6
CONTINUOUS
10
0.0231711023622047
20
0.5591486220472441
11
0.0229307086614173
21
0.5588491338582677
0
LINE
8
BLACK
6
CONTINUOUS
10
0.0229307086614173
20
0.5588491338582677
11
-0.0796106299212598
21
0.4728067322834645
0
LINE
8
BLACK
6
CONTINUOUS
10
-0.0796106299212598
20
0.4728067322834645
11
-0.0799473228346457
21
0.4726220078740158
0
LINE
8
BLACK
6
CONTINUOUS
10
-0.0799473228346457
20
0.4726220078740158
11
-0.0799473622047244
21
0.4726220472440945
0
LINE
8
BLACK
6
CONTINUOUS
10
-0.0799473622047244
20
0.4726220472440945
11
-0.0799473622047244
21
0.4726220078740158
0
LINE
8
BLACK
6
CONTINUOUS
10
-0.0799473622047244
20
0.4726220078740158
11
-0.0806977952755906
21
0.4726876771653543
0
LINE
8
BLACK
6
CONTINUOUS
10
-0.0806977952755906
20
0.4726876771653543
11
-0.0809972834645669
21
0.4729280708661417
0
LINE
8
BLACK
6
CONTINUOUS
10
-0.0809972834645669
20
0.4729280708661417
11
-0.130598188976378
21
0.5320401181102362
0
LINE
8
BLACK
6
CONTINUOUS
10
-0.130598188976378
20
0.5320401181102362
11
-0.1307829133858268
21
0.532376811023622
0
LINE
8
BLACK
6
CONTINUOUS
10
-0.1307829133858268
20
0.532376811023622
11
-0.1307172440944882
21
0.5331272834645669
0
LINE
8
BLACK
6
CONTINUOUS
10
-0.1307172440944882
20
0.5331272834645669
11
-0.1304768897637795
21
0.5334267716535432
0
LINE
8
BLACK
6
CONTINUOUS
10
-0.1304768897637795
20
0.5334267716535432
11
-0.0279355118110236
21
0.6194691732283465
0
LINE
8
BLACK
6
CONTINUOUS
10
-0.0279355118110236
20
0.6194691732283465
11
-0.0275988188976378
21
0.6196538976377952
0
LINE
8
BLACK
6
CONTINUOUS
10
-0.0275988188976378
20
0.6196538976377952
11
-0.0268483464566929
21
0.6195882283464567
0
LINE
8
BLACK
6
CONTINUOUS
10
-0.1284575984251969
20
0.5325514960629921
11
-0.0801220078740157
21
0.4749473622047244
0
LINE
8
BLACK
6
CONTINUOUS
10
-0.0801220078740157
20
0.4749473622047244
11
0.0209114173228346
21
0.5597244488188976
0
LINE
8
BLACK
6
CONTINUOUS
10
0.0209114173228346
20
0.5597244488188976
11
-0.0274241732283465
21
0.6173285826771654
0
LINE
8
BLACK
6
CONTINUOUS
10
-0.0274241732283465
20
0.6173285826771654
11
-0.1284575984251969
21
0.5325514960629921
0
LINE
8
BLACK
6
CONTINUOUS
10
-1.0993919291338583
20
0.6303574015748031
11
-0.9937749212598425
21
0.5811074015748031
0
LINE
8
BLACK
6
CONTINUOUS
10
-0.9937749212598425
20
0.5811074015748031
11
-0.9934652362204724
21
0.5808803149606299
0
LINE
8
BLACK
6
CONTINUOUS
10
-0.9934652362204724
20
0.5808803149606299
11
-0.9932075984251968
21
0.5801724409448819
0
LINE
8
BLACK
6
CONTINUOUS
10
-0.9932075984251968
20
0.5801724409448819
11
-0.9932988582677165
21
0.5797994094488189
0
LINE
8
BLACK
6
CONTINUOUS
10
-0.9932988582677165
20
0.5797994094488189
11
-1.0175911023622046
21
0.5277045275590551
0
LINE
8
BLACK
6
CONTINUOUS
10
-1.0175911023622046
20
0.5277045275590551
11
-1.017818188976378
21
0.5273948031496063
0
LINE
8
BLACK
6
CONTINUOUS
10
-1.017818188976378
20
0.5273948031496063
11
-1.0185261023622048
21
0.5271371653543308
0
LINE
8
BLACK
6
CONTINUOUS
10
-1.0185261023622048
20
0.5271371653543308
11
-1.018899094488189
21
0.5272284251968504
0
LINE
8
BLACK
6
CONTINUOUS
10
-1.018899094488189
20
0.5272284251968504
11
-1.124516062992126
21
0.5764784251968503
0
LINE
8
BLACK
6
CONTINUOUS
10
-1.124516062992126
20
0.5764784251968503
11
-1.1248257874015748
21
0.5767055118110236
0
LINE
8
BLACK
6
CONTINUOUS
10
-1.1248257874015748
20
0.5767055118110236
11
-1.1250834251968505
21
0.5774134251968503
0
LINE
8
BLACK
6
CONTINUOUS
10
-1.1250834251968505
20
0.5774134251968503
11
-1.1249921653543307
21
0.5777864173228346
0
LINE
8
BLACK
6
CONTINUOUS
10
-1.1249921653543307
20
0.5777864173228346
11
-1.1006999212598425
21
0.6298813385826771
0
LINE
8
BLACK
6
CONTINUOUS
10
-1.1006999212598425
20
0.6298813385826771
11
-1.1004728346456694
21
0.6301910236220473
0
LINE
8
BLACK
6
CONTINUOUS
10
-1.1004728346456694
20
0.6301910236220473
11
-1.0997649212598426
21
0.6304486614173228
0
LINE
8
BLACK
6
CONTINUOUS
10
-1.0997649212598426
20
0.6304486614173228
11
-1.0993919291338583
21
0.6303574015748031
0
LINE
8
BLACK
6
CONTINUOUS
10
-1.1227921259842519
20
0.5778465748031496
11
-1.018959251968504
21
0.5294285039370079
0
LINE
8
BLACK
6
CONTINUOUS
10
-1.018959251968504
20
0.5294285039370079
11
-0.995498937007874
21
0.5797392913385827
0
LINE
8
BLACK
6
CONTINUOUS
10
-0.995498937007874
20
0.5797392913385827
11
-1.0993318110236221
21
0.6281573622047244
0
LINE
8
BLACK
6
CONTINUOUS
10
-1.0993318110236221
20
0.6281573622047244
11
-1.1227921259842519
21
0.5778465748031496
0
LINE
8
BLACK
6
CONTINUOUS
10
-0.7534816141732283
20
0.6999250787401574
11
-0.752948937007874
21
0.6993924015748031
0
LINE
8
BLACK
6
CONTINUOUS
10
-0.752948937007874
20
0.6993924015748031
11
-0.7528740157480315
21
0.699015748031496
0
LINE
8
BLACK
6
CONTINUOUS
10
-0.7528740157480315
20
0.699015748031496
11
-0.7528740157480315
21
0.5824803149606299
0
LINE
8
BLACK
6
CONTINUOUS
10
-0.7528740157480315
20
0.5824803149606299
11
-0.752948937007874
21
0.5821036614173228
0
LINE
8
BLACK
6
CONTINUOUS
10
-0.752948937007874
20
0.5821036614173228
11
-0.7534816141732283
21
0.5815709842519685
0
LINE
8
BLACK
6
CONTINUOUS
10
-0.7534816141732283
20
0.5815709842519685
11
-0.7538582677165354
21
0.581496062992126
0
LINE
8
BLACK
6
CONTINUOUS
10
-0.7538582677165354
20
0.581496062992126
11
-0.8113385826771653
21
0.581496062992126
0
LINE
8
BLACK
6
CONTINUOUS
10
-0.8113385826771653
20
0.581496062992126
11
-0.8117152362204724
21
0.5815709842519685
0
LINE
8
BLACK
6
CONTINUOUS
10
-0.8117152362204724
20
0.5815709842519685
11
-0.8122479133858268
21
0.5821036614173228
0
LINE
8
BLACK
6
CONTINUOUS
10
-0.8122479133858268
20
0.5821036614173228
11
-0.8123228346456692
21
0.5824803149606299
0
LINE
8
BLACK
6
CONTINUOUS
10
-0.8123228346456692
20
0.5824803149606299
11
-0.8123228346456692
21
0.699015748031496
0
LINE
8
BLACK
6
CONTINUOUS
10
-0.8123228346456692
20
0.699015748031496
11
-0.8122479133858268
21
0.6993924015748031
0
LINE
8
BLACK
6
CONTINUOUS
10
-0.8122479133858268
20
0.6993924015748031
11
-0.8117152362204724
21
0.6999250787401574
0
LINE
8
BLACK
6
CONTINUOUS
10
-0.8117152362204724
20
0.6999250787401574
11
-0.8113385826771653
21
0.7
0
LINE
8
BLACK
6
CONTINUOUS
10
-0.8113385826771653
20
0.7
11
-0.7538582677165354
21
0.7
0
LINE
8
BLACK
6
CONTINUOUS
10
-0.7538582677165354
20
0.7
11
-0.7534816141732283
21
0.6999250787401574
0
LINE
8
BLACK
6
CONTINUOUS
10
-0.8103543307086614
20
0.6980314960629921
11
-0.8103543307086614
21
0.5834645669291338
0
LINE
8
BLACK
6
CONTINUOUS
10
-0.8103543307086614
20
0.5834645669291338
11
-0.7548425196850393
21
0.5834645669291338
0
LINE
8
BLACK
6
CONTINUOUS
10
-0.7548425196850393
20
0.5834645669291338
11
-0.7548425196850393
21
0.6980314960629921
0
LINE
8
BLACK
6
CONTINUOUS
10
-0.7548425196850393
20
0.6980314960629921
11
-0.8103543307086614
21
0.6980314960629921
0
LINE
8
BLACK
6
CONTINUOUS
10
-0.6834816141732283
20
0.6999250787401574
11
-0.682948937007874
21
0.6993924015748031
0
LINE
8
BLACK
6
CONTINUOUS
10
-0.682948937007874
20
0.6993924015748031
11
-0.6828740157480315
21
0.699015748031496
0
LINE
8
BLACK
6
CONTINUOUS
10
-0.6828740157480315
20
0.699015748031496
11
-0.6828740157480315
21
0.5824803149606299
0
LINE
8
BLACK
6
CONTINUOUS
10
-0.6828740157480315
20
0.5824803149606299
11
-0.682948937007874
21
0.5821036614173228
0
LINE
8
BLACK
6
CONTINUOUS
10
-0.682948937007874
20
0.5821036614173228
11
-0.6834816141732283
21
0.5815709842519685
0
LINE
8
BLACK
6
CONTINUOUS
10
-0.6834816141732283
20
0.5815709842519685
11
-0.6838582677165355
21
0.581496062992126
0
LINE
8
BLACK
6
CONTINUOUS
10
-0.6838582677165355
20
0.581496062992126
11
-0.7413385826771653
21
0.581496062992126
0
LINE
8
BLACK
6
CONTINUOUS
10
-0.7413385826771653
20
0.581496062992126
11
-0.7417152362204724
21
0.5815709842519685
0
LINE
8
BLACK
6
CONTINUOUS
10
-0.7417152362204724
20
0.5815709842519685
11
-0.7422479133858267
21
0.5821036614173228
0
LINE
8
BLACK
6
CONTINUOUS
10
-0.7422479133858267
20
0.5821036614173228
11
-0.7423228346456693
21
0.5824803149606299
0
LINE
8
BLACK
6
CONTINUOUS
10
-0.7423228346456693
20
0.5824803149606299
11
-0.7423228346456693
21
0.699015748031496
0
LINE
8
BLACK
6
CONTINUOUS
10
-0.7423228346456693
20
0.699015748031496
11
-0.7422479133858267
21
0.6993924015748031
0
LINE
8
BLACK
6
CONTINUOUS
10
-0.7422479133858267
20
0.6993924015748031
11
-0.7417152362204724
21
0.6999250787401574
0
LINE
8
BLACK
6
CONTINUOUS
10
-0.7417152362204724
20
0.6999250787401574
11
-0.7413385826771653
21
0.7
0
LINE
8
BLACK
6
CONTINUOUS
10
-0.7413385826771653
20
0.7
11
-0.6838582677165355
21
0.7
0
LINE
8
BLACK
6
CONTINUOUS
10
-0.6838582677165355
20
0.7
11
-0.6834816141732283
21
0.6999250787401574
0
LINE
8
BLACK
6
CONTINUOUS
10
-0.7403543307086614
20
0.6980314960629921
11
-0.7403543307086614
21
0.5834645669291338
0
LINE
8
BLACK
6
CONTINUOUS
10
-0.7403543307086614
20
0.5834645669291338
11
-0.6848425196850394
21
0.5834645669291338
0
LINE
8
BLACK
6
CONTINUOUS
10
-0.6848425196850394
20
0.5834645669291338
11
-0.6848425196850394
21
0.6980314960629921
0
LINE
8
BLACK
6
CONTINUOUS
10
-0.6848425196850394
20
0.6980314960629921
11
-0.7403543307086614
21
0.6980314960629921
0
LINE
8
BLACK
6
CONTINUOUS
10
-0.0235479133858268
20
0.7026372834645669
11
-0.0232484251968504
21
0.7023969291338582
0
LINE
8
BLACK
6
CONTINUOUS
10
-0.0232484251968504
20
0.7023969291338582
11
0.0136992125984252
21
0.6583644488188977
0
LINE
8
BLACK
6
CONTINUOUS
10
0.0136992125984252
20
0.6583644488188977
11
0.013883937007874
21
0.6580277559055118
0
LINE
8
BLACK
6
CONTINUOUS
10
0.013883937007874
20
0.6580277559055118
11
0.0138182677165354
21
0.6572772834645669
0
LINE
8
BLACK
6
CONTINUOUS
10
0.0138182677165354
20
0.6572772834645669
11
0.0135779133858268
21
0.6569777952755905
0
LINE
8
BLACK
6
CONTINUOUS
10
0.0135779133858268
20
0.6569777952755905
11
-0.0756934251968504
21
0.5820702755905511
0
LINE
8
BLACK
6
CONTINUOUS
10
-0.0756934251968504
20
0.5820702755905511
11
-0.0760301181102362
21
0.5818855511811023
0
LINE
8
BLACK
6
CONTINUOUS
10
-0.0760301181102362
20
0.5818855511811023
11
-0.0767805905511811
21
0.581951220472441
0
LINE
8
BLACK
6
CONTINUOUS
10
-0.0767805905511811
20
0.581951220472441
11
-0.0770800787401575
21
0.5821915748031496
0
LINE
8
BLACK
6
CONTINUOUS
10
-0.0770800787401575
20
0.5821915748031496
11
-0.1140277165354331
21
0.6262240551181102
0
LINE
8
BLACK
6
CONTINUOUS
10
-0.1140277165354331
20
0.6262240551181102
11
-0.1142124409448819
21
0.6265607480314961
0
LINE
8
BLACK
6
CONTINUOUS
10
-0.1142124409448819
20
0.6265607480314961
11
-0.1141467716535433
21
0.6273112204724409
0
LINE
8
BLACK
6
CONTINUOUS
10
-0.1141467716535433
20
0.6273112204724409
11
-0.1139064173228346
21
0.6276107086614173
0
LINE
8
BLACK
6
CONTINUOUS
10
-0.1139064173228346
20
0.6276107086614173
11
-0.0246350787401575
21
0.7025182283464567
0
LINE
8
BLACK
6
CONTINUOUS
10
-0.0246350787401575
20
0.7025182283464567
11
-0.0242983858267717
21
0.7027029527559054
0
LINE
8
BLACK
6
CONTINUOUS
10
-0.0242983858267717
20
0.7027029527559054
11
-0.0235479133858268
21
0.7026372834645669
0
LINE
8
BLACK
6
CONTINUOUS
10
-0.111887125984252
20
0.6267354330708661
11
-0.0762048031496063
21
0.584210905511811
0
LINE
8
BLACK
6
CONTINUOUS
10
-0.0762048031496063
20
0.584210905511811
11
0.0115585826771654
21
0.6578531102362205
0
LINE
8
BLACK
6
CONTINUOUS
10
0.0115585826771654
20
0.6578531102362205
11
-0.0241237401574803
21
0.7003776377952756
0
LINE
8
BLACK
6
CONTINUOUS
10
-0.0241237401574803
20
0.7003776377952756
11
-0.111887125984252
21
0.6267354330708661
0
LINE
8
BLACK
6
CONTINUOUS
10
-0.2282496062992126
20
0.8656661417322834
11
-0.2279302755905512
21
0.8654527952755905
0
LINE
8
BLACK
6
CONTINUOUS
10
-0.2279302755905512
20
0.8654527952755905
11
-0.063681062992126
21
0.7012035826771653
0
LINE
8
BLACK
6
CONTINUOUS
10
-0.063681062992126
20
0.7012035826771653
11
-0.0634677165354331
21
0.7008842519685039
0
LINE
8
BLACK
6
CONTINUOUS
10
-0.0634677165354331
20
0.7008842519685039
11
-0.0634677165354331
21
0.7001309448818898
0
LINE
8
BLACK
6
CONTINUOUS
10
-0.0634677165354331
20
0.7001309448818898
11
-0.0636811023622047
21
0.6998116141732283
0
LINE
8
BLACK
6
CONTINUOUS
10
-0.0636811023622047
20
0.6998116141732283
11
-0.1722525590551181
21
0.5912401181102362
0
LINE
8
BLACK
6
CONTINUOUS
10
-0.1722525590551181
20
0.5912401181102362
11
-0.1725718897637795
21
0.5910267716535433
0
LINE
8
BLACK
6
CONTINUOUS
10
-0.1725718897637795
20
0.5910267716535433
11
-0.1733251968503937
21
0.5910267716535433
0
LINE
8
BLACK
6
CONTINUOUS
10
-0.1733251968503937
20
0.5910267716535433
11
-0.1736445275590551
21
0.5912401181102362
0
LINE
8
BLACK
6
CONTINUOUS
10
-0.1736445275590551
20
0.5912401181102362
11
-0.3378937401574803
21
0.7554893307086614
0
LINE
8
BLACK
6
CONTINUOUS
10
-0.3378937401574803
20
0.7554893307086614
11
-0.3381070866141732
21
0.7558086614173228
0
LINE
8
BLACK
6
CONTINUOUS
10
-0.3381070866141732
20
0.7558086614173228
11
-0.3381070866141732
21
0.756561968503937
0
LINE
8
BLACK
6
CONTINUOUS
10
-0.3381070866141732
20
0.756561968503937
11
-0.3378937401574803
21
0.7568812992125984
0
LINE
8
BLACK
6
CONTINUOUS
10
-0.3378937401574803
20
0.7568812992125984
11
-0.2293222440944882
21
0.8654527559055117
0
LINE
8
BLACK
6
CONTINUOUS
10
-0.2293222440944882
20
0.8654527559055117
11
-0.2290029133858268
21
0.8656661417322834
0
LINE
8
BLACK
6
CONTINUOUS
10
-0.2290029133858268
20
0.8656661417322834
11
-0.2282496062992126
21
0.8656661417322834
0
LINE
8
BLACK
6
CONTINUOUS
10
-0.3358058267716535
20
0.7561853543307087
11
-0.1729485433070866
21
0.5933280708661417
0
LINE
8
BLACK
6
CONTINUOUS
10
-0.1729485433070866
20
0.5933280708661417
11
-0.0657690157480315
21
0.7005075984251968
0
LINE
8
BLACK
6
CONTINUOUS
10
-0.0657690157480315
20
0.7005075984251968
11
-0.2286262992125984
21
0.8633648818897638
0
LINE
8
BLACK
6
CONTINUOUS
10
-0.2286262992125984
20
0.8633648818897638
11
-0.3358058267716535
21
0.7561853543307087
0
LINE
8
BLACK
6
CONTINUOUS
10
-0.8478516929133858
20
0.675318779527559
11
-0.8473190157480315
21
0.6747861023622047
0
LINE
8
BLACK
6
CONTINUOUS
10
-0.8473190157480315
20
0.6747861023622047
11
-0.8472440944881889
21
0.6744094488188976
0
LINE
8
BLACK
6
CONTINUOUS
10
-0.8472440944881889
20
0.6744094488188976
11
-0.8472440944881889
21
0.6169291338582678
0
LINE
8
BLACK
6
CONTINUOUS
10
-0.8472440944881889
20
0.6169291338582678
11
-0.8473190157480315
21
0.6165524803149606
0
LINE
8
BLACK
6
CONTINUOUS
10
-0.8473190157480315
20
0.6165524803149606
11
-0.8478516929133858
21
0.6160198031496062
0
LINE
8
BLACK
6
CONTINUOUS
10
-0.8478516929133858
20
0.6160198031496062
11
-0.8482283464566929
21
0.6159448818897638
0
LINE
8
BLACK
6
CONTINUOUS
10
-0.8482283464566929
20
0.6159448818897638
11
-0.964763779527559
21
0.6159448818897638
0
LINE
8
BLACK
6
CONTINUOUS
10
-0.964763779527559
20
0.6159448818897638
11
-0.9651404330708662
21
0.6160198031496062
0
LINE
8
BLACK
6
CONTINUOUS
10
-0.9651404330708662
20
0.6160198031496062
11
-0.9656731102362205
21
0.6165524803149606
0
LINE
8
BLACK
6
CONTINUOUS
10
-0.9656731102362205
20
0.6165524803149606
11
-0.9657480314960629
21
0.6169291338582678
0
LINE
8
BLACK
6
CONTINUOUS
10
-0.9657480314960629
20
0.6169291338582678
11
-0.9657480314960629
21
0.6744094488188976
0
LINE
8
BLACK
6
CONTINUOUS
10
-0.9657480314960629
20
0.6744094488188976
11
-0.9656731102362205
21
0.6747861023622047
0
LINE
8
BLACK
6
CONTINUOUS
10
-0.9656731102362205
20
0.6747861023622047
11
-0.9651404330708662
21
0.675318779527559
0
LINE
8
BLACK
6
CONTINUOUS
10
-0.9651404330708662
20
0.675318779527559
11
-0.964763779527559
21
0.6753937007874016
0
LINE
8
BLACK
6
CONTINUOUS
10
-0.964763779527559
20
0.6753937007874016
11
-0.8482283464566929
21
0.6753937007874016
0
LINE
8
BLACK
6
CONTINUOUS
10
-0.8482283464566929
20
0.6753937007874016
11
-0.8478516929133858
21
0.675318779527559
0
LINE
8
BLACK
6
CONTINUOUS
10
-0.963779527559055
20
0.6734251968503937
11
-0.963779527559055
21
0.6179133858267717
0
LINE
8
BLACK
6
CONTINUOUS
10
-0.963779527559055
20
0.6179133858267717
11
-0.8492125984251968
21
0.6179133858267717
0
LINE
8
BLACK
6
CONTINUOUS
10
-0.8492125984251968
20
0.6179133858267717
11
-0.8492125984251968
21
0.6734251968503937
0
LINE
8
BLACK
6
CONTINUOUS
10
-0.8492125984251968
20
0.6734251968503937
11
-0.963779527559055
21
0.6734251968503937
0
LINE
8
BLACK
6
CONTINUOUS
10
-0.135787874015748
20
0.9306027559055118
11
-0.1354685433070866
21
0.9303894094488189
0
LINE
8
BLACK
6
CONTINUOUS
10
-0.1354685433070866
20
0.9303894094488189
11
0.0120773622047244
21
0.7828435039370079
0
LINE
8
BLACK
6
CONTINUOUS
10
0.0120773622047244
20
0.7828435039370079
11
0.0122907086614173
21
0.7825241732283464
0
LINE
8
BLACK
6
CONTINUOUS
10
0.0122907086614173
20
0.7825241732283464
11
0.0122907086614173
21
0.7817708661417323
0
LINE
8
BLACK
6
CONTINUOUS
10
0.0122907086614173
20
0.7817708661417323
11
0.0120773622047244
21
0.7814515748031496
0
LINE
8
BLACK
6
CONTINUOUS
10
0.0120773622047244
20
0.7814515748031496
11
-0.0491680708661417
21
0.7202061023622047
0
LINE
8
BLACK
6
CONTINUOUS
10
-0.0491680708661417
20
0.7202061023622047
11
-0.0494874015748031
21
0.7199927559055118
0
LINE
8
BLACK
6
CONTINUOUS
10
-0.0494874015748031
20
0.7199927559055118
11
-0.0502407086614173
21
0.7199927559055118
0
LINE
8
BLACK
6
CONTINUOUS
10
-0.0502407086614173
20
0.7199927559055118
11
-0.0505600393700787
21
0.7202061023622047
0
LINE
8
BLACK
6
CONTINUOUS
10
-0.0505600393700787
20
0.7202061023622047
11
-0.1981059448818898
21
0.8677520078740157
0
LINE
8
BLACK
6
CONTINUOUS
10
-0.1981059448818898
20
0.8677520078740157
11
-0.1983192913385827
21
0.8680713385826772
0
LINE
8
BLACK
6
CONTINUOUS
10
-0.1983192913385827
20
0.8680713385826772
11
-0.1983192913385827
21
0.8688246456692913
0
LINE
8
BLACK
6
CONTINUOUS
10
-0.1983192913385827
20
0.8688246456692913
11
-0.1981059448818898
21
0.8691439763779527
0
LINE
8
BLACK
6
CONTINUOUS
10
-0.1981059448818898
20
0.8691439763779527
11
-0.1368604724409449
21
0.9303894094488189
0
LINE
8
BLACK
6
CONTINUOUS
10
-0.1368604724409449
20
0.9303894094488189
11
-0.1365411811023622
21
0.9306027559055118
0
LINE
8
BLACK
6
CONTINUOUS
10
-0.1365411811023622
20
0.9306027559055118
11
-0.135787874015748
21
0.9306027559055118
0
LINE
8
BLACK
6
CONTINUOUS
10
-0.196018031496063
20
0.868448031496063
11
-0.0498640551181102
21
0.7222940551181102
0
LINE
8
BLACK
6
CONTINUOUS
10
-0.0498640551181102
20
0.7222940551181102
11
0.0099894094488189
21
0.7821475196850394
0
LINE
8
BLACK
6
CONTINUOUS
10
0.0099894094488189
20
0.7821475196850394
11
-0.1361645669291339
21
0.9283014960629921
0
LINE
8
BLACK
6
CONTINUOUS
10
-0.1361645669291339
20
0.9283014960629921
11
-0.196018031496063
21
0.868448031496063
0
CIRCLE
8
BLACK
10
1.3700787401574803
20
-0.1732283464566929
40
0.0068897637795276
  0
ENDSEC
  0
EOF
