  0
SECTION
  2
HEADER
  9
$ANGBASE
  50
0.0
  9
$ANGDIR
  70
1
  9
$MEASUREMENT
  70
0
  0
ENDSEC
  0
SECTION
  2
TABLES
  0
TABLE
  2
LTYPE
  70
4
  0
LTYPE
  5
40F
  2
CONTINUOUS
  70
0
  3
Solid line
  72
65
  73
0
  40
0.0
  0
LTYPE
  5
410
  2
DASHDOT
 70
0
  3
Dash Dot ____ _ ____ _
 72
65
 73
4
 40
2.0
 49
1.25
 49
-0.25
 49
0.25
 49
-0.25
  0
LTYPE
  5
411
  2
DASHED
 70
0
  3
Dashed __ __ __ __ __
 72
65
 73
2
 40
0.75
 49
0.5
 49
-0.25
  0
LTYPE
  5
43B
  2
DOTTED
 70
0
  3
Dotted .  .  .  .
 72
65
 73
2
 40
0.2
 49
0.0
 49
-0.2
  0
ENDTAB
  0
TABLE
  2
STYLE
  70
4
  0
STYLE
  2
KICAD
  70
0
  40
0
  41
1
  42
1
  50
0
  71
0
  3
isocp.shx
  0
STYLE
  2
KICADB
  70
0
  40
0
  41
1
  42
1
  50
0
  71
0
  3
isocp.shx
  0
STYLE
  2
KICADI
  70
0
  40
0
  41
1
  42
1
  50
15
  71
0
  3
isocp.shx
  0
STYLE
  2
KICADBI
  70
0
  40
0
  41
1
  42
1
  50
15
  71
0
  3
isocp.shx
  0
ENDTAB
  0
TABLE
  2
LAYER
  70
1
  0
LAYER
  2
BLACK
  70
0
  62
7
  6
CONTINUOUS
  0
ENDTAB
  0
ENDSEC
  0
SECTION
  2
ENTITIES
0
LINE
8
BLACK
6
CONTINUOUS
10
0.4134445669291338
20
0.5193237007874015
11
0.4267200393700787
21
0.5170681102362205
0
LINE
8
BLACK
6
CONTINUOUS
10
0.4267200393700787
20
0.5170681102362205
11
0.4396594881889764
21
0.5133403149606299
0
LINE
8
BLACK
6
CONTINUOUS
10
0.4396594881889764
20
0.5133403149606299
11
0.4521001968503937
21
0.5081872047244095
0
LINE
8
BLACK
6
CONTINUOUS
10
0.4521001968503937
20
0.5081872047244095
11
0.4638857480314961
21
0.5016735826771653
0
LINE
8
BLACK
6
CONTINUOUS
10
0.4638857480314961
20
0.5016735826771653
11
0.474867874015748
21
0.4938813385826771
0
LINE
8
BLACK
6
CONTINUOUS
10
0.474867874015748
20
0.4938813385826771
11
0.4849085039370079
21
0.4849085039370079
0
LINE
8
BLACK
6
CONTINUOUS
10
0.4849085039370079
20
0.4849085039370079
11
0.4938813385826771
21
0.474867874015748
0
LINE
8
BLACK
6
CONTINUOUS
10
0.4938813385826771
20
0.474867874015748
11
0.5016735826771653
21
0.4638857480314961
0
LINE
8
BLACK
6
CONTINUOUS
10
0.5016735826771653
20
0.4638857480314961
11
0.5081872047244095
21
0.4521001968503937
0
LINE
8
BLACK
6
CONTINUOUS
10
0.5081872047244095
20
0.4521001968503937
11
0.5133403149606299
21
0.4396594881889764
0
LINE
8
BLACK
6
CONTINUOUS
10
0.5133403149606299
20
0.4396594881889764
11
0.5170681102362205
21
0.4267200393700787
0
LINE
8
BLACK
6
CONTINUOUS
10
0.5170681102362205
20
0.4267200393700787
11
0.5193237007874015
21
0.4134445669291338
0
LINE
8
BLACK
6
CONTINUOUS
10
0.5193237007874015
20
0.4134445669291338
11
0.5200787401574803
21
0.4
0
LINE
8
BLACK
6
CONTINUOUS
10
0.5200787401574803
20
0.4
11
0.5193237007874015
21
0.3865554330708662
0
LINE
8
BLACK
6
CONTINUOUS
10
0.5193237007874015
20
0.3865554330708662
11
0.5170681102362205
21
0.3732799606299212
0
LINE
8
BLACK
6
CONTINUOUS
10
0.5170681102362205
20
0.3732799606299212
11
0.5133403149606299
21
0.3603405118110236
0
LINE
8
BLACK
6
CONTINUOUS
10
0.5133403149606299
20
0.3603405118110236
11
0.5081872047244095
21
0.3478998031496063
0
LINE
8
BLACK
6
CONTINUOUS
10
0.5081872047244095
20
0.3478998031496063
11
0.5016735826771653
21
0.3361142519685039
0
LINE
8
BLACK
6
CONTINUOUS
10
0.5016735826771653
20
0.3361142519685039
11
0.4938813385826771
21
0.325132125984252
0
LINE
8
BLACK
6
CONTINUOUS
10
0.4938813385826771
20
0.325132125984252
11
0.4849085039370079
21
0.3150914960629921
0
LINE
8
BLACK
6
CONTINUOUS
10
0.4849085039370079
20
0.3150914960629921
11
0.474867874015748
21
0.3061186614173228
0
LINE
8
BLACK
6
CONTINUOUS
10
0.474867874015748
20
0.3061186614173228
11
0.4638857480314961
21
0.2983264173228347
0
LINE
8
BLACK
6
CONTINUOUS
10
0.4638857480314961
20
0.2983264173228347
11
0.4521001968503937
21
0.2918127952755906
0
LINE
8
BLACK
6
CONTINUOUS
10
0.4521001968503937
20
0.2918127952755906
11
0.4396594881889764
21
0.2866596850393701
0
LINE
8
BLACK
6
CONTINUOUS
10
0.4396594881889764
20
0.2866596850393701
11
0.4267200393700787
21
0.2829318897637795
0
LINE
8
BLACK
6
CONTINUOUS
10
0.4267200393700787
20
0.2829318897637795
11
0.4134445669291338
21
0.2806762992125984
0
LINE
8
BLACK
6
CONTINUOUS
10
0.4134445669291338
20
0.2806762992125984
11
0.4
21
0.2799212598425197
0
LINE
8
BLACK
6
CONTINUOUS
10
0.4
20
0.2799212598425197
11
0.3865554330708662
21
0.2806762992125984
0
LINE
8
BLACK
6
CONTINUOUS
10
0.3865554330708662
20
0.2806762992125984
11
0.3732799606299212
21
0.2829318897637795
0
LINE
8
BLACK
6
CONTINUOUS
10
0.3732799606299212
20
0.2829318897637795
11
0.3603405118110236
21
0.2866596850393701
0
LINE
8
BLACK
6
CONTINUOUS
10
0.3603405118110236
20
0.2866596850393701
11
0.3478998031496063
21
0.2918127952755906
0
LINE
8
BLACK
6
CONTINUOUS
10
0.3478998031496063
20
0.2918127952755906
11
0.3361142519685039
21
0.2983264173228347
0
LINE
8
BLACK
6
CONTINUOUS
10
0.3361142519685039
20
0.2983264173228347
11
0.325132125984252
21
0.3061186614173228
0
LINE
8
BLACK
6
CONTINUOUS
10
0.325132125984252
20
0.3061186614173228
11
0.3150914960629921
21
0.3150914960629921
0
LINE
8
BLACK
6
CONTINUOUS
10
0.3150914960629921
20
0.3150914960629921
11
0.3061186614173228
21
0.325132125984252
0
LINE
8
BLACK
6
CONTINUOUS
10
0.3061186614173228
20
0.325132125984252
11
0.2983264173228347
21
0.3361142519685039
0
LINE
8
BLACK
6
CONTINUOUS
10
0.2983264173228347
20
0.3361142519685039
11
0.2918127952755906
21
0.3478998031496063
0
LINE
8
BLACK
6
CONTINUOUS
10
0.2918127952755906
20
0.3478998031496063
11
0.2866596850393701
21
0.3603405118110236
0
LINE
8
BLACK
6
CONTINUOUS
10
0.2866596850393701
20
0.3603405118110236
11
0.2829318897637795
21
0.3732799606299212
0
LINE
8
BLACK
6
CONTINUOUS
10
0.2829318897637795
20
0.3732799606299212
11
0.2806762992125984
21
0.3865554330708662
0
LINE
8
BLACK
6
CONTINUOUS
10
0.2806762992125984
20
0.3865554330708662
11
0.2799212598425197
21
0.4
0
LINE
8
BLACK
6
CONTINUOUS
10
0.2799212598425197
20
0.4
11
0.2806762992125984
21
0.4134445669291338
0
LINE
8
BLACK
6
CONTINUOUS
10
0.2806762992125984
20
0.4134445669291338
11
0.2829318897637795
21
0.4267200393700787
0
LINE
8
BLACK
6
CONTINUOUS
10
0.2829318897637795
20
0.4267200393700787
11
0.2866596850393701
21
0.4396594881889764
0
LINE
8
BLACK
6
CONTINUOUS
10
0.2866596850393701
20
0.4396594881889764
11
0.2918127952755906
21
0.4521001968503937
0
LINE
8
BLACK
6
CONTINUOUS
10
0.2918127952755906
20
0.4521001968503937
11
0.2983264173228347
21
0.4638857480314961
0
LINE
8
BLACK
6
CONTINUOUS
10
0.2983264173228347
20
0.4638857480314961
11
0.3061186614173228
21
0.474867874015748
0
LINE
8
BLACK
6
CONTINUOUS
10
0.3061186614173228
20
0.474867874015748
11
0.3150914960629921
21
0.4849085039370079
0
LINE
8
BLACK
6
CONTINUOUS
10
0.3150914960629921
20
0.4849085039370079
11
0.325132125984252
21
0.4938813385826771
0
LINE
8
BLACK
6
CONTINUOUS
10
0.325132125984252
20
0.4938813385826771
11
0.3361142519685039
21
0.5016735826771653
0
LINE
8
BLACK
6
CONTINUOUS
10
0.3361142519685039
20
0.5016735826771653
11
0.3478998031496063
21
0.5081872047244095
0
LINE
8
BLACK
6
CONTINUOUS
10
0.3478998031496063
20
0.5081872047244095
11
0.3603405118110236
21
0.5133403149606299
0
LINE
8
BLACK
6
CONTINUOUS
10
0.3603405118110236
20
0.5133403149606299
11
0.3732799606299212
21
0.5170681102362205
0
LINE
8
BLACK
6
CONTINUOUS
10
0.3732799606299212
20
0.5170681102362205
11
0.3865554330708662
21
0.5193237007874015
0
LINE
8
BLACK
6
CONTINUOUS
10
0.3865554330708662
20
0.5193237007874015
11
0.4
21
0.5200787401574803
0
LINE
8
BLACK
6
CONTINUOUS
10
0.4
20
0.5200787401574803
11
0.4134445669291338
21
0.5193237007874015
0
LINE
8
BLACK
6
CONTINUOUS
10
2.413444566929134
20
0.5193237007874015
11
2.4267200393700787
21
0.5170681102362205
0
LINE
8
BLACK
6
CONTINUOUS
10
2.4267200393700787
20
0.5170681102362205
11
2.4396594881889762
21
0.5133403149606299
0
LINE
8
BLACK
6
CONTINUOUS
10
2.4396594881889762
20
0.5133403149606299
11
2.4521001968503935
21
0.5081872047244095
0
LINE
8
BLACK
6
CONTINUOUS
10
2.4521001968503935
20
0.5081872047244095
11
2.4638857480314962
21
0.5016735826771653
0
LINE
8
BLACK
6
CONTINUOUS
10
2.4638857480314962
20
0.5016735826771653
11
2.4748678740157479
21
0.4938813385826771
0
LINE
8
BLACK
6
CONTINUOUS
10
2.4748678740157479
20
0.4938813385826771
11
2.484908503937008
21
0.4849085039370079
0
LINE
8
BLACK
6
CONTINUOUS
10
2.484908503937008
20
0.4849085039370079
11
2.493881338582677
21
0.474867874015748
0
LINE
8
BLACK
6
CONTINUOUS
10
2.493881338582677
20
0.474867874015748
11
2.5016735826771654
21
0.4638857480314961
0
LINE
8
BLACK
6
CONTINUOUS
10
2.5016735826771654
20
0.4638857480314961
11
2.5081872047244094
21
0.4521001968503937
0
LINE
8
BLACK
6
CONTINUOUS
10
2.5081872047244094
20
0.4521001968503937
11
2.5133403149606299
21
0.4396594881889764
0
LINE
8
BLACK
6
CONTINUOUS
10
2.5133403149606299
20
0.4396594881889764
11
2.5170681102362202
21
0.4267200393700787
0
LINE
8
BLACK
6
CONTINUOUS
10
2.5170681102362202
20
0.4267200393700787
11
2.5193237007874014
21
0.4134445669291338
0
LINE
8
BLACK
6
CONTINUOUS
10
2.5193237007874014
20
0.4134445669291338
11
2.5200787401574805
21
0.4
0
LINE
8
BLACK
6
CONTINUOUS
10
2.5200787401574805
20
0.4
11
2.5193237007874014
21
0.3865554330708662
0
LINE
8
BLACK
6
CONTINUOUS
10
2.5193237007874014
20
0.3865554330708662
11
2.5170681102362202
21
0.3732799606299212
0
LINE
8
BLACK
6
CONTINUOUS
10
2.5170681102362202
20
0.3732799606299212
11
2.5133403149606299
21
0.3603405118110236
0
LINE
8
BLACK
6
CONTINUOUS
10
2.5133403149606299
20
0.3603405118110236
11
2.5081872047244094
21
0.3478998031496063
0
LINE
8
BLACK
6
CONTINUOUS
10
2.5081872047244094
20
0.3478998031496063
11
2.5016735826771654
21
0.3361142519685039
0
LINE
8
BLACK
6
CONTINUOUS
10
2.5016735826771654
20
0.3361142519685039
11
2.493881338582677
21
0.325132125984252
0
LINE
8
BLACK
6
CONTINUOUS
10
2.493881338582677
20
0.325132125984252
11
2.484908503937008
21
0.3150914960629921
0
LINE
8
BLACK
6
CONTINUOUS
10
2.484908503937008
20
0.3150914960629921
11
2.4748678740157479
21
0.3061186614173228
0
LINE
8
BLACK
6
CONTINUOUS
10
2.4748678740157479
20
0.3061186614173228
11
2.4638857480314962
21
0.2983264173228347
0
LINE
8
BLACK
6
CONTINUOUS
10
2.4638857480314962
20
0.2983264173228347
11
2.4521001968503935
21
0.2918127952755906
0
LINE
8
BLACK
6
CONTINUOUS
10
2.4521001968503935
20
0.2918127952755906
11
2.4396594881889762
21
0.2866596850393701
0
LINE
8
BLACK
6
CONTINUOUS
10
2.4396594881889762
20
0.2866596850393701
11
2.4267200393700787
21
0.2829318897637795
0
LINE
8
BLACK
6
CONTINUOUS
10
2.4267200393700787
20
0.2829318897637795
11
2.413444566929134
21
0.2806762992125984
0
LINE
8
BLACK
6
CONTINUOUS
10
2.413444566929134
20
0.2806762992125984
11
2.3999999999999999
21
0.2799212598425197
0
LINE
8
BLACK
6
CONTINUOUS
10
2.3999999999999999
20
0.2799212598425197
11
2.3865554330708663
21
0.2806762992125984
0
LINE
8
BLACK
6
CONTINUOUS
10
2.3865554330708663
20
0.2806762992125984
11
2.3732799606299211
21
0.2829318897637795
0
LINE
8
BLACK
6
CONTINUOUS
10
2.3732799606299211
20
0.2829318897637795
11
2.3603405118110237
21
0.2866596850393701
0
LINE
8
BLACK
6
CONTINUOUS
10
2.3603405118110237
20
0.2866596850393701
11
2.3478998031496063
21
0.2918127952755906
0
LINE
8
BLACK
6
CONTINUOUS
10
2.3478998031496063
20
0.2918127952755906
11
2.3361142519685041
21
0.2983264173228347
0
LINE
8
BLACK
6
CONTINUOUS
10
2.3361142519685041
20
0.2983264173228347
11
2.3251321259842519
21
0.3061186614173228
0
LINE
8
BLACK
6
CONTINUOUS
10
2.3251321259842519
20
0.3061186614173228
11
2.3150914960629922
21
0.3150914960629921
0
LINE
8
BLACK
6
CONTINUOUS
10
2.3150914960629922
20
0.3150914960629921
11
2.3061186614173228
21
0.325132125984252
0
LINE
8
BLACK
6
CONTINUOUS
10
2.3061186614173228
20
0.325132125984252
11
2.2983264173228344
21
0.3361142519685039
0
LINE
8
BLACK
6
CONTINUOUS
10
2.2983264173228344
20
0.3361142519685039
11
2.2918127952755905
21
0.3478998031496063
0
LINE
8
BLACK
6
CONTINUOUS
10
2.2918127952755905
20
0.3478998031496063
11
2.2866596850393699
21
0.3603405118110236
0
LINE
8
BLACK
6
CONTINUOUS
10
2.2866596850393699
20
0.3603405118110236
11
2.2829318897637796
21
0.3732799606299212
0
LINE
8
BLACK
6
CONTINUOUS
10
2.2829318897637796
20
0.3732799606299212
11
2.2806762992125984
21
0.3865554330708662
0
LINE
8
BLACK
6
CONTINUOUS
10
2.2806762992125984
20
0.3865554330708662
11
2.2799212598425198
21
0.4
0
LINE
8
BLACK
6
CONTINUOUS
10
2.2799212598425198
20
0.4
11
2.2806762992125984
21
0.4134445669291338
0
LINE
8
BLACK
6
CONTINUOUS
10
2.2806762992125984
20
0.4134445669291338
11
2.2829318897637796
21
0.4267200393700787
0
LINE
8
BLACK
6
CONTINUOUS
10
2.2829318897637796
20
0.4267200393700787
11
2.2866596850393699
21
0.4396594881889764
0
LINE
8
BLACK
6
CONTINUOUS
10
2.2866596850393699
20
0.4396594881889764
11
2.2918127952755905
21
0.4521001968503937
0
LINE
8
BLACK
6
CONTINUOUS
10
2.2918127952755905
20
0.4521001968503937
11
2.2983264173228344
21
0.4638857480314961
0
LINE
8
BLACK
6
CONTINUOUS
10
2.2983264173228344
20
0.4638857480314961
11
2.3061186614173228
21
0.474867874015748
0
LINE
8
BLACK
6
CONTINUOUS
10
2.3061186614173228
20
0.474867874015748
11
2.3150914960629922
21
0.4849085039370079
0
LINE
8
BLACK
6
CONTINUOUS
10
2.3150914960629922
20
0.4849085039370079
11
2.3251321259842519
21
0.4938813385826771
0
LINE
8
BLACK
6
CONTINUOUS
10
2.3251321259842519
20
0.4938813385826771
11
2.3361142519685041
21
0.5016735826771653
0
LINE
8
BLACK
6
CONTINUOUS
10
2.3361142519685041
20
0.5016735826771653
11
2.3478998031496063
21
0.5081872047244095
0
LINE
8
BLACK
6
CONTINUOUS
10
2.3478998031496063
20
0.5081872047244095
11
2.3603405118110237
21
0.5133403149606299
0
LINE
8
BLACK
6
CONTINUOUS
10
2.3603405118110237
20
0.5133403149606299
11
2.3732799606299211
21
0.5170681102362205
0
LINE
8
BLACK
6
CONTINUOUS
10
2.3732799606299211
20
0.5170681102362205
11
2.3865554330708663
21
0.5193237007874015
0
LINE
8
BLACK
6
CONTINUOUS
10
2.3865554330708663
20
0.5193237007874015
11
2.3999999999999999
21
0.5200787401574803
0
LINE
8
BLACK
6
CONTINUOUS
10
2.3999999999999999
20
0.5200787401574803
11
2.413444566929134
21
0.5193237007874015
0
LINE
8
BLACK
6
CONTINUOUS
10
2.290753307086614
20
0.7218186614173229
11
2.2913919291338583
21
0.7213919291338583
0
LINE
8
BLACK
6
CONTINUOUS
10
2.2913919291338583
20
0.7213919291338583
11
2.2918186614173228
21
0.7207533070866141
0
LINE
8
BLACK
6
CONTINUOUS
10
2.2918186614173228
20
0.7207533070866141
11
2.2919685039370079
21
0.72
0
LINE
8
BLACK
6
CONTINUOUS
10
2.2919685039370079
20
0.72
11
2.2919685039370079
21
0.66
0
LINE
8
BLACK
6
CONTINUOUS
10
2.2919685039370079
20
0.66
11
2.2918186614173228
21
0.6592466929133858
0
LINE
8
BLACK
6
CONTINUOUS
10
2.2918186614173228
20
0.6592466929133858
11
2.2913919291338583
21
0.6586080708661417
0
LINE
8
BLACK
6
CONTINUOUS
10
2.2913919291338583
20
0.6586080708661417
11
2.290753307086614
21
0.6581813385826771
0
LINE
8
BLACK
6
CONTINUOUS
10
2.290753307086614
20
0.6581813385826771
11
2.29
21
0.6580314960629922
0
LINE
8
BLACK
6
CONTINUOUS
10
2.29
20
0.6580314960629922
11
2.23
21
0.6580314960629922
0
LINE
8
BLACK
6
CONTINUOUS
10
2.23
20
0.6580314960629922
11
2.2292466929133856
21
0.6581813385826771
0
LINE
8
BLACK
6
CONTINUOUS
10
2.2292466929133856
20
0.6581813385826771
11
2.2286080708661418
21
0.6586080708661417
0
LINE
8
BLACK
6
CONTINUOUS
10
2.2286080708661418
20
0.6586080708661417
11
2.2281813385826772
21
0.6592466929133858
0
LINE
8
BLACK
6
CONTINUOUS
10
2.2281813385826772
20
0.6592466929133858
11
2.2280314960629921
21
0.66
0
LINE
8
BLACK
6
CONTINUOUS
10
2.2280314960629921
20
0.66
11
2.2280314960629921
21
0.72
0
LINE
8
BLACK
6
CONTINUOUS
10
2.2280314960629921
20
0.72
11
2.2281813385826772
21
0.7207533070866141
0
LINE
8
BLACK
6
CONTINUOUS
10
2.2281813385826772
20
0.7207533070866141
11
2.2286080708661418
21
0.7213919291338583
0
LINE
8
BLACK
6
CONTINUOUS
10
2.2286080708661418
20
0.7213919291338583
11
2.2292466929133856
21
0.7218186614173229
0
LINE
8
BLACK
6
CONTINUOUS
10
2.2292466929133856
20
0.7218186614173229
11
2.23
21
0.7219685039370078
0
LINE
8
BLACK
6
CONTINUOUS
10
2.23
20
0.7219685039370078
11
2.29
21
0.7219685039370078
0
LINE
8
BLACK
6
CONTINUOUS
10
2.29
20
0.7219685039370078
11
2.290753307086614
21
0.7218186614173229
0
LINE
8
BLACK
6
CONTINUOUS
10
2.390753307086614
20
0.7218186614173229
11
2.3913919291338583
21
0.7213919291338583
0
LINE
8
BLACK
6
CONTINUOUS
10
2.3913919291338583
20
0.7213919291338583
11
2.3918186614173229
21
0.7207533070866141
0
LINE
8
BLACK
6
CONTINUOUS
10
2.3918186614173229
20
0.7207533070866141
11
2.391968503937008
21
0.72
0
LINE
8
BLACK
6
CONTINUOUS
10
2.391968503937008
20
0.72
11
2.391968503937008
21
0.66
0
LINE
8
BLACK
6
CONTINUOUS
10
2.391968503937008
20
0.66
11
2.3918186614173229
21
0.6592466929133858
0
LINE
8
BLACK
6
CONTINUOUS
10
2.3918186614173229
20
0.6592466929133858
11
2.3913919291338583
21
0.6586080708661417
0
LINE
8
BLACK
6
CONTINUOUS
10
2.3913919291338583
20
0.6586080708661417
11
2.390753307086614
21
0.6581813385826771
0
LINE
8
BLACK
6
CONTINUOUS
10
2.390753307086614
20
0.6581813385826771
11
2.3900000000000001
21
0.6580314960629922
0
LINE
8
BLACK
6
CONTINUOUS
10
2.3900000000000001
20
0.6580314960629922
11
2.3300000000000001
21
0.6580314960629922
0
LINE
8
BLACK
6
CONTINUOUS
10
2.3300000000000001
20
0.6580314960629922
11
2.3292466929133857
21
0.6581813385826771
0
LINE
8
BLACK
6
CONTINUOUS
10
2.3292466929133857
20
0.6581813385826771
11
2.3286080708661419
21
0.6586080708661417
0
LINE
8
BLACK
6
CONTINUOUS
10
2.3286080708661419
20
0.6586080708661417
11
2.3281813385826773
21
0.6592466929133858
0
LINE
8
BLACK
6
CONTINUOUS
10
2.3281813385826773
20
0.6592466929133858
11
2.3280314960629922
21
0.66
0
LINE
8
BLACK
6
CONTINUOUS
10
2.3280314960629922
20
0.66
11
2.3280314960629922
21
0.72
0
LINE
8
BLACK
6
CONTINUOUS
10
2.3280314960629922
20
0.72
11
2.3281813385826773
21
0.7207533070866141
0
LINE
8
BLACK
6
CONTINUOUS
10
2.3281813385826773
20
0.7207533070866141
11
2.3286080708661419
21
0.7213919291338583
0
LINE
8
BLACK
6
CONTINUOUS
10
2.3286080708661419
20
0.7213919291338583
11
2.3292466929133857
21
0.7218186614173229
0
LINE
8
BLACK
6
CONTINUOUS
10
2.3292466929133857
20
0.7218186614173229
11
2.3300000000000001
21
0.7219685039370078
0
LINE
8
BLACK
6
CONTINUOUS
10
2.3300000000000001
20
0.7219685039370078
11
2.3900000000000001
21
0.7219685039370078
0
LINE
8
BLACK
6
CONTINUOUS
10
2.3900000000000001
20
0.7219685039370078
11
2.390753307086614
21
0.7218186614173229
0
LINE
8
BLACK
6
CONTINUOUS
10
2.290753307086614
20
0.8218186614173228
11
2.2913919291338583
21
0.8213919291338583
0
LINE
8
BLACK
6
CONTINUOUS
10
2.2913919291338583
20
0.8213919291338583
11
2.2918186614173228
21
0.8207533070866142
0
LINE
8
BLACK
6
CONTINUOUS
10
2.2918186614173228
20
0.8207533070866142
11
2.2919685039370079
21
0.82
0
LINE
8
BLACK
6
CONTINUOUS
10
2.2919685039370079
20
0.82
11
2.2919685039370079
21
0.76
0
LINE
8
BLACK
6
CONTINUOUS
10
2.2919685039370079
20
0.76
11
2.2918186614173228
21
0.7592466929133858
0
LINE
8
BLACK
6
CONTINUOUS
10
2.2918186614173228
20
0.7592466929133858
11
2.2913919291338583
21
0.7586080708661417
0
LINE
8
BLACK
6
CONTINUOUS
10
2.2913919291338583
20
0.7586080708661417
11
2.290753307086614
21
0.7581813385826771
0
LINE
8
BLACK
6
CONTINUOUS
10
2.290753307086614
20
0.7581813385826771
11
2.29
21
0.7580314960629921
0
LINE
8
BLACK
6
CONTINUOUS
10
2.29
20
0.7580314960629921
11
2.23
21
0.7580314960629921
0
LINE
8
BLACK
6
CONTINUOUS
10
2.23
20
0.7580314960629921
11
2.2292466929133856
21
0.7581813385826771
0
LINE
8
BLACK
6
CONTINUOUS
10
2.2292466929133856
20
0.7581813385826771
11
2.2286080708661418
21
0.7586080708661417
0
LINE
8
BLACK
6
CONTINUOUS
10
2.2286080708661418
20
0.7586080708661417
11
2.2281813385826772
21
0.7592466929133858
0
LINE
8
BLACK
6
CONTINUOUS
10
2.2281813385826772
20
0.7592466929133858
11
2.2280314960629921
21
0.76
0
LINE
8
BLACK
6
CONTINUOUS
10
2.2280314960629921
20
0.76
11
2.2280314960629921
21
0.82
0
LINE
8
BLACK
6
CONTINUOUS
10
2.2280314960629921
20
0.82
11
2.2281813385826772
21
0.8207533070866142
0
LINE
8
BLACK
6
CONTINUOUS
10
2.2281813385826772
20
0.8207533070866142
11
2.2286080708661418
21
0.8213919291338583
0
LINE
8
BLACK
6
CONTINUOUS
10
2.2286080708661418
20
0.8213919291338583
11
2.2292466929133856
21
0.8218186614173228
0
LINE
8
BLACK
6
CONTINUOUS
10
2.2292466929133856
20
0.8218186614173228
11
2.23
21
0.8219685039370078
0
LINE
8
BLACK
6
CONTINUOUS
10
2.23
20
0.8219685039370078
11
2.29
21
0.8219685039370078
0
LINE
8
BLACK
6
CONTINUOUS
10
2.29
20
0.8219685039370078
11
2.290753307086614
21
0.8218186614173228
0
LINE
8
BLACK
6
CONTINUOUS
10
2.390753307086614
20
0.8218186614173228
11
2.3913919291338583
21
0.8213919291338583
0
LINE
8
BLACK
6
CONTINUOUS
10
2.3913919291338583
20
0.8213919291338583
11
2.3918186614173229
21
0.8207533070866142
0
LINE
8
BLACK
6
CONTINUOUS
10
2.3918186614173229
20
0.8207533070866142
11
2.391968503937008
21
0.82
0
LINE
8
BLACK
6
CONTINUOUS
10
2.391968503937008
20
0.82
11
2.391968503937008
21
0.76
0
LINE
8
BLACK
6
CONTINUOUS
10
2.391968503937008
20
0.76
11
2.3918186614173229
21
0.7592466929133858
0
LINE
8
BLACK
6
CONTINUOUS
10
2.3918186614173229
20
0.7592466929133858
11
2.3913919291338583
21
0.7586080708661417
0
LINE
8
BLACK
6
CONTINUOUS
10
2.3913919291338583
20
0.7586080708661417
11
2.390753307086614
21
0.7581813385826771
0
LINE
8
BLACK
6
CONTINUOUS
10
2.390753307086614
20
0.7581813385826771
11
2.3900000000000001
21
0.7580314960629921
0
LINE
8
BLACK
6
CONTINUOUS
10
2.3900000000000001
20
0.7580314960629921
11
2.3300000000000001
21
0.7580314960629921
0
LINE
8
BLACK
6
CONTINUOUS
10
2.3300000000000001
20
0.7580314960629921
11
2.3292466929133857
21
0.7581813385826771
0
LINE
8
BLACK
6
CONTINUOUS
10
2.3292466929133857
20
0.7581813385826771
11
2.3286080708661419
21
0.7586080708661417
0
LINE
8
BLACK
6
CONTINUOUS
10
2.3286080708661419
20
0.7586080708661417
11
2.3281813385826773
21
0.7592466929133858
0
LINE
8
BLACK
6
CONTINUOUS
10
2.3281813385826773
20
0.7592466929133858
11
2.3280314960629922
21
0.76
0
LINE
8
BLACK
6
CONTINUOUS
10
2.3280314960629922
20
0.76
11
2.3280314960629922
21
0.82
0
LINE
8
BLACK
6
CONTINUOUS
10
2.3280314960629922
20
0.82
11
2.3281813385826773
21
0.8207533070866142
0
LINE
8
BLACK
6
CONTINUOUS
10
2.3281813385826773
20
0.8207533070866142
11
2.3286080708661419
21
0.8213919291338583
0
LINE
8
BLACK
6
CONTINUOUS
10
2.3286080708661419
20
0.8213919291338583
11
2.3292466929133857
21
0.8218186614173228
0
LINE
8
BLACK
6
CONTINUOUS
10
2.3292466929133857
20
0.8218186614173228
11
2.3300000000000001
21
0.8219685039370078
0
LINE
8
BLACK
6
CONTINUOUS
10
2.3300000000000001
20
0.8219685039370078
11
2.3900000000000001
21
0.8219685039370078
0
LINE
8
BLACK
6
CONTINUOUS
10
2.3900000000000001
20
0.8219685039370078
11
2.390753307086614
21
0.8218186614173228
0
LINE
8
BLACK
6
CONTINUOUS
10
0.3516596062992126
20
0.9444938976377952
11
0.3596198031496063
21
0.9414101181102362
0
LINE
8
BLACK
6
CONTINUOUS
10
0.3596198031496063
20
0.9414101181102362
11
0.3668777952755906
21
0.9369161417322834
0
LINE
8
BLACK
6
CONTINUOUS
10
0.3668777952755906
20
0.9369161417322834
11
0.3731864173228346
21
0.9311650393700788
0
LINE
8
BLACK
6
CONTINUOUS
10
0.3731864173228346
20
0.9311650393700788
11
0.378330905511811
21
0.9243526771653543
0
LINE
8
BLACK
6
CONTINUOUS
10
0.378330905511811
20
0.9243526771653543
11
0.3821360236220472
21
0.9167109842519685
0
LINE
8
BLACK
6
CONTINUOUS
10
0.3821360236220472
20
0.9167109842519685
11
0.3844721653543307
21
0.9085002362204724
0
LINE
8
BLACK
6
CONTINUOUS
10
0.3844721653543307
20
0.9085002362204724
11
0.385259842519685
21
0.9
0
LINE
8
BLACK
6
CONTINUOUS
10
0.385259842519685
20
0.9
11
0.3844721653543307
21
0.8914997637795276
0
LINE
8
BLACK
6
CONTINUOUS
10
0.3844721653543307
20
0.8914997637795276
11
0.3821360236220472
21
0.8832890157480314
0
LINE
8
BLACK
6
CONTINUOUS
10
0.3821360236220472
20
0.8832890157480314
11
0.378330905511811
21
0.8756473228346456
0
LINE
8
BLACK
6
CONTINUOUS
10
0.378330905511811
20
0.8756473228346456
11
0.3731864173228346
21
0.8688349606299213
0
LINE
8
BLACK
6
CONTINUOUS
10
0.3731864173228346
20
0.8688349606299213
11
0.3668777952755906
21
0.8630838582677165
0
LINE
8
BLACK
6
CONTINUOUS
10
0.3668777952755906
20
0.8630838582677165
11
0.3596198031496063
21
0.8585898818897637
0
LINE
8
BLACK
6
CONTINUOUS
10
0.3596198031496063
20
0.8585898818897637
11
0.3516596062992126
21
0.8555061023622047
0
LINE
8
BLACK
6
CONTINUOUS
10
0.3516596062992126
20
0.8555061023622047
11
0.3432683070866142
21
0.8539374803149606
0
LINE
8
BLACK
6
CONTINUOUS
10
0.3432683070866142
20
0.8539374803149606
11
0.3347316929133858
21
0.8539374803149606
0
LINE
8
BLACK
6
CONTINUOUS
10
0.3347316929133858
20
0.8539374803149606
11
0.3263403937007874
21
0.8555061023622047
0
LINE
8
BLACK
6
CONTINUOUS
10
0.3263403937007874
20
0.8555061023622047
11
0.3183801968503937
21
0.8585898818897637
0
LINE
8
BLACK
6
CONTINUOUS
10
0.3183801968503937
20
0.8585898818897637
11
0.3111222047244094
21
0.8630838582677165
0
LINE
8
BLACK
6
CONTINUOUS
10
0.3111222047244094
20
0.8630838582677165
11
0.3048135826771654
21
0.8688349606299213
0
LINE
8
BLACK
6
CONTINUOUS
10
0.3048135826771654
20
0.8688349606299213
11
0.299669094488189
21
0.8756473228346456
0
LINE
8
BLACK
6
CONTINUOUS
10
0.299669094488189
20
0.8756473228346456
11
0.2958639763779528
21
0.8832890157480314
0
LINE
8
BLACK
6
CONTINUOUS
10
0.2958639763779528
20
0.8832890157480314
11
0.2935278346456693
21
0.8914997637795276
0
LINE
8
BLACK
6
CONTINUOUS
10
0.2935278346456693
20
0.8914997637795276
11
0.292740157480315
21
0.9
0
LINE
8
BLACK
6
CONTINUOUS
10
0.292740157480315
20
0.9
11
0.2935278346456693
21
0.9085002362204724
0
LINE
8
BLACK
6
CONTINUOUS
10
0.2935278346456693
20
0.9085002362204724
11
0.2958639763779528
21
0.9167109842519685
0
LINE
8
BLACK
6
CONTINUOUS
10
0.2958639763779528
20
0.9167109842519685
11
0.299669094488189
21
0.9243526771653543
0
LINE
8
BLACK
6
CONTINUOUS
10
0.299669094488189
20
0.9243526771653543
11
0.3048135826771654
21
0.9311650393700788
0
LINE
8
BLACK
6
CONTINUOUS
10
0.3048135826771654
20
0.9311650393700788
11
0.3111222047244094
21
0.9369161417322834
0
LINE
8
BLACK
6
CONTINUOUS
10
0.3111222047244094
20
0.9369161417322834
11
0.3183801968503937
21
0.9414101181102362
0
LINE
8
BLACK
6
CONTINUOUS
10
0.3183801968503937
20
0.9414101181102362
11
0.3263403937007874
21
0.9444938976377952
0
LINE
8
BLACK
6
CONTINUOUS
10
0.3263403937007874
20
0.9444938976377952
11
0.3347316929133858
21
0.9460625196850393
0
LINE
8
BLACK
6
CONTINUOUS
10
0.3347316929133858
20
0.9460625196850393
11
0.3432683070866142
21
0.9460625196850393
0
LINE
8
BLACK
6
CONTINUOUS
10
0.3432683070866142
20
0.9460625196850393
11
0.3516596062992126
21
0.9444938976377952
0
LINE
8
BLACK
6
CONTINUOUS
10
0.5516596062992126
20
0.9444938976377952
11
0.5596198031496062
21
0.9414101181102362
0
LINE
8
BLACK
6
CONTINUOUS
10
0.5596198031496062
20
0.9414101181102362
11
0.5668777952755906
21
0.9369161417322834
0
LINE
8
BLACK
6
CONTINUOUS
10
0.5668777952755906
20
0.9369161417322834
11
0.5731864173228346
21
0.9311650393700788
0
LINE
8
BLACK
6
CONTINUOUS
10
0.5731864173228346
20
0.9311650393700788
11
0.578330905511811
21
0.9243526771653543
0
LINE
8
BLACK
6
CONTINUOUS
10
0.578330905511811
20
0.9243526771653543
11
0.5821360236220472
21
0.9167109842519685
0
LINE
8
BLACK
6
CONTINUOUS
10
0.5821360236220472
20
0.9167109842519685
11
0.5844721653543307
21
0.9085002362204724
0
LINE
8
BLACK
6
CONTINUOUS
10
0.5844721653543307
20
0.9085002362204724
11
0.585259842519685
21
0.9
0
LINE
8
BLACK
6
CONTINUOUS
10
0.585259842519685
20
0.9
11
0.5844721653543307
21
0.8914997637795276
0
LINE
8
BLACK
6
CONTINUOUS
10
0.5844721653543307
20
0.8914997637795276
11
0.5821360236220472
21
0.8832890157480314
0
LINE
8
BLACK
6
CONTINUOUS
10
0.5821360236220472
20
0.8832890157480314
11
0.578330905511811
21
0.8756473228346456
0
LINE
8
BLACK
6
CONTINUOUS
10
0.578330905511811
20
0.8756473228346456
11
0.5731864173228346
21
0.8688349606299213
0
LINE
8
BLACK
6
CONTINUOUS
10
0.5731864173228346
20
0.8688349606299213
11
0.5668777952755906
21
0.8630838582677165
0
LINE
8
BLACK
6
CONTINUOUS
10
0.5668777952755906
20
0.8630838582677165
11
0.5596198031496062
21
0.8585898818897637
0
LINE
8
BLACK
6
CONTINUOUS
10
0.5596198031496062
20
0.8585898818897637
11
0.5516596062992126
21
0.8555061023622047
0
LINE
8
BLACK
6
CONTINUOUS
10
0.5516596062992126
20
0.8555061023622047
11
0.5432683070866141
21
0.8539374803149606
0
LINE
8
BLACK
6
CONTINUOUS
10
0.5432683070866141
20
0.8539374803149606
11
0.5347316929133858
21
0.8539374803149606
0
LINE
8
BLACK
6
CONTINUOUS
10
0.5347316929133858
20
0.8539374803149606
11
0.5263403937007873
21
0.8555061023622047
0
LINE
8
BLACK
6
CONTINUOUS
10
0.5263403937007873
20
0.8555061023622047
11
0.5183801968503937
21
0.8585898818897637
0
LINE
8
BLACK
6
CONTINUOUS
10
0.5183801968503937
20
0.8585898818897637
11
0.5111222047244094
21
0.8630838582677165
0
LINE
8
BLACK
6
CONTINUOUS
10
0.5111222047244094
20
0.8630838582677165
11
0.5048135826771654
21
0.8688349606299213
0
LINE
8
BLACK
6
CONTINUOUS
10
0.5048135826771654
20
0.8688349606299213
11
0.499669094488189
21
0.8756473228346456
0
LINE
8
BLACK
6
CONTINUOUS
10
0.499669094488189
20
0.8756473228346456
11
0.4958639763779528
21
0.8832890157480314
0
LINE
8
BLACK
6
CONTINUOUS
10
0.4958639763779528
20
0.8832890157480314
11
0.4935278346456693
21
0.8914997637795276
0
LINE
8
BLACK
6
CONTINUOUS
10
0.4935278346456693
20
0.8914997637795276
11
0.492740157480315
21
0.9
0
LINE
8
BLACK
6
CONTINUOUS
10
0.492740157480315
20
0.9
11
0.4935278346456693
21
0.9085002362204724
0
LINE
8
BLACK
6
CONTINUOUS
10
0.4935278346456693
20
0.9085002362204724
11
0.4958639763779528
21
0.9167109842519685
0
LINE
8
BLACK
6
CONTINUOUS
10
0.4958639763779528
20
0.9167109842519685
11
0.499669094488189
21
0.9243526771653543
0
LINE
8
BLACK
6
CONTINUOUS
10
0.499669094488189
20
0.9243526771653543
11
0.5048135826771654
21
0.9311650393700788
0
LINE
8
BLACK
6
CONTINUOUS
10
0.5048135826771654
20
0.9311650393700788
11
0.5111222047244094
21
0.9369161417322834
0
LINE
8
BLACK
6
CONTINUOUS
10
0.5111222047244094
20
0.9369161417322834
11
0.5183801968503937
21
0.9414101181102362
0
LINE
8
BLACK
6
CONTINUOUS
10
0.5183801968503937
20
0.9414101181102362
11
0.5263403937007873
21
0.9444938976377952
0
LINE
8
BLACK
6
CONTINUOUS
10
0.5263403937007873
20
0.9444938976377952
11
0.5347316929133858
21
0.9460625196850393
0
LINE
8
BLACK
6
CONTINUOUS
10
0.5347316929133858
20
0.9460625196850393
11
0.5432683070866141
21
0.9460625196850393
0
LINE
8
BLACK
6
CONTINUOUS
10
0.5432683070866141
20
0.9460625196850393
11
0.5516596062992126
21
0.9444938976377952
0
LINE
8
BLACK
6
CONTINUOUS
10
2.290753307086614
20
0.9218186614173228
11
2.2913919291338583
21
0.9213919291338583
0
LINE
8
BLACK
6
CONTINUOUS
10
2.2913919291338583
20
0.9213919291338583
11
2.2918186614173228
21
0.9207533070866142
0
LINE
8
BLACK
6
CONTINUOUS
10
2.2918186614173228
20
0.9207533070866142
11
2.2919685039370079
21
0.9199999999999999
0
LINE
8
BLACK
6
CONTINUOUS
10
2.2919685039370079
20
0.9199999999999999
11
2.2919685039370079
21
0.86
0
LINE
8
BLACK
6
CONTINUOUS
10
2.2919685039370079
20
0.86
11
2.2918186614173228
21
0.8592466929133858
0
LINE
8
BLACK
6
CONTINUOUS
10
2.2918186614173228
20
0.8592466929133858
11
2.2913919291338583
21
0.8586080708661417
0
LINE
8
BLACK
6
CONTINUOUS
10
2.2913919291338583
20
0.8586080708661417
11
2.290753307086614
21
0.8581813385826772
0
LINE
8
BLACK
6
CONTINUOUS
10
2.290753307086614
20
0.8581813385826772
11
2.29
21
0.8580314960629921
0
LINE
8
BLACK
6
CONTINUOUS
10
2.29
20
0.8580314960629921
11
2.23
21
0.8580314960629921
0
LINE
8
BLACK
6
CONTINUOUS
10
2.23
20
0.8580314960629921
11
2.2292466929133856
21
0.8581813385826772
0
LINE
8
BLACK
6
CONTINUOUS
10
2.2292466929133856
20
0.8581813385826772
11
2.2286080708661418
21
0.8586080708661417
0
LINE
8
BLACK
6
CONTINUOUS
10
2.2286080708661418
20
0.8586080708661417
11
2.2281813385826772
21
0.8592466929133858
0
LINE
8
BLACK
6
CONTINUOUS
10
2.2281813385826772
20
0.8592466929133858
11
2.2280314960629921
21
0.86
0
LINE
8
BLACK
6
CONTINUOUS
10
2.2280314960629921
20
0.86
11
2.2280314960629921
21
0.9199999999999999
0
LINE
8
BLACK
6
CONTINUOUS
10
2.2280314960629921
20
0.9199999999999999
11
2.2281813385826772
21
0.9207533070866142
0
LINE
8
BLACK
6
CONTINUOUS
10
2.2281813385826772
20
0.9207533070866142
11
2.2286080708661418
21
0.9213919291338583
0
LINE
8
BLACK
6
CONTINUOUS
10
2.2286080708661418
20
0.9213919291338583
11
2.2292466929133856
21
0.9218186614173228
0
LINE
8
BLACK
6
CONTINUOUS
10
2.2292466929133856
20
0.9218186614173228
11
2.23
21
0.9219685039370078
0
LINE
8
BLACK
6
CONTINUOUS
10
2.23
20
0.9219685039370078
11
2.29
21
0.9219685039370078
0
LINE
8
BLACK
6
CONTINUOUS
10
2.29
20
0.9219685039370078
11
2.290753307086614
21
0.9218186614173228
0
LINE
8
BLACK
6
CONTINUOUS
10
2.390753307086614
20
0.9218186614173228
11
2.3913919291338583
21
0.9213919291338583
0
LINE
8
BLACK
6
CONTINUOUS
10
2.3913919291338583
20
0.9213919291338583
11
2.3918186614173229
21
0.9207533070866142
0
LINE
8
BLACK
6
CONTINUOUS
10
2.3918186614173229
20
0.9207533070866142
11
2.391968503937008
21
0.9199999999999999
0
LINE
8
BLACK
6
CONTINUOUS
10
2.391968503937008
20
0.9199999999999999
11
2.391968503937008
21
0.86
0
LINE
8
BLACK
6
CONTINUOUS
10
2.391968503937008
20
0.86
11
2.3918186614173229
21
0.8592466929133858
0
LINE
8
BLACK
6
CONTINUOUS
10
2.3918186614173229
20
0.8592466929133858
11
2.3913919291338583
21
0.8586080708661417
0
LINE
8
BLACK
6
CONTINUOUS
10
2.3913919291338583
20
0.8586080708661417
11
2.390753307086614
21
0.8581813385826772
0
LINE
8
BLACK
6
CONTINUOUS
10
2.390753307086614
20
0.8581813385826772
11
2.3900000000000001
21
0.8580314960629921
0
LINE
8
BLACK
6
CONTINUOUS
10
2.3900000000000001
20
0.8580314960629921
11
2.3300000000000001
21
0.8580314960629921
0
LINE
8
BLACK
6
CONTINUOUS
10
2.3300000000000001
20
0.8580314960629921
11
2.3292466929133857
21
0.8581813385826772
0
LINE
8
BLACK
6
CONTINUOUS
10
2.3292466929133857
20
0.8581813385826772
11
2.3286080708661419
21
0.8586080708661417
0
LINE
8
BLACK
6
CONTINUOUS
10
2.3286080708661419
20
0.8586080708661417
11
2.3281813385826773
21
0.8592466929133858
0
LINE
8
BLACK
6
CONTINUOUS
10
2.3281813385826773
20
0.8592466929133858
11
2.3280314960629922
21
0.86
0
LINE
8
BLACK
6
CONTINUOUS
10
2.3280314960629922
20
0.86
11
2.3280314960629922
21
0.9199999999999999
0
LINE
8
BLACK
6
CONTINUOUS
10
2.3280314960629922
20
0.9199999999999999
11
2.3281813385826773
21
0.9207533070866142
0
LINE
8
BLACK
6
CONTINUOUS
10
2.3281813385826773
20
0.9207533070866142
11
2.3286080708661419
21
0.9213919291338583
0
LINE
8
BLACK
6
CONTINUOUS
10
2.3286080708661419
20
0.9213919291338583
11
2.3292466929133857
21
0.9218186614173228
0
LINE
8
BLACK
6
CONTINUOUS
10
2.3292466929133857
20
0.9218186614173228
11
2.3300000000000001
21
0.9219685039370078
0
LINE
8
BLACK
6
CONTINUOUS
10
2.3300000000000001
20
0.9219685039370078
11
2.3900000000000001
21
0.9219685039370078
0
LINE
8
BLACK
6
CONTINUOUS
10
2.3900000000000001
20
0.9219685039370078
11
2.390753307086614
21
0.9218186614173228
0
LINE
8
BLACK
6
CONTINUOUS
10
0.4505822047244095
20
1.0407072047244095
11
0.4578649212598425
21
1.0378858661417323
0
LINE
8
BLACK
6
CONTINUOUS
10
0.4578649212598425
20
1.0378858661417323
11
0.4645051968503937
21
1.0337743700787401
0
LINE
8
BLACK
6
CONTINUOUS
10
0.4645051968503937
20
1.0337743700787401
11
0.470276968503937
21
1.0285127165354331
0
LINE
8
BLACK
6
CONTINUOUS
10
0.470276968503937
20
1.0285127165354331
11
0.4749835826771653
21
1.0222801181102361
0
LINE
8
BLACK
6
CONTINUOUS
10
0.4749835826771653
20
1.0222801181102361
11
0.4784648818897638
21
1.0152887795275591
0
LINE
8
BLACK
6
CONTINUOUS
10
0.4784648818897638
20
1.0152887795275591
11
0.4806022047244095
21
1.007776811023622
0
LINE
8
BLACK
6
CONTINUOUS
10
0.4806022047244095
20
1.007776811023622
11
0.4813228346456693
21
1.
0
LINE
8
BLACK
6
CONTINUOUS
10
0.4813228346456693
20
1.
11
0.4806022047244095
21
0.992223188976378
0
LINE
8
BLACK
6
CONTINUOUS
10
0.4806022047244095
20
0.992223188976378
11
0.4784648818897638
21
0.984711220472441
0
LINE
8
BLACK
6
CONTINUOUS
10
0.4784648818897638
20
0.984711220472441
11
0.4749835826771653
21
0.9777198818897638
0
LINE
8
BLACK
6
CONTINUOUS
10
0.4749835826771653
20
0.9777198818897638
11
0.470276968503937
21
0.9714872834645669
0
LINE
8
BLACK
6
CONTINUOUS
10
0.470276968503937
20
0.9714872834645669
11
0.4645051968503937
21
0.9662256299212598
0
LINE
8
BLACK
6
CONTINUOUS
10
0.4645051968503937
20
0.9662256299212598
11
0.4578649212598425
21
0.9621141338582677
0
LINE
8
BLACK
6
CONTINUOUS
10
0.4578649212598425
20
0.9621141338582677
11
0.4505822047244095
21
0.9592927952755905
0
LINE
8
BLACK
6
CONTINUOUS
10
0.4505822047244095
20
0.9592927952755905
11
0.4429050393700787
21
0.9578577165354331
0
LINE
8
BLACK
6
CONTINUOUS
10
0.4429050393700787
20
0.9578577165354331
11
0.4350949606299213
21
0.9578577165354331
0
LINE
8
BLACK
6
CONTINUOUS
10
0.4350949606299213
20
0.9578577165354331
11
0.4274177952755905
21
0.9592927952755905
0
LINE
8
BLACK
6
CONTINUOUS
10
0.4274177952755905
20
0.9592927952755905
11
0.4201350787401575
21
0.9621141338582677
0
LINE
8
BLACK
6
CONTINUOUS
10
0.4201350787401575
20
0.9621141338582677
11
0.4134948031496063
21
0.9662256299212598
0
LINE
8
BLACK
6
CONTINUOUS
10
0.4134948031496063
20
0.9662256299212598
11
0.407723031496063
21
0.9714872834645669
0
LINE
8
BLACK
6
CONTINUOUS
10
0.407723031496063
20
0.9714872834645669
11
0.4030164173228347
21
0.9777198818897638
0
LINE
8
BLACK
6
CONTINUOUS
10
0.4030164173228347
20
0.9777198818897638
11
0.3995351181102362
21
0.984711220472441
0
LINE
8
BLACK
6
CONTINUOUS
10
0.3995351181102362
20
0.984711220472441
11
0.3973977952755905
21
0.992223188976378
0
LINE
8
BLACK
6
CONTINUOUS
10
0.3973977952755905
20
0.992223188976378
11
0.3966771653543307
21
1.
0
LINE
8
BLACK
6
CONTINUOUS
10
0.3966771653543307
20
1.
11
0.3973977952755905
21
1.007776811023622
0
LINE
8
BLACK
6
CONTINUOUS
10
0.3973977952755905
20
1.007776811023622
11
0.3995351181102362
21
1.0152887795275591
0
LINE
8
BLACK
6
CONTINUOUS
10
0.3995351181102362
20
1.0152887795275591
11
0.4030164173228347
21
1.0222801181102361
0
LINE
8
BLACK
6
CONTINUOUS
10
0.4030164173228347
20
1.0222801181102361
11
0.407723031496063
21
1.0285127165354331
0
LINE
8
BLACK
6
CONTINUOUS
10
0.407723031496063
20
1.0285127165354331
11
0.4134948031496063
21
1.0337743700787401
0
LINE
8
BLACK
6
CONTINUOUS
10
0.4134948031496063
20
1.0337743700787401
11
0.4201350787401575
21
1.0378858661417323
0
LINE
8
BLACK
6
CONTINUOUS
10
0.4201350787401575
20
1.0378858661417323
11
0.4274177952755905
21
1.0407072047244095
0
LINE
8
BLACK
6
CONTINUOUS
10
0.4274177952755905
20
1.0407072047244095
11
0.4350949606299213
21
1.0421422834645668
0
LINE
8
BLACK
6
CONTINUOUS
10
0.4350949606299213
20
1.0421422834645668
11
0.4429050393700787
21
1.0421422834645668
0
LINE
8
BLACK
6
CONTINUOUS
10
0.4429050393700787
20
1.0421422834645668
11
0.4505822047244095
21
1.0407072047244095
0
LINE
8
BLACK
6
CONTINUOUS
10
2.2907532677165352
20
1.0918186614173229
11
2.2913918897637795
21
1.0913919291338583
0
LINE
8
BLACK
6
CONTINUOUS
10
2.2913918897637795
20
1.0913919291338583
11
2.2918186220472441
21
1.0907533070866142
0
LINE
8
BLACK
6
CONTINUOUS
10
2.2918186220472441
20
1.0907533070866142
11
2.2919684645669292
21
1.0900000000000001
0
LINE
8
BLACK
6
CONTINUOUS
10
2.2919684645669292
20
1.0900000000000001
11
2.2919684645669292
21
1.03
0
LINE
8
BLACK
6
CONTINUOUS
10
2.2919684645669292
20
1.03
11
2.2918186220472441
21
1.0292466929133859
0
LINE
8
BLACK
6
CONTINUOUS
10
2.2918186220472441
20
1.0292466929133859
11
2.2913918897637795
21
1.0286080708661418
0
LINE
8
BLACK
6
CONTINUOUS
10
2.2913918897637795
20
1.0286080708661418
11
2.2907532677165352
21
1.0281813385826772
0
LINE
8
BLACK
6
CONTINUOUS
10
2.2907532677165352
20
1.0281813385826772
11
2.2899999606299213
21
1.0280314960629922
0
LINE
8
BLACK
6
CONTINUOUS
10
2.2899999606299213
20
1.0280314960629922
11
2.2299999606299212
21
1.0280314960629922
0
LINE
8
BLACK
6
CONTINUOUS
10
2.2299999606299212
20
1.0280314960629922
11
2.2292466535433069
21
1.0281813385826772
0
LINE
8
BLACK
6
CONTINUOUS
10
2.2292466535433069
20
1.0281813385826772
11
2.228608031496063
21
1.0286080708661418
0
LINE
8
BLACK
6
CONTINUOUS
10
2.228608031496063
20
1.0286080708661418
11
2.2281812992125984
21
1.0292466929133859
0
LINE
8
BLACK
6
CONTINUOUS
10
2.2281812992125984
20
1.0292466929133859
11
2.2280314566929134
21
1.03
0
LINE
8
BLACK
6
CONTINUOUS
10
2.2280314566929134
20
1.03
11
2.2280314566929134
21
1.0900000000000001
0
LINE
8
BLACK
6
CONTINUOUS
10
2.2280314566929134
20
1.0900000000000001
11
2.2281812992125984
21
1.0907533070866142
0
LINE
8
BLACK
6
CONTINUOUS
10
2.2281812992125984
20
1.0907533070866142
11
2.228608031496063
21
1.0913919291338583
0
LINE
8
BLACK
6
CONTINUOUS
10
2.228608031496063
20
1.0913919291338583
11
2.2292466535433069
21
1.0918186614173229
0
LINE
8
BLACK
6
CONTINUOUS
10
2.2292466535433069
20
1.0918186614173229
11
2.2299999606299212
21
1.091968503937008
0
LINE
8
BLACK
6
CONTINUOUS
10
2.2299999606299212
20
1.091968503937008
11
2.2899999606299213
21
1.091968503937008
0
LINE
8
BLACK
6
CONTINUOUS
10
2.2899999606299213
20
1.091968503937008
11
2.2907532677165352
21
1.0918186614173229
0
LINE
8
BLACK
6
CONTINUOUS
10
2.3907533464566928
20
1.0918186614173229
11
2.3913919685039371
21
1.0913919291338583
0
LINE
8
BLACK
6
CONTINUOUS
10
2.3913919685039371
20
1.0913919291338583
11
2.3918187007874017
21
1.0907533070866142
0
LINE
8
BLACK
6
CONTINUOUS
10
2.3918187007874017
20
1.0907533070866142
11
2.3919685433070867
21
1.0900000000000001
0
LINE
8
BLACK
6
CONTINUOUS
10
2.3919685433070867
20
1.0900000000000001
11
2.3919685433070867
21
1.03
0
LINE
8
BLACK
6
CONTINUOUS
10
2.3919685433070867
20
1.03
11
2.3918187007874017
21
1.0292466929133859
0
LINE
8
BLACK
6
CONTINUOUS
10
2.3918187007874017
20
1.0292466929133859
11
2.3913919685039371
21
1.0286080708661418
0
LINE
8
BLACK
6
CONTINUOUS
10
2.3913919685039371
20
1.0286080708661418
11
2.3907533464566928
21
1.0281813385826772
0
LINE
8
BLACK
6
CONTINUOUS
10
2.3907533464566928
20
1.0281813385826772
11
2.3900000393700789
21
1.0280314960629922
0
LINE
8
BLACK
6
CONTINUOUS
10
2.3900000393700789
20
1.0280314960629922
11
2.3300000393700788
21
1.0280314960629922
0
LINE
8
BLACK
6
CONTINUOUS
10
2.3300000393700788
20
1.0280314960629922
11
2.3292467322834645
21
1.0281813385826772
0
LINE
8
BLACK
6
CONTINUOUS
10
2.3292467322834645
20
1.0281813385826772
11
2.3286081102362206
21
1.0286080708661418
0
LINE
8
BLACK
6
CONTINUOUS
10
2.3286081102362206
20
1.0286080708661418
11
2.328181377952756
21
1.0292466929133859
0
LINE
8
BLACK
6
CONTINUOUS
10
2.328181377952756
20
1.0292466929133859
11
2.328031535433071
21
1.03
0
LINE
8
BLACK
6
CONTINUOUS
10
2.328031535433071
20
1.03
11
2.328031535433071
21
1.0900000000000001
0
LINE
8
BLACK
6
CONTINUOUS
10
2.328031535433071
20
1.0900000000000001
11
2.328181377952756
21
1.0907533070866142
0
LINE
8
BLACK
6
CONTINUOUS
10
2.328181377952756
20
1.0907533070866142
11
2.3286081102362206
21
1.0913919291338583
0
LINE
8
BLACK
6
CONTINUOUS
10
2.3286081102362206
20
1.0913919291338583
11
2.3292467322834645
21
1.0918186614173229
0
LINE
8
BLACK
6
CONTINUOUS
10
2.3292467322834645
20
1.0918186614173229
11
2.3300000393700788
21
1.091968503937008
0
LINE
8
BLACK
6
CONTINUOUS
10
2.3300000393700788
20
1.091968503937008
11
2.3900000393700789
21
1.091968503937008
0
LINE
8
BLACK
6
CONTINUOUS
10
2.3900000393700789
20
1.091968503937008
11
2.3907533464566928
21
1.0918186614173229
0
LINE
8
BLACK
6
CONTINUOUS
10
0.3516596062992126
20
1.1444938976377952
11
0.3596198031496063
21
1.1414101181102363
0
LINE
8
BLACK
6
CONTINUOUS
10
0.3596198031496063
20
1.1414101181102363
11
0.3668777952755906
21
1.1369161417322835
0
LINE
8
BLACK
6
CONTINUOUS
10
0.3668777952755906
20
1.1369161417322835
11
0.3731864173228346
21
1.1311650393700787
0
LINE
8
BLACK
6
CONTINUOUS
10
0.3731864173228346
20
1.1311650393700787
11
0.378330905511811
21
1.1243526771653543
0
LINE
8
BLACK
6
CONTINUOUS
10
0.378330905511811
20
1.1243526771653543
11
0.3821360236220472
21
1.1167109842519685
0
LINE
8
BLACK
6
CONTINUOUS
10
0.3821360236220472
20
1.1167109842519685
11
0.3844721653543307
21
1.1085002362204723
0
LINE
8
BLACK
6
CONTINUOUS
10
0.3844721653543307
20
1.1085002362204723
11
0.385259842519685
21
1.0999999999999999
0
LINE
8
BLACK
6
CONTINUOUS
10
0.385259842519685
20
1.0999999999999999
11
0.3844721653543307
21
1.0914997637795276
0
LINE
8
BLACK
6
CONTINUOUS
10
0.3844721653543307
20
1.0914997637795276
11
0.3821360236220472
21
1.0832890157480315
0
LINE
8
BLACK
6
CONTINUOUS
10
0.3821360236220472
20
1.0832890157480315
11
0.378330905511811
21
1.0756473228346457
0
LINE
8
BLACK
6
CONTINUOUS
10
0.378330905511811
20
1.0756473228346457
11
0.3731864173228346
21
1.0688349606299212
0
LINE
8
BLACK
6
CONTINUOUS
10
0.3731864173228346
20
1.0688349606299212
11
0.3668777952755906
21
1.0630838582677165
0
LINE
8
BLACK
6
CONTINUOUS
10
0.3668777952755906
20
1.0630838582677165
11
0.3596198031496063
21
1.0585898818897637
0
LINE
8
BLACK
6
CONTINUOUS
10
0.3596198031496063
20
1.0585898818897637
11
0.3516596062992126
21
1.0555061023622048
0
LINE
8
BLACK
6
CONTINUOUS
10
0.3516596062992126
20
1.0555061023622048
11
0.3432683070866142
21
1.0539374803149606
0
LINE
8
BLACK
6
CONTINUOUS
10
0.3432683070866142
20
1.0539374803149606
11
0.3347316929133858
21
1.0539374803149606
0
LINE
8
BLACK
6
CONTINUOUS
10
0.3347316929133858
20
1.0539374803149606
11
0.3263403937007874
21
1.0555061023622048
0
LINE
8
BLACK
6
CONTINUOUS
10
0.3263403937007874
20
1.0555061023622048
11
0.3183801968503937
21
1.0585898818897637
0
LINE
8
BLACK
6
CONTINUOUS
10
0.3183801968503937
20
1.0585898818897637
11
0.3111222047244094
21
1.0630838582677165
0
LINE
8
BLACK
6
CONTINUOUS
10
0.3111222047244094
20
1.0630838582677165
11
0.3048135826771654
21
1.0688349606299212
0
LINE
8
BLACK
6
CONTINUOUS
10
0.3048135826771654
20
1.0688349606299212
11
0.299669094488189
21
1.0756473228346457
0
LINE
8
BLACK
6
CONTINUOUS
10
0.299669094488189
20
1.0756473228346457
11
0.2958639763779528
21
1.0832890157480315
0
LINE
8
BLACK
6
CONTINUOUS
10
0.2958639763779528
20
1.0832890157480315
11
0.2935278346456693
21
1.0914997637795276
0
LINE
8
BLACK
6
CONTINUOUS
10
0.2935278346456693
20
1.0914997637795276
11
0.292740157480315
21
1.0999999999999999
0
LINE
8
BLACK
6
CONTINUOUS
10
0.292740157480315
20
1.0999999999999999
11
0.2935278346456693
21
1.1085002362204723
0
LINE
8
BLACK
6
CONTINUOUS
10
0.2935278346456693
20
1.1085002362204723
11
0.2958639763779528
21
1.1167109842519685
0
LINE
8
BLACK
6
CONTINUOUS
10
0.2958639763779528
20
1.1167109842519685
11
0.299669094488189
21
1.1243526771653543
0
LINE
8
BLACK
6
CONTINUOUS
10
0.299669094488189
20
1.1243526771653543
11
0.3048135826771654
21
1.1311650393700787
0
LINE
8
BLACK
6
CONTINUOUS
10
0.3048135826771654
20
1.1311650393700787
11
0.3111222047244094
21
1.1369161417322835
0
LINE
8
BLACK
6
CONTINUOUS
10
0.3111222047244094
20
1.1369161417322835
11
0.3183801968503937
21
1.1414101181102363
0
LINE
8
BLACK
6
CONTINUOUS
10
0.3183801968503937
20
1.1414101181102363
11
0.3263403937007874
21
1.1444938976377952
0
LINE
8
BLACK
6
CONTINUOUS
10
0.3263403937007874
20
1.1444938976377952
11
0.3347316929133858
21
1.1460625196850394
0
LINE
8
BLACK
6
CONTINUOUS
10
0.3347316929133858
20
1.1460625196850394
11
0.3432683070866142
21
1.1460625196850394
0
LINE
8
BLACK
6
CONTINUOUS
10
0.3432683070866142
20
1.1460625196850394
11
0.3516596062992126
21
1.1444938976377952
0
LINE
8
BLACK
6
CONTINUOUS
10
0.5516596062992126
20
1.1444938976377952
11
0.5596198031496062
21
1.1414101181102363
0
LINE
8
BLACK
6
CONTINUOUS
10
0.5596198031496062
20
1.1414101181102363
11
0.5668777952755906
21
1.1369161417322835
0
LINE
8
BLACK
6
CONTINUOUS
10
0.5668777952755906
20
1.1369161417322835
11
0.5731864173228346
21
1.1311650393700787
0
LINE
8
BLACK
6
CONTINUOUS
10
0.5731864173228346
20
1.1311650393700787
11
0.578330905511811
21
1.1243526771653543
0
LINE
8
BLACK
6
CONTINUOUS
10
0.578330905511811
20
1.1243526771653543
11
0.5821360236220472
21
1.1167109842519685
0
LINE
8
BLACK
6
CONTINUOUS
10
0.5821360236220472
20
1.1167109842519685
11
0.5844721653543307
21
1.1085002362204723
0
LINE
8
BLACK
6
CONTINUOUS
10
0.5844721653543307
20
1.1085002362204723
11
0.585259842519685
21
1.0999999999999999
0
LINE
8
BLACK
6
CONTINUOUS
10
0.585259842519685
20
1.0999999999999999
11
0.5844721653543307
21
1.0914997637795276
0
LINE
8
BLACK
6
CONTINUOUS
10
0.5844721653543307
20
1.0914997637795276
11
0.5821360236220472
21
1.0832890157480315
0
LINE
8
BLACK
6
CONTINUOUS
10
0.5821360236220472
20
1.0832890157480315
11
0.578330905511811
21
1.0756473228346457
0
LINE
8
BLACK
6
CONTINUOUS
10
0.578330905511811
20
1.0756473228346457
11
0.5731864173228346
21
1.0688349606299212
0
LINE
8
BLACK
6
CONTINUOUS
10
0.5731864173228346
20
1.0688349606299212
11
0.5668777952755906
21
1.0630838582677165
0
LINE
8
BLACK
6
CONTINUOUS
10
0.5668777952755906
20
1.0630838582677165
11
0.5596198031496062
21
1.0585898818897637
0
LINE
8
BLACK
6
CONTINUOUS
10
0.5596198031496062
20
1.0585898818897637
11
0.5516596062992126
21
1.0555061023622048
0
LINE
8
BLACK
6
CONTINUOUS
10
0.5516596062992126
20
1.0555061023622048
11
0.5432683070866141
21
1.0539374803149606
0
LINE
8
BLACK
6
CONTINUOUS
10
0.5432683070866141
20
1.0539374803149606
11
0.5347316929133858
21
1.0539374803149606
0
LINE
8
BLACK
6
CONTINUOUS
10
0.5347316929133858
20
1.0539374803149606
11
0.5263403937007873
21
1.0555061023622048
0
LINE
8
BLACK
6
CONTINUOUS
10
0.5263403937007873
20
1.0555061023622048
11
0.5183801968503937
21
1.0585898818897637
0
LINE
8
BLACK
6
CONTINUOUS
10
0.5183801968503937
20
1.0585898818897637
11
0.5111222047244094
21
1.0630838582677165
0
LINE
8
BLACK
6
CONTINUOUS
10
0.5111222047244094
20
1.0630838582677165
11
0.5048135826771654
21
1.0688349606299212
0
LINE
8
BLACK
6
CONTINUOUS
10
0.5048135826771654
20
1.0688349606299212
11
0.499669094488189
21
1.0756473228346457
0
LINE
8
BLACK
6
CONTINUOUS
10
0.499669094488189
20
1.0756473228346457
11
0.4958639763779528
21
1.0832890157480315
0
LINE
8
BLACK
6
CONTINUOUS
10
0.4958639763779528
20
1.0832890157480315
11
0.4935278346456693
21
1.0914997637795276
0
LINE
8
BLACK
6
CONTINUOUS
10
0.4935278346456693
20
1.0914997637795276
11
0.492740157480315
21
1.0999999999999999
0
LINE
8
BLACK
6
CONTINUOUS
10
0.492740157480315
20
1.0999999999999999
11
0.4935278346456693
21
1.1085002362204723
0
LINE
8
BLACK
6
CONTINUOUS
10
0.4935278346456693
20
1.1085002362204723
11
0.4958639763779528
21
1.1167109842519685
0
LINE
8
BLACK
6
CONTINUOUS
10
0.4958639763779528
20
1.1167109842519685
11
0.499669094488189
21
1.1243526771653543
0
LINE
8
BLACK
6
CONTINUOUS
10
0.499669094488189
20
1.1243526771653543
11
0.5048135826771654
21
1.1311650393700787
0
LINE
8
BLACK
6
CONTINUOUS
10
0.5048135826771654
20
1.1311650393700787
11
0.5111222047244094
21
1.1369161417322835
0
LINE
8
BLACK
6
CONTINUOUS
10
0.5111222047244094
20
1.1369161417322835
11
0.5183801968503937
21
1.1414101181102363
0
LINE
8
BLACK
6
CONTINUOUS
10
0.5183801968503937
20
1.1414101181102363
11
0.5263403937007873
21
1.1444938976377952
0
LINE
8
BLACK
6
CONTINUOUS
10
0.5263403937007873
20
1.1444938976377952
11
0.5347316929133858
21
1.1460625196850394
0
LINE
8
BLACK
6
CONTINUOUS
10
0.5347316929133858
20
1.1460625196850394
11
0.5432683070866141
21
1.1460625196850394
0
LINE
8
BLACK
6
CONTINUOUS
10
0.5432683070866141
20
1.1460625196850394
11
0.5516596062992126
21
1.1444938976377952
0
LINE
8
BLACK
6
CONTINUOUS
10
2.2907532677165352
20
1.1918186614173227
11
2.2913918897637795
21
1.1913919291338582
0
LINE
8
BLACK
6
CONTINUOUS
10
2.2913918897637795
20
1.1913919291338582
11
2.2918186220472441
21
1.1907533070866141
0
LINE
8
BLACK
6
CONTINUOUS
10
2.2918186220472441
20
1.1907533070866141
11
2.2919684645669292
21
1.1899999999999999
0
LINE
8
BLACK
6
CONTINUOUS
10
2.2919684645669292
20
1.1899999999999999
11
2.2919684645669292
21
1.1299999999999999
0
LINE
8
BLACK
6
CONTINUOUS
10
2.2919684645669292
20
1.1299999999999999
11
2.2918186220472441
21
1.1292466929133858
0
LINE
8
BLACK
6
CONTINUOUS
10
2.2918186220472441
20
1.1292466929133858
11
2.2913918897637795
21
1.1286080708661417
0
LINE
8
BLACK
6
CONTINUOUS
10
2.2913918897637795
20
1.1286080708661417
11
2.2907532677165352
21
1.1281813385826771
0
LINE
8
BLACK
6
CONTINUOUS
10
2.2907532677165352
20
1.1281813385826771
11
2.2899999606299213
21
1.128031496062992
0
LINE
8
BLACK
6
CONTINUOUS
10
2.2899999606299213
20
1.128031496062992
11
2.2299999606299212
21
1.128031496062992
0
LINE
8
BLACK
6
CONTINUOUS
10
2.2299999606299212
20
1.128031496062992
11
2.2292466535433069
21
1.1281813385826771
0
LINE
8
BLACK
6
CONTINUOUS
10
2.2292466535433069
20
1.1281813385826771
11
2.228608031496063
21
1.1286080708661417
0
LINE
8
BLACK
6
CONTINUOUS
10
2.228608031496063
20
1.1286080708661417
11
2.2281812992125984
21
1.1292466929133858
0
LINE
8
BLACK
6
CONTINUOUS
10
2.2281812992125984
20
1.1292466929133858
11
2.2280314566929134
21
1.1299999999999999
0
LINE
8
BLACK
6
CONTINUOUS
10
2.2280314566929134
20
1.1299999999999999
11
2.2280314566929134
21
1.1899999999999999
0
LINE
8
BLACK
6
CONTINUOUS
10
2.2280314566929134
20
1.1899999999999999
11
2.2281812992125984
21
1.1907533070866141
0
LINE
8
BLACK
6
CONTINUOUS
10
2.2281812992125984
20
1.1907533070866141
11
2.228608031496063
21
1.1913919291338582
0
LINE
8
BLACK
6
CONTINUOUS
10
2.228608031496063
20
1.1913919291338582
11
2.2292466535433069
21
1.1918186614173227
0
LINE
8
BLACK
6
CONTINUOUS
10
2.2292466535433069
20
1.1918186614173227
11
2.2299999606299212
21
1.1919685039370078
0
LINE
8
BLACK
6
CONTINUOUS
10
2.2299999606299212
20
1.1919685039370078
11
2.2899999606299213
21
1.1919685039370078
0
LINE
8
BLACK
6
CONTINUOUS
10
2.2899999606299213
20
1.1919685039370078
11
2.2907532677165352
21
1.1918186614173227
0
LINE
8
BLACK
6
CONTINUOUS
10
2.3907533464566928
20
1.1918186614173227
11
2.3913919685039371
21
1.1913919291338582
0
LINE
8
BLACK
6
CONTINUOUS
10
2.3913919685039371
20
1.1913919291338582
11
2.3918187007874017
21
1.1907533070866141
0
LINE
8
BLACK
6
CONTINUOUS
10
2.3918187007874017
20
1.1907533070866141
11
2.3919685433070867
21
1.1899999999999999
0
LINE
8
BLACK
6
CONTINUOUS
10
2.3919685433070867
20
1.1899999999999999
11
2.3919685433070867
21
1.1299999999999999
0
LINE
8
BLACK
6
CONTINUOUS
10
2.3919685433070867
20
1.1299999999999999
11
2.3918187007874017
21
1.1292466929133858
0
LINE
8
BLACK
6
CONTINUOUS
10
2.3918187007874017
20
1.1292466929133858
11
2.3913919685039371
21
1.1286080708661417
0
LINE
8
BLACK
6
CONTINUOUS
10
2.3913919685039371
20
1.1286080708661417
11
2.3907533464566928
21
1.1281813385826771
0
LINE
8
BLACK
6
CONTINUOUS
10
2.3907533464566928
20
1.1281813385826771
11
2.3900000393700789
21
1.128031496062992
0
LINE
8
BLACK
6
CONTINUOUS
10
2.3900000393700789
20
1.128031496062992
11
2.3300000393700788
21
1.128031496062992
0
LINE
8
BLACK
6
CONTINUOUS
10
2.3300000393700788
20
1.128031496062992
11
2.3292467322834645
21
1.1281813385826771
0
LINE
8
BLACK
6
CONTINUOUS
10
2.3292467322834645
20
1.1281813385826771
11
2.3286081102362206
21
1.1286080708661417
0
LINE
8
BLACK
6
CONTINUOUS
10
2.3286081102362206
20
1.1286080708661417
11
2.328181377952756
21
1.1292466929133858
0
LINE
8
BLACK
6
CONTINUOUS
10
2.328181377952756
20
1.1292466929133858
11
2.328031535433071
21
1.1299999999999999
0
LINE
8
BLACK
6
CONTINUOUS
10
2.328031535433071
20
1.1299999999999999
11
2.328031535433071
21
1.1899999999999999
0
LINE
8
BLACK
6
CONTINUOUS
10
2.328031535433071
20
1.1899999999999999
11
2.328181377952756
21
1.1907533070866141
0
LINE
8
BLACK
6
CONTINUOUS
10
2.328181377952756
20
1.1907533070866141
11
2.3286081102362206
21
1.1913919291338582
0
LINE
8
BLACK
6
CONTINUOUS
10
2.3286081102362206
20
1.1913919291338582
11
2.3292467322834645
21
1.1918186614173227
0
LINE
8
BLACK
6
CONTINUOUS
10
2.3292467322834645
20
1.1918186614173227
11
2.3300000393700788
21
1.1919685039370078
0
LINE
8
BLACK
6
CONTINUOUS
10
2.3300000393700788
20
1.1919685039370078
11
2.3900000393700789
21
1.1919685039370078
0
LINE
8
BLACK
6
CONTINUOUS
10
2.3900000393700789
20
1.1919685039370078
11
2.3907533464566928
21
1.1918186614173227
0
LINE
8
BLACK
6
CONTINUOUS
10
1.6507533070866141
20
1.2818186614173228
11
1.6513919291338581
21
1.2813919291338582
0
LINE
8
BLACK
6
CONTINUOUS
10
1.6513919291338581
20
1.2813919291338582
11
1.6518186614173227
21
1.2807533070866142
0
LINE
8
BLACK
6
CONTINUOUS
10
1.6518186614173227
20
1.2807533070866142
11
1.6519685039370078
21
1.28
0
LINE
8
BLACK
6
CONTINUOUS
10
1.6519685039370078
20
1.28
11
1.6519685039370078
21
1.22
0
LINE
8
BLACK
6
CONTINUOUS
10
1.6519685039370078
20
1.22
11
1.6518186614173227
21
1.2192466929133858
0
LINE
8
BLACK
6
CONTINUOUS
10
1.6518186614173227
20
1.2192466929133858
11
1.6513919291338581
21
1.2186080708661418
0
LINE
8
BLACK
6
CONTINUOUS
10
1.6513919291338581
20
1.2186080708661418
11
1.6507533070866141
21
1.2181813385826772
0
LINE
8
BLACK
6
CONTINUOUS
10
1.6507533070866141
20
1.2181813385826772
11
1.6499999999999999
21
1.2180314960629921
0
LINE
8
BLACK
6
CONTINUOUS
10
1.6499999999999999
20
1.2180314960629921
11
1.5899999999999999
21
1.2180314960629921
0
LINE
8
BLACK
6
CONTINUOUS
10
1.5899999999999999
20
1.2180314960629921
11
1.5892466929133857
21
1.2181813385826772
0
LINE
8
BLACK
6
CONTINUOUS
10
1.5892466929133857
20
1.2181813385826772
11
1.5886080708661416
21
1.2186080708661418
0
LINE
8
BLACK
6
CONTINUOUS
10
1.5886080708661416
20
1.2186080708661418
11
1.5881813385826771
21
1.2192466929133858
0
LINE
8
BLACK
6
CONTINUOUS
10
1.5881813385826771
20
1.2192466929133858
11
1.588031496062992
21
1.22
0
LINE
8
BLACK
6
CONTINUOUS
10
1.588031496062992
20
1.22
11
1.588031496062992
21
1.28
0
LINE
8
BLACK
6
CONTINUOUS
10
1.588031496062992
20
1.28
11
1.5881813385826771
21
1.2807533070866142
0
LINE
8
BLACK
6
CONTINUOUS
10
1.5881813385826771
20
1.2807533070866142
11
1.5886080708661416
21
1.2813919291338582
0
LINE
8
BLACK
6
CONTINUOUS
10
1.5886080708661416
20
1.2813919291338582
11
1.5892466929133857
21
1.2818186614173228
0
LINE
8
BLACK
6
CONTINUOUS
10
1.5892466929133857
20
1.2818186614173228
11
1.5899999999999999
21
1.2819685039370079
0
LINE
8
BLACK
6
CONTINUOUS
10
1.5899999999999999
20
1.2819685039370079
11
1.6499999999999999
21
1.2819685039370079
0
LINE
8
BLACK
6
CONTINUOUS
10
1.6499999999999999
20
1.2819685039370079
11
1.6507533070866141
21
1.2818186614173228
0
LINE
8
BLACK
6
CONTINUOUS
10
2.2907532677165352
20
1.2918186614173228
11
2.2913918897637795
21
1.2913919291338583
0
LINE
8
BLACK
6
CONTINUOUS
10
2.2913918897637795
20
1.2913919291338583
11
2.2918186220472441
21
1.2907533070866142
0
LINE
8
BLACK
6
CONTINUOUS
10
2.2918186220472441
20
1.2907533070866142
11
2.2919684645669292
21
1.29
0
LINE
8
BLACK
6
CONTINUOUS
10
2.2919684645669292
20
1.29
11
2.2919684645669292
21
1.23
0
LINE
8
BLACK
6
CONTINUOUS
10
2.2919684645669292
20
1.23
11
2.2918186220472441
21
1.2292466929133858
0
LINE
8
BLACK
6
CONTINUOUS
10
2.2918186220472441
20
1.2292466929133858
11
2.2913918897637795
21
1.2286080708661418
0
LINE
8
BLACK
6
CONTINUOUS
10
2.2913918897637795
20
1.2286080708661418
11
2.2907532677165352
21
1.2281813385826772
0
LINE
8
BLACK
6
CONTINUOUS
10
2.2907532677165352
20
1.2281813385826772
11
2.2899999606299213
21
1.2280314960629921
0
LINE
8
BLACK
6
CONTINUOUS
10
2.2899999606299213
20
1.2280314960629921
11
2.2299999606299212
21
1.2280314960629921
0
LINE
8
BLACK
6
CONTINUOUS
10
2.2299999606299212
20
1.2280314960629921
11
2.2292466535433069
21
1.2281813385826772
0
LINE
8
BLACK
6
CONTINUOUS
10
2.2292466535433069
20
1.2281813385826772
11
2.228608031496063
21
1.2286080708661418
0
LINE
8
BLACK
6
CONTINUOUS
10
2.228608031496063
20
1.2286080708661418
11
2.2281812992125984
21
1.2292466929133858
0
LINE
8
BLACK
6
CONTINUOUS
10
2.2281812992125984
20
1.2292466929133858
11
2.2280314566929134
21
1.23
0
LINE
8
BLACK
6
CONTINUOUS
10
2.2280314566929134
20
1.23
11
2.2280314566929134
21
1.29
0
LINE
8
BLACK
6
CONTINUOUS
10
2.2280314566929134
20
1.29
11
2.2281812992125984
21
1.2907533070866142
0
LINE
8
BLACK
6
CONTINUOUS
10
2.2281812992125984
20
1.2907533070866142
11
2.228608031496063
21
1.2913919291338583
0
LINE
8
BLACK
6
CONTINUOUS
10
2.228608031496063
20
1.2913919291338583
11
2.2292466535433069
21
1.2918186614173228
0
LINE
8
BLACK
6
CONTINUOUS
10
2.2292466535433069
20
1.2918186614173228
11
2.2299999606299212
21
1.2919685039370079
0
LINE
8
BLACK
6
CONTINUOUS
10
2.2299999606299212
20
1.2919685039370079
11
2.2899999606299213
21
1.2919685039370079
0
LINE
8
BLACK
6
CONTINUOUS
10
2.2899999606299213
20
1.2919685039370079
11
2.2907532677165352
21
1.2918186614173228
0
LINE
8
BLACK
6
CONTINUOUS
10
2.3907533464566928
20
1.2918186614173228
11
2.3913919685039371
21
1.2913919291338583
0
LINE
8
BLACK
6
CONTINUOUS
10
2.3913919685039371
20
1.2913919291338583
11
2.3918187007874017
21
1.2907533070866142
0
LINE
8
BLACK
6
CONTINUOUS
10
2.3918187007874017
20
1.2907533070866142
11
2.3919685433070867
21
1.29
0
LINE
8
BLACK
6
CONTINUOUS
10
2.3919685433070867
20
1.29
11
2.3919685433070867
21
1.23
0
LINE
8
BLACK
6
CONTINUOUS
10
2.3919685433070867
20
1.23
11
2.3918187007874017
21
1.2292466929133858
0
LINE
8
BLACK
6
CONTINUOUS
10
2.3918187007874017
20
1.2292466929133858
11
2.3913919685039371
21
1.2286080708661418
0
LINE
8
BLACK
6
CONTINUOUS
10
2.3913919685039371
20
1.2286080708661418
11
2.3907533464566928
21
1.2281813385826772
0
LINE
8
BLACK
6
CONTINUOUS
10
2.3907533464566928
20
1.2281813385826772
11
2.3900000393700789
21
1.2280314960629921
0
LINE
8
BLACK
6
CONTINUOUS
10
2.3900000393700789
20
1.2280314960629921
11
2.3300000393700788
21
1.2280314960629921
0
LINE
8
BLACK
6
CONTINUOUS
10
2.3300000393700788
20
1.2280314960629921
11
2.3292467322834645
21
1.2281813385826772
0
LINE
8
BLACK
6
CONTINUOUS
10
2.3292467322834645
20
1.2281813385826772
11
2.3286081102362206
21
1.2286080708661418
0
LINE
8
BLACK
6
CONTINUOUS
10
2.3286081102362206
20
1.2286080708661418
11
2.328181377952756
21
1.2292466929133858
0
LINE
8
BLACK
6
CONTINUOUS
10
2.328181377952756
20
1.2292466929133858
11
2.328031535433071
21
1.23
0
LINE
8
BLACK
6
CONTINUOUS
10
2.328031535433071
20
1.23
11
2.328031535433071
21
1.29
0
LINE
8
BLACK
6
CONTINUOUS
10
2.328031535433071
20
1.29
11
2.328181377952756
21
1.2907533070866142
0
LINE
8
BLACK
6
CONTINUOUS
10
2.328181377952756
20
1.2907533070866142
11
2.3286081102362206
21
1.2913919291338583
0
LINE
8
BLACK
6
CONTINUOUS
10
2.3286081102362206
20
1.2913919291338583
11
2.3292467322834645
21
1.2918186614173228
0
LINE
8
BLACK
6
CONTINUOUS
10
2.3292467322834645
20
1.2918186614173228
11
2.3300000393700788
21
1.2919685039370079
0
LINE
8
BLACK
6
CONTINUOUS
10
2.3300000393700788
20
1.2919685039370079
11
2.3900000393700789
21
1.2919685039370079
0
LINE
8
BLACK
6
CONTINUOUS
10
2.3900000393700789
20
1.2919685039370079
11
2.3907533464566928
21
1.2918186614173228
0
LINE
8
BLACK
6
CONTINUOUS
10
1.6507533070866141
20
1.3818186614173229
11
1.6513919291338581
21
1.3813919291338583
0
LINE
8
BLACK
6
CONTINUOUS
10
1.6513919291338581
20
1.3813919291338583
11
1.6518186614173227
21
1.380753307086614
0
LINE
8
BLACK
6
CONTINUOUS
10
1.6518186614173227
20
1.380753307086614
11
1.6519685039370078
21
1.3799999999999999
0
LINE
8
BLACK
6
CONTINUOUS
10
1.6519685039370078
20
1.3799999999999999
11
1.6519685039370078
21
1.3200000000000001
0
LINE
8
BLACK
6
CONTINUOUS
10
1.6519685039370078
20
1.3200000000000001
11
1.6518186614173227
21
1.3192466929133857
0
LINE
8
BLACK
6
CONTINUOUS
10
1.6518186614173227
20
1.3192466929133857
11
1.6513919291338581
21
1.3186080708661416
0
LINE
8
BLACK
6
CONTINUOUS
10
1.6513919291338581
20
1.3186080708661416
11
1.6507533070866141
21
1.3181813385826771
0
LINE
8
BLACK
6
CONTINUOUS
10
1.6507533070866141
20
1.3181813385826771
11
1.6499999999999999
21
1.3180314960629922
0
LINE
8
BLACK
6
CONTINUOUS
10
1.6499999999999999
20
1.3180314960629922
11
1.5899999999999999
21
1.3180314960629922
0
LINE
8
BLACK
6
CONTINUOUS
10
1.5899999999999999
20
1.3180314960629922
11
1.5892466929133857
21
1.3181813385826771
0
LINE
8
BLACK
6
CONTINUOUS
10
1.5892466929133857
20
1.3181813385826771
11
1.5886080708661416
21
1.3186080708661416
0
LINE
8
BLACK
6
CONTINUOUS
10
1.5886080708661416
20
1.3186080708661416
11
1.5881813385826771
21
1.3192466929133857
0
LINE
8
BLACK
6
CONTINUOUS
10
1.5881813385826771
20
1.3192466929133857
11
1.588031496062992
21
1.3200000000000001
0
LINE
8
BLACK
6
CONTINUOUS
10
1.588031496062992
20
1.3200000000000001
11
1.588031496062992
21
1.3799999999999999
0
LINE
8
BLACK
6
CONTINUOUS
10
1.588031496062992
20
1.3799999999999999
11
1.5881813385826771
21
1.380753307086614
0
LINE
8
BLACK
6
CONTINUOUS
10
1.5881813385826771
20
1.380753307086614
11
1.5886080708661416
21
1.3813919291338583
0
LINE
8
BLACK
6
CONTINUOUS
10
1.5886080708661416
20
1.3813919291338583
11
1.5892466929133857
21
1.3818186614173229
0
LINE
8
BLACK
6
CONTINUOUS
10
1.5892466929133857
20
1.3818186614173229
11
1.5899999999999999
21
1.3819685039370078
0
LINE
8
BLACK
6
CONTINUOUS
10
1.5899999999999999
20
1.3819685039370078
11
1.6499999999999999
21
1.3819685039370078
0
LINE
8
BLACK
6
CONTINUOUS
10
1.6499999999999999
20
1.3819685039370078
11
1.6507533070866141
21
1.3818186614173229
0
LINE
8
BLACK
6
CONTINUOUS
10
2.2907532677165352
20
1.3918186614173229
11
2.2913918897637795
21
1.3913919291338583
0
LINE
8
BLACK
6
CONTINUOUS
10
2.2913918897637795
20
1.3913919291338583
11
2.2918186220472441
21
1.390753307086614
0
LINE
8
BLACK
6
CONTINUOUS
10
2.2918186220472441
20
1.390753307086614
11
2.2919684645669292
21
1.3899999999999999
0
LINE
8
BLACK
6
CONTINUOUS
10
2.2919684645669292
20
1.3899999999999999
11
2.2919684645669292
21
1.3300000000000001
0
LINE
8
BLACK
6
CONTINUOUS
10
2.2919684645669292
20
1.3300000000000001
11
2.2918186220472441
21
1.3292466929133857
0
LINE
8
BLACK
6
CONTINUOUS
10
2.2918186220472441
20
1.3292466929133857
11
2.2913918897637795
21
1.3286080708661416
0
LINE
8
BLACK
6
CONTINUOUS
10
2.2913918897637795
20
1.3286080708661416
11
2.2907532677165352
21
1.3281813385826771
0
LINE
8
BLACK
6
CONTINUOUS
10
2.2907532677165352
20
1.3281813385826771
11
2.2899999606299213
21
1.3280314960629922
0
LINE
8
BLACK
6
CONTINUOUS
10
2.2899999606299213
20
1.3280314960629922
11
2.2299999606299212
21
1.3280314960629922
0
LINE
8
BLACK
6
CONTINUOUS
10
2.2299999606299212
20
1.3280314960629922
11
2.2292466535433069
21
1.3281813385826771
0
LINE
8
BLACK
6
CONTINUOUS
10
2.2292466535433069
20
1.3281813385826771
11
2.228608031496063
21
1.3286080708661416
0
LINE
8
BLACK
6
CONTINUOUS
10
2.228608031496063
20
1.3286080708661416
11
2.2281812992125984
21
1.3292466929133857
0
LINE
8
BLACK
6
CONTINUOUS
10
2.2281812992125984
20
1.3292466929133857
11
2.2280314566929134
21
1.3300000000000001
0
LINE
8
BLACK
6
CONTINUOUS
10
2.2280314566929134
20
1.3300000000000001
11
2.2280314566929134
21
1.3899999999999999
0
LINE
8
BLACK
6
CONTINUOUS
10
2.2280314566929134
20
1.3899999999999999
11
2.2281812992125984
21
1.390753307086614
0
LINE
8
BLACK
6
CONTINUOUS
10
2.2281812992125984
20
1.390753307086614
11
2.228608031496063
21
1.3913919291338583
0
LINE
8
BLACK
6
CONTINUOUS
10
2.228608031496063
20
1.3913919291338583
11
2.2292466535433069
21
1.3918186614173229
0
LINE
8
BLACK
6
CONTINUOUS
10
2.2292466535433069
20
1.3918186614173229
11
2.2299999606299212
21
1.3919685039370078
0
LINE
8
BLACK
6
CONTINUOUS
10
2.2299999606299212
20
1.3919685039370078
11
2.2899999606299213
21
1.3919685039370078
0
LINE
8
BLACK
6
CONTINUOUS
10
2.2899999606299213
20
1.3919685039370078
11
2.2907532677165352
21
1.3918186614173229
0
LINE
8
BLACK
6
CONTINUOUS
10
2.3907533464566928
20
1.3918186614173229
11
2.3913919685039371
21
1.3913919291338583
0
LINE
8
BLACK
6
CONTINUOUS
10
2.3913919685039371
20
1.3913919291338583
11
2.3918187007874017
21
1.390753307086614
0
LINE
8
BLACK
6
CONTINUOUS
10
2.3918187007874017
20
1.390753307086614
11
2.3919685433070867
21
1.3899999999999999
0
LINE
8
BLACK
6
CONTINUOUS
10
2.3919685433070867
20
1.3899999999999999
11
2.3919685433070867
21
1.3300000000000001
0
LINE
8
BLACK
6
CONTINUOUS
10
2.3919685433070867
20
1.3300000000000001
11
2.3918187007874017
21
1.3292466929133857
0
LINE
8
BLACK
6
CONTINUOUS
10
2.3918187007874017
20
1.3292466929133857
11
2.3913919685039371
21
1.3286080708661416
0
LINE
8
BLACK
6
CONTINUOUS
10
2.3913919685039371
20
1.3286080708661416
11
2.3907533464566928
21
1.3281813385826771
0
LINE
8
BLACK
6
CONTINUOUS
10
2.3907533464566928
20
1.3281813385826771
11
2.3900000393700789
21
1.3280314960629922
0
LINE
8
BLACK
6
CONTINUOUS
10
2.3900000393700789
20
1.3280314960629922
11
2.3300000393700788
21
1.3280314960629922
0
LINE
8
BLACK
6
CONTINUOUS
10
2.3300000393700788
20
1.3280314960629922
11
2.3292467322834645
21
1.3281813385826771
0
LINE
8
BLACK
6
CONTINUOUS
10
2.3292467322834645
20
1.3281813385826771
11
2.3286081102362206
21
1.3286080708661416
0
LINE
8
BLACK
6
CONTINUOUS
10
2.3286081102362206
20
1.3286080708661416
11
2.328181377952756
21
1.3292466929133857
0
LINE
8
BLACK
6
CONTINUOUS
10
2.328181377952756
20
1.3292466929133857
11
2.328031535433071
21
1.3300000000000001
0
LINE
8
BLACK
6
CONTINUOUS
10
2.328031535433071
20
1.3300000000000001
11
2.328031535433071
21
1.3899999999999999
0
LINE
8
BLACK
6
CONTINUOUS
10
2.328031535433071
20
1.3899999999999999
11
2.328181377952756
21
1.390753307086614
0
LINE
8
BLACK
6
CONTINUOUS
10
2.328181377952756
20
1.390753307086614
11
2.3286081102362206
21
1.3913919291338583
0
LINE
8
BLACK
6
CONTINUOUS
10
2.3286081102362206
20
1.3913919291338583
11
2.3292467322834645
21
1.3918186614173229
0
LINE
8
BLACK
6
CONTINUOUS
10
2.3292467322834645
20
1.3918186614173229
11
2.3300000393700788
21
1.3919685039370078
0
LINE
8
BLACK
6
CONTINUOUS
10
2.3300000393700788
20
1.3919685039370078
11
2.3900000393700789
21
1.3919685039370078
0
LINE
8
BLACK
6
CONTINUOUS
10
2.3900000393700789
20
1.3919685039370078
11
2.3907533464566928
21
1.3918186614173229
0
LINE
8
BLACK
6
CONTINUOUS
10
0.4134445669291338
20
1.7193237007874016
11
0.4267200393700787
21
1.7170681102362204
0
LINE
8
BLACK
6
CONTINUOUS
10
0.4267200393700787
20
1.7170681102362204
11
0.4396594881889764
21
1.7133403149606299
0
LINE
8
BLACK
6
CONTINUOUS
10
0.4396594881889764
20
1.7133403149606299
11
0.4521001968503937
21
1.7081872047244093
0
LINE
8
BLACK
6
CONTINUOUS
10
0.4521001968503937
20
1.7081872047244093
11
0.4638857480314961
21
1.7016735826771654
0
LINE
8
BLACK
6
CONTINUOUS
10
0.4638857480314961
20
1.7016735826771654
11
0.474867874015748
21
1.6938813385826772
0
LINE
8
BLACK
6
CONTINUOUS
10
0.474867874015748
20
1.6938813385826772
11
0.4849085039370079
21
1.6849085039370078
0
LINE
8
BLACK
6
CONTINUOUS
10
0.4849085039370079
20
1.6849085039370078
11
0.4938813385826771
21
1.6748678740157481
0
LINE
8
BLACK
6
CONTINUOUS
10
0.4938813385826771
20
1.6748678740157481
11
0.5016735826771653
21
1.6638857480314959
0
LINE
8
BLACK
6
CONTINUOUS
10
0.5016735826771653
20
1.6638857480314959
11
0.5081872047244095
21
1.6521001968503937
0
LINE
8
BLACK
6
CONTINUOUS
10
0.5081872047244095
20
1.6521001968503937
11
0.5133403149606299
21
1.6396594881889763
0
LINE
8
BLACK
6
CONTINUOUS
10
0.5133403149606299
20
1.6396594881889763
11
0.5170681102362205
21
1.6267200393700787
0
LINE
8
BLACK
6
CONTINUOUS
10
0.5170681102362205
20
1.6267200393700787
11
0.5193237007874015
21
1.6134445669291337
0
LINE
8
BLACK
6
CONTINUOUS
10
0.5193237007874015
20
1.6134445669291337
11
0.5200787401574803
21
1.5999999999999999
0
LINE
8
BLACK
6
CONTINUOUS
10
0.5200787401574803
20
1.5999999999999999
11
0.5193237007874015
21
1.586555433070866
0
LINE
8
BLACK
6
CONTINUOUS
10
0.5193237007874015
20
1.586555433070866
11
0.5170681102362205
21
1.5732799606299213
0
LINE
8
BLACK
6
CONTINUOUS
10
0.5170681102362205
20
1.5732799606299213
11
0.5133403149606299
21
1.5603405118110236
0
LINE
8
BLACK
6
CONTINUOUS
10
0.5133403149606299
20
1.5603405118110236
11
0.5081872047244095
21
1.5478998031496063
0
LINE
8
BLACK
6
CONTINUOUS
10
0.5081872047244095
20
1.5478998031496063
11
0.5016735826771653
21
1.5361142519685038
0
LINE
8
BLACK
6
CONTINUOUS
10
0.5016735826771653
20
1.5361142519685038
11
0.4938813385826771
21
1.5251321259842519
0
LINE
8
BLACK
6
CONTINUOUS
10
0.4938813385826771
20
1.5251321259842519
11
0.4849085039370079
21
1.515091496062992
0
LINE
8
BLACK
6
CONTINUOUS
10
0.4849085039370079
20
1.515091496062992
11
0.474867874015748
21
1.5061186614173228
0
LINE
8
BLACK
6
CONTINUOUS
10
0.474867874015748
20
1.5061186614173228
11
0.4638857480314961
21
1.4983264173228346
0
LINE
8
BLACK
6
CONTINUOUS
10
0.4638857480314961
20
1.4983264173228346
11
0.4521001968503937
21
1.4918127952755904
0
LINE
8
BLACK
6
CONTINUOUS
10
0.4521001968503937
20
1.4918127952755904
11
0.4396594881889764
21
1.4866596850393701
0
LINE
8
BLACK
6
CONTINUOUS
10
0.4396594881889764
20
1.4866596850393701
11
0.4267200393700787
21
1.4829318897637795
0
LINE
8
BLACK
6
CONTINUOUS
10
0.4267200393700787
20
1.4829318897637795
11
0.4134445669291338
21
1.4806762992125984
0
LINE
8
BLACK
6
CONTINUOUS
10
0.4134445669291338
20
1.4806762992125984
11
0.4
21
1.4799212598425195
0
LINE
8
BLACK
6
CONTINUOUS
10
0.4
20
1.4799212598425195
11
0.3865554330708662
21
1.4806762992125984
0
LINE
8
BLACK
6
CONTINUOUS
10
0.3865554330708662
20
1.4806762992125984
11
0.3732799606299212
21
1.4829318897637795
0
LINE
8
BLACK
6
CONTINUOUS
10
0.3732799606299212
20
1.4829318897637795
11
0.3603405118110236
21
1.4866596850393701
0
LINE
8
BLACK
6
CONTINUOUS
10
0.3603405118110236
20
1.4866596850393701
11
0.3478998031496063
21
1.4918127952755904
0
LINE
8
BLACK
6
CONTINUOUS
10
0.3478998031496063
20
1.4918127952755904
11
0.3361142519685039
21
1.4983264173228346
0
LINE
8
BLACK
6
CONTINUOUS
10
0.3361142519685039
20
1.4983264173228346
11
0.325132125984252
21
1.5061186614173228
0
LINE
8
BLACK
6
CONTINUOUS
10
0.325132125984252
20
1.5061186614173228
11
0.3150914960629921
21
1.515091496062992
0
LINE
8
BLACK
6
CONTINUOUS
10
0.3150914960629921
20
1.515091496062992
11
0.3061186614173228
21
1.5251321259842519
0
LINE
8
BLACK
6
CONTINUOUS
10
0.3061186614173228
20
1.5251321259842519
11
0.2983264173228347
21
1.5361142519685038
0
LINE
8
BLACK
6
CONTINUOUS
10
0.2983264173228347
20
1.5361142519685038
11
0.2918127952755906
21
1.5478998031496063
0
LINE
8
BLACK
6
CONTINUOUS
10
0.2918127952755906
20
1.5478998031496063
11
0.2866596850393701
21
1.5603405118110236
0
LINE
8
BLACK
6
CONTINUOUS
10
0.2866596850393701
20
1.5603405118110236
11
0.2829318897637795
21
1.5732799606299213
0
LINE
8
BLACK
6
CONTINUOUS
10
0.2829318897637795
20
1.5732799606299213
11
0.2806762992125984
21
1.586555433070866
0
LINE
8
BLACK
6
CONTINUOUS
10
0.2806762992125984
20
1.586555433070866
11
0.2799212598425197
21
1.5999999999999999
0
LINE
8
BLACK
6
CONTINUOUS
10
0.2799212598425197
20
1.5999999999999999
11
0.2806762992125984
21
1.6134445669291337
0
LINE
8
BLACK
6
CONTINUOUS
10
0.2806762992125984
20
1.6134445669291337
11
0.2829318897637795
21
1.6267200393700787
0
LINE
8
BLACK
6
CONTINUOUS
10
0.2829318897637795
20
1.6267200393700787
11
0.2866596850393701
21
1.6396594881889763
0
LINE
8
BLACK
6
CONTINUOUS
10
0.2866596850393701
20
1.6396594881889763
11
0.2918127952755906
21
1.6521001968503937
0
LINE
8
BLACK
6
CONTINUOUS
10
0.2918127952755906
20
1.6521001968503937
11
0.2983264173228347
21
1.6638857480314959
0
LINE
8
BLACK
6
CONTINUOUS
10
0.2983264173228347
20
1.6638857480314959
11
0.3061186614173228
21
1.6748678740157481
0
LINE
8
BLACK
6
CONTINUOUS
10
0.3061186614173228
20
1.6748678740157481
11
0.3150914960629921
21
1.6849085039370078
0
LINE
8
BLACK
6
CONTINUOUS
10
0.3150914960629921
20
1.6849085039370078
11
0.325132125984252
21
1.6938813385826772
0
LINE
8
BLACK
6
CONTINUOUS
10
0.325132125984252
20
1.6938813385826772
11
0.3361142519685039
21
1.7016735826771654
0
LINE
8
BLACK
6
CONTINUOUS
10
0.3361142519685039
20
1.7016735826771654
11
0.3478998031496063
21
1.7081872047244093
0
LINE
8
BLACK
6
CONTINUOUS
10
0.3478998031496063
20
1.7081872047244093
11
0.3603405118110236
21
1.7133403149606299
0
LINE
8
BLACK
6
CONTINUOUS
10
0.3603405118110236
20
1.7133403149606299
11
0.3732799606299212
21
1.7170681102362204
0
LINE
8
BLACK
6
CONTINUOUS
10
0.3732799606299212
20
1.7170681102362204
11
0.3865554330708662
21
1.7193237007874016
0
LINE
8
BLACK
6
CONTINUOUS
10
0.3865554330708662
20
1.7193237007874016
11
0.4
21
1.7200787401574802
0
LINE
8
BLACK
6
CONTINUOUS
10
0.4
20
1.7200787401574802
11
0.4134445669291338
21
1.7193237007874016
0
LINE
8
BLACK
6
CONTINUOUS
10
2.413444566929134
20
1.7193237007874016
11
2.4267200393700787
21
1.7170681102362204
0
LINE
8
BLACK
6
CONTINUOUS
10
2.4267200393700787
20
1.7170681102362204
11
2.4396594881889762
21
1.7133403149606299
0
LINE
8
BLACK
6
CONTINUOUS
10
2.4396594881889762
20
1.7133403149606299
11
2.4521001968503935
21
1.7081872047244093
0
LINE
8
BLACK
6
CONTINUOUS
10
2.4521001968503935
20
1.7081872047244093
11
2.4638857480314962
21
1.7016735826771654
0
LINE
8
BLACK
6
CONTINUOUS
10
2.4638857480314962
20
1.7016735826771654
11
2.4748678740157479
21
1.6938813385826772
0
LINE
8
BLACK
6
CONTINUOUS
10
2.4748678740157479
20
1.6938813385826772
11
2.484908503937008
21
1.6849085039370078
0
LINE
8
BLACK
6
CONTINUOUS
10
2.484908503937008
20
1.6849085039370078
11
2.493881338582677
21
1.6748678740157481
0
LINE
8
BLACK
6
CONTINUOUS
10
2.493881338582677
20
1.6748678740157481
11
2.5016735826771654
21
1.6638857480314959
0
LINE
8
BLACK
6
CONTINUOUS
10
2.5016735826771654
20
1.6638857480314959
11
2.5081872047244094
21
1.6521001968503937
0
LINE
8
BLACK
6
CONTINUOUS
10
2.5081872047244094
20
1.6521001968503937
11
2.5133403149606299
21
1.6396594881889763
0
LINE
8
BLACK
6
CONTINUOUS
10
2.5133403149606299
20
1.6396594881889763
11
2.5170681102362202
21
1.6267200393700787
0
LINE
8
BLACK
6
CONTINUOUS
10
2.5170681102362202
20
1.6267200393700787
11
2.5193237007874014
21
1.6134445669291337
0
LINE
8
BLACK
6
CONTINUOUS
10
2.5193237007874014
20
1.6134445669291337
11
2.5200787401574805
21
1.5999999999999999
0
LINE
8
BLACK
6
CONTINUOUS
10
2.5200787401574805
20
1.5999999999999999
11
2.5193237007874014
21
1.586555433070866
0
LINE
8
BLACK
6
CONTINUOUS
10
2.5193237007874014
20
1.586555433070866
11
2.5170681102362202
21
1.5732799606299213
0
LINE
8
BLACK
6
CONTINUOUS
10
2.5170681102362202
20
1.5732799606299213
11
2.5133403149606299
21
1.5603405118110236
0
LINE
8
BLACK
6
CONTINUOUS
10
2.5133403149606299
20
1.5603405118110236
11
2.5081872047244094
21
1.5478998031496063
0
LINE
8
BLACK
6
CONTINUOUS
10
2.5081872047244094
20
1.5478998031496063
11
2.5016735826771654
21
1.5361142519685038
0
LINE
8
BLACK
6
CONTINUOUS
10
2.5016735826771654
20
1.5361142519685038
11
2.493881338582677
21
1.5251321259842519
0
LINE
8
BLACK
6
CONTINUOUS
10
2.493881338582677
20
1.5251321259842519
11
2.484908503937008
21
1.515091496062992
0
LINE
8
BLACK
6
CONTINUOUS
10
2.484908503937008
20
1.515091496062992
11
2.4748678740157479
21
1.5061186614173228
0
LINE
8
BLACK
6
CONTINUOUS
10
2.4748678740157479
20
1.5061186614173228
11
2.4638857480314962
21
1.4983264173228346
0
LINE
8
BLACK
6
CONTINUOUS
10
2.4638857480314962
20
1.4983264173228346
11
2.4521001968503935
21
1.4918127952755904
0
LINE
8
BLACK
6
CONTINUOUS
10
2.4521001968503935
20
1.4918127952755904
11
2.4396594881889762
21
1.4866596850393701
0
LINE
8
BLACK
6
CONTINUOUS
10
2.4396594881889762
20
1.4866596850393701
11
2.4267200393700787
21
1.4829318897637795
0
LINE
8
BLACK
6
CONTINUOUS
10
2.4267200393700787
20
1.4829318897637795
11
2.413444566929134
21
1.4806762992125984
0
LINE
8
BLACK
6
CONTINUOUS
10
2.413444566929134
20
1.4806762992125984
11
2.3999999999999999
21
1.4799212598425195
0
LINE
8
BLACK
6
CONTINUOUS
10
2.3999999999999999
20
1.4799212598425195
11
2.3865554330708663
21
1.4806762992125984
0
LINE
8
BLACK
6
CONTINUOUS
10
2.3865554330708663
20
1.4806762992125984
11
2.3732799606299211
21
1.4829318897637795
0
LINE
8
BLACK
6
CONTINUOUS
10
2.3732799606299211
20
1.4829318897637795
11
2.3603405118110237
21
1.4866596850393701
0
LINE
8
BLACK
6
CONTINUOUS
10
2.3603405118110237
20
1.4866596850393701
11
2.3478998031496063
21
1.4918127952755904
0
LINE
8
BLACK
6
CONTINUOUS
10
2.3478998031496063
20
1.4918127952755904
11
2.3361142519685041
21
1.4983264173228346
0
LINE
8
BLACK
6
CONTINUOUS
10
2.3361142519685041
20
1.4983264173228346
11
2.3251321259842519
21
1.5061186614173228
0
LINE
8
BLACK
6
CONTINUOUS
10
2.3251321259842519
20
1.5061186614173228
11
2.3150914960629922
21
1.515091496062992
0
LINE
8
BLACK
6
CONTINUOUS
10
2.3150914960629922
20
1.515091496062992
11
2.3061186614173228
21
1.5251321259842519
0
LINE
8
BLACK
6
CONTINUOUS
10
2.3061186614173228
20
1.5251321259842519
11
2.2983264173228344
21
1.5361142519685038
0
LINE
8
BLACK
6
CONTINUOUS
10
2.2983264173228344
20
1.5361142519685038
11
2.2918127952755905
21
1.5478998031496063
0
LINE
8
BLACK
6
CONTINUOUS
10
2.2918127952755905
20
1.5478998031496063
11
2.2866596850393699
21
1.5603405118110236
0
LINE
8
BLACK
6
CONTINUOUS
10
2.2866596850393699
20
1.5603405118110236
11
2.2829318897637796
21
1.5732799606299213
0
LINE
8
BLACK
6
CONTINUOUS
10
2.2829318897637796
20
1.5732799606299213
11
2.2806762992125984
21
1.586555433070866
0
LINE
8
BLACK
6
CONTINUOUS
10
2.2806762992125984
20
1.586555433070866
11
2.2799212598425198
21
1.5999999999999999
0
LINE
8
BLACK
6
CONTINUOUS
10
2.2799212598425198
20
1.5999999999999999
11
2.2806762992125984
21
1.6134445669291337
0
LINE
8
BLACK
6
CONTINUOUS
10
2.2806762992125984
20
1.6134445669291337
11
2.2829318897637796
21
1.6267200393700787
0
LINE
8
BLACK
6
CONTINUOUS
10
2.2829318897637796
20
1.6267200393700787
11
2.2866596850393699
21
1.6396594881889763
0
LINE
8
BLACK
6
CONTINUOUS
10
2.2866596850393699
20
1.6396594881889763
11
2.2918127952755905
21
1.6521001968503937
0
LINE
8
BLACK
6
CONTINUOUS
10
2.2918127952755905
20
1.6521001968503937
11
2.2983264173228344
21
1.6638857480314959
0
LINE
8
BLACK
6
CONTINUOUS
10
2.2983264173228344
20
1.6638857480314959
11
2.3061186614173228
21
1.6748678740157481
0
LINE
8
BLACK
6
CONTINUOUS
10
2.3061186614173228
20
1.6748678740157481
11
2.3150914960629922
21
1.6849085039370078
0
LINE
8
BLACK
6
CONTINUOUS
10
2.3150914960629922
20
1.6849085039370078
11
2.3251321259842519
21
1.6938813385826772
0
LINE
8
BLACK
6
CONTINUOUS
10
2.3251321259842519
20
1.6938813385826772
11
2.3361142519685041
21
1.7016735826771654
0
LINE
8
BLACK
6
CONTINUOUS
10
2.3361142519685041
20
1.7016735826771654
11
2.3478998031496063
21
1.7081872047244093
0
LINE
8
BLACK
6
CONTINUOUS
10
2.3478998031496063
20
1.7081872047244093
11
2.3603405118110237
21
1.7133403149606299
0
LINE
8
BLACK
6
CONTINUOUS
10
2.3603405118110237
20
1.7133403149606299
11
2.3732799606299211
21
1.7170681102362204
0
LINE
8
BLACK
6
CONTINUOUS
10
2.3732799606299211
20
1.7170681102362204
11
2.3865554330708663
21
1.7193237007874016
0
LINE
8
BLACK
6
CONTINUOUS
10
2.3865554330708663
20
1.7193237007874016
11
2.3999999999999999
21
1.7200787401574802
0
LINE
8
BLACK
6
CONTINUOUS
10
2.3999999999999999
20
1.7200787401574802
11
2.413444566929134
21
1.7193237007874016
  0
ENDSEC
  0
EOF
