  0
SECTION
  2
HEADER
  9
$ANGBASE
  50
0.0
  9
$ANGDIR
  70
1
  9
$MEASUREMENT
  70
0
  0
ENDSEC
  0
SECTION
  2
TABLES
  0
TABLE
  2
LTYPE
  70
4
  0
LTYPE
  5
40F
  2
CONTINUOUS
  70
0
  3
Solid line
  72
65
  73
0
  40
0.0
  0
LTYPE
  5
410
  2
DASHDOT
 70
0
  3
Dash Dot ____ _ ____ _
 72
65
 73
4
 40
2.0
 49
1.25
 49
-0.25
 49
0.25
 49
-0.25
  0
LTYPE
  5
411
  2
DASHED
 70
0
  3
Dashed __ __ __ __ __
 72
65
 73
2
 40
0.75
 49
0.5
 49
-0.25
  0
LTYPE
  5
43B
  2
DOTTED
 70
0
  3
Dotted .  .  .  .
 72
65
 73
2
 40
0.2
 49
0.0
 49
-0.2
  0
ENDTAB
  0
TABLE
  2
STYLE
  70
4
  0
STYLE
  2
KICAD
  70
0
  40
0
  41
1
  42
1
  50
0
  71
0
  3
isocp.shx
  0
STYLE
  2
KICADB
  70
0
  40
0
  41
1
  42
1
  50
0
  71
0
  3
isocp.shx
  0
STYLE
  2
KICADI
  70
0
  40
0
  41
1
  42
1
  50
15
  71
0
  3
isocp.shx
  0
STYLE
  2
KICADBI
  70
0
  40
0
  41
1
  42
1
  50
15
  71
0
  3
isocp.shx
  0
ENDTAB
  0
TABLE
  2
LAYER
  70
1
  0
LAYER
  2
BLACK
  70
0
  62
7
  6
CONTINUOUS
  0
ENDTAB
  0
ENDSEC
  0
SECTION
  2
ENTITIES
0
LINE
8
BLACK
6
CONTINUOUS
10
0.4136649606299213
20
0.5212798425196851
11
0.4271580708661417
21
0.5189872834645669
0
LINE
8
BLACK
6
CONTINUOUS
10
0.4271580708661417
20
0.5189872834645669
11
0.4403096456692913
21
0.5151983464566929
0
LINE
8
BLACK
6
CONTINUOUS
10
0.4403096456692913
20
0.5151983464566929
11
0.4529543307086614
21
0.509960748031496
0
LINE
8
BLACK
6
CONTINUOUS
10
0.4529543307086614
20
0.509960748031496
11
0.464933031496063
21
0.5033403543307087
0
LINE
8
BLACK
6
CONTINUOUS
10
0.464933031496063
20
0.5033403543307087
11
0.4760951968503937
21
0.4954203937007874
0
LINE
8
BLACK
6
CONTINUOUS
10
0.4760951968503937
20
0.4954203937007874
11
0.4863004330708661
21
0.4863004330708661
0
LINE
8
BLACK
6
CONTINUOUS
10
0.4863004330708661
20
0.4863004330708661
11
0.4954203937007874
21
0.4760951968503937
0
LINE
8
BLACK
6
CONTINUOUS
10
0.4954203937007874
20
0.4760951968503937
11
0.5033403543307087
21
0.464933031496063
0
LINE
8
BLACK
6
CONTINUOUS
10
0.5033403543307087
20
0.464933031496063
11
0.509960748031496
21
0.4529543307086614
0
LINE
8
BLACK
6
CONTINUOUS
10
0.509960748031496
20
0.4529543307086614
11
0.5151983464566929
21
0.4403096456692913
0
LINE
8
BLACK
6
CONTINUOUS
10
0.5151983464566929
20
0.4403096456692913
11
0.5189872834645669
21
0.4271580708661417
0
LINE
8
BLACK
6
CONTINUOUS
10
0.5189872834645669
20
0.4271580708661417
11
0.5212798425196851
21
0.4136649606299213
0
LINE
8
BLACK
6
CONTINUOUS
10
0.5212798425196851
20
0.4136649606299213
11
0.5220472440944882
21
0.4
0
LINE
8
BLACK
6
CONTINUOUS
10
0.5220472440944882
20
0.4
11
0.5212798425196851
21
0.3863350393700787
0
LINE
8
BLACK
6
CONTINUOUS
10
0.5212798425196851
20
0.3863350393700787
11
0.5189872834645669
21
0.3728419291338583
0
LINE
8
BLACK
6
CONTINUOUS
10
0.5189872834645669
20
0.3728419291338583
11
0.5151983464566929
21
0.3596903543307087
0
LINE
8
BLACK
6
CONTINUOUS
10
0.5151983464566929
20
0.3596903543307087
11
0.509960748031496
21
0.3470456692913386
0
LINE
8
BLACK
6
CONTINUOUS
10
0.509960748031496
20
0.3470456692913386
11
0.5033403543307087
21
0.335066968503937
0
LINE
8
BLACK
6
CONTINUOUS
10
0.5033403543307087
20
0.335066968503937
11
0.4954203937007874
21
0.3239048031496063
0
LINE
8
BLACK
6
CONTINUOUS
10
0.4954203937007874
20
0.3239048031496063
11
0.4863004330708661
21
0.3136995669291339
0
LINE
8
BLACK
6
CONTINUOUS
10
0.4863004330708661
20
0.3136995669291339
11
0.4760951968503937
21
0.3045796062992126
0
LINE
8
BLACK
6
CONTINUOUS
10
0.4760951968503937
20
0.3045796062992126
11
0.464933031496063
21
0.2966596456692913
0
LINE
8
BLACK
6
CONTINUOUS
10
0.464933031496063
20
0.2966596456692913
11
0.4529543307086614
21
0.2900392519685039
0
LINE
8
BLACK
6
CONTINUOUS
10
0.4529543307086614
20
0.2900392519685039
11
0.4403096456692913
21
0.2848016535433071
0
LINE
8
BLACK
6
CONTINUOUS
10
0.4403096456692913
20
0.2848016535433071
11
0.4271580708661417
21
0.2810127165354331
0
LINE
8
BLACK
6
CONTINUOUS
10
0.4271580708661417
20
0.2810127165354331
11
0.4136649606299213
21
0.278720157480315
0
LINE
8
BLACK
6
CONTINUOUS
10
0.4136649606299213
20
0.278720157480315
11
0.4
21
0.2779527559055118
0
LINE
8
BLACK
6
CONTINUOUS
10
0.4
20
0.2779527559055118
11
0.3863350393700787
21
0.278720157480315
0
LINE
8
BLACK
6
CONTINUOUS
10
0.3863350393700787
20
0.278720157480315
11
0.3728419291338583
21
0.2810127165354331
0
LINE
8
BLACK
6
CONTINUOUS
10
0.3728419291338583
20
0.2810127165354331
11
0.3596903543307087
21
0.2848016535433071
0
LINE
8
BLACK
6
CONTINUOUS
10
0.3596903543307087
20
0.2848016535433071
11
0.3470456692913386
21
0.2900392519685039
0
LINE
8
BLACK
6
CONTINUOUS
10
0.3470456692913386
20
0.2900392519685039
11
0.335066968503937
21
0.2966596456692913
0
LINE
8
BLACK
6
CONTINUOUS
10
0.335066968503937
20
0.2966596456692913
11
0.3239048031496063
21
0.3045796062992126
0
LINE
8
BLACK
6
CONTINUOUS
10
0.3239048031496063
20
0.3045796062992126
11
0.3136995669291339
21
0.3136995669291339
0
LINE
8
BLACK
6
CONTINUOUS
10
0.3136995669291339
20
0.3136995669291339
11
0.3045796062992126
21
0.3239048031496063
0
LINE
8
BLACK
6
CONTINUOUS
10
0.3045796062992126
20
0.3239048031496063
11
0.2966596456692913
21
0.335066968503937
0
LINE
8
BLACK
6
CONTINUOUS
10
0.2966596456692913
20
0.335066968503937
11
0.2900392519685039
21
0.3470456692913386
0
LINE
8
BLACK
6
CONTINUOUS
10
0.2900392519685039
20
0.3470456692913386
11
0.2848016535433071
21
0.3596903543307087
0
LINE
8
BLACK
6
CONTINUOUS
10
0.2848016535433071
20
0.3596903543307087
11
0.2810127165354331
21
0.3728419291338583
0
LINE
8
BLACK
6
CONTINUOUS
10
0.2810127165354331
20
0.3728419291338583
11
0.278720157480315
21
0.3863350393700787
0
LINE
8
BLACK
6
CONTINUOUS
10
0.278720157480315
20
0.3863350393700787
11
0.2779527559055118
21
0.4
0
LINE
8
BLACK
6
CONTINUOUS
10
0.2779527559055118
20
0.4
11
0.278720157480315
21
0.4136649606299213
0
LINE
8
BLACK
6
CONTINUOUS
10
0.278720157480315
20
0.4136649606299213
11
0.2810127165354331
21
0.4271580708661417
0
LINE
8
BLACK
6
CONTINUOUS
10
0.2810127165354331
20
0.4271580708661417
11
0.2848016535433071
21
0.4403096456692913
0
LINE
8
BLACK
6
CONTINUOUS
10
0.2848016535433071
20
0.4403096456692913
11
0.2900392519685039
21
0.4529543307086614
0
LINE
8
BLACK
6
CONTINUOUS
10
0.2900392519685039
20
0.4529543307086614
11
0.2966596456692913
21
0.464933031496063
0
LINE
8
BLACK
6
CONTINUOUS
10
0.2966596456692913
20
0.464933031496063
11
0.3045796062992126
21
0.4760951968503937
0
LINE
8
BLACK
6
CONTINUOUS
10
0.3045796062992126
20
0.4760951968503937
11
0.3136995669291339
21
0.4863004330708661
0
LINE
8
BLACK
6
CONTINUOUS
10
0.3136995669291339
20
0.4863004330708661
11
0.3239048031496063
21
0.4954203937007874
0
LINE
8
BLACK
6
CONTINUOUS
10
0.3239048031496063
20
0.4954203937007874
11
0.335066968503937
21
0.5033403543307087
0
LINE
8
BLACK
6
CONTINUOUS
10
0.335066968503937
20
0.5033403543307087
11
0.3470456692913386
21
0.509960748031496
0
LINE
8
BLACK
6
CONTINUOUS
10
0.3470456692913386
20
0.509960748031496
11
0.3596903543307087
21
0.5151983464566929
0
LINE
8
BLACK
6
CONTINUOUS
10
0.3596903543307087
20
0.5151983464566929
11
0.3728419291338583
21
0.5189872834645669
0
LINE
8
BLACK
6
CONTINUOUS
10
0.3728419291338583
20
0.5189872834645669
11
0.3863350393700787
21
0.5212798425196851
0
LINE
8
BLACK
6
CONTINUOUS
10
0.3863350393700787
20
0.5212798425196851
11
0.4
21
0.5220472440944882
0
LINE
8
BLACK
6
CONTINUOUS
10
0.4
20
0.5220472440944882
11
0.4136649606299213
21
0.5212798425196851
0
LINE
8
BLACK
6
CONTINUOUS
10
2.4136649606299212
20
0.5212798425196851
11
2.4271580708661418
21
0.5189872834645669
0
LINE
8
BLACK
6
CONTINUOUS
10
2.4271580708661418
20
0.5189872834645669
11
2.4403096456692914
21
0.5151983464566929
0
LINE
8
BLACK
6
CONTINUOUS
10
2.4403096456692914
20
0.5151983464566929
11
2.4529543307086614
21
0.509960748031496
0
LINE
8
BLACK
6
CONTINUOUS
10
2.4529543307086614
20
0.509960748031496
11
2.4649330314960629
21
0.5033403543307087
0
LINE
8
BLACK
6
CONTINUOUS
10
2.4649330314960629
20
0.5033403543307087
11
2.4760951968503937
21
0.4954203937007874
0
LINE
8
BLACK
6
CONTINUOUS
10
2.4760951968503937
20
0.4954203937007874
11
2.4863004330708662
21
0.4863004330708661
0
LINE
8
BLACK
6
CONTINUOUS
10
2.4863004330708662
20
0.4863004330708661
11
2.4954203937007873
21
0.4760951968503937
0
LINE
8
BLACK
6
CONTINUOUS
10
2.4954203937007873
20
0.4760951968503937
11
2.5033403543307085
21
0.464933031496063
0
LINE
8
BLACK
6
CONTINUOUS
10
2.5033403543307085
20
0.464933031496063
11
2.5099607480314958
21
0.4529543307086614
0
LINE
8
BLACK
6
CONTINUOUS
10
2.5099607480314958
20
0.4529543307086614
11
2.5151983464566929
21
0.4403096456692913
0
LINE
8
BLACK
6
CONTINUOUS
10
2.5151983464566929
20
0.4403096456692913
11
2.518987283464567
21
0.4271580708661417
0
LINE
8
BLACK
6
CONTINUOUS
10
2.518987283464567
20
0.4271580708661417
11
2.521279842519685
21
0.4136649606299213
0
LINE
8
BLACK
6
CONTINUOUS
10
2.521279842519685
20
0.4136649606299213
11
2.5220472440944883
21
0.4
0
LINE
8
BLACK
6
CONTINUOUS
10
2.5220472440944883
20
0.4
11
2.521279842519685
21
0.3863350393700787
0
LINE
8
BLACK
6
CONTINUOUS
10
2.521279842519685
20
0.3863350393700787
11
2.518987283464567
21
0.3728419291338583
0
LINE
8
BLACK
6
CONTINUOUS
10
2.518987283464567
20
0.3728419291338583
11
2.5151983464566929
21
0.3596903543307087
0
LINE
8
BLACK
6
CONTINUOUS
10
2.5151983464566929
20
0.3596903543307087
11
2.5099607480314958
21
0.3470456692913386
0
LINE
8
BLACK
6
CONTINUOUS
10
2.5099607480314958
20
0.3470456692913386
11
2.5033403543307085
21
0.335066968503937
0
LINE
8
BLACK
6
CONTINUOUS
10
2.5033403543307085
20
0.335066968503937
11
2.4954203937007873
21
0.3239048031496063
0
LINE
8
BLACK
6
CONTINUOUS
10
2.4954203937007873
20
0.3239048031496063
11
2.4863004330708662
21
0.3136995669291339
0
LINE
8
BLACK
6
CONTINUOUS
10
2.4863004330708662
20
0.3136995669291339
11
2.4760951968503937
21
0.3045796062992126
0
LINE
8
BLACK
6
CONTINUOUS
10
2.4760951968503937
20
0.3045796062992126
11
2.4649330314960629
21
0.2966596456692913
0
LINE
8
BLACK
6
CONTINUOUS
10
2.4649330314960629
20
0.2966596456692913
11
2.4529543307086614
21
0.2900392519685039
0
LINE
8
BLACK
6
CONTINUOUS
10
2.4529543307086614
20
0.2900392519685039
11
2.4403096456692914
21
0.2848016535433071
0
LINE
8
BLACK
6
CONTINUOUS
10
2.4403096456692914
20
0.2848016535433071
11
2.4271580708661418
21
0.2810127165354331
0
LINE
8
BLACK
6
CONTINUOUS
10
2.4271580708661418
20
0.2810127165354331
11
2.4136649606299212
21
0.278720157480315
0
LINE
8
BLACK
6
CONTINUOUS
10
2.4136649606299212
20
0.278720157480315
11
2.3999999999999999
21
0.2779527559055118
0
LINE
8
BLACK
6
CONTINUOUS
10
2.3999999999999999
20
0.2779527559055118
11
2.3863350393700786
21
0.278720157480315
0
LINE
8
BLACK
6
CONTINUOUS
10
2.3863350393700786
20
0.278720157480315
11
2.3728419291338581
21
0.2810127165354331
0
LINE
8
BLACK
6
CONTINUOUS
10
2.3728419291338581
20
0.2810127165354331
11
2.3596903543307084
21
0.2848016535433071
0
LINE
8
BLACK
6
CONTINUOUS
10
2.3596903543307084
20
0.2848016535433071
11
2.3470456692913384
21
0.2900392519685039
0
LINE
8
BLACK
6
CONTINUOUS
10
2.3470456692913384
20
0.2900392519685039
11
2.3350669685039369
21
0.2966596456692913
0
LINE
8
BLACK
6
CONTINUOUS
10
2.3350669685039369
20
0.2966596456692913
11
2.3239048031496061
21
0.3045796062992126
0
LINE
8
BLACK
6
CONTINUOUS
10
2.3239048031496061
20
0.3045796062992126
11
2.3136995669291336
21
0.3136995669291339
0
LINE
8
BLACK
6
CONTINUOUS
10
2.3136995669291336
20
0.3136995669291339
11
2.3045796062992125
21
0.3239048031496063
0
LINE
8
BLACK
6
CONTINUOUS
10
2.3045796062992125
20
0.3239048031496063
11
2.2966596456692914
21
0.335066968503937
0
LINE
8
BLACK
6
CONTINUOUS
10
2.2966596456692914
20
0.335066968503937
11
2.290039251968504
21
0.3470456692913386
0
LINE
8
BLACK
6
CONTINUOUS
10
2.290039251968504
20
0.3470456692913386
11
2.2848016535433069
21
0.3596903543307087
0
LINE
8
BLACK
6
CONTINUOUS
10
2.2848016535433069
20
0.3596903543307087
11
2.2810127165354328
21
0.3728419291338583
0
LINE
8
BLACK
6
CONTINUOUS
10
2.2810127165354328
20
0.3728419291338583
11
2.2787201574803149
21
0.3863350393700787
0
LINE
8
BLACK
6
CONTINUOUS
10
2.2787201574803149
20
0.3863350393700787
11
2.2779527559055119
21
0.4
0
LINE
8
BLACK
6
CONTINUOUS
10
2.2779527559055119
20
0.4
11
2.2787201574803149
21
0.4136649606299213
0
LINE
8
BLACK
6
CONTINUOUS
10
2.2787201574803149
20
0.4136649606299213
11
2.2810127165354328
21
0.4271580708661417
0
LINE
8
BLACK
6
CONTINUOUS
10
2.2810127165354328
20
0.4271580708661417
11
2.2848016535433069
21
0.4403096456692913
0
LINE
8
BLACK
6
CONTINUOUS
10
2.2848016535433069
20
0.4403096456692913
11
2.290039251968504
21
0.4529543307086614
0
LINE
8
BLACK
6
CONTINUOUS
10
2.290039251968504
20
0.4529543307086614
11
2.2966596456692914
21
0.464933031496063
0
LINE
8
BLACK
6
CONTINUOUS
10
2.2966596456692914
20
0.464933031496063
11
2.3045796062992125
21
0.4760951968503937
0
LINE
8
BLACK
6
CONTINUOUS
10
2.3045796062992125
20
0.4760951968503937
11
2.3136995669291336
21
0.4863004330708661
0
LINE
8
BLACK
6
CONTINUOUS
10
2.3136995669291336
20
0.4863004330708661
11
2.3239048031496061
21
0.4954203937007874
0
LINE
8
BLACK
6
CONTINUOUS
10
2.3239048031496061
20
0.4954203937007874
11
2.3350669685039369
21
0.5033403543307087
0
LINE
8
BLACK
6
CONTINUOUS
10
2.3350669685039369
20
0.5033403543307087
11
2.3470456692913384
21
0.509960748031496
0
LINE
8
BLACK
6
CONTINUOUS
10
2.3470456692913384
20
0.509960748031496
11
2.3596903543307084
21
0.5151983464566929
0
LINE
8
BLACK
6
CONTINUOUS
10
2.3596903543307084
20
0.5151983464566929
11
2.3728419291338581
21
0.5189872834645669
0
LINE
8
BLACK
6
CONTINUOUS
10
2.3728419291338581
20
0.5189872834645669
11
2.3863350393700786
21
0.5212798425196851
0
LINE
8
BLACK
6
CONTINUOUS
10
2.3863350393700786
20
0.5212798425196851
11
2.3999999999999999
21
0.5220472440944882
0
LINE
8
BLACK
6
CONTINUOUS
10
2.3999999999999999
20
0.5220472440944882
11
2.4136649606299212
21
0.5212798425196851
0
LINE
8
BLACK
6
CONTINUOUS
10
2.2915066141732283
20
0.7236373228346457
11
2.2927838976377952
21
0.7227838976377953
0
LINE
8
BLACK
6
CONTINUOUS
10
2.2927838976377952
20
0.7227838976377953
11
2.2936373228346456
21
0.7215066141732284
0
LINE
8
BLACK
6
CONTINUOUS
10
2.2936373228346456
20
0.7215066141732284
11
2.2939370078740158
21
0.72
0
LINE
8
BLACK
6
CONTINUOUS
10
2.2939370078740158
20
0.72
11
2.2939370078740158
21
0.66
0
LINE
8
BLACK
6
CONTINUOUS
10
2.2939370078740158
20
0.66
11
2.2936373228346456
21
0.6584933858267716
0
LINE
8
BLACK
6
CONTINUOUS
10
2.2936373228346456
20
0.6584933858267716
11
2.2927838976377952
21
0.6572161023622047
0
LINE
8
BLACK
6
CONTINUOUS
10
2.2927838976377952
20
0.6572161023622047
11
2.2915066141732283
21
0.6563626771653543
0
LINE
8
BLACK
6
CONTINUOUS
10
2.2915066141732283
20
0.6563626771653543
11
2.29
21
0.6560629921259843
0
LINE
8
BLACK
6
CONTINUOUS
10
2.29
20
0.6560629921259843
11
2.23
21
0.6560629921259843
0
LINE
8
BLACK
6
CONTINUOUS
10
2.23
20
0.6560629921259843
11
2.2284933858267717
21
0.6563626771653543
0
LINE
8
BLACK
6
CONTINUOUS
10
2.2284933858267717
20
0.6563626771653543
11
2.2272161023622048
21
0.6572161023622047
0
LINE
8
BLACK
6
CONTINUOUS
10
2.2272161023622048
20
0.6572161023622047
11
2.2263626771653544
21
0.6584933858267716
0
LINE
8
BLACK
6
CONTINUOUS
10
2.2263626771653544
20
0.6584933858267716
11
2.2260629921259842
21
0.66
0
LINE
8
BLACK
6
CONTINUOUS
10
2.2260629921259842
20
0.66
11
2.2260629921259842
21
0.72
0
LINE
8
BLACK
6
CONTINUOUS
10
2.2260629921259842
20
0.72
11
2.2263626771653544
21
0.7215066141732284
0
LINE
8
BLACK
6
CONTINUOUS
10
2.2263626771653544
20
0.7215066141732284
11
2.2272161023622048
21
0.7227838976377953
0
LINE
8
BLACK
6
CONTINUOUS
10
2.2272161023622048
20
0.7227838976377953
11
2.2284933858267717
21
0.7236373228346457
0
LINE
8
BLACK
6
CONTINUOUS
10
2.2284933858267717
20
0.7236373228346457
11
2.23
21
0.7239370078740157
0
LINE
8
BLACK
6
CONTINUOUS
10
2.23
20
0.7239370078740157
11
2.29
21
0.7239370078740157
0
LINE
8
BLACK
6
CONTINUOUS
10
2.29
20
0.7239370078740157
11
2.2915066141732283
21
0.7236373228346457
0
LINE
8
BLACK
6
CONTINUOUS
10
2.3915066141732284
20
0.7236373228346457
11
2.3927838976377953
21
0.7227838976377953
0
LINE
8
BLACK
6
CONTINUOUS
10
2.3927838976377953
20
0.7227838976377953
11
2.3936373228346457
21
0.7215066141732284
0
LINE
8
BLACK
6
CONTINUOUS
10
2.3936373228346457
20
0.7215066141732284
11
2.3939370078740159
21
0.72
0
LINE
8
BLACK
6
CONTINUOUS
10
2.3939370078740159
20
0.72
11
2.3939370078740159
21
0.66
0
LINE
8
BLACK
6
CONTINUOUS
10
2.3939370078740159
20
0.66
11
2.3936373228346457
21
0.6584933858267716
0
LINE
8
BLACK
6
CONTINUOUS
10
2.3936373228346457
20
0.6584933858267716
11
2.3927838976377953
21
0.6572161023622047
0
LINE
8
BLACK
6
CONTINUOUS
10
2.3927838976377953
20
0.6572161023622047
11
2.3915066141732284
21
0.6563626771653543
0
LINE
8
BLACK
6
CONTINUOUS
10
2.3915066141732284
20
0.6563626771653543
11
2.3900000000000001
21
0.6560629921259843
0
LINE
8
BLACK
6
CONTINUOUS
10
2.3900000000000001
20
0.6560629921259843
11
2.3300000000000001
21
0.6560629921259843
0
LINE
8
BLACK
6
CONTINUOUS
10
2.3300000000000001
20
0.6560629921259843
11
2.3284933858267718
21
0.6563626771653543
0
LINE
8
BLACK
6
CONTINUOUS
10
2.3284933858267718
20
0.6563626771653543
11
2.3272161023622049
21
0.6572161023622047
0
LINE
8
BLACK
6
CONTINUOUS
10
2.3272161023622049
20
0.6572161023622047
11
2.3263626771653545
21
0.6584933858267716
0
LINE
8
BLACK
6
CONTINUOUS
10
2.3263626771653545
20
0.6584933858267716
11
2.3260629921259843
21
0.66
0
LINE
8
BLACK
6
CONTINUOUS
10
2.3260629921259843
20
0.66
11
2.3260629921259843
21
0.72
0
LINE
8
BLACK
6
CONTINUOUS
10
2.3260629921259843
20
0.72
11
2.3263626771653545
21
0.7215066141732284
0
LINE
8
BLACK
6
CONTINUOUS
10
2.3263626771653545
20
0.7215066141732284
11
2.3272161023622049
21
0.7227838976377953
0
LINE
8
BLACK
6
CONTINUOUS
10
2.3272161023622049
20
0.7227838976377953
11
2.3284933858267718
21
0.7236373228346457
0
LINE
8
BLACK
6
CONTINUOUS
10
2.3284933858267718
20
0.7236373228346457
11
2.3300000000000001
21
0.7239370078740157
0
LINE
8
BLACK
6
CONTINUOUS
10
2.3300000000000001
20
0.7239370078740157
11
2.3900000000000001
21
0.7239370078740157
0
LINE
8
BLACK
6
CONTINUOUS
10
2.3900000000000001
20
0.7239370078740157
11
2.3915066141732284
21
0.7236373228346457
0
LINE
8
BLACK
6
CONTINUOUS
10
2.2915066141732283
20
0.8236373228346456
11
2.2927838976377952
21
0.8227838976377952
0
LINE
8
BLACK
6
CONTINUOUS
10
2.2927838976377952
20
0.8227838976377952
11
2.2936373228346456
21
0.8215066141732283
0
LINE
8
BLACK
6
CONTINUOUS
10
2.2936373228346456
20
0.8215066141732283
11
2.2939370078740158
21
0.82
0
LINE
8
BLACK
6
CONTINUOUS
10
2.2939370078740158
20
0.82
11
2.2939370078740158
21
0.76
0
LINE
8
BLACK
6
CONTINUOUS
10
2.2939370078740158
20
0.76
11
2.2936373228346456
21
0.7584933858267716
0
LINE
8
BLACK
6
CONTINUOUS
10
2.2936373228346456
20
0.7584933858267716
11
2.2927838976377952
21
0.7572161023622047
0
LINE
8
BLACK
6
CONTINUOUS
10
2.2927838976377952
20
0.7572161023622047
11
2.2915066141732283
21
0.7563626771653543
0
LINE
8
BLACK
6
CONTINUOUS
10
2.2915066141732283
20
0.7563626771653543
11
2.29
21
0.7560629921259843
0
LINE
8
BLACK
6
CONTINUOUS
10
2.29
20
0.7560629921259843
11
2.23
21
0.7560629921259843
0
LINE
8
BLACK
6
CONTINUOUS
10
2.23
20
0.7560629921259843
11
2.2284933858267717
21
0.7563626771653543
0
LINE
8
BLACK
6
CONTINUOUS
10
2.2284933858267717
20
0.7563626771653543
11
2.2272161023622048
21
0.7572161023622047
0
LINE
8
BLACK
6
CONTINUOUS
10
2.2272161023622048
20
0.7572161023622047
11
2.2263626771653544
21
0.7584933858267716
0
LINE
8
BLACK
6
CONTINUOUS
10
2.2263626771653544
20
0.7584933858267716
11
2.2260629921259842
21
0.76
0
LINE
8
BLACK
6
CONTINUOUS
10
2.2260629921259842
20
0.76
11
2.2260629921259842
21
0.82
0
LINE
8
BLACK
6
CONTINUOUS
10
2.2260629921259842
20
0.82
11
2.2263626771653544
21
0.8215066141732283
0
LINE
8
BLACK
6
CONTINUOUS
10
2.2263626771653544
20
0.8215066141732283
11
2.2272161023622048
21
0.8227838976377952
0
LINE
8
BLACK
6
CONTINUOUS
10
2.2272161023622048
20
0.8227838976377952
11
2.2284933858267717
21
0.8236373228346456
0
LINE
8
BLACK
6
CONTINUOUS
10
2.2284933858267717
20
0.8236373228346456
11
2.23
21
0.8239370078740157
0
LINE
8
BLACK
6
CONTINUOUS
10
2.23
20
0.8239370078740157
11
2.29
21
0.8239370078740157
0
LINE
8
BLACK
6
CONTINUOUS
10
2.29
20
0.8239370078740157
11
2.2915066141732283
21
0.8236373228346456
0
LINE
8
BLACK
6
CONTINUOUS
10
2.3915066141732284
20
0.8236373228346456
11
2.3927838976377953
21
0.8227838976377952
0
LINE
8
BLACK
6
CONTINUOUS
10
2.3927838976377953
20
0.8227838976377952
11
2.3936373228346457
21
0.8215066141732283
0
LINE
8
BLACK
6
CONTINUOUS
10
2.3936373228346457
20
0.8215066141732283
11
2.3939370078740159
21
0.82
0
LINE
8
BLACK
6
CONTINUOUS
10
2.3939370078740159
20
0.82
11
2.3939370078740159
21
0.76
0
LINE
8
BLACK
6
CONTINUOUS
10
2.3939370078740159
20
0.76
11
2.3936373228346457
21
0.7584933858267716
0
LINE
8
BLACK
6
CONTINUOUS
10
2.3936373228346457
20
0.7584933858267716
11
2.3927838976377953
21
0.7572161023622047
0
LINE
8
BLACK
6
CONTINUOUS
10
2.3927838976377953
20
0.7572161023622047
11
2.3915066141732284
21
0.7563626771653543
0
LINE
8
BLACK
6
CONTINUOUS
10
2.3915066141732284
20
0.7563626771653543
11
2.3900000000000001
21
0.7560629921259843
0
LINE
8
BLACK
6
CONTINUOUS
10
2.3900000000000001
20
0.7560629921259843
11
2.3300000000000001
21
0.7560629921259843
0
LINE
8
BLACK
6
CONTINUOUS
10
2.3300000000000001
20
0.7560629921259843
11
2.3284933858267718
21
0.7563626771653543
0
LINE
8
BLACK
6
CONTINUOUS
10
2.3284933858267718
20
0.7563626771653543
11
2.3272161023622049
21
0.7572161023622047
0
LINE
8
BLACK
6
CONTINUOUS
10
2.3272161023622049
20
0.7572161023622047
11
2.3263626771653545
21
0.7584933858267716
0
LINE
8
BLACK
6
CONTINUOUS
10
2.3263626771653545
20
0.7584933858267716
11
2.3260629921259843
21
0.76
0
LINE
8
BLACK
6
CONTINUOUS
10
2.3260629921259843
20
0.76
11
2.3260629921259843
21
0.82
0
LINE
8
BLACK
6
CONTINUOUS
10
2.3260629921259843
20
0.82
11
2.3263626771653545
21
0.8215066141732283
0
LINE
8
BLACK
6
CONTINUOUS
10
2.3263626771653545
20
0.8215066141732283
11
2.3272161023622049
21
0.8227838976377952
0
LINE
8
BLACK
6
CONTINUOUS
10
2.3272161023622049
20
0.8227838976377952
11
2.3284933858267718
21
0.8236373228346456
0
LINE
8
BLACK
6
CONTINUOUS
10
2.3284933858267718
20
0.8236373228346456
11
2.3300000000000001
21
0.8239370078740157
0
LINE
8
BLACK
6
CONTINUOUS
10
2.3300000000000001
20
0.8239370078740157
11
2.3900000000000001
21
0.8239370078740157
0
LINE
8
BLACK
6
CONTINUOUS
10
2.3900000000000001
20
0.8239370078740157
11
2.3915066141732284
21
0.8236373228346456
0
LINE
8
BLACK
6
CONTINUOUS
10
0.3473747637795275
20
0.9474956299212598
11
0.3554950787401575
21
0.9453198031496063
0
LINE
8
BLACK
6
CONTINUOUS
10
0.3554950787401575
20
0.9453198031496063
11
0.3631141732283464
21
0.941766968503937
0
LINE
8
BLACK
6
CONTINUOUS
10
0.3631141732283464
20
0.941766968503937
11
0.3700005905511811
21
0.9369450393700787
0
LINE
8
BLACK
6
CONTINUOUS
10
0.3700005905511811
20
0.9369450393700787
11
0.3759450393700787
21
0.9310005905511811
0
LINE
8
BLACK
6
CONTINUOUS
10
0.3759450393700787
20
0.9310005905511811
11
0.380766968503937
21
0.9241141732283464
0
LINE
8
BLACK
6
CONTINUOUS
10
0.380766968503937
20
0.9241141732283464
11
0.3843198031496063
21
0.9164950787401575
0
LINE
8
BLACK
6
CONTINUOUS
10
0.3843198031496063
20
0.9164950787401575
11
0.3864956299212599
21
0.9083747637795275
0
LINE
8
BLACK
6
CONTINUOUS
10
0.3864956299212599
20
0.9083747637795275
11
0.3872283464566929
21
0.9
0
LINE
8
BLACK
6
CONTINUOUS
10
0.3872283464566929
20
0.9
11
0.3864956299212599
21
0.8916252362204724
0
LINE
8
BLACK
6
CONTINUOUS
10
0.3864956299212599
20
0.8916252362204724
11
0.3843198031496063
21
0.8835049212598425
0
LINE
8
BLACK
6
CONTINUOUS
10
0.3843198031496063
20
0.8835049212598425
11
0.380766968503937
21
0.8758858267716535
0
LINE
8
BLACK
6
CONTINUOUS
10
0.380766968503937
20
0.8758858267716535
11
0.3759450393700787
21
0.8689994094488189
0
LINE
8
BLACK
6
CONTINUOUS
10
0.3759450393700787
20
0.8689994094488189
11
0.3700005905511811
21
0.8630549606299213
0
LINE
8
BLACK
6
CONTINUOUS
10
0.3700005905511811
20
0.8630549606299213
11
0.3631141732283464
21
0.858233031496063
0
LINE
8
BLACK
6
CONTINUOUS
10
0.3631141732283464
20
0.858233031496063
11
0.3554950787401575
21
0.8546801968503936
0
LINE
8
BLACK
6
CONTINUOUS
10
0.3554950787401575
20
0.8546801968503936
11
0.3473747637795275
21
0.8525043700787401
0
LINE
8
BLACK
6
CONTINUOUS
10
0.3473747637795275
20
0.8525043700787401
11
0.339
21
0.8517716535433071
0
LINE
8
BLACK
6
CONTINUOUS
10
0.339
20
0.8517716535433071
11
0.3306252362204724
21
0.8525043700787401
0
LINE
8
BLACK
6
CONTINUOUS
10
0.3306252362204724
20
0.8525043700787401
11
0.3225049212598425
21
0.8546801968503936
0
LINE
8
BLACK
6
CONTINUOUS
10
0.3225049212598425
20
0.8546801968503936
11
0.3148858267716536
21
0.858233031496063
0
LINE
8
BLACK
6
CONTINUOUS
10
0.3148858267716536
20
0.858233031496063
11
0.3079994094488189
21
0.8630549606299213
0
LINE
8
BLACK
6
CONTINUOUS
10
0.3079994094488189
20
0.8630549606299213
11
0.3020549606299213
21
0.8689994094488189
0
LINE
8
BLACK
6
CONTINUOUS
10
0.3020549606299213
20
0.8689994094488189
11
0.297233031496063
21
0.8758858267716535
0
LINE
8
BLACK
6
CONTINUOUS
10
0.297233031496063
20
0.8758858267716535
11
0.2936801968503937
21
0.8835049212598425
0
LINE
8
BLACK
6
CONTINUOUS
10
0.2936801968503937
20
0.8835049212598425
11
0.2915043700787401
21
0.8916252362204724
0
LINE
8
BLACK
6
CONTINUOUS
10
0.2915043700787401
20
0.8916252362204724
11
0.2907716535433071
21
0.9
0
LINE
8
BLACK
6
CONTINUOUS
10
0.2907716535433071
20
0.9
11
0.2915043700787401
21
0.9083747637795275
0
LINE
8
BLACK
6
CONTINUOUS
10
0.2915043700787401
20
0.9083747637795275
11
0.2936801968503937
21
0.9164950787401575
0
LINE
8
BLACK
6
CONTINUOUS
10
0.2936801968503937
20
0.9164950787401575
11
0.297233031496063
21
0.9241141732283464
0
LINE
8
BLACK
6
CONTINUOUS
10
0.297233031496063
20
0.9241141732283464
11
0.3020549606299213
21
0.9310005905511811
0
LINE
8
BLACK
6
CONTINUOUS
10
0.3020549606299213
20
0.9310005905511811
11
0.3079994094488189
21
0.9369450393700787
0
LINE
8
BLACK
6
CONTINUOUS
10
0.3079994094488189
20
0.9369450393700787
11
0.3148858267716536
21
0.941766968503937
0
LINE
8
BLACK
6
CONTINUOUS
10
0.3148858267716536
20
0.941766968503937
11
0.3225049212598425
21
0.9453198031496063
0
LINE
8
BLACK
6
CONTINUOUS
10
0.3225049212598425
20
0.9453198031496063
11
0.3306252362204724
21
0.9474956299212598
0
LINE
8
BLACK
6
CONTINUOUS
10
0.3306252362204724
20
0.9474956299212598
11
0.339
21
0.9482283464566928
0
LINE
8
BLACK
6
CONTINUOUS
10
0.339
20
0.9482283464566928
11
0.3473747637795275
21
0.9474956299212598
0
LINE
8
BLACK
6
CONTINUOUS
10
0.5473747637795275
20
0.9474956299212598
11
0.5554950787401575
21
0.9453198031496063
0
LINE
8
BLACK
6
CONTINUOUS
10
0.5554950787401575
20
0.9453198031496063
11
0.5631141732283464
21
0.941766968503937
0
LINE
8
BLACK
6
CONTINUOUS
10
0.5631141732283464
20
0.941766968503937
11
0.5700005905511811
21
0.9369450393700787
0
LINE
8
BLACK
6
CONTINUOUS
10
0.5700005905511811
20
0.9369450393700787
11
0.5759450393700787
21
0.9310005905511811
0
LINE
8
BLACK
6
CONTINUOUS
10
0.5759450393700787
20
0.9310005905511811
11
0.5807669685039369
21
0.9241141732283464
0
LINE
8
BLACK
6
CONTINUOUS
10
0.5807669685039369
20
0.9241141732283464
11
0.5843198031496063
21
0.9164950787401575
0
LINE
8
BLACK
6
CONTINUOUS
10
0.5843198031496063
20
0.9164950787401575
11
0.5864956299212598
21
0.9083747637795275
0
LINE
8
BLACK
6
CONTINUOUS
10
0.5864956299212598
20
0.9083747637795275
11
0.5872283464566929
21
0.9
0
LINE
8
BLACK
6
CONTINUOUS
10
0.5872283464566929
20
0.9
11
0.5864956299212598
21
0.8916252362204724
0
LINE
8
BLACK
6
CONTINUOUS
10
0.5864956299212598
20
0.8916252362204724
11
0.5843198031496063
21
0.8835049212598425
0
LINE
8
BLACK
6
CONTINUOUS
10
0.5843198031496063
20
0.8835049212598425
11
0.5807669685039369
21
0.8758858267716535
0
LINE
8
BLACK
6
CONTINUOUS
10
0.5807669685039369
20
0.8758858267716535
11
0.5759450393700787
21
0.8689994094488189
0
LINE
8
BLACK
6
CONTINUOUS
10
0.5759450393700787
20
0.8689994094488189
11
0.5700005905511811
21
0.8630549606299213
0
LINE
8
BLACK
6
CONTINUOUS
10
0.5700005905511811
20
0.8630549606299213
11
0.5631141732283464
21
0.858233031496063
0
LINE
8
BLACK
6
CONTINUOUS
10
0.5631141732283464
20
0.858233031496063
11
0.5554950787401575
21
0.8546801968503936
0
LINE
8
BLACK
6
CONTINUOUS
10
0.5554950787401575
20
0.8546801968503936
11
0.5473747637795275
21
0.8525043700787401
0
LINE
8
BLACK
6
CONTINUOUS
10
0.5473747637795275
20
0.8525043700787401
11
0.539
21
0.8517716535433071
0
LINE
8
BLACK
6
CONTINUOUS
10
0.539
20
0.8517716535433071
11
0.5306252362204724
21
0.8525043700787401
0
LINE
8
BLACK
6
CONTINUOUS
10
0.5306252362204724
20
0.8525043700787401
11
0.5225049212598425
21
0.8546801968503936
0
LINE
8
BLACK
6
CONTINUOUS
10
0.5225049212598425
20
0.8546801968503936
11
0.5148858267716535
21
0.858233031496063
0
LINE
8
BLACK
6
CONTINUOUS
10
0.5148858267716535
20
0.858233031496063
11
0.5079994094488189
21
0.8630549606299213
0
LINE
8
BLACK
6
CONTINUOUS
10
0.5079994094488189
20
0.8630549606299213
11
0.5020549606299213
21
0.8689994094488189
0
LINE
8
BLACK
6
CONTINUOUS
10
0.5020549606299213
20
0.8689994094488189
11
0.497233031496063
21
0.8758858267716535
0
LINE
8
BLACK
6
CONTINUOUS
10
0.497233031496063
20
0.8758858267716535
11
0.4936801968503937
21
0.8835049212598425
0
LINE
8
BLACK
6
CONTINUOUS
10
0.4936801968503937
20
0.8835049212598425
11
0.4915043700787401
21
0.8916252362204724
0
LINE
8
BLACK
6
CONTINUOUS
10
0.4915043700787401
20
0.8916252362204724
11
0.4907716535433071
21
0.9
0
LINE
8
BLACK
6
CONTINUOUS
10
0.4907716535433071
20
0.9
11
0.4915043700787401
21
0.9083747637795275
0
LINE
8
BLACK
6
CONTINUOUS
10
0.4915043700787401
20
0.9083747637795275
11
0.4936801968503937
21
0.9164950787401575
0
LINE
8
BLACK
6
CONTINUOUS
10
0.4936801968503937
20
0.9164950787401575
11
0.497233031496063
21
0.9241141732283464
0
LINE
8
BLACK
6
CONTINUOUS
10
0.497233031496063
20
0.9241141732283464
11
0.5020549606299213
21
0.9310005905511811
0
LINE
8
BLACK
6
CONTINUOUS
10
0.5020549606299213
20
0.9310005905511811
11
0.5079994094488189
21
0.9369450393700787
0
LINE
8
BLACK
6
CONTINUOUS
10
0.5079994094488189
20
0.9369450393700787
11
0.5148858267716535
21
0.941766968503937
0
LINE
8
BLACK
6
CONTINUOUS
10
0.5148858267716535
20
0.941766968503937
11
0.5225049212598425
21
0.9453198031496063
0
LINE
8
BLACK
6
CONTINUOUS
10
0.5225049212598425
20
0.9453198031496063
11
0.5306252362204724
21
0.9474956299212598
0
LINE
8
BLACK
6
CONTINUOUS
10
0.5306252362204724
20
0.9474956299212598
11
0.539
21
0.9482283464566928
0
LINE
8
BLACK
6
CONTINUOUS
10
0.539
20
0.9482283464566928
11
0.5473747637795275
21
0.9474956299212598
0
LINE
8
BLACK
6
CONTINUOUS
10
2.2915066141732283
20
0.9236373228346456
11
2.2927838976377952
21
0.9227838976377952
0
LINE
8
BLACK
6
CONTINUOUS
10
2.2927838976377952
20
0.9227838976377952
11
2.2936373228346456
21
0.9215066141732283
0
LINE
8
BLACK
6
CONTINUOUS
10
2.2936373228346456
20
0.9215066141732283
11
2.2939370078740158
21
0.9199999999999999
0
LINE
8
BLACK
6
CONTINUOUS
10
2.2939370078740158
20
0.9199999999999999
11
2.2939370078740158
21
0.86
0
LINE
8
BLACK
6
CONTINUOUS
10
2.2939370078740158
20
0.86
11
2.2936373228346456
21
0.8584933858267716
0
LINE
8
BLACK
6
CONTINUOUS
10
2.2936373228346456
20
0.8584933858267716
11
2.2927838976377952
21
0.8572161023622047
0
LINE
8
BLACK
6
CONTINUOUS
10
2.2927838976377952
20
0.8572161023622047
11
2.2915066141732283
21
0.8563626771653543
0
LINE
8
BLACK
6
CONTINUOUS
10
2.2915066141732283
20
0.8563626771653543
11
2.29
21
0.8560629921259842
0
LINE
8
BLACK
6
CONTINUOUS
10
2.29
20
0.8560629921259842
11
2.23
21
0.8560629921259842
0
LINE
8
BLACK
6
CONTINUOUS
10
2.23
20
0.8560629921259842
11
2.2284933858267717
21
0.8563626771653543
0
LINE
8
BLACK
6
CONTINUOUS
10
2.2284933858267717
20
0.8563626771653543
11
2.2272161023622048
21
0.8572161023622047
0
LINE
8
BLACK
6
CONTINUOUS
10
2.2272161023622048
20
0.8572161023622047
11
2.2263626771653544
21
0.8584933858267716
0
LINE
8
BLACK
6
CONTINUOUS
10
2.2263626771653544
20
0.8584933858267716
11
2.2260629921259842
21
0.86
0
LINE
8
BLACK
6
CONTINUOUS
10
2.2260629921259842
20
0.86
11
2.2260629921259842
21
0.9199999999999999
0
LINE
8
BLACK
6
CONTINUOUS
10
2.2260629921259842
20
0.9199999999999999
11
2.2263626771653544
21
0.9215066141732283
0
LINE
8
BLACK
6
CONTINUOUS
10
2.2263626771653544
20
0.9215066141732283
11
2.2272161023622048
21
0.9227838976377952
0
LINE
8
BLACK
6
CONTINUOUS
10
2.2272161023622048
20
0.9227838976377952
11
2.2284933858267717
21
0.9236373228346456
0
LINE
8
BLACK
6
CONTINUOUS
10
2.2284933858267717
20
0.9236373228346456
11
2.23
21
0.9239370078740158
0
LINE
8
BLACK
6
CONTINUOUS
10
2.23
20
0.9239370078740158
11
2.29
21
0.9239370078740158
0
LINE
8
BLACK
6
CONTINUOUS
10
2.29
20
0.9239370078740158
11
2.2915066141732283
21
0.9236373228346456
0
LINE
8
BLACK
6
CONTINUOUS
10
2.3915066141732284
20
0.9236373228346456
11
2.3927838976377953
21
0.9227838976377952
0
LINE
8
BLACK
6
CONTINUOUS
10
2.3927838976377953
20
0.9227838976377952
11
2.3936373228346457
21
0.9215066141732283
0
LINE
8
BLACK
6
CONTINUOUS
10
2.3936373228346457
20
0.9215066141732283
11
2.3939370078740159
21
0.9199999999999999
0
LINE
8
BLACK
6
CONTINUOUS
10
2.3939370078740159
20
0.9199999999999999
11
2.3939370078740159
21
0.86
0
LINE
8
BLACK
6
CONTINUOUS
10
2.3939370078740159
20
0.86
11
2.3936373228346457
21
0.8584933858267716
0
LINE
8
BLACK
6
CONTINUOUS
10
2.3936373228346457
20
0.8584933858267716
11
2.3927838976377953
21
0.8572161023622047
0
LINE
8
BLACK
6
CONTINUOUS
10
2.3927838976377953
20
0.8572161023622047
11
2.3915066141732284
21
0.8563626771653543
0
LINE
8
BLACK
6
CONTINUOUS
10
2.3915066141732284
20
0.8563626771653543
11
2.3900000000000001
21
0.8560629921259842
0
LINE
8
BLACK
6
CONTINUOUS
10
2.3900000000000001
20
0.8560629921259842
11
2.3300000000000001
21
0.8560629921259842
0
LINE
8
BLACK
6
CONTINUOUS
10
2.3300000000000001
20
0.8560629921259842
11
2.3284933858267718
21
0.8563626771653543
0
LINE
8
BLACK
6
CONTINUOUS
10
2.3284933858267718
20
0.8563626771653543
11
2.3272161023622049
21
0.8572161023622047
0
LINE
8
BLACK
6
CONTINUOUS
10
2.3272161023622049
20
0.8572161023622047
11
2.3263626771653545
21
0.8584933858267716
0
LINE
8
BLACK
6
CONTINUOUS
10
2.3263626771653545
20
0.8584933858267716
11
2.3260629921259843
21
0.86
0
LINE
8
BLACK
6
CONTINUOUS
10
2.3260629921259843
20
0.86
11
2.3260629921259843
21
0.9199999999999999
0
LINE
8
BLACK
6
CONTINUOUS
10
2.3260629921259843
20
0.9199999999999999
11
2.3263626771653545
21
0.9215066141732283
0
LINE
8
BLACK
6
CONTINUOUS
10
2.3263626771653545
20
0.9215066141732283
11
2.3272161023622049
21
0.9227838976377952
0
LINE
8
BLACK
6
CONTINUOUS
10
2.3272161023622049
20
0.9227838976377952
11
2.3284933858267718
21
0.9236373228346456
0
LINE
8
BLACK
6
CONTINUOUS
10
2.3284933858267718
20
0.9236373228346456
11
2.3300000000000001
21
0.9239370078740158
0
LINE
8
BLACK
6
CONTINUOUS
10
2.3300000000000001
20
0.9239370078740158
11
2.3900000000000001
21
0.9239370078740158
0
LINE
8
BLACK
6
CONTINUOUS
10
2.3900000000000001
20
0.9239370078740158
11
2.3915066141732284
21
0.9236373228346456
0
LINE
8
BLACK
6
CONTINUOUS
10
0.451120905511811
20
1.0426005511811023
11
0.4587423622047244
21
1.0396479921259842
0
LINE
8
BLACK
6
CONTINUOUS
10
0.4587423622047244
20
1.0396479921259842
11
0.4656914960629921
21
1.0353452362204725
0
LINE
8
BLACK
6
CONTINUOUS
10
0.4656914960629921
20
1.0353452362204725
11
0.4717316929133858
21
1.0298388976377952
0
LINE
8
BLACK
6
CONTINUOUS
10
0.4717316929133858
20
1.0298388976377952
11
0.4766572440944882
21
1.0233163779527559
0
LINE
8
BLACK
6
CONTINUOUS
10
0.4766572440944882
20
1.0233163779527559
11
0.4803004330708661
21
1.0159998818897638
0
LINE
8
BLACK
6
CONTINUOUS
10
0.4803004330708661
20
1.0159998818897638
11
0.4825372047244094
21
1.0081385039370079
0
LINE
8
BLACK
6
CONTINUOUS
10
0.4825372047244094
20
1.0081385039370079
11
0.4832913385826771
21
1.
0
LINE
8
BLACK
6
CONTINUOUS
10
0.4832913385826771
20
1.
11
0.4825372047244094
21
0.9918614960629921
0
LINE
8
BLACK
6
CONTINUOUS
10
0.4825372047244094
20
0.9918614960629921
11
0.4803004330708661
21
0.9840001181102362
0
LINE
8
BLACK
6
CONTINUOUS
10
0.4803004330708661
20
0.9840001181102362
11
0.4766572440944882
21
0.9766836220472441
0
LINE
8
BLACK
6
CONTINUOUS
10
0.4766572440944882
20
0.9766836220472441
11
0.4717316929133858
21
0.9701611023622047
0
LINE
8
BLACK
6
CONTINUOUS
10
0.4717316929133858
20
0.9701611023622047
11
0.4656914960629921
21
0.9646547637795275
0
LINE
8
BLACK
6
CONTINUOUS
10
0.4656914960629921
20
0.9646547637795275
11
0.4587423622047244
21
0.9603520078740158
0
LINE
8
BLACK
6
CONTINUOUS
10
0.4587423622047244
20
0.9603520078740158
11
0.451120905511811
21
0.9573994488188976
0
LINE
8
BLACK
6
CONTINUOUS
10
0.451120905511811
20
0.9573994488188976
11
0.4430866929133858
21
0.9558975984251968
0
LINE
8
BLACK
6
CONTINUOUS
10
0.4430866929133858
20
0.9558975984251968
11
0.4349133070866142
21
0.9558975984251968
0
LINE
8
BLACK
6
CONTINUOUS
10
0.4349133070866142
20
0.9558975984251968
11
0.4268790944881889
21
0.9573994488188976
0
LINE
8
BLACK
6
CONTINUOUS
10
0.4268790944881889
20
0.9573994488188976
11
0.4192576377952756
21
0.9603520078740158
0
LINE
8
BLACK
6
CONTINUOUS
10
0.4192576377952756
20
0.9603520078740158
11
0.4123085039370079
21
0.9646547637795275
0
LINE
8
BLACK
6
CONTINUOUS
10
0.4123085039370079
20
0.9646547637795275
11
0.4062683070866142
21
0.9701611023622047
0
LINE
8
BLACK
6
CONTINUOUS
10
0.4062683070866142
20
0.9701611023622047
11
0.4013427559055118
21
0.9766836220472441
0
LINE
8
BLACK
6
CONTINUOUS
10
0.4013427559055118
20
0.9766836220472441
11
0.3976995669291338
21
0.9840001181102362
0
LINE
8
BLACK
6
CONTINUOUS
10
0.3976995669291338
20
0.9840001181102362
11
0.3954627952755905
21
0.9918614960629921
0
LINE
8
BLACK
6
CONTINUOUS
10
0.3954627952755905
20
0.9918614960629921
11
0.3947086614173228
21
1.
0
LINE
8
BLACK
6
CONTINUOUS
10
0.3947086614173228
20
1.
11
0.3954627952755905
21
1.0081385039370079
0
LINE
8
BLACK
6
CONTINUOUS
10
0.3954627952755905
20
1.0081385039370079
11
0.3976995669291338
21
1.0159998818897638
0
LINE
8
BLACK
6
CONTINUOUS
10
0.3976995669291338
20
1.0159998818897638
11
0.4013427559055118
21
1.0233163779527559
0
LINE
8
BLACK
6
CONTINUOUS
10
0.4013427559055118
20
1.0233163779527559
11
0.4062683070866142
21
1.0298388976377952
0
LINE
8
BLACK
6
CONTINUOUS
10
0.4062683070866142
20
1.0298388976377952
11
0.4123085039370079
21
1.0353452362204725
0
LINE
8
BLACK
6
CONTINUOUS
10
0.4123085039370079
20
1.0353452362204725
11
0.4192576377952756
21
1.0396479921259842
0
LINE
8
BLACK
6
CONTINUOUS
10
0.4192576377952756
20
1.0396479921259842
11
0.4268790944881889
21
1.0426005511811023
0
LINE
8
BLACK
6
CONTINUOUS
10
0.4268790944881889
20
1.0426005511811023
11
0.4349133070866142
21
1.0441024015748031
0
LINE
8
BLACK
6
CONTINUOUS
10
0.4349133070866142
20
1.0441024015748031
11
0.4430866929133858
21
1.0441024015748031
0
LINE
8
BLACK
6
CONTINUOUS
10
0.4430866929133858
20
1.0441024015748031
11
0.451120905511811
21
1.0426005511811023
0
LINE
8
BLACK
6
CONTINUOUS
10
2.2915065748031496
20
1.0936373228346457
11
2.2927838582677165
21
1.0927838976377953
0
LINE
8
BLACK
6
CONTINUOUS
10
2.2927838582677165
20
1.0927838976377953
11
2.2936372834645669
21
1.0915066141732284
0
LINE
8
BLACK
6
CONTINUOUS
10
2.2936372834645669
20
1.0915066141732284
11
2.293936968503937
21
1.0900000000000001
0
LINE
8
BLACK
6
CONTINUOUS
10
2.293936968503937
20
1.0900000000000001
11
2.293936968503937
21
1.03
0
LINE
8
BLACK
6
CONTINUOUS
10
2.293936968503937
20
1.03
11
2.2936372834645669
21
1.0284933858267715
0
LINE
8
BLACK
6
CONTINUOUS
10
2.2936372834645669
20
1.0284933858267715
11
2.2927838582677165
21
1.0272161023622046
0
LINE
8
BLACK
6
CONTINUOUS
10
2.2927838582677165
20
1.0272161023622046
11
2.2915065748031496
21
1.0263626771653542
0
LINE
8
BLACK
6
CONTINUOUS
10
2.2915065748031496
20
1.0263626771653542
11
2.2899999606299213
21
1.0260629921259843
0
LINE
8
BLACK
6
CONTINUOUS
10
2.2899999606299213
20
1.0260629921259843
11
2.2299999606299212
21
1.0260629921259843
0
LINE
8
BLACK
6
CONTINUOUS
10
2.2299999606299212
20
1.0260629921259843
11
2.2284933464566929
21
1.0263626771653542
0
LINE
8
BLACK
6
CONTINUOUS
10
2.2284933464566929
20
1.0263626771653542
11
2.227216062992126
21
1.0272161023622046
0
LINE
8
BLACK
6
CONTINUOUS
10
2.227216062992126
20
1.0272161023622046
11
2.2263626377952757
21
1.0284933858267715
0
LINE
8
BLACK
6
CONTINUOUS
10
2.2263626377952757
20
1.0284933858267715
11
2.2260629527559055
21
1.03
0
LINE
8
BLACK
6
CONTINUOUS
10
2.2260629527559055
20
1.03
11
2.2260629527559055
21
1.0900000000000001
0
LINE
8
BLACK
6
CONTINUOUS
10
2.2260629527559055
20
1.0900000000000001
11
2.2263626377952757
21
1.0915066141732284
0
LINE
8
BLACK
6
CONTINUOUS
10
2.2263626377952757
20
1.0915066141732284
11
2.227216062992126
21
1.0927838976377953
0
LINE
8
BLACK
6
CONTINUOUS
10
2.227216062992126
20
1.0927838976377953
11
2.2284933464566929
21
1.0936373228346457
0
LINE
8
BLACK
6
CONTINUOUS
10
2.2284933464566929
20
1.0936373228346457
11
2.2299999606299212
21
1.0939370078740158
0
LINE
8
BLACK
6
CONTINUOUS
10
2.2299999606299212
20
1.0939370078740158
11
2.2899999606299213
21
1.0939370078740158
0
LINE
8
BLACK
6
CONTINUOUS
10
2.2899999606299213
20
1.0939370078740158
11
2.2915065748031496
21
1.0936373228346457
0
LINE
8
BLACK
6
CONTINUOUS
10
2.3915066535433072
20
1.0936373228346457
11
2.3927839370078741
21
1.0927838976377953
0
LINE
8
BLACK
6
CONTINUOUS
10
2.3927839370078741
20
1.0927838976377953
11
2.3936373622047245
21
1.0915066141732284
0
LINE
8
BLACK
6
CONTINUOUS
10
2.3936373622047245
20
1.0915066141732284
11
2.3939370472440946
21
1.0900000000000001
0
LINE
8
BLACK
6
CONTINUOUS
10
2.3939370472440946
20
1.0900000000000001
11
2.3939370472440946
21
1.03
0
LINE
8
BLACK
6
CONTINUOUS
10
2.3939370472440946
20
1.03
11
2.3936373622047245
21
1.0284933858267715
0
LINE
8
BLACK
6
CONTINUOUS
10
2.3936373622047245
20
1.0284933858267715
11
2.3927839370078741
21
1.0272161023622046
0
LINE
8
BLACK
6
CONTINUOUS
10
2.3927839370078741
20
1.0272161023622046
11
2.3915066535433072
21
1.0263626771653542
0
LINE
8
BLACK
6
CONTINUOUS
10
2.3915066535433072
20
1.0263626771653542
11
2.3900000393700789
21
1.0260629921259843
0
LINE
8
BLACK
6
CONTINUOUS
10
2.3900000393700789
20
1.0260629921259843
11
2.3300000393700788
21
1.0260629921259843
0
LINE
8
BLACK
6
CONTINUOUS
10
2.3300000393700788
20
1.0260629921259843
11
2.3284934251968505
21
1.0263626771653542
0
LINE
8
BLACK
6
CONTINUOUS
10
2.3284934251968505
20
1.0263626771653542
11
2.3272161417322832
21
1.0272161023622046
0
LINE
8
BLACK
6
CONTINUOUS
10
2.3272161417322832
20
1.0272161023622046
11
2.3263627165354328
21
1.0284933858267715
0
LINE
8
BLACK
6
CONTINUOUS
10
2.3263627165354328
20
1.0284933858267715
11
2.3260630314960631
21
1.03
0
LINE
8
BLACK
6
CONTINUOUS
10
2.3260630314960631
20
1.03
11
2.3260630314960631
21
1.0900000000000001
0
LINE
8
BLACK
6
CONTINUOUS
10
2.3260630314960631
20
1.0900000000000001
11
2.3263627165354328
21
1.0915066141732284
0
LINE
8
BLACK
6
CONTINUOUS
10
2.3263627165354328
20
1.0915066141732284
11
2.3272161417322832
21
1.0927838976377953
0
LINE
8
BLACK
6
CONTINUOUS
10
2.3272161417322832
20
1.0927838976377953
11
2.3284934251968505
21
1.0936373228346457
0
LINE
8
BLACK
6
CONTINUOUS
10
2.3284934251968505
20
1.0936373228346457
11
2.3300000393700788
21
1.0939370078740158
0
LINE
8
BLACK
6
CONTINUOUS
10
2.3300000393700788
20
1.0939370078740158
11
2.3900000393700789
21
1.0939370078740158
0
LINE
8
BLACK
6
CONTINUOUS
10
2.3900000393700789
20
1.0939370078740158
11
2.3915066535433072
21
1.0936373228346457
0
LINE
8
BLACK
6
CONTINUOUS
10
0.3473747637795275
20
1.1474956299212598
11
0.3554950787401575
21
1.1453198031496064
0
LINE
8
BLACK
6
CONTINUOUS
10
0.3554950787401575
20
1.1453198031496064
11
0.3631141732283464
21
1.1417669685039369
0
LINE
8
BLACK
6
CONTINUOUS
10
0.3631141732283464
20
1.1417669685039369
11
0.3700005905511811
21
1.1369450393700786
0
LINE
8
BLACK
6
CONTINUOUS
10
0.3700005905511811
20
1.1369450393700786
11
0.3759450393700787
21
1.1310005905511811
0
LINE
8
BLACK
6
CONTINUOUS
10
0.3759450393700787
20
1.1310005905511811
11
0.380766968503937
21
1.1241141732283464
0
LINE
8
BLACK
6
CONTINUOUS
10
0.380766968503937
20
1.1241141732283464
11
0.3843198031496063
21
1.1164950787401575
0
LINE
8
BLACK
6
CONTINUOUS
10
0.3843198031496063
20
1.1164950787401575
11
0.3864956299212599
21
1.1083747637795276
0
LINE
8
BLACK
6
CONTINUOUS
10
0.3864956299212599
20
1.1083747637795276
11
0.3872283464566929
21
1.0999999999999999
0
LINE
8
BLACK
6
CONTINUOUS
10
0.3872283464566929
20
1.0999999999999999
11
0.3864956299212599
21
1.0916252362204724
0
LINE
8
BLACK
6
CONTINUOUS
10
0.3864956299212599
20
1.0916252362204724
11
0.3843198031496063
21
1.0835049212598424
0
LINE
8
BLACK
6
CONTINUOUS
10
0.3843198031496063
20
1.0835049212598424
11
0.380766968503937
21
1.0758858267716536
0
LINE
8
BLACK
6
CONTINUOUS
10
0.380766968503937
20
1.0758858267716536
11
0.3759450393700787
21
1.0689994094488189
0
LINE
8
BLACK
6
CONTINUOUS
10
0.3759450393700787
20
1.0689994094488189
11
0.3700005905511811
21
1.0630549606299213
0
LINE
8
BLACK
6
CONTINUOUS
10
0.3700005905511811
20
1.0630549606299213
11
0.3631141732283464
21
1.0582330314960631
0
LINE
8
BLACK
6
CONTINUOUS
10
0.3631141732283464
20
1.0582330314960631
11
0.3554950787401575
21
1.0546801968503936
0
LINE
8
BLACK
6
CONTINUOUS
10
0.3554950787401575
20
1.0546801968503936
11
0.3473747637795275
21
1.0525043700787402
0
LINE
8
BLACK
6
CONTINUOUS
10
0.3473747637795275
20
1.0525043700787402
11
0.339
21
1.051771653543307
0
LINE
8
BLACK
6
CONTINUOUS
10
0.339
20
1.051771653543307
11
0.3306252362204724
21
1.0525043700787402
0
LINE
8
BLACK
6
CONTINUOUS
10
0.3306252362204724
20
1.0525043700787402
11
0.3225049212598425
21
1.0546801968503936
0
LINE
8
BLACK
6
CONTINUOUS
10
0.3225049212598425
20
1.0546801968503936
11
0.3148858267716536
21
1.0582330314960631
0
LINE
8
BLACK
6
CONTINUOUS
10
0.3148858267716536
20
1.0582330314960631
11
0.3079994094488189
21
1.0630549606299213
0
LINE
8
BLACK
6
CONTINUOUS
10
0.3079994094488189
20
1.0630549606299213
11
0.3020549606299213
21
1.0689994094488189
0
LINE
8
BLACK
6
CONTINUOUS
10
0.3020549606299213
20
1.0689994094488189
11
0.297233031496063
21
1.0758858267716536
0
LINE
8
BLACK
6
CONTINUOUS
10
0.297233031496063
20
1.0758858267716536
11
0.2936801968503937
21
1.0835049212598424
0
LINE
8
BLACK
6
CONTINUOUS
10
0.2936801968503937
20
1.0835049212598424
11
0.2915043700787401
21
1.0916252362204724
0
LINE
8
BLACK
6
CONTINUOUS
10
0.2915043700787401
20
1.0916252362204724
11
0.2907716535433071
21
1.0999999999999999
0
LINE
8
BLACK
6
CONTINUOUS
10
0.2907716535433071
20
1.0999999999999999
11
0.2915043700787401
21
1.1083747637795276
0
LINE
8
BLACK
6
CONTINUOUS
10
0.2915043700787401
20
1.1083747637795276
11
0.2936801968503937
21
1.1164950787401575
0
LINE
8
BLACK
6
CONTINUOUS
10
0.2936801968503937
20
1.1164950787401575
11
0.297233031496063
21
1.1241141732283464
0
LINE
8
BLACK
6
CONTINUOUS
10
0.297233031496063
20
1.1241141732283464
11
0.3020549606299213
21
1.1310005905511811
0
LINE
8
BLACK
6
CONTINUOUS
10
0.3020549606299213
20
1.1310005905511811
11
0.3079994094488189
21
1.1369450393700786
0
LINE
8
BLACK
6
CONTINUOUS
10
0.3079994094488189
20
1.1369450393700786
11
0.3148858267716536
21
1.1417669685039369
0
LINE
8
BLACK
6
CONTINUOUS
10
0.3148858267716536
20
1.1417669685039369
11
0.3225049212598425
21
1.1453198031496064
0
LINE
8
BLACK
6
CONTINUOUS
10
0.3225049212598425
20
1.1453198031496064
11
0.3306252362204724
21
1.1474956299212598
0
LINE
8
BLACK
6
CONTINUOUS
10
0.3306252362204724
20
1.1474956299212598
11
0.339
21
1.1482283464566929
0
LINE
8
BLACK
6
CONTINUOUS
10
0.339
20
1.1482283464566929
11
0.3473747637795275
21
1.1474956299212598
0
LINE
8
BLACK
6
CONTINUOUS
10
0.5473747637795275
20
1.1474956299212598
11
0.5554950787401575
21
1.1453198031496064
0
LINE
8
BLACK
6
CONTINUOUS
10
0.5554950787401575
20
1.1453198031496064
11
0.5631141732283464
21
1.1417669685039369
0
LINE
8
BLACK
6
CONTINUOUS
10
0.5631141732283464
20
1.1417669685039369
11
0.5700005905511811
21
1.1369450393700786
0
LINE
8
BLACK
6
CONTINUOUS
10
0.5700005905511811
20
1.1369450393700786
11
0.5759450393700787
21
1.1310005905511811
0
LINE
8
BLACK
6
CONTINUOUS
10
0.5759450393700787
20
1.1310005905511811
11
0.5807669685039369
21
1.1241141732283464
0
LINE
8
BLACK
6
CONTINUOUS
10
0.5807669685039369
20
1.1241141732283464
11
0.5843198031496063
21
1.1164950787401575
0
LINE
8
BLACK
6
CONTINUOUS
10
0.5843198031496063
20
1.1164950787401575
11
0.5864956299212598
21
1.1083747637795276
0
LINE
8
BLACK
6
CONTINUOUS
10
0.5864956299212598
20
1.1083747637795276
11
0.5872283464566929
21
1.0999999999999999
0
LINE
8
BLACK
6
CONTINUOUS
10
0.5872283464566929
20
1.0999999999999999
11
0.5864956299212598
21
1.0916252362204724
0
LINE
8
BLACK
6
CONTINUOUS
10
0.5864956299212598
20
1.0916252362204724
11
0.5843198031496063
21
1.0835049212598424
0
LINE
8
BLACK
6
CONTINUOUS
10
0.5843198031496063
20
1.0835049212598424
11
0.5807669685039369
21
1.0758858267716536
0
LINE
8
BLACK
6
CONTINUOUS
10
0.5807669685039369
20
1.0758858267716536
11
0.5759450393700787
21
1.0689994094488189
0
LINE
8
BLACK
6
CONTINUOUS
10
0.5759450393700787
20
1.0689994094488189
11
0.5700005905511811
21
1.0630549606299213
0
LINE
8
BLACK
6
CONTINUOUS
10
0.5700005905511811
20
1.0630549606299213
11
0.5631141732283464
21
1.0582330314960631
0
LINE
8
BLACK
6
CONTINUOUS
10
0.5631141732283464
20
1.0582330314960631
11
0.5554950787401575
21
1.0546801968503936
0
LINE
8
BLACK
6
CONTINUOUS
10
0.5554950787401575
20
1.0546801968503936
11
0.5473747637795275
21
1.0525043700787402
0
LINE
8
BLACK
6
CONTINUOUS
10
0.5473747637795275
20
1.0525043700787402
11
0.539
21
1.051771653543307
0
LINE
8
BLACK
6
CONTINUOUS
10
0.539
20
1.051771653543307
11
0.5306252362204724
21
1.0525043700787402
0
LINE
8
BLACK
6
CONTINUOUS
10
0.5306252362204724
20
1.0525043700787402
11
0.5225049212598425
21
1.0546801968503936
0
LINE
8
BLACK
6
CONTINUOUS
10
0.5225049212598425
20
1.0546801968503936
11
0.5148858267716535
21
1.0582330314960631
0
LINE
8
BLACK
6
CONTINUOUS
10
0.5148858267716535
20
1.0582330314960631
11
0.5079994094488189
21
1.0630549606299213
0
LINE
8
BLACK
6
CONTINUOUS
10
0.5079994094488189
20
1.0630549606299213
11
0.5020549606299213
21
1.0689994094488189
0
LINE
8
BLACK
6
CONTINUOUS
10
0.5020549606299213
20
1.0689994094488189
11
0.497233031496063
21
1.0758858267716536
0
LINE
8
BLACK
6
CONTINUOUS
10
0.497233031496063
20
1.0758858267716536
11
0.4936801968503937
21
1.0835049212598424
0
LINE
8
BLACK
6
CONTINUOUS
10
0.4936801968503937
20
1.0835049212598424
11
0.4915043700787401
21
1.0916252362204724
0
LINE
8
BLACK
6
CONTINUOUS
10
0.4915043700787401
20
1.0916252362204724
11
0.4907716535433071
21
1.0999999999999999
0
LINE
8
BLACK
6
CONTINUOUS
10
0.4907716535433071
20
1.0999999999999999
11
0.4915043700787401
21
1.1083747637795276
0
LINE
8
BLACK
6
CONTINUOUS
10
0.4915043700787401
20
1.1083747637795276
11
0.4936801968503937
21
1.1164950787401575
0
LINE
8
BLACK
6
CONTINUOUS
10
0.4936801968503937
20
1.1164950787401575
11
0.497233031496063
21
1.1241141732283464
0
LINE
8
BLACK
6
CONTINUOUS
10
0.497233031496063
20
1.1241141732283464
11
0.5020549606299213
21
1.1310005905511811
0
LINE
8
BLACK
6
CONTINUOUS
10
0.5020549606299213
20
1.1310005905511811
11
0.5079994094488189
21
1.1369450393700786
0
LINE
8
BLACK
6
CONTINUOUS
10
0.5079994094488189
20
1.1369450393700786
11
0.5148858267716535
21
1.1417669685039369
0
LINE
8
BLACK
6
CONTINUOUS
10
0.5148858267716535
20
1.1417669685039369
11
0.5225049212598425
21
1.1453198031496064
0
LINE
8
BLACK
6
CONTINUOUS
10
0.5225049212598425
20
1.1453198031496064
11
0.5306252362204724
21
1.1474956299212598
0
LINE
8
BLACK
6
CONTINUOUS
10
0.5306252362204724
20
1.1474956299212598
11
0.539
21
1.1482283464566929
0
LINE
8
BLACK
6
CONTINUOUS
10
0.539
20
1.1482283464566929
11
0.5473747637795275
21
1.1474956299212598
0
LINE
8
BLACK
6
CONTINUOUS
10
2.2915065748031496
20
1.1936373228346457
11
2.2927838582677165
21
1.1927838976377954
0
LINE
8
BLACK
6
CONTINUOUS
10
2.2927838582677165
20
1.1927838976377954
11
2.2936372834645669
21
1.1915066141732282
0
LINE
8
BLACK
6
CONTINUOUS
10
2.2936372834645669
20
1.1915066141732282
11
2.293936968503937
21
1.1899999999999999
0
LINE
8
BLACK
6
CONTINUOUS
10
2.293936968503937
20
1.1899999999999999
11
2.293936968503937
21
1.1299999999999999
0
LINE
8
BLACK
6
CONTINUOUS
10
2.293936968503937
20
1.1299999999999999
11
2.2936372834645669
21
1.1284933858267716
0
LINE
8
BLACK
6
CONTINUOUS
10
2.2936372834645669
20
1.1284933858267716
11
2.2927838582677165
21
1.1272161023622047
0
LINE
8
BLACK
6
CONTINUOUS
10
2.2927838582677165
20
1.1272161023622047
11
2.2915065748031496
21
1.1263626771653543
0
LINE
8
BLACK
6
CONTINUOUS
10
2.2915065748031496
20
1.1263626771653543
11
2.2899999606299213
21
1.1260629921259842
0
LINE
8
BLACK
6
CONTINUOUS
10
2.2899999606299213
20
1.1260629921259842
11
2.2299999606299212
21
1.1260629921259842
0
LINE
8
BLACK
6
CONTINUOUS
10
2.2299999606299212
20
1.1260629921259842
11
2.2284933464566929
21
1.1263626771653543
0
LINE
8
BLACK
6
CONTINUOUS
10
2.2284933464566929
20
1.1263626771653543
11
2.227216062992126
21
1.1272161023622047
0
LINE
8
BLACK
6
CONTINUOUS
10
2.227216062992126
20
1.1272161023622047
11
2.2263626377952757
21
1.1284933858267716
0
LINE
8
BLACK
6
CONTINUOUS
10
2.2263626377952757
20
1.1284933858267716
11
2.2260629527559055
21
1.1299999999999999
0
LINE
8
BLACK
6
CONTINUOUS
10
2.2260629527559055
20
1.1299999999999999
11
2.2260629527559055
21
1.1899999999999999
0
LINE
8
BLACK
6
CONTINUOUS
10
2.2260629527559055
20
1.1899999999999999
11
2.2263626377952757
21
1.1915066141732282
0
LINE
8
BLACK
6
CONTINUOUS
10
2.2263626377952757
20
1.1915066141732282
11
2.227216062992126
21
1.1927838976377954
0
LINE
8
BLACK
6
CONTINUOUS
10
2.227216062992126
20
1.1927838976377954
11
2.2284933464566929
21
1.1936373228346457
0
LINE
8
BLACK
6
CONTINUOUS
10
2.2284933464566929
20
1.1936373228346457
11
2.2299999606299212
21
1.1939370078740157
0
LINE
8
BLACK
6
CONTINUOUS
10
2.2299999606299212
20
1.1939370078740157
11
2.2899999606299213
21
1.1939370078740157
0
LINE
8
BLACK
6
CONTINUOUS
10
2.2899999606299213
20
1.1939370078740157
11
2.2915065748031496
21
1.1936373228346457
0
LINE
8
BLACK
6
CONTINUOUS
10
2.3915066535433072
20
1.1936373228346457
11
2.3927839370078741
21
1.1927838976377954
0
LINE
8
BLACK
6
CONTINUOUS
10
2.3927839370078741
20
1.1927838976377954
11
2.3936373622047245
21
1.1915066141732282
0
LINE
8
BLACK
6
CONTINUOUS
10
2.3936373622047245
20
1.1915066141732282
11
2.3939370472440946
21
1.1899999999999999
0
LINE
8
BLACK
6
CONTINUOUS
10
2.3939370472440946
20
1.1899999999999999
11
2.3939370472440946
21
1.1299999999999999
0
LINE
8
BLACK
6
CONTINUOUS
10
2.3939370472440946
20
1.1299999999999999
11
2.3936373622047245
21
1.1284933858267716
0
LINE
8
BLACK
6
CONTINUOUS
10
2.3936373622047245
20
1.1284933858267716
11
2.3927839370078741
21
1.1272161023622047
0
LINE
8
BLACK
6
CONTINUOUS
10
2.3927839370078741
20
1.1272161023622047
11
2.3915066535433072
21
1.1263626771653543
0
LINE
8
BLACK
6
CONTINUOUS
10
2.3915066535433072
20
1.1263626771653543
11
2.3900000393700789
21
1.1260629921259842
0
LINE
8
BLACK
6
CONTINUOUS
10
2.3900000393700789
20
1.1260629921259842
11
2.3300000393700788
21
1.1260629921259842
0
LINE
8
BLACK
6
CONTINUOUS
10
2.3300000393700788
20
1.1260629921259842
11
2.3284934251968505
21
1.1263626771653543
0
LINE
8
BLACK
6
CONTINUOUS
10
2.3284934251968505
20
1.1263626771653543
11
2.3272161417322832
21
1.1272161023622047
0
LINE
8
BLACK
6
CONTINUOUS
10
2.3272161417322832
20
1.1272161023622047
11
2.3263627165354328
21
1.1284933858267716
0
LINE
8
BLACK
6
CONTINUOUS
10
2.3263627165354328
20
1.1284933858267716
11
2.3260630314960631
21
1.1299999999999999
0
LINE
8
BLACK
6
CONTINUOUS
10
2.3260630314960631
20
1.1299999999999999
11
2.3260630314960631
21
1.1899999999999999
0
LINE
8
BLACK
6
CONTINUOUS
10
2.3260630314960631
20
1.1899999999999999
11
2.3263627165354328
21
1.1915066141732282
0
LINE
8
BLACK
6
CONTINUOUS
10
2.3263627165354328
20
1.1915066141732282
11
2.3272161417322832
21
1.1927838976377954
0
LINE
8
BLACK
6
CONTINUOUS
10
2.3272161417322832
20
1.1927838976377954
11
2.3284934251968505
21
1.1936373228346457
0
LINE
8
BLACK
6
CONTINUOUS
10
2.3284934251968505
20
1.1936373228346457
11
2.3300000393700788
21
1.1939370078740157
0
LINE
8
BLACK
6
CONTINUOUS
10
2.3300000393700788
20
1.1939370078740157
11
2.3900000393700789
21
1.1939370078740157
0
LINE
8
BLACK
6
CONTINUOUS
10
2.3900000393700789
20
1.1939370078740157
11
2.3915066535433072
21
1.1936373228346457
0
LINE
8
BLACK
6
CONTINUOUS
10
2.2915065748031496
20
1.2936373228346456
11
2.2927838582677165
21
1.2927838976377952
0
LINE
8
BLACK
6
CONTINUOUS
10
2.2927838582677165
20
1.2927838976377952
11
2.2936372834645669
21
1.2915066141732283
0
LINE
8
BLACK
6
CONTINUOUS
10
2.2936372834645669
20
1.2915066141732283
11
2.293936968503937
21
1.29
0
LINE
8
BLACK
6
CONTINUOUS
10
2.293936968503937
20
1.29
11
2.293936968503937
21
1.23
0
LINE
8
BLACK
6
CONTINUOUS
10
2.293936968503937
20
1.23
11
2.2936372834645669
21
1.2284933858267717
0
LINE
8
BLACK
6
CONTINUOUS
10
2.2936372834645669
20
1.2284933858267717
11
2.2927838582677165
21
1.2272161023622048
0
LINE
8
BLACK
6
CONTINUOUS
10
2.2927838582677165
20
1.2272161023622048
11
2.2915065748031496
21
1.2263626771653544
0
LINE
8
BLACK
6
CONTINUOUS
10
2.2915065748031496
20
1.2263626771653544
11
2.2899999606299213
21
1.2260629921259842
0
LINE
8
BLACK
6
CONTINUOUS
10
2.2899999606299213
20
1.2260629921259842
11
2.2299999606299212
21
1.2260629921259842
0
LINE
8
BLACK
6
CONTINUOUS
10
2.2299999606299212
20
1.2260629921259842
11
2.2284933464566929
21
1.2263626771653544
0
LINE
8
BLACK
6
CONTINUOUS
10
2.2284933464566929
20
1.2263626771653544
11
2.227216062992126
21
1.2272161023622048
0
LINE
8
BLACK
6
CONTINUOUS
10
2.227216062992126
20
1.2272161023622048
11
2.2263626377952757
21
1.2284933858267717
0
LINE
8
BLACK
6
CONTINUOUS
10
2.2263626377952757
20
1.2284933858267717
11
2.2260629527559055
21
1.23
0
LINE
8
BLACK
6
CONTINUOUS
10
2.2260629527559055
20
1.23
11
2.2260629527559055
21
1.29
0
LINE
8
BLACK
6
CONTINUOUS
10
2.2260629527559055
20
1.29
11
2.2263626377952757
21
1.2915066141732283
0
LINE
8
BLACK
6
CONTINUOUS
10
2.2263626377952757
20
1.2915066141732283
11
2.227216062992126
21
1.2927838976377952
0
LINE
8
BLACK
6
CONTINUOUS
10
2.227216062992126
20
1.2927838976377952
11
2.2284933464566929
21
1.2936373228346456
0
LINE
8
BLACK
6
CONTINUOUS
10
2.2284933464566929
20
1.2936373228346456
11
2.2299999606299212
21
1.2939370078740158
0
LINE
8
BLACK
6
CONTINUOUS
10
2.2299999606299212
20
1.2939370078740158
11
2.2899999606299213
21
1.2939370078740158
0
LINE
8
BLACK
6
CONTINUOUS
10
2.2899999606299213
20
1.2939370078740158
11
2.2915065748031496
21
1.2936373228346456
0
LINE
8
BLACK
6
CONTINUOUS
10
2.3915066535433072
20
1.2936373228346456
11
2.3927839370078741
21
1.2927838976377952
0
LINE
8
BLACK
6
CONTINUOUS
10
2.3927839370078741
20
1.2927838976377952
11
2.3936373622047245
21
1.2915066141732283
0
LINE
8
BLACK
6
CONTINUOUS
10
2.3936373622047245
20
1.2915066141732283
11
2.3939370472440946
21
1.29
0
LINE
8
BLACK
6
CONTINUOUS
10
2.3939370472440946
20
1.29
11
2.3939370472440946
21
1.23
0
LINE
8
BLACK
6
CONTINUOUS
10
2.3939370472440946
20
1.23
11
2.3936373622047245
21
1.2284933858267717
0
LINE
8
BLACK
6
CONTINUOUS
10
2.3936373622047245
20
1.2284933858267717
11
2.3927839370078741
21
1.2272161023622048
0
LINE
8
BLACK
6
CONTINUOUS
10
2.3927839370078741
20
1.2272161023622048
11
2.3915066535433072
21
1.2263626771653544
0
LINE
8
BLACK
6
CONTINUOUS
10
2.3915066535433072
20
1.2263626771653544
11
2.3900000393700789
21
1.2260629921259842
0
LINE
8
BLACK
6
CONTINUOUS
10
2.3900000393700789
20
1.2260629921259842
11
2.3300000393700788
21
1.2260629921259842
0
LINE
8
BLACK
6
CONTINUOUS
10
2.3300000393700788
20
1.2260629921259842
11
2.3284934251968505
21
1.2263626771653544
0
LINE
8
BLACK
6
CONTINUOUS
10
2.3284934251968505
20
1.2263626771653544
11
2.3272161417322832
21
1.2272161023622048
0
LINE
8
BLACK
6
CONTINUOUS
10
2.3272161417322832
20
1.2272161023622048
11
2.3263627165354328
21
1.2284933858267717
0
LINE
8
BLACK
6
CONTINUOUS
10
2.3263627165354328
20
1.2284933858267717
11
2.3260630314960631
21
1.23
0
LINE
8
BLACK
6
CONTINUOUS
10
2.3260630314960631
20
1.23
11
2.3260630314960631
21
1.29
0
LINE
8
BLACK
6
CONTINUOUS
10
2.3260630314960631
20
1.29
11
2.3263627165354328
21
1.2915066141732283
0
LINE
8
BLACK
6
CONTINUOUS
10
2.3263627165354328
20
1.2915066141732283
11
2.3272161417322832
21
1.2927838976377952
0
LINE
8
BLACK
6
CONTINUOUS
10
2.3272161417322832
20
1.2927838976377952
11
2.3284934251968505
21
1.2936373228346456
0
LINE
8
BLACK
6
CONTINUOUS
10
2.3284934251968505
20
1.2936373228346456
11
2.3300000393700788
21
1.2939370078740158
0
LINE
8
BLACK
6
CONTINUOUS
10
2.3300000393700788
20
1.2939370078740158
11
2.3900000393700789
21
1.2939370078740158
0
LINE
8
BLACK
6
CONTINUOUS
10
2.3900000393700789
20
1.2939370078740158
11
2.3915066535433072
21
1.2936373228346456
0
LINE
8
BLACK
6
CONTINUOUS
10
1.7715066141732283
20
1.3836373228346457
11
1.7727838976377952
21
1.3827838976377953
0
LINE
8
BLACK
6
CONTINUOUS
10
1.7727838976377952
20
1.3827838976377953
11
1.7736373228346456
21
1.3815066141732284
0
LINE
8
BLACK
6
CONTINUOUS
10
1.7736373228346456
20
1.3815066141732284
11
1.7739370078740158
21
1.3799999999999999
0
LINE
8
BLACK
6
CONTINUOUS
10
1.7739370078740158
20
1.3799999999999999
11
1.7739370078740158
21
1.3200000000000001
0
LINE
8
BLACK
6
CONTINUOUS
10
1.7739370078740158
20
1.3200000000000001
11
1.7736373228346456
21
1.3184933858267716
0
LINE
8
BLACK
6
CONTINUOUS
10
1.7736373228346456
20
1.3184933858267716
11
1.7727838976377952
21
1.3172161023622047
0
LINE
8
BLACK
6
CONTINUOUS
10
1.7727838976377952
20
1.3172161023622047
11
1.7715066141732283
21
1.3163626771653543
0
LINE
8
BLACK
6
CONTINUOUS
10
1.7715066141732283
20
1.3163626771653543
11
1.77
21
1.3160629921259843
0
LINE
8
BLACK
6
CONTINUOUS
10
1.77
20
1.3160629921259843
11
1.71
21
1.3160629921259843
0
LINE
8
BLACK
6
CONTINUOUS
10
1.71
20
1.3160629921259843
11
1.7084933858267717
21
1.3163626771653543
0
LINE
8
BLACK
6
CONTINUOUS
10
1.7084933858267717
20
1.3163626771653543
11
1.7072161023622048
21
1.3172161023622047
0
LINE
8
BLACK
6
CONTINUOUS
10
1.7072161023622048
20
1.3172161023622047
11
1.7063626771653544
21
1.3184933858267716
0
LINE
8
BLACK
6
CONTINUOUS
10
1.7063626771653544
20
1.3184933858267716
11
1.7060629921259842
21
1.3200000000000001
0
LINE
8
BLACK
6
CONTINUOUS
10
1.7060629921259842
20
1.3200000000000001
11
1.7060629921259842
21
1.3799999999999999
0
LINE
8
BLACK
6
CONTINUOUS
10
1.7060629921259842
20
1.3799999999999999
11
1.7063626771653544
21
1.3815066141732284
0
LINE
8
BLACK
6
CONTINUOUS
10
1.7063626771653544
20
1.3815066141732284
11
1.7072161023622048
21
1.3827838976377953
0
LINE
8
BLACK
6
CONTINUOUS
10
1.7072161023622048
20
1.3827838976377953
11
1.7084933858267717
21
1.3836373228346457
0
LINE
8
BLACK
6
CONTINUOUS
10
1.7084933858267717
20
1.3836373228346457
11
1.71
21
1.3839370078740156
0
LINE
8
BLACK
6
CONTINUOUS
10
1.71
20
1.3839370078740156
11
1.77
21
1.3839370078740156
0
LINE
8
BLACK
6
CONTINUOUS
10
1.77
20
1.3839370078740156
11
1.7715066141732283
21
1.3836373228346457
0
LINE
8
BLACK
6
CONTINUOUS
10
1.8715066141732284
20
1.3836373228346457
11
1.8727838976377953
21
1.3827838976377953
0
LINE
8
BLACK
6
CONTINUOUS
10
1.8727838976377953
20
1.3827838976377953
11
1.8736373228346457
21
1.3815066141732284
0
LINE
8
BLACK
6
CONTINUOUS
10
1.8736373228346457
20
1.3815066141732284
11
1.8739370078740156
21
1.3799999999999999
0
LINE
8
BLACK
6
CONTINUOUS
10
1.8739370078740156
20
1.3799999999999999
11
1.8739370078740156
21
1.3200000000000001
0
LINE
8
BLACK
6
CONTINUOUS
10
1.8739370078740156
20
1.3200000000000001
11
1.8736373228346457
21
1.3184933858267716
0
LINE
8
BLACK
6
CONTINUOUS
10
1.8736373228346457
20
1.3184933858267716
11
1.8727838976377953
21
1.3172161023622047
0
LINE
8
BLACK
6
CONTINUOUS
10
1.8727838976377953
20
1.3172161023622047
11
1.8715066141732284
21
1.3163626771653543
0
LINE
8
BLACK
6
CONTINUOUS
10
1.8715066141732284
20
1.3163626771653543
11
1.8699999999999999
21
1.3160629921259843
0
LINE
8
BLACK
6
CONTINUOUS
10
1.8699999999999999
20
1.3160629921259843
11
1.8100000000000001
21
1.3160629921259843
0
LINE
8
BLACK
6
CONTINUOUS
10
1.8100000000000001
20
1.3160629921259843
11
1.8084933858267715
21
1.3163626771653543
0
LINE
8
BLACK
6
CONTINUOUS
10
1.8084933858267715
20
1.3163626771653543
11
1.8072161023622046
21
1.3172161023622047
0
LINE
8
BLACK
6
CONTINUOUS
10
1.8072161023622046
20
1.3172161023622047
11
1.8063626771653543
21
1.3184933858267716
0
LINE
8
BLACK
6
CONTINUOUS
10
1.8063626771653543
20
1.3184933858267716
11
1.8060629921259843
21
1.3200000000000001
0
LINE
8
BLACK
6
CONTINUOUS
10
1.8060629921259843
20
1.3200000000000001
11
1.8060629921259843
21
1.3799999999999999
0
LINE
8
BLACK
6
CONTINUOUS
10
1.8060629921259843
20
1.3799999999999999
11
1.8063626771653543
21
1.3815066141732284
0
LINE
8
BLACK
6
CONTINUOUS
10
1.8063626771653543
20
1.3815066141732284
11
1.8072161023622046
21
1.3827838976377953
0
LINE
8
BLACK
6
CONTINUOUS
10
1.8072161023622046
20
1.3827838976377953
11
1.8084933858267715
21
1.3836373228346457
0
LINE
8
BLACK
6
CONTINUOUS
10
1.8084933858267715
20
1.3836373228346457
11
1.8100000000000001
21
1.3839370078740156
0
LINE
8
BLACK
6
CONTINUOUS
10
1.8100000000000001
20
1.3839370078740156
11
1.8699999999999999
21
1.3839370078740156
0
LINE
8
BLACK
6
CONTINUOUS
10
1.8699999999999999
20
1.3839370078740156
11
1.8715066141732284
21
1.3836373228346457
0
LINE
8
BLACK
6
CONTINUOUS
10
2.2915065748031496
20
1.3936373228346457
11
2.2927838582677165
21
1.3927838976377953
0
LINE
8
BLACK
6
CONTINUOUS
10
2.2927838582677165
20
1.3927838976377953
11
2.2936372834645669
21
1.3915066141732284
0
LINE
8
BLACK
6
CONTINUOUS
10
2.2936372834645669
20
1.3915066141732284
11
2.293936968503937
21
1.3899999999999999
0
LINE
8
BLACK
6
CONTINUOUS
10
2.293936968503937
20
1.3899999999999999
11
2.293936968503937
21
1.3300000000000001
0
LINE
8
BLACK
6
CONTINUOUS
10
2.293936968503937
20
1.3300000000000001
11
2.2936372834645669
21
1.3284933858267716
0
LINE
8
BLACK
6
CONTINUOUS
10
2.2936372834645669
20
1.3284933858267716
11
2.2927838582677165
21
1.3272161023622047
0
LINE
8
BLACK
6
CONTINUOUS
10
2.2927838582677165
20
1.3272161023622047
11
2.2915065748031496
21
1.3263626771653543
0
LINE
8
BLACK
6
CONTINUOUS
10
2.2915065748031496
20
1.3263626771653543
11
2.2899999606299213
21
1.3260629921259843
0
LINE
8
BLACK
6
CONTINUOUS
10
2.2899999606299213
20
1.3260629921259843
11
2.2299999606299212
21
1.3260629921259843
0
LINE
8
BLACK
6
CONTINUOUS
10
2.2299999606299212
20
1.3260629921259843
11
2.2284933464566929
21
1.3263626771653543
0
LINE
8
BLACK
6
CONTINUOUS
10
2.2284933464566929
20
1.3263626771653543
11
2.227216062992126
21
1.3272161023622047
0
LINE
8
BLACK
6
CONTINUOUS
10
2.227216062992126
20
1.3272161023622047
11
2.2263626377952757
21
1.3284933858267716
0
LINE
8
BLACK
6
CONTINUOUS
10
2.2263626377952757
20
1.3284933858267716
11
2.2260629527559055
21
1.3300000000000001
0
LINE
8
BLACK
6
CONTINUOUS
10
2.2260629527559055
20
1.3300000000000001
11
2.2260629527559055
21
1.3899999999999999
0
LINE
8
BLACK
6
CONTINUOUS
10
2.2260629527559055
20
1.3899999999999999
11
2.2263626377952757
21
1.3915066141732284
0
LINE
8
BLACK
6
CONTINUOUS
10
2.2263626377952757
20
1.3915066141732284
11
2.227216062992126
21
1.3927838976377953
0
LINE
8
BLACK
6
CONTINUOUS
10
2.227216062992126
20
1.3927838976377953
11
2.2284933464566929
21
1.3936373228346457
0
LINE
8
BLACK
6
CONTINUOUS
10
2.2284933464566929
20
1.3936373228346457
11
2.2299999606299212
21
1.3939370078740156
0
LINE
8
BLACK
6
CONTINUOUS
10
2.2299999606299212
20
1.3939370078740156
11
2.2899999606299213
21
1.3939370078740156
0
LINE
8
BLACK
6
CONTINUOUS
10
2.2899999606299213
20
1.3939370078740156
11
2.2915065748031496
21
1.3936373228346457
0
LINE
8
BLACK
6
CONTINUOUS
10
2.3915066535433072
20
1.3936373228346457
11
2.3927839370078741
21
1.3927838976377953
0
LINE
8
BLACK
6
CONTINUOUS
10
2.3927839370078741
20
1.3927838976377953
11
2.3936373622047245
21
1.3915066141732284
0
LINE
8
BLACK
6
CONTINUOUS
10
2.3936373622047245
20
1.3915066141732284
11
2.3939370472440946
21
1.3899999999999999
0
LINE
8
BLACK
6
CONTINUOUS
10
2.3939370472440946
20
1.3899999999999999
11
2.3939370472440946
21
1.3300000000000001
0
LINE
8
BLACK
6
CONTINUOUS
10
2.3939370472440946
20
1.3300000000000001
11
2.3936373622047245
21
1.3284933858267716
0
LINE
8
BLACK
6
CONTINUOUS
10
2.3936373622047245
20
1.3284933858267716
11
2.3927839370078741
21
1.3272161023622047
0
LINE
8
BLACK
6
CONTINUOUS
10
2.3927839370078741
20
1.3272161023622047
11
2.3915066535433072
21
1.3263626771653543
0
LINE
8
BLACK
6
CONTINUOUS
10
2.3915066535433072
20
1.3263626771653543
11
2.3900000393700789
21
1.3260629921259843
0
LINE
8
BLACK
6
CONTINUOUS
10
2.3900000393700789
20
1.3260629921259843
11
2.3300000393700788
21
1.3260629921259843
0
LINE
8
BLACK
6
CONTINUOUS
10
2.3300000393700788
20
1.3260629921259843
11
2.3284934251968505
21
1.3263626771653543
0
LINE
8
BLACK
6
CONTINUOUS
10
2.3284934251968505
20
1.3263626771653543
11
2.3272161417322832
21
1.3272161023622047
0
LINE
8
BLACK
6
CONTINUOUS
10
2.3272161417322832
20
1.3272161023622047
11
2.3263627165354328
21
1.3284933858267716
0
LINE
8
BLACK
6
CONTINUOUS
10
2.3263627165354328
20
1.3284933858267716
11
2.3260630314960631
21
1.3300000000000001
0
LINE
8
BLACK
6
CONTINUOUS
10
2.3260630314960631
20
1.3300000000000001
11
2.3260630314960631
21
1.3899999999999999
0
LINE
8
BLACK
6
CONTINUOUS
10
2.3260630314960631
20
1.3899999999999999
11
2.3263627165354328
21
1.3915066141732284
0
LINE
8
BLACK
6
CONTINUOUS
10
2.3263627165354328
20
1.3915066141732284
11
2.3272161417322832
21
1.3927838976377953
0
LINE
8
BLACK
6
CONTINUOUS
10
2.3272161417322832
20
1.3927838976377953
11
2.3284934251968505
21
1.3936373228346457
0
LINE
8
BLACK
6
CONTINUOUS
10
2.3284934251968505
20
1.3936373228346457
11
2.3300000393700788
21
1.3939370078740156
0
LINE
8
BLACK
6
CONTINUOUS
10
2.3300000393700788
20
1.3939370078740156
11
2.3900000393700789
21
1.3939370078740156
0
LINE
8
BLACK
6
CONTINUOUS
10
2.3900000393700789
20
1.3939370078740156
11
2.3915066535433072
21
1.3936373228346457
0
LINE
8
BLACK
6
CONTINUOUS
10
0.4136649606299213
20
1.7212798425196849
11
0.4271580708661417
21
1.718987283464567
0
LINE
8
BLACK
6
CONTINUOUS
10
0.4271580708661417
20
1.718987283464567
11
0.4403096456692913
21
1.7151983464566929
0
LINE
8
BLACK
6
CONTINUOUS
10
0.4403096456692913
20
1.7151983464566929
11
0.4529543307086614
21
1.709960748031496
0
LINE
8
BLACK
6
CONTINUOUS
10
0.4529543307086614
20
1.709960748031496
11
0.464933031496063
21
1.7033403543307086
0
LINE
8
BLACK
6
CONTINUOUS
10
0.464933031496063
20
1.7033403543307086
11
0.4760951968503937
21
1.6954203937007875
0
LINE
8
BLACK
6
CONTINUOUS
10
0.4760951968503937
20
1.6954203937007875
11
0.4863004330708661
21
1.6863004330708662
0
LINE
8
BLACK
6
CONTINUOUS
10
0.4863004330708661
20
1.6863004330708662
11
0.4954203937007874
21
1.6760951968503937
0
LINE
8
BLACK
6
CONTINUOUS
10
0.4954203937007874
20
1.6760951968503937
11
0.5033403543307087
21
1.6649330314960629
0
LINE
8
BLACK
6
CONTINUOUS
10
0.5033403543307087
20
1.6649330314960629
11
0.509960748031496
21
1.6529543307086614
0
LINE
8
BLACK
6
CONTINUOUS
10
0.509960748031496
20
1.6529543307086614
11
0.5151983464566929
21
1.6403096456692914
0
LINE
8
BLACK
6
CONTINUOUS
10
0.5151983464566929
20
1.6403096456692914
11
0.5189872834645669
21
1.6271580708661417
0
LINE
8
BLACK
6
CONTINUOUS
10
0.5189872834645669
20
1.6271580708661417
11
0.5212798425196851
21
1.6136649606299212
0
LINE
8
BLACK
6
CONTINUOUS
10
0.5212798425196851
20
1.6136649606299212
11
0.5220472440944882
21
1.5999999999999999
0
LINE
8
BLACK
6
CONTINUOUS
10
0.5220472440944882
20
1.5999999999999999
11
0.5212798425196851
21
1.5863350393700788
0
LINE
8
BLACK
6
CONTINUOUS
10
0.5212798425196851
20
1.5863350393700788
11
0.5189872834645669
21
1.5728419291338582
0
LINE
8
BLACK
6
CONTINUOUS
10
0.5189872834645669
20
1.5728419291338582
11
0.5151983464566929
21
1.5596903543307086
0
LINE
8
BLACK
6
CONTINUOUS
10
0.5151983464566929
20
1.5596903543307086
11
0.509960748031496
21
1.5470456692913386
0
LINE
8
BLACK
6
CONTINUOUS
10
0.509960748031496
20
1.5470456692913386
11
0.5033403543307087
21
1.5350669685039369
0
LINE
8
BLACK
6
CONTINUOUS
10
0.5033403543307087
20
1.5350669685039369
11
0.4954203937007874
21
1.5239048031496063
0
LINE
8
BLACK
6
CONTINUOUS
10
0.4954203937007874
20
1.5239048031496063
11
0.4863004330708661
21
1.5136995669291338
0
LINE
8
BLACK
6
CONTINUOUS
10
0.4863004330708661
20
1.5136995669291338
11
0.4760951968503937
21
1.5045796062992125
0
LINE
8
BLACK
6
CONTINUOUS
10
0.4760951968503937
20
1.5045796062992125
11
0.464933031496063
21
1.4966596456692913
0
LINE
8
BLACK
6
CONTINUOUS
10
0.464933031496063
20
1.4966596456692913
11
0.4529543307086614
21
1.490039251968504
0
LINE
8
BLACK
6
CONTINUOUS
10
0.4529543307086614
20
1.490039251968504
11
0.4403096456692913
21
1.4848016535433071
0
LINE
8
BLACK
6
CONTINUOUS
10
0.4403096456692913
20
1.4848016535433071
11
0.4271580708661417
21
1.481012716535433
0
LINE
8
BLACK
6
CONTINUOUS
10
0.4271580708661417
20
1.481012716535433
11
0.4136649606299213
21
1.4787201574803148
0
LINE
8
BLACK
6
CONTINUOUS
10
0.4136649606299213
20
1.4787201574803148
11
0.4
21
1.4779527559055117
0
LINE
8
BLACK
6
CONTINUOUS
10
0.4
20
1.4779527559055117
11
0.3863350393700787
21
1.4787201574803148
0
LINE
8
BLACK
6
CONTINUOUS
10
0.3863350393700787
20
1.4787201574803148
11
0.3728419291338583
21
1.481012716535433
0
LINE
8
BLACK
6
CONTINUOUS
10
0.3728419291338583
20
1.481012716535433
11
0.3596903543307087
21
1.4848016535433071
0
LINE
8
BLACK
6
CONTINUOUS
10
0.3596903543307087
20
1.4848016535433071
11
0.3470456692913386
21
1.490039251968504
0
LINE
8
BLACK
6
CONTINUOUS
10
0.3470456692913386
20
1.490039251968504
11
0.335066968503937
21
1.4966596456692913
0
LINE
8
BLACK
6
CONTINUOUS
10
0.335066968503937
20
1.4966596456692913
11
0.3239048031496063
21
1.5045796062992125
0
LINE
8
BLACK
6
CONTINUOUS
10
0.3239048031496063
20
1.5045796062992125
11
0.3136995669291339
21
1.5136995669291338
0
LINE
8
BLACK
6
CONTINUOUS
10
0.3136995669291339
20
1.5136995669291338
11
0.3045796062992126
21
1.5239048031496063
0
LINE
8
BLACK
6
CONTINUOUS
10
0.3045796062992126
20
1.5239048031496063
11
0.2966596456692913
21
1.5350669685039369
0
LINE
8
BLACK
6
CONTINUOUS
10
0.2966596456692913
20
1.5350669685039369
11
0.2900392519685039
21
1.5470456692913386
0
LINE
8
BLACK
6
CONTINUOUS
10
0.2900392519685039
20
1.5470456692913386
11
0.2848016535433071
21
1.5596903543307086
0
LINE
8
BLACK
6
CONTINUOUS
10
0.2848016535433071
20
1.5596903543307086
11
0.2810127165354331
21
1.5728419291338582
0
LINE
8
BLACK
6
CONTINUOUS
10
0.2810127165354331
20
1.5728419291338582
11
0.278720157480315
21
1.5863350393700788
0
LINE
8
BLACK
6
CONTINUOUS
10
0.278720157480315
20
1.5863350393700788
11
0.2779527559055118
21
1.5999999999999999
0
LINE
8
BLACK
6
CONTINUOUS
10
0.2779527559055118
20
1.5999999999999999
11
0.278720157480315
21
1.6136649606299212
0
LINE
8
BLACK
6
CONTINUOUS
10
0.278720157480315
20
1.6136649606299212
11
0.2810127165354331
21
1.6271580708661417
0
LINE
8
BLACK
6
CONTINUOUS
10
0.2810127165354331
20
1.6271580708661417
11
0.2848016535433071
21
1.6403096456692914
0
LINE
8
BLACK
6
CONTINUOUS
10
0.2848016535433071
20
1.6403096456692914
11
0.2900392519685039
21
1.6529543307086614
0
LINE
8
BLACK
6
CONTINUOUS
10
0.2900392519685039
20
1.6529543307086614
11
0.2966596456692913
21
1.6649330314960629
0
LINE
8
BLACK
6
CONTINUOUS
10
0.2966596456692913
20
1.6649330314960629
11
0.3045796062992126
21
1.6760951968503937
0
LINE
8
BLACK
6
CONTINUOUS
10
0.3045796062992126
20
1.6760951968503937
11
0.3136995669291339
21
1.6863004330708662
0
LINE
8
BLACK
6
CONTINUOUS
10
0.3136995669291339
20
1.6863004330708662
11
0.3239048031496063
21
1.6954203937007875
0
LINE
8
BLACK
6
CONTINUOUS
10
0.3239048031496063
20
1.6954203937007875
11
0.335066968503937
21
1.7033403543307086
0
LINE
8
BLACK
6
CONTINUOUS
10
0.335066968503937
20
1.7033403543307086
11
0.3470456692913386
21
1.709960748031496
0
LINE
8
BLACK
6
CONTINUOUS
10
0.3470456692913386
20
1.709960748031496
11
0.3596903543307087
21
1.7151983464566929
0
LINE
8
BLACK
6
CONTINUOUS
10
0.3596903543307087
20
1.7151983464566929
11
0.3728419291338583
21
1.718987283464567
0
LINE
8
BLACK
6
CONTINUOUS
10
0.3728419291338583
20
1.718987283464567
11
0.3863350393700787
21
1.7212798425196849
0
LINE
8
BLACK
6
CONTINUOUS
10
0.3863350393700787
20
1.7212798425196849
11
0.4
21
1.7220472440944881
0
LINE
8
BLACK
6
CONTINUOUS
10
0.4
20
1.7220472440944881
11
0.4136649606299213
21
1.7212798425196849
0
LINE
8
BLACK
6
CONTINUOUS
10
2.4136649606299212
20
1.7212798425196849
11
2.4271580708661418
21
1.718987283464567
0
LINE
8
BLACK
6
CONTINUOUS
10
2.4271580708661418
20
1.718987283464567
11
2.4403096456692914
21
1.7151983464566929
0
LINE
8
BLACK
6
CONTINUOUS
10
2.4403096456692914
20
1.7151983464566929
11
2.4529543307086614
21
1.709960748031496
0
LINE
8
BLACK
6
CONTINUOUS
10
2.4529543307086614
20
1.709960748031496
11
2.4649330314960629
21
1.7033403543307086
0
LINE
8
BLACK
6
CONTINUOUS
10
2.4649330314960629
20
1.7033403543307086
11
2.4760951968503937
21
1.6954203937007875
0
LINE
8
BLACK
6
CONTINUOUS
10
2.4760951968503937
20
1.6954203937007875
11
2.4863004330708662
21
1.6863004330708662
0
LINE
8
BLACK
6
CONTINUOUS
10
2.4863004330708662
20
1.6863004330708662
11
2.4954203937007873
21
1.6760951968503937
0
LINE
8
BLACK
6
CONTINUOUS
10
2.4954203937007873
20
1.6760951968503937
11
2.5033403543307085
21
1.6649330314960629
0
LINE
8
BLACK
6
CONTINUOUS
10
2.5033403543307085
20
1.6649330314960629
11
2.5099607480314958
21
1.6529543307086614
0
LINE
8
BLACK
6
CONTINUOUS
10
2.5099607480314958
20
1.6529543307086614
11
2.5151983464566929
21
1.6403096456692914
0
LINE
8
BLACK
6
CONTINUOUS
10
2.5151983464566929
20
1.6403096456692914
11
2.518987283464567
21
1.6271580708661417
0
LINE
8
BLACK
6
CONTINUOUS
10
2.518987283464567
20
1.6271580708661417
11
2.521279842519685
21
1.6136649606299212
0
LINE
8
BLACK
6
CONTINUOUS
10
2.521279842519685
20
1.6136649606299212
11
2.5220472440944883
21
1.5999999999999999
0
LINE
8
BLACK
6
CONTINUOUS
10
2.5220472440944883
20
1.5999999999999999
11
2.521279842519685
21
1.5863350393700788
0
LINE
8
BLACK
6
CONTINUOUS
10
2.521279842519685
20
1.5863350393700788
11
2.518987283464567
21
1.5728419291338582
0
LINE
8
BLACK
6
CONTINUOUS
10
2.518987283464567
20
1.5728419291338582
11
2.5151983464566929
21
1.5596903543307086
0
LINE
8
BLACK
6
CONTINUOUS
10
2.5151983464566929
20
1.5596903543307086
11
2.5099607480314958
21
1.5470456692913386
0
LINE
8
BLACK
6
CONTINUOUS
10
2.5099607480314958
20
1.5470456692913386
11
2.5033403543307085
21
1.5350669685039369
0
LINE
8
BLACK
6
CONTINUOUS
10
2.5033403543307085
20
1.5350669685039369
11
2.4954203937007873
21
1.5239048031496063
0
LINE
8
BLACK
6
CONTINUOUS
10
2.4954203937007873
20
1.5239048031496063
11
2.4863004330708662
21
1.5136995669291338
0
LINE
8
BLACK
6
CONTINUOUS
10
2.4863004330708662
20
1.5136995669291338
11
2.4760951968503937
21
1.5045796062992125
0
LINE
8
BLACK
6
CONTINUOUS
10
2.4760951968503937
20
1.5045796062992125
11
2.4649330314960629
21
1.4966596456692913
0
LINE
8
BLACK
6
CONTINUOUS
10
2.4649330314960629
20
1.4966596456692913
11
2.4529543307086614
21
1.490039251968504
0
LINE
8
BLACK
6
CONTINUOUS
10
2.4529543307086614
20
1.490039251968504
11
2.4403096456692914
21
1.4848016535433071
0
LINE
8
BLACK
6
CONTINUOUS
10
2.4403096456692914
20
1.4848016535433071
11
2.4271580708661418
21
1.481012716535433
0
LINE
8
BLACK
6
CONTINUOUS
10
2.4271580708661418
20
1.481012716535433
11
2.4136649606299212
21
1.4787201574803148
0
LINE
8
BLACK
6
CONTINUOUS
10
2.4136649606299212
20
1.4787201574803148
11
2.3999999999999999
21
1.4779527559055117
0
LINE
8
BLACK
6
CONTINUOUS
10
2.3999999999999999
20
1.4779527559055117
11
2.3863350393700786
21
1.4787201574803148
0
LINE
8
BLACK
6
CONTINUOUS
10
2.3863350393700786
20
1.4787201574803148
11
2.3728419291338581
21
1.481012716535433
0
LINE
8
BLACK
6
CONTINUOUS
10
2.3728419291338581
20
1.481012716535433
11
2.3596903543307084
21
1.4848016535433071
0
LINE
8
BLACK
6
CONTINUOUS
10
2.3596903543307084
20
1.4848016535433071
11
2.3470456692913384
21
1.490039251968504
0
LINE
8
BLACK
6
CONTINUOUS
10
2.3470456692913384
20
1.490039251968504
11
2.3350669685039369
21
1.4966596456692913
0
LINE
8
BLACK
6
CONTINUOUS
10
2.3350669685039369
20
1.4966596456692913
11
2.3239048031496061
21
1.5045796062992125
0
LINE
8
BLACK
6
CONTINUOUS
10
2.3239048031496061
20
1.5045796062992125
11
2.3136995669291336
21
1.5136995669291338
0
LINE
8
BLACK
6
CONTINUOUS
10
2.3136995669291336
20
1.5136995669291338
11
2.3045796062992125
21
1.5239048031496063
0
LINE
8
BLACK
6
CONTINUOUS
10
2.3045796062992125
20
1.5239048031496063
11
2.2966596456692914
21
1.5350669685039369
0
LINE
8
BLACK
6
CONTINUOUS
10
2.2966596456692914
20
1.5350669685039369
11
2.290039251968504
21
1.5470456692913386
0
LINE
8
BLACK
6
CONTINUOUS
10
2.290039251968504
20
1.5470456692913386
11
2.2848016535433069
21
1.5596903543307086
0
LINE
8
BLACK
6
CONTINUOUS
10
2.2848016535433069
20
1.5596903543307086
11
2.2810127165354328
21
1.5728419291338582
0
LINE
8
BLACK
6
CONTINUOUS
10
2.2810127165354328
20
1.5728419291338582
11
2.2787201574803149
21
1.5863350393700788
0
LINE
8
BLACK
6
CONTINUOUS
10
2.2787201574803149
20
1.5863350393700788
11
2.2779527559055119
21
1.5999999999999999
0
LINE
8
BLACK
6
CONTINUOUS
10
2.2779527559055119
20
1.5999999999999999
11
2.2787201574803149
21
1.6136649606299212
0
LINE
8
BLACK
6
CONTINUOUS
10
2.2787201574803149
20
1.6136649606299212
11
2.2810127165354328
21
1.6271580708661417
0
LINE
8
BLACK
6
CONTINUOUS
10
2.2810127165354328
20
1.6271580708661417
11
2.2848016535433069
21
1.6403096456692914
0
LINE
8
BLACK
6
CONTINUOUS
10
2.2848016535433069
20
1.6403096456692914
11
2.290039251968504
21
1.6529543307086614
0
LINE
8
BLACK
6
CONTINUOUS
10
2.290039251968504
20
1.6529543307086614
11
2.2966596456692914
21
1.6649330314960629
0
LINE
8
BLACK
6
CONTINUOUS
10
2.2966596456692914
20
1.6649330314960629
11
2.3045796062992125
21
1.6760951968503937
0
LINE
8
BLACK
6
CONTINUOUS
10
2.3045796062992125
20
1.6760951968503937
11
2.3136995669291336
21
1.6863004330708662
0
LINE
8
BLACK
6
CONTINUOUS
10
2.3136995669291336
20
1.6863004330708662
11
2.3239048031496061
21
1.6954203937007875
0
LINE
8
BLACK
6
CONTINUOUS
10
2.3239048031496061
20
1.6954203937007875
11
2.3350669685039369
21
1.7033403543307086
0
LINE
8
BLACK
6
CONTINUOUS
10
2.3350669685039369
20
1.7033403543307086
11
2.3470456692913384
21
1.709960748031496
0
LINE
8
BLACK
6
CONTINUOUS
10
2.3470456692913384
20
1.709960748031496
11
2.3596903543307084
21
1.7151983464566929
0
LINE
8
BLACK
6
CONTINUOUS
10
2.3596903543307084
20
1.7151983464566929
11
2.3728419291338581
21
1.718987283464567
0
LINE
8
BLACK
6
CONTINUOUS
10
2.3728419291338581
20
1.718987283464567
11
2.3863350393700786
21
1.7212798425196849
0
LINE
8
BLACK
6
CONTINUOUS
10
2.3863350393700786
20
1.7212798425196849
11
2.3999999999999999
21
1.7220472440944881
0
LINE
8
BLACK
6
CONTINUOUS
10
2.3999999999999999
20
1.7220472440944881
11
2.4136649606299212
21
1.7212798425196849
  0
ENDSEC
  0
EOF
