  0
SECTION
  2
HEADER
  9
$ANGBASE
  50
0.0
  9
$ANGDIR
  70
1
  9
$MEASUREMENT
  70
0
  0
ENDSEC
  0
SECTION
  2
TABLES
  0
TABLE
  2
LTYPE
  70
4
  0
LTYPE
  5
40F
  2
CONTINUOUS
  70
0
  3
Solid line
  72
65
  73
0
  40
0.0
  0
LTYPE
  5
410
  2
DASHDOT
 70
0
  3
Dash Dot ____ _ ____ _
 72
65
 73
4
 40
2.0
 49
1.25
 49
-0.25
 49
0.25
 49
-0.25
  0
LTYPE
  5
411
  2
DASHED
 70
0
  3
Dashed __ __ __ __ __
 72
65
 73
2
 40
0.75
 49
0.5
 49
-0.25
  0
LTYPE
  5
43B
  2
DOTTED
 70
0
  3
Dotted .  .  .  .
 72
65
 73
2
 40
0.2
 49
0.0
 49
-0.2
  0
ENDTAB
  0
TABLE
  2
STYLE
  70
4
  0
STYLE
  2
KICAD
  70
0
  40
0
  41
1
  42
1
  50
0
  71
0
  3
isocp.shx
  0
STYLE
  2
KICADB
  70
0
  40
0
  41
1
  42
1
  50
0
  71
0
  3
isocp.shx
  0
STYLE
  2
KICADI
  70
0
  40
0
  41
1
  42
1
  50
15
  71
0
  3
isocp.shx
  0
STYLE
  2
KICADBI
  70
0
  40
0
  41
1
  42
1
  50
15
  71
0
  3
isocp.shx
  0
ENDTAB
  0
TABLE
  2
LAYER
  70
1
  0
LAYER
  2
BLACK
  70
0
  62
7
  6
CONTINUOUS
  0
ENDTAB
  0
ENDSEC
  0
SECTION
  2
ENTITIES
0
LINE
8
BLACK
6
CONTINUOUS
10
-0.7376535826771653
20
-0.6886750393700787
11
-0.7175275984251969
21
-0.6929545669291338
0
LINE
8
BLACK
6
CONTINUOUS
10
-0.7175275984251969
20
-0.6929545669291338
11
-0.7173319291338582
21
-0.6930181496062991
0
LINE
8
BLACK
6
CONTINUOUS
10
-0.7173319291338582
20
-0.6930181496062991
11
-0.6985366535433071
21
-0.7013882677165354
0
LINE
8
BLACK
6
CONTINUOUS
10
-0.6985366535433071
20
-0.7013882677165354
11
-0.6983585826771653
21
-0.7014910629921259
0
LINE
8
BLACK
6
CONTINUOUS
10
-0.6983585826771653
20
-0.7014910629921259
11
-0.6817090157480314
21
-0.7135855905511811
0
LINE
8
BLACK
6
CONTINUOUS
10
-0.6817090157480314
20
-0.7135855905511811
11
-0.6816099606299213
21
-0.7136679921259842
0
LINE
8
BLACK
6
CONTINUOUS
10
-0.6816099606299213
20
-0.7136679921259842
11
-0.6605698818897637
21
-0.7336341338582677
0
LINE
8
BLACK
6
CONTINUOUS
10
-0.6605698818897637
20
-0.7336341338582677
11
-0.6173487401574803
21
-0.7705499212598425
0
LINE
8
BLACK
6
CONTINUOUS
10
-0.6173487401574803
20
-0.7705499212598425
11
-0.5804212992125984
21
-0.7988844094488189
0
LINE
8
BLACK
6
CONTINUOUS
10
-0.5804212992125984
20
-0.7988844094488189
11
-0.5420623622047244
21
-0.825245
0
LINE
8
BLACK
6
CONTINUOUS
10
-0.5420623622047244
20
-0.825245
11
-0.4936018110236221
21
-0.8549427165354331
0
LINE
8
BLACK
6
CONTINUOUS
10
-0.4936018110236221
20
-0.8549427165354331
11
-0.443651968503937
21
-0.8820632283464567
0
LINE
8
BLACK
6
CONTINUOUS
10
-0.443651968503937
20
-0.8820632283464567
11
-0.4016427559055118
21
-0.9021006299212598
0
LINE
8
BLACK
6
CONTINUOUS
10
-0.4016427559055118
20
-0.9021006299212598
11
-0.3586393307086614
21
-0.9199154724409448
0
LINE
8
BLACK
6
CONTINUOUS
10
-0.3586393307086614
20
-0.9199154724409448
11
-0.3050624015748031
21
-0.9388864566929134
0
LINE
8
BLACK
6
CONTINUOUS
10
-0.3050624015748031
20
-0.9388864566929134
11
-0.2505662992125984
21
-0.9550291338582677
0
LINE
8
BLACK
6
CONTINUOUS
10
-0.2505662992125984
20
-0.9550291338582677
11
-0.2053066535433071
21
-0.9658950787401575
0
LINE
8
BLACK
6
CONTINUOUS
10
-0.2053066535433071
20
-0.9658950787401575
11
-0.1595414173228346
21
-0.9743776771653543
0
LINE
8
BLACK
6
CONTINUOUS
10
-0.1595414173228346
20
-0.9743776771653543
11
-0.103191062992126
21
-0.9817963779527559
0
LINE
8
BLACK
6
CONTINUOUS
10
-0.103191062992126
20
-0.9817963779527559
11
-0.0465288582677165
21
-0.9862568110236221
0
LINE
8
BLACK
6
CONTINUOUS
10
-0.0465288582677165
20
-0.9862568110236221
11
-0.0000000393700787
21
-0.9874719291338583
0
LINE
8
BLACK
6
CONTINUOUS
10
-0.0000000393700787
20
-0.9874719291338583
11
0.0465284645669291
21
-0.9862568110236221
0
LINE
8
BLACK
6
CONTINUOUS
10
0.0465284645669291
20
-0.9862568110236221
11
0.1031905118110236
21
-0.9817963779527559
0
LINE
8
BLACK
6
CONTINUOUS
10
0.1031905118110236
20
-0.9817963779527559
11
0.1595410236220473
21
-0.9743779527559054
0
LINE
8
BLACK
6
CONTINUOUS
10
0.1595410236220473
20
-0.9743779527559054
11
0.2053062992125984
21
-0.9658950787401575
0
LINE
8
BLACK
6
CONTINUOUS
10
0.2053062992125984
20
-0.9658950787401575
11
0.250565905511811
21
-0.9550291338582677
0
LINE
8
BLACK
6
CONTINUOUS
10
0.250565905511811
20
-0.9550291338582677
11
0.3050618897637795
21
-0.9388864566929134
0
LINE
8
BLACK
6
CONTINUOUS
10
0.3050618897637795
20
-0.9388864566929134
11
0.358638937007874
21
-0.9199154724409448
0
LINE
8
BLACK
6
CONTINUOUS
10
0.358638937007874
20
-0.9199154724409448
11
0.4016424015748031
21
-0.9021006299212598
0
LINE
8
BLACK
6
CONTINUOUS
10
0.4016424015748031
20
-0.9021006299212598
11
0.4436515354330708
21
-0.8820632283464567
0
LINE
8
BLACK
6
CONTINUOUS
10
0.4436515354330708
20
-0.8820632283464567
11
0.4936012598425197
21
-0.8549427165354331
0
LINE
8
BLACK
6
CONTINUOUS
10
0.4936012598425197
20
-0.8549427165354331
11
0.5420619291338582
21
-0.825245
0
LINE
8
BLACK
6
CONTINUOUS
10
0.5420619291338582
20
-0.825245
11
0.580420905511811
21
-0.7988845669291338
0
LINE
8
BLACK
6
CONTINUOUS
10
0.580420905511811
20
-0.7988845669291338
11
0.6173481889763779
21
-0.7705499212598425
0
LINE
8
BLACK
6
CONTINUOUS
10
0.6173481889763779
20
-0.7705499212598425
11
0.6605693307086614
21
-0.7336341338582677
0
LINE
8
BLACK
6
CONTINUOUS
10
0.6605693307086614
20
-0.7336341338582677
11
0.6816096062992126
21
-0.7136679921259842
0
LINE
8
BLACK
6
CONTINUOUS
10
0.6816096062992126
20
-0.7136679921259842
11
0.6817086614173228
21
-0.7135855905511811
0
LINE
8
BLACK
6
CONTINUOUS
10
0.6817086614173228
20
-0.7135855905511811
11
0.6983581496062992
21
-0.7014912204724409
0
LINE
8
BLACK
6
CONTINUOUS
10
0.6983581496062992
20
-0.7014912204724409
11
0.6985362204724409
21
-0.7013884251968504
0
LINE
8
BLACK
6
CONTINUOUS
10
0.6985362204724409
20
-0.7013884251968504
11
0.7173315748031496
21
-0.6930183070866142
0
LINE
8
BLACK
6
CONTINUOUS
10
0.7173315748031496
20
-0.6930183070866142
11
0.7175272440944882
21
-0.6929547244094488
0
LINE
8
BLACK
6
CONTINUOUS
10
0.7175272440944882
20
-0.6929547244094488
11
0.7376532283464566
21
-0.6886750393700787
0
LINE
8
BLACK
6
CONTINUOUS
10
0.7376532283464566
20
-0.6886750393700787
11
0.7378579527559055
21
-0.6886535039370079
0
LINE
8
BLACK
6
CONTINUOUS
10
0.7378579527559055
20
-0.6886535039370079
11
0.7584367322834645
21
-0.6886535039370079
0
LINE
8
BLACK
6
CONTINUOUS
10
0.7584367322834645
20
-0.6886535039370079
11
0.7586414566929134
21
-0.6886750393700787
0
LINE
8
BLACK
6
CONTINUOUS
10
0.7586414566929134
20
-0.6886750393700787
11
0.7787674409448818
21
-0.6929547244094488
0
LINE
8
BLACK
6
CONTINUOUS
10
0.7787674409448818
20
-0.6929547244094488
11
0.7789630708661417
21
-0.6930182677165354
0
LINE
8
BLACK
6
CONTINUOUS
10
0.7789630708661417
20
-0.6930182677165354
11
0.7977623228346457
21
-0.7013883858267717
0
LINE
8
BLACK
6
CONTINUOUS
10
0.7977623228346457
20
-0.7013883858267717
11
0.7979405118110237
21
-0.7014912992125985
0
LINE
8
BLACK
6
CONTINUOUS
10
0.7979405118110237
20
-0.7014912992125985
11
0.8145861023622047
21
-0.7135856692913386
0
LINE
8
BLACK
6
CONTINUOUS
10
0.8145861023622047
20
-0.7135856692913386
11
0.8147211417322835
21
-0.7137040157480314
0
LINE
8
BLACK
6
CONTINUOUS
10
0.8147211417322835
20
-0.7137040157480314
11
1.0424178740157479
21
-0.9533850787401574
0
LINE
8
BLACK
6
CONTINUOUS
10
1.0424178740157479
20
-0.9533850787401574
11
1.0424357480314961
21
-0.9534044094488189
0
LINE
8
BLACK
6
CONTINUOUS
10
1.0424357480314961
20
-0.9534044094488189
11
1.0562035039370079
21
-0.9686956299212598
0
LINE
8
BLACK
6
CONTINUOUS
10
1.0562035039370079
20
-0.9686956299212598
11
1.0563244488188976
21
-0.9688620866141732
0
LINE
8
BLACK
6
CONTINUOUS
10
1.0563244488188976
20
-0.9688620866141732
11
1.066612125984252
21
-0.9866812204724409
0
LINE
8
BLACK
6
CONTINUOUS
10
1.066612125984252
20
-0.9866812204724409
11
1.066695748031496
21
-0.9868690551181102
0
LINE
8
BLACK
6
CONTINUOUS
10
1.066695748031496
20
-0.9868690551181102
11
1.0730575590551181
21
-1.0064399606299212
0
LINE
8
BLACK
6
CONTINUOUS
10
1.0730575590551181
20
-1.0064399606299212
11
1.0731003937007875
21
-1.0066414173228346
0
LINE
8
BLACK
6
CONTINUOUS
10
1.0731003937007875
20
-1.0066414173228346
11
1.0752501574803148
21
-1.0271020078740156
0
LINE
8
BLACK
6
CONTINUOUS
10
1.0752501574803148
20
-1.0271020078740156
11
1.0752501574803148
21
-1.0273076771653542
0
LINE
8
BLACK
6
CONTINUOUS
10
1.0752501574803148
20
-1.0273076771653542
11
1.0731003937007875
21
-1.0477721653543306
0
LINE
8
BLACK
6
CONTINUOUS
10
1.0731003937007875
20
-1.0477721653543306
11
1.0730575590551181
21
-1.047973622047244
0
LINE
8
BLACK
6
CONTINUOUS
10
1.0730575590551181
20
-1.047973622047244
11
1.066695748031496
21
-1.0675445275590552
0
LINE
8
BLACK
6
CONTINUOUS
10
1.066695748031496
20
-1.0675445275590552
11
1.066612125984252
21
-1.0677323622047243
0
LINE
8
BLACK
6
CONTINUOUS
10
1.066612125984252
20
-1.0677323622047243
11
1.0563244488188976
21
-1.0855512204724409
0
LINE
8
BLACK
6
CONTINUOUS
10
1.0563244488188976
20
-1.0855512204724409
11
1.0562035039370079
21
-1.0857176771653543
0
LINE
8
BLACK
6
CONTINUOUS
10
1.0562035039370079
20
-1.0857176771653543
11
1.0424357480314961
21
-1.1010088976377952
0
LINE
8
BLACK
6
CONTINUOUS
10
1.0424357480314961
20
-1.1010088976377952
11
1.042381811023622
21
-1.1010642519685039
0
LINE
8
BLACK
6
CONTINUOUS
10
1.042381811023622
20
-1.1010642519685039
11
1.0149093700787402
21
-1.127135157480315
0
LINE
8
BLACK
6
CONTINUOUS
10
1.0149093700787402
20
-1.127135157480315
11
1.014871062992126
21
-1.1271696456692912
0
LINE
8
BLACK
6
CONTINUOUS
10
1.014871062992126
20
-1.1271696456692912
11
0.9584499212598425
21
-1.1753585826771653
0
LINE
8
BLACK
6
CONTINUOUS
10
0.9584499212598425
20
-1.1753585826771653
11
0.9584098818897637
21
-1.1753910236220473
0
LINE
8
BLACK
6
CONTINUOUS
10
0.9584098818897637
20
-1.1753910236220473
11
0.8995397637795275
21
-1.2205642519685038
0
LINE
8
BLACK
6
CONTINUOUS
10
0.8995397637795275
20
-1.2205642519685038
11
0.8995191338582676
21
-1.2205796456692912
0
LINE
8
BLACK
6
CONTINUOUS
10
0.8995191338582676
20
-1.2205796456692912
11
0.8828735433070866
21
-1.2326743307086614
0
LINE
8
BLACK
6
CONTINUOUS
10
0.8828735433070866
20
-1.2326743307086614
11
0.8828524803149607
21
-1.2326892125984252
0
LINE
8
BLACK
6
CONTINUOUS
10
0.8828524803149607
20
-1.2326892125984252
11
0.8216989763779528
21
-1.274716968503937
0
LINE
8
BLACK
6
CONTINUOUS
10
0.8216989763779528
20
-1.274716968503937
11
0.8216557874015747
21
-1.2747450393700788
0
LINE
8
BLACK
6
CONTINUOUS
10
0.8216557874015747
20
-1.2747450393700788
11
0.7583881496062992
21
-1.3135164566929134
0
LINE
8
BLACK
6
CONTINUOUS
10
0.7583881496062992
20
-1.3135164566929134
11
0.7583435039370079
21
-1.3135422047244094
0
LINE
8
BLACK
6
CONTINUOUS
10
0.7583435039370079
20
-1.3135422047244094
11
0.693134842519685
21
-1.3489477165354331
0
LINE
8
BLACK
6
CONTINUOUS
10
0.693134842519685
20
-1.3489477165354331
11
0.6930888976377952
21
-1.3489711417322834
0
LINE
8
BLACK
6
CONTINUOUS
10
0.6930888976377952
20
-1.3489711417322834
11
0.6261125984251968
21
-1.380916062992126
0
LINE
8
BLACK
6
CONTINUOUS
10
0.6261125984251968
20
-1.380916062992126
11
0.6260892913385827
21
-1.3809268110236219
0
LINE
8
BLACK
6
CONTINUOUS
10
0.6260892913385827
20
-1.3809268110236219
11
0.6072940944881889
21
-1.3892969291338582
0
LINE
8
BLACK
6
CONTINUOUS
10
0.6072940944881889
20
-1.3892969291338582
11
0.6072703149606299
21
-1.389307125984252
0
LINE
8
BLACK
6
CONTINUOUS
10
0.6072703149606299
20
-1.389307125984252
11
0.5387150787401574
21
-1.4177007874015748
0
LINE
8
BLACK
6
CONTINUOUS
10
0.5387150787401574
20
-1.4177007874015748
11
0.5386670472440944
21
-1.417719251968504
0
LINE
8
BLACK
6
CONTINUOUS
10
0.5386670472440944
20
-1.417719251968504
11
0.4687182677165354
21
-1.4424910629921259
0
LINE
8
BLACK
6
CONTINUOUS
10
0.4687182677165354
20
-1.4424910629921259
11
0.4686692125984252
21
-1.4425069685039369
0
LINE
8
BLACK
6
CONTINUOUS
10
0.4686692125984252
20
-1.4425069685039369
11
0.3975234645669291
21
-1.463581496062992
0
LINE
8
BLACK
6
CONTINUOUS
10
0.3975234645669291
20
-1.463581496062992
11
0.3974736614173228
21
-1.463594842519685
0
LINE
8
BLACK
6
CONTINUOUS
10
0.3974736614173228
20
-1.463594842519685
11
0.325322125984252
21
-1.4809138976377954
0
LINE
8
BLACK
6
CONTINUOUS
10
0.325322125984252
20
-1.4809138976377954
11
0.3252970866141732
21
-1.4809195669291337
0
LINE
8
BLACK
6
CONTINUOUS
10
0.3252970866141732
20
-1.4809195669291337
11
0.3051707874015748
21
-1.485198937007874
0
LINE
8
BLACK
6
CONTINUOUS
10
0.3051707874015748
20
-1.485198937007874
11
0.3051454724409449
21
-1.4852039763779528
0
LINE
8
BLACK
6
CONTINUOUS
10
0.3051454724409449
20
-1.4852039763779528
11
0.2321856299212599
21
-1.4987278346456692
0
LINE
8
BLACK
6
CONTINUOUS
10
0.2321856299212599
20
-1.4987278346456692
11
0.2321347244094488
21
-1.498735905511811
0
LINE
8
BLACK
6
CONTINUOUS
10
0.2321347244094488
20
-1.498735905511811
11
0.1585669291338583
21
-1.5084207086614172
0
LINE
8
BLACK
6
CONTINUOUS
10
0.1585669291338583
20
-1.5084207086614172
11
0.1585157086614173
21
-1.5084261023622048
0
LINE
8
BLACK
6
CONTINUOUS
10
0.1585157086614173
20
-1.5084261023622048
11
0.0845418503937008
21
-1.514248779527559
0
LINE
8
BLACK
6
CONTINUOUS
10
0.0845418503937008
20
-1.514248779527559
11
0.0844903543307087
21
-1.5142514566929133
0
LINE
8
BLACK
6
CONTINUOUS
10
0.0844903543307087
20
-1.5142514566929133
11
0.0103133858267717
21
-1.5161924409448819
0
LINE
8
BLACK
6
CONTINUOUS
10
0.0103133858267717
20
-1.5161924409448819
11
0.0102876377952756
21
-1.5161927952755905
0
LINE
8
BLACK
6
CONTINUOUS
10
0.0102876377952756
20
-1.5161927952755905
11
-0.0102876771653543
21
-1.5161927952755905
0
LINE
8
BLACK
6
CONTINUOUS
10
-0.0102876771653543
20
-1.5161927952755905
11
-0.0103134251968504
21
-1.5161924409448819
0
LINE
8
BLACK
6
CONTINUOUS
10
-0.0103134251968504
20
-1.5161924409448819
11
-0.0844903937007874
21
-1.5142514566929133
0
LINE
8
BLACK
6
CONTINUOUS
10
-0.0844903937007874
20
-1.5142514566929133
11
-0.0845418897637795
21
-1.514248779527559
0
LINE
8
BLACK
6
CONTINUOUS
10
-0.0845418897637795
20
-1.514248779527559
11
-0.1585157480314961
21
-1.5084258267716535
0
LINE
8
BLACK
6
CONTINUOUS
10
-0.1585157480314961
20
-1.5084258267716535
11
-0.158566968503937
21
-1.5084204330708662
0
LINE
8
BLACK
6
CONTINUOUS
10
-0.158566968503937
20
-1.5084204330708662
11
-0.2321347637795275
21
-1.498735590551181
0
LINE
8
BLACK
6
CONTINUOUS
10
-0.2321347637795275
20
-1.498735590551181
11
-0.2321856692913386
21
-1.4987275196850394
0
LINE
8
BLACK
6
CONTINUOUS
10
-0.2321856692913386
20
-1.4987275196850394
11
-0.3051455118110236
21
-1.4852039763779528
0
LINE
8
BLACK
6
CONTINUOUS
10
-0.3051455118110236
20
-1.4852039763779528
11
-0.3051708661417323
21
-1.485198937007874
0
LINE
8
BLACK
6
CONTINUOUS
10
-0.3051708661417323
20
-1.485198937007874
11
-0.3252972834645669
21
-1.4809192519685039
0
LINE
8
BLACK
6
CONTINUOUS
10
-0.3252972834645669
20
-1.4809192519685039
11
-0.3253222834645669
21
-1.4809136220472441
0
LINE
8
BLACK
6
CONTINUOUS
10
-0.3253222834645669
20
-1.4809136220472441
11
-0.3974738582677165
21
-1.4635948818897637
0
LINE
8
BLACK
6
CONTINUOUS
10
-0.3974738582677165
20
-1.4635948818897637
11
-0.3975237007874016
21
-1.463581496062992
0
LINE
8
BLACK
6
CONTINUOUS
10
-0.3975237007874016
20
-1.463581496062992
11
-0.4686693700787402
21
-1.4425066535433071
0
LINE
8
BLACK
6
CONTINUOUS
10
-0.4686693700787402
20
-1.4425066535433071
11
-0.4687183858267717
21
-1.4424907480314961
0
LINE
8
BLACK
6
CONTINUOUS
10
-0.4687183858267717
20
-1.4424907480314961
11
-0.5386671653543307
21
-1.417718937007874
0
LINE
8
BLACK
6
CONTINUOUS
10
-0.5386671653543307
20
-1.417718937007874
11
-0.5387151968503937
21
-1.4177004724409448
0
LINE
8
BLACK
6
CONTINUOUS
10
-0.5387151968503937
20
-1.4177004724409448
11
-0.6072703543307086
21
-1.389307125984252
0
LINE
8
BLACK
6
CONTINUOUS
10
-0.6072703543307086
20
-1.389307125984252
11
-0.6072941338582677
21
-1.3892969291338582
0
LINE
8
BLACK
6
CONTINUOUS
10
-0.6072941338582677
20
-1.3892969291338582
11
-0.6260893700787401
21
-1.3809268110236219
0
LINE
8
BLACK
6
CONTINUOUS
10
-0.6260893700787401
20
-1.3809268110236219
11
-0.6261126771653543
21
-1.380916062992126
0
LINE
8
BLACK
6
CONTINUOUS
10
-0.6261126771653543
20
-1.380916062992126
11
-0.693089094488189
21
-1.3489711417322834
0
LINE
8
BLACK
6
CONTINUOUS
10
-0.693089094488189
20
-1.3489711417322834
11
-0.6931350393700787
21
-1.3489477165354331
0
LINE
8
BLACK
6
CONTINUOUS
10
-0.6931350393700787
20
-1.3489477165354331
11
-0.7583436614173228
21
-1.3135419291338581
0
LINE
8
BLACK
6
CONTINUOUS
10
-0.7583436614173228
20
-1.3135419291338581
11
-0.7583883070866142
21
-1.3135161811023621
0
LINE
8
BLACK
6
CONTINUOUS
10
-0.7583883070866142
20
-1.3135161811023621
11
-0.821656062992126
21
-1.2747447244094487
0
LINE
8
BLACK
6
CONTINUOUS
10
-0.821656062992126
20
-1.2747447244094487
11
-0.8216992519685039
21
-1.2747166929133857
0
LINE
8
BLACK
6
CONTINUOUS
10
-0.8216992519685039
20
-1.2747166929133857
11
-0.8828528346456693
21
-1.232689251968504
0
LINE
8
BLACK
6
CONTINUOUS
10
-0.8828528346456693
20
-1.232689251968504
11
-0.8828738976377952
21
-1.2326743307086614
0
LINE
8
BLACK
6
CONTINUOUS
10
-0.8828738976377952
20
-1.2326743307086614
11
-0.8995194881889763
21
-1.2205796456692912
0
LINE
8
BLACK
6
CONTINUOUS
10
-0.8995194881889763
20
-1.2205796456692912
11
-0.8995401181102362
21
-1.2205642519685038
0
LINE
8
BLACK
6
CONTINUOUS
10
-0.8995401181102362
20
-1.2205642519685038
11
-0.9584101968503936
21
-1.1753910236220473
0
LINE
8
BLACK
6
CONTINUOUS
10
-0.9584101968503936
20
-1.1753910236220473
11
-0.9584502362204724
21
-1.1753585826771653
0
LINE
8
BLACK
6
CONTINUOUS
10
-0.9584502362204724
20
-1.1753585826771653
11
-1.0148715748031496
21
-1.1271696456692912
0
LINE
8
BLACK
6
CONTINUOUS
10
-1.0148715748031496
20
-1.1271696456692912
11
-1.0149098818897637
21
-1.127135157480315
0
LINE
8
BLACK
6
CONTINUOUS
10
-1.0149098818897637
20
-1.127135157480315
11
-1.0423822834645669
21
-1.1010642519685039
0
LINE
8
BLACK
6
CONTINUOUS
10
-1.0423822834645669
20
-1.1010642519685039
11
-1.0424362204724409
21
-1.1010088976377952
0
LINE
8
BLACK
6
CONTINUOUS
10
-1.0424362204724409
20
-1.1010088976377952
11
-1.056203937007874
21
-1.0857176771653543
0
LINE
8
BLACK
6
CONTINUOUS
10
-1.056203937007874
20
-1.0857176771653543
11
-1.0563248818897637
21
-1.0855512204724409
0
LINE
8
BLACK
6
CONTINUOUS
10
-1.0563248818897637
20
-1.0855512204724409
11
-1.0666122834645668
21
-1.0677323622047243
0
LINE
8
BLACK
6
CONTINUOUS
10
-1.0666122834645668
20
-1.0677323622047243
11
-1.066695905511811
21
-1.0675445275590552
0
LINE
8
BLACK
6
CONTINUOUS
10
-1.066695905511811
20
-1.0675445275590552
11
-1.0730581102362204
21
-1.047973622047244
0
LINE
8
BLACK
6
CONTINUOUS
10
-1.0730581102362204
20
-1.047973622047244
11
-1.0731009448818898
21
-1.0477721653543306
0
LINE
8
BLACK
6
CONTINUOUS
10
-1.0731009448818898
20
-1.0477721653543306
11
-1.0752505118110236
21
-1.0273076771653542
0
LINE
8
BLACK
6
CONTINUOUS
10
-1.0752505118110236
20
-1.0273076771653542
11
-1.0752505118110236
21
-1.0271020078740156
0
LINE
8
BLACK
6
CONTINUOUS
10
-1.0752505118110236
20
-1.0271020078740156
11
-1.0731009448818898
21
-1.0066414173228346
0
LINE
8
BLACK
6
CONTINUOUS
10
-1.0731009448818898
20
-1.0066414173228346
11
-1.0730581102362204
21
-1.0064399606299212
0
LINE
8
BLACK
6
CONTINUOUS
10
-1.0730581102362204
20
-1.0064399606299212
11
-1.066695905511811
21
-0.9868690551181102
0
LINE
8
BLACK
6
CONTINUOUS
10
-1.066695905511811
20
-0.9868690551181102
11
-1.0666122834645668
21
-0.9866812204724409
0
LINE
8
BLACK
6
CONTINUOUS
10
-1.0666122834645668
20
-0.9866812204724409
11
-1.0563248818897637
21
-0.9688620866141732
0
LINE
8
BLACK
6
CONTINUOUS
10
-1.0563248818897637
20
-0.9688620866141732
11
-1.056203937007874
21
-0.9686956299212598
0
LINE
8
BLACK
6
CONTINUOUS
10
-1.056203937007874
20
-0.9686956299212598
11
-1.0424362204724409
21
-0.9534044094488189
0
LINE
8
BLACK
6
CONTINUOUS
10
-1.0424362204724409
20
-0.9534044094488189
11
-1.042418346456693
21
-0.9533850787401574
0
LINE
8
BLACK
6
CONTINUOUS
10
-1.042418346456693
20
-0.9533850787401574
11
-0.8147214960629922
21
-0.7137040157480314
0
LINE
8
BLACK
6
CONTINUOUS
10
-0.8147214960629922
20
-0.7137040157480314
11
-0.8145864566929134
21
-0.7135856692913386
0
LINE
8
BLACK
6
CONTINUOUS
10
-0.8145864566929134
20
-0.7135856692913386
11
-0.7979407874015748
21
-0.7014911417322834
0
LINE
8
BLACK
6
CONTINUOUS
10
-0.7979407874015748
20
-0.7014911417322834
11
-0.7977625984251968
21
-0.7013882283464566
0
LINE
8
BLACK
6
CONTINUOUS
10
-0.7977625984251968
20
-0.7013882283464566
11
-0.7789633464566929
21
-0.6930181102362205
0
LINE
8
BLACK
6
CONTINUOUS
10
-0.7789633464566929
20
-0.6930181102362205
11
-0.7787677165354331
21
-0.6929545669291338
0
LINE
8
BLACK
6
CONTINUOUS
10
-0.7787677165354331
20
-0.6929545669291338
11
-0.7586417322834645
21
-0.6886750393700787
0
LINE
8
BLACK
6
CONTINUOUS
10
-0.7586417322834645
20
-0.6886750393700787
11
-0.7584370078740157
21
-0.6886535039370079
0
LINE
8
BLACK
6
CONTINUOUS
10
-0.7584370078740157
20
-0.6886535039370079
11
-0.7378583070866142
21
-0.6886535039370079
0
LINE
8
BLACK
6
CONTINUOUS
10
-0.7378583070866142
20
-0.6886535039370079
11
-0.7376535826771653
21
-0.6886750393700787
0
LINE
8
BLACK
6
CONTINUOUS
10
0.3969554330708661
20
-0.5606855118110237
11
0.3982327165354331
21
-0.5615389370078741
0
LINE
8
BLACK
6
CONTINUOUS
10
0.3982327165354331
20
-0.5615389370078741
11
0.3990861417322835
21
-0.562816220472441
0
LINE
8
BLACK
6
CONTINUOUS
10
0.3990861417322835
20
-0.562816220472441
11
0.3993858267716535
21
-0.5643228346456692
0
LINE
8
BLACK
6
CONTINUOUS
10
0.3993858267716535
20
-0.5643228346456692
11
0.3993858267716535
21
-0.6243228346456693
0
LINE
8
BLACK
6
CONTINUOUS
10
0.3993858267716535
20
-0.6243228346456693
11
0.3990861417322835
21
-0.6258294488188976
0
LINE
8
BLACK
6
CONTINUOUS
10
0.3990861417322835
20
-0.6258294488188976
11
0.3982327165354331
21
-0.6271067322834646
0
LINE
8
BLACK
6
CONTINUOUS
10
0.3982327165354331
20
-0.6271067322834646
11
0.3969554330708661
21
-0.627960157480315
0
LINE
8
BLACK
6
CONTINUOUS
10
0.3969554330708661
20
-0.627960157480315
11
0.3954488188976378
21
-0.628259842519685
0
LINE
8
BLACK
6
CONTINUOUS
10
0.3954488188976378
20
-0.628259842519685
11
0.3354488188976378
21
-0.628259842519685
0
LINE
8
BLACK
6
CONTINUOUS
10
0.3354488188976378
20
-0.628259842519685
11
0.3339422047244094
21
-0.627960157480315
0
LINE
8
BLACK
6
CONTINUOUS
10
0.3339422047244094
20
-0.627960157480315
11
0.3326649212598425
21
-0.6271067322834646
0
LINE
8
BLACK
6
CONTINUOUS
10
0.3326649212598425
20
-0.6271067322834646
11
0.3318114960629921
21
-0.6258294488188976
0
LINE
8
BLACK
6
CONTINUOUS
10
0.3318114960629921
20
-0.6258294488188976
11
0.331511811023622
21
-0.6243228346456693
0
LINE
8
BLACK
6
CONTINUOUS
10
0.331511811023622
20
-0.6243228346456693
11
0.331511811023622
21
-0.5643228346456692
0
LINE
8
BLACK
6
CONTINUOUS
10
0.331511811023622
20
-0.5643228346456692
11
0.3318114960629921
21
-0.562816220472441
0
LINE
8
BLACK
6
CONTINUOUS
10
0.3318114960629921
20
-0.562816220472441
11
0.3326649212598425
21
-0.5615389370078741
0
LINE
8
BLACK
6
CONTINUOUS
10
0.3326649212598425
20
-0.5615389370078741
11
0.3339422047244094
21
-0.5606855118110237
0
LINE
8
BLACK
6
CONTINUOUS
10
0.3339422047244094
20
-0.5606855118110237
11
0.3354488188976378
21
-0.5603858267716535
0
LINE
8
BLACK
6
CONTINUOUS
10
0.3354488188976378
20
-0.5603858267716535
11
0.3954488188976378
21
-0.5603858267716535
0
LINE
8
BLACK
6
CONTINUOUS
10
0.3954488188976378
20
-0.5603858267716535
11
0.3969554330708661
21
-0.5606855118110237
0
LINE
8
BLACK
6
CONTINUOUS
10
0.4969554330708661
20
-0.5606855118110237
11
0.4982327165354331
21
-0.5615389370078741
0
LINE
8
BLACK
6
CONTINUOUS
10
0.4982327165354331
20
-0.5615389370078741
11
0.4990861417322834
21
-0.562816220472441
0
LINE
8
BLACK
6
CONTINUOUS
10
0.4990861417322834
20
-0.562816220472441
11
0.4993858267716536
21
-0.5643228346456692
0
LINE
8
BLACK
6
CONTINUOUS
10
0.4993858267716536
20
-0.5643228346456692
11
0.4993858267716536
21
-0.6243228346456693
0
LINE
8
BLACK
6
CONTINUOUS
10
0.4993858267716536
20
-0.6243228346456693
11
0.4990861417322834
21
-0.6258294488188976
0
LINE
8
BLACK
6
CONTINUOUS
10
0.4990861417322834
20
-0.6258294488188976
11
0.4982327165354331
21
-0.6271067322834646
0
LINE
8
BLACK
6
CONTINUOUS
10
0.4982327165354331
20
-0.6271067322834646
11
0.4969554330708661
21
-0.627960157480315
0
LINE
8
BLACK
6
CONTINUOUS
10
0.4969554330708661
20
-0.627960157480315
11
0.4954488188976378
21
-0.628259842519685
0
LINE
8
BLACK
6
CONTINUOUS
10
0.4954488188976378
20
-0.628259842519685
11
0.4354488188976378
21
-0.628259842519685
0
LINE
8
BLACK
6
CONTINUOUS
10
0.4354488188976378
20
-0.628259842519685
11
0.4339422047244094
21
-0.627960157480315
0
LINE
8
BLACK
6
CONTINUOUS
10
0.4339422047244094
20
-0.627960157480315
11
0.4326649212598425
21
-0.6271067322834646
0
LINE
8
BLACK
6
CONTINUOUS
10
0.4326649212598425
20
-0.6271067322834646
11
0.4318114960629921
21
-0.6258294488188976
0
LINE
8
BLACK
6
CONTINUOUS
10
0.4318114960629921
20
-0.6258294488188976
11
0.431511811023622
21
-0.6243228346456693
0
LINE
8
BLACK
6
CONTINUOUS
10
0.431511811023622
20
-0.6243228346456693
11
0.431511811023622
21
-0.5643228346456692
0
LINE
8
BLACK
6
CONTINUOUS
10
0.431511811023622
20
-0.5643228346456692
11
0.4318114960629921
21
-0.562816220472441
0
LINE
8
BLACK
6
CONTINUOUS
10
0.4318114960629921
20
-0.562816220472441
11
0.4326649212598425
21
-0.5615389370078741
0
LINE
8
BLACK
6
CONTINUOUS
10
0.4326649212598425
20
-0.5615389370078741
11
0.4339422047244094
21
-0.5606855118110237
0
LINE
8
BLACK
6
CONTINUOUS
10
0.4339422047244094
20
-0.5606855118110237
11
0.4354488188976378
21
-0.5603858267716535
0
LINE
8
BLACK
6
CONTINUOUS
10
0.4354488188976378
20
-0.5603858267716535
11
0.4954488188976378
21
-0.5603858267716535
0
LINE
8
BLACK
6
CONTINUOUS
10
0.4954488188976378
20
-0.5603858267716535
11
0.4969554330708661
21
-0.5606855118110237
0
LINE
8
BLACK
6
CONTINUOUS
10
0.5969554330708662
20
-0.5606855118110237
11
0.5982327165354331
21
-0.5615389370078741
0
LINE
8
BLACK
6
CONTINUOUS
10
0.5982327165354331
20
-0.5615389370078741
11
0.5990861417322835
21
-0.562816220472441
0
LINE
8
BLACK
6
CONTINUOUS
10
0.5990861417322835
20
-0.562816220472441
11
0.5993858267716535
21
-0.5643228346456692
0
LINE
8
BLACK
6
CONTINUOUS
10
0.5993858267716535
20
-0.5643228346456692
11
0.5993858267716535
21
-0.6243228346456693
0
LINE
8
BLACK
6
CONTINUOUS
10
0.5993858267716535
20
-0.6243228346456693
11
0.5990861417322835
21
-0.6258294488188976
0
LINE
8
BLACK
6
CONTINUOUS
10
0.5990861417322835
20
-0.6258294488188976
11
0.5982327165354331
21
-0.6271067322834646
0
LINE
8
BLACK
6
CONTINUOUS
10
0.5982327165354331
20
-0.6271067322834646
11
0.5969554330708662
21
-0.627960157480315
0
LINE
8
BLACK
6
CONTINUOUS
10
0.5969554330708662
20
-0.627960157480315
11
0.5954488188976378
21
-0.628259842519685
0
LINE
8
BLACK
6
CONTINUOUS
10
0.5954488188976378
20
-0.628259842519685
11
0.5354488188976377
21
-0.628259842519685
0
LINE
8
BLACK
6
CONTINUOUS
10
0.5354488188976377
20
-0.628259842519685
11
0.5339422047244095
21
-0.627960157480315
0
LINE
8
BLACK
6
CONTINUOUS
10
0.5339422047244095
20
-0.627960157480315
11
0.5326649212598425
21
-0.6271067322834646
0
LINE
8
BLACK
6
CONTINUOUS
10
0.5326649212598425
20
-0.6271067322834646
11
0.5318114960629922
21
-0.6258294488188976
0
LINE
8
BLACK
6
CONTINUOUS
10
0.5318114960629922
20
-0.6258294488188976
11
0.531511811023622
21
-0.6243228346456693
0
LINE
8
BLACK
6
CONTINUOUS
10
0.531511811023622
20
-0.6243228346456693
11
0.531511811023622
21
-0.5643228346456692
0
LINE
8
BLACK
6
CONTINUOUS
10
0.531511811023622
20
-0.5643228346456692
11
0.5318114960629922
21
-0.562816220472441
0
LINE
8
BLACK
6
CONTINUOUS
10
0.5318114960629922
20
-0.562816220472441
11
0.5326649212598425
21
-0.5615389370078741
0
LINE
8
BLACK
6
CONTINUOUS
10
0.5326649212598425
20
-0.5615389370078741
11
0.5339422047244095
21
-0.5606855118110237
0
LINE
8
BLACK
6
CONTINUOUS
10
0.5339422047244095
20
-0.5606855118110237
11
0.5354488188976377
21
-0.5603858267716535
0
LINE
8
BLACK
6
CONTINUOUS
10
0.5354488188976377
20
-0.5603858267716535
11
0.5954488188976378
21
-0.5603858267716535
0
LINE
8
BLACK
6
CONTINUOUS
10
0.5954488188976378
20
-0.5603858267716535
11
0.5969554330708662
21
-0.5606855118110237
0
LINE
8
BLACK
6
CONTINUOUS
10
0.3969554330708661
20
-0.4606855118110236
11
0.3982327165354331
21
-0.461538937007874
0
LINE
8
BLACK
6
CONTINUOUS
10
0.3982327165354331
20
-0.461538937007874
11
0.3990861417322835
21
-0.4628162204724409
0
LINE
8
BLACK
6
CONTINUOUS
10
0.3990861417322835
20
-0.4628162204724409
11
0.3993858267716535
21
-0.4643228346456693
0
LINE
8
BLACK
6
CONTINUOUS
10
0.3993858267716535
20
-0.4643228346456693
11
0.3993858267716535
21
-0.5243228346456693
0
LINE
8
BLACK
6
CONTINUOUS
10
0.3993858267716535
20
-0.5243228346456693
11
0.3990861417322835
21
-0.5258294488188976
0
LINE
8
BLACK
6
CONTINUOUS
10
0.3990861417322835
20
-0.5258294488188976
11
0.3982327165354331
21
-0.5271067322834646
0
LINE
8
BLACK
6
CONTINUOUS
10
0.3982327165354331
20
-0.5271067322834646
11
0.3969554330708661
21
-0.527960157480315
0
LINE
8
BLACK
6
CONTINUOUS
10
0.3969554330708661
20
-0.527960157480315
11
0.3954488188976378
21
-0.5282598425196851
0
LINE
8
BLACK
6
CONTINUOUS
10
0.3954488188976378
20
-0.5282598425196851
11
0.3354488188976378
21
-0.5282598425196851
0
LINE
8
BLACK
6
CONTINUOUS
10
0.3354488188976378
20
-0.5282598425196851
11
0.3339422047244094
21
-0.527960157480315
0
LINE
8
BLACK
6
CONTINUOUS
10
0.3339422047244094
20
-0.527960157480315
11
0.3326649212598425
21
-0.5271067322834646
0
LINE
8
BLACK
6
CONTINUOUS
10
0.3326649212598425
20
-0.5271067322834646
11
0.3318114960629921
21
-0.5258294488188976
0
LINE
8
BLACK
6
CONTINUOUS
10
0.3318114960629921
20
-0.5258294488188976
11
0.331511811023622
21
-0.5243228346456693
0
LINE
8
BLACK
6
CONTINUOUS
10
0.331511811023622
20
-0.5243228346456693
11
0.331511811023622
21
-0.4643228346456693
0
LINE
8
BLACK
6
CONTINUOUS
10
0.331511811023622
20
-0.4643228346456693
11
0.3318114960629921
21
-0.4628162204724409
0
LINE
8
BLACK
6
CONTINUOUS
10
0.3318114960629921
20
-0.4628162204724409
11
0.3326649212598425
21
-0.461538937007874
0
LINE
8
BLACK
6
CONTINUOUS
10
0.3326649212598425
20
-0.461538937007874
11
0.3339422047244094
21
-0.4606855118110236
0
LINE
8
BLACK
6
CONTINUOUS
10
0.3339422047244094
20
-0.4606855118110236
11
0.3354488188976378
21
-0.4603858267716535
0
LINE
8
BLACK
6
CONTINUOUS
10
0.3354488188976378
20
-0.4603858267716535
11
0.3954488188976378
21
-0.4603858267716535
0
LINE
8
BLACK
6
CONTINUOUS
10
0.3954488188976378
20
-0.4603858267716535
11
0.3969554330708661
21
-0.4606855118110236
0
LINE
8
BLACK
6
CONTINUOUS
10
0.4969554330708661
20
-0.4606855118110236
11
0.4982327165354331
21
-0.461538937007874
0
LINE
8
BLACK
6
CONTINUOUS
10
0.4982327165354331
20
-0.461538937007874
11
0.4990861417322834
21
-0.4628162204724409
0
LINE
8
BLACK
6
CONTINUOUS
10
0.4990861417322834
20
-0.4628162204724409
11
0.4993858267716536
21
-0.4643228346456693
0
LINE
8
BLACK
6
CONTINUOUS
10
0.4993858267716536
20
-0.4643228346456693
11
0.4993858267716536
21
-0.5243228346456693
0
LINE
8
BLACK
6
CONTINUOUS
10
0.4993858267716536
20
-0.5243228346456693
11
0.4990861417322834
21
-0.5258294488188976
0
LINE
8
BLACK
6
CONTINUOUS
10
0.4990861417322834
20
-0.5258294488188976
11
0.4982327165354331
21
-0.5271067322834646
0
LINE
8
BLACK
6
CONTINUOUS
10
0.4982327165354331
20
-0.5271067322834646
11
0.4969554330708661
21
-0.527960157480315
0
LINE
8
BLACK
6
CONTINUOUS
10
0.4969554330708661
20
-0.527960157480315
11
0.4954488188976378
21
-0.5282598425196851
0
LINE
8
BLACK
6
CONTINUOUS
10
0.4954488188976378
20
-0.5282598425196851
11
0.4354488188976378
21
-0.5282598425196851
0
LINE
8
BLACK
6
CONTINUOUS
10
0.4354488188976378
20
-0.5282598425196851
11
0.4339422047244094
21
-0.527960157480315
0
LINE
8
BLACK
6
CONTINUOUS
10
0.4339422047244094
20
-0.527960157480315
11
0.4326649212598425
21
-0.5271067322834646
0
LINE
8
BLACK
6
CONTINUOUS
10
0.4326649212598425
20
-0.5271067322834646
11
0.4318114960629921
21
-0.5258294488188976
0
LINE
8
BLACK
6
CONTINUOUS
10
0.4318114960629921
20
-0.5258294488188976
11
0.431511811023622
21
-0.5243228346456693
0
LINE
8
BLACK
6
CONTINUOUS
10
0.431511811023622
20
-0.5243228346456693
11
0.431511811023622
21
-0.4643228346456693
0
LINE
8
BLACK
6
CONTINUOUS
10
0.431511811023622
20
-0.4643228346456693
11
0.4318114960629921
21
-0.4628162204724409
0
LINE
8
BLACK
6
CONTINUOUS
10
0.4318114960629921
20
-0.4628162204724409
11
0.4326649212598425
21
-0.461538937007874
0
LINE
8
BLACK
6
CONTINUOUS
10
0.4326649212598425
20
-0.461538937007874
11
0.4339422047244094
21
-0.4606855118110236
0
LINE
8
BLACK
6
CONTINUOUS
10
0.4339422047244094
20
-0.4606855118110236
11
0.4354488188976378
21
-0.4603858267716535
0
LINE
8
BLACK
6
CONTINUOUS
10
0.4354488188976378
20
-0.4603858267716535
11
0.4954488188976378
21
-0.4603858267716535
0
LINE
8
BLACK
6
CONTINUOUS
10
0.4954488188976378
20
-0.4603858267716535
11
0.4969554330708661
21
-0.4606855118110236
0
LINE
8
BLACK
6
CONTINUOUS
10
0.5969554330708662
20
-0.4606855118110236
11
0.5982327165354331
21
-0.461538937007874
0
LINE
8
BLACK
6
CONTINUOUS
10
0.5982327165354331
20
-0.461538937007874
11
0.5990861417322835
21
-0.4628162204724409
0
LINE
8
BLACK
6
CONTINUOUS
10
0.5990861417322835
20
-0.4628162204724409
11
0.5993858267716535
21
-0.4643228346456693
0
LINE
8
BLACK
6
CONTINUOUS
10
0.5993858267716535
20
-0.4643228346456693
11
0.5993858267716535
21
-0.5243228346456693
0
LINE
8
BLACK
6
CONTINUOUS
10
0.5993858267716535
20
-0.5243228346456693
11
0.5990861417322835
21
-0.5258294488188976
0
LINE
8
BLACK
6
CONTINUOUS
10
0.5990861417322835
20
-0.5258294488188976
11
0.5982327165354331
21
-0.5271067322834646
0
LINE
8
BLACK
6
CONTINUOUS
10
0.5982327165354331
20
-0.5271067322834646
11
0.5969554330708662
21
-0.527960157480315
0
LINE
8
BLACK
6
CONTINUOUS
10
0.5969554330708662
20
-0.527960157480315
11
0.5954488188976378
21
-0.5282598425196851
0
LINE
8
BLACK
6
CONTINUOUS
10
0.5954488188976378
20
-0.5282598425196851
11
0.5354488188976377
21
-0.5282598425196851
0
LINE
8
BLACK
6
CONTINUOUS
10
0.5354488188976377
20
-0.5282598425196851
11
0.5339422047244095
21
-0.527960157480315
0
LINE
8
BLACK
6
CONTINUOUS
10
0.5339422047244095
20
-0.527960157480315
11
0.5326649212598425
21
-0.5271067322834646
0
LINE
8
BLACK
6
CONTINUOUS
10
0.5326649212598425
20
-0.5271067322834646
11
0.5318114960629922
21
-0.5258294488188976
0
LINE
8
BLACK
6
CONTINUOUS
10
0.5318114960629922
20
-0.5258294488188976
11
0.531511811023622
21
-0.5243228346456693
0
LINE
8
BLACK
6
CONTINUOUS
10
0.531511811023622
20
-0.5243228346456693
11
0.531511811023622
21
-0.4643228346456693
0
LINE
8
BLACK
6
CONTINUOUS
10
0.531511811023622
20
-0.4643228346456693
11
0.5318114960629922
21
-0.4628162204724409
0
LINE
8
BLACK
6
CONTINUOUS
10
0.5318114960629922
20
-0.4628162204724409
11
0.5326649212598425
21
-0.461538937007874
0
LINE
8
BLACK
6
CONTINUOUS
10
0.5326649212598425
20
-0.461538937007874
11
0.5339422047244095
21
-0.4606855118110236
0
LINE
8
BLACK
6
CONTINUOUS
10
0.5339422047244095
20
-0.4606855118110236
11
0.5354488188976377
21
-0.4603858267716535
0
LINE
8
BLACK
6
CONTINUOUS
10
0.5354488188976377
20
-0.4603858267716535
11
0.5954488188976378
21
-0.4603858267716535
0
LINE
8
BLACK
6
CONTINUOUS
10
0.5954488188976378
20
-0.4603858267716535
11
0.5969554330708662
21
-0.4606855118110236
0
LINE
8
BLACK
6
CONTINUOUS
10
-0.7446222047244094
20
-0.4288349606299213
11
-0.7432444881889764
21
-0.4295144094488189
0
LINE
8
BLACK
6
CONTINUOUS
10
-0.7432444881889764
20
-0.4295144094488189
11
-0.7422316535433071
21
-0.4306693307086614
0
LINE
8
BLACK
6
CONTINUOUS
10
-0.7422316535433071
20
-0.4306693307086614
11
-0.7195938582677165
21
-0.4698791732283464
0
LINE
8
BLACK
6
CONTINUOUS
10
-0.7195938582677165
20
-0.4698791732283464
11
-0.7191000787401575
21
-0.4713337795275591
0
LINE
8
BLACK
6
CONTINUOUS
10
-0.7191000787401575
20
-0.4713337795275591
11
-0.7192005118110236
21
-0.4728666535433071
0
LINE
8
BLACK
6
CONTINUOUS
10
-0.7192005118110236
20
-0.4728666535433071
11
-0.7198799606299212
21
-0.4742443700787402
0
LINE
8
BLACK
6
CONTINUOUS
10
-0.7198799606299212
20
-0.4742443700787402
11
-0.7210348818897637
21
-0.4752572047244095
0
LINE
8
BLACK
6
CONTINUOUS
10
-0.7210348818897637
20
-0.4752572047244095
11
-0.750016062992126
21
-0.4919894881889764
0
LINE
8
BLACK
6
CONTINUOUS
10
-0.750016062992126
20
-0.4919894881889764
11
-0.7514706692913385
21
-0.4924832677165354
0
LINE
8
BLACK
6
CONTINUOUS
10
-0.7514706692913385
20
-0.4924832677165354
11
-0.7530035433070866
21
-0.4923828346456693
0
LINE
8
BLACK
6
CONTINUOUS
10
-0.7530035433070866
20
-0.4923828346456693
11
-0.7543812598425197
21
-0.4917033858267716
0
LINE
8
BLACK
6
CONTINUOUS
10
-0.7543812598425197
20
-0.4917033858267716
11
-0.7553940944881889
21
-0.4905484645669291
0
LINE
8
BLACK
6
CONTINUOUS
10
-0.7553940944881889
20
-0.4905484645669291
11
-0.7780318897637795
21
-0.4513386220472441
0
LINE
8
BLACK
6
CONTINUOUS
10
-0.7780318897637795
20
-0.4513386220472441
11
-0.7785256692913386
21
-0.4498840157480315
0
LINE
8
BLACK
6
CONTINUOUS
10
-0.7785256692913386
20
-0.4498840157480315
11
-0.7784252362204724
21
-0.4483511417322835
0
LINE
8
BLACK
6
CONTINUOUS
10
-0.7784252362204724
20
-0.4483511417322835
11
-0.7777457874015747
21
-0.4469734251968504
0
LINE
8
BLACK
6
CONTINUOUS
10
-0.7777457874015747
20
-0.4469734251968504
11
-0.7765908661417322
21
-0.4459605905511811
0
LINE
8
BLACK
6
CONTINUOUS
10
-0.7765908661417322
20
-0.4459605905511811
11
-0.7476096850393701
21
-0.4292283070866141
0
LINE
8
BLACK
6
CONTINUOUS
10
-0.7476096850393701
20
-0.4292283070866141
11
-0.7461550787401575
21
-0.4287345275590551
0
LINE
8
BLACK
6
CONTINUOUS
10
-0.7461550787401575
20
-0.4287345275590551
11
-0.7446222047244094
21
-0.4288349606299213
0
LINE
8
BLACK
6
CONTINUOUS
10
-0.7016619291338583
20
-0.404031811023622
11
-0.7002841732283465
21
-0.4047112598425197
0
LINE
8
BLACK
6
CONTINUOUS
10
-0.7002841732283465
20
-0.4047112598425197
11
-0.6992713385826772
21
-0.4058661811023622
0
LINE
8
BLACK
6
CONTINUOUS
10
-0.6992713385826772
20
-0.4058661811023622
11
-0.6766335433070866
21
-0.4450760236220472
0
LINE
8
BLACK
6
CONTINUOUS
10
-0.6766335433070866
20
-0.4450760236220472
11
-0.6761397637795276
21
-0.4465306299212599
0
LINE
8
BLACK
6
CONTINUOUS
10
-0.6761397637795276
20
-0.4465306299212599
11
-0.6762402362204725
21
-0.4480635039370079
0
LINE
8
BLACK
6
CONTINUOUS
10
-0.6762402362204725
20
-0.4480635039370079
11
-0.6769196850393701
21
-0.4494412204724409
0
LINE
8
BLACK
6
CONTINUOUS
10
-0.6769196850393701
20
-0.4494412204724409
11
-0.6780746062992126
21
-0.4504540551181102
0
LINE
8
BLACK
6
CONTINUOUS
10
-0.6780746062992126
20
-0.4504540551181102
11
-0.7111472047244094
21
-0.4695485433070866
0
LINE
8
BLACK
6
CONTINUOUS
10
-0.7111472047244094
20
-0.4695485433070866
11
-0.7126018110236221
21
-0.4700423228346456
0
LINE
8
BLACK
6
CONTINUOUS
10
-0.7126018110236221
20
-0.4700423228346456
11
-0.7141346850393701
21
-0.4699418897637795
0
LINE
8
BLACK
6
CONTINUOUS
10
-0.7141346850393701
20
-0.4699418897637795
11
-0.7155124409448819
21
-0.4692624409448819
0
LINE
8
BLACK
6
CONTINUOUS
10
-0.7155124409448819
20
-0.4692624409448819
11
-0.7165252755905511
21
-0.4681075196850394
0
LINE
8
BLACK
6
CONTINUOUS
10
-0.7165252755905511
20
-0.4681075196850394
11
-0.7391630708661417
21
-0.4288976771653543
0
LINE
8
BLACK
6
CONTINUOUS
10
-0.7391630708661417
20
-0.4288976771653543
11
-0.7396568503937008
21
-0.4274430708661417
0
LINE
8
BLACK
6
CONTINUOUS
10
-0.7396568503937008
20
-0.4274430708661417
11
-0.7395563779527559
21
-0.4259101968503937
0
LINE
8
BLACK
6
CONTINUOUS
10
-0.7395563779527559
20
-0.4259101968503937
11
-0.7388769291338583
21
-0.4245324803149606
0
LINE
8
BLACK
6
CONTINUOUS
10
-0.7388769291338583
20
-0.4245324803149606
11
-0.7377220078740158
21
-0.4235196456692913
0
LINE
8
BLACK
6
CONTINUOUS
10
-0.7377220078740158
20
-0.4235196456692913
11
-0.7046494094488189
21
-0.4044251574803149
0
LINE
8
BLACK
6
CONTINUOUS
10
-0.7046494094488189
20
-0.4044251574803149
11
-0.7031948031496063
21
-0.4039313779527559
0
LINE
8
BLACK
6
CONTINUOUS
10
-0.7031948031496063
20
-0.4039313779527559
11
-0.7016619291338583
21
-0.404031811023622
0
LINE
8
BLACK
6
CONTINUOUS
10
-0.7692285039370078
20
-0.3862156299212599
11
-0.7678507874015748
21
-0.3868950787401575
0
LINE
8
BLACK
6
CONTINUOUS
10
-0.7678507874015748
20
-0.3868950787401575
11
-0.7668379527559055
21
-0.38805
0
LINE
8
BLACK
6
CONTINUOUS
10
-0.7668379527559055
20
-0.38805
11
-0.7481371653543307
21
-0.4204407086614173
0
LINE
8
BLACK
6
CONTINUOUS
10
-0.7481371653543307
20
-0.4204407086614173
11
-0.7476433858267716
21
-0.4218953149606299
0
LINE
8
BLACK
6
CONTINUOUS
10
-0.7476433858267716
20
-0.4218953149606299
11
-0.7477438188976377
21
-0.423428188976378
0
LINE
8
BLACK
6
CONTINUOUS
10
-0.7477438188976377
20
-0.423428188976378
11
-0.7484232677165354
21
-0.424805905511811
0
LINE
8
BLACK
6
CONTINUOUS
10
-0.7484232677165354
20
-0.424805905511811
11
-0.749578188976378
21
-0.425818779527559
0
LINE
8
BLACK
6
CONTINUOUS
10
-0.749578188976378
20
-0.425818779527559
11
-0.7785593700787401
21
-0.442551062992126
0
LINE
8
BLACK
6
CONTINUOUS
10
-0.7785593700787401
20
-0.442551062992126
11
-0.7800139763779528
21
-0.4430448031496063
0
LINE
8
BLACK
6
CONTINUOUS
10
-0.7800139763779528
20
-0.4430448031496063
11
-0.7815468503937008
21
-0.4429443700787402
0
LINE
8
BLACK
6
CONTINUOUS
10
-0.7815468503937008
20
-0.4429443700787402
11
-0.7829245669291338
21
-0.4422649212598425
0
LINE
8
BLACK
6
CONTINUOUS
10
-0.7829245669291338
20
-0.4422649212598425
11
-0.7839374015748032
21
-0.44111
0
LINE
8
BLACK
6
CONTINUOUS
10
-0.7839374015748032
20
-0.44111
11
-0.802638188976378
21
-0.4087192913385826
0
LINE
8
BLACK
6
CONTINUOUS
10
-0.802638188976378
20
-0.4087192913385826
11
-0.803131968503937
21
-0.4072646850393701
0
LINE
8
BLACK
6
CONTINUOUS
10
-0.803131968503937
20
-0.4072646850393701
11
-0.8030315354330708
21
-0.405731811023622
0
LINE
8
BLACK
6
CONTINUOUS
10
-0.8030315354330708
20
-0.405731811023622
11
-0.8023520866141732
21
-0.404354094488189
0
LINE
8
BLACK
6
CONTINUOUS
10
-0.8023520866141732
20
-0.404354094488189
11
-0.8011971653543307
21
-0.4033412204724409
0
LINE
8
BLACK
6
CONTINUOUS
10
-0.8011971653543307
20
-0.4033412204724409
11
-0.7722159842519685
21
-0.386608937007874
0
LINE
8
BLACK
6
CONTINUOUS
10
-0.7722159842519685
20
-0.386608937007874
11
-0.7707613779527559
21
-0.3861151968503937
0
LINE
8
BLACK
6
CONTINUOUS
10
-0.7707613779527559
20
-0.3861151968503937
11
-0.7692285039370078
21
-0.3862156299212599
0
LINE
8
BLACK
6
CONTINUOUS
10
-0.7262682283464567
20
-0.3614124803149606
11
-0.7248904724409448
21
-0.3620919291338582
0
LINE
8
BLACK
6
CONTINUOUS
10
-0.7248904724409448
20
-0.3620919291338582
11
-0.7238776377952756
21
-0.3632468503937008
0
LINE
8
BLACK
6
CONTINUOUS
10
-0.7238776377952756
20
-0.3632468503937008
11
-0.7051768503937008
21
-0.3956375590551181
0
LINE
8
BLACK
6
CONTINUOUS
10
-0.7051768503937008
20
-0.3956375590551181
11
-0.7046830708661417
21
-0.3970921653543307
0
LINE
8
BLACK
6
CONTINUOUS
10
-0.7046830708661417
20
-0.3970921653543307
11
-0.7047835433070866
21
-0.3986250393700787
0
LINE
8
BLACK
6
CONTINUOUS
10
-0.7047835433070866
20
-0.3986250393700787
11
-0.7054629921259843
21
-0.4000027559055118
0
LINE
8
BLACK
6
CONTINUOUS
10
-0.7054629921259843
20
-0.4000027559055118
11
-0.7066179133858268
21
-0.4010156299212598
0
LINE
8
BLACK
6
CONTINUOUS
10
-0.7066179133858268
20
-0.4010156299212598
11
-0.7396905118110236
21
-0.4201101181102362
0
LINE
8
BLACK
6
CONTINUOUS
10
-0.7396905118110236
20
-0.4201101181102362
11
-0.7411451181102362
21
-0.4206038582677165
0
LINE
8
BLACK
6
CONTINUOUS
10
-0.7411451181102362
20
-0.4206038582677165
11
-0.7426779921259843
21
-0.4205034251968504
0
LINE
8
BLACK
6
CONTINUOUS
10
-0.7426779921259843
20
-0.4205034251968504
11
-0.7440557480314961
21
-0.4198239763779528
0
LINE
8
BLACK
6
CONTINUOUS
10
-0.7440557480314961
20
-0.4198239763779528
11
-0.7450685826771654
21
-0.4186690551181102
0
LINE
8
BLACK
6
CONTINUOUS
10
-0.7450685826771654
20
-0.4186690551181102
11
-0.7637693700787401
21
-0.3862783464566929
0
LINE
8
BLACK
6
CONTINUOUS
10
-0.7637693700787401
20
-0.3862783464566929
11
-0.7642631496062992
21
-0.3848237401574803
0
LINE
8
BLACK
6
CONTINUOUS
10
-0.7642631496062992
20
-0.3848237401574803
11
-0.7641626771653544
21
-0.3832908661417323
0
LINE
8
BLACK
6
CONTINUOUS
10
-0.7641626771653544
20
-0.3832908661417323
11
-0.7634832283464567
21
-0.3819131496062992
0
LINE
8
BLACK
6
CONTINUOUS
10
-0.7634832283464567
20
-0.3819131496062992
11
-0.7623283070866141
21
-0.3809002755905512
0
LINE
8
BLACK
6
CONTINUOUS
10
-0.7623283070866141
20
-0.3809002755905512
11
-0.7292557086614173
21
-0.3618057874015748
0
LINE
8
BLACK
6
CONTINUOUS
10
-0.7292557086614173
20
-0.3618057874015748
11
-0.7278011023622047
21
-0.3613120472440945
0
LINE
8
BLACK
6
CONTINUOUS
10
-0.7278011023622047
20
-0.3613120472440945
11
-0.7262682283464567
21
-0.3614124803149606
0
LINE
8
BLACK
6
CONTINUOUS
10
1.4015853543307086
20
-0.1395910236220472
11
1.4028626377952755
21
-0.1404444488188976
0
LINE
8
BLACK
6
CONTINUOUS
10
1.4028626377952755
20
-0.1404444488188976
11
1.4037160629921259
21
-0.1417217322834646
0
LINE
8
BLACK
6
CONTINUOUS
10
1.4037160629921259
20
-0.1417217322834646
11
1.4040157480314961
21
-0.1432283464566929
0
LINE
8
BLACK
6
CONTINUOUS
10
1.4040157480314961
20
-0.1432283464566929
11
1.4040157480314961
21
-0.2032283464566929
0
LINE
8
BLACK
6
CONTINUOUS
10
1.4040157480314961
20
-0.2032283464566929
11
1.4037160629921259
21
-0.2047349606299212
0
LINE
8
BLACK
6
CONTINUOUS
10
1.4037160629921259
20
-0.2047349606299212
11
1.4028626377952755
21
-0.2060122440944882
0
LINE
8
BLACK
6
CONTINUOUS
10
1.4028626377952755
20
-0.2060122440944882
11
1.4015853543307086
21
-0.2068656692913386
0
LINE
8
BLACK
6
CONTINUOUS
10
1.4015853543307086
20
-0.2068656692913386
11
1.4000787401574804
21
-0.2071653543307087
0
LINE
8
BLACK
6
CONTINUOUS
10
1.4000787401574804
20
-0.2071653543307087
11
1.3400787401574803
21
-0.2071653543307087
0
LINE
8
BLACK
6
CONTINUOUS
10
1.3400787401574803
20
-0.2071653543307087
11
1.338572125984252
21
-0.2068656692913386
0
LINE
8
BLACK
6
CONTINUOUS
10
1.338572125984252
20
-0.2068656692913386
11
1.3372948425196851
21
-0.2060122440944882
0
LINE
8
BLACK
6
CONTINUOUS
10
1.3372948425196851
20
-0.2060122440944882
11
1.3364414173228347
21
-0.2047349606299212
0
LINE
8
BLACK
6
CONTINUOUS
10
1.3364414173228347
20
-0.2047349606299212
11
1.3361417322834646
21
-0.2032283464566929
0
LINE
8
BLACK
6
CONTINUOUS
10
1.3361417322834646
20
-0.2032283464566929
11
1.3361417322834646
21
-0.1432283464566929
0
LINE
8
BLACK
6
CONTINUOUS
10
1.3361417322834646
20
-0.1432283464566929
11
1.3364414173228347
21
-0.1417217322834646
0
LINE
8
BLACK
6
CONTINUOUS
10
1.3364414173228347
20
-0.1417217322834646
11
1.3372948425196851
21
-0.1404444488188976
0
LINE
8
BLACK
6
CONTINUOUS
10
1.3372948425196851
20
-0.1404444488188976
11
1.338572125984252
21
-0.1395910236220472
0
LINE
8
BLACK
6
CONTINUOUS
10
1.338572125984252
20
-0.1395910236220472
11
1.3400787401574803
21
-0.1392913385826772
0
LINE
8
BLACK
6
CONTINUOUS
10
1.3400787401574803
20
-0.1392913385826772
11
1.4000787401574804
21
-0.1392913385826772
0
LINE
8
BLACK
6
CONTINUOUS
10
1.4000787401574804
20
-0.1392913385826772
11
1.4015853543307086
21
-0.1395910236220472
0
LINE
8
BLACK
6
CONTINUOUS
10
-0.4401011023622047
20
0.0932109842519685
11
-0.4390366929133858
21
0.0927700787401575
0
LINE
8
BLACK
6
CONTINUOUS
10
-0.4390366929133858
20
0.0927700787401575
11
-0.4382220472440945
21
0.0919554330708661
0
LINE
8
BLACK
6
CONTINUOUS
10
-0.4382220472440945
20
0.0919554330708661
11
-0.4377811417322834
21
0.0908910236220472
0
LINE
8
BLACK
6
CONTINUOUS
10
-0.4377811417322834
20
0.0908910236220472
11
-0.4377244094488189
21
0.0903149606299213
0
LINE
8
BLACK
6
CONTINUOUS
10
-0.4377244094488189
20
0.0903149606299213
11
-0.4377244094488189
21
0.063740157480315
0
LINE
8
BLACK
6
CONTINUOUS
10
-0.4377244094488189
20
0.063740157480315
11
-0.295007874015748
21
0.063740157480315
0
LINE
8
BLACK
6
CONTINUOUS
10
-0.295007874015748
20
0.063740157480315
11
-0.294431811023622
21
0.0636834251968504
0
LINE
8
BLACK
6
CONTINUOUS
10
-0.294431811023622
20
0.0636834251968504
11
-0.2933674015748031
21
0.0632425196850394
0
LINE
8
BLACK
6
CONTINUOUS
10
-0.2933674015748031
20
0.0632425196850394
11
-0.2925527559055118
21
0.062427874015748
0
LINE
8
BLACK
6
CONTINUOUS
10
-0.2925527559055118
20
0.062427874015748
11
-0.2921118503937008
21
0.0613634645669291
0
LINE
8
BLACK
6
CONTINUOUS
10
-0.2921118503937008
20
0.0613634645669291
11
-0.2920551181102362
21
0.0607874015748031
0
LINE
8
BLACK
6
CONTINUOUS
10
-0.2920551181102362
20
0.0607874015748031
11
-0.2920551181102362
21
-0.061259842519685
0
LINE
8
BLACK
6
CONTINUOUS
10
-0.2920551181102362
20
-0.061259842519685
11
-0.2921118503937008
21
-0.061835905511811
0
LINE
8
BLACK
6
CONTINUOUS
10
-0.2921118503937008
20
-0.061835905511811
11
-0.2925527559055118
21
-0.0629003149606299
0
LINE
8
BLACK
6
CONTINUOUS
10
-0.2925527559055118
20
-0.0629003149606299
11
-0.2933674015748031
21
-0.0637149606299213
0
LINE
8
BLACK
6
CONTINUOUS
10
-0.2933674015748031
20
-0.0637149606299213
11
-0.294431811023622
21
-0.0641558661417323
0
LINE
8
BLACK
6
CONTINUOUS
10
-0.294431811023622
20
-0.0641558661417323
11
-0.295007874015748
21
-0.0642125984251968
0
LINE
8
BLACK
6
CONTINUOUS
10
-0.295007874015748
20
-0.0642125984251968
11
-0.4377244094488189
21
-0.0642125984251968
0
LINE
8
BLACK
6
CONTINUOUS
10
-0.4377244094488189
20
-0.0642125984251968
11
-0.4377244094488189
21
-0.0888188976377953
0
LINE
8
BLACK
6
CONTINUOUS
10
-0.4377244094488189
20
-0.0888188976377953
11
-0.4377811417322834
21
-0.0893949606299213
0
LINE
8
BLACK
6
CONTINUOUS
10
-0.4377811417322834
20
-0.0893949606299213
11
-0.4382220472440945
21
-0.0904593700787402
0
LINE
8
BLACK
6
CONTINUOUS
10
-0.4382220472440945
20
-0.0904593700787402
11
-0.4390366929133858
21
-0.0912740157480315
0
LINE
8
BLACK
6
CONTINUOUS
10
-0.4390366929133858
20
-0.0912740157480315
11
-0.4401011023622047
21
-0.0917149212598425
0
LINE
8
BLACK
6
CONTINUOUS
10
-0.4401011023622047
20
-0.0917149212598425
11
-0.4406771653543307
21
-0.0917716535433071
0
LINE
8
BLACK
6
CONTINUOUS
10
-0.4406771653543307
20
-0.0917716535433071
11
-0.545007874015748
21
-0.0917716535433071
0
LINE
8
BLACK
6
CONTINUOUS
10
-0.545007874015748
20
-0.0917716535433071
11
-0.545583937007874
21
-0.0917149212598425
0
LINE
8
BLACK
6
CONTINUOUS
10
-0.545583937007874
20
-0.0917149212598425
11
-0.5466483464566929
21
-0.0912740157480315
0
LINE
8
BLACK
6
CONTINUOUS
10
-0.5466483464566929
20
-0.0912740157480315
11
-0.5474629921259843
21
-0.0904593700787402
0
LINE
8
BLACK
6
CONTINUOUS
10
-0.5474629921259843
20
-0.0904593700787402
11
-0.5479038976377952
21
-0.0893949606299213
0
LINE
8
BLACK
6
CONTINUOUS
10
-0.5479038976377952
20
-0.0893949606299213
11
-0.5479606299212598
21
-0.0888188976377953
0
LINE
8
BLACK
6
CONTINUOUS
10
-0.5479606299212598
20
-0.0888188976377953
11
-0.5479606299212598
21
0.0903149606299213
0
LINE
8
BLACK
6
CONTINUOUS
10
-0.5479606299212598
20
0.0903149606299213
11
-0.5479038976377952
21
0.0908910236220472
0
LINE
8
BLACK
6
CONTINUOUS
10
-0.5479038976377952
20
0.0908910236220472
11
-0.5474629921259843
21
0.0919554330708661
0
LINE
8
BLACK
6
CONTINUOUS
10
-0.5474629921259843
20
0.0919554330708661
11
-0.5466483464566929
21
0.0927700787401575
0
LINE
8
BLACK
6
CONTINUOUS
10
-0.5466483464566929
20
0.0927700787401575
11
-0.545583937007874
21
0.0932109842519685
0
LINE
8
BLACK
6
CONTINUOUS
10
-0.545583937007874
20
0.0932109842519685
11
-0.545007874015748
21
0.0932677165354331
0
LINE
8
BLACK
6
CONTINUOUS
10
-0.545007874015748
20
0.0932677165354331
11
-0.4406771653543307
21
0.0932677165354331
0
LINE
8
BLACK
6
CONTINUOUS
10
-0.4406771653543307
20
0.0932677165354331
11
-0.4401011023622047
21
0.0932109842519685
0
LINE
8
BLACK
6
CONTINUOUS
10
-0.6137752755905511
20
0.2258444488188976
11
-0.5778893700787402
21
0.2127830708661417
0
LINE
8
BLACK
6
CONTINUOUS
10
-0.5778893700787402
20
0.2127830708661417
11
-0.5765761417322834
21
0.2119861417322835
0
LINE
8
BLACK
6
CONTINUOUS
10
-0.5765761417322834
20
0.2119861417322835
11
-0.5756677559055118
21
0.2107473622047244
0
LINE
8
BLACK
6
CONTINUOUS
10
-0.5756677559055118
20
0.2107473622047244
11
-0.5753026771653543
21
0.2092551968503937
0
LINE
8
BLACK
6
CONTINUOUS
10
-0.5753026771653543
20
0.2092551968503937
11
-0.5755363385826772
21
0.2077369291338583
0
LINE
8
BLACK
6
CONTINUOUS
10
-0.5755363385826772
20
0.2077369291338583
11
-0.5910214960629921
21
0.165191811023622
0
LINE
8
BLACK
6
CONTINUOUS
10
-0.5910214960629921
20
0.165191811023622
11
-0.5918184251968504
21
0.1638785433070866
0
LINE
8
BLACK
6
CONTINUOUS
10
-0.5918184251968504
20
0.1638785433070866
11
-0.5930572440944881
21
0.1629701968503937
0
LINE
8
BLACK
6
CONTINUOUS
10
-0.5930572440944881
20
0.1629701968503937
11
-0.5945493700787401
21
0.1626050787401575
0
LINE
8
BLACK
6
CONTINUOUS
10
-0.5945493700787401
20
0.1626050787401575
11
-0.5960676377952756
21
0.162838779527559
0
LINE
8
BLACK
6
CONTINUOUS
10
-0.5960676377952756
20
0.162838779527559
11
-0.6319535433070866
21
0.175900157480315
0
LINE
8
BLACK
6
CONTINUOUS
10
-0.6319535433070866
20
0.175900157480315
11
-0.6332667716535433
21
0.1766970866141732
0
LINE
8
BLACK
6
CONTINUOUS
10
-0.6332667716535433
20
0.1766970866141732
11
-0.6341751574803149
21
0.1779358661417323
0
LINE
8
BLACK
6
CONTINUOUS
10
-0.6341751574803149
20
0.1779358661417323
11
-0.6345402362204724
21
0.179428031496063
0
LINE
8
BLACK
6
CONTINUOUS
10
-0.6345402362204724
20
0.179428031496063
11
-0.6343065748031496
21
0.1809462992125984
0
LINE
8
BLACK
6
CONTINUOUS
10
-0.6343065748031496
20
0.1809462992125984
11
-0.6188214173228346
21
0.2234914173228346
0
LINE
8
BLACK
6
CONTINUOUS
10
-0.6188214173228346
20
0.2234914173228346
11
-0.6180244881889764
21
0.2248046850393701
0
LINE
8
BLACK
6
CONTINUOUS
10
-0.6180244881889764
20
0.2248046850393701
11
-0.6167856692913386
21
0.225713031496063
0
LINE
8
BLACK
6
CONTINUOUS
10
-0.6167856692913386
20
0.225713031496063
11
-0.6152935433070866
21
0.2260781496062992
0
LINE
8
BLACK
6
CONTINUOUS
10
-0.6152935433070866
20
0.2260781496062992
11
-0.6137752755905511
21
0.2258444488188976
0
LINE
8
BLACK
6
CONTINUOUS
10
-0.6559504724409448
20
0.2411949606299213
11
-0.6245040551181102
21
0.2297494094488189
0
LINE
8
BLACK
6
CONTINUOUS
10
-0.6245040551181102
20
0.2297494094488189
11
-0.6231907874015747
21
0.2289525196850394
0
LINE
8
BLACK
6
CONTINUOUS
10
-0.6231907874015747
20
0.2289525196850394
11
-0.6222824409448818
21
0.2277137007874016
0
LINE
8
BLACK
6
CONTINUOUS
10
-0.6222824409448818
20
0.2277137007874016
11
-0.6219173228346456
21
0.2262215354330709
0
LINE
8
BLACK
6
CONTINUOUS
10
-0.6219173228346456
20
0.2262215354330709
11
-0.6221510236220472
21
0.2247033070866142
0
LINE
8
BLACK
6
CONTINUOUS
10
-0.6221510236220472
20
0.2247033070866142
11
-0.6376361811023622
21
0.1821581496062992
0
LINE
8
BLACK
6
CONTINUOUS
10
-0.6376361811023622
20
0.1821581496062992
11
-0.6384330708661418
21
0.1808448818897638
0
LINE
8
BLACK
6
CONTINUOUS
10
-0.6384330708661418
20
0.1808448818897638
11
-0.6396718897637795
21
0.1799365354330709
0
LINE
8
BLACK
6
CONTINUOUS
10
-0.6396718897637795
20
0.1799365354330709
11
-0.6411640551181103
21
0.1795714173228346
0
LINE
8
BLACK
6
CONTINUOUS
10
-0.6411640551181103
20
0.1795714173228346
11
-0.6426822834645669
21
0.1798051181102362
0
LINE
8
BLACK
6
CONTINUOUS
10
-0.6426822834645669
20
0.1798051181102362
11
-0.6741287007874016
21
0.1912506692913386
0
LINE
8
BLACK
6
CONTINUOUS
10
-0.6741287007874016
20
0.1912506692913386
11
-0.675441968503937
21
0.1920475590551181
0
LINE
8
BLACK
6
CONTINUOUS
10
-0.675441968503937
20
0.1920475590551181
11
-0.6763503149606299
21
0.1932863779527559
0
LINE
8
BLACK
6
CONTINUOUS
10
-0.6763503149606299
20
0.1932863779527559
11
-0.6767154330708661
21
0.1947785433070866
0
LINE
8
BLACK
6
CONTINUOUS
10
-0.6767154330708661
20
0.1947785433070866
11
-0.6764817322834645
21
0.1962967716535433
0
LINE
8
BLACK
6
CONTINUOUS
10
-0.6764817322834645
20
0.1962967716535433
11
-0.6609965748031496
21
0.2388419291338583
0
LINE
8
BLACK
6
CONTINUOUS
10
-0.6609965748031496
20
0.2388419291338583
11
-0.6601996850393701
21
0.2401551968503937
0
LINE
8
BLACK
6
CONTINUOUS
10
-0.6601996850393701
20
0.2401551968503937
11
-0.6589608661417322
21
0.2410635433070866
0
LINE
8
BLACK
6
CONTINUOUS
10
-0.6589608661417322
20
0.2410635433070866
11
-0.6574687007874016
21
0.2414286614173228
0
LINE
8
BLACK
6
CONTINUOUS
10
-0.6574687007874016
20
0.2414286614173228
11
-0.6559504724409448
21
0.2411949606299213
0
LINE
8
BLACK
6
CONTINUOUS
10
-0.5969435826771653
20
0.2720891732283465
11
-0.5610576771653543
21
0.2590277559055118
0
LINE
8
BLACK
6
CONTINUOUS
10
-0.5610576771653543
20
0.2590277559055118
11
-0.5597444488188976
21
0.2582308661417323
0
LINE
8
BLACK
6
CONTINUOUS
10
-0.5597444488188976
20
0.2582308661417323
11
-0.558836062992126
21
0.2569920472440945
0
LINE
8
BLACK
6
CONTINUOUS
10
-0.558836062992126
20
0.2569920472440945
11
-0.5584709842519685
21
0.2554999212598425
0
LINE
8
BLACK
6
CONTINUOUS
10
-0.5584709842519685
20
0.2554999212598425
11
-0.5587046456692913
21
0.2539816535433071
0
LINE
8
BLACK
6
CONTINUOUS
10
-0.5587046456692913
20
0.2539816535433071
11
-0.5714967322834645
21
0.2188356692913386
0
LINE
8
BLACK
6
CONTINUOUS
10
-0.5714967322834645
20
0.2188356692913386
11
-0.5722936614173229
21
0.2175224409448819
0
LINE
8
BLACK
6
CONTINUOUS
10
-0.5722936614173229
20
0.2175224409448819
11
-0.5735324803149606
21
0.2166140551181102
0
LINE
8
BLACK
6
CONTINUOUS
10
-0.5735324803149606
20
0.2166140551181102
11
-0.5750246062992126
21
0.216248937007874
0
LINE
8
BLACK
6
CONTINUOUS
10
-0.5750246062992126
20
0.216248937007874
11
-0.576542874015748
21
0.2164826377952756
0
LINE
8
BLACK
6
CONTINUOUS
10
-0.576542874015748
20
0.2164826377952756
11
-0.612428779527559
21
0.2295440551181102
0
LINE
8
BLACK
6
CONTINUOUS
10
-0.612428779527559
20
0.2295440551181102
11
-0.6137420078740158
21
0.2303409448818897
0
LINE
8
BLACK
6
CONTINUOUS
10
-0.6137420078740158
20
0.2303409448818897
11
-0.6146503937007873
21
0.2315797637795275
0
LINE
8
BLACK
6
CONTINUOUS
10
-0.6146503937007873
20
0.2315797637795275
11
-0.6150154724409449
21
0.2330718897637795
0
LINE
8
BLACK
6
CONTINUOUS
10
-0.6150154724409449
20
0.2330718897637795
11
-0.6147818110236221
21
0.2345901574803149
0
LINE
8
BLACK
6
CONTINUOUS
10
-0.6147818110236221
20
0.2345901574803149
11
-0.6019897244094488
21
0.2697361417322834
0
LINE
8
BLACK
6
CONTINUOUS
10
-0.6019897244094488
20
0.2697361417322834
11
-0.6011927952755906
21
0.2710493700787401
0
LINE
8
BLACK
6
CONTINUOUS
10
-0.6011927952755906
20
0.2710493700787401
11
-0.5999539763779528
21
0.2719577559055118
0
LINE
8
BLACK
6
CONTINUOUS
10
-0.5999539763779528
20
0.2719577559055118
11
-0.5984618503937008
21
0.272322874015748
0
LINE
8
BLACK
6
CONTINUOUS
10
-0.5984618503937008
20
0.272322874015748
11
-0.5969435826771653
21
0.2720891732283465
0
LINE
8
BLACK
6
CONTINUOUS
10
-0.639118779527559
20
0.2874396850393701
11
-0.6076723622047244
21
0.2759941338582677
0
LINE
8
BLACK
6
CONTINUOUS
10
-0.6076723622047244
20
0.2759941338582677
11
-0.6063590944881889
21
0.2751972047244094
0
LINE
8
BLACK
6
CONTINUOUS
10
-0.6063590944881889
20
0.2751972047244094
11
-0.605450748031496
21
0.2739583858267716
0
LINE
8
BLACK
6
CONTINUOUS
10
-0.605450748031496
20
0.2739583858267716
11
-0.6050856299212598
21
0.2724662598425197
0
LINE
8
BLACK
6
CONTINUOUS
10
-0.6050856299212598
20
0.2724662598425197
11
-0.6053193307086614
21
0.2709479921259842
0
LINE
8
BLACK
6
CONTINUOUS
10
-0.6053193307086614
20
0.2709479921259842
11
-0.6181114173228346
21
0.2358020078740157
0
LINE
8
BLACK
6
CONTINUOUS
10
-0.6181114173228346
20
0.2358020078740157
11
-0.6189083070866142
21
0.2344887795275591
0
LINE
8
BLACK
6
CONTINUOUS
10
-0.6189083070866142
20
0.2344887795275591
11
-0.6201471259842519
21
0.2335803937007874
0
LINE
8
BLACK
6
CONTINUOUS
10
-0.6201471259842519
20
0.2335803937007874
11
-0.6216392913385826
21
0.2332153149606299
0
LINE
8
BLACK
6
CONTINUOUS
10
-0.6216392913385826
20
0.2332153149606299
11
-0.6231575196850394
21
0.2334489763779528
0
LINE
8
BLACK
6
CONTINUOUS
10
-0.6231575196850394
20
0.2334489763779528
11
-0.654603937007874
21
0.2448945275590551
0
LINE
8
BLACK
6
CONTINUOUS
10
-0.654603937007874
20
0.2448945275590551
11
-0.6559172047244094
21
0.2456914566929134
0
LINE
8
BLACK
6
CONTINUOUS
10
-0.6559172047244094
20
0.2456914566929134
11
-0.6568255511811023
21
0.2469302755905512
0
LINE
8
BLACK
6
CONTINUOUS
10
-0.6568255511811023
20
0.2469302755905512
11
-0.6571906692913385
21
0.2484224015748031
0
LINE
8
BLACK
6
CONTINUOUS
10
-0.6571906692913385
20
0.2484224015748031
11
-0.656956968503937
21
0.2499406692913386
0
LINE
8
BLACK
6
CONTINUOUS
10
-0.656956968503937
20
0.2499406692913386
11
-0.6441648818897637
21
0.2850866535433071
0
LINE
8
BLACK
6
CONTINUOUS
10
-0.6441648818897637
20
0.2850866535433071
11
-0.6433679921259843
21
0.2863998818897638
0
LINE
8
BLACK
6
CONTINUOUS
10
-0.6433679921259843
20
0.2863998818897638
11
-0.6421291732283464
21
0.2873082677165354
0
LINE
8
BLACK
6
CONTINUOUS
10
-0.6421291732283464
20
0.2873082677165354
11
-0.6406370078740158
21
0.2876733464566929
0
LINE
8
BLACK
6
CONTINUOUS
10
-0.6406370078740158
20
0.2876733464566929
11
-0.639118779527559
21
0.2874396850393701
0
LINE
8
BLACK
6
CONTINUOUS
10
0.2345901574803149
20
0.6147818110236221
11
0.2697361417322834
21
0.6019897244094488
0
LINE
8
BLACK
6
CONTINUOUS
10
0.2697361417322834
20
0.6019897244094488
11
0.2710493700787401
21
0.6011927952755906
0
LINE
8
BLACK
6
CONTINUOUS
10
0.2710493700787401
20
0.6011927952755906
11
0.2719577559055118
21
0.5999539763779528
0
LINE
8
BLACK
6
CONTINUOUS
10
0.2719577559055118
20
0.5999539763779528
11
0.272322874015748
21
0.5984618503937008
0
LINE
8
BLACK
6
CONTINUOUS
10
0.272322874015748
20
0.5984618503937008
11
0.2720891732283465
21
0.5969435826771653
0
LINE
8
BLACK
6
CONTINUOUS
10
0.2720891732283465
20
0.5969435826771653
11
0.2590277559055118
21
0.5610576771653543
0
LINE
8
BLACK
6
CONTINUOUS
10
0.2590277559055118
20
0.5610576771653543
11
0.2582308661417323
21
0.5597444488188976
0
LINE
8
BLACK
6
CONTINUOUS
10
0.2582308661417323
20
0.5597444488188976
11
0.2569920472440945
21
0.558836062992126
0
LINE
8
BLACK
6
CONTINUOUS
10
0.2569920472440945
20
0.558836062992126
11
0.2554999212598425
21
0.5584709842519685
0
LINE
8
BLACK
6
CONTINUOUS
10
0.2554999212598425
20
0.5584709842519685
11
0.2539816535433071
21
0.5587046456692913
0
LINE
8
BLACK
6
CONTINUOUS
10
0.2539816535433071
20
0.5587046456692913
11
0.2188356692913386
21
0.5714967322834645
0
LINE
8
BLACK
6
CONTINUOUS
10
0.2188356692913386
20
0.5714967322834645
11
0.2175224409448819
21
0.5722936614173229
0
LINE
8
BLACK
6
CONTINUOUS
10
0.2175224409448819
20
0.5722936614173229
11
0.2166140551181102
21
0.5735324803149606
0
LINE
8
BLACK
6
CONTINUOUS
10
0.2166140551181102
20
0.5735324803149606
11
0.216248937007874
21
0.5750246062992126
0
LINE
8
BLACK
6
CONTINUOUS
10
0.216248937007874
20
0.5750246062992126
11
0.2164826377952756
21
0.576542874015748
0
LINE
8
BLACK
6
CONTINUOUS
10
0.2164826377952756
20
0.576542874015748
11
0.2295440551181102
21
0.612428779527559
0
LINE
8
BLACK
6
CONTINUOUS
10
0.2295440551181102
20
0.612428779527559
11
0.2303409448818897
21
0.6137420078740158
0
LINE
8
BLACK
6
CONTINUOUS
10
0.2303409448818897
20
0.6137420078740158
11
0.2315797637795275
21
0.6146503937007873
0
LINE
8
BLACK
6
CONTINUOUS
10
0.2315797637795275
20
0.6146503937007873
11
0.2330718897637795
21
0.6150154724409449
0
LINE
8
BLACK
6
CONTINUOUS
10
0.2330718897637795
20
0.6150154724409449
11
0.2345901574803149
21
0.6147818110236221
0
LINE
8
BLACK
6
CONTINUOUS
10
0.1809462992125984
20
0.6343065748031496
11
0.2234914173228346
21
0.6188214173228346
0
LINE
8
BLACK
6
CONTINUOUS
10
0.2234914173228346
20
0.6188214173228346
11
0.2248046850393701
21
0.6180244881889764
0
LINE
8
BLACK
6
CONTINUOUS
10
0.2248046850393701
20
0.6180244881889764
11
0.225713031496063
21
0.6167856692913386
0
LINE
8
BLACK
6
CONTINUOUS
10
0.225713031496063
20
0.6167856692913386
11
0.2260781496062992
21
0.6152935433070866
0
LINE
8
BLACK
6
CONTINUOUS
10
0.2260781496062992
20
0.6152935433070866
11
0.2258444488188976
21
0.6137752755905511
0
LINE
8
BLACK
6
CONTINUOUS
10
0.2258444488188976
20
0.6137752755905511
11
0.2127830708661417
21
0.5778893700787402
0
LINE
8
BLACK
6
CONTINUOUS
10
0.2127830708661417
20
0.5778893700787402
11
0.2119861417322835
21
0.5765761417322834
0
LINE
8
BLACK
6
CONTINUOUS
10
0.2119861417322835
20
0.5765761417322834
11
0.2107473622047244
21
0.5756677559055118
0
LINE
8
BLACK
6
CONTINUOUS
10
0.2107473622047244
20
0.5756677559055118
11
0.2092551968503937
21
0.5753026771653543
0
LINE
8
BLACK
6
CONTINUOUS
10
0.2092551968503937
20
0.5753026771653543
11
0.2077369291338583
21
0.5755363385826772
0
LINE
8
BLACK
6
CONTINUOUS
10
0.2077369291338583
20
0.5755363385826772
11
0.165191811023622
21
0.5910214960629921
0
LINE
8
BLACK
6
CONTINUOUS
10
0.165191811023622
20
0.5910214960629921
11
0.1638785433070866
21
0.5918184251968504
0
LINE
8
BLACK
6
CONTINUOUS
10
0.1638785433070866
20
0.5918184251968504
11
0.1629701968503937
21
0.5930572440944881
0
LINE
8
BLACK
6
CONTINUOUS
10
0.1629701968503937
20
0.5930572440944881
11
0.1626050787401575
21
0.5945493700787401
0
LINE
8
BLACK
6
CONTINUOUS
10
0.1626050787401575
20
0.5945493700787401
11
0.162838779527559
21
0.5960676377952756
0
LINE
8
BLACK
6
CONTINUOUS
10
0.162838779527559
20
0.5960676377952756
11
0.175900157480315
21
0.6319535433070866
0
LINE
8
BLACK
6
CONTINUOUS
10
0.175900157480315
20
0.6319535433070866
11
0.1766970866141732
21
0.6332667716535433
0
LINE
8
BLACK
6
CONTINUOUS
10
0.1766970866141732
20
0.6332667716535433
11
0.1779358661417323
21
0.6341751574803149
0
LINE
8
BLACK
6
CONTINUOUS
10
0.1779358661417323
20
0.6341751574803149
11
0.179428031496063
21
0.6345402362204724
0
LINE
8
BLACK
6
CONTINUOUS
10
0.179428031496063
20
0.6345402362204724
11
0.1809462992125984
21
0.6343065748031496
0
LINE
8
BLACK
6
CONTINUOUS
10
0.2499406692913386
20
0.656956968503937
11
0.2850866535433071
21
0.6441648818897637
0
LINE
8
BLACK
6
CONTINUOUS
10
0.2850866535433071
20
0.6441648818897637
11
0.2863998818897638
21
0.6433679921259843
0
LINE
8
BLACK
6
CONTINUOUS
10
0.2863998818897638
20
0.6433679921259843
11
0.2873082677165354
21
0.6421291732283464
0
LINE
8
BLACK
6
CONTINUOUS
10
0.2873082677165354
20
0.6421291732283464
11
0.2876733464566929
21
0.6406370078740158
0
LINE
8
BLACK
6
CONTINUOUS
10
0.2876733464566929
20
0.6406370078740158
11
0.2874396850393701
21
0.639118779527559
0
LINE
8
BLACK
6
CONTINUOUS
10
0.2874396850393701
20
0.639118779527559
11
0.2759941338582677
21
0.6076723622047244
0
LINE
8
BLACK
6
CONTINUOUS
10
0.2759941338582677
20
0.6076723622047244
11
0.2751972047244094
21
0.6063590944881889
0
LINE
8
BLACK
6
CONTINUOUS
10
0.2751972047244094
20
0.6063590944881889
11
0.2739583858267716
21
0.605450748031496
0
LINE
8
BLACK
6
CONTINUOUS
10
0.2739583858267716
20
0.605450748031496
11
0.2724662598425197
21
0.6050856299212598
0
LINE
8
BLACK
6
CONTINUOUS
10
0.2724662598425197
20
0.6050856299212598
11
0.2709479921259842
21
0.6053193307086614
0
LINE
8
BLACK
6
CONTINUOUS
10
0.2709479921259842
20
0.6053193307086614
11
0.2358020078740157
21
0.6181114173228346
0
LINE
8
BLACK
6
CONTINUOUS
10
0.2358020078740157
20
0.6181114173228346
11
0.2344887795275591
21
0.6189083070866142
0
LINE
8
BLACK
6
CONTINUOUS
10
0.2344887795275591
20
0.6189083070866142
11
0.2335803937007874
21
0.6201471259842519
0
LINE
8
BLACK
6
CONTINUOUS
10
0.2335803937007874
20
0.6201471259842519
11
0.2332153149606299
21
0.6216392913385826
0
LINE
8
BLACK
6
CONTINUOUS
10
0.2332153149606299
20
0.6216392913385826
11
0.2334489763779528
21
0.6231575196850394
0
LINE
8
BLACK
6
CONTINUOUS
10
0.2334489763779528
20
0.6231575196850394
11
0.2448945275590551
21
0.654603937007874
0
LINE
8
BLACK
6
CONTINUOUS
10
0.2448945275590551
20
0.654603937007874
11
0.2456914566929134
21
0.6559172047244094
0
LINE
8
BLACK
6
CONTINUOUS
10
0.2456914566929134
20
0.6559172047244094
11
0.2469302755905512
21
0.6568255511811023
0
LINE
8
BLACK
6
CONTINUOUS
10
0.2469302755905512
20
0.6568255511811023
11
0.2484224015748031
21
0.6571906692913385
0
LINE
8
BLACK
6
CONTINUOUS
10
0.2484224015748031
20
0.6571906692913385
11
0.2499406692913386
21
0.656956968503937
0
LINE
8
BLACK
6
CONTINUOUS
10
0.1962967716535433
20
0.6764817322834645
11
0.2388419291338583
21
0.6609965748031496
0
LINE
8
BLACK
6
CONTINUOUS
10
0.2388419291338583
20
0.6609965748031496
11
0.2401551968503937
21
0.6601996850393701
0
LINE
8
BLACK
6
CONTINUOUS
10
0.2401551968503937
20
0.6601996850393701
11
0.2410635433070866
21
0.6589608661417322
0
LINE
8
BLACK
6
CONTINUOUS
10
0.2410635433070866
20
0.6589608661417322
11
0.2414286614173228
21
0.6574687007874016
0
LINE
8
BLACK
6
CONTINUOUS
10
0.2414286614173228
20
0.6574687007874016
11
0.2411949606299213
21
0.6559504724409448
0
LINE
8
BLACK
6
CONTINUOUS
10
0.2411949606299213
20
0.6559504724409448
11
0.2297494094488189
21
0.6245040551181102
0
LINE
8
BLACK
6
CONTINUOUS
10
0.2297494094488189
20
0.6245040551181102
11
0.2289525196850394
21
0.6231907874015747
0
LINE
8
BLACK
6
CONTINUOUS
10
0.2289525196850394
20
0.6231907874015747
11
0.2277137007874016
21
0.6222824409448818
0
LINE
8
BLACK
6
CONTINUOUS
10
0.2277137007874016
20
0.6222824409448818
11
0.2262215354330709
21
0.6219173228346456
0
LINE
8
BLACK
6
CONTINUOUS
10
0.2262215354330709
20
0.6219173228346456
11
0.2247033070866142
21
0.6221510236220472
0
LINE
8
BLACK
6
CONTINUOUS
10
0.2247033070866142
20
0.6221510236220472
11
0.1821581496062992
21
0.6376361811023622
0
LINE
8
BLACK
6
CONTINUOUS
10
0.1821581496062992
20
0.6376361811023622
11
0.1808448818897638
21
0.6384330708661418
0
LINE
8
BLACK
6
CONTINUOUS
10
0.1808448818897638
20
0.6384330708661418
11
0.1799365354330709
21
0.6396718897637795
0
LINE
8
BLACK
6
CONTINUOUS
10
0.1799365354330709
20
0.6396718897637795
11
0.1795714173228346
21
0.6411640551181103
0
LINE
8
BLACK
6
CONTINUOUS
10
0.1795714173228346
20
0.6411640551181103
11
0.1798051181102362
21
0.6426822834645669
0
LINE
8
BLACK
6
CONTINUOUS
10
0.1798051181102362
20
0.6426822834645669
11
0.1912506692913386
21
0.6741287007874016
0
LINE
8
BLACK
6
CONTINUOUS
10
0.1912506692913386
20
0.6741287007874016
11
0.1920475590551181
21
0.675441968503937
0
LINE
8
BLACK
6
CONTINUOUS
10
0.1920475590551181
20
0.675441968503937
11
0.1932863779527559
21
0.6763503149606299
0
LINE
8
BLACK
6
CONTINUOUS
10
0.1932863779527559
20
0.6763503149606299
11
0.1947785433070866
21
0.6767154330708661
0
LINE
8
BLACK
6
CONTINUOUS
10
0.1947785433070866
20
0.6767154330708661
11
0.1962967716535433
21
0.6764817322834645
0
LINE
8
BLACK
6
CONTINUOUS
10
0.0103137007874016
20
1.5161923228346457
11
0.0844906299212598
21
1.514251338582677
0
LINE
8
BLACK
6
CONTINUOUS
10
0.0844906299212598
20
1.514251338582677
11
0.084542125984252
21
1.5142486614173227
0
LINE
8
BLACK
6
CONTINUOUS
10
0.084542125984252
20
1.5142486614173227
11
0.1585160236220473
21
1.5084258661417322
0
LINE
8
BLACK
6
CONTINUOUS
10
0.1585160236220473
20
1.5084258661417322
11
0.1585672440944882
21
1.5084204724409449
0
LINE
8
BLACK
6
CONTINUOUS
10
0.1585672440944882
20
1.5084204724409449
11
0.2321350393700787
21
1.4987354724409447
0
LINE
8
BLACK
6
CONTINUOUS
10
0.2321350393700787
20
1.4987354724409447
11
0.2321859448818898
21
1.4987274015748031
0
LINE
8
BLACK
6
CONTINUOUS
10
0.2321859448818898
20
1.4987274015748031
11
0.3051457874015748
21
1.4852038582677165
0
LINE
8
BLACK
6
CONTINUOUS
10
0.3051457874015748
20
1.4852038582677165
11
0.3051711417322834
21
1.4851988188976377
0
LINE
8
BLACK
6
CONTINUOUS
10
0.3051711417322834
20
1.4851988188976377
11
0.3252974015748031
21
1.4809192913385827
0
LINE
8
BLACK
6
CONTINUOUS
10
0.3252974015748031
20
1.4809192913385827
11
0.3253224015748031
21
1.4809136220472441
0
LINE
8
BLACK
6
CONTINUOUS
10
0.3253224015748031
20
1.4809136220472441
11
0.397473937007874
21
1.4635947637795275
0
LINE
8
BLACK
6
CONTINUOUS
10
0.397473937007874
20
1.4635947637795275
11
0.3975237795275591
21
1.4635814173228345
0
LINE
8
BLACK
6
CONTINUOUS
10
0.3975237795275591
20
1.4635814173228345
11
0.4686695669291339
21
1.4425065354330708
0
LINE
8
BLACK
6
CONTINUOUS
10
0.4686695669291339
20
1.4425065354330708
11
0.4687185826771653
21
1.4424906299212599
0
LINE
8
BLACK
6
CONTINUOUS
10
0.4687185826771653
20
1.4424906299212599
11
0.5386673622047244
21
1.4177189763779527
0
LINE
8
BLACK
6
CONTINUOUS
10
0.5386673622047244
20
1.4177189763779527
11
0.5387153937007874
21
1.4177005118110235
0
LINE
8
BLACK
6
CONTINUOUS
10
0.5387153937007874
20
1.4177005118110235
11
0.607270590551181
21
1.3893068503937007
0
LINE
8
BLACK
6
CONTINUOUS
10
0.607270590551181
20
1.3893068503937007
11
0.6072943700787401
21
1.3892966535433071
0
LINE
8
BLACK
6
CONTINUOUS
10
0.6072943700787401
20
1.3892966535433071
11
0.6260897244094488
21
1.3809265748031496
0
LINE
8
BLACK
6
CONTINUOUS
10
0.6260897244094488
20
1.3809265748031496
11
0.626113031496063
21
1.3809158267716535
0
LINE
8
BLACK
6
CONTINUOUS
10
0.626113031496063
20
1.3809158267716535
11
0.6930893700787402
21
1.3489709448818898
0
LINE
8
BLACK
6
CONTINUOUS
10
0.6930893700787402
20
1.3489709448818898
11
0.6931353149606299
21
1.3489475196850393
0
LINE
8
BLACK
6
CONTINUOUS
10
0.6931353149606299
20
1.3489475196850393
11
0.7583439370078739
21
1.3135420472440944
0
LINE
8
BLACK
6
CONTINUOUS
10
0.7583439370078739
20
1.3135420472440944
11
0.7583885826771654
21
1.3135162992125984
0
LINE
8
BLACK
6
CONTINUOUS
10
0.7583885826771654
20
1.3135162992125984
11
0.8216562598425197
21
1.2747446062992125
0
LINE
8
BLACK
6
CONTINUOUS
10
0.8216562598425197
20
1.2747446062992125
11
0.8216994488188977
21
1.2747165748031495
0
LINE
8
BLACK
6
CONTINUOUS
10
0.8216994488188977
20
1.2747165748031495
11
0.8828530708661417
21
1.2326890551181102
0
LINE
8
BLACK
6
CONTINUOUS
10
0.8828530708661417
20
1.2326890551181102
11
0.8828741338582677
21
1.2326741338582676
0
LINE
8
BLACK
6
CONTINUOUS
10
0.8828741338582677
20
1.2326741338582676
11
0.8995194488188977
21
1.22057968503937
0
LINE
8
BLACK
6
CONTINUOUS
10
0.8995194488188977
20
1.22057968503937
11
0.8995400787401575
21
1.2205642913385826
0
LINE
8
BLACK
6
CONTINUOUS
10
0.8995400787401575
20
1.2205642913385826
11
0.9584101574803149
21
1.175391062992126
0
LINE
8
BLACK
6
CONTINUOUS
10
0.9584101574803149
20
1.175391062992126
11
0.9584501968503937
21
1.1753586220472441
0
LINE
8
BLACK
6
CONTINUOUS
10
0.9584501968503937
20
1.1753586220472441
11
1.0148716929133859
21
1.12716968503937
0
LINE
8
BLACK
6
CONTINUOUS
10
1.0148716929133859
20
1.12716968503937
11
1.01491
21
1.1271351968503938
0
LINE
8
BLACK
6
CONTINUOUS
10
1.01491
20
1.1271351968503938
11
1.0423824015748031
21
1.1010643700787401
0
LINE
8
BLACK
6
CONTINUOUS
10
1.0423824015748031
20
1.1010643700787401
11
1.0424363385826771
21
1.1010090157480314
0
LINE
8
BLACK
6
CONTINUOUS
10
1.0424363385826771
20
1.1010090157480314
11
1.056204094488189
21
1.085717716535433
0
LINE
8
BLACK
6
CONTINUOUS
10
1.056204094488189
20
1.085717716535433
11
1.0563250393700787
21
1.0855512598425197
0
LINE
8
BLACK
6
CONTINUOUS
10
1.0563250393700787
20
1.0855512598425197
11
1.0666124015748031
21
1.0677323228346456
0
LINE
8
BLACK
6
CONTINUOUS
10
1.0666124015748031
20
1.0677323228346456
11
1.0666960236220473
21
1.0675444881889764
0
LINE
8
BLACK
6
CONTINUOUS
10
1.0666960236220473
20
1.0675444881889764
11
1.0730581889763779
21
1.0479735826771652
0
LINE
8
BLACK
6
CONTINUOUS
10
1.0730581889763779
20
1.0479735826771652
11
1.0731010236220473
21
1.0477720866141733
0
LINE
8
BLACK
6
CONTINUOUS
10
1.0731010236220473
20
1.0477720866141733
11
1.0752504724409448
21
1.0273075196850394
0
LINE
8
BLACK
6
CONTINUOUS
10
1.0752504724409448
20
1.0273075196850394
11
1.0752504724409448
21
1.0271018897637796
0
LINE
8
BLACK
6
CONTINUOUS
10
1.0752504724409448
20
1.0271018897637796
11
1.0731010236220473
21
1.0066412992125984
0
LINE
8
BLACK
6
CONTINUOUS
10
1.0731010236220473
20
1.0066412992125984
11
1.0730581889763779
21
1.006439842519685
0
LINE
8
BLACK
6
CONTINUOUS
10
1.0730581889763779
20
1.006439842519685
11
1.0666960236220473
21
0.986868937007874
0
LINE
8
BLACK
6
CONTINUOUS
10
1.0666960236220473
20
0.986868937007874
11
1.0666124015748031
21
0.9866811023622047
0
LINE
8
BLACK
6
CONTINUOUS
10
1.0666124015748031
20
0.9866811023622047
11
1.0563250393700787
21
0.9688622047244094
0
LINE
8
BLACK
6
CONTINUOUS
10
1.0563250393700787
20
0.9688622047244094
11
1.056204094488189
21
0.9686957480314961
0
LINE
8
BLACK
6
CONTINUOUS
10
1.056204094488189
20
0.9686957480314961
11
1.0424363385826771
21
0.9534044488188976
0
LINE
8
BLACK
6
CONTINUOUS
10
1.0424363385826771
20
0.9534044488188976
11
1.0424184645669292
21
0.9533851181102362
0
LINE
8
BLACK
6
CONTINUOUS
10
1.0424184645669292
20
0.9533851181102362
11
0.8147216141732283
21
0.7137039763779527
0
LINE
8
BLACK
6
CONTINUOUS
10
0.8147216141732283
20
0.7137039763779527
11
0.8145865748031496
21
0.7135856299212598
0
LINE
8
BLACK
6
CONTINUOUS
10
0.8145865748031496
20
0.7135856299212598
11
0.7979409448818897
21
0.7014911811023622
0
LINE
8
BLACK
6
CONTINUOUS
10
0.7979409448818897
20
0.7014911811023622
11
0.7977627559055118
21
0.7013882677165354
0
LINE
8
BLACK
6
CONTINUOUS
10
0.7977627559055118
20
0.7013882677165354
11
0.7789635433070866
21
0.6930181496062991
0
LINE
8
BLACK
6
CONTINUOUS
10
0.7789635433070866
20
0.6930181496062991
11
0.7787679133858267
21
0.6929546062992126
0
LINE
8
BLACK
6
CONTINUOUS
10
0.7787679133858267
20
0.6929546062992126
11
0.7586419291338582
21
0.6886750787401574
0
LINE
8
BLACK
6
CONTINUOUS
10
0.7586419291338582
20
0.6886750787401574
11
0.7584372047244095
21
0.6886535433070866
0
LINE
8
BLACK
6
CONTINUOUS
10
0.7584372047244095
20
0.6886535433070866
11
0.7378583858267717
21
0.6886535433070866
0
LINE
8
BLACK
6
CONTINUOUS
10
0.7378583858267717
20
0.6886535433070866
11
0.7376536614173228
21
0.6886750787401574
0
LINE
8
BLACK
6
CONTINUOUS
10
0.7376536614173228
20
0.6886750787401574
11
0.7175276771653543
21
0.6929546062992126
0
LINE
8
BLACK
6
CONTINUOUS
10
0.7175276771653543
20
0.6929546062992126
11
0.7173320078740157
21
0.6930181889763779
0
LINE
8
BLACK
6
CONTINUOUS
10
0.7173320078740157
20
0.6930181889763779
11
0.6985366929133858
21
0.7013883070866141
0
LINE
8
BLACK
6
CONTINUOUS
10
0.6985366929133858
20
0.7013883070866141
11
0.6983586220472441
21
0.7014911023622047
0
LINE
8
BLACK
6
CONTINUOUS
10
0.6983586220472441
20
0.7014911023622047
11
0.6817089763779527
21
0.7135855511811023
0
LINE
8
BLACK
6
CONTINUOUS
10
0.6817089763779527
20
0.7135855511811023
11
0.6816099212598425
21
0.7136679527559054
0
LINE
8
BLACK
6
CONTINUOUS
10
0.6816099212598425
20
0.7136679527559054
11
0.6605698031496063
21
0.7336342125984252
0
LINE
8
BLACK
6
CONTINUOUS
10
0.6605698031496063
20
0.7336342125984252
11
0.6173486220472441
21
0.77055
0
LINE
8
BLACK
6
CONTINUOUS
10
0.6173486220472441
20
0.77055
11
0.5804212204724409
21
0.7988846456692913
0
LINE
8
BLACK
6
CONTINUOUS
10
0.5804212204724409
20
0.7988846456692913
11
0.5420622047244095
21
0.8252450787401575
0
LINE
8
BLACK
6
CONTINUOUS
10
0.5420622047244095
20
0.8252450787401575
11
0.4936016929133858
21
0.854942874015748
0
LINE
8
BLACK
6
CONTINUOUS
10
0.4936016929133858
20
0.854942874015748
11
0.4436518110236221
21
0.8820634645669291
0
LINE
8
BLACK
6
CONTINUOUS
10
0.4436518110236221
20
0.8820634645669291
11
0.4016426771653543
21
0.9021006299212598
0
LINE
8
BLACK
6
CONTINUOUS
10
0.4016426771653543
20
0.9021006299212598
11
0.3586392519685039
21
0.9199156299212599
0
LINE
8
BLACK
6
CONTINUOUS
10
0.3586392519685039
20
0.9199156299212599
11
0.3050623228346457
21
0.9388866141732283
0
LINE
8
BLACK
6
CONTINUOUS
10
0.3050623228346457
20
0.9388866141732283
11
0.2505662204724409
21
0.9550292913385826
0
LINE
8
BLACK
6
CONTINUOUS
10
0.2505662204724409
20
0.9550292913385826
11
0.2053067322834645
21
0.9658952755905511
0
LINE
8
BLACK
6
CONTINUOUS
10
0.2053067322834645
20
0.9658952755905511
11
0.1595413385826772
21
0.9743779527559054
0
LINE
8
BLACK
6
CONTINUOUS
10
0.1595413385826772
20
0.9743779527559054
11
0.1031909842519685
21
0.9817964566929134
0
LINE
8
BLACK
6
CONTINUOUS
10
0.1031909842519685
20
0.9817964566929134
11
0.0465287795275591
21
0.9862570472440945
0
LINE
8
BLACK
6
CONTINUOUS
10
0.0465287795275591
20
0.9862570472440945
11
-0.0000000393700787
21
0.9874721653543307
0
LINE
8
BLACK
6
CONTINUOUS
10
-0.0000000393700787
20
0.9874721653543307
11
-0.0465288582677165
21
0.9862570472440945
0
LINE
8
BLACK
6
CONTINUOUS
10
-0.0465288582677165
20
0.9862570472440945
11
-0.103191062992126
21
0.9817964566929134
0
LINE
8
BLACK
6
CONTINUOUS
10
-0.103191062992126
20
0.9817964566929134
11
-0.1595414173228346
21
0.9743779527559054
0
LINE
8
BLACK
6
CONTINUOUS
10
-0.1595414173228346
20
0.9743779527559054
11
-0.2053066535433071
21
0.9658952755905511
0
LINE
8
BLACK
6
CONTINUOUS
10
-0.2053066535433071
20
0.9658952755905511
11
-0.2505662992125984
21
0.9550292913385826
0
LINE
8
BLACK
6
CONTINUOUS
10
-0.2505662992125984
20
0.9550292913385826
11
-0.3050624015748031
21
0.9388866141732283
0
LINE
8
BLACK
6
CONTINUOUS
10
-0.3050624015748031
20
0.9388866141732283
11
-0.3586393307086614
21
0.9199156299212599
0
LINE
8
BLACK
6
CONTINUOUS
10
-0.3586393307086614
20
0.9199156299212599
11
-0.4016427559055118
21
0.9021006299212598
0
LINE
8
BLACK
6
CONTINUOUS
10
-0.4016427559055118
20
0.9021006299212598
11
-0.443651968503937
21
0.8820634645669291
0
LINE
8
BLACK
6
CONTINUOUS
10
-0.443651968503937
20
0.8820634645669291
11
-0.4936017716535433
21
0.854942874015748
0
LINE
8
BLACK
6
CONTINUOUS
10
-0.4936017716535433
20
0.854942874015748
11
-0.5420623622047244
21
0.8252450787401575
0
LINE
8
BLACK
6
CONTINUOUS
10
-0.5420623622047244
20
0.8252450787401575
11
-0.5804212992125984
21
0.7988846456692913
0
LINE
8
BLACK
6
CONTINUOUS
10
-0.5804212992125984
20
0.7988846456692913
11
-0.6173487007874016
21
0.77055
0
LINE
8
BLACK
6
CONTINUOUS
10
-0.6173487007874016
20
0.77055
11
-0.6605698818897637
21
0.7336342125984252
0
LINE
8
BLACK
6
CONTINUOUS
10
-0.6605698818897637
20
0.7336342125984252
11
-0.6816099606299213
21
0.7136679527559054
0
LINE
8
BLACK
6
CONTINUOUS
10
-0.6816099606299213
20
0.7136679527559054
11
-0.6817090157480314
21
0.7135855511811023
0
LINE
8
BLACK
6
CONTINUOUS
10
-0.6817090157480314
20
0.7135855511811023
11
-0.6983585826771653
21
0.7014911023622047
0
LINE
8
BLACK
6
CONTINUOUS
10
-0.6983585826771653
20
0.7014911023622047
11
-0.6985366535433071
21
0.7013883070866141
0
LINE
8
BLACK
6
CONTINUOUS
10
-0.6985366535433071
20
0.7013883070866141
11
-0.7173319291338582
21
0.6930181889763779
0
LINE
8
BLACK
6
CONTINUOUS
10
-0.7173319291338582
20
0.6930181889763779
11
-0.7175275984251969
21
0.6929546062992126
0
LINE
8
BLACK
6
CONTINUOUS
10
-0.7175275984251969
20
0.6929546062992126
11
-0.7376535826771653
21
0.6886750787401574
0
LINE
8
BLACK
6
CONTINUOUS
10
-0.7376535826771653
20
0.6886750787401574
11
-0.7378583070866142
21
0.6886535433070866
0
LINE
8
BLACK
6
CONTINUOUS
10
-0.7378583070866142
20
0.6886535433070866
11
-0.7584366929133858
21
0.6886535039370079
0
LINE
8
BLACK
6
CONTINUOUS
10
-0.7584366929133858
20
0.6886535039370079
11
-0.7586414173228346
21
0.6886750393700787
0
LINE
8
BLACK
6
CONTINUOUS
10
-0.7586414173228346
20
0.6886750393700787
11
-0.7787674015748032
21
0.6929545275590551
0
LINE
8
BLACK
6
CONTINUOUS
10
-0.7787674015748032
20
0.6929545275590551
11
-0.7789629921259842
21
0.6930180708661418
0
LINE
8
BLACK
6
CONTINUOUS
10
-0.7789629921259842
20
0.6930180708661418
11
-0.7977622440944881
21
0.7013881102362205
0
LINE
8
BLACK
6
CONTINUOUS
10
-0.7977622440944881
20
0.7013881102362205
11
-0.7979404724409449
21
0.7014910236220472
0
LINE
8
BLACK
6
CONTINUOUS
10
-0.7979404724409449
20
0.7014910236220472
11
-0.8145861417322835
21
0.7135855905511811
0
LINE
8
BLACK
6
CONTINUOUS
10
-0.8145861417322835
20
0.7135855905511811
11
-0.8147211811023621
21
0.713703937007874
0
LINE
8
BLACK
6
CONTINUOUS
10
-0.8147211811023621
20
0.713703937007874
11
-1.0424180708661417
21
0.9533850393700787
0
LINE
8
BLACK
6
CONTINUOUS
10
-1.0424180708661417
20
0.9533850393700787
11
-1.0424359448818898
21
0.9534043700787401
0
LINE
8
BLACK
6
CONTINUOUS
10
-1.0424359448818898
20
0.9534043700787401
11
-1.0562036220472442
21
0.9686956692913385
0
LINE
8
BLACK
6
CONTINUOUS
10
-1.0562036220472442
20
0.9686956692913385
11
-1.0563245669291339
21
0.9688621259842519
0
LINE
8
BLACK
6
CONTINUOUS
10
-1.0563245669291339
20
0.9688621259842519
11
-1.066611968503937
21
0.9866810236220472
0
LINE
8
BLACK
6
CONTINUOUS
10
-1.066611968503937
20
0.9866810236220472
11
-1.066695590551181
21
0.9868688582677165
0
LINE
8
BLACK
6
CONTINUOUS
10
-1.066695590551181
20
0.9868688582677165
11
-1.0730577952755904
21
1.0064397637795275
0
LINE
8
BLACK
6
CONTINUOUS
10
-1.0730577952755904
20
1.0064397637795275
11
-1.0731006299212598
21
1.0066412204724409
0
LINE
8
BLACK
6
CONTINUOUS
10
-1.0731006299212598
20
1.0066412204724409
11
-1.0752502362204723
21
1.0271018110236221
0
LINE
8
BLACK
6
CONTINUOUS
10
-1.0752502362204723
20
1.0271018110236221
11
-1.0752502362204723
21
1.0273074803149607
0
LINE
8
BLACK
6
CONTINUOUS
10
-1.0752502362204723
20
1.0273074803149607
11
-1.0731006299212598
21
1.0477720472440946
0
LINE
8
BLACK
6
CONTINUOUS
10
-1.0731006299212598
20
1.0477720472440946
11
-1.0730577952755904
21
1.0479735039370079
0
LINE
8
BLACK
6
CONTINUOUS
10
-1.0730577952755904
20
1.0479735039370079
11
-1.066695590551181
21
1.0675444094488189
0
LINE
8
BLACK
6
CONTINUOUS
10
-1.066695590551181
20
1.0675444094488189
11
-1.066611968503937
21
1.0677322440944881
0
LINE
8
BLACK
6
CONTINUOUS
10
-1.066611968503937
20
1.0677322440944881
11
-1.0563245669291339
21
1.0855511811023622
0
LINE
8
BLACK
6
CONTINUOUS
10
-1.0563245669291339
20
1.0855511811023622
11
-1.0562036220472442
21
1.0857176377952755
0
LINE
8
BLACK
6
CONTINUOUS
10
-1.0562036220472442
20
1.0857176377952755
11
-1.0424359448818898
21
1.1010089370078739
0
LINE
8
BLACK
6
CONTINUOUS
10
-1.0424359448818898
20
1.1010089370078739
11
-1.0423820078740158
21
1.1010642913385826
0
LINE
8
BLACK
6
CONTINUOUS
10
-1.0423820078740158
20
1.1010642913385826
11
-1.0149095669291339
21
1.1271351968503938
0
LINE
8
BLACK
6
CONTINUOUS
10
-1.0149095669291339
20
1.1271351968503938
11
-1.0148712598425196
21
1.12716968503937
0
LINE
8
BLACK
6
CONTINUOUS
10
-1.0148712598425196
20
1.12716968503937
11
-0.9584499606299213
21
1.1753586220472441
0
LINE
8
BLACK
6
CONTINUOUS
10
-0.9584499606299213
20
1.1753586220472441
11
-0.9584099212598425
21
1.175391062992126
0
LINE
8
BLACK
6
CONTINUOUS
10
-0.9584099212598425
20
1.175391062992126
11
-0.8995398031496062
21
1.2205642913385826
0
LINE
8
BLACK
6
CONTINUOUS
10
-0.8995398031496062
20
1.2205642913385826
11
-0.8995191732283464
21
1.22057968503937
0
LINE
8
BLACK
6
CONTINUOUS
10
-0.8995191732283464
20
1.22057968503937
11
-0.8828735826771653
21
1.2326741338582676
0
LINE
8
BLACK
6
CONTINUOUS
10
-0.8828735826771653
20
1.2326741338582676
11
-0.8828525196850393
21
1.2326890157480315
0
LINE
8
BLACK
6
CONTINUOUS
10
-0.8828525196850393
20
1.2326890157480315
11
-0.821698937007874
21
1.2747165354330707
0
LINE
8
BLACK
6
CONTINUOUS
10
-0.821698937007874
20
1.2747165354330707
11
-0.821655748031496
21
1.2747446062992125
0
LINE
8
BLACK
6
CONTINUOUS
10
-0.821655748031496
20
1.2747446062992125
11
-0.7583880314960629
21
1.3135162992125984
0
LINE
8
BLACK
6
CONTINUOUS
10
-0.7583880314960629
20
1.3135162992125984
11
-0.7583433858267716
21
1.3135420472440944
0
LINE
8
BLACK
6
CONTINUOUS
10
-0.7583433858267716
20
1.3135420472440944
11
-0.6931347244094488
21
1.3489475196850393
0
LINE
8
BLACK
6
CONTINUOUS
10
-0.6931347244094488
20
1.3489475196850393
11
-0.693088779527559
21
1.3489709448818898
0
LINE
8
BLACK
6
CONTINUOUS
10
-0.693088779527559
20
1.3489709448818898
11
-0.6261124803149606
21
1.3809158267716535
0
LINE
8
BLACK
6
CONTINUOUS
10
-0.6261124803149606
20
1.3809158267716535
11
-0.6260891732283465
21
1.3809265748031496
0
LINE
8
BLACK
6
CONTINUOUS
10
-0.6260891732283465
20
1.3809265748031496
11
-0.6072938976377953
21
1.3892966535433071
0
LINE
8
BLACK
6
CONTINUOUS
10
-0.6072938976377953
20
1.3892966535433071
11
-0.6072701181102362
21
1.3893068503937007
0
LINE
8
BLACK
6
CONTINUOUS
10
-0.6072701181102362
20
1.3893068503937007
11
-0.5387149606299213
21
1.4177005118110235
0
LINE
8
BLACK
6
CONTINUOUS
10
-0.5387149606299213
20
1.4177005118110235
11
-0.5386669291338583
21
1.4177189763779527
0
LINE
8
BLACK
6
CONTINUOUS
10
-0.5386669291338583
20
1.4177189763779527
11
-0.4687180708661417
21
1.4424906299212599
0
LINE
8
BLACK
6
CONTINUOUS
10
-0.4687180708661417
20
1.4424906299212599
11
-0.4686690551181102
21
1.4425065354330708
0
LINE
8
BLACK
6
CONTINUOUS
10
-0.4686690551181102
20
1.4425065354330708
11
-0.3975233858267717
21
1.4635814173228345
0
LINE
8
BLACK
6
CONTINUOUS
10
-0.3975233858267717
20
1.4635814173228345
11
-0.3974735433070866
21
1.4635947637795275
0
LINE
8
BLACK
6
CONTINUOUS
10
-0.3974735433070866
20
1.4635947637795275
11
-0.3253220078740157
21
1.4809136220472441
0
LINE
8
BLACK
6
CONTINUOUS
10
-0.3253220078740157
20
1.4809136220472441
11
-0.3252970078740157
21
1.4809192913385827
0
LINE
8
BLACK
6
CONTINUOUS
10
-0.3252970078740157
20
1.4809192913385827
11
-0.3051705511811024
21
1.4851988188976377
0
LINE
8
BLACK
6
CONTINUOUS
10
-0.3051705511811024
20
1.4851988188976377
11
-0.3051451968503937
21
1.4852038582677165
0
LINE
8
BLACK
6
CONTINUOUS
10
-0.3051451968503937
20
1.4852038582677165
11
-0.2321853543307087
21
1.4987274015748031
0
LINE
8
BLACK
6
CONTINUOUS
10
-0.2321853543307087
20
1.4987274015748031
11
-0.2321344488188976
21
1.4987354724409447
0
LINE
8
BLACK
6
CONTINUOUS
10
-0.2321344488188976
20
1.4987354724409447
11
-0.1585668110236221
21
1.5084204724409449
0
LINE
8
BLACK
6
CONTINUOUS
10
-0.1585668110236221
20
1.5084204724409449
11
-0.1585155905511811
21
1.5084258661417322
0
LINE
8
BLACK
6
CONTINUOUS
10
-0.1585155905511811
20
1.5084258661417322
11
-0.0845415748031496
21
1.5142486614173227
0
LINE
8
BLACK
6
CONTINUOUS
10
-0.0845415748031496
20
1.5142486614173227
11
-0.0844900787401575
21
1.514251338582677
0
LINE
8
BLACK
6
CONTINUOUS
10
-0.0844900787401575
20
1.514251338582677
11
-0.0103131496062992
21
1.5161923228346457
0
LINE
8
BLACK
6
CONTINUOUS
10
-0.0103131496062992
20
1.5161923228346457
11
-0.0102874015748031
21
1.5161926771653542
0
LINE
8
BLACK
6
CONTINUOUS
10
-0.0102874015748031
20
1.5161926771653542
11
0.0102879527559055
21
1.5161926771653542
0
LINE
8
BLACK
6
CONTINUOUS
10
0.0102879527559055
20
1.5161926771653542
11
0.0103137007874016
21
1.5161923228346457
  0
ENDSEC
  0
EOF
