  0
SECTION
  2
HEADER
  9
$ANGBASE
  50
0.0
  9
$ANGDIR
  70
1
  9
$MEASUREMENT
  70
0
  0
ENDSEC
  0
SECTION
  2
TABLES
  0
TABLE
  2
LTYPE
  70
4
  0
LTYPE
  5
40F
  2
CONTINUOUS
  70
0
  3
Solid line
  72
65
  73
0
  40
0.0
  0
LTYPE
  5
410
  2
DASHDOT
 70
0
  3
Dash Dot ____ _ ____ _
 72
65
 73
4
 40
2.0
 49
1.25
 49
-0.25
 49
0.25
 49
-0.25
  0
LTYPE
  5
411
  2
DASHED
 70
0
  3
Dashed __ __ __ __ __
 72
65
 73
2
 40
0.75
 49
0.5
 49
-0.25
  0
LTYPE
  5
43B
  2
DOTTED
 70
0
  3
Dotted .  .  .  .
 72
65
 73
2
 40
0.2
 49
0.0
 49
-0.2
  0
ENDTAB
  0
TABLE
  2
STYLE
  70
4
  0
STYLE
  2
KICAD
  70
0
  40
0
  41
1
  42
1
  50
0
  71
0
  3
isocp.shx
  0
STYLE
  2
KICADB
  70
0
  40
0
  41
1
  42
1
  50
0
  71
0
  3
isocp.shx
  0
STYLE
  2
KICADI
  70
0
  40
0
  41
1
  42
1
  50
15
  71
0
  3
isocp.shx
  0
STYLE
  2
KICADBI
  70
0
  40
0
  41
1
  42
1
  50
15
  71
0
  3
isocp.shx
  0
ENDTAB
  0
TABLE
  2
LAYER
  70
1
  0
LAYER
  2
BLACK
  70
0
  62
7
  6
CONTINUOUS
  0
ENDTAB
  0
ENDSEC
  0
SECTION
  2
ENTITIES
0
LINE
8
BLACK
6
CONTINUOUS
10
-0.7164367716535432
20
-0.347150748031496
11
-0.7161835433070866
21
-0.3474394881889764
0
LINE
8
BLACK
6
CONTINUOUS
10
-0.7161835433070866
20
-0.3474394881889764
11
-0.659096968503937
21
-0.4463164173228346
0
LINE
8
BLACK
6
CONTINUOUS
10
-0.659096968503937
20
-0.4463164173228346
11
-0.6589735039370078
21
-0.4466800787401575
0
LINE
8
BLACK
6
CONTINUOUS
10
-0.6589735039370078
20
-0.4466800787401575
11
-0.6591684645669291
21
-0.447407716535433
0
LINE
8
BLACK
6
CONTINUOUS
10
-0.6591684645669291
20
-0.447407716535433
11
-0.6594572047244094
21
-0.4476609448818897
0
LINE
8
BLACK
6
CONTINUOUS
10
-0.6594572047244094
20
-0.4476609448818897
11
-0.7617436614173229
21
-0.506716062992126
0
LINE
8
BLACK
6
CONTINUOUS
10
-0.7617436614173229
20
-0.506716062992126
11
-0.7621073228346457
21
-0.5068394881889764
0
LINE
8
BLACK
6
CONTINUOUS
10
-0.7621073228346457
20
-0.5068394881889764
11
-0.7628349606299213
21
-0.5066445275590551
0
LINE
8
BLACK
6
CONTINUOUS
10
-0.7628349606299213
20
-0.5066445275590551
11
-0.763088188976378
21
-0.5063557874015748
0
LINE
8
BLACK
6
CONTINUOUS
10
-0.763088188976378
20
-0.5063557874015748
11
-0.8201748031496063
21
-0.4074788582677165
0
LINE
8
BLACK
6
CONTINUOUS
10
-0.8201748031496063
20
-0.4074788582677165
11
-0.8202982283464567
21
-0.4071151968503937
0
LINE
8
BLACK
6
CONTINUOUS
10
-0.8202982283464567
20
-0.4071151968503937
11
-0.8201032677165354
21
-0.4063875590551181
0
LINE
8
BLACK
6
CONTINUOUS
10
-0.8201032677165354
20
-0.4063875590551181
11
-0.8198145275590552
21
-0.4061343307086614
0
LINE
8
BLACK
6
CONTINUOUS
10
-0.8198145275590552
20
-0.4061343307086614
11
-0.7175280708661417
21
-0.3470792125984252
0
LINE
8
BLACK
6
CONTINUOUS
10
-0.7175280708661417
20
-0.3470792125984252
11
-0.7171644094488189
21
-0.3469557874015748
0
LINE
8
BLACK
6
CONTINUOUS
10
-0.7171644094488189
20
-0.3469557874015748
11
-0.7164367716535432
21
-0.347150748031496
0
LINE
8
BLACK
6
CONTINUOUS
10
-0.8179778740157481
20
-0.407346968503937
11
-0.7618755511811024
21
-0.5045191338582677
0
LINE
8
BLACK
6
CONTINUOUS
10
-0.7618755511811024
20
-0.5045191338582677
11
-0.6612938976377952
21
-0.4464482677165354
0
LINE
8
BLACK
6
CONTINUOUS
10
-0.6612938976377952
20
-0.4464482677165354
11
-0.7173962204724409
21
-0.3492761417322834
0
LINE
8
BLACK
6
CONTINUOUS
10
-0.7173962204724409
20
-0.3492761417322834
11
-0.8179778740157481
21
-0.407346968503937
0
LINE
8
BLACK
6
CONTINUOUS
10
-0.653605
20
0.2999644488188976
11
-0.6532254330708661
21
0.2999060236220472
0
LINE
8
BLACK
6
CONTINUOUS
10
-0.6532254330708661
20
0.2999060236220472
11
-0.5422381496062992
21
0.2595099212598425
0
LINE
8
BLACK
6
CONTINUOUS
10
-0.5422381496062992
20
0.2595099212598425
11
-0.5419099212598425
21
0.2593107480314961
0
LINE
8
BLACK
6
CONTINUOUS
10
-0.5419099212598425
20
0.2593107480314961
11
-0.5419098031496062
21
0.2593107086614173
0
LINE
8
BLACK
6
CONTINUOUS
10
-0.5419098031496062
20
0.2593107086614173
11
-0.5415914566929134
21
0.2586279527559055
0
LINE
8
BLACK
6
CONTINUOUS
10
-0.5415914566929134
20
0.2586279527559055
11
-0.5416498818897638
21
0.2582483858267716
0
LINE
8
BLACK
6
CONTINUOUS
10
-0.5416498818897638
20
0.2582483858267716
11
-0.5806994094488189
21
0.1509606692913386
0
LINE
8
BLACK
6
CONTINUOUS
10
-0.5806994094488189
20
0.1509606692913386
11
-0.5808986220472441
21
0.1506323228346457
0
LINE
8
BLACK
6
CONTINUOUS
10
-0.5808986220472441
20
0.1506323228346457
11
-0.5815813779527559
21
0.1503139763779527
0
LINE
8
BLACK
6
CONTINUOUS
10
-0.5815813779527559
20
0.1503139763779527
11
-0.5819609448818898
21
0.1503724015748031
0
LINE
8
BLACK
6
CONTINUOUS
10
-0.5819609448818898
20
0.1503724015748031
11
-0.6929482677165354
21
0.1907685039370079
0
LINE
8
BLACK
6
CONTINUOUS
10
-0.6929482677165354
20
0.1907685039370079
11
-0.6932765748031496
21
0.1909677165354331
0
LINE
8
BLACK
6
CONTINUOUS
10
-0.6932765748031496
20
0.1909677165354331
11
-0.6935949212598425
21
0.1916504724409449
0
LINE
8
BLACK
6
CONTINUOUS
10
-0.6935949212598425
20
0.1916504724409449
11
-0.6935364960629921
21
0.19203
0
LINE
8
BLACK
6
CONTINUOUS
10
-0.6935364960629921
20
0.19203
11
-0.654486968503937
21
0.2993177559055118
0
LINE
8
BLACK
6
CONTINUOUS
10
-0.654486968503937
20
0.2993177559055118
11
-0.6542877559055118
21
0.299646062992126
0
LINE
8
BLACK
6
CONTINUOUS
10
-0.6542877559055118
20
0.299646062992126
11
-0.6542877559055118
21
0.2996461023622047
0
LINE
8
BLACK
6
CONTINUOUS
10
-0.6542877559055118
20
0.2996461023622047
11
-0.653605
21
0.2999644488188976
0
LINE
8
BLACK
6
CONTINUOUS
10
-0.6913501181102362
20
0.1922816535433071
11
-0.5822125590551182
21
0.1525588188976378
0
LINE
8
BLACK
6
CONTINUOUS
10
-0.5822125590551182
20
0.1525588188976378
11
-0.5438362992125985
21
0.257996811023622
0
LINE
8
BLACK
6
CONTINUOUS
10
-0.5438362992125985
20
0.257996811023622
11
-0.6529738582677165
21
0.2977196456692913
0
LINE
8
BLACK
6
CONTINUOUS
10
-0.6529738582677165
20
0.2977196456692913
11
-0.6913501181102362
21
0.1922816535433071
0
LINE
8
BLACK
6
CONTINUOUS
10
0.19203
20
0.6935364960629921
11
0.2993177559055118
21
0.654486968503937
0
LINE
8
BLACK
6
CONTINUOUS
10
0.2993177559055118
20
0.654486968503937
11
0.2996459842519685
21
0.6542877952755906
0
LINE
8
BLACK
6
CONTINUOUS
10
0.2996459842519685
20
0.6542877952755906
11
0.2996461023622047
21
0.6542877559055118
0
LINE
8
BLACK
6
CONTINUOUS
10
0.2996461023622047
20
0.6542877559055118
11
0.2999644488188976
21
0.653605
0
LINE
8
BLACK
6
CONTINUOUS
10
0.2999644488188976
20
0.653605
11
0.2999060236220472
21
0.6532254330708661
0
LINE
8
BLACK
6
CONTINUOUS
10
0.2999060236220472
20
0.6532254330708661
11
0.2595099212598425
21
0.5422381102362205
0
LINE
8
BLACK
6
CONTINUOUS
10
0.2595099212598425
20
0.5422381102362205
11
0.2593107086614173
21
0.5419098031496062
0
LINE
8
BLACK
6
CONTINUOUS
10
0.2593107086614173
20
0.5419098031496062
11
0.2586279527559055
21
0.5415914566929134
0
LINE
8
BLACK
6
CONTINUOUS
10
0.2586279527559055
20
0.5415914566929134
11
0.2582483858267716
21
0.5416498818897638
0
LINE
8
BLACK
6
CONTINUOUS
10
0.2582483858267716
20
0.5416498818897638
11
0.1509606692913386
21
0.5806994094488189
0
LINE
8
BLACK
6
CONTINUOUS
10
0.1509606692913386
20
0.5806994094488189
11
0.1506323228346457
21
0.5808986220472441
0
LINE
8
BLACK
6
CONTINUOUS
10
0.1506323228346457
20
0.5808986220472441
11
0.1503139763779527
21
0.5815813779527559
0
LINE
8
BLACK
6
CONTINUOUS
10
0.1503139763779527
20
0.5815813779527559
11
0.1503724015748031
21
0.5819609448818898
0
LINE
8
BLACK
6
CONTINUOUS
10
0.1503724015748031
20
0.5819609448818898
11
0.1907685039370079
21
0.6929482283464566
0
LINE
8
BLACK
6
CONTINUOUS
10
0.1907685039370079
20
0.6929482283464566
11
0.1909677165354331
21
0.6932765354330709
0
LINE
8
BLACK
6
CONTINUOUS
10
0.1909677165354331
20
0.6932765354330709
11
0.1909677165354331
21
0.6932765748031496
0
LINE
8
BLACK
6
CONTINUOUS
10
0.1909677165354331
20
0.6932765748031496
11
0.191525157480315
21
0.6935364960629921
0
LINE
8
BLACK
6
CONTINUOUS
10
0.191525157480315
20
0.6935364960629921
11
0.1916504330708661
21
0.6935949212598425
0
LINE
8
BLACK
6
CONTINUOUS
10
0.1916504330708661
20
0.6935949212598425
11
0.1916504724409449
21
0.6935949212598425
0
LINE
8
BLACK
6
CONTINUOUS
10
0.1916504724409449
20
0.6935949212598425
11
0.19203
21
0.6935364960629921
0
LINE
8
BLACK
6
CONTINUOUS
10
0.1525587795275591
20
0.5822125590551182
11
0.2579967716535433
21
0.5438362992125985
0
LINE
8
BLACK
6
CONTINUOUS
10
0.2579967716535433
20
0.5438362992125985
11
0.2977196062992126
21
0.6529738582677165
0
LINE
8
BLACK
6
CONTINUOUS
10
0.2977196062992126
20
0.6529738582677165
11
0.1922816141732283
21
0.6913501181102362
0
LINE
8
BLACK
6
CONTINUOUS
10
0.1922816141732283
20
0.6913501181102362
11
0.1525587795275591
21
0.5822125590551182
0
CIRCLE
8
BLACK
10
1.3700787401574803
20
-0.1732283464566929
40
0.0068897637795276
  0
ENDSEC
  0
EOF
