  0
SECTION
  2
HEADER
  9
$ANGBASE
  50
0.0
  9
$ANGDIR
  70
1
  9
$MEASUREMENT
  70
0
  0
ENDSEC
  0
SECTION
  2
TABLES
  0
TABLE
  2
LTYPE
  70
4
  0
LTYPE
  5
40F
  2
CONTINUOUS
  70
0
  3
Solid line
  72
65
  73
0
  40
0.0
  0
LTYPE
  5
410
  2
DASHDOT
 70
0
  3
Dash Dot ____ _ ____ _
 72
65
 73
4
 40
2.0
 49
1.25
 49
-0.25
 49
0.25
 49
-0.25
  0
LTYPE
  5
411
  2
DASHED
 70
0
  3
Dashed __ __ __ __ __
 72
65
 73
2
 40
0.75
 49
0.5
 49
-0.25
  0
LTYPE
  5
43B
  2
DOTTED
 70
0
  3
Dotted .  .  .  .
 72
65
 73
2
 40
0.2
 49
0.0
 49
-0.2
  0
ENDTAB
  0
TABLE
  2
STYLE
  70
4
  0
STYLE
  2
KICAD
  70
0
  40
0
  41
1
  42
1
  50
0
  71
0
  3
isocp.shx
  0
STYLE
  2
KICADB
  70
0
  40
0
  41
1
  42
1
  50
0
  71
0
  3
isocp.shx
  0
STYLE
  2
KICADI
  70
0
  40
0
  41
1
  42
1
  50
15
  71
0
  3
isocp.shx
  0
STYLE
  2
KICADBI
  70
0
  40
0
  41
1
  42
1
  50
15
  71
0
  3
isocp.shx
  0
ENDTAB
  0
TABLE
  2
LAYER
  70
1
  0
LAYER
  2
BLACK
  70
0
  62
7
  6
CONTINUOUS
  0
ENDTAB
  0
ENDSEC
  0
SECTION
  2
ENTITIES
0
LINE
8
BLACK
6
CONTINUOUS
10
1.8206634645669291
20
1.5776991732283465
11
1.8217278740157481
21
1.5772582677165354
0
LINE
8
BLACK
6
CONTINUOUS
10
1.8217278740157481
20
1.5772582677165354
11
1.8225425196850393
21
1.576443622047244
0
LINE
8
BLACK
6
CONTINUOUS
10
1.8225425196850393
20
1.576443622047244
11
1.8229834251968504
21
1.5753792125984252
0
LINE
8
BLACK
6
CONTINUOUS
10
1.8229834251968504
20
1.5753792125984252
11
1.8229834251968504
21
1.5742270866141732
0
LINE
8
BLACK
6
CONTINUOUS
10
1.8229834251968504
20
1.5742270866141732
11
1.8225425196850393
21
1.5731626771653542
0
LINE
8
BLACK
6
CONTINUOUS
10
1.8225425196850393
20
1.5731626771653542
11
1.8217278740157481
21
1.5723480314960629
0
LINE
8
BLACK
6
CONTINUOUS
10
1.8217278740157481
20
1.5723480314960629
11
1.8206634645669291
21
1.5719071259842519
0
LINE
8
BLACK
6
CONTINUOUS
10
1.8206634645669291
20
1.5719071259842519
11
1.8200874015748032
21
1.5718503937007873
0
LINE
8
BLACK
6
CONTINUOUS
10
1.8200874015748032
20
1.5718503937007873
11
1.8018659842519684
21
1.5718503937007873
0
LINE
8
BLACK
6
CONTINUOUS
10
1.8018659842519684
20
1.5718503937007873
11
1.8227065748031495
21
1.5318160236220473
0
LINE
8
BLACK
6
CONTINUOUS
10
1.8227065748031495
20
1.5318160236220473
11
1.8229222440944881
21
1.5312788582677166
0
LINE
8
BLACK
6
CONTINUOUS
10
1.8229222440944881
20
1.5312788582677166
11
1.8230226377952756
21
1.5301311417322834
0
LINE
8
BLACK
6
CONTINUOUS
10
1.8230226377952756
20
1.5301311417322834
11
1.8226761811023622
21
1.5290323622047244
0
LINE
8
BLACK
6
CONTINUOUS
10
1.8226761811023622
20
1.5290323622047244
11
1.8219356299212599
21
1.5281498031496064
0
LINE
8
BLACK
6
CONTINUOUS
10
1.8219356299212599
20
1.5281498031496064
11
1.8209137007874014
21
1.5276177952755905
0
LINE
8
BLACK
6
CONTINUOUS
10
1.8209137007874014
20
1.5276177952755905
11
1.8197659842519684
21
1.5275174015748032
0
LINE
8
BLACK
6
CONTINUOUS
10
1.8197659842519684
20
1.5275174015748032
11
1.8186672047244095
21
1.5278638582677164
0
LINE
8
BLACK
6
CONTINUOUS
10
1.8186672047244095
20
1.5278638582677164
11
1.8177846456692912
21
1.5286044094488189
0
LINE
8
BLACK
6
CONTINUOUS
10
1.8177846456692912
20
1.5286044094488189
11
1.8174683070866142
21
1.5290891732283465
0
LINE
8
BLACK
6
CONTINUOUS
10
1.8174683070866142
20
1.5290891732283465
11
1.7999527559055117
21
1.5627362598425196
0
LINE
8
BLACK
6
CONTINUOUS
10
1.7999527559055117
20
1.5627362598425196
11
1.7999527559055117
21
-1.5627362204724409
0
LINE
8
BLACK
6
CONTINUOUS
10
1.7999527559055117
20
-1.5627362204724409
11
1.8174683070866142
21
-1.5290891732283465
0
LINE
8
BLACK
6
CONTINUOUS
10
1.8174683070866142
20
-1.5290891732283465
11
1.8177846456692912
21
-1.5286044094488189
0
LINE
8
BLACK
6
CONTINUOUS
10
1.8177846456692912
20
-1.5286044094488189
11
1.8186672047244095
21
-1.5278638582677164
0
LINE
8
BLACK
6
CONTINUOUS
10
1.8186672047244095
20
-1.5278638582677164
11
1.8197659842519684
21
-1.5275174015748032
0
LINE
8
BLACK
6
CONTINUOUS
10
1.8197659842519684
20
-1.5275174015748032
11
1.8209137007874014
21
-1.5276177952755905
0
LINE
8
BLACK
6
CONTINUOUS
10
1.8209137007874014
20
-1.5276177952755905
11
1.8219356299212599
21
-1.5281498031496064
0
LINE
8
BLACK
6
CONTINUOUS
10
1.8219356299212599
20
-1.5281498031496064
11
1.8226761811023622
21
-1.5290323622047244
0
LINE
8
BLACK
6
CONTINUOUS
10
1.8226761811023622
20
-1.5290323622047244
11
1.8230226377952756
21
-1.5301311417322834
0
LINE
8
BLACK
6
CONTINUOUS
10
1.8230226377952756
20
-1.5301311417322834
11
1.8229222440944881
21
-1.5312788582677166
0
LINE
8
BLACK
6
CONTINUOUS
10
1.8229222440944881
20
-1.5312788582677166
11
1.8227065748031495
21
-1.5318160236220473
0
LINE
8
BLACK
6
CONTINUOUS
10
1.8227065748031495
20
-1.5318160236220473
11
1.8018659842519684
21
-1.5718503937007873
0
LINE
8
BLACK
6
CONTINUOUS
10
1.8018659842519684
20
-1.5718503937007873
11
1.8200874015748032
21
-1.5718503937007873
0
LINE
8
BLACK
6
CONTINUOUS
10
1.8200874015748032
20
-1.5718503937007873
11
1.8206634645669291
21
-1.5719071259842519
0
LINE
8
BLACK
6
CONTINUOUS
10
1.8206634645669291
20
-1.5719071259842519
11
1.8217278740157481
21
-1.5723480314960629
0
LINE
8
BLACK
6
CONTINUOUS
10
1.8217278740157481
20
-1.5723480314960629
11
1.8225425196850393
21
-1.5731626771653542
0
LINE
8
BLACK
6
CONTINUOUS
10
1.8225425196850393
20
-1.5731626771653542
11
1.8229834251968504
21
-1.5742270866141732
0
LINE
8
BLACK
6
CONTINUOUS
10
1.8229834251968504
20
-1.5742270866141732
11
1.8229834251968504
21
-1.5753792125984252
0
LINE
8
BLACK
6
CONTINUOUS
10
1.8229834251968504
20
-1.5753792125984252
11
1.8225425196850393
21
-1.576443622047244
0
LINE
8
BLACK
6
CONTINUOUS
10
1.8225425196850393
20
-1.576443622047244
11
1.8217278740157481
21
-1.5772582677165354
0
LINE
8
BLACK
6
CONTINUOUS
10
1.8217278740157481
20
-1.5772582677165354
11
1.8206634645669291
21
-1.5776991732283465
0
LINE
8
BLACK
6
CONTINUOUS
10
1.8206634645669291
20
-1.5776991732283465
11
1.8200874015748032
21
-1.5777559055118109
0
LINE
8
BLACK
6
CONTINUOUS
10
1.8200874015748032
20
-1.5777559055118109
11
0.0196850393700787
21
-1.5777559055118109
0
LINE
8
BLACK
6
CONTINUOUS
10
0.0196850393700787
20
-1.5777559055118109
11
0.0191089763779528
21
-1.5776991732283465
0
LINE
8
BLACK
6
CONTINUOUS
10
0.0191089763779528
20
-1.5776991732283465
11
0.0180445669291339
21
-1.5772582677165354
0
LINE
8
BLACK
6
CONTINUOUS
10
0.0180445669291339
20
-1.5772582677165354
11
0.0172299212598425
21
-1.576443622047244
0
LINE
8
BLACK
6
CONTINUOUS
10
0.0172299212598425
20
-1.576443622047244
11
0.0167890157480315
21
-1.5753792125984252
0
LINE
8
BLACK
6
CONTINUOUS
10
0.0167890157480315
20
-1.5753792125984252
11
0.0167890157480315
21
-1.5742270866141732
0
LINE
8
BLACK
6
CONTINUOUS
10
0.0167890157480315
20
-1.5742270866141732
11
0.0172299212598425
21
-1.5731626771653542
0
LINE
8
BLACK
6
CONTINUOUS
10
0.0172299212598425
20
-1.5731626771653542
11
0.0180445669291339
21
-1.5723480314960629
0
LINE
8
BLACK
6
CONTINUOUS
10
0.0180445669291339
20
-1.5723480314960629
11
0.0191089763779528
21
-1.5719071259842519
0
LINE
8
BLACK
6
CONTINUOUS
10
0.0191089763779528
20
-1.5719071259842519
11
0.0196850393700787
21
-1.5718503937007873
0
LINE
8
BLACK
6
CONTINUOUS
10
0.0196850393700787
20
-1.5718503937007873
11
1.7921340157480314
21
-1.5718503937007873
0
LINE
8
BLACK
6
CONTINUOUS
10
1.7921340157480314
20
-1.5718503937007873
11
1.7712934251968504
21
-1.5318160236220473
0
LINE
8
BLACK
6
CONTINUOUS
10
1.7712934251968504
20
-1.5318160236220473
11
1.7710777559055118
21
-1.5312788582677166
0
LINE
8
BLACK
6
CONTINUOUS
10
1.7710777559055118
20
-1.5312788582677166
11
1.7709773622047245
21
-1.5301311417322834
0
LINE
8
BLACK
6
CONTINUOUS
10
1.7709773622047245
20
-1.5301311417322834
11
1.7713237795275589
21
-1.5290323622047244
0
LINE
8
BLACK
6
CONTINUOUS
10
1.7713237795275589
20
-1.5290323622047244
11
1.7720643307086614
21
-1.5281498031496064
0
LINE
8
BLACK
6
CONTINUOUS
10
1.7720643307086614
20
-1.5281498031496064
11
1.7730862992125984
21
-1.5276177952755905
0
LINE
8
BLACK
6
CONTINUOUS
10
1.7730862992125984
20
-1.5276177952755905
11
1.7742340157480314
21
-1.5275174015748032
0
LINE
8
BLACK
6
CONTINUOUS
10
1.7742340157480314
20
-1.5275174015748032
11
1.7753327952755904
21
-1.5278638188976377
0
LINE
8
BLACK
6
CONTINUOUS
10
1.7753327952755904
20
-1.5278638188976377
11
1.7762153543307087
21
-1.5286043700787402
0
LINE
8
BLACK
6
CONTINUOUS
10
1.7762153543307087
20
-1.5286043700787402
11
1.7765316929133859
21
-1.5290891732283465
0
LINE
8
BLACK
6
CONTINUOUS
10
1.7765316929133859
20
-1.5290891732283465
11
1.7940472440944881
21
-1.5627362204724409
0
LINE
8
BLACK
6
CONTINUOUS
10
1.7940472440944881
20
-1.5627362204724409
11
1.7940472440944881
21
1.5627362598425196
0
LINE
8
BLACK
6
CONTINUOUS
10
1.7940472440944881
20
1.5627362598425196
11
1.7765316929133859
21
1.5290891732283465
0
LINE
8
BLACK
6
CONTINUOUS
10
1.7765316929133859
20
1.5290891732283465
11
1.7762153543307087
21
1.5286043700787402
0
LINE
8
BLACK
6
CONTINUOUS
10
1.7762153543307087
20
1.5286043700787402
11
1.7753327952755904
21
1.5278638188976377
0
LINE
8
BLACK
6
CONTINUOUS
10
1.7753327952755904
20
1.5278638188976377
11
1.7742340157480314
21
1.5275174015748032
0
LINE
8
BLACK
6
CONTINUOUS
10
1.7742340157480314
20
1.5275174015748032
11
1.7730862992125984
21
1.5276177952755905
0
LINE
8
BLACK
6
CONTINUOUS
10
1.7730862992125984
20
1.5276177952755905
11
1.7720643307086614
21
1.5281498031496064
0
LINE
8
BLACK
6
CONTINUOUS
10
1.7720643307086614
20
1.5281498031496064
11
1.7713237795275589
21
1.5290323622047244
0
LINE
8
BLACK
6
CONTINUOUS
10
1.7713237795275589
20
1.5290323622047244
11
1.7709773622047245
21
1.5301311417322834
0
LINE
8
BLACK
6
CONTINUOUS
10
1.7709773622047245
20
1.5301311417322834
11
1.7710777559055118
21
1.5312788582677166
0
LINE
8
BLACK
6
CONTINUOUS
10
1.7710777559055118
20
1.5312788582677166
11
1.7712934251968504
21
1.5318160236220473
0
LINE
8
BLACK
6
CONTINUOUS
10
1.7712934251968504
20
1.5318160236220473
11
1.7921340157480314
21
1.5718503937007873
0
LINE
8
BLACK
6
CONTINUOUS
10
1.7921340157480314
20
1.5718503937007873
11
0.0196850393700787
21
1.5718503937007873
0
LINE
8
BLACK
6
CONTINUOUS
10
0.0196850393700787
20
1.5718503937007873
11
0.0191089763779528
21
1.5719071259842519
0
LINE
8
BLACK
6
CONTINUOUS
10
0.0191089763779528
20
1.5719071259842519
11
0.0180445669291339
21
1.5723480314960629
0
LINE
8
BLACK
6
CONTINUOUS
10
0.0180445669291339
20
1.5723480314960629
11
0.0172299212598425
21
1.5731626771653542
0
LINE
8
BLACK
6
CONTINUOUS
10
0.0172299212598425
20
1.5731626771653542
11
0.0167890157480315
21
1.5742270866141732
0
LINE
8
BLACK
6
CONTINUOUS
10
0.0167890157480315
20
1.5742270866141732
11
0.0167890157480315
21
1.5753792125984252
0
LINE
8
BLACK
6
CONTINUOUS
10
0.0167890157480315
20
1.5753792125984252
11
0.0172299212598425
21
1.576443622047244
0
LINE
8
BLACK
6
CONTINUOUS
10
0.0172299212598425
20
1.576443622047244
11
0.0180445669291339
21
1.5772582677165354
0
LINE
8
BLACK
6
CONTINUOUS
10
0.0180445669291339
20
1.5772582677165354
11
0.0191089763779528
21
1.5776991732283465
0
LINE
8
BLACK
6
CONTINUOUS
10
0.0191089763779528
20
1.5776991732283465
11
0.0196850393700787
21
1.5777559055118109
0
LINE
8
BLACK
6
CONTINUOUS
10
0.0196850393700787
20
1.5777559055118109
11
1.8200874015748032
21
1.5777559055118109
0
LINE
8
BLACK
6
CONTINUOUS
10
1.8200874015748032
20
1.5777559055118109
11
1.8206634645669291
21
1.5776991732283465
0
LINE
8
BLACK
6
CONTINUOUS
10
-0.0191089763779528
20
0.319825157480315
11
-0.0180445669291339
21
0.319384251968504
0
LINE
8
BLACK
6
CONTINUOUS
10
-0.0180445669291339
20
0.319384251968504
11
-0.0172299212598425
21
0.3185696062992126
0
LINE
8
BLACK
6
CONTINUOUS
10
-0.0172299212598425
20
0.3185696062992126
11
-0.0167890157480315
21
0.3175051968503937
0
LINE
8
BLACK
6
CONTINUOUS
10
-0.0167890157480315
20
0.3175051968503937
11
-0.0167890157480315
21
0.3163530708661417
0
LINE
8
BLACK
6
CONTINUOUS
10
-0.0167890157480315
20
0.3163530708661417
11
-0.0172299212598425
21
0.3152886614173228
0
LINE
8
BLACK
6
CONTINUOUS
10
-0.0172299212598425
20
0.3152886614173228
11
-0.0180445669291339
21
0.3144740157480315
0
LINE
8
BLACK
6
CONTINUOUS
10
-0.0180445669291339
20
0.3144740157480315
11
-0.0191089763779528
21
0.3140331102362205
0
LINE
8
BLACK
6
CONTINUOUS
10
-0.0191089763779528
20
0.3140331102362205
11
-0.0196850393700787
21
0.3139763779527559
0
LINE
8
BLACK
6
CONTINUOUS
10
-0.0196850393700787
20
0.3139763779527559
11
-1.7381340157480314
21
0.3139763779527559
0
LINE
8
BLACK
6
CONTINUOUS
10
-1.7381340157480314
20
0.3139763779527559
11
-1.7172934251968504
21
0.2739420078740157
0
LINE
8
BLACK
6
CONTINUOUS
10
-1.7172934251968504
20
0.2739420078740157
11
-1.7170777559055117
21
0.2734048425196851
0
LINE
8
BLACK
6
CONTINUOUS
10
-1.7170777559055117
20
0.2734048425196851
11
-1.7169773622047244
21
0.2722571259842519
0
LINE
8
BLACK
6
CONTINUOUS
10
-1.7169773622047244
20
0.2722571259842519
11
-1.7173238188976379
21
0.2711583464566929
0
LINE
8
BLACK
6
CONTINUOUS
10
-1.7173238188976379
20
0.2711583464566929
11
-1.7180643700787401
21
0.2702757874015748
0
LINE
8
BLACK
6
CONTINUOUS
10
-1.7180643700787401
20
0.2702757874015748
11
-1.7190862992125984
21
0.2697437795275591
0
LINE
8
BLACK
6
CONTINUOUS
10
-1.7190862992125984
20
0.2697437795275591
11
-1.7202340157480314
21
0.2696433858267717
0
LINE
8
BLACK
6
CONTINUOUS
10
-1.7202340157480314
20
0.2696433858267717
11
-1.7213327952755906
21
0.2699898425196851
0
LINE
8
BLACK
6
CONTINUOUS
10
-1.7213327952755906
20
0.2699898425196851
11
-1.7222153543307086
21
0.2707303937007874
0
LINE
8
BLACK
6
CONTINUOUS
10
-1.7222153543307086
20
0.2707303937007874
11
-1.7225316929133858
21
0.2712151574803149
0
LINE
8
BLACK
6
CONTINUOUS
10
-1.7225316929133858
20
0.2712151574803149
11
-1.7400472440944881
21
0.3048622440944882
0
LINE
8
BLACK
6
CONTINUOUS
10
-1.7400472440944881
20
0.3048622440944882
11
-1.7400472440944881
21
-0.3048621653543307
0
LINE
8
BLACK
6
CONTINUOUS
10
-1.7400472440944881
20
-0.3048621653543307
11
-1.7225316929133858
21
-0.2712151181102362
0
LINE
8
BLACK
6
CONTINUOUS
10
-1.7225316929133858
20
-0.2712151181102362
11
-1.7222153543307086
21
-0.2707303543307086
0
LINE
8
BLACK
6
CONTINUOUS
10
-1.7222153543307086
20
-0.2707303543307086
11
-1.7213327952755906
21
-0.2699898031496063
0
LINE
8
BLACK
6
CONTINUOUS
10
-1.7213327952755906
20
-0.2699898031496063
11
-1.7202340157480314
21
-0.2696433464566929
0
LINE
8
BLACK
6
CONTINUOUS
10
-1.7202340157480314
20
-0.2696433464566929
11
-1.7190862992125984
21
-0.2697437401574803
0
LINE
8
BLACK
6
CONTINUOUS
10
-1.7190862992125984
20
-0.2697437401574803
11
-1.7180643700787401
21
-0.2702757480314961
0
LINE
8
BLACK
6
CONTINUOUS
10
-1.7180643700787401
20
-0.2702757480314961
11
-1.7173238188976379
21
-0.2711583070866141
0
LINE
8
BLACK
6
CONTINUOUS
10
-1.7173238188976379
20
-0.2711583070866141
11
-1.7169773622047244
21
-0.2722570866141732
0
LINE
8
BLACK
6
CONTINUOUS
10
-1.7169773622047244
20
-0.2722570866141732
11
-1.7170777559055117
21
-0.2734048031496063
0
LINE
8
BLACK
6
CONTINUOUS
10
-1.7170777559055117
20
-0.2734048031496063
11
-1.7172934251968504
21
-0.273941968503937
0
LINE
8
BLACK
6
CONTINUOUS
10
-1.7172934251968504
20
-0.273941968503937
11
-1.7381340157480314
21
-0.3139763385826772
0
LINE
8
BLACK
6
CONTINUOUS
10
-1.7381340157480314
20
-0.3139763385826772
11
-0.0196850393700787
21
-0.3139763385826772
0
LINE
8
BLACK
6
CONTINUOUS
10
-0.0196850393700787
20
-0.3139763385826772
11
-0.0191089763779528
21
-0.3140330708661417
0
LINE
8
BLACK
6
CONTINUOUS
10
-0.0191089763779528
20
-0.3140330708661417
11
-0.0180445669291339
21
-0.3144739763779528
0
LINE
8
BLACK
6
CONTINUOUS
10
-0.0180445669291339
20
-0.3144739763779528
11
-0.0172299212598425
21
-0.3152886220472441
0
LINE
8
BLACK
6
CONTINUOUS
10
-0.0172299212598425
20
-0.3152886220472441
11
-0.0167890157480315
21
-0.316353031496063
0
LINE
8
BLACK
6
CONTINUOUS
10
-0.0167890157480315
20
-0.316353031496063
11
-0.0167890157480315
21
-0.3175051574803149
0
LINE
8
BLACK
6
CONTINUOUS
10
-0.0167890157480315
20
-0.3175051574803149
11
-0.0172299212598425
21
-0.3185695669291339
0
LINE
8
BLACK
6
CONTINUOUS
10
-0.0172299212598425
20
-0.3185695669291339
11
-0.0180445669291339
21
-0.3193842125984252
0
LINE
8
BLACK
6
CONTINUOUS
10
-0.0180445669291339
20
-0.3193842125984252
11
-0.0191089763779528
21
-0.3198251181102362
0
LINE
8
BLACK
6
CONTINUOUS
10
-0.0191089763779528
20
-0.3198251181102362
11
-0.0196850393700787
21
-0.3198818503937008
0
LINE
8
BLACK
6
CONTINUOUS
10
-0.0196850393700787
20
-0.3198818503937008
11
-1.7660874015748032
21
-0.3198818503937008
0
LINE
8
BLACK
6
CONTINUOUS
10
-1.7660874015748032
20
-0.3198818503937008
11
-1.766663464566929
21
-0.3198251181102362
0
LINE
8
BLACK
6
CONTINUOUS
10
-1.766663464566929
20
-0.3198251181102362
11
-1.767727874015748
21
-0.3193842125984252
0
LINE
8
BLACK
6
CONTINUOUS
10
-1.767727874015748
20
-0.3193842125984252
11
-1.7685425196850393
21
-0.3185695669291339
0
LINE
8
BLACK
6
CONTINUOUS
10
-1.7685425196850393
20
-0.3185695669291339
11
-1.7689834251968504
21
-0.3175051574803149
0
LINE
8
BLACK
6
CONTINUOUS
10
-1.7689834251968504
20
-0.3175051574803149
11
-1.7689834251968504
21
-0.316353031496063
0
LINE
8
BLACK
6
CONTINUOUS
10
-1.7689834251968504
20
-0.316353031496063
11
-1.7685425196850393
21
-0.3152886220472441
0
LINE
8
BLACK
6
CONTINUOUS
10
-1.7685425196850393
20
-0.3152886220472441
11
-1.767727874015748
21
-0.3144739763779528
0
LINE
8
BLACK
6
CONTINUOUS
10
-1.767727874015748
20
-0.3144739763779528
11
-1.766663464566929
21
-0.3140330708661417
0
LINE
8
BLACK
6
CONTINUOUS
10
-1.766663464566929
20
-0.3140330708661417
11
-1.7660874015748032
21
-0.3139763385826772
0
LINE
8
BLACK
6
CONTINUOUS
10
-1.7660874015748032
20
-0.3139763385826772
11
-1.7478659842519684
21
-0.3139763385826772
0
LINE
8
BLACK
6
CONTINUOUS
10
-1.7478659842519684
20
-0.3139763385826772
11
-1.7687065748031496
21
-0.273941968503937
0
LINE
8
BLACK
6
CONTINUOUS
10
-1.7687065748031496
20
-0.273941968503937
11
-1.7689222440944881
21
-0.2734048031496063
0
LINE
8
BLACK
6
CONTINUOUS
10
-1.7689222440944881
20
-0.2734048031496063
11
-1.7690226377952756
21
-0.2722570866141732
0
LINE
8
BLACK
6
CONTINUOUS
10
-1.7690226377952756
20
-0.2722570866141732
11
-1.7686762204724409
21
-0.2711583070866141
0
LINE
8
BLACK
6
CONTINUOUS
10
-1.7686762204724409
20
-0.2711583070866141
11
-1.7679356692913386
21
-0.2702757480314961
0
LINE
8
BLACK
6
CONTINUOUS
10
-1.7679356692913386
20
-0.2702757480314961
11
-1.7669137007874016
21
-0.2697437401574803
0
LINE
8
BLACK
6
CONTINUOUS
10
-1.7669137007874016
20
-0.2697437401574803
11
-1.7657659842519684
21
-0.2696433464566929
0
LINE
8
BLACK
6
CONTINUOUS
10
-1.7657659842519684
20
-0.2696433464566929
11
-1.7646672047244094
21
-0.2699897637795275
0
LINE
8
BLACK
6
CONTINUOUS
10
-1.7646672047244094
20
-0.2699897637795275
11
-1.7637846456692914
21
-0.2707303149606299
0
LINE
8
BLACK
6
CONTINUOUS
10
-1.7637846456692914
20
-0.2707303149606299
11
-1.7634683070866142
21
-0.2712151181102362
0
LINE
8
BLACK
6
CONTINUOUS
10
-1.7634683070866142
20
-0.2712151181102362
11
-1.7459527559055117
21
-0.3048621653543307
0
LINE
8
BLACK
6
CONTINUOUS
10
-1.7459527559055117
20
-0.3048621653543307
11
-1.7459527559055117
21
0.3048622440944882
0
LINE
8
BLACK
6
CONTINUOUS
10
-1.7459527559055117
20
0.3048622440944882
11
-1.7634683070866142
21
0.2712151574803149
0
LINE
8
BLACK
6
CONTINUOUS
10
-1.7634683070866142
20
0.2712151574803149
11
-1.7637846456692914
21
0.2707303543307086
0
LINE
8
BLACK
6
CONTINUOUS
10
-1.7637846456692914
20
0.2707303543307086
11
-1.7646672047244094
21
0.2699898031496063
0
LINE
8
BLACK
6
CONTINUOUS
10
-1.7646672047244094
20
0.2699898031496063
11
-1.7657659842519684
21
0.2696433858267717
0
LINE
8
BLACK
6
CONTINUOUS
10
-1.7657659842519684
20
0.2696433858267717
11
-1.7669137007874016
21
0.2697437795275591
0
LINE
8
BLACK
6
CONTINUOUS
10
-1.7669137007874016
20
0.2697437795275591
11
-1.7679356692913386
21
0.2702757874015748
0
LINE
8
BLACK
6
CONTINUOUS
10
-1.7679356692913386
20
0.2702757874015748
11
-1.7686762204724409
21
0.2711583464566929
0
LINE
8
BLACK
6
CONTINUOUS
10
-1.7686762204724409
20
0.2711583464566929
11
-1.7690226377952756
21
0.2722571259842519
0
LINE
8
BLACK
6
CONTINUOUS
10
-1.7690226377952756
20
0.2722571259842519
11
-1.7689222440944881
21
0.2734048425196851
0
LINE
8
BLACK
6
CONTINUOUS
10
-1.7689222440944881
20
0.2734048425196851
11
-1.7687065748031496
21
0.2739420078740157
0
LINE
8
BLACK
6
CONTINUOUS
10
-1.7687065748031496
20
0.2739420078740157
11
-1.7478659842519684
21
0.3139763779527559
0
LINE
8
BLACK
6
CONTINUOUS
10
-1.7478659842519684
20
0.3139763779527559
11
-1.7660874015748032
21
0.3139763779527559
0
LINE
8
BLACK
6
CONTINUOUS
10
-1.7660874015748032
20
0.3139763779527559
11
-1.766663464566929
21
0.3140331102362205
0
LINE
8
BLACK
6
CONTINUOUS
10
-1.766663464566929
20
0.3140331102362205
11
-1.767727874015748
21
0.3144740157480315
0
LINE
8
BLACK
6
CONTINUOUS
10
-1.767727874015748
20
0.3144740157480315
11
-1.7685425196850393
21
0.3152886614173228
0
LINE
8
BLACK
6
CONTINUOUS
10
-1.7685425196850393
20
0.3152886614173228
11
-1.7689834251968504
21
0.3163530708661417
0
LINE
8
BLACK
6
CONTINUOUS
10
-1.7689834251968504
20
0.3163530708661417
11
-1.7689834251968504
21
0.3175051968503937
0
LINE
8
BLACK
6
CONTINUOUS
10
-1.7689834251968504
20
0.3175051968503937
11
-1.7685425196850393
21
0.3185696062992126
0
LINE
8
BLACK
6
CONTINUOUS
10
-1.7685425196850393
20
0.3185696062992126
11
-1.767727874015748
21
0.319384251968504
0
LINE
8
BLACK
6
CONTINUOUS
10
-1.767727874015748
20
0.319384251968504
11
-1.766663464566929
21
0.319825157480315
0
LINE
8
BLACK
6
CONTINUOUS
10
-1.766663464566929
20
0.319825157480315
11
-1.7660874015748032
21
0.3198818897637795
0
LINE
8
BLACK
6
CONTINUOUS
10
-1.7660874015748032
20
0.3198818897637795
11
-0.0196850393700787
21
0.3198818897637795
0
LINE
8
BLACK
6
CONTINUOUS
10
-0.0196850393700787
20
0.3198818897637795
11
-0.0191089763779528
21
0.319825157480315
0
LINE
8
BLACK
6
CONTINUOUS
10
-1.7687288582677165
20
-0.1006569291338583
11
-1.7679142125984251
21
-0.1014715748031496
0
LINE
8
BLACK
6
CONTINUOUS
10
-1.7679142125984251
20
-0.1014715748031496
11
-1.7674733070866142
21
-0.1025359842519685
0
LINE
8
BLACK
6
CONTINUOUS
10
-1.7674733070866142
20
-0.1025359842519685
11
-1.7674165748031496
21
-0.1031120472440945
0
LINE
8
BLACK
6
CONTINUOUS
10
-1.7674165748031496
20
-0.1031120472440945
11
-1.7674165748031496
21
-0.1256092125984252
0
LINE
8
BLACK
6
CONTINUOUS
10
-1.7674165748031496
20
-0.1256092125984252
11
-1.7674733070866142
21
-0.1261852755905512
0
LINE
8
BLACK
6
CONTINUOUS
10
-1.7674733070866142
20
-0.1261852755905512
11
-1.7679142125984251
21
-0.1272496850393701
0
LINE
8
BLACK
6
CONTINUOUS
10
-1.7679142125984251
20
-0.1272496850393701
11
-1.7687288582677165
21
-0.1280643307086614
0
LINE
8
BLACK
6
CONTINUOUS
10
-1.7687288582677165
20
-0.1280643307086614
11
-1.7697932677165353
21
-0.1285052362204724
0
LINE
8
BLACK
6
CONTINUOUS
10
-1.7697932677165353
20
-0.1285052362204724
11
-1.7709453937007873
21
-0.1285052362204724
0
LINE
8
BLACK
6
CONTINUOUS
10
-1.7709453937007873
20
-0.1285052362204724
11
-1.7720098031496063
21
-0.1280643307086614
0
LINE
8
BLACK
6
CONTINUOUS
10
-1.7720098031496063
20
-0.1280643307086614
11
-1.7728244488188976
21
-0.1272496850393701
0
LINE
8
BLACK
6
CONTINUOUS
10
-1.7728244488188976
20
-0.1272496850393701
11
-1.7732653543307086
21
-0.1261852755905512
0
LINE
8
BLACK
6
CONTINUOUS
10
-1.7732653543307086
20
-0.1261852755905512
11
-1.7733220866141732
21
-0.1256092125984252
0
LINE
8
BLACK
6
CONTINUOUS
10
-1.7733220866141732
20
-0.1256092125984252
11
-1.7733220866141732
21
-0.1173133858267717
0
LINE
8
BLACK
6
CONTINUOUS
10
-1.7733220866141732
20
-0.1173133858267717
11
-1.8007360629921259
21
-0.1173133858267717
0
LINE
8
BLACK
6
CONTINUOUS
10
-1.8007360629921259
20
-0.1173133858267717
11
-1.7982776771653544
21
-0.1197717716535433
0
LINE
8
BLACK
6
CONTINUOUS
10
-1.7982776771653544
20
-0.1197717716535433
11
-1.7980918503937007
21
-0.1199981496062992
0
LINE
8
BLACK
6
CONTINUOUS
10
-1.7980918503937007
20
-0.1199981496062992
11
-1.7980329133858268
21
-0.1200492913385827
0
LINE
8
BLACK
6
CONTINUOUS
10
-1.7980329133858268
20
-0.1200492913385827
11
-1.7979770472440944
21
-0.120138031496063
0
LINE
8
BLACK
6
CONTINUOUS
10
-1.7979770472440944
20
-0.120138031496063
11
-1.7979104330708662
21
-0.1202192125984252
0
LINE
8
BLACK
6
CONTINUOUS
10
-1.7979104330708662
20
-0.1202192125984252
11
-1.797880590551181
21
-0.1202913385826772
0
LINE
8
BLACK
6
CONTINUOUS
10
-1.797880590551181
20
-0.1202913385826772
11
-1.7977245669291337
21
-0.1205391732283465
0
LINE
8
BLACK
6
CONTINUOUS
10
-1.7977245669291337
20
-0.1205391732283465
11
-1.7958498031496062
21
-0.1242887007874016
0
LINE
8
BLACK
6
CONTINUOUS
10
-1.7958498031496062
20
-0.1242887007874016
11
-1.7956429133858267
21
-0.1248292913385827
0
LINE
8
BLACK
6
CONTINUOUS
10
-1.7956429133858267
20
-0.1248292913385827
11
-1.7955612598425197
21
-0.1259785039370079
0
LINE
8
BLACK
6
CONTINUOUS
10
-1.7955612598425197
20
-0.1259785039370079
11
-1.7959255905511811
21
-0.1270714960629921
0
LINE
8
BLACK
6
CONTINUOUS
10
-1.7959255905511811
20
-0.1270714960629921
11
-1.7966804330708661
21
-0.1279418503937008
0
LINE
8
BLACK
6
CONTINUOUS
10
-1.7966804330708661
20
-0.1279418503937008
11
-1.7977109448818898
21
-0.128457125984252
0
LINE
8
BLACK
6
CONTINUOUS
10
-1.7977109448818898
20
-0.128457125984252
11
-1.7988601574803149
21
-0.128538779527559
0
LINE
8
BLACK
6
CONTINUOUS
10
-1.7988601574803149
20
-0.128538779527559
11
-1.7999531102362205
21
-0.1281744488188976
0
LINE
8
BLACK
6
CONTINUOUS
10
-1.7999531102362205
20
-0.1281744488188976
11
-1.8008235039370077
21
-0.1274196062992126
0
LINE
8
BLACK
6
CONTINUOUS
10
-1.8008235039370077
20
-0.1274196062992126
11
-1.8011318503937008
21
-0.1269297244094488
0
LINE
8
BLACK
6
CONTINUOUS
10
-1.8011318503937008
20
-0.1269297244094488
11
-1.8027923228346456
21
-0.1236087795275591
0
LINE
8
BLACK
6
CONTINUOUS
10
-1.8027923228346456
20
-0.1236087795275591
11
-1.8059962992125984
21
-0.1204048031496063
0
LINE
8
BLACK
6
CONTINUOUS
10
-1.8059962992125984
20
-0.1204048031496063
11
-1.8113773228346457
21
-0.1168174803149606
0
LINE
8
BLACK
6
CONTINUOUS
10
-1.8113773228346457
20
-0.1168174803149606
11
-1.8113790157480314
21
-0.1168161023622047
0
LINE
8
BLACK
6
CONTINUOUS
10
-1.8113790157480314
20
-0.1168161023622047
11
-1.8113798818897637
21
-0.1168157480314961
0
LINE
8
BLACK
6
CONTINUOUS
10
-1.8113798818897637
20
-0.1168157480314961
11
-1.8113819291338582
21
-0.1168137007874016
0
LINE
8
BLACK
6
CONTINUOUS
10
-1.8113819291338582
20
-0.1168137007874016
11
-1.811825157480315
21
-0.1164507086614173
0
LINE
8
BLACK
6
CONTINUOUS
10
-1.811825157480315
20
-0.1164507086614173
11
-1.8119878346456693
21
-0.1162077952755906
0
LINE
8
BLACK
6
CONTINUOUS
10
-1.8119878346456693
20
-0.1162077952755906
11
-1.812194527559055
21
-0.1160011023622047
0
LINE
8
BLACK
6
CONTINUOUS
10
-1.812194527559055
20
-0.1160011023622047
11
-1.8123052755905511
21
-0.115733779527559
0
LINE
8
BLACK
6
CONTINUOUS
10
-1.8123052755905511
20
-0.115733779527559
11
-1.8124662204724409
21
-0.1154934251968504
0
LINE
8
BLACK
6
CONTINUOUS
10
-1.8124662204724409
20
-0.1154934251968504
11
-1.8125235826771653
21
-0.1152067716535433
0
LINE
8
BLACK
6
CONTINUOUS
10
-1.8125235826771653
20
-0.1152067716535433
11
-1.8126354330708661
21
-0.1149366929133858
0
LINE
8
BLACK
6
CONTINUOUS
10
-1.8126354330708661
20
-0.1149366929133858
11
-1.8126354330708661
21
-0.1146473622047244
0
LINE
8
BLACK
6
CONTINUOUS
10
-1.8126354330708661
20
-0.1146473622047244
11
-1.8126921653543306
21
-0.1143637401574803
0
LINE
8
BLACK
6
CONTINUOUS
10
-1.8126921653543306
20
-0.1143637401574803
11
-1.8126354330708661
21
-0.1140769291338583
0
LINE
8
BLACK
6
CONTINUOUS
10
-1.8126354330708661
20
-0.1140769291338583
11
-1.8126354330708661
21
-0.1137845669291339
0
LINE
8
BLACK
6
CONTINUOUS
10
-1.8126354330708661
20
-0.1137845669291339
11
-1.8125247244094487
21
-0.1135172834645669
0
LINE
8
BLACK
6
CONTINUOUS
10
-1.8125247244094487
20
-0.1135172834645669
11
-1.8124685826771654
21
-0.1132335039370079
0
LINE
8
BLACK
6
CONTINUOUS
10
-1.8124685826771654
20
-0.1132335039370079
11
-1.8123064173228347
21
-0.1129902362204724
0
LINE
8
BLACK
6
CONTINUOUS
10
-1.8123064173228347
20
-0.1129902362204724
11
-1.812194527559055
21
-0.112720157480315
0
LINE
8
BLACK
6
CONTINUOUS
10
-1.812194527559055
20
-0.112720157480315
11
-1.81199
21
-0.1125155905511811
0
LINE
8
BLACK
6
CONTINUOUS
10
-1.81199
20
-0.1125155905511811
11
-1.8118294881889763
21
-0.1122748818897638
0
LINE
8
BLACK
6
CONTINUOUS
10
-1.8118294881889763
20
-0.1122748818897638
11
-1.8115866141732284
21
-0.1121122047244094
0
LINE
8
BLACK
6
CONTINUOUS
10
-1.8115866141732284
20
-0.1121122047244094
11
-1.8113798818897637
21
-0.1119055118110236
0
LINE
8
BLACK
6
CONTINUOUS
10
-1.8113798818897637
20
-0.1119055118110236
11
-1.8111125984251968
21
-0.1117947637795276
0
LINE
8
BLACK
6
CONTINUOUS
10
-1.8111125984251968
20
-0.1117947637795276
11
-1.8108722047244095
21
-0.1116338188976378
0
LINE
8
BLACK
6
CONTINUOUS
10
-1.8108722047244095
20
-0.1116338188976378
11
-1.810585590551181
21
-0.1115764566929134
0
LINE
8
BLACK
6
CONTINUOUS
10
-1.810585590551181
20
-0.1115764566929134
11
-1.8103154724409449
21
-0.1114646062992126
0
LINE
8
BLACK
6
CONTINUOUS
10
-1.8103154724409449
20
-0.1114646062992126
11
-1.8097455511811023
21
-0.1114084645669291
0
LINE
8
BLACK
6
CONTINUOUS
10
-1.8097455511811023
20
-0.1114084645669291
11
-1.8097425196850394
21
-0.111407874015748
0
LINE
8
BLACK
6
CONTINUOUS
10
-1.8097425196850394
20
-0.111407874015748
11
-1.8097414960629921
21
-0.1114080708661417
0
LINE
8
BLACK
6
CONTINUOUS
10
-1.8097414960629921
20
-0.1114080708661417
11
-1.8097394094488188
21
-0.111407874015748
0
LINE
8
BLACK
6
CONTINUOUS
10
-1.8097394094488188
20
-0.111407874015748
11
-1.7733220866141732
21
-0.111407874015748
0
LINE
8
BLACK
6
CONTINUOUS
10
-1.7733220866141732
20
-0.111407874015748
11
-1.7733220866141732
21
-0.1031120472440945
0
LINE
8
BLACK
6
CONTINUOUS
10
-1.7733220866141732
20
-0.1031120472440945
11
-1.7732653543307086
21
-0.1025359842519685
0
LINE
8
BLACK
6
CONTINUOUS
10
-1.7732653543307086
20
-0.1025359842519685
11
-1.7728244488188976
21
-0.1014715748031496
0
LINE
8
BLACK
6
CONTINUOUS
10
-1.7728244488188976
20
-0.1014715748031496
11
-1.7720098031496063
21
-0.1006569291338583
0
LINE
8
BLACK
6
CONTINUOUS
10
-1.7720098031496063
20
-0.1006569291338583
11
-1.7709453937007873
21
-0.1002160236220472
0
LINE
8
BLACK
6
CONTINUOUS
10
-1.7709453937007873
20
-0.1002160236220472
11
-1.7697932677165353
21
-0.1002160236220472
0
LINE
8
BLACK
6
CONTINUOUS
10
-1.7697932677165353
20
-0.1002160236220472
11
-1.7687288582677165
21
-0.1006569291338583
0
LINE
8
BLACK
6
CONTINUOUS
10
1.7402104724409448
20
-0.0720945669291339
11
1.7403084645669291
21
-0.072135157480315
0
LINE
8
BLACK
6
CONTINUOUS
10
1.7403084645669291
20
-0.072135157480315
11
1.7404142913385827
21
-0.0721426771653543
0
LINE
8
BLACK
6
CONTINUOUS
10
1.7404142913385827
20
-0.0721426771653543
11
1.7409549212598425
21
-0.0723495669291339
0
LINE
8
BLACK
6
CONTINUOUS
10
1.7409549212598425
20
-0.0723495669291339
11
1.7447044488188976
21
-0.0742243307086614
0
LINE
8
BLACK
6
CONTINUOUS
10
1.7447044488188976
20
-0.0742243307086614
11
1.7449524409448818
21
-0.0743803937007874
0
LINE
8
BLACK
6
CONTINUOUS
10
1.7449524409448818
20
-0.0743803937007874
11
1.7450244094488188
21
-0.0744102362204724
0
LINE
8
BLACK
6
CONTINUOUS
10
1.7450244094488188
20
-0.0744102362204724
11
1.7451053543307087
21
-0.0744766929133858
0
LINE
8
BLACK
6
CONTINUOUS
10
1.7451053543307087
20
-0.0744766929133858
11
1.7451943307086615
21
-0.0745326771653543
0
LINE
8
BLACK
6
CONTINUOUS
10
1.7451943307086615
20
-0.0745326771653543
11
1.7452454724409447
21
-0.0745916535433071
0
LINE
8
BLACK
6
CONTINUOUS
10
1.7452454724409447
20
-0.0745916535433071
11
1.7454718503937008
21
-0.0747774409448819
0
LINE
8
BLACK
6
CONTINUOUS
10
1.7454718503937008
20
-0.0747774409448819
11
1.7471334645669292
21
-0.0764390551181102
0
LINE
8
BLACK
6
CONTINUOUS
10
1.7471334645669292
20
-0.0764390551181102
11
1.7487950787401574
21
-0.0747774409448819
0
LINE
8
BLACK
6
CONTINUOUS
10
1.7487950787401574
20
-0.0747774409448819
11
1.7490214173228347
21
-0.0745916535433071
0
LINE
8
BLACK
6
CONTINUOUS
10
1.7490214173228347
20
-0.0745916535433071
11
1.7490725984251969
21
-0.0745326771653543
0
LINE
8
BLACK
6
CONTINUOUS
10
1.7490725984251969
20
-0.0745326771653543
11
1.7491615354330707
21
-0.0744766929133858
0
LINE
8
BLACK
6
CONTINUOUS
10
1.7491615354330707
20
-0.0744766929133858
11
1.7492425196850394
21
-0.0744102362204724
0
LINE
8
BLACK
6
CONTINUOUS
10
1.7492425196850394
20
-0.0744102362204724
11
1.7493144488188976
21
-0.0743803937007874
0
LINE
8
BLACK
6
CONTINUOUS
10
1.7493144488188976
20
-0.0743803937007874
11
1.7495624803149605
21
-0.0742243307086614
0
LINE
8
BLACK
6
CONTINUOUS
10
1.7495624803149605
20
-0.0742243307086614
11
1.7533120078740156
21
-0.0723495669291339
0
LINE
8
BLACK
6
CONTINUOUS
10
1.7533120078740156
20
-0.0723495669291339
11
1.7538525984251969
21
-0.0721426771653543
0
LINE
8
BLACK
6
CONTINUOUS
10
1.7538525984251969
20
-0.0721426771653543
11
1.7539584645669291
21
-0.0721351181102362
0
LINE
8
BLACK
6
CONTINUOUS
10
1.7539584645669291
20
-0.0721351181102362
11
1.7540564566929133
21
-0.0720945669291339
0
LINE
8
BLACK
6
CONTINUOUS
10
1.7540564566929133
20
-0.0720945669291339
11
1.7546325196850394
21
-0.0720378346456693
0
LINE
8
BLACK
6
CONTINUOUS
10
1.7546325196850394
20
-0.0720378346456693
11
1.7621315748031496
21
-0.0720378346456693
0
LINE
8
BLACK
6
CONTINUOUS
10
1.7621315748031496
20
-0.0720378346456693
11
1.7627076377952755
21
-0.0720945669291339
0
LINE
8
BLACK
6
CONTINUOUS
10
1.7627076377952755
20
-0.0720945669291339
11
1.7628056299212598
21
-0.072135157480315
0
LINE
8
BLACK
6
CONTINUOUS
10
1.7628056299212598
20
-0.072135157480315
11
1.7629114566929134
21
-0.0721426771653543
0
LINE
8
BLACK
6
CONTINUOUS
10
1.7629114566929134
20
-0.0721426771653543
11
1.7634520866141732
21
-0.0723495669291339
0
LINE
8
BLACK
6
CONTINUOUS
10
1.7634520866141732
20
-0.0723495669291339
11
1.7672016141732283
21
-0.0742243307086614
0
LINE
8
BLACK
6
CONTINUOUS
10
1.7672016141732283
20
-0.0742243307086614
11
1.7674494881889764
21
-0.0743803543307087
0
LINE
8
BLACK
6
CONTINUOUS
10
1.7674494881889764
20
-0.0743803543307087
11
1.7675215354330709
21
-0.0744101968503937
0
LINE
8
BLACK
6
CONTINUOUS
10
1.7675215354330709
20
-0.0744101968503937
11
1.7676025590551181
21
-0.0744766929133858
0
LINE
8
BLACK
6
CONTINUOUS
10
1.7676025590551181
20
-0.0744766929133858
11
1.7676914960629921
21
-0.0745326771653543
0
LINE
8
BLACK
6
CONTINUOUS
10
1.7676914960629921
20
-0.0745326771653543
11
1.7677426377952756
21
-0.0745916535433071
0
LINE
8
BLACK
6
CONTINUOUS
10
1.7677426377952756
20
-0.0745916535433071
11
1.7679689763779527
21
-0.0747774015748031
0
LINE
8
BLACK
6
CONTINUOUS
10
1.7679689763779527
20
-0.0747774015748031
11
1.769843779527559
21
-0.0766521653543307
0
LINE
8
BLACK
6
CONTINUOUS
10
1.769843779527559
20
-0.0766521653543307
11
1.7700295275590552
21
-0.0768785039370079
0
LINE
8
BLACK
6
CONTINUOUS
10
1.7700295275590552
20
-0.0768785039370079
11
1.7700885826771653
21
-0.0769297244094488
0
LINE
8
BLACK
6
CONTINUOUS
10
1.7700885826771653
20
-0.0769297244094488
11
1.7701445669291338
21
-0.0770186614173228
0
LINE
8
BLACK
6
CONTINUOUS
10
1.7701445669291338
20
-0.0770186614173228
11
1.7702110236220472
21
-0.0770996456692913
0
LINE
8
BLACK
6
CONTINUOUS
10
1.7702110236220472
20
-0.0770996456692913
11
1.7702408267716534
21
-0.0771715748031496
0
LINE
8
BLACK
6
CONTINUOUS
10
1.7702408267716534
20
-0.0771715748031496
11
1.7703969291338582
21
-0.0774196062992126
0
LINE
8
BLACK
6
CONTINUOUS
10
1.7703969291338582
20
-0.0774196062992126
11
1.7722716929133857
21
-0.0811691338582677
0
LINE
8
BLACK
6
CONTINUOUS
10
1.7722716929133857
20
-0.0811691338582677
11
1.7724785826771654
21
-0.0817097244094488
0
LINE
8
BLACK
6
CONTINUOUS
10
1.7724785826771654
20
-0.0817097244094488
11
1.7724861023622047
21
-0.0818155905511811
0
LINE
8
BLACK
6
CONTINUOUS
10
1.7724861023622047
20
-0.0818155905511811
11
1.7725266929133858
21
-0.0819135826771654
0
LINE
8
BLACK
6
CONTINUOUS
10
1.7725266929133858
20
-0.0819135826771654
11
1.7725834251968504
21
-0.0824896456692913
0
LINE
8
BLACK
6
CONTINUOUS
10
1.7725834251968504
20
-0.0824896456692913
11
1.7725834251968504
21
-0.0899887007874016
0
LINE
8
BLACK
6
CONTINUOUS
10
1.7725834251968504
20
-0.0899887007874016
11
1.7725266929133858
21
-0.0905647637795276
0
LINE
8
BLACK
6
CONTINUOUS
10
1.7725266929133858
20
-0.0905647637795276
11
1.7724861023622047
21
-0.0906627165354331
0
LINE
8
BLACK
6
CONTINUOUS
10
1.7724861023622047
20
-0.0906627165354331
11
1.7724785826771654
21
-0.0907686220472441
0
LINE
8
BLACK
6
CONTINUOUS
10
1.7724785826771654
20
-0.0907686220472441
11
1.7722716929133857
21
-0.0913092125984252
0
LINE
8
BLACK
6
CONTINUOUS
10
1.7722716929133857
20
-0.0913092125984252
11
1.7703969291338582
21
-0.0950587401574803
0
LINE
8
BLACK
6
CONTINUOUS
10
1.7703969291338582
20
-0.0950587401574803
11
1.7702408267716534
21
-0.0953067322834646
0
LINE
8
BLACK
6
CONTINUOUS
10
1.7702408267716534
20
-0.0953067322834646
11
1.7702110236220472
21
-0.0953787007874016
0
LINE
8
BLACK
6
CONTINUOUS
10
1.7702110236220472
20
-0.0953787007874016
11
1.7701445669291338
21
-0.0954596456692913
0
LINE
8
BLACK
6
CONTINUOUS
10
1.7701445669291338
20
-0.0954596456692913
11
1.7700885826771653
21
-0.0955486220472441
0
LINE
8
BLACK
6
CONTINUOUS
10
1.7700885826771653
20
-0.0955486220472441
11
1.7700295275590552
21
-0.0955998031496063
0
LINE
8
BLACK
6
CONTINUOUS
10
1.7700295275590552
20
-0.0955998031496063
11
1.769843779527559
21
-0.0958261811023622
0
LINE
8
BLACK
6
CONTINUOUS
10
1.769843779527559
20
-0.0958261811023622
11
1.7679689763779527
21
-0.0977009448818898
0
LINE
8
BLACK
6
CONTINUOUS
10
1.7679689763779527
20
-0.0977009448818898
11
1.7677426377952756
21
-0.0978866535433071
0
LINE
8
BLACK
6
CONTINUOUS
10
1.7677426377952756
20
-0.0978866535433071
11
1.7676914960629921
21
-0.0979456692913386
0
LINE
8
BLACK
6
CONTINUOUS
10
1.7676914960629921
20
-0.0979456692913386
11
1.7676025590551181
21
-0.0980016141732283
0
LINE
8
BLACK
6
CONTINUOUS
10
1.7676025590551181
20
-0.0980016141732283
11
1.7675215354330709
21
-0.0980681496062992
0
LINE
8
BLACK
6
CONTINUOUS
10
1.7675215354330709
20
-0.0980681496062992
11
1.7674494881889764
21
-0.0980979527559055
0
LINE
8
BLACK
6
CONTINUOUS
10
1.7674494881889764
20
-0.0980979527559055
11
1.7672016141732283
21
-0.0982540157480315
0
LINE
8
BLACK
6
CONTINUOUS
10
1.7672016141732283
20
-0.0982540157480315
11
1.7634520866141732
21
-0.1001287795275591
0
LINE
8
BLACK
6
CONTINUOUS
10
1.7634520866141732
20
-0.1001287795275591
11
1.7629114566929134
21
-0.1003356692913386
0
LINE
8
BLACK
6
CONTINUOUS
10
1.7629114566929134
20
-0.1003356692913386
11
1.7628056299212598
21
-0.1003431496062992
0
LINE
8
BLACK
6
CONTINUOUS
10
1.7628056299212598
20
-0.1003431496062992
11
1.7627076377952755
21
-0.1003837795275591
0
LINE
8
BLACK
6
CONTINUOUS
10
1.7627076377952755
20
-0.1003837795275591
11
1.7621315748031496
21
-0.1004405118110236
0
LINE
8
BLACK
6
CONTINUOUS
10
1.7621315748031496
20
-0.1004405118110236
11
1.7546325196850394
21
-0.1004405118110236
0
LINE
8
BLACK
6
CONTINUOUS
10
1.7546325196850394
20
-0.1004405118110236
11
1.7540564566929133
21
-0.1003837795275591
0
LINE
8
BLACK
6
CONTINUOUS
10
1.7540564566929133
20
-0.1003837795275591
11
1.7539584645669291
21
-0.100343188976378
0
LINE
8
BLACK
6
CONTINUOUS
10
1.7539584645669291
20
-0.100343188976378
11
1.7538525984251969
21
-0.1003356692913386
0
LINE
8
BLACK
6
CONTINUOUS
10
1.7538525984251969
20
-0.1003356692913386
11
1.7533120078740156
21
-0.1001287795275591
0
LINE
8
BLACK
6
CONTINUOUS
10
1.7533120078740156
20
-0.1001287795275591
11
1.7495624803149605
21
-0.0982540157480315
0
LINE
8
BLACK
6
CONTINUOUS
10
1.7495624803149605
20
-0.0982540157480315
11
1.7493144488188976
21
-0.0980979133858268
0
LINE
8
BLACK
6
CONTINUOUS
10
1.7493144488188976
20
-0.0980979133858268
11
1.7492425196850394
21
-0.0980681102362205
0
LINE
8
BLACK
6
CONTINUOUS
10
1.7492425196850394
20
-0.0980681102362205
11
1.7491615354330707
21
-0.0980016141732283
0
LINE
8
BLACK
6
CONTINUOUS
10
1.7491615354330707
20
-0.0980016141732283
11
1.7490725984251969
21
-0.0979456692913386
0
LINE
8
BLACK
6
CONTINUOUS
10
1.7490725984251969
20
-0.0979456692913386
11
1.7490214173228347
21
-0.0978866535433071
0
LINE
8
BLACK
6
CONTINUOUS
10
1.7490214173228347
20
-0.0978866535433071
11
1.7487950787401574
21
-0.097700905511811
0
LINE
8
BLACK
6
CONTINUOUS
10
1.7487950787401574
20
-0.097700905511811
11
1.7471334645669292
21
-0.0960392913385827
0
LINE
8
BLACK
6
CONTINUOUS
10
1.7471334645669292
20
-0.0960392913385827
11
1.7454718503937008
21
-0.097700905511811
0
LINE
8
BLACK
6
CONTINUOUS
10
1.7454718503937008
20
-0.097700905511811
11
1.7452454724409447
21
-0.0978866535433071
0
LINE
8
BLACK
6
CONTINUOUS
10
1.7452454724409447
20
-0.0978866535433071
11
1.7451943307086615
21
-0.0979456692913386
0
LINE
8
BLACK
6
CONTINUOUS
10
1.7451943307086615
20
-0.0979456692913386
11
1.7451053543307087
21
-0.0980016141732283
0
LINE
8
BLACK
6
CONTINUOUS
10
1.7451053543307087
20
-0.0980016141732283
11
1.7450244094488188
21
-0.0980681102362205
0
LINE
8
BLACK
6
CONTINUOUS
10
1.7450244094488188
20
-0.0980681102362205
11
1.7449524409448818
21
-0.0980979133858268
0
LINE
8
BLACK
6
CONTINUOUS
10
1.7449524409448818
20
-0.0980979133858268
11
1.7447044488188976
21
-0.0982540157480315
0
LINE
8
BLACK
6
CONTINUOUS
10
1.7447044488188976
20
-0.0982540157480315
11
1.7409549212598425
21
-0.1001287795275591
0
LINE
8
BLACK
6
CONTINUOUS
10
1.7409549212598425
20
-0.1001287795275591
11
1.7404142913385827
21
-0.1003356692913386
0
LINE
8
BLACK
6
CONTINUOUS
10
1.7404142913385827
20
-0.1003356692913386
11
1.7403084645669291
21
-0.1003431496062992
0
LINE
8
BLACK
6
CONTINUOUS
10
1.7403084645669291
20
-0.1003431496062992
11
1.7402104724409448
21
-0.1003837795275591
0
LINE
8
BLACK
6
CONTINUOUS
10
1.7402104724409448
20
-0.1003837795275591
11
1.7396344094488188
21
-0.1004405118110236
0
LINE
8
BLACK
6
CONTINUOUS
10
1.7396344094488188
20
-0.1004405118110236
11
1.7377596456692912
21
-0.1004405118110236
0
LINE
8
BLACK
6
CONTINUOUS
10
1.7377596456692912
20
-0.1004405118110236
11
1.7371835826771653
21
-0.1003837795275591
0
LINE
8
BLACK
6
CONTINUOUS
10
1.7371835826771653
20
-0.1003837795275591
11
1.7370855905511811
21
-0.100343188976378
0
LINE
8
BLACK
6
CONTINUOUS
10
1.7370855905511811
20
-0.100343188976378
11
1.7369797244094487
21
-0.1003356692913386
0
LINE
8
BLACK
6
CONTINUOUS
10
1.7369797244094487
20
-0.1003356692913386
11
1.7364391338582676
21
-0.1001287795275591
0
LINE
8
BLACK
6
CONTINUOUS
10
1.7364391338582676
20
-0.1001287795275591
11
1.7326896062992125
21
-0.0982540157480315
0
LINE
8
BLACK
6
CONTINUOUS
10
1.7326896062992125
20
-0.0982540157480315
11
1.7324415748031496
21
-0.0980979133858268
0
LINE
8
BLACK
6
CONTINUOUS
10
1.7324415748031496
20
-0.0980979133858268
11
1.7323696456692912
21
-0.0980681102362205
0
LINE
8
BLACK
6
CONTINUOUS
10
1.7323696456692912
20
-0.0980681102362205
11
1.7322886614173227
21
-0.0980016141732283
0
LINE
8
BLACK
6
CONTINUOUS
10
1.7322886614173227
20
-0.0980016141732283
11
1.7321997244094487
21
-0.0979456692913386
0
LINE
8
BLACK
6
CONTINUOUS
10
1.7321997244094487
20
-0.0979456692913386
11
1.7321485433070867
21
-0.0978866535433071
0
LINE
8
BLACK
6
CONTINUOUS
10
1.7321485433070867
20
-0.0978866535433071
11
1.7319222047244094
21
-0.097700905511811
0
LINE
8
BLACK
6
CONTINUOUS
10
1.7319222047244094
20
-0.097700905511811
11
1.7300474409448818
21
-0.0958261417322835
0
LINE
8
BLACK
6
CONTINUOUS
10
1.7300474409448818
20
-0.0958261417322835
11
1.7298616535433071
21
-0.0955997637795276
0
LINE
8
BLACK
6
CONTINUOUS
10
1.7298616535433071
20
-0.0955997637795276
11
1.7298026771653543
21
-0.0955486220472441
0
LINE
8
BLACK
6
CONTINUOUS
10
1.7298026771653543
20
-0.0955486220472441
11
1.7297466929133858
21
-0.0954596456692913
0
LINE
8
BLACK
6
CONTINUOUS
10
1.7297466929133858
20
-0.0954596456692913
11
1.7296802362204724
21
-0.0953787007874016
0
LINE
8
BLACK
6
CONTINUOUS
10
1.7296802362204724
20
-0.0953787007874016
11
1.7296503937007874
21
-0.0953067322834646
0
LINE
8
BLACK
6
CONTINUOUS
10
1.7296503937007874
20
-0.0953067322834646
11
1.7294943307086614
21
-0.0950587401574803
0
LINE
8
BLACK
6
CONTINUOUS
10
1.7294943307086614
20
-0.0950587401574803
11
1.7276195669291339
21
-0.0913092125984252
0
LINE
8
BLACK
6
CONTINUOUS
10
1.7276195669291339
20
-0.0913092125984252
11
1.7274126771653542
21
-0.0907685826771654
0
LINE
8
BLACK
6
CONTINUOUS
10
1.7274126771653542
20
-0.0907685826771654
11
1.7274051574803149
21
-0.0906627559055118
0
LINE
8
BLACK
6
CONTINUOUS
10
1.7274051574803149
20
-0.0906627559055118
11
1.7273645669291338
21
-0.0905647637795276
0
LINE
8
BLACK
6
CONTINUOUS
10
1.7273645669291338
20
-0.0905647637795276
11
1.7273078346456692
21
-0.0899887007874016
0
LINE
8
BLACK
6
CONTINUOUS
10
1.7273078346456692
20
-0.0899887007874016
11
1.7273078346456692
21
-0.0824896456692913
0
LINE
8
BLACK
6
CONTINUOUS
10
1.7273078346456692
20
-0.0824896456692913
11
1.7273645669291338
21
-0.0819135826771654
0
LINE
8
BLACK
6
CONTINUOUS
10
1.7273645669291338
20
-0.0819135826771654
11
1.7274051574803149
21
-0.0818155511811024
0
LINE
8
BLACK
6
CONTINUOUS
10
1.7274051574803149
20
-0.0818155511811024
11
1.7274126771653542
21
-0.0817097637795276
0
LINE
8
BLACK
6
CONTINUOUS
10
1.7274126771653542
20
-0.0817097637795276
11
1.7276195669291339
21
-0.0811691338582677
0
LINE
8
BLACK
6
CONTINUOUS
10
1.7276195669291339
20
-0.0811691338582677
11
1.7294943307086614
21
-0.0774196062992126
0
LINE
8
BLACK
6
CONTINUOUS
10
1.7294943307086614
20
-0.0774196062992126
11
1.7296503937007874
21
-0.0771715748031496
0
LINE
8
BLACK
6
CONTINUOUS
10
1.7296503937007874
20
-0.0771715748031496
11
1.7296802362204724
21
-0.0770996456692913
0
LINE
8
BLACK
6
CONTINUOUS
10
1.7296802362204724
20
-0.0770996456692913
11
1.7297466929133858
21
-0.0770186614173228
0
LINE
8
BLACK
6
CONTINUOUS
10
1.7297466929133858
20
-0.0770186614173228
11
1.7298026771653543
21
-0.0769297244094488
0
LINE
8
BLACK
6
CONTINUOUS
10
1.7298026771653543
20
-0.0769297244094488
11
1.7298616535433071
21
-0.0768785433070866
0
LINE
8
BLACK
6
CONTINUOUS
10
1.7298616535433071
20
-0.0768785433070866
11
1.7300474409448818
21
-0.0766522047244095
0
LINE
8
BLACK
6
CONTINUOUS
10
1.7300474409448818
20
-0.0766522047244095
11
1.7319222047244094
21
-0.0747774409448819
0
LINE
8
BLACK
6
CONTINUOUS
10
1.7319222047244094
20
-0.0747774409448819
11
1.7321485433070867
21
-0.0745916535433071
0
LINE
8
BLACK
6
CONTINUOUS
10
1.7321485433070867
20
-0.0745916535433071
11
1.7321997244094487
21
-0.0745326771653543
0
LINE
8
BLACK
6
CONTINUOUS
10
1.7321997244094487
20
-0.0745326771653543
11
1.7322886614173227
21
-0.0744766929133858
0
LINE
8
BLACK
6
CONTINUOUS
10
1.7322886614173227
20
-0.0744766929133858
11
1.7323696456692912
21
-0.0744102362204724
0
LINE
8
BLACK
6
CONTINUOUS
10
1.7323696456692912
20
-0.0744102362204724
11
1.7324415748031496
21
-0.0743803937007874
0
LINE
8
BLACK
6
CONTINUOUS
10
1.7324415748031496
20
-0.0743803937007874
11
1.7326896062992125
21
-0.0742243307086614
0
LINE
8
BLACK
6
CONTINUOUS
10
1.7326896062992125
20
-0.0742243307086614
11
1.7364391338582676
21
-0.0723495669291339
0
LINE
8
BLACK
6
CONTINUOUS
10
1.7364391338582676
20
-0.0723495669291339
11
1.7369797244094487
21
-0.0721426771653543
0
LINE
8
BLACK
6
CONTINUOUS
10
1.7369797244094487
20
-0.0721426771653543
11
1.7370855905511811
21
-0.0721351181102362
0
LINE
8
BLACK
6
CONTINUOUS
10
1.7370855905511811
20
-0.0721351181102362
11
1.7371835826771653
21
-0.0720945669291339
0
LINE
8
BLACK
6
CONTINUOUS
10
1.7371835826771653
20
-0.0720945669291339
11
1.7377596456692912
21
-0.0720378346456693
0
LINE
8
BLACK
6
CONTINUOUS
10
1.7377596456692912
20
-0.0720378346456693
11
1.7396344094488188
21
-0.0720378346456693
0
LINE
8
BLACK
6
CONTINUOUS
10
1.7396344094488188
20
-0.0720378346456693
11
1.7402104724409448
21
-0.0720945669291339
0
LINE
8
BLACK
6
CONTINUOUS
10
1.7357592125984251
20
-0.0792920866141732
11
1.7345620866141731
21
-0.0804892125984252
0
LINE
8
BLACK
6
CONTINUOUS
10
1.7345620866141731
20
-0.0804892125984252
11
1.7332133464566928
21
-0.0831866929133858
0
LINE
8
BLACK
6
CONTINUOUS
10
1.7332133464566928
20
-0.0831866929133858
11
1.7332133464566928
21
-0.0892916535433071
0
LINE
8
BLACK
6
CONTINUOUS
10
1.7332133464566928
20
-0.0892916535433071
11
1.7345620866141731
21
-0.0919891338582677
0
LINE
8
BLACK
6
CONTINUOUS
10
1.7345620866141731
20
-0.0919891338582677
11
1.7357592125984251
21
-0.0931862598425197
0
LINE
8
BLACK
6
CONTINUOUS
10
1.7357592125984251
20
-0.0931862598425197
11
1.7384566929133858
21
-0.094535
0
LINE
8
BLACK
6
CONTINUOUS
10
1.7384566929133858
20
-0.094535
11
1.7389373622047244
21
-0.094535
0
LINE
8
BLACK
6
CONTINUOUS
10
1.7389373622047244
20
-0.094535
11
1.741634842519685
21
-0.0931862598425197
0
LINE
8
BLACK
6
CONTINUOUS
10
1.741634842519685
20
-0.0931862598425197
11
1.7428319685039371
21
-0.0919891338582677
0
LINE
8
BLACK
6
CONTINUOUS
10
1.7428319685039371
20
-0.0919891338582677
11
1.7441807086614174
21
-0.0892916535433071
0
LINE
8
BLACK
6
CONTINUOUS
10
1.7441807086614174
20
-0.0892916535433071
11
1.7441807086614174
21
-0.0831866929133858
0
LINE
8
BLACK
6
CONTINUOUS
10
1.7441807086614174
20
-0.0831866929133858
11
1.7428319685039371
21
-0.0804892125984252
0
LINE
8
BLACK
6
CONTINUOUS
10
1.7428319685039371
20
-0.0804892125984252
11
1.741634842519685
21
-0.0792920866141732
0
LINE
8
BLACK
6
CONTINUOUS
10
1.741634842519685
20
-0.0792920866141732
11
1.7389373622047244
21
-0.0779433464566929
0
LINE
8
BLACK
6
CONTINUOUS
10
1.7389373622047244
20
-0.0779433464566929
11
1.7384566929133858
21
-0.0779433464566929
0
LINE
8
BLACK
6
CONTINUOUS
10
1.7384566929133858
20
-0.0779433464566929
11
1.7357592125984251
21
-0.0792920866141732
0
LINE
8
BLACK
6
CONTINUOUS
10
1.7526320866141731
20
-0.0792920866141732
11
1.7514349606299213
21
-0.0804892125984252
0
LINE
8
BLACK
6
CONTINUOUS
10
1.7514349606299213
20
-0.0804892125984252
11
1.750086220472441
21
-0.0831866929133858
0
LINE
8
BLACK
6
CONTINUOUS
10
1.750086220472441
20
-0.0831866929133858
11
1.750086220472441
21
-0.0892916535433071
0
LINE
8
BLACK
6
CONTINUOUS
10
1.750086220472441
20
-0.0892916535433071
11
1.7514349606299213
21
-0.0919891338582677
0
LINE
8
BLACK
6
CONTINUOUS
10
1.7514349606299213
20
-0.0919891338582677
11
1.7526320866141731
21
-0.0931862598425197
0
LINE
8
BLACK
6
CONTINUOUS
10
1.7526320866141731
20
-0.0931862598425197
11
1.7553295669291338
21
-0.094535
0
LINE
8
BLACK
6
CONTINUOUS
10
1.7553295669291338
20
-0.094535
11
1.7614345275590551
21
-0.094535
0
LINE
8
BLACK
6
CONTINUOUS
10
1.7614345275590551
20
-0.094535
11
1.7641320078740157
21
-0.0931862204724409
0
LINE
8
BLACK
6
CONTINUOUS
10
1.7641320078740157
20
-0.0931862204724409
11
1.7653291732283465
21
-0.091989094488189
0
LINE
8
BLACK
6
CONTINUOUS
10
1.7653291732283465
20
-0.091989094488189
11
1.7666779133858268
21
-0.0892916535433071
0
LINE
8
BLACK
6
CONTINUOUS
10
1.7666779133858268
20
-0.0892916535433071
11
1.7666779133858268
21
-0.0831866929133858
0
LINE
8
BLACK
6
CONTINUOUS
10
1.7666779133858268
20
-0.0831866929133858
11
1.7653291732283465
21
-0.0804892125984252
0
LINE
8
BLACK
6
CONTINUOUS
10
1.7653291732283465
20
-0.0804892125984252
11
1.7641320078740157
21
-0.0792920866141732
0
LINE
8
BLACK
6
CONTINUOUS
10
1.7641320078740157
20
-0.0792920866141732
11
1.7614345275590551
21
-0.0779433464566929
0
LINE
8
BLACK
6
CONTINUOUS
10
1.7614345275590551
20
-0.0779433464566929
11
1.7553295669291338
21
-0.0779433464566929
0
LINE
8
BLACK
6
CONTINUOUS
10
1.7553295669291338
20
-0.0779433464566929
11
1.7526320866141731
21
-0.0792920866141732
0
LINE
8
BLACK
6
CONTINUOUS
10
-1.7772923622047243
20
-0.0627207086614173
11
-1.77719437007874
21
-0.0627612992125984
0
LINE
8
BLACK
6
CONTINUOUS
10
-1.77719437007874
20
-0.0627612992125984
11
-1.7770885433070867
21
-0.0627688188976378
0
LINE
8
BLACK
6
CONTINUOUS
10
-1.7770885433070867
20
-0.0627688188976378
11
-1.7765479133858266
21
-0.0629757086614173
0
LINE
8
BLACK
6
CONTINUOUS
10
-1.7765479133858266
20
-0.0629757086614173
11
-1.7727983858267715
21
-0.0648504724409449
0
LINE
8
BLACK
6
CONTINUOUS
10
-1.7727983858267715
20
-0.0648504724409449
11
-1.7725505118110236
21
-0.0650064960629921
0
LINE
8
BLACK
6
CONTINUOUS
10
-1.7725505118110236
20
-0.0650064960629921
11
-1.7724784645669291
21
-0.0650363385826772
0
LINE
8
BLACK
6
CONTINUOUS
10
-1.7724784645669291
20
-0.0650363385826772
11
-1.7723974409448819
21
-0.0651028346456693
0
LINE
8
BLACK
6
CONTINUOUS
10
-1.7723974409448819
20
-0.0651028346456693
11
-1.7723085039370079
21
-0.0651588188976378
0
LINE
8
BLACK
6
CONTINUOUS
10
-1.7723085039370079
20
-0.0651588188976378
11
-1.7722573622047244
21
-0.0652177952755905
0
LINE
8
BLACK
6
CONTINUOUS
10
-1.7722573622047244
20
-0.0652177952755905
11
-1.7720310236220471
21
-0.0654035433070866
0
LINE
8
BLACK
6
CONTINUOUS
10
-1.7720310236220471
20
-0.0654035433070866
11
-1.7701562204724408
21
-0.0672783070866142
0
LINE
8
BLACK
6
CONTINUOUS
10
-1.7701562204724408
20
-0.0672783070866142
11
-1.7699704724409449
21
-0.0675046456692913
0
LINE
8
BLACK
6
CONTINUOUS
10
-1.7699704724409449
20
-0.0675046456692913
11
-1.7699114173228345
21
-0.0675558661417323
0
LINE
8
BLACK
6
CONTINUOUS
10
-1.7699114173228345
20
-0.0675558661417323
11
-1.769855433070866
21
-0.0676448031496063
0
LINE
8
BLACK
6
CONTINUOUS
10
-1.769855433070866
20
-0.0676448031496063
11
-1.7697889763779526
21
-0.0677257874015748
0
LINE
8
BLACK
6
CONTINUOUS
10
-1.7697889763779526
20
-0.0677257874015748
11
-1.7697591732283464
21
-0.0677977165354331
0
LINE
8
BLACK
6
CONTINUOUS
10
-1.7697591732283464
20
-0.0677977165354331
11
-1.7696030708661417
21
-0.0680457480314961
0
LINE
8
BLACK
6
CONTINUOUS
10
-1.7696030708661417
20
-0.0680457480314961
11
-1.7677283070866141
21
-0.0717952755905512
0
LINE
8
BLACK
6
CONTINUOUS
10
-1.7677283070866141
20
-0.0717952755905512
11
-1.7675214173228346
21
-0.0723358661417323
0
LINE
8
BLACK
6
CONTINUOUS
10
-1.7675214173228346
20
-0.0723358661417323
11
-1.7675138976377953
21
-0.0724417322834646
0
LINE
8
BLACK
6
CONTINUOUS
10
-1.7675138976377953
20
-0.0724417322834646
11
-1.7674733070866142
21
-0.0725397244094488
0
LINE
8
BLACK
6
CONTINUOUS
10
-1.7674733070866142
20
-0.0725397244094488
11
-1.7674165748031496
21
-0.0731157874015748
0
LINE
8
BLACK
6
CONTINUOUS
10
-1.7674165748031496
20
-0.0731157874015748
11
-1.7674165748031496
21
-0.080614842519685
0
LINE
8
BLACK
6
CONTINUOUS
10
-1.7674165748031496
20
-0.080614842519685
11
-1.7674733070866142
21
-0.081190905511811
0
LINE
8
BLACK
6
CONTINUOUS
10
-1.7674733070866142
20
-0.081190905511811
11
-1.7675138976377953
21
-0.0812888582677165
0
LINE
8
BLACK
6
CONTINUOUS
10
-1.7675138976377953
20
-0.0812888582677165
11
-1.7675214173228346
21
-0.0813947637795276
0
LINE
8
BLACK
6
CONTINUOUS
10
-1.7675214173228346
20
-0.0813947637795276
11
-1.7677283070866141
21
-0.0819353543307087
0
LINE
8
BLACK
6
CONTINUOUS
10
-1.7677283070866141
20
-0.0819353543307087
11
-1.7696030708661417
21
-0.0856848818897638
0
LINE
8
BLACK
6
CONTINUOUS
10
-1.7696030708661417
20
-0.0856848818897638
11
-1.7697591732283464
21
-0.085932874015748
0
LINE
8
BLACK
6
CONTINUOUS
10
-1.7697591732283464
20
-0.085932874015748
11
-1.7697889763779526
21
-0.086004842519685
0
LINE
8
BLACK
6
CONTINUOUS
10
-1.7697889763779526
20
-0.086004842519685
11
-1.769855433070866
21
-0.0860857874015748
0
LINE
8
BLACK
6
CONTINUOUS
10
-1.769855433070866
20
-0.0860857874015748
11
-1.7699114173228345
21
-0.0861747637795276
0
LINE
8
BLACK
6
CONTINUOUS
10
-1.7699114173228345
20
-0.0861747637795276
11
-1.7699704724409449
21
-0.0862259448818898
0
LINE
8
BLACK
6
CONTINUOUS
10
-1.7699704724409449
20
-0.0862259448818898
11
-1.7701562204724408
21
-0.0864523228346457
0
LINE
8
BLACK
6
CONTINUOUS
10
-1.7701562204724408
20
-0.0864523228346457
11
-1.7720310236220471
21
-0.0883270866141732
0
LINE
8
BLACK
6
CONTINUOUS
10
-1.7720310236220471
20
-0.0883270866141732
11
-1.7722573622047244
21
-0.0885127952755906
0
LINE
8
BLACK
6
CONTINUOUS
10
-1.7722573622047244
20
-0.0885127952755906
11
-1.7723085039370079
21
-0.088571811023622
0
LINE
8
BLACK
6
CONTINUOUS
10
-1.7723085039370079
20
-0.088571811023622
11
-1.7723974409448819
21
-0.0886277559055118
0
LINE
8
BLACK
6
CONTINUOUS
10
-1.7723974409448819
20
-0.0886277559055118
11
-1.7724784645669291
21
-0.0886942913385827
0
LINE
8
BLACK
6
CONTINUOUS
10
-1.7724784645669291
20
-0.0886942913385827
11
-1.7725505118110236
21
-0.088724094488189
0
LINE
8
BLACK
6
CONTINUOUS
10
-1.7725505118110236
20
-0.088724094488189
11
-1.7727983858267715
21
-0.088880157480315
0
LINE
8
BLACK
6
CONTINUOUS
10
-1.7727983858267715
20
-0.088880157480315
11
-1.7765479133858266
21
-0.0907549212598425
0
LINE
8
BLACK
6
CONTINUOUS
10
-1.7765479133858266
20
-0.0907549212598425
11
-1.7770885433070867
21
-0.090961811023622
0
LINE
8
BLACK
6
CONTINUOUS
10
-1.7770885433070867
20
-0.090961811023622
11
-1.77719437007874
21
-0.0909692913385827
0
LINE
8
BLACK
6
CONTINUOUS
10
-1.77719437007874
20
-0.0909692913385827
11
-1.7772923622047243
21
-0.0910099212598425
0
LINE
8
BLACK
6
CONTINUOUS
10
-1.7772923622047243
20
-0.0910099212598425
11
-1.7778684251968504
21
-0.0910666535433071
0
LINE
8
BLACK
6
CONTINUOUS
10
-1.7778684251968504
20
-0.0910666535433071
11
-1.7928665354330708
21
-0.0910666535433071
0
LINE
8
BLACK
6
CONTINUOUS
10
-1.7928665354330708
20
-0.0910666535433071
11
-1.7929670866141731
21
-0.0910567322834646
0
LINE
8
BLACK
6
CONTINUOUS
10
-1.7929670866141731
20
-0.0910567322834646
11
-1.7930100787401575
21
-0.0910631496062992
0
LINE
8
BLACK
6
CONTINUOUS
10
-1.7930100787401575
20
-0.0910631496062992
11
-1.7932255905511811
21
-0.0910312598425197
0
LINE
8
BLACK
6
CONTINUOUS
10
-1.7932255905511811
20
-0.0910312598425197
11
-1.7934425984251967
21
-0.0910099212598425
0
LINE
8
BLACK
6
CONTINUOUS
10
-1.7934425984251967
20
-0.0910099212598425
11
-1.7934828346456693
21
-0.0909932677165354
0
LINE
8
BLACK
6
CONTINUOUS
10
-1.7934828346456693
20
-0.0909932677165354
11
-1.7935826771653542
21
-0.0909785039370079
0
LINE
8
BLACK
6
CONTINUOUS
10
-1.7935826771653542
20
-0.0909785039370079
11
-1.8010817322834645
21
-0.0891037401574803
0
LINE
8
BLACK
6
CONTINUOUS
10
-1.8010817322834645
20
-0.0891037401574803
11
-1.8014212598425197
21
-0.0889824015748032
0
LINE
8
BLACK
6
CONTINUOUS
10
-1.8014212598425197
20
-0.0889824015748032
11
-1.8014926771653543
21
-0.0889683070866142
0
LINE
8
BLACK
6
CONTINUOUS
10
-1.8014926771653543
20
-0.0889683070866142
11
-1.8015574803149605
21
-0.0889337401574803
0
LINE
8
BLACK
6
CONTINUOUS
10
-1.8015574803149605
20
-0.0889337401574803
11
-1.8016268503937007
21
-0.0889089763779528
0
LINE
8
BLACK
6
CONTINUOUS
10
-1.8016268503937007
20
-0.0889089763779528
11
-1.801685590551181
21
-0.0888654330708661
0
LINE
8
BLACK
6
CONTINUOUS
10
-1.801685590551181
20
-0.0888654330708661
11
-1.8020034645669292
21
-0.0886959842519685
0
LINE
8
BLACK
6
CONTINUOUS
10
-1.8020034645669292
20
-0.0886959842519685
11
-1.8076277952755906
21
-0.0849464566929134
0
LINE
8
BLACK
6
CONTINUOUS
10
-1.8076277952755906
20
-0.0849464566929134
11
-1.8076294881889763
21
-0.0849450787401575
0
LINE
8
BLACK
6
CONTINUOUS
10
-1.8076294881889763
20
-0.0849450787401575
11
-1.8076303543307086
21
-0.0849447244094488
0
LINE
8
BLACK
6
CONTINUOUS
10
-1.8076303543307086
20
-0.0849447244094488
11
-1.8078456692913385
21
-0.0847679921259843
0
LINE
8
BLACK
6
CONTINUOUS
10
-1.8078456692913385
20
-0.0847679921259843
11
-1.8080756299212597
21
-0.0845796850393701
0
LINE
8
BLACK
6
CONTINUOUS
10
-1.8080756299212597
20
-0.0845796850393701
11
-1.808076220472441
21
-0.0845788188976378
0
LINE
8
BLACK
6
CONTINUOUS
10
-1.808076220472441
20
-0.0845788188976378
11
-1.8080777952755904
21
-0.0845775196850394
0
LINE
8
BLACK
6
CONTINUOUS
10
-1.8080777952755904
20
-0.0845775196850394
11
-1.809952559055118
21
-0.0827027559055118
0
LINE
8
BLACK
6
CONTINUOUS
10
-1.809952559055118
20
-0.0827027559055118
11
-1.8101383464566929
21
-0.0824763779527559
0
LINE
8
BLACK
6
CONTINUOUS
10
-1.8101383464566929
20
-0.0824763779527559
11
-1.8101973228346457
21
-0.0824252362204724
0
LINE
8
BLACK
6
CONTINUOUS
10
-1.8101973228346457
20
-0.0824252362204724
11
-1.810253307086614
21
-0.0823362598425197
0
LINE
8
BLACK
6
CONTINUOUS
10
-1.810253307086614
20
-0.0823362598425197
11
-1.8103197637795274
21
-0.0822553149606299
0
LINE
8
BLACK
6
CONTINUOUS
10
-1.8103197637795274
20
-0.0822553149606299
11
-1.8103496062992126
21
-0.0821833464566929
0
LINE
8
BLACK
6
CONTINUOUS
10
-1.8103496062992126
20
-0.0821833464566929
11
-1.8105056692913386
21
-0.0819353543307087
0
LINE
8
BLACK
6
CONTINUOUS
10
-1.8105056692913386
20
-0.0819353543307087
11
-1.8123804330708662
21
-0.0781858267716535
0
LINE
8
BLACK
6
CONTINUOUS
10
-1.8123804330708662
20
-0.0781858267716535
11
-1.8125873228346456
21
-0.0776451968503937
0
LINE
8
BLACK
6
CONTINUOUS
10
-1.8125873228346456
20
-0.0776451968503937
11
-1.8125948425196849
21
-0.0775393700787401
0
LINE
8
BLACK
6
CONTINUOUS
10
-1.8125948425196849
20
-0.0775393700787401
11
-1.8126354330708661
21
-0.0774413779527559
0
LINE
8
BLACK
6
CONTINUOUS
10
-1.8126354330708661
20
-0.0774413779527559
11
-1.8126921653543306
21
-0.0768653149606299
0
LINE
8
BLACK
6
CONTINUOUS
10
-1.8126921653543306
20
-0.0768653149606299
11
-1.8126921653543306
21
-0.0693662598425197
0
LINE
8
BLACK
6
CONTINUOUS
10
-1.8126921653543306
20
-0.0693662598425197
11
-1.8126354330708661
21
-0.0687901968503937
0
LINE
8
BLACK
6
CONTINUOUS
10
-1.8126354330708661
20
-0.0687901968503937
11
-1.812194527559055
21
-0.0677257874015748
0
LINE
8
BLACK
6
CONTINUOUS
10
-1.812194527559055
20
-0.0677257874015748
11
-1.8113798818897637
21
-0.0669111417322835
0
LINE
8
BLACK
6
CONTINUOUS
10
-1.8113798818897637
20
-0.0669111417322835
11
-1.8103154724409449
21
-0.0664702362204724
0
LINE
8
BLACK
6
CONTINUOUS
10
-1.8103154724409449
20
-0.0664702362204724
11
-1.809163346456693
21
-0.0664702362204724
0
LINE
8
BLACK
6
CONTINUOUS
10
-1.809163346456693
20
-0.0664702362204724
11
-1.8080989370078739
21
-0.0669111417322835
0
LINE
8
BLACK
6
CONTINUOUS
10
-1.8080989370078739
20
-0.0669111417322835
11
-1.8072842913385827
21
-0.0677257874015748
0
LINE
8
BLACK
6
CONTINUOUS
10
-1.8072842913385827
20
-0.0677257874015748
11
-1.8068433858267716
21
-0.0687901968503937
0
LINE
8
BLACK
6
CONTINUOUS
10
-1.8068433858267716
20
-0.0687901968503937
11
-1.806786653543307
21
-0.0693662598425197
0
LINE
8
BLACK
6
CONTINUOUS
10
-1.806786653543307
20
-0.0693662598425197
11
-1.806786653543307
21
-0.0761682677165354
0
LINE
8
BLACK
6
CONTINUOUS
10
-1.806786653543307
20
-0.0761682677165354
11
-1.8054379133858267
21
-0.0788657480314961
0
LINE
8
BLACK
6
CONTINUOUS
10
-1.8054379133858267
20
-0.0788657480314961
11
-1.804108779527559
21
-0.0801948818897638
0
LINE
8
BLACK
6
CONTINUOUS
10
-1.804108779527559
20
-0.0801948818897638
11
-1.7991532283464566
21
-0.0834985826771654
0
LINE
8
BLACK
6
CONTINUOUS
10
-1.7991532283464566
20
-0.0834985826771654
11
-1.7962360629921259
21
-0.084227874015748
0
LINE
8
BLACK
6
CONTINUOUS
10
-1.7962360629921259
20
-0.084227874015748
11
-1.7973823228346457
21
-0.0819353543307087
0
LINE
8
BLACK
6
CONTINUOUS
10
-1.7973823228346457
20
-0.0819353543307087
11
-1.7975892125984252
21
-0.0813947244094488
0
LINE
8
BLACK
6
CONTINUOUS
10
-1.7975892125984252
20
-0.0813947244094488
11
-1.7975967322834645
21
-0.0812888976377953
0
LINE
8
BLACK
6
CONTINUOUS
10
-1.7975967322834645
20
-0.0812888976377953
11
-1.7976373228346456
21
-0.081190905511811
0
LINE
8
BLACK
6
CONTINUOUS
10
-1.7976373228346456
20
-0.081190905511811
11
-1.7976940551181102
21
-0.080614842519685
0
LINE
8
BLACK
6
CONTINUOUS
10
-1.7976940551181102
20
-0.080614842519685
11
-1.7976940551181102
21
-0.0731157874015748
0
LINE
8
BLACK
6
CONTINUOUS
10
-1.7976940551181102
20
-0.0731157874015748
11
-1.7976373228346456
21
-0.0725397244094488
0
LINE
8
BLACK
6
CONTINUOUS
10
-1.7976373228346456
20
-0.0725397244094488
11
-1.7975967322834645
21
-0.0724416929133858
0
LINE
8
BLACK
6
CONTINUOUS
10
-1.7975967322834645
20
-0.0724416929133858
11
-1.7975892125984252
21
-0.072335905511811
0
LINE
8
BLACK
6
CONTINUOUS
10
-1.7975892125984252
20
-0.072335905511811
11
-1.7973823228346457
21
-0.0717952755905512
0
LINE
8
BLACK
6
CONTINUOUS
10
-1.7973823228346457
20
-0.0717952755905512
11
-1.7955075590551182
21
-0.0680457480314961
0
LINE
8
BLACK
6
CONTINUOUS
10
-1.7955075590551182
20
-0.0680457480314961
11
-1.7953514960629922
21
-0.0677977165354331
0
LINE
8
BLACK
6
CONTINUOUS
10
-1.7953514960629922
20
-0.0677977165354331
11
-1.795321653543307
21
-0.0677257874015748
0
LINE
8
BLACK
6
CONTINUOUS
10
-1.795321653543307
20
-0.0677257874015748
11
-1.7952551968503936
21
-0.0676448031496063
0
LINE
8
BLACK
6
CONTINUOUS
10
-1.7952551968503936
20
-0.0676448031496063
11
-1.7951992125984251
21
-0.0675558661417323
0
LINE
8
BLACK
6
CONTINUOUS
10
-1.7951992125984251
20
-0.0675558661417323
11
-1.7951402362204725
21
-0.0675046850393701
0
LINE
8
BLACK
6
CONTINUOUS
10
-1.7951402362204725
20
-0.0675046850393701
11
-1.7949544488188975
21
-0.0672783464566929
0
LINE
8
BLACK
6
CONTINUOUS
10
-1.7949544488188975
20
-0.0672783464566929
11
-1.79307968503937
21
-0.0654035826771654
0
LINE
8
BLACK
6
CONTINUOUS
10
-1.79307968503937
20
-0.0654035826771654
11
-1.7928533464566929
21
-0.0652177952755905
0
LINE
8
BLACK
6
CONTINUOUS
10
-1.7928533464566929
20
-0.0652177952755905
11
-1.7928021653543307
21
-0.0651588188976378
0
LINE
8
BLACK
6
CONTINUOUS
10
-1.7928021653543307
20
-0.0651588188976378
11
-1.7927132283464566
21
-0.0651028346456693
0
LINE
8
BLACK
6
CONTINUOUS
10
-1.7927132283464566
20
-0.0651028346456693
11
-1.7926322440944882
21
-0.0650363779527559
0
LINE
8
BLACK
6
CONTINUOUS
10
-1.7926322440944882
20
-0.0650363779527559
11
-1.79256031496063
21
-0.0650065354330709
0
LINE
8
BLACK
6
CONTINUOUS
10
-1.79256031496063
20
-0.0650065354330709
11
-1.7923122834645668
21
-0.0648504724409449
0
LINE
8
BLACK
6
CONTINUOUS
10
-1.7923122834645668
20
-0.0648504724409449
11
-1.7885627559055117
21
-0.0629757086614173
0
LINE
8
BLACK
6
CONTINUOUS
10
-1.7885627559055117
20
-0.0629757086614173
11
-1.7880221653543307
21
-0.0627688188976378
0
LINE
8
BLACK
6
CONTINUOUS
10
-1.7880221653543307
20
-0.0627688188976378
11
-1.7879162992125983
21
-0.0627612598425197
0
LINE
8
BLACK
6
CONTINUOUS
10
-1.7879162992125983
20
-0.0627612598425197
11
-1.787818307086614
21
-0.0627207086614173
0
LINE
8
BLACK
6
CONTINUOUS
10
-1.787818307086614
20
-0.0627207086614173
11
-1.7872422440944882
21
-0.0626639763779527
0
LINE
8
BLACK
6
CONTINUOUS
10
-1.7872422440944882
20
-0.0626639763779527
11
-1.7778684251968504
21
-0.0626639763779527
0
LINE
8
BLACK
6
CONTINUOUS
10
-1.7778684251968504
20
-0.0626639763779527
11
-1.7772923622047243
21
-0.0627207086614173
0
LINE
8
BLACK
6
CONTINUOUS
10
-1.7892426771653542
20
-0.0699182283464567
11
-1.7904398031496063
21
-0.0711153543307087
0
LINE
8
BLACK
6
CONTINUOUS
10
-1.7904398031496063
20
-0.0711153543307087
11
-1.7917885433070866
21
-0.0738128346456693
0
LINE
8
BLACK
6
CONTINUOUS
10
-1.7917885433070866
20
-0.0738128346456693
11
-1.7917885433070866
21
-0.0799177952755906
0
LINE
8
BLACK
6
CONTINUOUS
10
-1.7917885433070866
20
-0.0799177952755906
11
-1.7904398031496063
21
-0.0826152755905512
0
LINE
8
BLACK
6
CONTINUOUS
10
-1.7904398031496063
20
-0.0826152755905512
11
-1.7892426771653542
21
-0.0838124015748031
0
LINE
8
BLACK
6
CONTINUOUS
10
-1.7892426771653542
20
-0.0838124015748031
11
-1.7865451968503936
21
-0.0851611417322835
0
LINE
8
BLACK
6
CONTINUOUS
10
-1.7865451968503936
20
-0.0851611417322835
11
-1.7785654724409448
21
-0.0851611417322835
0
LINE
8
BLACK
6
CONTINUOUS
10
-1.7785654724409448
20
-0.0851611417322835
11
-1.7758679921259841
21
-0.0838123622047244
0
LINE
8
BLACK
6
CONTINUOUS
10
-1.7758679921259841
20
-0.0838123622047244
11
-1.7746708267716536
21
-0.0826152362204724
0
LINE
8
BLACK
6
CONTINUOUS
10
-1.7746708267716536
20
-0.0826152362204724
11
-1.7733220866141732
21
-0.0799177952755906
0
LINE
8
BLACK
6
CONTINUOUS
10
-1.7733220866141732
20
-0.0799177952755906
11
-1.7733220866141732
21
-0.0738128346456693
0
LINE
8
BLACK
6
CONTINUOUS
10
-1.7733220866141732
20
-0.0738128346456693
11
-1.7746708267716536
21
-0.0711153543307087
0
LINE
8
BLACK
6
CONTINUOUS
10
-1.7746708267716536
20
-0.0711153543307087
11
-1.7758679921259841
21
-0.0699182283464567
0
LINE
8
BLACK
6
CONTINUOUS
10
-1.7758679921259841
20
-0.0699182283464567
11
-1.7785654724409448
21
-0.0685694881889764
0
LINE
8
BLACK
6
CONTINUOUS
10
-1.7785654724409448
20
-0.0685694881889764
11
-1.7865451968503936
21
-0.0685694881889764
0
LINE
8
BLACK
6
CONTINUOUS
10
-1.7865451968503936
20
-0.0685694881889764
11
-1.7892426771653542
21
-0.0699182283464567
0
LINE
8
BLACK
6
CONTINUOUS
10
1.754733031496063
20
-0.0345524015748031
11
1.7547760629921259
21
-0.0345460236220472
0
LINE
8
BLACK
6
CONTINUOUS
10
1.7547760629921259
20
-0.0345460236220472
11
1.7549915354330707
21
-0.034577874015748
0
LINE
8
BLACK
6
CONTINUOUS
10
1.7549915354330707
20
-0.034577874015748
11
1.7552085826771653
21
-0.0345992519685039
0
LINE
8
BLACK
6
CONTINUOUS
10
1.7552085826771653
20
-0.0345992519685039
11
1.7552487795275591
21
-0.0346158661417323
0
LINE
8
BLACK
6
CONTINUOUS
10
1.7552487795275591
20
-0.0346158661417323
11
1.7553486614173228
21
-0.0346306692913386
0
LINE
8
BLACK
6
CONTINUOUS
10
1.7553486614173228
20
-0.0346306692913386
11
1.762847716535433
21
-0.0365054330708661
0
LINE
8
BLACK
6
CONTINUOUS
10
1.762847716535433
20
-0.0365054330708661
11
1.7628901968503936
21
-0.0365205905511811
0
LINE
8
BLACK
6
CONTINUOUS
10
1.7628901968503936
20
-0.0365205905511811
11
1.7629114566929134
21
-0.036522125984252
0
LINE
8
BLACK
6
CONTINUOUS
10
1.7629114566929134
20
-0.036522125984252
11
1.7631508661417323
21
-0.0366137401574803
0
LINE
8
BLACK
6
CONTINUOUS
10
1.7631508661417323
20
-0.0366137401574803
11
1.7633928346456693
21
-0.0367001968503937
0
LINE
8
BLACK
6
CONTINUOUS
10
1.7633928346456693
20
-0.0367001968503937
11
1.7634099606299212
21
-0.036712874015748
0
LINE
8
BLACK
6
CONTINUOUS
10
1.7634099606299212
20
-0.036712874015748
11
1.7634520866141732
21
-0.0367290157480315
0
LINE
8
BLACK
6
CONTINUOUS
10
1.7634520866141732
20
-0.0367290157480315
11
1.7672016141732283
21
-0.0386037795275591
0
LINE
8
BLACK
6
CONTINUOUS
10
1.7672016141732283
20
-0.0386037795275591
11
1.7674494881889764
21
-0.0387598031496063
0
LINE
8
BLACK
6
CONTINUOUS
10
1.7674494881889764
20
-0.0387598031496063
11
1.7675215354330709
21
-0.0387896456692913
0
LINE
8
BLACK
6
CONTINUOUS
10
1.7675215354330709
20
-0.0387896456692913
11
1.7676025590551181
21
-0.0388561417322835
0
LINE
8
BLACK
6
CONTINUOUS
10
1.7676025590551181
20
-0.0388561417322835
11
1.7676914960629921
21
-0.038912125984252
0
LINE
8
BLACK
6
CONTINUOUS
10
1.7676914960629921
20
-0.038912125984252
11
1.7677426377952756
21
-0.0389711023622047
0
LINE
8
BLACK
6
CONTINUOUS
10
1.7677426377952756
20
-0.0389711023622047
11
1.7679689763779527
21
-0.0391568503937008
0
LINE
8
BLACK
6
CONTINUOUS
10
1.7679689763779527
20
-0.0391568503937008
11
1.769843779527559
21
-0.0410316141732283
0
LINE
8
BLACK
6
CONTINUOUS
10
1.769843779527559
20
-0.0410316141732283
11
1.7700295275590552
21
-0.0412579527559055
0
LINE
8
BLACK
6
CONTINUOUS
10
1.7700295275590552
20
-0.0412579527559055
11
1.7700885826771653
21
-0.0413091732283465
0
LINE
8
BLACK
6
CONTINUOUS
10
1.7700885826771653
20
-0.0413091732283465
11
1.7701445669291338
21
-0.0413981102362205
0
LINE
8
BLACK
6
CONTINUOUS
10
1.7701445669291338
20
-0.0413981102362205
11
1.7702110236220472
21
-0.041479094488189
0
LINE
8
BLACK
6
CONTINUOUS
10
1.7702110236220472
20
-0.041479094488189
11
1.7702408267716534
21
-0.0415510236220472
0
LINE
8
BLACK
6
CONTINUOUS
10
1.7702408267716534
20
-0.0415510236220472
11
1.7703969291338582
21
-0.0417990551181102
0
LINE
8
BLACK
6
CONTINUOUS
10
1.7703969291338582
20
-0.0417990551181102
11
1.7722716929133857
21
-0.0455485826771654
0
LINE
8
BLACK
6
CONTINUOUS
10
1.7722716929133857
20
-0.0455485826771654
11
1.7724785826771654
21
-0.0460891732283465
0
LINE
8
BLACK
6
CONTINUOUS
10
1.7724785826771654
20
-0.0460891732283465
11
1.7724861023622047
21
-0.0461950393700787
0
LINE
8
BLACK
6
CONTINUOUS
10
1.7724861023622047
20
-0.0461950393700787
11
1.7725266929133858
21
-0.046293031496063
0
LINE
8
BLACK
6
CONTINUOUS
10
1.7725266929133858
20
-0.046293031496063
11
1.7725834251968504
21
-0.046869094488189
0
LINE
8
BLACK
6
CONTINUOUS
10
1.7725834251968504
20
-0.046869094488189
11
1.7725834251968504
21
-0.0506186220472441
0
LINE
8
BLACK
6
CONTINUOUS
10
1.7725834251968504
20
-0.0506186220472441
11
1.7725266929133858
21
-0.0511946850393701
0
LINE
8
BLACK
6
CONTINUOUS
10
1.7725266929133858
20
-0.0511946850393701
11
1.7724861023622047
21
-0.0512926377952756
0
LINE
8
BLACK
6
CONTINUOUS
10
1.7724861023622047
20
-0.0512926377952756
11
1.7724785826771654
21
-0.0513985433070866
0
LINE
8
BLACK
6
CONTINUOUS
10
1.7724785826771654
20
-0.0513985433070866
11
1.7722716929133857
21
-0.0519391338582677
0
LINE
8
BLACK
6
CONTINUOUS
10
1.7722716929133857
20
-0.0519391338582677
11
1.7703969291338582
21
-0.0556886614173228
0
LINE
8
BLACK
6
CONTINUOUS
10
1.7703969291338582
20
-0.0556886614173228
11
1.7702408267716534
21
-0.0559366535433071
0
LINE
8
BLACK
6
CONTINUOUS
10
1.7702408267716534
20
-0.0559366535433071
11
1.7702110236220472
21
-0.0560086220472441
0
LINE
8
BLACK
6
CONTINUOUS
10
1.7702110236220472
20
-0.0560086220472441
11
1.7701445669291338
21
-0.0560895669291339
0
LINE
8
BLACK
6
CONTINUOUS
10
1.7701445669291338
20
-0.0560895669291339
11
1.7700885826771653
21
-0.0561785433070866
0
LINE
8
BLACK
6
CONTINUOUS
10
1.7700885826771653
20
-0.0561785433070866
11
1.7700295275590552
21
-0.0562297244094488
0
LINE
8
BLACK
6
CONTINUOUS
10
1.7700295275590552
20
-0.0562297244094488
11
1.769843779527559
21
-0.0564561023622047
0
LINE
8
BLACK
6
CONTINUOUS
10
1.769843779527559
20
-0.0564561023622047
11
1.7679689763779527
21
-0.0583308661417323
0
LINE
8
BLACK
6
CONTINUOUS
10
1.7679689763779527
20
-0.0583308661417323
11
1.7677426377952756
21
-0.0585165748031496
0
LINE
8
BLACK
6
CONTINUOUS
10
1.7677426377952756
20
-0.0585165748031496
11
1.7676914960629921
21
-0.0585755905511811
0
LINE
8
BLACK
6
CONTINUOUS
10
1.7676914960629921
20
-0.0585755905511811
11
1.7676025590551181
21
-0.0586315354330709
0
LINE
8
BLACK
6
CONTINUOUS
10
1.7676025590551181
20
-0.0586315354330709
11
1.7675215354330709
21
-0.0586980708661417
0
LINE
8
BLACK
6
CONTINUOUS
10
1.7675215354330709
20
-0.0586980708661417
11
1.7674494881889764
21
-0.058727874015748
0
LINE
8
BLACK
6
CONTINUOUS
10
1.7674494881889764
20
-0.058727874015748
11
1.7672016141732283
21
-0.058883937007874
0
LINE
8
BLACK
6
CONTINUOUS
10
1.7672016141732283
20
-0.058883937007874
11
1.7634520866141732
21
-0.0607587007874016
0
LINE
8
BLACK
6
CONTINUOUS
10
1.7634520866141732
20
-0.0607587007874016
11
1.7634099606299212
21
-0.0607748031496063
0
LINE
8
BLACK
6
CONTINUOUS
10
1.7634099606299212
20
-0.0607748031496063
11
1.7633928346456693
21
-0.0607875196850394
0
LINE
8
BLACK
6
CONTINUOUS
10
1.7633928346456693
20
-0.0607875196850394
11
1.7631508661417323
21
-0.060873937007874
0
LINE
8
BLACK
6
CONTINUOUS
10
1.7631508661417323
20
-0.060873937007874
11
1.7629114566929134
21
-0.0609655905511811
0
LINE
8
BLACK
6
CONTINUOUS
10
1.7629114566929134
20
-0.0609655905511811
11
1.7628901968503936
21
-0.0609670866141732
0
LINE
8
BLACK
6
CONTINUOUS
10
1.7628901968503936
20
-0.0609670866141732
11
1.762847716535433
21
-0.0609822834645669
0
LINE
8
BLACK
6
CONTINUOUS
10
1.762847716535433
20
-0.0609822834645669
11
1.7553486614173228
21
-0.0628570472440945
0
LINE
8
BLACK
6
CONTINUOUS
10
1.7553486614173228
20
-0.0628570472440945
11
1.7552487795275591
21
-0.062871811023622
0
LINE
8
BLACK
6
CONTINUOUS
10
1.7552487795275591
20
-0.062871811023622
11
1.7552085826771653
21
-0.0628884645669291
0
LINE
8
BLACK
6
CONTINUOUS
10
1.7552085826771653
20
-0.0628884645669291
11
1.7549915354330707
21
-0.0629098031496063
0
LINE
8
BLACK
6
CONTINUOUS
10
1.7549915354330707
20
-0.0629098031496063
11
1.7547760629921259
21
-0.0629416929133858
0
LINE
8
BLACK
6
CONTINUOUS
10
1.7547760629921259
20
-0.0629416929133858
11
1.754733031496063
21
-0.0629352755905512
0
LINE
8
BLACK
6
CONTINUOUS
10
1.754733031496063
20
-0.0629352755905512
11
1.7546325196850394
21
-0.0629451968503937
0
LINE
8
BLACK
6
CONTINUOUS
10
1.7546325196850394
20
-0.0629451968503937
11
1.7452587007874016
21
-0.0629451968503937
0
LINE
8
BLACK
6
CONTINUOUS
10
1.7452587007874016
20
-0.0629451968503937
11
1.7451581496062991
21
-0.0629352755905512
0
LINE
8
BLACK
6
CONTINUOUS
10
1.7451581496062991
20
-0.0629352755905512
11
1.745115157480315
21
-0.0629416929133858
0
LINE
8
BLACK
6
CONTINUOUS
10
1.745115157480315
20
-0.0629416929133858
11
1.7448996456692913
21
-0.0629098031496063
0
LINE
8
BLACK
6
CONTINUOUS
10
1.7448996456692913
20
-0.0629098031496063
11
1.7446826377952755
21
-0.0628884645669291
0
LINE
8
BLACK
6
CONTINUOUS
10
1.7446826377952755
20
-0.0628884645669291
11
1.7446424015748032
21
-0.062871811023622
0
LINE
8
BLACK
6
CONTINUOUS
10
1.7446424015748032
20
-0.062871811023622
11
1.744542559055118
21
-0.0628570472440945
0
LINE
8
BLACK
6
CONTINUOUS
10
1.744542559055118
20
-0.0628570472440945
11
1.7370435039370078
21
-0.0609822834645669
0
LINE
8
BLACK
6
CONTINUOUS
10
1.7370435039370078
20
-0.0609822834645669
11
1.7370009842519685
21
-0.0609670866141732
0
LINE
8
BLACK
6
CONTINUOUS
10
1.7370009842519685
20
-0.0609670866141732
11
1.7369797244094487
21
-0.0609655905511811
0
LINE
8
BLACK
6
CONTINUOUS
10
1.7369797244094487
20
-0.0609655905511811
11
1.7367399606299212
21
-0.0608738188976378
0
LINE
8
BLACK
6
CONTINUOUS
10
1.7367399606299212
20
-0.0608738188976378
11
1.7364983858267715
21
-0.0607875196850394
0
LINE
8
BLACK
6
CONTINUOUS
10
1.7364983858267715
20
-0.0607875196850394
11
1.7364812204724409
21
-0.0607748031496063
0
LINE
8
BLACK
6
CONTINUOUS
10
1.7364812204724409
20
-0.0607748031496063
11
1.7364391338582676
21
-0.0607587007874016
0
LINE
8
BLACK
6
CONTINUOUS
10
1.7364391338582676
20
-0.0607587007874016
11
1.7326896062992125
21
-0.058883937007874
0
LINE
8
BLACK
6
CONTINUOUS
10
1.7326896062992125
20
-0.058883937007874
11
1.7324415748031496
21
-0.0587278346456693
0
LINE
8
BLACK
6
CONTINUOUS
10
1.7324415748031496
20
-0.0587278346456693
11
1.7323696456692912
21
-0.058698031496063
0
LINE
8
BLACK
6
CONTINUOUS
10
1.7323696456692912
20
-0.058698031496063
11
1.7322886614173227
21
-0.0586315354330709
0
LINE
8
BLACK
6
CONTINUOUS
10
1.7322886614173227
20
-0.0586315354330709
11
1.7321997244094487
21
-0.0585755905511811
0
LINE
8
BLACK
6
CONTINUOUS
10
1.7321997244094487
20
-0.0585755905511811
11
1.7321485433070867
21
-0.0585165748031496
0
LINE
8
BLACK
6
CONTINUOUS
10
1.7321485433070867
20
-0.0585165748031496
11
1.7319222047244094
21
-0.0583308267716535
0
LINE
8
BLACK
6
CONTINUOUS
10
1.7319222047244094
20
-0.0583308267716535
11
1.7300474409448818
21
-0.056456062992126
0
LINE
8
BLACK
6
CONTINUOUS
10
1.7300474409448818
20
-0.056456062992126
11
1.7298616535433071
21
-0.0562296850393701
0
LINE
8
BLACK
6
CONTINUOUS
10
1.7298616535433071
20
-0.0562296850393701
11
1.7298026771653543
21
-0.0561785433070866
0
LINE
8
BLACK
6
CONTINUOUS
10
1.7298026771653543
20
-0.0561785433070866
11
1.7297466929133858
21
-0.0560895669291339
0
LINE
8
BLACK
6
CONTINUOUS
10
1.7297466929133858
20
-0.0560895669291339
11
1.7296802362204724
21
-0.0560086220472441
0
LINE
8
BLACK
6
CONTINUOUS
10
1.7296802362204724
20
-0.0560086220472441
11
1.7296503937007874
21
-0.0559366535433071
0
LINE
8
BLACK
6
CONTINUOUS
10
1.7296503937007874
20
-0.0559366535433071
11
1.7294943307086614
21
-0.0556886614173228
0
LINE
8
BLACK
6
CONTINUOUS
10
1.7294943307086614
20
-0.0556886614173228
11
1.7276195669291339
21
-0.0519391338582677
0
LINE
8
BLACK
6
CONTINUOUS
10
1.7276195669291339
20
-0.0519391338582677
11
1.7274126771653542
21
-0.0513985039370079
0
LINE
8
BLACK
6
CONTINUOUS
10
1.7274126771653542
20
-0.0513985039370079
11
1.7274051574803149
21
-0.0512926771653543
0
LINE
8
BLACK
6
CONTINUOUS
10
1.7274051574803149
20
-0.0512926771653543
11
1.7273645669291338
21
-0.0511946850393701
0
LINE
8
BLACK
6
CONTINUOUS
10
1.7273645669291338
20
-0.0511946850393701
11
1.7273078346456692
21
-0.0506186220472441
0
LINE
8
BLACK
6
CONTINUOUS
10
1.7273078346456692
20
-0.0506186220472441
11
1.7273078346456692
21
-0.046869094488189
0
LINE
8
BLACK
6
CONTINUOUS
10
1.7273078346456692
20
-0.046869094488189
11
1.7273645669291338
21
-0.046293031496063
0
LINE
8
BLACK
6
CONTINUOUS
10
1.7273645669291338
20
-0.046293031496063
11
1.7274051574803149
21
-0.046195
0
LINE
8
BLACK
6
CONTINUOUS
10
1.7274051574803149
20
-0.046195
11
1.7274126771653542
21
-0.0460892125984252
0
LINE
8
BLACK
6
CONTINUOUS
10
1.7274126771653542
20
-0.0460892125984252
11
1.7276195669291339
21
-0.0455485826771654
0
LINE
8
BLACK
6
CONTINUOUS
10
1.7276195669291339
20
-0.0455485826771654
11
1.7294943307086614
21
-0.0417990551181102
0
LINE
8
BLACK
6
CONTINUOUS
10
1.7294943307086614
20
-0.0417990551181102
11
1.7296503937007874
21
-0.0415510236220472
0
LINE
8
BLACK
6
CONTINUOUS
10
1.7296503937007874
20
-0.0415510236220472
11
1.7296802362204724
21
-0.041479094488189
0
LINE
8
BLACK
6
CONTINUOUS
10
1.7296802362204724
20
-0.041479094488189
11
1.7297466929133858
21
-0.0413981102362205
0
LINE
8
BLACK
6
CONTINUOUS
10
1.7297466929133858
20
-0.0413981102362205
11
1.7298026771653543
21
-0.0413091732283465
0
LINE
8
BLACK
6
CONTINUOUS
10
1.7298026771653543
20
-0.0413091732283465
11
1.7298616535433071
21
-0.0412579921259843
0
LINE
8
BLACK
6
CONTINUOUS
10
1.7298616535433071
20
-0.0412579921259843
11
1.7300474409448818
21
-0.0410316535433071
0
LINE
8
BLACK
6
CONTINUOUS
10
1.7300474409448818
20
-0.0410316535433071
11
1.7319222047244094
21
-0.0391568897637795
0
LINE
8
BLACK
6
CONTINUOUS
10
1.7319222047244094
20
-0.0391568897637795
11
1.7321485433070867
21
-0.0389711023622047
0
LINE
8
BLACK
6
CONTINUOUS
10
1.7321485433070867
20
-0.0389711023622047
11
1.7321997244094487
21
-0.038912125984252
0
LINE
8
BLACK
6
CONTINUOUS
10
1.7321997244094487
20
-0.038912125984252
11
1.7322886614173227
21
-0.0388561417322835
0
LINE
8
BLACK
6
CONTINUOUS
10
1.7322886614173227
20
-0.0388561417322835
11
1.7323696456692912
21
-0.0387896850393701
0
LINE
8
BLACK
6
CONTINUOUS
10
1.7323696456692912
20
-0.0387896850393701
11
1.7324415748031496
21
-0.038759842519685
0
LINE
8
BLACK
6
CONTINUOUS
10
1.7324415748031496
20
-0.038759842519685
11
1.7326896062992125
21
-0.0386037795275591
0
LINE
8
BLACK
6
CONTINUOUS
10
1.7326896062992125
20
-0.0386037795275591
11
1.7364391338582676
21
-0.0367290157480315
0
LINE
8
BLACK
6
CONTINUOUS
10
1.7364391338582676
20
-0.0367290157480315
11
1.7364812204724409
21
-0.036712874015748
0
LINE
8
BLACK
6
CONTINUOUS
10
1.7364812204724409
20
-0.036712874015748
11
1.7364983858267715
21
-0.0367001968503937
0
LINE
8
BLACK
6
CONTINUOUS
10
1.7364983858267715
20
-0.0367001968503937
11
1.7367399606299212
21
-0.0366138582677165
0
LINE
8
BLACK
6
CONTINUOUS
10
1.7367399606299212
20
-0.0366138582677165
11
1.7369797244094487
21
-0.036522125984252
0
LINE
8
BLACK
6
CONTINUOUS
10
1.7369797244094487
20
-0.036522125984252
11
1.7370009842519685
21
-0.0365205905511811
0
LINE
8
BLACK
6
CONTINUOUS
10
1.7370009842519685
20
-0.0365205905511811
11
1.7370435039370078
21
-0.0365054330708661
0
LINE
8
BLACK
6
CONTINUOUS
10
1.7370435039370078
20
-0.0365054330708661
11
1.744542559055118
21
-0.0346306692913386
0
LINE
8
BLACK
6
CONTINUOUS
10
1.744542559055118
20
-0.0346306692913386
11
1.7446424015748032
21
-0.0346158661417323
0
LINE
8
BLACK
6
CONTINUOUS
10
1.7446424015748032
20
-0.0346158661417323
11
1.7446826377952755
21
-0.0345992519685039
0
LINE
8
BLACK
6
CONTINUOUS
10
1.7446826377952755
20
-0.0345992519685039
11
1.7448996456692913
21
-0.034577874015748
0
LINE
8
BLACK
6
CONTINUOUS
10
1.7448996456692913
20
-0.034577874015748
11
1.745115157480315
21
-0.0345460236220472
0
LINE
8
BLACK
6
CONTINUOUS
10
1.745115157480315
20
-0.0345460236220472
11
1.7451581496062991
21
-0.0345524015748031
0
LINE
8
BLACK
6
CONTINUOUS
10
1.7451581496062991
20
-0.0345524015748031
11
1.7452587007874016
21
-0.0345425196850394
0
LINE
8
BLACK
6
CONTINUOUS
10
1.7452587007874016
20
-0.0345425196850394
11
1.7546325196850394
21
-0.0345425196850394
0
LINE
8
BLACK
6
CONTINUOUS
10
1.7546325196850394
20
-0.0345425196850394
11
1.754733031496063
21
-0.0345524015748031
0
LINE
8
BLACK
6
CONTINUOUS
10
1.7387901968503936
20
-0.0421560236220472
11
1.7357592125984251
21
-0.0436715354330709
0
LINE
8
BLACK
6
CONTINUOUS
10
1.7357592125984251
20
-0.0436715354330709
11
1.7345620866141731
21
-0.0448686614173228
0
LINE
8
BLACK
6
CONTINUOUS
10
1.7345620866141731
20
-0.0448686614173228
11
1.7332133464566928
21
-0.0475661417322835
0
LINE
8
BLACK
6
CONTINUOUS
10
1.7332133464566928
20
-0.0475661417322835
11
1.7332133464566928
21
-0.0499215748031496
0
LINE
8
BLACK
6
CONTINUOUS
10
1.7332133464566928
20
-0.0499215748031496
11
1.7345620866141731
21
-0.0526190551181102
0
LINE
8
BLACK
6
CONTINUOUS
10
1.7345620866141731
20
-0.0526190551181102
11
1.7357592125984251
21
-0.0538161811023622
0
LINE
8
BLACK
6
CONTINUOUS
10
1.7357592125984251
20
-0.0538161811023622
11
1.7387901968503936
21
-0.0553316535433071
0
LINE
8
BLACK
6
CONTINUOUS
10
1.7387901968503936
20
-0.0553316535433071
11
1.7456222440944882
21
-0.0570396850393701
0
LINE
8
BLACK
6
CONTINUOUS
10
1.7456222440944882
20
-0.0570396850393701
11
1.7542689763779526
21
-0.0570396850393701
0
LINE
8
BLACK
6
CONTINUOUS
10
1.7542689763779526
20
-0.0570396850393701
11
1.7611010236220472
21
-0.0553316535433071
0
LINE
8
BLACK
6
CONTINUOUS
10
1.7611010236220472
20
-0.0553316535433071
11
1.7641320078740157
21
-0.0538161417322835
0
LINE
8
BLACK
6
CONTINUOUS
10
1.7641320078740157
20
-0.0538161417322835
11
1.7653291732283465
21
-0.0526190157480315
0
LINE
8
BLACK
6
CONTINUOUS
10
1.7653291732283465
20
-0.0526190157480315
11
1.7666779133858268
21
-0.0499215748031496
0
LINE
8
BLACK
6
CONTINUOUS
10
1.7666779133858268
20
-0.0499215748031496
11
1.7666779133858268
21
-0.0475661417322835
0
LINE
8
BLACK
6
CONTINUOUS
10
1.7666779133858268
20
-0.0475661417322835
11
1.7653291732283465
21
-0.0448686614173228
0
LINE
8
BLACK
6
CONTINUOUS
10
1.7653291732283465
20
-0.0448686614173228
11
1.7641320078740157
21
-0.0436715354330709
0
LINE
8
BLACK
6
CONTINUOUS
10
1.7641320078740157
20
-0.0436715354330709
11
1.7611010236220472
21
-0.0421560236220472
0
LINE
8
BLACK
6
CONTINUOUS
10
1.7611010236220472
20
-0.0421560236220472
11
1.7542689763779526
21
-0.040448031496063
0
LINE
8
BLACK
6
CONTINUOUS
10
1.7542689763779526
20
-0.040448031496063
11
1.7456222440944882
21
-0.040448031496063
0
LINE
8
BLACK
6
CONTINUOUS
10
1.7456222440944882
20
-0.040448031496063
11
1.7387901968503936
21
-0.0421560236220472
0
LINE
8
BLACK
6
CONTINUOUS
10
-1.7706037007874016
20
-0.0444138976377953
11
-1.7706036220472441
21
-0.044413937007874
0
LINE
8
BLACK
6
CONTINUOUS
10
-1.7706036220472441
20
-0.044413937007874
11
-1.7701561811023621
21
-0.0447811417322835
0
LINE
8
BLACK
6
CONTINUOUS
10
-1.7701561811023621
20
-0.0447811417322835
11
-1.7682814173228345
21
-0.046655905511811
0
LINE
8
BLACK
6
CONTINUOUS
10
-1.7682814173228345
20
-0.046655905511811
11
-1.7679142125984251
21
-0.0471033464566929
0
LINE
8
BLACK
6
CONTINUOUS
10
-1.7679142125984251
20
-0.0471033464566929
11
-1.7677726377952756
21
-0.0474451181102362
0
LINE
8
BLACK
6
CONTINUOUS
10
-1.7677726377952756
20
-0.0474451181102362
11
-1.7674733070866142
21
-0.0481677952755905
0
LINE
8
BLACK
6
CONTINUOUS
10
-1.7674733070866142
20
-0.0481677952755905
11
-1.7674733070866142
21
-0.0493198818897638
0
LINE
8
BLACK
6
CONTINUOUS
10
-1.7674733070866142
20
-0.0493198818897638
11
-1.7679142125984251
21
-0.0503842913385827
0
LINE
8
BLACK
6
CONTINUOUS
10
-1.7679142125984251
20
-0.0503842913385827
11
-1.7682814173228345
21
-0.0508317322834646
0
LINE
8
BLACK
6
CONTINUOUS
10
-1.7682814173228345
20
-0.0508317322834646
11
-1.7701561811023621
21
-0.0527064960629921
0
LINE
8
BLACK
6
CONTINUOUS
10
-1.7701561811023621
20
-0.0527064960629921
11
-1.7706036220472441
21
-0.0530737007874016
0
LINE
8
BLACK
6
CONTINUOUS
10
-1.7706036220472441
20
-0.0530737007874016
11
-1.7716680314960629
21
-0.0535146062992126
0
LINE
8
BLACK
6
CONTINUOUS
10
-1.7716680314960629
20
-0.0535146062992126
11
-1.7728201181102361
21
-0.0535146062992126
0
LINE
8
BLACK
6
CONTINUOUS
10
-1.7728201181102361
20
-0.0535146062992126
11
-1.7738845275590551
21
-0.0530737401574803
0
LINE
8
BLACK
6
CONTINUOUS
10
-1.7738845275590551
20
-0.0530737401574803
11
-1.7743320078740157
21
-0.0527064960629921
0
LINE
8
BLACK
6
CONTINUOUS
10
-1.7743320078740157
20
-0.0527064960629921
11
-1.7762067716535432
21
-0.0508317716535433
0
LINE
8
BLACK
6
CONTINUOUS
10
-1.7762067716535432
20
-0.0508317716535433
11
-1.7765740157480314
21
-0.0503842913385827
0
LINE
8
BLACK
6
CONTINUOUS
10
-1.7765740157480314
20
-0.0503842913385827
11
-1.7765740551181102
21
-0.0503842519685039
0
LINE
8
BLACK
6
CONTINUOUS
10
-1.7765740551181102
20
-0.0503842519685039
11
-1.7770149212598425
21
-0.049319842519685
0
LINE
8
BLACK
6
CONTINUOUS
10
-1.7770149212598425
20
-0.049319842519685
11
-1.7770149212598425
21
-0.0481677559055118
0
LINE
8
BLACK
6
CONTINUOUS
10
-1.7770149212598425
20
-0.0481677559055118
11
-1.7767155905511811
21
-0.0474451181102362
0
LINE
8
BLACK
6
CONTINUOUS
10
-1.7767155905511811
20
-0.0474451181102362
11
-1.7765740551181102
21
-0.0471033858267717
0
LINE
8
BLACK
6
CONTINUOUS
10
-1.7765740551181102
20
-0.0471033858267717
11
-1.7765740157480314
21
-0.0471033464566929
0
LINE
8
BLACK
6
CONTINUOUS
10
-1.7765740157480314
20
-0.0471033464566929
11
-1.7762067716535432
21
-0.0466558661417323
0
LINE
8
BLACK
6
CONTINUOUS
10
-1.7762067716535432
20
-0.0466558661417323
11
-1.7743320078740157
21
-0.0447811417322835
0
LINE
8
BLACK
6
CONTINUOUS
10
-1.7743320078740157
20
-0.0447811417322835
11
-1.7738845275590551
21
-0.0444138976377953
0
LINE
8
BLACK
6
CONTINUOUS
10
-1.7738845275590551
20
-0.0444138976377953
11
-1.7728201181102361
21
-0.043973031496063
0
LINE
8
BLACK
6
CONTINUOUS
10
-1.7728201181102361
20
-0.043973031496063
11
-1.7716680314960629
21
-0.043973031496063
0
LINE
8
BLACK
6
CONTINUOUS
10
-1.7716680314960629
20
-0.043973031496063
11
-1.7706037007874016
21
-0.0444138976377953
0
LINE
8
BLACK
6
CONTINUOUS
10
-1.7687288582677165
20
-0.0069186614173228
11
-1.7679142125984251
21
-0.0077333070866142
0
LINE
8
BLACK
6
CONTINUOUS
10
-1.7679142125984251
20
-0.0077333070866142
11
-1.7674733070866142
21
-0.0087977165354331
0
LINE
8
BLACK
6
CONTINUOUS
10
-1.7674733070866142
20
-0.0087977165354331
11
-1.7674165748031496
21
-0.0093737795275591
0
LINE
8
BLACK
6
CONTINUOUS
10
-1.7674165748031496
20
-0.0093737795275591
11
-1.7674165748031496
21
-0.0318709448818898
0
LINE
8
BLACK
6
CONTINUOUS
10
-1.7674165748031496
20
-0.0318709448818898
11
-1.7674733070866142
21
-0.0324470078740157
0
LINE
8
BLACK
6
CONTINUOUS
10
-1.7674733070866142
20
-0.0324470078740157
11
-1.7679142125984251
21
-0.0335114173228346
0
LINE
8
BLACK
6
CONTINUOUS
10
-1.7679142125984251
20
-0.0335114173228346
11
-1.7687288582677165
21
-0.034326062992126
0
LINE
8
BLACK
6
CONTINUOUS
10
-1.7687288582677165
20
-0.034326062992126
11
-1.7697932677165353
21
-0.034766968503937
0
LINE
8
BLACK
6
CONTINUOUS
10
-1.7697932677165353
20
-0.034766968503937
11
-1.7709453937007873
21
-0.034766968503937
0
LINE
8
BLACK
6
CONTINUOUS
10
-1.7709453937007873
20
-0.034766968503937
11
-1.7720098031496063
21
-0.034326062992126
0
LINE
8
BLACK
6
CONTINUOUS
10
-1.7720098031496063
20
-0.034326062992126
11
-1.7728244488188976
21
-0.0335114173228346
0
LINE
8
BLACK
6
CONTINUOUS
10
-1.7728244488188976
20
-0.0335114173228346
11
-1.7732653543307086
21
-0.0324470078740157
0
LINE
8
BLACK
6
CONTINUOUS
10
-1.7732653543307086
20
-0.0324470078740157
11
-1.7733220866141732
21
-0.0318709448818898
0
LINE
8
BLACK
6
CONTINUOUS
10
-1.7733220866141732
20
-0.0318709448818898
11
-1.7733220866141732
21
-0.0235751181102362
0
LINE
8
BLACK
6
CONTINUOUS
10
-1.7733220866141732
20
-0.0235751181102362
11
-1.8007360629921259
21
-0.0235751181102362
0
LINE
8
BLACK
6
CONTINUOUS
10
-1.8007360629921259
20
-0.0235751181102362
11
-1.7982776771653544
21
-0.0260335039370079
0
LINE
8
BLACK
6
CONTINUOUS
10
-1.7982776771653544
20
-0.0260335039370079
11
-1.7980918503937007
21
-0.0262598818897638
0
LINE
8
BLACK
6
CONTINUOUS
10
-1.7980918503937007
20
-0.0262598818897638
11
-1.7980329133858268
21
-0.0263110236220472
0
LINE
8
BLACK
6
CONTINUOUS
10
-1.7980329133858268
20
-0.0263110236220472
11
-1.7979770472440944
21
-0.0263997637795276
0
LINE
8
BLACK
6
CONTINUOUS
10
-1.7979770472440944
20
-0.0263997637795276
11
-1.7979104330708662
21
-0.0264809448818898
0
LINE
8
BLACK
6
CONTINUOUS
10
-1.7979104330708662
20
-0.0264809448818898
11
-1.797880590551181
21
-0.0265530708661417
0
LINE
8
BLACK
6
CONTINUOUS
10
-1.797880590551181
20
-0.0265530708661417
11
-1.7977245669291337
21
-0.026800905511811
0
LINE
8
BLACK
6
CONTINUOUS
10
-1.7977245669291337
20
-0.026800905511811
11
-1.7958498031496062
21
-0.0305504330708661
0
LINE
8
BLACK
6
CONTINUOUS
10
-1.7958498031496062
20
-0.0305504330708661
11
-1.7956429133858267
21
-0.0310910236220472
0
LINE
8
BLACK
6
CONTINUOUS
10
-1.7956429133858267
20
-0.0310910236220472
11
-1.7955612598425197
21
-0.0322402362204724
0
LINE
8
BLACK
6
CONTINUOUS
10
-1.7955612598425197
20
-0.0322402362204724
11
-1.7959255905511811
21
-0.0333332283464567
0
LINE
8
BLACK
6
CONTINUOUS
10
-1.7959255905511811
20
-0.0333332283464567
11
-1.7966804330708661
21
-0.0342035826771654
0
LINE
8
BLACK
6
CONTINUOUS
10
-1.7966804330708661
20
-0.0342035826771654
11
-1.7977109448818898
21
-0.0347188582677165
0
LINE
8
BLACK
6
CONTINUOUS
10
-1.7977109448818898
20
-0.0347188582677165
11
-1.7988601574803149
21
-0.0348005118110236
0
LINE
8
BLACK
6
CONTINUOUS
10
-1.7988601574803149
20
-0.0348005118110236
11
-1.7999531102362205
21
-0.0344361811023622
0
LINE
8
BLACK
6
CONTINUOUS
10
-1.7999531102362205
20
-0.0344361811023622
11
-1.8008235039370077
21
-0.0336813385826772
0
LINE
8
BLACK
6
CONTINUOUS
10
-1.8008235039370077
20
-0.0336813385826772
11
-1.8011318503937008
21
-0.0331914566929134
0
LINE
8
BLACK
6
CONTINUOUS
10
-1.8011318503937008
20
-0.0331914566929134
11
-1.8027923228346456
21
-0.0298705118110236
0
LINE
8
BLACK
6
CONTINUOUS
10
-1.8027923228346456
20
-0.0298705118110236
11
-1.8059962992125984
21
-0.0266665354330709
0
LINE
8
BLACK
6
CONTINUOUS
10
-1.8059962992125984
20
-0.0266665354330709
11
-1.8113773228346457
21
-0.0230792125984252
0
LINE
8
BLACK
6
CONTINUOUS
10
-1.8113773228346457
20
-0.0230792125984252
11
-1.8113790157480314
21
-0.0230778346456693
0
LINE
8
BLACK
6
CONTINUOUS
10
-1.8113790157480314
20
-0.0230778346456693
11
-1.8113798818897637
21
-0.0230774803149606
0
LINE
8
BLACK
6
CONTINUOUS
10
-1.8113798818897637
20
-0.0230774803149606
11
-1.8113819291338582
21
-0.0230754330708661
0
LINE
8
BLACK
6
CONTINUOUS
10
-1.8113819291338582
20
-0.0230754330708661
11
-1.811825157480315
21
-0.0227124409448819
0
LINE
8
BLACK
6
CONTINUOUS
10
-1.811825157480315
20
-0.0227124409448819
11
-1.8119878346456693
21
-0.0224695275590551
0
LINE
8
BLACK
6
CONTINUOUS
10
-1.8119878346456693
20
-0.0224695275590551
11
-1.812194527559055
21
-0.0222628346456693
0
LINE
8
BLACK
6
CONTINUOUS
10
-1.812194527559055
20
-0.0222628346456693
11
-1.8123052755905511
21
-0.0219955118110236
0
LINE
8
BLACK
6
CONTINUOUS
10
-1.8123052755905511
20
-0.0219955118110236
11
-1.8124662204724409
21
-0.021755157480315
0
LINE
8
BLACK
6
CONTINUOUS
10
-1.8124662204724409
20
-0.021755157480315
11
-1.8125235826771653
21
-0.0214685039370079
0
LINE
8
BLACK
6
CONTINUOUS
10
-1.8125235826771653
20
-0.0214685039370079
11
-1.8126354330708661
21
-0.0211984251968504
0
LINE
8
BLACK
6
CONTINUOUS
10
-1.8126354330708661
20
-0.0211984251968504
11
-1.8126354330708661
21
-0.020909094488189
0
LINE
8
BLACK
6
CONTINUOUS
10
-1.8126354330708661
20
-0.020909094488189
11
-1.8126921653543306
21
-0.0206254724409449
0
LINE
8
BLACK
6
CONTINUOUS
10
-1.8126921653543306
20
-0.0206254724409449
11
-1.8126354330708661
21
-0.0203386614173228
0
LINE
8
BLACK
6
CONTINUOUS
10
-1.8126354330708661
20
-0.0203386614173228
11
-1.8126354330708661
21
-0.0200462992125984
0
LINE
8
BLACK
6
CONTINUOUS
10
-1.8126354330708661
20
-0.0200462992125984
11
-1.8125247244094487
21
-0.0197790157480315
0
LINE
8
BLACK
6
CONTINUOUS
10
-1.8125247244094487
20
-0.0197790157480315
11
-1.8124685826771654
21
-0.0194952362204724
0
LINE
8
BLACK
6
CONTINUOUS
10
-1.8124685826771654
20
-0.0194952362204724
11
-1.8123064173228347
21
-0.019251968503937
0
LINE
8
BLACK
6
CONTINUOUS
10
-1.8123064173228347
20
-0.019251968503937
11
-1.812194527559055
21
-0.0189818897637795
0
LINE
8
BLACK
6
CONTINUOUS
10
-1.812194527559055
20
-0.0189818897637795
11
-1.81199
21
-0.0187773228346457
0
LINE
8
BLACK
6
CONTINUOUS
10
-1.81199
20
-0.0187773228346457
11
-1.8118294881889763
21
-0.0185366141732283
0
LINE
8
BLACK
6
CONTINUOUS
10
-1.8118294881889763
20
-0.0185366141732283
11
-1.8115866141732284
21
-0.018373937007874
0
LINE
8
BLACK
6
CONTINUOUS
10
-1.8115866141732284
20
-0.018373937007874
11
-1.8113798818897637
21
-0.0181672440944882
0
LINE
8
BLACK
6
CONTINUOUS
10
-1.8113798818897637
20
-0.0181672440944882
11
-1.8111125984251968
21
-0.0180564960629921
0
LINE
8
BLACK
6
CONTINUOUS
10
-1.8111125984251968
20
-0.0180564960629921
11
-1.8108722047244095
21
-0.0178955511811024
0
LINE
8
BLACK
6
CONTINUOUS
10
-1.8108722047244095
20
-0.0178955511811024
11
-1.810585590551181
21
-0.017838188976378
0
LINE
8
BLACK
6
CONTINUOUS
10
-1.810585590551181
20
-0.017838188976378
11
-1.8103154724409449
21
-0.0177263385826772
0
LINE
8
BLACK
6
CONTINUOUS
10
-1.8103154724409449
20
-0.0177263385826772
11
-1.8097455511811023
21
-0.0176701968503937
0
LINE
8
BLACK
6
CONTINUOUS
10
-1.8097455511811023
20
-0.0176701968503937
11
-1.8097425196850394
21
-0.0176696062992126
0
LINE
8
BLACK
6
CONTINUOUS
10
-1.8097425196850394
20
-0.0176696062992126
11
-1.8097414960629921
21
-0.0176698031496063
0
LINE
8
BLACK
6
CONTINUOUS
10
-1.8097414960629921
20
-0.0176698031496063
11
-1.8097394094488188
21
-0.0176696062992126
0
LINE
8
BLACK
6
CONTINUOUS
10
-1.8097394094488188
20
-0.0176696062992126
11
-1.7733220866141732
21
-0.0176696062992126
0
LINE
8
BLACK
6
CONTINUOUS
10
-1.7733220866141732
20
-0.0176696062992126
11
-1.7733220866141732
21
-0.0093737795275591
0
LINE
8
BLACK
6
CONTINUOUS
10
-1.7733220866141732
20
-0.0093737795275591
11
-1.7732653543307086
21
-0.0087977165354331
0
LINE
8
BLACK
6
CONTINUOUS
10
-1.7732653543307086
20
-0.0087977165354331
11
-1.7728244488188976
21
-0.0077333070866142
0
LINE
8
BLACK
6
CONTINUOUS
10
-1.7728244488188976
20
-0.0077333070866142
11
-1.7720098031496063
21
-0.0069186614173228
0
LINE
8
BLACK
6
CONTINUOUS
10
-1.7720098031496063
20
-0.0069186614173228
11
-1.7709453937007873
21
-0.0064777559055118
0
LINE
8
BLACK
6
CONTINUOUS
10
-1.7709453937007873
20
-0.0064777559055118
11
-1.7697932677165353
21
-0.0064777559055118
0
LINE
8
BLACK
6
CONTINUOUS
10
-1.7697932677165353
20
-0.0064777559055118
11
-1.7687288582677165
21
-0.0069186614173228
0
LINE
8
BLACK
6
CONTINUOUS
10
1.7702067322834645
20
0.0460157086614173
11
1.7712711417322835
21
0.0455748031496063
0
LINE
8
BLACK
6
CONTINUOUS
10
1.7712711417322835
20
0.0455748031496063
11
1.7720857874015747
21
0.044760157480315
0
LINE
8
BLACK
6
CONTINUOUS
10
1.7720857874015747
20
0.044760157480315
11
1.7725266929133858
21
0.0436957480314961
0
LINE
8
BLACK
6
CONTINUOUS
10
1.7725266929133858
20
0.0436957480314961
11
1.7725266929133858
21
0.0425436220472441
0
LINE
8
BLACK
6
CONTINUOUS
10
1.7725266929133858
20
0.0425436220472441
11
1.7720857874015747
21
0.0414792125984252
0
LINE
8
BLACK
6
CONTINUOUS
10
1.7720857874015747
20
0.0414792125984252
11
1.7712711417322835
21
0.0406645669291339
0
LINE
8
BLACK
6
CONTINUOUS
10
1.7712711417322835
20
0.0406645669291339
11
1.7702067322834645
21
0.0402236614173228
0
LINE
8
BLACK
6
CONTINUOUS
10
1.7702067322834645
20
0.0402236614173228
11
1.7696306692913386
21
0.0401669291338583
0
LINE
8
BLACK
6
CONTINUOUS
10
1.7696306692913386
20
0.0401669291338583
11
1.7497052755905511
21
0.0401669291338583
0
LINE
8
BLACK
6
CONTINUOUS
10
1.7497052755905511
20
0.0401669291338583
11
1.747459527559055
21
0.039044094488189
0
LINE
8
BLACK
6
CONTINUOUS
10
1.747459527559055
20
0.039044094488189
11
1.7463366929133859
21
0.0367983464566929
0
LINE
8
BLACK
6
CONTINUOUS
10
1.7463366929133859
20
0.0367983464566929
11
1.7463366929133859
21
0.0325681102362205
0
LINE
8
BLACK
6
CONTINUOUS
10
1.7463366929133859
20
0.0325681102362205
11
1.747459527559055
21
0.0303224015748031
0
LINE
8
BLACK
6
CONTINUOUS
10
1.747459527559055
20
0.0303224015748031
11
1.7497052755905511
21
0.0291995275590551
0
LINE
8
BLACK
6
CONTINUOUS
10
1.7497052755905511
20
0.0291995275590551
11
1.7696306692913386
21
0.0291995275590551
0
LINE
8
BLACK
6
CONTINUOUS
10
1.7696306692913386
20
0.0291995275590551
11
1.7702067322834645
21
0.0291427952755905
0
LINE
8
BLACK
6
CONTINUOUS
10
1.7702067322834645
20
0.0291427952755905
11
1.7712711417322835
21
0.0287018897637795
0
LINE
8
BLACK
6
CONTINUOUS
10
1.7712711417322835
20
0.0287018897637795
11
1.7720857874015747
21
0.0278872440944882
0
LINE
8
BLACK
6
CONTINUOUS
10
1.7720857874015747
20
0.0278872440944882
11
1.7725266929133858
21
0.0268228346456693
0
LINE
8
BLACK
6
CONTINUOUS
10
1.7725266929133858
20
0.0268228346456693
11
1.7725266929133858
21
0.0256707086614173
0
LINE
8
BLACK
6
CONTINUOUS
10
1.7725266929133858
20
0.0256707086614173
11
1.7720857874015747
21
0.0246062992125984
0
LINE
8
BLACK
6
CONTINUOUS
10
1.7720857874015747
20
0.0246062992125984
11
1.7712711417322835
21
0.0237916535433071
0
LINE
8
BLACK
6
CONTINUOUS
10
1.7712711417322835
20
0.0237916535433071
11
1.7702067322834645
21
0.0233507480314961
0
LINE
8
BLACK
6
CONTINUOUS
10
1.7702067322834645
20
0.0233507480314961
11
1.7696306692913386
21
0.0232940157480315
0
LINE
8
BLACK
6
CONTINUOUS
10
1.7696306692913386
20
0.0232940157480315
11
1.7497052755905511
21
0.0232940157480315
0
LINE
8
BLACK
6
CONTINUOUS
10
1.7497052755905511
20
0.0232940157480315
11
1.747459527559055
21
0.0221711811023622
0
LINE
8
BLACK
6
CONTINUOUS
10
1.747459527559055
20
0.0221711811023622
11
1.7463366929133859
21
0.0199254330708661
0
LINE
8
BLACK
6
CONTINUOUS
10
1.7463366929133859
20
0.0199254330708661
11
1.7463366929133859
21
0.0156952362204724
0
LINE
8
BLACK
6
CONTINUOUS
10
1.7463366929133859
20
0.0156952362204724
11
1.7476854330708662
21
0.0129977559055118
0
LINE
8
BLACK
6
CONTINUOUS
10
1.7476854330708662
20
0.0129977559055118
11
1.7483565354330708
21
0.0123266535433071
0
LINE
8
BLACK
6
CONTINUOUS
10
1.7483565354330708
20
0.0123266535433071
11
1.7696306692913386
21
0.0123266535433071
0
LINE
8
BLACK
6
CONTINUOUS
10
1.7696306692913386
20
0.0123266535433071
11
1.7702067322834645
21
0.0122699212598425
0
LINE
8
BLACK
6
CONTINUOUS
10
1.7702067322834645
20
0.0122699212598425
11
1.7712711417322835
21
0.0118290157480315
0
LINE
8
BLACK
6
CONTINUOUS
10
1.7712711417322835
20
0.0118290157480315
11
1.7720857874015747
21
0.0110143700787402
0
LINE
8
BLACK
6
CONTINUOUS
10
1.7720857874015747
20
0.0110143700787402
11
1.7725266929133858
21
0.0099499606299213
0
LINE
8
BLACK
6
CONTINUOUS
10
1.7725266929133858
20
0.0099499606299213
11
1.7725266929133858
21
0.0087978346456693
0
LINE
8
BLACK
6
CONTINUOUS
10
1.7725266929133858
20
0.0087978346456693
11
1.7720857874015747
21
0.0077334251968504
0
LINE
8
BLACK
6
CONTINUOUS
10
1.7720857874015747
20
0.0077334251968504
11
1.7712711417322835
21
0.0069187795275591
0
LINE
8
BLACK
6
CONTINUOUS
10
1.7712711417322835
20
0.0069187795275591
11
1.7702067322834645
21
0.006477874015748
0
LINE
8
BLACK
6
CONTINUOUS
10
1.7702067322834645
20
0.006477874015748
11
1.7696306692913386
21
0.0064211417322835
0
LINE
8
BLACK
6
CONTINUOUS
10
1.7696306692913386
20
0.0064211417322835
11
1.7433839370078741
21
0.0064211417322835
0
LINE
8
BLACK
6
CONTINUOUS
10
1.7433839370078741
20
0.0064211417322835
11
1.742807874015748
21
0.006477874015748
0
LINE
8
BLACK
6
CONTINUOUS
10
1.742807874015748
20
0.006477874015748
11
1.7417434645669292
21
0.0069187795275591
0
LINE
8
BLACK
6
CONTINUOUS
10
1.7417434645669292
20
0.0069187795275591
11
1.7409288188976377
21
0.0077334251968504
0
LINE
8
BLACK
6
CONTINUOUS
10
1.7409288188976377
20
0.0077334251968504
11
1.7404879133858266
21
0.0087978346456693
0
LINE
8
BLACK
6
CONTINUOUS
10
1.7404879133858266
20
0.0087978346456693
11
1.7404879133858266
21
0.0099499606299213
0
LINE
8
BLACK
6
CONTINUOUS
10
1.7404879133858266
20
0.0099499606299213
11
1.7409288188976377
21
0.0110143700787402
0
LINE
8
BLACK
6
CONTINUOUS
10
1.7409288188976377
20
0.0110143700787402
11
1.7416926377952755
21
0.0117782283464567
0
LINE
8
BLACK
6
CONTINUOUS
10
1.7416926377952755
20
0.0117782283464567
11
1.7407429133858268
21
0.0136776771653543
0
LINE
8
BLACK
6
CONTINUOUS
10
1.7407429133858268
20
0.0136776771653543
11
1.7405360236220473
21
0.0142183070866142
0
LINE
8
BLACK
6
CONTINUOUS
10
1.7405360236220473
20
0.0142183070866142
11
1.7405285039370078
21
0.0143241338582677
0
LINE
8
BLACK
6
CONTINUOUS
10
1.7405285039370078
20
0.0143241338582677
11
1.7404879133858266
21
0.014422125984252
0
LINE
8
BLACK
6
CONTINUOUS
10
1.7404879133858266
20
0.014422125984252
11
1.7404311811023621
21
0.014998188976378
0
LINE
8
BLACK
6
CONTINUOUS
10
1.7404311811023621
20
0.014998188976378
11
1.7404311811023621
21
0.0206224803149606
0
LINE
8
BLACK
6
CONTINUOUS
10
1.7404311811023621
20
0.0206224803149606
11
1.7404879133858266
21
0.0211985433070866
0
LINE
8
BLACK
6
CONTINUOUS
10
1.7404879133858266
20
0.0211985433070866
11
1.7405285039370078
21
0.0212965748031496
0
LINE
8
BLACK
6
CONTINUOUS
10
1.7405285039370078
20
0.0212965748031496
11
1.7405360236220473
21
0.0214023622047244
0
LINE
8
BLACK
6
CONTINUOUS
10
1.7405360236220473
20
0.0214023622047244
11
1.7407429133858268
21
0.0219429921259843
0
LINE
8
BLACK
6
CONTINUOUS
10
1.7407429133858268
20
0.0219429921259843
11
1.7426176771653543
21
0.0256925196850394
0
LINE
8
BLACK
6
CONTINUOUS
10
1.7426176771653543
20
0.0256925196850394
11
1.7426783070866141
21
0.0257888976377953
0
LINE
8
BLACK
6
CONTINUOUS
10
1.7426783070866141
20
0.0257888976377953
11
1.7426934645669292
21
0.0258342913385827
0
LINE
8
BLACK
6
CONTINUOUS
10
1.7426934645669292
20
0.0258342913385827
11
1.7427424803149605
21
0.0258908661417323
0
LINE
8
BLACK
6
CONTINUOUS
10
1.7427424803149605
20
0.0258908661417323
11
1.7429260236220472
21
0.0261824015748032
0
LINE
8
BLACK
6
CONTINUOUS
10
1.7429260236220472
20
0.0261824015748032
11
1.7430002362204724
21
0.0262467716535433
0
LINE
8
BLACK
6
CONTINUOUS
10
1.7430002362204724
20
0.0262467716535433
11
1.7429260236220472
21
0.0263111417322835
0
LINE
8
BLACK
6
CONTINUOUS
10
1.7429260236220472
20
0.0263111417322835
11
1.7427424803149605
21
0.0266027165354331
0
LINE
8
BLACK
6
CONTINUOUS
10
1.7427424803149605
20
0.0266027165354331
11
1.7426934645669292
21
0.0266592519685039
0
LINE
8
BLACK
6
CONTINUOUS
10
1.7426934645669292
20
0.0266592519685039
11
1.7426783070866141
21
0.0267046850393701
0
LINE
8
BLACK
6
CONTINUOUS
10
1.7426783070866141
20
0.0267046850393701
11
1.7426176771653543
21
0.0268010236220472
0
LINE
8
BLACK
6
CONTINUOUS
10
1.7426176771653543
20
0.0268010236220472
11
1.7407429133858268
21
0.0305505511811024
0
LINE
8
BLACK
6
CONTINUOUS
10
1.7407429133858268
20
0.0305505511811024
11
1.7405360236220473
21
0.0310911811023622
0
LINE
8
BLACK
6
CONTINUOUS
10
1.7405360236220473
20
0.0310911811023622
11
1.7405285039370078
21
0.0311970078740157
0
LINE
8
BLACK
6
CONTINUOUS
10
1.7405285039370078
20
0.0311970078740157
11
1.7404879133858266
21
0.031295
0
LINE
8
BLACK
6
CONTINUOUS
10
1.7404879133858266
20
0.031295
11
1.7404311811023621
21
0.031871062992126
0
LINE
8
BLACK
6
CONTINUOUS
10
1.7404311811023621
20
0.031871062992126
11
1.7404311811023621
21
0.0374953543307087
0
LINE
8
BLACK
6
CONTINUOUS
10
1.7404311811023621
20
0.0374953543307087
11
1.7404879133858266
21
0.0380714173228346
0
LINE
8
BLACK
6
CONTINUOUS
10
1.7404879133858266
20
0.0380714173228346
11
1.7405285039370078
21
0.0381694488188976
0
LINE
8
BLACK
6
CONTINUOUS
10
1.7405285039370078
20
0.0381694488188976
11
1.7405360236220473
21
0.0382752362204724
0
LINE
8
BLACK
6
CONTINUOUS
10
1.7405360236220473
20
0.0382752362204724
11
1.7407429133858268
21
0.0388158661417323
0
LINE
8
BLACK
6
CONTINUOUS
10
1.7407429133858268
20
0.0388158661417323
11
1.7426176771653543
21
0.0425654330708661
0
LINE
8
BLACK
6
CONTINUOUS
10
1.7426176771653543
20
0.0425654330708661
11
1.7426783070866141
21
0.0426617716535433
0
LINE
8
BLACK
6
CONTINUOUS
10
1.7426783070866141
20
0.0426617716535433
11
1.7426934645669292
21
0.0427072047244094
0
LINE
8
BLACK
6
CONTINUOUS
10
1.7426934645669292
20
0.0427072047244094
11
1.7427425196850392
21
0.0427638188976378
0
LINE
8
BLACK
6
CONTINUOUS
10
1.7427425196850392
20
0.0427638188976378
11
1.7429260236220472
21
0.0430552755905512
0
LINE
8
BLACK
6
CONTINUOUS
10
1.7429260236220472
20
0.0430552755905512
11
1.7432056299212597
21
0.0432977952755906
0
LINE
8
BLACK
6
CONTINUOUS
10
1.7432056299212597
20
0.0432977952755906
11
1.743448307086614
21
0.0435775984251969
0
LINE
8
BLACK
6
CONTINUOUS
10
1.743448307086614
20
0.0435775984251969
11
1.7437398425196851
21
0.0437611417322835
0
LINE
8
BLACK
6
CONTINUOUS
10
1.7437398425196851
20
0.0437611417322835
11
1.7437964173228346
21
0.043810157480315
0
LINE
8
BLACK
6
CONTINUOUS
10
1.7437964173228346
20
0.043810157480315
11
1.743841811023622
21
0.0438253149606299
0
LINE
8
BLACK
6
CONTINUOUS
10
1.743841811023622
20
0.0438253149606299
11
1.7439381889763779
21
0.0438859448818898
0
LINE
8
BLACK
6
CONTINUOUS
10
1.7439381889763779
20
0.0438859448818898
11
1.747687716535433
21
0.0457607086614173
0
LINE
8
BLACK
6
CONTINUOUS
10
1.747687716535433
20
0.0457607086614173
11
1.748228307086614
21
0.0459675984251968
0
LINE
8
BLACK
6
CONTINUOUS
10
1.748228307086614
20
0.0459675984251968
11
1.7483341732283464
21
0.045975157480315
0
LINE
8
BLACK
6
CONTINUOUS
10
1.7483341732283464
20
0.045975157480315
11
1.7484321653543307
21
0.0460157086614173
0
LINE
8
BLACK
6
CONTINUOUS
10
1.7484321653543307
20
0.0460157086614173
11
1.7490082283464568
21
0.0460724409448819
0
LINE
8
BLACK
6
CONTINUOUS
10
1.7490082283464568
20
0.0460724409448819
11
1.7696306692913386
21
0.0460724409448819
0
LINE
8
BLACK
6
CONTINUOUS
10
1.7696306692913386
20
0.0460724409448819
11
1.7702067322834645
21
0.0460157086614173
0
LINE
8
BLACK
6
CONTINUOUS
10
-1.7697932677165353
20
0.0741372047244094
11
-1.7687288582677165
21
0.0736962992125984
0
LINE
8
BLACK
6
CONTINUOUS
10
-1.7687288582677165
20
0.0736962992125984
11
-1.7679142125984251
21
0.0728816535433071
0
LINE
8
BLACK
6
CONTINUOUS
10
-1.7679142125984251
20
0.0728816535433071
11
-1.7674733070866142
21
0.0718172440944882
0
LINE
8
BLACK
6
CONTINUOUS
10
-1.7674733070866142
20
0.0718172440944882
11
-1.7674733070866142
21
0.0706651181102362
0
LINE
8
BLACK
6
CONTINUOUS
10
-1.7674733070866142
20
0.0706651181102362
11
-1.7679142125984251
21
0.0696007086614173
0
LINE
8
BLACK
6
CONTINUOUS
10
-1.7679142125984251
20
0.0696007086614173
11
-1.7687288582677165
21
0.068786062992126
0
LINE
8
BLACK
6
CONTINUOUS
10
-1.7687288582677165
20
0.068786062992126
11
-1.7697932677165353
21
0.068345157480315
0
LINE
8
BLACK
6
CONTINUOUS
10
-1.7697932677165353
20
0.068345157480315
11
-1.7703693307086614
21
0.0682884251968504
0
LINE
8
BLACK
6
CONTINUOUS
10
-1.7703693307086614
20
0.0682884251968504
11
-1.7902947244094487
21
0.0682884251968504
0
LINE
8
BLACK
6
CONTINUOUS
10
-1.7902947244094487
20
0.0682884251968504
11
-1.7925404724409448
21
0.0671655905511811
0
LINE
8
BLACK
6
CONTINUOUS
10
-1.7925404724409448
20
0.0671655905511811
11
-1.7936633070866141
21
0.064919842519685
0
LINE
8
BLACK
6
CONTINUOUS
10
-1.7936633070866141
20
0.064919842519685
11
-1.7936633070866141
21
0.0606896062992126
0
LINE
8
BLACK
6
CONTINUOUS
10
-1.7936633070866141
20
0.0606896062992126
11
-1.7925404724409448
21
0.0584438976377953
0
LINE
8
BLACK
6
CONTINUOUS
10
-1.7925404724409448
20
0.0584438976377953
11
-1.7902947244094487
21
0.0573210236220472
0
LINE
8
BLACK
6
CONTINUOUS
10
-1.7902947244094487
20
0.0573210236220472
11
-1.7703693307086614
21
0.0573210236220472
0
LINE
8
BLACK
6
CONTINUOUS
10
-1.7703693307086614
20
0.0573210236220472
11
-1.7697932677165353
21
0.0572642913385827
0
LINE
8
BLACK
6
CONTINUOUS
10
-1.7697932677165353
20
0.0572642913385827
11
-1.7687288582677165
21
0.0568233858267717
0
LINE
8
BLACK
6
CONTINUOUS
10
-1.7687288582677165
20
0.0568233858267717
11
-1.7679142125984251
21
0.0560087401574803
0
LINE
8
BLACK
6
CONTINUOUS
10
-1.7679142125984251
20
0.0560087401574803
11
-1.7674733070866142
21
0.0549443307086614
0
LINE
8
BLACK
6
CONTINUOUS
10
-1.7674733070866142
20
0.0549443307086614
11
-1.7674733070866142
21
0.0537922047244094
0
LINE
8
BLACK
6
CONTINUOUS
10
-1.7674733070866142
20
0.0537922047244094
11
-1.7679142125984251
21
0.0527277952755906
0
LINE
8
BLACK
6
CONTINUOUS
10
-1.7679142125984251
20
0.0527277952755906
11
-1.7687288582677165
21
0.0519131496062992
0
LINE
8
BLACK
6
CONTINUOUS
10
-1.7687288582677165
20
0.0519131496062992
11
-1.7697932677165353
21
0.0514722440944882
0
LINE
8
BLACK
6
CONTINUOUS
10
-1.7697932677165353
20
0.0514722440944882
11
-1.7703693307086614
21
0.0514155118110236
0
LINE
8
BLACK
6
CONTINUOUS
10
-1.7703693307086614
20
0.0514155118110236
11
-1.7902947244094487
21
0.0514155118110236
0
LINE
8
BLACK
6
CONTINUOUS
10
-1.7902947244094487
20
0.0514155118110236
11
-1.7925404724409448
21
0.0502926771653543
0
LINE
8
BLACK
6
CONTINUOUS
10
-1.7925404724409448
20
0.0502926771653543
11
-1.7936633070866141
21
0.0480469291338583
0
LINE
8
BLACK
6
CONTINUOUS
10
-1.7936633070866141
20
0.0480469291338583
11
-1.7936633070866141
21
0.0438167322834646
0
LINE
8
BLACK
6
CONTINUOUS
10
-1.7936633070866141
20
0.0438167322834646
11
-1.7923145669291338
21
0.0411192519685039
0
LINE
8
BLACK
6
CONTINUOUS
10
-1.7923145669291338
20
0.0411192519685039
11
-1.791643464566929
21
0.0404481496062992
0
LINE
8
BLACK
6
CONTINUOUS
10
-1.791643464566929
20
0.0404481496062992
11
-1.7703693307086614
21
0.0404481496062992
0
LINE
8
BLACK
6
CONTINUOUS
10
-1.7703693307086614
20
0.0404481496062992
11
-1.7697932677165353
21
0.0403914173228346
0
LINE
8
BLACK
6
CONTINUOUS
10
-1.7697932677165353
20
0.0403914173228346
11
-1.7687288582677165
21
0.0399505118110236
0
LINE
8
BLACK
6
CONTINUOUS
10
-1.7687288582677165
20
0.0399505118110236
11
-1.7679142125984251
21
0.0391358661417323
0
LINE
8
BLACK
6
CONTINUOUS
10
-1.7679142125984251
20
0.0391358661417323
11
-1.7674733070866142
21
0.0380714566929134
0
LINE
8
BLACK
6
CONTINUOUS
10
-1.7674733070866142
20
0.0380714566929134
11
-1.7674733070866142
21
0.0369193307086614
0
LINE
8
BLACK
6
CONTINUOUS
10
-1.7674733070866142
20
0.0369193307086614
11
-1.7679142125984251
21
0.0358549212598425
0
LINE
8
BLACK
6
CONTINUOUS
10
-1.7679142125984251
20
0.0358549212598425
11
-1.7687288582677165
21
0.0350402755905512
0
LINE
8
BLACK
6
CONTINUOUS
10
-1.7687288582677165
20
0.0350402755905512
11
-1.7697932677165353
21
0.0345993700787402
0
LINE
8
BLACK
6
CONTINUOUS
10
-1.7697932677165353
20
0.0345993700787402
11
-1.7703693307086614
21
0.0345426377952756
0
LINE
8
BLACK
6
CONTINUOUS
10
-1.7703693307086614
20
0.0345426377952756
11
-1.796616062992126
21
0.0345426377952756
0
LINE
8
BLACK
6
CONTINUOUS
10
-1.796616062992126
20
0.0345426377952756
11
-1.7971921259842518
21
0.0345993700787402
0
LINE
8
BLACK
6
CONTINUOUS
10
-1.7971921259842518
20
0.0345993700787402
11
-1.7982565354330708
21
0.0350402755905512
0
LINE
8
BLACK
6
CONTINUOUS
10
-1.7982565354330708
20
0.0350402755905512
11
-1.7990711811023621
21
0.0358549212598425
0
LINE
8
BLACK
6
CONTINUOUS
10
-1.7990711811023621
20
0.0358549212598425
11
-1.7995120866141732
21
0.0369193307086614
0
LINE
8
BLACK
6
CONTINUOUS
10
-1.7995120866141732
20
0.0369193307086614
11
-1.7995120866141732
21
0.0380714566929134
0
LINE
8
BLACK
6
CONTINUOUS
10
-1.7995120866141732
20
0.0380714566929134
11
-1.7990711811023621
21
0.0391358661417323
0
LINE
8
BLACK
6
CONTINUOUS
10
-1.7990711811023621
20
0.0391358661417323
11
-1.7983073622047243
21
0.0398997244094488
0
LINE
8
BLACK
6
CONTINUOUS
10
-1.7983073622047243
20
0.0398997244094488
11
-1.7992570866141733
21
0.0417991732283465
0
LINE
8
BLACK
6
CONTINUOUS
10
-1.7992570866141733
20
0.0417991732283465
11
-1.7994639763779527
21
0.0423398031496063
0
LINE
8
BLACK
6
CONTINUOUS
10
-1.7994639763779527
20
0.0423398031496063
11
-1.7994714960629921
21
0.0424456299212598
0
LINE
8
BLACK
6
CONTINUOUS
10
-1.7994714960629921
20
0.0424456299212598
11
-1.7995120866141732
21
0.0425436220472441
0
LINE
8
BLACK
6
CONTINUOUS
10
-1.7995120866141732
20
0.0425436220472441
11
-1.7995688188976378
21
0.0431196850393701
0
LINE
8
BLACK
6
CONTINUOUS
10
-1.7995688188976378
20
0.0431196850393701
11
-1.7995688188976378
21
0.0487439763779528
0
LINE
8
BLACK
6
CONTINUOUS
10
-1.7995688188976378
20
0.0487439763779528
11
-1.7995120866141732
21
0.0493200393700787
0
LINE
8
BLACK
6
CONTINUOUS
10
-1.7995120866141732
20
0.0493200393700787
11
-1.7994714960629921
21
0.0494180708661417
0
LINE
8
BLACK
6
CONTINUOUS
10
-1.7994714960629921
20
0.0494180708661417
11
-1.7994639763779527
21
0.0495238582677165
0
LINE
8
BLACK
6
CONTINUOUS
10
-1.7994639763779527
20
0.0495238582677165
11
-1.7992570866141733
21
0.0500644881889764
0
LINE
8
BLACK
6
CONTINUOUS
10
-1.7992570866141733
20
0.0500644881889764
11
-1.7973823228346457
21
0.0538140157480315
0
LINE
8
BLACK
6
CONTINUOUS
10
-1.7973823228346457
20
0.0538140157480315
11
-1.7973216929133857
21
0.0539103937007874
0
LINE
8
BLACK
6
CONTINUOUS
10
-1.7973216929133857
20
0.0539103937007874
11
-1.7973065354330708
21
0.0539557874015748
0
LINE
8
BLACK
6
CONTINUOUS
10
-1.7973065354330708
20
0.0539557874015748
11
-1.7972575196850393
21
0.0540123622047244
0
LINE
8
BLACK
6
CONTINUOUS
10
-1.7972575196850393
20
0.0540123622047244
11
-1.7970739763779526
21
0.0543038976377953
0
LINE
8
BLACK
6
CONTINUOUS
10
-1.7970739763779526
20
0.0543038976377953
11
-1.7969997637795274
21
0.0543682677165354
0
LINE
8
BLACK
6
CONTINUOUS
10
-1.7969997637795274
20
0.0543682677165354
11
-1.7970739763779526
21
0.0544326377952756
0
LINE
8
BLACK
6
CONTINUOUS
10
-1.7970739763779526
20
0.0544326377952756
11
-1.7972575196850393
21
0.0547242125984252
0
LINE
8
BLACK
6
CONTINUOUS
10
-1.7972575196850393
20
0.0547242125984252
11
-1.7973065354330708
21
0.0547807480314961
0
LINE
8
BLACK
6
CONTINUOUS
10
-1.7973065354330708
20
0.0547807480314961
11
-1.7973216929133857
21
0.0548261811023622
0
LINE
8
BLACK
6
CONTINUOUS
10
-1.7973216929133857
20
0.0548261811023622
11
-1.7973823228346457
21
0.0549225196850394
0
LINE
8
BLACK
6
CONTINUOUS
10
-1.7973823228346457
20
0.0549225196850394
11
-1.7992570866141733
21
0.0586720472440945
0
LINE
8
BLACK
6
CONTINUOUS
10
-1.7992570866141733
20
0.0586720472440945
11
-1.7994639763779527
21
0.0592126771653543
0
LINE
8
BLACK
6
CONTINUOUS
10
-1.7994639763779527
20
0.0592126771653543
11
-1.7994714960629921
21
0.0593185039370079
0
LINE
8
BLACK
6
CONTINUOUS
10
-1.7994714960629921
20
0.0593185039370079
11
-1.7995120866141732
21
0.0594164960629921
0
LINE
8
BLACK
6
CONTINUOUS
10
-1.7995120866141732
20
0.0594164960629921
11
-1.7995688188976378
21
0.0599925590551181
0
LINE
8
BLACK
6
CONTINUOUS
10
-1.7995688188976378
20
0.0599925590551181
11
-1.7995688188976378
21
0.0656168503937008
0
LINE
8
BLACK
6
CONTINUOUS
10
-1.7995688188976378
20
0.0656168503937008
11
-1.7995120866141732
21
0.0661929133858268
0
LINE
8
BLACK
6
CONTINUOUS
10
-1.7995120866141732
20
0.0661929133858268
11
-1.7994714960629921
21
0.0662909448818898
0
LINE
8
BLACK
6
CONTINUOUS
10
-1.7994714960629921
20
0.0662909448818898
11
-1.7994639763779527
21
0.0663967322834646
0
LINE
8
BLACK
6
CONTINUOUS
10
-1.7994639763779527
20
0.0663967322834646
11
-1.7992570866141733
21
0.0669373622047244
0
LINE
8
BLACK
6
CONTINUOUS
10
-1.7992570866141733
20
0.0669373622047244
11
-1.7973823228346457
21
0.0706869291338583
0
LINE
8
BLACK
6
CONTINUOUS
10
-1.7973823228346457
20
0.0706869291338583
11
-1.7973216929133857
21
0.0707832677165354
0
LINE
8
BLACK
6
CONTINUOUS
10
-1.7973216929133857
20
0.0707832677165354
11
-1.7973065354330708
21
0.0708287007874016
0
LINE
8
BLACK
6
CONTINUOUS
10
-1.7973065354330708
20
0.0708287007874016
11
-1.7972574803149606
21
0.0708853149606299
0
LINE
8
BLACK
6
CONTINUOUS
10
-1.7972574803149606
20
0.0708853149606299
11
-1.7970739763779526
21
0.0711767716535433
0
LINE
8
BLACK
6
CONTINUOUS
10
-1.7970739763779526
20
0.0711767716535433
11
-1.7967943700787401
21
0.0714192913385827
0
LINE
8
BLACK
6
CONTINUOUS
10
-1.7967943700787401
20
0.0714192913385827
11
-1.7965516929133858
21
0.071699094488189
0
LINE
8
BLACK
6
CONTINUOUS
10
-1.7965516929133858
20
0.071699094488189
11
-1.796260157480315
21
0.0718826377952756
0
LINE
8
BLACK
6
CONTINUOUS
10
-1.796260157480315
20
0.0718826377952756
11
-1.7962035826771654
21
0.0719316535433071
0
LINE
8
BLACK
6
CONTINUOUS
10
-1.7962035826771654
20
0.0719316535433071
11
-1.796158188976378
21
0.071946811023622
0
LINE
8
BLACK
6
CONTINUOUS
10
-1.796158188976378
20
0.071946811023622
11
-1.7960618110236219
21
0.0720074409448819
0
LINE
8
BLACK
6
CONTINUOUS
10
-1.7960618110236219
20
0.0720074409448819
11
-1.7923122834645668
21
0.0738822047244094
0
LINE
8
BLACK
6
CONTINUOUS
10
-1.7923122834645668
20
0.0738822047244094
11
-1.7917716929133858
21
0.074089094488189
0
LINE
8
BLACK
6
CONTINUOUS
10
-1.7917716929133858
20
0.074089094488189
11
-1.7916658267716534
21
0.0740966535433071
0
LINE
8
BLACK
6
CONTINUOUS
10
-1.7916658267716534
20
0.0740966535433071
11
-1.7915678346456692
21
0.0741372047244094
0
LINE
8
BLACK
6
CONTINUOUS
10
-1.7915678346456692
20
0.0741372047244094
11
-1.7909917716535433
21
0.074193937007874
0
LINE
8
BLACK
6
CONTINUOUS
10
-1.7909917716535433
20
0.074193937007874
11
-1.7703693307086614
21
0.074193937007874
0
LINE
8
BLACK
6
CONTINUOUS
10
-1.7703693307086614
20
0.074193937007874
11
-1.7697932677165353
21
0.0741372047244094
0
LINE
8
BLACK
6
CONTINUOUS
10
1.7702067322834645
20
0.0985091338582677
11
1.7712711417322835
21
0.0980682283464567
0
LINE
8
BLACK
6
CONTINUOUS
10
1.7712711417322835
20
0.0980682283464567
11
1.7720857874015747
21
0.0972535826771654
0
LINE
8
BLACK
6
CONTINUOUS
10
1.7720857874015747
20
0.0972535826771654
11
1.7725266929133858
21
0.0961891732283465
0
LINE
8
BLACK
6
CONTINUOUS
10
1.7725266929133858
20
0.0961891732283465
11
1.7725266929133858
21
0.0950370472440945
0
LINE
8
BLACK
6
CONTINUOUS
10
1.7725266929133858
20
0.0950370472440945
11
1.7720857874015747
21
0.0939726377952756
0
LINE
8
BLACK
6
CONTINUOUS
10
1.7720857874015747
20
0.0939726377952756
11
1.7712711417322835
21
0.0931579921259842
0
LINE
8
BLACK
6
CONTINUOUS
10
1.7712711417322835
20
0.0931579921259842
11
1.7702067322834645
21
0.0927170866141732
0
LINE
8
BLACK
6
CONTINUOUS
10
1.7702067322834645
20
0.0927170866141732
11
1.7696306692913386
21
0.0926603543307087
0
LINE
8
BLACK
6
CONTINUOUS
10
1.7696306692913386
20
0.0926603543307087
11
1.7497052755905511
21
0.0926603543307087
0
LINE
8
BLACK
6
CONTINUOUS
10
1.7497052755905511
20
0.0926603543307087
11
1.747459527559055
21
0.0915375196850394
0
LINE
8
BLACK
6
CONTINUOUS
10
1.747459527559055
20
0.0915375196850394
11
1.7463366929133859
21
0.0892917716535433
0
LINE
8
BLACK
6
CONTINUOUS
10
1.7463366929133859
20
0.0892917716535433
11
1.7463366929133859
21
0.0850615354330709
0
LINE
8
BLACK
6
CONTINUOUS
10
1.7463366929133859
20
0.0850615354330709
11
1.747459527559055
21
0.0828158267716535
0
LINE
8
BLACK
6
CONTINUOUS
10
1.747459527559055
20
0.0828158267716535
11
1.7497052755905511
21
0.0816929527559055
0
LINE
8
BLACK
6
CONTINUOUS
10
1.7497052755905511
20
0.0816929527559055
11
1.7696306692913386
21
0.0816929527559055
0
LINE
8
BLACK
6
CONTINUOUS
10
1.7696306692913386
20
0.0816929527559055
11
1.7702067322834645
21
0.0816362204724409
0
LINE
8
BLACK
6
CONTINUOUS
10
1.7702067322834645
20
0.0816362204724409
11
1.7712711417322835
21
0.0811953149606299
0
LINE
8
BLACK
6
CONTINUOUS
10
1.7712711417322835
20
0.0811953149606299
11
1.7720857874015747
21
0.0803806692913386
0
LINE
8
BLACK
6
CONTINUOUS
10
1.7720857874015747
20
0.0803806692913386
11
1.7725266929133858
21
0.0793162598425197
0
LINE
8
BLACK
6
CONTINUOUS
10
1.7725266929133858
20
0.0793162598425197
11
1.7725266929133858
21
0.0781641338582677
0
LINE
8
BLACK
6
CONTINUOUS
10
1.7725266929133858
20
0.0781641338582677
11
1.7720857874015747
21
0.0770997244094488
0
LINE
8
BLACK
6
CONTINUOUS
10
1.7720857874015747
20
0.0770997244094488
11
1.7712711417322835
21
0.0762850787401575
0
LINE
8
BLACK
6
CONTINUOUS
10
1.7712711417322835
20
0.0762850787401575
11
1.7702067322834645
21
0.0758441732283465
0
LINE
8
BLACK
6
CONTINUOUS
10
1.7702067322834645
20
0.0758441732283465
11
1.7696306692913386
21
0.0757874409448819
0
LINE
8
BLACK
6
CONTINUOUS
10
1.7696306692913386
20
0.0757874409448819
11
1.7497052755905511
21
0.0757874409448819
0
LINE
8
BLACK
6
CONTINUOUS
10
1.7497052755905511
20
0.0757874409448819
11
1.747459527559055
21
0.0746646062992126
0
LINE
8
BLACK
6
CONTINUOUS
10
1.747459527559055
20
0.0746646062992126
11
1.7463366929133859
21
0.0724188582677165
0
LINE
8
BLACK
6
CONTINUOUS
10
1.7463366929133859
20
0.0724188582677165
11
1.7463366929133859
21
0.0681886614173228
0
LINE
8
BLACK
6
CONTINUOUS
10
1.7463366929133859
20
0.0681886614173228
11
1.7476854330708662
21
0.0654911811023622
0
LINE
8
BLACK
6
CONTINUOUS
10
1.7476854330708662
20
0.0654911811023622
11
1.7483565354330708
21
0.0648200787401575
0
LINE
8
BLACK
6
CONTINUOUS
10
1.7483565354330708
20
0.0648200787401575
11
1.7696306692913386
21
0.0648200787401575
0
LINE
8
BLACK
6
CONTINUOUS
10
1.7696306692913386
20
0.0648200787401575
11
1.7702067322834645
21
0.0647633464566929
0
LINE
8
BLACK
6
CONTINUOUS
10
1.7702067322834645
20
0.0647633464566929
11
1.7712711417322835
21
0.0643224409448819
0
LINE
8
BLACK
6
CONTINUOUS
10
1.7712711417322835
20
0.0643224409448819
11
1.7720857874015747
21
0.0635077952755906
0
LINE
8
BLACK
6
CONTINUOUS
10
1.7720857874015747
20
0.0635077952755906
11
1.7725266929133858
21
0.0624433858267717
0
LINE
8
BLACK
6
CONTINUOUS
10
1.7725266929133858
20
0.0624433858267717
11
1.7725266929133858
21
0.0612912598425197
0
LINE
8
BLACK
6
CONTINUOUS
10
1.7725266929133858
20
0.0612912598425197
11
1.7720857874015747
21
0.0602268503937008
0
LINE
8
BLACK
6
CONTINUOUS
10
1.7720857874015747
20
0.0602268503937008
11
1.7712711417322835
21
0.0594122047244094
0
LINE
8
BLACK
6
CONTINUOUS
10
1.7712711417322835
20
0.0594122047244094
11
1.7702067322834645
21
0.0589712992125984
0
LINE
8
BLACK
6
CONTINUOUS
10
1.7702067322834645
20
0.0589712992125984
11
1.7696306692913386
21
0.0589145669291339
0
LINE
8
BLACK
6
CONTINUOUS
10
1.7696306692913386
20
0.0589145669291339
11
1.7433839370078741
21
0.0589145669291339
0
LINE
8
BLACK
6
CONTINUOUS
10
1.7433839370078741
20
0.0589145669291339
11
1.742807874015748
21
0.0589712992125984
0
LINE
8
BLACK
6
CONTINUOUS
10
1.742807874015748
20
0.0589712992125984
11
1.7417434645669292
21
0.0594122047244094
0
LINE
8
BLACK
6
CONTINUOUS
10
1.7417434645669292
20
0.0594122047244094
11
1.7409288188976377
21
0.0602268503937008
0
LINE
8
BLACK
6
CONTINUOUS
10
1.7409288188976377
20
0.0602268503937008
11
1.7404879133858266
21
0.0612912598425197
0
LINE
8
BLACK
6
CONTINUOUS
10
1.7404879133858266
20
0.0612912598425197
11
1.7404879133858266
21
0.0624433858267717
0
LINE
8
BLACK
6
CONTINUOUS
10
1.7404879133858266
20
0.0624433858267717
11
1.7409288188976377
21
0.0635077952755906
0
LINE
8
BLACK
6
CONTINUOUS
10
1.7409288188976377
20
0.0635077952755906
11
1.7416926377952755
21
0.0642716535433071
0
LINE
8
BLACK
6
CONTINUOUS
10
1.7416926377952755
20
0.0642716535433071
11
1.7407429133858268
21
0.0661711023622047
0
LINE
8
BLACK
6
CONTINUOUS
10
1.7407429133858268
20
0.0661711023622047
11
1.7405360236220473
21
0.0667117322834646
0
LINE
8
BLACK
6
CONTINUOUS
10
1.7405360236220473
20
0.0667117322834646
11
1.7405285039370078
21
0.0668175590551181
0
LINE
8
BLACK
6
CONTINUOUS
10
1.7405285039370078
20
0.0668175590551181
11
1.7404879133858266
21
0.0669155511811024
0
LINE
8
BLACK
6
CONTINUOUS
10
1.7404879133858266
20
0.0669155511811024
11
1.7404311811023621
21
0.0674916141732283
0
LINE
8
BLACK
6
CONTINUOUS
10
1.7404311811023621
20
0.0674916141732283
11
1.7404311811023621
21
0.073115905511811
0
LINE
8
BLACK
6
CONTINUOUS
10
1.7404311811023621
20
0.073115905511811
11
1.7404879133858266
21
0.073691968503937
0
LINE
8
BLACK
6
CONTINUOUS
10
1.7404879133858266
20
0.073691968503937
11
1.7405285039370078
21
0.07379
0
LINE
8
BLACK
6
CONTINUOUS
10
1.7405285039370078
20
0.07379
11
1.7405360236220473
21
0.0738957874015748
0
LINE
8
BLACK
6
CONTINUOUS
10
1.7405360236220473
20
0.0738957874015748
11
1.7407429133858268
21
0.0744364173228346
0
LINE
8
BLACK
6
CONTINUOUS
10
1.7407429133858268
20
0.0744364173228346
11
1.7426176771653543
21
0.0781859448818898
0
LINE
8
BLACK
6
CONTINUOUS
10
1.7426176771653543
20
0.0781859448818898
11
1.7426783070866141
21
0.0782823228346457
0
LINE
8
BLACK
6
CONTINUOUS
10
1.7426783070866141
20
0.0782823228346457
11
1.7426934645669292
21
0.0783277165354331
0
LINE
8
BLACK
6
CONTINUOUS
10
1.7426934645669292
20
0.0783277165354331
11
1.7427424803149605
21
0.0783842913385827
0
LINE
8
BLACK
6
CONTINUOUS
10
1.7427424803149605
20
0.0783842913385827
11
1.7429260236220472
21
0.0786758267716535
0
LINE
8
BLACK
6
CONTINUOUS
10
1.7429260236220472
20
0.0786758267716535
11
1.7430002362204724
21
0.0787401968503937
0
LINE
8
BLACK
6
CONTINUOUS
10
1.7430002362204724
20
0.0787401968503937
11
1.7429260236220472
21
0.0788045669291339
0
LINE
8
BLACK
6
CONTINUOUS
10
1.7429260236220472
20
0.0788045669291339
11
1.7427424803149605
21
0.0790961417322835
0
LINE
8
BLACK
6
CONTINUOUS
10
1.7427424803149605
20
0.0790961417322835
11
1.7426934645669292
21
0.0791526771653543
0
LINE
8
BLACK
6
CONTINUOUS
10
1.7426934645669292
20
0.0791526771653543
11
1.7426783070866141
21
0.0791981102362205
0
LINE
8
BLACK
6
CONTINUOUS
10
1.7426783070866141
20
0.0791981102362205
11
1.7426176771653543
21
0.0792944488188976
0
LINE
8
BLACK
6
CONTINUOUS
10
1.7426176771653543
20
0.0792944488188976
11
1.7407429133858268
21
0.0830439763779528
0
LINE
8
BLACK
6
CONTINUOUS
10
1.7407429133858268
20
0.0830439763779528
11
1.7405360236220473
21
0.0835846062992126
0
LINE
8
BLACK
6
CONTINUOUS
10
1.7405360236220473
20
0.0835846062992126
11
1.7405285039370078
21
0.0836904330708661
0
LINE
8
BLACK
6
CONTINUOUS
10
1.7405285039370078
20
0.0836904330708661
11
1.7404879133858266
21
0.0837884251968504
0
LINE
8
BLACK
6
CONTINUOUS
10
1.7404879133858266
20
0.0837884251968504
11
1.7404311811023621
21
0.0843644881889764
0
LINE
8
BLACK
6
CONTINUOUS
10
1.7404311811023621
20
0.0843644881889764
11
1.7404311811023621
21
0.0899887795275591
0
LINE
8
BLACK
6
CONTINUOUS
10
1.7404311811023621
20
0.0899887795275591
11
1.7404879133858266
21
0.090564842519685
0
LINE
8
BLACK
6
CONTINUOUS
10
1.7404879133858266
20
0.090564842519685
11
1.7405285039370078
21
0.090662874015748
0
LINE
8
BLACK
6
CONTINUOUS
10
1.7405285039370078
20
0.090662874015748
11
1.7405360236220473
21
0.0907686614173228
0
LINE
8
BLACK
6
CONTINUOUS
10
1.7405360236220473
20
0.0907686614173228
11
1.7407429133858268
21
0.0913092913385827
0
LINE
8
BLACK
6
CONTINUOUS
10
1.7407429133858268
20
0.0913092913385827
11
1.7426176771653543
21
0.0950588582677165
0
LINE
8
BLACK
6
CONTINUOUS
10
1.7426176771653543
20
0.0950588582677165
11
1.7426783070866141
21
0.0951551968503937
0
LINE
8
BLACK
6
CONTINUOUS
10
1.7426783070866141
20
0.0951551968503937
11
1.7426934645669292
21
0.0952006299212598
0
LINE
8
BLACK
6
CONTINUOUS
10
1.7426934645669292
20
0.0952006299212598
11
1.7427425196850392
21
0.0952572440944882
0
LINE
8
BLACK
6
CONTINUOUS
10
1.7427425196850392
20
0.0952572440944882
11
1.7429260236220472
21
0.0955487007874016
0
LINE
8
BLACK
6
CONTINUOUS
10
1.7429260236220472
20
0.0955487007874016
11
1.7432056299212597
21
0.0957912204724409
0
LINE
8
BLACK
6
CONTINUOUS
10
1.7432056299212597
20
0.0957912204724409
11
1.743448307086614
21
0.0960710236220472
0
LINE
8
BLACK
6
CONTINUOUS
10
1.743448307086614
20
0.0960710236220472
11
1.7437398425196851
21
0.0962545669291339
0
LINE
8
BLACK
6
CONTINUOUS
10
1.7437398425196851
20
0.0962545669291339
11
1.7437964173228346
21
0.0963035826771654
0
LINE
8
BLACK
6
CONTINUOUS
10
1.7437964173228346
20
0.0963035826771654
11
1.743841811023622
21
0.0963187401574803
0
LINE
8
BLACK
6
CONTINUOUS
10
1.743841811023622
20
0.0963187401574803
11
1.7439381889763779
21
0.0963793700787402
0
LINE
8
BLACK
6
CONTINUOUS
10
1.7439381889763779
20
0.0963793700787402
11
1.747687716535433
21
0.0982541338582677
0
LINE
8
BLACK
6
CONTINUOUS
10
1.747687716535433
20
0.0982541338582677
11
1.748228307086614
21
0.0984610236220472
0
LINE
8
BLACK
6
CONTINUOUS
10
1.748228307086614
20
0.0984610236220472
11
1.7483341732283464
21
0.0984685826771654
0
LINE
8
BLACK
6
CONTINUOUS
10
1.7483341732283464
20
0.0984685826771654
11
1.7484321653543307
21
0.0985091338582677
0
LINE
8
BLACK
6
CONTINUOUS
10
1.7484321653543307
20
0.0985091338582677
11
1.7490082283464568
21
0.0985658661417323
0
LINE
8
BLACK
6
CONTINUOUS
10
1.7490082283464568
20
0.0985658661417323
11
1.7696306692913386
21
0.0985658661417323
0
LINE
8
BLACK
6
CONTINUOUS
10
1.7696306692913386
20
0.0985658661417323
11
1.7702067322834645
21
0.0985091338582677
0
LINE
8
BLACK
6
CONTINUOUS
10
-1.7697932677165353
20
0.1266306299212598
11
-1.7687288582677165
21
0.1261897244094488
0
LINE
8
BLACK
6
CONTINUOUS
10
-1.7687288582677165
20
0.1261897244094488
11
-1.7679142125984251
21
0.1253750787401575
0
LINE
8
BLACK
6
CONTINUOUS
10
-1.7679142125984251
20
0.1253750787401575
11
-1.7674733070866142
21
0.1243106692913386
0
LINE
8
BLACK
6
CONTINUOUS
10
-1.7674733070866142
20
0.1243106692913386
11
-1.7674733070866142
21
0.1231585433070866
0
LINE
8
BLACK
6
CONTINUOUS
10
-1.7674733070866142
20
0.1231585433070866
11
-1.7679142125984251
21
0.1220941338582677
0
LINE
8
BLACK
6
CONTINUOUS
10
-1.7679142125984251
20
0.1220941338582677
11
-1.7687288582677165
21
0.1212794881889764
0
LINE
8
BLACK
6
CONTINUOUS
10
-1.7687288582677165
20
0.1212794881889764
11
-1.7697932677165353
21
0.1208385826771654
0
LINE
8
BLACK
6
CONTINUOUS
10
-1.7697932677165353
20
0.1208385826771654
11
-1.7703693307086614
21
0.1207818503937008
0
LINE
8
BLACK
6
CONTINUOUS
10
-1.7703693307086614
20
0.1207818503937008
11
-1.7902947244094487
21
0.1207818503937008
0
LINE
8
BLACK
6
CONTINUOUS
10
-1.7902947244094487
20
0.1207818503937008
11
-1.7925404724409448
21
0.1196590157480315
0
LINE
8
BLACK
6
CONTINUOUS
10
-1.7925404724409448
20
0.1196590157480315
11
-1.7936633070866141
21
0.1174132677165354
0
LINE
8
BLACK
6
CONTINUOUS
10
-1.7936633070866141
20
0.1174132677165354
11
-1.7936633070866141
21
0.113183031496063
0
LINE
8
BLACK
6
CONTINUOUS
10
-1.7936633070866141
20
0.113183031496063
11
-1.7925404724409448
21
0.1109373228346457
0
LINE
8
BLACK
6
CONTINUOUS
10
-1.7925404724409448
20
0.1109373228346457
11
-1.7902947244094487
21
0.1098144488188976
0
LINE
8
BLACK
6
CONTINUOUS
10
-1.7902947244094487
20
0.1098144488188976
11
-1.7703693307086614
21
0.1098144488188976
0
LINE
8
BLACK
6
CONTINUOUS
10
-1.7703693307086614
20
0.1098144488188976
11
-1.7697932677165353
21
0.1097577165354331
0
LINE
8
BLACK
6
CONTINUOUS
10
-1.7697932677165353
20
0.1097577165354331
11
-1.7687288582677165
21
0.109316811023622
0
LINE
8
BLACK
6
CONTINUOUS
10
-1.7687288582677165
20
0.109316811023622
11
-1.7679142125984251
21
0.1085021653543307
0
LINE
8
BLACK
6
CONTINUOUS
10
-1.7679142125984251
20
0.1085021653543307
11
-1.7674733070866142
21
0.1074377559055118
0
LINE
8
BLACK
6
CONTINUOUS
10
-1.7674733070866142
20
0.1074377559055118
11
-1.7674733070866142
21
0.1062856299212598
0
LINE
8
BLACK
6
CONTINUOUS
10
-1.7674733070866142
20
0.1062856299212598
11
-1.7679142125984251
21
0.1052212204724409
0
LINE
8
BLACK
6
CONTINUOUS
10
-1.7679142125984251
20
0.1052212204724409
11
-1.7687288582677165
21
0.1044065748031496
0
LINE
8
BLACK
6
CONTINUOUS
10
-1.7687288582677165
20
0.1044065748031496
11
-1.7697932677165353
21
0.1039656692913386
0
LINE
8
BLACK
6
CONTINUOUS
10
-1.7697932677165353
20
0.1039656692913386
11
-1.7703693307086614
21
0.103908937007874
0
LINE
8
BLACK
6
CONTINUOUS
10
-1.7703693307086614
20
0.103908937007874
11
-1.7902947244094487
21
0.103908937007874
0
LINE
8
BLACK
6
CONTINUOUS
10
-1.7902947244094487
20
0.103908937007874
11
-1.7925404724409448
21
0.1027861023622047
0
LINE
8
BLACK
6
CONTINUOUS
10
-1.7925404724409448
20
0.1027861023622047
11
-1.7936633070866141
21
0.1005403543307087
0
LINE
8
BLACK
6
CONTINUOUS
10
-1.7936633070866141
20
0.1005403543307087
11
-1.7936633070866141
21
0.096310157480315
0
LINE
8
BLACK
6
CONTINUOUS
10
-1.7936633070866141
20
0.096310157480315
11
-1.7923145669291338
21
0.0936126771653543
0
LINE
8
BLACK
6
CONTINUOUS
10
-1.7923145669291338
20
0.0936126771653543
11
-1.791643464566929
21
0.0929415748031496
0
LINE
8
BLACK
6
CONTINUOUS
10
-1.791643464566929
20
0.0929415748031496
11
-1.7703693307086614
21
0.0929415748031496
0
LINE
8
BLACK
6
CONTINUOUS
10
-1.7703693307086614
20
0.0929415748031496
11
-1.7697932677165353
21
0.092884842519685
0
LINE
8
BLACK
6
CONTINUOUS
10
-1.7697932677165353
20
0.092884842519685
11
-1.7687288582677165
21
0.092443937007874
0
LINE
8
BLACK
6
CONTINUOUS
10
-1.7687288582677165
20
0.092443937007874
11
-1.7679142125984251
21
0.0916292913385827
0
LINE
8
BLACK
6
CONTINUOUS
10
-1.7679142125984251
20
0.0916292913385827
11
-1.7674733070866142
21
0.0905648818897638
0
LINE
8
BLACK
6
CONTINUOUS
10
-1.7674733070866142
20
0.0905648818897638
11
-1.7674733070866142
21
0.0894127559055118
0
LINE
8
BLACK
6
CONTINUOUS
10
-1.7674733070866142
20
0.0894127559055118
11
-1.7679142125984251
21
0.0883483464566929
0
LINE
8
BLACK
6
CONTINUOUS
10
-1.7679142125984251
20
0.0883483464566929
11
-1.7687288582677165
21
0.0875337007874016
0
LINE
8
BLACK
6
CONTINUOUS
10
-1.7687288582677165
20
0.0875337007874016
11
-1.7697932677165353
21
0.0870927952755906
0
LINE
8
BLACK
6
CONTINUOUS
10
-1.7697932677165353
20
0.0870927952755906
11
-1.7703693307086614
21
0.087036062992126
0
LINE
8
BLACK
6
CONTINUOUS
10
-1.7703693307086614
20
0.087036062992126
11
-1.796616062992126
21
0.087036062992126
0
LINE
8
BLACK
6
CONTINUOUS
10
-1.796616062992126
20
0.087036062992126
11
-1.7971921259842518
21
0.0870927952755906
0
LINE
8
BLACK
6
CONTINUOUS
10
-1.7971921259842518
20
0.0870927952755906
11
-1.7982565354330708
21
0.0875337007874016
0
LINE
8
BLACK
6
CONTINUOUS
10
-1.7982565354330708
20
0.0875337007874016
11
-1.7990711811023621
21
0.0883483464566929
0
LINE
8
BLACK
6
CONTINUOUS
10
-1.7990711811023621
20
0.0883483464566929
11
-1.7995120866141732
21
0.0894127559055118
0
LINE
8
BLACK
6
CONTINUOUS
10
-1.7995120866141732
20
0.0894127559055118
11
-1.7995120866141732
21
0.0905648818897638
0
LINE
8
BLACK
6
CONTINUOUS
10
-1.7995120866141732
20
0.0905648818897638
11
-1.7990711811023621
21
0.0916292913385827
0
LINE
8
BLACK
6
CONTINUOUS
10
-1.7990711811023621
20
0.0916292913385827
11
-1.7983073622047243
21
0.0923931496062992
0
LINE
8
BLACK
6
CONTINUOUS
10
-1.7983073622047243
20
0.0923931496062992
11
-1.7992570866141733
21
0.0942925984251968
0
LINE
8
BLACK
6
CONTINUOUS
10
-1.7992570866141733
20
0.0942925984251968
11
-1.7994639763779527
21
0.0948332283464567
0
LINE
8
BLACK
6
CONTINUOUS
10
-1.7994639763779527
20
0.0948332283464567
11
-1.7994714960629921
21
0.0949390551181102
0
LINE
8
BLACK
6
CONTINUOUS
10
-1.7994714960629921
20
0.0949390551181102
11
-1.7995120866141732
21
0.0950370472440945
0
LINE
8
BLACK
6
CONTINUOUS
10
-1.7995120866141732
20
0.0950370472440945
11
-1.7995688188976378
21
0.0956131102362205
0
LINE
8
BLACK
6
CONTINUOUS
10
-1.7995688188976378
20
0.0956131102362205
11
-1.7995688188976378
21
0.1012374015748032
0
LINE
8
BLACK
6
CONTINUOUS
10
-1.7995688188976378
20
0.1012374015748032
11
-1.7995120866141732
21
0.1018134645669291
0
LINE
8
BLACK
6
CONTINUOUS
10
-1.7995120866141732
20
0.1018134645669291
11
-1.7994714960629921
21
0.1019114960629921
0
LINE
8
BLACK
6
CONTINUOUS
10
-1.7994714960629921
20
0.1019114960629921
11
-1.7994639763779527
21
0.1020172834645669
0
LINE
8
BLACK
6
CONTINUOUS
10
-1.7994639763779527
20
0.1020172834645669
11
-1.7992570866141733
21
0.1025579133858268
0
LINE
8
BLACK
6
CONTINUOUS
10
-1.7992570866141733
20
0.1025579133858268
11
-1.7973823228346457
21
0.1063074409448819
0
LINE
8
BLACK
6
CONTINUOUS
10
-1.7973823228346457
20
0.1063074409448819
11
-1.7973216929133857
21
0.1064038188976378
0
LINE
8
BLACK
6
CONTINUOUS
10
-1.7973216929133857
20
0.1064038188976378
11
-1.7973065354330708
21
0.1064492125984252
0
LINE
8
BLACK
6
CONTINUOUS
10
-1.7973065354330708
20
0.1064492125984252
11
-1.7972575196850393
21
0.1065057874015748
0
LINE
8
BLACK
6
CONTINUOUS
10
-1.7972575196850393
20
0.1065057874015748
11
-1.7970739763779526
21
0.1067973228346457
0
LINE
8
BLACK
6
CONTINUOUS
10
-1.7970739763779526
20
0.1067973228346457
11
-1.7969997637795274
21
0.1068616929133858
0
LINE
8
BLACK
6
CONTINUOUS
10
-1.7969997637795274
20
0.1068616929133858
11
-1.7970739763779526
21
0.106926062992126
0
LINE
8
BLACK
6
CONTINUOUS
10
-1.7970739763779526
20
0.106926062992126
11
-1.7972575196850393
21
0.1072176377952756
0
LINE
8
BLACK
6
CONTINUOUS
10
-1.7972575196850393
20
0.1072176377952756
11
-1.7973065354330708
21
0.1072741732283465
0
LINE
8
BLACK
6
CONTINUOUS
10
-1.7973065354330708
20
0.1072741732283465
11
-1.7973216929133857
21
0.1073196062992126
0
LINE
8
BLACK
6
CONTINUOUS
10
-1.7973216929133857
20
0.1073196062992126
11
-1.7973823228346457
21
0.1074159448818898
0
LINE
8
BLACK
6
CONTINUOUS
10
-1.7973823228346457
20
0.1074159448818898
11
-1.7992570866141733
21
0.1111654724409449
0
LINE
8
BLACK
6
CONTINUOUS
10
-1.7992570866141733
20
0.1111654724409449
11
-1.7994639763779527
21
0.1117061023622047
0
LINE
8
BLACK
6
CONTINUOUS
10
-1.7994639763779527
20
0.1117061023622047
11
-1.7994714960629921
21
0.1118119291338583
0
LINE
8
BLACK
6
CONTINUOUS
10
-1.7994714960629921
20
0.1118119291338583
11
-1.7995120866141732
21
0.1119099212598425
0
LINE
8
BLACK
6
CONTINUOUS
10
-1.7995120866141732
20
0.1119099212598425
11
-1.7995688188976378
21
0.1124859842519685
0
LINE
8
BLACK
6
CONTINUOUS
10
-1.7995688188976378
20
0.1124859842519685
11
-1.7995688188976378
21
0.1181102755905512
0
LINE
8
BLACK
6
CONTINUOUS
10
-1.7995688188976378
20
0.1181102755905512
11
-1.7995120866141732
21
0.1186863385826772
0
LINE
8
BLACK
6
CONTINUOUS
10
-1.7995120866141732
20
0.1186863385826772
11
-1.7994714960629921
21
0.1187843700787402
0
LINE
8
BLACK
6
CONTINUOUS
10
-1.7994714960629921
20
0.1187843700787402
11
-1.7994639763779527
21
0.118890157480315
0
LINE
8
BLACK
6
CONTINUOUS
10
-1.7994639763779527
20
0.118890157480315
11
-1.7992570866141733
21
0.1194307874015748
0
LINE
8
BLACK
6
CONTINUOUS
10
-1.7992570866141733
20
0.1194307874015748
11
-1.7973823228346457
21
0.1231803543307087
0
LINE
8
BLACK
6
CONTINUOUS
10
-1.7973823228346457
20
0.1231803543307087
11
-1.7973216929133857
21
0.1232766929133858
0
LINE
8
BLACK
6
CONTINUOUS
10
-1.7973216929133857
20
0.1232766929133858
11
-1.7973065354330708
21
0.123322125984252
0
LINE
8
BLACK
6
CONTINUOUS
10
-1.7973065354330708
20
0.123322125984252
11
-1.7972574803149606
21
0.1233787401574803
0
LINE
8
BLACK
6
CONTINUOUS
10
-1.7972574803149606
20
0.1233787401574803
11
-1.7970739763779526
21
0.1236701968503937
0
LINE
8
BLACK
6
CONTINUOUS
10
-1.7970739763779526
20
0.1236701968503937
11
-1.7967943700787401
21
0.1239127165354331
0
LINE
8
BLACK
6
CONTINUOUS
10
-1.7967943700787401
20
0.1239127165354331
11
-1.7965516929133858
21
0.1241925196850394
0
LINE
8
BLACK
6
CONTINUOUS
10
-1.7965516929133858
20
0.1241925196850394
11
-1.796260157480315
21
0.124376062992126
0
LINE
8
BLACK
6
CONTINUOUS
10
-1.796260157480315
20
0.124376062992126
11
-1.7962035826771654
21
0.1244250787401575
0
LINE
8
BLACK
6
CONTINUOUS
10
-1.7962035826771654
20
0.1244250787401575
11
-1.796158188976378
21
0.1244402362204724
0
LINE
8
BLACK
6
CONTINUOUS
10
-1.796158188976378
20
0.1244402362204724
11
-1.7960618110236219
21
0.1245008661417323
0
LINE
8
BLACK
6
CONTINUOUS
10
-1.7960618110236219
20
0.1245008661417323
11
-1.7923122834645668
21
0.1263756299212598
0
LINE
8
BLACK
6
CONTINUOUS
10
-1.7923122834645668
20
0.1263756299212598
11
-1.7917716929133858
21
0.1265825196850394
0
LINE
8
BLACK
6
CONTINUOUS
10
-1.7917716929133858
20
0.1265825196850394
11
-1.7916658267716534
21
0.1265900787401575
0
LINE
8
BLACK
6
CONTINUOUS
10
-1.7916658267716534
20
0.1265900787401575
11
-1.7915678346456692
21
0.1266306299212598
0
LINE
8
BLACK
6
CONTINUOUS
10
-1.7915678346456692
20
0.1266306299212598
11
-1.7909917716535433
21
0.1266873622047244
0
LINE
8
BLACK
6
CONTINUOUS
10
-1.7909917716535433
20
0.1266873622047244
11
-1.7703693307086614
21
0.1266873622047244
0
LINE
8
BLACK
6
CONTINUOUS
10
-1.7703693307086614
20
0.1266873622047244
11
-1.7697932677165353
21
0.1266306299212598
0
CIRCLE
8
BLACK
10
1.3700787401574803
20
-0.1732283464566929
40
0.0068897637795276
  0
ENDSEC
  0
EOF
