  0
SECTION
  2
HEADER
  9
$ANGBASE
  50
0.0
  9
$ANGDIR
  70
1
  9
$MEASUREMENT
  70
0
  0
ENDSEC
  0
SECTION
  2
TABLES
  0
TABLE
  2
LTYPE
  70
4
  0
LTYPE
  5
40F
  2
CONTINUOUS
  70
0
  3
Solid line
  72
65
  73
0
  40
0.0
  0
LTYPE
  5
410
  2
DASHDOT
 70
0
  3
Dash Dot ____ _ ____ _
 72
65
 73
4
 40
2.0
 49
1.25
 49
-0.25
 49
0.25
 49
-0.25
  0
LTYPE
  5
411
  2
DASHED
 70
0
  3
Dashed __ __ __ __ __
 72
65
 73
2
 40
0.75
 49
0.5
 49
-0.25
  0
LTYPE
  5
43B
  2
DOTTED
 70
0
  3
Dotted .  .  .  .
 72
65
 73
2
 40
0.2
 49
0.0
 49
-0.2
  0
ENDTAB
  0
TABLE
  2
STYLE
  70
4
  0
STYLE
  2
KICAD
  70
0
  40
0
  41
1
  42
1
  50
0
  71
0
  3
isocp.shx
  0
STYLE
  2
KICADB
  70
0
  40
0
  41
1
  42
1
  50
0
  71
0
  3
isocp.shx
  0
STYLE
  2
KICADI
  70
0
  40
0
  41
1
  42
1
  50
15
  71
0
  3
isocp.shx
  0
STYLE
  2
KICADBI
  70
0
  40
0
  41
1
  42
1
  50
15
  71
0
  3
isocp.shx
  0
ENDTAB
  0
TABLE
  2
LAYER
  70
1
  0
LAYER
  2
BLACK
  70
0
  62
7
  6
CONTINUOUS
  0
ENDTAB
  0
ENDSEC
  0
SECTION
  2
ENTITIES
0
LINE
8
BLACK
6
CONTINUOUS
10
-0.2602291338582677
20
-0.4994688188976378
11
-0.2600848818897638
21
-0.4995220472440945
0
LINE
8
BLACK
6
CONTINUOUS
10
-0.2600848818897638
20
-0.4995220472440945
11
-0.2599364173228346
21
-0.4995638976377952
0
LINE
8
BLACK
6
CONTINUOUS
10
-0.2599364173228346
20
-0.4995638976377952
11
-0.2462174803149606
21
-0.5065520078740158
0
LINE
8
BLACK
6
CONTINUOUS
10
-0.2462174803149606
20
-0.5065520078740158
11
-0.2460964173228346
21
-0.5066474409448819
0
LINE
8
BLACK
6
CONTINUOUS
10
-0.2460964173228346
20
-0.5066474409448819
11
-0.2459681496062992
21
-0.5067331496062992
0
LINE
8
BLACK
6
CONTINUOUS
10
-0.2459681496062992
20
-0.5067331496062992
11
-0.2350808267716535
21
-0.5176229133858268
0
LINE
8
BLACK
6
CONTINUOUS
10
-0.2350808267716535
20
-0.5176229133858268
11
-0.2349952362204724
21
-0.5177510629921259
0
LINE
8
BLACK
6
CONTINUOUS
10
-0.2349952362204724
20
-0.5177510629921259
11
-0.2348999212598425
21
-0.5178719291338583
0
LINE
8
BLACK
6
CONTINUOUS
10
-0.2348999212598425
20
-0.5178719291338583
11
-0.2279097244094488
21
-0.5315884251968503
0
LINE
8
BLACK
6
CONTINUOUS
10
-0.2279097244094488
20
-0.5315884251968503
11
-0.2278678346456693
21
-0.5317368503937008
0
LINE
8
BLACK
6
CONTINUOUS
10
-0.2278678346456693
20
-0.5317368503937008
11
-0.2278145275590551
21
-0.5318813779527559
0
LINE
8
BLACK
6
CONTINUOUS
10
-0.2278145275590551
20
-0.5318813779527559
11
-0.2254058267716536
21
-0.5470901968503937
0
LINE
8
BLACK
6
CONTINUOUS
10
-0.2254058267716536
20
-0.5470901968503937
11
-0.2254118897637795
21
-0.5472441338582678
0
LINE
8
BLACK
6
CONTINUOUS
10
-0.2254118897637795
20
-0.5472441338582678
11
-0.2254058267716536
21
-0.5473981102362204
0
LINE
8
BLACK
6
CONTINUOUS
10
-0.2254058267716536
20
-0.5473981102362204
11
-0.2278145275590551
21
-0.5626067322834646
0
LINE
8
BLACK
6
CONTINUOUS
10
-0.2278145275590551
20
-0.5626067322834646
11
-0.2278678346456693
21
-0.562751220472441
0
LINE
8
BLACK
6
CONTINUOUS
10
-0.2278678346456693
20
-0.562751220472441
11
-0.2279097244094488
21
-0.56289968503937
0
LINE
8
BLACK
6
CONTINUOUS
10
-0.2279097244094488
20
-0.56289968503937
11
-0.2348999212598425
21
-0.5766161811023622
0
LINE
8
BLACK
6
CONTINUOUS
10
-0.2348999212598425
20
-0.5766161811023622
11
-0.2349952362204724
21
-0.5767370078740157
0
LINE
8
BLACK
6
CONTINUOUS
10
-0.2349952362204724
20
-0.5767370078740157
11
-0.2350808267716535
21
-0.5768651968503937
0
LINE
8
BLACK
6
CONTINUOUS
10
-0.2350808267716535
20
-0.5768651968503937
11
-0.2459681496062992
21
-0.5877549606299213
0
LINE
8
BLACK
6
CONTINUOUS
10
-0.2459681496062992
20
-0.5877549606299213
11
-0.2460964173228346
21
-0.5878406299212598
0
LINE
8
BLACK
6
CONTINUOUS
10
-0.2460964173228346
20
-0.5878406299212598
11
-0.2462174803149606
21
-0.5879361023622047
0
LINE
8
BLACK
6
CONTINUOUS
10
-0.2462174803149606
20
-0.5879361023622047
11
-0.2599364173228346
21
-0.5949242125984252
0
LINE
8
BLACK
6
CONTINUOUS
10
-0.2599364173228346
20
-0.5949242125984252
11
-0.2600847244094488
21
-0.5949659842519684
0
LINE
8
BLACK
6
CONTINUOUS
10
-0.2600847244094488
20
-0.5949659842519684
11
-0.260229094488189
21
-0.5950192913385827
0
LINE
8
BLACK
6
CONTINUOUS
10
-0.260229094488189
20
-0.5950192913385827
11
-0.2754365354330708
21
-0.5974288582677165
0
LINE
8
BLACK
6
CONTINUOUS
10
-0.2754365354330708
20
-0.5974288582677165
11
-0.2755905511811024
21
-0.5974227952755905
0
LINE
8
BLACK
6
CONTINUOUS
10
-0.2755905511811024
20
-0.5974227952755905
11
-0.2757445669291338
21
-0.5974288582677165
0
LINE
8
BLACK
6
CONTINUOUS
10
-0.2757445669291338
20
-0.5974288582677165
11
-0.2909520078740158
21
-0.5950192913385827
0
LINE
8
BLACK
6
CONTINUOUS
10
-0.2909520078740158
20
-0.5950192913385827
11
-0.2910608661417323
21
-0.594979094488189
0
LINE
8
BLACK
6
CONTINUOUS
10
-0.2910608661417323
20
-0.594979094488189
11
-0.2911746456692914
21
-0.5949564960629921
0
LINE
8
BLACK
6
CONTINUOUS
10
-0.2911746456692914
20
-0.5949564960629921
11
-0.2911921653543307
21
-0.5949389763779528
0
LINE
8
BLACK
6
CONTINUOUS
10
-0.2911921653543307
20
-0.5949389763779528
11
-0.2912447637795276
21
-0.5949241732283465
0
LINE
8
BLACK
6
CONTINUOUS
10
-0.2912447637795276
20
-0.5949241732283465
11
-0.3049636614173228
21
-0.5879361023622047
0
LINE
8
BLACK
6
CONTINUOUS
10
-0.3049636614173228
20
-0.5879361023622047
11
-0.305084842519685
21
-0.5878405905511811
0
LINE
8
BLACK
6
CONTINUOUS
10
-0.305084842519685
20
-0.5878405905511811
11
-0.3052129921259842
21
-0.5877549212598425
0
LINE
8
BLACK
6
CONTINUOUS
10
-0.3052129921259842
20
-0.5877549212598425
11
-0.3161003543307087
21
-0.5768651968503937
0
LINE
8
BLACK
6
CONTINUOUS
10
-0.3161003543307087
20
-0.5768651968503937
11
-0.3161861023622047
21
-0.5767368110236221
0
LINE
8
BLACK
6
CONTINUOUS
10
-0.3161861023622047
20
-0.5767368110236221
11
-0.3162812204724409
21
-0.5766161811023622
0
LINE
8
BLACK
6
CONTINUOUS
10
-0.3162812204724409
20
-0.5766161811023622
11
-0.3232714173228347
21
-0.5628996456692913
0
LINE
8
BLACK
6
CONTINUOUS
10
-0.3232714173228347
20
-0.5628996456692913
11
-0.3233132677165354
21
-0.5627513385826771
0
LINE
8
BLACK
6
CONTINUOUS
10
-0.3233132677165354
20
-0.5627513385826771
11
-0.3233666141732283
21
-0.5626067322834646
0
LINE
8
BLACK
6
CONTINUOUS
10
-0.3233666141732283
20
-0.5626067322834646
11
-0.3257752755905512
21
-0.5473981102362204
0
LINE
8
BLACK
6
CONTINUOUS
10
-0.3257752755905512
20
-0.5473981102362204
11
-0.3257692519685039
21
-0.5472441338582678
0
LINE
8
BLACK
6
CONTINUOUS
10
-0.3257692519685039
20
-0.5472441338582678
11
-0.3257752755905512
21
-0.547090157480315
0
LINE
8
BLACK
6
CONTINUOUS
10
-0.3257752755905512
20
-0.547090157480315
11
-0.3233666141732283
21
-0.5318815354330708
0
LINE
8
BLACK
6
CONTINUOUS
10
-0.3233666141732283
20
-0.5318815354330708
11
-0.3233132677165354
21
-0.5317368897637795
0
LINE
8
BLACK
6
CONTINUOUS
10
-0.3233132677165354
20
-0.5317368897637795
11
-0.3232714173228347
21
-0.5315886220472441
0
LINE
8
BLACK
6
CONTINUOUS
10
-0.3232714173228347
20
-0.5315886220472441
11
-0.3162812204724409
21
-0.5178718897637795
0
LINE
8
BLACK
6
CONTINUOUS
10
-0.3162812204724409
20
-0.5178718897637795
11
-0.3161860236220472
21
-0.5177511023622047
0
LINE
8
BLACK
6
CONTINUOUS
10
-0.3161860236220472
20
-0.5177511023622047
11
-0.3161003543307087
21
-0.5176229133858268
0
LINE
8
BLACK
6
CONTINUOUS
10
-0.3161003543307087
20
-0.5176229133858268
11
-0.3052129921259842
21
-0.506733188976378
0
LINE
8
BLACK
6
CONTINUOUS
10
-0.3052129921259842
20
-0.506733188976378
11
-0.305084842519685
21
-0.5066474803149607
0
LINE
8
BLACK
6
CONTINUOUS
10
-0.305084842519685
20
-0.5066474803149607
11
-0.3049636614173228
21
-0.5065520078740158
0
LINE
8
BLACK
6
CONTINUOUS
10
-0.3049636614173228
20
-0.5065520078740158
11
-0.2912447637795276
21
-0.499563937007874
0
LINE
8
BLACK
6
CONTINUOUS
10
-0.2912447637795276
20
-0.499563937007874
11
-0.2910964960629921
21
-0.4995221259842519
0
LINE
8
BLACK
6
CONTINUOUS
10
-0.2910964960629921
20
-0.4995221259842519
11
-0.2909520078740158
21
-0.4994688188976378
0
LINE
8
BLACK
6
CONTINUOUS
10
-0.2909520078740158
20
-0.4994688188976378
11
-0.2757445669291338
21
-0.4970594094488189
0
LINE
8
BLACK
6
CONTINUOUS
10
-0.2757445669291338
20
-0.4970594094488189
11
-0.2755905511811024
21
-0.4970654330708661
0
LINE
8
BLACK
6
CONTINUOUS
10
-0.2755905511811024
20
-0.4970654330708661
11
-0.2754365354330708
21
-0.4970594094488189
0
LINE
8
BLACK
6
CONTINUOUS
10
-0.2754365354330708
20
-0.4970594094488189
11
-0.2602291338582677
21
-0.4994688188976378
0
LINE
8
BLACK
6
CONTINUOUS
10
-0.2904900393700787
20
-0.5013886614173229
11
-0.3039312598425197
21
-0.5082353149606299
0
LINE
8
BLACK
6
CONTINUOUS
10
-0.3039312598425197
20
-0.5082353149606299
11
-0.3145981102362205
21
-0.5189045275590551
0
LINE
8
BLACK
6
CONTINUOUS
10
-0.3145981102362205
20
-0.5189045275590551
11
-0.3214467716535433
21
-0.5323434251968504
0
LINE
8
BLACK
6
CONTINUOUS
10
-0.3214467716535433
20
-0.5323434251968504
11
-0.3238066535433071
21
-0.5472441338582678
0
LINE
8
BLACK
6
CONTINUOUS
10
-0.3238066535433071
20
-0.5472441338582678
11
-0.3214467716535433
21
-0.5621447637795276
0
LINE
8
BLACK
6
CONTINUOUS
10
-0.3214467716535433
20
-0.5621447637795276
11
-0.3145981496062992
21
-0.5755835039370079
0
LINE
8
BLACK
6
CONTINUOUS
10
-0.3145981496062992
20
-0.5755835039370079
11
-0.3039312598425197
21
-0.5862527559055118
0
LINE
8
BLACK
6
CONTINUOUS
10
-0.3039312598425197
20
-0.5862527559055118
11
-0.2904900393700787
21
-0.5930994094488189
0
LINE
8
BLACK
6
CONTINUOUS
10
-0.2904900393700787
20
-0.5930994094488189
11
-0.2755905511811024
21
-0.5954601968503936
0
LINE
8
BLACK
6
CONTINUOUS
10
-0.2755905511811024
20
-0.5954601968503936
11
-0.2606911417322835
21
-0.5930994094488189
0
LINE
8
BLACK
6
CONTINUOUS
10
-0.2606911417322835
20
-0.5930994094488189
11
-0.2472500393700787
21
-0.5862528346456692
0
LINE
8
BLACK
6
CONTINUOUS
10
-0.2472500393700787
20
-0.5862528346456692
11
-0.236583031496063
21
-0.5755835433070866
0
LINE
8
BLACK
6
CONTINUOUS
10
-0.236583031496063
20
-0.5755835433070866
11
-0.2297344094488189
21
-0.5621448031496062
0
LINE
8
BLACK
6
CONTINUOUS
10
-0.2297344094488189
20
-0.5621448031496062
11
-0.2273744881889764
21
-0.547244094488189
0
LINE
8
BLACK
6
CONTINUOUS
10
-0.2273744881889764
20
-0.547244094488189
11
-0.2297344094488189
21
-0.5323432677165354
0
LINE
8
BLACK
6
CONTINUOUS
10
-0.2297344094488189
20
-0.5323432677165354
11
-0.236583031496063
21
-0.5189045275590551
0
LINE
8
BLACK
6
CONTINUOUS
10
-0.236583031496063
20
-0.5189045275590551
11
-0.2472500393700787
21
-0.5082352362204724
0
LINE
8
BLACK
6
CONTINUOUS
10
-0.2472500393700787
20
-0.5082352362204724
11
-0.2606911417322835
21
-0.5013886614173229
0
LINE
8
BLACK
6
CONTINUOUS
10
-0.2606911417322835
20
-0.5013886614173229
11
-0.2755905905511811
21
-0.499028031496063
0
LINE
8
BLACK
6
CONTINUOUS
10
-0.2755905905511811
20
-0.499028031496063
11
-0.2904900393700787
21
-0.5013886614173229
0
LINE
8
BLACK
6
CONTINUOUS
10
0.0166124409448819
20
0.3174788188976378
11
0.016637874015748
21
0.3174730708661417
0
LINE
8
BLACK
6
CONTINUOUS
10
0.016637874015748
20
0.3174730708661417
11
0.016663937007874
21
0.3174761417322834
0
LINE
8
BLACK
6
CONTINUOUS
10
0.016663937007874
20
0.3174761417322834
11
0.0332052755905512
21
0.3161742125984252
0
LINE
8
BLACK
6
CONTINUOUS
10
0.0332052755905512
20
0.3161742125984252
11
0.0332304330708661
21
0.316167125984252
0
LINE
8
BLACK
6
CONTINUOUS
10
0.0332304330708661
20
0.316167125984252
11
0.0332565354330709
21
0.3161688188976378
0
LINE
8
BLACK
6
CONTINUOUS
10
0.0332565354330709
20
0.3161688188976378
11
0.0497072047244094
21
0.3140029921259843
0
LINE
8
BLACK
6
CONTINUOUS
10
0.0497072047244094
20
0.3140029921259843
11
0.049731968503937
21
0.3139946062992126
0
LINE
8
BLACK
6
CONTINUOUS
10
0.049731968503937
20
0.3139946062992126
11
0.0497581102362205
21
0.3139949212598425
0
LINE
8
BLACK
6
CONTINUOUS
10
0.0497581102362205
20
0.3139949212598425
11
0.0660726377952756
21
0.3109714173228346
0
LINE
8
BLACK
6
CONTINUOUS
10
0.0660726377952756
20
0.3109714173228346
11
0.0660968897637795
21
0.3109617716535433
0
LINE
8
BLACK
6
CONTINUOUS
10
0.0660968897637795
20
0.3109617716535433
11
0.0661231102362205
21
0.3109607086614173
0
LINE
8
BLACK
6
CONTINUOUS
10
0.0661231102362205
20
0.3109607086614173
11
0.0822568897637795
21
0.307086968503937
0
LINE
8
BLACK
6
CONTINUOUS
10
0.0822568897637795
20
0.307086968503937
11
0.0822806299212598
21
0.3070760236220472
0
LINE
8
BLACK
6
CONTINUOUS
10
0.0822806299212598
20
0.3070760236220472
11
0.0823066141732283
21
0.3070736220472441
0
LINE
8
BLACK
6
CONTINUOUS
10
0.0823066141732283
20
0.3070736220472441
11
0.0982161811023622
21
0.3023609842519685
0
LINE
8
BLACK
6
CONTINUOUS
10
0.0982161811023622
20
0.3023609842519685
11
0.0982392519685039
21
0.3023488582677165
0
LINE
8
BLACK
6
CONTINUOUS
10
0.0982392519685039
20
0.3023488582677165
11
0.098265157480315
21
0.3023450787401575
0
LINE
8
BLACK
6
CONTINUOUS
10
0.098265157480315
20
0.3023450787401575
11
0.1139057086614173
21
0.2968065354330708
0
LINE
8
BLACK
6
CONTINUOUS
10
0.1139057086614173
20
0.2968065354330708
11
0.1139281496062992
21
0.296793188976378
0
LINE
8
BLACK
6
CONTINUOUS
10
0.1139281496062992
20
0.296793188976378
11
0.1139538188976378
21
0.2967880708661417
0
LINE
8
BLACK
6
CONTINUOUS
10
0.1139538188976378
20
0.2967880708661417
11
0.1292833464566929
21
0.2904385826771653
0
LINE
8
BLACK
6
CONTINUOUS
10
0.1292833464566929
20
0.2904385826771653
11
0.1293051181102362
21
0.2904240551181102
0
LINE
8
BLACK
6
CONTINUOUS
10
0.1293051181102362
20
0.2904240551181102
11
0.1293304330708661
21
0.2904175984251968
0
LINE
8
BLACK
6
CONTINUOUS
10
0.1293304330708661
20
0.2904175984251968
11
0.1443064566929134
21
0.2832741732283465
0
LINE
8
BLACK
6
CONTINUOUS
10
0.1443064566929134
20
0.2832741732283465
11
0.1443273622047244
21
0.2832585433070866
0
LINE
8
BLACK
6
CONTINUOUS
10
0.1443273622047244
20
0.2832585433070866
11
0.1443523622047244
21
0.2832507874015748
0
LINE
8
BLACK
6
CONTINUOUS
10
0.1443523622047244
20
0.2832507874015748
11
0.1589342519685039
21
0.2753335433070866
0
LINE
8
BLACK
6
CONTINUOUS
10
0.1589342519685039
20
0.2753335433070866
11
0.1589543700787402
21
0.275316811023622
0
LINE
8
BLACK
6
CONTINUOUS
10
0.1589543700787402
20
0.275316811023622
11
0.1589788582677165
21
0.2753077559055118
0
LINE
8
BLACK
6
CONTINUOUS
10
0.1589788582677165
20
0.2753077559055118
11
0.1731259842519685
21
0.2666384645669291
0
LINE
8
BLACK
6
CONTINUOUS
10
0.1731259842519685
20
0.2666384645669291
11
0.1731451574803149
21
0.266620748031496
0
LINE
8
BLACK
6
CONTINUOUS
10
0.1731451574803149
20
0.266620748031496
11
0.1731692125984252
21
0.2666103937007874
0
LINE
8
BLACK
6
CONTINUOUS
10
0.1731692125984252
20
0.2666103937007874
11
0.1868437007874016
21
0.2572122834645669
0
LINE
8
BLACK
6
CONTINUOUS
10
0.1868437007874016
20
0.2572122834645669
11
0.1868618897637795
21
0.2571936220472441
0
LINE
8
BLACK
6
CONTINUOUS
10
0.1868618897637795
20
0.2571936220472441
11
0.1868853937007874
21
0.2571820078740157
0
LINE
8
BLACK
6
CONTINUOUS
10
0.1868853937007874
20
0.2571820078740157
11
0.2000492913385827
21
0.2470808267716536
0
LINE
8
BLACK
6
CONTINUOUS
10
0.2000492913385827
20
0.2470808267716536
11
0.2000664960629921
21
0.2470611811023622
0
LINE
8
BLACK
6
CONTINUOUS
10
0.2000664960629921
20
0.2470611811023622
11
0.2000892913385827
21
0.2470484251968504
0
LINE
8
BLACK
6
CONTINUOUS
10
0.2000892913385827
20
0.2470484251968504
11
0.2127061811023622
21
0.2362727952755906
0
LINE
8
BLACK
6
CONTINUOUS
10
0.2127061811023622
20
0.2362727952755906
11
0.2127223622047244
21
0.2362522834645669
0
LINE
8
BLACK
6
CONTINUOUS
10
0.2127223622047244
20
0.2362522834645669
11
0.2127444881889764
21
0.2362383070866142
0
LINE
8
BLACK
6
CONTINUOUS
10
0.2127444881889764
20
0.2362383070866142
11
0.2247803149606299
21
0.2248167716535433
0
LINE
8
BLACK
6
CONTINUOUS
10
0.2247803149606299
20
0.2248167716535433
11
0.2247953543307087
21
0.2247954724409449
0
LINE
8
BLACK
6
CONTINUOUS
10
0.2247953543307087
20
0.2247954724409449
11
0.2248167322834645
21
0.2247803543307086
0
LINE
8
BLACK
6
CONTINUOUS
10
0.2248167322834645
20
0.2247803543307086
11
0.2362383070866142
21
0.2127445275590551
0
LINE
8
BLACK
6
CONTINUOUS
10
0.2362383070866142
20
0.2127445275590551
11
0.2362522834645669
21
0.2127223622047244
0
LINE
8
BLACK
6
CONTINUOUS
10
0.2362522834645669
20
0.2127223622047244
11
0.2362727559055118
21
0.2127062204724409
0
LINE
8
BLACK
6
CONTINUOUS
10
0.2362727559055118
20
0.2127062204724409
11
0.2470483858267717
21
0.2000891732283465
0
LINE
8
BLACK
6
CONTINUOUS
10
0.2470483858267717
20
0.2000891732283465
11
0.2470611023622047
21
0.2000664173228346
0
LINE
8
BLACK
6
CONTINUOUS
10
0.2470611023622047
20
0.2000664173228346
11
0.2470808267716536
21
0.2000491338582677
0
LINE
8
BLACK
6
CONTINUOUS
10
0.2470808267716536
20
0.2000491338582677
11
0.2571819291338583
21
0.1868854724409449
0
LINE
8
BLACK
6
CONTINUOUS
10
0.2571819291338583
20
0.1868854724409449
11
0.2571935039370079
21
0.1868620078740157
0
LINE
8
BLACK
6
CONTINUOUS
10
0.2571935039370079
20
0.1868620078740157
11
0.2572122440944882
21
0.1868437401574803
0
LINE
8
BLACK
6
CONTINUOUS
10
0.2572122440944882
20
0.1868437401574803
11
0.2666103543307087
21
0.1731692519685039
0
LINE
8
BLACK
6
CONTINUOUS
10
0.2666103543307087
20
0.1731692519685039
11
0.2666206692913386
21
0.1731452362204724
0
LINE
8
BLACK
6
CONTINUOUS
10
0.2666206692913386
20
0.1731452362204724
11
0.2666384251968504
21
0.1731260236220472
0
LINE
8
BLACK
6
CONTINUOUS
10
0.2666384251968504
20
0.1731260236220472
11
0.2753077165354331
21
0.158978937007874
0
LINE
8
BLACK
6
CONTINUOUS
10
0.2753077165354331
20
0.158978937007874
11
0.2753167716535433
21
0.1589543700787402
0
LINE
8
BLACK
6
CONTINUOUS
10
0.2753167716535433
20
0.1589543700787402
11
0.2753334645669291
21
0.1589342913385827
0
LINE
8
BLACK
6
CONTINUOUS
10
0.2753334645669291
20
0.1589342913385827
11
0.2832507480314961
21
0.1443524015748031
0
LINE
8
BLACK
6
CONTINUOUS
10
0.2832507480314961
20
0.1443524015748031
11
0.2832584645669291
21
0.1443274409448819
0
LINE
8
BLACK
6
CONTINUOUS
10
0.2832584645669291
20
0.1443274409448819
11
0.2832741338582677
21
0.1443064960629921
0
LINE
8
BLACK
6
CONTINUOUS
10
0.2832741338582677
20
0.1443064960629921
11
0.2904175984251968
21
0.1293304724409449
0
LINE
8
BLACK
6
CONTINUOUS
10
0.2904175984251968
20
0.1293304724409449
11
0.2904240157480315
21
0.1293051181102362
0
LINE
8
BLACK
6
CONTINUOUS
10
0.2904240157480315
20
0.1293051181102362
11
0.2904385433070866
21
0.1292833858267717
0
LINE
8
BLACK
6
CONTINUOUS
10
0.2904385433070866
20
0.1292833858267717
11
0.296788031496063
21
0.1139538582677165
0
LINE
8
BLACK
6
CONTINUOUS
10
0.296788031496063
20
0.1139538582677165
11
0.2967931102362205
21
0.1139282283464567
0
LINE
8
BLACK
6
CONTINUOUS
10
0.2967931102362205
20
0.1139282283464567
11
0.2968064960629921
21
0.1139057480314961
0
LINE
8
BLACK
6
CONTINUOUS
10
0.2968064960629921
20
0.1139057480314961
11
0.3023450393700787
21
0.0982651968503937
0
LINE
8
BLACK
6
CONTINUOUS
10
0.3023450393700787
20
0.0982651968503937
11
0.3023487795275591
21
0.0982392913385827
0
LINE
8
BLACK
6
CONTINUOUS
10
0.3023487795275591
20
0.0982392913385827
11
0.3023609448818897
21
0.0982161811023622
0
LINE
8
BLACK
6
CONTINUOUS
10
0.3023609448818897
20
0.0982161811023622
11
0.3070736220472441
21
0.0823066535433071
0
LINE
8
BLACK
6
CONTINUOUS
10
0.3070736220472441
20
0.0823066535433071
11
0.3070759842519685
21
0.0822806299212598
0
LINE
8
BLACK
6
CONTINUOUS
10
0.3070759842519685
20
0.0822806299212598
11
0.3070869291338583
21
0.0822569291338583
0
LINE
8
BLACK
6
CONTINUOUS
10
0.3070869291338583
20
0.0822569291338583
11
0.3109606692913386
21
0.0661231102362205
0
LINE
8
BLACK
6
CONTINUOUS
10
0.3109606692913386
20
0.0661231102362205
11
0.3109616929133858
21
0.0660970078740157
0
LINE
8
BLACK
6
CONTINUOUS
10
0.3109616929133858
20
0.0660970078740157
11
0.3109713779527559
21
0.0660727165354331
0
LINE
8
BLACK
6
CONTINUOUS
10
0.3109713779527559
20
0.0660727165354331
11
0.3139948818897638
21
0.0497581496062992
0
LINE
8
BLACK
6
CONTINUOUS
10
0.3139948818897638
20
0.0497581496062992
11
0.3139945275590551
21
0.0497320472440945
0
LINE
8
BLACK
6
CONTINUOUS
10
0.3139945275590551
20
0.0497320472440945
11
0.3140029527559055
21
0.0497072440944882
0
LINE
8
BLACK
6
CONTINUOUS
10
0.3140029527559055
20
0.0497072440944882
11
0.3161687795275591
21
0.0332565748031496
0
LINE
8
BLACK
6
CONTINUOUS
10
0.3161687795275591
20
0.0332565748031496
11
0.3161670472440945
21
0.0332305511811024
0
LINE
8
BLACK
6
CONTINUOUS
10
0.3161670472440945
20
0.0332305511811024
11
0.3161741732283465
21
0.0332053543307087
0
LINE
8
BLACK
6
CONTINUOUS
10
0.3161741732283465
20
0.0332053543307087
11
0.3174761023622047
21
0.0166639763779528
0
LINE
8
BLACK
6
CONTINUOUS
10
0.3174761023622047
20
0.0166639763779528
11
0.3174729921259842
21
0.0166379527559055
0
LINE
8
BLACK
6
CONTINUOUS
10
0.3174729921259842
20
0.0166379527559055
11
0.317478779527559
21
0.0166124803149606
0
LINE
8
BLACK
6
CONTINUOUS
10
0.317478779527559
20
0.0166124803149606
11
0.3179129921259842
21
0.0000257874015748
0
LINE
8
BLACK
6
CONTINUOUS
10
0.3179129921259842
20
0.0000257874015748
11
0.3179085433070866
21
0.
0
LINE
8
BLACK
6
CONTINUOUS
10
0.3179085433070866
20
0.
11
0.3179129921259842
21
-0.0000257874015748
0
LINE
8
BLACK
6
CONTINUOUS
10
0.3179129921259842
20
-0.0000257874015748
11
0.317478779527559
21
-0.0166124409448819
0
LINE
8
BLACK
6
CONTINUOUS
10
0.317478779527559
20
-0.0166124409448819
11
0.3174729921259842
21
-0.016637874015748
0
LINE
8
BLACK
6
CONTINUOUS
10
0.3174729921259842
20
-0.016637874015748
11
0.3174761023622047
21
-0.016663937007874
0
LINE
8
BLACK
6
CONTINUOUS
10
0.3174761023622047
20
-0.016663937007874
11
0.3161741732283465
21
-0.0332053149606299
0
LINE
8
BLACK
6
CONTINUOUS
10
0.3161741732283465
20
-0.0332053149606299
11
0.3161670472440945
21
-0.0332304724409449
0
LINE
8
BLACK
6
CONTINUOUS
10
0.3161670472440945
20
-0.0332304724409449
11
0.3161687795275591
21
-0.0332565354330709
0
LINE
8
BLACK
6
CONTINUOUS
10
0.3161687795275591
20
-0.0332565354330709
11
0.3140029527559055
21
-0.0497072047244094
0
LINE
8
BLACK
6
CONTINUOUS
10
0.3140029527559055
20
-0.0497072047244094
11
0.3139945275590551
21
-0.049731968503937
0
LINE
8
BLACK
6
CONTINUOUS
10
0.3139945275590551
20
-0.049731968503937
11
0.3139948818897638
21
-0.0497581102362205
0
LINE
8
BLACK
6
CONTINUOUS
10
0.3139948818897638
20
-0.0497581102362205
11
0.3109713779527559
21
-0.0660726771653543
0
LINE
8
BLACK
6
CONTINUOUS
10
0.3109713779527559
20
-0.0660726771653543
11
0.3109616929133858
21
-0.0660969291338583
0
LINE
8
BLACK
6
CONTINUOUS
10
0.3109616929133858
20
-0.0660969291338583
11
0.3109606692913386
21
-0.0661230708661417
0
LINE
8
BLACK
6
CONTINUOUS
10
0.3109606692913386
20
-0.0661230708661417
11
0.3070869291338583
21
-0.0822568897637795
0
LINE
8
BLACK
6
CONTINUOUS
10
0.3070869291338583
20
-0.0822568897637795
11
0.3070759842519685
21
-0.0822805511811024
0
LINE
8
BLACK
6
CONTINUOUS
10
0.3070759842519685
20
-0.0822805511811024
11
0.3070736220472441
21
-0.0823066141732283
0
LINE
8
BLACK
6
CONTINUOUS
10
0.3070736220472441
20
-0.0823066141732283
11
0.3023609448818897
21
-0.0982161417322835
0
LINE
8
BLACK
6
CONTINUOUS
10
0.3023609448818897
20
-0.0982161417322835
11
0.3023487795275591
21
-0.0982392125984252
0
LINE
8
BLACK
6
CONTINUOUS
10
0.3023487795275591
20
-0.0982392125984252
11
0.3023450393700787
21
-0.098265157480315
0
LINE
8
BLACK
6
CONTINUOUS
10
0.3023450393700787
20
-0.098265157480315
11
0.2968064960629921
21
-0.1139057086614173
0
LINE
8
BLACK
6
CONTINUOUS
10
0.2968064960629921
20
-0.1139057086614173
11
0.2967931102362205
21
-0.1139281496062992
0
LINE
8
BLACK
6
CONTINUOUS
10
0.2967931102362205
20
-0.1139281496062992
11
0.296788031496063
21
-0.1139538188976378
0
LINE
8
BLACK
6
CONTINUOUS
10
0.296788031496063
20
-0.1139538188976378
11
0.2904385433070866
21
-0.1292833464566929
0
LINE
8
BLACK
6
CONTINUOUS
10
0.2904385433070866
20
-0.1292833464566929
11
0.2904240157480315
21
-0.1293050393700787
0
LINE
8
BLACK
6
CONTINUOUS
10
0.2904240157480315
20
-0.1293050393700787
11
0.2904175984251968
21
-0.1293304330708661
0
LINE
8
BLACK
6
CONTINUOUS
10
0.2904175984251968
20
-0.1293304330708661
11
0.2832741338582677
21
-0.1443064566929134
0
LINE
8
BLACK
6
CONTINUOUS
10
0.2832741338582677
20
-0.1443064566929134
11
0.2832584645669291
21
-0.1443273622047244
0
LINE
8
BLACK
6
CONTINUOUS
10
0.2832584645669291
20
-0.1443273622047244
11
0.2832507480314961
21
-0.1443523622047244
0
LINE
8
BLACK
6
CONTINUOUS
10
0.2832507480314961
20
-0.1443523622047244
11
0.2753334645669291
21
-0.1589342519685039
0
LINE
8
BLACK
6
CONTINUOUS
10
0.2753334645669291
20
-0.1589342519685039
11
0.2753167716535433
21
-0.1589542913385827
0
LINE
8
BLACK
6
CONTINUOUS
10
0.2753167716535433
20
-0.1589542913385827
11
0.2753077165354331
21
-0.1589788976377953
0
LINE
8
BLACK
6
CONTINUOUS
10
0.2753077165354331
20
-0.1589788976377953
11
0.2666384251968504
21
-0.1731259842519685
0
LINE
8
BLACK
6
CONTINUOUS
10
0.2666384251968504
20
-0.1731259842519685
11
0.2666206692913386
21
-0.1731451574803149
0
LINE
8
BLACK
6
CONTINUOUS
10
0.2666206692913386
20
-0.1731451574803149
11
0.2666103543307087
21
-0.1731692125984252
0
LINE
8
BLACK
6
CONTINUOUS
10
0.2666103543307087
20
-0.1731692125984252
11
0.2572122440944882
21
-0.1868437007874016
0
LINE
8
BLACK
6
CONTINUOUS
10
0.2572122440944882
20
-0.1868437007874016
11
0.2571935039370079
21
-0.1868619291338583
0
LINE
8
BLACK
6
CONTINUOUS
10
0.2571935039370079
20
-0.1868619291338583
11
0.2571819291338583
21
-0.1868854330708661
0
LINE
8
BLACK
6
CONTINUOUS
10
0.2571819291338583
20
-0.1868854330708661
11
0.2470808267716536
21
-0.200049094488189
0
LINE
8
BLACK
6
CONTINUOUS
10
0.2470808267716536
20
-0.200049094488189
11
0.2470611023622047
21
-0.2000663385826772
0
LINE
8
BLACK
6
CONTINUOUS
10
0.2470611023622047
20
-0.2000663385826772
11
0.2470483858267717
21
-0.2000891338582677
0
LINE
8
BLACK
6
CONTINUOUS
10
0.2470483858267717
20
-0.2000891338582677
11
0.2362727559055118
21
-0.2127061811023622
0
LINE
8
BLACK
6
CONTINUOUS
10
0.2362727559055118
20
-0.2127061811023622
11
0.2362522834645669
21
-0.2127222834645669
0
LINE
8
BLACK
6
CONTINUOUS
10
0.2362522834645669
20
-0.2127222834645669
11
0.2362383070866142
21
-0.2127444881889764
0
LINE
8
BLACK
6
CONTINUOUS
10
0.2362383070866142
20
-0.2127444881889764
11
0.2248167322834645
21
-0.2247803149606299
0
LINE
8
BLACK
6
CONTINUOUS
10
0.2248167322834645
20
-0.2247803149606299
11
0.2247953543307087
21
-0.2247953937007874
0
LINE
8
BLACK
6
CONTINUOUS
10
0.2247953543307087
20
-0.2247953937007874
11
0.2247803149606299
21
-0.2248167322834645
0
LINE
8
BLACK
6
CONTINUOUS
10
0.2247803149606299
20
-0.2248167322834645
11
0.2127444881889764
21
-0.2362382677165354
0
LINE
8
BLACK
6
CONTINUOUS
10
0.2127444881889764
20
-0.2362382677165354
11
0.2127224015748032
21
-0.2362521653543307
0
LINE
8
BLACK
6
CONTINUOUS
10
0.2127224015748032
20
-0.2362521653543307
11
0.2127061811023622
21
-0.2362727952755906
0
LINE
8
BLACK
6
CONTINUOUS
10
0.2127061811023622
20
-0.2362727952755906
11
0.2000891338582677
21
-0.2470483858267717
0
LINE
8
BLACK
6
CONTINUOUS
10
0.2000891338582677
20
-0.2470483858267717
11
0.2000663385826772
21
-0.2470611023622047
0
LINE
8
BLACK
6
CONTINUOUS
10
0.2000663385826772
20
-0.2470611023622047
11
0.200049094488189
21
-0.2470808267716536
0
LINE
8
BLACK
6
CONTINUOUS
10
0.200049094488189
20
-0.2470808267716536
11
0.1868853937007874
21
-0.257181968503937
0
LINE
8
BLACK
6
CONTINUOUS
10
0.1868853937007874
20
-0.257181968503937
11
0.1868618897637795
21
-0.2571935433070866
0
LINE
8
BLACK
6
CONTINUOUS
10
0.1868618897637795
20
-0.2571935433070866
11
0.1868437007874016
21
-0.2572122440944882
0
LINE
8
BLACK
6
CONTINUOUS
10
0.1868437007874016
20
-0.2572122440944882
11
0.1731692125984252
21
-0.2666103543307087
0
LINE
8
BLACK
6
CONTINUOUS
10
0.1731692125984252
20
-0.2666103543307087
11
0.1731451574803149
21
-0.2666206692913386
0
LINE
8
BLACK
6
CONTINUOUS
10
0.1731451574803149
20
-0.2666206692913386
11
0.1731259842519685
21
-0.2666384251968504
0
LINE
8
BLACK
6
CONTINUOUS
10
0.1731259842519685
20
-0.2666384251968504
11
0.1589788582677165
21
-0.2753077165354331
0
LINE
8
BLACK
6
CONTINUOUS
10
0.1589788582677165
20
-0.2753077165354331
11
0.1589543700787402
21
-0.2753167322834645
0
LINE
8
BLACK
6
CONTINUOUS
10
0.1589543700787402
20
-0.2753167322834645
11
0.1589342519685039
21
-0.2753335039370079
0
LINE
8
BLACK
6
CONTINUOUS
10
0.1589342519685039
20
-0.2753335039370079
11
0.1443523622047244
21
-0.2832507480314961
0
LINE
8
BLACK
6
CONTINUOUS
10
0.1443523622047244
20
-0.2832507480314961
11
0.1443273622047244
21
-0.2832584645669291
0
LINE
8
BLACK
6
CONTINUOUS
10
0.1443273622047244
20
-0.2832584645669291
11
0.1443064566929134
21
-0.2832741338582677
0
LINE
8
BLACK
6
CONTINUOUS
10
0.1443064566929134
20
-0.2832741338582677
11
0.1293304330708661
21
-0.2904175590551181
0
LINE
8
BLACK
6
CONTINUOUS
10
0.1293304330708661
20
-0.2904175590551181
11
0.1293051181102362
21
-0.2904239763779528
0
LINE
8
BLACK
6
CONTINUOUS
10
0.1293051181102362
20
-0.2904239763779528
11
0.1292833464566929
21
-0.2904385433070866
0
LINE
8
BLACK
6
CONTINUOUS
10
0.1292833464566929
20
-0.2904385433070866
11
0.1139538188976378
21
-0.296788031496063
0
LINE
8
BLACK
6
CONTINUOUS
10
0.1139538188976378
20
-0.296788031496063
11
0.1139281496062992
21
-0.2967931102362205
0
LINE
8
BLACK
6
CONTINUOUS
10
0.1139281496062992
20
-0.2967931102362205
11
0.1139057086614173
21
-0.2968064960629921
0
LINE
8
BLACK
6
CONTINUOUS
10
0.1139057086614173
20
-0.2968064960629921
11
0.098265157480315
21
-0.3023450393700787
0
LINE
8
BLACK
6
CONTINUOUS
10
0.098265157480315
20
-0.3023450393700787
11
0.0982392519685039
21
-0.3023487795275591
0
LINE
8
BLACK
6
CONTINUOUS
10
0.0982392519685039
20
-0.3023487795275591
11
0.0982161811023622
21
-0.3023609448818897
0
LINE
8
BLACK
6
CONTINUOUS
10
0.0982161811023622
20
-0.3023609448818897
11
0.0823066141732283
21
-0.3070735826771653
0
LINE
8
BLACK
6
CONTINUOUS
10
0.0823066141732283
20
-0.3070735826771653
11
0.0822806299212598
21
-0.3070759448818898
0
LINE
8
BLACK
6
CONTINUOUS
10
0.0822806299212598
20
-0.3070759448818898
11
0.0822568897637795
21
-0.3070869291338583
0
LINE
8
BLACK
6
CONTINUOUS
10
0.0822568897637795
20
-0.3070869291338583
11
0.0661231102362205
21
-0.3109606692913386
0
LINE
8
BLACK
6
CONTINUOUS
10
0.0661231102362205
20
-0.3109606692913386
11
0.0660968897637795
21
-0.3109616929133858
0
LINE
8
BLACK
6
CONTINUOUS
10
0.0660968897637795
20
-0.3109616929133858
11
0.0660726377952756
21
-0.3109713779527559
0
LINE
8
BLACK
6
CONTINUOUS
10
0.0660726377952756
20
-0.3109713779527559
11
0.0497581102362205
21
-0.3139948818897638
0
LINE
8
BLACK
6
CONTINUOUS
10
0.0497581102362205
20
-0.3139948818897638
11
0.049731968503937
21
-0.3139945275590551
0
LINE
8
BLACK
6
CONTINUOUS
10
0.049731968503937
20
-0.3139945275590551
11
0.0497072047244094
21
-0.3140029527559055
0
LINE
8
BLACK
6
CONTINUOUS
10
0.0497072047244094
20
-0.3140029527559055
11
0.0332565354330709
21
-0.3161687795275591
0
LINE
8
BLACK
6
CONTINUOUS
10
0.0332565354330709
20
-0.3161687795275591
11
0.0332304330708661
21
-0.3161670472440945
0
LINE
8
BLACK
6
CONTINUOUS
10
0.0332304330708661
20
-0.3161670472440945
11
0.0332052755905512
21
-0.3161741732283465
0
LINE
8
BLACK
6
CONTINUOUS
10
0.0332052755905512
20
-0.3161741732283465
11
0.016663937007874
21
-0.3174761023622047
0
LINE
8
BLACK
6
CONTINUOUS
10
0.016663937007874
20
-0.3174761023622047
11
0.016637874015748
21
-0.3174729921259842
0
LINE
8
BLACK
6
CONTINUOUS
10
0.016637874015748
20
-0.3174729921259842
11
0.0166124409448819
21
-0.317478779527559
0
LINE
8
BLACK
6
CONTINUOUS
10
0.0166124409448819
20
-0.317478779527559
11
0.0000257480314961
21
-0.3179129921259842
0
LINE
8
BLACK
6
CONTINUOUS
10
0.0000257480314961
20
-0.3179129921259842
11
-0.0000000393700787
21
-0.3179085433070866
0
LINE
8
BLACK
6
CONTINUOUS
10
-0.0000000393700787
20
-0.3179085433070866
11
-0.0000257874015748
21
-0.3179129921259842
0
LINE
8
BLACK
6
CONTINUOUS
10
-0.0000257874015748
20
-0.3179129921259842
11
-0.0166124803149606
21
-0.317478779527559
0
LINE
8
BLACK
6
CONTINUOUS
10
-0.0166124803149606
20
-0.317478779527559
11
-0.0166379527559055
21
-0.3174729921259842
0
LINE
8
BLACK
6
CONTINUOUS
10
-0.0166379527559055
20
-0.3174729921259842
11
-0.0166639763779528
21
-0.3174761023622047
0
LINE
8
BLACK
6
CONTINUOUS
10
-0.0166639763779528
20
-0.3174761023622047
11
-0.0332053543307087
21
-0.3161741732283465
0
LINE
8
BLACK
6
CONTINUOUS
10
-0.0332053543307087
20
-0.3161741732283465
11
-0.0332305511811024
21
-0.3161670472440945
0
LINE
8
BLACK
6
CONTINUOUS
10
-0.0332305511811024
20
-0.3161670472440945
11
-0.0332565748031496
21
-0.3161687795275591
0
LINE
8
BLACK
6
CONTINUOUS
10
-0.0332565748031496
20
-0.3161687795275591
11
-0.0497072440944882
21
-0.3140029527559055
0
LINE
8
BLACK
6
CONTINUOUS
10
-0.0497072440944882
20
-0.3140029527559055
11
-0.0497320472440945
21
-0.3139945275590551
0
LINE
8
BLACK
6
CONTINUOUS
10
-0.0497320472440945
20
-0.3139945275590551
11
-0.0497581496062992
21
-0.3139948818897638
0
LINE
8
BLACK
6
CONTINUOUS
10
-0.0497581496062992
20
-0.3139948818897638
11
-0.0660727165354331
21
-0.3109713779527559
0
LINE
8
BLACK
6
CONTINUOUS
10
-0.0660727165354331
20
-0.3109713779527559
11
-0.0660970078740157
21
-0.3109616929133858
0
LINE
8
BLACK
6
CONTINUOUS
10
-0.0660970078740157
20
-0.3109616929133858
11
-0.0661231102362205
21
-0.3109606692913386
0
LINE
8
BLACK
6
CONTINUOUS
10
-0.0661231102362205
20
-0.3109606692913386
11
-0.0822569291338583
21
-0.3070869291338583
0
LINE
8
BLACK
6
CONTINUOUS
10
-0.0822569291338583
20
-0.3070869291338583
11
-0.0822806299212598
21
-0.3070759842519685
0
LINE
8
BLACK
6
CONTINUOUS
10
-0.0822806299212598
20
-0.3070759842519685
11
-0.0823066535433071
21
-0.3070736220472441
0
LINE
8
BLACK
6
CONTINUOUS
10
-0.0823066535433071
20
-0.3070736220472441
11
-0.0982161811023622
21
-0.3023609448818897
0
LINE
8
BLACK
6
CONTINUOUS
10
-0.0982161811023622
20
-0.3023609448818897
11
-0.0982392913385827
21
-0.3023487795275591
0
LINE
8
BLACK
6
CONTINUOUS
10
-0.0982392913385827
20
-0.3023487795275591
11
-0.0982651968503937
21
-0.3023450393700787
0
LINE
8
BLACK
6
CONTINUOUS
10
-0.0982651968503937
20
-0.3023450393700787
11
-0.1139057480314961
21
-0.2968064960629921
0
LINE
8
BLACK
6
CONTINUOUS
10
-0.1139057480314961
20
-0.2968064960629921
11
-0.1139282283464567
21
-0.2967931102362205
0
LINE
8
BLACK
6
CONTINUOUS
10
-0.1139282283464567
20
-0.2967931102362205
11
-0.1139538582677165
21
-0.296788031496063
0
LINE
8
BLACK
6
CONTINUOUS
10
-0.1139538582677165
20
-0.296788031496063
11
-0.1292833858267717
21
-0.2904385433070866
0
LINE
8
BLACK
6
CONTINUOUS
10
-0.1292833858267717
20
-0.2904385433070866
11
-0.1293051181102362
21
-0.2904240157480315
0
LINE
8
BLACK
6
CONTINUOUS
10
-0.1293051181102362
20
-0.2904240157480315
11
-0.1293304724409449
21
-0.2904175984251968
0
LINE
8
BLACK
6
CONTINUOUS
10
-0.1293304724409449
20
-0.2904175984251968
11
-0.1443064960629921
21
-0.2832741338582677
0
LINE
8
BLACK
6
CONTINUOUS
10
-0.1443064960629921
20
-0.2832741338582677
11
-0.1443274409448819
21
-0.2832584645669291
0
LINE
8
BLACK
6
CONTINUOUS
10
-0.1443274409448819
20
-0.2832584645669291
11
-0.1443524015748031
21
-0.2832507480314961
0
LINE
8
BLACK
6
CONTINUOUS
10
-0.1443524015748031
20
-0.2832507480314961
11
-0.1589342913385827
21
-0.2753334645669291
0
LINE
8
BLACK
6
CONTINUOUS
10
-0.1589342913385827
20
-0.2753334645669291
11
-0.1589543700787402
21
-0.2753167716535433
0
LINE
8
BLACK
6
CONTINUOUS
10
-0.1589543700787402
20
-0.2753167716535433
11
-0.158978937007874
21
-0.2753077165354331
0
LINE
8
BLACK
6
CONTINUOUS
10
-0.158978937007874
20
-0.2753077165354331
11
-0.1731260236220472
21
-0.2666384251968504
0
LINE
8
BLACK
6
CONTINUOUS
10
-0.1731260236220472
20
-0.2666384251968504
11
-0.1731452362204724
21
-0.2666206692913386
0
LINE
8
BLACK
6
CONTINUOUS
10
-0.1731452362204724
20
-0.2666206692913386
11
-0.1731692519685039
21
-0.2666103543307087
0
LINE
8
BLACK
6
CONTINUOUS
10
-0.1731692519685039
20
-0.2666103543307087
11
-0.1868437401574803
21
-0.2572122440944882
0
LINE
8
BLACK
6
CONTINUOUS
10
-0.1868437401574803
20
-0.2572122440944882
11
-0.1868620078740157
21
-0.2571935039370079
0
LINE
8
BLACK
6
CONTINUOUS
10
-0.1868620078740157
20
-0.2571935039370079
11
-0.1868854724409449
21
-0.2571819291338583
0
LINE
8
BLACK
6
CONTINUOUS
10
-0.1868854724409449
20
-0.2571819291338583
11
-0.2000491338582677
21
-0.2470808267716536
0
LINE
8
BLACK
6
CONTINUOUS
10
-0.2000491338582677
20
-0.2470808267716536
11
-0.2000664173228346
21
-0.2470611023622047
0
LINE
8
BLACK
6
CONTINUOUS
10
-0.2000664173228346
20
-0.2470611023622047
11
-0.2000891732283465
21
-0.2470483858267717
0
LINE
8
BLACK
6
CONTINUOUS
10
-0.2000891732283465
20
-0.2470483858267717
11
-0.2127062204724409
21
-0.2362727559055118
0
LINE
8
BLACK
6
CONTINUOUS
10
-0.2127062204724409
20
-0.2362727559055118
11
-0.2127223622047244
21
-0.2362522834645669
0
LINE
8
BLACK
6
CONTINUOUS
10
-0.2127223622047244
20
-0.2362522834645669
11
-0.2127445275590551
21
-0.2362383070866142
0
LINE
8
BLACK
6
CONTINUOUS
10
-0.2127445275590551
20
-0.2362383070866142
11
-0.2247803543307086
21
-0.2248167322834645
0
LINE
8
BLACK
6
CONTINUOUS
10
-0.2247803543307086
20
-0.2248167322834645
11
-0.2247954724409449
21
-0.2247953543307087
0
LINE
8
BLACK
6
CONTINUOUS
10
-0.2247954724409449
20
-0.2247953543307087
11
-0.2248167716535433
21
-0.2247803149606299
0
LINE
8
BLACK
6
CONTINUOUS
10
-0.2248167716535433
20
-0.2247803149606299
11
-0.2362383070866142
21
-0.2127444881889764
0
LINE
8
BLACK
6
CONTINUOUS
10
-0.2362383070866142
20
-0.2127444881889764
11
-0.2362522440944882
21
-0.2127224015748032
0
LINE
8
BLACK
6
CONTINUOUS
10
-0.2362522440944882
20
-0.2127224015748032
11
-0.2362728346456693
21
-0.2127061811023622
0
LINE
8
BLACK
6
CONTINUOUS
10
-0.2362728346456693
20
-0.2127061811023622
11
-0.2470484251968504
21
-0.2000891338582677
0
LINE
8
BLACK
6
CONTINUOUS
10
-0.2470484251968504
20
-0.2000891338582677
11
-0.2470611811023622
21
-0.2000663385826772
0
LINE
8
BLACK
6
CONTINUOUS
10
-0.2470611811023622
20
-0.2000663385826772
11
-0.2470808661417323
21
-0.200049094488189
0
LINE
8
BLACK
6
CONTINUOUS
10
-0.2470808661417323
20
-0.200049094488189
11
-0.2571820078740157
21
-0.1868853937007874
0
LINE
8
BLACK
6
CONTINUOUS
10
-0.2571820078740157
20
-0.1868853937007874
11
-0.2571936220472441
21
-0.1868618897637795
0
LINE
8
BLACK
6
CONTINUOUS
10
-0.2571936220472441
20
-0.1868618897637795
11
-0.2572122834645669
21
-0.1868437007874016
0
LINE
8
BLACK
6
CONTINUOUS
10
-0.2572122834645669
20
-0.1868437007874016
11
-0.2666103937007874
21
-0.1731692125984252
0
LINE
8
BLACK
6
CONTINUOUS
10
-0.2666103937007874
20
-0.1731692125984252
11
-0.266620748031496
21
-0.1731451574803149
0
LINE
8
BLACK
6
CONTINUOUS
10
-0.266620748031496
20
-0.1731451574803149
11
-0.2666384645669291
21
-0.1731259842519685
0
LINE
8
BLACK
6
CONTINUOUS
10
-0.2666384645669291
20
-0.1731259842519685
11
-0.2753077559055118
21
-0.1589788582677165
0
LINE
8
BLACK
6
CONTINUOUS
10
-0.2753077559055118
20
-0.1589788582677165
11
-0.275316811023622
21
-0.1589543700787402
0
LINE
8
BLACK
6
CONTINUOUS
10
-0.275316811023622
20
-0.1589543700787402
11
-0.2753335433070866
21
-0.1589342519685039
0
LINE
8
BLACK
6
CONTINUOUS
10
-0.2753335433070866
20
-0.1589342519685039
11
-0.2832507874015748
21
-0.1443523622047244
0
LINE
8
BLACK
6
CONTINUOUS
10
-0.2832507874015748
20
-0.1443523622047244
11
-0.2832585433070866
21
-0.1443273622047244
0
LINE
8
BLACK
6
CONTINUOUS
10
-0.2832585433070866
20
-0.1443273622047244
11
-0.2832741732283465
21
-0.1443064566929134
0
LINE
8
BLACK
6
CONTINUOUS
10
-0.2832741732283465
20
-0.1443064566929134
11
-0.2904175984251968
21
-0.1293304330708661
0
LINE
8
BLACK
6
CONTINUOUS
10
-0.2904175984251968
20
-0.1293304330708661
11
-0.2904240551181102
21
-0.1293051181102362
0
LINE
8
BLACK
6
CONTINUOUS
10
-0.2904240551181102
20
-0.1293051181102362
11
-0.2904385826771653
21
-0.1292833464566929
0
LINE
8
BLACK
6
CONTINUOUS
10
-0.2904385826771653
20
-0.1292833464566929
11
-0.2967880708661417
21
-0.1139538188976378
0
LINE
8
BLACK
6
CONTINUOUS
10
-0.2967880708661417
20
-0.1139538188976378
11
-0.296793188976378
21
-0.1139281496062992
0
LINE
8
BLACK
6
CONTINUOUS
10
-0.296793188976378
20
-0.1139281496062992
11
-0.2968065354330708
21
-0.1139057086614173
0
LINE
8
BLACK
6
CONTINUOUS
10
-0.2968065354330708
20
-0.1139057086614173
11
-0.3023450787401575
21
-0.098265157480315
0
LINE
8
BLACK
6
CONTINUOUS
10
-0.3023450787401575
20
-0.098265157480315
11
-0.3023488582677165
21
-0.0982392519685039
0
LINE
8
BLACK
6
CONTINUOUS
10
-0.3023488582677165
20
-0.0982392519685039
11
-0.3023609842519685
21
-0.0982161811023622
0
LINE
8
BLACK
6
CONTINUOUS
10
-0.3023609842519685
20
-0.0982161811023622
11
-0.3070736220472441
21
-0.0823066141732283
0
LINE
8
BLACK
6
CONTINUOUS
10
-0.3070736220472441
20
-0.0823066141732283
11
-0.3070760236220472
21
-0.0822806299212598
0
LINE
8
BLACK
6
CONTINUOUS
10
-0.3070760236220472
20
-0.0822806299212598
11
-0.307086968503937
21
-0.0822568897637795
0
LINE
8
BLACK
6
CONTINUOUS
10
-0.307086968503937
20
-0.0822568897637795
11
-0.3109607086614173
21
-0.0661231102362205
0
LINE
8
BLACK
6
CONTINUOUS
10
-0.3109607086614173
20
-0.0661231102362205
11
-0.3109617716535433
21
-0.0660968897637795
0
LINE
8
BLACK
6
CONTINUOUS
10
-0.3109617716535433
20
-0.0660968897637795
11
-0.3109714173228346
21
-0.0660726377952756
0
LINE
8
BLACK
6
CONTINUOUS
10
-0.3109714173228346
20
-0.0660726377952756
11
-0.3139949212598425
21
-0.0497581102362205
0
LINE
8
BLACK
6
CONTINUOUS
10
-0.3139949212598425
20
-0.0497581102362205
11
-0.3139946062992126
21
-0.049731968503937
0
LINE
8
BLACK
6
CONTINUOUS
10
-0.3139946062992126
20
-0.049731968503937
11
-0.3140029921259843
21
-0.0497072047244094
0
LINE
8
BLACK
6
CONTINUOUS
10
-0.3140029921259843
20
-0.0497072047244094
11
-0.3161688188976378
21
-0.0332565354330709
0
LINE
8
BLACK
6
CONTINUOUS
10
-0.3161688188976378
20
-0.0332565354330709
11
-0.316167125984252
21
-0.0332304330708661
0
LINE
8
BLACK
6
CONTINUOUS
10
-0.316167125984252
20
-0.0332304330708661
11
-0.3161742125984252
21
-0.0332052755905512
0
LINE
8
BLACK
6
CONTINUOUS
10
-0.3161742125984252
20
-0.0332052755905512
11
-0.3163087401574803
21
-0.0314961023622047
0
LINE
8
BLACK
6
CONTINUOUS
10
-0.3163087401574803
20
-0.0314961023622047
11
-0.4478346456692913
21
-0.0314961023622047
0
LINE
8
BLACK
6
CONTINUOUS
10
-0.4478346456692913
20
-0.0314961023622047
11
-0.4478346456692913
21
-0.0393700787401575
0
LINE
8
BLACK
6
CONTINUOUS
10
-0.4478346456692913
20
-0.0393700787401575
11
-0.447849842519685
21
-0.0394463779527559
0
LINE
8
BLACK
6
CONTINUOUS
10
-0.447849842519685
20
-0.0394463779527559
11
-0.4478467716535433
21
-0.039524094488189
0
LINE
8
BLACK
6
CONTINUOUS
10
-0.4478467716535433
20
-0.039524094488189
11
-0.4498704330708661
21
-0.0522985039370079
0
LINE
8
BLACK
6
CONTINUOUS
10
-0.4498704330708661
20
-0.0522985039370079
11
-0.4499238582677165
21
-0.052443188976378
0
LINE
8
BLACK
6
CONTINUOUS
10
-0.4499238582677165
20
-0.052443188976378
11
-0.4499655511811024
21
-0.0525912204724409
0
LINE
8
BLACK
6
CONTINUOUS
10
-0.4499655511811024
20
-0.0525912204724409
11
-0.4558356299212598
21
-0.0641148031496063
0
LINE
8
BLACK
6
CONTINUOUS
10
-0.4558356299212598
20
-0.0641148031496063
11
-0.4559310236220472
21
-0.0642357874015748
0
LINE
8
BLACK
6
CONTINUOUS
10
-0.4559310236220472
20
-0.0642357874015748
11
-0.4560166535433071
21
-0.0643639763779528
0
LINE
8
BLACK
6
CONTINUOUS
10
-0.4560166535433071
20
-0.0643639763779528
11
-0.4651622834645669
21
-0.0735098031496063
0
LINE
8
BLACK
6
CONTINUOUS
10
-0.4651622834645669
20
-0.0735098031496063
11
-0.4652903937007874
21
-0.0735953543307087
0
LINE
8
BLACK
6
CONTINUOUS
10
-0.4652903937007874
20
-0.0735953543307087
11
-0.4654114173228346
21
-0.0736908267716535
0
LINE
8
BLACK
6
CONTINUOUS
10
-0.4654114173228346
20
-0.0736908267716535
11
-0.4769350393700788
21
-0.0795624409448819
0
LINE
8
BLACK
6
CONTINUOUS
10
-0.4769350393700788
20
-0.0795624409448819
11
-0.4770834645669291
21
-0.0796042913385827
0
LINE
8
BLACK
6
CONTINUOUS
10
-0.4770834645669291
20
-0.0796042913385827
11
-0.4772279133858268
21
-0.0796575984251968
0
LINE
8
BLACK
6
CONTINUOUS
10
-0.4772279133858268
20
-0.0796575984251968
11
-0.4900035826771653
21
-0.0816807480314961
0
LINE
8
BLACK
6
CONTINUOUS
10
-0.4900035826771653
20
-0.0816807480314961
11
-0.4901575196850393
21
-0.0816746850393701
0
LINE
8
BLACK
6
CONTINUOUS
10
-0.4901575196850393
20
-0.0816746850393701
11
-0.4903114566929134
21
-0.0816807480314961
0
LINE
8
BLACK
6
CONTINUOUS
10
-0.4903114566929134
20
-0.0816807480314961
11
-0.5030870078740157
21
-0.0796575984251968
0
LINE
8
BLACK
6
CONTINUOUS
10
-0.5030870078740157
20
-0.0796575984251968
11
-0.5032314566929134
21
-0.0796042913385827
0
LINE
8
BLACK
6
CONTINUOUS
10
-0.5032314566929134
20
-0.0796042913385827
11
-0.5033799212598425
21
-0.0795624409448819
0
LINE
8
BLACK
6
CONTINUOUS
10
-0.5033799212598425
20
-0.0795624409448819
11
-0.5149035433070867
21
-0.0736908267716535
0
LINE
8
BLACK
6
CONTINUOUS
10
-0.5149035433070867
20
-0.0736908267716535
11
-0.5150244094488189
21
-0.0735955118110236
0
LINE
8
BLACK
6
CONTINUOUS
10
-0.5150244094488189
20
-0.0735955118110236
11
-0.5151526771653543
21
-0.073509842519685
0
LINE
8
BLACK
6
CONTINUOUS
10
-0.5151526771653543
20
-0.073509842519685
11
-0.5242983464566929
21
-0.0643640157480315
0
LINE
8
BLACK
6
CONTINUOUS
10
-0.5242983464566929
20
-0.0643640157480315
11
-0.5243842125984252
21
-0.0642355118110236
0
LINE
8
BLACK
6
CONTINUOUS
10
-0.5243842125984252
20
-0.0642355118110236
11
-0.5244793700787401
21
-0.0641147637795276
0
LINE
8
BLACK
6
CONTINUOUS
10
-0.5244793700787401
20
-0.0641147637795276
11
-0.5303494881889763
21
-0.0525912598425197
0
LINE
8
BLACK
6
CONTINUOUS
10
-0.5303494881889763
20
-0.0525912598425197
11
-0.5303912598425197
21
-0.0524431102362205
0
LINE
8
BLACK
6
CONTINUOUS
10
-0.5303912598425197
20
-0.0524431102362205
11
-0.5304446062992126
21
-0.0522985039370079
0
LINE
8
BLACK
6
CONTINUOUS
10
-0.5304446062992126
20
-0.0522985039370079
11
-0.5324681889763779
21
-0.0395240551181102
0
LINE
8
BLACK
6
CONTINUOUS
10
-0.5324681889763779
20
-0.0395240551181102
11
-0.532465157480315
21
-0.0394463779527559
0
LINE
8
BLACK
6
CONTINUOUS
10
-0.532465157480315
20
-0.0394463779527559
11
-0.5324803149606299
21
-0.0393700787401575
0
LINE
8
BLACK
6
CONTINUOUS
10
-0.5324803149606299
20
-0.0393700787401575
11
-0.5324803149606299
21
0.0393700787401575
0
LINE
8
BLACK
6
CONTINUOUS
10
-0.5324803149606299
20
0.0393700787401575
11
-0.532465157480315
21
0.0394464173228346
0
LINE
8
BLACK
6
CONTINUOUS
10
-0.532465157480315
20
0.0394464173228346
11
-0.5324681889763779
21
0.0395240551181102
0
LINE
8
BLACK
6
CONTINUOUS
10
-0.5324681889763779
20
0.0395240551181102
11
-0.5304446062992126
21
0.0522985433070866
0
LINE
8
BLACK
6
CONTINUOUS
10
-0.5304446062992126
20
0.0522985433070866
11
-0.5303912598425197
21
0.052443188976378
0
LINE
8
BLACK
6
CONTINUOUS
10
-0.5303912598425197
20
0.052443188976378
11
-0.5303494881889763
21
0.0525912992125984
0
LINE
8
BLACK
6
CONTINUOUS
10
-0.5303494881889763
20
0.0525912992125984
11
-0.5244793700787401
21
0.0641148031496063
0
LINE
8
BLACK
6
CONTINUOUS
10
-0.5244793700787401
20
0.0641148031496063
11
-0.5243842125984252
21
0.0642355905511811
0
LINE
8
BLACK
6
CONTINUOUS
10
-0.5243842125984252
20
0.0642355905511811
11
-0.5242983464566929
21
0.0643640551181102
0
LINE
8
BLACK
6
CONTINUOUS
10
-0.5242983464566929
20
0.0643640551181102
11
-0.5151526771653543
21
0.0735097244094488
0
LINE
8
BLACK
6
CONTINUOUS
10
-0.5151526771653543
20
0.0735097244094488
11
-0.5150244094488189
21
0.0735954330708661
0
LINE
8
BLACK
6
CONTINUOUS
10
-0.5150244094488189
20
0.0735954330708661
11
-0.5149035433070867
21
0.0736907086614173
0
LINE
8
BLACK
6
CONTINUOUS
10
-0.5149035433070867
20
0.0736907086614173
11
-0.5033799212598425
21
0.0795624803149606
0
LINE
8
BLACK
6
CONTINUOUS
10
-0.5033799212598425
20
0.0795624803149606
11
-0.5032314566929134
21
0.0796043700787402
0
LINE
8
BLACK
6
CONTINUOUS
10
-0.5032314566929134
20
0.0796043700787402
11
-0.5030870078740157
21
0.0796576377952756
0
LINE
8
BLACK
6
CONTINUOUS
10
-0.5030870078740157
20
0.0796576377952756
11
-0.4903114566929134
21
0.0816807874015748
0
LINE
8
BLACK
6
CONTINUOUS
10
-0.4903114566929134
20
0.0816807874015748
11
-0.4901575196850393
21
0.0816747637795276
0
LINE
8
BLACK
6
CONTINUOUS
10
-0.4901575196850393
20
0.0816747637795276
11
-0.4900035826771653
21
0.0816807874015748
0
LINE
8
BLACK
6
CONTINUOUS
10
-0.4900035826771653
20
0.0816807874015748
11
-0.4772279133858268
21
0.0796576377952756
0
LINE
8
BLACK
6
CONTINUOUS
10
-0.4772279133858268
20
0.0796576377952756
11
-0.4770834645669291
21
0.0796043700787402
0
LINE
8
BLACK
6
CONTINUOUS
10
-0.4770834645669291
20
0.0796043700787402
11
-0.4769350393700788
21
0.0795624803149606
0
LINE
8
BLACK
6
CONTINUOUS
10
-0.4769350393700788
20
0.0795624803149606
11
-0.4654114173228346
21
0.0736907086614173
0
LINE
8
BLACK
6
CONTINUOUS
10
-0.4654114173228346
20
0.0736907086614173
11
-0.4652905905511811
21
0.0735954330708661
0
LINE
8
BLACK
6
CONTINUOUS
10
-0.4652905905511811
20
0.0735954330708661
11
-0.4651622834645669
21
0.0735097244094488
0
LINE
8
BLACK
6
CONTINUOUS
10
-0.4651622834645669
20
0.0735097244094488
11
-0.4560166535433071
21
0.0643640551181102
0
LINE
8
BLACK
6
CONTINUOUS
10
-0.4560166535433071
20
0.0643640551181102
11
-0.4559309448818897
21
0.0642357480314961
0
LINE
8
BLACK
6
CONTINUOUS
10
-0.4559309448818897
20
0.0642357480314961
11
-0.4558356299212598
21
0.064114842519685
0
LINE
8
BLACK
6
CONTINUOUS
10
-0.4558356299212598
20
0.064114842519685
11
-0.4499655511811024
21
0.0525912598425197
0
LINE
8
BLACK
6
CONTINUOUS
10
-0.4499655511811024
20
0.0525912598425197
11
-0.4499238582677165
21
0.0524432677165354
0
LINE
8
BLACK
6
CONTINUOUS
10
-0.4499238582677165
20
0.0524432677165354
11
-0.4498704330708661
21
0.0522985433070866
0
LINE
8
BLACK
6
CONTINUOUS
10
-0.4498704330708661
20
0.0522985433070866
11
-0.4478467716535433
21
0.039524094488189
0
LINE
8
BLACK
6
CONTINUOUS
10
-0.4478467716535433
20
0.039524094488189
11
-0.447849842519685
21
0.0394464173228346
0
LINE
8
BLACK
6
CONTINUOUS
10
-0.447849842519685
20
0.0394464173228346
11
-0.4478346456692913
21
0.0393700787401575
0
LINE
8
BLACK
6
CONTINUOUS
10
-0.4478346456692913
20
0.0393700787401575
11
-0.4478346456692913
21
0.0314961417322835
0
LINE
8
BLACK
6
CONTINUOUS
10
-0.4478346456692913
20
0.0314961417322835
11
-0.3163087401574803
21
0.0314961417322835
0
LINE
8
BLACK
6
CONTINUOUS
10
-0.3163087401574803
20
0.0314961417322835
11
-0.3161742125984252
21
0.0332053149606299
0
LINE
8
BLACK
6
CONTINUOUS
10
-0.3161742125984252
20
0.0332053149606299
11
-0.316167125984252
21
0.0332305118110236
0
LINE
8
BLACK
6
CONTINUOUS
10
-0.316167125984252
20
0.0332305118110236
11
-0.3161688188976378
21
0.0332565748031496
0
LINE
8
BLACK
6
CONTINUOUS
10
-0.3161688188976378
20
0.0332565748031496
11
-0.3140029921259843
21
0.0497072440944882
0
LINE
8
BLACK
6
CONTINUOUS
10
-0.3140029921259843
20
0.0497072440944882
11
-0.3139946062992126
21
0.0497320472440945
0
LINE
8
BLACK
6
CONTINUOUS
10
-0.3139946062992126
20
0.0497320472440945
11
-0.3139949212598425
21
0.0497581496062992
0
LINE
8
BLACK
6
CONTINUOUS
10
-0.3139949212598425
20
0.0497581496062992
11
-0.3109714173228346
21
0.0660726771653543
0
LINE
8
BLACK
6
CONTINUOUS
10
-0.3109714173228346
20
0.0660726771653543
11
-0.3109617716535433
21
0.066096968503937
0
LINE
8
BLACK
6
CONTINUOUS
10
-0.3109617716535433
20
0.066096968503937
11
-0.3109607086614173
21
0.0661231496062992
0
LINE
8
BLACK
6
CONTINUOUS
10
-0.3109607086614173
20
0.0661231496062992
11
-0.307086968503937
21
0.0822569291338583
0
LINE
8
BLACK
6
CONTINUOUS
10
-0.307086968503937
20
0.0822569291338583
11
-0.3070760236220472
21
0.0822807086614173
0
LINE
8
BLACK
6
CONTINUOUS
10
-0.3070760236220472
20
0.0822807086614173
11
-0.3070736220472441
21
0.0823066535433071
0
LINE
8
BLACK
6
CONTINUOUS
10
-0.3070736220472441
20
0.0823066535433071
11
-0.3023609842519685
21
0.0982162204724409
0
LINE
8
BLACK
6
CONTINUOUS
10
-0.3023609842519685
20
0.0982162204724409
11
-0.3023488582677165
21
0.0982393307086614
0
LINE
8
BLACK
6
CONTINUOUS
10
-0.3023488582677165
20
0.0982393307086614
11
-0.3023450787401575
21
0.0982651968503937
0
LINE
8
BLACK
6
CONTINUOUS
10
-0.3023450787401575
20
0.0982651968503937
11
-0.2968065354330708
21
0.1139057480314961
0
LINE
8
BLACK
6
CONTINUOUS
10
-0.2968065354330708
20
0.1139057480314961
11
-0.296793188976378
21
0.1139282283464567
0
LINE
8
BLACK
6
CONTINUOUS
10
-0.296793188976378
20
0.1139282283464567
11
-0.2967880708661417
21
0.1139538582677165
0
LINE
8
BLACK
6
CONTINUOUS
10
-0.2967880708661417
20
0.1139538582677165
11
-0.2904385826771653
21
0.1292833858267717
0
LINE
8
BLACK
6
CONTINUOUS
10
-0.2904385826771653
20
0.1292833858267717
11
-0.2904240551181102
21
0.1293051968503937
0
LINE
8
BLACK
6
CONTINUOUS
10
-0.2904240551181102
20
0.1293051968503937
11
-0.2904175984251968
21
0.1293304724409449
0
LINE
8
BLACK
6
CONTINUOUS
10
-0.2904175984251968
20
0.1293304724409449
11
-0.2832741732283465
21
0.1443064960629921
0
LINE
8
BLACK
6
CONTINUOUS
10
-0.2832741732283465
20
0.1443064960629921
11
-0.2832585433070866
21
0.1443274409448819
0
LINE
8
BLACK
6
CONTINUOUS
10
-0.2832585433070866
20
0.1443274409448819
11
-0.2832507874015748
21
0.1443524015748031
0
LINE
8
BLACK
6
CONTINUOUS
10
-0.2832507874015748
20
0.1443524015748031
11
-0.2753335433070866
21
0.1589342913385827
0
LINE
8
BLACK
6
CONTINUOUS
10
-0.2753335433070866
20
0.1589342913385827
11
-0.275316811023622
21
0.1589544488188976
0
LINE
8
BLACK
6
CONTINUOUS
10
-0.275316811023622
20
0.1589544488188976
11
-0.2753077559055118
21
0.1589788976377953
0
LINE
8
BLACK
6
CONTINUOUS
10
-0.2753077559055118
20
0.1589788976377953
11
-0.2666384645669291
21
0.1731260236220472
0
LINE
8
BLACK
6
CONTINUOUS
10
-0.2666384645669291
20
0.1731260236220472
11
-0.266620748031496
21
0.1731452362204724
0
LINE
8
BLACK
6
CONTINUOUS
10
-0.266620748031496
20
0.1731452362204724
11
-0.2666103937007874
21
0.1731692519685039
0
LINE
8
BLACK
6
CONTINUOUS
10
-0.2666103937007874
20
0.1731692519685039
11
-0.2572122834645669
21
0.1868437401574803
0
LINE
8
BLACK
6
CONTINUOUS
10
-0.2572122834645669
20
0.1868437401574803
11
-0.2571936220472441
21
0.186861968503937
0
LINE
8
BLACK
6
CONTINUOUS
10
-0.2571936220472441
20
0.186861968503937
11
-0.2571820078740157
21
0.1868854330708661
0
LINE
8
BLACK
6
CONTINUOUS
10
-0.2571820078740157
20
0.1868854330708661
11
-0.2470808661417323
21
0.2000491338582677
0
LINE
8
BLACK
6
CONTINUOUS
10
-0.2470808661417323
20
0.2000491338582677
11
-0.2470611811023622
21
0.2000664173228346
0
LINE
8
BLACK
6
CONTINUOUS
10
-0.2470611811023622
20
0.2000664173228346
11
-0.2470484251968504
21
0.2000891732283465
0
LINE
8
BLACK
6
CONTINUOUS
10
-0.2470484251968504
20
0.2000891732283465
11
-0.2362728346456693
21
0.2127062204724409
0
LINE
8
BLACK
6
CONTINUOUS
10
-0.2362728346456693
20
0.2127062204724409
11
-0.2362522440944882
21
0.2127224803149606
0
LINE
8
BLACK
6
CONTINUOUS
10
-0.2362522440944882
20
0.2127224803149606
11
-0.2362383070866142
21
0.2127445275590551
0
LINE
8
BLACK
6
CONTINUOUS
10
-0.2362383070866142
20
0.2127445275590551
11
-0.2248167716535433
21
0.2247803543307086
0
LINE
8
BLACK
6
CONTINUOUS
10
-0.2248167716535433
20
0.2247803543307086
11
-0.2247954724409449
21
0.2247954330708661
0
LINE
8
BLACK
6
CONTINUOUS
10
-0.2247954724409449
20
0.2247954330708661
11
-0.2247803543307086
21
0.2248167716535433
0
LINE
8
BLACK
6
CONTINUOUS
10
-0.2247803543307086
20
0.2248167716535433
11
-0.2127445275590551
21
0.2362383464566929
0
LINE
8
BLACK
6
CONTINUOUS
10
-0.2127445275590551
20
0.2362383464566929
11
-0.2127223622047244
21
0.2362523622047244
0
LINE
8
BLACK
6
CONTINUOUS
10
-0.2127223622047244
20
0.2362523622047244
11
-0.2127062204724409
21
0.2362727952755906
0
LINE
8
BLACK
6
CONTINUOUS
10
-0.2127062204724409
20
0.2362727952755906
11
-0.2000891732283465
21
0.2470484251968504
0
LINE
8
BLACK
6
CONTINUOUS
10
-0.2000891732283465
20
0.2470484251968504
11
-0.2000664173228346
21
0.2470611811023622
0
LINE
8
BLACK
6
CONTINUOUS
10
-0.2000664173228346
20
0.2470611811023622
11
-0.2000491338582677
21
0.2470808661417323
0
LINE
8
BLACK
6
CONTINUOUS
10
-0.2000491338582677
20
0.2470808661417323
11
-0.1868854724409449
21
0.257181968503937
0
LINE
8
BLACK
6
CONTINUOUS
10
-0.1868854724409449
20
0.257181968503937
11
-0.1868620078740157
21
0.2571935826771654
0
LINE
8
BLACK
6
CONTINUOUS
10
-0.1868620078740157
20
0.2571935826771654
11
-0.1868437401574803
21
0.2572122834645669
0
LINE
8
BLACK
6
CONTINUOUS
10
-0.1868437401574803
20
0.2572122834645669
11
-0.1731692519685039
21
0.2666103937007874
0
LINE
8
BLACK
6
CONTINUOUS
10
-0.1731692519685039
20
0.2666103937007874
11
-0.1731452362204724
21
0.266620748031496
0
LINE
8
BLACK
6
CONTINUOUS
10
-0.1731452362204724
20
0.266620748031496
11
-0.1731260236220472
21
0.2666384645669291
0
LINE
8
BLACK
6
CONTINUOUS
10
-0.1731260236220472
20
0.2666384645669291
11
-0.158978937007874
21
0.2753077559055118
0
LINE
8
BLACK
6
CONTINUOUS
10
-0.158978937007874
20
0.2753077559055118
11
-0.1589543700787402
21
0.2753168503937008
0
LINE
8
BLACK
6
CONTINUOUS
10
-0.1589543700787402
20
0.2753168503937008
11
-0.1589342913385827
21
0.2753335039370079
0
LINE
8
BLACK
6
CONTINUOUS
10
-0.1589342913385827
20
0.2753335039370079
11
-0.1443524015748031
21
0.2832507874015748
0
LINE
8
BLACK
6
CONTINUOUS
10
-0.1443524015748031
20
0.2832507874015748
11
-0.1443274409448819
21
0.2832585433070866
0
LINE
8
BLACK
6
CONTINUOUS
10
-0.1443274409448819
20
0.2832585433070866
11
-0.1443064960629921
21
0.2832741732283465
0
LINE
8
BLACK
6
CONTINUOUS
10
-0.1443064960629921
20
0.2832741732283465
11
-0.1293304724409449
21
0.2904176377952756
0
LINE
8
BLACK
6
CONTINUOUS
10
-0.1293304724409449
20
0.2904176377952756
11
-0.1293051181102362
21
0.290424094488189
0
LINE
8
BLACK
6
CONTINUOUS
10
-0.1293051181102362
20
0.290424094488189
11
-0.1292833858267717
21
0.2904385826771653
0
LINE
8
BLACK
6
CONTINUOUS
10
-0.1292833858267717
20
0.2904385826771653
11
-0.1139538582677165
21
0.2967880708661417
0
LINE
8
BLACK
6
CONTINUOUS
10
-0.1139538582677165
20
0.2967880708661417
11
-0.1139282283464567
21
0.296793188976378
0
LINE
8
BLACK
6
CONTINUOUS
10
-0.1139282283464567
20
0.296793188976378
11
-0.1139057480314961
21
0.2968065354330708
0
LINE
8
BLACK
6
CONTINUOUS
10
-0.1139057480314961
20
0.2968065354330708
11
-0.0982651968503937
21
0.3023450787401575
0
LINE
8
BLACK
6
CONTINUOUS
10
-0.0982651968503937
20
0.3023450787401575
11
-0.0982392913385827
21
0.3023488582677165
0
LINE
8
BLACK
6
CONTINUOUS
10
-0.0982392913385827
20
0.3023488582677165
11
-0.0982161811023622
21
0.3023609842519685
0
LINE
8
BLACK
6
CONTINUOUS
10
-0.0982161811023622
20
0.3023609842519685
11
-0.0823066535433071
21
0.3070736614173228
0
LINE
8
BLACK
6
CONTINUOUS
10
-0.0823066535433071
20
0.3070736614173228
11
-0.0822806299212598
21
0.307076062992126
0
LINE
8
BLACK
6
CONTINUOUS
10
-0.0822806299212598
20
0.307076062992126
11
-0.0822569291338583
21
0.307086968503937
0
LINE
8
BLACK
6
CONTINUOUS
10
-0.0822569291338583
20
0.307086968503937
11
-0.0661231102362205
21
0.3109607086614173
0
LINE
8
BLACK
6
CONTINUOUS
10
-0.0661231102362205
20
0.3109607086614173
11
-0.0660970078740157
21
0.3109617716535433
0
LINE
8
BLACK
6
CONTINUOUS
10
-0.0660970078740157
20
0.3109617716535433
11
-0.0660727165354331
21
0.3109714173228346
0
LINE
8
BLACK
6
CONTINUOUS
10
-0.0660727165354331
20
0.3109714173228346
11
-0.0497581496062992
21
0.3139949212598425
0
LINE
8
BLACK
6
CONTINUOUS
10
-0.0497581496062992
20
0.3139949212598425
11
-0.0497320472440945
21
0.3139946062992126
0
LINE
8
BLACK
6
CONTINUOUS
10
-0.0497320472440945
20
0.3139946062992126
11
-0.0497072440944882
21
0.3140029921259843
0
LINE
8
BLACK
6
CONTINUOUS
10
-0.0497072440944882
20
0.3140029921259843
11
-0.0332565748031496
21
0.3161688188976378
0
LINE
8
BLACK
6
CONTINUOUS
10
-0.0332565748031496
20
0.3161688188976378
11
-0.0332305511811024
21
0.316167125984252
0
LINE
8
BLACK
6
CONTINUOUS
10
-0.0332305511811024
20
0.316167125984252
11
-0.0332053543307087
21
0.3161742125984252
0
LINE
8
BLACK
6
CONTINUOUS
10
-0.0332053543307087
20
0.3161742125984252
11
-0.0166639763779528
21
0.3174761417322834
0
LINE
8
BLACK
6
CONTINUOUS
10
-0.0166639763779528
20
0.3174761417322834
11
-0.0166379527559055
21
0.3174730708661417
0
LINE
8
BLACK
6
CONTINUOUS
10
-0.0166379527559055
20
0.3174730708661417
11
-0.0166124803149606
21
0.3174788188976378
0
LINE
8
BLACK
6
CONTINUOUS
10
-0.0166124803149606
20
0.3174788188976378
11
-0.0000257874015748
21
0.317913031496063
0
LINE
8
BLACK
6
CONTINUOUS
10
-0.0000257874015748
20
0.317913031496063
11
-0.0000000393700787
21
0.3179086220472441
0
LINE
8
BLACK
6
CONTINUOUS
10
-0.0000000393700787
20
0.3179086220472441
11
0.0000257480314961
21
0.317913031496063
0
LINE
8
BLACK
6
CONTINUOUS
10
0.0000257480314961
20
0.317913031496063
11
0.0166124409448819
21
0.3174788188976378
0
LINE
8
BLACK
6
CONTINUOUS
10
-0.0165348818897638
20
0.3155117322834646
11
-0.0330253937007874
21
0.314213779527559
0
LINE
8
BLACK
6
CONTINUOUS
10
-0.0330253937007874
20
0.314213779527559
11
-0.0494250787401575
21
0.3120546850393701
0
LINE
8
BLACK
6
CONTINUOUS
10
-0.0494250787401575
20
0.3120546850393701
11
-0.0656884251968504
21
0.3090406692913386
0
LINE
8
BLACK
6
CONTINUOUS
10
-0.0656884251968504
20
0.3090406692913386
11
-0.0817724803149606
21
0.3051788582677165
0
LINE
8
BLACK
6
CONTINUOUS
10
-0.0817724803149606
20
0.3051788582677165
11
-0.0976320866141732
21
0.3004810236220473
0
LINE
8
BLACK
6
CONTINUOUS
10
-0.0976320866141732
20
0.3004810236220473
11
-0.1132243307086614
21
0.2949595669291338
0
LINE
8
BLACK
6
CONTINUOUS
10
-0.1132243307086614
20
0.2949595669291338
11
-0.1285066141732283
21
0.2886296850393701
0
LINE
8
BLACK
6
CONTINUOUS
10
-0.1285066141732283
20
0.2886296850393701
11
-0.1434351181102362
21
0.2815088976377953
0
LINE
8
BLACK
6
CONTINUOUS
10
-0.1434351181102362
20
0.2815088976377953
11
-0.1579723228346457
21
0.2736159448818898
0
LINE
8
BLACK
6
CONTINUOUS
10
-0.1579723228346457
20
0.2736159448818898
11
-0.1720755511811023
21
0.2649735433070866
0
LINE
8
BLACK
6
CONTINUOUS
10
-0.1720755511811023
20
0.2649735433070866
11
-0.1857073622047244
21
0.2556047637795276
0
LINE
8
BLACK
6
CONTINUOUS
10
-0.1857073622047244
20
0.2556047637795276
11
-0.1988301181102362
21
0.2455350393700787
0
LINE
8
BLACK
6
CONTINUOUS
10
-0.1988301181102362
20
0.2455350393700787
11
-0.2114081889763779
21
0.2347927165354331
0
LINE
8
BLACK
6
CONTINUOUS
10
-0.2114081889763779
20
0.2347927165354331
11
-0.2234062598425197
21
0.2234070078740157
0
LINE
8
BLACK
6
CONTINUOUS
10
-0.2234062598425197
20
0.2234070078740157
11
-0.2347927559055118
21
0.2114081889763779
0
LINE
8
BLACK
6
CONTINUOUS
10
-0.2347927559055118
20
0.2114081889763779
11
-0.2455347637795275
21
0.1988304724409449
0
LINE
8
BLACK
6
CONTINUOUS
10
-0.2455347637795275
20
0.1988304724409449
11
-0.2556047637795276
21
0.1857073622047244
0
LINE
8
BLACK
6
CONTINUOUS
10
-0.2556047637795276
20
0.1857073622047244
11
-0.2649733070866142
21
0.1720758661417323
0
LINE
8
BLACK
6
CONTINUOUS
10
-0.2649733070866142
20
0.1720758661417323
11
-0.2736159448818898
21
0.1579723228346457
0
LINE
8
BLACK
6
CONTINUOUS
10
-0.2736159448818898
20
0.1579723228346457
11
-0.2815083070866142
21
0.1434362992125984
0
LINE
8
BLACK
6
CONTINUOUS
10
-0.2815083070866142
20
0.1434362992125984
11
-0.2886296850393701
21
0.1285066141732283
0
LINE
8
BLACK
6
CONTINUOUS
10
-0.2886296850393701
20
0.1285066141732283
11
-0.2949595669291338
21
0.1132243307086614
0
LINE
8
BLACK
6
CONTINUOUS
10
-0.2949595669291338
20
0.1132243307086614
11
-0.3004807874015748
21
0.0976327559055118
0
LINE
8
BLACK
6
CONTINUOUS
10
-0.3004807874015748
20
0.0976327559055118
11
-0.3051788582677165
21
0.0817725196850394
0
LINE
8
BLACK
6
CONTINUOUS
10
-0.3051788582677165
20
0.0817725196850394
11
-0.3090406692913386
21
0.0656884251968504
0
LINE
8
BLACK
6
CONTINUOUS
10
-0.3090406692913386
20
0.0656884251968504
11
-0.3120546850393701
21
0.0494249212598425
0
LINE
8
BLACK
6
CONTINUOUS
10
-0.3120546850393701
20
0.0494249212598425
11
-0.314213779527559
21
0.0330253937007874
0
LINE
8
BLACK
6
CONTINUOUS
10
-0.314213779527559
20
0.0330253937007874
11
-0.3144176771653543
21
0.0304346456692913
0
LINE
8
BLACK
6
CONTINUOUS
10
-0.3144176771653543
20
0.0304346456692913
11
-0.3144895669291338
21
0.0301798031496063
0
LINE
8
BLACK
6
CONTINUOUS
10
-0.3144895669291338
20
0.0301798031496063
11
-0.3144895669291338
21
0.0301352362204724
0
LINE
8
BLACK
6
CONTINUOUS
10
-0.3144895669291338
20
0.0301352362204724
11
-0.3145070866141732
21
0.0301177559055118
0
LINE
8
BLACK
6
CONTINUOUS
10
-0.3145070866141732
20
0.0301177559055118
11
-0.3145219291338582
21
0.0300650393700787
0
LINE
8
BLACK
6
CONTINUOUS
10
-0.3145219291338582
20
0.0300650393700787
11
-0.3147811417322834
21
0.0298437007874016
0
LINE
8
BLACK
6
CONTINUOUS
10
-0.3147811417322834
20
0.0298437007874016
11
-0.3150222440944882
21
0.0296025590551181
0
LINE
8
BLACK
6
CONTINUOUS
10
-0.3150222440944882
20
0.0296025590551181
11
-0.3150759842519685
21
0.0295918897637795
0
LINE
8
BLACK
6
CONTINUOUS
10
-0.3150759842519685
20
0.0295918897637795
11
-0.3150947637795276
21
0.0295758267716535
0
LINE
8
BLACK
6
CONTINUOUS
10
-0.3150947637795276
20
0.0295758267716535
11
-0.3151391338582677
21
0.0295793307086614
0
LINE
8
BLACK
6
CONTINUOUS
10
-0.3151391338582677
20
0.0295793307086614
11
-0.3153988976377953
21
0.0295276377952756
0
LINE
8
BLACK
6
CONTINUOUS
10
-0.3153988976377953
20
0.0295276377952756
11
-0.4488188976377953
21
0.0295276377952756
0
LINE
8
BLACK
6
CONTINUOUS
10
-0.4488188976377953
20
0.0295276377952756
11
-0.4491955511811023
21
0.0296025590551181
0
LINE
8
BLACK
6
CONTINUOUS
10
-0.4491955511811023
20
0.0296025590551181
11
-0.4497282283464567
21
0.0301352362204724
0
LINE
8
BLACK
6
CONTINUOUS
10
-0.4497282283464567
20
0.0301352362204724
11
-0.4498031496062992
21
0.0305118897637795
0
LINE
8
BLACK
6
CONTINUOUS
10
-0.4498031496062992
20
0.0305118897637795
11
-0.4498031496062992
21
0.0392926771653543
0
LINE
8
BLACK
6
CONTINUOUS
10
-0.4498031496062992
20
0.0392926771653543
11
-0.4517903149606299
21
0.0518366535433071
0
LINE
8
BLACK
6
CONTINUOUS
10
-0.4517903149606299
20
0.0518366535433071
11
-0.4575188582677165
21
0.0630823228346457
0
LINE
8
BLACK
6
CONTINUOUS
10
-0.4575188582677165
20
0.0630823228346457
11
-0.466444094488189
21
0.0720075984251968
0
LINE
8
BLACK
6
CONTINUOUS
10
-0.466444094488189
20
0.0720075984251968
11
-0.4776898818897637
21
0.0777377952755905
0
LINE
8
BLACK
6
CONTINUOUS
10
-0.4776898818897637
20
0.0777377952755905
11
-0.4901575196850393
21
0.0797121653543307
0
LINE
8
BLACK
6
CONTINUOUS
10
-0.4901575196850393
20
0.0797121653543307
11
-0.5026251181102362
21
0.0777377952755905
0
LINE
8
BLACK
6
CONTINUOUS
10
-0.5026251181102362
20
0.0777377952755905
11
-0.513870905511811
21
0.0720075984251968
0
LINE
8
BLACK
6
CONTINUOUS
10
-0.513870905511811
20
0.0720075984251968
11
-0.5227961811023621
21
0.0630823228346457
0
LINE
8
BLACK
6
CONTINUOUS
10
-0.5227961811023621
20
0.0630823228346457
11
-0.5285247637795275
21
0.0518366141732283
0
LINE
8
BLACK
6
CONTINUOUS
10
-0.5285247637795275
20
0.0518366141732283
11
-0.530511811023622
21
0.0392926771653543
0
LINE
8
BLACK
6
CONTINUOUS
10
-0.530511811023622
20
0.0392926771653543
11
-0.530511811023622
21
-0.0392926377952756
0
LINE
8
BLACK
6
CONTINUOUS
10
-0.530511811023622
20
-0.0392926377952756
11
-0.5285247637795275
21
-0.0518365354330709
0
LINE
8
BLACK
6
CONTINUOUS
10
-0.5285247637795275
20
-0.0518365354330709
11
-0.5227961811023621
21
-0.0630822440944882
0
LINE
8
BLACK
6
CONTINUOUS
10
-0.5227961811023621
20
-0.0630822440944882
11
-0.5138709842519685
21
-0.0720076377952756
0
LINE
8
BLACK
6
CONTINUOUS
10
-0.5138709842519685
20
-0.0720076377952756
11
-0.5026251181102362
21
-0.0777377165354331
0
LINE
8
BLACK
6
CONTINUOUS
10
-0.5026251181102362
20
-0.0777377165354331
11
-0.4901575196850393
21
-0.0797120866141732
0
LINE
8
BLACK
6
CONTINUOUS
10
-0.4901575196850393
20
-0.0797120866141732
11
-0.4776898818897637
21
-0.0777377165354331
0
LINE
8
BLACK
6
CONTINUOUS
10
-0.4776898818897637
20
-0.0777377165354331
11
-0.4664440157480315
21
-0.0720076377952756
0
LINE
8
BLACK
6
CONTINUOUS
10
-0.4664440157480315
20
-0.0720076377952756
11
-0.4575188582677165
21
-0.0630822440944882
0
LINE
8
BLACK
6
CONTINUOUS
10
-0.4575188582677165
20
-0.0630822440944882
11
-0.4517903149606299
21
-0.0518365748031496
0
LINE
8
BLACK
6
CONTINUOUS
10
-0.4517903149606299
20
-0.0518365748031496
11
-0.4498031496062992
21
-0.0392926377952756
0
LINE
8
BLACK
6
CONTINUOUS
10
-0.4498031496062992
20
-0.0392926377952756
11
-0.4498031496062992
21
-0.0305118503937008
0
LINE
8
BLACK
6
CONTINUOUS
10
-0.4498031496062992
20
-0.0305118503937008
11
-0.4497282283464567
21
-0.0301351968503937
0
LINE
8
BLACK
6
CONTINUOUS
10
-0.4497282283464567
20
-0.0301351968503937
11
-0.4491955511811023
21
-0.0296025196850394
0
LINE
8
BLACK
6
CONTINUOUS
10
-0.4491955511811023
20
-0.0296025196850394
11
-0.4488188976377953
21
-0.0295275984251968
0
LINE
8
BLACK
6
CONTINUOUS
10
-0.4488188976377953
20
-0.0295275984251968
11
-0.3153988976377953
21
-0.0295275984251968
0
LINE
8
BLACK
6
CONTINUOUS
10
-0.3153988976377953
20
-0.0295275984251968
11
-0.3151391338582677
21
-0.0295792519685039
0
LINE
8
BLACK
6
CONTINUOUS
10
-0.3151391338582677
20
-0.0295792519685039
11
-0.3150947637795276
21
-0.0295757874015748
0
LINE
8
BLACK
6
CONTINUOUS
10
-0.3150947637795276
20
-0.0295757874015748
11
-0.3150759842519685
21
-0.029591811023622
0
LINE
8
BLACK
6
CONTINUOUS
10
-0.3150759842519685
20
-0.029591811023622
11
-0.3150222440944882
21
-0.0296025196850394
0
LINE
8
BLACK
6
CONTINUOUS
10
-0.3150222440944882
20
-0.0296025196850394
11
-0.3147811417322834
21
-0.0298436220472441
0
LINE
8
BLACK
6
CONTINUOUS
10
-0.3147811417322834
20
-0.0298436220472441
11
-0.3145219291338582
21
-0.030065
0
LINE
8
BLACK
6
CONTINUOUS
10
-0.3145219291338582
20
-0.030065
11
-0.3145070866141732
21
-0.0301176771653543
0
LINE
8
BLACK
6
CONTINUOUS
10
-0.3145070866141732
20
-0.0301176771653543
11
-0.3144895669291338
21
-0.0301351968503937
0
LINE
8
BLACK
6
CONTINUOUS
10
-0.3144895669291338
20
-0.0301351968503937
11
-0.3144895669291338
21
-0.0301797244094488
0
LINE
8
BLACK
6
CONTINUOUS
10
-0.3144895669291338
20
-0.0301797244094488
11
-0.3144176771653543
21
-0.0304346062992126
0
LINE
8
BLACK
6
CONTINUOUS
10
-0.3144176771653543
20
-0.0304346062992126
11
-0.314213779527559
21
-0.0330253149606299
0
LINE
8
BLACK
6
CONTINUOUS
10
-0.314213779527559
20
-0.0330253149606299
11
-0.3120546850393701
21
-0.049424842519685
0
LINE
8
BLACK
6
CONTINUOUS
10
-0.3120546850393701
20
-0.049424842519685
11
-0.3090406692913386
21
-0.0656883464566929
0
LINE
8
BLACK
6
CONTINUOUS
10
-0.3090406692913386
20
-0.0656883464566929
11
-0.3051788582677165
21
-0.0817724409448819
0
LINE
8
BLACK
6
CONTINUOUS
10
-0.3051788582677165
20
-0.0817724409448819
11
-0.3004807874015748
21
-0.0976326771653543
0
LINE
8
BLACK
6
CONTINUOUS
10
-0.3004807874015748
20
-0.0976326771653543
11
-0.2949595669291338
21
-0.1132242519685039
0
LINE
8
BLACK
6
CONTINUOUS
10
-0.2949595669291338
20
-0.1132242519685039
11
-0.2886296850393701
21
-0.1285065354330709
0
LINE
8
BLACK
6
CONTINUOUS
10
-0.2886296850393701
20
-0.1285065354330709
11
-0.2815083070866142
21
-0.143436220472441
0
LINE
8
BLACK
6
CONTINUOUS
10
-0.2815083070866142
20
-0.143436220472441
11
-0.2736159448818898
21
-0.1579722440944882
0
LINE
8
BLACK
6
CONTINUOUS
10
-0.2736159448818898
20
-0.1579722440944882
11
-0.2649733858267717
21
-0.1720756692913386
0
LINE
8
BLACK
6
CONTINUOUS
10
-0.2649733858267717
20
-0.1720756692913386
11
-0.2556047637795276
21
-0.1857072834645669
0
LINE
8
BLACK
6
CONTINUOUS
10
-0.2556047637795276
20
-0.1857072834645669
11
-0.2455347637795275
21
-0.1988303937007874
0
LINE
8
BLACK
6
CONTINUOUS
10
-0.2455347637795275
20
-0.1988303937007874
11
-0.2347927559055118
21
-0.2114081102362205
0
LINE
8
BLACK
6
CONTINUOUS
10
-0.2347927559055118
20
-0.2114081102362205
11
-0.2234062598425197
21
-0.2234069291338583
0
LINE
8
BLACK
6
CONTINUOUS
10
-0.2234062598425197
20
-0.2234069291338583
11
-0.2114081889763779
21
-0.2347926377952756
0
LINE
8
BLACK
6
CONTINUOUS
10
-0.2114081889763779
20
-0.2347926377952756
11
-0.1988301181102362
21
-0.2455349606299213
0
LINE
8
BLACK
6
CONTINUOUS
10
-0.1988301181102362
20
-0.2455349606299213
11
-0.1857073622047244
21
-0.2556046850393701
0
LINE
8
BLACK
6
CONTINUOUS
10
-0.1857073622047244
20
-0.2556046850393701
11
-0.1720755511811023
21
-0.2649734645669291
0
LINE
8
BLACK
6
CONTINUOUS
10
-0.1720755511811023
20
-0.2649734645669291
11
-0.1579723228346457
21
-0.2736158661417323
0
LINE
8
BLACK
6
CONTINUOUS
10
-0.1579723228346457
20
-0.2736158661417323
11
-0.1434351181102362
21
-0.2815088188976378
0
LINE
8
BLACK
6
CONTINUOUS
10
-0.1434351181102362
20
-0.2815088188976378
11
-0.1285066141732283
21
-0.2886296062992126
0
LINE
8
BLACK
6
CONTINUOUS
10
-0.1285066141732283
20
-0.2886296062992126
11
-0.1132243307086614
21
-0.2949594881889764
0
LINE
8
BLACK
6
CONTINUOUS
10
-0.1132243307086614
20
-0.2949594881889764
11
-0.0976320866141732
21
-0.3004809448818898
0
LINE
8
BLACK
6
CONTINUOUS
10
-0.0976320866141732
20
-0.3004809448818898
11
-0.0817724803149606
21
-0.3051787795275591
0
LINE
8
BLACK
6
CONTINUOUS
10
-0.0817724803149606
20
-0.3051787795275591
11
-0.0656884251968504
21
-0.3090405905511811
0
LINE
8
BLACK
6
CONTINUOUS
10
-0.0656884251968504
20
-0.3090405905511811
11
-0.0494250787401575
21
-0.3120546062992126
0
LINE
8
BLACK
6
CONTINUOUS
10
-0.0494250787401575
20
-0.3120546062992126
11
-0.0330253937007874
21
-0.3142137007874016
0
LINE
8
BLACK
6
CONTINUOUS
10
-0.0330253937007874
20
-0.3142137007874016
11
-0.0165348818897638
21
-0.3155116535433071
0
LINE
8
BLACK
6
CONTINUOUS
10
-0.0165348818897638
20
-0.3155116535433071
11
-0.0000000393700787
21
-0.3159444881889764
0
LINE
8
BLACK
6
CONTINUOUS
10
-0.0000000393700787
20
-0.3159444881889764
11
0.0165347637795276
21
-0.3155116535433071
0
LINE
8
BLACK
6
CONTINUOUS
10
0.0165347637795276
20
-0.3155116535433071
11
0.0330253149606299
21
-0.3142137007874016
0
LINE
8
BLACK
6
CONTINUOUS
10
0.0330253149606299
20
-0.3142137007874016
11
0.049424842519685
21
-0.3120546062992126
0
LINE
8
BLACK
6
CONTINUOUS
10
0.049424842519685
20
-0.3120546062992126
11
0.0656883464566929
21
-0.3090405905511811
0
LINE
8
BLACK
6
CONTINUOUS
10
0.0656883464566929
20
-0.3090405905511811
11
0.0817724409448819
21
-0.3051787795275591
0
LINE
8
BLACK
6
CONTINUOUS
10
0.0817724409448819
20
-0.3051787795275591
11
0.0976326771653543
21
-0.3004807086614173
0
LINE
8
BLACK
6
CONTINUOUS
10
0.0976326771653543
20
-0.3004807086614173
11
0.1132242519685039
21
-0.2949594881889764
0
LINE
8
BLACK
6
CONTINUOUS
10
0.1132242519685039
20
-0.2949594881889764
11
0.1285065354330709
21
-0.2886296062992126
0
LINE
8
BLACK
6
CONTINUOUS
10
0.1285065354330709
20
-0.2886296062992126
11
0.143436220472441
21
-0.2815082283464567
0
LINE
8
BLACK
6
CONTINUOUS
10
0.143436220472441
20
-0.2815082283464567
11
0.1579722440944882
21
-0.2736158661417323
0
LINE
8
BLACK
6
CONTINUOUS
10
0.1579722440944882
20
-0.2736158661417323
11
0.1720757874015748
21
-0.2649732283464567
0
LINE
8
BLACK
6
CONTINUOUS
10
0.1720757874015748
20
-0.2649732283464567
11
0.1857072834645669
21
-0.2556046850393701
0
LINE
8
BLACK
6
CONTINUOUS
10
0.1857072834645669
20
-0.2556046850393701
11
0.1988303937007874
21
-0.2455346850393701
0
LINE
8
BLACK
6
CONTINUOUS
10
0.1988303937007874
20
-0.2455346850393701
11
0.2114081102362205
21
-0.2347926771653543
0
LINE
8
BLACK
6
CONTINUOUS
10
0.2114081102362205
20
-0.2347926771653543
11
0.2234069291338583
21
-0.2234061811023622
0
LINE
8
BLACK
6
CONTINUOUS
10
0.2234069291338583
20
-0.2234061811023622
11
0.2347926377952756
21
-0.2114081102362205
0
LINE
8
BLACK
6
CONTINUOUS
10
0.2347926377952756
20
-0.2114081102362205
11
0.2455349606299213
21
-0.1988300393700787
0
LINE
8
BLACK
6
CONTINUOUS
10
0.2455349606299213
20
-0.1988300393700787
11
0.2556046850393701
21
-0.1857072834645669
0
LINE
8
BLACK
6
CONTINUOUS
10
0.2556046850393701
20
-0.1857072834645669
11
0.2649734645669291
21
-0.1720754724409449
0
LINE
8
BLACK
6
CONTINUOUS
10
0.2649734645669291
20
-0.1720754724409449
11
0.2736158661417323
21
-0.1579722440944882
0
LINE
8
BLACK
6
CONTINUOUS
10
0.2736158661417323
20
-0.1579722440944882
11
0.2815088188976378
21
-0.1434350393700787
0
LINE
8
BLACK
6
CONTINUOUS
10
0.2815088188976378
20
-0.1434350393700787
11
0.2886296062992126
21
-0.1285065354330709
0
LINE
8
BLACK
6
CONTINUOUS
10
0.2886296062992126
20
-0.1285065354330709
11
0.2949594881889764
21
-0.1132242519685039
0
LINE
8
BLACK
6
CONTINUOUS
10
0.2949594881889764
20
-0.1132242519685039
11
0.3004809448818898
21
-0.0976320078740157
0
LINE
8
BLACK
6
CONTINUOUS
10
0.3004809448818898
20
-0.0976320078740157
11
0.3051787795275591
21
-0.0817724015748031
0
LINE
8
BLACK
6
CONTINUOUS
10
0.3051787795275591
20
-0.0817724015748031
11
0.3090405905511811
21
-0.0656883464566929
0
LINE
8
BLACK
6
CONTINUOUS
10
0.3090405905511811
20
-0.0656883464566929
11
0.3120546062992126
21
-0.049425
0
LINE
8
BLACK
6
CONTINUOUS
10
0.3120546062992126
20
-0.049425
11
0.3142137007874016
21
-0.0330253149606299
0
LINE
8
BLACK
6
CONTINUOUS
10
0.3142137007874016
20
-0.0330253149606299
11
0.3155116535433071
21
-0.0165348031496063
0
LINE
8
BLACK
6
CONTINUOUS
10
0.3155116535433071
20
-0.0165348031496063
11
0.3159444881889764
21
0.0000000393700787
0
LINE
8
BLACK
6
CONTINUOUS
10
0.3159444881889764
20
0.0000000393700787
11
0.3155116535433071
21
0.0165348818897638
0
LINE
8
BLACK
6
CONTINUOUS
10
0.3155116535433071
20
0.0165348818897638
11
0.3142137007874016
21
0.0330253937007874
0
LINE
8
BLACK
6
CONTINUOUS
10
0.3142137007874016
20
0.0330253937007874
11
0.3120546062992126
21
0.0494250787401575
0
LINE
8
BLACK
6
CONTINUOUS
10
0.3120546062992126
20
0.0494250787401575
11
0.3090405905511811
21
0.0656884251968504
0
LINE
8
BLACK
6
CONTINUOUS
10
0.3090405905511811
20
0.0656884251968504
11
0.3051787795275591
21
0.0817724803149606
0
LINE
8
BLACK
6
CONTINUOUS
10
0.3051787795275591
20
0.0817724803149606
11
0.3004809448818898
21
0.0976320866141732
0
LINE
8
BLACK
6
CONTINUOUS
10
0.3004809448818898
20
0.0976320866141732
11
0.2949594881889764
21
0.1132243307086614
0
LINE
8
BLACK
6
CONTINUOUS
10
0.2949594881889764
20
0.1132243307086614
11
0.2886296062992126
21
0.1285066141732283
0
LINE
8
BLACK
6
CONTINUOUS
10
0.2886296062992126
20
0.1285066141732283
11
0.2815088188976378
21
0.1434351181102362
0
LINE
8
BLACK
6
CONTINUOUS
10
0.2815088188976378
20
0.1434351181102362
11
0.2736158661417323
21
0.1579723228346457
0
LINE
8
BLACK
6
CONTINUOUS
10
0.2736158661417323
20
0.1579723228346457
11
0.2649733464566929
21
0.1720757086614173
0
LINE
8
BLACK
6
CONTINUOUS
10
0.2649733464566929
20
0.1720757086614173
11
0.2556046850393701
21
0.1857073622047244
0
LINE
8
BLACK
6
CONTINUOUS
10
0.2556046850393701
20
0.1857073622047244
11
0.2455349606299213
21
0.1988301181102362
0
LINE
8
BLACK
6
CONTINUOUS
10
0.2455349606299213
20
0.1988301181102362
11
0.2347926377952756
21
0.2114081889763779
0
LINE
8
BLACK
6
CONTINUOUS
10
0.2347926377952756
20
0.2114081889763779
11
0.2234069291338583
21
0.2234062598425197
0
LINE
8
BLACK
6
CONTINUOUS
10
0.2234069291338583
20
0.2234062598425197
11
0.2114081102362205
21
0.2347927559055118
0
LINE
8
BLACK
6
CONTINUOUS
10
0.2114081102362205
20
0.2347927559055118
11
0.1988306299212598
21
0.2455346850393701
0
LINE
8
BLACK
6
CONTINUOUS
10
0.1988306299212598
20
0.2455346850393701
11
0.1857072834645669
21
0.2556047637795276
0
LINE
8
BLACK
6
CONTINUOUS
10
0.1857072834645669
20
0.2556047637795276
11
0.1720757874015748
21
0.2649733070866142
0
LINE
8
BLACK
6
CONTINUOUS
10
0.1720757874015748
20
0.2649733070866142
11
0.1579722440944882
21
0.2736159448818898
0
LINE
8
BLACK
6
CONTINUOUS
10
0.1579722440944882
20
0.2736159448818898
11
0.143436220472441
21
0.2815083070866142
0
LINE
8
BLACK
6
CONTINUOUS
10
0.143436220472441
20
0.2815083070866142
11
0.1285065354330709
21
0.2886296850393701
0
LINE
8
BLACK
6
CONTINUOUS
10
0.1285065354330709
20
0.2886296850393701
11
0.1132242519685039
21
0.2949595669291338
0
LINE
8
BLACK
6
CONTINUOUS
10
0.1132242519685039
20
0.2949595669291338
11
0.0976326771653543
21
0.3004807874015748
0
LINE
8
BLACK
6
CONTINUOUS
10
0.0976326771653543
20
0.3004807874015748
11
0.0817724409448819
21
0.3051788582677165
0
LINE
8
BLACK
6
CONTINUOUS
10
0.0817724409448819
20
0.3051788582677165
11
0.0656883464566929
21
0.3090406692913386
0
LINE
8
BLACK
6
CONTINUOUS
10
0.0656883464566929
20
0.3090406692913386
11
0.049424842519685
21
0.3120546850393701
0
LINE
8
BLACK
6
CONTINUOUS
10
0.049424842519685
20
0.3120546850393701
11
0.0330253149606299
21
0.314213779527559
0
LINE
8
BLACK
6
CONTINUOUS
10
0.0330253149606299
20
0.314213779527559
11
0.0165347637795276
21
0.3155117322834646
0
LINE
8
BLACK
6
CONTINUOUS
10
0.0165347637795276
20
0.3155117322834646
11
-0.0000000393700787
21
0.3159445669291339
0
LINE
8
BLACK
6
CONTINUOUS
10
-0.0000000393700787
20
0.3159445669291339
11
-0.0165348818897638
21
0.3155117322834646
0
LINE
8
BLACK
6
CONTINUOUS
10
-0.874401220472441
20
0.047776062992126
11
-0.8742566141732283
21
0.0477227165354331
0
LINE
8
BLACK
6
CONTINUOUS
10
-0.8742566141732283
20
0.0477227165354331
11
-0.8741083070866141
21
0.0476808661417323
0
LINE
8
BLACK
6
CONTINUOUS
10
-0.8741083070866141
20
0.0476808661417323
11
-0.8603917716535433
21
0.0406906692913386
0
LINE
8
BLACK
6
CONTINUOUS
10
-0.8603917716535433
20
0.0406906692913386
11
-0.8602711417322835
21
0.0405955511811024
0
LINE
8
BLACK
6
CONTINUOUS
10
-0.8602711417322835
20
0.0405955511811024
11
-0.8601427559055118
21
0.0405098031496063
0
LINE
8
BLACK
6
CONTINUOUS
10
-0.8601427559055118
20
0.0405098031496063
11
-0.849253031496063
21
0.0296224409448819
0
LINE
8
BLACK
6
CONTINUOUS
10
-0.849253031496063
20
0.0296224409448819
11
-0.8491672440944882
21
0.029494094488189
0
LINE
8
BLACK
6
CONTINUOUS
10
-0.8491672440944882
20
0.029494094488189
11
-0.8490718897637796
21
0.0293731102362205
0
LINE
8
BLACK
6
CONTINUOUS
10
-0.8490718897637796
20
0.0293731102362205
11
-0.8420837007874016
21
0.0156543307086614
0
LINE
8
BLACK
6
CONTINUOUS
10
-0.8420837007874016
20
0.0156543307086614
11
-0.842041968503937
21
0.0155062204724409
0
LINE
8
BLACK
6
CONTINUOUS
10
-0.842041968503937
20
0.0155062204724409
11
-0.8419885826771654
21
0.0153616141732283
0
LINE
8
BLACK
6
CONTINUOUS
10
-0.8419885826771654
20
0.0153616141732283
11
-0.8395790944881889
21
0.0001540157480315
0
LINE
8
BLACK
6
CONTINUOUS
10
-0.8395790944881889
20
0.0001540157480315
11
-0.8395851574803149
21
0.0000000393700787
0
LINE
8
BLACK
6
CONTINUOUS
10
-0.8395851574803149
20
0.0000000393700787
11
-0.8395790944881889
21
-0.0001540157480315
0
LINE
8
BLACK
6
CONTINUOUS
10
-0.8395790944881889
20
-0.0001540157480315
11
-0.8419885039370079
21
-0.0153615748031496
0
LINE
8
BLACK
6
CONTINUOUS
10
-0.8419885039370079
20
-0.0153615748031496
11
-0.8420418503937007
21
-0.0155061023622047
0
LINE
8
BLACK
6
CONTINUOUS
10
-0.8420418503937007
20
-0.0155061023622047
11
-0.8420836220472441
21
-0.0156542913385827
0
LINE
8
BLACK
6
CONTINUOUS
10
-0.8420836220472441
20
-0.0156542913385827
11
-0.8490718110236221
21
-0.0293730708661417
0
LINE
8
BLACK
6
CONTINUOUS
10
-0.8490718110236221
20
-0.0293730708661417
11
-0.8491671653543307
21
-0.0294940157480315
0
LINE
8
BLACK
6
CONTINUOUS
10
-0.8491671653543307
20
-0.0294940157480315
11
-0.8492529527559055
21
-0.0296224015748031
0
LINE
8
BLACK
6
CONTINUOUS
10
-0.8492529527559055
20
-0.0296224015748031
11
-0.8601426771653543
21
-0.0405097637795276
0
LINE
8
BLACK
6
CONTINUOUS
10
-0.8601426771653543
20
-0.0405097637795276
11
-0.860271062992126
21
-0.0405954724409449
0
LINE
8
BLACK
6
CONTINUOUS
10
-0.860271062992126
20
-0.0405954724409449
11
-0.8603916929133858
21
-0.0406906299212598
0
LINE
8
BLACK
6
CONTINUOUS
10
-0.8603916929133858
20
-0.0406906299212598
11
-0.8741082283464566
21
-0.0476808267716535
0
LINE
8
BLACK
6
CONTINUOUS
10
-0.8741082283464566
20
-0.0476808267716535
11
-0.8742565354330708
21
-0.0477226377952756
0
LINE
8
BLACK
6
CONTINUOUS
10
-0.8742565354330708
20
-0.0477226377952756
11
-0.8744011417322834
21
-0.0477760236220472
0
LINE
8
BLACK
6
CONTINUOUS
10
-0.8744011417322834
20
-0.0477760236220472
11
-0.889609842519685
21
-0.0501847244094488
0
LINE
8
BLACK
6
CONTINUOUS
10
-0.889609842519685
20
-0.0501847244094488
11
-0.8897638188976378
21
-0.0501786614173228
0
LINE
8
BLACK
6
CONTINUOUS
10
-0.8897638188976378
20
-0.0501786614173228
11
-0.8899177952755906
21
-0.0501847244094488
0
LINE
8
BLACK
6
CONTINUOUS
10
-0.8899177952755906
20
-0.0501847244094488
11
-0.9051264173228346
21
-0.0477760236220472
0
LINE
8
BLACK
6
CONTINUOUS
10
-0.9051264173228346
20
-0.0477760236220472
11
-0.9052352755905512
21
-0.0477358661417323
0
LINE
8
BLACK
6
CONTINUOUS
10
-0.9052352755905512
20
-0.0477358661417323
11
-0.905349094488189
21
-0.0477132283464567
0
LINE
8
BLACK
6
CONTINUOUS
10
-0.905349094488189
20
-0.0477132283464567
11
-0.9053666141732283
21
-0.0476957086614173
0
LINE
8
BLACK
6
CONTINUOUS
10
-0.9053666141732283
20
-0.0476957086614173
11
-0.9054193700787402
21
-0.0476808267716535
0
LINE
8
BLACK
6
CONTINUOUS
10
-0.9054193700787402
20
-0.0476808267716535
11
-0.9191358661417323
21
-0.0406906299212598
0
LINE
8
BLACK
6
CONTINUOUS
10
-0.9191358661417323
20
-0.0406906299212598
11
-0.9192567322834645
21
-0.0405953149606299
0
LINE
8
BLACK
6
CONTINUOUS
10
-0.9192567322834645
20
-0.0405953149606299
11
-0.9193848818897637
21
-0.0405097244094488
0
LINE
8
BLACK
6
CONTINUOUS
10
-0.9193848818897637
20
-0.0405097244094488
11
-0.9302746456692913
21
-0.0296224015748031
0
LINE
8
BLACK
6
CONTINUOUS
10
-0.9302746456692913
20
-0.0296224015748031
11
-0.9303604330708661
21
-0.0294940551181102
0
LINE
8
BLACK
6
CONTINUOUS
10
-0.9303604330708661
20
-0.0294940551181102
11
-0.930455748031496
21
-0.0293731102362205
0
LINE
8
BLACK
6
CONTINUOUS
10
-0.930455748031496
20
-0.0293731102362205
11
-0.937443937007874
21
-0.0156542913385827
0
LINE
8
BLACK
6
CONTINUOUS
10
-0.937443937007874
20
-0.0156542913385827
11
-0.9374857480314961
21
-0.0155061023622047
0
LINE
8
BLACK
6
CONTINUOUS
10
-0.9374857480314961
20
-0.0155061023622047
11
-0.9375390551181102
21
-0.0153615748031496
0
LINE
8
BLACK
6
CONTINUOUS
10
-0.9375390551181102
20
-0.0153615748031496
11
-0.9399485433070865
21
-0.0001540157480315
0
LINE
8
BLACK
6
CONTINUOUS
10
-0.9399485433070865
20
-0.0001540157480315
11
-0.9399425196850394
21
0.
0
LINE
8
BLACK
6
CONTINUOUS
10
-0.9399425196850394
20
0.
11
-0.9399485433070865
21
0.0001540157480315
0
LINE
8
BLACK
6
CONTINUOUS
10
-0.9399485433070865
20
0.0001540157480315
11
-0.9375390551181102
21
0.0153616141732283
0
LINE
8
BLACK
6
CONTINUOUS
10
-0.9375390551181102
20
0.0153616141732283
11
-0.9374857480314961
21
0.0155061811023622
0
LINE
8
BLACK
6
CONTINUOUS
10
-0.9374857480314961
20
0.0155061811023622
11
-0.937443937007874
21
0.0156543307086614
0
LINE
8
BLACK
6
CONTINUOUS
10
-0.937443937007874
20
0.0156543307086614
11
-0.930455748031496
21
0.0293731496062992
0
LINE
8
BLACK
6
CONTINUOUS
10
-0.930455748031496
20
0.0293731496062992
11
-0.9303604330708661
21
0.0294941338582677
0
LINE
8
BLACK
6
CONTINUOUS
10
-0.9303604330708661
20
0.0294941338582677
11
-0.9302746456692913
21
0.0296224409448819
0
LINE
8
BLACK
6
CONTINUOUS
10
-0.9302746456692913
20
0.0296224409448819
11
-0.9193848818897637
21
0.0405097637795276
0
LINE
8
BLACK
6
CONTINUOUS
10
-0.9193848818897637
20
0.0405097637795276
11
-0.9192567322834645
21
0.0405953937007874
0
LINE
8
BLACK
6
CONTINUOUS
10
-0.9192567322834645
20
0.0405953937007874
11
-0.9191358661417323
21
0.0406906692913386
0
LINE
8
BLACK
6
CONTINUOUS
10
-0.9191358661417323
20
0.0406906692913386
11
-0.9054193700787402
21
0.0476808661417323
0
LINE
8
BLACK
6
CONTINUOUS
10
-0.9054193700787402
20
0.0476808661417323
11
-0.9052709448818897
21
0.0477227952755905
0
LINE
8
BLACK
6
CONTINUOUS
10
-0.9052709448818897
20
0.0477227952755905
11
-0.9051264173228346
21
0.047776062992126
0
LINE
8
BLACK
6
CONTINUOUS
10
-0.9051264173228346
20
0.047776062992126
11
-0.8899177559055118
21
0.0501847244094488
0
LINE
8
BLACK
6
CONTINUOUS
10
-0.8899177559055118
20
0.0501847244094488
11
-0.8897638188976378
21
0.0501787007874016
0
LINE
8
BLACK
6
CONTINUOUS
10
-0.8897638188976378
20
0.0501787007874016
11
-0.889609842519685
21
0.0501847244094488
0
LINE
8
BLACK
6
CONTINUOUS
10
-0.889609842519685
20
0.0501847244094488
11
-0.874401220472441
21
0.047776062992126
0
LINE
8
BLACK
6
CONTINUOUS
10
-0.9046645275590551
20
0.0458562204724409
11
-0.9181032677165354
21
0.0390075984251968
0
LINE
8
BLACK
6
CONTINUOUS
10
-0.9181032677165354
20
0.0390075984251968
11
-0.9287725984251969
21
0.0283405511811024
0
LINE
8
BLACK
6
CONTINUOUS
10
-0.9287725984251969
20
0.0283405511811024
11
-0.9356192125984252
21
0.0148997637795276
0
LINE
8
BLACK
6
CONTINUOUS
10
-0.9356192125984252
20
0.0148997637795276
11
-0.9379799212598425
21
0.0000000393700787
0
LINE
8
BLACK
6
CONTINUOUS
10
-0.9379799212598425
20
0.0000000393700787
11
-0.9356192125984252
21
-0.0148996850393701
0
LINE
8
BLACK
6
CONTINUOUS
10
-0.9356192125984252
20
-0.0148996850393701
11
-0.9287725984251969
21
-0.0283404724409449
0
LINE
8
BLACK
6
CONTINUOUS
10
-0.9287725984251969
20
-0.0283404724409449
11
-0.9181032677165354
21
-0.0390075196850394
0
LINE
8
BLACK
6
CONTINUOUS
10
-0.9181032677165354
20
-0.0390075196850394
11
-0.9046645275590551
21
-0.0458561417322835
0
LINE
8
BLACK
6
CONTINUOUS
10
-0.9046645275590551
20
-0.0458561417322835
11
-0.8897638188976378
21
-0.048216062992126
0
LINE
8
BLACK
6
CONTINUOUS
10
-0.8897638188976378
20
-0.048216062992126
11
-0.8748631102362204
21
-0.0458561417322835
0
LINE
8
BLACK
6
CONTINUOUS
10
-0.8748631102362204
20
-0.0458561417322835
11
-0.8614243700787402
21
-0.0390075196850394
0
LINE
8
BLACK
6
CONTINUOUS
10
-0.8614243700787402
20
-0.0390075196850394
11
-0.8507550393700787
21
-0.0283405511811024
0
LINE
8
BLACK
6
CONTINUOUS
10
-0.8507550393700787
20
-0.0283405511811024
11
-0.8439083858267716
21
-0.0148996456692913
0
LINE
8
BLACK
6
CONTINUOUS
10
-0.8439083858267716
20
-0.0148996456692913
11
-0.8415477559055118
21
0.
0
LINE
8
BLACK
6
CONTINUOUS
10
-0.8415477559055118
20
0.
11
-0.8439084645669291
21
0.0148997244094488
0
LINE
8
BLACK
6
CONTINUOUS
10
-0.8439084645669291
20
0.0148997244094488
11
-0.8507551181102362
21
0.0283406299212598
0
LINE
8
BLACK
6
CONTINUOUS
10
-0.8507551181102362
20
0.0283406299212598
11
-0.8614244488188976
21
0.0390075984251968
0
LINE
8
BLACK
6
CONTINUOUS
10
-0.8614244488188976
20
0.0390075984251968
11
-0.8748631889763779
21
0.0458562204724409
0
LINE
8
BLACK
6
CONTINUOUS
10
-0.8748631889763779
20
0.0458562204724409
11
-0.8897638188976378
21
0.0482161023622047
0
LINE
8
BLACK
6
CONTINUOUS
10
-0.8897638188976378
20
0.0482161023622047
11
-0.9046645275590551
21
0.0458562204724409
0
LINE
8
BLACK
6
CONTINUOUS
10
-0.2602291338582677
20
0.5950193307086614
11
-0.2600848818897638
21
0.5949661023622047
0
LINE
8
BLACK
6
CONTINUOUS
10
-0.2600848818897638
20
0.5949661023622047
11
-0.2599364173228346
21
0.594924251968504
0
LINE
8
BLACK
6
CONTINUOUS
10
-0.2599364173228346
20
0.594924251968504
11
-0.2462174803149606
21
0.5879361417322835
0
LINE
8
BLACK
6
CONTINUOUS
10
-0.2462174803149606
20
0.5879361417322835
11
-0.2460964173228346
21
0.5878407086614174
0
LINE
8
BLACK
6
CONTINUOUS
10
-0.2460964173228346
20
0.5878407086614174
11
-0.2459681496062992
21
0.587755
0
LINE
8
BLACK
6
CONTINUOUS
10
-0.2459681496062992
20
0.587755
11
-0.2350808267716535
21
0.5768652362204725
0
LINE
8
BLACK
6
CONTINUOUS
10
-0.2350808267716535
20
0.5768652362204725
11
-0.2349952362204724
21
0.5767370866141732
0
LINE
8
BLACK
6
CONTINUOUS
10
-0.2349952362204724
20
0.5767370866141732
11
-0.2348999212598425
21
0.5766162204724409
0
LINE
8
BLACK
6
CONTINUOUS
10
-0.2348999212598425
20
0.5766162204724409
11
-0.2279097244094488
21
0.5628997244094488
0
LINE
8
BLACK
6
CONTINUOUS
10
-0.2279097244094488
20
0.5628997244094488
11
-0.2278678346456693
21
0.5627512992125984
0
LINE
8
BLACK
6
CONTINUOUS
10
-0.2278678346456693
20
0.5627512992125984
11
-0.2278145275590551
21
0.5626067716535433
0
LINE
8
BLACK
6
CONTINUOUS
10
-0.2278145275590551
20
0.5626067716535433
11
-0.2254058267716536
21
0.547398031496063
0
LINE
8
BLACK
6
CONTINUOUS
10
-0.2254058267716536
20
0.547398031496063
11
-0.2254118897637795
21
0.547244094488189
0
LINE
8
BLACK
6
CONTINUOUS
10
-0.2254118897637795
20
0.547244094488189
11
-0.2254058267716536
21
0.547090157480315
0
LINE
8
BLACK
6
CONTINUOUS
10
-0.2254058267716536
20
0.547090157480315
11
-0.2278145275590551
21
0.5318814173228347
0
LINE
8
BLACK
6
CONTINUOUS
10
-0.2278145275590551
20
0.5318814173228347
11
-0.2278678346456693
21
0.5317369291338583
0
LINE
8
BLACK
6
CONTINUOUS
10
-0.2278678346456693
20
0.5317369291338583
11
-0.2279097244094488
21
0.5315884645669291
0
LINE
8
BLACK
6
CONTINUOUS
10
-0.2279097244094488
20
0.5315884645669291
11
-0.2348999212598425
21
0.517871968503937
0
LINE
8
BLACK
6
CONTINUOUS
10
-0.2348999212598425
20
0.517871968503937
11
-0.2349952362204724
21
0.5177511417322834
0
LINE
8
BLACK
6
CONTINUOUS
10
-0.2349952362204724
20
0.5177511417322834
11
-0.2350808267716535
21
0.5176229527559055
0
LINE
8
BLACK
6
CONTINUOUS
10
-0.2350808267716535
20
0.5176229527559055
11
-0.2459681496062992
21
0.506733188976378
0
LINE
8
BLACK
6
CONTINUOUS
10
-0.2459681496062992
20
0.506733188976378
11
-0.2460964173228346
21
0.5066475196850394
0
LINE
8
BLACK
6
CONTINUOUS
10
-0.2460964173228346
20
0.5066475196850394
11
-0.2462174803149606
21
0.5065520472440945
0
LINE
8
BLACK
6
CONTINUOUS
10
-0.2462174803149606
20
0.5065520472440945
11
-0.2599364173228346
21
0.499563937007874
0
LINE
8
BLACK
6
CONTINUOUS
10
-0.2599364173228346
20
0.499563937007874
11
-0.2600848818897638
21
0.4995221259842519
0
LINE
8
BLACK
6
CONTINUOUS
10
-0.2600848818897638
20
0.4995221259842519
11
-0.2602291338582677
21
0.4994688582677165
0
LINE
8
BLACK
6
CONTINUOUS
10
-0.2602291338582677
20
0.4994688582677165
11
-0.2754365354330708
21
0.4970593700787401
0
LINE
8
BLACK
6
CONTINUOUS
10
-0.2754365354330708
20
0.4970593700787401
11
-0.2755905511811024
21
0.4970654330708661
0
LINE
8
BLACK
6
CONTINUOUS
10
-0.2755905511811024
20
0.4970654330708661
11
-0.2757445669291338
21
0.4970593700787401
0
LINE
8
BLACK
6
CONTINUOUS
10
-0.2757445669291338
20
0.4970593700787401
11
-0.2909520078740158
21
0.4994687007874016
0
LINE
8
BLACK
6
CONTINUOUS
10
-0.2909520078740158
20
0.4994687007874016
11
-0.2910608267716535
21
0.4995088582677165
0
LINE
8
BLACK
6
CONTINUOUS
10
-0.2910608267716535
20
0.4995088582677165
11
-0.2911746456692914
21
0.4995314960629921
0
LINE
8
BLACK
6
CONTINUOUS
10
-0.2911746456692914
20
0.4995314960629921
11
-0.2911921653543307
21
0.4995490157480315
0
LINE
8
BLACK
6
CONTINUOUS
10
-0.2911921653543307
20
0.4995490157480315
11
-0.2912447637795276
21
0.4995638188976378
0
LINE
8
BLACK
6
CONTINUOUS
10
-0.2912447637795276
20
0.4995638188976378
11
-0.3049636614173228
21
0.5065520078740158
0
LINE
8
BLACK
6
CONTINUOUS
10
-0.3049636614173228
20
0.5065520078740158
11
-0.3050846456692913
21
0.5066473622047244
0
LINE
8
BLACK
6
CONTINUOUS
10
-0.3050846456692913
20
0.5066473622047244
11
-0.3052129921259842
21
0.5067331496062992
0
LINE
8
BLACK
6
CONTINUOUS
10
-0.3052129921259842
20
0.5067331496062992
11
-0.3161003543307087
21
0.517622874015748
0
LINE
8
BLACK
6
CONTINUOUS
10
-0.3161003543307087
20
0.517622874015748
11
-0.3161861023622047
21
0.5177512598425197
0
LINE
8
BLACK
6
CONTINUOUS
10
-0.3161861023622047
20
0.5177512598425197
11
-0.3162812204724409
21
0.5178718897637795
0
LINE
8
BLACK
6
CONTINUOUS
10
-0.3162812204724409
20
0.5178718897637795
11
-0.3232714173228347
21
0.5315884251968503
0
LINE
8
BLACK
6
CONTINUOUS
10
-0.3232714173228347
20
0.5315884251968503
11
-0.3233132677165354
21
0.5317366929133858
0
LINE
8
BLACK
6
CONTINUOUS
10
-0.3233132677165354
20
0.5317366929133858
11
-0.3233666141732283
21
0.5318813385826772
0
LINE
8
BLACK
6
CONTINUOUS
10
-0.3233666141732283
20
0.5318813385826772
11
-0.3257752755905512
21
0.5470901181102362
0
LINE
8
BLACK
6
CONTINUOUS
10
-0.3257752755905512
20
0.5470901181102362
11
-0.3257692519685039
21
0.547244094488189
0
LINE
8
BLACK
6
CONTINUOUS
10
-0.3257692519685039
20
0.547244094488189
11
-0.3257752755905512
21
0.5473980708661417
0
LINE
8
BLACK
6
CONTINUOUS
10
-0.3257752755905512
20
0.5473980708661417
11
-0.3233666141732283
21
0.5626067716535433
0
LINE
8
BLACK
6
CONTINUOUS
10
-0.3233666141732283
20
0.5626067716535433
11
-0.3233132677165354
21
0.5627514566929134
0
LINE
8
BLACK
6
CONTINUOUS
10
-0.3233132677165354
20
0.5627514566929134
11
-0.3232714173228347
21
0.56289968503937
0
LINE
8
BLACK
6
CONTINUOUS
10
-0.3232714173228347
20
0.56289968503937
11
-0.3162812204724409
21
0.5766162204724409
0
LINE
8
BLACK
6
CONTINUOUS
10
-0.3162812204724409
20
0.5766162204724409
11
-0.3161861023622047
21
0.5767368897637796
0
LINE
8
BLACK
6
CONTINUOUS
10
-0.3161861023622047
20
0.5767368897637796
11
-0.3161003543307087
21
0.5768652362204725
0
LINE
8
BLACK
6
CONTINUOUS
10
-0.3161003543307087
20
0.5768652362204725
11
-0.3052129921259842
21
0.5877549606299213
0
LINE
8
BLACK
6
CONTINUOUS
10
-0.3052129921259842
20
0.5877549606299213
11
-0.305084842519685
21
0.5878406692913386
0
LINE
8
BLACK
6
CONTINUOUS
10
-0.305084842519685
20
0.5878406692913386
11
-0.3049636614173228
21
0.5879361417322835
0
LINE
8
BLACK
6
CONTINUOUS
10
-0.3049636614173228
20
0.5879361417322835
11
-0.2912447637795276
21
0.5949242125984252
0
LINE
8
BLACK
6
CONTINUOUS
10
-0.2912447637795276
20
0.5949242125984252
11
-0.2910965354330708
21
0.5949660236220472
0
LINE
8
BLACK
6
CONTINUOUS
10
-0.2910965354330708
20
0.5949660236220472
11
-0.2909520078740158
21
0.5950193307086614
0
LINE
8
BLACK
6
CONTINUOUS
10
-0.2909520078740158
20
0.5950193307086614
11
-0.2757446062992126
21
0.5974288188976378
0
LINE
8
BLACK
6
CONTINUOUS
10
-0.2757446062992126
20
0.5974288188976378
11
-0.2755905905511811
21
0.5974227952755905
0
LINE
8
BLACK
6
CONTINUOUS
10
-0.2755905905511811
20
0.5974227952755905
11
-0.2754365354330708
21
0.5974288188976378
0
LINE
8
BLACK
6
CONTINUOUS
10
-0.2754365354330708
20
0.5974288188976378
11
-0.2602291338582677
21
0.5950193307086614
0
LINE
8
BLACK
6
CONTINUOUS
10
-0.2904900393700787
20
0.5930994881889764
11
-0.3039312598425197
21
0.5862528346456692
0
LINE
8
BLACK
6
CONTINUOUS
10
-0.3039312598425197
20
0.5862528346456692
11
-0.3145981496062992
21
0.5755835826771654
0
LINE
8
BLACK
6
CONTINUOUS
10
-0.3145981496062992
20
0.5755835826771654
11
-0.3214467716535433
21
0.562144842519685
0
LINE
8
BLACK
6
CONTINUOUS
10
-0.3214467716535433
20
0.562144842519685
11
-0.3238066535433071
21
0.547244094488189
0
LINE
8
BLACK
6
CONTINUOUS
10
-0.3238066535433071
20
0.547244094488189
11
-0.3214467716535433
21
0.5323433070866141
0
LINE
8
BLACK
6
CONTINUOUS
10
-0.3214467716535433
20
0.5323433070866141
11
-0.3145981496062992
21
0.5189045669291339
0
LINE
8
BLACK
6
CONTINUOUS
10
-0.3145981496062992
20
0.5189045669291339
11
-0.3039311811023622
21
0.5082352362204724
0
LINE
8
BLACK
6
CONTINUOUS
10
-0.3039311811023622
20
0.5082352362204724
11
-0.2904900393700787
21
0.5013885826771654
0
LINE
8
BLACK
6
CONTINUOUS
10
-0.2904900393700787
20
0.5013885826771654
11
-0.2755905905511811
21
0.499028031496063
0
LINE
8
BLACK
6
CONTINUOUS
10
-0.2755905905511811
20
0.499028031496063
11
-0.2606911023622047
21
0.5013887401574803
0
LINE
8
BLACK
6
CONTINUOUS
10
-0.2606911023622047
20
0.5013887401574803
11
-0.2472500393700787
21
0.5082353149606299
0
LINE
8
BLACK
6
CONTINUOUS
10
-0.2472500393700787
20
0.5082353149606299
11
-0.236583031496063
21
0.5189046062992125
0
LINE
8
BLACK
6
CONTINUOUS
10
-0.236583031496063
20
0.5189046062992125
11
-0.2297344094488189
21
0.5323433464566929
0
LINE
8
BLACK
6
CONTINUOUS
10
-0.2297344094488189
20
0.5323433464566929
11
-0.2273744881889764
21
0.547244094488189
0
LINE
8
BLACK
6
CONTINUOUS
10
-0.2273744881889764
20
0.547244094488189
11
-0.2297344094488189
21
0.5621448818897637
0
LINE
8
BLACK
6
CONTINUOUS
10
-0.2297344094488189
20
0.5621448818897637
11
-0.236583031496063
21
0.5755836220472441
0
LINE
8
BLACK
6
CONTINUOUS
10
-0.236583031496063
20
0.5755836220472441
11
-0.2472500393700787
21
0.5862529133858267
0
LINE
8
BLACK
6
CONTINUOUS
10
-0.2472500393700787
20
0.5862529133858267
11
-0.2606911023622047
21
0.5930994881889764
0
LINE
8
BLACK
6
CONTINUOUS
10
-0.2606911023622047
20
0.5930994881889764
11
-0.2755905905511811
21
0.5954601968503936
0
LINE
8
BLACK
6
CONTINUOUS
10
-0.2755905905511811
20
0.5954601968503936
11
-0.2904900393700787
21
0.5930994881889764
0
CIRCLE
8
BLACK
10
1.3700787401574803
20
-0.1732283464566929
40
0.0068897637795276
  0
ENDSEC
  0
EOF
