  0
SECTION
  2
HEADER
  9
$ANGBASE
  50
0.0
  9
$ANGDIR
  70
1
  9
$MEASUREMENT
  70
0
  0
ENDSEC
  0
SECTION
  2
TABLES
  0
TABLE
  2
LTYPE
  70
4
  0
LTYPE
  5
40F
  2
CONTINUOUS
  70
0
  3
Solid line
  72
65
  73
0
  40
0.0
  0
LTYPE
  5
410
  2
DASHDOT
 70
0
  3
Dash Dot ____ _ ____ _
 72
65
 73
4
 40
2.0
 49
1.25
 49
-0.25
 49
0.25
 49
-0.25
  0
LTYPE
  5
411
  2
DASHED
 70
0
  3
Dashed __ __ __ __ __
 72
65
 73
2
 40
0.75
 49
0.5
 49
-0.25
  0
LTYPE
  5
43B
  2
DOTTED
 70
0
  3
Dotted .  .  .  .
 72
65
 73
2
 40
0.2
 49
0.0
 49
-0.2
  0
ENDTAB
  0
TABLE
  2
STYLE
  70
4
  0
STYLE
  2
KICAD
  70
0
  40
0
  41
1
  42
1
  50
0
  71
0
  3
isocp.shx
  0
STYLE
  2
KICADB
  70
0
  40
0
  41
1
  42
1
  50
0
  71
0
  3
isocp.shx
  0
STYLE
  2
KICADI
  70
0
  40
0
  41
1
  42
1
  50
15
  71
0
  3
isocp.shx
  0
STYLE
  2
KICADBI
  70
0
  40
0
  41
1
  42
1
  50
15
  71
0
  3
isocp.shx
  0
ENDTAB
  0
TABLE
  2
LAYER
  70
1
  0
LAYER
  2
BLACK
  70
0
  62
7
  6
CONTINUOUS
  0
ENDTAB
  0
ENDSEC
  0
SECTION
  2
ENTITIES
0
LINE
8
BLACK
6
CONTINUOUS
10
0.8842519685039369
20
0.3937007874015748
11
0.8842519685039369
21
0.3543307086614173
0
LINE
8
BLACK
6
CONTINUOUS
10
0.8842519685039369
20
0.3543307086614173
11
0.7937007874015748
21
0.3543307086614173
0
LINE
8
BLACK
6
CONTINUOUS
10
0.7937007874015748
20
0.3543307086614173
11
0.7543307086614173
21
0.3543307086614173
0
LINE
8
BLACK
6
CONTINUOUS
10
0.7543307086614173
20
0.3543307086614173
11
0.7543307086614173
21
0.3937007874015748
0
LINE
8
BLACK
6
CONTINUOUS
10
0.7543307086614173
20
0.3937007874015748
11
0.7543307086614173
21
0.484251968503937
0
LINE
8
BLACK
6
CONTINUOUS
10
0.7543307086614173
20
0.484251968503937
11
0.7937007874015748
21
0.484251968503937
0
LINE
8
BLACK
6
CONTINUOUS
10
0.7937007874015748
20
0.484251968503937
11
0.7937007874015748
21
0.3937007874015748
0
LINE
8
BLACK
6
CONTINUOUS
10
0.7937007874015748
20
0.3937007874015748
11
0.8842519685039369
21
0.3937007874015748
0
LINE
8
BLACK
6
CONTINUOUS
10
1.1204724409448819
20
0.3543307086614173
11
0.9708661417322835
21
0.3543307086614173
0
LINE
8
BLACK
6
CONTINUOUS
10
0.9708661417322835
20
0.3543307086614173
11
0.9708661417322835
21
0.3937007874015748
0
LINE
8
BLACK
6
CONTINUOUS
10
0.9708661417322835
20
0.3937007874015748
11
1.1204724409448819
21
0.3937007874015748
0
LINE
8
BLACK
6
CONTINUOUS
10
1.1204724409448819
20
0.3937007874015748
11
1.1204724409448819
21
0.3543307086614173
0
LINE
8
BLACK
6
CONTINUOUS
10
1.3566929133858268
20
0.3543307086614173
11
1.2070866141732284
21
0.3543307086614173
0
LINE
8
BLACK
6
CONTINUOUS
10
1.2070866141732284
20
0.3543307086614173
11
1.2070866141732284
21
0.3937007874015748
0
LINE
8
BLACK
6
CONTINUOUS
10
1.2070866141732284
20
0.3937007874015748
11
1.3566929133858268
21
0.3937007874015748
0
LINE
8
BLACK
6
CONTINUOUS
10
1.3566929133858268
20
0.3937007874015748
11
1.3566929133858268
21
0.3543307086614173
0
LINE
8
BLACK
6
CONTINUOUS
10
1.5929133858267717
20
0.3543307086614173
11
1.4433070866141733
21
0.3543307086614173
0
LINE
8
BLACK
6
CONTINUOUS
10
1.4433070866141733
20
0.3543307086614173
11
1.4433070866141733
21
0.3937007874015748
0
LINE
8
BLACK
6
CONTINUOUS
10
1.4433070866141733
20
0.3937007874015748
11
1.5929133858267717
21
0.3937007874015748
0
LINE
8
BLACK
6
CONTINUOUS
10
1.5929133858267717
20
0.3937007874015748
11
1.5929133858267717
21
0.3543307086614173
0
LINE
8
BLACK
6
CONTINUOUS
10
1.8291338582677166
20
0.3543307086614173
11
1.679527559055118
21
0.3543307086614173
0
LINE
8
BLACK
6
CONTINUOUS
10
1.679527559055118
20
0.3543307086614173
11
1.679527559055118
21
0.3937007874015748
0
LINE
8
BLACK
6
CONTINUOUS
10
1.679527559055118
20
0.3937007874015748
11
1.8291338582677166
21
0.3937007874015748
0
LINE
8
BLACK
6
CONTINUOUS
10
1.8291338582677166
20
0.3937007874015748
11
1.8291338582677166
21
0.3543307086614173
0
LINE
8
BLACK
6
CONTINUOUS
10
2.0062992125984254
20
0.3937007874015748
11
2.0062992125984254
21
0.484251968503937
0
LINE
8
BLACK
6
CONTINUOUS
10
2.0062992125984254
20
0.484251968503937
11
2.0456692913385828
21
0.484251968503937
0
LINE
8
BLACK
6
CONTINUOUS
10
2.0456692913385828
20
0.484251968503937
11
2.0456692913385828
21
0.3937007874015748
0
LINE
8
BLACK
6
CONTINUOUS
10
2.0456692913385828
20
0.3937007874015748
11
2.0456692913385828
21
0.3543307086614173
0
LINE
8
BLACK
6
CONTINUOUS
10
2.0456692913385828
20
0.3543307086614173
11
2.0062992125984254
21
0.3543307086614173
0
LINE
8
BLACK
6
CONTINUOUS
10
2.0062992125984254
20
0.3543307086614173
11
1.9157480314960629
21
0.3543307086614173
0
LINE
8
BLACK
6
CONTINUOUS
10
1.9157480314960629
20
0.3543307086614173
11
1.9157480314960629
21
0.3937007874015748
0
LINE
8
BLACK
6
CONTINUOUS
10
1.9157480314960629
20
0.3937007874015748
11
2.0062992125984254
21
0.3937007874015748
0
LINE
8
BLACK
6
CONTINUOUS
10
1.443861062992126
20
0.5392271653543307
11
1.4470542125984251
21
0.5370935826771653
0
LINE
8
BLACK
6
CONTINUOUS
10
1.4470542125984251
20
0.5370935826771653
11
1.4491877952755905
21
0.5339004330708661
0
LINE
8
BLACK
6
CONTINUOUS
10
1.4491877952755905
20
0.5339004330708661
11
1.4499370078740157
21
0.5301338582677165
0
LINE
8
BLACK
6
CONTINUOUS
10
1.4499370078740157
20
0.5301338582677165
11
1.4499370078740157
21
0.4927322834645669
0
LINE
8
BLACK
6
CONTINUOUS
10
1.4499370078740157
20
0.4927322834645669
11
1.4491877952755905
21
0.4889657086614173
0
LINE
8
BLACK
6
CONTINUOUS
10
1.4491877952755905
20
0.4889657086614173
11
1.4470542125984251
21
0.4857725590551181
0
LINE
8
BLACK
6
CONTINUOUS
10
1.4470542125984251
20
0.4857725590551181
11
1.443861062992126
21
0.4836389763779527
0
LINE
8
BLACK
6
CONTINUOUS
10
1.443861062992126
20
0.4836389763779527
11
1.4400944881889763
21
0.4828897637795275
0
LINE
8
BLACK
6
CONTINUOUS
10
1.4400944881889763
20
0.4828897637795275
11
1.4204094488188976
21
0.4828897637795275
0
LINE
8
BLACK
6
CONTINUOUS
10
1.4204094488188976
20
0.4828897637795275
11
1.416642874015748
21
0.4836389763779527
0
LINE
8
BLACK
6
CONTINUOUS
10
1.416642874015748
20
0.4836389763779527
11
1.4134497244094488
21
0.4857725590551181
0
LINE
8
BLACK
6
CONTINUOUS
10
1.4134497244094488
20
0.4857725590551181
11
1.4113161417322835
21
0.4889657086614173
0
LINE
8
BLACK
6
CONTINUOUS
10
1.4113161417322835
20
0.4889657086614173
11
1.4105669291338583
21
0.4927322834645669
0
LINE
8
BLACK
6
CONTINUOUS
10
1.4105669291338583
20
0.4927322834645669
11
1.4105669291338583
21
0.5301338582677165
0
LINE
8
BLACK
6
CONTINUOUS
10
1.4105669291338583
20
0.5301338582677165
11
1.4113161417322835
21
0.5339004330708661
0
LINE
8
BLACK
6
CONTINUOUS
10
1.4113161417322835
20
0.5339004330708661
11
1.4134497244094488
21
0.5370935826771653
0
LINE
8
BLACK
6
CONTINUOUS
10
1.4134497244094488
20
0.5370935826771653
11
1.416642874015748
21
0.5392271653543307
0
LINE
8
BLACK
6
CONTINUOUS
10
1.416642874015748
20
0.5392271653543307
11
1.4204094488188976
21
0.5399763779527559
0
LINE
8
BLACK
6
CONTINUOUS
10
1.4204094488188976
20
0.5399763779527559
11
1.4400944881889763
21
0.5399763779527559
0
LINE
8
BLACK
6
CONTINUOUS
10
1.4400944881889763
20
0.5399763779527559
11
1.443861062992126
21
0.5392271653543307
0
LINE
8
BLACK
6
CONTINUOUS
10
1.5186642125984251
20
0.5392271653543307
11
1.5218573622047245
21
0.5370935826771653
0
LINE
8
BLACK
6
CONTINUOUS
10
1.5218573622047245
20
0.5370935826771653
11
1.5239909448818898
21
0.5339004330708661
0
LINE
8
BLACK
6
CONTINUOUS
10
1.5239909448818898
20
0.5339004330708661
11
1.524740157480315
21
0.5301338582677165
0
LINE
8
BLACK
6
CONTINUOUS
10
1.524740157480315
20
0.5301338582677165
11
1.524740157480315
21
0.4927322834645669
0
LINE
8
BLACK
6
CONTINUOUS
10
1.524740157480315
20
0.4927322834645669
11
1.5239909448818898
21
0.4889657086614173
0
LINE
8
BLACK
6
CONTINUOUS
10
1.5239909448818898
20
0.4889657086614173
11
1.5218573622047245
21
0.4857725590551181
0
LINE
8
BLACK
6
CONTINUOUS
10
1.5218573622047245
20
0.4857725590551181
11
1.5186642125984251
21
0.4836389763779527
0
LINE
8
BLACK
6
CONTINUOUS
10
1.5186642125984251
20
0.4836389763779527
11
1.5148976377952756
21
0.4828897637795275
0
LINE
8
BLACK
6
CONTINUOUS
10
1.5148976377952756
20
0.4828897637795275
11
1.4952125984251967
21
0.4828897637795275
0
LINE
8
BLACK
6
CONTINUOUS
10
1.4952125984251967
20
0.4828897637795275
11
1.4914460236220473
21
0.4836389763779527
0
LINE
8
BLACK
6
CONTINUOUS
10
1.4914460236220473
20
0.4836389763779527
11
1.4882528740157479
21
0.4857725590551181
0
LINE
8
BLACK
6
CONTINUOUS
10
1.4882528740157479
20
0.4857725590551181
11
1.4861192913385826
21
0.4889657086614173
0
LINE
8
BLACK
6
CONTINUOUS
10
1.4861192913385826
20
0.4889657086614173
11
1.4853700787401574
21
0.4927322834645669
0
LINE
8
BLACK
6
CONTINUOUS
10
1.4853700787401574
20
0.4927322834645669
11
1.4853700787401574
21
0.5301338582677165
0
LINE
8
BLACK
6
CONTINUOUS
10
1.4853700787401574
20
0.5301338582677165
11
1.4861192913385826
21
0.5339004330708661
0
LINE
8
BLACK
6
CONTINUOUS
10
1.4861192913385826
20
0.5339004330708661
11
1.4882528740157479
21
0.5370935826771653
0
LINE
8
BLACK
6
CONTINUOUS
10
1.4882528740157479
20
0.5370935826771653
11
1.4914460236220473
21
0.5392271653543307
0
LINE
8
BLACK
6
CONTINUOUS
10
1.4914460236220473
20
0.5392271653543307
11
1.4952125984251967
21
0.5399763779527559
0
LINE
8
BLACK
6
CONTINUOUS
10
1.4952125984251967
20
0.5399763779527559
11
1.5148976377952756
21
0.5399763779527559
0
LINE
8
BLACK
6
CONTINUOUS
10
1.5148976377952756
20
0.5399763779527559
11
1.5186642125984251
21
0.5392271653543307
0
LINE
8
BLACK
6
CONTINUOUS
10
1.7000316141732283
20
0.5580307874015747
11
1.7019474803149606
21
0.5567506299212598
0
LINE
8
BLACK
6
CONTINUOUS
10
1.7019474803149606
20
0.5567506299212598
11
1.7032276377952755
21
0.5548347637795276
0
LINE
8
BLACK
6
CONTINUOUS
10
1.7032276377952755
20
0.5548347637795276
11
1.7036771653543308
21
0.5525748031496063
0
LINE
8
BLACK
6
CONTINUOUS
10
1.7036771653543308
20
0.5525748031496063
11
1.7036771653543308
21
0.5407637795275591
0
LINE
8
BLACK
6
CONTINUOUS
10
1.7036771653543308
20
0.5407637795275591
11
1.7032276377952755
21
0.5385038188976378
0
LINE
8
BLACK
6
CONTINUOUS
10
1.7032276377952755
20
0.5385038188976378
11
1.7019474803149606
21
0.5365879527559055
0
LINE
8
BLACK
6
CONTINUOUS
10
1.7019474803149606
20
0.5365879527559055
11
1.7000316141732283
21
0.5353077952755906
0
LINE
8
BLACK
6
CONTINUOUS
10
1.7000316141732283
20
0.5353077952755906
11
1.6977716535433069
21
0.5348582677165354
0
LINE
8
BLACK
6
CONTINUOUS
10
1.6977716535433069
20
0.5348582677165354
11
1.6574173228346456
21
0.5348582677165354
0
LINE
8
BLACK
6
CONTINUOUS
10
1.6574173228346456
20
0.5348582677165354
11
1.6551573622047244
21
0.5353077952755906
0
LINE
8
BLACK
6
CONTINUOUS
10
1.6551573622047244
20
0.5353077952755906
11
1.653241496062992
21
0.5365879527559055
0
LINE
8
BLACK
6
CONTINUOUS
10
1.653241496062992
20
0.5365879527559055
11
1.651961338582677
21
0.5385038188976378
0
LINE
8
BLACK
6
CONTINUOUS
10
1.651961338582677
20
0.5385038188976378
11
1.651511811023622
21
0.5407637795275591
0
LINE
8
BLACK
6
CONTINUOUS
10
1.651511811023622
20
0.5407637795275591
11
1.651511811023622
21
0.5525748031496063
0
LINE
8
BLACK
6
CONTINUOUS
10
1.651511811023622
20
0.5525748031496063
11
1.651961338582677
21
0.5548347637795276
0
LINE
8
BLACK
6
CONTINUOUS
10
1.651961338582677
20
0.5548347637795276
11
1.653241496062992
21
0.5567506299212598
0
LINE
8
BLACK
6
CONTINUOUS
10
1.653241496062992
20
0.5567506299212598
11
1.6551573622047244
21
0.5580307874015747
0
LINE
8
BLACK
6
CONTINUOUS
10
1.6551573622047244
20
0.5580307874015747
11
1.6574173228346456
21
0.5584803149606299
0
LINE
8
BLACK
6
CONTINUOUS
10
1.6574173228346456
20
0.5584803149606299
11
1.6977716535433069
21
0.5584803149606299
0
LINE
8
BLACK
6
CONTINUOUS
10
1.6977716535433069
20
0.5584803149606299
11
1.7000316141732283
21
0.5580307874015747
0
LINE
8
BLACK
6
CONTINUOUS
10
1.7895985433070867
20
0.5580307874015747
11
1.7915144094488189
21
0.5567506299212598
0
LINE
8
BLACK
6
CONTINUOUS
10
1.7915144094488189
20
0.5567506299212598
11
1.7927945669291339
21
0.5548347637795276
0
LINE
8
BLACK
6
CONTINUOUS
10
1.7927945669291339
20
0.5548347637795276
11
1.7932440944881889
21
0.5525748031496063
0
LINE
8
BLACK
6
CONTINUOUS
10
1.7932440944881889
20
0.5525748031496063
11
1.7932440944881889
21
0.5407637795275591
0
LINE
8
BLACK
6
CONTINUOUS
10
1.7932440944881889
20
0.5407637795275591
11
1.7927945669291339
21
0.5385038188976378
0
LINE
8
BLACK
6
CONTINUOUS
10
1.7927945669291339
20
0.5385038188976378
11
1.7915144094488189
21
0.5365879527559055
0
LINE
8
BLACK
6
CONTINUOUS
10
1.7915144094488189
20
0.5365879527559055
11
1.7895985433070867
21
0.5353077952755906
0
LINE
8
BLACK
6
CONTINUOUS
10
1.7895985433070867
20
0.5353077952755906
11
1.7873385826771653
21
0.5348582677165354
0
LINE
8
BLACK
6
CONTINUOUS
10
1.7873385826771653
20
0.5348582677165354
11
1.7469842519685039
21
0.5348582677165354
0
LINE
8
BLACK
6
CONTINUOUS
10
1.7469842519685039
20
0.5348582677165354
11
1.7447242913385825
21
0.5353077952755906
0
LINE
8
BLACK
6
CONTINUOUS
10
1.7447242913385825
20
0.5353077952755906
11
1.7428084251968503
21
0.5365879527559055
0
LINE
8
BLACK
6
CONTINUOUS
10
1.7428084251968503
20
0.5365879527559055
11
1.7415282677165353
21
0.5385038188976378
0
LINE
8
BLACK
6
CONTINUOUS
10
1.7415282677165353
20
0.5385038188976378
11
1.7410787401574803
21
0.5407637795275591
0
LINE
8
BLACK
6
CONTINUOUS
10
1.7410787401574803
20
0.5407637795275591
11
1.7410787401574803
21
0.5525748031496063
0
LINE
8
BLACK
6
CONTINUOUS
10
1.7410787401574803
20
0.5525748031496063
11
1.7415282677165353
21
0.5548347637795276
0
LINE
8
BLACK
6
CONTINUOUS
10
1.7415282677165353
20
0.5548347637795276
11
1.7428084251968503
21
0.5567506299212598
0
LINE
8
BLACK
6
CONTINUOUS
10
1.7428084251968503
20
0.5567506299212598
11
1.7447242913385825
21
0.5580307874015747
0
LINE
8
BLACK
6
CONTINUOUS
10
1.7447242913385825
20
0.5580307874015747
11
1.7469842519685039
21
0.5584803149606299
0
LINE
8
BLACK
6
CONTINUOUS
10
1.7469842519685039
20
0.5584803149606299
11
1.7873385826771653
21
0.5584803149606299
0
LINE
8
BLACK
6
CONTINUOUS
10
1.7873385826771653
20
0.5584803149606299
11
1.7895985433070867
21
0.5580307874015747
0
LINE
8
BLACK
6
CONTINUOUS
10
0.7937007874015748
20
0.5708661417322834
11
0.7543307086614173
21
0.5708661417322834
0
LINE
8
BLACK
6
CONTINUOUS
10
0.7543307086614173
20
0.5708661417322834
11
0.7543307086614173
21
0.7204724409448818
0
LINE
8
BLACK
6
CONTINUOUS
10
0.7543307086614173
20
0.7204724409448818
11
0.7937007874015748
21
0.7204724409448818
0
LINE
8
BLACK
6
CONTINUOUS
10
0.7937007874015748
20
0.7204724409448818
11
0.7937007874015748
21
0.5708661417322834
0
LINE
8
BLACK
6
CONTINUOUS
10
2.0456692913385828
20
0.5708661417322834
11
2.0062992125984254
21
0.5708661417322834
0
LINE
8
BLACK
6
CONTINUOUS
10
2.0062992125984254
20
0.5708661417322834
11
2.0062992125984254
21
0.7204724409448818
0
LINE
8
BLACK
6
CONTINUOUS
10
2.0062992125984254
20
0.7204724409448818
11
2.0456692913385828
21
0.7204724409448818
0
LINE
8
BLACK
6
CONTINUOUS
10
2.0456692913385828
20
0.7204724409448818
11
2.0456692913385828
21
0.5708661417322834
0
LINE
8
BLACK
6
CONTINUOUS
10
1.7895985433070867
20
0.5954323622047244
11
1.7915144094488189
21
0.5941522047244094
0
LINE
8
BLACK
6
CONTINUOUS
10
1.7915144094488189
20
0.5941522047244094
11
1.7927945669291339
21
0.5922363385826771
0
LINE
8
BLACK
6
CONTINUOUS
10
1.7927945669291339
20
0.5922363385826771
11
1.7932440944881889
21
0.5899763779527559
0
LINE
8
BLACK
6
CONTINUOUS
10
1.7932440944881889
20
0.5899763779527559
11
1.7932440944881889
21
0.5781653543307087
0
LINE
8
BLACK
6
CONTINUOUS
10
1.7932440944881889
20
0.5781653543307087
11
1.7927945669291339
21
0.5759053937007874
0
LINE
8
BLACK
6
CONTINUOUS
10
1.7927945669291339
20
0.5759053937007874
11
1.7915144094488189
21
0.5739895275590551
0
LINE
8
BLACK
6
CONTINUOUS
10
1.7915144094488189
20
0.5739895275590551
11
1.7895985433070867
21
0.5727093700787401
0
LINE
8
BLACK
6
CONTINUOUS
10
1.7895985433070867
20
0.5727093700787401
11
1.7873385826771653
21
0.572259842519685
0
LINE
8
BLACK
6
CONTINUOUS
10
1.7873385826771653
20
0.572259842519685
11
1.7469842519685039
21
0.572259842519685
0
LINE
8
BLACK
6
CONTINUOUS
10
1.7469842519685039
20
0.572259842519685
11
1.7447242913385825
21
0.5727093700787401
0
LINE
8
BLACK
6
CONTINUOUS
10
1.7447242913385825
20
0.5727093700787401
11
1.7428084251968503
21
0.5739895275590551
0
LINE
8
BLACK
6
CONTINUOUS
10
1.7428084251968503
20
0.5739895275590551
11
1.7415282677165353
21
0.5759053937007874
0
LINE
8
BLACK
6
CONTINUOUS
10
1.7415282677165353
20
0.5759053937007874
11
1.7410787401574803
21
0.5781653543307087
0
LINE
8
BLACK
6
CONTINUOUS
10
1.7410787401574803
20
0.5781653543307087
11
1.7410787401574803
21
0.5899763779527559
0
LINE
8
BLACK
6
CONTINUOUS
10
1.7410787401574803
20
0.5899763779527559
11
1.7415282677165353
21
0.5922363385826771
0
LINE
8
BLACK
6
CONTINUOUS
10
1.7415282677165353
20
0.5922363385826771
11
1.7428084251968503
21
0.5941522047244094
0
LINE
8
BLACK
6
CONTINUOUS
10
1.7428084251968503
20
0.5941522047244094
11
1.7447242913385825
21
0.5954323622047244
0
LINE
8
BLACK
6
CONTINUOUS
10
1.7447242913385825
20
0.5954323622047244
11
1.7469842519685039
21
0.5958818897637795
0
LINE
8
BLACK
6
CONTINUOUS
10
1.7469842519685039
20
0.5958818897637795
11
1.7873385826771653
21
0.5958818897637795
0
LINE
8
BLACK
6
CONTINUOUS
10
1.7873385826771653
20
0.5958818897637795
11
1.7895985433070867
21
0.5954323622047244
0
LINE
8
BLACK
6
CONTINUOUS
10
1.2436825590551182
20
0.6291014173228346
11
1.2462370472440945
21
0.6273945275590551
0
LINE
8
BLACK
6
CONTINUOUS
10
1.2462370472440945
20
0.6273945275590551
11
1.247943937007874
21
0.6248400393700787
0
LINE
8
BLACK
6
CONTINUOUS
10
1.247943937007874
20
0.6248400393700787
11
1.2485433070866141
21
0.6218267716535433
0
LINE
8
BLACK
6
CONTINUOUS
10
1.2485433070866141
20
0.6218267716535433
11
1.2485433070866141
21
0.6001732283464567
0
LINE
8
BLACK
6
CONTINUOUS
10
1.2485433070866141
20
0.6001732283464567
11
1.247943937007874
21
0.5971599606299213
0
LINE
8
BLACK
6
CONTINUOUS
10
1.247943937007874
20
0.5971599606299213
11
1.2462370472440945
21
0.5946054724409449
0
LINE
8
BLACK
6
CONTINUOUS
10
1.2462370472440945
20
0.5946054724409449
11
1.2436825590551182
21
0.5928985826771653
0
LINE
8
BLACK
6
CONTINUOUS
10
1.2436825590551182
20
0.5928985826771653
11
1.2406692913385826
21
0.5922992125984252
0
LINE
8
BLACK
6
CONTINUOUS
10
1.2406692913385826
20
0.5922992125984252
11
1.2249212598425196
21
0.5922992125984252
0
LINE
8
BLACK
6
CONTINUOUS
10
1.2249212598425196
20
0.5922992125984252
11
1.2219079921259843
21
0.5928985826771653
0
LINE
8
BLACK
6
CONTINUOUS
10
1.2219079921259843
20
0.5928985826771653
11
1.2193535039370078
21
0.5946054724409449
0
LINE
8
BLACK
6
CONTINUOUS
10
1.2193535039370078
20
0.5946054724409449
11
1.2176466141732283
21
0.5971599606299213
0
LINE
8
BLACK
6
CONTINUOUS
10
1.2176466141732283
20
0.5971599606299213
11
1.2170472440944882
21
0.6001732283464567
0
LINE
8
BLACK
6
CONTINUOUS
10
1.2170472440944882
20
0.6001732283464567
11
1.2170472440944882
21
0.6218267716535433
0
LINE
8
BLACK
6
CONTINUOUS
10
1.2170472440944882
20
0.6218267716535433
11
1.2176466141732283
21
0.6248400393700787
0
LINE
8
BLACK
6
CONTINUOUS
10
1.2176466141732283
20
0.6248400393700787
11
1.2193535039370078
21
0.6273945275590551
0
LINE
8
BLACK
6
CONTINUOUS
10
1.2193535039370078
20
0.6273945275590551
11
1.2219079921259843
21
0.6291014173228346
0
LINE
8
BLACK
6
CONTINUOUS
10
1.2219079921259843
20
0.6291014173228346
11
1.2249212598425196
21
0.6297007874015748
0
LINE
8
BLACK
6
CONTINUOUS
10
1.2249212598425196
20
0.6297007874015748
11
1.2406692913385826
21
0.6297007874015748
0
LINE
8
BLACK
6
CONTINUOUS
10
1.2406692913385826
20
0.6297007874015748
11
1.2436825590551182
21
0.6291014173228346
0
LINE
8
BLACK
6
CONTINUOUS
10
1.3086431889763779
20
0.6291014173228346
11
1.3111976771653544
21
0.6273945275590551
0
LINE
8
BLACK
6
CONTINUOUS
10
1.3111976771653544
20
0.6273945275590551
11
1.3129045669291339
21
0.6248400393700787
0
LINE
8
BLACK
6
CONTINUOUS
10
1.3129045669291339
20
0.6248400393700787
11
1.313503937007874
21
0.6218267716535433
0
LINE
8
BLACK
6
CONTINUOUS
10
1.313503937007874
20
0.6218267716535433
11
1.313503937007874
21
0.6001732283464567
0
LINE
8
BLACK
6
CONTINUOUS
10
1.313503937007874
20
0.6001732283464567
11
1.3129045669291339
21
0.5971599606299213
0
LINE
8
BLACK
6
CONTINUOUS
10
1.3129045669291339
20
0.5971599606299213
11
1.3111976771653544
21
0.5946054724409449
0
LINE
8
BLACK
6
CONTINUOUS
10
1.3111976771653544
20
0.5946054724409449
11
1.3086431889763779
21
0.5928985826771653
0
LINE
8
BLACK
6
CONTINUOUS
10
1.3086431889763779
20
0.5928985826771653
11
1.3056299212598426
21
0.5922992125984252
0
LINE
8
BLACK
6
CONTINUOUS
10
1.3056299212598426
20
0.5922992125984252
11
1.2898818897637796
21
0.5922992125984252
0
LINE
8
BLACK
6
CONTINUOUS
10
1.2898818897637796
20
0.5922992125984252
11
1.2868686220472441
21
0.5928985826771653
0
LINE
8
BLACK
6
CONTINUOUS
10
1.2868686220472441
20
0.5928985826771653
11
1.2843141338582678
21
0.5946054724409449
0
LINE
8
BLACK
6
CONTINUOUS
10
1.2843141338582678
20
0.5946054724409449
11
1.2826072440944882
21
0.5971599606299213
0
LINE
8
BLACK
6
CONTINUOUS
10
1.2826072440944882
20
0.5971599606299213
11
1.2820078740157479
21
0.6001732283464567
0
LINE
8
BLACK
6
CONTINUOUS
10
1.2820078740157479
20
0.6001732283464567
11
1.2820078740157479
21
0.6218267716535433
0
LINE
8
BLACK
6
CONTINUOUS
10
1.2820078740157479
20
0.6218267716535433
11
1.2826072440944882
21
0.6248400393700787
0
LINE
8
BLACK
6
CONTINUOUS
10
1.2826072440944882
20
0.6248400393700787
11
1.2843141338582678
21
0.6273945275590551
0
LINE
8
BLACK
6
CONTINUOUS
10
1.2843141338582678
20
0.6273945275590551
11
1.2868686220472441
21
0.6291014173228346
0
LINE
8
BLACK
6
CONTINUOUS
10
1.2868686220472441
20
0.6291014173228346
11
1.2898818897637796
21
0.6297007874015748
0
LINE
8
BLACK
6
CONTINUOUS
10
1.2898818897637796
20
0.6297007874015748
11
1.3056299212598426
21
0.6297007874015748
0
LINE
8
BLACK
6
CONTINUOUS
10
1.3056299212598426
20
0.6297007874015748
11
1.3086431889763779
21
0.6291014173228346
0
LINE
8
BLACK
6
CONTINUOUS
10
1.443861062992126
20
0.6577311023622047
11
1.4470542125984251
21
0.6555975196850393
0
LINE
8
BLACK
6
CONTINUOUS
10
1.4470542125984251
20
0.6555975196850393
11
1.4491877952755905
21
0.6524043700787402
0
LINE
8
BLACK
6
CONTINUOUS
10
1.4491877952755905
20
0.6524043700787402
11
1.4499370078740157
21
0.6486377952755905
0
LINE
8
BLACK
6
CONTINUOUS
10
1.4499370078740157
20
0.6486377952755905
11
1.4499370078740157
21
0.611236220472441
0
LINE
8
BLACK
6
CONTINUOUS
10
1.4499370078740157
20
0.611236220472441
11
1.4491877952755905
21
0.6074696456692913
0
LINE
8
BLACK
6
CONTINUOUS
10
1.4491877952755905
20
0.6074696456692913
11
1.4470542125984251
21
0.6042764960629922
0
LINE
8
BLACK
6
CONTINUOUS
10
1.4470542125984251
20
0.6042764960629922
11
1.443861062992126
21
0.6021429133858267
0
LINE
8
BLACK
6
CONTINUOUS
10
1.443861062992126
20
0.6021429133858267
11
1.4400944881889763
21
0.6013937007874015
0
LINE
8
BLACK
6
CONTINUOUS
10
1.4400944881889763
20
0.6013937007874015
11
1.4204094488188976
21
0.6013937007874015
0
LINE
8
BLACK
6
CONTINUOUS
10
1.4204094488188976
20
0.6013937007874015
11
1.416642874015748
21
0.6021429133858267
0
LINE
8
BLACK
6
CONTINUOUS
10
1.416642874015748
20
0.6021429133858267
11
1.4134497244094488
21
0.6042764960629922
0
LINE
8
BLACK
6
CONTINUOUS
10
1.4134497244094488
20
0.6042764960629922
11
1.4113161417322835
21
0.6074696456692913
0
LINE
8
BLACK
6
CONTINUOUS
10
1.4113161417322835
20
0.6074696456692913
11
1.4105669291338583
21
0.611236220472441
0
LINE
8
BLACK
6
CONTINUOUS
10
1.4105669291338583
20
0.611236220472441
11
1.4105669291338583
21
0.6486377952755905
0
LINE
8
BLACK
6
CONTINUOUS
10
1.4105669291338583
20
0.6486377952755905
11
1.4113161417322835
21
0.6524043700787402
0
LINE
8
BLACK
6
CONTINUOUS
10
1.4113161417322835
20
0.6524043700787402
11
1.4134497244094488
21
0.6555975196850393
0
LINE
8
BLACK
6
CONTINUOUS
10
1.4134497244094488
20
0.6555975196850393
11
1.416642874015748
21
0.6577311023622047
0
LINE
8
BLACK
6
CONTINUOUS
10
1.416642874015748
20
0.6577311023622047
11
1.4204094488188976
21
0.6584803149606299
0
LINE
8
BLACK
6
CONTINUOUS
10
1.4204094488188976
20
0.6584803149606299
11
1.4400944881889763
21
0.6584803149606299
0
LINE
8
BLACK
6
CONTINUOUS
10
1.4400944881889763
20
0.6584803149606299
11
1.443861062992126
21
0.6577311023622047
0
LINE
8
BLACK
6
CONTINUOUS
10
1.5186642125984251
20
0.6577311023622047
11
1.5218573622047245
21
0.6555975196850393
0
LINE
8
BLACK
6
CONTINUOUS
10
1.5218573622047245
20
0.6555975196850393
11
1.5239909448818898
21
0.6524043700787402
0
LINE
8
BLACK
6
CONTINUOUS
10
1.5239909448818898
20
0.6524043700787402
11
1.524740157480315
21
0.6486377952755905
0
LINE
8
BLACK
6
CONTINUOUS
10
1.524740157480315
20
0.6486377952755905
11
1.524740157480315
21
0.611236220472441
0
LINE
8
BLACK
6
CONTINUOUS
10
1.524740157480315
20
0.611236220472441
11
1.5239909448818898
21
0.6074696456692913
0
LINE
8
BLACK
6
CONTINUOUS
10
1.5239909448818898
20
0.6074696456692913
11
1.5218573622047245
21
0.6042764960629922
0
LINE
8
BLACK
6
CONTINUOUS
10
1.5218573622047245
20
0.6042764960629922
11
1.5186642125984251
21
0.6021429133858267
0
LINE
8
BLACK
6
CONTINUOUS
10
1.5186642125984251
20
0.6021429133858267
11
1.5148976377952756
21
0.6013937007874015
0
LINE
8
BLACK
6
CONTINUOUS
10
1.5148976377952756
20
0.6013937007874015
11
1.4952125984251967
21
0.6013937007874015
0
LINE
8
BLACK
6
CONTINUOUS
10
1.4952125984251967
20
0.6013937007874015
11
1.4914460236220473
21
0.6021429133858267
0
LINE
8
BLACK
6
CONTINUOUS
10
1.4914460236220473
20
0.6021429133858267
11
1.4882528740157479
21
0.6042764960629922
0
LINE
8
BLACK
6
CONTINUOUS
10
1.4882528740157479
20
0.6042764960629922
11
1.4861192913385826
21
0.6074696456692913
0
LINE
8
BLACK
6
CONTINUOUS
10
1.4861192913385826
20
0.6074696456692913
11
1.4853700787401574
21
0.611236220472441
0
LINE
8
BLACK
6
CONTINUOUS
10
1.4853700787401574
20
0.611236220472441
11
1.4853700787401574
21
0.6486377952755905
0
LINE
8
BLACK
6
CONTINUOUS
10
1.4853700787401574
20
0.6486377952755905
11
1.4861192913385826
21
0.6524043700787402
0
LINE
8
BLACK
6
CONTINUOUS
10
1.4861192913385826
20
0.6524043700787402
11
1.4882528740157479
21
0.6555975196850393
0
LINE
8
BLACK
6
CONTINUOUS
10
1.4882528740157479
20
0.6555975196850393
11
1.4914460236220473
21
0.6577311023622047
0
LINE
8
BLACK
6
CONTINUOUS
10
1.4914460236220473
20
0.6577311023622047
11
1.4952125984251967
21
0.6584803149606299
0
LINE
8
BLACK
6
CONTINUOUS
10
1.4952125984251967
20
0.6584803149606299
11
1.5148976377952756
21
0.6584803149606299
0
LINE
8
BLACK
6
CONTINUOUS
10
1.5148976377952756
20
0.6584803149606299
11
1.5186642125984251
21
0.6577311023622047
0
LINE
8
BLACK
6
CONTINUOUS
10
1.7000316141732283
20
0.632833937007874
11
1.7019474803149606
21
0.6315537795275591
0
LINE
8
BLACK
6
CONTINUOUS
10
1.7019474803149606
20
0.6315537795275591
11
1.7032276377952755
21
0.6296379133858268
0
LINE
8
BLACK
6
CONTINUOUS
10
1.7032276377952755
20
0.6296379133858268
11
1.7036771653543308
21
0.6273779527559055
0
LINE
8
BLACK
6
CONTINUOUS
10
1.7036771653543308
20
0.6273779527559055
11
1.7036771653543308
21
0.6155669291338582
0
LINE
8
BLACK
6
CONTINUOUS
10
1.7036771653543308
20
0.6155669291338582
11
1.7032276377952755
21
0.613306968503937
0
LINE
8
BLACK
6
CONTINUOUS
10
1.7032276377952755
20
0.613306968503937
11
1.7019474803149606
21
0.6113911023622047
0
LINE
8
BLACK
6
CONTINUOUS
10
1.7019474803149606
20
0.6113911023622047
11
1.7000316141732283
21
0.6101109448818898
0
LINE
8
BLACK
6
CONTINUOUS
10
1.7000316141732283
20
0.6101109448818898
11
1.6977716535433069
21
0.6096614173228346
0
LINE
8
BLACK
6
CONTINUOUS
10
1.6977716535433069
20
0.6096614173228346
11
1.6574173228346456
21
0.6096614173228346
0
LINE
8
BLACK
6
CONTINUOUS
10
1.6574173228346456
20
0.6096614173228346
11
1.6551573622047244
21
0.6101109448818898
0
LINE
8
BLACK
6
CONTINUOUS
10
1.6551573622047244
20
0.6101109448818898
11
1.653241496062992
21
0.6113911023622047
0
LINE
8
BLACK
6
CONTINUOUS
10
1.653241496062992
20
0.6113911023622047
11
1.651961338582677
21
0.613306968503937
0
LINE
8
BLACK
6
CONTINUOUS
10
1.651961338582677
20
0.613306968503937
11
1.651511811023622
21
0.6155669291338582
0
LINE
8
BLACK
6
CONTINUOUS
10
1.651511811023622
20
0.6155669291338582
11
1.651511811023622
21
0.6273779527559055
0
LINE
8
BLACK
6
CONTINUOUS
10
1.651511811023622
20
0.6273779527559055
11
1.651961338582677
21
0.6296379133858268
0
LINE
8
BLACK
6
CONTINUOUS
10
1.651961338582677
20
0.6296379133858268
11
1.653241496062992
21
0.6315537795275591
0
LINE
8
BLACK
6
CONTINUOUS
10
1.653241496062992
20
0.6315537795275591
11
1.6551573622047244
21
0.632833937007874
0
LINE
8
BLACK
6
CONTINUOUS
10
1.6551573622047244
20
0.632833937007874
11
1.6574173228346456
21
0.6332834645669291
0
LINE
8
BLACK
6
CONTINUOUS
10
1.6574173228346456
20
0.6332834645669291
11
1.6977716535433069
21
0.6332834645669291
0
LINE
8
BLACK
6
CONTINUOUS
10
1.6977716535433069
20
0.6332834645669291
11
1.7000316141732283
21
0.632833937007874
0
LINE
8
BLACK
6
CONTINUOUS
10
1.7895985433070867
20
0.632833937007874
11
1.7915144094488189
21
0.6315537795275591
0
LINE
8
BLACK
6
CONTINUOUS
10
1.7915144094488189
20
0.6315537795275591
11
1.7927945669291339
21
0.6296379133858268
0
LINE
8
BLACK
6
CONTINUOUS
10
1.7927945669291339
20
0.6296379133858268
11
1.7932440944881889
21
0.6273779527559055
0
LINE
8
BLACK
6
CONTINUOUS
10
1.7932440944881889
20
0.6273779527559055
11
1.7932440944881889
21
0.6155669291338582
0
LINE
8
BLACK
6
CONTINUOUS
10
1.7932440944881889
20
0.6155669291338582
11
1.7927945669291339
21
0.613306968503937
0
LINE
8
BLACK
6
CONTINUOUS
10
1.7927945669291339
20
0.613306968503937
11
1.7915144094488189
21
0.6113911023622047
0
LINE
8
BLACK
6
CONTINUOUS
10
1.7915144094488189
20
0.6113911023622047
11
1.7895985433070867
21
0.6101109448818898
0
LINE
8
BLACK
6
CONTINUOUS
10
1.7895985433070867
20
0.6101109448818898
11
1.7873385826771653
21
0.6096614173228346
0
LINE
8
BLACK
6
CONTINUOUS
10
1.7873385826771653
20
0.6096614173228346
11
1.7469842519685039
21
0.6096614173228346
0
LINE
8
BLACK
6
CONTINUOUS
10
1.7469842519685039
20
0.6096614173228346
11
1.7447242913385825
21
0.6101109448818898
0
LINE
8
BLACK
6
CONTINUOUS
10
1.7447242913385825
20
0.6101109448818898
11
1.7428084251968503
21
0.6113911023622047
0
LINE
8
BLACK
6
CONTINUOUS
10
1.7428084251968503
20
0.6113911023622047
11
1.7415282677165353
21
0.613306968503937
0
LINE
8
BLACK
6
CONTINUOUS
10
1.7415282677165353
20
0.613306968503937
11
1.7410787401574803
21
0.6155669291338582
0
LINE
8
BLACK
6
CONTINUOUS
10
1.7410787401574803
20
0.6155669291338582
11
1.7410787401574803
21
0.6273779527559055
0
LINE
8
BLACK
6
CONTINUOUS
10
1.7410787401574803
20
0.6273779527559055
11
1.7415282677165353
21
0.6296379133858268
0
LINE
8
BLACK
6
CONTINUOUS
10
1.7415282677165353
20
0.6296379133858268
11
1.7428084251968503
21
0.6315537795275591
0
LINE
8
BLACK
6
CONTINUOUS
10
1.7428084251968503
20
0.6315537795275591
11
1.7447242913385825
21
0.632833937007874
0
LINE
8
BLACK
6
CONTINUOUS
10
1.7447242913385825
20
0.632833937007874
11
1.7469842519685039
21
0.6332834645669291
0
LINE
8
BLACK
6
CONTINUOUS
10
1.7469842519685039
20
0.6332834645669291
11
1.7873385826771653
21
0.6332834645669291
0
LINE
8
BLACK
6
CONTINUOUS
10
1.7873385826771653
20
0.6332834645669291
11
1.7895985433070867
21
0.632833937007874
0
LINE
8
BLACK
6
CONTINUOUS
10
1.2436825590551182
20
0.7279203149606299
11
1.2462370472440945
21
0.7262134251968504
0
LINE
8
BLACK
6
CONTINUOUS
10
1.2462370472440945
20
0.7262134251968504
11
1.247943937007874
21
0.723658937007874
0
LINE
8
BLACK
6
CONTINUOUS
10
1.247943937007874
20
0.723658937007874
11
1.2485433070866141
21
0.7206456692913386
0
LINE
8
BLACK
6
CONTINUOUS
10
1.2485433070866141
20
0.7206456692913386
11
1.2485433070866141
21
0.698992125984252
0
LINE
8
BLACK
6
CONTINUOUS
10
1.2485433070866141
20
0.698992125984252
11
1.247943937007874
21
0.6959788582677165
0
LINE
8
BLACK
6
CONTINUOUS
10
1.247943937007874
20
0.6959788582677165
11
1.2462370472440945
21
0.6934243700787401
0
LINE
8
BLACK
6
CONTINUOUS
10
1.2462370472440945
20
0.6934243700787401
11
1.2436825590551182
21
0.6917174803149606
0
LINE
8
BLACK
6
CONTINUOUS
10
1.2436825590551182
20
0.6917174803149606
11
1.2406692913385826
21
0.6911181102362205
0
LINE
8
BLACK
6
CONTINUOUS
10
1.2406692913385826
20
0.6911181102362205
11
1.2249212598425196
21
0.6911181102362205
0
LINE
8
BLACK
6
CONTINUOUS
10
1.2249212598425196
20
0.6911181102362205
11
1.2219079921259843
21
0.6917174803149606
0
LINE
8
BLACK
6
CONTINUOUS
10
1.2219079921259843
20
0.6917174803149606
11
1.2193535039370078
21
0.6934243700787401
0
LINE
8
BLACK
6
CONTINUOUS
10
1.2193535039370078
20
0.6934243700787401
11
1.2176466141732283
21
0.6959788582677165
0
LINE
8
BLACK
6
CONTINUOUS
10
1.2176466141732283
20
0.6959788582677165
11
1.2170472440944882
21
0.698992125984252
0
LINE
8
BLACK
6
CONTINUOUS
10
1.2170472440944882
20
0.698992125984252
11
1.2170472440944882
21
0.7206456692913386
0
LINE
8
BLACK
6
CONTINUOUS
10
1.2170472440944882
20
0.7206456692913386
11
1.2176466141732283
21
0.723658937007874
0
LINE
8
BLACK
6
CONTINUOUS
10
1.2176466141732283
20
0.723658937007874
11
1.2193535039370078
21
0.7262134251968504
0
LINE
8
BLACK
6
CONTINUOUS
10
1.2193535039370078
20
0.7262134251968504
11
1.2219079921259843
21
0.7279203149606299
0
LINE
8
BLACK
6
CONTINUOUS
10
1.2219079921259843
20
0.7279203149606299
11
1.2249212598425196
21
0.72851968503937
0
LINE
8
BLACK
6
CONTINUOUS
10
1.2249212598425196
20
0.72851968503937
11
1.2406692913385826
21
0.72851968503937
0
LINE
8
BLACK
6
CONTINUOUS
10
1.2406692913385826
20
0.72851968503937
11
1.2436825590551182
21
0.7279203149606299
0
LINE
8
BLACK
6
CONTINUOUS
10
1.3086431889763779
20
0.7279203149606299
11
1.3111976771653544
21
0.7262134251968504
0
LINE
8
BLACK
6
CONTINUOUS
10
1.3111976771653544
20
0.7262134251968504
11
1.3129045669291339
21
0.723658937007874
0
LINE
8
BLACK
6
CONTINUOUS
10
1.3129045669291339
20
0.723658937007874
11
1.313503937007874
21
0.7206456692913386
0
LINE
8
BLACK
6
CONTINUOUS
10
1.313503937007874
20
0.7206456692913386
11
1.313503937007874
21
0.698992125984252
0
LINE
8
BLACK
6
CONTINUOUS
10
1.313503937007874
20
0.698992125984252
11
1.3129045669291339
21
0.6959788582677165
0
LINE
8
BLACK
6
CONTINUOUS
10
1.3129045669291339
20
0.6959788582677165
11
1.3111976771653544
21
0.6934243700787401
0
LINE
8
BLACK
6
CONTINUOUS
10
1.3111976771653544
20
0.6934243700787401
11
1.3086431889763779
21
0.6917174803149606
0
LINE
8
BLACK
6
CONTINUOUS
10
1.3086431889763779
20
0.6917174803149606
11
1.3056299212598426
21
0.6911181102362205
0
LINE
8
BLACK
6
CONTINUOUS
10
1.3056299212598426
20
0.6911181102362205
11
1.2898818897637796
21
0.6911181102362205
0
LINE
8
BLACK
6
CONTINUOUS
10
1.2898818897637796
20
0.6911181102362205
11
1.2868686220472441
21
0.6917174803149606
0
LINE
8
BLACK
6
CONTINUOUS
10
1.2868686220472441
20
0.6917174803149606
11
1.2843141338582678
21
0.6934243700787401
0
LINE
8
BLACK
6
CONTINUOUS
10
1.2843141338582678
20
0.6934243700787401
11
1.2826072440944882
21
0.6959788582677165
0
LINE
8
BLACK
6
CONTINUOUS
10
1.2826072440944882
20
0.6959788582677165
11
1.2820078740157479
21
0.698992125984252
0
LINE
8
BLACK
6
CONTINUOUS
10
1.2820078740157479
20
0.698992125984252
11
1.2820078740157479
21
0.7206456692913386
0
LINE
8
BLACK
6
CONTINUOUS
10
1.2820078740157479
20
0.7206456692913386
11
1.2826072440944882
21
0.723658937007874
0
LINE
8
BLACK
6
CONTINUOUS
10
1.2826072440944882
20
0.723658937007874
11
1.2843141338582678
21
0.7262134251968504
0
LINE
8
BLACK
6
CONTINUOUS
10
1.2843141338582678
20
0.7262134251968504
11
1.2868686220472441
21
0.7279203149606299
0
LINE
8
BLACK
6
CONTINUOUS
10
1.2868686220472441
20
0.7279203149606299
11
1.2898818897637796
21
0.72851968503937
0
LINE
8
BLACK
6
CONTINUOUS
10
1.2898818897637796
20
0.72851968503937
11
1.3056299212598426
21
0.72851968503937
0
LINE
8
BLACK
6
CONTINUOUS
10
1.3056299212598426
20
0.72851968503937
11
1.3086431889763779
21
0.7279203149606299
0
LINE
8
BLACK
6
CONTINUOUS
10
1.893779527559055
20
0.7109448818897638
11
1.8662204724409448
21
0.7109448818897638
0
LINE
8
BLACK
6
CONTINUOUS
10
1.8662204724409448
20
0.7109448818897638
11
1.8662204724409448
21
0.8290551181102362
0
LINE
8
BLACK
6
CONTINUOUS
10
1.8662204724409448
20
0.8290551181102362
11
1.893779527559055
21
0.8290551181102362
0
LINE
8
BLACK
6
CONTINUOUS
10
1.893779527559055
20
0.8290551181102362
11
1.893779527559055
21
0.7109448818897638
0
LINE
8
BLACK
6
CONTINUOUS
10
1.443861062992126
20
0.7762350393700788
11
1.4470542125984251
21
0.7741014566929134
0
LINE
8
BLACK
6
CONTINUOUS
10
1.4470542125984251
20
0.7741014566929134
11
1.4491877952755905
21
0.7709083070866142
0
LINE
8
BLACK
6
CONTINUOUS
10
1.4491877952755905
20
0.7709083070866142
11
1.4499370078740157
21
0.7671417322834645
0
LINE
8
BLACK
6
CONTINUOUS
10
1.4499370078740157
20
0.7671417322834645
11
1.4499370078740157
21
0.729740157480315
0
LINE
8
BLACK
6
CONTINUOUS
10
1.4499370078740157
20
0.729740157480315
11
1.4491877952755905
21
0.7259735826771654
0
LINE
8
BLACK
6
CONTINUOUS
10
1.4491877952755905
20
0.7259735826771654
11
1.4470542125984251
21
0.7227804330708661
0
LINE
8
BLACK
6
CONTINUOUS
10
1.4470542125984251
20
0.7227804330708661
11
1.443861062992126
21
0.7206468503937008
0
LINE
8
BLACK
6
CONTINUOUS
10
1.443861062992126
20
0.7206468503937008
11
1.4400944881889763
21
0.7198976377952756
0
LINE
8
BLACK
6
CONTINUOUS
10
1.4400944881889763
20
0.7198976377952756
11
1.4204094488188976
21
0.7198976377952756
0
LINE
8
BLACK
6
CONTINUOUS
10
1.4204094488188976
20
0.7198976377952756
11
1.416642874015748
21
0.7206468503937008
0
LINE
8
BLACK
6
CONTINUOUS
10
1.416642874015748
20
0.7206468503937008
11
1.4134497244094488
21
0.7227804330708661
0
LINE
8
BLACK
6
CONTINUOUS
10
1.4134497244094488
20
0.7227804330708661
11
1.4113161417322835
21
0.7259735826771654
0
LINE
8
BLACK
6
CONTINUOUS
10
1.4113161417322835
20
0.7259735826771654
11
1.4105669291338583
21
0.729740157480315
0
LINE
8
BLACK
6
CONTINUOUS
10
1.4105669291338583
20
0.729740157480315
11
1.4105669291338583
21
0.7671417322834645
0
LINE
8
BLACK
6
CONTINUOUS
10
1.4105669291338583
20
0.7671417322834645
11
1.4113161417322835
21
0.7709083070866142
0
LINE
8
BLACK
6
CONTINUOUS
10
1.4113161417322835
20
0.7709083070866142
11
1.4134497244094488
21
0.7741014566929134
0
LINE
8
BLACK
6
CONTINUOUS
10
1.4134497244094488
20
0.7741014566929134
11
1.416642874015748
21
0.7762350393700788
0
LINE
8
BLACK
6
CONTINUOUS
10
1.416642874015748
20
0.7762350393700788
11
1.4204094488188976
21
0.776984251968504
0
LINE
8
BLACK
6
CONTINUOUS
10
1.4204094488188976
20
0.776984251968504
11
1.4400944881889763
21
0.776984251968504
0
LINE
8
BLACK
6
CONTINUOUS
10
1.4400944881889763
20
0.776984251968504
11
1.443861062992126
21
0.7762350393700788
0
LINE
8
BLACK
6
CONTINUOUS
10
1.5186642125984251
20
0.7762350393700788
11
1.5218573622047245
21
0.7741014566929134
0
LINE
8
BLACK
6
CONTINUOUS
10
1.5218573622047245
20
0.7741014566929134
11
1.5239909448818898
21
0.7709083070866142
0
LINE
8
BLACK
6
CONTINUOUS
10
1.5239909448818898
20
0.7709083070866142
11
1.524740157480315
21
0.7671417322834645
0
LINE
8
BLACK
6
CONTINUOUS
10
1.524740157480315
20
0.7671417322834645
11
1.524740157480315
21
0.729740157480315
0
LINE
8
BLACK
6
CONTINUOUS
10
1.524740157480315
20
0.729740157480315
11
1.5239909448818898
21
0.7259735826771654
0
LINE
8
BLACK
6
CONTINUOUS
10
1.5239909448818898
20
0.7259735826771654
11
1.5218573622047245
21
0.7227804330708661
0
LINE
8
BLACK
6
CONTINUOUS
10
1.5218573622047245
20
0.7227804330708661
11
1.5186642125984251
21
0.7206468503937008
0
LINE
8
BLACK
6
CONTINUOUS
10
1.5186642125984251
20
0.7206468503937008
11
1.5148976377952756
21
0.7198976377952756
0
LINE
8
BLACK
6
CONTINUOUS
10
1.5148976377952756
20
0.7198976377952756
11
1.4952125984251967
21
0.7198976377952756
0
LINE
8
BLACK
6
CONTINUOUS
10
1.4952125984251967
20
0.7198976377952756
11
1.4914460236220473
21
0.7206468503937008
0
LINE
8
BLACK
6
CONTINUOUS
10
1.4914460236220473
20
0.7206468503937008
11
1.4882528740157479
21
0.7227804330708661
0
LINE
8
BLACK
6
CONTINUOUS
10
1.4882528740157479
20
0.7227804330708661
11
1.4861192913385826
21
0.7259735826771654
0
LINE
8
BLACK
6
CONTINUOUS
10
1.4861192913385826
20
0.7259735826771654
11
1.4853700787401574
21
0.729740157480315
0
LINE
8
BLACK
6
CONTINUOUS
10
1.4853700787401574
20
0.729740157480315
11
1.4853700787401574
21
0.7671417322834645
0
LINE
8
BLACK
6
CONTINUOUS
10
1.4853700787401574
20
0.7671417322834645
11
1.4861192913385826
21
0.7709083070866142
0
LINE
8
BLACK
6
CONTINUOUS
10
1.4861192913385826
20
0.7709083070866142
11
1.4882528740157479
21
0.7741014566929134
0
LINE
8
BLACK
6
CONTINUOUS
10
1.4882528740157479
20
0.7741014566929134
11
1.4914460236220473
21
0.7762350393700788
0
LINE
8
BLACK
6
CONTINUOUS
10
1.4914460236220473
20
0.7762350393700788
11
1.4952125984251967
21
0.776984251968504
0
LINE
8
BLACK
6
CONTINUOUS
10
1.4952125984251967
20
0.776984251968504
11
1.5148976377952756
21
0.776984251968504
0
LINE
8
BLACK
6
CONTINUOUS
10
1.5148976377952756
20
0.776984251968504
11
1.5186642125984251
21
0.7762350393700788
0
LINE
8
BLACK
6
CONTINUOUS
10
1.6420894094488188
20
0.7738728346456692
11
1.6452825590551181
21
0.7717392519685039
0
LINE
8
BLACK
6
CONTINUOUS
10
1.6452825590551181
20
0.7717392519685039
11
1.6474161417322835
21
0.7685461023622047
0
LINE
8
BLACK
6
CONTINUOUS
10
1.6474161417322835
20
0.7685461023622047
11
1.6481653543307087
21
0.7647795275590551
0
LINE
8
BLACK
6
CONTINUOUS
10
1.6481653543307087
20
0.7647795275590551
11
1.6481653543307087
21
0.7313149606299213
0
LINE
8
BLACK
6
CONTINUOUS
10
1.6481653543307087
20
0.7313149606299213
11
1.6474161417322835
21
0.7275483858267716
0
LINE
8
BLACK
6
CONTINUOUS
10
1.6474161417322835
20
0.7275483858267716
11
1.6452825590551181
21
0.7243552362204724
0
LINE
8
BLACK
6
CONTINUOUS
10
1.6452825590551181
20
0.7243552362204724
11
1.6420894094488188
21
0.722221653543307
0
LINE
8
BLACK
6
CONTINUOUS
10
1.6420894094488188
20
0.722221653543307
11
1.6383228346456693
21
0.7214724409448818
0
LINE
8
BLACK
6
CONTINUOUS
10
1.6383228346456693
20
0.7214724409448818
11
1.6028897637795276
21
0.7214724409448818
0
LINE
8
BLACK
6
CONTINUOUS
10
1.6028897637795276
20
0.7214724409448818
11
1.599123188976378
21
0.722221653543307
0
LINE
8
BLACK
6
CONTINUOUS
10
1.599123188976378
20
0.722221653543307
11
1.5959300393700786
21
0.7243552362204724
0
LINE
8
BLACK
6
CONTINUOUS
10
1.5959300393700786
20
0.7243552362204724
11
1.5937964566929133
21
0.7275483858267716
0
LINE
8
BLACK
6
CONTINUOUS
10
1.5937964566929133
20
0.7275483858267716
11
1.5930472440944881
21
0.7313149606299213
0
LINE
8
BLACK
6
CONTINUOUS
10
1.5930472440944881
20
0.7313149606299213
11
1.5930472440944881
21
0.7647795275590551
0
LINE
8
BLACK
6
CONTINUOUS
10
1.5930472440944881
20
0.7647795275590551
11
1.5937964566929133
21
0.7685461023622047
0
LINE
8
BLACK
6
CONTINUOUS
10
1.5937964566929133
20
0.7685461023622047
11
1.5959300393700786
21
0.7717392519685039
0
LINE
8
BLACK
6
CONTINUOUS
10
1.5959300393700786
20
0.7717392519685039
11
1.599123188976378
21
0.7738728346456692
0
LINE
8
BLACK
6
CONTINUOUS
10
1.599123188976378
20
0.7738728346456692
11
1.6028897637795276
21
0.7746220472440944
0
LINE
8
BLACK
6
CONTINUOUS
10
1.6028897637795276
20
0.7746220472440944
11
1.6383228346456693
21
0.7746220472440944
0
LINE
8
BLACK
6
CONTINUOUS
10
1.6383228346456693
20
0.7746220472440944
11
1.6420894094488188
21
0.7738728346456692
0
LINE
8
BLACK
6
CONTINUOUS
10
1.748388622047244
20
0.7738728346456692
11
1.7515817716535433
21
0.7717392519685039
0
LINE
8
BLACK
6
CONTINUOUS
10
1.7515817716535433
20
0.7717392519685039
11
1.7537153543307087
21
0.7685461023622047
0
LINE
8
BLACK
6
CONTINUOUS
10
1.7537153543307087
20
0.7685461023622047
11
1.7544645669291339
21
0.7647795275590551
0
LINE
8
BLACK
6
CONTINUOUS
10
1.7544645669291339
20
0.7647795275590551
11
1.7544645669291339
21
0.7313149606299213
0
LINE
8
BLACK
6
CONTINUOUS
10
1.7544645669291339
20
0.7313149606299213
11
1.7537153543307087
21
0.7275483858267716
0
LINE
8
BLACK
6
CONTINUOUS
10
1.7537153543307087
20
0.7275483858267716
11
1.7515817716535433
21
0.7243552362204724
0
LINE
8
BLACK
6
CONTINUOUS
10
1.7515817716535433
20
0.7243552362204724
11
1.748388622047244
21
0.722221653543307
0
LINE
8
BLACK
6
CONTINUOUS
10
1.748388622047244
20
0.722221653543307
11
1.7446220472440945
21
0.7214724409448818
0
LINE
8
BLACK
6
CONTINUOUS
10
1.7446220472440945
20
0.7214724409448818
11
1.7091889763779526
21
0.7214724409448818
0
LINE
8
BLACK
6
CONTINUOUS
10
1.7091889763779526
20
0.7214724409448818
11
1.7054224015748032
21
0.722221653543307
0
LINE
8
BLACK
6
CONTINUOUS
10
1.7054224015748032
20
0.722221653543307
11
1.7022292519685038
21
0.7243552362204724
0
LINE
8
BLACK
6
CONTINUOUS
10
1.7022292519685038
20
0.7243552362204724
11
1.7000956692913385
21
0.7275483858267716
0
LINE
8
BLACK
6
CONTINUOUS
10
1.7000956692913385
20
0.7275483858267716
11
1.6993464566929133
21
0.7313149606299213
0
LINE
8
BLACK
6
CONTINUOUS
10
1.6993464566929133
20
0.7313149606299213
11
1.6993464566929133
21
0.7647795275590551
0
LINE
8
BLACK
6
CONTINUOUS
10
1.6993464566929133
20
0.7647795275590551
11
1.7000956692913385
21
0.7685461023622047
0
LINE
8
BLACK
6
CONTINUOUS
10
1.7000956692913385
20
0.7685461023622047
11
1.7022292519685038
21
0.7717392519685039
0
LINE
8
BLACK
6
CONTINUOUS
10
1.7022292519685038
20
0.7717392519685039
11
1.7054224015748032
21
0.7738728346456692
0
LINE
8
BLACK
6
CONTINUOUS
10
1.7054224015748032
20
0.7738728346456692
11
1.7091889763779526
21
0.7746220472440944
0
LINE
8
BLACK
6
CONTINUOUS
10
1.7091889763779526
20
0.7746220472440944
11
1.7446220472440945
21
0.7746220472440944
0
LINE
8
BLACK
6
CONTINUOUS
10
1.7446220472440945
20
0.7746220472440944
11
1.748388622047244
21
0.7738728346456692
0
LINE
8
BLACK
6
CONTINUOUS
10
1.8524409448818897
20
0.7404724409448818
11
1.8012598425196851
21
0.7404724409448818
0
LINE
8
BLACK
6
CONTINUOUS
10
1.8012598425196851
20
0.7404724409448818
11
1.8012598425196851
21
0.7995275590551181
0
LINE
8
BLACK
6
CONTINUOUS
10
1.8012598425196851
20
0.7995275590551181
11
1.8524409448818897
21
0.7995275590551181
0
LINE
8
BLACK
6
CONTINUOUS
10
1.8524409448818897
20
0.7995275590551181
11
1.8524409448818897
21
0.7404724409448818
0
LINE
8
BLACK
6
CONTINUOUS
10
1.9587401574803149
20
0.7404724409448818
11
1.9075590551181103
21
0.7404724409448818
0
LINE
8
BLACK
6
CONTINUOUS
10
1.9075590551181103
20
0.7404724409448818
11
1.9075590551181103
21
0.7995275590551181
0
LINE
8
BLACK
6
CONTINUOUS
10
1.9075590551181103
20
0.7995275590551181
11
1.9587401574803149
21
0.7995275590551181
0
LINE
8
BLACK
6
CONTINUOUS
10
1.9587401574803149
20
0.7995275590551181
11
1.9587401574803149
21
0.7404724409448818
0
LINE
8
BLACK
6
CONTINUOUS
10
2.5073886220472441
20
0.807046062992126
11
2.5105817716535435
21
0.8049124803149607
0
LINE
8
BLACK
6
CONTINUOUS
10
2.5105817716535435
20
0.8049124803149607
11
2.5127153543307088
21
0.8017193307086614
0
LINE
8
BLACK
6
CONTINUOUS
10
2.5127153543307088
20
0.8017193307086614
11
2.5134645669291338
21
0.7979527559055118
0
LINE
8
BLACK
6
CONTINUOUS
10
2.5134645669291338
20
0.7979527559055118
11
2.5134645669291338
21
0.7664566929133858
0
LINE
8
BLACK
6
CONTINUOUS
10
2.5134645669291338
20
0.7664566929133858
11
2.5127153543307088
21
0.7626901181102362
0
LINE
8
BLACK
6
CONTINUOUS
10
2.5127153543307088
20
0.7626901181102362
11
2.5105817716535435
21
0.759496968503937
0
LINE
8
BLACK
6
CONTINUOUS
10
2.5105817716535435
20
0.759496968503937
11
2.5073886220472441
21
0.7573633858267717
0
LINE
8
BLACK
6
CONTINUOUS
10
2.5073886220472441
20
0.7573633858267717
11
2.5036220472440944
21
0.7566141732283465
0
LINE
8
BLACK
6
CONTINUOUS
10
2.5036220472440944
20
0.7566141732283465
11
2.4563779527559055
21
0.7566141732283465
0
LINE
8
BLACK
6
CONTINUOUS
10
2.4563779527559055
20
0.7566141732283465
11
2.4526113779527559
21
0.7573633858267717
0
LINE
8
BLACK
6
CONTINUOUS
10
2.4526113779527559
20
0.7573633858267717
11
2.4494182283464565
21
0.759496968503937
0
LINE
8
BLACK
6
CONTINUOUS
10
2.4494182283464565
20
0.759496968503937
11
2.4472846456692912
21
0.7626901181102362
0
LINE
8
BLACK
6
CONTINUOUS
10
2.4472846456692912
20
0.7626901181102362
11
2.4465354330708662
21
0.7664566929133858
0
LINE
8
BLACK
6
CONTINUOUS
10
2.4465354330708662
20
0.7664566929133858
11
2.4465354330708662
21
0.7979527559055118
0
LINE
8
BLACK
6
CONTINUOUS
10
2.4465354330708662
20
0.7979527559055118
11
2.4472846456692912
21
0.8017193307086614
0
LINE
8
BLACK
6
CONTINUOUS
10
2.4472846456692912
20
0.8017193307086614
11
2.4494182283464565
21
0.8049124803149607
0
LINE
8
BLACK
6
CONTINUOUS
10
2.4494182283464565
20
0.8049124803149607
11
2.4526113779527559
21
0.807046062992126
0
LINE
8
BLACK
6
CONTINUOUS
10
2.4526113779527559
20
0.807046062992126
11
2.4563779527559055
21
0.8077952755905512
0
LINE
8
BLACK
6
CONTINUOUS
10
2.4563779527559055
20
0.8077952755905512
11
2.5036220472440944
21
0.8077952755905512
0
LINE
8
BLACK
6
CONTINUOUS
10
2.5036220472440944
20
0.8077952755905512
11
2.5073886220472441
21
0.807046062992126
0
LINE
8
BLACK
6
CONTINUOUS
10
0.7937007874015748
20
0.8070866141732284
11
0.7543307086614173
21
0.8070866141732284
0
LINE
8
BLACK
6
CONTINUOUS
10
0.7543307086614173
20
0.8070866141732284
11
0.7543307086614173
21
0.9566929133858267
0
LINE
8
BLACK
6
CONTINUOUS
10
0.7543307086614173
20
0.9566929133858267
11
0.7937007874015748
21
0.9566929133858267
0
LINE
8
BLACK
6
CONTINUOUS
10
0.7937007874015748
20
0.9566929133858267
11
0.7937007874015748
21
0.8070866141732284
0
LINE
8
BLACK
6
CONTINUOUS
10
2.0456692913385828
20
0.8070866141732284
11
2.0062992125984254
21
0.8070866141732284
0
LINE
8
BLACK
6
CONTINUOUS
10
2.0062992125984254
20
0.8070866141732284
11
2.0062992125984254
21
0.9566929133858267
0
LINE
8
BLACK
6
CONTINUOUS
10
2.0062992125984254
20
0.9566929133858267
11
2.0456692913385828
21
0.9566929133858267
0
LINE
8
BLACK
6
CONTINUOUS
10
2.0456692913385828
20
0.9566929133858267
11
2.0456692913385828
21
0.8070866141732284
0
LINE
8
BLACK
6
CONTINUOUS
10
1.443861062992126
20
0.8947389763779527
11
1.4470542125984251
21
0.8926053937007874
0
LINE
8
BLACK
6
CONTINUOUS
10
1.4470542125984251
20
0.8926053937007874
11
1.4491877952755905
21
0.8894122440944882
0
LINE
8
BLACK
6
CONTINUOUS
10
1.4491877952755905
20
0.8894122440944882
11
1.4499370078740157
21
0.8856456692913386
0
LINE
8
BLACK
6
CONTINUOUS
10
1.4499370078740157
20
0.8856456692913386
11
1.4499370078740157
21
0.8482440944881889
0
LINE
8
BLACK
6
CONTINUOUS
10
1.4499370078740157
20
0.8482440944881889
11
1.4491877952755905
21
0.8444775196850394
0
LINE
8
BLACK
6
CONTINUOUS
10
1.4491877952755905
20
0.8444775196850394
11
1.4470542125984251
21
0.8412843700787401
0
LINE
8
BLACK
6
CONTINUOUS
10
1.4470542125984251
20
0.8412843700787401
11
1.443861062992126
21
0.8391507874015748
0
LINE
8
BLACK
6
CONTINUOUS
10
1.443861062992126
20
0.8391507874015748
11
1.4400944881889763
21
0.8384015748031496
0
LINE
8
BLACK
6
CONTINUOUS
10
1.4400944881889763
20
0.8384015748031496
11
1.4204094488188976
21
0.8384015748031496
0
LINE
8
BLACK
6
CONTINUOUS
10
1.4204094488188976
20
0.8384015748031496
11
1.416642874015748
21
0.8391507874015748
0
LINE
8
BLACK
6
CONTINUOUS
10
1.416642874015748
20
0.8391507874015748
11
1.4134497244094488
21
0.8412843700787401
0
LINE
8
BLACK
6
CONTINUOUS
10
1.4134497244094488
20
0.8412843700787401
11
1.4113161417322835
21
0.8444775196850394
0
LINE
8
BLACK
6
CONTINUOUS
10
1.4113161417322835
20
0.8444775196850394
11
1.4105669291338583
21
0.8482440944881889
0
LINE
8
BLACK
6
CONTINUOUS
10
1.4105669291338583
20
0.8482440944881889
11
1.4105669291338583
21
0.8856456692913386
0
LINE
8
BLACK
6
CONTINUOUS
10
1.4105669291338583
20
0.8856456692913386
11
1.4113161417322835
21
0.8894122440944882
0
LINE
8
BLACK
6
CONTINUOUS
10
1.4113161417322835
20
0.8894122440944882
11
1.4134497244094488
21
0.8926053937007874
0
LINE
8
BLACK
6
CONTINUOUS
10
1.4134497244094488
20
0.8926053937007874
11
1.416642874015748
21
0.8947389763779527
0
LINE
8
BLACK
6
CONTINUOUS
10
1.416642874015748
20
0.8947389763779527
11
1.4204094488188976
21
0.8954881889763779
0
LINE
8
BLACK
6
CONTINUOUS
10
1.4204094488188976
20
0.8954881889763779
11
1.4400944881889763
21
0.8954881889763779
0
LINE
8
BLACK
6
CONTINUOUS
10
1.4400944881889763
20
0.8954881889763779
11
1.443861062992126
21
0.8947389763779527
0
LINE
8
BLACK
6
CONTINUOUS
10
1.5186642125984251
20
0.8947389763779527
11
1.5218573622047245
21
0.8926053937007874
0
LINE
8
BLACK
6
CONTINUOUS
10
1.5218573622047245
20
0.8926053937007874
11
1.5239909448818898
21
0.8894122440944882
0
LINE
8
BLACK
6
CONTINUOUS
10
1.5239909448818898
20
0.8894122440944882
11
1.524740157480315
21
0.8856456692913386
0
LINE
8
BLACK
6
CONTINUOUS
10
1.524740157480315
20
0.8856456692913386
11
1.524740157480315
21
0.8482440944881889
0
LINE
8
BLACK
6
CONTINUOUS
10
1.524740157480315
20
0.8482440944881889
11
1.5239909448818898
21
0.8444775196850394
0
LINE
8
BLACK
6
CONTINUOUS
10
1.5239909448818898
20
0.8444775196850394
11
1.5218573622047245
21
0.8412843700787401
0
LINE
8
BLACK
6
CONTINUOUS
10
1.5218573622047245
20
0.8412843700787401
11
1.5186642125984251
21
0.8391507874015748
0
LINE
8
BLACK
6
CONTINUOUS
10
1.5186642125984251
20
0.8391507874015748
11
1.5148976377952756
21
0.8384015748031496
0
LINE
8
BLACK
6
CONTINUOUS
10
1.5148976377952756
20
0.8384015748031496
11
1.4952125984251967
21
0.8384015748031496
0
LINE
8
BLACK
6
CONTINUOUS
10
1.4952125984251967
20
0.8384015748031496
11
1.4914460236220473
21
0.8391507874015748
0
LINE
8
BLACK
6
CONTINUOUS
10
1.4914460236220473
20
0.8391507874015748
11
1.4882528740157479
21
0.8412843700787401
0
LINE
8
BLACK
6
CONTINUOUS
10
1.4882528740157479
20
0.8412843700787401
11
1.4861192913385826
21
0.8444775196850394
0
LINE
8
BLACK
6
CONTINUOUS
10
1.4861192913385826
20
0.8444775196850394
11
1.4853700787401574
21
0.8482440944881889
0
LINE
8
BLACK
6
CONTINUOUS
10
1.4853700787401574
20
0.8482440944881889
11
1.4853700787401574
21
0.8856456692913386
0
LINE
8
BLACK
6
CONTINUOUS
10
1.4853700787401574
20
0.8856456692913386
11
1.4861192913385826
21
0.8894122440944882
0
LINE
8
BLACK
6
CONTINUOUS
10
1.4861192913385826
20
0.8894122440944882
11
1.4882528740157479
21
0.8926053937007874
0
LINE
8
BLACK
6
CONTINUOUS
10
1.4882528740157479
20
0.8926053937007874
11
1.4914460236220473
21
0.8947389763779527
0
LINE
8
BLACK
6
CONTINUOUS
10
1.4914460236220473
20
0.8947389763779527
11
1.4952125984251967
21
0.8954881889763779
0
LINE
8
BLACK
6
CONTINUOUS
10
1.4952125984251967
20
0.8954881889763779
11
1.5148976377952756
21
0.8954881889763779
0
LINE
8
BLACK
6
CONTINUOUS
10
1.5148976377952756
20
0.8954881889763779
11
1.5186642125984251
21
0.8947389763779527
0
LINE
8
BLACK
6
CONTINUOUS
10
0.8801339763779528
20
0.9038024409448818
11
0.882049842519685
21
0.9025222834645669
0
LINE
8
BLACK
6
CONTINUOUS
10
0.882049842519685
20
0.9025222834645669
11
0.8833299999999999
21
0.9006064173228346
0
LINE
8
BLACK
6
CONTINUOUS
10
0.8833299999999999
20
0.9006064173228346
11
0.8837795275590551
21
0.8983464566929134
0
LINE
8
BLACK
6
CONTINUOUS
10
0.8837795275590551
20
0.8983464566929134
11
0.8837795275590551
21
0.8865354330708661
0
LINE
8
BLACK
6
CONTINUOUS
10
0.8837795275590551
20
0.8865354330708661
11
0.8833299999999999
21
0.8842754724409448
0
LINE
8
BLACK
6
CONTINUOUS
10
0.8833299999999999
20
0.8842754724409448
11
0.882049842519685
21
0.8823596062992126
0
LINE
8
BLACK
6
CONTINUOUS
10
0.882049842519685
20
0.8823596062992126
11
0.8801339763779528
21
0.8810794488188977
0
LINE
8
BLACK
6
CONTINUOUS
10
0.8801339763779528
20
0.8810794488188977
11
0.8778740157480315
21
0.8806299212598425
0
LINE
8
BLACK
6
CONTINUOUS
10
0.8778740157480315
20
0.8806299212598425
11
0.8621259842519685
21
0.8806299212598425
0
LINE
8
BLACK
6
CONTINUOUS
10
0.8621259842519685
20
0.8806299212598425
11
0.8598660236220472
21
0.8810794488188977
0
LINE
8
BLACK
6
CONTINUOUS
10
0.8598660236220472
20
0.8810794488188977
11
0.8579501574803149
21
0.8823596062992126
0
LINE
8
BLACK
6
CONTINUOUS
10
0.8579501574803149
20
0.8823596062992126
11
0.8566699999999999
21
0.8842754724409448
0
LINE
8
BLACK
6
CONTINUOUS
10
0.8566699999999999
20
0.8842754724409448
11
0.8562204724409449
21
0.8865354330708661
0
LINE
8
BLACK
6
CONTINUOUS
10
0.8562204724409449
20
0.8865354330708661
11
0.8562204724409449
21
0.8983464566929134
0
LINE
8
BLACK
6
CONTINUOUS
10
0.8562204724409449
20
0.8983464566929134
11
0.8566699999999999
21
0.9006064173228346
0
LINE
8
BLACK
6
CONTINUOUS
10
0.8566699999999999
20
0.9006064173228346
11
0.8579501574803149
21
0.9025222834645669
0
LINE
8
BLACK
6
CONTINUOUS
10
0.8579501574803149
20
0.9025222834645669
11
0.8598660236220472
21
0.9038024409448818
0
LINE
8
BLACK
6
CONTINUOUS
10
0.8598660236220472
20
0.9038024409448818
11
0.8621259842519685
21
0.904251968503937
0
LINE
8
BLACK
6
CONTINUOUS
10
0.8621259842519685
20
0.904251968503937
11
0.8778740157480315
21
0.904251968503937
0
LINE
8
BLACK
6
CONTINUOUS
10
0.8778740157480315
20
0.904251968503937
11
0.8801339763779528
21
0.9038024409448818
0
LINE
8
BLACK
6
CONTINUOUS
10
1.2470119685039369
20
0.9254831889763779
11
1.2498857874015747
21
0.9235629527559055
0
LINE
8
BLACK
6
CONTINUOUS
10
1.2498857874015747
20
0.9235629527559055
11
1.2518060236220472
21
0.9206891338582677
0
LINE
8
BLACK
6
CONTINUOUS
10
1.2518060236220472
20
0.9206891338582677
11
1.2524803149606298
21
0.9172992125984252
0
LINE
8
BLACK
6
CONTINUOUS
10
1.2524803149606298
20
0.9172992125984252
11
1.2524803149606298
21
0.8976141732283465
0
LINE
8
BLACK
6
CONTINUOUS
10
1.2524803149606298
20
0.8976141732283465
11
1.2518060236220472
21
0.894224251968504
0
LINE
8
BLACK
6
CONTINUOUS
10
1.2518060236220472
20
0.894224251968504
11
1.2498857874015747
21
0.8913504330708661
0
LINE
8
BLACK
6
CONTINUOUS
10
1.2498857874015747
20
0.8913504330708661
11
1.2470119685039369
21
0.8894301968503937
0
LINE
8
BLACK
6
CONTINUOUS
10
1.2470119685039369
20
0.8894301968503937
11
1.2436220472440944
21
0.8887559055118111
0
LINE
8
BLACK
6
CONTINUOUS
10
1.2436220472440944
20
0.8887559055118111
11
1.2259055118110236
21
0.8887559055118111
0
LINE
8
BLACK
6
CONTINUOUS
10
1.2259055118110236
20
0.8887559055118111
11
1.2225155905511811
21
0.8894301968503937
0
LINE
8
BLACK
6
CONTINUOUS
10
1.2225155905511811
20
0.8894301968503937
11
1.2196417716535433
21
0.8913504330708661
0
LINE
8
BLACK
6
CONTINUOUS
10
1.2196417716535433
20
0.8913504330708661
11
1.2177215354330708
21
0.894224251968504
0
LINE
8
BLACK
6
CONTINUOUS
10
1.2177215354330708
20
0.894224251968504
11
1.2170472440944882
21
0.8976141732283465
0
LINE
8
BLACK
6
CONTINUOUS
10
1.2170472440944882
20
0.8976141732283465
11
1.2170472440944882
21
0.9172992125984252
0
LINE
8
BLACK
6
CONTINUOUS
10
1.2170472440944882
20
0.9172992125984252
11
1.2177215354330708
21
0.9206891338582677
0
LINE
8
BLACK
6
CONTINUOUS
10
1.2177215354330708
20
0.9206891338582677
11
1.2196417716535433
21
0.9235629527559055
0
LINE
8
BLACK
6
CONTINUOUS
10
1.2196417716535433
20
0.9235629527559055
11
1.2225155905511811
21
0.9254831889763779
0
LINE
8
BLACK
6
CONTINUOUS
10
1.2225155905511811
20
0.9254831889763779
11
1.2259055118110236
21
0.9261574803149606
0
LINE
8
BLACK
6
CONTINUOUS
10
1.2259055118110236
20
0.9261574803149606
11
1.2436220472440944
21
0.9261574803149606
0
LINE
8
BLACK
6
CONTINUOUS
10
1.2436220472440944
20
0.9261574803149606
11
1.2470119685039369
21
0.9254831889763779
0
LINE
8
BLACK
6
CONTINUOUS
10
1.3080355905511811
20
0.9254831889763779
11
1.310909409448819
21
0.9235629527559055
0
LINE
8
BLACK
6
CONTINUOUS
10
1.310909409448819
20
0.9235629527559055
11
1.3128296456692914
21
0.9206891338582677
0
LINE
8
BLACK
6
CONTINUOUS
10
1.3128296456692914
20
0.9206891338582677
11
1.313503937007874
21
0.9172992125984252
0
LINE
8
BLACK
6
CONTINUOUS
10
1.313503937007874
20
0.9172992125984252
11
1.313503937007874
21
0.8976141732283465
0
LINE
8
BLACK
6
CONTINUOUS
10
1.313503937007874
20
0.8976141732283465
11
1.3128296456692914
21
0.894224251968504
0
LINE
8
BLACK
6
CONTINUOUS
10
1.3128296456692914
20
0.894224251968504
11
1.310909409448819
21
0.8913504330708661
0
LINE
8
BLACK
6
CONTINUOUS
10
1.310909409448819
20
0.8913504330708661
11
1.3080355905511811
21
0.8894301968503937
0
LINE
8
BLACK
6
CONTINUOUS
10
1.3080355905511811
20
0.8894301968503937
11
1.3046456692913386
21
0.8887559055118111
0
LINE
8
BLACK
6
CONTINUOUS
10
1.3046456692913386
20
0.8887559055118111
11
1.2869291338582678
21
0.8887559055118111
0
LINE
8
BLACK
6
CONTINUOUS
10
1.2869291338582678
20
0.8887559055118111
11
1.2835392125984251
21
0.8894301968503937
0
LINE
8
BLACK
6
CONTINUOUS
10
1.2835392125984251
20
0.8894301968503937
11
1.2806653937007875
21
0.8913504330708661
0
LINE
8
BLACK
6
CONTINUOUS
10
1.2806653937007875
20
0.8913504330708661
11
1.278745157480315
21
0.894224251968504
0
LINE
8
BLACK
6
CONTINUOUS
10
1.278745157480315
20
0.894224251968504
11
1.2780708661417322
21
0.8976141732283465
0
LINE
8
BLACK
6
CONTINUOUS
10
1.2780708661417322
20
0.8976141732283465
11
1.2780708661417322
21
0.9172992125984252
0
LINE
8
BLACK
6
CONTINUOUS
10
1.2780708661417322
20
0.9172992125984252
11
1.278745157480315
21
0.9206891338582677
0
LINE
8
BLACK
6
CONTINUOUS
10
1.278745157480315
20
0.9206891338582677
11
1.2806653937007875
21
0.9235629527559055
0
LINE
8
BLACK
6
CONTINUOUS
10
1.2806653937007875
20
0.9235629527559055
11
1.2835392125984251
21
0.9254831889763779
0
LINE
8
BLACK
6
CONTINUOUS
10
1.2835392125984251
20
0.9254831889763779
11
1.2869291338582678
21
0.9261574803149606
0
LINE
8
BLACK
6
CONTINUOUS
10
1.2869291338582678
20
0.9261574803149606
11
1.3046456692913386
21
0.9261574803149606
0
LINE
8
BLACK
6
CONTINUOUS
10
1.3046456692913386
20
0.9261574803149606
11
1.3080355905511811
21
0.9254831889763779
0
LINE
8
BLACK
6
CONTINUOUS
10
2.5073886220472441
20
0.9448413385826772
11
2.5105817716535435
21
0.9427077559055118
0
LINE
8
BLACK
6
CONTINUOUS
10
2.5105817716535435
20
0.9427077559055118
11
2.5127153543307088
21
0.9395146062992126
0
LINE
8
BLACK
6
CONTINUOUS
10
2.5127153543307088
20
0.9395146062992126
11
2.5134645669291338
21
0.935748031496063
0
LINE
8
BLACK
6
CONTINUOUS
10
2.5134645669291338
20
0.935748031496063
11
2.5134645669291338
21
0.904251968503937
0
LINE
8
BLACK
6
CONTINUOUS
10
2.5134645669291338
20
0.904251968503937
11
2.5127153543307088
21
0.9004853937007874
0
LINE
8
BLACK
6
CONTINUOUS
10
2.5127153543307088
20
0.9004853937007874
11
2.5105817716535435
21
0.8972922440944882
0
LINE
8
BLACK
6
CONTINUOUS
10
2.5105817716535435
20
0.8972922440944882
11
2.5073886220472441
21
0.8951586614173228
0
LINE
8
BLACK
6
CONTINUOUS
10
2.5073886220472441
20
0.8951586614173228
11
2.5036220472440944
21
0.8944094488188976
0
LINE
8
BLACK
6
CONTINUOUS
10
2.5036220472440944
20
0.8944094488188976
11
2.4563779527559055
21
0.8944094488188976
0
LINE
8
BLACK
6
CONTINUOUS
10
2.4563779527559055
20
0.8944094488188976
11
2.4526113779527559
21
0.8951586614173228
0
LINE
8
BLACK
6
CONTINUOUS
10
2.4526113779527559
20
0.8951586614173228
11
2.4494182283464565
21
0.8972922440944882
0
LINE
8
BLACK
6
CONTINUOUS
10
2.4494182283464565
20
0.8972922440944882
11
2.4472846456692912
21
0.9004853937007874
0
LINE
8
BLACK
6
CONTINUOUS
10
2.4472846456692912
20
0.9004853937007874
11
2.4465354330708662
21
0.904251968503937
0
LINE
8
BLACK
6
CONTINUOUS
10
2.4465354330708662
20
0.904251968503937
11
2.4465354330708662
21
0.935748031496063
0
LINE
8
BLACK
6
CONTINUOUS
10
2.4465354330708662
20
0.935748031496063
11
2.4472846456692912
21
0.9395146062992126
0
LINE
8
BLACK
6
CONTINUOUS
10
2.4472846456692912
20
0.9395146062992126
11
2.4494182283464565
21
0.9427077559055118
0
LINE
8
BLACK
6
CONTINUOUS
10
2.4494182283464565
20
0.9427077559055118
11
2.4526113779527559
21
0.9448413385826772
0
LINE
8
BLACK
6
CONTINUOUS
10
2.4526113779527559
20
0.9448413385826772
11
2.4563779527559055
21
0.9455905511811024
0
LINE
8
BLACK
6
CONTINUOUS
10
2.4563779527559055
20
0.9455905511811024
11
2.5036220472440944
21
0.9455905511811024
0
LINE
8
BLACK
6
CONTINUOUS
10
2.5036220472440944
20
0.9455905511811024
11
2.5073886220472441
21
0.9448413385826772
0
LINE
8
BLACK
6
CONTINUOUS
10
1.7566923228346456
20
0.9272574409448818
11
1.7578099212598426
21
0.9265107086614173
0
LINE
8
BLACK
6
CONTINUOUS
10
1.7578099212598426
20
0.9265107086614173
11
1.758556653543307
21
0.9253931102362205
0
LINE
8
BLACK
6
CONTINUOUS
10
1.758556653543307
20
0.9253931102362205
11
1.7588188976377952
21
0.9240748031496063
0
LINE
8
BLACK
6
CONTINUOUS
10
1.7588188976377952
20
0.9240748031496063
11
1.7588188976377952
21
0.9171850393700787
0
LINE
8
BLACK
6
CONTINUOUS
10
1.7588188976377952
20
0.9171850393700787
11
1.758556653543307
21
0.9158667322834645
0
LINE
8
BLACK
6
CONTINUOUS
10
1.758556653543307
20
0.9158667322834645
11
1.7578099212598426
21
0.9147491338582677
0
LINE
8
BLACK
6
CONTINUOUS
10
1.7578099212598426
20
0.9147491338582677
11
1.7566923228346456
21
0.9140024015748032
0
LINE
8
BLACK
6
CONTINUOUS
10
1.7566923228346456
20
0.9140024015748032
11
1.7553740157480315
21
0.9137401574803149
0
LINE
8
BLACK
6
CONTINUOUS
10
1.7553740157480315
20
0.9137401574803149
11
1.6982874015748031
21
0.9137401574803149
0
LINE
8
BLACK
6
CONTINUOUS
10
1.6982874015748031
20
0.9137401574803149
11
1.696969094488189
21
0.9140024015748032
0
LINE
8
BLACK
6
CONTINUOUS
10
1.696969094488189
20
0.9140024015748032
11
1.695851496062992
21
0.9147491338582677
0
LINE
8
BLACK
6
CONTINUOUS
10
1.695851496062992
20
0.9147491338582677
11
1.6951047637795276
21
0.9158667322834645
0
LINE
8
BLACK
6
CONTINUOUS
10
1.6951047637795276
20
0.9158667322834645
11
1.6948425196850394
21
0.9171850393700787
0
LINE
8
BLACK
6
CONTINUOUS
10
1.6948425196850394
20
0.9171850393700787
11
1.6948425196850394
21
0.9240748031496063
0
LINE
8
BLACK
6
CONTINUOUS
10
1.6948425196850394
20
0.9240748031496063
11
1.6951047637795276
21
0.9253931102362205
0
LINE
8
BLACK
6
CONTINUOUS
10
1.6951047637795276
20
0.9253931102362205
11
1.695851496062992
21
0.9265107086614173
0
LINE
8
BLACK
6
CONTINUOUS
10
1.695851496062992
20
0.9265107086614173
11
1.696969094488189
21
0.9272574409448818
0
LINE
8
BLACK
6
CONTINUOUS
10
1.696969094488189
20
0.9272574409448818
11
1.6982874015748031
21
0.9275196850393701
0
LINE
8
BLACK
6
CONTINUOUS
10
1.6982874015748031
20
0.9275196850393701
11
1.7553740157480315
21
0.9275196850393701
0
LINE
8
BLACK
6
CONTINUOUS
10
1.7553740157480315
20
0.9275196850393701
11
1.7566923228346456
21
0.9272574409448818
0
LINE
8
BLACK
6
CONTINUOUS
10
1.9230309055118109
20
0.9272574409448818
11
1.9241485039370079
21
0.9265107086614173
0
LINE
8
BLACK
6
CONTINUOUS
10
1.9241485039370079
20
0.9265107086614173
11
1.9248952362204723
21
0.9253931102362205
0
LINE
8
BLACK
6
CONTINUOUS
10
1.9248952362204723
20
0.9253931102362205
11
1.9251574803149605
21
0.9240748031496063
0
LINE
8
BLACK
6
CONTINUOUS
10
1.9251574803149605
20
0.9240748031496063
11
1.9251574803149605
21
0.9171850393700787
0
LINE
8
BLACK
6
CONTINUOUS
10
1.9251574803149605
20
0.9171850393700787
11
1.9248952362204723
21
0.9158667322834645
0
LINE
8
BLACK
6
CONTINUOUS
10
1.9248952362204723
20
0.9158667322834645
11
1.9241485039370079
21
0.9147491338582677
0
LINE
8
BLACK
6
CONTINUOUS
10
1.9241485039370079
20
0.9147491338582677
11
1.9230309055118109
21
0.9140024015748032
0
LINE
8
BLACK
6
CONTINUOUS
10
1.9230309055118109
20
0.9140024015748032
11
1.9217125984251968
21
0.9137401574803149
0
LINE
8
BLACK
6
CONTINUOUS
10
1.9217125984251968
20
0.9137401574803149
11
1.8646259842519686
21
0.9137401574803149
0
LINE
8
BLACK
6
CONTINUOUS
10
1.8646259842519686
20
0.9137401574803149
11
1.8633076771653543
21
0.9140024015748032
0
LINE
8
BLACK
6
CONTINUOUS
10
1.8633076771653543
20
0.9140024015748032
11
1.8621900787401575
21
0.9147491338582677
0
LINE
8
BLACK
6
CONTINUOUS
10
1.8621900787401575
20
0.9147491338582677
11
1.8614433464566928
21
0.9158667322834645
0
LINE
8
BLACK
6
CONTINUOUS
10
1.8614433464566928
20
0.9158667322834645
11
1.8611811023622047
21
0.9171850393700787
0
LINE
8
BLACK
6
CONTINUOUS
10
1.8611811023622047
20
0.9171850393700787
11
1.8611811023622047
21
0.9240748031496063
0
LINE
8
BLACK
6
CONTINUOUS
10
1.8611811023622047
20
0.9240748031496063
11
1.8614433464566928
21
0.9253931102362205
0
LINE
8
BLACK
6
CONTINUOUS
10
1.8614433464566928
20
0.9253931102362205
11
1.8621900787401575
21
0.9265107086614173
0
LINE
8
BLACK
6
CONTINUOUS
10
1.8621900787401575
20
0.9265107086614173
11
1.8633076771653543
21
0.9272574409448818
0
LINE
8
BLACK
6
CONTINUOUS
10
1.8633076771653543
20
0.9272574409448818
11
1.8646259842519686
21
0.9275196850393701
0
LINE
8
BLACK
6
CONTINUOUS
10
1.8646259842519686
20
0.9275196850393701
11
1.9217125984251968
21
0.9275196850393701
0
LINE
8
BLACK
6
CONTINUOUS
10
1.9217125984251968
20
0.9275196850393701
11
1.9230309055118109
21
0.9272574409448818
0
LINE
8
BLACK
6
CONTINUOUS
10
1.7566923228346456
20
0.9469425196850394
11
1.7578099212598426
21
0.9461957874015747
0
LINE
8
BLACK
6
CONTINUOUS
10
1.7578099212598426
20
0.9461957874015747
11
1.758556653543307
21
0.945078188976378
0
LINE
8
BLACK
6
CONTINUOUS
10
1.758556653543307
20
0.945078188976378
11
1.7588188976377952
21
0.9437598818897638
0
LINE
8
BLACK
6
CONTINUOUS
10
1.7588188976377952
20
0.9437598818897638
11
1.7588188976377952
21
0.9368701181102362
0
LINE
8
BLACK
6
CONTINUOUS
10
1.7588188976377952
20
0.9368701181102362
11
1.758556653543307
21
0.9355518110236221
0
LINE
8
BLACK
6
CONTINUOUS
10
1.758556653543307
20
0.9355518110236221
11
1.7578099212598426
21
0.9344342125984252
0
LINE
8
BLACK
6
CONTINUOUS
10
1.7578099212598426
20
0.9344342125984252
11
1.7566923228346456
21
0.9336874803149606
0
LINE
8
BLACK
6
CONTINUOUS
10
1.7566923228346456
20
0.9336874803149606
11
1.7553740157480315
21
0.9334252362204725
0
LINE
8
BLACK
6
CONTINUOUS
10
1.7553740157480315
20
0.9334252362204725
11
1.6982874015748031
21
0.9334252362204725
0
LINE
8
BLACK
6
CONTINUOUS
10
1.6982874015748031
20
0.9334252362204725
11
1.696969094488189
21
0.9336874803149606
0
LINE
8
BLACK
6
CONTINUOUS
10
1.696969094488189
20
0.9336874803149606
11
1.695851496062992
21
0.9344342125984252
0
LINE
8
BLACK
6
CONTINUOUS
10
1.695851496062992
20
0.9344342125984252
11
1.6951047637795276
21
0.9355518110236221
0
LINE
8
BLACK
6
CONTINUOUS
10
1.6951047637795276
20
0.9355518110236221
11
1.6948425196850394
21
0.9368701181102362
0
LINE
8
BLACK
6
CONTINUOUS
10
1.6948425196850394
20
0.9368701181102362
11
1.6948425196850394
21
0.9437598818897638
0
LINE
8
BLACK
6
CONTINUOUS
10
1.6948425196850394
20
0.9437598818897638
11
1.6951047637795276
21
0.945078188976378
0
LINE
8
BLACK
6
CONTINUOUS
10
1.6951047637795276
20
0.945078188976378
11
1.695851496062992
21
0.9461957874015747
0
LINE
8
BLACK
6
CONTINUOUS
10
1.695851496062992
20
0.9461957874015747
11
1.696969094488189
21
0.9469425196850394
0
LINE
8
BLACK
6
CONTINUOUS
10
1.696969094488189
20
0.9469425196850394
11
1.6982874015748031
21
0.9472047637795276
0
LINE
8
BLACK
6
CONTINUOUS
10
1.6982874015748031
20
0.9472047637795276
11
1.7553740157480315
21
0.9472047637795276
0
LINE
8
BLACK
6
CONTINUOUS
10
1.7553740157480315
20
0.9472047637795276
11
1.7566923228346456
21
0.9469425196850394
0
LINE
8
BLACK
6
CONTINUOUS
10
1.9230309055118109
20
0.9469425196850394
11
1.9241485039370079
21
0.9461957874015747
0
LINE
8
BLACK
6
CONTINUOUS
10
1.9241485039370079
20
0.9461957874015747
11
1.9248952362204723
21
0.945078188976378
0
LINE
8
BLACK
6
CONTINUOUS
10
1.9248952362204723
20
0.945078188976378
11
1.9251574803149605
21
0.9437598818897638
0
LINE
8
BLACK
6
CONTINUOUS
10
1.9251574803149605
20
0.9437598818897638
11
1.9251574803149605
21
0.9368701181102362
0
LINE
8
BLACK
6
CONTINUOUS
10
1.9251574803149605
20
0.9368701181102362
11
1.9248952362204723
21
0.9355518110236221
0
LINE
8
BLACK
6
CONTINUOUS
10
1.9248952362204723
20
0.9355518110236221
11
1.9241485039370079
21
0.9344342125984252
0
LINE
8
BLACK
6
CONTINUOUS
10
1.9241485039370079
20
0.9344342125984252
11
1.9230309055118109
21
0.9336874803149606
0
LINE
8
BLACK
6
CONTINUOUS
10
1.9230309055118109
20
0.9336874803149606
11
1.9217125984251968
21
0.9334252362204725
0
LINE
8
BLACK
6
CONTINUOUS
10
1.9217125984251968
20
0.9334252362204725
11
1.8646259842519686
21
0.9334252362204725
0
LINE
8
BLACK
6
CONTINUOUS
10
1.8646259842519686
20
0.9334252362204725
11
1.8633076771653543
21
0.9336874803149606
0
LINE
8
BLACK
6
CONTINUOUS
10
1.8633076771653543
20
0.9336874803149606
11
1.8621900787401575
21
0.9344342125984252
0
LINE
8
BLACK
6
CONTINUOUS
10
1.8621900787401575
20
0.9344342125984252
11
1.8614433464566928
21
0.9355518110236221
0
LINE
8
BLACK
6
CONTINUOUS
10
1.8614433464566928
20
0.9355518110236221
11
1.8611811023622047
21
0.9368701181102362
0
LINE
8
BLACK
6
CONTINUOUS
10
1.8611811023622047
20
0.9368701181102362
11
1.8611811023622047
21
0.9437598818897638
0
LINE
8
BLACK
6
CONTINUOUS
10
1.8611811023622047
20
0.9437598818897638
11
1.8614433464566928
21
0.945078188976378
0
LINE
8
BLACK
6
CONTINUOUS
10
1.8614433464566928
20
0.945078188976378
11
1.8621900787401575
21
0.9461957874015747
0
LINE
8
BLACK
6
CONTINUOUS
10
1.8621900787401575
20
0.9461957874015747
11
1.8633076771653543
21
0.9469425196850394
0
LINE
8
BLACK
6
CONTINUOUS
10
1.8633076771653543
20
0.9469425196850394
11
1.8646259842519686
21
0.9472047637795276
0
LINE
8
BLACK
6
CONTINUOUS
10
1.8646259842519686
20
0.9472047637795276
11
1.9217125984251968
21
0.9472047637795276
0
LINE
8
BLACK
6
CONTINUOUS
10
1.9217125984251968
20
0.9472047637795276
11
1.9230309055118109
21
0.9469425196850394
0
LINE
8
BLACK
6
CONTINUOUS
10
0.8801339763779528
20
0.9589205511811023
11
0.882049842519685
21
0.9576403937007874
0
LINE
8
BLACK
6
CONTINUOUS
10
0.882049842519685
20
0.9576403937007874
11
0.8833299999999999
21
0.9557245275590551
0
LINE
8
BLACK
6
CONTINUOUS
10
0.8833299999999999
20
0.9557245275590551
11
0.8837795275590551
21
0.9534645669291338
0
LINE
8
BLACK
6
CONTINUOUS
10
0.8837795275590551
20
0.9534645669291338
11
0.8837795275590551
21
0.9416535433070866
0
LINE
8
BLACK
6
CONTINUOUS
10
0.8837795275590551
20
0.9416535433070866
11
0.8833299999999999
21
0.9393935826771653
0
LINE
8
BLACK
6
CONTINUOUS
10
0.8833299999999999
20
0.9393935826771653
11
0.882049842519685
21
0.9374777165354331
0
LINE
8
BLACK
6
CONTINUOUS
10
0.882049842519685
20
0.9374777165354331
11
0.8801339763779528
21
0.936197559055118
0
LINE
8
BLACK
6
CONTINUOUS
10
0.8801339763779528
20
0.936197559055118
11
0.8778740157480315
21
0.935748031496063
0
LINE
8
BLACK
6
CONTINUOUS
10
0.8778740157480315
20
0.935748031496063
11
0.8621259842519685
21
0.935748031496063
0
LINE
8
BLACK
6
CONTINUOUS
10
0.8621259842519685
20
0.935748031496063
11
0.8598660236220472
21
0.936197559055118
0
LINE
8
BLACK
6
CONTINUOUS
10
0.8598660236220472
20
0.936197559055118
11
0.8579501574803149
21
0.9374777165354331
0
LINE
8
BLACK
6
CONTINUOUS
10
0.8579501574803149
20
0.9374777165354331
11
0.8566699999999999
21
0.9393935826771653
0
LINE
8
BLACK
6
CONTINUOUS
10
0.8566699999999999
20
0.9393935826771653
11
0.8562204724409449
21
0.9416535433070866
0
LINE
8
BLACK
6
CONTINUOUS
10
0.8562204724409449
20
0.9416535433070866
11
0.8562204724409449
21
0.9534645669291338
0
LINE
8
BLACK
6
CONTINUOUS
10
0.8562204724409449
20
0.9534645669291338
11
0.8566699999999999
21
0.9557245275590551
0
LINE
8
BLACK
6
CONTINUOUS
10
0.8566699999999999
20
0.9557245275590551
11
0.8579501574803149
21
0.9576403937007874
0
LINE
8
BLACK
6
CONTINUOUS
10
0.8579501574803149
20
0.9576403937007874
11
0.8598660236220472
21
0.9589205511811023
0
LINE
8
BLACK
6
CONTINUOUS
10
0.8598660236220472
20
0.9589205511811023
11
0.8621259842519685
21
0.9593700787401575
0
LINE
8
BLACK
6
CONTINUOUS
10
0.8621259842519685
20
0.9593700787401575
11
0.8778740157480315
21
0.9593700787401575
0
LINE
8
BLACK
6
CONTINUOUS
10
0.8778740157480315
20
0.9593700787401575
11
0.8801339763779528
21
0.9589205511811023
0
LINE
8
BLACK
6
CONTINUOUS
10
1.7566923228346456
20
0.9666275196850393
11
1.7578099212598426
21
0.9658807874015748
0
LINE
8
BLACK
6
CONTINUOUS
10
1.7578099212598426
20
0.9658807874015748
11
1.758556653543307
21
0.9647631889763779
0
LINE
8
BLACK
6
CONTINUOUS
10
1.758556653543307
20
0.9647631889763779
11
1.7588188976377952
21
0.9634448818897637
0
LINE
8
BLACK
6
CONTINUOUS
10
1.7588188976377952
20
0.9634448818897637
11
1.7588188976377952
21
0.9565551181102362
0
LINE
8
BLACK
6
CONTINUOUS
10
1.7588188976377952
20
0.9565551181102362
11
1.758556653543307
21
0.955236811023622
0
LINE
8
BLACK
6
CONTINUOUS
10
1.758556653543307
20
0.955236811023622
11
1.7578099212598426
21
0.9541192125984251
0
LINE
8
BLACK
6
CONTINUOUS
10
1.7578099212598426
20
0.9541192125984251
11
1.7566923228346456
21
0.9533724803149606
0
LINE
8
BLACK
6
CONTINUOUS
10
1.7566923228346456
20
0.9533724803149606
11
1.7553740157480315
21
0.9531102362204724
0
LINE
8
BLACK
6
CONTINUOUS
10
1.7553740157480315
20
0.9531102362204724
11
1.6982874015748031
21
0.9531102362204724
0
LINE
8
BLACK
6
CONTINUOUS
10
1.6982874015748031
20
0.9531102362204724
11
1.696969094488189
21
0.9533724803149606
0
LINE
8
BLACK
6
CONTINUOUS
10
1.696969094488189
20
0.9533724803149606
11
1.695851496062992
21
0.9541192125984251
0
LINE
8
BLACK
6
CONTINUOUS
10
1.695851496062992
20
0.9541192125984251
11
1.6951047637795276
21
0.955236811023622
0
LINE
8
BLACK
6
CONTINUOUS
10
1.6951047637795276
20
0.955236811023622
11
1.6948425196850394
21
0.9565551181102362
0
LINE
8
BLACK
6
CONTINUOUS
10
1.6948425196850394
20
0.9565551181102362
11
1.6948425196850394
21
0.9634448818897637
0
LINE
8
BLACK
6
CONTINUOUS
10
1.6948425196850394
20
0.9634448818897637
11
1.6951047637795276
21
0.9647631889763779
0
LINE
8
BLACK
6
CONTINUOUS
10
1.6951047637795276
20
0.9647631889763779
11
1.695851496062992
21
0.9658807874015748
0
LINE
8
BLACK
6
CONTINUOUS
10
1.695851496062992
20
0.9658807874015748
11
1.696969094488189
21
0.9666275196850393
0
LINE
8
BLACK
6
CONTINUOUS
10
1.696969094488189
20
0.9666275196850393
11
1.6982874015748031
21
0.9668897637795275
0
LINE
8
BLACK
6
CONTINUOUS
10
1.6982874015748031
20
0.9668897637795275
11
1.7553740157480315
21
0.9668897637795275
0
LINE
8
BLACK
6
CONTINUOUS
10
1.7553740157480315
20
0.9668897637795275
11
1.7566923228346456
21
0.9666275196850393
0
LINE
8
BLACK
6
CONTINUOUS
10
1.9230309055118109
20
0.9666275196850393
11
1.9241485039370079
21
0.9658807874015748
0
LINE
8
BLACK
6
CONTINUOUS
10
1.9241485039370079
20
0.9658807874015748
11
1.9248952362204723
21
0.9647631889763779
0
LINE
8
BLACK
6
CONTINUOUS
10
1.9248952362204723
20
0.9647631889763779
11
1.9251574803149605
21
0.9634448818897637
0
LINE
8
BLACK
6
CONTINUOUS
10
1.9251574803149605
20
0.9634448818897637
11
1.9251574803149605
21
0.9565551181102362
0
LINE
8
BLACK
6
CONTINUOUS
10
1.9251574803149605
20
0.9565551181102362
11
1.9248952362204723
21
0.955236811023622
0
LINE
8
BLACK
6
CONTINUOUS
10
1.9248952362204723
20
0.955236811023622
11
1.9241485039370079
21
0.9541192125984251
0
LINE
8
BLACK
6
CONTINUOUS
10
1.9241485039370079
20
0.9541192125984251
11
1.9230309055118109
21
0.9533724803149606
0
LINE
8
BLACK
6
CONTINUOUS
10
1.9230309055118109
20
0.9533724803149606
11
1.9217125984251968
21
0.9531102362204724
0
LINE
8
BLACK
6
CONTINUOUS
10
1.9217125984251968
20
0.9531102362204724
11
1.8646259842519686
21
0.9531102362204724
0
LINE
8
BLACK
6
CONTINUOUS
10
1.8646259842519686
20
0.9531102362204724
11
1.8633076771653543
21
0.9533724803149606
0
LINE
8
BLACK
6
CONTINUOUS
10
1.8633076771653543
20
0.9533724803149606
11
1.8621900787401575
21
0.9541192125984251
0
LINE
8
BLACK
6
CONTINUOUS
10
1.8621900787401575
20
0.9541192125984251
11
1.8614433464566928
21
0.955236811023622
0
LINE
8
BLACK
6
CONTINUOUS
10
1.8614433464566928
20
0.955236811023622
11
1.8611811023622047
21
0.9565551181102362
0
LINE
8
BLACK
6
CONTINUOUS
10
1.8611811023622047
20
0.9565551181102362
11
1.8611811023622047
21
0.9634448818897637
0
LINE
8
BLACK
6
CONTINUOUS
10
1.8611811023622047
20
0.9634448818897637
11
1.8614433464566928
21
0.9647631889763779
0
LINE
8
BLACK
6
CONTINUOUS
10
1.8614433464566928
20
0.9647631889763779
11
1.8621900787401575
21
0.9658807874015748
0
LINE
8
BLACK
6
CONTINUOUS
10
1.8621900787401575
20
0.9658807874015748
11
1.8633076771653543
21
0.9666275196850393
0
LINE
8
BLACK
6
CONTINUOUS
10
1.8633076771653543
20
0.9666275196850393
11
1.8646259842519686
21
0.9668897637795275
0
LINE
8
BLACK
6
CONTINUOUS
10
1.8646259842519686
20
0.9668897637795275
11
1.9217125984251968
21
0.9668897637795275
0
LINE
8
BLACK
6
CONTINUOUS
10
1.9217125984251968
20
0.9668897637795275
11
1.9230309055118109
21
0.9666275196850393
0
LINE
8
BLACK
6
CONTINUOUS
10
1.443861062992126
20
1.0132429133858267
11
1.4470542125984251
21
1.0111093307086614
0
LINE
8
BLACK
6
CONTINUOUS
10
1.4470542125984251
20
1.0111093307086614
11
1.4491877952755905
21
1.0079161811023623
0
LINE
8
BLACK
6
CONTINUOUS
10
1.4491877952755905
20
1.0079161811023623
11
1.4499370078740157
21
1.0041496062992126
0
LINE
8
BLACK
6
CONTINUOUS
10
1.4499370078740157
20
1.0041496062992126
11
1.4499370078740157
21
0.9667480314960629
0
LINE
8
BLACK
6
CONTINUOUS
10
1.4499370078740157
20
0.9667480314960629
11
1.4491877952755905
21
0.9629814566929134
0
LINE
8
BLACK
6
CONTINUOUS
10
1.4491877952755905
20
0.9629814566929134
11
1.4470542125984251
21
0.9597883070866141
0
LINE
8
BLACK
6
CONTINUOUS
10
1.4470542125984251
20
0.9597883070866141
11
1.443861062992126
21
0.9576547244094488
0
LINE
8
BLACK
6
CONTINUOUS
10
1.443861062992126
20
0.9576547244094488
11
1.4400944881889763
21
0.9569055118110236
0
LINE
8
BLACK
6
CONTINUOUS
10
1.4400944881889763
20
0.9569055118110236
11
1.4204094488188976
21
0.9569055118110236
0
LINE
8
BLACK
6
CONTINUOUS
10
1.4204094488188976
20
0.9569055118110236
11
1.416642874015748
21
0.9576547244094488
0
LINE
8
BLACK
6
CONTINUOUS
10
1.416642874015748
20
0.9576547244094488
11
1.4134497244094488
21
0.9597883070866141
0
LINE
8
BLACK
6
CONTINUOUS
10
1.4134497244094488
20
0.9597883070866141
11
1.4113161417322835
21
0.9629814566929134
0
LINE
8
BLACK
6
CONTINUOUS
10
1.4113161417322835
20
0.9629814566929134
11
1.4105669291338583
21
0.9667480314960629
0
LINE
8
BLACK
6
CONTINUOUS
10
1.4105669291338583
20
0.9667480314960629
11
1.4105669291338583
21
1.0041496062992126
0
LINE
8
BLACK
6
CONTINUOUS
10
1.4105669291338583
20
1.0041496062992126
11
1.4113161417322835
21
1.0079161811023623
0
LINE
8
BLACK
6
CONTINUOUS
10
1.4113161417322835
20
1.0079161811023623
11
1.4134497244094488
21
1.0111093307086614
0
LINE
8
BLACK
6
CONTINUOUS
10
1.4134497244094488
20
1.0111093307086614
11
1.416642874015748
21
1.0132429133858267
0
LINE
8
BLACK
6
CONTINUOUS
10
1.416642874015748
20
1.0132429133858267
11
1.4204094488188976
21
1.0139921259842519
0
LINE
8
BLACK
6
CONTINUOUS
10
1.4204094488188976
20
1.0139921259842519
11
1.4400944881889763
21
1.0139921259842519
0
LINE
8
BLACK
6
CONTINUOUS
10
1.4400944881889763
20
1.0139921259842519
11
1.443861062992126
21
1.0132429133858267
0
LINE
8
BLACK
6
CONTINUOUS
10
1.5186642125984251
20
1.0132429133858267
11
1.5218573622047245
21
1.0111093307086614
0
LINE
8
BLACK
6
CONTINUOUS
10
1.5218573622047245
20
1.0111093307086614
11
1.5239909448818898
21
1.0079161811023623
0
LINE
8
BLACK
6
CONTINUOUS
10
1.5239909448818898
20
1.0079161811023623
11
1.524740157480315
21
1.0041496062992126
0
LINE
8
BLACK
6
CONTINUOUS
10
1.524740157480315
20
1.0041496062992126
11
1.524740157480315
21
0.9667480314960629
0
LINE
8
BLACK
6
CONTINUOUS
10
1.524740157480315
20
0.9667480314960629
11
1.5239909448818898
21
0.9629814566929134
0
LINE
8
BLACK
6
CONTINUOUS
10
1.5239909448818898
20
0.9629814566929134
11
1.5218573622047245
21
0.9597883070866141
0
LINE
8
BLACK
6
CONTINUOUS
10
1.5218573622047245
20
0.9597883070866141
11
1.5186642125984251
21
0.9576547244094488
0
LINE
8
BLACK
6
CONTINUOUS
10
1.5186642125984251
20
0.9576547244094488
11
1.5148976377952756
21
0.9569055118110236
0
LINE
8
BLACK
6
CONTINUOUS
10
1.5148976377952756
20
0.9569055118110236
11
1.4952125984251967
21
0.9569055118110236
0
LINE
8
BLACK
6
CONTINUOUS
10
1.4952125984251967
20
0.9569055118110236
11
1.4914460236220473
21
0.9576547244094488
0
LINE
8
BLACK
6
CONTINUOUS
10
1.4914460236220473
20
0.9576547244094488
11
1.4882528740157479
21
0.9597883070866141
0
LINE
8
BLACK
6
CONTINUOUS
10
1.4882528740157479
20
0.9597883070866141
11
1.4861192913385826
21
0.9629814566929134
0
LINE
8
BLACK
6
CONTINUOUS
10
1.4861192913385826
20
0.9629814566929134
11
1.4853700787401574
21
0.9667480314960629
0
LINE
8
BLACK
6
CONTINUOUS
10
1.4853700787401574
20
0.9667480314960629
11
1.4853700787401574
21
1.0041496062992126
0
LINE
8
BLACK
6
CONTINUOUS
10
1.4853700787401574
20
1.0041496062992126
11
1.4861192913385826
21
1.0079161811023623
0
LINE
8
BLACK
6
CONTINUOUS
10
1.4861192913385826
20
1.0079161811023623
11
1.4882528740157479
21
1.0111093307086614
0
LINE
8
BLACK
6
CONTINUOUS
10
1.4882528740157479
20
1.0111093307086614
11
1.4914460236220473
21
1.0132429133858267
0
LINE
8
BLACK
6
CONTINUOUS
10
1.4914460236220473
20
1.0132429133858267
11
1.4952125984251967
21
1.0139921259842519
0
LINE
8
BLACK
6
CONTINUOUS
10
1.4952125984251967
20
1.0139921259842519
11
1.5148976377952756
21
1.0139921259842519
0
LINE
8
BLACK
6
CONTINUOUS
10
1.5148976377952756
20
1.0139921259842519
11
1.5186642125984251
21
1.0132429133858267
0
LINE
8
BLACK
6
CONTINUOUS
10
1.7566923228346456
20
0.9863125196850393
11
1.7578099212598426
21
0.9855657874015747
0
LINE
8
BLACK
6
CONTINUOUS
10
1.7578099212598426
20
0.9855657874015747
11
1.758556653543307
21
0.984448188976378
0
LINE
8
BLACK
6
CONTINUOUS
10
1.758556653543307
20
0.984448188976378
11
1.7588188976377952
21
0.9831298818897638
0
LINE
8
BLACK
6
CONTINUOUS
10
1.7588188976377952
20
0.9831298818897638
11
1.7588188976377952
21
0.9762401181102361
0
LINE
8
BLACK
6
CONTINUOUS
10
1.7588188976377952
20
0.9762401181102361
11
1.758556653543307
21
0.9749218110236221
0
LINE
8
BLACK
6
CONTINUOUS
10
1.758556653543307
20
0.9749218110236221
11
1.7578099212598426
21
0.9738042125984252
0
LINE
8
BLACK
6
CONTINUOUS
10
1.7578099212598426
20
0.9738042125984252
11
1.7566923228346456
21
0.9730574803149606
0
LINE
8
BLACK
6
CONTINUOUS
10
1.7566923228346456
20
0.9730574803149606
11
1.7553740157480315
21
0.9727952362204724
0
LINE
8
BLACK
6
CONTINUOUS
10
1.7553740157480315
20
0.9727952362204724
11
1.6982874015748031
21
0.9727952362204724
0
LINE
8
BLACK
6
CONTINUOUS
10
1.6982874015748031
20
0.9727952362204724
11
1.696969094488189
21
0.9730574803149606
0
LINE
8
BLACK
6
CONTINUOUS
10
1.696969094488189
20
0.9730574803149606
11
1.695851496062992
21
0.9738042125984252
0
LINE
8
BLACK
6
CONTINUOUS
10
1.695851496062992
20
0.9738042125984252
11
1.6951047637795276
21
0.9749218110236221
0
LINE
8
BLACK
6
CONTINUOUS
10
1.6951047637795276
20
0.9749218110236221
11
1.6948425196850394
21
0.9762401181102361
0
LINE
8
BLACK
6
CONTINUOUS
10
1.6948425196850394
20
0.9762401181102361
11
1.6948425196850394
21
0.9831298818897638
0
LINE
8
BLACK
6
CONTINUOUS
10
1.6948425196850394
20
0.9831298818897638
11
1.6951047637795276
21
0.984448188976378
0
LINE
8
BLACK
6
CONTINUOUS
10
1.6951047637795276
20
0.984448188976378
11
1.695851496062992
21
0.9855657874015747
0
LINE
8
BLACK
6
CONTINUOUS
10
1.695851496062992
20
0.9855657874015747
11
1.696969094488189
21
0.9863125196850393
0
LINE
8
BLACK
6
CONTINUOUS
10
1.696969094488189
20
0.9863125196850393
11
1.6982874015748031
21
0.9865747637795276
0
LINE
8
BLACK
6
CONTINUOUS
10
1.6982874015748031
20
0.9865747637795276
11
1.7553740157480315
21
0.9865747637795276
0
LINE
8
BLACK
6
CONTINUOUS
10
1.7553740157480315
20
0.9865747637795276
11
1.7566923228346456
21
0.9863125196850393
0
LINE
8
BLACK
6
CONTINUOUS
10
1.9230309055118109
20
0.9863125196850393
11
1.9241485039370079
21
0.9855657874015747
0
LINE
8
BLACK
6
CONTINUOUS
10
1.9241485039370079
20
0.9855657874015747
11
1.9248952362204723
21
0.984448188976378
0
LINE
8
BLACK
6
CONTINUOUS
10
1.9248952362204723
20
0.984448188976378
11
1.9251574803149605
21
0.9831298818897638
0
LINE
8
BLACK
6
CONTINUOUS
10
1.9251574803149605
20
0.9831298818897638
11
1.9251574803149605
21
0.9762401181102361
0
LINE
8
BLACK
6
CONTINUOUS
10
1.9251574803149605
20
0.9762401181102361
11
1.9248952362204723
21
0.9749218110236221
0
LINE
8
BLACK
6
CONTINUOUS
10
1.9248952362204723
20
0.9749218110236221
11
1.9241485039370079
21
0.9738042125984252
0
LINE
8
BLACK
6
CONTINUOUS
10
1.9241485039370079
20
0.9738042125984252
11
1.9230309055118109
21
0.9730574803149606
0
LINE
8
BLACK
6
CONTINUOUS
10
1.9230309055118109
20
0.9730574803149606
11
1.9217125984251968
21
0.9727952362204724
0
LINE
8
BLACK
6
CONTINUOUS
10
1.9217125984251968
20
0.9727952362204724
11
1.8646259842519686
21
0.9727952362204724
0
LINE
8
BLACK
6
CONTINUOUS
10
1.8646259842519686
20
0.9727952362204724
11
1.8633076771653543
21
0.9730574803149606
0
LINE
8
BLACK
6
CONTINUOUS
10
1.8633076771653543
20
0.9730574803149606
11
1.8621900787401575
21
0.9738042125984252
0
LINE
8
BLACK
6
CONTINUOUS
10
1.8621900787401575
20
0.9738042125984252
11
1.8614433464566928
21
0.9749218110236221
0
LINE
8
BLACK
6
CONTINUOUS
10
1.8614433464566928
20
0.9749218110236221
11
1.8611811023622047
21
0.9762401181102361
0
LINE
8
BLACK
6
CONTINUOUS
10
1.8611811023622047
20
0.9762401181102361
11
1.8611811023622047
21
0.9831298818897638
0
LINE
8
BLACK
6
CONTINUOUS
10
1.8611811023622047
20
0.9831298818897638
11
1.8614433464566928
21
0.984448188976378
0
LINE
8
BLACK
6
CONTINUOUS
10
1.8614433464566928
20
0.984448188976378
11
1.8621900787401575
21
0.9855657874015747
0
LINE
8
BLACK
6
CONTINUOUS
10
1.8621900787401575
20
0.9855657874015747
11
1.8633076771653543
21
0.9863125196850393
0
LINE
8
BLACK
6
CONTINUOUS
10
1.8633076771653543
20
0.9863125196850393
11
1.8646259842519686
21
0.9865747637795276
0
LINE
8
BLACK
6
CONTINUOUS
10
1.8646259842519686
20
0.9865747637795276
11
1.9217125984251968
21
0.9865747637795276
0
LINE
8
BLACK
6
CONTINUOUS
10
1.9217125984251968
20
0.9865747637795276
11
1.9230309055118109
21
0.9863125196850393
0
LINE
8
BLACK
6
CONTINUOUS
10
0.5617363779527559
20
1.0180264960629921
11
0.5646101968503937
21
1.0161062598425197
0
LINE
8
BLACK
6
CONTINUOUS
10
0.5646101968503937
20
1.0161062598425197
11
0.5665304330708661
21
1.0132324409448819
0
LINE
8
BLACK
6
CONTINUOUS
10
0.5665304330708661
20
1.0132324409448819
11
0.5672047244094488
21
1.0098425196850394
0
LINE
8
BLACK
6
CONTINUOUS
10
0.5672047244094488
20
1.0098425196850394
11
0.5672047244094488
21
0.9901574803149606
0
LINE
8
BLACK
6
CONTINUOUS
10
0.5672047244094488
20
0.9901574803149606
11
0.5665304330708661
21
0.986767559055118
0
LINE
8
BLACK
6
CONTINUOUS
10
0.5665304330708661
20
0.986767559055118
11
0.5646101968503937
21
0.9838937401574803
0
LINE
8
BLACK
6
CONTINUOUS
10
0.5646101968503937
20
0.9838937401574803
11
0.5617363779527559
21
0.9819735039370079
0
LINE
8
BLACK
6
CONTINUOUS
10
0.5617363779527559
20
0.9819735039370079
11
0.5583464566929134
21
0.9812992125984251
0
LINE
8
BLACK
6
CONTINUOUS
10
0.5583464566929134
20
0.9812992125984251
11
0.5406299212598425
21
0.9812992125984251
0
LINE
8
BLACK
6
CONTINUOUS
10
0.5406299212598425
20
0.9812992125984251
11
0.5372399999999999
21
0.9819735039370079
0
LINE
8
BLACK
6
CONTINUOUS
10
0.5372399999999999
20
0.9819735039370079
11
0.5343661811023622
21
0.9838937401574803
0
LINE
8
BLACK
6
CONTINUOUS
10
0.5343661811023622
20
0.9838937401574803
11
0.5324459448818898
21
0.986767559055118
0
LINE
8
BLACK
6
CONTINUOUS
10
0.5324459448818898
20
0.986767559055118
11
0.531771653543307
21
0.9901574803149606
0
LINE
8
BLACK
6
CONTINUOUS
10
0.531771653543307
20
0.9901574803149606
11
0.531771653543307
21
1.0098425196850394
0
LINE
8
BLACK
6
CONTINUOUS
10
0.531771653543307
20
1.0098425196850394
11
0.5324459448818898
21
1.0132324409448819
0
LINE
8
BLACK
6
CONTINUOUS
10
0.5324459448818898
20
1.0132324409448819
11
0.5343661811023622
21
1.0161062598425197
0
LINE
8
BLACK
6
CONTINUOUS
10
0.5343661811023622
20
1.0161062598425197
11
0.5372399999999999
21
1.0180264960629921
0
LINE
8
BLACK
6
CONTINUOUS
10
0.5372399999999999
20
1.0180264960629921
11
0.5406299212598425
21
1.0187007874015748
0
LINE
8
BLACK
6
CONTINUOUS
10
0.5406299212598425
20
1.0187007874015748
11
0.5583464566929134
21
1.0187007874015748
0
LINE
8
BLACK
6
CONTINUOUS
10
0.5583464566929134
20
1.0187007874015748
11
0.5617363779527559
21
1.0180264960629921
0
LINE
8
BLACK
6
CONTINUOUS
10
0.62276
20
1.0180264960629921
11
0.6256338188976378
21
1.0161062598425197
0
LINE
8
BLACK
6
CONTINUOUS
10
0.6256338188976378
20
1.0161062598425197
11
0.6275540551181102
21
1.0132324409448819
0
LINE
8
BLACK
6
CONTINUOUS
10
0.6275540551181102
20
1.0132324409448819
11
0.6282283464566929
21
1.0098425196850394
0
LINE
8
BLACK
6
CONTINUOUS
10
0.6282283464566929
20
1.0098425196850394
11
0.6282283464566929
21
0.9901574803149606
0
LINE
8
BLACK
6
CONTINUOUS
10
0.6282283464566929
20
0.9901574803149606
11
0.6275540551181102
21
0.986767559055118
0
LINE
8
BLACK
6
CONTINUOUS
10
0.6275540551181102
20
0.986767559055118
11
0.6256338188976378
21
0.9838937401574803
0
LINE
8
BLACK
6
CONTINUOUS
10
0.6256338188976378
20
0.9838937401574803
11
0.62276
21
0.9819735039370079
0
LINE
8
BLACK
6
CONTINUOUS
10
0.62276
20
0.9819735039370079
11
0.6193700787401575
21
0.9812992125984251
0
LINE
8
BLACK
6
CONTINUOUS
10
0.6193700787401575
20
0.9812992125984251
11
0.6016535433070866
21
0.9812992125984251
0
LINE
8
BLACK
6
CONTINUOUS
10
0.6016535433070866
20
0.9812992125984251
11
0.598263622047244
21
0.9819735039370079
0
LINE
8
BLACK
6
CONTINUOUS
10
0.598263622047244
20
0.9819735039370079
11
0.5953898031496063
21
0.9838937401574803
0
LINE
8
BLACK
6
CONTINUOUS
10
0.5953898031496063
20
0.9838937401574803
11
0.5934695669291339
21
0.986767559055118
0
LINE
8
BLACK
6
CONTINUOUS
10
0.5934695669291339
20
0.986767559055118
11
0.5927952755905511
21
0.9901574803149606
0
LINE
8
BLACK
6
CONTINUOUS
10
0.5927952755905511
20
0.9901574803149606
11
0.5927952755905511
21
1.0098425196850394
0
LINE
8
BLACK
6
CONTINUOUS
10
0.5927952755905511
20
1.0098425196850394
11
0.5934695669291339
21
1.0132324409448819
0
LINE
8
BLACK
6
CONTINUOUS
10
0.5934695669291339
20
1.0132324409448819
11
0.5953898031496063
21
1.0161062598425197
0
LINE
8
BLACK
6
CONTINUOUS
10
0.5953898031496063
20
1.0161062598425197
11
0.598263622047244
21
1.0180264960629921
0
LINE
8
BLACK
6
CONTINUOUS
10
0.598263622047244
20
1.0180264960629921
11
0.6016535433070866
21
1.0187007874015748
0
LINE
8
BLACK
6
CONTINUOUS
10
0.6016535433070866
20
1.0187007874015748
11
0.6193700787401575
21
1.0187007874015748
0
LINE
8
BLACK
6
CONTINUOUS
10
0.6193700787401575
20
1.0187007874015748
11
0.62276
21
1.0180264960629921
0
LINE
8
BLACK
6
CONTINUOUS
10
1.2470119685039369
20
1.0243020866141732
11
1.2498857874015747
21
1.0223818503937008
0
LINE
8
BLACK
6
CONTINUOUS
10
1.2498857874015747
20
1.0223818503937008
11
1.2518060236220472
21
1.0195080314960629
0
LINE
8
BLACK
6
CONTINUOUS
10
1.2518060236220472
20
1.0195080314960629
11
1.2524803149606298
21
1.0161181102362205
0
LINE
8
BLACK
6
CONTINUOUS
10
1.2524803149606298
20
1.0161181102362205
11
1.2524803149606298
21
0.9964330708661417
0
LINE
8
BLACK
6
CONTINUOUS
10
1.2524803149606298
20
0.9964330708661417
11
1.2518060236220472
21
0.9930431496062991
0
LINE
8
BLACK
6
CONTINUOUS
10
1.2518060236220472
20
0.9930431496062991
11
1.2498857874015747
21
0.9901693307086614
0
LINE
8
BLACK
6
CONTINUOUS
10
1.2498857874015747
20
0.9901693307086614
11
1.2470119685039369
21
0.988249094488189
0
LINE
8
BLACK
6
CONTINUOUS
10
1.2470119685039369
20
0.988249094488189
11
1.2436220472440944
21
0.9875748031496063
0
LINE
8
BLACK
6
CONTINUOUS
10
1.2436220472440944
20
0.9875748031496063
11
1.2259055118110236
21
0.9875748031496063
0
LINE
8
BLACK
6
CONTINUOUS
10
1.2259055118110236
20
0.9875748031496063
11
1.2225155905511811
21
0.988249094488189
0
LINE
8
BLACK
6
CONTINUOUS
10
1.2225155905511811
20
0.988249094488189
11
1.2196417716535433
21
0.9901693307086614
0
LINE
8
BLACK
6
CONTINUOUS
10
1.2196417716535433
20
0.9901693307086614
11
1.2177215354330708
21
0.9930431496062991
0
LINE
8
BLACK
6
CONTINUOUS
10
1.2177215354330708
20
0.9930431496062991
11
1.2170472440944882
21
0.9964330708661417
0
LINE
8
BLACK
6
CONTINUOUS
10
1.2170472440944882
20
0.9964330708661417
11
1.2170472440944882
21
1.0161181102362205
0
LINE
8
BLACK
6
CONTINUOUS
10
1.2170472440944882
20
1.0161181102362205
11
1.2177215354330708
21
1.0195080314960629
0
LINE
8
BLACK
6
CONTINUOUS
10
1.2177215354330708
20
1.0195080314960629
11
1.2196417716535433
21
1.0223818503937008
0
LINE
8
BLACK
6
CONTINUOUS
10
1.2196417716535433
20
1.0223818503937008
11
1.2225155905511811
21
1.0243020866141732
0
LINE
8
BLACK
6
CONTINUOUS
10
1.2225155905511811
20
1.0243020866141732
11
1.2259055118110236
21
1.0249763779527559
0
LINE
8
BLACK
6
CONTINUOUS
10
1.2259055118110236
20
1.0249763779527559
11
1.2436220472440944
21
1.0249763779527559
0
LINE
8
BLACK
6
CONTINUOUS
10
1.2436220472440944
20
1.0249763779527559
11
1.2470119685039369
21
1.0243020866141732
0
LINE
8
BLACK
6
CONTINUOUS
10
1.3080355905511811
20
1.0243020866141732
11
1.310909409448819
21
1.0223818503937008
0
LINE
8
BLACK
6
CONTINUOUS
10
1.310909409448819
20
1.0223818503937008
11
1.3128296456692914
21
1.0195080314960629
0
LINE
8
BLACK
6
CONTINUOUS
10
1.3128296456692914
20
1.0195080314960629
11
1.313503937007874
21
1.0161181102362205
0
LINE
8
BLACK
6
CONTINUOUS
10
1.313503937007874
20
1.0161181102362205
11
1.313503937007874
21
0.9964330708661417
0
LINE
8
BLACK
6
CONTINUOUS
10
1.313503937007874
20
0.9964330708661417
11
1.3128296456692914
21
0.9930431496062991
0
LINE
8
BLACK
6
CONTINUOUS
10
1.3128296456692914
20
0.9930431496062991
11
1.310909409448819
21
0.9901693307086614
0
LINE
8
BLACK
6
CONTINUOUS
10
1.310909409448819
20
0.9901693307086614
11
1.3080355905511811
21
0.988249094488189
0
LINE
8
BLACK
6
CONTINUOUS
10
1.3080355905511811
20
0.988249094488189
11
1.3046456692913386
21
0.9875748031496063
0
LINE
8
BLACK
6
CONTINUOUS
10
1.3046456692913386
20
0.9875748031496063
11
1.2869291338582678
21
0.9875748031496063
0
LINE
8
BLACK
6
CONTINUOUS
10
1.2869291338582678
20
0.9875748031496063
11
1.2835392125984251
21
0.988249094488189
0
LINE
8
BLACK
6
CONTINUOUS
10
1.2835392125984251
20
0.988249094488189
11
1.2806653937007875
21
0.9901693307086614
0
LINE
8
BLACK
6
CONTINUOUS
10
1.2806653937007875
20
0.9901693307086614
11
1.278745157480315
21
0.9930431496062991
0
LINE
8
BLACK
6
CONTINUOUS
10
1.278745157480315
20
0.9930431496062991
11
1.2780708661417322
21
0.9964330708661417
0
LINE
8
BLACK
6
CONTINUOUS
10
1.2780708661417322
20
0.9964330708661417
11
1.2780708661417322
21
1.0161181102362205
0
LINE
8
BLACK
6
CONTINUOUS
10
1.2780708661417322
20
1.0161181102362205
11
1.278745157480315
21
1.0195080314960629
0
LINE
8
BLACK
6
CONTINUOUS
10
1.278745157480315
20
1.0195080314960629
11
1.2806653937007875
21
1.0223818503937008
0
LINE
8
BLACK
6
CONTINUOUS
10
1.2806653937007875
20
1.0223818503937008
11
1.2835392125984251
21
1.0243020866141732
0
LINE
8
BLACK
6
CONTINUOUS
10
1.2835392125984251
20
1.0243020866141732
11
1.2869291338582678
21
1.0249763779527559
0
LINE
8
BLACK
6
CONTINUOUS
10
1.2869291338582678
20
1.0249763779527559
11
1.3046456692913386
21
1.0249763779527559
0
LINE
8
BLACK
6
CONTINUOUS
10
1.3046456692913386
20
1.0249763779527559
11
1.3080355905511811
21
1.0243020866141732
0
LINE
8
BLACK
6
CONTINUOUS
10
0.8838400393700787
20
1.0226683464566928
11
0.8863945275590551
21
1.0209614566929133
0
LINE
8
BLACK
6
CONTINUOUS
10
0.8863945275590551
20
1.0209614566929133
11
0.8881014173228347
21
1.018406968503937
0
LINE
8
BLACK
6
CONTINUOUS
10
0.8881014173228347
20
1.018406968503937
11
0.8887007874015748
21
1.0153937007874017
0
LINE
8
BLACK
6
CONTINUOUS
10
0.8887007874015748
20
1.0153937007874017
11
0.8887007874015748
21
0.9996456692913386
0
LINE
8
BLACK
6
CONTINUOUS
10
0.8887007874015748
20
0.9996456692913386
11
0.8881014173228347
21
0.9966324015748032
0
LINE
8
BLACK
6
CONTINUOUS
10
0.8881014173228347
20
0.9966324015748032
11
0.8863945275590551
21
0.9940779133858267
0
LINE
8
BLACK
6
CONTINUOUS
10
0.8863945275590551
20
0.9940779133858267
11
0.8838400393700787
21
0.9923710236220472
0
LINE
8
BLACK
6
CONTINUOUS
10
0.8838400393700787
20
0.9923710236220472
11
0.8808267716535433
21
0.9917716535433071
0
LINE
8
BLACK
6
CONTINUOUS
10
0.8808267716535433
20
0.9917716535433071
11
0.8591732283464567
21
0.9917716535433071
0
LINE
8
BLACK
6
CONTINUOUS
10
0.8591732283464567
20
0.9917716535433071
11
0.8561599606299213
21
0.9923710236220472
0
LINE
8
BLACK
6
CONTINUOUS
10
0.8561599606299213
20
0.9923710236220472
11
0.8536054724409449
21
0.9940779133858267
0
LINE
8
BLACK
6
CONTINUOUS
10
0.8536054724409449
20
0.9940779133858267
11
0.8518985826771653
21
0.9966324015748032
0
LINE
8
BLACK
6
CONTINUOUS
10
0.8518985826771653
20
0.9966324015748032
11
0.8512992125984252
21
0.9996456692913386
0
LINE
8
BLACK
6
CONTINUOUS
10
0.8512992125984252
20
0.9996456692913386
11
0.8512992125984252
21
1.0153937007874017
0
LINE
8
BLACK
6
CONTINUOUS
10
0.8512992125984252
20
1.0153937007874017
11
0.8518985826771653
21
1.018406968503937
0
LINE
8
BLACK
6
CONTINUOUS
10
0.8518985826771653
20
1.018406968503937
11
0.8536054724409449
21
1.0209614566929133
0
LINE
8
BLACK
6
CONTINUOUS
10
0.8536054724409449
20
1.0209614566929133
11
0.8561599606299213
21
1.0226683464566928
0
LINE
8
BLACK
6
CONTINUOUS
10
0.8561599606299213
20
1.0226683464566928
11
0.8591732283464567
21
1.0232677165354331
0
LINE
8
BLACK
6
CONTINUOUS
10
0.8591732283464567
20
1.0232677165354331
11
0.8808267716535433
21
1.0232677165354331
0
LINE
8
BLACK
6
CONTINUOUS
10
0.8808267716535433
20
1.0232677165354331
11
0.8838400393700787
21
1.0226683464566928
0
LINE
8
BLACK
6
CONTINUOUS
10
1.7566923228346456
20
1.0059975984251968
11
1.7578099212598426
21
1.0052508661417323
0
LINE
8
BLACK
6
CONTINUOUS
10
1.7578099212598426
20
1.0052508661417323
11
1.758556653543307
21
1.0041332677165353
0
LINE
8
BLACK
6
CONTINUOUS
10
1.758556653543307
20
1.0041332677165353
11
1.7588188976377952
21
1.0028149606299213
0
LINE
8
BLACK
6
CONTINUOUS
10
1.7588188976377952
20
1.0028149606299213
11
1.7588188976377952
21
0.9959251968503937
0
LINE
8
BLACK
6
CONTINUOUS
10
1.7588188976377952
20
0.9959251968503937
11
1.758556653543307
21
0.9946068897637795
0
LINE
8
BLACK
6
CONTINUOUS
10
1.758556653543307
20
0.9946068897637795
11
1.7578099212598426
21
0.9934892913385827
0
LINE
8
BLACK
6
CONTINUOUS
10
1.7578099212598426
20
0.9934892913385827
11
1.7566923228346456
21
0.9927425590551181
0
LINE
8
BLACK
6
CONTINUOUS
10
1.7566923228346456
20
0.9927425590551181
11
1.7553740157480315
21
0.9924803149606299
0
LINE
8
BLACK
6
CONTINUOUS
10
1.7553740157480315
20
0.9924803149606299
11
1.6982874015748031
21
0.9924803149606299
0
LINE
8
BLACK
6
CONTINUOUS
10
1.6982874015748031
20
0.9924803149606299
11
1.696969094488189
21
0.9927425590551181
0
LINE
8
BLACK
6
CONTINUOUS
10
1.696969094488189
20
0.9927425590551181
11
1.695851496062992
21
0.9934892913385827
0
LINE
8
BLACK
6
CONTINUOUS
10
1.695851496062992
20
0.9934892913385827
11
1.6951047637795276
21
0.9946068897637795
0
LINE
8
BLACK
6
CONTINUOUS
10
1.6951047637795276
20
0.9946068897637795
11
1.6948425196850394
21
0.9959251968503937
0
LINE
8
BLACK
6
CONTINUOUS
10
1.6948425196850394
20
0.9959251968503937
11
1.6948425196850394
21
1.0028149606299213
0
LINE
8
BLACK
6
CONTINUOUS
10
1.6948425196850394
20
1.0028149606299213
11
1.6951047637795276
21
1.0041332677165353
0
LINE
8
BLACK
6
CONTINUOUS
10
1.6951047637795276
20
1.0041332677165353
11
1.695851496062992
21
1.0052508661417323
0
LINE
8
BLACK
6
CONTINUOUS
10
1.695851496062992
20
1.0052508661417323
11
1.696969094488189
21
1.0059975984251968
0
LINE
8
BLACK
6
CONTINUOUS
10
1.696969094488189
20
1.0059975984251968
11
1.6982874015748031
21
1.0062598425196849
0
LINE
8
BLACK
6
CONTINUOUS
10
1.6982874015748031
20
1.0062598425196849
11
1.7553740157480315
21
1.0062598425196849
0
LINE
8
BLACK
6
CONTINUOUS
10
1.7553740157480315
20
1.0062598425196849
11
1.7566923228346456
21
1.0059975984251968
0
LINE
8
BLACK
6
CONTINUOUS
10
1.9230309055118109
20
1.0059975984251968
11
1.9241485039370079
21
1.0052508661417323
0
LINE
8
BLACK
6
CONTINUOUS
10
1.9241485039370079
20
1.0052508661417323
11
1.9248952362204723
21
1.0041332677165353
0
LINE
8
BLACK
6
CONTINUOUS
10
1.9248952362204723
20
1.0041332677165353
11
1.9251574803149605
21
1.0028149606299213
0
LINE
8
BLACK
6
CONTINUOUS
10
1.9251574803149605
20
1.0028149606299213
11
1.9251574803149605
21
0.9959251968503937
0
LINE
8
BLACK
6
CONTINUOUS
10
1.9251574803149605
20
0.9959251968503937
11
1.9248952362204723
21
0.9946068897637795
0
LINE
8
BLACK
6
CONTINUOUS
10
1.9248952362204723
20
0.9946068897637795
11
1.9241485039370079
21
0.9934892913385827
0
LINE
8
BLACK
6
CONTINUOUS
10
1.9241485039370079
20
0.9934892913385827
11
1.9230309055118109
21
0.9927425590551181
0
LINE
8
BLACK
6
CONTINUOUS
10
1.9230309055118109
20
0.9927425590551181
11
1.9217125984251968
21
0.9924803149606299
0
LINE
8
BLACK
6
CONTINUOUS
10
1.9217125984251968
20
0.9924803149606299
11
1.8646259842519686
21
0.9924803149606299
0
LINE
8
BLACK
6
CONTINUOUS
10
1.8646259842519686
20
0.9924803149606299
11
1.8633076771653543
21
0.9927425590551181
0
LINE
8
BLACK
6
CONTINUOUS
10
1.8633076771653543
20
0.9927425590551181
11
1.8621900787401575
21
0.9934892913385827
0
LINE
8
BLACK
6
CONTINUOUS
10
1.8621900787401575
20
0.9934892913385827
11
1.8614433464566928
21
0.9946068897637795
0
LINE
8
BLACK
6
CONTINUOUS
10
1.8614433464566928
20
0.9946068897637795
11
1.8611811023622047
21
0.9959251968503937
0
LINE
8
BLACK
6
CONTINUOUS
10
1.8611811023622047
20
0.9959251968503937
11
1.8611811023622047
21
1.0028149606299213
0
LINE
8
BLACK
6
CONTINUOUS
10
1.8611811023622047
20
1.0028149606299213
11
1.8614433464566928
21
1.0041332677165353
0
LINE
8
BLACK
6
CONTINUOUS
10
1.8614433464566928
20
1.0041332677165353
11
1.8621900787401575
21
1.0052508661417323
0
LINE
8
BLACK
6
CONTINUOUS
10
1.8621900787401575
20
1.0052508661417323
11
1.8633076771653543
21
1.0059975984251968
0
LINE
8
BLACK
6
CONTINUOUS
10
1.8633076771653543
20
1.0059975984251968
11
1.8646259842519686
21
1.0062598425196849
0
LINE
8
BLACK
6
CONTINUOUS
10
1.8646259842519686
20
1.0062598425196849
11
1.9217125984251968
21
1.0062598425196849
0
LINE
8
BLACK
6
CONTINUOUS
10
1.9217125984251968
20
1.0062598425196849
11
1.9230309055118109
21
1.0059975984251968
0
LINE
8
BLACK
6
CONTINUOUS
10
0.7937007874015748
20
1.0433070866141732
11
0.7543307086614173
21
1.0433070866141732
0
LINE
8
BLACK
6
CONTINUOUS
10
0.7543307086614173
20
1.0433070866141732
11
0.7543307086614173
21
1.1929133858267715
0
LINE
8
BLACK
6
CONTINUOUS
10
0.7543307086614173
20
1.1929133858267715
11
0.7937007874015748
21
1.1929133858267715
0
LINE
8
BLACK
6
CONTINUOUS
10
0.7937007874015748
20
1.1929133858267715
11
0.7937007874015748
21
1.0433070866141732
0
LINE
8
BLACK
6
CONTINUOUS
10
2.0456692913385828
20
1.0433070866141732
11
2.0062992125984254
21
1.0433070866141732
0
LINE
8
BLACK
6
CONTINUOUS
10
2.0062992125984254
20
1.0433070866141732
11
2.0062992125984254
21
1.1929133858267715
0
LINE
8
BLACK
6
CONTINUOUS
10
2.0062992125984254
20
1.1929133858267715
11
2.0456692913385828
21
1.1929133858267715
0
LINE
8
BLACK
6
CONTINUOUS
10
2.0456692913385828
20
1.1929133858267715
11
2.0456692913385828
21
1.0433070866141732
0
LINE
8
BLACK
6
CONTINUOUS
10
0.8838400393700787
20
1.0876289763779527
11
0.8863945275590551
21
1.0859220866141732
0
LINE
8
BLACK
6
CONTINUOUS
10
0.8863945275590551
20
1.0859220866141732
11
0.8881014173228347
21
1.0833675984251969
0
LINE
8
BLACK
6
CONTINUOUS
10
0.8881014173228347
20
1.0833675984251969
11
0.8887007874015748
21
1.0803543307086614
0
LINE
8
BLACK
6
CONTINUOUS
10
0.8887007874015748
20
1.0803543307086614
11
0.8887007874015748
21
1.0646062992125984
0
LINE
8
BLACK
6
CONTINUOUS
10
0.8887007874015748
20
1.0646062992125984
11
0.8881014173228347
21
1.0615930314960629
0
LINE
8
BLACK
6
CONTINUOUS
10
0.8881014173228347
20
1.0615930314960629
11
0.8863945275590551
21
1.0590385433070866
0
LINE
8
BLACK
6
CONTINUOUS
10
0.8863945275590551
20
1.0590385433070866
11
0.8838400393700787
21
1.057331653543307
0
LINE
8
BLACK
6
CONTINUOUS
10
0.8838400393700787
20
1.057331653543307
11
0.8808267716535433
21
1.0567322834645669
0
LINE
8
BLACK
6
CONTINUOUS
10
0.8808267716535433
20
1.0567322834645669
11
0.8591732283464567
21
1.0567322834645669
0
LINE
8
BLACK
6
CONTINUOUS
10
0.8591732283464567
20
1.0567322834645669
11
0.8561599606299213
21
1.057331653543307
0
LINE
8
BLACK
6
CONTINUOUS
10
0.8561599606299213
20
1.057331653543307
11
0.8536054724409449
21
1.0590385433070866
0
LINE
8
BLACK
6
CONTINUOUS
10
0.8536054724409449
20
1.0590385433070866
11
0.8518985826771653
21
1.0615930314960629
0
LINE
8
BLACK
6
CONTINUOUS
10
0.8518985826771653
20
1.0615930314960629
11
0.8512992125984252
21
1.0646062992125984
0
LINE
8
BLACK
6
CONTINUOUS
10
0.8512992125984252
20
1.0646062992125984
11
0.8512992125984252
21
1.0803543307086614
0
LINE
8
BLACK
6
CONTINUOUS
10
0.8512992125984252
20
1.0803543307086614
11
0.8518985826771653
21
1.0833675984251969
0
LINE
8
BLACK
6
CONTINUOUS
10
0.8518985826771653
20
1.0833675984251969
11
0.8536054724409449
21
1.0859220866141732
0
LINE
8
BLACK
6
CONTINUOUS
10
0.8536054724409449
20
1.0859220866141732
11
0.8561599606299213
21
1.0876289763779527
0
LINE
8
BLACK
6
CONTINUOUS
10
0.8561599606299213
20
1.0876289763779527
11
0.8591732283464567
21
1.0882283464566929
0
LINE
8
BLACK
6
CONTINUOUS
10
0.8591732283464567
20
1.0882283464566929
11
0.8808267716535433
21
1.0882283464566929
0
LINE
8
BLACK
6
CONTINUOUS
10
0.8808267716535433
20
1.0882283464566929
11
0.8838400393700787
21
1.0876289763779527
0
LINE
8
BLACK
6
CONTINUOUS
10
1.8107638976377953
20
1.1416764566929134
11
1.8126797637795276
21
1.1403962992125984
0
LINE
8
BLACK
6
CONTINUOUS
10
1.8126797637795276
20
1.1403962992125984
11
1.8139599212598425
21
1.1384804330708662
0
LINE
8
BLACK
6
CONTINUOUS
10
1.8139599212598425
20
1.1384804330708662
11
1.8144094488188975
21
1.1362204724409448
0
LINE
8
BLACK
6
CONTINUOUS
10
1.8144094488188975
20
1.1362204724409448
11
1.8144094488188975
21
1.0899606299212599
0
LINE
8
BLACK
6
CONTINUOUS
10
1.8144094488188975
20
1.0899606299212599
11
1.8139599212598425
21
1.0877006692913385
0
LINE
8
BLACK
6
CONTINUOUS
10
1.8139599212598425
20
1.0877006692913385
11
1.8126797637795276
21
1.0857848031496062
0
LINE
8
BLACK
6
CONTINUOUS
10
1.8126797637795276
20
1.0857848031496062
11
1.8107638976377953
21
1.0845046456692913
0
LINE
8
BLACK
6
CONTINUOUS
10
1.8107638976377953
20
1.0845046456692913
11
1.8085039370078739
21
1.0840551181102362
0
LINE
8
BLACK
6
CONTINUOUS
10
1.8085039370078739
20
1.0840551181102362
11
1.7966929133858267
21
1.0840551181102362
0
LINE
8
BLACK
6
CONTINUOUS
10
1.7966929133858267
20
1.0840551181102362
11
1.7944329527559055
21
1.0845046456692913
0
LINE
8
BLACK
6
CONTINUOUS
10
1.7944329527559055
20
1.0845046456692913
11
1.7925170866141731
21
1.0857848031496062
0
LINE
8
BLACK
6
CONTINUOUS
10
1.7925170866141731
20
1.0857848031496062
11
1.7912369291338581
21
1.0877006692913385
0
LINE
8
BLACK
6
CONTINUOUS
10
1.7912369291338581
20
1.0877006692913385
11
1.7907874015748031
21
1.0899606299212599
0
LINE
8
BLACK
6
CONTINUOUS
10
1.7907874015748031
20
1.0899606299212599
11
1.7907874015748031
21
1.1362204724409448
0
LINE
8
BLACK
6
CONTINUOUS
10
1.7907874015748031
20
1.1362204724409448
11
1.7912369291338581
21
1.1384804330708662
0
LINE
8
BLACK
6
CONTINUOUS
10
1.7912369291338581
20
1.1384804330708662
11
1.7925170866141731
21
1.1403962992125984
0
LINE
8
BLACK
6
CONTINUOUS
10
1.7925170866141731
20
1.1403962992125984
11
1.7944329527559055
21
1.1416764566929134
0
LINE
8
BLACK
6
CONTINUOUS
10
1.7944329527559055
20
1.1416764566929134
11
1.7966929133858267
21
1.1421259842519684
0
LINE
8
BLACK
6
CONTINUOUS
10
1.7966929133858267
20
1.1421259842519684
11
1.8085039370078739
21
1.1421259842519684
0
LINE
8
BLACK
6
CONTINUOUS
10
1.8085039370078739
20
1.1421259842519684
11
1.8107638976377953
21
1.1416764566929134
0
LINE
8
BLACK
6
CONTINUOUS
10
1.8855670472440944
20
1.1416764566929134
11
1.8874829133858266
21
1.1403962992125984
0
LINE
8
BLACK
6
CONTINUOUS
10
1.8874829133858266
20
1.1403962992125984
11
1.8887630708661416
21
1.1384804330708662
0
LINE
8
BLACK
6
CONTINUOUS
10
1.8887630708661416
20
1.1384804330708662
11
1.8892125984251968
21
1.1362204724409448
0
LINE
8
BLACK
6
CONTINUOUS
10
1.8892125984251968
20
1.1362204724409448
11
1.8892125984251968
21
1.0899606299212599
0
LINE
8
BLACK
6
CONTINUOUS
10
1.8892125984251968
20
1.0899606299212599
11
1.8887630708661416
21
1.0877006692913385
0
LINE
8
BLACK
6
CONTINUOUS
10
1.8887630708661416
20
1.0877006692913385
11
1.8874829133858266
21
1.0857848031496062
0
LINE
8
BLACK
6
CONTINUOUS
10
1.8874829133858266
20
1.0857848031496062
11
1.8855670472440944
21
1.0845046456692913
0
LINE
8
BLACK
6
CONTINUOUS
10
1.8855670472440944
20
1.0845046456692913
11
1.8833070866141732
21
1.0840551181102362
0
LINE
8
BLACK
6
CONTINUOUS
10
1.8833070866141732
20
1.0840551181102362
11
1.871496062992126
21
1.0840551181102362
0
LINE
8
BLACK
6
CONTINUOUS
10
1.871496062992126
20
1.0840551181102362
11
1.8692361023622046
21
1.0845046456692913
0
LINE
8
BLACK
6
CONTINUOUS
10
1.8692361023622046
20
1.0845046456692913
11
1.8673202362204724
21
1.0857848031496062
0
LINE
8
BLACK
6
CONTINUOUS
10
1.8673202362204724
20
1.0857848031496062
11
1.8660400787401574
21
1.0877006692913385
0
LINE
8
BLACK
6
CONTINUOUS
10
1.8660400787401574
20
1.0877006692913385
11
1.8655905511811024
21
1.0899606299212599
0
LINE
8
BLACK
6
CONTINUOUS
10
1.8655905511811024
20
1.0899606299212599
11
1.8655905511811024
21
1.1362204724409448
0
LINE
8
BLACK
6
CONTINUOUS
10
1.8655905511811024
20
1.1362204724409448
11
1.8660400787401574
21
1.1384804330708662
0
LINE
8
BLACK
6
CONTINUOUS
10
1.8660400787401574
20
1.1384804330708662
11
1.8673202362204724
21
1.1403962992125984
0
LINE
8
BLACK
6
CONTINUOUS
10
1.8673202362204724
20
1.1403962992125984
11
1.8692361023622046
21
1.1416764566929134
0
LINE
8
BLACK
6
CONTINUOUS
10
1.8692361023622046
20
1.1416764566929134
11
1.871496062992126
21
1.1421259842519684
0
LINE
8
BLACK
6
CONTINUOUS
10
1.871496062992126
20
1.1421259842519684
11
1.8833070866141732
21
1.1421259842519684
0
LINE
8
BLACK
6
CONTINUOUS
10
1.8833070866141732
20
1.1421259842519684
11
1.8855670472440944
21
1.1416764566929134
0
LINE
8
BLACK
6
CONTINUOUS
10
1.2470119685039369
20
1.1231209842519685
11
1.2498857874015747
21
1.1212007480314961
0
LINE
8
BLACK
6
CONTINUOUS
10
1.2498857874015747
20
1.1212007480314961
11
1.2518060236220472
21
1.1183269291338582
0
LINE
8
BLACK
6
CONTINUOUS
10
1.2518060236220472
20
1.1183269291338582
11
1.2524803149606298
21
1.1149370078740157
0
LINE
8
BLACK
6
CONTINUOUS
10
1.2524803149606298
20
1.1149370078740157
11
1.2524803149606298
21
1.095251968503937
0
LINE
8
BLACK
6
CONTINUOUS
10
1.2524803149606298
20
1.095251968503937
11
1.2518060236220472
21
1.0918620472440945
0
LINE
8
BLACK
6
CONTINUOUS
10
1.2518060236220472
20
1.0918620472440945
11
1.2498857874015747
21
1.0889882283464567
0
LINE
8
BLACK
6
CONTINUOUS
10
1.2498857874015747
20
1.0889882283464567
11
1.2470119685039369
21
1.0870679921259843
0
LINE
8
BLACK
6
CONTINUOUS
10
1.2470119685039369
20
1.0870679921259843
11
1.2436220472440944
21
1.0863937007874016
0
LINE
8
BLACK
6
CONTINUOUS
10
1.2436220472440944
20
1.0863937007874016
11
1.2259055118110236
21
1.0863937007874016
0
LINE
8
BLACK
6
CONTINUOUS
10
1.2259055118110236
20
1.0863937007874016
11
1.2225155905511811
21
1.0870679921259843
0
LINE
8
BLACK
6
CONTINUOUS
10
1.2225155905511811
20
1.0870679921259843
11
1.2196417716535433
21
1.0889882283464567
0
LINE
8
BLACK
6
CONTINUOUS
10
1.2196417716535433
20
1.0889882283464567
11
1.2177215354330708
21
1.0918620472440945
0
LINE
8
BLACK
6
CONTINUOUS
10
1.2177215354330708
20
1.0918620472440945
11
1.2170472440944882
21
1.095251968503937
0
LINE
8
BLACK
6
CONTINUOUS
10
1.2170472440944882
20
1.095251968503937
11
1.2170472440944882
21
1.1149370078740157
0
LINE
8
BLACK
6
CONTINUOUS
10
1.2170472440944882
20
1.1149370078740157
11
1.2177215354330708
21
1.1183269291338582
0
LINE
8
BLACK
6
CONTINUOUS
10
1.2177215354330708
20
1.1183269291338582
11
1.2196417716535433
21
1.1212007480314961
0
LINE
8
BLACK
6
CONTINUOUS
10
1.2196417716535433
20
1.1212007480314961
11
1.2225155905511811
21
1.1231209842519685
0
LINE
8
BLACK
6
CONTINUOUS
10
1.2225155905511811
20
1.1231209842519685
11
1.2259055118110236
21
1.1237952755905511
0
LINE
8
BLACK
6
CONTINUOUS
10
1.2259055118110236
20
1.1237952755905511
11
1.2436220472440944
21
1.1237952755905511
0
LINE
8
BLACK
6
CONTINUOUS
10
1.2436220472440944
20
1.1237952755905511
11
1.2470119685039369
21
1.1231209842519685
0
LINE
8
BLACK
6
CONTINUOUS
10
1.3080355905511811
20
1.1231209842519685
11
1.310909409448819
21
1.1212007480314961
0
LINE
8
BLACK
6
CONTINUOUS
10
1.310909409448819
20
1.1212007480314961
11
1.3128296456692914
21
1.1183269291338582
0
LINE
8
BLACK
6
CONTINUOUS
10
1.3128296456692914
20
1.1183269291338582
11
1.313503937007874
21
1.1149370078740157
0
LINE
8
BLACK
6
CONTINUOUS
10
1.313503937007874
20
1.1149370078740157
11
1.313503937007874
21
1.095251968503937
0
LINE
8
BLACK
6
CONTINUOUS
10
1.313503937007874
20
1.095251968503937
11
1.3128296456692914
21
1.0918620472440945
0
LINE
8
BLACK
6
CONTINUOUS
10
1.3128296456692914
20
1.0918620472440945
11
1.310909409448819
21
1.0889882283464567
0
LINE
8
BLACK
6
CONTINUOUS
10
1.310909409448819
20
1.0889882283464567
11
1.3080355905511811
21
1.0870679921259843
0
LINE
8
BLACK
6
CONTINUOUS
10
1.3080355905511811
20
1.0870679921259843
11
1.3046456692913386
21
1.0863937007874016
0
LINE
8
BLACK
6
CONTINUOUS
10
1.3046456692913386
20
1.0863937007874016
11
1.2869291338582678
21
1.0863937007874016
0
LINE
8
BLACK
6
CONTINUOUS
10
1.2869291338582678
20
1.0863937007874016
11
1.2835392125984251
21
1.0870679921259843
0
LINE
8
BLACK
6
CONTINUOUS
10
1.2835392125984251
20
1.0870679921259843
11
1.2806653937007875
21
1.0889882283464567
0
LINE
8
BLACK
6
CONTINUOUS
10
1.2806653937007875
20
1.0889882283464567
11
1.278745157480315
21
1.0918620472440945
0
LINE
8
BLACK
6
CONTINUOUS
10
1.278745157480315
20
1.0918620472440945
11
1.2780708661417322
21
1.095251968503937
0
LINE
8
BLACK
6
CONTINUOUS
10
1.2780708661417322
20
1.095251968503937
11
1.2780708661417322
21
1.1149370078740157
0
LINE
8
BLACK
6
CONTINUOUS
10
1.2780708661417322
20
1.1149370078740157
11
1.278745157480315
21
1.1183269291338582
0
LINE
8
BLACK
6
CONTINUOUS
10
1.278745157480315
20
1.1183269291338582
11
1.2806653937007875
21
1.1212007480314961
0
LINE
8
BLACK
6
CONTINUOUS
10
1.2806653937007875
20
1.1212007480314961
11
1.2835392125984251
21
1.1231209842519685
0
LINE
8
BLACK
6
CONTINUOUS
10
1.2835392125984251
20
1.1231209842519685
11
1.2869291338582678
21
1.1237952755905511
0
LINE
8
BLACK
6
CONTINUOUS
10
1.2869291338582678
20
1.1237952755905511
11
1.3046456692913386
21
1.1237952755905511
0
LINE
8
BLACK
6
CONTINUOUS
10
1.3046456692913386
20
1.1237952755905511
11
1.3080355905511811
21
1.1231209842519685
0
LINE
8
BLACK
6
CONTINUOUS
10
1.8481654724409449
20
1.2154953937007873
11
1.8500813385826771
21
1.2142152362204723
0
LINE
8
BLACK
6
CONTINUOUS
10
1.8500813385826771
20
1.2142152362204723
11
1.8513614960629921
21
1.2122993700787401
0
LINE
8
BLACK
6
CONTINUOUS
10
1.8513614960629921
20
1.2122993700787401
11
1.8518110236220473
21
1.2100394094488189
0
LINE
8
BLACK
6
CONTINUOUS
10
1.8518110236220473
20
1.2100394094488189
11
1.8518110236220473
21
1.1637795669291338
0
LINE
8
BLACK
6
CONTINUOUS
10
1.8518110236220473
20
1.1637795669291338
11
1.8513614960629921
21
1.1615196062992126
0
LINE
8
BLACK
6
CONTINUOUS
10
1.8513614960629921
20
1.1615196062992126
11
1.8500813385826771
21
1.1596037401574804
0
LINE
8
BLACK
6
CONTINUOUS
10
1.8500813385826771
20
1.1596037401574804
11
1.8481654724409449
21
1.1583235826771654
0
LINE
8
BLACK
6
CONTINUOUS
10
1.8481654724409449
20
1.1583235826771654
11
1.8459055118110235
21
1.1578740551181101
0
LINE
8
BLACK
6
CONTINUOUS
10
1.8459055118110235
20
1.1578740551181101
11
1.8340944881889762
21
1.1578740551181101
0
LINE
8
BLACK
6
CONTINUOUS
10
1.8340944881889762
20
1.1578740551181101
11
1.8318345275590551
21
1.1583235826771654
0
LINE
8
BLACK
6
CONTINUOUS
10
1.8318345275590551
20
1.1583235826771654
11
1.8299186614173228
21
1.1596037401574804
0
LINE
8
BLACK
6
CONTINUOUS
10
1.8299186614173228
20
1.1596037401574804
11
1.8286385039370079
21
1.1615196062992126
0
LINE
8
BLACK
6
CONTINUOUS
10
1.8286385039370079
20
1.1615196062992126
11
1.8281889763779526
21
1.1637795669291338
0
LINE
8
BLACK
6
CONTINUOUS
10
1.8281889763779526
20
1.1637795669291338
11
1.8281889763779526
21
1.2100394094488189
0
LINE
8
BLACK
6
CONTINUOUS
10
1.8281889763779526
20
1.2100394094488189
11
1.8286385039370079
21
1.2122993700787401
0
LINE
8
BLACK
6
CONTINUOUS
10
1.8286385039370079
20
1.2122993700787401
11
1.8299186614173228
21
1.2142152362204723
0
LINE
8
BLACK
6
CONTINUOUS
10
1.8299186614173228
20
1.2142152362204723
11
1.8318345275590551
21
1.2154953937007873
0
LINE
8
BLACK
6
CONTINUOUS
10
1.8318345275590551
20
1.2154953937007873
11
1.8340944881889762
21
1.2159449212598425
0
LINE
8
BLACK
6
CONTINUOUS
10
1.8340944881889762
20
1.2159449212598425
11
1.8459055118110235
21
1.2159449212598425
0
LINE
8
BLACK
6
CONTINUOUS
10
1.8459055118110235
20
1.2159449212598425
11
1.8481654724409449
21
1.2154953937007873
0
LINE
8
BLACK
6
CONTINUOUS
10
0.7937007874015748
20
1.2795275590551181
11
0.7543307086614173
21
1.2795275590551181
0
LINE
8
BLACK
6
CONTINUOUS
10
0.7543307086614173
20
1.2795275590551181
11
0.7543307086614173
21
1.4291338582677164
0
LINE
8
BLACK
6
CONTINUOUS
10
0.7543307086614173
20
1.4291338582677164
11
0.7937007874015748
21
1.4291338582677164
0
LINE
8
BLACK
6
CONTINUOUS
10
0.7937007874015748
20
1.4291338582677164
11
0.7937007874015748
21
1.2795275590551181
0
LINE
8
BLACK
6
CONTINUOUS
10
2.0456692913385828
20
1.2795275590551181
11
2.0062992125984254
21
1.2795275590551181
0
LINE
8
BLACK
6
CONTINUOUS
10
2.0062992125984254
20
1.2795275590551181
11
2.0062992125984254
21
1.4291338582677164
0
LINE
8
BLACK
6
CONTINUOUS
10
2.0062992125984254
20
1.4291338582677164
11
2.0456692913385828
21
1.4291338582677164
0
LINE
8
BLACK
6
CONTINUOUS
10
2.0456692913385828
20
1.4291338582677164
11
2.0456692913385828
21
1.2795275590551181
0
LINE
8
BLACK
6
CONTINUOUS
10
1.2470119685039369
20
1.320758779527559
11
1.2498857874015747
21
1.3188385433070866
0
LINE
8
BLACK
6
CONTINUOUS
10
1.2498857874015747
20
1.3188385433070866
11
1.2518060236220472
21
1.3159647244094488
0
LINE
8
BLACK
6
CONTINUOUS
10
1.2518060236220472
20
1.3159647244094488
11
1.2524803149606298
21
1.3125748031496063
0
LINE
8
BLACK
6
CONTINUOUS
10
1.2524803149606298
20
1.3125748031496063
11
1.2524803149606298
21
1.2928897637795276
0
LINE
8
BLACK
6
CONTINUOUS
10
1.2524803149606298
20
1.2928897637795276
11
1.2518060236220472
21
1.2894998425196851
0
LINE
8
BLACK
6
CONTINUOUS
10
1.2518060236220472
20
1.2894998425196851
11
1.2498857874015747
21
1.2866260236220473
0
LINE
8
BLACK
6
CONTINUOUS
10
1.2498857874015747
20
1.2866260236220473
11
1.2470119685039369
21
1.2847057874015748
0
LINE
8
BLACK
6
CONTINUOUS
10
1.2470119685039369
20
1.2847057874015748
11
1.2436220472440944
21
1.2840314960629922
0
LINE
8
BLACK
6
CONTINUOUS
10
1.2436220472440944
20
1.2840314960629922
11
1.2259055118110236
21
1.2840314960629922
0
LINE
8
BLACK
6
CONTINUOUS
10
1.2259055118110236
20
1.2840314960629922
11
1.2225155905511811
21
1.2847057874015748
0
LINE
8
BLACK
6
CONTINUOUS
10
1.2225155905511811
20
1.2847057874015748
11
1.2196417716535433
21
1.2866260236220473
0
LINE
8
BLACK
6
CONTINUOUS
10
1.2196417716535433
20
1.2866260236220473
11
1.2177215354330708
21
1.2894998425196851
0
LINE
8
BLACK
6
CONTINUOUS
10
1.2177215354330708
20
1.2894998425196851
11
1.2170472440944882
21
1.2928897637795276
0
LINE
8
BLACK
6
CONTINUOUS
10
1.2170472440944882
20
1.2928897637795276
11
1.2170472440944882
21
1.3125748031496063
0
LINE
8
BLACK
6
CONTINUOUS
10
1.2170472440944882
20
1.3125748031496063
11
1.2177215354330708
21
1.3159647244094488
0
LINE
8
BLACK
6
CONTINUOUS
10
1.2177215354330708
20
1.3159647244094488
11
1.2196417716535433
21
1.3188385433070866
0
LINE
8
BLACK
6
CONTINUOUS
10
1.2196417716535433
20
1.3188385433070866
11
1.2225155905511811
21
1.320758779527559
0
LINE
8
BLACK
6
CONTINUOUS
10
1.2225155905511811
20
1.320758779527559
11
1.2259055118110236
21
1.3214330708661417
0
LINE
8
BLACK
6
CONTINUOUS
10
1.2259055118110236
20
1.3214330708661417
11
1.2436220472440944
21
1.3214330708661417
0
LINE
8
BLACK
6
CONTINUOUS
10
1.2436220472440944
20
1.3214330708661417
11
1.2470119685039369
21
1.320758779527559
0
LINE
8
BLACK
6
CONTINUOUS
10
1.3080355905511811
20
1.320758779527559
11
1.310909409448819
21
1.3188385433070866
0
LINE
8
BLACK
6
CONTINUOUS
10
1.310909409448819
20
1.3188385433070866
11
1.3128296456692914
21
1.3159647244094488
0
LINE
8
BLACK
6
CONTINUOUS
10
1.3128296456692914
20
1.3159647244094488
11
1.313503937007874
21
1.3125748031496063
0
LINE
8
BLACK
6
CONTINUOUS
10
1.313503937007874
20
1.3125748031496063
11
1.313503937007874
21
1.2928897637795276
0
LINE
8
BLACK
6
CONTINUOUS
10
1.313503937007874
20
1.2928897637795276
11
1.3128296456692914
21
1.2894998425196851
0
LINE
8
BLACK
6
CONTINUOUS
10
1.3128296456692914
20
1.2894998425196851
11
1.310909409448819
21
1.2866260236220473
0
LINE
8
BLACK
6
CONTINUOUS
10
1.310909409448819
20
1.2866260236220473
11
1.3080355905511811
21
1.2847057874015748
0
LINE
8
BLACK
6
CONTINUOUS
10
1.3080355905511811
20
1.2847057874015748
11
1.3046456692913386
21
1.2840314960629922
0
LINE
8
BLACK
6
CONTINUOUS
10
1.3046456692913386
20
1.2840314960629922
11
1.2869291338582678
21
1.2840314960629922
0
LINE
8
BLACK
6
CONTINUOUS
10
1.2869291338582678
20
1.2840314960629922
11
1.2835392125984251
21
1.2847057874015748
0
LINE
8
BLACK
6
CONTINUOUS
10
1.2835392125984251
20
1.2847057874015748
11
1.2806653937007875
21
1.2866260236220473
0
LINE
8
BLACK
6
CONTINUOUS
10
1.2806653937007875
20
1.2866260236220473
11
1.278745157480315
21
1.2894998425196851
0
LINE
8
BLACK
6
CONTINUOUS
10
1.278745157480315
20
1.2894998425196851
11
1.2780708661417322
21
1.2928897637795276
0
LINE
8
BLACK
6
CONTINUOUS
10
1.2780708661417322
20
1.2928897637795276
11
1.2780708661417322
21
1.3125748031496063
0
LINE
8
BLACK
6
CONTINUOUS
10
1.2780708661417322
20
1.3125748031496063
11
1.278745157480315
21
1.3159647244094488
0
LINE
8
BLACK
6
CONTINUOUS
10
1.278745157480315
20
1.3159647244094488
11
1.2806653937007875
21
1.3188385433070866
0
LINE
8
BLACK
6
CONTINUOUS
10
1.2806653937007875
20
1.3188385433070866
11
1.2835392125984251
21
1.320758779527559
0
LINE
8
BLACK
6
CONTINUOUS
10
1.2835392125984251
20
1.320758779527559
11
1.2869291338582678
21
1.3214330708661417
0
LINE
8
BLACK
6
CONTINUOUS
10
1.2869291338582678
20
1.3214330708661417
11
1.3046456692913386
21
1.3214330708661417
0
LINE
8
BLACK
6
CONTINUOUS
10
1.3046456692913386
20
1.3214330708661417
11
1.3080355905511811
21
1.320758779527559
0
LINE
8
BLACK
6
CONTINUOUS
10
1.6292087795275589
20
1.3339599212598425
11
1.6311246456692914
21
1.3326797637795276
0
LINE
8
BLACK
6
CONTINUOUS
10
1.6311246456692914
20
1.3326797637795276
11
1.6324048031496063
21
1.3307638976377953
0
LINE
8
BLACK
6
CONTINUOUS
10
1.6324048031496063
20
1.3307638976377953
11
1.6328543307086614
21
1.3285039370078739
0
LINE
8
BLACK
6
CONTINUOUS
10
1.6328543307086614
20
1.3285039370078739
11
1.6328543307086614
21
1.3166929133858267
0
LINE
8
BLACK
6
CONTINUOUS
10
1.6328543307086614
20
1.3166929133858267
11
1.6324048031496063
21
1.3144329527559055
0
LINE
8
BLACK
6
CONTINUOUS
10
1.6324048031496063
20
1.3144329527559055
11
1.6311246456692914
21
1.3125170866141731
0
LINE
8
BLACK
6
CONTINUOUS
10
1.6311246456692914
20
1.3125170866141731
11
1.6292087795275589
21
1.3112369291338581
0
LINE
8
BLACK
6
CONTINUOUS
10
1.6292087795275589
20
1.3112369291338581
11
1.6269488188976378
21
1.3107874015748031
0
LINE
8
BLACK
6
CONTINUOUS
10
1.6269488188976378
20
1.3107874015748031
11
1.5806889763779528
21
1.3107874015748031
0
LINE
8
BLACK
6
CONTINUOUS
10
1.5806889763779528
20
1.3107874015748031
11
1.5784290157480314
21
1.3112369291338581
0
LINE
8
BLACK
6
CONTINUOUS
10
1.5784290157480314
20
1.3112369291338581
11
1.5765131496062992
21
1.3125170866141731
0
LINE
8
BLACK
6
CONTINUOUS
10
1.5765131496062992
20
1.3125170866141731
11
1.5752329921259842
21
1.3144329527559055
0
LINE
8
BLACK
6
CONTINUOUS
10
1.5752329921259842
20
1.3144329527559055
11
1.5747834645669292
21
1.3166929133858267
0
LINE
8
BLACK
6
CONTINUOUS
10
1.5747834645669292
20
1.3166929133858267
11
1.5747834645669292
21
1.3285039370078739
0
LINE
8
BLACK
6
CONTINUOUS
10
1.5747834645669292
20
1.3285039370078739
11
1.5752329921259842
21
1.3307638976377953
0
LINE
8
BLACK
6
CONTINUOUS
10
1.5752329921259842
20
1.3307638976377953
11
1.5765131496062992
21
1.3326797637795276
0
LINE
8
BLACK
6
CONTINUOUS
10
1.5765131496062992
20
1.3326797637795276
11
1.5784290157480314
21
1.3339599212598425
0
LINE
8
BLACK
6
CONTINUOUS
10
1.5784290157480314
20
1.3339599212598425
11
1.5806889763779528
21
1.3344094488188976
0
LINE
8
BLACK
6
CONTINUOUS
10
1.5806889763779528
20
1.3344094488188976
11
1.6269488188976378
21
1.3344094488188976
0
LINE
8
BLACK
6
CONTINUOUS
10
1.6269488188976378
20
1.3344094488188976
11
1.6292087795275589
21
1.3339599212598425
0
LINE
8
BLACK
6
CONTINUOUS
10
1.5553898818897638
20
1.3713614960629921
11
1.557305748031496
21
1.3700813385826771
0
LINE
8
BLACK
6
CONTINUOUS
10
1.557305748031496
20
1.3700813385826771
11
1.558585905511811
21
1.3681654724409449
0
LINE
8
BLACK
6
CONTINUOUS
10
1.558585905511811
20
1.3681654724409449
11
1.559035433070866
21
1.3659055118110235
0
LINE
8
BLACK
6
CONTINUOUS
10
1.559035433070866
20
1.3659055118110235
11
1.559035433070866
21
1.3540944881889763
0
LINE
8
BLACK
6
CONTINUOUS
10
1.559035433070866
20
1.3540944881889763
11
1.558585905511811
21
1.3518345275590551
0
LINE
8
BLACK
6
CONTINUOUS
10
1.558585905511811
20
1.3518345275590551
11
1.557305748031496
21
1.3499186614173229
0
LINE
8
BLACK
6
CONTINUOUS
10
1.557305748031496
20
1.3499186614173229
11
1.5553898818897638
21
1.3486385039370079
0
LINE
8
BLACK
6
CONTINUOUS
10
1.5553898818897638
20
1.3486385039370079
11
1.5531299212598424
21
1.3481889763779527
0
LINE
8
BLACK
6
CONTINUOUS
10
1.5531299212598424
20
1.3481889763779527
11
1.5068700787401574
21
1.3481889763779527
0
LINE
8
BLACK
6
CONTINUOUS
10
1.5068700787401574
20
1.3481889763779527
11
1.5046101181102363
21
1.3486385039370079
0
LINE
8
BLACK
6
CONTINUOUS
10
1.5046101181102363
20
1.3486385039370079
11
1.5026942519685038
21
1.3499186614173229
0
LINE
8
BLACK
6
CONTINUOUS
10
1.5026942519685038
20
1.3499186614173229
11
1.5014140944881889
21
1.3518345275590551
0
LINE
8
BLACK
6
CONTINUOUS
10
1.5014140944881889
20
1.3518345275590551
11
1.5009645669291338
21
1.3540944881889763
0
LINE
8
BLACK
6
CONTINUOUS
10
1.5009645669291338
20
1.3540944881889763
11
1.5009645669291338
21
1.3659055118110235
0
LINE
8
BLACK
6
CONTINUOUS
10
1.5009645669291338
20
1.3659055118110235
11
1.5014140944881889
21
1.3681654724409449
0
LINE
8
BLACK
6
CONTINUOUS
10
1.5014140944881889
20
1.3681654724409449
11
1.5026942519685038
21
1.3700813385826771
0
LINE
8
BLACK
6
CONTINUOUS
10
1.5026942519685038
20
1.3700813385826771
11
1.5046101181102363
21
1.3713614960629921
0
LINE
8
BLACK
6
CONTINUOUS
10
1.5046101181102363
20
1.3713614960629921
11
1.5068700787401574
21
1.3718110236220473
0
LINE
8
BLACK
6
CONTINUOUS
10
1.5068700787401574
20
1.3718110236220473
11
1.5531299212598424
21
1.3718110236220473
0
LINE
8
BLACK
6
CONTINUOUS
10
1.5531299212598424
20
1.3718110236220473
11
1.5553898818897638
21
1.3713614960629921
0
LINE
8
BLACK
6
CONTINUOUS
10
1.6292087795275589
20
1.4087630708661416
11
1.6311246456692914
21
1.4074829133858267
0
LINE
8
BLACK
6
CONTINUOUS
10
1.6311246456692914
20
1.4074829133858267
11
1.6324048031496063
21
1.4055670472440944
0
LINE
8
BLACK
6
CONTINUOUS
10
1.6324048031496063
20
1.4055670472440944
11
1.6328543307086614
21
1.4033070866141732
0
LINE
8
BLACK
6
CONTINUOUS
10
1.6328543307086614
20
1.4033070866141732
11
1.6328543307086614
21
1.391496062992126
0
LINE
8
BLACK
6
CONTINUOUS
10
1.6328543307086614
20
1.391496062992126
11
1.6324048031496063
21
1.3892361023622046
0
LINE
8
BLACK
6
CONTINUOUS
10
1.6324048031496063
20
1.3892361023622046
11
1.6311246456692914
21
1.3873202362204724
0
LINE
8
BLACK
6
CONTINUOUS
10
1.6311246456692914
20
1.3873202362204724
11
1.6292087795275589
21
1.3860400787401574
0
LINE
8
BLACK
6
CONTINUOUS
10
1.6292087795275589
20
1.3860400787401574
11
1.6269488188976378
21
1.3855905511811024
0
LINE
8
BLACK
6
CONTINUOUS
10
1.6269488188976378
20
1.3855905511811024
11
1.5806889763779528
21
1.3855905511811024
0
LINE
8
BLACK
6
CONTINUOUS
10
1.5806889763779528
20
1.3855905511811024
11
1.5784290157480314
21
1.3860400787401574
0
LINE
8
BLACK
6
CONTINUOUS
10
1.5784290157480314
20
1.3860400787401574
11
1.5765131496062992
21
1.3873202362204724
0
LINE
8
BLACK
6
CONTINUOUS
10
1.5765131496062992
20
1.3873202362204724
11
1.5752329921259842
21
1.3892361023622046
0
LINE
8
BLACK
6
CONTINUOUS
10
1.5752329921259842
20
1.3892361023622046
11
1.5747834645669292
21
1.391496062992126
0
LINE
8
BLACK
6
CONTINUOUS
10
1.5747834645669292
20
1.391496062992126
11
1.5747834645669292
21
1.4033070866141732
0
LINE
8
BLACK
6
CONTINUOUS
10
1.5747834645669292
20
1.4033070866141732
11
1.5752329921259842
21
1.4055670472440944
0
LINE
8
BLACK
6
CONTINUOUS
10
1.5752329921259842
20
1.4055670472440944
11
1.5765131496062992
21
1.4074829133858267
0
LINE
8
BLACK
6
CONTINUOUS
10
1.5765131496062992
20
1.4074829133858267
11
1.5784290157480314
21
1.4087630708661416
0
LINE
8
BLACK
6
CONTINUOUS
10
1.5784290157480314
20
1.4087630708661416
11
1.5806889763779528
21
1.4092125984251969
0
LINE
8
BLACK
6
CONTINUOUS
10
1.5806889763779528
20
1.4092125984251969
11
1.6269488188976378
21
1.4092125984251969
0
LINE
8
BLACK
6
CONTINUOUS
10
1.6269488188976378
20
1.4092125984251969
11
1.6292087795275589
21
1.4087630708661416
0
LINE
8
BLACK
6
CONTINUOUS
10
0.7937007874015748
20
1.515748031496063
11
0.7543307086614173
21
1.515748031496063
0
LINE
8
BLACK
6
CONTINUOUS
10
0.7543307086614173
20
1.515748031496063
11
0.7543307086614173
21
1.6062992125984252
0
LINE
8
BLACK
6
CONTINUOUS
10
0.7543307086614173
20
1.6062992125984252
11
0.7543307086614173
21
1.6456692913385826
0
LINE
8
BLACK
6
CONTINUOUS
10
0.7543307086614173
20
1.6456692913385826
11
0.7937007874015748
21
1.6456692913385826
0
LINE
8
BLACK
6
CONTINUOUS
10
0.7937007874015748
20
1.6456692913385826
11
0.8842519685039369
21
1.6456692913385826
0
LINE
8
BLACK
6
CONTINUOUS
10
0.8842519685039369
20
1.6456692913385826
11
0.8842519685039369
21
1.6062992125984252
0
LINE
8
BLACK
6
CONTINUOUS
10
0.8842519685039369
20
1.6062992125984252
11
0.7937007874015748
21
1.6062992125984252
0
LINE
8
BLACK
6
CONTINUOUS
10
0.7937007874015748
20
1.6062992125984252
11
0.7937007874015748
21
1.515748031496063
0
LINE
8
BLACK
6
CONTINUOUS
10
2.0456692913385828
20
1.515748031496063
11
2.0062992125984254
21
1.515748031496063
0
LINE
8
BLACK
6
CONTINUOUS
10
2.0062992125984254
20
1.515748031496063
11
2.0062992125984254
21
1.6062992125984252
0
LINE
8
BLACK
6
CONTINUOUS
10
2.0062992125984254
20
1.6062992125984252
11
1.9157480314960629
21
1.6062992125984252
0
LINE
8
BLACK
6
CONTINUOUS
10
1.9157480314960629
20
1.6062992125984252
11
1.9157480314960629
21
1.6456692913385826
0
LINE
8
BLACK
6
CONTINUOUS
10
1.9157480314960629
20
1.6456692913385826
11
2.0062992125984254
21
1.6456692913385826
0
LINE
8
BLACK
6
CONTINUOUS
10
2.0062992125984254
20
1.6456692913385826
11
2.0456692913385828
21
1.6456692913385826
0
LINE
8
BLACK
6
CONTINUOUS
10
2.0456692913385828
20
1.6456692913385826
11
2.0456692913385828
21
1.6062992125984252
0
LINE
8
BLACK
6
CONTINUOUS
10
2.0456692913385828
20
1.6062992125984252
11
2.0456692913385828
21
1.515748031496063
0
LINE
8
BLACK
6
CONTINUOUS
10
1.1204724409448819
20
1.6062992125984252
11
0.9708661417322835
21
1.6062992125984252
0
LINE
8
BLACK
6
CONTINUOUS
10
0.9708661417322835
20
1.6062992125984252
11
0.9708661417322835
21
1.6456692913385826
0
LINE
8
BLACK
6
CONTINUOUS
10
0.9708661417322835
20
1.6456692913385826
11
1.1204724409448819
21
1.6456692913385826
0
LINE
8
BLACK
6
CONTINUOUS
10
1.1204724409448819
20
1.6456692913385826
11
1.1204724409448819
21
1.6062992125984252
0
LINE
8
BLACK
6
CONTINUOUS
10
1.3566929133858268
20
1.6062992125984252
11
1.2070866141732284
21
1.6062992125984252
0
LINE
8
BLACK
6
CONTINUOUS
10
1.2070866141732284
20
1.6062992125984252
11
1.2070866141732284
21
1.6456692913385826
0
LINE
8
BLACK
6
CONTINUOUS
10
1.2070866141732284
20
1.6456692913385826
11
1.3566929133858268
21
1.6456692913385826
0
LINE
8
BLACK
6
CONTINUOUS
10
1.3566929133858268
20
1.6456692913385826
11
1.3566929133858268
21
1.6062992125984252
0
LINE
8
BLACK
6
CONTINUOUS
10
1.5929133858267717
20
1.6062992125984252
11
1.4433070866141733
21
1.6062992125984252
0
LINE
8
BLACK
6
CONTINUOUS
10
1.4433070866141733
20
1.6062992125984252
11
1.4433070866141733
21
1.6456692913385826
0
LINE
8
BLACK
6
CONTINUOUS
10
1.4433070866141733
20
1.6456692913385826
11
1.5929133858267717
21
1.6456692913385826
0
LINE
8
BLACK
6
CONTINUOUS
10
1.5929133858267717
20
1.6456692913385826
11
1.5929133858267717
21
1.6062992125984252
0
LINE
8
BLACK
6
CONTINUOUS
10
1.8291338582677166
20
1.6062992125984252
11
1.679527559055118
21
1.6062992125984252
0
LINE
8
BLACK
6
CONTINUOUS
10
1.679527559055118
20
1.6062992125984252
11
1.679527559055118
21
1.6456692913385826
0
LINE
8
BLACK
6
CONTINUOUS
10
1.679527559055118
20
1.6456692913385826
11
1.8291338582677166
21
1.6456692913385826
0
LINE
8
BLACK
6
CONTINUOUS
10
1.8291338582677166
20
1.6456692913385826
11
1.8291338582677166
21
1.6062992125984252
  0
ENDSEC
  0
EOF
