  0
SECTION
  2
HEADER
  9
$ANGBASE
  50
0.0
  9
$ANGDIR
  70
1
  9
$MEASUREMENT
  70
0
  0
ENDSEC
  0
SECTION
  2
TABLES
  0
TABLE
  2
LTYPE
  70
4
  0
LTYPE
  5
40F
  2
CONTINUOUS
  70
0
  3
Solid line
  72
65
  73
0
  40
0.0
  0
LTYPE
  5
410
  2
DASHDOT
 70
0
  3
Dash Dot ____ _ ____ _
 72
65
 73
4
 40
2.0
 49
1.25
 49
-0.25
 49
0.25
 49
-0.25
  0
LTYPE
  5
411
  2
DASHED
 70
0
  3
Dashed __ __ __ __ __
 72
65
 73
2
 40
0.75
 49
0.5
 49
-0.25
  0
LTYPE
  5
43B
  2
DOTTED
 70
0
  3
Dotted .  .  .  .
 72
65
 73
2
 40
0.2
 49
0.0
 49
-0.2
  0
ENDTAB
  0
TABLE
  2
STYLE
  70
4
  0
STYLE
  2
KICAD
  70
0
  40
0
  41
1
  42
1
  50
0
  71
0
  3
isocp.shx
  0
STYLE
  2
KICADB
  70
0
  40
0
  41
1
  42
1
  50
0
  71
0
  3
isocp.shx
  0
STYLE
  2
KICADI
  70
0
  40
0
  41
1
  42
1
  50
15
  71
0
  3
isocp.shx
  0
STYLE
  2
KICADBI
  70
0
  40
0
  41
1
  42
1
  50
15
  71
0
  3
isocp.shx
  0
ENDTAB
  0
TABLE
  2
LAYER
  70
1
  0
LAYER
  2
BLACK
  70
0
  62
7
  6
CONTINUOUS
  0
ENDTAB
  0
ENDSEC
  0
SECTION
  2
ENTITIES
0
LINE
8
BLACK
6
CONTINUOUS
10
0.4205096456692913
20
0.5163158661417323
11
0.4338744094488189
21
0.5131483858267717
0
LINE
8
BLACK
6
CONTINUOUS
10
0.4338744094488189
20
0.5131483858267717
11
0.446781062992126
21
0.5084507086614173
0
LINE
8
BLACK
6
CONTINUOUS
10
0.446781062992126
20
0.5084507086614173
11
0.4590551181102362
21
0.5022864566929134
0
LINE
8
BLACK
6
CONTINUOUS
10
0.4590551181102362
20
0.5022864566929134
11
0.4705305511811024
21
0.4947389763779527
0
LINE
8
BLACK
6
CONTINUOUS
10
0.4705305511811024
20
0.4947389763779527
11
0.4810521653543307
21
0.4859102755905512
0
LINE
8
BLACK
6
CONTINUOUS
10
0.4810521653543307
20
0.4859102755905512
11
0.4904776771653543
21
0.4759198031496063
0
LINE
8
BLACK
6
CONTINUOUS
10
0.4904776771653543
20
0.4759198031496063
11
0.4986796456692913
21
0.4649026377952756
0
LINE
8
BLACK
6
CONTINUOUS
10
0.4986796456692913
20
0.4649026377952756
11
0.5055471653543308
21
0.4530077952755905
0
LINE
8
BLACK
6
CONTINUOUS
10
0.5055471653543308
20
0.4530077952755905
11
0.5109873228346457
21
0.440396062992126
0
LINE
8
BLACK
6
CONTINUOUS
10
0.5109873228346457
20
0.440396062992126
11
0.5149265748031496
21
0.4272381102362204
0
LINE
8
BLACK
6
CONTINUOUS
10
0.5149265748031496
20
0.4272381102362204
11
0.5173116141732284
21
0.4137117716535433
0
LINE
8
BLACK
6
CONTINUOUS
10
0.5173116141732284
20
0.4137117716535433
11
0.5181102362204725
21
0.4
0
LINE
8
BLACK
6
CONTINUOUS
10
0.5181102362204725
20
0.4
11
0.5173116141732284
21
0.3862882283464567
0
LINE
8
BLACK
6
CONTINUOUS
10
0.5173116141732284
20
0.3862882283464567
11
0.5149265748031496
21
0.3727618897637795
0
LINE
8
BLACK
6
CONTINUOUS
10
0.5149265748031496
20
0.3727618897637795
11
0.5109873228346457
21
0.359603937007874
0
LINE
8
BLACK
6
CONTINUOUS
10
0.5109873228346457
20
0.359603937007874
11
0.5055471653543308
21
0.3469922047244094
0
LINE
8
BLACK
6
CONTINUOUS
10
0.5055471653543308
20
0.3469922047244094
11
0.4986796456692913
21
0.3350973622047244
0
LINE
8
BLACK
6
CONTINUOUS
10
0.4986796456692913
20
0.3350973622047244
11
0.4904776771653543
21
0.3240801968503937
0
LINE
8
BLACK
6
CONTINUOUS
10
0.4904776771653543
20
0.3240801968503937
11
0.4810521653543307
21
0.3140897244094488
0
LINE
8
BLACK
6
CONTINUOUS
10
0.4810521653543307
20
0.3140897244094488
11
0.4705305511811024
21
0.3052610236220472
0
LINE
8
BLACK
6
CONTINUOUS
10
0.4705305511811024
20
0.3052610236220472
11
0.4590551181102362
21
0.2977135433070866
0
LINE
8
BLACK
6
CONTINUOUS
10
0.4590551181102362
20
0.2977135433070866
11
0.446781062992126
21
0.2915492913385827
0
LINE
8
BLACK
6
CONTINUOUS
10
0.446781062992126
20
0.2915492913385827
11
0.4338744094488189
21
0.2868516141732284
0
LINE
8
BLACK
6
CONTINUOUS
10
0.4338744094488189
20
0.2868516141732284
11
0.4205096456692913
21
0.2836841338582677
0
LINE
8
BLACK
6
CONTINUOUS
10
0.4205096456692913
20
0.2836841338582677
11
0.4068674803149606
21
0.2820896062992126
0
LINE
8
BLACK
6
CONTINUOUS
10
0.4068674803149606
20
0.2820896062992126
11
0.3931325196850394
21
0.2820896062992126
0
LINE
8
BLACK
6
CONTINUOUS
10
0.3931325196850394
20
0.2820896062992126
11
0.3794903543307087
21
0.2836841338582677
0
LINE
8
BLACK
6
CONTINUOUS
10
0.3794903543307087
20
0.2836841338582677
11
0.3661255905511811
21
0.2868516141732284
0
LINE
8
BLACK
6
CONTINUOUS
10
0.3661255905511811
20
0.2868516141732284
11
0.353218937007874
21
0.2915492913385827
0
LINE
8
BLACK
6
CONTINUOUS
10
0.353218937007874
20
0.2915492913385827
11
0.3409448818897638
21
0.2977135433070866
0
LINE
8
BLACK
6
CONTINUOUS
10
0.3409448818897638
20
0.2977135433070866
11
0.3294694488188976
21
0.3052610236220472
0
LINE
8
BLACK
6
CONTINUOUS
10
0.3294694488188976
20
0.3052610236220472
11
0.3189478346456693
21
0.3140897244094488
0
LINE
8
BLACK
6
CONTINUOUS
10
0.3189478346456693
20
0.3140897244094488
11
0.3095223228346456
21
0.3240801968503937
0
LINE
8
BLACK
6
CONTINUOUS
10
0.3095223228346456
20
0.3240801968503937
11
0.3013203543307086
21
0.3350973622047244
0
LINE
8
BLACK
6
CONTINUOUS
10
0.3013203543307086
20
0.3350973622047244
11
0.2944528346456693
21
0.3469922047244094
0
LINE
8
BLACK
6
CONTINUOUS
10
0.2944528346456693
20
0.3469922047244094
11
0.2890126771653543
21
0.359603937007874
0
LINE
8
BLACK
6
CONTINUOUS
10
0.2890126771653543
20
0.359603937007874
11
0.2850734251968504
21
0.3727618897637795
0
LINE
8
BLACK
6
CONTINUOUS
10
0.2850734251968504
20
0.3727618897637795
11
0.2826883858267716
21
0.3862882283464567
0
LINE
8
BLACK
6
CONTINUOUS
10
0.2826883858267716
20
0.3862882283464567
11
0.2818897637795276
21
0.4
0
LINE
8
BLACK
6
CONTINUOUS
10
0.2818897637795276
20
0.4
11
0.2826883858267716
21
0.4137117716535433
0
LINE
8
BLACK
6
CONTINUOUS
10
0.2826883858267716
20
0.4137117716535433
11
0.2850734251968504
21
0.4272381102362204
0
LINE
8
BLACK
6
CONTINUOUS
10
0.2850734251968504
20
0.4272381102362204
11
0.2890126771653543
21
0.440396062992126
0
LINE
8
BLACK
6
CONTINUOUS
10
0.2890126771653543
20
0.440396062992126
11
0.2944528346456693
21
0.4530077952755905
0
LINE
8
BLACK
6
CONTINUOUS
10
0.2944528346456693
20
0.4530077952755905
11
0.3013203543307086
21
0.4649026377952756
0
LINE
8
BLACK
6
CONTINUOUS
10
0.3013203543307086
20
0.4649026377952756
11
0.3095223228346456
21
0.4759198031496063
0
LINE
8
BLACK
6
CONTINUOUS
10
0.3095223228346456
20
0.4759198031496063
11
0.3189478346456693
21
0.4859102755905512
0
LINE
8
BLACK
6
CONTINUOUS
10
0.3189478346456693
20
0.4859102755905512
11
0.3294694488188976
21
0.4947389763779527
0
LINE
8
BLACK
6
CONTINUOUS
10
0.3294694488188976
20
0.4947389763779527
11
0.3409448818897638
21
0.5022864566929134
0
LINE
8
BLACK
6
CONTINUOUS
10
0.3409448818897638
20
0.5022864566929134
11
0.353218937007874
21
0.5084507086614173
0
LINE
8
BLACK
6
CONTINUOUS
10
0.353218937007874
20
0.5084507086614173
11
0.3661255905511811
21
0.5131483858267717
0
LINE
8
BLACK
6
CONTINUOUS
10
0.3661255905511811
20
0.5131483858267717
11
0.3794903543307087
21
0.5163158661417323
0
LINE
8
BLACK
6
CONTINUOUS
10
0.3794903543307087
20
0.5163158661417323
11
0.3931325196850394
21
0.5179103937007874
0
LINE
8
BLACK
6
CONTINUOUS
10
0.3931325196850394
20
0.5179103937007874
11
0.4068674803149606
21
0.5179103937007874
0
LINE
8
BLACK
6
CONTINUOUS
10
0.4068674803149606
20
0.5179103937007874
11
0.4205096456692913
21
0.5163158661417323
0
LINE
8
BLACK
6
CONTINUOUS
10
2.4205096456692914
20
0.5163158661417323
11
2.4338744094488187
21
0.5131483858267717
0
LINE
8
BLACK
6
CONTINUOUS
10
2.4338744094488187
20
0.5131483858267717
11
2.4467810629921258
21
0.5084507086614173
0
LINE
8
BLACK
6
CONTINUOUS
10
2.4467810629921258
20
0.5084507086614173
11
2.459055118110236
21
0.5022864566929134
0
LINE
8
BLACK
6
CONTINUOUS
10
2.459055118110236
20
0.5022864566929134
11
2.4705305511811022
21
0.4947389763779527
0
LINE
8
BLACK
6
CONTINUOUS
10
2.4705305511811022
20
0.4947389763779527
11
2.4810521653543307
21
0.4859102755905512
0
LINE
8
BLACK
6
CONTINUOUS
10
2.4810521653543307
20
0.4859102755905512
11
2.4904776771653543
21
0.4759198031496063
0
LINE
8
BLACK
6
CONTINUOUS
10
2.4904776771653543
20
0.4759198031496063
11
2.4986796456692915
21
0.4649026377952756
0
LINE
8
BLACK
6
CONTINUOUS
10
2.4986796456692915
20
0.4649026377952756
11
2.5055471653543306
21
0.4530077952755905
0
LINE
8
BLACK
6
CONTINUOUS
10
2.5055471653543306
20
0.4530077952755905
11
2.5109873228346458
21
0.440396062992126
0
LINE
8
BLACK
6
CONTINUOUS
10
2.5109873228346458
20
0.440396062992126
11
2.5149265748031495
21
0.4272381102362204
0
LINE
8
BLACK
6
CONTINUOUS
10
2.5149265748031495
20
0.4272381102362204
11
2.5173116141732281
21
0.4137117716535433
0
LINE
8
BLACK
6
CONTINUOUS
10
2.5173116141732281
20
0.4137117716535433
11
2.5181102362204726
21
0.4
0
LINE
8
BLACK
6
CONTINUOUS
10
2.5181102362204726
20
0.4
11
2.5173116141732281
21
0.3862882283464567
0
LINE
8
BLACK
6
CONTINUOUS
10
2.5173116141732281
20
0.3862882283464567
11
2.5149265748031495
21
0.3727618897637795
0
LINE
8
BLACK
6
CONTINUOUS
10
2.5149265748031495
20
0.3727618897637795
11
2.5109873228346458
21
0.359603937007874
0
LINE
8
BLACK
6
CONTINUOUS
10
2.5109873228346458
20
0.359603937007874
11
2.5055471653543306
21
0.3469922047244094
0
LINE
8
BLACK
6
CONTINUOUS
10
2.5055471653543306
20
0.3469922047244094
11
2.4986796456692915
21
0.3350973622047244
0
LINE
8
BLACK
6
CONTINUOUS
10
2.4986796456692915
20
0.3350973622047244
11
2.4904776771653543
21
0.3240801968503937
0
LINE
8
BLACK
6
CONTINUOUS
10
2.4904776771653543
20
0.3240801968503937
11
2.4810521653543307
21
0.3140897244094488
0
LINE
8
BLACK
6
CONTINUOUS
10
2.4810521653543307
20
0.3140897244094488
11
2.4705305511811022
21
0.3052610236220472
0
LINE
8
BLACK
6
CONTINUOUS
10
2.4705305511811022
20
0.3052610236220472
11
2.459055118110236
21
0.2977135433070866
0
LINE
8
BLACK
6
CONTINUOUS
10
2.459055118110236
20
0.2977135433070866
11
2.4467810629921258
21
0.2915492913385827
0
LINE
8
BLACK
6
CONTINUOUS
10
2.4467810629921258
20
0.2915492913385827
11
2.4338744094488187
21
0.2868516141732284
0
LINE
8
BLACK
6
CONTINUOUS
10
2.4338744094488187
20
0.2868516141732284
11
2.4205096456692914
21
0.2836841338582677
0
LINE
8
BLACK
6
CONTINUOUS
10
2.4205096456692914
20
0.2836841338582677
11
2.4068674803149608
21
0.2820896062992126
0
LINE
8
BLACK
6
CONTINUOUS
10
2.4068674803149608
20
0.2820896062992126
11
2.3931325196850395
21
0.2820896062992126
0
LINE
8
BLACK
6
CONTINUOUS
10
2.3931325196850395
20
0.2820896062992126
11
2.3794903543307084
21
0.2836841338582677
0
LINE
8
BLACK
6
CONTINUOUS
10
2.3794903543307084
20
0.2836841338582677
11
2.3661255905511811
21
0.2868516141732284
0
LINE
8
BLACK
6
CONTINUOUS
10
2.3661255905511811
20
0.2868516141732284
11
2.353218937007874
21
0.2915492913385827
0
LINE
8
BLACK
6
CONTINUOUS
10
2.353218937007874
20
0.2915492913385827
11
2.3409448818897638
21
0.2977135433070866
0
LINE
8
BLACK
6
CONTINUOUS
10
2.3409448818897638
20
0.2977135433070866
11
2.3294694488188976
21
0.3052610236220472
0
LINE
8
BLACK
6
CONTINUOUS
10
2.3294694488188976
20
0.3052610236220472
11
2.3189478346456691
21
0.3140897244094488
0
LINE
8
BLACK
6
CONTINUOUS
10
2.3189478346456691
20
0.3140897244094488
11
2.3095223228346455
21
0.3240801968503937
0
LINE
8
BLACK
6
CONTINUOUS
10
2.3095223228346455
20
0.3240801968503937
11
2.3013203543307088
21
0.3350973622047244
0
LINE
8
BLACK
6
CONTINUOUS
10
2.3013203543307088
20
0.3350973622047244
11
2.2944528346456692
21
0.3469922047244094
0
LINE
8
BLACK
6
CONTINUOUS
10
2.2944528346456692
20
0.3469922047244094
11
2.2890126771653541
21
0.359603937007874
0
LINE
8
BLACK
6
CONTINUOUS
10
2.2890126771653541
20
0.359603937007874
11
2.2850734251968503
21
0.3727618897637795
0
LINE
8
BLACK
6
CONTINUOUS
10
2.2850734251968503
20
0.3727618897637795
11
2.2826883858267717
21
0.3862882283464567
0
LINE
8
BLACK
6
CONTINUOUS
10
2.2826883858267717
20
0.3862882283464567
11
2.2818897637795277
21
0.4
0
LINE
8
BLACK
6
CONTINUOUS
10
2.2818897637795277
20
0.4
11
2.2826883858267717
21
0.4137117716535433
0
LINE
8
BLACK
6
CONTINUOUS
10
2.2826883858267717
20
0.4137117716535433
11
2.2850734251968503
21
0.4272381102362204
0
LINE
8
BLACK
6
CONTINUOUS
10
2.2850734251968503
20
0.4272381102362204
11
2.2890126771653541
21
0.440396062992126
0
LINE
8
BLACK
6
CONTINUOUS
10
2.2890126771653541
20
0.440396062992126
11
2.2944528346456692
21
0.4530077952755905
0
LINE
8
BLACK
6
CONTINUOUS
10
2.2944528346456692
20
0.4530077952755905
11
2.3013203543307088
21
0.4649026377952756
0
LINE
8
BLACK
6
CONTINUOUS
10
2.3013203543307088
20
0.4649026377952756
11
2.3095223228346455
21
0.4759198031496063
0
LINE
8
BLACK
6
CONTINUOUS
10
2.3095223228346455
20
0.4759198031496063
11
2.3189478346456691
21
0.4859102755905512
0
LINE
8
BLACK
6
CONTINUOUS
10
2.3189478346456691
20
0.4859102755905512
11
2.3294694488188976
21
0.4947389763779527
0
LINE
8
BLACK
6
CONTINUOUS
10
2.3294694488188976
20
0.4947389763779527
11
2.3409448818897638
21
0.5022864566929134
0
LINE
8
BLACK
6
CONTINUOUS
10
2.3409448818897638
20
0.5022864566929134
11
2.353218937007874
21
0.5084507086614173
0
LINE
8
BLACK
6
CONTINUOUS
10
2.353218937007874
20
0.5084507086614173
11
2.3661255905511811
21
0.5131483858267717
0
LINE
8
BLACK
6
CONTINUOUS
10
2.3661255905511811
20
0.5131483858267717
11
2.3794903543307084
21
0.5163158661417323
0
LINE
8
BLACK
6
CONTINUOUS
10
2.3794903543307084
20
0.5163158661417323
11
2.3931325196850395
21
0.5179103937007874
0
LINE
8
BLACK
6
CONTINUOUS
10
2.3931325196850395
20
0.5179103937007874
11
2.4068674803149608
21
0.5179103937007874
0
LINE
8
BLACK
6
CONTINUOUS
10
2.4068674803149608
20
0.5179103937007874
11
2.4205096456692914
21
0.5163158661417323
0
LINE
8
BLACK
6
CONTINUOUS
10
2.29
20
0.66
11
2.23
21
0.66
0
LINE
8
BLACK
6
CONTINUOUS
10
2.23
20
0.66
11
2.23
21
0.72
0
LINE
8
BLACK
6
CONTINUOUS
10
2.23
20
0.72
11
2.29
21
0.72
0
LINE
8
BLACK
6
CONTINUOUS
10
2.29
20
0.72
11
2.29
21
0.66
0
LINE
8
BLACK
6
CONTINUOUS
10
2.3900000000000001
20
0.66
11
2.3300000000000001
21
0.66
0
LINE
8
BLACK
6
CONTINUOUS
10
2.3300000000000001
20
0.66
11
2.3300000000000001
21
0.72
0
LINE
8
BLACK
6
CONTINUOUS
10
2.3300000000000001
20
0.72
11
2.3900000000000001
21
0.72
0
LINE
8
BLACK
6
CONTINUOUS
10
2.3900000000000001
20
0.72
11
2.3900000000000001
21
0.66
0
LINE
8
BLACK
6
CONTINUOUS
10
2.29
20
0.76
11
2.23
21
0.76
0
LINE
8
BLACK
6
CONTINUOUS
10
2.23
20
0.76
11
2.23
21
0.82
0
LINE
8
BLACK
6
CONTINUOUS
10
2.23
20
0.82
11
2.29
21
0.82
0
LINE
8
BLACK
6
CONTINUOUS
10
2.29
20
0.82
11
2.29
21
0.76
0
LINE
8
BLACK
6
CONTINUOUS
10
2.3900000000000001
20
0.76
11
2.3300000000000001
21
0.76
0
LINE
8
BLACK
6
CONTINUOUS
10
2.3300000000000001
20
0.76
11
2.3300000000000001
21
0.82
0
LINE
8
BLACK
6
CONTINUOUS
10
2.3300000000000001
20
0.82
11
2.3900000000000001
21
0.82
0
LINE
8
BLACK
6
CONTINUOUS
10
2.3900000000000001
20
0.82
11
2.3900000000000001
21
0.76
0
LINE
8
BLACK
6
CONTINUOUS
10
0.351120905511811
20
0.9426005511811023
11
0.3587423622047244
21
0.9396479921259843
0
LINE
8
BLACK
6
CONTINUOUS
10
0.3587423622047244
20
0.9396479921259843
11
0.3656914960629921
21
0.9353452362204724
0
LINE
8
BLACK
6
CONTINUOUS
10
0.3656914960629921
20
0.9353452362204724
11
0.3717316929133858
21
0.9298388976377953
0
LINE
8
BLACK
6
CONTINUOUS
10
0.3717316929133858
20
0.9298388976377953
11
0.3766572440944882
21
0.9233163779527559
0
LINE
8
BLACK
6
CONTINUOUS
10
0.3766572440944882
20
0.9233163779527559
11
0.3803004330708661
21
0.9159998818897638
0
LINE
8
BLACK
6
CONTINUOUS
10
0.3803004330708661
20
0.9159998818897638
11
0.3825372047244094
21
0.9081385039370079
0
LINE
8
BLACK
6
CONTINUOUS
10
0.3825372047244094
20
0.9081385039370079
11
0.3832913385826772
21
0.9
0
LINE
8
BLACK
6
CONTINUOUS
10
0.3832913385826772
20
0.9
11
0.3825372047244094
21
0.8918614960629921
0
LINE
8
BLACK
6
CONTINUOUS
10
0.3825372047244094
20
0.8918614960629921
11
0.3803004330708661
21
0.8840001181102362
0
LINE
8
BLACK
6
CONTINUOUS
10
0.3803004330708661
20
0.8840001181102362
11
0.3766572440944882
21
0.876683622047244
0
LINE
8
BLACK
6
CONTINUOUS
10
0.3766572440944882
20
0.876683622047244
11
0.3717316929133858
21
0.8701611023622047
0
LINE
8
BLACK
6
CONTINUOUS
10
0.3717316929133858
20
0.8701611023622047
11
0.3656914960629921
21
0.8646547637795275
0
LINE
8
BLACK
6
CONTINUOUS
10
0.3656914960629921
20
0.8646547637795275
11
0.3587423622047244
21
0.8603520078740158
0
LINE
8
BLACK
6
CONTINUOUS
10
0.3587423622047244
20
0.8603520078740158
11
0.351120905511811
21
0.8573994488188976
0
LINE
8
BLACK
6
CONTINUOUS
10
0.351120905511811
20
0.8573994488188976
11
0.3430866929133858
21
0.8558975984251969
0
LINE
8
BLACK
6
CONTINUOUS
10
0.3430866929133858
20
0.8558975984251969
11
0.3349133070866142
21
0.8558975984251969
0
LINE
8
BLACK
6
CONTINUOUS
10
0.3349133070866142
20
0.8558975984251969
11
0.326879094488189
21
0.8573994488188976
0
LINE
8
BLACK
6
CONTINUOUS
10
0.326879094488189
20
0.8573994488188976
11
0.3192576377952756
21
0.8603520078740158
0
LINE
8
BLACK
6
CONTINUOUS
10
0.3192576377952756
20
0.8603520078740158
11
0.3123085039370079
21
0.8646547637795275
0
LINE
8
BLACK
6
CONTINUOUS
10
0.3123085039370079
20
0.8646547637795275
11
0.3062683070866142
21
0.8701611023622047
0
LINE
8
BLACK
6
CONTINUOUS
10
0.3062683070866142
20
0.8701611023622047
11
0.3013427559055118
21
0.876683622047244
0
LINE
8
BLACK
6
CONTINUOUS
10
0.3013427559055118
20
0.876683622047244
11
0.2976995669291339
21
0.8840001181102362
0
LINE
8
BLACK
6
CONTINUOUS
10
0.2976995669291339
20
0.8840001181102362
11
0.2954627952755906
21
0.8918614960629921
0
LINE
8
BLACK
6
CONTINUOUS
10
0.2954627952755906
20
0.8918614960629921
11
0.2947086614173228
21
0.9
0
LINE
8
BLACK
6
CONTINUOUS
10
0.2947086614173228
20
0.9
11
0.2954627952755906
21
0.9081385039370079
0
LINE
8
BLACK
6
CONTINUOUS
10
0.2954627952755906
20
0.9081385039370079
11
0.2976995669291339
21
0.9159998818897638
0
LINE
8
BLACK
6
CONTINUOUS
10
0.2976995669291339
20
0.9159998818897638
11
0.3013427559055118
21
0.9233163779527559
0
LINE
8
BLACK
6
CONTINUOUS
10
0.3013427559055118
20
0.9233163779527559
11
0.3062683070866142
21
0.9298388976377953
0
LINE
8
BLACK
6
CONTINUOUS
10
0.3062683070866142
20
0.9298388976377953
11
0.3123085039370079
21
0.9353452362204724
0
LINE
8
BLACK
6
CONTINUOUS
10
0.3123085039370079
20
0.9353452362204724
11
0.3192576377952756
21
0.9396479921259843
0
LINE
8
BLACK
6
CONTINUOUS
10
0.3192576377952756
20
0.9396479921259843
11
0.326879094488189
21
0.9426005511811023
0
LINE
8
BLACK
6
CONTINUOUS
10
0.326879094488189
20
0.9426005511811023
11
0.3349133070866142
21
0.9441024015748031
0
LINE
8
BLACK
6
CONTINUOUS
10
0.3349133070866142
20
0.9441024015748031
11
0.3430866929133858
21
0.9441024015748031
0
LINE
8
BLACK
6
CONTINUOUS
10
0.3430866929133858
20
0.9441024015748031
11
0.351120905511811
21
0.9426005511811023
0
LINE
8
BLACK
6
CONTINUOUS
10
0.551120905511811
20
0.9426005511811023
11
0.5587423622047244
21
0.9396479921259843
0
LINE
8
BLACK
6
CONTINUOUS
10
0.5587423622047244
20
0.9396479921259843
11
0.5656914960629921
21
0.9353452362204724
0
LINE
8
BLACK
6
CONTINUOUS
10
0.5656914960629921
20
0.9353452362204724
11
0.5717316929133858
21
0.9298388976377953
0
LINE
8
BLACK
6
CONTINUOUS
10
0.5717316929133858
20
0.9298388976377953
11
0.5766572440944882
21
0.9233163779527559
0
LINE
8
BLACK
6
CONTINUOUS
10
0.5766572440944882
20
0.9233163779527559
11
0.5803004330708661
21
0.9159998818897638
0
LINE
8
BLACK
6
CONTINUOUS
10
0.5803004330708661
20
0.9159998818897638
11
0.5825372047244094
21
0.9081385039370079
0
LINE
8
BLACK
6
CONTINUOUS
10
0.5825372047244094
20
0.9081385039370079
11
0.5832913385826771
21
0.9
0
LINE
8
BLACK
6
CONTINUOUS
10
0.5832913385826771
20
0.9
11
0.5825372047244094
21
0.8918614960629921
0
LINE
8
BLACK
6
CONTINUOUS
10
0.5825372047244094
20
0.8918614960629921
11
0.5803004330708661
21
0.8840001181102362
0
LINE
8
BLACK
6
CONTINUOUS
10
0.5803004330708661
20
0.8840001181102362
11
0.5766572440944882
21
0.876683622047244
0
LINE
8
BLACK
6
CONTINUOUS
10
0.5766572440944882
20
0.876683622047244
11
0.5717316929133858
21
0.8701611023622047
0
LINE
8
BLACK
6
CONTINUOUS
10
0.5717316929133858
20
0.8701611023622047
11
0.5656914960629921
21
0.8646547637795275
0
LINE
8
BLACK
6
CONTINUOUS
10
0.5656914960629921
20
0.8646547637795275
11
0.5587423622047244
21
0.8603520078740158
0
LINE
8
BLACK
6
CONTINUOUS
10
0.5587423622047244
20
0.8603520078740158
11
0.551120905511811
21
0.8573994488188976
0
LINE
8
BLACK
6
CONTINUOUS
10
0.551120905511811
20
0.8573994488188976
11
0.5430866929133858
21
0.8558975984251969
0
LINE
8
BLACK
6
CONTINUOUS
10
0.5430866929133858
20
0.8558975984251969
11
0.5349133070866141
21
0.8558975984251969
0
LINE
8
BLACK
6
CONTINUOUS
10
0.5349133070866141
20
0.8558975984251969
11
0.5268790944881889
21
0.8573994488188976
0
LINE
8
BLACK
6
CONTINUOUS
10
0.5268790944881889
20
0.8573994488188976
11
0.5192576377952756
21
0.8603520078740158
0
LINE
8
BLACK
6
CONTINUOUS
10
0.5192576377952756
20
0.8603520078740158
11
0.5123085039370079
21
0.8646547637795275
0
LINE
8
BLACK
6
CONTINUOUS
10
0.5123085039370079
20
0.8646547637795275
11
0.5062683070866142
21
0.8701611023622047
0
LINE
8
BLACK
6
CONTINUOUS
10
0.5062683070866142
20
0.8701611023622047
11
0.5013427559055118
21
0.876683622047244
0
LINE
8
BLACK
6
CONTINUOUS
10
0.5013427559055118
20
0.876683622047244
11
0.4976995669291339
21
0.8840001181102362
0
LINE
8
BLACK
6
CONTINUOUS
10
0.4976995669291339
20
0.8840001181102362
11
0.4954627952755906
21
0.8918614960629921
0
LINE
8
BLACK
6
CONTINUOUS
10
0.4954627952755906
20
0.8918614960629921
11
0.4947086614173228
21
0.9
0
LINE
8
BLACK
6
CONTINUOUS
10
0.4947086614173228
20
0.9
11
0.4954627952755906
21
0.9081385039370079
0
LINE
8
BLACK
6
CONTINUOUS
10
0.4954627952755906
20
0.9081385039370079
11
0.4976995669291339
21
0.9159998818897638
0
LINE
8
BLACK
6
CONTINUOUS
10
0.4976995669291339
20
0.9159998818897638
11
0.5013427559055118
21
0.9233163779527559
0
LINE
8
BLACK
6
CONTINUOUS
10
0.5013427559055118
20
0.9233163779527559
11
0.5062683070866142
21
0.9298388976377953
0
LINE
8
BLACK
6
CONTINUOUS
10
0.5062683070866142
20
0.9298388976377953
11
0.5123085039370079
21
0.9353452362204724
0
LINE
8
BLACK
6
CONTINUOUS
10
0.5123085039370079
20
0.9353452362204724
11
0.5192576377952756
21
0.9396479921259843
0
LINE
8
BLACK
6
CONTINUOUS
10
0.5192576377952756
20
0.9396479921259843
11
0.5268790944881889
21
0.9426005511811023
0
LINE
8
BLACK
6
CONTINUOUS
10
0.5268790944881889
20
0.9426005511811023
11
0.5349133070866141
21
0.9441024015748031
0
LINE
8
BLACK
6
CONTINUOUS
10
0.5349133070866141
20
0.9441024015748031
11
0.5430866929133858
21
0.9441024015748031
0
LINE
8
BLACK
6
CONTINUOUS
10
0.5430866929133858
20
0.9441024015748031
11
0.551120905511811
21
0.9426005511811023
0
LINE
8
BLACK
6
CONTINUOUS
10
2.29
20
0.86
11
2.23
21
0.86
0
LINE
8
BLACK
6
CONTINUOUS
10
2.23
20
0.86
11
2.23
21
0.9199999999999999
0
LINE
8
BLACK
6
CONTINUOUS
10
2.23
20
0.9199999999999999
11
2.29
21
0.9199999999999999
0
LINE
8
BLACK
6
CONTINUOUS
10
2.29
20
0.9199999999999999
11
2.29
21
0.86
0
LINE
8
BLACK
6
CONTINUOUS
10
2.3900000000000001
20
0.86
11
2.3300000000000001
21
0.86
0
LINE
8
BLACK
6
CONTINUOUS
10
2.3300000000000001
20
0.86
11
2.3300000000000001
21
0.9199999999999999
0
LINE
8
BLACK
6
CONTINUOUS
10
2.3300000000000001
20
0.9199999999999999
11
2.3900000000000001
21
0.9199999999999999
0
LINE
8
BLACK
6
CONTINUOUS
10
2.3900000000000001
20
0.9199999999999999
11
2.3900000000000001
21
0.86
0
LINE
8
BLACK
6
CONTINUOUS
10
0.4468727559055118
20
1.0395789370078741
11
0.4544429527559055
21
1.037282559055118
0
LINE
8
BLACK
6
CONTINUOUS
10
0.4544429527559055
20
1.037282559055118
11
0.4614196456692913
21
1.0335533858267716
0
LINE
8
BLACK
6
CONTINUOUS
10
0.4614196456692913
20
1.0335533858267716
11
0.4675348031496063
21
1.0285348031496062
0
LINE
8
BLACK
6
CONTINUOUS
10
0.4675348031496063
20
1.0285348031496062
11
0.4725533858267716
21
1.0224196456692913
0
LINE
8
BLACK
6
CONTINUOUS
10
0.4725533858267716
20
1.0224196456692913
11
0.4762825590551181
21
1.0154429527559055
0
LINE
8
BLACK
6
CONTINUOUS
10
0.4762825590551181
20
1.0154429527559055
11
0.478578937007874
21
1.0078727559055118
0
LINE
8
BLACK
6
CONTINUOUS
10
0.478578937007874
20
1.0078727559055118
11
0.4793543307086614
21
1.
0
LINE
8
BLACK
6
CONTINUOUS
10
0.4793543307086614
20
1.
11
0.478578937007874
21
0.9921272440944882
0
LINE
8
BLACK
6
CONTINUOUS
10
0.478578937007874
20
0.9921272440944882
11
0.4762825590551181
21
0.9845570472440944
0
LINE
8
BLACK
6
CONTINUOUS
10
0.4762825590551181
20
0.9845570472440944
11
0.4725533858267716
21
0.9775803543307087
0
LINE
8
BLACK
6
CONTINUOUS
10
0.4725533858267716
20
0.9775803543307087
11
0.4675348031496063
21
0.9714651968503937
0
LINE
8
BLACK
6
CONTINUOUS
10
0.4675348031496063
20
0.9714651968503937
11
0.4614196456692913
21
0.9664466141732283
0
LINE
8
BLACK
6
CONTINUOUS
10
0.4614196456692913
20
0.9664466141732283
11
0.4544429527559055
21
0.9627174409448819
0
LINE
8
BLACK
6
CONTINUOUS
10
0.4544429527559055
20
0.9627174409448819
11
0.4468727559055118
21
0.9604210629921259
0
LINE
8
BLACK
6
CONTINUOUS
10
0.4468727559055118
20
0.9604210629921259
11
0.439
21
0.9596456692913385
0
LINE
8
BLACK
6
CONTINUOUS
10
0.439
20
0.9596456692913385
11
0.4311272440944882
21
0.9604210629921259
0
LINE
8
BLACK
6
CONTINUOUS
10
0.4311272440944882
20
0.9604210629921259
11
0.4235570472440945
21
0.9627174409448819
0
LINE
8
BLACK
6
CONTINUOUS
10
0.4235570472440945
20
0.9627174409448819
11
0.4165803543307087
21
0.9664466141732283
0
LINE
8
BLACK
6
CONTINUOUS
10
0.4165803543307087
20
0.9664466141732283
11
0.4104651968503937
21
0.9714651968503937
0
LINE
8
BLACK
6
CONTINUOUS
10
0.4104651968503937
20
0.9714651968503937
11
0.4054466141732284
21
0.9775803543307087
0
LINE
8
BLACK
6
CONTINUOUS
10
0.4054466141732284
20
0.9775803543307087
11
0.4017174409448819
21
0.9845570472440944
0
LINE
8
BLACK
6
CONTINUOUS
10
0.4017174409448819
20
0.9845570472440944
11
0.399421062992126
21
0.9921272440944882
0
LINE
8
BLACK
6
CONTINUOUS
10
0.399421062992126
20
0.9921272440944882
11
0.3986456692913386
21
1.
0
LINE
8
BLACK
6
CONTINUOUS
10
0.3986456692913386
20
1.
11
0.399421062992126
21
1.0078727559055118
0
LINE
8
BLACK
6
CONTINUOUS
10
0.399421062992126
20
1.0078727559055118
11
0.4017174409448819
21
1.0154429527559055
0
LINE
8
BLACK
6
CONTINUOUS
10
0.4017174409448819
20
1.0154429527559055
11
0.4054466141732284
21
1.0224196456692913
0
LINE
8
BLACK
6
CONTINUOUS
10
0.4054466141732284
20
1.0224196456692913
11
0.4104651968503937
21
1.0285348031496062
0
LINE
8
BLACK
6
CONTINUOUS
10
0.4104651968503937
20
1.0285348031496062
11
0.4165803543307087
21
1.0335533858267716
0
LINE
8
BLACK
6
CONTINUOUS
10
0.4165803543307087
20
1.0335533858267716
11
0.4235570472440945
21
1.037282559055118
0
LINE
8
BLACK
6
CONTINUOUS
10
0.4235570472440945
20
1.037282559055118
11
0.4311272440944882
21
1.0395789370078741
0
LINE
8
BLACK
6
CONTINUOUS
10
0.4311272440944882
20
1.0395789370078741
11
0.439
21
1.0403543307086613
0
LINE
8
BLACK
6
CONTINUOUS
10
0.439
20
1.0403543307086613
11
0.4468727559055118
21
1.0395789370078741
0
LINE
8
BLACK
6
CONTINUOUS
10
2.2899999606299213
20
1.03
11
2.2299999606299212
21
1.03
0
LINE
8
BLACK
6
CONTINUOUS
10
2.2299999606299212
20
1.03
11
2.2299999606299212
21
1.0900000000000001
0
LINE
8
BLACK
6
CONTINUOUS
10
2.2299999606299212
20
1.0900000000000001
11
2.2899999606299213
21
1.0900000000000001
0
LINE
8
BLACK
6
CONTINUOUS
10
2.2899999606299213
20
1.0900000000000001
11
2.2899999606299213
21
1.03
0
LINE
8
BLACK
6
CONTINUOUS
10
2.3900000393700789
20
1.03
11
2.3300000393700788
21
1.03
0
LINE
8
BLACK
6
CONTINUOUS
10
2.3300000393700788
20
1.03
11
2.3300000393700788
21
1.0900000000000001
0
LINE
8
BLACK
6
CONTINUOUS
10
2.3300000393700788
20
1.0900000000000001
11
2.3900000393700789
21
1.0900000000000001
0
LINE
8
BLACK
6
CONTINUOUS
10
2.3900000393700789
20
1.0900000000000001
11
2.3900000393700789
21
1.03
0
LINE
8
BLACK
6
CONTINUOUS
10
0.351120905511811
20
1.1426005511811024
11
0.3587423622047244
21
1.1396479921259843
0
LINE
8
BLACK
6
CONTINUOUS
10
0.3587423622047244
20
1.1396479921259843
11
0.3656914960629921
21
1.1353452362204723
0
LINE
8
BLACK
6
CONTINUOUS
10
0.3656914960629921
20
1.1353452362204723
11
0.3717316929133858
21
1.1298388976377953
0
LINE
8
BLACK
6
CONTINUOUS
10
0.3717316929133858
20
1.1298388976377953
11
0.3766572440944882
21
1.123316377952756
0
LINE
8
BLACK
6
CONTINUOUS
10
0.3766572440944882
20
1.123316377952756
11
0.3803004330708661
21
1.1159998818897638
0
LINE
8
BLACK
6
CONTINUOUS
10
0.3803004330708661
20
1.1159998818897638
11
0.3825372047244094
21
1.1081385039370077
0
LINE
8
BLACK
6
CONTINUOUS
10
0.3825372047244094
20
1.1081385039370077
11
0.3832913385826772
21
1.0999999999999999
0
LINE
8
BLACK
6
CONTINUOUS
10
0.3832913385826772
20
1.0999999999999999
11
0.3825372047244094
21
1.0918614960629922
0
LINE
8
BLACK
6
CONTINUOUS
10
0.3825372047244094
20
1.0918614960629922
11
0.3803004330708661
21
1.0840001181102361
0
LINE
8
BLACK
6
CONTINUOUS
10
0.3803004330708661
20
1.0840001181102361
11
0.3766572440944882
21
1.076683622047244
0
LINE
8
BLACK
6
CONTINUOUS
10
0.3766572440944882
20
1.076683622047244
11
0.3717316929133858
21
1.0701611023622046
0
LINE
8
BLACK
6
CONTINUOUS
10
0.3717316929133858
20
1.0701611023622046
11
0.3656914960629921
21
1.0646547637795276
0
LINE
8
BLACK
6
CONTINUOUS
10
0.3656914960629921
20
1.0646547637795276
11
0.3587423622047244
21
1.0603520078740156
0
LINE
8
BLACK
6
CONTINUOUS
10
0.3587423622047244
20
1.0603520078740156
11
0.351120905511811
21
1.0573994488188976
0
LINE
8
BLACK
6
CONTINUOUS
10
0.351120905511811
20
1.0573994488188976
11
0.3430866929133858
21
1.0558975984251968
0
LINE
8
BLACK
6
CONTINUOUS
10
0.3430866929133858
20
1.0558975984251968
11
0.3349133070866142
21
1.0558975984251968
0
LINE
8
BLACK
6
CONTINUOUS
10
0.3349133070866142
20
1.0558975984251968
11
0.326879094488189
21
1.0573994488188976
0
LINE
8
BLACK
6
CONTINUOUS
10
0.326879094488189
20
1.0573994488188976
11
0.3192576377952756
21
1.0603520078740156
0
LINE
8
BLACK
6
CONTINUOUS
10
0.3192576377952756
20
1.0603520078740156
11
0.3123085039370079
21
1.0646547637795276
0
LINE
8
BLACK
6
CONTINUOUS
10
0.3123085039370079
20
1.0646547637795276
11
0.3062683070866142
21
1.0701611023622046
0
LINE
8
BLACK
6
CONTINUOUS
10
0.3062683070866142
20
1.0701611023622046
11
0.3013427559055118
21
1.076683622047244
0
LINE
8
BLACK
6
CONTINUOUS
10
0.3013427559055118
20
1.076683622047244
11
0.2976995669291339
21
1.0840001181102361
0
LINE
8
BLACK
6
CONTINUOUS
10
0.2976995669291339
20
1.0840001181102361
11
0.2954627952755906
21
1.0918614960629922
0
LINE
8
BLACK
6
CONTINUOUS
10
0.2954627952755906
20
1.0918614960629922
11
0.2947086614173228
21
1.0999999999999999
0
LINE
8
BLACK
6
CONTINUOUS
10
0.2947086614173228
20
1.0999999999999999
11
0.2954627952755906
21
1.1081385039370077
0
LINE
8
BLACK
6
CONTINUOUS
10
0.2954627952755906
20
1.1081385039370077
11
0.2976995669291339
21
1.1159998818897638
0
LINE
8
BLACK
6
CONTINUOUS
10
0.2976995669291339
20
1.1159998818897638
11
0.3013427559055118
21
1.123316377952756
0
LINE
8
BLACK
6
CONTINUOUS
10
0.3013427559055118
20
1.123316377952756
11
0.3062683070866142
21
1.1298388976377953
0
LINE
8
BLACK
6
CONTINUOUS
10
0.3062683070866142
20
1.1298388976377953
11
0.3123085039370079
21
1.1353452362204723
0
LINE
8
BLACK
6
CONTINUOUS
10
0.3123085039370079
20
1.1353452362204723
11
0.3192576377952756
21
1.1396479921259843
0
LINE
8
BLACK
6
CONTINUOUS
10
0.3192576377952756
20
1.1396479921259843
11
0.326879094488189
21
1.1426005511811024
0
LINE
8
BLACK
6
CONTINUOUS
10
0.326879094488189
20
1.1426005511811024
11
0.3349133070866142
21
1.1441024015748031
0
LINE
8
BLACK
6
CONTINUOUS
10
0.3349133070866142
20
1.1441024015748031
11
0.3430866929133858
21
1.1441024015748031
0
LINE
8
BLACK
6
CONTINUOUS
10
0.3430866929133858
20
1.1441024015748031
11
0.351120905511811
21
1.1426005511811024
0
LINE
8
BLACK
6
CONTINUOUS
10
0.551120905511811
20
1.1426005511811024
11
0.5587423622047244
21
1.1396479921259843
0
LINE
8
BLACK
6
CONTINUOUS
10
0.5587423622047244
20
1.1396479921259843
11
0.5656914960629921
21
1.1353452362204723
0
LINE
8
BLACK
6
CONTINUOUS
10
0.5656914960629921
20
1.1353452362204723
11
0.5717316929133858
21
1.1298388976377953
0
LINE
8
BLACK
6
CONTINUOUS
10
0.5717316929133858
20
1.1298388976377953
11
0.5766572440944882
21
1.123316377952756
0
LINE
8
BLACK
6
CONTINUOUS
10
0.5766572440944882
20
1.123316377952756
11
0.5803004330708661
21
1.1159998818897638
0
LINE
8
BLACK
6
CONTINUOUS
10
0.5803004330708661
20
1.1159998818897638
11
0.5825372047244094
21
1.1081385039370077
0
LINE
8
BLACK
6
CONTINUOUS
10
0.5825372047244094
20
1.1081385039370077
11
0.5832913385826771
21
1.0999999999999999
0
LINE
8
BLACK
6
CONTINUOUS
10
0.5832913385826771
20
1.0999999999999999
11
0.5825372047244094
21
1.0918614960629922
0
LINE
8
BLACK
6
CONTINUOUS
10
0.5825372047244094
20
1.0918614960629922
11
0.5803004330708661
21
1.0840001181102361
0
LINE
8
BLACK
6
CONTINUOUS
10
0.5803004330708661
20
1.0840001181102361
11
0.5766572440944882
21
1.076683622047244
0
LINE
8
BLACK
6
CONTINUOUS
10
0.5766572440944882
20
1.076683622047244
11
0.5717316929133858
21
1.0701611023622046
0
LINE
8
BLACK
6
CONTINUOUS
10
0.5717316929133858
20
1.0701611023622046
11
0.5656914960629921
21
1.0646547637795276
0
LINE
8
BLACK
6
CONTINUOUS
10
0.5656914960629921
20
1.0646547637795276
11
0.5587423622047244
21
1.0603520078740156
0
LINE
8
BLACK
6
CONTINUOUS
10
0.5587423622047244
20
1.0603520078740156
11
0.551120905511811
21
1.0573994488188976
0
LINE
8
BLACK
6
CONTINUOUS
10
0.551120905511811
20
1.0573994488188976
11
0.5430866929133858
21
1.0558975984251968
0
LINE
8
BLACK
6
CONTINUOUS
10
0.5430866929133858
20
1.0558975984251968
11
0.5349133070866141
21
1.0558975984251968
0
LINE
8
BLACK
6
CONTINUOUS
10
0.5349133070866141
20
1.0558975984251968
11
0.5268790944881889
21
1.0573994488188976
0
LINE
8
BLACK
6
CONTINUOUS
10
0.5268790944881889
20
1.0573994488188976
11
0.5192576377952756
21
1.0603520078740156
0
LINE
8
BLACK
6
CONTINUOUS
10
0.5192576377952756
20
1.0603520078740156
11
0.5123085039370079
21
1.0646547637795276
0
LINE
8
BLACK
6
CONTINUOUS
10
0.5123085039370079
20
1.0646547637795276
11
0.5062683070866142
21
1.0701611023622046
0
LINE
8
BLACK
6
CONTINUOUS
10
0.5062683070866142
20
1.0701611023622046
11
0.5013427559055118
21
1.076683622047244
0
LINE
8
BLACK
6
CONTINUOUS
10
0.5013427559055118
20
1.076683622047244
11
0.4976995669291339
21
1.0840001181102361
0
LINE
8
BLACK
6
CONTINUOUS
10
0.4976995669291339
20
1.0840001181102361
11
0.4954627952755906
21
1.0918614960629922
0
LINE
8
BLACK
6
CONTINUOUS
10
0.4954627952755906
20
1.0918614960629922
11
0.4947086614173228
21
1.0999999999999999
0
LINE
8
BLACK
6
CONTINUOUS
10
0.4947086614173228
20
1.0999999999999999
11
0.4954627952755906
21
1.1081385039370077
0
LINE
8
BLACK
6
CONTINUOUS
10
0.4954627952755906
20
1.1081385039370077
11
0.4976995669291339
21
1.1159998818897638
0
LINE
8
BLACK
6
CONTINUOUS
10
0.4976995669291339
20
1.1159998818897638
11
0.5013427559055118
21
1.123316377952756
0
LINE
8
BLACK
6
CONTINUOUS
10
0.5013427559055118
20
1.123316377952756
11
0.5062683070866142
21
1.1298388976377953
0
LINE
8
BLACK
6
CONTINUOUS
10
0.5062683070866142
20
1.1298388976377953
11
0.5123085039370079
21
1.1353452362204723
0
LINE
8
BLACK
6
CONTINUOUS
10
0.5123085039370079
20
1.1353452362204723
11
0.5192576377952756
21
1.1396479921259843
0
LINE
8
BLACK
6
CONTINUOUS
10
0.5192576377952756
20
1.1396479921259843
11
0.5268790944881889
21
1.1426005511811024
0
LINE
8
BLACK
6
CONTINUOUS
10
0.5268790944881889
20
1.1426005511811024
11
0.5349133070866141
21
1.1441024015748031
0
LINE
8
BLACK
6
CONTINUOUS
10
0.5349133070866141
20
1.1441024015748031
11
0.5430866929133858
21
1.1441024015748031
0
LINE
8
BLACK
6
CONTINUOUS
10
0.5430866929133858
20
1.1441024015748031
11
0.551120905511811
21
1.1426005511811024
0
LINE
8
BLACK
6
CONTINUOUS
10
2.2899999606299213
20
1.1299999999999999
11
2.2299999606299212
21
1.1299999999999999
0
LINE
8
BLACK
6
CONTINUOUS
10
2.2299999606299212
20
1.1299999999999999
11
2.2299999606299212
21
1.1899999999999999
0
LINE
8
BLACK
6
CONTINUOUS
10
2.2299999606299212
20
1.1899999999999999
11
2.2899999606299213
21
1.1899999999999999
0
LINE
8
BLACK
6
CONTINUOUS
10
2.2899999606299213
20
1.1899999999999999
11
2.2899999606299213
21
1.1299999999999999
0
LINE
8
BLACK
6
CONTINUOUS
10
2.3900000393700789
20
1.1299999999999999
11
2.3300000393700788
21
1.1299999999999999
0
LINE
8
BLACK
6
CONTINUOUS
10
2.3300000393700788
20
1.1299999999999999
11
2.3300000393700788
21
1.1899999999999999
0
LINE
8
BLACK
6
CONTINUOUS
10
2.3300000393700788
20
1.1899999999999999
11
2.3900000393700789
21
1.1899999999999999
0
LINE
8
BLACK
6
CONTINUOUS
10
2.3900000393700789
20
1.1899999999999999
11
2.3900000393700789
21
1.1299999999999999
0
LINE
8
BLACK
6
CONTINUOUS
10
2.2899999606299213
20
1.23
11
2.2299999606299212
21
1.23
0
LINE
8
BLACK
6
CONTINUOUS
10
2.2299999606299212
20
1.23
11
2.2299999606299212
21
1.29
0
LINE
8
BLACK
6
CONTINUOUS
10
2.2299999606299212
20
1.29
11
2.2899999606299213
21
1.29
0
LINE
8
BLACK
6
CONTINUOUS
10
2.2899999606299213
20
1.29
11
2.2899999606299213
21
1.23
0
LINE
8
BLACK
6
CONTINUOUS
10
2.3900000393700789
20
1.23
11
2.3300000393700788
21
1.23
0
LINE
8
BLACK
6
CONTINUOUS
10
2.3300000393700788
20
1.23
11
2.3300000393700788
21
1.29
0
LINE
8
BLACK
6
CONTINUOUS
10
2.3300000393700788
20
1.29
11
2.3900000393700789
21
1.29
0
LINE
8
BLACK
6
CONTINUOUS
10
2.3900000393700789
20
1.29
11
2.3900000393700789
21
1.23
0
LINE
8
BLACK
6
CONTINUOUS
10
1.77
20
1.3200000000000001
11
1.71
21
1.3200000000000001
0
LINE
8
BLACK
6
CONTINUOUS
10
1.71
20
1.3200000000000001
11
1.71
21
1.3799999999999999
0
LINE
8
BLACK
6
CONTINUOUS
10
1.71
20
1.3799999999999999
11
1.77
21
1.3799999999999999
0
LINE
8
BLACK
6
CONTINUOUS
10
1.77
20
1.3799999999999999
11
1.77
21
1.3200000000000001
0
LINE
8
BLACK
6
CONTINUOUS
10
1.8699999999999999
20
1.3200000000000001
11
1.8100000000000001
21
1.3200000000000001
0
LINE
8
BLACK
6
CONTINUOUS
10
1.8100000000000001
20
1.3200000000000001
11
1.8100000000000001
21
1.3799999999999999
0
LINE
8
BLACK
6
CONTINUOUS
10
1.8100000000000001
20
1.3799999999999999
11
1.8699999999999999
21
1.3799999999999999
0
LINE
8
BLACK
6
CONTINUOUS
10
1.8699999999999999
20
1.3799999999999999
11
1.8699999999999999
21
1.3200000000000001
0
LINE
8
BLACK
6
CONTINUOUS
10
2.2899999606299213
20
1.3300000000000001
11
2.2299999606299212
21
1.3300000000000001
0
LINE
8
BLACK
6
CONTINUOUS
10
2.2299999606299212
20
1.3300000000000001
11
2.2299999606299212
21
1.3899999999999999
0
LINE
8
BLACK
6
CONTINUOUS
10
2.2299999606299212
20
1.3899999999999999
11
2.2899999606299213
21
1.3899999999999999
0
LINE
8
BLACK
6
CONTINUOUS
10
2.2899999606299213
20
1.3899999999999999
11
2.2899999606299213
21
1.3300000000000001
0
LINE
8
BLACK
6
CONTINUOUS
10
2.3900000393700789
20
1.3300000000000001
11
2.3300000393700788
21
1.3300000000000001
0
LINE
8
BLACK
6
CONTINUOUS
10
2.3300000393700788
20
1.3300000000000001
11
2.3300000393700788
21
1.3899999999999999
0
LINE
8
BLACK
6
CONTINUOUS
10
2.3300000393700788
20
1.3899999999999999
11
2.3900000393700789
21
1.3899999999999999
0
LINE
8
BLACK
6
CONTINUOUS
10
2.3900000393700789
20
1.3899999999999999
11
2.3900000393700789
21
1.3300000000000001
0
LINE
8
BLACK
6
CONTINUOUS
10
0.4205096456692913
20
1.7163158661417321
11
0.4338744094488189
21
1.7131483858267715
0
LINE
8
BLACK
6
CONTINUOUS
10
0.4338744094488189
20
1.7131483858267715
11
0.446781062992126
21
1.7084507086614173
0
LINE
8
BLACK
6
CONTINUOUS
10
0.446781062992126
20
1.7084507086614173
11
0.4590551181102362
21
1.7022864566929135
0
LINE
8
BLACK
6
CONTINUOUS
10
0.4590551181102362
20
1.7022864566929135
11
0.4705305511811024
21
1.6947389763779528
0
LINE
8
BLACK
6
CONTINUOUS
10
0.4705305511811024
20
1.6947389763779528
11
0.4810521653543307
21
1.6859102755905511
0
LINE
8
BLACK
6
CONTINUOUS
10
0.4810521653543307
20
1.6859102755905511
11
0.4904776771653543
21
1.6759198031496063
0
LINE
8
BLACK
6
CONTINUOUS
10
0.4904776771653543
20
1.6759198031496063
11
0.4986796456692913
21
1.6649026377952756
0
LINE
8
BLACK
6
CONTINUOUS
10
0.4986796456692913
20
1.6649026377952756
11
0.5055471653543308
21
1.6530077952755906
0
LINE
8
BLACK
6
CONTINUOUS
10
0.5055471653543308
20
1.6530077952755906
11
0.5109873228346457
21
1.6403960629921259
0
LINE
8
BLACK
6
CONTINUOUS
10
0.5109873228346457
20
1.6403960629921259
11
0.5149265748031496
21
1.6272381102362203
0
LINE
8
BLACK
6
CONTINUOUS
10
0.5149265748031496
20
1.6272381102362203
11
0.5173116141732284
21
1.6137117716535432
0
LINE
8
BLACK
6
CONTINUOUS
10
0.5173116141732284
20
1.6137117716535432
11
0.5181102362204725
21
1.5999999999999999
0
LINE
8
BLACK
6
CONTINUOUS
10
0.5181102362204725
20
1.5999999999999999
11
0.5173116141732284
21
1.5862882283464566
0
LINE
8
BLACK
6
CONTINUOUS
10
0.5173116141732284
20
1.5862882283464566
11
0.5149265748031496
21
1.5727618897637794
0
LINE
8
BLACK
6
CONTINUOUS
10
0.5149265748031496
20
1.5727618897637794
11
0.5109873228346457
21
1.559603937007874
0
LINE
8
BLACK
6
CONTINUOUS
10
0.5109873228346457
20
1.559603937007874
11
0.5055471653543308
21
1.5469922047244093
0
LINE
8
BLACK
6
CONTINUOUS
10
0.5055471653543308
20
1.5469922047244093
11
0.4986796456692913
21
1.5350973622047244
0
LINE
8
BLACK
6
CONTINUOUS
10
0.4986796456692913
20
1.5350973622047244
11
0.4904776771653543
21
1.5240801968503936
0
LINE
8
BLACK
6
CONTINUOUS
10
0.4904776771653543
20
1.5240801968503936
11
0.4810521653543307
21
1.5140897244094489
0
LINE
8
BLACK
6
CONTINUOUS
10
0.4810521653543307
20
1.5140897244094489
11
0.4705305511811024
21
1.5052610236220472
0
LINE
8
BLACK
6
CONTINUOUS
10
0.4705305511811024
20
1.5052610236220472
11
0.4590551181102362
21
1.4977135433070865
0
LINE
8
BLACK
6
CONTINUOUS
10
0.4590551181102362
20
1.4977135433070865
11
0.446781062992126
21
1.4915492913385826
0
LINE
8
BLACK
6
CONTINUOUS
10
0.446781062992126
20
1.4915492913385826
11
0.4338744094488189
21
1.4868516141732284
0
LINE
8
BLACK
6
CONTINUOUS
10
0.4338744094488189
20
1.4868516141732284
11
0.4205096456692913
21
1.4836841338582676
0
LINE
8
BLACK
6
CONTINUOUS
10
0.4205096456692913
20
1.4836841338582676
11
0.4068674803149606
21
1.4820896062992126
0
LINE
8
BLACK
6
CONTINUOUS
10
0.4068674803149606
20
1.4820896062992126
11
0.3931325196850394
21
1.4820896062992126
0
LINE
8
BLACK
6
CONTINUOUS
10
0.3931325196850394
20
1.4820896062992126
11
0.3794903543307087
21
1.4836841338582676
0
LINE
8
BLACK
6
CONTINUOUS
10
0.3794903543307087
20
1.4836841338582676
11
0.3661255905511811
21
1.4868516141732284
0
LINE
8
BLACK
6
CONTINUOUS
10
0.3661255905511811
20
1.4868516141732284
11
0.353218937007874
21
1.4915492913385826
0
LINE
8
BLACK
6
CONTINUOUS
10
0.353218937007874
20
1.4915492913385826
11
0.3409448818897638
21
1.4977135433070865
0
LINE
8
BLACK
6
CONTINUOUS
10
0.3409448818897638
20
1.4977135433070865
11
0.3294694488188976
21
1.5052610236220472
0
LINE
8
BLACK
6
CONTINUOUS
10
0.3294694488188976
20
1.5052610236220472
11
0.3189478346456693
21
1.5140897244094489
0
LINE
8
BLACK
6
CONTINUOUS
10
0.3189478346456693
20
1.5140897244094489
11
0.3095223228346456
21
1.5240801968503936
0
LINE
8
BLACK
6
CONTINUOUS
10
0.3095223228346456
20
1.5240801968503936
11
0.3013203543307086
21
1.5350973622047244
0
LINE
8
BLACK
6
CONTINUOUS
10
0.3013203543307086
20
1.5350973622047244
11
0.2944528346456693
21
1.5469922047244093
0
LINE
8
BLACK
6
CONTINUOUS
10
0.2944528346456693
20
1.5469922047244093
11
0.2890126771653543
21
1.559603937007874
0
LINE
8
BLACK
6
CONTINUOUS
10
0.2890126771653543
20
1.559603937007874
11
0.2850734251968504
21
1.5727618897637794
0
LINE
8
BLACK
6
CONTINUOUS
10
0.2850734251968504
20
1.5727618897637794
11
0.2826883858267716
21
1.5862882283464566
0
LINE
8
BLACK
6
CONTINUOUS
10
0.2826883858267716
20
1.5862882283464566
11
0.2818897637795276
21
1.5999999999999999
0
LINE
8
BLACK
6
CONTINUOUS
10
0.2818897637795276
20
1.5999999999999999
11
0.2826883858267716
21
1.6137117716535432
0
LINE
8
BLACK
6
CONTINUOUS
10
0.2826883858267716
20
1.6137117716535432
11
0.2850734251968504
21
1.6272381102362203
0
LINE
8
BLACK
6
CONTINUOUS
10
0.2850734251968504
20
1.6272381102362203
11
0.2890126771653543
21
1.6403960629921259
0
LINE
8
BLACK
6
CONTINUOUS
10
0.2890126771653543
20
1.6403960629921259
11
0.2944528346456693
21
1.6530077952755906
0
LINE
8
BLACK
6
CONTINUOUS
10
0.2944528346456693
20
1.6530077952755906
11
0.3013203543307086
21
1.6649026377952756
0
LINE
8
BLACK
6
CONTINUOUS
10
0.3013203543307086
20
1.6649026377952756
11
0.3095223228346456
21
1.6759198031496063
0
LINE
8
BLACK
6
CONTINUOUS
10
0.3095223228346456
20
1.6759198031496063
11
0.3189478346456693
21
1.6859102755905511
0
LINE
8
BLACK
6
CONTINUOUS
10
0.3189478346456693
20
1.6859102755905511
11
0.3294694488188976
21
1.6947389763779528
0
LINE
8
BLACK
6
CONTINUOUS
10
0.3294694488188976
20
1.6947389763779528
11
0.3409448818897638
21
1.7022864566929135
0
LINE
8
BLACK
6
CONTINUOUS
10
0.3409448818897638
20
1.7022864566929135
11
0.353218937007874
21
1.7084507086614173
0
LINE
8
BLACK
6
CONTINUOUS
10
0.353218937007874
20
1.7084507086614173
11
0.3661255905511811
21
1.7131483858267715
0
LINE
8
BLACK
6
CONTINUOUS
10
0.3661255905511811
20
1.7131483858267715
11
0.3794903543307087
21
1.7163158661417321
0
LINE
8
BLACK
6
CONTINUOUS
10
0.3794903543307087
20
1.7163158661417321
11
0.3931325196850394
21
1.7179103937007874
0
LINE
8
BLACK
6
CONTINUOUS
10
0.3931325196850394
20
1.7179103937007874
11
0.4068674803149606
21
1.7179103937007874
0
LINE
8
BLACK
6
CONTINUOUS
10
0.4068674803149606
20
1.7179103937007874
11
0.4205096456692913
21
1.7163158661417321
0
LINE
8
BLACK
6
CONTINUOUS
10
2.4205096456692914
20
1.7163158661417321
11
2.4338744094488187
21
1.7131483858267715
0
LINE
8
BLACK
6
CONTINUOUS
10
2.4338744094488187
20
1.7131483858267715
11
2.4467810629921258
21
1.7084507086614173
0
LINE
8
BLACK
6
CONTINUOUS
10
2.4467810629921258
20
1.7084507086614173
11
2.459055118110236
21
1.7022864566929135
0
LINE
8
BLACK
6
CONTINUOUS
10
2.459055118110236
20
1.7022864566929135
11
2.4705305511811022
21
1.6947389763779528
0
LINE
8
BLACK
6
CONTINUOUS
10
2.4705305511811022
20
1.6947389763779528
11
2.4810521653543307
21
1.6859102755905511
0
LINE
8
BLACK
6
CONTINUOUS
10
2.4810521653543307
20
1.6859102755905511
11
2.4904776771653543
21
1.6759198031496063
0
LINE
8
BLACK
6
CONTINUOUS
10
2.4904776771653543
20
1.6759198031496063
11
2.4986796456692915
21
1.6649026377952756
0
LINE
8
BLACK
6
CONTINUOUS
10
2.4986796456692915
20
1.6649026377952756
11
2.5055471653543306
21
1.6530077952755906
0
LINE
8
BLACK
6
CONTINUOUS
10
2.5055471653543306
20
1.6530077952755906
11
2.5109873228346458
21
1.6403960629921259
0
LINE
8
BLACK
6
CONTINUOUS
10
2.5109873228346458
20
1.6403960629921259
11
2.5149265748031495
21
1.6272381102362203
0
LINE
8
BLACK
6
CONTINUOUS
10
2.5149265748031495
20
1.6272381102362203
11
2.5173116141732281
21
1.6137117716535432
0
LINE
8
BLACK
6
CONTINUOUS
10
2.5173116141732281
20
1.6137117716535432
11
2.5181102362204726
21
1.5999999999999999
0
LINE
8
BLACK
6
CONTINUOUS
10
2.5181102362204726
20
1.5999999999999999
11
2.5173116141732281
21
1.5862882283464566
0
LINE
8
BLACK
6
CONTINUOUS
10
2.5173116141732281
20
1.5862882283464566
11
2.5149265748031495
21
1.5727618897637794
0
LINE
8
BLACK
6
CONTINUOUS
10
2.5149265748031495
20
1.5727618897637794
11
2.5109873228346458
21
1.559603937007874
0
LINE
8
BLACK
6
CONTINUOUS
10
2.5109873228346458
20
1.559603937007874
11
2.5055471653543306
21
1.5469922047244093
0
LINE
8
BLACK
6
CONTINUOUS
10
2.5055471653543306
20
1.5469922047244093
11
2.4986796456692915
21
1.5350973622047244
0
LINE
8
BLACK
6
CONTINUOUS
10
2.4986796456692915
20
1.5350973622047244
11
2.4904776771653543
21
1.5240801968503936
0
LINE
8
BLACK
6
CONTINUOUS
10
2.4904776771653543
20
1.5240801968503936
11
2.4810521653543307
21
1.5140897244094489
0
LINE
8
BLACK
6
CONTINUOUS
10
2.4810521653543307
20
1.5140897244094489
11
2.4705305511811022
21
1.5052610236220472
0
LINE
8
BLACK
6
CONTINUOUS
10
2.4705305511811022
20
1.5052610236220472
11
2.459055118110236
21
1.4977135433070865
0
LINE
8
BLACK
6
CONTINUOUS
10
2.459055118110236
20
1.4977135433070865
11
2.4467810629921258
21
1.4915492913385826
0
LINE
8
BLACK
6
CONTINUOUS
10
2.4467810629921258
20
1.4915492913385826
11
2.4338744094488187
21
1.4868516141732284
0
LINE
8
BLACK
6
CONTINUOUS
10
2.4338744094488187
20
1.4868516141732284
11
2.4205096456692914
21
1.4836841338582676
0
LINE
8
BLACK
6
CONTINUOUS
10
2.4205096456692914
20
1.4836841338582676
11
2.4068674803149608
21
1.4820896062992126
0
LINE
8
BLACK
6
CONTINUOUS
10
2.4068674803149608
20
1.4820896062992126
11
2.3931325196850395
21
1.4820896062992126
0
LINE
8
BLACK
6
CONTINUOUS
10
2.3931325196850395
20
1.4820896062992126
11
2.3794903543307084
21
1.4836841338582676
0
LINE
8
BLACK
6
CONTINUOUS
10
2.3794903543307084
20
1.4836841338582676
11
2.3661255905511811
21
1.4868516141732284
0
LINE
8
BLACK
6
CONTINUOUS
10
2.3661255905511811
20
1.4868516141732284
11
2.353218937007874
21
1.4915492913385826
0
LINE
8
BLACK
6
CONTINUOUS
10
2.353218937007874
20
1.4915492913385826
11
2.3409448818897638
21
1.4977135433070865
0
LINE
8
BLACK
6
CONTINUOUS
10
2.3409448818897638
20
1.4977135433070865
11
2.3294694488188976
21
1.5052610236220472
0
LINE
8
BLACK
6
CONTINUOUS
10
2.3294694488188976
20
1.5052610236220472
11
2.3189478346456691
21
1.5140897244094489
0
LINE
8
BLACK
6
CONTINUOUS
10
2.3189478346456691
20
1.5140897244094489
11
2.3095223228346455
21
1.5240801968503936
0
LINE
8
BLACK
6
CONTINUOUS
10
2.3095223228346455
20
1.5240801968503936
11
2.3013203543307088
21
1.5350973622047244
0
LINE
8
BLACK
6
CONTINUOUS
10
2.3013203543307088
20
1.5350973622047244
11
2.2944528346456692
21
1.5469922047244093
0
LINE
8
BLACK
6
CONTINUOUS
10
2.2944528346456692
20
1.5469922047244093
11
2.2890126771653541
21
1.559603937007874
0
LINE
8
BLACK
6
CONTINUOUS
10
2.2890126771653541
20
1.559603937007874
11
2.2850734251968503
21
1.5727618897637794
0
LINE
8
BLACK
6
CONTINUOUS
10
2.2850734251968503
20
1.5727618897637794
11
2.2826883858267717
21
1.5862882283464566
0
LINE
8
BLACK
6
CONTINUOUS
10
2.2826883858267717
20
1.5862882283464566
11
2.2818897637795277
21
1.5999999999999999
0
LINE
8
BLACK
6
CONTINUOUS
10
2.2818897637795277
20
1.5999999999999999
11
2.2826883858267717
21
1.6137117716535432
0
LINE
8
BLACK
6
CONTINUOUS
10
2.2826883858267717
20
1.6137117716535432
11
2.2850734251968503
21
1.6272381102362203
0
LINE
8
BLACK
6
CONTINUOUS
10
2.2850734251968503
20
1.6272381102362203
11
2.2890126771653541
21
1.6403960629921259
0
LINE
8
BLACK
6
CONTINUOUS
10
2.2890126771653541
20
1.6403960629921259
11
2.2944528346456692
21
1.6530077952755906
0
LINE
8
BLACK
6
CONTINUOUS
10
2.2944528346456692
20
1.6530077952755906
11
2.3013203543307088
21
1.6649026377952756
0
LINE
8
BLACK
6
CONTINUOUS
10
2.3013203543307088
20
1.6649026377952756
11
2.3095223228346455
21
1.6759198031496063
0
LINE
8
BLACK
6
CONTINUOUS
10
2.3095223228346455
20
1.6759198031496063
11
2.3189478346456691
21
1.6859102755905511
0
LINE
8
BLACK
6
CONTINUOUS
10
2.3189478346456691
20
1.6859102755905511
11
2.3294694488188976
21
1.6947389763779528
0
LINE
8
BLACK
6
CONTINUOUS
10
2.3294694488188976
20
1.6947389763779528
11
2.3409448818897638
21
1.7022864566929135
0
LINE
8
BLACK
6
CONTINUOUS
10
2.3409448818897638
20
1.7022864566929135
11
2.353218937007874
21
1.7084507086614173
0
LINE
8
BLACK
6
CONTINUOUS
10
2.353218937007874
20
1.7084507086614173
11
2.3661255905511811
21
1.7131483858267715
0
LINE
8
BLACK
6
CONTINUOUS
10
2.3661255905511811
20
1.7131483858267715
11
2.3794903543307084
21
1.7163158661417321
0
LINE
8
BLACK
6
CONTINUOUS
10
2.3794903543307084
20
1.7163158661417321
11
2.3931325196850395
21
1.7179103937007874
0
LINE
8
BLACK
6
CONTINUOUS
10
2.3931325196850395
20
1.7179103937007874
11
2.4068674803149608
21
1.7179103937007874
0
LINE
8
BLACK
6
CONTINUOUS
10
2.4068674803149608
20
1.7179103937007874
11
2.4205096456692914
21
1.7163158661417321
0
CIRCLE
8
BLACK
10
2.3999999999999999
20
0.4
40
0.0068897637795276
0
CIRCLE
8
BLACK
10
0.4
20
0.4
40
0.0068897637795276
0
CIRCLE
8
BLACK
10
0.4
20
1.5999999999999999
40
0.0068897637795276
0
CIRCLE
8
BLACK
10
2.3600000393700786
20
1.3599999999999999
40
0.0068897637795276
0
CIRCLE
8
BLACK
10
2.259999960629921
20
1.3599999999999999
40
0.0068897637795276
0
CIRCLE
8
BLACK
10
2.3600000393700786
20
1.26
40
0.0068897637795276
0
CIRCLE
8
BLACK
10
2.259999960629921
20
1.26
40
0.0068897637795276
0
CIRCLE
8
BLACK
10
2.3999999999999999
20
1.5999999999999999
40
0.0068897637795276
0
CIRCLE
8
BLACK
10
2.3600000393700786
20
1.0600000000000001
40
0.0068897637795276
0
CIRCLE
8
BLACK
10
2.259999960629921
20
1.0600000000000001
40
0.0068897637795276
0
CIRCLE
8
BLACK
10
2.2599999999999998
20
0.89
40
0.0068897637795276
0
CIRCLE
8
BLACK
10
2.3599999999999999
20
0.89
40
0.0068897637795276
0
CIRCLE
8
BLACK
10
2.2599999999999998
20
0.79
40
0.0068897637795276
0
CIRCLE
8
BLACK
10
2.3599999999999999
20
0.79
40
0.0068897637795276
0
CIRCLE
8
BLACK
10
2.2599999999999998
20
0.6899999999999999
40
0.0068897637795276
0
CIRCLE
8
BLACK
10
2.3599999999999999
20
0.6899999999999999
40
0.0068897637795276
0
CIRCLE
8
BLACK
10
2.3600000393700786
20
1.1599999999999999
40
0.0068897637795276
0
CIRCLE
8
BLACK
10
2.259999960629921
20
1.1599999999999999
40
0.0068897637795276
0
CIRCLE
8
BLACK
10
0.439
20
1.
40
0.0068897637795276
0
CIRCLE
8
BLACK
10
0.339
20
1.0999999999999999
40
0.0068897637795276
0
CIRCLE
8
BLACK
10
0.339
20
0.9
40
0.0068897637795276
0
CIRCLE
8
BLACK
10
0.539
20
1.0999999999999999
40
0.0068897637795276
0
CIRCLE
8
BLACK
10
0.539
20
0.9
40
0.0068897637795276
0
CIRCLE
8
BLACK
10
1.74
20
1.3499999999999999
40
0.0068897637795276
0
CIRCLE
8
BLACK
10
1.8399999999999999
20
1.3499999999999999
40
0.0068897637795276
  0
ENDSEC
  0
EOF
