  0
SECTION
  2
HEADER
  9
$ANGBASE
  50
0.0
  9
$ANGDIR
  70
1
  9
$MEASUREMENT
  70
0
  0
ENDSEC
  0
SECTION
  2
TABLES
  0
TABLE
  2
LTYPE
  70
4
  0
LTYPE
  5
40F
  2
CONTINUOUS
  70
0
  3
Solid line
  72
65
  73
0
  40
0.0
  0
LTYPE
  5
410
  2
DASHDOT
 70
0
  3
Dash Dot ____ _ ____ _
 72
65
 73
4
 40
2.0
 49
1.25
 49
-0.25
 49
0.25
 49
-0.25
  0
LTYPE
  5
411
  2
DASHED
 70
0
  3
Dashed __ __ __ __ __
 72
65
 73
2
 40
0.75
 49
0.5
 49
-0.25
  0
LTYPE
  5
43B
  2
DOTTED
 70
0
  3
Dotted .  .  .  .
 72
65
 73
2
 40
0.2
 49
0.0
 49
-0.2
  0
ENDTAB
  0
TABLE
  2
STYLE
  70
4
  0
STYLE
  2
KICAD
  70
0
  40
0
  41
1
  42
1
  50
0
  71
0
  3
isocp.shx
  0
STYLE
  2
KICADB
  70
0
  40
0
  41
1
  42
1
  50
0
  71
0
  3
isocp.shx
  0
STYLE
  2
KICADI
  70
0
  40
0
  41
1
  42
1
  50
15
  71
0
  3
isocp.shx
  0
STYLE
  2
KICADBI
  70
0
  40
0
  41
1
  42
1
  50
15
  71
0
  3
isocp.shx
  0
ENDTAB
  0
TABLE
  2
LAYER
  70
1
  0
LAYER
  2
BLACK
  70
0
  62
7
  6
CONTINUOUS
  0
ENDTAB
  0
ENDSEC
  0
SECTION
  2
ENTITIES
0
LINE
8
BLACK
6
CONTINUOUS
10
0.4201122047244095
20
0.5183720472440945
11
0.4332392125984252
21
0.515375905511811
0
LINE
8
BLACK
6
CONTINUOUS
10
0.4332392125984252
20
0.515375905511811
11
0.4459482283464567
21
0.5109288188976377
0
LINE
8
BLACK
6
CONTINUOUS
10
0.4459482283464567
20
0.5109288188976377
11
0.4580794094488189
21
0.5050867716535433
0
LINE
8
BLACK
6
CONTINUOUS
10
0.4580794094488189
20
0.5050867716535433
11
0.4694801968503937
21
0.4979231889763779
0
LINE
8
BLACK
6
CONTINUOUS
10
0.4694801968503937
20
0.4979231889763779
11
0.4800072440944882
21
0.4895281496062992
0
LINE
8
BLACK
6
CONTINUOUS
10
0.4800072440944882
20
0.4895281496062992
11
0.4895281496062992
21
0.4800072440944882
0
LINE
8
BLACK
6
CONTINUOUS
10
0.4895281496062992
20
0.4800072440944882
11
0.4979231889763779
21
0.4694801968503937
0
LINE
8
BLACK
6
CONTINUOUS
10
0.4979231889763779
20
0.4694801968503937
11
0.5050867716535433
21
0.4580794094488189
0
LINE
8
BLACK
6
CONTINUOUS
10
0.5050867716535433
20
0.4580794094488189
11
0.5109288188976377
21
0.4459482283464567
0
LINE
8
BLACK
6
CONTINUOUS
10
0.5109288188976377
20
0.4459482283464567
11
0.515375905511811
21
0.4332392125984252
0
LINE
8
BLACK
6
CONTINUOUS
10
0.515375905511811
20
0.4332392125984252
11
0.5183720472440945
21
0.4201122047244095
0
LINE
8
BLACK
6
CONTINUOUS
10
0.5183720472440945
20
0.4201122047244095
11
0.5198796062992126
21
0.4067322834645669
0
LINE
8
BLACK
6
CONTINUOUS
10
0.5198796062992126
20
0.4067322834645669
11
0.5198796062992126
21
0.3932677165354331
0
LINE
8
BLACK
6
CONTINUOUS
10
0.5198796062992126
20
0.3932677165354331
11
0.5183720472440945
21
0.3798877952755905
0
LINE
8
BLACK
6
CONTINUOUS
10
0.5183720472440945
20
0.3798877952755905
11
0.515375905511811
21
0.3667607874015748
0
LINE
8
BLACK
6
CONTINUOUS
10
0.515375905511811
20
0.3667607874015748
11
0.5109288188976377
21
0.3540517716535433
0
LINE
8
BLACK
6
CONTINUOUS
10
0.5109288188976377
20
0.3540517716535433
11
0.5050867716535433
21
0.3419205905511811
0
LINE
8
BLACK
6
CONTINUOUS
10
0.5050867716535433
20
0.3419205905511811
11
0.4979231889763779
21
0.3305198031496063
0
LINE
8
BLACK
6
CONTINUOUS
10
0.4979231889763779
20
0.3305198031496063
11
0.4895281496062992
21
0.3199927559055118
0
LINE
8
BLACK
6
CONTINUOUS
10
0.4895281496062992
20
0.3199927559055118
11
0.4800072440944882
21
0.3104718503937008
0
LINE
8
BLACK
6
CONTINUOUS
10
0.4800072440944882
20
0.3104718503937008
11
0.4694801968503937
21
0.302076811023622
0
LINE
8
BLACK
6
CONTINUOUS
10
0.4694801968503937
20
0.302076811023622
11
0.4580794094488189
21
0.2949132283464567
0
LINE
8
BLACK
6
CONTINUOUS
10
0.4580794094488189
20
0.2949132283464567
11
0.4459482283464567
21
0.2890711811023622
0
LINE
8
BLACK
6
CONTINUOUS
10
0.4459482283464567
20
0.2890711811023622
11
0.4332392125984252
21
0.284624094488189
0
LINE
8
BLACK
6
CONTINUOUS
10
0.4332392125984252
20
0.284624094488189
11
0.4201122047244095
21
0.2816279527559055
0
LINE
8
BLACK
6
CONTINUOUS
10
0.4201122047244095
20
0.2816279527559055
11
0.4067322834645669
21
0.2801203937007874
0
LINE
8
BLACK
6
CONTINUOUS
10
0.4067322834645669
20
0.2801203937007874
11
0.3932677165354331
21
0.2801203937007874
0
LINE
8
BLACK
6
CONTINUOUS
10
0.3932677165354331
20
0.2801203937007874
11
0.3798877952755905
21
0.2816279527559055
0
LINE
8
BLACK
6
CONTINUOUS
10
0.3798877952755905
20
0.2816279527559055
11
0.3667607874015748
21
0.284624094488189
0
LINE
8
BLACK
6
CONTINUOUS
10
0.3667607874015748
20
0.284624094488189
11
0.3540517716535433
21
0.2890711811023622
0
LINE
8
BLACK
6
CONTINUOUS
10
0.3540517716535433
20
0.2890711811023622
11
0.3419205905511811
21
0.2949132283464567
0
LINE
8
BLACK
6
CONTINUOUS
10
0.3419205905511811
20
0.2949132283464567
11
0.3305198031496063
21
0.302076811023622
0
LINE
8
BLACK
6
CONTINUOUS
10
0.3305198031496063
20
0.302076811023622
11
0.3199927559055118
21
0.3104718503937008
0
LINE
8
BLACK
6
CONTINUOUS
10
0.3199927559055118
20
0.3104718503937008
11
0.3104718503937008
21
0.3199927559055118
0
LINE
8
BLACK
6
CONTINUOUS
10
0.3104718503937008
20
0.3199927559055118
11
0.302076811023622
21
0.3305198031496063
0
LINE
8
BLACK
6
CONTINUOUS
10
0.302076811023622
20
0.3305198031496063
11
0.2949132283464567
21
0.3419205905511811
0
LINE
8
BLACK
6
CONTINUOUS
10
0.2949132283464567
20
0.3419205905511811
11
0.2890711811023622
21
0.3540517716535433
0
LINE
8
BLACK
6
CONTINUOUS
10
0.2890711811023622
20
0.3540517716535433
11
0.284624094488189
21
0.3667607874015748
0
LINE
8
BLACK
6
CONTINUOUS
10
0.284624094488189
20
0.3667607874015748
11
0.2816279527559055
21
0.3798877952755905
0
LINE
8
BLACK
6
CONTINUOUS
10
0.2816279527559055
20
0.3798877952755905
11
0.2801203937007874
21
0.3932677165354331
0
LINE
8
BLACK
6
CONTINUOUS
10
0.2801203937007874
20
0.3932677165354331
11
0.2801203937007874
21
0.4065218110236221
0
LINE
8
BLACK
6
CONTINUOUS
10
0.2801203937007874
20
0.4065218110236221
11
0.2801203937007874
21
0.4067322834645669
0
LINE
8
BLACK
6
CONTINUOUS
10
0.2801203937007874
20
0.4067322834645669
11
0.2816279527559055
21
0.4201122047244095
0
LINE
8
BLACK
6
CONTINUOUS
10
0.2816279527559055
20
0.4201122047244095
11
0.284624094488189
21
0.4332392125984252
0
LINE
8
BLACK
6
CONTINUOUS
10
0.284624094488189
20
0.4332392125984252
11
0.2890711811023622
21
0.4459482283464567
0
LINE
8
BLACK
6
CONTINUOUS
10
0.2890711811023622
20
0.4459482283464567
11
0.2949132283464567
21
0.4580794094488189
0
LINE
8
BLACK
6
CONTINUOUS
10
0.2949132283464567
20
0.4580794094488189
11
0.302076811023622
21
0.4694801968503937
0
LINE
8
BLACK
6
CONTINUOUS
10
0.302076811023622
20
0.4694801968503937
11
0.3104718503937008
21
0.4800072440944882
0
LINE
8
BLACK
6
CONTINUOUS
10
0.3104718503937008
20
0.4800072440944882
11
0.3199927559055118
21
0.4895281496062992
0
LINE
8
BLACK
6
CONTINUOUS
10
0.3199927559055118
20
0.4895281496062992
11
0.3305198031496063
21
0.4979231889763779
0
LINE
8
BLACK
6
CONTINUOUS
10
0.3305198031496063
20
0.4979231889763779
11
0.3419205905511811
21
0.5050867716535433
0
LINE
8
BLACK
6
CONTINUOUS
10
0.3419205905511811
20
0.5050867716535433
11
0.3540517716535433
21
0.5109288188976377
0
LINE
8
BLACK
6
CONTINUOUS
10
0.3540517716535433
20
0.5109288188976377
11
0.3667607874015748
21
0.515375905511811
0
LINE
8
BLACK
6
CONTINUOUS
10
0.3667607874015748
20
0.515375905511811
11
0.3798877952755905
21
0.5183720472440945
0
LINE
8
BLACK
6
CONTINUOUS
10
0.3798877952755905
20
0.5183720472440945
11
0.3932677165354331
21
0.5198796062992126
0
LINE
8
BLACK
6
CONTINUOUS
10
0.3932677165354331
20
0.5198796062992126
11
0.4067322834645669
21
0.5198796062992126
0
LINE
8
BLACK
6
CONTINUOUS
10
0.4067322834645669
20
0.5198796062992126
11
0.4201122047244095
21
0.5183720472440945
0
LINE
8
BLACK
6
CONTINUOUS
10
0.2838685039370079
20
0.3934781889763779
11
0.2853288976377953
21
0.3805166141732284
0
LINE
8
BLACK
6
CONTINUOUS
10
0.2853288976377953
20
0.3805166141732284
11
0.2882313779527559
21
0.3678
0
LINE
8
BLACK
6
CONTINUOUS
10
0.2882313779527559
20
0.3678
11
0.2925394094488189
21
0.3554883858267717
0
LINE
8
BLACK
6
CONTINUOUS
10
0.2925394094488189
20
0.3554883858267717
11
0.2981988188976378
21
0.3437364960629921
0
LINE
8
BLACK
6
CONTINUOUS
10
0.2981988188976378
20
0.3437364960629921
11
0.3051384645669291
21
0.332692125984252
0
LINE
8
BLACK
6
CONTINUOUS
10
0.3051384645669291
20
0.332692125984252
11
0.3132710236220472
21
0.322494251968504
0
LINE
8
BLACK
6
CONTINUOUS
10
0.3132710236220472
20
0.322494251968504
11
0.322494251968504
21
0.3132710236220472
0
LINE
8
BLACK
6
CONTINUOUS
10
0.322494251968504
20
0.3132710236220472
11
0.332692125984252
21
0.3051384645669291
0
LINE
8
BLACK
6
CONTINUOUS
10
0.332692125984252
20
0.3051384645669291
11
0.3437364960629921
21
0.2981988188976378
0
LINE
8
BLACK
6
CONTINUOUS
10
0.3437364960629921
20
0.2981988188976378
11
0.3554883858267717
21
0.2925394094488189
0
LINE
8
BLACK
6
CONTINUOUS
10
0.3554883858267717
20
0.2925394094488189
11
0.3678
21
0.2882313779527559
0
LINE
8
BLACK
6
CONTINUOUS
10
0.3678
20
0.2882313779527559
11
0.3805166141732284
21
0.2853288976377953
0
LINE
8
BLACK
6
CONTINUOUS
10
0.3805166141732284
20
0.2853288976377953
11
0.3934781889763779
21
0.2838685039370079
0
LINE
8
BLACK
6
CONTINUOUS
10
0.3934781889763779
20
0.2838685039370079
11
0.4065218110236221
21
0.2838685039370079
0
LINE
8
BLACK
6
CONTINUOUS
10
0.4065218110236221
20
0.2838685039370079
11
0.4194833858267716
21
0.2853288976377953
0
LINE
8
BLACK
6
CONTINUOUS
10
0.4194833858267716
20
0.2853288976377953
11
0.4322
21
0.2882313779527559
0
LINE
8
BLACK
6
CONTINUOUS
10
0.4322
20
0.2882313779527559
11
0.4445116141732283
21
0.2925394094488189
0
LINE
8
BLACK
6
CONTINUOUS
10
0.4445116141732283
20
0.2925394094488189
11
0.4562635039370079
21
0.2981988188976378
0
LINE
8
BLACK
6
CONTINUOUS
10
0.4562635039370079
20
0.2981988188976378
11
0.467307874015748
21
0.3051384645669291
0
LINE
8
BLACK
6
CONTINUOUS
10
0.467307874015748
20
0.3051384645669291
11
0.477505748031496
21
0.3132710236220472
0
LINE
8
BLACK
6
CONTINUOUS
10
0.477505748031496
20
0.3132710236220472
11
0.4867289763779528
21
0.322494251968504
0
LINE
8
BLACK
6
CONTINUOUS
10
0.4867289763779528
20
0.322494251968504
11
0.4948615354330709
21
0.332692125984252
0
LINE
8
BLACK
6
CONTINUOUS
10
0.4948615354330709
20
0.332692125984252
11
0.5018011811023622
21
0.3437364960629921
0
LINE
8
BLACK
6
CONTINUOUS
10
0.5018011811023622
20
0.3437364960629921
11
0.5074605905511811
21
0.3554883858267717
0
LINE
8
BLACK
6
CONTINUOUS
10
0.5074605905511811
20
0.3554883858267717
11
0.511768622047244
21
0.3678
0
LINE
8
BLACK
6
CONTINUOUS
10
0.511768622047244
20
0.3678
11
0.5146711023622047
21
0.3805166141732284
0
LINE
8
BLACK
6
CONTINUOUS
10
0.5146711023622047
20
0.3805166141732284
11
0.5161314960629921
21
0.3934781889763779
0
LINE
8
BLACK
6
CONTINUOUS
10
0.5161314960629921
20
0.3934781889763779
11
0.5161314960629921
21
0.4065218110236221
0
LINE
8
BLACK
6
CONTINUOUS
10
0.5161314960629921
20
0.4065218110236221
11
0.5146711023622047
21
0.4194833858267716
0
LINE
8
BLACK
6
CONTINUOUS
10
0.5146711023622047
20
0.4194833858267716
11
0.511768622047244
21
0.4322
0
LINE
8
BLACK
6
CONTINUOUS
10
0.511768622047244
20
0.4322
11
0.5074605905511811
21
0.4445116141732283
0
LINE
8
BLACK
6
CONTINUOUS
10
0.5074605905511811
20
0.4445116141732283
11
0.5018011811023622
21
0.4562635039370079
0
LINE
8
BLACK
6
CONTINUOUS
10
0.5018011811023622
20
0.4562635039370079
11
0.4948615354330709
21
0.467307874015748
0
LINE
8
BLACK
6
CONTINUOUS
10
0.4948615354330709
20
0.467307874015748
11
0.4867289763779528
21
0.477505748031496
0
LINE
8
BLACK
6
CONTINUOUS
10
0.4867289763779528
20
0.477505748031496
11
0.477505748031496
21
0.4867289763779528
0
LINE
8
BLACK
6
CONTINUOUS
10
0.477505748031496
20
0.4867289763779528
11
0.467307874015748
21
0.4948615354330709
0
LINE
8
BLACK
6
CONTINUOUS
10
0.467307874015748
20
0.4948615354330709
11
0.4562635039370079
21
0.5018011811023622
0
LINE
8
BLACK
6
CONTINUOUS
10
0.4562635039370079
20
0.5018011811023622
11
0.4445116141732283
21
0.5074605905511811
0
LINE
8
BLACK
6
CONTINUOUS
10
0.4445116141732283
20
0.5074605905511811
11
0.4322
21
0.511768622047244
0
LINE
8
BLACK
6
CONTINUOUS
10
0.4322
20
0.511768622047244
11
0.4194833858267716
21
0.5146711023622047
0
LINE
8
BLACK
6
CONTINUOUS
10
0.4194833858267716
20
0.5146711023622047
11
0.4065218110236221
21
0.5161314960629921
0
LINE
8
BLACK
6
CONTINUOUS
10
0.4065218110236221
20
0.5161314960629921
11
0.3934781889763779
21
0.5161314960629921
0
LINE
8
BLACK
6
CONTINUOUS
10
0.3934781889763779
20
0.5161314960629921
11
0.3805166141732284
21
0.5146711023622047
0
LINE
8
BLACK
6
CONTINUOUS
10
0.3805166141732284
20
0.5146711023622047
11
0.3678
21
0.511768622047244
0
LINE
8
BLACK
6
CONTINUOUS
10
0.3678
20
0.511768622047244
11
0.3554883858267717
21
0.5074605905511811
0
LINE
8
BLACK
6
CONTINUOUS
10
0.3554883858267717
20
0.5074605905511811
11
0.3437364960629921
21
0.5018011811023622
0
LINE
8
BLACK
6
CONTINUOUS
10
0.3437364960629921
20
0.5018011811023622
11
0.332692125984252
21
0.4948615354330709
0
LINE
8
BLACK
6
CONTINUOUS
10
0.332692125984252
20
0.4948615354330709
11
0.322494251968504
21
0.4867289763779528
0
LINE
8
BLACK
6
CONTINUOUS
10
0.322494251968504
20
0.4867289763779528
11
0.3132710236220472
21
0.477505748031496
0
LINE
8
BLACK
6
CONTINUOUS
10
0.3132710236220472
20
0.477505748031496
11
0.3051384645669291
21
0.467307874015748
0
LINE
8
BLACK
6
CONTINUOUS
10
0.3051384645669291
20
0.467307874015748
11
0.2981988188976378
21
0.4562635039370079
0
LINE
8
BLACK
6
CONTINUOUS
10
0.2981988188976378
20
0.4562635039370079
11
0.2925394094488189
21
0.4445116141732283
0
LINE
8
BLACK
6
CONTINUOUS
10
0.2925394094488189
20
0.4445116141732283
11
0.2882313779527559
21
0.4322
0
LINE
8
BLACK
6
CONTINUOUS
10
0.2882313779527559
20
0.4322
11
0.2853288976377953
21
0.4194833858267716
0
LINE
8
BLACK
6
CONTINUOUS
10
0.2853288976377953
20
0.4194833858267716
11
0.2838685039370079
21
0.4065218110236221
0
LINE
8
BLACK
6
CONTINUOUS
10
0.2838685039370079
20
0.4065218110236221
11
0.2838685039370079
21
0.3934781889763779
0
LINE
8
BLACK
6
CONTINUOUS
10
2.4201122047244095
20
0.5183720472440945
11
2.433239212598425
21
0.515375905511811
0
LINE
8
BLACK
6
CONTINUOUS
10
2.433239212598425
20
0.515375905511811
11
2.4459482283464564
21
0.5109288188976377
0
LINE
8
BLACK
6
CONTINUOUS
10
2.4459482283464564
20
0.5109288188976377
11
2.458079409448819
21
0.5050867716535433
0
LINE
8
BLACK
6
CONTINUOUS
10
2.458079409448819
20
0.5050867716535433
11
2.4694801968503937
21
0.4979231889763779
0
LINE
8
BLACK
6
CONTINUOUS
10
2.4694801968503937
20
0.4979231889763779
11
2.4800072440944883
21
0.4895281496062992
0
LINE
8
BLACK
6
CONTINUOUS
10
2.4800072440944883
20
0.4895281496062992
11
2.4895281496062993
21
0.4800072440944882
0
LINE
8
BLACK
6
CONTINUOUS
10
2.4895281496062993
20
0.4800072440944882
11
2.4979231889763778
21
0.4694801968503937
0
LINE
8
BLACK
6
CONTINUOUS
10
2.4979231889763778
20
0.4694801968503937
11
2.5050867716535432
21
0.4580794094488189
0
LINE
8
BLACK
6
CONTINUOUS
10
2.5050867716535432
20
0.4580794094488189
11
2.5109288188976375
21
0.4459482283464567
0
LINE
8
BLACK
6
CONTINUOUS
10
2.5109288188976375
20
0.4459482283464567
11
2.515375905511811
21
0.4332392125984252
0
LINE
8
BLACK
6
CONTINUOUS
10
2.515375905511811
20
0.4332392125984252
11
2.5183720472440942
21
0.4201122047244095
0
LINE
8
BLACK
6
CONTINUOUS
10
2.5183720472440942
20
0.4201122047244095
11
2.5198796062992126
21
0.4067322834645669
0
LINE
8
BLACK
6
CONTINUOUS
10
2.5198796062992126
20
0.4067322834645669
11
2.5198796062992126
21
0.3932677165354331
0
LINE
8
BLACK
6
CONTINUOUS
10
2.5198796062992126
20
0.3932677165354331
11
2.5183720472440942
21
0.3798877952755905
0
LINE
8
BLACK
6
CONTINUOUS
10
2.5183720472440942
20
0.3798877952755905
11
2.515375905511811
21
0.3667607874015748
0
LINE
8
BLACK
6
CONTINUOUS
10
2.515375905511811
20
0.3667607874015748
11
2.5109288188976375
21
0.3540517716535433
0
LINE
8
BLACK
6
CONTINUOUS
10
2.5109288188976375
20
0.3540517716535433
11
2.5050867716535432
21
0.3419205905511811
0
LINE
8
BLACK
6
CONTINUOUS
10
2.5050867716535432
20
0.3419205905511811
11
2.4979231889763778
21
0.3305198031496063
0
LINE
8
BLACK
6
CONTINUOUS
10
2.4979231889763778
20
0.3305198031496063
11
2.4895281496062993
21
0.3199927559055118
0
LINE
8
BLACK
6
CONTINUOUS
10
2.4895281496062993
20
0.3199927559055118
11
2.4800072440944883
21
0.3104718503937008
0
LINE
8
BLACK
6
CONTINUOUS
10
2.4800072440944883
20
0.3104718503937008
11
2.4694801968503937
21
0.302076811023622
0
LINE
8
BLACK
6
CONTINUOUS
10
2.4694801968503937
20
0.302076811023622
11
2.458079409448819
21
0.2949132283464567
0
LINE
8
BLACK
6
CONTINUOUS
10
2.458079409448819
20
0.2949132283464567
11
2.4459482283464564
21
0.2890711811023622
0
LINE
8
BLACK
6
CONTINUOUS
10
2.4459482283464564
20
0.2890711811023622
11
2.433239212598425
21
0.284624094488189
0
LINE
8
BLACK
6
CONTINUOUS
10
2.433239212598425
20
0.284624094488189
11
2.4201122047244095
21
0.2816279527559055
0
LINE
8
BLACK
6
CONTINUOUS
10
2.4201122047244095
20
0.2816279527559055
11
2.4067322834645668
21
0.2801203937007874
0
LINE
8
BLACK
6
CONTINUOUS
10
2.4067322834645668
20
0.2801203937007874
11
2.393267716535433
21
0.2801203937007874
0
LINE
8
BLACK
6
CONTINUOUS
10
2.393267716535433
20
0.2801203937007874
11
2.3798877952755904
21
0.2816279527559055
0
LINE
8
BLACK
6
CONTINUOUS
10
2.3798877952755904
20
0.2816279527559055
11
2.3667607874015748
21
0.284624094488189
0
LINE
8
BLACK
6
CONTINUOUS
10
2.3667607874015748
20
0.284624094488189
11
2.3540517716535434
21
0.2890711811023622
0
LINE
8
BLACK
6
CONTINUOUS
10
2.3540517716535434
20
0.2890711811023622
11
2.3419205905511808
21
0.2949132283464567
0
LINE
8
BLACK
6
CONTINUOUS
10
2.3419205905511808
20
0.2949132283464567
11
2.3305198031496062
21
0.302076811023622
0
LINE
8
BLACK
6
CONTINUOUS
10
2.3305198031496062
20
0.302076811023622
11
2.3199927559055116
21
0.3104718503937008
0
LINE
8
BLACK
6
CONTINUOUS
10
2.3199927559055116
20
0.3104718503937008
11
2.310471850393701
21
0.3199927559055118
0
LINE
8
BLACK
6
CONTINUOUS
10
2.310471850393701
20
0.3199927559055118
11
2.302076811023622
21
0.3305198031496063
0
LINE
8
BLACK
6
CONTINUOUS
10
2.302076811023622
20
0.3305198031496063
11
2.2949132283464566
21
0.3419205905511811
0
LINE
8
BLACK
6
CONTINUOUS
10
2.2949132283464566
20
0.3419205905511811
11
2.2890711811023623
21
0.3540517716535433
0
LINE
8
BLACK
6
CONTINUOUS
10
2.2890711811023623
20
0.3540517716535433
11
2.2846240944881888
21
0.3667607874015748
0
LINE
8
BLACK
6
CONTINUOUS
10
2.2846240944881888
20
0.3667607874015748
11
2.2816279527559056
21
0.3798877952755905
0
LINE
8
BLACK
6
CONTINUOUS
10
2.2816279527559056
20
0.3798877952755905
11
2.2801203937007872
21
0.3932677165354331
0
LINE
8
BLACK
6
CONTINUOUS
10
2.2801203937007872
20
0.3932677165354331
11
2.2801203937007872
21
0.4065218110236221
0
LINE
8
BLACK
6
CONTINUOUS
10
2.2801203937007872
20
0.4065218110236221
11
2.2801203937007872
21
0.4067322834645669
0
LINE
8
BLACK
6
CONTINUOUS
10
2.2801203937007872
20
0.4067322834645669
11
2.2816279527559056
21
0.4201122047244095
0
LINE
8
BLACK
6
CONTINUOUS
10
2.2816279527559056
20
0.4201122047244095
11
2.2846240944881888
21
0.4332392125984252
0
LINE
8
BLACK
6
CONTINUOUS
10
2.2846240944881888
20
0.4332392125984252
11
2.2890711811023623
21
0.4459482283464567
0
LINE
8
BLACK
6
CONTINUOUS
10
2.2890711811023623
20
0.4459482283464567
11
2.2949132283464566
21
0.4580794094488189
0
LINE
8
BLACK
6
CONTINUOUS
10
2.2949132283464566
20
0.4580794094488189
11
2.302076811023622
21
0.4694801968503937
0
LINE
8
BLACK
6
CONTINUOUS
10
2.302076811023622
20
0.4694801968503937
11
2.310471850393701
21
0.4800072440944882
0
LINE
8
BLACK
6
CONTINUOUS
10
2.310471850393701
20
0.4800072440944882
11
2.3199927559055116
21
0.4895281496062992
0
LINE
8
BLACK
6
CONTINUOUS
10
2.3199927559055116
20
0.4895281496062992
11
2.3305198031496062
21
0.4979231889763779
0
LINE
8
BLACK
6
CONTINUOUS
10
2.3305198031496062
20
0.4979231889763779
11
2.3419205905511808
21
0.5050867716535433
0
LINE
8
BLACK
6
CONTINUOUS
10
2.3419205905511808
20
0.5050867716535433
11
2.3540517716535434
21
0.5109288188976377
0
LINE
8
BLACK
6
CONTINUOUS
10
2.3540517716535434
20
0.5109288188976377
11
2.3667607874015748
21
0.515375905511811
0
LINE
8
BLACK
6
CONTINUOUS
10
2.3667607874015748
20
0.515375905511811
11
2.3798877952755904
21
0.5183720472440945
0
LINE
8
BLACK
6
CONTINUOUS
10
2.3798877952755904
20
0.5183720472440945
11
2.393267716535433
21
0.5198796062992126
0
LINE
8
BLACK
6
CONTINUOUS
10
2.393267716535433
20
0.5198796062992126
11
2.4067322834645668
21
0.5198796062992126
0
LINE
8
BLACK
6
CONTINUOUS
10
2.4067322834645668
20
0.5198796062992126
11
2.4201122047244095
21
0.5183720472440945
0
LINE
8
BLACK
6
CONTINUOUS
10
2.2838685039370077
20
0.3934781889763779
11
2.285328897637795
21
0.3805166141732284
0
LINE
8
BLACK
6
CONTINUOUS
10
2.285328897637795
20
0.3805166141732284
11
2.2882313779527559
21
0.3678
0
LINE
8
BLACK
6
CONTINUOUS
10
2.2882313779527559
20
0.3678
11
2.292539409448819
21
0.3554883858267717
0
LINE
8
BLACK
6
CONTINUOUS
10
2.292539409448819
20
0.3554883858267717
11
2.2981988188976379
21
0.3437364960629921
0
LINE
8
BLACK
6
CONTINUOUS
10
2.2981988188976379
20
0.3437364960629921
11
2.3051384645669293
21
0.332692125984252
0
LINE
8
BLACK
6
CONTINUOUS
10
2.3051384645669293
20
0.332692125984252
11
2.3132710236220473
21
0.322494251968504
0
LINE
8
BLACK
6
CONTINUOUS
10
2.3132710236220473
20
0.322494251968504
11
2.3224942519685037
21
0.3132710236220472
0
LINE
8
BLACK
6
CONTINUOUS
10
2.3224942519685037
20
0.3132710236220472
11
2.3326921259842521
21
0.3051384645669291
0
LINE
8
BLACK
6
CONTINUOUS
10
2.3326921259842521
20
0.3051384645669291
11
2.3437364960629923
21
0.2981988188976378
0
LINE
8
BLACK
6
CONTINUOUS
10
2.3437364960629923
20
0.2981988188976378
11
2.3554883858267717
21
0.2925394094488189
0
LINE
8
BLACK
6
CONTINUOUS
10
2.3554883858267717
20
0.2925394094488189
11
2.3677999999999999
21
0.2882313779527559
0
LINE
8
BLACK
6
CONTINUOUS
10
2.3677999999999999
20
0.2882313779527559
11
2.3805166141732284
21
0.2853288976377953
0
LINE
8
BLACK
6
CONTINUOUS
10
2.3805166141732284
20
0.2853288976377953
11
2.3934781889763781
21
0.2838685039370079
0
LINE
8
BLACK
6
CONTINUOUS
10
2.3934781889763781
20
0.2838685039370079
11
2.4065218110236222
21
0.2838685039370079
0
LINE
8
BLACK
6
CONTINUOUS
10
2.4065218110236222
20
0.2838685039370079
11
2.4194833858267715
21
0.2853288976377953
0
LINE
8
BLACK
6
CONTINUOUS
10
2.4194833858267715
20
0.2853288976377953
11
2.4321999999999999
21
0.2882313779527559
0
LINE
8
BLACK
6
CONTINUOUS
10
2.4321999999999999
20
0.2882313779527559
11
2.4445116141732282
21
0.2925394094488189
0
LINE
8
BLACK
6
CONTINUOUS
10
2.4445116141732282
20
0.2925394094488189
11
2.456263503937008
21
0.2981988188976378
0
LINE
8
BLACK
6
CONTINUOUS
10
2.456263503937008
20
0.2981988188976378
11
2.4673078740157481
21
0.3051384645669291
0
LINE
8
BLACK
6
CONTINUOUS
10
2.4673078740157481
20
0.3051384645669291
11
2.4775057480314961
21
0.3132710236220472
0
LINE
8
BLACK
6
CONTINUOUS
10
2.4775057480314961
20
0.3132710236220472
11
2.4867289763779525
21
0.322494251968504
0
LINE
8
BLACK
6
CONTINUOUS
10
2.4867289763779525
20
0.322494251968504
11
2.494861535433071
21
0.332692125984252
0
LINE
8
BLACK
6
CONTINUOUS
10
2.494861535433071
20
0.332692125984252
11
2.5018011811023619
21
0.3437364960629921
0
LINE
8
BLACK
6
CONTINUOUS
10
2.5018011811023619
20
0.3437364960629921
11
2.5074605905511809
21
0.3554883858267717
0
LINE
8
BLACK
6
CONTINUOUS
10
2.5074605905511809
20
0.3554883858267717
11
2.5117686220472439
21
0.3678
0
LINE
8
BLACK
6
CONTINUOUS
10
2.5117686220472439
20
0.3678
11
2.5146711023622048
21
0.3805166141732284
0
LINE
8
BLACK
6
CONTINUOUS
10
2.5146711023622048
20
0.3805166141732284
11
2.5161314960629921
21
0.3934781889763779
0
LINE
8
BLACK
6
CONTINUOUS
10
2.5161314960629921
20
0.3934781889763779
11
2.5161314960629921
21
0.4065218110236221
0
LINE
8
BLACK
6
CONTINUOUS
10
2.5161314960629921
20
0.4065218110236221
11
2.5146711023622048
21
0.4194833858267716
0
LINE
8
BLACK
6
CONTINUOUS
10
2.5146711023622048
20
0.4194833858267716
11
2.5117686220472439
21
0.4322
0
LINE
8
BLACK
6
CONTINUOUS
10
2.5117686220472439
20
0.4322
11
2.5074605905511809
21
0.4445116141732283
0
LINE
8
BLACK
6
CONTINUOUS
10
2.5074605905511809
20
0.4445116141732283
11
2.5018011811023619
21
0.4562635039370079
0
LINE
8
BLACK
6
CONTINUOUS
10
2.5018011811023619
20
0.4562635039370079
11
2.494861535433071
21
0.467307874015748
0
LINE
8
BLACK
6
CONTINUOUS
10
2.494861535433071
20
0.467307874015748
11
2.4867289763779525
21
0.477505748031496
0
LINE
8
BLACK
6
CONTINUOUS
10
2.4867289763779525
20
0.477505748031496
11
2.4775057480314961
21
0.4867289763779528
0
LINE
8
BLACK
6
CONTINUOUS
10
2.4775057480314961
20
0.4867289763779528
11
2.4673078740157481
21
0.4948615354330709
0
LINE
8
BLACK
6
CONTINUOUS
10
2.4673078740157481
20
0.4948615354330709
11
2.456263503937008
21
0.5018011811023622
0
LINE
8
BLACK
6
CONTINUOUS
10
2.456263503937008
20
0.5018011811023622
11
2.4445116141732282
21
0.5074605905511811
0
LINE
8
BLACK
6
CONTINUOUS
10
2.4445116141732282
20
0.5074605905511811
11
2.4321999999999999
21
0.511768622047244
0
LINE
8
BLACK
6
CONTINUOUS
10
2.4321999999999999
20
0.511768622047244
11
2.4194833858267715
21
0.5146711023622047
0
LINE
8
BLACK
6
CONTINUOUS
10
2.4194833858267715
20
0.5146711023622047
11
2.4065218110236222
21
0.5161314960629921
0
LINE
8
BLACK
6
CONTINUOUS
10
2.4065218110236222
20
0.5161314960629921
11
2.3934781889763781
21
0.5161314960629921
0
LINE
8
BLACK
6
CONTINUOUS
10
2.3934781889763781
20
0.5161314960629921
11
2.3805166141732284
21
0.5146711023622047
0
LINE
8
BLACK
6
CONTINUOUS
10
2.3805166141732284
20
0.5146711023622047
11
2.3677999999999999
21
0.511768622047244
0
LINE
8
BLACK
6
CONTINUOUS
10
2.3677999999999999
20
0.511768622047244
11
2.3554883858267717
21
0.5074605905511811
0
LINE
8
BLACK
6
CONTINUOUS
10
2.3554883858267717
20
0.5074605905511811
11
2.3437364960629923
21
0.5018011811023622
0
LINE
8
BLACK
6
CONTINUOUS
10
2.3437364960629923
20
0.5018011811023622
11
2.3326921259842521
21
0.4948615354330709
0
LINE
8
BLACK
6
CONTINUOUS
10
2.3326921259842521
20
0.4948615354330709
11
2.3224942519685037
21
0.4867289763779528
0
LINE
8
BLACK
6
CONTINUOUS
10
2.3224942519685037
20
0.4867289763779528
11
2.3132710236220473
21
0.477505748031496
0
LINE
8
BLACK
6
CONTINUOUS
10
2.3132710236220473
20
0.477505748031496
11
2.3051384645669293
21
0.467307874015748
0
LINE
8
BLACK
6
CONTINUOUS
10
2.3051384645669293
20
0.467307874015748
11
2.2981988188976379
21
0.4562635039370079
0
LINE
8
BLACK
6
CONTINUOUS
10
2.2981988188976379
20
0.4562635039370079
11
2.292539409448819
21
0.4445116141732283
0
LINE
8
BLACK
6
CONTINUOUS
10
2.292539409448819
20
0.4445116141732283
11
2.2882313779527559
21
0.4322
0
LINE
8
BLACK
6
CONTINUOUS
10
2.2882313779527559
20
0.4322
11
2.285328897637795
21
0.4194833858267716
0
LINE
8
BLACK
6
CONTINUOUS
10
2.285328897637795
20
0.4194833858267716
11
2.2838685039370077
21
0.4065218110236221
0
LINE
8
BLACK
6
CONTINUOUS
10
2.2838685039370077
20
0.4065218110236221
11
2.2838685039370077
21
0.3934781889763779
0
LINE
8
BLACK
6
CONTINUOUS
10
2.410576062992126
20
0.9428960236220473
11
2.4116404724409448
21
0.9424551181102362
0
LINE
8
BLACK
6
CONTINUOUS
10
2.4116404724409448
20
0.9424551181102362
11
2.4124551181102363
21
0.9416404724409448
0
LINE
8
BLACK
6
CONTINUOUS
10
2.4124551181102363
20
0.9416404724409448
11
2.4128960236220474
21
0.9405760629921259
0
LINE
8
BLACK
6
CONTINUOUS
10
2.4128960236220474
20
0.9405760629921259
11
2.4129527559055117
21
0.9399999999999999
0
LINE
8
BLACK
6
CONTINUOUS
10
2.4129527559055117
20
0.9399999999999999
11
2.4129527559055117
21
0.64
0
LINE
8
BLACK
6
CONTINUOUS
10
2.4129527559055117
20
0.64
11
2.4128960236220474
21
0.639423937007874
0
LINE
8
BLACK
6
CONTINUOUS
10
2.4128960236220474
20
0.639423937007874
11
2.4124551181102363
21
0.6383595275590551
0
LINE
8
BLACK
6
CONTINUOUS
10
2.4124551181102363
20
0.6383595275590551
11
2.4116404724409448
21
0.6375448818897638
0
LINE
8
BLACK
6
CONTINUOUS
10
2.4116404724409448
20
0.6375448818897638
11
2.410576062992126
21
0.6371039763779528
0
LINE
8
BLACK
6
CONTINUOUS
10
2.410576062992126
20
0.6371039763779528
11
2.4100000000000001
21
0.6370472440944882
0
LINE
8
BLACK
6
CONTINUOUS
10
2.4100000000000001
20
0.6370472440944882
11
2.21
21
0.6370472440944882
0
LINE
8
BLACK
6
CONTINUOUS
10
2.21
20
0.6370472440944882
11
2.2094239370078741
21
0.6371039763779528
0
LINE
8
BLACK
6
CONTINUOUS
10
2.2094239370078741
20
0.6371039763779528
11
2.2083595275590548
21
0.6375448818897638
0
LINE
8
BLACK
6
CONTINUOUS
10
2.2083595275590548
20
0.6375448818897638
11
2.2075448818897638
21
0.6383595275590551
0
LINE
8
BLACK
6
CONTINUOUS
10
2.2075448818897638
20
0.6383595275590551
11
2.2071039763779527
21
0.639423937007874
0
LINE
8
BLACK
6
CONTINUOUS
10
2.2071039763779527
20
0.639423937007874
11
2.2070472440944879
21
0.64
0
LINE
8
BLACK
6
CONTINUOUS
10
2.2070472440944879
20
0.64
11
2.2070472440944879
21
0.9399999999999999
0
LINE
8
BLACK
6
CONTINUOUS
10
2.2070472440944879
20
0.9399999999999999
11
2.2071039763779527
21
0.9405760629921259
0
LINE
8
BLACK
6
CONTINUOUS
10
2.2071039763779527
20
0.9405760629921259
11
2.2075448818897638
21
0.9416404724409448
0
LINE
8
BLACK
6
CONTINUOUS
10
2.2075448818897638
20
0.9416404724409448
11
2.2083595275590548
21
0.9424551181102362
0
LINE
8
BLACK
6
CONTINUOUS
10
2.2083595275590548
20
0.9424551181102362
11
2.2094239370078741
21
0.9428960236220473
0
LINE
8
BLACK
6
CONTINUOUS
10
2.2094239370078741
20
0.9428960236220473
11
2.21
21
0.9429527559055118
0
LINE
8
BLACK
6
CONTINUOUS
10
2.21
20
0.9429527559055118
11
2.4100000000000001
21
0.9429527559055118
0
LINE
8
BLACK
6
CONTINUOUS
10
2.4100000000000001
20
0.9429527559055118
11
2.410576062992126
21
0.9428960236220473
0
LINE
8
BLACK
6
CONTINUOUS
10
2.2129527559055115
20
0.9370472440944881
11
2.2129527559055115
21
0.6429527559055118
0
LINE
8
BLACK
6
CONTINUOUS
10
2.2129527559055115
20
0.6429527559055118
11
2.4070472440944881
21
0.6429527559055118
0
LINE
8
BLACK
6
CONTINUOUS
10
2.4070472440944881
20
0.6429527559055118
11
2.4070472440944881
21
0.9370472440944881
0
LINE
8
BLACK
6
CONTINUOUS
10
2.4070472440944881
20
0.9370472440944881
11
2.2129527559055115
21
0.9370472440944881
0
LINE
8
BLACK
6
CONTINUOUS
10
0.4477279527559055
20
0.8275374803149607
11
0.4478057086614173
21
0.8275429921259843
0
LINE
8
BLACK
6
CONTINUOUS
10
0.4478057086614173
20
0.8275429921259843
11
0.4479079527559055
21
0.8275197637795275
0
LINE
8
BLACK
6
CONTINUOUS
10
0.4479079527559055
20
0.8275197637795275
11
0.4480124803149606
21
0.8275094488188977
0
LINE
8
BLACK
6
CONTINUOUS
10
0.4480124803149606
20
0.8275094488188977
11
0.4480845669291338
21
0.8274796062992126
0
LINE
8
BLACK
6
CONTINUOUS
10
0.4480845669291338
20
0.8274796062992126
11
0.4483701574803149
21
0.8274146456692913
0
LINE
8
BLACK
6
CONTINUOUS
10
0.4483701574803149
20
0.8274146456692913
11
0.4539944488188976
21
0.8255398818897638
0
LINE
8
BLACK
6
CONTINUOUS
10
0.4539944488188976
20
0.8255398818897638
11
0.4545229921259842
21
0.8253038976377952
0
LINE
8
BLACK
6
CONTINUOUS
10
0.4545229921259842
20
0.8253038976377952
11
0.4546031102362205
21
0.8252344094488189
0
LINE
8
BLACK
6
CONTINUOUS
10
0.4546031102362205
20
0.8252344094488189
11
0.4547011811023622
21
0.825193779527559
0
LINE
8
BLACK
6
CONTINUOUS
10
0.4547011811023622
20
0.825193779527559
11
0.4551486220472441
21
0.8248265748031496
0
LINE
8
BLACK
6
CONTINUOUS
10
0.4551486220472441
20
0.8248265748031496
11
0.4570233858267717
21
0.822951811023622
0
LINE
8
BLACK
6
CONTINUOUS
10
0.4570233858267717
20
0.822951811023622
11
0.4573905905511811
21
0.8225043700787401
0
LINE
8
BLACK
6
CONTINUOUS
10
0.4573905905511811
20
0.8225043700787401
11
0.4578314960629921
21
0.8214399606299212
0
LINE
8
BLACK
6
CONTINUOUS
10
0.4578314960629921
20
0.8214399606299212
11
0.4578314960629921
21
0.820287874015748
0
LINE
8
BLACK
6
CONTINUOUS
10
0.4578314960629921
20
0.820287874015748
11
0.4573905905511811
21
0.8192234645669291
0
LINE
8
BLACK
6
CONTINUOUS
10
0.4573905905511811
20
0.8192234645669291
11
0.456575905511811
21
0.8184087795275591
0
LINE
8
BLACK
6
CONTINUOUS
10
0.456575905511811
20
0.8184087795275591
11
0.4555114960629921
21
0.817967874015748
0
LINE
8
BLACK
6
CONTINUOUS
10
0.4555114960629921
20
0.817967874015748
11
0.4543594094488189
21
0.817967874015748
0
LINE
8
BLACK
6
CONTINUOUS
10
0.4543594094488189
20
0.817967874015748
11
0.453295
21
0.8184087795275591
0
LINE
8
BLACK
6
CONTINUOUS
10
0.453295
20
0.8184087795275591
11
0.4528475590551181
21
0.8187759842519685
0
LINE
8
BLACK
6
CONTINUOUS
10
0.4528475590551181
20
0.8187759842519685
11
0.4514656692913386
21
0.820157874015748
0
LINE
8
BLACK
6
CONTINUOUS
10
0.4514656692913386
20
0.820157874015748
11
0.4469572834645669
21
0.8216606692913385
0
LINE
8
BLACK
6
CONTINUOUS
10
0.4469572834645669
20
0.8216606692913385
11
0.4441660236220472
21
0.8216606692913385
0
LINE
8
BLACK
6
CONTINUOUS
10
0.4441660236220472
20
0.8216606692913385
11
0.4396576377952756
21
0.820157874015748
0
LINE
8
BLACK
6
CONTINUOUS
10
0.4396576377952756
20
0.820157874015748
11
0.4367398031496063
21
0.8172400393700787
0
LINE
8
BLACK
6
CONTINUOUS
10
0.4367398031496063
20
0.8172400393700787
11
0.4352242913385826
21
0.8142090551181103
0
LINE
8
BLACK
6
CONTINUOUS
10
0.4352242913385826
20
0.8142090551181103
11
0.4335162992125984
21
0.8073770078740158
0
LINE
8
BLACK
6
CONTINUOUS
10
0.4335162992125984
20
0.8073770078740158
11
0.4335162992125984
21
0.8024798031496063
0
LINE
8
BLACK
6
CONTINUOUS
10
0.4335162992125984
20
0.8024798031496063
11
0.4352242913385826
21
0.7956477559055118
0
LINE
8
BLACK
6
CONTINUOUS
10
0.4352242913385826
20
0.7956477559055118
11
0.4367398031496063
21
0.7926167716535433
0
LINE
8
BLACK
6
CONTINUOUS
10
0.4367398031496063
20
0.7926167716535433
11
0.4396576377952756
21
0.7896988976377952
0
LINE
8
BLACK
6
CONTINUOUS
10
0.4396576377952756
20
0.7896988976377952
11
0.4441660236220472
21
0.7881961023622047
0
LINE
8
BLACK
6
CONTINUOUS
10
0.4441660236220472
20
0.7881961023622047
11
0.4469572834645669
21
0.7881961023622047
0
LINE
8
BLACK
6
CONTINUOUS
10
0.4469572834645669
20
0.7881961023622047
11
0.4514656692913386
21
0.789698937007874
0
LINE
8
BLACK
6
CONTINUOUS
10
0.4514656692913386
20
0.789698937007874
11
0.4528475196850393
21
0.7910807874015748
0
LINE
8
BLACK
6
CONTINUOUS
10
0.4528475196850393
20
0.7910807874015748
11
0.453295
21
0.791448031496063
0
LINE
8
BLACK
6
CONTINUOUS
10
0.453295
20
0.791448031496063
11
0.4543594094488189
21
0.791888937007874
0
LINE
8
BLACK
6
CONTINUOUS
10
0.4543594094488189
20
0.791888937007874
11
0.4555114960629921
21
0.791888937007874
0
LINE
8
BLACK
6
CONTINUOUS
10
0.4555114960629921
20
0.791888937007874
11
0.456575905511811
21
0.7914480708661417
0
LINE
8
BLACK
6
CONTINUOUS
10
0.456575905511811
20
0.7914480708661417
11
0.4573905905511811
21
0.7906333858267717
0
LINE
8
BLACK
6
CONTINUOUS
10
0.4573905905511811
20
0.7906333858267717
11
0.4578314960629921
21
0.7895689763779528
0
LINE
8
BLACK
6
CONTINUOUS
10
0.4578314960629921
20
0.7895689763779528
11
0.4578314960629921
21
0.7884168897637795
0
LINE
8
BLACK
6
CONTINUOUS
10
0.4578314960629921
20
0.7884168897637795
11
0.4573906299212598
21
0.7873524803149606
0
LINE
8
BLACK
6
CONTINUOUS
10
0.4573906299212598
20
0.7873524803149606
11
0.4570233858267717
21
0.786905
0
LINE
8
BLACK
6
CONTINUOUS
10
0.4570233858267717
20
0.786905
11
0.4551486614173228
21
0.7850302362204724
0
LINE
8
BLACK
6
CONTINUOUS
10
0.4551486614173228
20
0.7850302362204724
11
0.4547011811023622
21
0.7846629921259842
0
LINE
8
BLACK
6
CONTINUOUS
10
0.4547011811023622
20
0.7846629921259842
11
0.4546031102362205
21
0.7846224015748031
0
LINE
8
BLACK
6
CONTINUOUS
10
0.4546031102362205
20
0.7846224015748031
11
0.4545229921259842
21
0.784552874015748
0
LINE
8
BLACK
6
CONTINUOUS
10
0.4545229921259842
20
0.784552874015748
11
0.4539944488188976
21
0.7843168897637796
0
LINE
8
BLACK
6
CONTINUOUS
10
0.4539944488188976
20
0.7843168897637796
11
0.4483701574803149
21
0.782442125984252
0
LINE
8
BLACK
6
CONTINUOUS
10
0.4483701574803149
20
0.782442125984252
11
0.4480845669291338
21
0.7823772047244094
0
LINE
8
BLACK
6
CONTINUOUS
10
0.4480845669291338
20
0.7823772047244094
11
0.4480124803149606
21
0.7823473228346457
0
LINE
8
BLACK
6
CONTINUOUS
10
0.4480124803149606
20
0.7823473228346457
11
0.4479079527559055
21
0.7823370472440945
0
LINE
8
BLACK
6
CONTINUOUS
10
0.4479079527559055
20
0.7823370472440945
11
0.4478057086614173
21
0.782313779527559
0
LINE
8
BLACK
6
CONTINUOUS
10
0.4478057086614173
20
0.782313779527559
11
0.4477279527559055
21
0.7823193307086614
0
LINE
8
BLACK
6
CONTINUOUS
10
0.4477279527559055
20
0.7823193307086614
11
0.4474364173228346
21
0.7822905905511811
0
LINE
8
BLACK
6
CONTINUOUS
10
0.4474364173228346
20
0.7822905905511811
11
0.4436868897637795
21
0.7822905905511811
0
LINE
8
BLACK
6
CONTINUOUS
10
0.4436868897637795
20
0.7822905905511811
11
0.4433952755905512
21
0.7823193307086614
0
LINE
8
BLACK
6
CONTINUOUS
10
0.4433952755905512
20
0.7823193307086614
11
0.4433175590551181
21
0.782313779527559
0
LINE
8
BLACK
6
CONTINUOUS
10
0.4433175590551181
20
0.782313779527559
11
0.4432152755905512
21
0.7823370472440945
0
LINE
8
BLACK
6
CONTINUOUS
10
0.4432152755905512
20
0.7823370472440945
11
0.4431108267716535
21
0.7823473228346457
0
LINE
8
BLACK
6
CONTINUOUS
10
0.4431108267716535
20
0.7823473228346457
11
0.4430387401574803
21
0.7823772047244094
0
LINE
8
BLACK
6
CONTINUOUS
10
0.4430387401574803
20
0.7823772047244094
11
0.4427531102362204
21
0.782442125984252
0
LINE
8
BLACK
6
CONTINUOUS
10
0.4427531102362204
20
0.782442125984252
11
0.4371288582677165
21
0.7843168897637796
0
LINE
8
BLACK
6
CONTINUOUS
10
0.4371288582677165
20
0.7843168897637796
11
0.4366002755905511
21
0.784552874015748
0
LINE
8
BLACK
6
CONTINUOUS
10
0.4366002755905511
20
0.784552874015748
11
0.436520157480315
21
0.7846223622047244
0
LINE
8
BLACK
6
CONTINUOUS
10
0.436520157480315
20
0.7846223622047244
11
0.436422125984252
21
0.7846629527559055
0
LINE
8
BLACK
6
CONTINUOUS
10
0.436422125984252
20
0.7846629527559055
11
0.4359746850393701
21
0.7850301968503937
0
LINE
8
BLACK
6
CONTINUOUS
10
0.4359746850393701
20
0.7850301968503937
11
0.4322251574803149
21
0.7887797637795275
0
LINE
8
BLACK
6
CONTINUOUS
10
0.4322251574803149
20
0.7887797637795275
11
0.4320393700787402
21
0.7890061417322835
0
LINE
8
BLACK
6
CONTINUOUS
10
0.4320393700787402
20
0.7890061417322835
11
0.4319803937007874
21
0.7890572834645669
0
LINE
8
BLACK
6
CONTINUOUS
10
0.4319803937007874
20
0.7890572834645669
11
0.4319244094488189
21
0.7891462204724409
0
LINE
8
BLACK
6
CONTINUOUS
10
0.4319244094488189
20
0.7891462204724409
11
0.4318579133858267
21
0.7892272440944882
0
LINE
8
BLACK
6
CONTINUOUS
10
0.4318579133858267
20
0.7892272440944882
11
0.4318280708661417
21
0.7892992913385827
0
LINE
8
BLACK
6
CONTINUOUS
10
0.4318280708661417
20
0.7892992913385827
11
0.4316720472440945
21
0.7895471653543307
0
LINE
8
BLACK
6
CONTINUOUS
10
0.4316720472440945
20
0.7895471653543307
11
0.4297972834645669
21
0.7932966929133858
0
LINE
8
BLACK
6
CONTINUOUS
10
0.4297972834645669
20
0.7932966929133858
11
0.4297811417322834
21
0.7933388188976378
0
LINE
8
BLACK
6
CONTINUOUS
10
0.4297811417322834
20
0.7933388188976378
11
0.4297684645669291
21
0.7933559448818898
0
LINE
8
BLACK
6
CONTINUOUS
10
0.4297684645669291
20
0.7933559448818898
11
0.4296820078740157
21
0.7935979133858267
0
LINE
8
BLACK
6
CONTINUOUS
10
0.4296820078740157
20
0.7935979133858267
11
0.4295903937007874
21
0.7938373228346457
0
LINE
8
BLACK
6
CONTINUOUS
10
0.4295903937007874
20
0.7938373228346457
11
0.4295888582677165
21
0.7938585826771654
0
LINE
8
BLACK
6
CONTINUOUS
10
0.4295888582677165
20
0.7938585826771654
11
0.4295737007874016
21
0.7939010629921259
0
LINE
8
BLACK
6
CONTINUOUS
10
0.4295737007874016
20
0.7939010629921259
11
0.427698937007874
21
0.8014001181102361
0
LINE
8
BLACK
6
CONTINUOUS
10
0.427698937007874
20
0.8014001181102361
11
0.4276841338582677
21
0.8015
0
LINE
8
BLACK
6
CONTINUOUS
10
0.4276841338582677
20
0.8015
11
0.4276675196850394
21
0.8015401968503937
0
LINE
8
BLACK
6
CONTINUOUS
10
0.4276675196850394
20
0.8015401968503937
11
0.4276461417322834
21
0.8017572440944881
0
LINE
8
BLACK
6
CONTINUOUS
10
0.4276461417322834
20
0.8017572440944881
11
0.4276142913385826
21
0.801972716535433
0
LINE
8
BLACK
6
CONTINUOUS
10
0.4276142913385826
20
0.801972716535433
11
0.4276206692913386
21
0.802015748031496
0
LINE
8
BLACK
6
CONTINUOUS
10
0.4276206692913386
20
0.802015748031496
11
0.4276107874015748
21
0.8021162598425197
0
LINE
8
BLACK
6
CONTINUOUS
10
0.4276107874015748
20
0.8021162598425197
11
0.4276107874015748
21
0.8077405511811023
0
LINE
8
BLACK
6
CONTINUOUS
10
0.4276107874015748
20
0.8077405511811023
11
0.4276206692913386
21
0.8078411023622047
0
LINE
8
BLACK
6
CONTINUOUS
10
0.4276206692913386
20
0.8078411023622047
11
0.4276142913385826
21
0.807884094488189
0
LINE
8
BLACK
6
CONTINUOUS
10
0.4276142913385826
20
0.807884094488189
11
0.4276461417322834
21
0.8080996062992126
0
LINE
8
BLACK
6
CONTINUOUS
10
0.4276461417322834
20
0.8080996062992126
11
0.4276675196850394
21
0.8083166141732283
0
LINE
8
BLACK
6
CONTINUOUS
10
0.4276675196850394
20
0.8083166141732283
11
0.4276841338582677
21
0.8083568503937008
0
LINE
8
BLACK
6
CONTINUOUS
10
0.4276841338582677
20
0.8083568503937008
11
0.427698937007874
21
0.8084566929133858
0
LINE
8
BLACK
6
CONTINUOUS
10
0.427698937007874
20
0.8084566929133858
11
0.4295737007874016
21
0.8159557480314961
0
LINE
8
BLACK
6
CONTINUOUS
10
0.4295737007874016
20
0.8159557480314961
11
0.4295888582677165
21
0.8159982677165354
0
LINE
8
BLACK
6
CONTINUOUS
10
0.4295888582677165
20
0.8159982677165354
11
0.4295903937007874
21
0.8160194881889764
0
LINE
8
BLACK
6
CONTINUOUS
10
0.4295903937007874
20
0.8160194881889764
11
0.4296820078740157
21
0.816258937007874
0
LINE
8
BLACK
6
CONTINUOUS
10
0.4296820078740157
20
0.816258937007874
11
0.4297684645669291
21
0.8165008661417322
0
LINE
8
BLACK
6
CONTINUOUS
10
0.4297684645669291
20
0.8165008661417322
11
0.4297811417322834
21
0.8165180314960629
0
LINE
8
BLACK
6
CONTINUOUS
10
0.4297811417322834
20
0.8165180314960629
11
0.4297972834645669
21
0.8165601181102362
0
LINE
8
BLACK
6
CONTINUOUS
10
0.4297972834645669
20
0.8165601181102362
11
0.4316720472440945
21
0.8203096456692913
0
LINE
8
BLACK
6
CONTINUOUS
10
0.4316720472440945
20
0.8203096456692913
11
0.4318281102362205
21
0.8205576771653543
0
LINE
8
BLACK
6
CONTINUOUS
10
0.4318281102362205
20
0.8205576771653543
11
0.4318579527559055
21
0.8206296062992126
0
LINE
8
BLACK
6
CONTINUOUS
10
0.4318579527559055
20
0.8206296062992126
11
0.4319244094488189
21
0.8207105905511811
0
LINE
8
BLACK
6
CONTINUOUS
10
0.4319244094488189
20
0.8207105905511811
11
0.4319803937007874
21
0.8207995275590551
0
LINE
8
BLACK
6
CONTINUOUS
10
0.4319803937007874
20
0.8207995275590551
11
0.4320393700787402
21
0.8208507086614173
0
LINE
8
BLACK
6
CONTINUOUS
10
0.4320393700787402
20
0.8208507086614173
11
0.4322251574803149
21
0.8210770472440945
0
LINE
8
BLACK
6
CONTINUOUS
10
0.4322251574803149
20
0.8210770472440945
11
0.4359746850393701
21
0.8248265748031496
0
LINE
8
BLACK
6
CONTINUOUS
10
0.4359746850393701
20
0.8248265748031496
11
0.436422125984252
21
0.8251938188976378
0
LINE
8
BLACK
6
CONTINUOUS
10
0.436422125984252
20
0.8251938188976378
11
0.436520157480315
21
0.8252344488188976
0
LINE
8
BLACK
6
CONTINUOUS
10
0.436520157480315
20
0.8252344488188976
11
0.4366002755905511
21
0.8253038976377952
0
LINE
8
BLACK
6
CONTINUOUS
10
0.4366002755905511
20
0.8253038976377952
11
0.4371288582677165
21
0.8255398818897638
0
LINE
8
BLACK
6
CONTINUOUS
10
0.4371288582677165
20
0.8255398818897638
11
0.4427531102362204
21
0.8274146456692913
0
LINE
8
BLACK
6
CONTINUOUS
10
0.4427531102362204
20
0.8274146456692913
11
0.4430387401574803
21
0.8274796062992126
0
LINE
8
BLACK
6
CONTINUOUS
10
0.4430387401574803
20
0.8274796062992126
11
0.4431108267716535
21
0.8275094488188977
0
LINE
8
BLACK
6
CONTINUOUS
10
0.4431108267716535
20
0.8275094488188977
11
0.4432152755905512
21
0.8275197637795275
0
LINE
8
BLACK
6
CONTINUOUS
10
0.4432152755905512
20
0.8275197637795275
11
0.4433175590551181
21
0.8275429921259843
0
LINE
8
BLACK
6
CONTINUOUS
10
0.4433175590551181
20
0.8275429921259843
11
0.4433952755905512
21
0.8275374803149607
0
LINE
8
BLACK
6
CONTINUOUS
10
0.4433952755905512
20
0.8275374803149607
11
0.4436868897637795
21
0.8275661811023621
0
LINE
8
BLACK
6
CONTINUOUS
10
0.4436868897637795
20
0.8275661811023621
11
0.4474364173228346
21
0.8275661811023621
0
LINE
8
BLACK
6
CONTINUOUS
10
0.4474364173228346
20
0.8275661811023621
11
0.4477279527559055
21
0.8275374803149607
0
LINE
8
BLACK
6
CONTINUOUS
10
0.4954326771653543
20
0.8273425984251969
11
0.4963912992125984
21
0.8267035039370079
0
LINE
8
BLACK
6
CONTINUOUS
10
0.4963912992125984
20
0.8267035039370079
11
0.4970323622047244
21
0.825746220472441
0
LINE
8
BLACK
6
CONTINUOUS
10
0.4970323622047244
20
0.825746220472441
11
0.4972583070866142
21
0.8246165354330709
0
LINE
8
BLACK
6
CONTINUOUS
10
0.4972583070866142
20
0.8246165354330709
11
0.4970347244094488
21
0.8234862992125984
0
LINE
8
BLACK
6
CONTINUOUS
10
0.4970347244094488
20
0.8234862992125984
11
0.4967624015748031
21
0.8229755118110236
0
LINE
8
BLACK
6
CONTINUOUS
10
0.4967624015748031
20
0.8229755118110236
11
0.4847309842519685
21
0.8049283858267716
0
LINE
8
BLACK
6
CONTINUOUS
10
0.4847309842519685
20
0.8049283858267716
11
0.4967624015748031
21
0.7868812598425197
0
LINE
8
BLACK
6
CONTINUOUS
10
0.4967624015748031
20
0.7868812598425197
11
0.4970347244094488
21
0.7863704724409448
0
LINE
8
BLACK
6
CONTINUOUS
10
0.4970347244094488
20
0.7863704724409448
11
0.4972583070866142
21
0.7852402362204725
0
LINE
8
BLACK
6
CONTINUOUS
10
0.4972583070866142
20
0.7852402362204725
11
0.4970323622047244
21
0.7841105511811024
0
LINE
8
BLACK
6
CONTINUOUS
10
0.4970323622047244
20
0.7841105511811024
11
0.4963912992125984
21
0.7831532677165354
0
LINE
8
BLACK
6
CONTINUOUS
10
0.4963912992125984
20
0.7831532677165354
11
0.4954326771653543
21
0.7825141732283465
0
LINE
8
BLACK
6
CONTINUOUS
10
0.4954326771653543
20
0.7825141732283465
11
0.4943024409448819
21
0.7822905905511811
0
LINE
8
BLACK
6
CONTINUOUS
10
0.4943024409448819
20
0.7822905905511811
11
0.4931727559055118
21
0.7825165354330709
0
LINE
8
BLACK
6
CONTINUOUS
10
0.4931727559055118
20
0.7825165354330709
11
0.4922154724409449
21
0.7831575984251968
0
LINE
8
BLACK
6
CONTINUOUS
10
0.4922154724409449
20
0.7831575984251968
11
0.4918487007874016
21
0.7836054724409449
0
LINE
8
BLACK
6
CONTINUOUS
10
0.4918487007874016
20
0.7836054724409449
11
0.4811822047244094
21
0.7996052362204724
0
LINE
8
BLACK
6
CONTINUOUS
10
0.4811822047244094
20
0.7996052362204724
11
0.4705157086614173
21
0.7836054724409449
0
LINE
8
BLACK
6
CONTINUOUS
10
0.4705157086614173
20
0.7836054724409449
11
0.470148937007874
21
0.7831575984251968
0
LINE
8
BLACK
6
CONTINUOUS
10
0.470148937007874
20
0.7831575984251968
11
0.4691916535433071
21
0.7825165354330709
0
LINE
8
BLACK
6
CONTINUOUS
10
0.4691916535433071
20
0.7825165354330709
11
0.468061968503937
21
0.7822905905511811
0
LINE
8
BLACK
6
CONTINUOUS
10
0.468061968503937
20
0.7822905905511811
11
0.4669317322834646
21
0.7825141732283465
0
LINE
8
BLACK
6
CONTINUOUS
10
0.4669317322834646
20
0.7825141732283465
11
0.4659731102362205
21
0.7831532677165354
0
LINE
8
BLACK
6
CONTINUOUS
10
0.4659731102362205
20
0.7831532677165354
11
0.4653320472440945
21
0.7841105511811024
0
LINE
8
BLACK
6
CONTINUOUS
10
0.4653320472440945
20
0.7841105511811024
11
0.4651061023622047
21
0.7852402362204725
0
LINE
8
BLACK
6
CONTINUOUS
10
0.4651061023622047
20
0.7852402362204725
11
0.4653296850393701
21
0.7863704724409448
0
LINE
8
BLACK
6
CONTINUOUS
10
0.4653296850393701
20
0.7863704724409448
11
0.4656020078740157
21
0.7868812204724409
0
LINE
8
BLACK
6
CONTINUOUS
10
0.4656020078740157
20
0.7868812204724409
11
0.4776334251968504
21
0.8049283858267716
0
LINE
8
BLACK
6
CONTINUOUS
10
0.4776334251968504
20
0.8049283858267716
11
0.4656020078740157
21
0.8229755511811023
0
LINE
8
BLACK
6
CONTINUOUS
10
0.4656020078740157
20
0.8229755511811023
11
0.4653296850393701
21
0.8234862992125984
0
LINE
8
BLACK
6
CONTINUOUS
10
0.4653296850393701
20
0.8234862992125984
11
0.4651061023622047
21
0.8246165354330709
0
LINE
8
BLACK
6
CONTINUOUS
10
0.4651061023622047
20
0.8246165354330709
11
0.4653320472440945
21
0.825746220472441
0
LINE
8
BLACK
6
CONTINUOUS
10
0.4653320472440945
20
0.825746220472441
11
0.4659731102362205
21
0.8267035039370079
0
LINE
8
BLACK
6
CONTINUOUS
10
0.4659731102362205
20
0.8267035039370079
11
0.4669317322834646
21
0.8273425984251969
0
LINE
8
BLACK
6
CONTINUOUS
10
0.4669317322834646
20
0.8273425984251969
11
0.468061968503937
21
0.8275661811023621
0
LINE
8
BLACK
6
CONTINUOUS
10
0.468061968503937
20
0.8275661811023621
11
0.4691916535433071
21
0.8273402362204724
0
LINE
8
BLACK
6
CONTINUOUS
10
0.4691916535433071
20
0.8273402362204724
11
0.470148937007874
21
0.8266991732283464
0
LINE
8
BLACK
6
CONTINUOUS
10
0.470148937007874
20
0.8266991732283464
11
0.4705157086614173
21
0.8262512992125984
0
LINE
8
BLACK
6
CONTINUOUS
10
0.4705157086614173
20
0.8262512992125984
11
0.4811822047244094
21
0.8102515748031496
0
LINE
8
BLACK
6
CONTINUOUS
10
0.4811822047244094
20
0.8102515748031496
11
0.4918487007874016
21
0.8262512992125984
0
LINE
8
BLACK
6
CONTINUOUS
10
0.4918487007874016
20
0.8262512992125984
11
0.4922154724409449
21
0.8266991732283464
0
LINE
8
BLACK
6
CONTINUOUS
10
0.4922154724409449
20
0.8266991732283464
11
0.4931727559055118
21
0.8273402362204724
0
LINE
8
BLACK
6
CONTINUOUS
10
0.4931727559055118
20
0.8273402362204724
11
0.4943024409448819
21
0.8275661811023621
0
LINE
8
BLACK
6
CONTINUOUS
10
0.4943024409448819
20
0.8275661811023621
11
0.4954326771653543
21
0.8273425984251969
0
LINE
8
BLACK
6
CONTINUOUS
10
0.4137546456692913
20
0.8275094488188977
11
0.4142666929133858
21
0.8275094488188977
0
LINE
8
BLACK
6
CONTINUOUS
10
0.4142666929133858
20
0.8275094488188977
11
0.4143274409448819
21
0.8274842913385827
0
LINE
8
BLACK
6
CONTINUOUS
10
0.4143274409448819
20
0.8274842913385827
11
0.4143933070866141
21
0.8274813779527559
0
LINE
8
BLACK
6
CONTINUOUS
10
0.4143933070866141
20
0.8274813779527559
11
0.4148581496062992
21
0.8272644881889764
0
LINE
8
BLACK
6
CONTINUOUS
10
0.4148581496062992
20
0.8272644881889764
11
0.4153311023622047
21
0.8270685433070866
0
LINE
8
BLACK
6
CONTINUOUS
10
0.4153311023622047
20
0.8270685433070866
11
0.4153775984251968
21
0.8270220472440944
0
LINE
8
BLACK
6
CONTINUOUS
10
0.4153775984251968
20
0.8270220472440944
11
0.4154373228346457
21
0.8269941732283465
0
LINE
8
BLACK
6
CONTINUOUS
10
0.4154373228346457
20
0.8269941732283465
11
0.4157835433070866
21
0.8266161023622047
0
LINE
8
BLACK
6
CONTINUOUS
10
0.4157835433070866
20
0.8266161023622047
11
0.4161457480314961
21
0.8262538976377952
0
LINE
8
BLACK
6
CONTINUOUS
10
0.4161457480314961
20
0.8262538976377952
11
0.4161709448818898
21
0.8261930708661417
0
LINE
8
BLACK
6
CONTINUOUS
10
0.4161709448818898
20
0.8261930708661417
11
0.4162154330708661
21
0.8261444881889763
0
LINE
8
BLACK
6
CONTINUOUS
10
0.4162154330708661
20
0.8261444881889763
11
0.4163905118110236
21
0.8256629921259843
0
LINE
8
BLACK
6
CONTINUOUS
10
0.4163905118110236
20
0.8256629921259843
11
0.4165866535433071
21
0.8251894881889763
0
LINE
8
BLACK
6
CONTINUOUS
10
0.4165866535433071
20
0.8251894881889763
11
0.4165955511811024
21
0.8250991338582677
0
LINE
8
BLACK
6
CONTINUOUS
10
0.4165955511811024
20
0.8250991338582677
11
0.4166091338582677
21
0.8250617716535433
0
LINE
8
BLACK
6
CONTINUOUS
10
0.4166091338582677
20
0.8250617716535433
11
0.416606062992126
21
0.8249922440944881
0
LINE
8
BLACK
6
CONTINUOUS
10
0.416606062992126
20
0.8249922440944881
11
0.4166433858267716
21
0.8246134251968503
0
LINE
8
BLACK
6
CONTINUOUS
10
0.4166433858267716
20
0.8246134251968503
11
0.4166433858267716
21
0.7852433464566929
0
LINE
8
BLACK
6
CONTINUOUS
10
0.4166433858267716
20
0.7852433464566929
11
0.4165866535433071
21
0.7846672834645669
0
LINE
8
BLACK
6
CONTINUOUS
10
0.4165866535433071
20
0.7846672834645669
11
0.4161457480314961
21
0.783602874015748
0
LINE
8
BLACK
6
CONTINUOUS
10
0.4161457480314961
20
0.783602874015748
11
0.4153311023622047
21
0.7827882283464567
0
LINE
8
BLACK
6
CONTINUOUS
10
0.4153311023622047
20
0.7827882283464567
11
0.4142666929133858
21
0.7823473228346457
0
LINE
8
BLACK
6
CONTINUOUS
10
0.4142666929133858
20
0.7823473228346457
11
0.4131145669291338
21
0.7823473228346457
0
LINE
8
BLACK
6
CONTINUOUS
10
0.4131145669291338
20
0.7823473228346457
11
0.4120501574803149
21
0.7827882283464567
0
LINE
8
BLACK
6
CONTINUOUS
10
0.4120501574803149
20
0.7827882283464567
11
0.4112355118110236
21
0.783602874015748
0
LINE
8
BLACK
6
CONTINUOUS
10
0.4112355118110236
20
0.783602874015748
11
0.4107946062992126
21
0.7846672834645669
0
LINE
8
BLACK
6
CONTINUOUS
10
0.4107946062992126
20
0.7846672834645669
11
0.410737874015748
21
0.7852433464566929
0
LINE
8
BLACK
6
CONTINUOUS
10
0.410737874015748
20
0.7852433464566929
11
0.410737874015748
21
0.8113037007874015
0
LINE
8
BLACK
6
CONTINUOUS
10
0.410737874015748
20
0.8113037007874015
11
0.403243031496063
21
0.7952433070866142
0
LINE
8
BLACK
6
CONTINUOUS
10
0.403243031496063
20
0.7952433070866142
11
0.4031180708661417
21
0.7950324015748031
0
LINE
8
BLACK
6
CONTINUOUS
10
0.4031180708661417
20
0.7950324015748031
11
0.4030920866141732
21
0.794960905511811
0
LINE
8
BLACK
6
CONTINUOUS
10
0.4030920866141732
20
0.794960905511811
11
0.4030457480314961
21
0.7949103543307087
0
LINE
8
BLACK
6
CONTINUOUS
10
0.4030457480314961
20
0.7949103543307087
11
0.4029479921259843
21
0.7947452755905512
0
LINE
8
BLACK
6
CONTINUOUS
10
0.4029479921259843
20
0.7947452755905512
11
0.4026171653543307
21
0.7944423622047244
0
LINE
8
BLACK
6
CONTINUOUS
10
0.4026171653543307
20
0.7944423622047244
11
0.4023139763779527
21
0.794111220472441
0
LINE
8
BLACK
6
CONTINUOUS
10
0.4023139763779527
20
0.794111220472441
11
0.402195
21
0.794055748031496
0
LINE
8
BLACK
6
CONTINUOUS
10
0.402195
20
0.794055748031496
11
0.4020983464566929
21
0.7939671653543307
0
LINE
8
BLACK
6
CONTINUOUS
10
0.4020983464566929
20
0.7939671653543307
11
0.4016768503937008
21
0.7938139370078739
0
LINE
8
BLACK
6
CONTINUOUS
10
0.4016768503937008
20
0.7938139370078739
11
0.4012699606299213
21
0.7936240157480314
0
LINE
8
BLACK
6
CONTINUOUS
10
0.4012699606299213
20
0.7936240157480314
11
0.4011387795275591
21
0.7936182677165354
0
LINE
8
BLACK
6
CONTINUOUS
10
0.4011387795275591
20
0.7936182677165354
11
0.4010156299212598
21
0.7935734645669291
0
LINE
8
BLACK
6
CONTINUOUS
10
0.4010156299212598
20
0.7935734645669291
11
0.4005675196850393
21
0.7935931496062992
0
LINE
8
BLACK
6
CONTINUOUS
10
0.4005675196850393
20
0.7935931496062992
11
0.400118937007874
21
0.7935734251968504
0
LINE
8
BLACK
6
CONTINUOUS
10
0.400118937007874
20
0.7935734251968504
11
0.3999956299212598
21
0.7936182677165354
0
LINE
8
BLACK
6
CONTINUOUS
10
0.3999956299212598
20
0.7936182677165354
11
0.3998646062992126
21
0.7936240157480314
0
LINE
8
BLACK
6
CONTINUOUS
10
0.3998646062992126
20
0.7936240157480314
11
0.3994579527559055
21
0.7938138188976378
0
LINE
8
BLACK
6
CONTINUOUS
10
0.3994579527559055
20
0.7938138188976378
11
0.3990362204724409
21
0.7939671653543307
0
LINE
8
BLACK
6
CONTINUOUS
10
0.3990362204724409
20
0.7939671653543307
11
0.3989394094488189
21
0.7940558267716535
0
LINE
8
BLACK
6
CONTINUOUS
10
0.3989394094488189
20
0.7940558267716535
11
0.3988205905511811
21
0.7941112598425196
0
LINE
8
BLACK
6
CONTINUOUS
10
0.3988205905511811
20
0.7941112598425196
11
0.3985176377952756
21
0.7944420866141733
0
LINE
8
BLACK
6
CONTINUOUS
10
0.3985176377952756
20
0.7944420866141733
11
0.3981865748031496
21
0.7947452362204724
0
LINE
8
BLACK
6
CONTINUOUS
10
0.3981865748031496
20
0.7947452362204724
11
0.3980887007874016
21
0.7949104330708662
0
LINE
8
BLACK
6
CONTINUOUS
10
0.3980887007874016
20
0.7949104330708662
11
0.3980424803149606
21
0.794960905511811
0
LINE
8
BLACK
6
CONTINUOUS
10
0.3980424803149606
20
0.794960905511811
11
0.3980164960629921
21
0.7950322834645669
0
LINE
8
BLACK
6
CONTINUOUS
10
0.3980164960629921
20
0.7950322834645669
11
0.3978915354330709
21
0.7952432677165354
0
LINE
8
BLACK
6
CONTINUOUS
10
0.3978915354330709
20
0.7952432677165354
11
0.3903966929133858
21
0.8113037007874015
0
LINE
8
BLACK
6
CONTINUOUS
10
0.3903966929133858
20
0.8113037007874015
11
0.3903966929133858
21
0.7852433464566929
0
LINE
8
BLACK
6
CONTINUOUS
10
0.3903966929133858
20
0.7852433464566929
11
0.3903399606299213
21
0.7846672834645669
0
LINE
8
BLACK
6
CONTINUOUS
10
0.3903399606299213
20
0.7846672834645669
11
0.3898990551181102
21
0.783602874015748
0
LINE
8
BLACK
6
CONTINUOUS
10
0.3898990551181102
20
0.783602874015748
11
0.3890844094488189
21
0.7827882283464567
0
LINE
8
BLACK
6
CONTINUOUS
10
0.3890844094488189
20
0.7827882283464567
11
0.38802
21
0.7823473228346457
0
LINE
8
BLACK
6
CONTINUOUS
10
0.38802
20
0.7823473228346457
11
0.386867874015748
21
0.7823473228346457
0
LINE
8
BLACK
6
CONTINUOUS
10
0.386867874015748
20
0.7823473228346457
11
0.3858034645669291
21
0.7827882283464567
0
LINE
8
BLACK
6
CONTINUOUS
10
0.3858034645669291
20
0.7827882283464567
11
0.3849888188976378
21
0.783602874015748
0
LINE
8
BLACK
6
CONTINUOUS
10
0.3849888188976378
20
0.783602874015748
11
0.3845479133858268
21
0.7846672834645669
0
LINE
8
BLACK
6
CONTINUOUS
10
0.3845479133858268
20
0.7846672834645669
11
0.3844911811023622
21
0.7852433464566929
0
LINE
8
BLACK
6
CONTINUOUS
10
0.3844911811023622
20
0.7852433464566929
11
0.3844911811023622
21
0.8246134251968503
0
LINE
8
BLACK
6
CONTINUOUS
10
0.3844911811023622
20
0.8246134251968503
11
0.3845284645669291
21
0.8249922440944881
0
LINE
8
BLACK
6
CONTINUOUS
10
0.3845284645669291
20
0.8249922440944881
11
0.3845254330708661
21
0.8250617716535433
0
LINE
8
BLACK
6
CONTINUOUS
10
0.3845254330708661
20
0.8250617716535433
11
0.3845389763779528
21
0.8250991338582677
0
LINE
8
BLACK
6
CONTINUOUS
10
0.3845389763779528
20
0.8250991338582677
11
0.3845479133858268
21
0.8251894881889763
0
LINE
8
BLACK
6
CONTINUOUS
10
0.3845479133858268
20
0.8251894881889763
11
0.3847440157480315
21
0.8256629921259843
0
LINE
8
BLACK
6
CONTINUOUS
10
0.3847440157480315
20
0.8256629921259843
11
0.3849191338582677
21
0.8261444881889763
0
LINE
8
BLACK
6
CONTINUOUS
10
0.3849191338582677
20
0.8261444881889763
11
0.3849635826771654
21
0.8261930708661417
0
LINE
8
BLACK
6
CONTINUOUS
10
0.3849635826771654
20
0.8261930708661417
11
0.3849888188976378
21
0.8262538976377952
0
LINE
8
BLACK
6
CONTINUOUS
10
0.3849888188976378
20
0.8262538976377952
11
0.3853512204724409
21
0.8266163385826771
0
LINE
8
BLACK
6
CONTINUOUS
10
0.3853512204724409
20
0.8266163385826771
11
0.3856972440944882
21
0.8269941338582677
0
LINE
8
BLACK
6
CONTINUOUS
10
0.3856972440944882
20
0.8269941338582677
11
0.3857568897637795
21
0.8270220078740157
0
LINE
8
BLACK
6
CONTINUOUS
10
0.3857568897637795
20
0.8270220078740157
11
0.3858034645669291
21
0.8270685433070866
0
LINE
8
BLACK
6
CONTINUOUS
10
0.3858034645669291
20
0.8270685433070866
11
0.3862767322834645
21
0.8272646062992126
0
LINE
8
BLACK
6
CONTINUOUS
10
0.3862767322834645
20
0.8272646062992126
11
0.3867412598425197
21
0.8274813779527559
0
LINE
8
BLACK
6
CONTINUOUS
10
0.3867412598425197
20
0.8274813779527559
11
0.3868070472440945
21
0.8274842913385827
0
LINE
8
BLACK
6
CONTINUOUS
10
0.3868070472440945
20
0.8274842913385827
11
0.386867874015748
21
0.8275094488188977
0
LINE
8
BLACK
6
CONTINUOUS
10
0.386867874015748
20
0.8275094488188977
11
0.3873804330708661
21
0.8275094488188977
0
LINE
8
BLACK
6
CONTINUOUS
10
0.3873804330708661
20
0.8275094488188977
11
0.3878922834645669
21
0.8275319291338582
0
LINE
8
BLACK
6
CONTINUOUS
10
0.3878922834645669
20
0.8275319291338582
11
0.387954094488189
21
0.8275094488188977
0
LINE
8
BLACK
6
CONTINUOUS
10
0.387954094488189
20
0.8275094488188977
11
0.38802
21
0.8275094488188977
0
LINE
8
BLACK
6
CONTINUOUS
10
0.38802
20
0.8275094488188977
11
0.3884934645669291
21
0.8273133464566929
0
LINE
8
BLACK
6
CONTINUOUS
10
0.3884934645669291
20
0.8273133464566929
11
0.388975
21
0.8271382283464567
0
LINE
8
BLACK
6
CONTINUOUS
10
0.388975
20
0.8271382283464567
11
0.3890235433070866
21
0.827093779527559
0
LINE
8
BLACK
6
CONTINUOUS
10
0.3890235433070866
20
0.827093779527559
11
0.3890844094488189
21
0.8270685433070866
0
LINE
8
BLACK
6
CONTINUOUS
10
0.3890844094488189
20
0.8270685433070866
11
0.3894468110236221
21
0.8267061417322834
0
LINE
8
BLACK
6
CONTINUOUS
10
0.3894468110236221
20
0.8267061417322834
11
0.3898246456692913
21
0.8263601181102362
0
LINE
8
BLACK
6
CONTINUOUS
10
0.3898246456692913
20
0.8263601181102362
11
0.3898708661417323
21
0.8262820866141732
0
LINE
8
BLACK
6
CONTINUOUS
10
0.3898708661417323
20
0.8262820866141732
11
0.3898990551181102
21
0.8262538976377952
0
LINE
8
BLACK
6
CONTINUOUS
10
0.3898990551181102
20
0.8262538976377952
11
0.389925748031496
21
0.8261894881889763
0
LINE
8
BLACK
6
CONTINUOUS
10
0.389925748031496
20
0.8261894881889763
11
0.3901196850393701
21
0.8258620866141733
0
LINE
8
BLACK
6
CONTINUOUS
10
0.3901196850393701
20
0.8258620866141733
11
0.4005672440944882
21
0.8034744094488189
0
LINE
8
BLACK
6
CONTINUOUS
10
0.4005672440944882
20
0.8034744094488189
11
0.4110148818897638
21
0.8258621259842519
0
LINE
8
BLACK
6
CONTINUOUS
10
0.4110148818897638
20
0.8258621259842519
11
0.4112088582677165
21
0.8261896062992126
0
LINE
8
BLACK
6
CONTINUOUS
10
0.4112088582677165
20
0.8261896062992126
11
0.4112355118110236
21
0.8262538976377952
0
LINE
8
BLACK
6
CONTINUOUS
10
0.4112355118110236
20
0.8262538976377952
11
0.4112636220472441
21
0.8262820472440945
0
LINE
8
BLACK
6
CONTINUOUS
10
0.4112636220472441
20
0.8262820472440945
11
0.4113099212598425
21
0.826360157480315
0
LINE
8
BLACK
6
CONTINUOUS
10
0.4113099212598425
20
0.826360157480315
11
0.4116879921259842
21
0.8267064173228347
0
LINE
8
BLACK
6
CONTINUOUS
10
0.4116879921259842
20
0.8267064173228347
11
0.4120501574803149
21
0.8270685433070866
0
LINE
8
BLACK
6
CONTINUOUS
10
0.4120501574803149
20
0.8270685433070866
11
0.4121109842519685
21
0.8270937401574803
0
LINE
8
BLACK
6
CONTINUOUS
10
0.4121109842519685
20
0.8270937401574803
11
0.4121595669291339
21
0.8271382283464567
0
LINE
8
BLACK
6
CONTINUOUS
10
0.4121595669291339
20
0.8271382283464567
11
0.4126413779527559
21
0.8273134645669291
0
LINE
8
BLACK
6
CONTINUOUS
10
0.4126413779527559
20
0.8273134645669291
11
0.4131145669291338
21
0.8275094488188977
0
LINE
8
BLACK
6
CONTINUOUS
10
0.4131145669291338
20
0.8275094488188977
11
0.4131803543307087
21
0.8275094488188977
0
LINE
8
BLACK
6
CONTINUOUS
10
0.4131803543307087
20
0.8275094488188977
11
0.4132422834645669
21
0.827531968503937
0
LINE
8
BLACK
6
CONTINUOUS
10
0.4132422834645669
20
0.827531968503937
11
0.4137546456692913
21
0.8275094488188977
0
LINE
8
BLACK
6
CONTINUOUS
10
0.4275170866141732
20
1.0239189370078741
11
0.4283317322834646
21
1.0231042913385826
0
LINE
8
BLACK
6
CONTINUOUS
10
0.4283317322834646
20
1.0231042913385826
11
0.4287726377952756
21
1.0220398818897638
0
LINE
8
BLACK
6
CONTINUOUS
10
0.4287726377952756
20
1.0220398818897638
11
0.4288293700787402
21
1.0214638188976377
0
LINE
8
BLACK
6
CONTINUOUS
10
0.4288293700787402
20
1.0214638188976377
11
0.4288293700787402
21
0.9933423622047244
0
LINE
8
BLACK
6
CONTINUOUS
10
0.4288293700787402
20
0.9933423622047244
11
0.4288006299212598
21
0.9930507874015748
0
LINE
8
BLACK
6
CONTINUOUS
10
0.4288006299212598
20
0.9930507874015748
11
0.4288061811023622
21
0.992973031496063
0
LINE
8
BLACK
6
CONTINUOUS
10
0.4288061811023622
20
0.992973031496063
11
0.4287829133858267
21
0.9928707874015748
0
LINE
8
BLACK
6
CONTINUOUS
10
0.4287829133858267
20
0.9928707874015748
11
0.4287726377952756
21
0.9927662992125984
0
LINE
8
BLACK
6
CONTINUOUS
10
0.4287726377952756
20
0.9927662992125984
11
0.4287427559055118
21
0.9926942519685039
0
LINE
8
BLACK
6
CONTINUOUS
10
0.4287427559055118
20
0.9926942519685039
11
0.4286778346456693
21
0.9924085826771654
0
LINE
8
BLACK
6
CONTINUOUS
10
0.4286778346456693
20
0.9924085826771654
11
0.4268030708661417
21
0.9867843307086615
0
LINE
8
BLACK
6
CONTINUOUS
10
0.4268030708661417
20
0.9867843307086615
11
0.4265670866141732
21
0.9862557480314961
0
LINE
8
BLACK
6
CONTINUOUS
10
0.4265670866141732
20
0.9862557480314961
11
0.4264975590551181
21
0.9861756299212598
0
LINE
8
BLACK
6
CONTINUOUS
10
0.4264975590551181
20
0.9861756299212598
11
0.4264570078740157
21
0.9860776377952756
0
LINE
8
BLACK
6
CONTINUOUS
10
0.4264570078740157
20
0.9860776377952756
11
0.4260898031496063
21
0.9856301968503937
0
LINE
8
BLACK
6
CONTINUOUS
10
0.4260898031496063
20
0.9856301968503937
11
0.4223402362204725
21
0.981880590551181
0
LINE
8
BLACK
6
CONTINUOUS
10
0.4223402362204725
20
0.981880590551181
11
0.4218927952755905
21
0.9815133858267716
0
LINE
8
BLACK
6
CONTINUOUS
10
0.4218927952755905
20
0.9815133858267716
11
0.4217947244094488
21
0.9814727952755905
0
LINE
8
BLACK
6
CONTINUOUS
10
0.4217947244094488
20
0.9814727952755905
11
0.4217146062992126
21
0.9814032677165354
0
LINE
8
BLACK
6
CONTINUOUS
10
0.4217146062992126
20
0.9814032677165354
11
0.421186062992126
21
0.9811672834645669
0
LINE
8
BLACK
6
CONTINUOUS
10
0.421186062992126
20
0.9811672834645669
11
0.4155617716535433
21
0.9792925196850394
0
LINE
8
BLACK
6
CONTINUOUS
10
0.4155617716535433
20
0.9792925196850394
11
0.4152761811023622
21
0.9792275984251968
0
LINE
8
BLACK
6
CONTINUOUS
10
0.4152761811023622
20
0.9792275984251968
11
0.415204094488189
21
0.9791977165354331
0
LINE
8
BLACK
6
CONTINUOUS
10
0.415204094488189
20
0.9791977165354331
11
0.4150995669291339
21
0.9791874409448819
0
LINE
8
BLACK
6
CONTINUOUS
10
0.4150995669291339
20
0.9791874409448819
11
0.4149973228346456
21
0.9791641732283465
0
LINE
8
BLACK
6
CONTINUOUS
10
0.4149973228346456
20
0.9791641732283465
11
0.4149195669291338
21
0.9791697244094488
0
LINE
8
BLACK
6
CONTINUOUS
10
0.4149195669291338
20
0.9791697244094488
11
0.414628031496063
21
0.9791409842519685
0
LINE
8
BLACK
6
CONTINUOUS
10
0.414628031496063
20
0.9791409842519685
11
0.4108785039370079
21
0.9791409842519685
0
LINE
8
BLACK
6
CONTINUOUS
10
0.4108785039370079
20
0.9791409842519685
11
0.4103024409448819
21
0.9791977165354331
0
LINE
8
BLACK
6
CONTINUOUS
10
0.4103024409448819
20
0.9791977165354331
11
0.409238031496063
21
0.9796386220472441
0
LINE
8
BLACK
6
CONTINUOUS
10
0.409238031496063
20
0.9796386220472441
11
0.4084233858267716
21
0.9804532677165354
0
LINE
8
BLACK
6
CONTINUOUS
10
0.4084233858267716
20
0.9804532677165354
11
0.4079824803149606
21
0.9815176771653543
0
LINE
8
BLACK
6
CONTINUOUS
10
0.4079824803149606
20
0.9815176771653543
11
0.4079824803149606
21
0.9826698031496063
0
LINE
8
BLACK
6
CONTINUOUS
10
0.4079824803149606
20
0.9826698031496063
11
0.4084233858267716
21
0.9837342125984252
0
LINE
8
BLACK
6
CONTINUOUS
10
0.4084233858267716
20
0.9837342125984252
11
0.409238031496063
21
0.9845488582677165
0
LINE
8
BLACK
6
CONTINUOUS
10
0.409238031496063
20
0.9845488582677165
11
0.4103024409448819
21
0.9849897637795275
0
LINE
8
BLACK
6
CONTINUOUS
10
0.4103024409448819
20
0.9849897637795275
11
0.4108785039370079
21
0.9850464960629921
0
LINE
8
BLACK
6
CONTINUOUS
10
0.4108785039370079
20
0.9850464960629921
11
0.4141488976377953
21
0.9850464960629921
0
LINE
8
BLACK
6
CONTINUOUS
10
0.4141488976377953
20
0.9850464960629921
11
0.4186572834645669
21
0.9865493307086614
0
LINE
8
BLACK
6
CONTINUOUS
10
0.4186572834645669
20
0.9865493307086614
11
0.4214210236220473
21
0.9893131102362205
0
LINE
8
BLACK
6
CONTINUOUS
10
0.4214210236220473
20
0.9893131102362205
11
0.4229238582677165
21
0.9938214960629921
0
LINE
8
BLACK
6
CONTINUOUS
10
0.4229238582677165
20
0.9938214960629921
11
0.4229238582677165
21
1.0214638188976377
0
LINE
8
BLACK
6
CONTINUOUS
10
0.4229238582677165
20
1.0214638188976377
11
0.4229805905511811
21
1.0220398818897638
0
LINE
8
BLACK
6
CONTINUOUS
10
0.4229805905511811
20
1.0220398818897638
11
0.4234214960629921
21
1.0231042913385826
0
LINE
8
BLACK
6
CONTINUOUS
10
0.4234214960629921
20
1.0231042913385826
11
0.4242361417322835
21
1.0239189370078741
0
LINE
8
BLACK
6
CONTINUOUS
10
0.4242361417322835
20
1.0239189370078741
11
0.4253005511811023
21
1.0243598425196849
0
LINE
8
BLACK
6
CONTINUOUS
10
0.4253005511811023
20
1.0243598425196849
11
0.4264526771653543
21
1.0243598425196849
0
LINE
8
BLACK
6
CONTINUOUS
10
0.4264526771653543
20
1.0243598425196849
11
0.4275170866141732
21
1.0239189370078741
0
LINE
8
BLACK
6
CONTINUOUS
10
0.4583237007874016
20
1.0243598425196849
11
0.4584216929133858
21
1.0243192519685038
0
LINE
8
BLACK
6
CONTINUOUS
10
0.4584216929133858
20
1.0243192519685038
11
0.4585275196850394
21
1.0243117322834645
0
LINE
8
BLACK
6
CONTINUOUS
10
0.4585275196850394
20
1.0243117322834645
11
0.4590681496062992
21
1.024104842519685
0
LINE
8
BLACK
6
CONTINUOUS
10
0.4590681496062992
20
1.024104842519685
11
0.4628176771653543
21
1.0222300787401575
0
LINE
8
BLACK
6
CONTINUOUS
10
0.4628176771653543
20
1.0222300787401575
11
0.4630656692913386
21
1.0220740157480315
0
LINE
8
BLACK
6
CONTINUOUS
10
0.4630656692913386
20
1.0220740157480315
11
0.4631376377952756
21
1.0220441732283465
0
LINE
8
BLACK
6
CONTINUOUS
10
0.4631376377952756
20
1.0220441732283465
11
0.4632185826771654
21
1.0219777165354331
0
LINE
8
BLACK
6
CONTINUOUS
10
0.4632185826771654
20
1.0219777165354331
11
0.4633075590551181
21
1.0219217322834646
0
LINE
8
BLACK
6
CONTINUOUS
10
0.4633075590551181
20
1.0219217322834646
11
0.4633587007874015
21
1.0218627559055118
0
LINE
8
BLACK
6
CONTINUOUS
10
0.4633587007874015
20
1.0218627559055118
11
0.4635850787401575
21
1.0216769685039371
0
LINE
8
BLACK
6
CONTINUOUS
10
0.4635850787401575
20
1.0216769685039371
11
0.465459842519685
21
1.0198022047244095
0
LINE
8
BLACK
6
CONTINUOUS
10
0.465459842519685
20
1.0198022047244095
11
0.4656455905511811
21
1.0195758661417322
0
LINE
8
BLACK
6
CONTINUOUS
10
0.4656455905511811
20
1.0195758661417322
11
0.4657046062992126
21
1.01952468503937
0
LINE
8
BLACK
6
CONTINUOUS
10
0.4657046062992126
20
1.01952468503937
11
0.4657605511811024
21
1.0194357480314959
0
LINE
8
BLACK
6
CONTINUOUS
10
0.4657605511811024
20
1.0194357480314959
11
0.4658270472440945
21
1.0193547637795275
0
LINE
8
BLACK
6
CONTINUOUS
10
0.4658270472440945
20
1.0193547637795275
11
0.4658568503937008
21
1.0192828346456693
0
LINE
8
BLACK
6
CONTINUOUS
10
0.4658568503937008
20
1.0192828346456693
11
0.4660129527559055
21
1.0190348031496064
0
LINE
8
BLACK
6
CONTINUOUS
10
0.4660129527559055
20
1.0190348031496064
11
0.467887716535433
21
1.0152852755905513
0
LINE
8
BLACK
6
CONTINUOUS
10
0.467887716535433
20
1.0152852755905513
11
0.4680946062992126
21
1.01474468503937
0
LINE
8
BLACK
6
CONTINUOUS
10
0.4680946062992126
20
1.01474468503937
11
0.4681021259842519
21
1.0146388188976379
0
LINE
8
BLACK
6
CONTINUOUS
10
0.4681021259842519
20
1.0146388188976379
11
0.468142716535433
21
1.0145408267716536
0
LINE
8
BLACK
6
CONTINUOUS
10
0.468142716535433
20
1.0145408267716536
11
0.4681994488188976
21
1.0139647637795275
0
LINE
8
BLACK
6
CONTINUOUS
10
0.4681994488188976
20
1.0139647637795275
11
0.4681994488188976
21
0.998966653543307
0
LINE
8
BLACK
6
CONTINUOUS
10
0.4681994488188976
20
0.998966653543307
11
0.4681895275590551
21
0.9988661417322835
0
LINE
8
BLACK
6
CONTINUOUS
10
0.4681895275590551
20
0.9988661417322835
11
0.4681959448818898
21
0.9988231102362205
0
LINE
8
BLACK
6
CONTINUOUS
10
0.4681959448818898
20
0.9988231102362205
11
0.4681640551181102
21
0.9986076377952756
0
LINE
8
BLACK
6
CONTINUOUS
10
0.4681640551181102
20
0.9986076377952756
11
0.468142716535433
21
0.9983905905511811
0
LINE
8
BLACK
6
CONTINUOUS
10
0.468142716535433
20
0.9983905905511811
11
0.4681260629921259
21
0.9983503937007874
0
LINE
8
BLACK
6
CONTINUOUS
10
0.4681260629921259
20
0.9983503937007874
11
0.4681112992125984
21
0.9982505118110236
0
LINE
8
BLACK
6
CONTINUOUS
10
0.4681112992125984
20
0.9982505118110236
11
0.4662365354330709
21
0.9907514566929133
0
LINE
8
BLACK
6
CONTINUOUS
10
0.4662365354330709
20
0.9907514566929133
11
0.4661151968503937
21
0.990411968503937
0
LINE
8
BLACK
6
CONTINUOUS
10
0.4661151968503937
20
0.990411968503937
11
0.4661011023622047
21
0.9903405118110236
0
LINE
8
BLACK
6
CONTINUOUS
10
0.4661011023622047
20
0.9903405118110236
11
0.4660665354330709
21
0.9902757480314961
0
LINE
8
BLACK
6
CONTINUOUS
10
0.4660665354330709
20
0.9902757480314961
11
0.4660417716535433
21
0.9902063385826771
0
LINE
8
BLACK
6
CONTINUOUS
10
0.4660417716535433
20
0.9902063385826771
11
0.4659982283464567
21
0.9901476377952756
0
LINE
8
BLACK
6
CONTINUOUS
10
0.4659982283464567
20
0.9901476377952756
11
0.465828779527559
21
0.9898297244094488
0
LINE
8
BLACK
6
CONTINUOUS
10
0.465828779527559
20
0.9898297244094488
11
0.4620792519685039
21
0.9842053937007874
0
LINE
8
BLACK
6
CONTINUOUS
10
0.4620792519685039
20
0.9842053937007874
11
0.4620779133858268
21
0.9842038188976377
0
LINE
8
BLACK
6
CONTINUOUS
10
0.4620779133858268
20
0.9842038188976377
11
0.4620775590551181
21
0.984202874015748
0
LINE
8
BLACK
6
CONTINUOUS
10
0.4620775590551181
20
0.984202874015748
11
0.4618990551181102
21
0.9839853937007874
0
LINE
8
BLACK
6
CONTINUOUS
10
0.4618990551181102
20
0.9839853937007874
11
0.4617124803149606
21
0.9837575590551181
0
LINE
8
BLACK
6
CONTINUOUS
10
0.4617124803149606
20
0.9837575590551181
11
0.4617116141732283
21
0.9837570078740158
0
LINE
8
BLACK
6
CONTINUOUS
10
0.4617116141732283
20
0.9837570078740158
11
0.4617103149606299
21
0.9837553937007874
0
LINE
8
BLACK
6
CONTINUOUS
10
0.4617103149606299
20
0.9837553937007874
11
0.4598355905511811
21
0.9818806299212598
0
LINE
8
BLACK
6
CONTINUOUS
10
0.4598355905511811
20
0.9818806299212598
11
0.4596092125984252
21
0.9816948818897637
0
LINE
8
BLACK
6
CONTINUOUS
10
0.4596092125984252
20
0.9816948818897637
11
0.459558031496063
21
0.9816358267716535
0
LINE
8
BLACK
6
CONTINUOUS
10
0.459558031496063
20
0.9816358267716535
11
0.4594690551181102
21
0.981579842519685
0
LINE
8
BLACK
6
CONTINUOUS
10
0.4594690551181102
20
0.981579842519685
11
0.4593881102362204
21
0.9815133858267716
0
LINE
8
BLACK
6
CONTINUOUS
10
0.4593881102362204
20
0.9815133858267716
11
0.4593161417322835
21
0.9814835826771653
0
LINE
8
BLACK
6
CONTINUOUS
10
0.4593161417322835
20
0.9814835826771653
11
0.4590681496062992
21
0.9813274803149606
0
LINE
8
BLACK
6
CONTINUOUS
10
0.4590681496062992
20
0.9813274803149606
11
0.4553186220472441
21
0.9794527165354331
0
LINE
8
BLACK
6
CONTINUOUS
10
0.4553186220472441
20
0.9794527165354331
11
0.4547779921259842
21
0.9792458267716535
0
LINE
8
BLACK
6
CONTINUOUS
10
0.4547779921259842
20
0.9792458267716535
11
0.4546721653543307
21
0.9792383464566929
0
LINE
8
BLACK
6
CONTINUOUS
10
0.4546721653543307
20
0.9792383464566929
11
0.4545741732283464
21
0.9791977165354331
0
LINE
8
BLACK
6
CONTINUOUS
10
0.4545741732283464
20
0.9791977165354331
11
0.4539981102362204
21
0.9791409842519685
0
LINE
8
BLACK
6
CONTINUOUS
10
0.4539981102362204
20
0.9791409842519685
11
0.4464990551181102
21
0.9791409842519685
0
LINE
8
BLACK
6
CONTINUOUS
10
0.4464990551181102
20
0.9791409842519685
11
0.4459229921259842
21
0.9791977165354331
0
LINE
8
BLACK
6
CONTINUOUS
10
0.4459229921259842
20
0.9791977165354331
11
0.4448585826771653
21
0.9796386220472441
0
LINE
8
BLACK
6
CONTINUOUS
10
0.4448585826771653
20
0.9796386220472441
11
0.444043937007874
21
0.9804532677165354
0
LINE
8
BLACK
6
CONTINUOUS
10
0.444043937007874
20
0.9804532677165354
11
0.443603031496063
21
0.9815176771653543
0
LINE
8
BLACK
6
CONTINUOUS
10
0.443603031496063
20
0.9815176771653543
11
0.443603031496063
21
0.9826698031496063
0
LINE
8
BLACK
6
CONTINUOUS
10
0.443603031496063
20
0.9826698031496063
11
0.444043937007874
21
0.9837342125984252
0
LINE
8
BLACK
6
CONTINUOUS
10
0.444043937007874
20
0.9837342125984252
11
0.4448585826771653
21
0.9845488582677165
0
LINE
8
BLACK
6
CONTINUOUS
10
0.4448585826771653
20
0.9845488582677165
11
0.4459229921259842
21
0.9849897637795275
0
LINE
8
BLACK
6
CONTINUOUS
10
0.4459229921259842
20
0.9849897637795275
11
0.4464990551181102
21
0.9850464960629921
0
LINE
8
BLACK
6
CONTINUOUS
10
0.4464990551181102
20
0.9850464960629921
11
0.453301062992126
21
0.9850464960629921
0
LINE
8
BLACK
6
CONTINUOUS
10
0.453301062992126
20
0.9850464960629921
11
0.4559985039370079
21
0.9863952362204724
0
LINE
8
BLACK
6
CONTINUOUS
10
0.4559985039370079
20
0.9863952362204724
11
0.4573276377952756
21
0.9877244094488189
0
LINE
8
BLACK
6
CONTINUOUS
10
0.4573276377952756
20
0.9877244094488189
11
0.4606313779527559
21
0.9926799606299213
0
LINE
8
BLACK
6
CONTINUOUS
10
0.4606313779527559
20
0.9926799606299213
11
0.4613606692913386
21
0.995597125984252
0
LINE
8
BLACK
6
CONTINUOUS
10
0.4613606692913386
20
0.995597125984252
11
0.4590681496062992
21
0.9944508661417323
0
LINE
8
BLACK
6
CONTINUOUS
10
0.4590681496062992
20
0.9944508661417323
11
0.4585275196850394
21
0.9942439763779527
0
LINE
8
BLACK
6
CONTINUOUS
10
0.4585275196850394
20
0.9942439763779527
11
0.4584216929133858
21
0.9942364960629921
0
LINE
8
BLACK
6
CONTINUOUS
10
0.4584216929133858
20
0.9942364960629921
11
0.4583237007874016
21
0.9941958661417323
0
LINE
8
BLACK
6
CONTINUOUS
10
0.4583237007874016
20
0.9941958661417323
11
0.4577476377952756
21
0.9941391338582677
0
LINE
8
BLACK
6
CONTINUOUS
10
0.4577476377952756
20
0.9941391338582677
11
0.4502485826771653
21
0.9941391338582677
0
LINE
8
BLACK
6
CONTINUOUS
10
0.4502485826771653
20
0.9941391338582677
11
0.4496725196850394
21
0.9941958661417323
0
LINE
8
BLACK
6
CONTINUOUS
10
0.4496725196850394
20
0.9941958661417323
11
0.4495745275590551
21
0.9942364566929134
0
LINE
8
BLACK
6
CONTINUOUS
10
0.4495745275590551
20
0.9942364566929134
11
0.4494686614173228
21
0.9942439763779527
0
LINE
8
BLACK
6
CONTINUOUS
10
0.4494686614173228
20
0.9942439763779527
11
0.4489280708661417
21
0.9944508661417323
0
LINE
8
BLACK
6
CONTINUOUS
10
0.4489280708661417
20
0.9944508661417323
11
0.4451785433070866
21
0.9963256299212598
0
LINE
8
BLACK
6
CONTINUOUS
10
0.4451785433070866
20
0.9963256299212598
11
0.4449305118110236
21
0.9964817322834646
0
LINE
8
BLACK
6
CONTINUOUS
10
0.4449305118110236
20
0.9964817322834646
11
0.4448585826771653
21
0.9965115354330708
0
LINE
8
BLACK
6
CONTINUOUS
10
0.4448585826771653
20
0.9965115354330708
11
0.4447775984251968
21
0.9965780314960629
0
LINE
8
BLACK
6
CONTINUOUS
10
0.4447775984251968
20
0.9965780314960629
11
0.4446886614173228
21
0.9966339763779527
0
LINE
8
BLACK
6
CONTINUOUS
10
0.4446886614173228
20
0.9966339763779527
11
0.4446374803149606
21
0.9966929921259843
0
LINE
8
BLACK
6
CONTINUOUS
10
0.4446374803149606
20
0.9966929921259843
11
0.4444111417322835
21
0.9968787401574803
0
LINE
8
BLACK
6
CONTINUOUS
10
0.4444111417322835
20
0.9968787401574803
11
0.4425363779527559
21
0.9987535039370079
0
LINE
8
BLACK
6
CONTINUOUS
10
0.4425363779527559
20
0.9987535039370079
11
0.4423505905511811
21
0.9989798818897637
0
LINE
8
BLACK
6
CONTINUOUS
10
0.4423505905511811
20
0.9989798818897637
11
0.4422916141732283
21
0.9990310236220472
0
LINE
8
BLACK
6
CONTINUOUS
10
0.4422916141732283
20
0.9990310236220472
11
0.4422356299212598
21
0.99912
0
LINE
8
BLACK
6
CONTINUOUS
10
0.4422356299212598
20
0.99912
11
0.4421691732283464
21
0.9992009448818897
0
LINE
8
BLACK
6
CONTINUOUS
10
0.4421691732283464
20
0.9992009448818897
11
0.4421393307086614
21
0.9992729133858268
0
LINE
8
BLACK
6
CONTINUOUS
10
0.4421393307086614
20
0.9992729133858268
11
0.4419832677165354
21
0.9995209055118111
0
LINE
8
BLACK
6
CONTINUOUS
10
0.4419832677165354
20
0.9995209055118111
11
0.4401085039370078
21
1.0032704330708662
0
LINE
8
BLACK
6
CONTINUOUS
10
0.4401085039370078
20
1.0032704330708662
11
0.4399016141732283
21
1.003811062992126
0
LINE
8
BLACK
6
CONTINUOUS
10
0.4399016141732283
20
1.003811062992126
11
0.4398940944881889
21
1.0039168897637796
0
LINE
8
BLACK
6
CONTINUOUS
10
0.4398940944881889
20
1.0039168897637796
11
0.4398535039370078
21
1.0040148818897638
0
LINE
8
BLACK
6
CONTINUOUS
10
0.4398535039370078
20
1.0040148818897638
11
0.4397967716535433
21
1.0045909448818897
0
LINE
8
BLACK
6
CONTINUOUS
10
0.4397967716535433
20
1.0045909448818897
11
0.4397967716535433
21
1.0139647637795275
0
LINE
8
BLACK
6
CONTINUOUS
10
0.4397967716535433
20
1.0139647637795275
11
0.4398535039370078
21
1.0145408267716536
0
LINE
8
BLACK
6
CONTINUOUS
10
0.4398535039370078
20
1.0145408267716536
11
0.4398940944881889
21
1.0146388582677166
0
LINE
8
BLACK
6
CONTINUOUS
10
0.4398940944881889
20
1.0146388582677166
11
0.4399016141732283
21
1.0147446456692912
0
LINE
8
BLACK
6
CONTINUOUS
10
0.4399016141732283
20
1.0147446456692912
11
0.4401085039370078
21
1.0152852755905513
0
LINE
8
BLACK
6
CONTINUOUS
10
0.4401085039370078
20
1.0152852755905513
11
0.4419832677165354
21
1.0190348031496064
0
LINE
8
BLACK
6
CONTINUOUS
10
0.4419832677165354
20
1.0190348031496064
11
0.4421393307086614
21
1.0192828346456693
0
LINE
8
BLACK
6
CONTINUOUS
10
0.4421393307086614
20
1.0192828346456693
11
0.4421691732283464
21
1.0193547637795275
0
LINE
8
BLACK
6
CONTINUOUS
10
0.4421691732283464
20
1.0193547637795275
11
0.4422356299212598
21
1.0194357480314959
0
LINE
8
BLACK
6
CONTINUOUS
10
0.4422356299212598
20
1.0194357480314959
11
0.4422916141732283
21
1.01952468503937
0
LINE
8
BLACK
6
CONTINUOUS
10
0.4422916141732283
20
1.01952468503937
11
0.4423505905511811
21
1.0195758661417322
0
LINE
8
BLACK
6
CONTINUOUS
10
0.4423505905511811
20
1.0195758661417322
11
0.4425363779527559
21
1.0198022047244095
0
LINE
8
BLACK
6
CONTINUOUS
10
0.4425363779527559
20
1.0198022047244095
11
0.4444111417322835
21
1.0216769685039371
0
LINE
8
BLACK
6
CONTINUOUS
10
0.4444111417322835
20
1.0216769685039371
11
0.4446374803149606
21
1.0218627559055118
0
LINE
8
BLACK
6
CONTINUOUS
10
0.4446374803149606
20
1.0218627559055118
11
0.4446886614173228
21
1.0219217322834646
0
LINE
8
BLACK
6
CONTINUOUS
10
0.4446886614173228
20
1.0219217322834646
11
0.4447775984251968
21
1.0219777165354331
0
LINE
8
BLACK
6
CONTINUOUS
10
0.4447775984251968
20
1.0219777165354331
11
0.4448585826771653
21
1.0220441732283465
0
LINE
8
BLACK
6
CONTINUOUS
10
0.4448585826771653
20
1.0220441732283465
11
0.4449305118110236
21
1.0220740157480315
0
LINE
8
BLACK
6
CONTINUOUS
10
0.4449305118110236
20
1.0220740157480315
11
0.4451785433070866
21
1.0222300787401575
0
LINE
8
BLACK
6
CONTINUOUS
10
0.4451785433070866
20
1.0222300787401575
11
0.4489280708661417
21
1.024104842519685
0
LINE
8
BLACK
6
CONTINUOUS
10
0.4489280708661417
20
1.024104842519685
11
0.4494686614173228
21
1.0243117322834645
0
LINE
8
BLACK
6
CONTINUOUS
10
0.4494686614173228
20
1.0243117322834645
11
0.4495745275590551
21
1.0243192913385826
0
LINE
8
BLACK
6
CONTINUOUS
10
0.4495745275590551
20
1.0243192913385826
11
0.4496725196850394
21
1.0243598425196849
0
LINE
8
BLACK
6
CONTINUOUS
10
0.4496725196850394
20
1.0243598425196849
11
0.4502485826771653
21
1.0244165748031495
0
LINE
8
BLACK
6
CONTINUOUS
10
0.4502485826771653
20
1.0244165748031495
11
0.4577476377952756
21
1.0244165748031495
0
LINE
8
BLACK
6
CONTINUOUS
10
0.4577476377952756
20
1.0244165748031495
11
0.4583237007874016
21
1.0243598425196849
0
LINE
8
BLACK
6
CONTINUOUS
10
0.4482481496062992
20
1.0171623228346456
11
0.4470510236220472
21
1.0159651968503938
0
LINE
8
BLACK
6
CONTINUOUS
10
0.4470510236220472
20
1.0159651968503938
11
0.4457022834645669
21
1.0132677165354331
0
LINE
8
BLACK
6
CONTINUOUS
10
0.4457022834645669
20
1.0132677165354331
11
0.4457022834645669
21
1.0052879921259843
0
LINE
8
BLACK
6
CONTINUOUS
10
0.4457022834645669
20
1.0052879921259843
11
0.4470510236220472
21
1.0025905118110237
0
LINE
8
BLACK
6
CONTINUOUS
10
0.4470510236220472
20
1.0025905118110237
11
0.4482481496062992
21
1.0013933858267716
0
LINE
8
BLACK
6
CONTINUOUS
10
0.4482481496062992
20
1.0013933858267716
11
0.4509456299212598
21
1.0000446456692913
0
LINE
8
BLACK
6
CONTINUOUS
10
0.4509456299212598
20
1.0000446456692913
11
0.4570505905511811
21
1.0000446456692913
0
LINE
8
BLACK
6
CONTINUOUS
10
0.4570505905511811
20
1.0000446456692913
11
0.4597480708661417
21
1.0013933858267716
0
LINE
8
BLACK
6
CONTINUOUS
10
0.4597480708661417
20
1.0013933858267716
11
0.4609451968503937
21
1.0025905118110237
0
LINE
8
BLACK
6
CONTINUOUS
10
0.4609451968503937
20
1.0025905118110237
11
0.462293937007874
21
1.0052879921259843
0
LINE
8
BLACK
6
CONTINUOUS
10
0.462293937007874
20
1.0052879921259843
11
0.462293937007874
21
1.0132677165354331
0
LINE
8
BLACK
6
CONTINUOUS
10
0.462293937007874
20
1.0132677165354331
11
0.4609451968503937
21
1.0159651968503938
0
LINE
8
BLACK
6
CONTINUOUS
10
0.4609451968503937
20
1.0159651968503938
11
0.4597480708661417
21
1.0171623228346456
0
LINE
8
BLACK
6
CONTINUOUS
10
0.4597480708661417
20
1.0171623228346456
11
0.4570505905511811
21
1.0185110629921259
0
LINE
8
BLACK
6
CONTINUOUS
10
0.4570505905511811
20
1.0185110629921259
11
0.4509456299212598
21
1.0185110629921259
0
LINE
8
BLACK
6
CONTINUOUS
10
0.4509456299212598
20
1.0185110629921259
11
0.4482481496062992
21
1.0171623228346456
0
LINE
8
BLACK
6
CONTINUOUS
10
0.5647533070866142
20
1.1268186614173228
11
0.5658186614173228
21
1.1257533070866141
0
LINE
8
BLACK
6
CONTINUOUS
10
0.5658186614173228
20
1.1257533070866141
11
0.5659685039370078
21
1.125
0
LINE
8
BLACK
6
CONTINUOUS
10
0.5659685039370078
20
1.125
11
0.5659685039370078
21
0.875
0
LINE
8
BLACK
6
CONTINUOUS
10
0.5659685039370078
20
0.875
11
0.5658186614173228
21
0.8742466929133859
0
LINE
8
BLACK
6
CONTINUOUS
10
0.5658186614173228
20
0.8742466929133859
11
0.5647533070866142
21
0.8731813385826771
0
LINE
8
BLACK
6
CONTINUOUS
10
0.5647533070866142
20
0.8731813385826771
11
0.5639999999999999
21
0.8730314960629921
0
LINE
8
BLACK
6
CONTINUOUS
10
0.5639999999999999
20
0.8730314960629921
11
0.314
21
0.8730314960629921
0
LINE
8
BLACK
6
CONTINUOUS
10
0.314
20
0.8730314960629921
11
0.3132466929133858
21
0.8731813385826771
0
LINE
8
BLACK
6
CONTINUOUS
10
0.3132466929133858
20
0.8731813385826771
11
0.3121813385826772
21
0.8742466929133859
0
LINE
8
BLACK
6
CONTINUOUS
10
0.3121813385826772
20
0.8742466929133859
11
0.3120314960629921
21
0.875
0
LINE
8
BLACK
6
CONTINUOUS
10
0.3120314960629921
20
0.875
11
0.3120314960629921
21
1.125
0
LINE
8
BLACK
6
CONTINUOUS
10
0.3120314960629921
20
1.125
11
0.3121813385826772
21
1.1257533070866141
0
LINE
8
BLACK
6
CONTINUOUS
10
0.3121813385826772
20
1.1257533070866141
11
0.3132466929133858
21
1.1268186614173228
0
LINE
8
BLACK
6
CONTINUOUS
10
0.3132466929133858
20
1.1268186614173228
11
0.314
21
1.1269685039370079
0
LINE
8
BLACK
6
CONTINUOUS
10
0.314
20
1.1269685039370079
11
0.5639999999999999
21
1.1269685039370079
0
LINE
8
BLACK
6
CONTINUOUS
10
0.5639999999999999
20
1.1269685039370079
11
0.5647533070866142
21
1.1268186614173228
0
LINE
8
BLACK
6
CONTINUOUS
10
0.3159685039370079
20
0.8769685039370079
11
0.4083425984251968
21
0.8769685039370079
0
LINE
8
BLACK
6
CONTINUOUS
10
0.4083425984251968
20
0.8769685039370079
11
0.4038505905511811
21
0.8779937795275591
0
LINE
8
BLACK
6
CONTINUOUS
10
0.4038505905511811
20
0.8779937795275591
11
0.3904112598425197
21
0.8826964173228347
0
LINE
8
BLACK
6
CONTINUOUS
10
0.3904112598425197
20
0.8826964173228347
11
0.3775829527559055
21
0.8888741732283464
0
LINE
8
BLACK
6
CONTINUOUS
10
0.3775829527559055
20
0.8888741732283464
11
0.365526968503937
21
0.8964494488188977
0
LINE
8
BLACK
6
CONTINUOUS
10
0.365526968503937
20
0.8964494488188977
11
0.3543949606299213
21
0.9053269291338583
0
LINE
8
BLACK
6
CONTINUOUS
10
0.3543949606299213
20
0.9053269291338583
11
0.3443269291338583
21
0.9153949606299212
0
LINE
8
BLACK
6
CONTINUOUS
10
0.3443269291338583
20
0.9153949606299212
11
0.3354494488188977
21
0.926526968503937
0
LINE
8
BLACK
6
CONTINUOUS
10
0.3354494488188977
20
0.926526968503937
11
0.3278741732283464
21
0.9385829527559055
0
LINE
8
BLACK
6
CONTINUOUS
10
0.3278741732283464
20
0.9385829527559055
11
0.3216964173228347
21
0.9514112598425196
0
LINE
8
BLACK
6
CONTINUOUS
10
0.3216964173228347
20
0.9514112598425196
11
0.316993779527559
21
0.9648505905511811
0
LINE
8
BLACK
6
CONTINUOUS
10
0.316993779527559
20
0.9648505905511811
11
0.3159685039370079
21
0.9693426377952755
0
LINE
8
BLACK
6
CONTINUOUS
10
0.3159685039370079
20
0.9693426377952755
11
0.3159685039370079
21
0.8769685039370079
0
LINE
8
BLACK
6
CONTINUOUS
10
0.561006220472441
20
0.9648505905511811
11
0.5563035826771653
21
0.9514112598425196
0
LINE
8
BLACK
6
CONTINUOUS
10
0.5563035826771653
20
0.9514112598425196
11
0.5501258267716536
21
0.9385829527559055
0
LINE
8
BLACK
6
CONTINUOUS
10
0.5501258267716536
20
0.9385829527559055
11
0.5425505511811024
21
0.926526968503937
0
LINE
8
BLACK
6
CONTINUOUS
10
0.5425505511811024
20
0.926526968503937
11
0.5336730708661417
21
0.9153949606299212
0
LINE
8
BLACK
6
CONTINUOUS
10
0.5336730708661417
20
0.9153949606299212
11
0.5236050393700787
21
0.9053269291338583
0
LINE
8
BLACK
6
CONTINUOUS
10
0.5236050393700787
20
0.9053269291338583
11
0.5124730314960629
21
0.8964494488188977
0
LINE
8
BLACK
6
CONTINUOUS
10
0.5124730314960629
20
0.8964494488188977
11
0.5004170472440945
21
0.8888741732283464
0
LINE
8
BLACK
6
CONTINUOUS
10
0.5004170472440945
20
0.8888741732283464
11
0.4875887401574803
21
0.8826964173228347
0
LINE
8
BLACK
6
CONTINUOUS
10
0.4875887401574803
20
0.8826964173228347
11
0.4741494094488189
21
0.8779937795275591
0
LINE
8
BLACK
6
CONTINUOUS
10
0.4741494094488189
20
0.8779937795275591
11
0.4696574015748031
21
0.8769685039370079
0
LINE
8
BLACK
6
CONTINUOUS
10
0.4696574015748031
20
0.8769685039370079
11
0.5620314960629921
21
0.8769685039370079
0
LINE
8
BLACK
6
CONTINUOUS
10
0.5620314960629921
20
0.8769685039370079
11
0.5620314960629921
21
0.9693426377952755
0
LINE
8
BLACK
6
CONTINUOUS
10
0.5620314960629921
20
0.9693426377952755
11
0.561006220472441
21
0.9648505905511811
0
LINE
8
BLACK
6
CONTINUOUS
10
0.4183589763779528
20
1.1214842913385827
11
0.4048868503937008
21
1.1184093700787401
0
LINE
8
BLACK
6
CONTINUOUS
10
0.4048868503937008
20
1.1184093700787401
11
0.3918437007874015
21
1.1138453937007873
0
LINE
8
BLACK
6
CONTINUOUS
10
0.3918437007874015
20
1.1138453937007873
11
0.3793935826771653
21
1.1078497244094487
0
LINE
8
BLACK
6
CONTINUOUS
10
0.3793935826771653
20
1.1078497244094487
11
0.367693031496063
21
1.1004977952755906
0
LINE
8
BLACK
6
CONTINUOUS
10
0.367693031496063
20
1.1004977952755906
11
0.3568892125984252
21
1.0918820078740157
0
LINE
8
BLACK
6
CONTINUOUS
10
0.3568892125984252
20
1.0918820078740157
11
0.3471179921259843
21
1.0821107874015747
0
LINE
8
BLACK
6
CONTINUOUS
10
0.3471179921259843
20
1.0821107874015747
11
0.3385022047244095
21
1.0713069685039369
0
LINE
8
BLACK
6
CONTINUOUS
10
0.3385022047244095
20
1.0713069685039369
11
0.3311502755905512
21
1.0596064173228346
0
LINE
8
BLACK
6
CONTINUOUS
10
0.3311502755905512
20
1.0596064173228346
11
0.3251546062992126
21
1.0471562992125985
0
LINE
8
BLACK
6
CONTINUOUS
10
0.3251546062992126
20
1.0471562992125985
11
0.3205906299212599
21
1.0341131496062992
0
LINE
8
BLACK
6
CONTINUOUS
10
0.3205906299212599
20
1.0341131496062992
11
0.3175157086614173
21
1.0206410236220471
0
LINE
8
BLACK
6
CONTINUOUS
10
0.3175157086614173
20
1.0206410236220471
11
0.3159685039370079
21
1.0069092913385826
0
LINE
8
BLACK
6
CONTINUOUS
10
0.3159685039370079
20
1.0069092913385826
11
0.3159685039370079
21
0.9930907086614174
0
LINE
8
BLACK
6
CONTINUOUS
10
0.3159685039370079
20
0.9930907086614174
11
0.3175157086614173
21
0.9793589763779528
0
LINE
8
BLACK
6
CONTINUOUS
10
0.3175157086614173
20
0.9793589763779528
11
0.3205906299212599
21
0.9658868503937008
0
LINE
8
BLACK
6
CONTINUOUS
10
0.3205906299212599
20
0.9658868503937008
11
0.3251546062992126
21
0.9528437007874015
0
LINE
8
BLACK
6
CONTINUOUS
10
0.3251546062992126
20
0.9528437007874015
11
0.3311502755905512
21
0.9403935826771653
0
LINE
8
BLACK
6
CONTINUOUS
10
0.3311502755905512
20
0.9403935826771653
11
0.3385022047244095
21
0.928693031496063
0
LINE
8
BLACK
6
CONTINUOUS
10
0.3385022047244095
20
0.928693031496063
11
0.3471179921259843
21
0.9178892125984252
0
LINE
8
BLACK
6
CONTINUOUS
10
0.3471179921259843
20
0.9178892125984252
11
0.3568892125984252
21
0.9081179921259842
0
LINE
8
BLACK
6
CONTINUOUS
10
0.3568892125984252
20
0.9081179921259842
11
0.367693031496063
21
0.8995022047244094
0
LINE
8
BLACK
6
CONTINUOUS
10
0.367693031496063
20
0.8995022047244094
11
0.3793935826771653
21
0.8921502755905512
0
LINE
8
BLACK
6
CONTINUOUS
10
0.3793935826771653
20
0.8921502755905512
11
0.3918437007874015
21
0.8861546062992126
0
LINE
8
BLACK
6
CONTINUOUS
10
0.3918437007874015
20
0.8861546062992126
11
0.4048868503937008
21
0.8815906299212598
0
LINE
8
BLACK
6
CONTINUOUS
10
0.4048868503937008
20
0.8815906299212598
11
0.4183589763779528
21
0.8785157086614173
0
LINE
8
BLACK
6
CONTINUOUS
10
0.4183589763779528
20
0.8785157086614173
11
0.4320907086614173
21
0.8769685039370079
0
LINE
8
BLACK
6
CONTINUOUS
10
0.4320907086614173
20
0.8769685039370079
11
0.4459092913385826
21
0.8769685039370079
0
LINE
8
BLACK
6
CONTINUOUS
10
0.4459092913385826
20
0.8769685039370079
11
0.4596410236220472
21
0.8785157086614173
0
LINE
8
BLACK
6
CONTINUOUS
10
0.4596410236220472
20
0.8785157086614173
11
0.4731131496062992
21
0.8815906299212598
0
LINE
8
BLACK
6
CONTINUOUS
10
0.4731131496062992
20
0.8815906299212598
11
0.4861562992125984
21
0.8861546062992126
0
LINE
8
BLACK
6
CONTINUOUS
10
0.4861562992125984
20
0.8861546062992126
11
0.4986064173228346
21
0.8921502755905512
0
LINE
8
BLACK
6
CONTINUOUS
10
0.4986064173228346
20
0.8921502755905512
11
0.510306968503937
21
0.8995022047244094
0
LINE
8
BLACK
6
CONTINUOUS
10
0.510306968503937
20
0.8995022047244094
11
0.5211107874015748
21
0.9081179921259842
0
LINE
8
BLACK
6
CONTINUOUS
10
0.5211107874015748
20
0.9081179921259842
11
0.5308820078740157
21
0.9178892125984252
0
LINE
8
BLACK
6
CONTINUOUS
10
0.5308820078740157
20
0.9178892125984252
11
0.5394977952755905
21
0.928693031496063
0
LINE
8
BLACK
6
CONTINUOUS
10
0.5394977952755905
20
0.928693031496063
11
0.5468497244094488
21
0.9403935826771653
0
LINE
8
BLACK
6
CONTINUOUS
10
0.5468497244094488
20
0.9403935826771653
11
0.5528453937007873
21
0.9528437007874015
0
LINE
8
BLACK
6
CONTINUOUS
10
0.5528453937007873
20
0.9528437007874015
11
0.5574093700787401
21
0.9658868503937008
0
LINE
8
BLACK
6
CONTINUOUS
10
0.5574093700787401
20
0.9658868503937008
11
0.5604842913385827
21
0.9793589763779528
0
LINE
8
BLACK
6
CONTINUOUS
10
0.5604842913385827
20
0.9793589763779528
11
0.5620314960629921
21
0.9930907086614174
0
LINE
8
BLACK
6
CONTINUOUS
10
0.5620314960629921
20
0.9930907086614174
11
0.5620314960629921
21
1.0069092913385826
0
LINE
8
BLACK
6
CONTINUOUS
10
0.5620314960629921
20
1.0069092913385826
11
0.5604842913385827
21
1.0206410236220471
0
LINE
8
BLACK
6
CONTINUOUS
10
0.5604842913385827
20
1.0206410236220471
11
0.5574093700787401
21
1.0341131496062992
0
LINE
8
BLACK
6
CONTINUOUS
10
0.5574093700787401
20
1.0341131496062992
11
0.5528453937007873
21
1.0471562992125985
0
LINE
8
BLACK
6
CONTINUOUS
10
0.5528453937007873
20
1.0471562992125985
11
0.5468497244094488
21
1.0596064173228346
0
LINE
8
BLACK
6
CONTINUOUS
10
0.5468497244094488
20
1.0596064173228346
11
0.5394977952755905
21
1.0713069685039369
0
LINE
8
BLACK
6
CONTINUOUS
10
0.5394977952755905
20
1.0713069685039369
11
0.5308820078740157
21
1.0821107874015747
0
LINE
8
BLACK
6
CONTINUOUS
10
0.5308820078740157
20
1.0821107874015747
11
0.5211107874015748
21
1.0918820078740157
0
LINE
8
BLACK
6
CONTINUOUS
10
0.5211107874015748
20
1.0918820078740157
11
0.510306968503937
21
1.1004977952755906
0
LINE
8
BLACK
6
CONTINUOUS
10
0.510306968503937
20
1.1004977952755906
11
0.4986064173228346
21
1.1078497244094487
0
LINE
8
BLACK
6
CONTINUOUS
10
0.4986064173228346
20
1.1078497244094487
11
0.4861562992125984
21
1.1138453937007873
0
LINE
8
BLACK
6
CONTINUOUS
10
0.4861562992125984
20
1.1138453937007873
11
0.4731131496062992
21
1.1184093700787401
0
LINE
8
BLACK
6
CONTINUOUS
10
0.4731131496062992
20
1.1184093700787401
11
0.4596410236220472
21
1.1214842913385827
0
LINE
8
BLACK
6
CONTINUOUS
10
0.4596410236220472
20
1.1214842913385827
11
0.4459092913385826
21
1.1230314960629921
0
LINE
8
BLACK
6
CONTINUOUS
10
0.4459092913385826
20
1.1230314960629921
11
0.4320907086614173
21
1.1230314960629921
0
LINE
8
BLACK
6
CONTINUOUS
10
0.4320907086614173
20
1.1230314960629921
11
0.4183589763779528
21
1.1214842913385827
0
LINE
8
BLACK
6
CONTINUOUS
10
0.3159685039370079
20
1.1230314960629921
11
0.3159685039370079
21
1.0306574015748031
0
LINE
8
BLACK
6
CONTINUOUS
10
0.3159685039370079
20
1.0306574015748031
11
0.316993779527559
21
1.0351494094488189
0
LINE
8
BLACK
6
CONTINUOUS
10
0.316993779527559
20
1.0351494094488189
11
0.3216964173228347
21
1.0485887401574803
0
LINE
8
BLACK
6
CONTINUOUS
10
0.3216964173228347
20
1.0485887401574803
11
0.3278741732283464
21
1.0614170472440945
0
LINE
8
BLACK
6
CONTINUOUS
10
0.3278741732283464
20
1.0614170472440945
11
0.3354494488188977
21
1.073473031496063
0
LINE
8
BLACK
6
CONTINUOUS
10
0.3354494488188977
20
1.073473031496063
11
0.3443269291338583
21
1.0846050393700788
0
LINE
8
BLACK
6
CONTINUOUS
10
0.3443269291338583
20
1.0846050393700788
11
0.3543949606299213
21
1.0946730708661416
0
LINE
8
BLACK
6
CONTINUOUS
10
0.3543949606299213
20
1.0946730708661416
11
0.365526968503937
21
1.1035505511811023
0
LINE
8
BLACK
6
CONTINUOUS
10
0.365526968503937
20
1.1035505511811023
11
0.3775829527559055
21
1.1111258267716535
0
LINE
8
BLACK
6
CONTINUOUS
10
0.3775829527559055
20
1.1111258267716535
11
0.3904112598425197
21
1.1173035826771653
0
LINE
8
BLACK
6
CONTINUOUS
10
0.3904112598425197
20
1.1173035826771653
11
0.4038505905511811
21
1.122006220472441
0
LINE
8
BLACK
6
CONTINUOUS
10
0.4038505905511811
20
1.122006220472441
11
0.4083425984251968
21
1.1230314960629921
0
LINE
8
BLACK
6
CONTINUOUS
10
0.4083425984251968
20
1.1230314960629921
11
0.3159685039370079
21
1.1230314960629921
0
LINE
8
BLACK
6
CONTINUOUS
10
0.4696574015748031
20
1.1230314960629921
11
0.4741494094488189
21
1.122006220472441
0
LINE
8
BLACK
6
CONTINUOUS
10
0.4741494094488189
20
1.122006220472441
11
0.4875887401574803
21
1.1173035826771653
0
LINE
8
BLACK
6
CONTINUOUS
10
0.4875887401574803
20
1.1173035826771653
11
0.5004170472440945
21
1.1111258267716535
0
LINE
8
BLACK
6
CONTINUOUS
10
0.5004170472440945
20
1.1111258267716535
11
0.5124730314960629
21
1.1035505511811023
0
LINE
8
BLACK
6
CONTINUOUS
10
0.5124730314960629
20
1.1035505511811023
11
0.5236050393700787
21
1.0946730708661416
0
LINE
8
BLACK
6
CONTINUOUS
10
0.5236050393700787
20
1.0946730708661416
11
0.5336730708661417
21
1.0846050393700788
0
LINE
8
BLACK
6
CONTINUOUS
10
0.5336730708661417
20
1.0846050393700788
11
0.5425505511811024
21
1.073473031496063
0
LINE
8
BLACK
6
CONTINUOUS
10
0.5425505511811024
20
1.073473031496063
11
0.5501258267716536
21
1.0614170472440945
0
LINE
8
BLACK
6
CONTINUOUS
10
0.5501258267716536
20
1.0614170472440945
11
0.5563035826771653
21
1.0485887401574803
0
LINE
8
BLACK
6
CONTINUOUS
10
0.5563035826771653
20
1.0485887401574803
11
0.561006220472441
21
1.0351494094488189
0
LINE
8
BLACK
6
CONTINUOUS
10
0.561006220472441
20
1.0351494094488189
11
0.5620314960629921
21
1.0306574015748031
0
LINE
8
BLACK
6
CONTINUOUS
10
0.5620314960629921
20
1.0306574015748031
11
0.5620314960629921
21
1.1230314960629921
0
LINE
8
BLACK
6
CONTINUOUS
10
0.5620314960629921
20
1.1230314960629921
11
0.4696574015748031
21
1.1230314960629921
0
LINE
8
BLACK
6
CONTINUOUS
10
2.410576062992126
20
1.4128960236220471
11
2.4116404724409448
21
1.4124551181102363
0
LINE
8
BLACK
6
CONTINUOUS
10
2.4116404724409448
20
1.4124551181102363
11
2.4124551181102363
21
1.4116404724409448
0
LINE
8
BLACK
6
CONTINUOUS
10
2.4124551181102363
20
1.4116404724409448
11
2.4128960236220474
21
1.410576062992126
0
LINE
8
BLACK
6
CONTINUOUS
10
2.4128960236220474
20
1.410576062992126
11
2.4129527559055117
21
1.4099999999999999
0
LINE
8
BLACK
6
CONTINUOUS
10
2.4129527559055117
20
1.4099999999999999
11
2.4129527559055117
21
1.3100000000000001
0
LINE
8
BLACK
6
CONTINUOUS
10
2.4129527559055117
20
1.3100000000000001
11
2.4129527559055117
21
1.21
0
LINE
8
BLACK
6
CONTINUOUS
10
2.4129527559055117
20
1.21
11
2.4129527559055117
21
1.1099999999999999
0
LINE
8
BLACK
6
CONTINUOUS
10
2.4129527559055117
20
1.1099999999999999
11
2.4129527559055117
21
1.01
0
LINE
8
BLACK
6
CONTINUOUS
10
2.4129527559055117
20
1.01
11
2.4128960236220474
21
1.0094239370078739
0
LINE
8
BLACK
6
CONTINUOUS
10
2.4128960236220474
20
1.0094239370078739
11
2.4124551181102363
21
1.0083595275590551
0
LINE
8
BLACK
6
CONTINUOUS
10
2.4124551181102363
20
1.0083595275590551
11
2.4116404724409448
21
1.0075448818897637
0
LINE
8
BLACK
6
CONTINUOUS
10
2.4116404724409448
20
1.0075448818897637
11
2.410576062992126
21
1.0071039763779528
0
LINE
8
BLACK
6
CONTINUOUS
10
2.410576062992126
20
1.0071039763779528
11
2.4100000000000001
21
1.0070472440944882
0
LINE
8
BLACK
6
CONTINUOUS
10
2.4100000000000001
20
1.0070472440944882
11
2.21
21
1.0070472440944882
0
LINE
8
BLACK
6
CONTINUOUS
10
2.21
20
1.0070472440944882
11
2.2094239370078741
21
1.0071039763779528
0
LINE
8
BLACK
6
CONTINUOUS
10
2.2094239370078741
20
1.0071039763779528
11
2.2083595275590548
21
1.0075448818897637
0
LINE
8
BLACK
6
CONTINUOUS
10
2.2083595275590548
20
1.0075448818897637
11
2.2075448818897638
21
1.0083595275590551
0
LINE
8
BLACK
6
CONTINUOUS
10
2.2075448818897638
20
1.0083595275590551
11
2.2071039763779527
21
1.0094239370078739
0
LINE
8
BLACK
6
CONTINUOUS
10
2.2071039763779527
20
1.0094239370078739
11
2.2070472440944879
21
1.01
0
LINE
8
BLACK
6
CONTINUOUS
10
2.2070472440944879
20
1.01
11
2.2070472440944879
21
1.1099999999999999
0
LINE
8
BLACK
6
CONTINUOUS
10
2.2070472440944879
20
1.1099999999999999
11
2.2070472440944879
21
1.21
0
LINE
8
BLACK
6
CONTINUOUS
10
2.2070472440944879
20
1.21
11
2.2070472440944879
21
1.3100000000000001
0
LINE
8
BLACK
6
CONTINUOUS
10
2.2070472440944879
20
1.3100000000000001
11
2.2070472440944879
21
1.4099999999999999
0
LINE
8
BLACK
6
CONTINUOUS
10
2.2070472440944879
20
1.4099999999999999
11
2.2071039763779527
21
1.410576062992126
0
LINE
8
BLACK
6
CONTINUOUS
10
2.2071039763779527
20
1.410576062992126
11
2.2075448818897638
21
1.4116404724409448
0
LINE
8
BLACK
6
CONTINUOUS
10
2.2075448818897638
20
1.4116404724409448
11
2.2083595275590548
21
1.4124551181102363
0
LINE
8
BLACK
6
CONTINUOUS
10
2.2083595275590548
20
1.4124551181102363
11
2.2094239370078741
21
1.4128960236220471
0
LINE
8
BLACK
6
CONTINUOUS
10
2.2094239370078741
20
1.4128960236220471
11
2.21
21
1.4129527559055117
0
LINE
8
BLACK
6
CONTINUOUS
10
2.21
20
1.4129527559055117
11
2.4100000000000001
21
1.4129527559055117
0
LINE
8
BLACK
6
CONTINUOUS
10
2.4100000000000001
20
1.4129527559055117
11
2.410576062992126
21
1.4128960236220471
0
LINE
8
BLACK
6
CONTINUOUS
10
2.2129527559055115
20
1.1070472440944881
11
2.2129527559055115
21
1.0129527559055118
0
LINE
8
BLACK
6
CONTINUOUS
10
2.2129527559055115
20
1.0129527559055118
11
2.4070472440944881
21
1.0129527559055118
0
LINE
8
BLACK
6
CONTINUOUS
10
2.4070472440944881
20
1.0129527559055118
11
2.4070472440944881
21
1.1070472440944881
0
LINE
8
BLACK
6
CONTINUOUS
10
2.4070472440944881
20
1.1070472440944881
11
2.2129527559055115
21
1.1070472440944881
0
LINE
8
BLACK
6
CONTINUOUS
10
2.2129527559055115
20
1.2070472440944882
11
2.2129527559055115
21
1.1129527559055117
0
LINE
8
BLACK
6
CONTINUOUS
10
2.2129527559055115
20
1.1129527559055117
11
2.4070472440944881
21
1.1129527559055117
0
LINE
8
BLACK
6
CONTINUOUS
10
2.4070472440944881
20
1.1129527559055117
11
2.4070472440944881
21
1.2070472440944882
0
LINE
8
BLACK
6
CONTINUOUS
10
2.4070472440944881
20
1.2070472440944882
11
2.2129527559055115
21
1.2070472440944882
0
LINE
8
BLACK
6
CONTINUOUS
10
2.2129527559055115
20
1.3070472440944882
11
2.2129527559055115
21
1.2129527559055118
0
LINE
8
BLACK
6
CONTINUOUS
10
2.2129527559055115
20
1.2129527559055118
11
2.4070472440944881
21
1.2129527559055118
0
LINE
8
BLACK
6
CONTINUOUS
10
2.4070472440944881
20
1.2129527559055118
11
2.4070472440944881
21
1.3070472440944882
0
LINE
8
BLACK
6
CONTINUOUS
10
2.4070472440944881
20
1.3070472440944882
11
2.2129527559055115
21
1.3070472440944882
0
LINE
8
BLACK
6
CONTINUOUS
10
2.2129527559055115
20
1.4070472440944881
11
2.2129527559055115
21
1.3129527559055119
0
LINE
8
BLACK
6
CONTINUOUS
10
2.2129527559055115
20
1.3129527559055119
11
2.4070472440944881
21
1.3129527559055119
0
LINE
8
BLACK
6
CONTINUOUS
10
2.4070472440944881
20
1.3129527559055119
11
2.4070472440944881
21
1.4070472440944881
0
LINE
8
BLACK
6
CONTINUOUS
10
2.4070472440944881
20
1.4070472440944881
11
2.2129527559055115
21
1.4070472440944881
0
LINE
8
BLACK
6
CONTINUOUS
10
1.670576062992126
20
1.4028960236220471
11
1.6716404724409448
21
1.4024551181102363
0
LINE
8
BLACK
6
CONTINUOUS
10
1.6716404724409448
20
1.4024551181102363
11
1.6724551181102363
21
1.4016404724409448
0
LINE
8
BLACK
6
CONTINUOUS
10
1.6724551181102363
20
1.4016404724409448
11
1.6728960236220471
21
1.400576062992126
0
LINE
8
BLACK
6
CONTINUOUS
10
1.6728960236220471
20
1.400576062992126
11
1.6729527559055117
21
1.3999999999999999
0
LINE
8
BLACK
6
CONTINUOUS
10
1.6729527559055117
20
1.3999999999999999
11
1.6729527559055117
21
1.2
0
LINE
8
BLACK
6
CONTINUOUS
10
1.6729527559055117
20
1.2
11
1.6728960236220471
21
1.1994239370078741
0
LINE
8
BLACK
6
CONTINUOUS
10
1.6728960236220471
20
1.1994239370078741
11
1.6724551181102363
21
1.1983595275590551
0
LINE
8
BLACK
6
CONTINUOUS
10
1.6724551181102363
20
1.1983595275590551
11
1.6716404724409448
21
1.1975448818897638
0
LINE
8
BLACK
6
CONTINUOUS
10
1.6716404724409448
20
1.1975448818897638
11
1.670576062992126
21
1.1971039763779527
0
LINE
8
BLACK
6
CONTINUOUS
10
1.670576062992126
20
1.1971039763779527
11
1.6699999999999999
21
1.1970472440944881
0
LINE
8
BLACK
6
CONTINUOUS
10
1.6699999999999999
20
1.1970472440944881
11
1.5700000000000001
21
1.1970472440944881
0
LINE
8
BLACK
6
CONTINUOUS
10
1.5700000000000001
20
1.1970472440944881
11
1.569423937007874
21
1.1971039763779527
0
LINE
8
BLACK
6
CONTINUOUS
10
1.569423937007874
20
1.1971039763779527
11
1.5683595275590552
21
1.1975448818897638
0
LINE
8
BLACK
6
CONTINUOUS
10
1.5683595275590552
20
1.1975448818897638
11
1.5675448818897637
21
1.1983595275590551
0
LINE
8
BLACK
6
CONTINUOUS
10
1.5675448818897637
20
1.1983595275590551
11
1.5671039763779526
21
1.1994239370078741
0
LINE
8
BLACK
6
CONTINUOUS
10
1.5671039763779526
20
1.1994239370078741
11
1.5670472440944883
21
1.2
0
LINE
8
BLACK
6
CONTINUOUS
10
1.5670472440944883
20
1.2
11
1.5670472440944883
21
1.3999999999999999
0
LINE
8
BLACK
6
CONTINUOUS
10
1.5670472440944883
20
1.3999999999999999
11
1.5671039763779526
21
1.400576062992126
0
LINE
8
BLACK
6
CONTINUOUS
10
1.5671039763779526
20
1.400576062992126
11
1.5675448818897637
21
1.4016404724409448
0
LINE
8
BLACK
6
CONTINUOUS
10
1.5675448818897637
20
1.4016404724409448
11
1.5683595275590552
21
1.4024551181102363
0
LINE
8
BLACK
6
CONTINUOUS
10
1.5683595275590552
20
1.4024551181102363
11
1.569423937007874
21
1.4028960236220471
0
LINE
8
BLACK
6
CONTINUOUS
10
1.569423937007874
20
1.4028960236220471
11
1.5700000000000001
21
1.4029527559055117
0
LINE
8
BLACK
6
CONTINUOUS
10
1.5700000000000001
20
1.4029527559055117
11
1.6699999999999999
21
1.4029527559055117
0
LINE
8
BLACK
6
CONTINUOUS
10
1.6699999999999999
20
1.4029527559055117
11
1.670576062992126
21
1.4028960236220471
0
LINE
8
BLACK
6
CONTINUOUS
10
1.5729527559055119
20
1.3970472440944881
11
1.5729527559055119
21
1.2029527559055118
0
LINE
8
BLACK
6
CONTINUOUS
10
1.5729527559055119
20
1.2029527559055118
11
1.6670472440944881
21
1.2029527559055118
0
LINE
8
BLACK
6
CONTINUOUS
10
1.6670472440944881
20
1.2029527559055118
11
1.6670472440944881
21
1.3970472440944881
0
LINE
8
BLACK
6
CONTINUOUS
10
1.6670472440944881
20
1.3970472440944881
11
1.5729527559055119
21
1.3970472440944881
0
LINE
8
BLACK
6
CONTINUOUS
10
0.4201122047244095
20
1.7183720472440944
11
0.4332392125984252
21
1.715375905511811
0
LINE
8
BLACK
6
CONTINUOUS
10
0.4332392125984252
20
1.715375905511811
11
0.4459482283464567
21
1.7109288188976377
0
LINE
8
BLACK
6
CONTINUOUS
10
0.4459482283464567
20
1.7109288188976377
11
0.4580794094488189
21
1.7050867716535432
0
LINE
8
BLACK
6
CONTINUOUS
10
0.4580794094488189
20
1.7050867716535432
11
0.4694801968503937
21
1.697923188976378
0
LINE
8
BLACK
6
CONTINUOUS
10
0.4694801968503937
20
1.697923188976378
11
0.4800072440944882
21
1.6895281496062993
0
LINE
8
BLACK
6
CONTINUOUS
10
0.4800072440944882
20
1.6895281496062993
11
0.4895281496062992
21
1.6800072440944882
0
LINE
8
BLACK
6
CONTINUOUS
10
0.4895281496062992
20
1.6800072440944882
11
0.4979231889763779
21
1.6694801968503936
0
LINE
8
BLACK
6
CONTINUOUS
10
0.4979231889763779
20
1.6694801968503936
11
0.5050867716535433
21
1.6580794094488189
0
LINE
8
BLACK
6
CONTINUOUS
10
0.5050867716535433
20
1.6580794094488189
11
0.5109288188976377
21
1.6459482283464566
0
LINE
8
BLACK
6
CONTINUOUS
10
0.5109288188976377
20
1.6459482283464566
11
0.515375905511811
21
1.6332392125984252
0
LINE
8
BLACK
6
CONTINUOUS
10
0.515375905511811
20
1.6332392125984252
11
0.5183720472440945
21
1.6201122047244094
0
LINE
8
BLACK
6
CONTINUOUS
10
0.5183720472440945
20
1.6201122047244094
11
0.5198796062992126
21
1.606732283464567
0
LINE
8
BLACK
6
CONTINUOUS
10
0.5198796062992126
20
1.606732283464567
11
0.5198796062992126
21
1.593267716535433
0
LINE
8
BLACK
6
CONTINUOUS
10
0.5198796062992126
20
1.593267716535433
11
0.5183720472440945
21
1.5798877952755905
0
LINE
8
BLACK
6
CONTINUOUS
10
0.5183720472440945
20
1.5798877952755905
11
0.515375905511811
21
1.5667607874015748
0
LINE
8
BLACK
6
CONTINUOUS
10
0.515375905511811
20
1.5667607874015748
11
0.5109288188976377
21
1.5540517716535434
0
LINE
8
BLACK
6
CONTINUOUS
10
0.5109288188976377
20
1.5540517716535434
11
0.5050867716535433
21
1.541920590551181
0
LINE
8
BLACK
6
CONTINUOUS
10
0.5050867716535433
20
1.541920590551181
11
0.4979231889763779
21
1.5305198031496063
0
LINE
8
BLACK
6
CONTINUOUS
10
0.4979231889763779
20
1.5305198031496063
11
0.4895281496062992
21
1.5199927559055117
0
LINE
8
BLACK
6
CONTINUOUS
10
0.4895281496062992
20
1.5199927559055117
11
0.4800072440944882
21
1.5104718503937007
0
LINE
8
BLACK
6
CONTINUOUS
10
0.4800072440944882
20
1.5104718503937007
11
0.4694801968503937
21
1.502076811023622
0
LINE
8
BLACK
6
CONTINUOUS
10
0.4694801968503937
20
1.502076811023622
11
0.4580794094488189
21
1.4949132283464566
0
LINE
8
BLACK
6
CONTINUOUS
10
0.4580794094488189
20
1.4949132283464566
11
0.4459482283464567
21
1.4890711811023623
0
LINE
8
BLACK
6
CONTINUOUS
10
0.4459482283464567
20
1.4890711811023623
11
0.4332392125984252
21
1.484624094488189
0
LINE
8
BLACK
6
CONTINUOUS
10
0.4332392125984252
20
1.484624094488189
11
0.4201122047244095
21
1.4816279527559055
0
LINE
8
BLACK
6
CONTINUOUS
10
0.4201122047244095
20
1.4816279527559055
11
0.4067322834645669
21
1.4801203937007874
0
LINE
8
BLACK
6
CONTINUOUS
10
0.4067322834645669
20
1.4801203937007874
11
0.3932677165354331
21
1.4801203937007874
0
LINE
8
BLACK
6
CONTINUOUS
10
0.3932677165354331
20
1.4801203937007874
11
0.3798877952755905
21
1.4816279527559055
0
LINE
8
BLACK
6
CONTINUOUS
10
0.3798877952755905
20
1.4816279527559055
11
0.3667607874015748
21
1.484624094488189
0
LINE
8
BLACK
6
CONTINUOUS
10
0.3667607874015748
20
1.484624094488189
11
0.3540517716535433
21
1.4890711811023623
0
LINE
8
BLACK
6
CONTINUOUS
10
0.3540517716535433
20
1.4890711811023623
11
0.3419205905511811
21
1.4949132283464566
0
LINE
8
BLACK
6
CONTINUOUS
10
0.3419205905511811
20
1.4949132283464566
11
0.3305198031496063
21
1.502076811023622
0
LINE
8
BLACK
6
CONTINUOUS
10
0.3305198031496063
20
1.502076811023622
11
0.3199927559055118
21
1.5104718503937007
0
LINE
8
BLACK
6
CONTINUOUS
10
0.3199927559055118
20
1.5104718503937007
11
0.3104718503937008
21
1.5199927559055117
0
LINE
8
BLACK
6
CONTINUOUS
10
0.3104718503937008
20
1.5199927559055117
11
0.302076811023622
21
1.5305198031496063
0
LINE
8
BLACK
6
CONTINUOUS
10
0.302076811023622
20
1.5305198031496063
11
0.2949132283464567
21
1.541920590551181
0
LINE
8
BLACK
6
CONTINUOUS
10
0.2949132283464567
20
1.541920590551181
11
0.2890711811023622
21
1.5540517716535434
0
LINE
8
BLACK
6
CONTINUOUS
10
0.2890711811023622
20
1.5540517716535434
11
0.284624094488189
21
1.5667607874015748
0
LINE
8
BLACK
6
CONTINUOUS
10
0.284624094488189
20
1.5667607874015748
11
0.2816279527559055
21
1.5798877952755905
0
LINE
8
BLACK
6
CONTINUOUS
10
0.2816279527559055
20
1.5798877952755905
11
0.2801203937007874
21
1.593267716535433
0
LINE
8
BLACK
6
CONTINUOUS
10
0.2801203937007874
20
1.593267716535433
11
0.2801203937007874
21
1.6065218110236219
0
LINE
8
BLACK
6
CONTINUOUS
10
0.2801203937007874
20
1.6065218110236219
11
0.2801203937007874
21
1.606732283464567
0
LINE
8
BLACK
6
CONTINUOUS
10
0.2801203937007874
20
1.606732283464567
11
0.2816279527559055
21
1.6201122047244094
0
LINE
8
BLACK
6
CONTINUOUS
10
0.2816279527559055
20
1.6201122047244094
11
0.284624094488189
21
1.6332392125984252
0
LINE
8
BLACK
6
CONTINUOUS
10
0.284624094488189
20
1.6332392125984252
11
0.2890711811023622
21
1.6459482283464566
0
LINE
8
BLACK
6
CONTINUOUS
10
0.2890711811023622
20
1.6459482283464566
11
0.2949132283464567
21
1.6580794094488189
0
LINE
8
BLACK
6
CONTINUOUS
10
0.2949132283464567
20
1.6580794094488189
11
0.302076811023622
21
1.6694801968503936
0
LINE
8
BLACK
6
CONTINUOUS
10
0.302076811023622
20
1.6694801968503936
11
0.3104718503937008
21
1.6800072440944882
0
LINE
8
BLACK
6
CONTINUOUS
10
0.3104718503937008
20
1.6800072440944882
11
0.3199927559055118
21
1.6895281496062993
0
LINE
8
BLACK
6
CONTINUOUS
10
0.3199927559055118
20
1.6895281496062993
11
0.3305198031496063
21
1.697923188976378
0
LINE
8
BLACK
6
CONTINUOUS
10
0.3305198031496063
20
1.697923188976378
11
0.3419205905511811
21
1.7050867716535432
0
LINE
8
BLACK
6
CONTINUOUS
10
0.3419205905511811
20
1.7050867716535432
11
0.3540517716535433
21
1.7109288188976377
0
LINE
8
BLACK
6
CONTINUOUS
10
0.3540517716535433
20
1.7109288188976377
11
0.3667607874015748
21
1.715375905511811
0
LINE
8
BLACK
6
CONTINUOUS
10
0.3667607874015748
20
1.715375905511811
11
0.3798877952755905
21
1.7183720472440944
0
LINE
8
BLACK
6
CONTINUOUS
10
0.3798877952755905
20
1.7183720472440944
11
0.3932677165354331
21
1.7198796062992125
0
LINE
8
BLACK
6
CONTINUOUS
10
0.3932677165354331
20
1.7198796062992125
11
0.4067322834645669
21
1.7198796062992125
0
LINE
8
BLACK
6
CONTINUOUS
10
0.4067322834645669
20
1.7198796062992125
11
0.4201122047244095
21
1.7183720472440944
0
LINE
8
BLACK
6
CONTINUOUS
10
0.2838685039370079
20
1.5934781889763778
11
0.2853288976377953
21
1.5805166141732283
0
LINE
8
BLACK
6
CONTINUOUS
10
0.2853288976377953
20
1.5805166141732283
11
0.2882313779527559
21
1.5677999999999999
0
LINE
8
BLACK
6
CONTINUOUS
10
0.2882313779527559
20
1.5677999999999999
11
0.2925394094488189
21
1.5554883858267716
0
LINE
8
BLACK
6
CONTINUOUS
10
0.2925394094488189
20
1.5554883858267716
11
0.2981988188976378
21
1.543736496062992
0
LINE
8
BLACK
6
CONTINUOUS
10
0.2981988188976378
20
1.543736496062992
11
0.3051384645669291
21
1.5326921259842519
0
LINE
8
BLACK
6
CONTINUOUS
10
0.3051384645669291
20
1.5326921259842519
11
0.3132710236220472
21
1.5224942519685039
0
LINE
8
BLACK
6
CONTINUOUS
10
0.3132710236220472
20
1.5224942519685039
11
0.322494251968504
21
1.5132710236220472
0
LINE
8
BLACK
6
CONTINUOUS
10
0.322494251968504
20
1.5132710236220472
11
0.332692125984252
21
1.505138464566929
0
LINE
8
BLACK
6
CONTINUOUS
10
0.332692125984252
20
1.505138464566929
11
0.3437364960629921
21
1.4981988188976378
0
LINE
8
BLACK
6
CONTINUOUS
10
0.3437364960629921
20
1.4981988188976378
11
0.3554883858267717
21
1.4925394094488189
0
LINE
8
BLACK
6
CONTINUOUS
10
0.3554883858267717
20
1.4925394094488189
11
0.3678
21
1.4882313779527558
0
LINE
8
BLACK
6
CONTINUOUS
10
0.3678
20
1.4882313779527558
11
0.3805166141732284
21
1.4853288976377952
0
LINE
8
BLACK
6
CONTINUOUS
10
0.3805166141732284
20
1.4853288976377952
11
0.3934781889763779
21
1.4838685039370079
0
LINE
8
BLACK
6
CONTINUOUS
10
0.3934781889763779
20
1.4838685039370079
11
0.4065218110236221
21
1.4838685039370079
0
LINE
8
BLACK
6
CONTINUOUS
10
0.4065218110236221
20
1.4838685039370079
11
0.4194833858267716
21
1.4853288976377952
0
LINE
8
BLACK
6
CONTINUOUS
10
0.4194833858267716
20
1.4853288976377952
11
0.4322
21
1.4882313779527558
0
LINE
8
BLACK
6
CONTINUOUS
10
0.4322
20
1.4882313779527558
11
0.4445116141732283
21
1.4925394094488189
0
LINE
8
BLACK
6
CONTINUOUS
10
0.4445116141732283
20
1.4925394094488189
11
0.4562635039370079
21
1.4981988188976378
0
LINE
8
BLACK
6
CONTINUOUS
10
0.4562635039370079
20
1.4981988188976378
11
0.467307874015748
21
1.505138464566929
0
LINE
8
BLACK
6
CONTINUOUS
10
0.467307874015748
20
1.505138464566929
11
0.477505748031496
21
1.5132710236220472
0
LINE
8
BLACK
6
CONTINUOUS
10
0.477505748031496
20
1.5132710236220472
11
0.4867289763779528
21
1.5224942519685039
0
LINE
8
BLACK
6
CONTINUOUS
10
0.4867289763779528
20
1.5224942519685039
11
0.4948615354330709
21
1.5326921259842519
0
LINE
8
BLACK
6
CONTINUOUS
10
0.4948615354330709
20
1.5326921259842519
11
0.5018011811023622
21
1.543736496062992
0
LINE
8
BLACK
6
CONTINUOUS
10
0.5018011811023622
20
1.543736496062992
11
0.5074605905511811
21
1.5554883858267716
0
LINE
8
BLACK
6
CONTINUOUS
10
0.5074605905511811
20
1.5554883858267716
11
0.511768622047244
21
1.5677999999999999
0
LINE
8
BLACK
6
CONTINUOUS
10
0.511768622047244
20
1.5677999999999999
11
0.5146711023622047
21
1.5805166141732283
0
LINE
8
BLACK
6
CONTINUOUS
10
0.5146711023622047
20
1.5805166141732283
11
0.5161314960629921
21
1.5934781889763778
0
LINE
8
BLACK
6
CONTINUOUS
10
0.5161314960629921
20
1.5934781889763778
11
0.5161314960629921
21
1.6065218110236219
0
LINE
8
BLACK
6
CONTINUOUS
10
0.5161314960629921
20
1.6065218110236219
11
0.5146711023622047
21
1.6194833858267716
0
LINE
8
BLACK
6
CONTINUOUS
10
0.5146711023622047
20
1.6194833858267716
11
0.511768622047244
21
1.6321999999999999
0
LINE
8
BLACK
6
CONTINUOUS
10
0.511768622047244
20
1.6321999999999999
11
0.5074605905511811
21
1.6445116141732283
0
LINE
8
BLACK
6
CONTINUOUS
10
0.5074605905511811
20
1.6445116141732283
11
0.5018011811023622
21
1.6562635039370079
0
LINE
8
BLACK
6
CONTINUOUS
10
0.5018011811023622
20
1.6562635039370079
11
0.4948615354330709
21
1.6673078740157481
0
LINE
8
BLACK
6
CONTINUOUS
10
0.4948615354330709
20
1.6673078740157481
11
0.4867289763779528
21
1.6775057480314961
0
LINE
8
BLACK
6
CONTINUOUS
10
0.4867289763779528
20
1.6775057480314961
11
0.477505748031496
21
1.6867289763779527
0
LINE
8
BLACK
6
CONTINUOUS
10
0.477505748031496
20
1.6867289763779527
11
0.467307874015748
21
1.6948615354330707
0
LINE
8
BLACK
6
CONTINUOUS
10
0.467307874015748
20
1.6948615354330707
11
0.4562635039370079
21
1.7018011811023621
0
LINE
8
BLACK
6
CONTINUOUS
10
0.4562635039370079
20
1.7018011811023621
11
0.4445116141732283
21
1.707460590551181
0
LINE
8
BLACK
6
CONTINUOUS
10
0.4445116141732283
20
1.707460590551181
11
0.4322
21
1.7117686220472441
0
LINE
8
BLACK
6
CONTINUOUS
10
0.4322
20
1.7117686220472441
11
0.4194833858267716
21
1.7146711023622048
0
LINE
8
BLACK
6
CONTINUOUS
10
0.4194833858267716
20
1.7146711023622048
11
0.4065218110236221
21
1.7161314960629921
0
LINE
8
BLACK
6
CONTINUOUS
10
0.4065218110236221
20
1.7161314960629921
11
0.3934781889763779
21
1.7161314960629921
0
LINE
8
BLACK
6
CONTINUOUS
10
0.3934781889763779
20
1.7161314960629921
11
0.3805166141732284
21
1.7146711023622048
0
LINE
8
BLACK
6
CONTINUOUS
10
0.3805166141732284
20
1.7146711023622048
11
0.3678
21
1.7117686220472441
0
LINE
8
BLACK
6
CONTINUOUS
10
0.3678
20
1.7117686220472441
11
0.3554883858267717
21
1.707460590551181
0
LINE
8
BLACK
6
CONTINUOUS
10
0.3554883858267717
20
1.707460590551181
11
0.3437364960629921
21
1.7018011811023621
0
LINE
8
BLACK
6
CONTINUOUS
10
0.3437364960629921
20
1.7018011811023621
11
0.332692125984252
21
1.6948615354330707
0
LINE
8
BLACK
6
CONTINUOUS
10
0.332692125984252
20
1.6948615354330707
11
0.322494251968504
21
1.6867289763779527
0
LINE
8
BLACK
6
CONTINUOUS
10
0.322494251968504
20
1.6867289763779527
11
0.3132710236220472
21
1.6775057480314961
0
LINE
8
BLACK
6
CONTINUOUS
10
0.3132710236220472
20
1.6775057480314961
11
0.3051384645669291
21
1.6673078740157481
0
LINE
8
BLACK
6
CONTINUOUS
10
0.3051384645669291
20
1.6673078740157481
11
0.2981988188976378
21
1.6562635039370079
0
LINE
8
BLACK
6
CONTINUOUS
10
0.2981988188976378
20
1.6562635039370079
11
0.2925394094488189
21
1.6445116141732283
0
LINE
8
BLACK
6
CONTINUOUS
10
0.2925394094488189
20
1.6445116141732283
11
0.2882313779527559
21
1.6321999999999999
0
LINE
8
BLACK
6
CONTINUOUS
10
0.2882313779527559
20
1.6321999999999999
11
0.2853288976377953
21
1.6194833858267716
0
LINE
8
BLACK
6
CONTINUOUS
10
0.2853288976377953
20
1.6194833858267716
11
0.2838685039370079
21
1.6065218110236219
0
LINE
8
BLACK
6
CONTINUOUS
10
0.2838685039370079
20
1.6065218110236219
11
0.2838685039370079
21
1.5934781889763778
0
LINE
8
BLACK
6
CONTINUOUS
10
2.4201122047244095
20
1.7183720472440944
11
2.433239212598425
21
1.715375905511811
0
LINE
8
BLACK
6
CONTINUOUS
10
2.433239212598425
20
1.715375905511811
11
2.4459482283464564
21
1.7109288188976377
0
LINE
8
BLACK
6
CONTINUOUS
10
2.4459482283464564
20
1.7109288188976377
11
2.458079409448819
21
1.7050867716535432
0
LINE
8
BLACK
6
CONTINUOUS
10
2.458079409448819
20
1.7050867716535432
11
2.4694801968503937
21
1.697923188976378
0
LINE
8
BLACK
6
CONTINUOUS
10
2.4694801968503937
20
1.697923188976378
11
2.4800072440944883
21
1.6895281496062993
0
LINE
8
BLACK
6
CONTINUOUS
10
2.4800072440944883
20
1.6895281496062993
11
2.4895281496062993
21
1.6800072440944882
0
LINE
8
BLACK
6
CONTINUOUS
10
2.4895281496062993
20
1.6800072440944882
11
2.4979231889763778
21
1.6694801968503936
0
LINE
8
BLACK
6
CONTINUOUS
10
2.4979231889763778
20
1.6694801968503936
11
2.5050867716535432
21
1.6580794094488189
0
LINE
8
BLACK
6
CONTINUOUS
10
2.5050867716535432
20
1.6580794094488189
11
2.5109288188976375
21
1.6459482283464566
0
LINE
8
BLACK
6
CONTINUOUS
10
2.5109288188976375
20
1.6459482283464566
11
2.515375905511811
21
1.6332392125984252
0
LINE
8
BLACK
6
CONTINUOUS
10
2.515375905511811
20
1.6332392125984252
11
2.5183720472440942
21
1.6201122047244094
0
LINE
8
BLACK
6
CONTINUOUS
10
2.5183720472440942
20
1.6201122047244094
11
2.5198796062992126
21
1.606732283464567
0
LINE
8
BLACK
6
CONTINUOUS
10
2.5198796062992126
20
1.606732283464567
11
2.5198796062992126
21
1.593267716535433
0
LINE
8
BLACK
6
CONTINUOUS
10
2.5198796062992126
20
1.593267716535433
11
2.5183720472440942
21
1.5798877952755905
0
LINE
8
BLACK
6
CONTINUOUS
10
2.5183720472440942
20
1.5798877952755905
11
2.515375905511811
21
1.5667607874015748
0
LINE
8
BLACK
6
CONTINUOUS
10
2.515375905511811
20
1.5667607874015748
11
2.5109288188976375
21
1.5540517716535434
0
LINE
8
BLACK
6
CONTINUOUS
10
2.5109288188976375
20
1.5540517716535434
11
2.5050867716535432
21
1.541920590551181
0
LINE
8
BLACK
6
CONTINUOUS
10
2.5050867716535432
20
1.541920590551181
11
2.4979231889763778
21
1.5305198031496063
0
LINE
8
BLACK
6
CONTINUOUS
10
2.4979231889763778
20
1.5305198031496063
11
2.4895281496062993
21
1.5199927559055117
0
LINE
8
BLACK
6
CONTINUOUS
10
2.4895281496062993
20
1.5199927559055117
11
2.4800072440944883
21
1.5104718503937007
0
LINE
8
BLACK
6
CONTINUOUS
10
2.4800072440944883
20
1.5104718503937007
11
2.4694801968503937
21
1.502076811023622
0
LINE
8
BLACK
6
CONTINUOUS
10
2.4694801968503937
20
1.502076811023622
11
2.458079409448819
21
1.4949132283464566
0
LINE
8
BLACK
6
CONTINUOUS
10
2.458079409448819
20
1.4949132283464566
11
2.4459482283464564
21
1.4890711811023623
0
LINE
8
BLACK
6
CONTINUOUS
10
2.4459482283464564
20
1.4890711811023623
11
2.433239212598425
21
1.484624094488189
0
LINE
8
BLACK
6
CONTINUOUS
10
2.433239212598425
20
1.484624094488189
11
2.4201122047244095
21
1.4816279527559055
0
LINE
8
BLACK
6
CONTINUOUS
10
2.4201122047244095
20
1.4816279527559055
11
2.4067322834645668
21
1.4801203937007874
0
LINE
8
BLACK
6
CONTINUOUS
10
2.4067322834645668
20
1.4801203937007874
11
2.393267716535433
21
1.4801203937007874
0
LINE
8
BLACK
6
CONTINUOUS
10
2.393267716535433
20
1.4801203937007874
11
2.3798877952755904
21
1.4816279527559055
0
LINE
8
BLACK
6
CONTINUOUS
10
2.3798877952755904
20
1.4816279527559055
11
2.3667607874015748
21
1.484624094488189
0
LINE
8
BLACK
6
CONTINUOUS
10
2.3667607874015748
20
1.484624094488189
11
2.3540517716535434
21
1.4890711811023623
0
LINE
8
BLACK
6
CONTINUOUS
10
2.3540517716535434
20
1.4890711811023623
11
2.3419205905511808
21
1.4949132283464566
0
LINE
8
BLACK
6
CONTINUOUS
10
2.3419205905511808
20
1.4949132283464566
11
2.3305198031496062
21
1.502076811023622
0
LINE
8
BLACK
6
CONTINUOUS
10
2.3305198031496062
20
1.502076811023622
11
2.3199927559055116
21
1.5104718503937007
0
LINE
8
BLACK
6
CONTINUOUS
10
2.3199927559055116
20
1.5104718503937007
11
2.310471850393701
21
1.5199927559055117
0
LINE
8
BLACK
6
CONTINUOUS
10
2.310471850393701
20
1.5199927559055117
11
2.302076811023622
21
1.5305198031496063
0
LINE
8
BLACK
6
CONTINUOUS
10
2.302076811023622
20
1.5305198031496063
11
2.2949132283464566
21
1.541920590551181
0
LINE
8
BLACK
6
CONTINUOUS
10
2.2949132283464566
20
1.541920590551181
11
2.2890711811023623
21
1.5540517716535434
0
LINE
8
BLACK
6
CONTINUOUS
10
2.2890711811023623
20
1.5540517716535434
11
2.2846240944881888
21
1.5667607874015748
0
LINE
8
BLACK
6
CONTINUOUS
10
2.2846240944881888
20
1.5667607874015748
11
2.2816279527559056
21
1.5798877952755905
0
LINE
8
BLACK
6
CONTINUOUS
10
2.2816279527559056
20
1.5798877952755905
11
2.2801203937007872
21
1.593267716535433
0
LINE
8
BLACK
6
CONTINUOUS
10
2.2801203937007872
20
1.593267716535433
11
2.2801203937007872
21
1.6065218110236219
0
LINE
8
BLACK
6
CONTINUOUS
10
2.2801203937007872
20
1.6065218110236219
11
2.2801203937007872
21
1.606732283464567
0
LINE
8
BLACK
6
CONTINUOUS
10
2.2801203937007872
20
1.606732283464567
11
2.2816279527559056
21
1.6201122047244094
0
LINE
8
BLACK
6
CONTINUOUS
10
2.2816279527559056
20
1.6201122047244094
11
2.2846240944881888
21
1.6332392125984252
0
LINE
8
BLACK
6
CONTINUOUS
10
2.2846240944881888
20
1.6332392125984252
11
2.2890711811023623
21
1.6459482283464566
0
LINE
8
BLACK
6
CONTINUOUS
10
2.2890711811023623
20
1.6459482283464566
11
2.2949132283464566
21
1.6580794094488189
0
LINE
8
BLACK
6
CONTINUOUS
10
2.2949132283464566
20
1.6580794094488189
11
2.302076811023622
21
1.6694801968503936
0
LINE
8
BLACK
6
CONTINUOUS
10
2.302076811023622
20
1.6694801968503936
11
2.310471850393701
21
1.6800072440944882
0
LINE
8
BLACK
6
CONTINUOUS
10
2.310471850393701
20
1.6800072440944882
11
2.3199927559055116
21
1.6895281496062993
0
LINE
8
BLACK
6
CONTINUOUS
10
2.3199927559055116
20
1.6895281496062993
11
2.3305198031496062
21
1.697923188976378
0
LINE
8
BLACK
6
CONTINUOUS
10
2.3305198031496062
20
1.697923188976378
11
2.3419205905511808
21
1.7050867716535432
0
LINE
8
BLACK
6
CONTINUOUS
10
2.3419205905511808
20
1.7050867716535432
11
2.3540517716535434
21
1.7109288188976377
0
LINE
8
BLACK
6
CONTINUOUS
10
2.3540517716535434
20
1.7109288188976377
11
2.3667607874015748
21
1.715375905511811
0
LINE
8
BLACK
6
CONTINUOUS
10
2.3667607874015748
20
1.715375905511811
11
2.3798877952755904
21
1.7183720472440944
0
LINE
8
BLACK
6
CONTINUOUS
10
2.3798877952755904
20
1.7183720472440944
11
2.393267716535433
21
1.7198796062992125
0
LINE
8
BLACK
6
CONTINUOUS
10
2.393267716535433
20
1.7198796062992125
11
2.4067322834645668
21
1.7198796062992125
0
LINE
8
BLACK
6
CONTINUOUS
10
2.4067322834645668
20
1.7198796062992125
11
2.4201122047244095
21
1.7183720472440944
0
LINE
8
BLACK
6
CONTINUOUS
10
2.2838685039370077
20
1.5934781889763778
11
2.285328897637795
21
1.5805166141732283
0
LINE
8
BLACK
6
CONTINUOUS
10
2.285328897637795
20
1.5805166141732283
11
2.2882313779527559
21
1.5677999999999999
0
LINE
8
BLACK
6
CONTINUOUS
10
2.2882313779527559
20
1.5677999999999999
11
2.292539409448819
21
1.5554883858267716
0
LINE
8
BLACK
6
CONTINUOUS
10
2.292539409448819
20
1.5554883858267716
11
2.2981988188976379
21
1.543736496062992
0
LINE
8
BLACK
6
CONTINUOUS
10
2.2981988188976379
20
1.543736496062992
11
2.3051384645669293
21
1.5326921259842519
0
LINE
8
BLACK
6
CONTINUOUS
10
2.3051384645669293
20
1.5326921259842519
11
2.3132710236220473
21
1.5224942519685039
0
LINE
8
BLACK
6
CONTINUOUS
10
2.3132710236220473
20
1.5224942519685039
11
2.3224942519685037
21
1.5132710236220472
0
LINE
8
BLACK
6
CONTINUOUS
10
2.3224942519685037
20
1.5132710236220472
11
2.3326921259842521
21
1.505138464566929
0
LINE
8
BLACK
6
CONTINUOUS
10
2.3326921259842521
20
1.505138464566929
11
2.3437364960629923
21
1.4981988188976378
0
LINE
8
BLACK
6
CONTINUOUS
10
2.3437364960629923
20
1.4981988188976378
11
2.3554883858267717
21
1.4925394094488189
0
LINE
8
BLACK
6
CONTINUOUS
10
2.3554883858267717
20
1.4925394094488189
11
2.3677999999999999
21
1.4882313779527558
0
LINE
8
BLACK
6
CONTINUOUS
10
2.3677999999999999
20
1.4882313779527558
11
2.3805166141732284
21
1.4853288976377952
0
LINE
8
BLACK
6
CONTINUOUS
10
2.3805166141732284
20
1.4853288976377952
11
2.3934781889763781
21
1.4838685039370079
0
LINE
8
BLACK
6
CONTINUOUS
10
2.3934781889763781
20
1.4838685039370079
11
2.4065218110236222
21
1.4838685039370079
0
LINE
8
BLACK
6
CONTINUOUS
10
2.4065218110236222
20
1.4838685039370079
11
2.4194833858267715
21
1.4853288976377952
0
LINE
8
BLACK
6
CONTINUOUS
10
2.4194833858267715
20
1.4853288976377952
11
2.4321999999999999
21
1.4882313779527558
0
LINE
8
BLACK
6
CONTINUOUS
10
2.4321999999999999
20
1.4882313779527558
11
2.4445116141732282
21
1.4925394094488189
0
LINE
8
BLACK
6
CONTINUOUS
10
2.4445116141732282
20
1.4925394094488189
11
2.456263503937008
21
1.4981988188976378
0
LINE
8
BLACK
6
CONTINUOUS
10
2.456263503937008
20
1.4981988188976378
11
2.4673078740157481
21
1.505138464566929
0
LINE
8
BLACK
6
CONTINUOUS
10
2.4673078740157481
20
1.505138464566929
11
2.4775057480314961
21
1.5132710236220472
0
LINE
8
BLACK
6
CONTINUOUS
10
2.4775057480314961
20
1.5132710236220472
11
2.4867289763779525
21
1.5224942519685039
0
LINE
8
BLACK
6
CONTINUOUS
10
2.4867289763779525
20
1.5224942519685039
11
2.494861535433071
21
1.5326921259842519
0
LINE
8
BLACK
6
CONTINUOUS
10
2.494861535433071
20
1.5326921259842519
11
2.5018011811023619
21
1.543736496062992
0
LINE
8
BLACK
6
CONTINUOUS
10
2.5018011811023619
20
1.543736496062992
11
2.5074605905511809
21
1.5554883858267716
0
LINE
8
BLACK
6
CONTINUOUS
10
2.5074605905511809
20
1.5554883858267716
11
2.5117686220472439
21
1.5677999999999999
0
LINE
8
BLACK
6
CONTINUOUS
10
2.5117686220472439
20
1.5677999999999999
11
2.5146711023622048
21
1.5805166141732283
0
LINE
8
BLACK
6
CONTINUOUS
10
2.5146711023622048
20
1.5805166141732283
11
2.5161314960629921
21
1.5934781889763778
0
LINE
8
BLACK
6
CONTINUOUS
10
2.5161314960629921
20
1.5934781889763778
11
2.5161314960629921
21
1.6065218110236219
0
LINE
8
BLACK
6
CONTINUOUS
10
2.5161314960629921
20
1.6065218110236219
11
2.5146711023622048
21
1.6194833858267716
0
LINE
8
BLACK
6
CONTINUOUS
10
2.5146711023622048
20
1.6194833858267716
11
2.5117686220472439
21
1.6321999999999999
0
LINE
8
BLACK
6
CONTINUOUS
10
2.5117686220472439
20
1.6321999999999999
11
2.5074605905511809
21
1.6445116141732283
0
LINE
8
BLACK
6
CONTINUOUS
10
2.5074605905511809
20
1.6445116141732283
11
2.5018011811023619
21
1.6562635039370079
0
LINE
8
BLACK
6
CONTINUOUS
10
2.5018011811023619
20
1.6562635039370079
11
2.494861535433071
21
1.6673078740157481
0
LINE
8
BLACK
6
CONTINUOUS
10
2.494861535433071
20
1.6673078740157481
11
2.4867289763779525
21
1.6775057480314961
0
LINE
8
BLACK
6
CONTINUOUS
10
2.4867289763779525
20
1.6775057480314961
11
2.4775057480314961
21
1.6867289763779527
0
LINE
8
BLACK
6
CONTINUOUS
10
2.4775057480314961
20
1.6867289763779527
11
2.4673078740157481
21
1.6948615354330707
0
LINE
8
BLACK
6
CONTINUOUS
10
2.4673078740157481
20
1.6948615354330707
11
2.456263503937008
21
1.7018011811023621
0
LINE
8
BLACK
6
CONTINUOUS
10
2.456263503937008
20
1.7018011811023621
11
2.4445116141732282
21
1.707460590551181
0
LINE
8
BLACK
6
CONTINUOUS
10
2.4445116141732282
20
1.707460590551181
11
2.4321999999999999
21
1.7117686220472441
0
LINE
8
BLACK
6
CONTINUOUS
10
2.4321999999999999
20
1.7117686220472441
11
2.4194833858267715
21
1.7146711023622048
0
LINE
8
BLACK
6
CONTINUOUS
10
2.4194833858267715
20
1.7146711023622048
11
2.4065218110236222
21
1.7161314960629921
0
LINE
8
BLACK
6
CONTINUOUS
10
2.4065218110236222
20
1.7161314960629921
11
2.3934781889763781
21
1.7161314960629921
0
LINE
8
BLACK
6
CONTINUOUS
10
2.3934781889763781
20
1.7161314960629921
11
2.3805166141732284
21
1.7146711023622048
0
LINE
8
BLACK
6
CONTINUOUS
10
2.3805166141732284
20
1.7146711023622048
11
2.3677999999999999
21
1.7117686220472441
0
LINE
8
BLACK
6
CONTINUOUS
10
2.3677999999999999
20
1.7117686220472441
11
2.3554883858267717
21
1.707460590551181
0
LINE
8
BLACK
6
CONTINUOUS
10
2.3554883858267717
20
1.707460590551181
11
2.3437364960629923
21
1.7018011811023621
0
LINE
8
BLACK
6
CONTINUOUS
10
2.3437364960629923
20
1.7018011811023621
11
2.3326921259842521
21
1.6948615354330707
0
LINE
8
BLACK
6
CONTINUOUS
10
2.3326921259842521
20
1.6948615354330707
11
2.3224942519685037
21
1.6867289763779527
0
LINE
8
BLACK
6
CONTINUOUS
10
2.3224942519685037
20
1.6867289763779527
11
2.3132710236220473
21
1.6775057480314961
0
LINE
8
BLACK
6
CONTINUOUS
10
2.3132710236220473
20
1.6775057480314961
11
2.3051384645669293
21
1.6673078740157481
0
LINE
8
BLACK
6
CONTINUOUS
10
2.3051384645669293
20
1.6673078740157481
11
2.2981988188976379
21
1.6562635039370079
0
LINE
8
BLACK
6
CONTINUOUS
10
2.2981988188976379
20
1.6562635039370079
11
2.292539409448819
21
1.6445116141732283
0
LINE
8
BLACK
6
CONTINUOUS
10
2.292539409448819
20
1.6445116141732283
11
2.2882313779527559
21
1.6321999999999999
0
LINE
8
BLACK
6
CONTINUOUS
10
2.2882313779527559
20
1.6321999999999999
11
2.285328897637795
21
1.6194833858267716
0
LINE
8
BLACK
6
CONTINUOUS
10
2.285328897637795
20
1.6194833858267716
11
2.2838685039370077
21
1.6065218110236219
0
LINE
8
BLACK
6
CONTINUOUS
10
2.2838685039370077
20
1.6065218110236219
11
2.2838685039370077
21
1.5934781889763778
0
CIRCLE
8
BLACK
10
2.3999999999999999
20
0.4
40
0.0068897637795276
0
CIRCLE
8
BLACK
10
0.4
20
0.4
40
0.0068897637795276
0
CIRCLE
8
BLACK
10
0.4
20
1.5999999999999999
40
0.0068897637795276
0
CIRCLE
8
BLACK
10
2.3600000393700786
20
1.3599999999999999
40
0.0068897637795276
0
CIRCLE
8
BLACK
10
2.259999960629921
20
1.3599999999999999
40
0.0068897637795276
0
CIRCLE
8
BLACK
10
2.3600000393700786
20
1.26
40
0.0068897637795276
0
CIRCLE
8
BLACK
10
2.259999960629921
20
1.26
40
0.0068897637795276
0
CIRCLE
8
BLACK
10
2.3999999999999999
20
1.5999999999999999
40
0.0068897637795276
0
CIRCLE
8
BLACK
10
2.3600000393700786
20
1.0600000000000001
40
0.0068897637795276
0
CIRCLE
8
BLACK
10
2.259999960629921
20
1.0600000000000001
40
0.0068897637795276
0
CIRCLE
8
BLACK
10
2.2599999999999998
20
0.89
40
0.0068897637795276
0
CIRCLE
8
BLACK
10
2.3599999999999999
20
0.89
40
0.0068897637795276
0
CIRCLE
8
BLACK
10
2.2599999999999998
20
0.79
40
0.0068897637795276
0
CIRCLE
8
BLACK
10
2.3599999999999999
20
0.79
40
0.0068897637795276
0
CIRCLE
8
BLACK
10
2.2599999999999998
20
0.6899999999999999
40
0.0068897637795276
0
CIRCLE
8
BLACK
10
2.3599999999999999
20
0.6899999999999999
40
0.0068897637795276
0
CIRCLE
8
BLACK
10
2.3600000393700786
20
1.1599999999999999
40
0.0068897637795276
0
CIRCLE
8
BLACK
10
2.259999960629921
20
1.1599999999999999
40
0.0068897637795276
0
CIRCLE
8
BLACK
10
0.439
20
1.
40
0.0068897637795276
0
CIRCLE
8
BLACK
10
0.339
20
1.0999999999999999
40
0.0068897637795276
0
CIRCLE
8
BLACK
10
0.339
20
0.9
40
0.0068897637795276
0
CIRCLE
8
BLACK
10
0.539
20
1.0999999999999999
40
0.0068897637795276
0
CIRCLE
8
BLACK
10
0.539
20
0.9
40
0.0068897637795276
0
CIRCLE
8
BLACK
10
1.6199999999999999
20
1.25
40
0.0068897637795276
0
CIRCLE
8
BLACK
10
1.6199999999999999
20
1.3499999999999999
40
0.0068897637795276
  0
ENDSEC
  0
EOF
