  0
SECTION
  2
HEADER
  9
$ANGBASE
  50
0.0
  9
$ANGDIR
  70
1
  9
$MEASUREMENT
  70
0
  0
ENDSEC
  0
SECTION
  2
TABLES
  0
TABLE
  2
LTYPE
  70
4
  0
LTYPE
  5
40F
  2
CONTINUOUS
  70
0
  3
Solid line
  72
65
  73
0
  40
0.0
  0
LTYPE
  5
410
  2
DASHDOT
 70
0
  3
Dash Dot ____ _ ____ _
 72
65
 73
4
 40
2.0
 49
1.25
 49
-0.25
 49
0.25
 49
-0.25
  0
LTYPE
  5
411
  2
DASHED
 70
0
  3
Dashed __ __ __ __ __
 72
65
 73
2
 40
0.75
 49
0.5
 49
-0.25
  0
LTYPE
  5
43B
  2
DOTTED
 70
0
  3
Dotted .  .  .  .
 72
65
 73
2
 40
0.2
 49
0.0
 49
-0.2
  0
ENDTAB
  0
TABLE
  2
STYLE
  70
4
  0
STYLE
  2
KICAD
  70
0
  40
0
  41
1
  42
1
  50
0
  71
0
  3
isocp.shx
  0
STYLE
  2
KICADB
  70
0
  40
0
  41
1
  42
1
  50
0
  71
0
  3
isocp.shx
  0
STYLE
  2
KICADI
  70
0
  40
0
  41
1
  42
1
  50
15
  71
0
  3
isocp.shx
  0
STYLE
  2
KICADBI
  70
0
  40
0
  41
1
  42
1
  50
15
  71
0
  3
isocp.shx
  0
ENDTAB
  0
TABLE
  2
LAYER
  70
1
  0
LAYER
  2
BLACK
  70
0
  62
7
  6
CONTINUOUS
  0
ENDTAB
  0
ENDSEC
  0
SECTION
  2
ENTITIES
0
LINE
8
BLACK
6
CONTINUOUS
10
0.8842519685039369
20
0.3937007874015748
11
0.8842519685039369
21
0.3543307086614173
0
LINE
8
BLACK
6
CONTINUOUS
10
0.8842519685039369
20
0.3543307086614173
11
0.7937007874015748
21
0.3543307086614173
0
LINE
8
BLACK
6
CONTINUOUS
10
0.7937007874015748
20
0.3543307086614173
11
0.7543307086614173
21
0.3543307086614173
0
LINE
8
BLACK
6
CONTINUOUS
10
0.7543307086614173
20
0.3543307086614173
11
0.7543307086614173
21
0.3937007874015748
0
LINE
8
BLACK
6
CONTINUOUS
10
0.7543307086614173
20
0.3937007874015748
11
0.7543307086614173
21
0.484251968503937
0
LINE
8
BLACK
6
CONTINUOUS
10
0.7543307086614173
20
0.484251968503937
11
0.7937007874015748
21
0.484251968503937
0
LINE
8
BLACK
6
CONTINUOUS
10
0.7937007874015748
20
0.484251968503937
11
0.7937007874015748
21
0.3937007874015748
0
LINE
8
BLACK
6
CONTINUOUS
10
0.7937007874015748
20
0.3937007874015748
11
0.8842519685039369
21
0.3937007874015748
0
LINE
8
BLACK
6
CONTINUOUS
10
1.1204724409448819
20
0.3543307086614173
11
0.9708661417322835
21
0.3543307086614173
0
LINE
8
BLACK
6
CONTINUOUS
10
0.9708661417322835
20
0.3543307086614173
11
0.9708661417322835
21
0.3937007874015748
0
LINE
8
BLACK
6
CONTINUOUS
10
0.9708661417322835
20
0.3937007874015748
11
1.1204724409448819
21
0.3937007874015748
0
LINE
8
BLACK
6
CONTINUOUS
10
1.1204724409448819
20
0.3937007874015748
11
1.1204724409448819
21
0.3543307086614173
0
LINE
8
BLACK
6
CONTINUOUS
10
1.3566929133858268
20
0.3543307086614173
11
1.2070866141732284
21
0.3543307086614173
0
LINE
8
BLACK
6
CONTINUOUS
10
1.2070866141732284
20
0.3543307086614173
11
1.2070866141732284
21
0.3937007874015748
0
LINE
8
BLACK
6
CONTINUOUS
10
1.2070866141732284
20
0.3937007874015748
11
1.3566929133858268
21
0.3937007874015748
0
LINE
8
BLACK
6
CONTINUOUS
10
1.3566929133858268
20
0.3937007874015748
11
1.3566929133858268
21
0.3543307086614173
0
LINE
8
BLACK
6
CONTINUOUS
10
1.5929133858267717
20
0.3543307086614173
11
1.4433070866141733
21
0.3543307086614173
0
LINE
8
BLACK
6
CONTINUOUS
10
1.4433070866141733
20
0.3543307086614173
11
1.4433070866141733
21
0.3937007874015748
0
LINE
8
BLACK
6
CONTINUOUS
10
1.4433070866141733
20
0.3937007874015748
11
1.5929133858267717
21
0.3937007874015748
0
LINE
8
BLACK
6
CONTINUOUS
10
1.5929133858267717
20
0.3937007874015748
11
1.5929133858267717
21
0.3543307086614173
0
LINE
8
BLACK
6
CONTINUOUS
10
1.8291338582677166
20
0.3543307086614173
11
1.679527559055118
21
0.3543307086614173
0
LINE
8
BLACK
6
CONTINUOUS
10
1.679527559055118
20
0.3543307086614173
11
1.679527559055118
21
0.3937007874015748
0
LINE
8
BLACK
6
CONTINUOUS
10
1.679527559055118
20
0.3937007874015748
11
1.8291338582677166
21
0.3937007874015748
0
LINE
8
BLACK
6
CONTINUOUS
10
1.8291338582677166
20
0.3937007874015748
11
1.8291338582677166
21
0.3543307086614173
0
LINE
8
BLACK
6
CONTINUOUS
10
2.0062992125984254
20
0.3937007874015748
11
2.0062992125984254
21
0.484251968503937
0
LINE
8
BLACK
6
CONTINUOUS
10
2.0062992125984254
20
0.484251968503937
11
2.0456692913385828
21
0.484251968503937
0
LINE
8
BLACK
6
CONTINUOUS
10
2.0456692913385828
20
0.484251968503937
11
2.0456692913385828
21
0.3937007874015748
0
LINE
8
BLACK
6
CONTINUOUS
10
2.0456692913385828
20
0.3937007874015748
11
2.0456692913385828
21
0.3543307086614173
0
LINE
8
BLACK
6
CONTINUOUS
10
2.0456692913385828
20
0.3543307086614173
11
2.0062992125984254
21
0.3543307086614173
0
LINE
8
BLACK
6
CONTINUOUS
10
2.0062992125984254
20
0.3543307086614173
11
1.9157480314960629
21
0.3543307086614173
0
LINE
8
BLACK
6
CONTINUOUS
10
1.9157480314960629
20
0.3543307086614173
11
1.9157480314960629
21
0.3937007874015748
0
LINE
8
BLACK
6
CONTINUOUS
10
1.9157480314960629
20
0.3937007874015748
11
2.0062992125984254
21
0.3937007874015748
0
LINE
8
BLACK
6
CONTINUOUS
10
0.7937007874015748
20
0.5708661417322834
11
0.7543307086614173
21
0.5708661417322834
0
LINE
8
BLACK
6
CONTINUOUS
10
0.7543307086614173
20
0.5708661417322834
11
0.7543307086614173
21
0.7204724409448818
0
LINE
8
BLACK
6
CONTINUOUS
10
0.7543307086614173
20
0.7204724409448818
11
0.7937007874015748
21
0.7204724409448818
0
LINE
8
BLACK
6
CONTINUOUS
10
0.7937007874015748
20
0.7204724409448818
11
0.7937007874015748
21
0.5708661417322834
0
LINE
8
BLACK
6
CONTINUOUS
10
2.0456692913385828
20
0.5708661417322834
11
2.0062992125984254
21
0.5708661417322834
0
LINE
8
BLACK
6
CONTINUOUS
10
2.0062992125984254
20
0.5708661417322834
11
2.0062992125984254
21
0.7204724409448818
0
LINE
8
BLACK
6
CONTINUOUS
10
2.0062992125984254
20
0.7204724409448818
11
2.0456692913385828
21
0.7204724409448818
0
LINE
8
BLACK
6
CONTINUOUS
10
2.0456692913385828
20
0.7204724409448818
11
2.0456692913385828
21
0.5708661417322834
0
LINE
8
BLACK
6
CONTINUOUS
10
0.9391996456692914
20
0.688817716535433
11
0.9423927952755905
21
0.6866841338582677
0
LINE
8
BLACK
6
CONTINUOUS
10
0.9423927952755905
20
0.6866841338582677
11
0.9445263779527558
21
0.6834909842519685
0
LINE
8
BLACK
6
CONTINUOUS
10
0.9445263779527558
20
0.6834909842519685
11
0.945275590551181
21
0.6797244094488188
0
LINE
8
BLACK
6
CONTINUOUS
10
0.945275590551181
20
0.6797244094488188
11
0.945275590551181
21
0.6009842519685039
0
LINE
8
BLACK
6
CONTINUOUS
10
0.945275590551181
20
0.6009842519685039
11
0.9445263779527558
21
0.5972176771653543
0
LINE
8
BLACK
6
CONTINUOUS
10
0.9445263779527558
20
0.5972176771653543
11
0.9423927952755905
21
0.5940245275590551
0
LINE
8
BLACK
6
CONTINUOUS
10
0.9423927952755905
20
0.5940245275590551
11
0.9391996456692914
21
0.5918909448818898
0
LINE
8
BLACK
6
CONTINUOUS
10
0.9391996456692914
20
0.5918909448818898
11
0.9354330708661417
21
0.5911417322834646
0
LINE
8
BLACK
6
CONTINUOUS
10
0.9354330708661417
20
0.5911417322834646
11
0.8645669291338582
21
0.5911417322834646
0
LINE
8
BLACK
6
CONTINUOUS
10
0.8645669291338582
20
0.5911417322834646
11
0.8608003543307087
21
0.5918909448818898
0
LINE
8
BLACK
6
CONTINUOUS
10
0.8608003543307087
20
0.5918909448818898
11
0.8576072047244094
21
0.5940245275590551
0
LINE
8
BLACK
6
CONTINUOUS
10
0.8576072047244094
20
0.5940245275590551
11
0.8554736220472441
21
0.5972176771653543
0
LINE
8
BLACK
6
CONTINUOUS
10
0.8554736220472441
20
0.5972176771653543
11
0.8547244094488189
21
0.6009842519685039
0
LINE
8
BLACK
6
CONTINUOUS
10
0.8547244094488189
20
0.6009842519685039
11
0.8547244094488189
21
0.6797244094488188
0
LINE
8
BLACK
6
CONTINUOUS
10
0.8547244094488189
20
0.6797244094488188
11
0.8554736220472441
21
0.6834909842519685
0
LINE
8
BLACK
6
CONTINUOUS
10
0.8554736220472441
20
0.6834909842519685
11
0.8576072047244094
21
0.6866841338582677
0
LINE
8
BLACK
6
CONTINUOUS
10
0.8576072047244094
20
0.6866841338582677
11
0.8608003543307087
21
0.688817716535433
0
LINE
8
BLACK
6
CONTINUOUS
10
0.8608003543307087
20
0.688817716535433
11
0.8645669291338582
21
0.6895669291338582
0
LINE
8
BLACK
6
CONTINUOUS
10
0.8645669291338582
20
0.6895669291338582
11
0.9354330708661417
21
0.6895669291338582
0
LINE
8
BLACK
6
CONTINUOUS
10
0.9354330708661417
20
0.6895669291338582
11
0.9391996456692914
21
0.688817716535433
0
LINE
8
BLACK
6
CONTINUOUS
10
2.1874673622047243
20
0.7015342519685039
11
2.1906605118110236
21
0.6994006692913386
0
LINE
8
BLACK
6
CONTINUOUS
10
2.1906605118110236
20
0.6994006692913386
11
2.192794094488189
21
0.6962075196850394
0
LINE
8
BLACK
6
CONTINUOUS
10
2.192794094488189
20
0.6962075196850394
11
2.1935433070866139
21
0.6924409448818898
0
LINE
8
BLACK
6
CONTINUOUS
10
2.1935433070866139
20
0.6924409448818898
11
2.1935433070866139
21
0.672755905511811
0
LINE
8
BLACK
6
CONTINUOUS
10
2.1935433070866139
20
0.672755905511811
11
2.192794094488189
21
0.6689893307086614
0
LINE
8
BLACK
6
CONTINUOUS
10
2.192794094488189
20
0.6689893307086614
11
2.1906605118110236
21
0.6657961811023622
0
LINE
8
BLACK
6
CONTINUOUS
10
2.1906605118110236
20
0.6657961811023622
11
2.1874673622047243
21
0.6636625984251968
0
LINE
8
BLACK
6
CONTINUOUS
10
2.1874673622047243
20
0.6636625984251968
11
2.1837007874015746
21
0.6629133858267716
0
LINE
8
BLACK
6
CONTINUOUS
10
2.1837007874015746
20
0.6629133858267716
11
2.146299212598425
21
0.6629133858267716
0
LINE
8
BLACK
6
CONTINUOUS
10
2.146299212598425
20
0.6629133858267716
11
2.1425326377952754
21
0.6636625984251968
0
LINE
8
BLACK
6
CONTINUOUS
10
2.1425326377952754
20
0.6636625984251968
11
2.1393394881889765
21
0.6657961811023622
0
LINE
8
BLACK
6
CONTINUOUS
10
2.1393394881889765
20
0.6657961811023622
11
2.1372059055118111
21
0.6689893307086614
0
LINE
8
BLACK
6
CONTINUOUS
10
2.1372059055118111
20
0.6689893307086614
11
2.1364566929133857
21
0.672755905511811
0
LINE
8
BLACK
6
CONTINUOUS
10
2.1364566929133857
20
0.672755905511811
11
2.1364566929133857
21
0.6924409448818898
0
LINE
8
BLACK
6
CONTINUOUS
10
2.1364566929133857
20
0.6924409448818898
11
2.1372059055118111
21
0.6962075196850394
0
LINE
8
BLACK
6
CONTINUOUS
10
2.1372059055118111
20
0.6962075196850394
11
2.1393394881889765
21
0.6994006692913386
0
LINE
8
BLACK
6
CONTINUOUS
10
2.1393394881889765
20
0.6994006692913386
11
2.1425326377952754
21
0.7015342519685039
0
LINE
8
BLACK
6
CONTINUOUS
10
2.1425326377952754
20
0.7015342519685039
11
2.146299212598425
21
0.7022834645669291
0
LINE
8
BLACK
6
CONTINUOUS
10
2.146299212598425
20
0.7022834645669291
11
2.1837007874015746
21
0.7022834645669291
0
LINE
8
BLACK
6
CONTINUOUS
10
2.1837007874015746
20
0.7022834645669291
11
2.1874673622047243
21
0.7015342519685039
0
LINE
8
BLACK
6
CONTINUOUS
10
2.1874673622047243
20
0.7763374015748031
11
2.1906605118110236
21
0.7742038188976378
0
LINE
8
BLACK
6
CONTINUOUS
10
2.1906605118110236
20
0.7742038188976378
11
2.192794094488189
21
0.7710106692913385
0
LINE
8
BLACK
6
CONTINUOUS
10
2.192794094488189
20
0.7710106692913385
11
2.1935433070866139
21
0.767244094488189
0
LINE
8
BLACK
6
CONTINUOUS
10
2.1935433070866139
20
0.767244094488189
11
2.1935433070866139
21
0.7475590551181103
0
LINE
8
BLACK
6
CONTINUOUS
10
2.1935433070866139
20
0.7475590551181103
11
2.192794094488189
21
0.7437924803149606
0
LINE
8
BLACK
6
CONTINUOUS
10
2.192794094488189
20
0.7437924803149606
11
2.1906605118110236
21
0.7405993307086614
0
LINE
8
BLACK
6
CONTINUOUS
10
2.1906605118110236
20
0.7405993307086614
11
2.1874673622047243
21
0.738465748031496
0
LINE
8
BLACK
6
CONTINUOUS
10
2.1874673622047243
20
0.738465748031496
11
2.1837007874015746
21
0.7377165354330708
0
LINE
8
BLACK
6
CONTINUOUS
10
2.1837007874015746
20
0.7377165354330708
11
2.146299212598425
21
0.7377165354330708
0
LINE
8
BLACK
6
CONTINUOUS
10
2.146299212598425
20
0.7377165354330708
11
2.1425326377952754
21
0.738465748031496
0
LINE
8
BLACK
6
CONTINUOUS
10
2.1425326377952754
20
0.738465748031496
11
2.1393394881889765
21
0.7405993307086614
0
LINE
8
BLACK
6
CONTINUOUS
10
2.1393394881889765
20
0.7405993307086614
11
2.1372059055118111
21
0.7437924803149606
0
LINE
8
BLACK
6
CONTINUOUS
10
2.1372059055118111
20
0.7437924803149606
11
2.1364566929133857
21
0.7475590551181103
0
LINE
8
BLACK
6
CONTINUOUS
10
2.1364566929133857
20
0.7475590551181103
11
2.1364566929133857
21
0.767244094488189
0
LINE
8
BLACK
6
CONTINUOUS
10
2.1364566929133857
20
0.767244094488189
11
2.1372059055118111
21
0.7710106692913385
0
LINE
8
BLACK
6
CONTINUOUS
10
2.1372059055118111
20
0.7710106692913385
11
2.1393394881889765
21
0.7742038188976378
0
LINE
8
BLACK
6
CONTINUOUS
10
2.1393394881889765
20
0.7742038188976378
11
2.1425326377952754
21
0.7763374015748031
0
LINE
8
BLACK
6
CONTINUOUS
10
2.1425326377952754
20
0.7763374015748031
11
2.146299212598425
21
0.7770866141732283
0
LINE
8
BLACK
6
CONTINUOUS
10
2.146299212598425
20
0.7770866141732283
11
2.1837007874015746
21
0.7770866141732283
0
LINE
8
BLACK
6
CONTINUOUS
10
2.1837007874015746
20
0.7770866141732283
11
2.1874673622047243
21
0.7763374015748031
0
LINE
8
BLACK
6
CONTINUOUS
10
0.9391996456692914
20
0.8581090551181102
11
0.9423927952755905
21
0.8559754724409449
0
LINE
8
BLACK
6
CONTINUOUS
10
0.9423927952755905
20
0.8559754724409449
11
0.9445263779527558
21
0.8527823228346456
0
LINE
8
BLACK
6
CONTINUOUS
10
0.9445263779527558
20
0.8527823228346456
11
0.945275590551181
21
0.849015748031496
0
LINE
8
BLACK
6
CONTINUOUS
10
0.945275590551181
20
0.849015748031496
11
0.945275590551181
21
0.7702755905511811
0
LINE
8
BLACK
6
CONTINUOUS
10
0.945275590551181
20
0.7702755905511811
11
0.9445263779527558
21
0.7665090157480314
0
LINE
8
BLACK
6
CONTINUOUS
10
0.9445263779527558
20
0.7665090157480314
11
0.9423927952755905
21
0.7633158661417323
0
LINE
8
BLACK
6
CONTINUOUS
10
0.9423927952755905
20
0.7633158661417323
11
0.9391996456692914
21
0.761182283464567
0
LINE
8
BLACK
6
CONTINUOUS
10
0.9391996456692914
20
0.761182283464567
11
0.9354330708661417
21
0.7604330708661418
0
LINE
8
BLACK
6
CONTINUOUS
10
0.9354330708661417
20
0.7604330708661418
11
0.8645669291338582
21
0.7604330708661418
0
LINE
8
BLACK
6
CONTINUOUS
10
0.8645669291338582
20
0.7604330708661418
11
0.8608003543307087
21
0.761182283464567
0
LINE
8
BLACK
6
CONTINUOUS
10
0.8608003543307087
20
0.761182283464567
11
0.8576072047244094
21
0.7633158661417323
0
LINE
8
BLACK
6
CONTINUOUS
10
0.8576072047244094
20
0.7633158661417323
11
0.8554736220472441
21
0.7665090157480314
0
LINE
8
BLACK
6
CONTINUOUS
10
0.8554736220472441
20
0.7665090157480314
11
0.8547244094488189
21
0.7702755905511811
0
LINE
8
BLACK
6
CONTINUOUS
10
0.8547244094488189
20
0.7702755905511811
11
0.8547244094488189
21
0.849015748031496
0
LINE
8
BLACK
6
CONTINUOUS
10
0.8547244094488189
20
0.849015748031496
11
0.8554736220472441
21
0.8527823228346456
0
LINE
8
BLACK
6
CONTINUOUS
10
0.8554736220472441
20
0.8527823228346456
11
0.8576072047244094
21
0.8559754724409449
0
LINE
8
BLACK
6
CONTINUOUS
10
0.8576072047244094
20
0.8559754724409449
11
0.8608003543307087
21
0.8581090551181102
0
LINE
8
BLACK
6
CONTINUOUS
10
0.8608003543307087
20
0.8581090551181102
11
0.8645669291338582
21
0.8588582677165354
0
LINE
8
BLACK
6
CONTINUOUS
10
0.8645669291338582
20
0.8588582677165354
11
0.9354330708661417
21
0.8588582677165354
0
LINE
8
BLACK
6
CONTINUOUS
10
0.9354330708661417
20
0.8588582677165354
11
0.9391996456692914
21
0.8581090551181102
0
LINE
8
BLACK
6
CONTINUOUS
10
2.5013886220472439
20
0.8119437007874015
11
2.5045817716535432
21
0.8098101181102362
0
LINE
8
BLACK
6
CONTINUOUS
10
2.5045817716535432
20
0.8098101181102362
11
2.5067153543307086
21
0.8066169685039369
0
LINE
8
BLACK
6
CONTINUOUS
10
2.5067153543307086
20
0.8066169685039369
11
2.507464566929134
21
0.8028503937007874
0
LINE
8
BLACK
6
CONTINUOUS
10
2.507464566929134
20
0.8028503937007874
11
2.507464566929134
21
0.7713543307086614
0
LINE
8
BLACK
6
CONTINUOUS
10
2.507464566929134
20
0.7713543307086614
11
2.5067153543307086
21
0.7675877559055118
0
LINE
8
BLACK
6
CONTINUOUS
10
2.5067153543307086
20
0.7675877559055118
11
2.5045817716535432
21
0.7643946062992126
0
LINE
8
BLACK
6
CONTINUOUS
10
2.5045817716535432
20
0.7643946062992126
11
2.5013886220472439
21
0.7622610236220472
0
LINE
8
BLACK
6
CONTINUOUS
10
2.5013886220472439
20
0.7622610236220472
11
2.4976220472440946
21
0.761511811023622
0
LINE
8
BLACK
6
CONTINUOUS
10
2.4976220472440946
20
0.761511811023622
11
2.4503779527559053
21
0.761511811023622
0
LINE
8
BLACK
6
CONTINUOUS
10
2.4503779527559053
20
0.761511811023622
11
2.4466113779527556
21
0.7622610236220472
0
LINE
8
BLACK
6
CONTINUOUS
10
2.4466113779527556
20
0.7622610236220472
11
2.4434182283464567
21
0.7643946062992126
0
LINE
8
BLACK
6
CONTINUOUS
10
2.4434182283464567
20
0.7643946062992126
11
2.4412846456692914
21
0.7675877559055118
0
LINE
8
BLACK
6
CONTINUOUS
10
2.4412846456692914
20
0.7675877559055118
11
2.440535433070866
21
0.7713543307086614
0
LINE
8
BLACK
6
CONTINUOUS
10
2.440535433070866
20
0.7713543307086614
11
2.440535433070866
21
0.8028503937007874
0
LINE
8
BLACK
6
CONTINUOUS
10
2.440535433070866
20
0.8028503937007874
11
2.4412846456692914
21
0.8066169685039369
0
LINE
8
BLACK
6
CONTINUOUS
10
2.4412846456692914
20
0.8066169685039369
11
2.4434182283464567
21
0.8098101181102362
0
LINE
8
BLACK
6
CONTINUOUS
10
2.4434182283464567
20
0.8098101181102362
11
2.4466113779527556
21
0.8119437007874015
0
LINE
8
BLACK
6
CONTINUOUS
10
2.4466113779527556
20
0.8119437007874015
11
2.4503779527559053
21
0.8126929133858267
0
LINE
8
BLACK
6
CONTINUOUS
10
2.4503779527559053
20
0.8126929133858267
11
2.4976220472440946
21
0.8126929133858267
0
LINE
8
BLACK
6
CONTINUOUS
10
2.4976220472440946
20
0.8126929133858267
11
2.5013886220472439
21
0.8119437007874015
0
LINE
8
BLACK
6
CONTINUOUS
10
2.1874673622047243
20
0.836534251968504
11
2.1906605118110236
21
0.8344006692913386
0
LINE
8
BLACK
6
CONTINUOUS
10
2.1906605118110236
20
0.8344006692913386
11
2.192794094488189
21
0.8312075196850394
0
LINE
8
BLACK
6
CONTINUOUS
10
2.192794094488189
20
0.8312075196850394
11
2.1935433070866139
21
0.8274409448818898
0
LINE
8
BLACK
6
CONTINUOUS
10
2.1935433070866139
20
0.8274409448818898
11
2.1935433070866139
21
0.807755905511811
0
LINE
8
BLACK
6
CONTINUOUS
10
2.1935433070866139
20
0.807755905511811
11
2.192794094488189
21
0.8039893307086614
0
LINE
8
BLACK
6
CONTINUOUS
10
2.192794094488189
20
0.8039893307086614
11
2.1906605118110236
21
0.8007961811023622
0
LINE
8
BLACK
6
CONTINUOUS
10
2.1906605118110236
20
0.8007961811023622
11
2.1874673622047243
21
0.7986625984251968
0
LINE
8
BLACK
6
CONTINUOUS
10
2.1874673622047243
20
0.7986625984251968
11
2.1837007874015746
21
0.7979133858267716
0
LINE
8
BLACK
6
CONTINUOUS
10
2.1837007874015746
20
0.7979133858267716
11
2.146299212598425
21
0.7979133858267716
0
LINE
8
BLACK
6
CONTINUOUS
10
2.146299212598425
20
0.7979133858267716
11
2.1425326377952754
21
0.7986625984251968
0
LINE
8
BLACK
6
CONTINUOUS
10
2.1425326377952754
20
0.7986625984251968
11
2.1393394881889765
21
0.8007961811023622
0
LINE
8
BLACK
6
CONTINUOUS
10
2.1393394881889765
20
0.8007961811023622
11
2.1372059055118111
21
0.8039893307086614
0
LINE
8
BLACK
6
CONTINUOUS
10
2.1372059055118111
20
0.8039893307086614
11
2.1364566929133857
21
0.807755905511811
0
LINE
8
BLACK
6
CONTINUOUS
10
2.1364566929133857
20
0.807755905511811
11
2.1364566929133857
21
0.8274409448818898
0
LINE
8
BLACK
6
CONTINUOUS
10
2.1364566929133857
20
0.8274409448818898
11
2.1372059055118111
21
0.8312075196850394
0
LINE
8
BLACK
6
CONTINUOUS
10
2.1372059055118111
20
0.8312075196850394
11
2.1393394881889765
21
0.8344006692913386
0
LINE
8
BLACK
6
CONTINUOUS
10
2.1393394881889765
20
0.8344006692913386
11
2.1425326377952754
21
0.836534251968504
0
LINE
8
BLACK
6
CONTINUOUS
10
2.1425326377952754
20
0.836534251968504
11
2.146299212598425
21
0.8372834645669291
0
LINE
8
BLACK
6
CONTINUOUS
10
2.146299212598425
20
0.8372834645669291
11
2.1837007874015746
21
0.8372834645669291
0
LINE
8
BLACK
6
CONTINUOUS
10
2.1837007874015746
20
0.8372834645669291
11
2.1874673622047243
21
0.836534251968504
0
LINE
8
BLACK
6
CONTINUOUS
10
0.7937007874015748
20
0.8070866141732284
11
0.7543307086614173
21
0.8070866141732284
0
LINE
8
BLACK
6
CONTINUOUS
10
0.7543307086614173
20
0.8070866141732284
11
0.7543307086614173
21
0.9566929133858267
0
LINE
8
BLACK
6
CONTINUOUS
10
0.7543307086614173
20
0.9566929133858267
11
0.7937007874015748
21
0.9566929133858267
0
LINE
8
BLACK
6
CONTINUOUS
10
0.7937007874015748
20
0.9566929133858267
11
0.7937007874015748
21
0.8070866141732284
0
LINE
8
BLACK
6
CONTINUOUS
10
2.0456692913385828
20
0.8070866141732284
11
2.0062992125984254
21
0.8070866141732284
0
LINE
8
BLACK
6
CONTINUOUS
10
2.0062992125984254
20
0.8070866141732284
11
2.0062992125984254
21
0.9566929133858267
0
LINE
8
BLACK
6
CONTINUOUS
10
2.0062992125984254
20
0.9566929133858267
11
2.0456692913385828
21
0.9566929133858267
0
LINE
8
BLACK
6
CONTINUOUS
10
2.0456692913385828
20
0.9566929133858267
11
2.0456692913385828
21
0.8070866141732284
0
LINE
8
BLACK
6
CONTINUOUS
10
2.1874673622047243
20
0.9113374015748031
11
2.1906605118110236
21
0.9092038188976378
0
LINE
8
BLACK
6
CONTINUOUS
10
2.1906605118110236
20
0.9092038188976378
11
2.192794094488189
21
0.9060106692913386
0
LINE
8
BLACK
6
CONTINUOUS
10
2.192794094488189
20
0.9060106692913386
11
2.1935433070866139
21
0.902244094488189
0
LINE
8
BLACK
6
CONTINUOUS
10
2.1935433070866139
20
0.902244094488189
11
2.1935433070866139
21
0.8825590551181102
0
LINE
8
BLACK
6
CONTINUOUS
10
2.1935433070866139
20
0.8825590551181102
11
2.192794094488189
21
0.8787924803149606
0
LINE
8
BLACK
6
CONTINUOUS
10
2.192794094488189
20
0.8787924803149606
11
2.1906605118110236
21
0.8755993307086614
0
LINE
8
BLACK
6
CONTINUOUS
10
2.1906605118110236
20
0.8755993307086614
11
2.1874673622047243
21
0.873465748031496
0
LINE
8
BLACK
6
CONTINUOUS
10
2.1874673622047243
20
0.873465748031496
11
2.1837007874015746
21
0.8727165354330708
0
LINE
8
BLACK
6
CONTINUOUS
10
2.1837007874015746
20
0.8727165354330708
11
2.146299212598425
21
0.8727165354330708
0
LINE
8
BLACK
6
CONTINUOUS
10
2.146299212598425
20
0.8727165354330708
11
2.1425326377952754
21
0.873465748031496
0
LINE
8
BLACK
6
CONTINUOUS
10
2.1425326377952754
20
0.873465748031496
11
2.1393394881889765
21
0.8755993307086614
0
LINE
8
BLACK
6
CONTINUOUS
10
2.1393394881889765
20
0.8755993307086614
11
2.1372059055118111
21
0.8787924803149606
0
LINE
8
BLACK
6
CONTINUOUS
10
2.1372059055118111
20
0.8787924803149606
11
2.1364566929133857
21
0.8825590551181102
0
LINE
8
BLACK
6
CONTINUOUS
10
2.1364566929133857
20
0.8825590551181102
11
2.1364566929133857
21
0.902244094488189
0
LINE
8
BLACK
6
CONTINUOUS
10
2.1364566929133857
20
0.902244094488189
11
2.1372059055118111
21
0.9060106692913386
0
LINE
8
BLACK
6
CONTINUOUS
10
2.1372059055118111
20
0.9060106692913386
11
2.1393394881889765
21
0.9092038188976378
0
LINE
8
BLACK
6
CONTINUOUS
10
2.1393394881889765
20
0.9092038188976378
11
2.1425326377952754
21
0.9113374015748031
0
LINE
8
BLACK
6
CONTINUOUS
10
2.1425326377952754
20
0.9113374015748031
11
2.146299212598425
21
0.9120866141732283
0
LINE
8
BLACK
6
CONTINUOUS
10
2.146299212598425
20
0.9120866141732283
11
2.1837007874015746
21
0.9120866141732283
0
LINE
8
BLACK
6
CONTINUOUS
10
2.1837007874015746
20
0.9120866141732283
11
2.1874673622047243
21
0.9113374015748031
0
LINE
8
BLACK
6
CONTINUOUS
10
1.2074673622047243
20
0.9365342519685039
11
1.2106605118110236
21
0.9344006692913386
0
LINE
8
BLACK
6
CONTINUOUS
10
1.2106605118110236
20
0.9344006692913386
11
1.212794094488189
21
0.9312075196850393
0
LINE
8
BLACK
6
CONTINUOUS
10
1.212794094488189
20
0.9312075196850393
11
1.2135433070866142
21
0.9274409448818898
0
LINE
8
BLACK
6
CONTINUOUS
10
1.2135433070866142
20
0.9274409448818898
11
1.2135433070866142
21
0.907755905511811
0
LINE
8
BLACK
6
CONTINUOUS
10
1.2135433070866142
20
0.907755905511811
11
1.212794094488189
21
0.9039893307086614
0
LINE
8
BLACK
6
CONTINUOUS
10
1.212794094488189
20
0.9039893307086614
11
1.2106605118110236
21
0.9007961811023621
0
LINE
8
BLACK
6
CONTINUOUS
10
1.2106605118110236
20
0.9007961811023621
11
1.2074673622047243
21
0.8986625984251968
0
LINE
8
BLACK
6
CONTINUOUS
10
1.2074673622047243
20
0.8986625984251968
11
1.2037007874015748
21
0.8979133858267716
0
LINE
8
BLACK
6
CONTINUOUS
10
1.2037007874015748
20
0.8979133858267716
11
1.1662992125984251
21
0.8979133858267716
0
LINE
8
BLACK
6
CONTINUOUS
10
1.1662992125984251
20
0.8979133858267716
11
1.1625326377952756
21
0.8986625984251968
0
LINE
8
BLACK
6
CONTINUOUS
10
1.1625326377952756
20
0.8986625984251968
11
1.1593394881889763
21
0.9007961811023621
0
LINE
8
BLACK
6
CONTINUOUS
10
1.1593394881889763
20
0.9007961811023621
11
1.1572059055118109
21
0.9039893307086614
0
LINE
8
BLACK
6
CONTINUOUS
10
1.1572059055118109
20
0.9039893307086614
11
1.1564566929133857
21
0.907755905511811
0
LINE
8
BLACK
6
CONTINUOUS
10
1.1564566929133857
20
0.907755905511811
11
1.1564566929133857
21
0.9274409448818898
0
LINE
8
BLACK
6
CONTINUOUS
10
1.1564566929133857
20
0.9274409448818898
11
1.1572059055118109
21
0.9312075196850393
0
LINE
8
BLACK
6
CONTINUOUS
10
1.1572059055118109
20
0.9312075196850393
11
1.1593394881889763
21
0.9344006692913386
0
LINE
8
BLACK
6
CONTINUOUS
10
1.1593394881889763
20
0.9344006692913386
11
1.1625326377952756
21
0.9365342519685039
0
LINE
8
BLACK
6
CONTINUOUS
10
1.1625326377952756
20
0.9365342519685039
11
1.1662992125984251
21
0.9372834645669291
0
LINE
8
BLACK
6
CONTINUOUS
10
1.1662992125984251
20
0.9372834645669291
11
1.2037007874015748
21
0.9372834645669291
0
LINE
8
BLACK
6
CONTINUOUS
10
1.2037007874015748
20
0.9372834645669291
11
1.2074673622047243
21
0.9365342519685039
0
LINE
8
BLACK
6
CONTINUOUS
10
2.5013886220472439
20
0.9497389763779527
11
2.5045817716535432
21
0.9476053937007873
0
LINE
8
BLACK
6
CONTINUOUS
10
2.5045817716535432
20
0.9476053937007873
11
2.5067153543307086
21
0.9444122440944882
0
LINE
8
BLACK
6
CONTINUOUS
10
2.5067153543307086
20
0.9444122440944882
11
2.507464566929134
21
0.9406456692913385
0
LINE
8
BLACK
6
CONTINUOUS
10
2.507464566929134
20
0.9406456692913385
11
2.507464566929134
21
0.9091496062992126
0
LINE
8
BLACK
6
CONTINUOUS
10
2.507464566929134
20
0.9091496062992126
11
2.5067153543307086
21
0.9053830314960629
0
LINE
8
BLACK
6
CONTINUOUS
10
2.5067153543307086
20
0.9053830314960629
11
2.5045817716535432
21
0.9021898818897638
0
LINE
8
BLACK
6
CONTINUOUS
10
2.5045817716535432
20
0.9021898818897638
11
2.5013886220472439
21
0.9000562992125984
0
LINE
8
BLACK
6
CONTINUOUS
10
2.5013886220472439
20
0.9000562992125984
11
2.4976220472440946
21
0.8993070866141732
0
LINE
8
BLACK
6
CONTINUOUS
10
2.4976220472440946
20
0.8993070866141732
11
2.4503779527559053
21
0.8993070866141732
0
LINE
8
BLACK
6
CONTINUOUS
10
2.4503779527559053
20
0.8993070866141732
11
2.4466113779527556
21
0.9000562992125984
0
LINE
8
BLACK
6
CONTINUOUS
10
2.4466113779527556
20
0.9000562992125984
11
2.4434182283464567
21
0.9021898818897638
0
LINE
8
BLACK
6
CONTINUOUS
10
2.4434182283464567
20
0.9021898818897638
11
2.4412846456692914
21
0.9053830314960629
0
LINE
8
BLACK
6
CONTINUOUS
10
2.4412846456692914
20
0.9053830314960629
11
2.440535433070866
21
0.9091496062992126
0
LINE
8
BLACK
6
CONTINUOUS
10
2.440535433070866
20
0.9091496062992126
11
2.440535433070866
21
0.9406456692913385
0
LINE
8
BLACK
6
CONTINUOUS
10
2.440535433070866
20
0.9406456692913385
11
2.4412846456692914
21
0.9444122440944882
0
LINE
8
BLACK
6
CONTINUOUS
10
2.4412846456692914
20
0.9444122440944882
11
2.4434182283464567
21
0.9476053937007873
0
LINE
8
BLACK
6
CONTINUOUS
10
2.4434182283464567
20
0.9476053937007873
11
2.4466113779527556
21
0.9497389763779527
0
LINE
8
BLACK
6
CONTINUOUS
10
2.4466113779527556
20
0.9497389763779527
11
2.4503779527559053
21
0.9504881889763779
0
LINE
8
BLACK
6
CONTINUOUS
10
2.4503779527559053
20
0.9504881889763779
11
2.4976220472440946
21
0.9504881889763779
0
LINE
8
BLACK
6
CONTINUOUS
10
2.4976220472440946
20
0.9504881889763779
11
2.5013886220472439
21
0.9497389763779527
0
LINE
8
BLACK
6
CONTINUOUS
10
0.9936536614173228
20
0.9289599212598425
11
0.9955695275590551
21
0.9276797637795275
0
LINE
8
BLACK
6
CONTINUOUS
10
0.9955695275590551
20
0.9276797637795275
11
0.9968496850393701
21
0.9257638976377952
0
LINE
8
BLACK
6
CONTINUOUS
10
0.9968496850393701
20
0.9257638976377952
11
0.9972992125984251
21
0.923503937007874
0
LINE
8
BLACK
6
CONTINUOUS
10
0.9972992125984251
20
0.923503937007874
11
0.9972992125984251
21
0.9116929133858267
0
LINE
8
BLACK
6
CONTINUOUS
10
0.9972992125984251
20
0.9116929133858267
11
0.9968496850393701
21
0.9094329527559055
0
LINE
8
BLACK
6
CONTINUOUS
10
0.9968496850393701
20
0.9094329527559055
11
0.9955695275590551
21
0.9075170866141732
0
LINE
8
BLACK
6
CONTINUOUS
10
0.9955695275590551
20
0.9075170866141732
11
0.9936536614173228
21
0.9062369291338582
0
LINE
8
BLACK
6
CONTINUOUS
10
0.9936536614173228
20
0.9062369291338582
11
0.9913937007874015
21
0.9057874015748031
0
LINE
8
BLACK
6
CONTINUOUS
10
0.9913937007874015
20
0.9057874015748031
11
0.9510393700787402
21
0.9057874015748031
0
LINE
8
BLACK
6
CONTINUOUS
10
0.9510393700787402
20
0.9057874015748031
11
0.9487794094488189
21
0.9062369291338582
0
LINE
8
BLACK
6
CONTINUOUS
10
0.9487794094488189
20
0.9062369291338582
11
0.9468635433070866
21
0.9075170866141732
0
LINE
8
BLACK
6
CONTINUOUS
10
0.9468635433070866
20
0.9075170866141732
11
0.9455833858267716
21
0.9094329527559055
0
LINE
8
BLACK
6
CONTINUOUS
10
0.9455833858267716
20
0.9094329527559055
11
0.9451338582677166
21
0.9116929133858267
0
LINE
8
BLACK
6
CONTINUOUS
10
0.9451338582677166
20
0.9116929133858267
11
0.9451338582677166
21
0.923503937007874
0
LINE
8
BLACK
6
CONTINUOUS
10
0.9451338582677166
20
0.923503937007874
11
0.9455833858267716
21
0.9257638976377952
0
LINE
8
BLACK
6
CONTINUOUS
10
0.9455833858267716
20
0.9257638976377952
11
0.9468635433070866
21
0.9276797637795275
0
LINE
8
BLACK
6
CONTINUOUS
10
0.9468635433070866
20
0.9276797637795275
11
0.9487794094488189
21
0.9289599212598425
0
LINE
8
BLACK
6
CONTINUOUS
10
0.9487794094488189
20
0.9289599212598425
11
0.9510393700787402
21
0.9294094488188976
0
LINE
8
BLACK
6
CONTINUOUS
10
0.9510393700787402
20
0.9294094488188976
11
0.9913937007874015
21
0.9294094488188976
0
LINE
8
BLACK
6
CONTINUOUS
10
0.9913937007874015
20
0.9294094488188976
11
0.9936536614173228
21
0.9289599212598425
0
LINE
8
BLACK
6
CONTINUOUS
10
1.0832205905511811
20
0.9289599212598425
11
1.0851364566929134
21
0.9276797637795275
0
LINE
8
BLACK
6
CONTINUOUS
10
1.0851364566929134
20
0.9276797637795275
11
1.0864166141732283
21
0.9257638976377952
0
LINE
8
BLACK
6
CONTINUOUS
10
1.0864166141732283
20
0.9257638976377952
11
1.0868661417322834
21
0.923503937007874
0
LINE
8
BLACK
6
CONTINUOUS
10
1.0868661417322834
20
0.923503937007874
11
1.0868661417322834
21
0.9116929133858267
0
LINE
8
BLACK
6
CONTINUOUS
10
1.0868661417322834
20
0.9116929133858267
11
1.0864166141732283
21
0.9094329527559055
0
LINE
8
BLACK
6
CONTINUOUS
10
1.0864166141732283
20
0.9094329527559055
11
1.0851364566929134
21
0.9075170866141732
0
LINE
8
BLACK
6
CONTINUOUS
10
1.0851364566929134
20
0.9075170866141732
11
1.0832205905511811
21
0.9062369291338582
0
LINE
8
BLACK
6
CONTINUOUS
10
1.0832205905511811
20
0.9062369291338582
11
1.0809606299212597
21
0.9057874015748031
0
LINE
8
BLACK
6
CONTINUOUS
10
1.0809606299212597
20
0.9057874015748031
11
1.0406062992125984
21
0.9057874015748031
0
LINE
8
BLACK
6
CONTINUOUS
10
1.0406062992125984
20
0.9057874015748031
11
1.0383463385826772
21
0.9062369291338582
0
LINE
8
BLACK
6
CONTINUOUS
10
1.0383463385826772
20
0.9062369291338582
11
1.0364304724409448
21
0.9075170866141732
0
LINE
8
BLACK
6
CONTINUOUS
10
1.0364304724409448
20
0.9075170866141732
11
1.0351503149606298
21
0.9094329527559055
0
LINE
8
BLACK
6
CONTINUOUS
10
1.0351503149606298
20
0.9094329527559055
11
1.0347007874015748
21
0.9116929133858267
0
LINE
8
BLACK
6
CONTINUOUS
10
1.0347007874015748
20
0.9116929133858267
11
1.0347007874015748
21
0.923503937007874
0
LINE
8
BLACK
6
CONTINUOUS
10
1.0347007874015748
20
0.923503937007874
11
1.0351503149606298
21
0.9257638976377952
0
LINE
8
BLACK
6
CONTINUOUS
10
1.0351503149606298
20
0.9257638976377952
11
1.0364304724409448
21
0.9276797637795275
0
LINE
8
BLACK
6
CONTINUOUS
10
1.0364304724409448
20
0.9276797637795275
11
1.0383463385826772
21
0.9289599212598425
0
LINE
8
BLACK
6
CONTINUOUS
10
1.0383463385826772
20
0.9289599212598425
11
1.0406062992125984
21
0.9294094488188976
0
LINE
8
BLACK
6
CONTINUOUS
10
1.0406062992125984
20
0.9294094488188976
11
1.0809606299212597
21
0.9294094488188976
0
LINE
8
BLACK
6
CONTINUOUS
10
1.0809606299212597
20
0.9294094488188976
11
1.0832205905511811
21
0.9289599212598425
0
LINE
8
BLACK
6
CONTINUOUS
10
0.9936536614173228
20
0.9663614960629922
11
0.9955695275590551
21
0.9650813385826772
0
LINE
8
BLACK
6
CONTINUOUS
10
0.9955695275590551
20
0.9650813385826772
11
0.9968496850393701
21
0.9631654724409449
0
LINE
8
BLACK
6
CONTINUOUS
10
0.9968496850393701
20
0.9631654724409449
11
0.9972992125984251
21
0.9609055118110236
0
LINE
8
BLACK
6
CONTINUOUS
10
0.9972992125984251
20
0.9609055118110236
11
0.9972992125984251
21
0.9490944881889763
0
LINE
8
BLACK
6
CONTINUOUS
10
0.9972992125984251
20
0.9490944881889763
11
0.9968496850393701
21
0.9468345275590551
0
LINE
8
BLACK
6
CONTINUOUS
10
0.9968496850393701
20
0.9468345275590551
11
0.9955695275590551
21
0.9449186614173228
0
LINE
8
BLACK
6
CONTINUOUS
10
0.9955695275590551
20
0.9449186614173228
11
0.9936536614173228
21
0.9436385039370079
0
LINE
8
BLACK
6
CONTINUOUS
10
0.9936536614173228
20
0.9436385039370079
11
0.9913937007874015
21
0.9431889763779527
0
LINE
8
BLACK
6
CONTINUOUS
10
0.9913937007874015
20
0.9431889763779527
11
0.9510393700787402
21
0.9431889763779527
0
LINE
8
BLACK
6
CONTINUOUS
10
0.9510393700787402
20
0.9431889763779527
11
0.9487794094488189
21
0.9436385039370079
0
LINE
8
BLACK
6
CONTINUOUS
10
0.9487794094488189
20
0.9436385039370079
11
0.9468635433070866
21
0.9449186614173228
0
LINE
8
BLACK
6
CONTINUOUS
10
0.9468635433070866
20
0.9449186614173228
11
0.9455833858267716
21
0.9468345275590551
0
LINE
8
BLACK
6
CONTINUOUS
10
0.9455833858267716
20
0.9468345275590551
11
0.9451338582677166
21
0.9490944881889763
0
LINE
8
BLACK
6
CONTINUOUS
10
0.9451338582677166
20
0.9490944881889763
11
0.9451338582677166
21
0.9609055118110236
0
LINE
8
BLACK
6
CONTINUOUS
10
0.9451338582677166
20
0.9609055118110236
11
0.9455833858267716
21
0.9631654724409449
0
LINE
8
BLACK
6
CONTINUOUS
10
0.9455833858267716
20
0.9631654724409449
11
0.9468635433070866
21
0.9650813385826772
0
LINE
8
BLACK
6
CONTINUOUS
10
0.9468635433070866
20
0.9650813385826772
11
0.9487794094488189
21
0.9663614960629922
0
LINE
8
BLACK
6
CONTINUOUS
10
0.9487794094488189
20
0.9663614960629922
11
0.9510393700787402
21
0.9668110236220472
0
LINE
8
BLACK
6
CONTINUOUS
10
0.9510393700787402
20
0.9668110236220472
11
0.9913937007874015
21
0.9668110236220472
0
LINE
8
BLACK
6
CONTINUOUS
10
0.9913937007874015
20
0.9668110236220472
11
0.9936536614173228
21
0.9663614960629922
0
LINE
8
BLACK
6
CONTINUOUS
10
2.1231760236220474
20
1.006809842519685
11
2.1263691732283463
21
1.0046762598425196
0
LINE
8
BLACK
6
CONTINUOUS
10
2.1263691732283463
20
1.0046762598425196
11
2.1285027559055116
21
1.0014831102362205
0
LINE
8
BLACK
6
CONTINUOUS
10
2.1285027559055116
20
1.0014831102362205
11
2.1292519685039371
21
0.9977165354330708
0
LINE
8
BLACK
6
CONTINUOUS
10
2.1292519685039371
20
0.9977165354330708
11
2.1292519685039371
21
0.9622834645669291
0
LINE
8
BLACK
6
CONTINUOUS
10
2.1292519685039371
20
0.9622834645669291
11
2.1285027559055116
21
0.9585168897637795
0
LINE
8
BLACK
6
CONTINUOUS
10
2.1285027559055116
20
0.9585168897637795
11
2.1263691732283463
21
0.9553237401574803
0
LINE
8
BLACK
6
CONTINUOUS
10
2.1263691732283463
20
0.9553237401574803
11
2.1231760236220474
21
0.953190157480315
0
LINE
8
BLACK
6
CONTINUOUS
10
2.1231760236220474
20
0.953190157480315
11
2.1194094488188977
21
0.9524409448818898
0
LINE
8
BLACK
6
CONTINUOUS
10
2.1194094488188977
20
0.9524409448818898
11
2.0987401574803148
21
0.9524409448818898
0
LINE
8
BLACK
6
CONTINUOUS
10
2.0987401574803148
20
0.9524409448818898
11
2.0949735826771652
21
0.953190157480315
0
LINE
8
BLACK
6
CONTINUOUS
10
2.0949735826771652
20
0.953190157480315
11
2.0917804330708663
21
0.9553237401574803
0
LINE
8
BLACK
6
CONTINUOUS
10
2.0917804330708663
20
0.9553237401574803
11
2.0896468503937009
21
0.9585168897637795
0
LINE
8
BLACK
6
CONTINUOUS
10
2.0896468503937009
20
0.9585168897637795
11
2.0888976377952755
21
0.9622834645669291
0
LINE
8
BLACK
6
CONTINUOUS
10
2.0888976377952755
20
0.9622834645669291
11
2.0888976377952755
21
0.9977165354330708
0
LINE
8
BLACK
6
CONTINUOUS
10
2.0888976377952755
20
0.9977165354330708
11
2.0896468503937009
21
1.0014831102362205
0
LINE
8
BLACK
6
CONTINUOUS
10
2.0896468503937009
20
1.0014831102362205
11
2.0917804330708663
21
1.0046762598425196
0
LINE
8
BLACK
6
CONTINUOUS
10
2.0917804330708663
20
1.0046762598425196
11
2.0949735826771652
21
1.006809842519685
0
LINE
8
BLACK
6
CONTINUOUS
10
2.0949735826771652
20
1.006809842519685
11
2.0987401574803148
21
1.0075590551181102
0
LINE
8
BLACK
6
CONTINUOUS
10
2.0987401574803148
20
1.0075590551181102
11
2.1194094488188977
21
1.0075590551181102
0
LINE
8
BLACK
6
CONTINUOUS
10
2.1194094488188977
20
1.0075590551181102
11
2.1231760236220474
21
1.006809842519685
0
LINE
8
BLACK
6
CONTINUOUS
10
2.1950264173228344
20
1.006809842519685
11
2.1982195669291338
21
1.0046762598425196
0
LINE
8
BLACK
6
CONTINUOUS
10
2.1982195669291338
20
1.0046762598425196
11
2.2003531496062991
21
1.0014831102362205
0
LINE
8
BLACK
6
CONTINUOUS
10
2.2003531496062991
20
1.0014831102362205
11
2.2011023622047245
21
0.9977165354330708
0
LINE
8
BLACK
6
CONTINUOUS
10
2.2011023622047245
20
0.9977165354330708
11
2.2011023622047245
21
0.9622834645669291
0
LINE
8
BLACK
6
CONTINUOUS
10
2.2011023622047245
20
0.9622834645669291
11
2.2003531496062991
21
0.9585168897637795
0
LINE
8
BLACK
6
CONTINUOUS
10
2.2003531496062991
20
0.9585168897637795
11
2.1982195669291338
21
0.9553237401574803
0
LINE
8
BLACK
6
CONTINUOUS
10
2.1982195669291338
20
0.9553237401574803
11
2.1950264173228344
21
0.953190157480315
0
LINE
8
BLACK
6
CONTINUOUS
10
2.1950264173228344
20
0.953190157480315
11
2.1912598425196852
21
0.9524409448818898
0
LINE
8
BLACK
6
CONTINUOUS
10
2.1912598425196852
20
0.9524409448818898
11
2.1705905511811023
21
0.9524409448818898
0
LINE
8
BLACK
6
CONTINUOUS
10
2.1705905511811023
20
0.9524409448818898
11
2.1668239763779527
21
0.953190157480315
0
LINE
8
BLACK
6
CONTINUOUS
10
2.1668239763779527
20
0.953190157480315
11
2.1636308267716533
21
0.9553237401574803
0
LINE
8
BLACK
6
CONTINUOUS
10
2.1636308267716533
20
0.9553237401574803
11
2.161497244094488
21
0.9585168897637795
0
LINE
8
BLACK
6
CONTINUOUS
10
2.161497244094488
20
0.9585168897637795
11
2.160748031496063
21
0.9622834645669291
0
LINE
8
BLACK
6
CONTINUOUS
10
2.160748031496063
20
0.9622834645669291
11
2.160748031496063
21
0.9977165354330708
0
LINE
8
BLACK
6
CONTINUOUS
10
2.160748031496063
20
0.9977165354330708
11
2.161497244094488
21
1.0014831102362205
0
LINE
8
BLACK
6
CONTINUOUS
10
2.161497244094488
20
1.0014831102362205
11
2.1636308267716533
21
1.0046762598425196
0
LINE
8
BLACK
6
CONTINUOUS
10
2.1636308267716533
20
1.0046762598425196
11
2.1668239763779527
21
1.006809842519685
0
LINE
8
BLACK
6
CONTINUOUS
10
2.1668239763779527
20
1.006809842519685
11
2.1705905511811023
21
1.0075590551181102
0
LINE
8
BLACK
6
CONTINUOUS
10
2.1705905511811023
20
1.0075590551181102
11
2.1912598425196852
21
1.0075590551181102
0
LINE
8
BLACK
6
CONTINUOUS
10
2.1912598425196852
20
1.0075590551181102
11
2.1950264173228344
21
1.006809842519685
0
LINE
8
BLACK
6
CONTINUOUS
10
0.5562075196850393
20
1.0277940944881889
11
0.5594006692913386
21
1.0256605118110236
0
LINE
8
BLACK
6
CONTINUOUS
10
0.5594006692913386
20
1.0256605118110236
11
0.5615342519685039
21
1.0224673622047245
0
LINE
8
BLACK
6
CONTINUOUS
10
0.5615342519685039
20
1.0224673622047245
11
0.5622834645669291
21
1.0187007874015748
0
LINE
8
BLACK
6
CONTINUOUS
10
0.5622834645669291
20
1.0187007874015748
11
0.5622834645669291
21
0.9812992125984251
0
LINE
8
BLACK
6
CONTINUOUS
10
0.5622834645669291
20
0.9812992125984251
11
0.5615342519685039
21
0.9775326377952755
0
LINE
8
BLACK
6
CONTINUOUS
10
0.5615342519685039
20
0.9775326377952755
11
0.5594006692913386
21
0.9743394881889763
0
LINE
8
BLACK
6
CONTINUOUS
10
0.5594006692913386
20
0.9743394881889763
11
0.5562075196850393
21
0.972205905511811
0
LINE
8
BLACK
6
CONTINUOUS
10
0.5562075196850393
20
0.972205905511811
11
0.5524409448818898
21
0.9714566929133858
0
LINE
8
BLACK
6
CONTINUOUS
10
0.5524409448818898
20
0.9714566929133858
11
0.532755905511811
21
0.9714566929133858
0
LINE
8
BLACK
6
CONTINUOUS
10
0.532755905511811
20
0.9714566929133858
11
0.5289893307086614
21
0.972205905511811
0
LINE
8
BLACK
6
CONTINUOUS
10
0.5289893307086614
20
0.972205905511811
11
0.5257961811023621
21
0.9743394881889763
0
LINE
8
BLACK
6
CONTINUOUS
10
0.5257961811023621
20
0.9743394881889763
11
0.5236625984251968
21
0.9775326377952755
0
LINE
8
BLACK
6
CONTINUOUS
10
0.5236625984251968
20
0.9775326377952755
11
0.5229133858267716
21
0.9812992125984251
0
LINE
8
BLACK
6
CONTINUOUS
10
0.5229133858267716
20
0.9812992125984251
11
0.5229133858267716
21
1.0187007874015748
0
LINE
8
BLACK
6
CONTINUOUS
10
0.5229133858267716
20
1.0187007874015748
11
0.5236625984251968
21
1.0224673622047245
0
LINE
8
BLACK
6
CONTINUOUS
10
0.5236625984251968
20
1.0224673622047245
11
0.5257961811023621
21
1.0256605118110236
0
LINE
8
BLACK
6
CONTINUOUS
10
0.5257961811023621
20
1.0256605118110236
11
0.5289893307086614
21
1.0277940944881889
0
LINE
8
BLACK
6
CONTINUOUS
10
0.5289893307086614
20
1.0277940944881889
11
0.532755905511811
21
1.0285433070866141
0
LINE
8
BLACK
6
CONTINUOUS
10
0.532755905511811
20
1.0285433070866141
11
0.5524409448818898
21
1.0285433070866141
0
LINE
8
BLACK
6
CONTINUOUS
10
0.5524409448818898
20
1.0285433070866141
11
0.5562075196850393
21
1.0277940944881889
0
LINE
8
BLACK
6
CONTINUOUS
10
0.6310106692913385
20
1.0277940944881889
11
0.6342038188976378
21
1.0256605118110236
0
LINE
8
BLACK
6
CONTINUOUS
10
0.6342038188976378
20
1.0256605118110236
11
0.6363374015748031
21
1.0224673622047245
0
LINE
8
BLACK
6
CONTINUOUS
10
0.6363374015748031
20
1.0224673622047245
11
0.6370866141732283
21
1.0187007874015748
0
LINE
8
BLACK
6
CONTINUOUS
10
0.6370866141732283
20
1.0187007874015748
11
0.6370866141732283
21
0.9812992125984251
0
LINE
8
BLACK
6
CONTINUOUS
10
0.6370866141732283
20
0.9812992125984251
11
0.6363374015748031
21
0.9775326377952755
0
LINE
8
BLACK
6
CONTINUOUS
10
0.6363374015748031
20
0.9775326377952755
11
0.6342038188976378
21
0.9743394881889763
0
LINE
8
BLACK
6
CONTINUOUS
10
0.6342038188976378
20
0.9743394881889763
11
0.6310106692913385
21
0.972205905511811
0
LINE
8
BLACK
6
CONTINUOUS
10
0.6310106692913385
20
0.972205905511811
11
0.627244094488189
21
0.9714566929133858
0
LINE
8
BLACK
6
CONTINUOUS
10
0.627244094488189
20
0.9714566929133858
11
0.6075590551181103
21
0.9714566929133858
0
LINE
8
BLACK
6
CONTINUOUS
10
0.6075590551181103
20
0.9714566929133858
11
0.6037924803149606
21
0.972205905511811
0
LINE
8
BLACK
6
CONTINUOUS
10
0.6037924803149606
20
0.972205905511811
11
0.6005993307086614
21
0.9743394881889763
0
LINE
8
BLACK
6
CONTINUOUS
10
0.6005993307086614
20
0.9743394881889763
11
0.5984657480314961
21
0.9775326377952755
0
LINE
8
BLACK
6
CONTINUOUS
10
0.5984657480314961
20
0.9775326377952755
11
0.5977165354330709
21
0.9812992125984251
0
LINE
8
BLACK
6
CONTINUOUS
10
0.5977165354330709
20
0.9812992125984251
11
0.5977165354330709
21
1.0187007874015748
0
LINE
8
BLACK
6
CONTINUOUS
10
0.5977165354330709
20
1.0187007874015748
11
0.5984657480314961
21
1.0224673622047245
0
LINE
8
BLACK
6
CONTINUOUS
10
0.5984657480314961
20
1.0224673622047245
11
0.6005993307086614
21
1.0256605118110236
0
LINE
8
BLACK
6
CONTINUOUS
10
0.6005993307086614
20
1.0256605118110236
11
0.6037924803149606
21
1.0277940944881889
0
LINE
8
BLACK
6
CONTINUOUS
10
0.6037924803149606
20
1.0277940944881889
11
0.6075590551181103
21
1.0285433070866141
0
LINE
8
BLACK
6
CONTINUOUS
10
0.6075590551181103
20
1.0285433070866141
11
0.627244094488189
21
1.0285433070866141
0
LINE
8
BLACK
6
CONTINUOUS
10
0.627244094488189
20
1.0285433070866141
11
0.6310106692913385
21
1.0277940944881889
0
LINE
8
BLACK
6
CONTINUOUS
10
1.2074673622047243
20
1.0113374015748031
11
1.2106605118110236
21
1.0092038188976378
0
LINE
8
BLACK
6
CONTINUOUS
10
1.2106605118110236
20
1.0092038188976378
11
1.212794094488189
21
1.0060106692913386
0
LINE
8
BLACK
6
CONTINUOUS
10
1.212794094488189
20
1.0060106692913386
11
1.2135433070866142
21
1.002244094488189
0
LINE
8
BLACK
6
CONTINUOUS
10
1.2135433070866142
20
1.002244094488189
11
1.2135433070866142
21
0.9825590551181103
0
LINE
8
BLACK
6
CONTINUOUS
10
1.2135433070866142
20
0.9825590551181103
11
1.212794094488189
21
0.9787924803149606
0
LINE
8
BLACK
6
CONTINUOUS
10
1.212794094488189
20
0.9787924803149606
11
1.2106605118110236
21
0.9755993307086614
0
LINE
8
BLACK
6
CONTINUOUS
10
1.2106605118110236
20
0.9755993307086614
11
1.2074673622047243
21
0.973465748031496
0
LINE
8
BLACK
6
CONTINUOUS
10
1.2074673622047243
20
0.973465748031496
11
1.2037007874015748
21
0.9727165354330708
0
LINE
8
BLACK
6
CONTINUOUS
10
1.2037007874015748
20
0.9727165354330708
11
1.1662992125984251
21
0.9727165354330708
0
LINE
8
BLACK
6
CONTINUOUS
10
1.1662992125984251
20
0.9727165354330708
11
1.1625326377952756
21
0.973465748031496
0
LINE
8
BLACK
6
CONTINUOUS
10
1.1625326377952756
20
0.973465748031496
11
1.1593394881889763
21
0.9755993307086614
0
LINE
8
BLACK
6
CONTINUOUS
10
1.1593394881889763
20
0.9755993307086614
11
1.1572059055118109
21
0.9787924803149606
0
LINE
8
BLACK
6
CONTINUOUS
10
1.1572059055118109
20
0.9787924803149606
11
1.1564566929133857
21
0.9825590551181103
0
LINE
8
BLACK
6
CONTINUOUS
10
1.1564566929133857
20
0.9825590551181103
11
1.1564566929133857
21
1.002244094488189
0
LINE
8
BLACK
6
CONTINUOUS
10
1.1564566929133857
20
1.002244094488189
11
1.1572059055118109
21
1.0060106692913386
0
LINE
8
BLACK
6
CONTINUOUS
10
1.1572059055118109
20
1.0060106692913386
11
1.1593394881889763
21
1.0092038188976378
0
LINE
8
BLACK
6
CONTINUOUS
10
1.1593394881889763
20
1.0092038188976378
11
1.1625326377952756
21
1.0113374015748031
0
LINE
8
BLACK
6
CONTINUOUS
10
1.1625326377952756
20
1.0113374015748031
11
1.1662992125984251
21
1.0120866141732283
0
LINE
8
BLACK
6
CONTINUOUS
10
1.1662992125984251
20
1.0120866141732283
11
1.2037007874015748
21
1.0120866141732283
0
LINE
8
BLACK
6
CONTINUOUS
10
1.2037007874015748
20
1.0120866141732283
11
1.2074673622047243
21
1.0113374015748031
0
LINE
8
BLACK
6
CONTINUOUS
10
0.9164831102362204
20
1.0135027559055119
11
0.9196762598425197
21
1.0113691732283465
0
LINE
8
BLACK
6
CONTINUOUS
10
0.9196762598425197
20
1.0113691732283465
11
0.921809842519685
21
1.0081760236220472
0
LINE
8
BLACK
6
CONTINUOUS
10
0.921809842519685
20
1.0081760236220472
11
0.9225590551181102
21
1.0044094488188977
0
LINE
8
BLACK
6
CONTINUOUS
10
0.9225590551181102
20
1.0044094488188977
11
0.9225590551181102
21
0.983740157480315
0
LINE
8
BLACK
6
CONTINUOUS
10
0.9225590551181102
20
0.983740157480315
11
0.921809842519685
21
0.9799735826771653
0
LINE
8
BLACK
6
CONTINUOUS
10
0.921809842519685
20
0.9799735826771653
11
0.9196762598425197
21
0.9767804330708661
0
LINE
8
BLACK
6
CONTINUOUS
10
0.9196762598425197
20
0.9767804330708661
11
0.9164831102362204
21
0.9746468503937008
0
LINE
8
BLACK
6
CONTINUOUS
10
0.9164831102362204
20
0.9746468503937008
11
0.9127165354330709
21
0.9738976377952756
0
LINE
8
BLACK
6
CONTINUOUS
10
0.9127165354330709
20
0.9738976377952756
11
0.8772834645669291
21
0.9738976377952756
0
LINE
8
BLACK
6
CONTINUOUS
10
0.8772834645669291
20
0.9738976377952756
11
0.8735168897637795
21
0.9746468503937008
0
LINE
8
BLACK
6
CONTINUOUS
10
0.8735168897637795
20
0.9746468503937008
11
0.8703237401574803
21
0.9767804330708661
0
LINE
8
BLACK
6
CONTINUOUS
10
0.8703237401574803
20
0.9767804330708661
11
0.8681901574803149
21
0.9799735826771653
0
LINE
8
BLACK
6
CONTINUOUS
10
0.8681901574803149
20
0.9799735826771653
11
0.8674409448818897
21
0.983740157480315
0
LINE
8
BLACK
6
CONTINUOUS
10
0.8674409448818897
20
0.983740157480315
11
0.8674409448818897
21
1.0044094488188977
0
LINE
8
BLACK
6
CONTINUOUS
10
0.8674409448818897
20
1.0044094488188977
11
0.8681901574803149
21
1.0081760236220472
0
LINE
8
BLACK
6
CONTINUOUS
10
0.8681901574803149
20
1.0081760236220472
11
0.8703237401574803
21
1.0113691732283465
0
LINE
8
BLACK
6
CONTINUOUS
10
0.8703237401574803
20
1.0113691732283465
11
0.8735168897637795
21
1.0135027559055119
0
LINE
8
BLACK
6
CONTINUOUS
10
0.8735168897637795
20
1.0135027559055119
11
0.8772834645669291
21
1.0142519685039371
0
LINE
8
BLACK
6
CONTINUOUS
10
0.8772834645669291
20
1.0142519685039371
11
0.9127165354330709
21
1.0142519685039371
0
LINE
8
BLACK
6
CONTINUOUS
10
0.9127165354330709
20
1.0142519685039371
11
0.9164831102362204
21
1.0135027559055119
0
LINE
8
BLACK
6
CONTINUOUS
10
1.6472075196850393
20
1.0337940944881889
11
1.6504006692913384
21
1.0316605118110236
0
LINE
8
BLACK
6
CONTINUOUS
10
1.6504006692913384
20
1.0316605118110236
11
1.652534251968504
21
1.0284673622047245
0
LINE
8
BLACK
6
CONTINUOUS
10
1.652534251968504
20
1.0284673622047245
11
1.6532834645669292
21
1.0247007874015748
0
LINE
8
BLACK
6
CONTINUOUS
10
1.6532834645669292
20
1.0247007874015748
11
1.6532834645669292
21
0.9872992125984251
0
LINE
8
BLACK
6
CONTINUOUS
10
1.6532834645669292
20
0.9872992125984251
11
1.652534251968504
21
0.9835326377952756
0
LINE
8
BLACK
6
CONTINUOUS
10
1.652534251968504
20
0.9835326377952756
11
1.6504006692913384
21
0.9803394881889763
0
LINE
8
BLACK
6
CONTINUOUS
10
1.6504006692913384
20
0.9803394881889763
11
1.6472075196850393
21
0.978205905511811
0
LINE
8
BLACK
6
CONTINUOUS
10
1.6472075196850393
20
0.978205905511811
11
1.6434409448818896
21
0.9774566929133858
0
LINE
8
BLACK
6
CONTINUOUS
10
1.6434409448818896
20
0.9774566929133858
11
1.6237559055118109
21
0.9774566929133858
0
LINE
8
BLACK
6
CONTINUOUS
10
1.6237559055118109
20
0.9774566929133858
11
1.6199893307086615
21
0.978205905511811
0
LINE
8
BLACK
6
CONTINUOUS
10
1.6199893307086615
20
0.978205905511811
11
1.6167961811023621
21
0.9803394881889763
0
LINE
8
BLACK
6
CONTINUOUS
10
1.6167961811023621
20
0.9803394881889763
11
1.6146625984251968
21
0.9835326377952756
0
LINE
8
BLACK
6
CONTINUOUS
10
1.6146625984251968
20
0.9835326377952756
11
1.6139133858267716
21
0.9872992125984251
0
LINE
8
BLACK
6
CONTINUOUS
10
1.6139133858267716
20
0.9872992125984251
11
1.6139133858267716
21
1.0247007874015748
0
LINE
8
BLACK
6
CONTINUOUS
10
1.6139133858267716
20
1.0247007874015748
11
1.6146625984251968
21
1.0284673622047245
0
LINE
8
BLACK
6
CONTINUOUS
10
1.6146625984251968
20
1.0284673622047245
11
1.6167961811023621
21
1.0316605118110236
0
LINE
8
BLACK
6
CONTINUOUS
10
1.6167961811023621
20
1.0316605118110236
11
1.6199893307086615
21
1.0337940944881889
0
LINE
8
BLACK
6
CONTINUOUS
10
1.6199893307086615
20
1.0337940944881889
11
1.6237559055118109
21
1.0345433070866141
0
LINE
8
BLACK
6
CONTINUOUS
10
1.6237559055118109
20
1.0345433070866141
11
1.6434409448818896
21
1.0345433070866141
0
LINE
8
BLACK
6
CONTINUOUS
10
1.6434409448818896
20
1.0345433070866141
11
1.6472075196850393
21
1.0337940944881889
0
LINE
8
BLACK
6
CONTINUOUS
10
1.7220106692913386
20
1.0337940944881889
11
1.7252038188976377
21
1.0316605118110236
0
LINE
8
BLACK
6
CONTINUOUS
10
1.7252038188976377
20
1.0316605118110236
11
1.7273374015748031
21
1.0284673622047245
0
LINE
8
BLACK
6
CONTINUOUS
10
1.7273374015748031
20
1.0284673622047245
11
1.7280866141732283
21
1.0247007874015748
0
LINE
8
BLACK
6
CONTINUOUS
10
1.7280866141732283
20
1.0247007874015748
11
1.7280866141732283
21
0.9872992125984251
0
LINE
8
BLACK
6
CONTINUOUS
10
1.7280866141732283
20
0.9872992125984251
11
1.7273374015748031
21
0.9835326377952756
0
LINE
8
BLACK
6
CONTINUOUS
10
1.7273374015748031
20
0.9835326377952756
11
1.7252038188976377
21
0.9803394881889763
0
LINE
8
BLACK
6
CONTINUOUS
10
1.7252038188976377
20
0.9803394881889763
11
1.7220106692913386
21
0.978205905511811
0
LINE
8
BLACK
6
CONTINUOUS
10
1.7220106692913386
20
0.978205905511811
11
1.7182440944881889
21
0.9774566929133858
0
LINE
8
BLACK
6
CONTINUOUS
10
1.7182440944881889
20
0.9774566929133858
11
1.6985590551181102
21
0.9774566929133858
0
LINE
8
BLACK
6
CONTINUOUS
10
1.6985590551181102
20
0.9774566929133858
11
1.6947924803149605
21
0.978205905511811
0
LINE
8
BLACK
6
CONTINUOUS
10
1.6947924803149605
20
0.978205905511811
11
1.6915993307086614
21
0.9803394881889763
0
LINE
8
BLACK
6
CONTINUOUS
10
1.6915993307086614
20
0.9803394881889763
11
1.6894657480314961
21
0.9835326377952756
0
LINE
8
BLACK
6
CONTINUOUS
10
1.6894657480314961
20
0.9835326377952756
11
1.6887165354330709
21
0.9872992125984251
0
LINE
8
BLACK
6
CONTINUOUS
10
1.6887165354330709
20
0.9872992125984251
11
1.6887165354330709
21
1.0247007874015748
0
LINE
8
BLACK
6
CONTINUOUS
10
1.6887165354330709
20
1.0247007874015748
11
1.6894657480314961
21
1.0284673622047245
0
LINE
8
BLACK
6
CONTINUOUS
10
1.6894657480314961
20
1.0284673622047245
11
1.6915993307086614
21
1.0316605118110236
0
LINE
8
BLACK
6
CONTINUOUS
10
1.6915993307086614
20
1.0316605118110236
11
1.6947924803149605
21
1.0337940944881889
0
LINE
8
BLACK
6
CONTINUOUS
10
1.6947924803149605
20
1.0337940944881889
11
1.6985590551181102
21
1.0345433070866141
0
LINE
8
BLACK
6
CONTINUOUS
10
1.6985590551181102
20
1.0345433070866141
11
1.7182440944881889
21
1.0345433070866141
0
LINE
8
BLACK
6
CONTINUOUS
10
1.7182440944881889
20
1.0345433070866141
11
1.7220106692913386
21
1.0337940944881889
0
LINE
8
BLACK
6
CONTINUOUS
10
0.9936536614173228
20
1.0037630708661418
11
0.9955695275590551
21
1.0024829133858268
0
LINE
8
BLACK
6
CONTINUOUS
10
0.9955695275590551
20
1.0024829133858268
11
0.9968496850393701
21
1.0005670472440944
0
LINE
8
BLACK
6
CONTINUOUS
10
0.9968496850393701
20
1.0005670472440944
11
0.9972992125984251
21
0.9983070866141732
0
LINE
8
BLACK
6
CONTINUOUS
10
0.9972992125984251
20
0.9983070866141732
11
0.9972992125984251
21
0.986496062992126
0
LINE
8
BLACK
6
CONTINUOUS
10
0.9972992125984251
20
0.986496062992126
11
0.9968496850393701
21
0.9842361023622047
0
LINE
8
BLACK
6
CONTINUOUS
10
0.9968496850393701
20
0.9842361023622047
11
0.9955695275590551
21
0.9823202362204724
0
LINE
8
BLACK
6
CONTINUOUS
10
0.9955695275590551
20
0.9823202362204724
11
0.9936536614173228
21
0.9810400787401574
0
LINE
8
BLACK
6
CONTINUOUS
10
0.9936536614173228
20
0.9810400787401574
11
0.9913937007874015
21
0.9805905511811024
0
LINE
8
BLACK
6
CONTINUOUS
10
0.9913937007874015
20
0.9805905511811024
11
0.9510393700787402
21
0.9805905511811024
0
LINE
8
BLACK
6
CONTINUOUS
10
0.9510393700787402
20
0.9805905511811024
11
0.9487794094488189
21
0.9810400787401574
0
LINE
8
BLACK
6
CONTINUOUS
10
0.9487794094488189
20
0.9810400787401574
11
0.9468635433070866
21
0.9823202362204724
0
LINE
8
BLACK
6
CONTINUOUS
10
0.9468635433070866
20
0.9823202362204724
11
0.9455833858267716
21
0.9842361023622047
0
LINE
8
BLACK
6
CONTINUOUS
10
0.9455833858267716
20
0.9842361023622047
11
0.9451338582677166
21
0.986496062992126
0
LINE
8
BLACK
6
CONTINUOUS
10
0.9451338582677166
20
0.986496062992126
11
0.9451338582677166
21
0.9983070866141732
0
LINE
8
BLACK
6
CONTINUOUS
10
0.9451338582677166
20
0.9983070866141732
11
0.9455833858267716
21
1.0005670472440944
0
LINE
8
BLACK
6
CONTINUOUS
10
0.9455833858267716
20
1.0005670472440944
11
0.9468635433070866
21
1.0024829133858268
0
LINE
8
BLACK
6
CONTINUOUS
10
0.9468635433070866
20
1.0024829133858268
11
0.9487794094488189
21
1.0037630708661418
0
LINE
8
BLACK
6
CONTINUOUS
10
0.9487794094488189
20
1.0037630708661418
11
0.9510393700787402
21
1.0042125984251968
0
LINE
8
BLACK
6
CONTINUOUS
10
0.9510393700787402
20
1.0042125984251968
11
0.9913937007874015
21
1.0042125984251968
0
LINE
8
BLACK
6
CONTINUOUS
10
0.9913937007874015
20
1.0042125984251968
11
0.9936536614173228
21
1.0037630708661418
0
LINE
8
BLACK
6
CONTINUOUS
10
1.0832205905511811
20
1.0037630708661418
11
1.0851364566929134
21
1.0024829133858268
0
LINE
8
BLACK
6
CONTINUOUS
10
1.0851364566929134
20
1.0024829133858268
11
1.0864166141732283
21
1.0005670472440944
0
LINE
8
BLACK
6
CONTINUOUS
10
1.0864166141732283
20
1.0005670472440944
11
1.0868661417322834
21
0.9983070866141732
0
LINE
8
BLACK
6
CONTINUOUS
10
1.0868661417322834
20
0.9983070866141732
11
1.0868661417322834
21
0.986496062992126
0
LINE
8
BLACK
6
CONTINUOUS
10
1.0868661417322834
20
0.986496062992126
11
1.0864166141732283
21
0.9842361023622047
0
LINE
8
BLACK
6
CONTINUOUS
10
1.0864166141732283
20
0.9842361023622047
11
1.0851364566929134
21
0.9823202362204724
0
LINE
8
BLACK
6
CONTINUOUS
10
1.0851364566929134
20
0.9823202362204724
11
1.0832205905511811
21
0.9810400787401574
0
LINE
8
BLACK
6
CONTINUOUS
10
1.0832205905511811
20
0.9810400787401574
11
1.0809606299212597
21
0.9805905511811024
0
LINE
8
BLACK
6
CONTINUOUS
10
1.0809606299212597
20
0.9805905511811024
11
1.0406062992125984
21
0.9805905511811024
0
LINE
8
BLACK
6
CONTINUOUS
10
1.0406062992125984
20
0.9805905511811024
11
1.0383463385826772
21
0.9810400787401574
0
LINE
8
BLACK
6
CONTINUOUS
10
1.0383463385826772
20
0.9810400787401574
11
1.0364304724409448
21
0.9823202362204724
0
LINE
8
BLACK
6
CONTINUOUS
10
1.0364304724409448
20
0.9823202362204724
11
1.0351503149606298
21
0.9842361023622047
0
LINE
8
BLACK
6
CONTINUOUS
10
1.0351503149606298
20
0.9842361023622047
11
1.0347007874015748
21
0.986496062992126
0
LINE
8
BLACK
6
CONTINUOUS
10
1.0347007874015748
20
0.986496062992126
11
1.0347007874015748
21
0.9983070866141732
0
LINE
8
BLACK
6
CONTINUOUS
10
1.0347007874015748
20
0.9983070866141732
11
1.0351503149606298
21
1.0005670472440944
0
LINE
8
BLACK
6
CONTINUOUS
10
1.0351503149606298
20
1.0005670472440944
11
1.0364304724409448
21
1.0024829133858268
0
LINE
8
BLACK
6
CONTINUOUS
10
1.0364304724409448
20
1.0024829133858268
11
1.0383463385826772
21
1.0037630708661418
0
LINE
8
BLACK
6
CONTINUOUS
10
1.0383463385826772
20
1.0037630708661418
11
1.0406062992125984
21
1.0042125984251968
0
LINE
8
BLACK
6
CONTINUOUS
10
1.0406062992125984
20
1.0042125984251968
11
1.0809606299212597
21
1.0042125984251968
0
LINE
8
BLACK
6
CONTINUOUS
10
1.0809606299212597
20
1.0042125984251968
11
1.0832205905511811
21
1.0037630708661418
0
LINE
8
BLACK
6
CONTINUOUS
10
1.8474673622047244
20
1.0365342519685039
11
1.8506605118110235
21
1.0344006692913386
0
LINE
8
BLACK
6
CONTINUOUS
10
1.8506605118110235
20
1.0344006692913386
11
1.8527940944881889
21
1.0312075196850394
0
LINE
8
BLACK
6
CONTINUOUS
10
1.8527940944881889
20
1.0312075196850394
11
1.8535433070866141
21
1.0274409448818898
0
LINE
8
BLACK
6
CONTINUOUS
10
1.8535433070866141
20
1.0274409448818898
11
1.8535433070866141
21
1.007755905511811
0
LINE
8
BLACK
6
CONTINUOUS
10
1.8535433070866141
20
1.007755905511811
11
1.8527940944881889
21
1.0039893307086614
0
LINE
8
BLACK
6
CONTINUOUS
10
1.8527940944881889
20
1.0039893307086614
11
1.8506605118110235
21
1.0007961811023622
0
LINE
8
BLACK
6
CONTINUOUS
10
1.8506605118110235
20
1.0007961811023622
11
1.8474673622047244
21
0.9986625984251968
0
LINE
8
BLACK
6
CONTINUOUS
10
1.8474673622047244
20
0.9986625984251968
11
1.8437007874015747
21
0.9979133858267716
0
LINE
8
BLACK
6
CONTINUOUS
10
1.8437007874015747
20
0.9979133858267716
11
1.8062992125984252
21
0.9979133858267716
0
LINE
8
BLACK
6
CONTINUOUS
10
1.8062992125984252
20
0.9979133858267716
11
1.8025326377952755
21
0.9986625984251968
0
LINE
8
BLACK
6
CONTINUOUS
10
1.8025326377952755
20
0.9986625984251968
11
1.7993394881889764
21
1.0007961811023622
0
LINE
8
BLACK
6
CONTINUOUS
10
1.7993394881889764
20
1.0007961811023622
11
1.797205905511811
21
1.0039893307086614
0
LINE
8
BLACK
6
CONTINUOUS
10
1.797205905511811
20
1.0039893307086614
11
1.7964566929133858
21
1.007755905511811
0
LINE
8
BLACK
6
CONTINUOUS
10
1.7964566929133858
20
1.007755905511811
11
1.7964566929133858
21
1.0274409448818898
0
LINE
8
BLACK
6
CONTINUOUS
10
1.7964566929133858
20
1.0274409448818898
11
1.797205905511811
21
1.0312075196850394
0
LINE
8
BLACK
6
CONTINUOUS
10
1.797205905511811
20
1.0312075196850394
11
1.7993394881889764
21
1.0344006692913386
0
LINE
8
BLACK
6
CONTINUOUS
10
1.7993394881889764
20
1.0344006692913386
11
1.8025326377952755
21
1.0365342519685039
0
LINE
8
BLACK
6
CONTINUOUS
10
1.8025326377952755
20
1.0365342519685039
11
1.8062992125984252
21
1.0372834645669291
0
LINE
8
BLACK
6
CONTINUOUS
10
1.8062992125984252
20
1.0372834645669291
11
1.8437007874015747
21
1.0372834645669291
0
LINE
8
BLACK
6
CONTINUOUS
10
1.8437007874015747
20
1.0372834645669291
11
1.8474673622047244
21
1.0365342519685039
0
LINE
8
BLACK
6
CONTINUOUS
10
1.9274673622047243
20
1.0365342519685039
11
1.9306605118110236
21
1.0344006692913386
0
LINE
8
BLACK
6
CONTINUOUS
10
1.9306605118110236
20
1.0344006692913386
11
1.932794094488189
21
1.0312075196850394
0
LINE
8
BLACK
6
CONTINUOUS
10
1.932794094488189
20
1.0312075196850394
11
1.9335433070866141
21
1.0274409448818898
0
LINE
8
BLACK
6
CONTINUOUS
10
1.9335433070866141
20
1.0274409448818898
11
1.9335433070866141
21
1.007755905511811
0
LINE
8
BLACK
6
CONTINUOUS
10
1.9335433070866141
20
1.007755905511811
11
1.932794094488189
21
1.0039893307086614
0
LINE
8
BLACK
6
CONTINUOUS
10
1.932794094488189
20
1.0039893307086614
11
1.9306605118110236
21
1.0007961811023622
0
LINE
8
BLACK
6
CONTINUOUS
10
1.9306605118110236
20
1.0007961811023622
11
1.9274673622047243
21
0.9986625984251968
0
LINE
8
BLACK
6
CONTINUOUS
10
1.9274673622047243
20
0.9986625984251968
11
1.9237007874015748
21
0.9979133858267716
0
LINE
8
BLACK
6
CONTINUOUS
10
1.9237007874015748
20
0.9979133858267716
11
1.8862992125984253
21
0.9979133858267716
0
LINE
8
BLACK
6
CONTINUOUS
10
1.8862992125984253
20
0.9979133858267716
11
1.8825326377952756
21
0.9986625984251968
0
LINE
8
BLACK
6
CONTINUOUS
10
1.8825326377952756
20
0.9986625984251968
11
1.8793394881889762
21
1.0007961811023622
0
LINE
8
BLACK
6
CONTINUOUS
10
1.8793394881889762
20
1.0007961811023622
11
1.8772059055118109
21
1.0039893307086614
0
LINE
8
BLACK
6
CONTINUOUS
10
1.8772059055118109
20
1.0039893307086614
11
1.8764566929133857
21
1.007755905511811
0
LINE
8
BLACK
6
CONTINUOUS
10
1.8764566929133857
20
1.007755905511811
11
1.8764566929133857
21
1.0274409448818898
0
LINE
8
BLACK
6
CONTINUOUS
10
1.8764566929133857
20
1.0274409448818898
11
1.8772059055118109
21
1.0312075196850394
0
LINE
8
BLACK
6
CONTINUOUS
10
1.8772059055118109
20
1.0312075196850394
11
1.8793394881889762
21
1.0344006692913386
0
LINE
8
BLACK
6
CONTINUOUS
10
1.8793394881889762
20
1.0344006692913386
11
1.8825326377952756
21
1.0365342519685039
0
LINE
8
BLACK
6
CONTINUOUS
10
1.8825326377952756
20
1.0365342519685039
11
1.8862992125984253
21
1.0372834645669291
0
LINE
8
BLACK
6
CONTINUOUS
10
1.8862992125984253
20
1.0372834645669291
11
1.9237007874015748
21
1.0372834645669291
0
LINE
8
BLACK
6
CONTINUOUS
10
1.9237007874015748
20
1.0372834645669291
11
1.9274673622047243
21
1.0365342519685039
0
LINE
8
BLACK
6
CONTINUOUS
10
1.0422075196850393
20
1.0987940944881889
11
1.0454006692913385
21
1.0966605118110235
0
LINE
8
BLACK
6
CONTINUOUS
10
1.0454006692913385
20
1.0966605118110235
11
1.0475342519685038
21
1.0934673622047244
0
LINE
8
BLACK
6
CONTINUOUS
10
1.0475342519685038
20
1.0934673622047244
11
1.048283464566929
21
1.0897007874015747
0
LINE
8
BLACK
6
CONTINUOUS
10
1.048283464566929
20
1.0897007874015747
11
1.048283464566929
21
1.0522992125984252
0
LINE
8
BLACK
6
CONTINUOUS
10
1.048283464566929
20
1.0522992125984252
11
1.0475342519685038
21
1.0485326377952755
0
LINE
8
BLACK
6
CONTINUOUS
10
1.0475342519685038
20
1.0485326377952755
11
1.0454006692913385
21
1.0453394881889764
0
LINE
8
BLACK
6
CONTINUOUS
10
1.0454006692913385
20
1.0453394881889764
11
1.0422075196850393
21
1.043205905511811
0
LINE
8
BLACK
6
CONTINUOUS
10
1.0422075196850393
20
1.043205905511811
11
1.0384409448818896
21
1.0424566929133858
0
LINE
8
BLACK
6
CONTINUOUS
10
1.0384409448818896
20
1.0424566929133858
11
1.0187559055118109
21
1.0424566929133858
0
LINE
8
BLACK
6
CONTINUOUS
10
1.0187559055118109
20
1.0424566929133858
11
1.0149893307086615
21
1.043205905511811
0
LINE
8
BLACK
6
CONTINUOUS
10
1.0149893307086615
20
1.043205905511811
11
1.0117961811023621
21
1.0453394881889764
0
LINE
8
BLACK
6
CONTINUOUS
10
1.0117961811023621
20
1.0453394881889764
11
1.0096625984251968
21
1.0485326377952755
0
LINE
8
BLACK
6
CONTINUOUS
10
1.0096625984251968
20
1.0485326377952755
11
1.0089133858267716
21
1.0522992125984252
0
LINE
8
BLACK
6
CONTINUOUS
10
1.0089133858267716
20
1.0522992125984252
11
1.0089133858267716
21
1.0897007874015747
0
LINE
8
BLACK
6
CONTINUOUS
10
1.0089133858267716
20
1.0897007874015747
11
1.0096625984251968
21
1.0934673622047244
0
LINE
8
BLACK
6
CONTINUOUS
10
1.0096625984251968
20
1.0934673622047244
11
1.0117961811023621
21
1.0966605118110235
0
LINE
8
BLACK
6
CONTINUOUS
10
1.0117961811023621
20
1.0966605118110235
11
1.0149893307086615
21
1.0987940944881889
0
LINE
8
BLACK
6
CONTINUOUS
10
1.0149893307086615
20
1.0987940944881889
11
1.0187559055118109
21
1.0995433070866141
0
LINE
8
BLACK
6
CONTINUOUS
10
1.0187559055118109
20
1.0995433070866141
11
1.0384409448818896
21
1.0995433070866141
0
LINE
8
BLACK
6
CONTINUOUS
10
1.0384409448818896
20
1.0995433070866141
11
1.0422075196850393
21
1.0987940944881889
0
LINE
8
BLACK
6
CONTINUOUS
10
1.1170106692913386
20
1.0987940944881889
11
1.1202038188976378
21
1.0966605118110235
0
LINE
8
BLACK
6
CONTINUOUS
10
1.1202038188976378
20
1.0966605118110235
11
1.1223374015748031
21
1.0934673622047244
0
LINE
8
BLACK
6
CONTINUOUS
10
1.1223374015748031
20
1.0934673622047244
11
1.1230866141732283
21
1.0897007874015747
0
LINE
8
BLACK
6
CONTINUOUS
10
1.1230866141732283
20
1.0897007874015747
11
1.1230866141732283
21
1.0522992125984252
0
LINE
8
BLACK
6
CONTINUOUS
10
1.1230866141732283
20
1.0522992125984252
11
1.1223374015748031
21
1.0485326377952755
0
LINE
8
BLACK
6
CONTINUOUS
10
1.1223374015748031
20
1.0485326377952755
11
1.1202038188976378
21
1.0453394881889764
0
LINE
8
BLACK
6
CONTINUOUS
10
1.1202038188976378
20
1.0453394881889764
11
1.1170106692913386
21
1.043205905511811
0
LINE
8
BLACK
6
CONTINUOUS
10
1.1170106692913386
20
1.043205905511811
11
1.113244094488189
21
1.0424566929133858
0
LINE
8
BLACK
6
CONTINUOUS
10
1.113244094488189
20
1.0424566929133858
11
1.0935590551181102
21
1.0424566929133858
0
LINE
8
BLACK
6
CONTINUOUS
10
1.0935590551181102
20
1.0424566929133858
11
1.0897924803149606
21
1.043205905511811
0
LINE
8
BLACK
6
CONTINUOUS
10
1.0897924803149606
20
1.043205905511811
11
1.0865993307086614
21
1.0453394881889764
0
LINE
8
BLACK
6
CONTINUOUS
10
1.0865993307086614
20
1.0453394881889764
11
1.0844657480314961
21
1.0485326377952755
0
LINE
8
BLACK
6
CONTINUOUS
10
1.0844657480314961
20
1.0485326377952755
11
1.0837165354330709
21
1.0522992125984252
0
LINE
8
BLACK
6
CONTINUOUS
10
1.0837165354330709
20
1.0522992125984252
11
1.0837165354330709
21
1.0897007874015747
0
LINE
8
BLACK
6
CONTINUOUS
10
1.0837165354330709
20
1.0897007874015747
11
1.0844657480314961
21
1.0934673622047244
0
LINE
8
BLACK
6
CONTINUOUS
10
1.0844657480314961
20
1.0934673622047244
11
1.0865993307086614
21
1.0966605118110235
0
LINE
8
BLACK
6
CONTINUOUS
10
1.0865993307086614
20
1.0966605118110235
11
1.0897924803149606
21
1.0987940944881889
0
LINE
8
BLACK
6
CONTINUOUS
10
1.0897924803149606
20
1.0987940944881889
11
1.0935590551181102
21
1.0995433070866141
0
LINE
8
BLACK
6
CONTINUOUS
10
1.0935590551181102
20
1.0995433070866141
11
1.113244094488189
21
1.0995433070866141
0
LINE
8
BLACK
6
CONTINUOUS
10
1.113244094488189
20
1.0995433070866141
11
1.1170106692913386
21
1.0987940944881889
0
LINE
8
BLACK
6
CONTINUOUS
10
0.7937007874015748
20
1.0433070866141732
11
0.7543307086614173
21
1.0433070866141732
0
LINE
8
BLACK
6
CONTINUOUS
10
0.7543307086614173
20
1.0433070866141732
11
0.7543307086614173
21
1.1929133858267715
0
LINE
8
BLACK
6
CONTINUOUS
10
0.7543307086614173
20
1.1929133858267715
11
0.7937007874015748
21
1.1929133858267715
0
LINE
8
BLACK
6
CONTINUOUS
10
0.7937007874015748
20
1.1929133858267715
11
0.7937007874015748
21
1.0433070866141732
0
LINE
8
BLACK
6
CONTINUOUS
10
2.0456692913385828
20
1.0433070866141732
11
2.0062992125984254
21
1.0433070866141732
0
LINE
8
BLACK
6
CONTINUOUS
10
2.0062992125984254
20
1.0433070866141732
11
2.0062992125984254
21
1.1929133858267715
0
LINE
8
BLACK
6
CONTINUOUS
10
2.0062992125984254
20
1.1929133858267715
11
2.0456692913385828
21
1.1929133858267715
0
LINE
8
BLACK
6
CONTINUOUS
10
2.0456692913385828
20
1.1929133858267715
11
2.0456692913385828
21
1.0433070866141732
0
LINE
8
BLACK
6
CONTINUOUS
10
0.9164831102362204
20
1.0853531496062991
11
0.9196762598425197
21
1.0832195669291338
0
LINE
8
BLACK
6
CONTINUOUS
10
0.9196762598425197
20
1.0832195669291338
11
0.921809842519685
21
1.0800264173228347
0
LINE
8
BLACK
6
CONTINUOUS
10
0.921809842519685
20
1.0800264173228347
11
0.9225590551181102
21
1.076259842519685
0
LINE
8
BLACK
6
CONTINUOUS
10
0.9225590551181102
20
1.076259842519685
11
0.9225590551181102
21
1.0555905511811023
0
LINE
8
BLACK
6
CONTINUOUS
10
0.9225590551181102
20
1.0555905511811023
11
0.921809842519685
21
1.0518239763779527
0
LINE
8
BLACK
6
CONTINUOUS
10
0.921809842519685
20
1.0518239763779527
11
0.9196762598425197
21
1.0486308267716535
0
LINE
8
BLACK
6
CONTINUOUS
10
0.9196762598425197
20
1.0486308267716535
11
0.9164831102362204
21
1.0464972440944882
0
LINE
8
BLACK
6
CONTINUOUS
10
0.9164831102362204
20
1.0464972440944882
11
0.9127165354330709
21
1.045748031496063
0
LINE
8
BLACK
6
CONTINUOUS
10
0.9127165354330709
20
1.045748031496063
11
0.8772834645669291
21
1.045748031496063
0
LINE
8
BLACK
6
CONTINUOUS
10
0.8772834645669291
20
1.045748031496063
11
0.8735168897637795
21
1.0464972440944882
0
LINE
8
BLACK
6
CONTINUOUS
10
0.8735168897637795
20
1.0464972440944882
11
0.8703237401574803
21
1.0486308267716535
0
LINE
8
BLACK
6
CONTINUOUS
10
0.8703237401574803
20
1.0486308267716535
11
0.8681901574803149
21
1.0518239763779527
0
LINE
8
BLACK
6
CONTINUOUS
10
0.8681901574803149
20
1.0518239763779527
11
0.8674409448818897
21
1.0555905511811023
0
LINE
8
BLACK
6
CONTINUOUS
10
0.8674409448818897
20
1.0555905511811023
11
0.8674409448818897
21
1.076259842519685
0
LINE
8
BLACK
6
CONTINUOUS
10
0.8674409448818897
20
1.076259842519685
11
0.8681901574803149
21
1.0800264173228347
0
LINE
8
BLACK
6
CONTINUOUS
10
0.8681901574803149
20
1.0800264173228347
11
0.8703237401574803
21
1.0832195669291338
0
LINE
8
BLACK
6
CONTINUOUS
10
0.8703237401574803
20
1.0832195669291338
11
0.8735168897637795
21
1.0853531496062991
0
LINE
8
BLACK
6
CONTINUOUS
10
0.8735168897637795
20
1.0853531496062991
11
0.8772834645669291
21
1.0861023622047243
0
LINE
8
BLACK
6
CONTINUOUS
10
0.8772834645669291
20
1.0861023622047243
11
0.9127165354330709
21
1.0861023622047243
0
LINE
8
BLACK
6
CONTINUOUS
10
0.9127165354330709
20
1.0861023622047243
11
0.9164831102362204
21
1.0853531496062991
0
LINE
8
BLACK
6
CONTINUOUS
10
1.8474673622047244
20
1.1113374015748032
11
1.8506605118110235
21
1.1092038188976379
0
LINE
8
BLACK
6
CONTINUOUS
10
1.8506605118110235
20
1.1092038188976379
11
1.8527940944881889
21
1.1060106692913385
0
LINE
8
BLACK
6
CONTINUOUS
10
1.8527940944881889
20
1.1060106692913385
11
1.8535433070866141
21
1.1022440944881891
0
LINE
8
BLACK
6
CONTINUOUS
10
1.8535433070866141
20
1.1022440944881891
11
1.8535433070866141
21
1.0825590551181101
0
LINE
8
BLACK
6
CONTINUOUS
10
1.8535433070866141
20
1.0825590551181101
11
1.8527940944881889
21
1.0787924803149607
0
LINE
8
BLACK
6
CONTINUOUS
10
1.8527940944881889
20
1.0787924803149607
11
1.8506605118110235
21
1.0755993307086613
0
LINE
8
BLACK
6
CONTINUOUS
10
1.8506605118110235
20
1.0755993307086613
11
1.8474673622047244
21
1.073465748031496
0
LINE
8
BLACK
6
CONTINUOUS
10
1.8474673622047244
20
1.073465748031496
11
1.8437007874015747
21
1.0727165354330708
0
LINE
8
BLACK
6
CONTINUOUS
10
1.8437007874015747
20
1.0727165354330708
11
1.8062992125984252
21
1.0727165354330708
0
LINE
8
BLACK
6
CONTINUOUS
10
1.8062992125984252
20
1.0727165354330708
11
1.8025326377952755
21
1.073465748031496
0
LINE
8
BLACK
6
CONTINUOUS
10
1.8025326377952755
20
1.073465748031496
11
1.7993394881889764
21
1.0755993307086613
0
LINE
8
BLACK
6
CONTINUOUS
10
1.7993394881889764
20
1.0755993307086613
11
1.797205905511811
21
1.0787924803149607
0
LINE
8
BLACK
6
CONTINUOUS
10
1.797205905511811
20
1.0787924803149607
11
1.7964566929133858
21
1.0825590551181101
0
LINE
8
BLACK
6
CONTINUOUS
10
1.7964566929133858
20
1.0825590551181101
11
1.7964566929133858
21
1.1022440944881891
0
LINE
8
BLACK
6
CONTINUOUS
10
1.7964566929133858
20
1.1022440944881891
11
1.797205905511811
21
1.1060106692913385
0
LINE
8
BLACK
6
CONTINUOUS
10
1.797205905511811
20
1.1060106692913385
11
1.7993394881889764
21
1.1092038188976379
0
LINE
8
BLACK
6
CONTINUOUS
10
1.7993394881889764
20
1.1092038188976379
11
1.8025326377952755
21
1.1113374015748032
0
LINE
8
BLACK
6
CONTINUOUS
10
1.8025326377952755
20
1.1113374015748032
11
1.8062992125984252
21
1.1120866141732284
0
LINE
8
BLACK
6
CONTINUOUS
10
1.8062992125984252
20
1.1120866141732284
11
1.8437007874015747
21
1.1120866141732284
0
LINE
8
BLACK
6
CONTINUOUS
10
1.8437007874015747
20
1.1120866141732284
11
1.8474673622047244
21
1.1113374015748032
0
LINE
8
BLACK
6
CONTINUOUS
10
1.9274673622047243
20
1.1113374015748032
11
1.9306605118110236
21
1.1092038188976379
0
LINE
8
BLACK
6
CONTINUOUS
10
1.9306605118110236
20
1.1092038188976379
11
1.932794094488189
21
1.1060106692913385
0
LINE
8
BLACK
6
CONTINUOUS
10
1.932794094488189
20
1.1060106692913385
11
1.9335433070866141
21
1.1022440944881891
0
LINE
8
BLACK
6
CONTINUOUS
10
1.9335433070866141
20
1.1022440944881891
11
1.9335433070866141
21
1.0825590551181101
0
LINE
8
BLACK
6
CONTINUOUS
10
1.9335433070866141
20
1.0825590551181101
11
1.932794094488189
21
1.0787924803149607
0
LINE
8
BLACK
6
CONTINUOUS
10
1.932794094488189
20
1.0787924803149607
11
1.9306605118110236
21
1.0755993307086613
0
LINE
8
BLACK
6
CONTINUOUS
10
1.9306605118110236
20
1.0755993307086613
11
1.9274673622047243
21
1.073465748031496
0
LINE
8
BLACK
6
CONTINUOUS
10
1.9274673622047243
20
1.073465748031496
11
1.9237007874015748
21
1.0727165354330708
0
LINE
8
BLACK
6
CONTINUOUS
10
1.9237007874015748
20
1.0727165354330708
11
1.8862992125984253
21
1.0727165354330708
0
LINE
8
BLACK
6
CONTINUOUS
10
1.8862992125984253
20
1.0727165354330708
11
1.8825326377952756
21
1.073465748031496
0
LINE
8
BLACK
6
CONTINUOUS
10
1.8825326377952756
20
1.073465748031496
11
1.8793394881889762
21
1.0755993307086613
0
LINE
8
BLACK
6
CONTINUOUS
10
1.8793394881889762
20
1.0755993307086613
11
1.8772059055118109
21
1.0787924803149607
0
LINE
8
BLACK
6
CONTINUOUS
10
1.8772059055118109
20
1.0787924803149607
11
1.8764566929133857
21
1.0825590551181101
0
LINE
8
BLACK
6
CONTINUOUS
10
1.8764566929133857
20
1.0825590551181101
11
1.8764566929133857
21
1.1022440944881891
0
LINE
8
BLACK
6
CONTINUOUS
10
1.8764566929133857
20
1.1022440944881891
11
1.8772059055118109
21
1.1060106692913385
0
LINE
8
BLACK
6
CONTINUOUS
10
1.8772059055118109
20
1.1060106692913385
11
1.8793394881889762
21
1.1092038188976379
0
LINE
8
BLACK
6
CONTINUOUS
10
1.8793394881889762
20
1.1092038188976379
11
1.8825326377952756
21
1.1113374015748032
0
LINE
8
BLACK
6
CONTINUOUS
10
1.8825326377952756
20
1.1113374015748032
11
1.8862992125984253
21
1.1120866141732284
0
LINE
8
BLACK
6
CONTINUOUS
10
1.8862992125984253
20
1.1120866141732284
11
1.9237007874015748
21
1.1120866141732284
0
LINE
8
BLACK
6
CONTINUOUS
10
1.9237007874015748
20
1.1120866141732284
11
1.9274673622047243
21
1.1113374015748032
0
LINE
8
BLACK
6
CONTINUOUS
10
1.5716923228346455
20
1.0872574409448819
11
1.5728099212598425
21
1.0865107086614172
0
LINE
8
BLACK
6
CONTINUOUS
10
1.5728099212598425
20
1.0865107086614172
11
1.573556653543307
21
1.0853931102362204
0
LINE
8
BLACK
6
CONTINUOUS
10
1.573556653543307
20
1.0853931102362204
11
1.5738188976377951
21
1.0840748031496064
0
LINE
8
BLACK
6
CONTINUOUS
10
1.5738188976377951
20
1.0840748031496064
11
1.5738188976377951
21
1.0771850393700788
0
LINE
8
BLACK
6
CONTINUOUS
10
1.5738188976377951
20
1.0771850393700788
11
1.573556653543307
21
1.0758667322834645
0
LINE
8
BLACK
6
CONTINUOUS
10
1.573556653543307
20
1.0758667322834645
11
1.5728099212598425
21
1.0747491338582678
0
LINE
8
BLACK
6
CONTINUOUS
10
1.5728099212598425
20
1.0747491338582678
11
1.5716923228346455
21
1.0740024015748031
0
LINE
8
BLACK
6
CONTINUOUS
10
1.5716923228346455
20
1.0740024015748031
11
1.5703740157480315
21
1.0737401574803149
0
LINE
8
BLACK
6
CONTINUOUS
10
1.5703740157480315
20
1.0737401574803149
11
1.513287401574803
21
1.0737401574803149
0
LINE
8
BLACK
6
CONTINUOUS
10
1.513287401574803
20
1.0737401574803149
11
1.5119690944881889
21
1.0740024015748031
0
LINE
8
BLACK
6
CONTINUOUS
10
1.5119690944881889
20
1.0740024015748031
11
1.5108514960629922
21
1.0747491338582678
0
LINE
8
BLACK
6
CONTINUOUS
10
1.5108514960629922
20
1.0747491338582678
11
1.5101047637795275
21
1.0758667322834645
0
LINE
8
BLACK
6
CONTINUOUS
10
1.5101047637795275
20
1.0758667322834645
11
1.5098425196850394
21
1.0771850393700788
0
LINE
8
BLACK
6
CONTINUOUS
10
1.5098425196850394
20
1.0771850393700788
11
1.5098425196850394
21
1.0840748031496064
0
LINE
8
BLACK
6
CONTINUOUS
10
1.5098425196850394
20
1.0840748031496064
11
1.5101047637795275
21
1.0853931102362204
0
LINE
8
BLACK
6
CONTINUOUS
10
1.5101047637795275
20
1.0853931102362204
11
1.5108514960629922
21
1.0865107086614172
0
LINE
8
BLACK
6
CONTINUOUS
10
1.5108514960629922
20
1.0865107086614172
11
1.5119690944881889
21
1.0872574409448819
0
LINE
8
BLACK
6
CONTINUOUS
10
1.5119690944881889
20
1.0872574409448819
11
1.513287401574803
21
1.08751968503937
0
LINE
8
BLACK
6
CONTINUOUS
10
1.513287401574803
20
1.08751968503937
11
1.5703740157480315
21
1.08751968503937
0
LINE
8
BLACK
6
CONTINUOUS
10
1.5703740157480315
20
1.08751968503937
11
1.5716923228346455
21
1.0872574409448819
0
LINE
8
BLACK
6
CONTINUOUS
10
1.7380309055118111
20
1.0872574409448819
11
1.7391485039370078
21
1.0865107086614172
0
LINE
8
BLACK
6
CONTINUOUS
10
1.7391485039370078
20
1.0865107086614172
11
1.7398952362204725
21
1.0853931102362204
0
LINE
8
BLACK
6
CONTINUOUS
10
1.7398952362204725
20
1.0853931102362204
11
1.7401574803149606
21
1.0840748031496064
0
LINE
8
BLACK
6
CONTINUOUS
10
1.7401574803149606
20
1.0840748031496064
11
1.7401574803149606
21
1.0771850393700788
0
LINE
8
BLACK
6
CONTINUOUS
10
1.7401574803149606
20
1.0771850393700788
11
1.7398952362204725
21
1.0758667322834645
0
LINE
8
BLACK
6
CONTINUOUS
10
1.7398952362204725
20
1.0758667322834645
11
1.7391485039370078
21
1.0747491338582678
0
LINE
8
BLACK
6
CONTINUOUS
10
1.7391485039370078
20
1.0747491338582678
11
1.7380309055118111
21
1.0740024015748031
0
LINE
8
BLACK
6
CONTINUOUS
10
1.7380309055118111
20
1.0740024015748031
11
1.7367125984251968
21
1.0737401574803149
0
LINE
8
BLACK
6
CONTINUOUS
10
1.7367125984251968
20
1.0737401574803149
11
1.6796259842519685
21
1.0737401574803149
0
LINE
8
BLACK
6
CONTINUOUS
10
1.6796259842519685
20
1.0737401574803149
11
1.6783076771653542
21
1.0740024015748031
0
LINE
8
BLACK
6
CONTINUOUS
10
1.6783076771653542
20
1.0740024015748031
11
1.6771900787401575
21
1.0747491338582678
0
LINE
8
BLACK
6
CONTINUOUS
10
1.6771900787401575
20
1.0747491338582678
11
1.6764433464566928
21
1.0758667322834645
0
LINE
8
BLACK
6
CONTINUOUS
10
1.6764433464566928
20
1.0758667322834645
11
1.6761811023622046
21
1.0771850393700788
0
LINE
8
BLACK
6
CONTINUOUS
10
1.6761811023622046
20
1.0771850393700788
11
1.6761811023622046
21
1.0840748031496064
0
LINE
8
BLACK
6
CONTINUOUS
10
1.6761811023622046
20
1.0840748031496064
11
1.6764433464566928
21
1.0853931102362204
0
LINE
8
BLACK
6
CONTINUOUS
10
1.6764433464566928
20
1.0853931102362204
11
1.6771900787401575
21
1.0865107086614172
0
LINE
8
BLACK
6
CONTINUOUS
10
1.6771900787401575
20
1.0865107086614172
11
1.6783076771653542
21
1.0872574409448819
0
LINE
8
BLACK
6
CONTINUOUS
10
1.6783076771653542
20
1.0872574409448819
11
1.6796259842519685
21
1.08751968503937
0
LINE
8
BLACK
6
CONTINUOUS
10
1.6796259842519685
20
1.08751968503937
11
1.7367125984251968
21
1.08751968503937
0
LINE
8
BLACK
6
CONTINUOUS
10
1.7367125984251968
20
1.08751968503937
11
1.7380309055118111
21
1.0872574409448819
0
LINE
8
BLACK
6
CONTINUOUS
10
1.4574673622047243
20
1.1215342519685039
11
1.4606605118110236
21
1.1194006692913385
0
LINE
8
BLACK
6
CONTINUOUS
10
1.4606605118110236
20
1.1194006692913385
11
1.462794094488189
21
1.1162075196850394
0
LINE
8
BLACK
6
CONTINUOUS
10
1.462794094488189
20
1.1162075196850394
11
1.4635433070866142
21
1.1124409448818897
0
LINE
8
BLACK
6
CONTINUOUS
10
1.4635433070866142
20
1.1124409448818897
11
1.4635433070866142
21
1.092755905511811
0
LINE
8
BLACK
6
CONTINUOUS
10
1.4635433070866142
20
1.092755905511811
11
1.462794094488189
21
1.0889893307086613
0
LINE
8
BLACK
6
CONTINUOUS
10
1.462794094488189
20
1.0889893307086613
11
1.4606605118110236
21
1.0857961811023622
0
LINE
8
BLACK
6
CONTINUOUS
10
1.4606605118110236
20
1.0857961811023622
11
1.4574673622047243
21
1.0836625984251969
0
LINE
8
BLACK
6
CONTINUOUS
10
1.4574673622047243
20
1.0836625984251969
11
1.4537007874015748
21
1.0829133858267717
0
LINE
8
BLACK
6
CONTINUOUS
10
1.4537007874015748
20
1.0829133858267717
11
1.4162992125984251
21
1.0829133858267717
0
LINE
8
BLACK
6
CONTINUOUS
10
1.4162992125984251
20
1.0829133858267717
11
1.4125326377952756
21
1.0836625984251969
0
LINE
8
BLACK
6
CONTINUOUS
10
1.4125326377952756
20
1.0836625984251969
11
1.4093394881889763
21
1.0857961811023622
0
LINE
8
BLACK
6
CONTINUOUS
10
1.4093394881889763
20
1.0857961811023622
11
1.4072059055118109
21
1.0889893307086613
0
LINE
8
BLACK
6
CONTINUOUS
10
1.4072059055118109
20
1.0889893307086613
11
1.4064566929133857
21
1.092755905511811
0
LINE
8
BLACK
6
CONTINUOUS
10
1.4064566929133857
20
1.092755905511811
11
1.4064566929133857
21
1.1124409448818897
0
LINE
8
BLACK
6
CONTINUOUS
10
1.4064566929133857
20
1.1124409448818897
11
1.4072059055118109
21
1.1162075196850394
0
LINE
8
BLACK
6
CONTINUOUS
10
1.4072059055118109
20
1.1162075196850394
11
1.4093394881889763
21
1.1194006692913385
0
LINE
8
BLACK
6
CONTINUOUS
10
1.4093394881889763
20
1.1194006692913385
11
1.4125326377952756
21
1.1215342519685039
0
LINE
8
BLACK
6
CONTINUOUS
10
1.4125326377952756
20
1.1215342519685039
11
1.4162992125984251
21
1.1222834645669291
0
LINE
8
BLACK
6
CONTINUOUS
10
1.4162992125984251
20
1.1222834645669291
11
1.4537007874015748
21
1.1222834645669291
0
LINE
8
BLACK
6
CONTINUOUS
10
1.4537007874015748
20
1.1222834645669291
11
1.4574673622047243
21
1.1215342519685039
0
LINE
8
BLACK
6
CONTINUOUS
10
1.5716923228346455
20
1.1069425196850393
11
1.5728099212598425
21
1.1061957874015749
0
LINE
8
BLACK
6
CONTINUOUS
10
1.5728099212598425
20
1.1061957874015749
11
1.573556653543307
21
1.1050781889763779
0
LINE
8
BLACK
6
CONTINUOUS
10
1.573556653543307
20
1.1050781889763779
11
1.5738188976377951
21
1.1037598818897638
0
LINE
8
BLACK
6
CONTINUOUS
10
1.5738188976377951
20
1.1037598818897638
11
1.5738188976377951
21
1.0968701181102363
0
LINE
8
BLACK
6
CONTINUOUS
10
1.5738188976377951
20
1.0968701181102363
11
1.573556653543307
21
1.095551811023622
0
LINE
8
BLACK
6
CONTINUOUS
10
1.573556653543307
20
1.095551811023622
11
1.5728099212598425
21
1.0944342125984252
0
LINE
8
BLACK
6
CONTINUOUS
10
1.5728099212598425
20
1.0944342125984252
11
1.5716923228346455
21
1.0936874803149605
0
LINE
8
BLACK
6
CONTINUOUS
10
1.5716923228346455
20
1.0936874803149605
11
1.5703740157480315
21
1.0934252362204724
0
LINE
8
BLACK
6
CONTINUOUS
10
1.5703740157480315
20
1.0934252362204724
11
1.513287401574803
21
1.0934252362204724
0
LINE
8
BLACK
6
CONTINUOUS
10
1.513287401574803
20
1.0934252362204724
11
1.5119690944881889
21
1.0936874803149605
0
LINE
8
BLACK
6
CONTINUOUS
10
1.5119690944881889
20
1.0936874803149605
11
1.5108514960629922
21
1.0944342125984252
0
LINE
8
BLACK
6
CONTINUOUS
10
1.5108514960629922
20
1.0944342125984252
11
1.5101047637795275
21
1.095551811023622
0
LINE
8
BLACK
6
CONTINUOUS
10
1.5101047637795275
20
1.095551811023622
11
1.5098425196850394
21
1.0968701181102363
0
LINE
8
BLACK
6
CONTINUOUS
10
1.5098425196850394
20
1.0968701181102363
11
1.5098425196850394
21
1.1037598818897638
0
LINE
8
BLACK
6
CONTINUOUS
10
1.5098425196850394
20
1.1037598818897638
11
1.5101047637795275
21
1.1050781889763779
0
LINE
8
BLACK
6
CONTINUOUS
10
1.5101047637795275
20
1.1050781889763779
11
1.5108514960629922
21
1.1061957874015749
0
LINE
8
BLACK
6
CONTINUOUS
10
1.5108514960629922
20
1.1061957874015749
11
1.5119690944881889
21
1.1069425196850393
0
LINE
8
BLACK
6
CONTINUOUS
10
1.5119690944881889
20
1.1069425196850393
11
1.513287401574803
21
1.1072047637795275
0
LINE
8
BLACK
6
CONTINUOUS
10
1.513287401574803
20
1.1072047637795275
11
1.5703740157480315
21
1.1072047637795275
0
LINE
8
BLACK
6
CONTINUOUS
10
1.5703740157480315
20
1.1072047637795275
11
1.5716923228346455
21
1.1069425196850393
0
LINE
8
BLACK
6
CONTINUOUS
10
1.7380309055118111
20
1.1069425196850393
11
1.7391485039370078
21
1.1061957874015749
0
LINE
8
BLACK
6
CONTINUOUS
10
1.7391485039370078
20
1.1061957874015749
11
1.7398952362204725
21
1.1050781889763779
0
LINE
8
BLACK
6
CONTINUOUS
10
1.7398952362204725
20
1.1050781889763779
11
1.7401574803149606
21
1.1037598818897638
0
LINE
8
BLACK
6
CONTINUOUS
10
1.7401574803149606
20
1.1037598818897638
11
1.7401574803149606
21
1.0968701181102363
0
LINE
8
BLACK
6
CONTINUOUS
10
1.7401574803149606
20
1.0968701181102363
11
1.7398952362204725
21
1.095551811023622
0
LINE
8
BLACK
6
CONTINUOUS
10
1.7398952362204725
20
1.095551811023622
11
1.7391485039370078
21
1.0944342125984252
0
LINE
8
BLACK
6
CONTINUOUS
10
1.7391485039370078
20
1.0944342125984252
11
1.7380309055118111
21
1.0936874803149605
0
LINE
8
BLACK
6
CONTINUOUS
10
1.7380309055118111
20
1.0936874803149605
11
1.7367125984251968
21
1.0934252362204724
0
LINE
8
BLACK
6
CONTINUOUS
10
1.7367125984251968
20
1.0934252362204724
11
1.6796259842519685
21
1.0934252362204724
0
LINE
8
BLACK
6
CONTINUOUS
10
1.6796259842519685
20
1.0934252362204724
11
1.6783076771653542
21
1.0936874803149605
0
LINE
8
BLACK
6
CONTINUOUS
10
1.6783076771653542
20
1.0936874803149605
11
1.6771900787401575
21
1.0944342125984252
0
LINE
8
BLACK
6
CONTINUOUS
10
1.6771900787401575
20
1.0944342125984252
11
1.6764433464566928
21
1.095551811023622
0
LINE
8
BLACK
6
CONTINUOUS
10
1.6764433464566928
20
1.095551811023622
11
1.6761811023622046
21
1.0968701181102363
0
LINE
8
BLACK
6
CONTINUOUS
10
1.6761811023622046
20
1.0968701181102363
11
1.6761811023622046
21
1.1037598818897638
0
LINE
8
BLACK
6
CONTINUOUS
10
1.6761811023622046
20
1.1037598818897638
11
1.6764433464566928
21
1.1050781889763779
0
LINE
8
BLACK
6
CONTINUOUS
10
1.6764433464566928
20
1.1050781889763779
11
1.6771900787401575
21
1.1061957874015749
0
LINE
8
BLACK
6
CONTINUOUS
10
1.6771900787401575
20
1.1061957874015749
11
1.6783076771653542
21
1.1069425196850393
0
LINE
8
BLACK
6
CONTINUOUS
10
1.6783076771653542
20
1.1069425196850393
11
1.6796259842519685
21
1.1072047637795275
0
LINE
8
BLACK
6
CONTINUOUS
10
1.6796259842519685
20
1.1072047637795275
11
1.7367125984251968
21
1.1072047637795275
0
LINE
8
BLACK
6
CONTINUOUS
10
1.7367125984251968
20
1.1072047637795275
11
1.7380309055118111
21
1.1069425196850393
0
LINE
8
BLACK
6
CONTINUOUS
10
1.3622993307086615
20
1.1239599212598426
11
1.3642151968503937
21
1.1226797637795276
0
LINE
8
BLACK
6
CONTINUOUS
10
1.3642151968503937
20
1.1226797637795276
11
1.3654953543307087
21
1.1207638976377952
0
LINE
8
BLACK
6
CONTINUOUS
10
1.3654953543307087
20
1.1207638976377952
11
1.3659448818897637
21
1.118503937007874
0
LINE
8
BLACK
6
CONTINUOUS
10
1.3659448818897637
20
1.118503937007874
11
1.3659448818897637
21
1.1066929133858268
0
LINE
8
BLACK
6
CONTINUOUS
10
1.3659448818897637
20
1.1066929133858268
11
1.3654953543307087
21
1.1044329527559056
0
LINE
8
BLACK
6
CONTINUOUS
10
1.3654953543307087
20
1.1044329527559056
11
1.3642151968503937
21
1.1025170866141731
0
LINE
8
BLACK
6
CONTINUOUS
10
1.3642151968503937
20
1.1025170866141731
11
1.3622993307086615
21
1.1012369291338582
0
LINE
8
BLACK
6
CONTINUOUS
10
1.3622993307086615
20
1.1012369291338582
11
1.3600393700787401
21
1.1007874015748031
0
LINE
8
BLACK
6
CONTINUOUS
10
1.3600393700787401
20
1.1007874015748031
11
1.3137795275590551
21
1.1007874015748031
0
LINE
8
BLACK
6
CONTINUOUS
10
1.3137795275590551
20
1.1007874015748031
11
1.3115195669291337
21
1.1012369291338582
0
LINE
8
BLACK
6
CONTINUOUS
10
1.3115195669291337
20
1.1012369291338582
11
1.3096037007874015
21
1.1025170866141731
0
LINE
8
BLACK
6
CONTINUOUS
10
1.3096037007874015
20
1.1025170866141731
11
1.3083235433070866
21
1.1044329527559056
0
LINE
8
BLACK
6
CONTINUOUS
10
1.3083235433070866
20
1.1044329527559056
11
1.3078740157480315
21
1.1066929133858268
0
LINE
8
BLACK
6
CONTINUOUS
10
1.3078740157480315
20
1.1066929133858268
11
1.3078740157480315
21
1.118503937007874
0
LINE
8
BLACK
6
CONTINUOUS
10
1.3078740157480315
20
1.118503937007874
11
1.3083235433070866
21
1.1207638976377952
0
LINE
8
BLACK
6
CONTINUOUS
10
1.3083235433070866
20
1.1207638976377952
11
1.3096037007874015
21
1.1226797637795276
0
LINE
8
BLACK
6
CONTINUOUS
10
1.3096037007874015
20
1.1226797637795276
11
1.3115195669291337
21
1.1239599212598426
0
LINE
8
BLACK
6
CONTINUOUS
10
1.3115195669291337
20
1.1239599212598426
11
1.3137795275590551
21
1.1244094488188976
0
LINE
8
BLACK
6
CONTINUOUS
10
1.3137795275590551
20
1.1244094488188976
11
1.3600393700787401
21
1.1244094488188976
0
LINE
8
BLACK
6
CONTINUOUS
10
1.3600393700787401
20
1.1244094488188976
11
1.3622993307086615
21
1.1239599212598426
0
LINE
8
BLACK
6
CONTINUOUS
10
1.5716923228346455
20
1.1266275196850393
11
1.5728099212598425
21
1.1258807874015748
0
LINE
8
BLACK
6
CONTINUOUS
10
1.5728099212598425
20
1.1258807874015748
11
1.573556653543307
21
1.1247631889763778
0
LINE
8
BLACK
6
CONTINUOUS
10
1.573556653543307
20
1.1247631889763778
11
1.5738188976377951
21
1.1234448818897638
0
LINE
8
BLACK
6
CONTINUOUS
10
1.5738188976377951
20
1.1234448818897638
11
1.5738188976377951
21
1.1165551181102362
0
LINE
8
BLACK
6
CONTINUOUS
10
1.5738188976377951
20
1.1165551181102362
11
1.573556653543307
21
1.1152368110236219
0
LINE
8
BLACK
6
CONTINUOUS
10
1.573556653543307
20
1.1152368110236219
11
1.5728099212598425
21
1.1141192125984252
0
LINE
8
BLACK
6
CONTINUOUS
10
1.5728099212598425
20
1.1141192125984252
11
1.5716923228346455
21
1.1133724803149605
0
LINE
8
BLACK
6
CONTINUOUS
10
1.5716923228346455
20
1.1133724803149605
11
1.5703740157480315
21
1.1131102362204723
0
LINE
8
BLACK
6
CONTINUOUS
10
1.5703740157480315
20
1.1131102362204723
11
1.513287401574803
21
1.1131102362204723
0
LINE
8
BLACK
6
CONTINUOUS
10
1.513287401574803
20
1.1131102362204723
11
1.5119690944881889
21
1.1133724803149605
0
LINE
8
BLACK
6
CONTINUOUS
10
1.5119690944881889
20
1.1133724803149605
11
1.5108514960629922
21
1.1141192125984252
0
LINE
8
BLACK
6
CONTINUOUS
10
1.5108514960629922
20
1.1141192125984252
11
1.5101047637795275
21
1.1152368110236219
0
LINE
8
BLACK
6
CONTINUOUS
10
1.5101047637795275
20
1.1152368110236219
11
1.5098425196850394
21
1.1165551181102362
0
LINE
8
BLACK
6
CONTINUOUS
10
1.5098425196850394
20
1.1165551181102362
11
1.5098425196850394
21
1.1234448818897638
0
LINE
8
BLACK
6
CONTINUOUS
10
1.5098425196850394
20
1.1234448818897638
11
1.5101047637795275
21
1.1247631889763778
0
LINE
8
BLACK
6
CONTINUOUS
10
1.5101047637795275
20
1.1247631889763778
11
1.5108514960629922
21
1.1258807874015748
0
LINE
8
BLACK
6
CONTINUOUS
10
1.5108514960629922
20
1.1258807874015748
11
1.5119690944881889
21
1.1266275196850393
0
LINE
8
BLACK
6
CONTINUOUS
10
1.5119690944881889
20
1.1266275196850393
11
1.513287401574803
21
1.1268897637795274
0
LINE
8
BLACK
6
CONTINUOUS
10
1.513287401574803
20
1.1268897637795274
11
1.5703740157480315
21
1.1268897637795274
0
LINE
8
BLACK
6
CONTINUOUS
10
1.5703740157480315
20
1.1268897637795274
11
1.5716923228346455
21
1.1266275196850393
0
LINE
8
BLACK
6
CONTINUOUS
10
1.7380309055118111
20
1.1266275196850393
11
1.7391485039370078
21
1.1258807874015748
0
LINE
8
BLACK
6
CONTINUOUS
10
1.7391485039370078
20
1.1258807874015748
11
1.7398952362204725
21
1.1247631889763778
0
LINE
8
BLACK
6
CONTINUOUS
10
1.7398952362204725
20
1.1247631889763778
11
1.7401574803149606
21
1.1234448818897638
0
LINE
8
BLACK
6
CONTINUOUS
10
1.7401574803149606
20
1.1234448818897638
11
1.7401574803149606
21
1.1165551181102362
0
LINE
8
BLACK
6
CONTINUOUS
10
1.7401574803149606
20
1.1165551181102362
11
1.7398952362204725
21
1.1152368110236219
0
LINE
8
BLACK
6
CONTINUOUS
10
1.7398952362204725
20
1.1152368110236219
11
1.7391485039370078
21
1.1141192125984252
0
LINE
8
BLACK
6
CONTINUOUS
10
1.7391485039370078
20
1.1141192125984252
11
1.7380309055118111
21
1.1133724803149605
0
LINE
8
BLACK
6
CONTINUOUS
10
1.7380309055118111
20
1.1133724803149605
11
1.7367125984251968
21
1.1131102362204723
0
LINE
8
BLACK
6
CONTINUOUS
10
1.7367125984251968
20
1.1131102362204723
11
1.6796259842519685
21
1.1131102362204723
0
LINE
8
BLACK
6
CONTINUOUS
10
1.6796259842519685
20
1.1131102362204723
11
1.6783076771653542
21
1.1133724803149605
0
LINE
8
BLACK
6
CONTINUOUS
10
1.6783076771653542
20
1.1133724803149605
11
1.6771900787401575
21
1.1141192125984252
0
LINE
8
BLACK
6
CONTINUOUS
10
1.6771900787401575
20
1.1141192125984252
11
1.6764433464566928
21
1.1152368110236219
0
LINE
8
BLACK
6
CONTINUOUS
10
1.6764433464566928
20
1.1152368110236219
11
1.6761811023622046
21
1.1165551181102362
0
LINE
8
BLACK
6
CONTINUOUS
10
1.6761811023622046
20
1.1165551181102362
11
1.6761811023622046
21
1.1234448818897638
0
LINE
8
BLACK
6
CONTINUOUS
10
1.6761811023622046
20
1.1234448818897638
11
1.6764433464566928
21
1.1247631889763778
0
LINE
8
BLACK
6
CONTINUOUS
10
1.6764433464566928
20
1.1247631889763778
11
1.6771900787401575
21
1.1258807874015748
0
LINE
8
BLACK
6
CONTINUOUS
10
1.6771900787401575
20
1.1258807874015748
11
1.6783076771653542
21
1.1266275196850393
0
LINE
8
BLACK
6
CONTINUOUS
10
1.6783076771653542
20
1.1266275196850393
11
1.6796259842519685
21
1.1268897637795274
0
LINE
8
BLACK
6
CONTINUOUS
10
1.6796259842519685
20
1.1268897637795274
11
1.7367125984251968
21
1.1268897637795274
0
LINE
8
BLACK
6
CONTINUOUS
10
1.7367125984251968
20
1.1268897637795274
11
1.7380309055118111
21
1.1266275196850393
0
LINE
8
BLACK
6
CONTINUOUS
10
1.0441760236220472
20
1.179809842519685
11
1.0473691732283463
21
1.1776762598425197
0
LINE
8
BLACK
6
CONTINUOUS
10
1.0473691732283463
20
1.1776762598425197
11
1.0495027559055119
21
1.1744831102362205
0
LINE
8
BLACK
6
CONTINUOUS
10
1.0495027559055119
20
1.1744831102362205
11
1.0502519685039371
21
1.1707165354330709
0
LINE
8
BLACK
6
CONTINUOUS
10
1.0502519685039371
20
1.1707165354330709
11
1.0502519685039371
21
1.1352834645669292
0
LINE
8
BLACK
6
CONTINUOUS
10
1.0502519685039371
20
1.1352834645669292
11
1.0495027559055119
21
1.1315168897637795
0
LINE
8
BLACK
6
CONTINUOUS
10
1.0495027559055119
20
1.1315168897637795
11
1.0473691732283463
21
1.1283237401574804
0
LINE
8
BLACK
6
CONTINUOUS
10
1.0473691732283463
20
1.1283237401574804
11
1.0441760236220472
21
1.126190157480315
0
LINE
8
BLACK
6
CONTINUOUS
10
1.0441760236220472
20
1.126190157480315
11
1.0404094488188975
21
1.1254409448818898
0
LINE
8
BLACK
6
CONTINUOUS
10
1.0404094488188975
20
1.1254409448818898
11
1.0197401574803149
21
1.1254409448818898
0
LINE
8
BLACK
6
CONTINUOUS
10
1.0197401574803149
20
1.1254409448818898
11
1.0159735826771654
21
1.126190157480315
0
LINE
8
BLACK
6
CONTINUOUS
10
1.0159735826771654
20
1.126190157480315
11
1.0127804330708661
21
1.1283237401574804
0
LINE
8
BLACK
6
CONTINUOUS
10
1.0127804330708661
20
1.1283237401574804
11
1.0106468503937007
21
1.1315168897637795
0
LINE
8
BLACK
6
CONTINUOUS
10
1.0106468503937007
20
1.1315168897637795
11
1.0098976377952755
21
1.1352834645669292
0
LINE
8
BLACK
6
CONTINUOUS
10
1.0098976377952755
20
1.1352834645669292
11
1.0098976377952755
21
1.1707165354330709
0
LINE
8
BLACK
6
CONTINUOUS
10
1.0098976377952755
20
1.1707165354330709
11
1.0106468503937007
21
1.1744831102362205
0
LINE
8
BLACK
6
CONTINUOUS
10
1.0106468503937007
20
1.1744831102362205
11
1.0127804330708661
21
1.1776762598425197
0
LINE
8
BLACK
6
CONTINUOUS
10
1.0127804330708661
20
1.1776762598425197
11
1.0159735826771654
21
1.179809842519685
0
LINE
8
BLACK
6
CONTINUOUS
10
1.0159735826771654
20
1.179809842519685
11
1.0197401574803149
21
1.1805590551181102
0
LINE
8
BLACK
6
CONTINUOUS
10
1.0197401574803149
20
1.1805590551181102
11
1.0404094488188975
21
1.1805590551181102
0
LINE
8
BLACK
6
CONTINUOUS
10
1.0404094488188975
20
1.1805590551181102
11
1.0441760236220472
21
1.179809842519685
0
LINE
8
BLACK
6
CONTINUOUS
10
1.1160264173228347
20
1.179809842519685
11
1.1192195669291338
21
1.1776762598425197
0
LINE
8
BLACK
6
CONTINUOUS
10
1.1192195669291338
20
1.1776762598425197
11
1.1213531496062992
21
1.1744831102362205
0
LINE
8
BLACK
6
CONTINUOUS
10
1.1213531496062992
20
1.1744831102362205
11
1.1221023622047244
21
1.1707165354330709
0
LINE
8
BLACK
6
CONTINUOUS
10
1.1221023622047244
20
1.1707165354330709
11
1.1221023622047244
21
1.1352834645669292
0
LINE
8
BLACK
6
CONTINUOUS
10
1.1221023622047244
20
1.1352834645669292
11
1.1213531496062992
21
1.1315168897637795
0
LINE
8
BLACK
6
CONTINUOUS
10
1.1213531496062992
20
1.1315168897637795
11
1.1192195669291338
21
1.1283237401574804
0
LINE
8
BLACK
6
CONTINUOUS
10
1.1192195669291338
20
1.1283237401574804
11
1.1160264173228347
21
1.126190157480315
0
LINE
8
BLACK
6
CONTINUOUS
10
1.1160264173228347
20
1.126190157480315
11
1.112259842519685
21
1.1254409448818898
0
LINE
8
BLACK
6
CONTINUOUS
10
1.112259842519685
20
1.1254409448818898
11
1.0915905511811024
21
1.1254409448818898
0
LINE
8
BLACK
6
CONTINUOUS
10
1.0915905511811024
20
1.1254409448818898
11
1.0878239763779527
21
1.126190157480315
0
LINE
8
BLACK
6
CONTINUOUS
10
1.0878239763779527
20
1.126190157480315
11
1.0846308267716536
21
1.1283237401574804
0
LINE
8
BLACK
6
CONTINUOUS
10
1.0846308267716536
20
1.1283237401574804
11
1.0824972440944882
21
1.1315168897637795
0
LINE
8
BLACK
6
CONTINUOUS
10
1.0824972440944882
20
1.1315168897637795
11
1.081748031496063
21
1.1352834645669292
0
LINE
8
BLACK
6
CONTINUOUS
10
1.081748031496063
20
1.1352834645669292
11
1.081748031496063
21
1.1707165354330709
0
LINE
8
BLACK
6
CONTINUOUS
10
1.081748031496063
20
1.1707165354330709
11
1.0824972440944882
21
1.1744831102362205
0
LINE
8
BLACK
6
CONTINUOUS
10
1.0824972440944882
20
1.1744831102362205
11
1.0846308267716536
21
1.1776762598425197
0
LINE
8
BLACK
6
CONTINUOUS
10
1.0846308267716536
20
1.1776762598425197
11
1.0878239763779527
21
1.179809842519685
0
LINE
8
BLACK
6
CONTINUOUS
10
1.0878239763779527
20
1.179809842519685
11
1.0915905511811024
21
1.1805590551181102
0
LINE
8
BLACK
6
CONTINUOUS
10
1.0915905511811024
20
1.1805590551181102
11
1.112259842519685
21
1.1805590551181102
0
LINE
8
BLACK
6
CONTINUOUS
10
1.112259842519685
20
1.1805590551181102
11
1.1160264173228347
21
1.179809842519685
0
LINE
8
BLACK
6
CONTINUOUS
10
2.1281760236220473
20
1.1868098425196849
11
2.1313691732283466
21
1.1846762598425196
0
LINE
8
BLACK
6
CONTINUOUS
10
2.1313691732283466
20
1.1846762598425196
11
2.133502755905512
21
1.1814831102362204
0
LINE
8
BLACK
6
CONTINUOUS
10
2.133502755905512
20
1.1814831102362204
11
2.1342519685039369
21
1.1777165354330708
0
LINE
8
BLACK
6
CONTINUOUS
10
2.1342519685039369
20
1.1777165354330708
11
2.1342519685039369
21
1.1422834645669291
0
LINE
8
BLACK
6
CONTINUOUS
10
2.1342519685039369
20
1.1422834645669291
11
2.133502755905512
21
1.1385168897637794
0
LINE
8
BLACK
6
CONTINUOUS
10
2.133502755905512
20
1.1385168897637794
11
2.1313691732283466
21
1.1353237401574803
0
LINE
8
BLACK
6
CONTINUOUS
10
2.1313691732283466
20
1.1353237401574803
11
2.1281760236220473
21
1.1331901574803149
0
LINE
8
BLACK
6
CONTINUOUS
10
2.1281760236220473
20
1.1331901574803149
11
2.1244094488188976
21
1.1324409448818897
0
LINE
8
BLACK
6
CONTINUOUS
10
2.1244094488188976
20
1.1324409448818897
11
2.1037401574803147
21
1.1324409448818897
0
LINE
8
BLACK
6
CONTINUOUS
10
2.1037401574803147
20
1.1324409448818897
11
2.0999735826771655
21
1.1331901574803149
0
LINE
8
BLACK
6
CONTINUOUS
10
2.0999735826771655
20
1.1331901574803149
11
2.0967804330708661
21
1.1353237401574803
0
LINE
8
BLACK
6
CONTINUOUS
10
2.0967804330708661
20
1.1353237401574803
11
2.0946468503937008
21
1.1385168897637794
0
LINE
8
BLACK
6
CONTINUOUS
10
2.0946468503937008
20
1.1385168897637794
11
2.0938976377952754
21
1.1422834645669291
0
LINE
8
BLACK
6
CONTINUOUS
10
2.0938976377952754
20
1.1422834645669291
11
2.0938976377952754
21
1.1777165354330708
0
LINE
8
BLACK
6
CONTINUOUS
10
2.0938976377952754
20
1.1777165354330708
11
2.0946468503937008
21
1.1814831102362204
0
LINE
8
BLACK
6
CONTINUOUS
10
2.0946468503937008
20
1.1814831102362204
11
2.0967804330708661
21
1.1846762598425196
0
LINE
8
BLACK
6
CONTINUOUS
10
2.0967804330708661
20
1.1846762598425196
11
2.0999735826771655
21
1.1868098425196849
0
LINE
8
BLACK
6
CONTINUOUS
10
2.0999735826771655
20
1.1868098425196849
11
2.1037401574803147
21
1.1875590551181101
0
LINE
8
BLACK
6
CONTINUOUS
10
2.1037401574803147
20
1.1875590551181101
11
2.1244094488188976
21
1.1875590551181101
0
LINE
8
BLACK
6
CONTINUOUS
10
2.1244094488188976
20
1.1875590551181101
11
2.1281760236220473
21
1.1868098425196849
0
LINE
8
BLACK
6
CONTINUOUS
10
2.2000264173228348
20
1.1868098425196849
11
2.2032195669291337
21
1.1846762598425196
0
LINE
8
BLACK
6
CONTINUOUS
10
2.2032195669291337
20
1.1846762598425196
11
2.205353149606299
21
1.1814831102362204
0
LINE
8
BLACK
6
CONTINUOUS
10
2.205353149606299
20
1.1814831102362204
11
2.2061023622047244
21
1.1777165354330708
0
LINE
8
BLACK
6
CONTINUOUS
10
2.2061023622047244
20
1.1777165354330708
11
2.2061023622047244
21
1.1422834645669291
0
LINE
8
BLACK
6
CONTINUOUS
10
2.2061023622047244
20
1.1422834645669291
11
2.205353149606299
21
1.1385168897637794
0
LINE
8
BLACK
6
CONTINUOUS
10
2.205353149606299
20
1.1385168897637794
11
2.2032195669291337
21
1.1353237401574803
0
LINE
8
BLACK
6
CONTINUOUS
10
2.2032195669291337
20
1.1353237401574803
11
2.2000264173228348
21
1.1331901574803149
0
LINE
8
BLACK
6
CONTINUOUS
10
2.2000264173228348
20
1.1331901574803149
11
2.1962598425196851
21
1.1324409448818897
0
LINE
8
BLACK
6
CONTINUOUS
10
2.1962598425196851
20
1.1324409448818897
11
2.1755905511811022
21
1.1324409448818897
0
LINE
8
BLACK
6
CONTINUOUS
10
2.1755905511811022
20
1.1324409448818897
11
2.1718239763779525
21
1.1331901574803149
0
LINE
8
BLACK
6
CONTINUOUS
10
2.1718239763779525
20
1.1331901574803149
11
2.1686308267716536
21
1.1353237401574803
0
LINE
8
BLACK
6
CONTINUOUS
10
2.1686308267716536
20
1.1353237401574803
11
2.1664972440944883
21
1.1385168897637794
0
LINE
8
BLACK
6
CONTINUOUS
10
2.1664972440944883
20
1.1385168897637794
11
2.1657480314960629
21
1.1422834645669291
0
LINE
8
BLACK
6
CONTINUOUS
10
2.1657480314960629
20
1.1422834645669291
11
2.1657480314960629
21
1.1777165354330708
0
LINE
8
BLACK
6
CONTINUOUS
10
2.1657480314960629
20
1.1777165354330708
11
2.1664972440944883
21
1.1814831102362204
0
LINE
8
BLACK
6
CONTINUOUS
10
2.1664972440944883
20
1.1814831102362204
11
2.1686308267716536
21
1.1846762598425196
0
LINE
8
BLACK
6
CONTINUOUS
10
2.1686308267716536
20
1.1846762598425196
11
2.1718239763779525
21
1.1868098425196849
0
LINE
8
BLACK
6
CONTINUOUS
10
2.1718239763779525
20
1.1868098425196849
11
2.1755905511811022
21
1.1875590551181101
0
LINE
8
BLACK
6
CONTINUOUS
10
2.1755905511811022
20
1.1875590551181101
11
2.1962598425196851
21
1.1875590551181101
0
LINE
8
BLACK
6
CONTINUOUS
10
2.1962598425196851
20
1.1875590551181101
11
2.2000264173228348
21
1.1868098425196849
0
LINE
8
BLACK
6
CONTINUOUS
10
1.5716923228346455
20
1.1463125196850394
11
1.5728099212598425
21
1.1455657874015748
0
LINE
8
BLACK
6
CONTINUOUS
10
1.5728099212598425
20
1.1455657874015748
11
1.573556653543307
21
1.144448188976378
0
LINE
8
BLACK
6
CONTINUOUS
10
1.573556653543307
20
1.144448188976378
11
1.5738188976377951
21
1.1431298818897637
0
LINE
8
BLACK
6
CONTINUOUS
10
1.5738188976377951
20
1.1431298818897637
11
1.5738188976377951
21
1.1362401181102362
0
LINE
8
BLACK
6
CONTINUOUS
10
1.5738188976377951
20
1.1362401181102362
11
1.573556653543307
21
1.1349218110236221
0
LINE
8
BLACK
6
CONTINUOUS
10
1.573556653543307
20
1.1349218110236221
11
1.5728099212598425
21
1.1338042125984251
0
LINE
8
BLACK
6
CONTINUOUS
10
1.5728099212598425
20
1.1338042125984251
11
1.5716923228346455
21
1.1330574803149607
0
LINE
8
BLACK
6
CONTINUOUS
10
1.5716923228346455
20
1.1330574803149607
11
1.5703740157480315
21
1.1327952362204725
0
LINE
8
BLACK
6
CONTINUOUS
10
1.5703740157480315
20
1.1327952362204725
11
1.513287401574803
21
1.1327952362204725
0
LINE
8
BLACK
6
CONTINUOUS
10
1.513287401574803
20
1.1327952362204725
11
1.5119690944881889
21
1.1330574803149607
0
LINE
8
BLACK
6
CONTINUOUS
10
1.5119690944881889
20
1.1330574803149607
11
1.5108514960629922
21
1.1338042125984251
0
LINE
8
BLACK
6
CONTINUOUS
10
1.5108514960629922
20
1.1338042125984251
11
1.5101047637795275
21
1.1349218110236221
0
LINE
8
BLACK
6
CONTINUOUS
10
1.5101047637795275
20
1.1349218110236221
11
1.5098425196850394
21
1.1362401181102362
0
LINE
8
BLACK
6
CONTINUOUS
10
1.5098425196850394
20
1.1362401181102362
11
1.5098425196850394
21
1.1431298818897637
0
LINE
8
BLACK
6
CONTINUOUS
10
1.5098425196850394
20
1.1431298818897637
11
1.5101047637795275
21
1.144448188976378
0
LINE
8
BLACK
6
CONTINUOUS
10
1.5101047637795275
20
1.144448188976378
11
1.5108514960629922
21
1.1455657874015748
0
LINE
8
BLACK
6
CONTINUOUS
10
1.5108514960629922
20
1.1455657874015748
11
1.5119690944881889
21
1.1463125196850394
0
LINE
8
BLACK
6
CONTINUOUS
10
1.5119690944881889
20
1.1463125196850394
11
1.513287401574803
21
1.1465747637795276
0
LINE
8
BLACK
6
CONTINUOUS
10
1.513287401574803
20
1.1465747637795276
11
1.5703740157480315
21
1.1465747637795276
0
LINE
8
BLACK
6
CONTINUOUS
10
1.5703740157480315
20
1.1465747637795276
11
1.5716923228346455
21
1.1463125196850394
0
LINE
8
BLACK
6
CONTINUOUS
10
1.7380309055118111
20
1.1463125196850394
11
1.7391485039370078
21
1.1455657874015748
0
LINE
8
BLACK
6
CONTINUOUS
10
1.7391485039370078
20
1.1455657874015748
11
1.7398952362204725
21
1.144448188976378
0
LINE
8
BLACK
6
CONTINUOUS
10
1.7398952362204725
20
1.144448188976378
11
1.7401574803149606
21
1.1431298818897637
0
LINE
8
BLACK
6
CONTINUOUS
10
1.7401574803149606
20
1.1431298818897637
11
1.7401574803149606
21
1.1362401181102362
0
LINE
8
BLACK
6
CONTINUOUS
10
1.7401574803149606
20
1.1362401181102362
11
1.7398952362204725
21
1.1349218110236221
0
LINE
8
BLACK
6
CONTINUOUS
10
1.7398952362204725
20
1.1349218110236221
11
1.7391485039370078
21
1.1338042125984251
0
LINE
8
BLACK
6
CONTINUOUS
10
1.7391485039370078
20
1.1338042125984251
11
1.7380309055118111
21
1.1330574803149607
0
LINE
8
BLACK
6
CONTINUOUS
10
1.7380309055118111
20
1.1330574803149607
11
1.7367125984251968
21
1.1327952362204725
0
LINE
8
BLACK
6
CONTINUOUS
10
1.7367125984251968
20
1.1327952362204725
11
1.6796259842519685
21
1.1327952362204725
0
LINE
8
BLACK
6
CONTINUOUS
10
1.6796259842519685
20
1.1327952362204725
11
1.6783076771653542
21
1.1330574803149607
0
LINE
8
BLACK
6
CONTINUOUS
10
1.6783076771653542
20
1.1330574803149607
11
1.6771900787401575
21
1.1338042125984251
0
LINE
8
BLACK
6
CONTINUOUS
10
1.6771900787401575
20
1.1338042125984251
11
1.6764433464566928
21
1.1349218110236221
0
LINE
8
BLACK
6
CONTINUOUS
10
1.6764433464566928
20
1.1349218110236221
11
1.6761811023622046
21
1.1362401181102362
0
LINE
8
BLACK
6
CONTINUOUS
10
1.6761811023622046
20
1.1362401181102362
11
1.6761811023622046
21
1.1431298818897637
0
LINE
8
BLACK
6
CONTINUOUS
10
1.6761811023622046
20
1.1431298818897637
11
1.6764433464566928
21
1.144448188976378
0
LINE
8
BLACK
6
CONTINUOUS
10
1.6764433464566928
20
1.144448188976378
11
1.6771900787401575
21
1.1455657874015748
0
LINE
8
BLACK
6
CONTINUOUS
10
1.6771900787401575
20
1.1455657874015748
11
1.6783076771653542
21
1.1463125196850394
0
LINE
8
BLACK
6
CONTINUOUS
10
1.6783076771653542
20
1.1463125196850394
11
1.6796259842519685
21
1.1465747637795276
0
LINE
8
BLACK
6
CONTINUOUS
10
1.6796259842519685
20
1.1465747637795276
11
1.7367125984251968
21
1.1465747637795276
0
LINE
8
BLACK
6
CONTINUOUS
10
1.7367125984251968
20
1.1465747637795276
11
1.7380309055118111
21
1.1463125196850394
0
LINE
8
BLACK
6
CONTINUOUS
10
1.2884804330708661
20
1.1613614960629921
11
1.2903962992125984
21
1.1600813385826771
0
LINE
8
BLACK
6
CONTINUOUS
10
1.2903962992125984
20
1.1600813385826771
11
1.2916764566929133
21
1.1581654724409449
0
LINE
8
BLACK
6
CONTINUOUS
10
1.2916764566929133
20
1.1581654724409449
11
1.2921259842519686
21
1.1559055118110235
0
LINE
8
BLACK
6
CONTINUOUS
10
1.2921259842519686
20
1.1559055118110235
11
1.2921259842519686
21
1.1440944881889763
0
LINE
8
BLACK
6
CONTINUOUS
10
1.2921259842519686
20
1.1440944881889763
11
1.2916764566929133
21
1.1418345275590551
0
LINE
8
BLACK
6
CONTINUOUS
10
1.2916764566929133
20
1.1418345275590551
11
1.2903962992125984
21
1.1399186614173229
0
LINE
8
BLACK
6
CONTINUOUS
10
1.2903962992125984
20
1.1399186614173229
11
1.2884804330708661
21
1.1386385039370079
0
LINE
8
BLACK
6
CONTINUOUS
10
1.2884804330708661
20
1.1386385039370079
11
1.286220472440945
21
1.1381889763779527
0
LINE
8
BLACK
6
CONTINUOUS
10
1.286220472440945
20
1.1381889763779527
11
1.2399606299212598
21
1.1381889763779527
0
LINE
8
BLACK
6
CONTINUOUS
10
1.2399606299212598
20
1.1381889763779527
11
1.2377006692913386
21
1.1386385039370079
0
LINE
8
BLACK
6
CONTINUOUS
10
1.2377006692913386
20
1.1386385039370079
11
1.2357848031496064
21
1.1399186614173229
0
LINE
8
BLACK
6
CONTINUOUS
10
1.2357848031496064
20
1.1399186614173229
11
1.2345046456692914
21
1.1418345275590551
0
LINE
8
BLACK
6
CONTINUOUS
10
1.2345046456692914
20
1.1418345275590551
11
1.2340551181102362
21
1.1440944881889763
0
LINE
8
BLACK
6
CONTINUOUS
10
1.2340551181102362
20
1.1440944881889763
11
1.2340551181102362
21
1.1559055118110235
0
LINE
8
BLACK
6
CONTINUOUS
10
1.2340551181102362
20
1.1559055118110235
11
1.2345046456692914
21
1.1581654724409449
0
LINE
8
BLACK
6
CONTINUOUS
10
1.2345046456692914
20
1.1581654724409449
11
1.2357848031496064
21
1.1600813385826771
0
LINE
8
BLACK
6
CONTINUOUS
10
1.2357848031496064
20
1.1600813385826771
11
1.2377006692913386
21
1.1613614960629921
0
LINE
8
BLACK
6
CONTINUOUS
10
1.2377006692913386
20
1.1613614960629921
11
1.2399606299212598
21
1.1618110236220471
0
LINE
8
BLACK
6
CONTINUOUS
10
1.2399606299212598
20
1.1618110236220471
11
1.286220472440945
21
1.1618110236220471
0
LINE
8
BLACK
6
CONTINUOUS
10
1.286220472440945
20
1.1618110236220471
11
1.2884804330708661
21
1.1613614960629921
0
LINE
8
BLACK
6
CONTINUOUS
10
1.5716923228346455
20
1.1659975984251969
11
1.5728099212598425
21
1.1652508661417322
0
LINE
8
BLACK
6
CONTINUOUS
10
1.5728099212598425
20
1.1652508661417322
11
1.573556653543307
21
1.1641332677165355
0
LINE
8
BLACK
6
CONTINUOUS
10
1.573556653543307
20
1.1641332677165355
11
1.5738188976377951
21
1.1628149606299212
0
LINE
8
BLACK
6
CONTINUOUS
10
1.5738188976377951
20
1.1628149606299212
11
1.5738188976377951
21
1.1559251968503936
0
LINE
8
BLACK
6
CONTINUOUS
10
1.5738188976377951
20
1.1559251968503936
11
1.573556653543307
21
1.1546068897637796
0
LINE
8
BLACK
6
CONTINUOUS
10
1.573556653543307
20
1.1546068897637796
11
1.5728099212598425
21
1.1534892913385826
0
LINE
8
BLACK
6
CONTINUOUS
10
1.5728099212598425
20
1.1534892913385826
11
1.5716923228346455
21
1.1527425590551181
0
LINE
8
BLACK
6
CONTINUOUS
10
1.5716923228346455
20
1.1527425590551181
11
1.5703740157480315
21
1.15248031496063
0
LINE
8
BLACK
6
CONTINUOUS
10
1.5703740157480315
20
1.15248031496063
11
1.513287401574803
21
1.15248031496063
0
LINE
8
BLACK
6
CONTINUOUS
10
1.513287401574803
20
1.15248031496063
11
1.5119690944881889
21
1.1527425590551181
0
LINE
8
BLACK
6
CONTINUOUS
10
1.5119690944881889
20
1.1527425590551181
11
1.5108514960629922
21
1.1534892913385826
0
LINE
8
BLACK
6
CONTINUOUS
10
1.5108514960629922
20
1.1534892913385826
11
1.5101047637795275
21
1.1546068897637796
0
LINE
8
BLACK
6
CONTINUOUS
10
1.5101047637795275
20
1.1546068897637796
11
1.5098425196850394
21
1.1559251968503936
0
LINE
8
BLACK
6
CONTINUOUS
10
1.5098425196850394
20
1.1559251968503936
11
1.5098425196850394
21
1.1628149606299212
0
LINE
8
BLACK
6
CONTINUOUS
10
1.5098425196850394
20
1.1628149606299212
11
1.5101047637795275
21
1.1641332677165355
0
LINE
8
BLACK
6
CONTINUOUS
10
1.5101047637795275
20
1.1641332677165355
11
1.5108514960629922
21
1.1652508661417322
0
LINE
8
BLACK
6
CONTINUOUS
10
1.5108514960629922
20
1.1652508661417322
11
1.5119690944881889
21
1.1659975984251969
0
LINE
8
BLACK
6
CONTINUOUS
10
1.5119690944881889
20
1.1659975984251969
11
1.513287401574803
21
1.1662598425196851
0
LINE
8
BLACK
6
CONTINUOUS
10
1.513287401574803
20
1.1662598425196851
11
1.5703740157480315
21
1.1662598425196851
0
LINE
8
BLACK
6
CONTINUOUS
10
1.5703740157480315
20
1.1662598425196851
11
1.5716923228346455
21
1.1659975984251969
0
LINE
8
BLACK
6
CONTINUOUS
10
1.7380309055118111
20
1.1659975984251969
11
1.7391485039370078
21
1.1652508661417322
0
LINE
8
BLACK
6
CONTINUOUS
10
1.7391485039370078
20
1.1652508661417322
11
1.7398952362204725
21
1.1641332677165355
0
LINE
8
BLACK
6
CONTINUOUS
10
1.7398952362204725
20
1.1641332677165355
11
1.7401574803149606
21
1.1628149606299212
0
LINE
8
BLACK
6
CONTINUOUS
10
1.7401574803149606
20
1.1628149606299212
11
1.7401574803149606
21
1.1559251968503936
0
LINE
8
BLACK
6
CONTINUOUS
10
1.7401574803149606
20
1.1559251968503936
11
1.7398952362204725
21
1.1546068897637796
0
LINE
8
BLACK
6
CONTINUOUS
10
1.7398952362204725
20
1.1546068897637796
11
1.7391485039370078
21
1.1534892913385826
0
LINE
8
BLACK
6
CONTINUOUS
10
1.7391485039370078
20
1.1534892913385826
11
1.7380309055118111
21
1.1527425590551181
0
LINE
8
BLACK
6
CONTINUOUS
10
1.7380309055118111
20
1.1527425590551181
11
1.7367125984251968
21
1.15248031496063
0
LINE
8
BLACK
6
CONTINUOUS
10
1.7367125984251968
20
1.15248031496063
11
1.6796259842519685
21
1.15248031496063
0
LINE
8
BLACK
6
CONTINUOUS
10
1.6796259842519685
20
1.15248031496063
11
1.6783076771653542
21
1.1527425590551181
0
LINE
8
BLACK
6
CONTINUOUS
10
1.6783076771653542
20
1.1527425590551181
11
1.6771900787401575
21
1.1534892913385826
0
LINE
8
BLACK
6
CONTINUOUS
10
1.6771900787401575
20
1.1534892913385826
11
1.6764433464566928
21
1.1546068897637796
0
LINE
8
BLACK
6
CONTINUOUS
10
1.6764433464566928
20
1.1546068897637796
11
1.6761811023622046
21
1.1559251968503936
0
LINE
8
BLACK
6
CONTINUOUS
10
1.6761811023622046
20
1.1559251968503936
11
1.6761811023622046
21
1.1628149606299212
0
LINE
8
BLACK
6
CONTINUOUS
10
1.6761811023622046
20
1.1628149606299212
11
1.6764433464566928
21
1.1641332677165355
0
LINE
8
BLACK
6
CONTINUOUS
10
1.6764433464566928
20
1.1641332677165355
11
1.6771900787401575
21
1.1652508661417322
0
LINE
8
BLACK
6
CONTINUOUS
10
1.6771900787401575
20
1.1652508661417322
11
1.6783076771653542
21
1.1659975984251969
0
LINE
8
BLACK
6
CONTINUOUS
10
1.6783076771653542
20
1.1659975984251969
11
1.6796259842519685
21
1.1662598425196851
0
LINE
8
BLACK
6
CONTINUOUS
10
1.6796259842519685
20
1.1662598425196851
11
1.7367125984251968
21
1.1662598425196851
0
LINE
8
BLACK
6
CONTINUOUS
10
1.7367125984251968
20
1.1662598425196851
11
1.7380309055118111
21
1.1659975984251969
0
LINE
8
BLACK
6
CONTINUOUS
10
1.4574673622047243
20
1.1963374015748032
11
1.4606605118110236
21
1.1942038188976378
0
LINE
8
BLACK
6
CONTINUOUS
10
1.4606605118110236
20
1.1942038188976378
11
1.462794094488189
21
1.1910106692913385
0
LINE
8
BLACK
6
CONTINUOUS
10
1.462794094488189
20
1.1910106692913385
11
1.4635433070866142
21
1.187244094488189
0
LINE
8
BLACK
6
CONTINUOUS
10
1.4635433070866142
20
1.187244094488189
11
1.4635433070866142
21
1.1675590551181103
0
LINE
8
BLACK
6
CONTINUOUS
10
1.4635433070866142
20
1.1675590551181103
11
1.462794094488189
21
1.1637924803149606
0
LINE
8
BLACK
6
CONTINUOUS
10
1.462794094488189
20
1.1637924803149606
11
1.4606605118110236
21
1.1605993307086613
0
LINE
8
BLACK
6
CONTINUOUS
10
1.4606605118110236
20
1.1605993307086613
11
1.4574673622047243
21
1.1584657480314959
0
LINE
8
BLACK
6
CONTINUOUS
10
1.4574673622047243
20
1.1584657480314959
11
1.4537007874015748
21
1.1577165354330707
0
LINE
8
BLACK
6
CONTINUOUS
10
1.4537007874015748
20
1.1577165354330707
11
1.4162992125984251
21
1.1577165354330707
0
LINE
8
BLACK
6
CONTINUOUS
10
1.4162992125984251
20
1.1577165354330707
11
1.4125326377952756
21
1.1584657480314959
0
LINE
8
BLACK
6
CONTINUOUS
10
1.4125326377952756
20
1.1584657480314959
11
1.4093394881889763
21
1.1605993307086613
0
LINE
8
BLACK
6
CONTINUOUS
10
1.4093394881889763
20
1.1605993307086613
11
1.4072059055118109
21
1.1637924803149606
0
LINE
8
BLACK
6
CONTINUOUS
10
1.4072059055118109
20
1.1637924803149606
11
1.4064566929133857
21
1.1675590551181103
0
LINE
8
BLACK
6
CONTINUOUS
10
1.4064566929133857
20
1.1675590551181103
11
1.4064566929133857
21
1.187244094488189
0
LINE
8
BLACK
6
CONTINUOUS
10
1.4064566929133857
20
1.187244094488189
11
1.4072059055118109
21
1.1910106692913385
0
LINE
8
BLACK
6
CONTINUOUS
10
1.4072059055118109
20
1.1910106692913385
11
1.4093394881889763
21
1.1942038188976378
0
LINE
8
BLACK
6
CONTINUOUS
10
1.4093394881889763
20
1.1942038188976378
11
1.4125326377952756
21
1.1963374015748032
0
LINE
8
BLACK
6
CONTINUOUS
10
1.4125326377952756
20
1.1963374015748032
11
1.4162992125984251
21
1.1970866141732284
0
LINE
8
BLACK
6
CONTINUOUS
10
1.4162992125984251
20
1.1970866141732284
11
1.4537007874015748
21
1.1970866141732284
0
LINE
8
BLACK
6
CONTINUOUS
10
1.4537007874015748
20
1.1970866141732284
11
1.4574673622047243
21
1.1963374015748032
0
LINE
8
BLACK
6
CONTINUOUS
10
1.3622993307086615
20
1.1987630708661416
11
1.3642151968503937
21
1.1974829133858267
0
LINE
8
BLACK
6
CONTINUOUS
10
1.3642151968503937
20
1.1974829133858267
11
1.3654953543307087
21
1.1955670472440945
0
LINE
8
BLACK
6
CONTINUOUS
10
1.3654953543307087
20
1.1955670472440945
11
1.3659448818897637
21
1.1933070866141733
0
LINE
8
BLACK
6
CONTINUOUS
10
1.3659448818897637
20
1.1933070866141733
11
1.3659448818897637
21
1.1814960629921261
0
LINE
8
BLACK
6
CONTINUOUS
10
1.3659448818897637
20
1.1814960629921261
11
1.3654953543307087
21
1.1792361023622047
0
LINE
8
BLACK
6
CONTINUOUS
10
1.3654953543307087
20
1.1792361023622047
11
1.3642151968503937
21
1.1773202362204724
0
LINE
8
BLACK
6
CONTINUOUS
10
1.3642151968503937
20
1.1773202362204724
11
1.3622993307086615
21
1.1760400787401575
0
LINE
8
BLACK
6
CONTINUOUS
10
1.3622993307086615
20
1.1760400787401575
11
1.3600393700787401
21
1.1755905511811022
0
LINE
8
BLACK
6
CONTINUOUS
10
1.3600393700787401
20
1.1755905511811022
11
1.3137795275590551
21
1.1755905511811022
0
LINE
8
BLACK
6
CONTINUOUS
10
1.3137795275590551
20
1.1755905511811022
11
1.3115195669291337
21
1.1760400787401575
0
LINE
8
BLACK
6
CONTINUOUS
10
1.3115195669291337
20
1.1760400787401575
11
1.3096037007874015
21
1.1773202362204724
0
LINE
8
BLACK
6
CONTINUOUS
10
1.3096037007874015
20
1.1773202362204724
11
1.3083235433070866
21
1.1792361023622047
0
LINE
8
BLACK
6
CONTINUOUS
10
1.3083235433070866
20
1.1792361023622047
11
1.3078740157480315
21
1.1814960629921261
0
LINE
8
BLACK
6
CONTINUOUS
10
1.3078740157480315
20
1.1814960629921261
11
1.3078740157480315
21
1.1933070866141733
0
LINE
8
BLACK
6
CONTINUOUS
10
1.3078740157480315
20
1.1933070866141733
11
1.3083235433070866
21
1.1955670472440945
0
LINE
8
BLACK
6
CONTINUOUS
10
1.3083235433070866
20
1.1955670472440945
11
1.3096037007874015
21
1.1974829133858267
0
LINE
8
BLACK
6
CONTINUOUS
10
1.3096037007874015
20
1.1974829133858267
11
1.3115195669291337
21
1.1987630708661416
0
LINE
8
BLACK
6
CONTINUOUS
10
1.3115195669291337
20
1.1987630708661416
11
1.3137795275590551
21
1.1992125984251969
0
LINE
8
BLACK
6
CONTINUOUS
10
1.3137795275590551
20
1.1992125984251969
11
1.3600393700787401
21
1.1992125984251969
0
LINE
8
BLACK
6
CONTINUOUS
10
1.3600393700787401
20
1.1992125984251969
11
1.3622993307086615
21
1.1987630708661416
0
LINE
8
BLACK
6
CONTINUOUS
10
1.1974673622047243
20
1.2265342519685039
11
1.2006605118110236
21
1.2244006692913385
0
LINE
8
BLACK
6
CONTINUOUS
10
1.2006605118110236
20
1.2244006692913385
11
1.202794094488189
21
1.2212075196850394
0
LINE
8
BLACK
6
CONTINUOUS
10
1.202794094488189
20
1.2212075196850394
11
1.2035433070866142
21
1.2174409448818897
0
LINE
8
BLACK
6
CONTINUOUS
10
1.2035433070866142
20
1.2174409448818897
11
1.2035433070866142
21
1.197755905511811
0
LINE
8
BLACK
6
CONTINUOUS
10
1.2035433070866142
20
1.197755905511811
11
1.202794094488189
21
1.1939893307086613
0
LINE
8
BLACK
6
CONTINUOUS
10
1.202794094488189
20
1.1939893307086613
11
1.2006605118110236
21
1.1907961811023622
0
LINE
8
BLACK
6
CONTINUOUS
10
1.2006605118110236
20
1.1907961811023622
11
1.1974673622047243
21
1.1886625984251968
0
LINE
8
BLACK
6
CONTINUOUS
10
1.1974673622047243
20
1.1886625984251968
11
1.1937007874015748
21
1.1879133858267716
0
LINE
8
BLACK
6
CONTINUOUS
10
1.1937007874015748
20
1.1879133858267716
11
1.1562992125984253
21
1.1879133858267716
0
LINE
8
BLACK
6
CONTINUOUS
10
1.1562992125984253
20
1.1879133858267716
11
1.1525326377952756
21
1.1886625984251968
0
LINE
8
BLACK
6
CONTINUOUS
10
1.1525326377952756
20
1.1886625984251968
11
1.1493394881889762
21
1.1907961811023622
0
LINE
8
BLACK
6
CONTINUOUS
10
1.1493394881889762
20
1.1907961811023622
11
1.1472059055118109
21
1.1939893307086613
0
LINE
8
BLACK
6
CONTINUOUS
10
1.1472059055118109
20
1.1939893307086613
11
1.1464566929133857
21
1.197755905511811
0
LINE
8
BLACK
6
CONTINUOUS
10
1.1464566929133857
20
1.197755905511811
11
1.1464566929133857
21
1.2174409448818897
0
LINE
8
BLACK
6
CONTINUOUS
10
1.1464566929133857
20
1.2174409448818897
11
1.1472059055118109
21
1.2212075196850394
0
LINE
8
BLACK
6
CONTINUOUS
10
1.1472059055118109
20
1.2212075196850394
11
1.1493394881889762
21
1.2244006692913385
0
LINE
8
BLACK
6
CONTINUOUS
10
1.1493394881889762
20
1.2244006692913385
11
1.1525326377952756
21
1.2265342519685039
0
LINE
8
BLACK
6
CONTINUOUS
10
1.1525326377952756
20
1.2265342519685039
11
1.1562992125984253
21
1.227283464566929
0
LINE
8
BLACK
6
CONTINUOUS
10
1.1562992125984253
20
1.227283464566929
11
1.1937007874015748
21
1.227283464566929
0
LINE
8
BLACK
6
CONTINUOUS
10
1.1937007874015748
20
1.227283464566929
11
1.1974673622047243
21
1.2265342519685039
0
LINE
8
BLACK
6
CONTINUOUS
10
1.0504831102362204
20
1.2445027559055117
11
1.0536762598425196
21
1.2423691732283464
0
LINE
8
BLACK
6
CONTINUOUS
10
1.0536762598425196
20
1.2423691732283464
11
1.0558098425196849
21
1.2391760236220473
0
LINE
8
BLACK
6
CONTINUOUS
10
1.0558098425196849
20
1.2391760236220473
11
1.0565590551181101
21
1.2354094488188976
0
LINE
8
BLACK
6
CONTINUOUS
10
1.0565590551181101
20
1.2354094488188976
11
1.0565590551181101
21
1.2147401574803149
0
LINE
8
BLACK
6
CONTINUOUS
10
1.0565590551181101
20
1.2147401574803149
11
1.0558098425196849
21
1.2109735826771653
0
LINE
8
BLACK
6
CONTINUOUS
10
1.0558098425196849
20
1.2109735826771653
11
1.0536762598425196
21
1.2077804330708661
0
LINE
8
BLACK
6
CONTINUOUS
10
1.0536762598425196
20
1.2077804330708661
11
1.0504831102362204
21
1.2056468503937008
0
LINE
8
BLACK
6
CONTINUOUS
10
1.0504831102362204
20
1.2056468503937008
11
1.0467165354330707
21
1.2048976377952756
0
LINE
8
BLACK
6
CONTINUOUS
10
1.0467165354330707
20
1.2048976377952756
11
1.0112834645669291
21
1.2048976377952756
0
LINE
8
BLACK
6
CONTINUOUS
10
1.0112834645669291
20
1.2048976377952756
11
1.0075168897637794
21
1.2056468503937008
0
LINE
8
BLACK
6
CONTINUOUS
10
1.0075168897637794
20
1.2056468503937008
11
1.0043237401574803
21
1.2077804330708661
0
LINE
8
BLACK
6
CONTINUOUS
10
1.0043237401574803
20
1.2077804330708661
11
1.0021901574803149
21
1.2109735826771653
0
LINE
8
BLACK
6
CONTINUOUS
10
1.0021901574803149
20
1.2109735826771653
11
1.0014409448818897
21
1.2147401574803149
0
LINE
8
BLACK
6
CONTINUOUS
10
1.0014409448818897
20
1.2147401574803149
11
1.0014409448818897
21
1.2354094488188976
0
LINE
8
BLACK
6
CONTINUOUS
10
1.0014409448818897
20
1.2354094488188976
11
1.0021901574803149
21
1.2391760236220473
0
LINE
8
BLACK
6
CONTINUOUS
10
1.0021901574803149
20
1.2391760236220473
11
1.0043237401574803
21
1.2423691732283464
0
LINE
8
BLACK
6
CONTINUOUS
10
1.0043237401574803
20
1.2423691732283464
11
1.0075168897637794
21
1.2445027559055117
0
LINE
8
BLACK
6
CONTINUOUS
10
1.0075168897637794
20
1.2445027559055117
11
1.0112834645669291
21
1.2452519685039369
0
LINE
8
BLACK
6
CONTINUOUS
10
1.0112834645669291
20
1.2452519685039369
11
1.0467165354330707
21
1.2452519685039369
0
LINE
8
BLACK
6
CONTINUOUS
10
1.0467165354330707
20
1.2452519685039369
11
1.0504831102362204
21
1.2445027559055117
0
LINE
8
BLACK
6
CONTINUOUS
10
2.1281760236220473
20
1.2818098425196851
11
2.1313691732283466
21
1.2796762598425198
0
LINE
8
BLACK
6
CONTINUOUS
10
2.1313691732283466
20
1.2796762598425198
11
2.133502755905512
21
1.2764831102362204
0
LINE
8
BLACK
6
CONTINUOUS
10
2.133502755905512
20
1.2764831102362204
11
2.1342519685039369
21
1.2727165354330707
0
LINE
8
BLACK
6
CONTINUOUS
10
2.1342519685039369
20
1.2727165354330707
11
2.1342519685039369
21
1.2372834645669291
0
LINE
8
BLACK
6
CONTINUOUS
10
2.1342519685039369
20
1.2372834645669291
11
2.133502755905512
21
1.2335168897637796
0
LINE
8
BLACK
6
CONTINUOUS
10
2.133502755905512
20
1.2335168897637796
11
2.1313691732283466
21
1.2303237401574803
0
LINE
8
BLACK
6
CONTINUOUS
10
2.1313691732283466
20
1.2303237401574803
11
2.1281760236220473
21
1.2281901574803149
0
LINE
8
BLACK
6
CONTINUOUS
10
2.1281760236220473
20
1.2281901574803149
11
2.1244094488188976
21
1.2274409448818897
0
LINE
8
BLACK
6
CONTINUOUS
10
2.1244094488188976
20
1.2274409448818897
11
2.1037401574803147
21
1.2274409448818897
0
LINE
8
BLACK
6
CONTINUOUS
10
2.1037401574803147
20
1.2274409448818897
11
2.0999735826771655
21
1.2281901574803149
0
LINE
8
BLACK
6
CONTINUOUS
10
2.0999735826771655
20
1.2281901574803149
11
2.0967804330708661
21
1.2303237401574803
0
LINE
8
BLACK
6
CONTINUOUS
10
2.0967804330708661
20
1.2303237401574803
11
2.0946468503937008
21
1.2335168897637796
0
LINE
8
BLACK
6
CONTINUOUS
10
2.0946468503937008
20
1.2335168897637796
11
2.0938976377952754
21
1.2372834645669291
0
LINE
8
BLACK
6
CONTINUOUS
10
2.0938976377952754
20
1.2372834645669291
11
2.0938976377952754
21
1.2727165354330707
0
LINE
8
BLACK
6
CONTINUOUS
10
2.0938976377952754
20
1.2727165354330707
11
2.0946468503937008
21
1.2764831102362204
0
LINE
8
BLACK
6
CONTINUOUS
10
2.0946468503937008
20
1.2764831102362204
11
2.0967804330708661
21
1.2796762598425198
0
LINE
8
BLACK
6
CONTINUOUS
10
2.0967804330708661
20
1.2796762598425198
11
2.0999735826771655
21
1.2818098425196851
0
LINE
8
BLACK
6
CONTINUOUS
10
2.0999735826771655
20
1.2818098425196851
11
2.1037401574803147
21
1.2825590551181103
0
LINE
8
BLACK
6
CONTINUOUS
10
2.1037401574803147
20
1.2825590551181103
11
2.1244094488188976
21
1.2825590551181103
0
LINE
8
BLACK
6
CONTINUOUS
10
2.1244094488188976
20
1.2825590551181103
11
2.1281760236220473
21
1.2818098425196851
0
LINE
8
BLACK
6
CONTINUOUS
10
2.2000264173228348
20
1.2818098425196851
11
2.2032195669291337
21
1.2796762598425198
0
LINE
8
BLACK
6
CONTINUOUS
10
2.2032195669291337
20
1.2796762598425198
11
2.205353149606299
21
1.2764831102362204
0
LINE
8
BLACK
6
CONTINUOUS
10
2.205353149606299
20
1.2764831102362204
11
2.2061023622047244
21
1.2727165354330707
0
LINE
8
BLACK
6
CONTINUOUS
10
2.2061023622047244
20
1.2727165354330707
11
2.2061023622047244
21
1.2372834645669291
0
LINE
8
BLACK
6
CONTINUOUS
10
2.2061023622047244
20
1.2372834645669291
11
2.205353149606299
21
1.2335168897637796
0
LINE
8
BLACK
6
CONTINUOUS
10
2.205353149606299
20
1.2335168897637796
11
2.2032195669291337
21
1.2303237401574803
0
LINE
8
BLACK
6
CONTINUOUS
10
2.2032195669291337
20
1.2303237401574803
11
2.2000264173228348
21
1.2281901574803149
0
LINE
8
BLACK
6
CONTINUOUS
10
2.2000264173228348
20
1.2281901574803149
11
2.1962598425196851
21
1.2274409448818897
0
LINE
8
BLACK
6
CONTINUOUS
10
2.1962598425196851
20
1.2274409448818897
11
2.1755905511811022
21
1.2274409448818897
0
LINE
8
BLACK
6
CONTINUOUS
10
2.1755905511811022
20
1.2274409448818897
11
2.1718239763779525
21
1.2281901574803149
0
LINE
8
BLACK
6
CONTINUOUS
10
2.1718239763779525
20
1.2281901574803149
11
2.1686308267716536
21
1.2303237401574803
0
LINE
8
BLACK
6
CONTINUOUS
10
2.1686308267716536
20
1.2303237401574803
11
2.1664972440944883
21
1.2335168897637796
0
LINE
8
BLACK
6
CONTINUOUS
10
2.1664972440944883
20
1.2335168897637796
11
2.1657480314960629
21
1.2372834645669291
0
LINE
8
BLACK
6
CONTINUOUS
10
2.1657480314960629
20
1.2372834645669291
11
2.1657480314960629
21
1.2727165354330707
0
LINE
8
BLACK
6
CONTINUOUS
10
2.1657480314960629
20
1.2727165354330707
11
2.1664972440944883
21
1.2764831102362204
0
LINE
8
BLACK
6
CONTINUOUS
10
2.1664972440944883
20
1.2764831102362204
11
2.1686308267716536
21
1.2796762598425198
0
LINE
8
BLACK
6
CONTINUOUS
10
2.1686308267716536
20
1.2796762598425198
11
2.1718239763779525
21
1.2818098425196851
0
LINE
8
BLACK
6
CONTINUOUS
10
2.1718239763779525
20
1.2818098425196851
11
2.1755905511811022
21
1.2825590551181103
0
LINE
8
BLACK
6
CONTINUOUS
10
2.1755905511811022
20
1.2825590551181103
11
2.1962598425196851
21
1.2825590551181103
0
LINE
8
BLACK
6
CONTINUOUS
10
2.1962598425196851
20
1.2825590551181103
11
2.2000264173228348
21
1.2818098425196851
0
LINE
8
BLACK
6
CONTINUOUS
10
1.2762075196850393
20
1.2877940944881889
11
1.2794006692913384
21
1.2856605118110236
0
LINE
8
BLACK
6
CONTINUOUS
10
1.2794006692913384
20
1.2856605118110236
11
1.281534251968504
21
1.2824673622047245
0
LINE
8
BLACK
6
CONTINUOUS
10
1.281534251968504
20
1.2824673622047245
11
1.2822834645669292
21
1.2787007874015748
0
LINE
8
BLACK
6
CONTINUOUS
10
1.2822834645669292
20
1.2787007874015748
11
1.2822834645669292
21
1.2412992125984252
0
LINE
8
BLACK
6
CONTINUOUS
10
1.2822834645669292
20
1.2412992125984252
11
1.281534251968504
21
1.2375326377952756
0
LINE
8
BLACK
6
CONTINUOUS
10
1.281534251968504
20
1.2375326377952756
11
1.2794006692913384
21
1.2343394881889764
0
LINE
8
BLACK
6
CONTINUOUS
10
1.2794006692913384
20
1.2343394881889764
11
1.2762075196850393
21
1.2322059055118111
0
LINE
8
BLACK
6
CONTINUOUS
10
1.2762075196850393
20
1.2322059055118111
11
1.2724409448818896
21
1.2314566929133859
0
LINE
8
BLACK
6
CONTINUOUS
10
1.2724409448818896
20
1.2314566929133859
11
1.2527559055118109
21
1.2314566929133859
0
LINE
8
BLACK
6
CONTINUOUS
10
1.2527559055118109
20
1.2314566929133859
11
1.2489893307086615
21
1.2322059055118111
0
LINE
8
BLACK
6
CONTINUOUS
10
1.2489893307086615
20
1.2322059055118111
11
1.2457961811023621
21
1.2343394881889764
0
LINE
8
BLACK
6
CONTINUOUS
10
1.2457961811023621
20
1.2343394881889764
11
1.2436625984251968
21
1.2375326377952756
0
LINE
8
BLACK
6
CONTINUOUS
10
1.2436625984251968
20
1.2375326377952756
11
1.2429133858267716
21
1.2412992125984252
0
LINE
8
BLACK
6
CONTINUOUS
10
1.2429133858267716
20
1.2412992125984252
11
1.2429133858267716
21
1.2787007874015748
0
LINE
8
BLACK
6
CONTINUOUS
10
1.2429133858267716
20
1.2787007874015748
11
1.2436625984251968
21
1.2824673622047245
0
LINE
8
BLACK
6
CONTINUOUS
10
1.2436625984251968
20
1.2824673622047245
11
1.2457961811023621
21
1.2856605118110236
0
LINE
8
BLACK
6
CONTINUOUS
10
1.2457961811023621
20
1.2856605118110236
11
1.2489893307086615
21
1.2877940944881889
0
LINE
8
BLACK
6
CONTINUOUS
10
1.2489893307086615
20
1.2877940944881889
11
1.2527559055118109
21
1.2885433070866141
0
LINE
8
BLACK
6
CONTINUOUS
10
1.2527559055118109
20
1.2885433070866141
11
1.2724409448818896
21
1.2885433070866141
0
LINE
8
BLACK
6
CONTINUOUS
10
1.2724409448818896
20
1.2885433070866141
11
1.2762075196850393
21
1.2877940944881889
0
LINE
8
BLACK
6
CONTINUOUS
10
1.3510106692913386
20
1.2877940944881889
11
1.3542038188976377
21
1.2856605118110236
0
LINE
8
BLACK
6
CONTINUOUS
10
1.3542038188976377
20
1.2856605118110236
11
1.3563374015748031
21
1.2824673622047245
0
LINE
8
BLACK
6
CONTINUOUS
10
1.3563374015748031
20
1.2824673622047245
11
1.3570866141732283
21
1.2787007874015748
0
LINE
8
BLACK
6
CONTINUOUS
10
1.3570866141732283
20
1.2787007874015748
11
1.3570866141732283
21
1.2412992125984252
0
LINE
8
BLACK
6
CONTINUOUS
10
1.3570866141732283
20
1.2412992125984252
11
1.3563374015748031
21
1.2375326377952756
0
LINE
8
BLACK
6
CONTINUOUS
10
1.3563374015748031
20
1.2375326377952756
11
1.3542038188976377
21
1.2343394881889764
0
LINE
8
BLACK
6
CONTINUOUS
10
1.3542038188976377
20
1.2343394881889764
11
1.3510106692913386
21
1.2322059055118111
0
LINE
8
BLACK
6
CONTINUOUS
10
1.3510106692913386
20
1.2322059055118111
11
1.3472440944881889
21
1.2314566929133859
0
LINE
8
BLACK
6
CONTINUOUS
10
1.3472440944881889
20
1.2314566929133859
11
1.3275590551181102
21
1.2314566929133859
0
LINE
8
BLACK
6
CONTINUOUS
10
1.3275590551181102
20
1.2314566929133859
11
1.3237924803149606
21
1.2322059055118111
0
LINE
8
BLACK
6
CONTINUOUS
10
1.3237924803149606
20
1.2322059055118111
11
1.3205993307086614
21
1.2343394881889764
0
LINE
8
BLACK
6
CONTINUOUS
10
1.3205993307086614
20
1.2343394881889764
11
1.3184657480314961
21
1.2375326377952756
0
LINE
8
BLACK
6
CONTINUOUS
10
1.3184657480314961
20
1.2375326377952756
11
1.3177165354330709
21
1.2412992125984252
0
LINE
8
BLACK
6
CONTINUOUS
10
1.3177165354330709
20
1.2412992125984252
11
1.3177165354330709
21
1.2787007874015748
0
LINE
8
BLACK
6
CONTINUOUS
10
1.3177165354330709
20
1.2787007874015748
11
1.3184657480314961
21
1.2824673622047245
0
LINE
8
BLACK
6
CONTINUOUS
10
1.3184657480314961
20
1.2824673622047245
11
1.3205993307086614
21
1.2856605118110236
0
LINE
8
BLACK
6
CONTINUOUS
10
1.3205993307086614
20
1.2856605118110236
11
1.3237924803149606
21
1.2877940944881889
0
LINE
8
BLACK
6
CONTINUOUS
10
1.3237924803149606
20
1.2877940944881889
11
1.3275590551181102
21
1.2885433070866141
0
LINE
8
BLACK
6
CONTINUOUS
10
1.3275590551181102
20
1.2885433070866141
11
1.3472440944881889
21
1.2885433070866141
0
LINE
8
BLACK
6
CONTINUOUS
10
1.3472440944881889
20
1.2885433070866141
11
1.3510106692913386
21
1.2877940944881889
0
LINE
8
BLACK
6
CONTINUOUS
10
1.1974673622047243
20
1.3013374015748032
11
1.2006605118110236
21
1.2992038188976378
0
LINE
8
BLACK
6
CONTINUOUS
10
1.2006605118110236
20
1.2992038188976378
11
1.202794094488189
21
1.2960106692913385
0
LINE
8
BLACK
6
CONTINUOUS
10
1.202794094488189
20
1.2960106692913385
11
1.2035433070866142
21
1.292244094488189
0
LINE
8
BLACK
6
CONTINUOUS
10
1.2035433070866142
20
1.292244094488189
11
1.2035433070866142
21
1.2725590551181103
0
LINE
8
BLACK
6
CONTINUOUS
10
1.2035433070866142
20
1.2725590551181103
11
1.202794094488189
21
1.2687924803149606
0
LINE
8
BLACK
6
CONTINUOUS
10
1.202794094488189
20
1.2687924803149606
11
1.2006605118110236
21
1.2655993307086615
0
LINE
8
BLACK
6
CONTINUOUS
10
1.2006605118110236
20
1.2655993307086615
11
1.1974673622047243
21
1.2634657480314961
0
LINE
8
BLACK
6
CONTINUOUS
10
1.1974673622047243
20
1.2634657480314961
11
1.1937007874015748
21
1.2627165354330709
0
LINE
8
BLACK
6
CONTINUOUS
10
1.1937007874015748
20
1.2627165354330709
11
1.1562992125984253
21
1.2627165354330709
0
LINE
8
BLACK
6
CONTINUOUS
10
1.1562992125984253
20
1.2627165354330709
11
1.1525326377952756
21
1.2634657480314961
0
LINE
8
BLACK
6
CONTINUOUS
10
1.1525326377952756
20
1.2634657480314961
11
1.1493394881889762
21
1.2655993307086615
0
LINE
8
BLACK
6
CONTINUOUS
10
1.1493394881889762
20
1.2655993307086615
11
1.1472059055118109
21
1.2687924803149606
0
LINE
8
BLACK
6
CONTINUOUS
10
1.1472059055118109
20
1.2687924803149606
11
1.1464566929133857
21
1.2725590551181103
0
LINE
8
BLACK
6
CONTINUOUS
10
1.1464566929133857
20
1.2725590551181103
11
1.1464566929133857
21
1.292244094488189
0
LINE
8
BLACK
6
CONTINUOUS
10
1.1464566929133857
20
1.292244094488189
11
1.1472059055118109
21
1.2960106692913385
0
LINE
8
BLACK
6
CONTINUOUS
10
1.1472059055118109
20
1.2960106692913385
11
1.1493394881889762
21
1.2992038188976378
0
LINE
8
BLACK
6
CONTINUOUS
10
1.1493394881889762
20
1.2992038188976378
11
1.1525326377952756
21
1.3013374015748032
0
LINE
8
BLACK
6
CONTINUOUS
10
1.1525326377952756
20
1.3013374015748032
11
1.1562992125984253
21
1.3020866141732284
0
LINE
8
BLACK
6
CONTINUOUS
10
1.1562992125984253
20
1.3020866141732284
11
1.1937007874015748
21
1.3020866141732284
0
LINE
8
BLACK
6
CONTINUOUS
10
1.1937007874015748
20
1.3020866141732284
11
1.1974673622047243
21
1.3013374015748032
0
LINE
8
BLACK
6
CONTINUOUS
10
1.0504831102362204
20
1.3163531496062992
11
1.0536762598425196
21
1.3142195669291339
0
LINE
8
BLACK
6
CONTINUOUS
10
1.0536762598425196
20
1.3142195669291339
11
1.0558098425196849
21
1.3110264173228345
0
LINE
8
BLACK
6
CONTINUOUS
10
1.0558098425196849
20
1.3110264173228345
11
1.0565590551181101
21
1.3072598425196851
0
LINE
8
BLACK
6
CONTINUOUS
10
1.0565590551181101
20
1.3072598425196851
11
1.0565590551181101
21
1.2865905511811024
0
LINE
8
BLACK
6
CONTINUOUS
10
1.0565590551181101
20
1.2865905511811024
11
1.0558098425196849
21
1.2828239763779528
0
LINE
8
BLACK
6
CONTINUOUS
10
1.0558098425196849
20
1.2828239763779528
11
1.0536762598425196
21
1.2796308267716534
0
LINE
8
BLACK
6
CONTINUOUS
10
1.0536762598425196
20
1.2796308267716534
11
1.0504831102362204
21
1.2774972440944881
0
LINE
8
BLACK
6
CONTINUOUS
10
1.0504831102362204
20
1.2774972440944881
11
1.0467165354330707
21
1.2767480314960629
0
LINE
8
BLACK
6
CONTINUOUS
10
1.0467165354330707
20
1.2767480314960629
11
1.0112834645669291
21
1.2767480314960629
0
LINE
8
BLACK
6
CONTINUOUS
10
1.0112834645669291
20
1.2767480314960629
11
1.0075168897637794
21
1.2774972440944881
0
LINE
8
BLACK
6
CONTINUOUS
10
1.0075168897637794
20
1.2774972440944881
11
1.0043237401574803
21
1.2796308267716534
0
LINE
8
BLACK
6
CONTINUOUS
10
1.0043237401574803
20
1.2796308267716534
11
1.0021901574803149
21
1.2828239763779528
0
LINE
8
BLACK
6
CONTINUOUS
10
1.0021901574803149
20
1.2828239763779528
11
1.0014409448818897
21
1.2865905511811024
0
LINE
8
BLACK
6
CONTINUOUS
10
1.0014409448818897
20
1.2865905511811024
11
1.0014409448818897
21
1.3072598425196851
0
LINE
8
BLACK
6
CONTINUOUS
10
1.0014409448818897
20
1.3072598425196851
11
1.0021901574803149
21
1.3110264173228345
0
LINE
8
BLACK
6
CONTINUOUS
10
1.0021901574803149
20
1.3110264173228345
11
1.0043237401574803
21
1.3142195669291339
0
LINE
8
BLACK
6
CONTINUOUS
10
1.0043237401574803
20
1.3142195669291339
11
1.0075168897637794
21
1.3163531496062992
0
LINE
8
BLACK
6
CONTINUOUS
10
1.0075168897637794
20
1.3163531496062992
11
1.0112834645669291
21
1.3171023622047244
0
LINE
8
BLACK
6
CONTINUOUS
10
1.0112834645669291
20
1.3171023622047244
11
1.0467165354330707
21
1.3171023622047244
0
LINE
8
BLACK
6
CONTINUOUS
10
1.0467165354330707
20
1.3171023622047244
11
1.0504831102362204
21
1.3163531496062992
0
LINE
8
BLACK
6
CONTINUOUS
10
0.7937007874015748
20
1.2795275590551181
11
0.7543307086614173
21
1.2795275590551181
0
LINE
8
BLACK
6
CONTINUOUS
10
0.7543307086614173
20
1.2795275590551181
11
0.7543307086614173
21
1.4291338582677164
0
LINE
8
BLACK
6
CONTINUOUS
10
0.7543307086614173
20
1.4291338582677164
11
0.7937007874015748
21
1.4291338582677164
0
LINE
8
BLACK
6
CONTINUOUS
10
0.7937007874015748
20
1.4291338582677164
11
0.7937007874015748
21
1.2795275590551181
0
LINE
8
BLACK
6
CONTINUOUS
10
2.0456692913385828
20
1.2795275590551181
11
2.0062992125984254
21
1.2795275590551181
0
LINE
8
BLACK
6
CONTINUOUS
10
2.0062992125984254
20
1.2795275590551181
11
2.0062992125984254
21
1.4291338582677164
0
LINE
8
BLACK
6
CONTINUOUS
10
2.0062992125984254
20
1.4291338582677164
11
2.0456692913385828
21
1.4291338582677164
0
LINE
8
BLACK
6
CONTINUOUS
10
2.0456692913385828
20
1.4291338582677164
11
2.0456692913385828
21
1.2795275590551181
0
LINE
8
BLACK
6
CONTINUOUS
10
1.7396959842519684
20
1.3864958267716536
11
1.7416118503937008
21
1.3852156692913387
0
LINE
8
BLACK
6
CONTINUOUS
10
1.7416118503937008
20
1.3852156692913387
11
1.7428920078740158
21
1.3832998031496062
0
LINE
8
BLACK
6
CONTINUOUS
10
1.7428920078740158
20
1.3832998031496062
11
1.7433415354330708
21
1.381039842519685
0
LINE
8
BLACK
6
CONTINUOUS
10
1.7433415354330708
20
1.381039842519685
11
1.7433415354330708
21
1.3347800000000001
0
LINE
8
BLACK
6
CONTINUOUS
10
1.7433415354330708
20
1.3347800000000001
11
1.7428920078740158
21
1.3325200393700787
0
LINE
8
BLACK
6
CONTINUOUS
10
1.7428920078740158
20
1.3325200393700787
11
1.7416118503937008
21
1.3306041732283465
0
LINE
8
BLACK
6
CONTINUOUS
10
1.7416118503937008
20
1.3306041732283465
11
1.7396959842519684
21
1.3293240157480315
0
LINE
8
BLACK
6
CONTINUOUS
10
1.7396959842519684
20
1.3293240157480315
11
1.7374360236220472
21
1.3288744881889762
0
LINE
8
BLACK
6
CONTINUOUS
10
1.7374360236220472
20
1.3288744881889762
11
1.725625
21
1.3288744881889762
0
LINE
8
BLACK
6
CONTINUOUS
10
1.725625
20
1.3288744881889762
11
1.7233650393700788
21
1.3293240157480315
0
LINE
8
BLACK
6
CONTINUOUS
10
1.7233650393700788
20
1.3293240157480315
11
1.7214491732283463
21
1.3306041732283465
0
LINE
8
BLACK
6
CONTINUOUS
10
1.7214491732283463
20
1.3306041732283465
11
1.7201690157480314
21
1.3325200393700787
0
LINE
8
BLACK
6
CONTINUOUS
10
1.7201690157480314
20
1.3325200393700787
11
1.7197194881889764
21
1.3347800000000001
0
LINE
8
BLACK
6
CONTINUOUS
10
1.7197194881889764
20
1.3347800000000001
11
1.7197194881889764
21
1.381039842519685
0
LINE
8
BLACK
6
CONTINUOUS
10
1.7197194881889764
20
1.381039842519685
11
1.7201690157480314
21
1.3832998031496062
0
LINE
8
BLACK
6
CONTINUOUS
10
1.7201690157480314
20
1.3832998031496062
11
1.7214491732283463
21
1.3852156692913387
0
LINE
8
BLACK
6
CONTINUOUS
10
1.7214491732283463
20
1.3852156692913387
11
1.7233650393700788
21
1.3864958267716536
0
LINE
8
BLACK
6
CONTINUOUS
10
1.7233650393700788
20
1.3864958267716536
11
1.725625
21
1.3869453543307086
0
LINE
8
BLACK
6
CONTINUOUS
10
1.725625
20
1.3869453543307086
11
1.7374360236220472
21
1.3869453543307086
0
LINE
8
BLACK
6
CONTINUOUS
10
1.7374360236220472
20
1.3869453543307086
11
1.7396959842519684
21
1.3864958267716536
0
LINE
8
BLACK
6
CONTINUOUS
10
1.8144991338582677
20
1.3864958267716536
11
1.8164149999999999
21
1.3852156692913387
0
LINE
8
BLACK
6
CONTINUOUS
10
1.8164149999999999
20
1.3852156692913387
11
1.8176951574803148
21
1.3832998031496062
0
LINE
8
BLACK
6
CONTINUOUS
10
1.8176951574803148
20
1.3832998031496062
11
1.8181446850393701
21
1.381039842519685
0
LINE
8
BLACK
6
CONTINUOUS
10
1.8181446850393701
20
1.381039842519685
11
1.8181446850393701
21
1.3347800000000001
0
LINE
8
BLACK
6
CONTINUOUS
10
1.8181446850393701
20
1.3347800000000001
11
1.8176951574803148
21
1.3325200393700787
0
LINE
8
BLACK
6
CONTINUOUS
10
1.8176951574803148
20
1.3325200393700787
11
1.8164149999999999
21
1.3306041732283465
0
LINE
8
BLACK
6
CONTINUOUS
10
1.8164149999999999
20
1.3306041732283465
11
1.8144991338582677
21
1.3293240157480315
0
LINE
8
BLACK
6
CONTINUOUS
10
1.8144991338582677
20
1.3293240157480315
11
1.8122391732283465
21
1.3288744881889762
0
LINE
8
BLACK
6
CONTINUOUS
10
1.8122391732283465
20
1.3288744881889762
11
1.8004281496062993
21
1.3288744881889762
0
LINE
8
BLACK
6
CONTINUOUS
10
1.8004281496062993
20
1.3288744881889762
11
1.7981681889763779
21
1.3293240157480315
0
LINE
8
BLACK
6
CONTINUOUS
10
1.7981681889763779
20
1.3293240157480315
11
1.7962523228346456
21
1.3306041732283465
0
LINE
8
BLACK
6
CONTINUOUS
10
1.7962523228346456
20
1.3306041732283465
11
1.7949721653543307
21
1.3325200393700787
0
LINE
8
BLACK
6
CONTINUOUS
10
1.7949721653543307
20
1.3325200393700787
11
1.7945226377952757
21
1.3347800000000001
0
LINE
8
BLACK
6
CONTINUOUS
10
1.7945226377952757
20
1.3347800000000001
11
1.7945226377952757
21
1.381039842519685
0
LINE
8
BLACK
6
CONTINUOUS
10
1.7945226377952757
20
1.381039842519685
11
1.7949721653543307
21
1.3832998031496062
0
LINE
8
BLACK
6
CONTINUOUS
10
1.7949721653543307
20
1.3832998031496062
11
1.7962523228346456
21
1.3852156692913387
0
LINE
8
BLACK
6
CONTINUOUS
10
1.7962523228346456
20
1.3852156692913387
11
1.7981681889763779
21
1.3864958267716536
0
LINE
8
BLACK
6
CONTINUOUS
10
1.7981681889763779
20
1.3864958267716536
11
1.8004281496062993
21
1.3869453543307086
0
LINE
8
BLACK
6
CONTINUOUS
10
1.8004281496062993
20
1.3869453543307086
11
1.8122391732283465
21
1.3869453543307086
0
LINE
8
BLACK
6
CONTINUOUS
10
1.8122391732283465
20
1.3869453543307086
11
1.8144991338582677
21
1.3864958267716536
0
LINE
8
BLACK
6
CONTINUOUS
10
2.1281760236220473
20
1.3868098425196851
11
2.1313691732283466
21
1.3846762598425197
0
LINE
8
BLACK
6
CONTINUOUS
10
2.1313691732283466
20
1.3846762598425197
11
2.133502755905512
21
1.3814831102362204
0
LINE
8
BLACK
6
CONTINUOUS
10
2.133502755905512
20
1.3814831102362204
11
2.1342519685039369
21
1.3777165354330709
0
LINE
8
BLACK
6
CONTINUOUS
10
2.1342519685039369
20
1.3777165354330709
11
2.1342519685039369
21
1.342283464566929
0
LINE
8
BLACK
6
CONTINUOUS
10
2.1342519685039369
20
1.342283464566929
11
2.133502755905512
21
1.3385168897637796
0
LINE
8
BLACK
6
CONTINUOUS
10
2.133502755905512
20
1.3385168897637796
11
2.1313691732283466
21
1.3353237401574802
0
LINE
8
BLACK
6
CONTINUOUS
10
2.1313691732283466
20
1.3353237401574802
11
2.1281760236220473
21
1.3331901574803149
0
LINE
8
BLACK
6
CONTINUOUS
10
2.1281760236220473
20
1.3331901574803149
11
2.1244094488188976
21
1.3324409448818897
0
LINE
8
BLACK
6
CONTINUOUS
10
2.1244094488188976
20
1.3324409448818897
11
2.1037401574803147
21
1.3324409448818897
0
LINE
8
BLACK
6
CONTINUOUS
10
2.1037401574803147
20
1.3324409448818897
11
2.0999735826771655
21
1.3331901574803149
0
LINE
8
BLACK
6
CONTINUOUS
10
2.0999735826771655
20
1.3331901574803149
11
2.0967804330708661
21
1.3353237401574802
0
LINE
8
BLACK
6
CONTINUOUS
10
2.0967804330708661
20
1.3353237401574802
11
2.0946468503937008
21
1.3385168897637796
0
LINE
8
BLACK
6
CONTINUOUS
10
2.0946468503937008
20
1.3385168897637796
11
2.0938976377952754
21
1.342283464566929
0
LINE
8
BLACK
6
CONTINUOUS
10
2.0938976377952754
20
1.342283464566929
11
2.0938976377952754
21
1.3777165354330709
0
LINE
8
BLACK
6
CONTINUOUS
10
2.0938976377952754
20
1.3777165354330709
11
2.0946468503937008
21
1.3814831102362204
0
LINE
8
BLACK
6
CONTINUOUS
10
2.0946468503937008
20
1.3814831102362204
11
2.0967804330708661
21
1.3846762598425197
0
LINE
8
BLACK
6
CONTINUOUS
10
2.0967804330708661
20
1.3846762598425197
11
2.0999735826771655
21
1.3868098425196851
0
LINE
8
BLACK
6
CONTINUOUS
10
2.0999735826771655
20
1.3868098425196851
11
2.1037401574803147
21
1.3875590551181103
0
LINE
8
BLACK
6
CONTINUOUS
10
2.1037401574803147
20
1.3875590551181103
11
2.1244094488188976
21
1.3875590551181103
0
LINE
8
BLACK
6
CONTINUOUS
10
2.1244094488188976
20
1.3875590551181103
11
2.1281760236220473
21
1.3868098425196851
0
LINE
8
BLACK
6
CONTINUOUS
10
2.2000264173228348
20
1.3868098425196851
11
2.2032195669291337
21
1.3846762598425197
0
LINE
8
BLACK
6
CONTINUOUS
10
2.2032195669291337
20
1.3846762598425197
11
2.205353149606299
21
1.3814831102362204
0
LINE
8
BLACK
6
CONTINUOUS
10
2.205353149606299
20
1.3814831102362204
11
2.2061023622047244
21
1.3777165354330709
0
LINE
8
BLACK
6
CONTINUOUS
10
2.2061023622047244
20
1.3777165354330709
11
2.2061023622047244
21
1.342283464566929
0
LINE
8
BLACK
6
CONTINUOUS
10
2.2061023622047244
20
1.342283464566929
11
2.205353149606299
21
1.3385168897637796
0
LINE
8
BLACK
6
CONTINUOUS
10
2.205353149606299
20
1.3385168897637796
11
2.2032195669291337
21
1.3353237401574802
0
LINE
8
BLACK
6
CONTINUOUS
10
2.2032195669291337
20
1.3353237401574802
11
2.2000264173228348
21
1.3331901574803149
0
LINE
8
BLACK
6
CONTINUOUS
10
2.2000264173228348
20
1.3331901574803149
11
2.1962598425196851
21
1.3324409448818897
0
LINE
8
BLACK
6
CONTINUOUS
10
2.1962598425196851
20
1.3324409448818897
11
2.1755905511811022
21
1.3324409448818897
0
LINE
8
BLACK
6
CONTINUOUS
10
2.1755905511811022
20
1.3324409448818897
11
2.1718239763779525
21
1.3331901574803149
0
LINE
8
BLACK
6
CONTINUOUS
10
2.1718239763779525
20
1.3331901574803149
11
2.1686308267716536
21
1.3353237401574802
0
LINE
8
BLACK
6
CONTINUOUS
10
2.1686308267716536
20
1.3353237401574802
11
2.1664972440944883
21
1.3385168897637796
0
LINE
8
BLACK
6
CONTINUOUS
10
2.1664972440944883
20
1.3385168897637796
11
2.1657480314960629
21
1.342283464566929
0
LINE
8
BLACK
6
CONTINUOUS
10
2.1657480314960629
20
1.342283464566929
11
2.1657480314960629
21
1.3777165354330709
0
LINE
8
BLACK
6
CONTINUOUS
10
2.1657480314960629
20
1.3777165354330709
11
2.1664972440944883
21
1.3814831102362204
0
LINE
8
BLACK
6
CONTINUOUS
10
2.1664972440944883
20
1.3814831102362204
11
2.1686308267716536
21
1.3846762598425197
0
LINE
8
BLACK
6
CONTINUOUS
10
2.1686308267716536
20
1.3846762598425197
11
2.1718239763779525
21
1.3868098425196851
0
LINE
8
BLACK
6
CONTINUOUS
10
2.1718239763779525
20
1.3868098425196851
11
2.1755905511811022
21
1.3875590551181103
0
LINE
8
BLACK
6
CONTINUOUS
10
2.1755905511811022
20
1.3875590551181103
11
2.1962598425196851
21
1.3875590551181103
0
LINE
8
BLACK
6
CONTINUOUS
10
2.1962598425196851
20
1.3875590551181103
11
2.2000264173228348
21
1.3868098425196851
0
LINE
8
BLACK
6
CONTINUOUS
10
1.9024673622047243
20
1.376534251968504
11
1.9056605118110235
21
1.3744006692913386
0
LINE
8
BLACK
6
CONTINUOUS
10
1.9056605118110235
20
1.3744006692913386
11
1.907794094488189
21
1.3712075196850393
0
LINE
8
BLACK
6
CONTINUOUS
10
1.907794094488189
20
1.3712075196850393
11
1.9085433070866142
21
1.3674409448818898
0
LINE
8
BLACK
6
CONTINUOUS
10
1.9085433070866142
20
1.3674409448818898
11
1.9085433070866142
21
1.3477559055118109
0
LINE
8
BLACK
6
CONTINUOUS
10
1.9085433070866142
20
1.3477559055118109
11
1.907794094488189
21
1.3439893307086614
0
LINE
8
BLACK
6
CONTINUOUS
10
1.907794094488189
20
1.3439893307086614
11
1.9056605118110235
21
1.3407961811023621
0
LINE
8
BLACK
6
CONTINUOUS
10
1.9056605118110235
20
1.3407961811023621
11
1.9024673622047243
21
1.3386625984251967
0
LINE
8
BLACK
6
CONTINUOUS
10
1.9024673622047243
20
1.3386625984251967
11
1.8987007874015747
21
1.3379133858267716
0
LINE
8
BLACK
6
CONTINUOUS
10
1.8987007874015747
20
1.3379133858267716
11
1.8612992125984251
21
1.3379133858267716
0
LINE
8
BLACK
6
CONTINUOUS
10
1.8612992125984251
20
1.3379133858267716
11
1.8575326377952754
21
1.3386625984251967
0
LINE
8
BLACK
6
CONTINUOUS
10
1.8575326377952754
20
1.3386625984251967
11
1.8543394881889763
21
1.3407961811023621
0
LINE
8
BLACK
6
CONTINUOUS
10
1.8543394881889763
20
1.3407961811023621
11
1.852205905511811
21
1.3439893307086614
0
LINE
8
BLACK
6
CONTINUOUS
10
1.852205905511811
20
1.3439893307086614
11
1.8514566929133858
21
1.3477559055118109
0
LINE
8
BLACK
6
CONTINUOUS
10
1.8514566929133858
20
1.3477559055118109
11
1.8514566929133858
21
1.3674409448818898
0
LINE
8
BLACK
6
CONTINUOUS
10
1.8514566929133858
20
1.3674409448818898
11
1.852205905511811
21
1.3712075196850393
0
LINE
8
BLACK
6
CONTINUOUS
10
1.852205905511811
20
1.3712075196850393
11
1.8543394881889763
21
1.3744006692913386
0
LINE
8
BLACK
6
CONTINUOUS
10
1.8543394881889763
20
1.3744006692913386
11
1.8575326377952754
21
1.376534251968504
0
LINE
8
BLACK
6
CONTINUOUS
10
1.8575326377952754
20
1.376534251968504
11
1.8612992125984251
21
1.3772834645669292
0
LINE
8
BLACK
6
CONTINUOUS
10
1.8612992125984251
20
1.3772834645669292
11
1.8987007874015747
21
1.3772834645669292
0
LINE
8
BLACK
6
CONTINUOUS
10
1.8987007874015747
20
1.3772834645669292
11
1.9024673622047243
21
1.376534251968504
0
LINE
8
BLACK
6
CONTINUOUS
10
1.7770975590551181
20
1.4603147637795275
11
1.7790134251968504
21
1.4590346062992126
0
LINE
8
BLACK
6
CONTINUOUS
10
1.7790134251968504
20
1.4590346062992126
11
1.7802935826771653
21
1.4571187401574803
0
LINE
8
BLACK
6
CONTINUOUS
10
1.7802935826771653
20
1.4571187401574803
11
1.7807431102362203
21
1.4548587795275589
0
LINE
8
BLACK
6
CONTINUOUS
10
1.7807431102362203
20
1.4548587795275589
11
1.7807431102362203
21
1.408598937007874
0
LINE
8
BLACK
6
CONTINUOUS
10
1.7807431102362203
20
1.408598937007874
11
1.7802935826771653
21
1.4063389763779528
0
LINE
8
BLACK
6
CONTINUOUS
10
1.7802935826771653
20
1.4063389763779528
11
1.7790134251968504
21
1.4044231102362204
0
LINE
8
BLACK
6
CONTINUOUS
10
1.7790134251968504
20
1.4044231102362204
11
1.7770975590551181
21
1.4031429527559054
0
LINE
8
BLACK
6
CONTINUOUS
10
1.7770975590551181
20
1.4031429527559054
11
1.7748375984251967
21
1.4026934251968504
0
LINE
8
BLACK
6
CONTINUOUS
10
1.7748375984251967
20
1.4026934251968504
11
1.7630265748031495
21
1.4026934251968504
0
LINE
8
BLACK
6
CONTINUOUS
10
1.7630265748031495
20
1.4026934251968504
11
1.7607666141732283
21
1.4031429527559054
0
LINE
8
BLACK
6
CONTINUOUS
10
1.7607666141732283
20
1.4031429527559054
11
1.7588507480314961
21
1.4044231102362204
0
LINE
8
BLACK
6
CONTINUOUS
10
1.7588507480314961
20
1.4044231102362204
11
1.7575705905511811
21
1.4063389763779528
0
LINE
8
BLACK
6
CONTINUOUS
10
1.7575705905511811
20
1.4063389763779528
11
1.7571210629921259
21
1.408598937007874
0
LINE
8
BLACK
6
CONTINUOUS
10
1.7571210629921259
20
1.408598937007874
11
1.7571210629921259
21
1.4548587795275589
0
LINE
8
BLACK
6
CONTINUOUS
10
1.7571210629921259
20
1.4548587795275589
11
1.7575705905511811
21
1.4571187401574803
0
LINE
8
BLACK
6
CONTINUOUS
10
1.7575705905511811
20
1.4571187401574803
11
1.7588507480314961
21
1.4590346062992126
0
LINE
8
BLACK
6
CONTINUOUS
10
1.7588507480314961
20
1.4590346062992126
11
1.7607666141732283
21
1.4603147637795275
0
LINE
8
BLACK
6
CONTINUOUS
10
1.7607666141732283
20
1.4603147637795275
11
1.7630265748031495
21
1.4607642913385825
0
LINE
8
BLACK
6
CONTINUOUS
10
1.7630265748031495
20
1.4607642913385825
11
1.7748375984251967
21
1.4607642913385825
0
LINE
8
BLACK
6
CONTINUOUS
10
1.7748375984251967
20
1.4607642913385825
11
1.7770975590551181
21
1.4603147637795275
0
LINE
8
BLACK
6
CONTINUOUS
10
1.9024673622047243
20
1.4513374015748031
11
1.9056605118110235
21
1.4492038188976377
0
LINE
8
BLACK
6
CONTINUOUS
10
1.9056605118110235
20
1.4492038188976377
11
1.907794094488189
21
1.4460106692913386
0
LINE
8
BLACK
6
CONTINUOUS
10
1.907794094488189
20
1.4460106692913386
11
1.9085433070866142
21
1.4422440944881889
0
LINE
8
BLACK
6
CONTINUOUS
10
1.9085433070866142
20
1.4422440944881889
11
1.9085433070866142
21
1.4225590551181102
0
LINE
8
BLACK
6
CONTINUOUS
10
1.9085433070866142
20
1.4225590551181102
11
1.907794094488189
21
1.4187924803149605
0
LINE
8
BLACK
6
CONTINUOUS
10
1.907794094488189
20
1.4187924803149605
11
1.9056605118110235
21
1.4155993307086614
0
LINE
8
BLACK
6
CONTINUOUS
10
1.9056605118110235
20
1.4155993307086614
11
1.9024673622047243
21
1.413465748031496
0
LINE
8
BLACK
6
CONTINUOUS
10
1.9024673622047243
20
1.413465748031496
11
1.8987007874015747
21
1.4127165354330709
0
LINE
8
BLACK
6
CONTINUOUS
10
1.8987007874015747
20
1.4127165354330709
11
1.8612992125984251
21
1.4127165354330709
0
LINE
8
BLACK
6
CONTINUOUS
10
1.8612992125984251
20
1.4127165354330709
11
1.8575326377952754
21
1.413465748031496
0
LINE
8
BLACK
6
CONTINUOUS
10
1.8575326377952754
20
1.413465748031496
11
1.8543394881889763
21
1.4155993307086614
0
LINE
8
BLACK
6
CONTINUOUS
10
1.8543394881889763
20
1.4155993307086614
11
1.852205905511811
21
1.4187924803149605
0
LINE
8
BLACK
6
CONTINUOUS
10
1.852205905511811
20
1.4187924803149605
11
1.8514566929133858
21
1.4225590551181102
0
LINE
8
BLACK
6
CONTINUOUS
10
1.8514566929133858
20
1.4225590551181102
11
1.8514566929133858
21
1.4422440944881889
0
LINE
8
BLACK
6
CONTINUOUS
10
1.8514566929133858
20
1.4422440944881889
11
1.852205905511811
21
1.4460106692913386
0
LINE
8
BLACK
6
CONTINUOUS
10
1.852205905511811
20
1.4460106692913386
11
1.8543394881889763
21
1.4492038188976377
0
LINE
8
BLACK
6
CONTINUOUS
10
1.8543394881889763
20
1.4492038188976377
11
1.8575326377952754
21
1.4513374015748031
0
LINE
8
BLACK
6
CONTINUOUS
10
1.8575326377952754
20
1.4513374015748031
11
1.8612992125984251
21
1.4520866141732283
0
LINE
8
BLACK
6
CONTINUOUS
10
1.8612992125984251
20
1.4520866141732283
11
1.8987007874015747
21
1.4520866141732283
0
LINE
8
BLACK
6
CONTINUOUS
10
1.8987007874015747
20
1.4520866141732283
11
1.9024673622047243
21
1.4513374015748031
0
LINE
8
BLACK
6
CONTINUOUS
10
0.7937007874015748
20
1.515748031496063
11
0.7543307086614173
21
1.515748031496063
0
LINE
8
BLACK
6
CONTINUOUS
10
0.7543307086614173
20
1.515748031496063
11
0.7543307086614173
21
1.6062992125984252
0
LINE
8
BLACK
6
CONTINUOUS
10
0.7543307086614173
20
1.6062992125984252
11
0.7543307086614173
21
1.6456692913385826
0
LINE
8
BLACK
6
CONTINUOUS
10
0.7543307086614173
20
1.6456692913385826
11
0.7937007874015748
21
1.6456692913385826
0
LINE
8
BLACK
6
CONTINUOUS
10
0.7937007874015748
20
1.6456692913385826
11
0.8842519685039369
21
1.6456692913385826
0
LINE
8
BLACK
6
CONTINUOUS
10
0.8842519685039369
20
1.6456692913385826
11
0.8842519685039369
21
1.6062992125984252
0
LINE
8
BLACK
6
CONTINUOUS
10
0.8842519685039369
20
1.6062992125984252
11
0.7937007874015748
21
1.6062992125984252
0
LINE
8
BLACK
6
CONTINUOUS
10
0.7937007874015748
20
1.6062992125984252
11
0.7937007874015748
21
1.515748031496063
0
LINE
8
BLACK
6
CONTINUOUS
10
2.0456692913385828
20
1.515748031496063
11
2.0062992125984254
21
1.515748031496063
0
LINE
8
BLACK
6
CONTINUOUS
10
2.0062992125984254
20
1.515748031496063
11
2.0062992125984254
21
1.6062992125984252
0
LINE
8
BLACK
6
CONTINUOUS
10
2.0062992125984254
20
1.6062992125984252
11
1.9157480314960629
21
1.6062992125984252
0
LINE
8
BLACK
6
CONTINUOUS
10
1.9157480314960629
20
1.6062992125984252
11
1.9157480314960629
21
1.6456692913385826
0
LINE
8
BLACK
6
CONTINUOUS
10
1.9157480314960629
20
1.6456692913385826
11
2.0062992125984254
21
1.6456692913385826
0
LINE
8
BLACK
6
CONTINUOUS
10
2.0062992125984254
20
1.6456692913385826
11
2.0456692913385828
21
1.6456692913385826
0
LINE
8
BLACK
6
CONTINUOUS
10
2.0456692913385828
20
1.6456692913385826
11
2.0456692913385828
21
1.6062992125984252
0
LINE
8
BLACK
6
CONTINUOUS
10
2.0456692913385828
20
1.6062992125984252
11
2.0456692913385828
21
1.515748031496063
0
LINE
8
BLACK
6
CONTINUOUS
10
1.1204724409448819
20
1.6062992125984252
11
0.9708661417322835
21
1.6062992125984252
0
LINE
8
BLACK
6
CONTINUOUS
10
0.9708661417322835
20
1.6062992125984252
11
0.9708661417322835
21
1.6456692913385826
0
LINE
8
BLACK
6
CONTINUOUS
10
0.9708661417322835
20
1.6456692913385826
11
1.1204724409448819
21
1.6456692913385826
0
LINE
8
BLACK
6
CONTINUOUS
10
1.1204724409448819
20
1.6456692913385826
11
1.1204724409448819
21
1.6062992125984252
0
LINE
8
BLACK
6
CONTINUOUS
10
1.3566929133858268
20
1.6062992125984252
11
1.2070866141732284
21
1.6062992125984252
0
LINE
8
BLACK
6
CONTINUOUS
10
1.2070866141732284
20
1.6062992125984252
11
1.2070866141732284
21
1.6456692913385826
0
LINE
8
BLACK
6
CONTINUOUS
10
1.2070866141732284
20
1.6456692913385826
11
1.3566929133858268
21
1.6456692913385826
0
LINE
8
BLACK
6
CONTINUOUS
10
1.3566929133858268
20
1.6456692913385826
11
1.3566929133858268
21
1.6062992125984252
0
LINE
8
BLACK
6
CONTINUOUS
10
1.5929133858267717
20
1.6062992125984252
11
1.4433070866141733
21
1.6062992125984252
0
LINE
8
BLACK
6
CONTINUOUS
10
1.4433070866141733
20
1.6062992125984252
11
1.4433070866141733
21
1.6456692913385826
0
LINE
8
BLACK
6
CONTINUOUS
10
1.4433070866141733
20
1.6456692913385826
11
1.5929133858267717
21
1.6456692913385826
0
LINE
8
BLACK
6
CONTINUOUS
10
1.5929133858267717
20
1.6456692913385826
11
1.5929133858267717
21
1.6062992125984252
0
LINE
8
BLACK
6
CONTINUOUS
10
1.8291338582677166
20
1.6062992125984252
11
1.679527559055118
21
1.6062992125984252
0
LINE
8
BLACK
6
CONTINUOUS
10
1.679527559055118
20
1.6062992125984252
11
1.679527559055118
21
1.6456692913385826
0
LINE
8
BLACK
6
CONTINUOUS
10
1.679527559055118
20
1.6456692913385826
11
1.8291338582677166
21
1.6456692913385826
0
LINE
8
BLACK
6
CONTINUOUS
10
1.8291338582677166
20
1.6456692913385826
11
1.8291338582677166
21
1.6062992125984252
  0
ENDSEC
  0
EOF
