  0
SECTION
  2
HEADER
  9
$ANGBASE
  50
0.0
  9
$ANGDIR
  70
1
  9
$MEASUREMENT
  70
0
  0
ENDSEC
  0
SECTION
  2
TABLES
  0
TABLE
  2
LTYPE
  70
4
  0
LTYPE
  5
40F
  2
CONTINUOUS
  70
0
  3
Solid line
  72
65
  73
0
  40
0.0
  0
LTYPE
  5
410
  2
DASHDOT
 70
0
  3
Dash Dot ____ _ ____ _
 72
65
 73
4
 40
2.0
 49
1.25
 49
-0.25
 49
0.25
 49
-0.25
  0
LTYPE
  5
411
  2
DASHED
 70
0
  3
Dashed __ __ __ __ __
 72
65
 73
2
 40
0.75
 49
0.5
 49
-0.25
  0
LTYPE
  5
43B
  2
DOTTED
 70
0
  3
Dotted .  .  .  .
 72
65
 73
2
 40
0.2
 49
0.0
 49
-0.2
  0
ENDTAB
  0
TABLE
  2
STYLE
  70
4
  0
STYLE
  2
KICAD
  70
0
  40
0
  41
1
  42
1
  50
0
  71
0
  3
isocp.shx
  0
STYLE
  2
KICADB
  70
0
  40
0
  41
1
  42
1
  50
0
  71
0
  3
isocp.shx
  0
STYLE
  2
KICADI
  70
0
  40
0
  41
1
  42
1
  50
15
  71
0
  3
isocp.shx
  0
STYLE
  2
KICADBI
  70
0
  40
0
  41
1
  42
1
  50
15
  71
0
  3
isocp.shx
  0
ENDTAB
  0
TABLE
  2
LAYER
  70
1
  0
LAYER
  2
BLACK
  70
0
  62
7
  6
CONTINUOUS
  0
ENDTAB
  0
ENDSEC
  0
SECTION
  2
ENTITIES
0
LINE
8
BLACK
6
CONTINUOUS
10
0.6035498818897638
20
1.1650825590551181
11
0.6040825590551181
21
1.1645498818897637
0
LINE
8
BLACK
6
CONTINUOUS
10
0.6040825590551181
20
1.1645498818897637
11
0.6041574803149606
21
1.1641732283464568
0
LINE
8
BLACK
6
CONTINUOUS
10
0.6041574803149606
20
1.1641732283464568
11
0.6041574803149606
21
0.8358267716535432
0
LINE
8
BLACK
6
CONTINUOUS
10
0.6041574803149606
20
0.8358267716535432
11
0.6040825590551181
21
0.8354501181102362
0
LINE
8
BLACK
6
CONTINUOUS
10
0.6040825590551181
20
0.8354501181102362
11
0.6035498818897638
21
0.8349174409448819
0
LINE
8
BLACK
6
CONTINUOUS
10
0.6035498818897638
20
0.8349174409448819
11
0.6031732283464567
21
0.8348425196850393
0
LINE
8
BLACK
6
CONTINUOUS
10
0.6031732283464567
20
0.8348425196850393
11
0.2748267716535433
21
0.8348425196850393
0
LINE
8
BLACK
6
CONTINUOUS
10
0.2748267716535433
20
0.8348425196850393
11
0.2744501181102362
21
0.8349174409448819
0
LINE
8
BLACK
6
CONTINUOUS
10
0.2744501181102362
20
0.8349174409448819
11
0.2739174409448819
21
0.8354501181102362
0
LINE
8
BLACK
6
CONTINUOUS
10
0.2739174409448819
20
0.8354501181102362
11
0.2738425196850394
21
0.8358267716535432
0
LINE
8
BLACK
6
CONTINUOUS
10
0.2738425196850394
20
0.8358267716535432
11
0.2738425196850394
21
1.1641732283464568
0
LINE
8
BLACK
6
CONTINUOUS
10
0.2738425196850394
20
1.1641732283464568
11
0.2739174409448819
21
1.1645498818897637
0
LINE
8
BLACK
6
CONTINUOUS
10
0.2739174409448819
20
1.1645498818897637
11
0.2744501181102362
21
1.1650825590551181
0
LINE
8
BLACK
6
CONTINUOUS
10
0.2744501181102362
20
1.1650825590551181
11
0.2748267716535433
21
1.1651574803149607
0
LINE
8
BLACK
6
CONTINUOUS
10
0.2748267716535433
20
1.1651574803149607
11
0.6031732283464567
21
1.1651574803149607
0
LINE
8
BLACK
6
CONTINUOUS
10
0.6031732283464567
20
1.1651574803149607
11
0.6035498818897638
21
1.1650825590551181
0
LINE
8
BLACK
6
CONTINUOUS
10
0.2758110236220472
20
1.1631889763779528
11
0.2758110236220472
21
0.8368110236220472
0
LINE
8
BLACK
6
CONTINUOUS
10
0.2758110236220472
20
0.8368110236220472
11
0.6021889763779528
21
0.8368110236220472
0
LINE
8
BLACK
6
CONTINUOUS
10
0.6021889763779528
20
0.8368110236220472
11
0.6021889763779528
21
1.1631889763779528
0
LINE
8
BLACK
6
CONTINUOUS
10
0.6021889763779528
20
1.1631889763779528
11
0.2758110236220472
21
1.1631889763779528
0
CIRCLE
8
BLACK
10
2.3999999999999999
20
0.4
40
0.0068897637795276
0
CIRCLE
8
BLACK
10
0.4
20
0.4
40
0.0068897637795276
0
CIRCLE
8
BLACK
10
0.4
20
1.5999999999999999
40
0.0068897637795276
0
CIRCLE
8
BLACK
10
2.3600000393700786
20
1.3599999999999999
40
0.0068897637795276
0
CIRCLE
8
BLACK
10
2.259999960629921
20
1.3599999999999999
40
0.0068897637795276
0
CIRCLE
8
BLACK
10
2.3600000393700786
20
1.26
40
0.0068897637795276
0
CIRCLE
8
BLACK
10
2.259999960629921
20
1.26
40
0.0068897637795276
0
CIRCLE
8
BLACK
10
2.3999999999999999
20
1.5999999999999999
40
0.0068897637795276
0
CIRCLE
8
BLACK
10
2.3600000393700786
20
1.0600000000000001
40
0.0068897637795276
0
CIRCLE
8
BLACK
10
2.259999960629921
20
1.0600000000000001
40
0.0068897637795276
0
CIRCLE
8
BLACK
10
2.2599999999999998
20
0.89
40
0.0068897637795276
0
CIRCLE
8
BLACK
10
2.3599999999999999
20
0.89
40
0.0068897637795276
0
CIRCLE
8
BLACK
10
2.2599999999999998
20
0.79
40
0.0068897637795276
0
CIRCLE
8
BLACK
10
2.3599999999999999
20
0.79
40
0.0068897637795276
0
CIRCLE
8
BLACK
10
2.2599999999999998
20
0.6899999999999999
40
0.0068897637795276
0
CIRCLE
8
BLACK
10
2.3599999999999999
20
0.6899999999999999
40
0.0068897637795276
0
CIRCLE
8
BLACK
10
2.3600000393700786
20
1.1599999999999999
40
0.0068897637795276
0
CIRCLE
8
BLACK
10
2.259999960629921
20
1.1599999999999999
40
0.0068897637795276
0
CIRCLE
8
BLACK
10
0.439
20
1.
40
0.0068897637795276
0
CIRCLE
8
BLACK
10
0.339
20
1.0999999999999999
40
0.0068897637795276
0
CIRCLE
8
BLACK
10
0.339
20
0.9
40
0.0068897637795276
0
CIRCLE
8
BLACK
10
0.539
20
1.0999999999999999
40
0.0068897637795276
0
CIRCLE
8
BLACK
10
0.539
20
0.9
40
0.0068897637795276
0
CIRCLE
8
BLACK
10
1.6199999999999999
20
1.25
40
0.0068897637795276
0
CIRCLE
8
BLACK
10
1.6199999999999999
20
1.3499999999999999
40
0.0068897637795276
  0
ENDSEC
  0
EOF
