  0
SECTION
  2
HEADER
  9
$ANGBASE
  50
0.0
  9
$ANGDIR
  70
1
  9
$MEASUREMENT
  70
0
  0
ENDSEC
  0
SECTION
  2
TABLES
  0
TABLE
  2
LTYPE
  70
4
  0
LTYPE
  5
40F
  2
CONTINUOUS
  70
0
  3
Solid line
  72
65
  73
0
  40
0.0
  0
LTYPE
  5
410
  2
DASHDOT
 70
0
  3
Dash Dot ____ _ ____ _
 72
65
 73
4
 40
2.0
 49
1.25
 49
-0.25
 49
0.25
 49
-0.25
  0
LTYPE
  5
411
  2
DASHED
 70
0
  3
Dashed __ __ __ __ __
 72
65
 73
2
 40
0.75
 49
0.5
 49
-0.25
  0
LTYPE
  5
43B
  2
DOTTED
 70
0
  3
Dotted .  .  .  .
 72
65
 73
2
 40
0.2
 49
0.0
 49
-0.2
  0
ENDTAB
  0
TABLE
  2
STYLE
  70
4
  0
STYLE
  2
KICAD
  70
0
  40
0
  41
1
  42
1
  50
0
  71
0
  3
isocp.shx
  0
STYLE
  2
KICADB
  70
0
  40
0
  41
1
  42
1
  50
0
  71
0
  3
isocp.shx
  0
STYLE
  2
KICADI
  70
0
  40
0
  41
1
  42
1
  50
15
  71
0
  3
isocp.shx
  0
STYLE
  2
KICADBI
  70
0
  40
0
  41
1
  42
1
  50
15
  71
0
  3
isocp.shx
  0
ENDTAB
  0
TABLE
  2
LAYER
  70
1
  0
LAYER
  2
BLACK
  70
0
  62
7
  6
CONTINUOUS
  0
ENDTAB
  0
ENDSEC
  0
SECTION
  2
ENTITIES
0
LINE
8
BLACK
6
CONTINUOUS
10
2.29
20
0.76
11
2.23
21
0.76
0
LINE
8
BLACK
6
CONTINUOUS
10
2.23
20
0.76
11
2.23
21
0.82
0
LINE
8
BLACK
6
CONTINUOUS
10
2.23
20
0.82
11
2.29
21
0.82
0
LINE
8
BLACK
6
CONTINUOUS
10
2.29
20
0.82
11
2.29
21
0.76
0
LINE
8
BLACK
6
CONTINUOUS
10
2.3900000000000001
20
0.76
11
2.3300000000000001
21
0.76
0
LINE
8
BLACK
6
CONTINUOUS
10
2.3300000000000001
20
0.76
11
2.3300000000000001
21
0.82
0
LINE
8
BLACK
6
CONTINUOUS
10
2.3300000000000001
20
0.82
11
2.3900000000000001
21
0.82
0
LINE
8
BLACK
6
CONTINUOUS
10
2.3900000000000001
20
0.82
11
2.3900000000000001
21
0.76
0
LINE
8
BLACK
6
CONTINUOUS
10
0.450714251968504
20
1.0386166929133858
11
0.4580229133858267
21
1.0355893307086614
0
LINE
8
BLACK
6
CONTINUOUS
10
0.4580229133858267
20
1.0355893307086614
11
0.4646005118110236
21
1.0311943307086613
0
LINE
8
BLACK
6
CONTINUOUS
10
0.4646005118110236
20
1.0311943307086613
11
0.4701943307086614
21
1.0256005118110236
0
LINE
8
BLACK
6
CONTINUOUS
10
0.4701943307086614
20
1.0256005118110236
11
0.4745893307086614
21
1.0190229133858268
0
LINE
8
BLACK
6
CONTINUOUS
10
0.4745893307086614
20
1.0190229133858268
11
0.4776166929133858
21
1.0117142519685038
0
LINE
8
BLACK
6
CONTINUOUS
10
0.4776166929133858
20
1.0117142519685038
11
0.47916
21
1.0039554330708662
0
LINE
8
BLACK
6
CONTINUOUS
10
0.47916
20
1.0039554330708662
11
0.47916
21
0.9960445669291338
0
LINE
8
BLACK
6
CONTINUOUS
10
0.47916
20
0.9960445669291338
11
0.4776166929133858
21
0.988285748031496
0
LINE
8
BLACK
6
CONTINUOUS
10
0.4776166929133858
20
0.988285748031496
11
0.4745893307086614
21
0.9809770866141732
0
LINE
8
BLACK
6
CONTINUOUS
10
0.4745893307086614
20
0.9809770866141732
11
0.4701943307086614
21
0.9743994881889764
0
LINE
8
BLACK
6
CONTINUOUS
10
0.4701943307086614
20
0.9743994881889764
11
0.4646005118110236
21
0.9688056692913386
0
LINE
8
BLACK
6
CONTINUOUS
10
0.4646005118110236
20
0.9688056692913386
11
0.4580229133858267
21
0.9644106692913386
0
LINE
8
BLACK
6
CONTINUOUS
10
0.4580229133858267
20
0.9644106692913386
11
0.450714251968504
21
0.9613833070866141
0
LINE
8
BLACK
6
CONTINUOUS
10
0.450714251968504
20
0.9613833070866141
11
0.4429554330708662
21
0.95984
0
LINE
8
BLACK
6
CONTINUOUS
10
0.4429554330708662
20
0.95984
11
0.4350445669291338
21
0.95984
0
LINE
8
BLACK
6
CONTINUOUS
10
0.4350445669291338
20
0.95984
11
0.427285748031496
21
0.9613833070866141
0
LINE
8
BLACK
6
CONTINUOUS
10
0.427285748031496
20
0.9613833070866141
11
0.4199770866141732
21
0.9644106692913386
0
LINE
8
BLACK
6
CONTINUOUS
10
0.4199770866141732
20
0.9644106692913386
11
0.4133994881889764
21
0.9688056692913386
0
LINE
8
BLACK
6
CONTINUOUS
10
0.4133994881889764
20
0.9688056692913386
11
0.4078056692913385
21
0.9743994881889764
0
LINE
8
BLACK
6
CONTINUOUS
10
0.4078056692913385
20
0.9743994881889764
11
0.4034106692913386
21
0.9809770866141732
0
LINE
8
BLACK
6
CONTINUOUS
10
0.4034106692913386
20
0.9809770866141732
11
0.4003833070866142
21
0.988285748031496
0
LINE
8
BLACK
6
CONTINUOUS
10
0.4003833070866142
20
0.988285748031496
11
0.39884
21
0.9960445669291338
0
LINE
8
BLACK
6
CONTINUOUS
10
0.39884
20
0.9960445669291338
11
0.39884
21
1.0039554330708662
0
LINE
8
BLACK
6
CONTINUOUS
10
0.39884
20
1.0039554330708662
11
0.4003833070866142
21
1.0117142519685038
0
LINE
8
BLACK
6
CONTINUOUS
10
0.4003833070866142
20
1.0117142519685038
11
0.4034106692913386
21
1.0190229133858268
0
LINE
8
BLACK
6
CONTINUOUS
10
0.4034106692913386
20
1.0190229133858268
11
0.4078056692913385
21
1.0256005118110236
0
LINE
8
BLACK
6
CONTINUOUS
10
0.4078056692913385
20
1.0256005118110236
11
0.4133994881889764
21
1.0311943307086613
0
LINE
8
BLACK
6
CONTINUOUS
10
0.4133994881889764
20
1.0311943307086613
11
0.4199770866141732
21
1.0355893307086614
0
LINE
8
BLACK
6
CONTINUOUS
10
0.4199770866141732
20
1.0355893307086614
11
0.427285748031496
21
1.0386166929133858
0
LINE
8
BLACK
6
CONTINUOUS
10
0.427285748031496
20
1.0386166929133858
11
0.4350445669291338
21
1.04016
0
LINE
8
BLACK
6
CONTINUOUS
10
0.4350445669291338
20
1.04016
11
0.4429554330708662
21
1.04016
0
LINE
8
BLACK
6
CONTINUOUS
10
0.4429554330708662
20
1.04016
11
0.450714251968504
21
1.0386166929133858
0
LINE
8
BLACK
6
CONTINUOUS
10
2.2899999606299213
20
1.03
11
2.2299999606299212
21
1.03
0
LINE
8
BLACK
6
CONTINUOUS
10
2.2299999606299212
20
1.03
11
2.2299999606299212
21
1.0900000000000001
0
LINE
8
BLACK
6
CONTINUOUS
10
2.2299999606299212
20
1.0900000000000001
11
2.2899999606299213
21
1.0900000000000001
0
LINE
8
BLACK
6
CONTINUOUS
10
2.2899999606299213
20
1.0900000000000001
11
2.2899999606299213
21
1.03
0
LINE
8
BLACK
6
CONTINUOUS
10
2.3900000393700789
20
1.03
11
2.3300000393700788
21
1.03
0
LINE
8
BLACK
6
CONTINUOUS
10
2.3300000393700788
20
1.03
11
2.3300000393700788
21
1.0900000000000001
0
LINE
8
BLACK
6
CONTINUOUS
10
2.3300000393700788
20
1.0900000000000001
11
2.3900000393700789
21
1.0900000000000001
0
LINE
8
BLACK
6
CONTINUOUS
10
2.3900000393700789
20
1.0900000000000001
11
2.3900000393700789
21
1.03
0
LINE
8
BLACK
6
CONTINUOUS
10
2.2899999606299213
20
1.1299999999999999
11
2.2299999606299212
21
1.1299999999999999
0
LINE
8
BLACK
6
CONTINUOUS
10
2.2299999606299212
20
1.1299999999999999
11
2.2299999606299212
21
1.1899999999999999
0
LINE
8
BLACK
6
CONTINUOUS
10
2.2299999606299212
20
1.1899999999999999
11
2.2899999606299213
21
1.1899999999999999
0
LINE
8
BLACK
6
CONTINUOUS
10
2.2899999606299213
20
1.1899999999999999
11
2.2899999606299213
21
1.1299999999999999
0
LINE
8
BLACK
6
CONTINUOUS
10
2.3900000393700789
20
1.1299999999999999
11
2.3300000393700788
21
1.1299999999999999
0
LINE
8
BLACK
6
CONTINUOUS
10
2.3300000393700788
20
1.1299999999999999
11
2.3300000393700788
21
1.1899999999999999
0
LINE
8
BLACK
6
CONTINUOUS
10
2.3300000393700788
20
1.1899999999999999
11
2.3900000393700789
21
1.1899999999999999
0
LINE
8
BLACK
6
CONTINUOUS
10
2.3900000393700789
20
1.1899999999999999
11
2.3900000393700789
21
1.1299999999999999
0
LINE
8
BLACK
6
CONTINUOUS
10
1.6499999999999999
20
1.22
11
1.5899999999999999
21
1.22
0
LINE
8
BLACK
6
CONTINUOUS
10
1.5899999999999999
20
1.22
11
1.5899999999999999
21
1.28
0
LINE
8
BLACK
6
CONTINUOUS
10
1.5899999999999999
20
1.28
11
1.6499999999999999
21
1.28
0
LINE
8
BLACK
6
CONTINUOUS
10
1.6499999999999999
20
1.28
11
1.6499999999999999
21
1.22
0
LINE
8
BLACK
6
CONTINUOUS
10
2.2899999606299213
20
1.23
11
2.2299999606299212
21
1.23
0
LINE
8
BLACK
6
CONTINUOUS
10
2.2299999606299212
20
1.23
11
2.2299999606299212
21
1.29
0
LINE
8
BLACK
6
CONTINUOUS
10
2.2299999606299212
20
1.29
11
2.2899999606299213
21
1.29
0
LINE
8
BLACK
6
CONTINUOUS
10
2.2899999606299213
20
1.29
11
2.2899999606299213
21
1.23
0
LINE
8
BLACK
6
CONTINUOUS
10
2.3900000393700789
20
1.23
11
2.3300000393700788
21
1.23
0
LINE
8
BLACK
6
CONTINUOUS
10
2.3300000393700788
20
1.23
11
2.3300000393700788
21
1.29
0
LINE
8
BLACK
6
CONTINUOUS
10
2.3300000393700788
20
1.29
11
2.3900000393700789
21
1.29
0
LINE
8
BLACK
6
CONTINUOUS
10
2.3900000393700789
20
1.29
11
2.3900000393700789
21
1.23
0
LINE
8
BLACK
6
CONTINUOUS
10
1.6499999999999999
20
1.3200000000000001
11
1.5899999999999999
21
1.3200000000000001
0
LINE
8
BLACK
6
CONTINUOUS
10
1.5899999999999999
20
1.3200000000000001
11
1.5899999999999999
21
1.3799999999999999
0
LINE
8
BLACK
6
CONTINUOUS
10
1.5899999999999999
20
1.3799999999999999
11
1.6499999999999999
21
1.3799999999999999
0
LINE
8
BLACK
6
CONTINUOUS
10
1.6499999999999999
20
1.3799999999999999
11
1.6499999999999999
21
1.3200000000000001
0
LINE
8
BLACK
6
CONTINUOUS
10
2.2899999606299213
20
1.3300000000000001
11
2.2299999606299212
21
1.3300000000000001
0
LINE
8
BLACK
6
CONTINUOUS
10
2.2299999606299212
20
1.3300000000000001
11
2.2299999606299212
21
1.3899999999999999
0
LINE
8
BLACK
6
CONTINUOUS
10
2.2299999606299212
20
1.3899999999999999
11
2.2899999606299213
21
1.3899999999999999
0
LINE
8
BLACK
6
CONTINUOUS
10
2.2899999606299213
20
1.3899999999999999
11
2.2899999606299213
21
1.3300000000000001
0
LINE
8
BLACK
6
CONTINUOUS
10
2.3900000393700789
20
1.3300000000000001
11
2.3300000393700788
21
1.3300000000000001
0
LINE
8
BLACK
6
CONTINUOUS
10
2.3300000393700788
20
1.3300000000000001
11
2.3300000393700788
21
1.3899999999999999
0
LINE
8
BLACK
6
CONTINUOUS
10
2.3300000393700788
20
1.3899999999999999
11
2.3900000393700789
21
1.3899999999999999
0
LINE
8
BLACK
6
CONTINUOUS
10
2.3900000393700789
20
1.3899999999999999
11
2.3900000393700789
21
1.3300000000000001
0
LINE
8
BLACK
6
CONTINUOUS
10
2.5877377559055117
20
1.78920531496063
11
2.5895391338582678
21
1.7871264173228345
0
LINE
8
BLACK
6
CONTINUOUS
10
2.5895391338582678
20
1.7871264173228345
11
2.5899803149606297
21
1.7850984251968502
0
LINE
8
BLACK
6
CONTINUOUS
10
2.5899803149606297
20
1.7850984251968502
11
2.5899803149606297
21
0.2149015748031496
0
LINE
8
BLACK
6
CONTINUOUS
10
2.5899803149606297
20
0.2149015748031496
11
2.5892053149606298
21
0.2122622440944882
0
LINE
8
BLACK
6
CONTINUOUS
10
2.5892053149606298
20
0.2122622440944882
11
2.5871264173228345
21
0.2104608661417323
0
LINE
8
BLACK
6
CONTINUOUS
10
2.5871264173228345
20
0.2104608661417323
11
2.5850984251968505
21
0.2100196850393701
0
LINE
8
BLACK
6
CONTINUOUS
10
2.5850984251968505
20
0.2100196850393701
11
0.2149015748031496
21
0.2100196850393701
0
LINE
8
BLACK
6
CONTINUOUS
10
0.2149015748031496
20
0.2100196850393701
11
0.2122622440944882
21
0.2107946850393701
0
LINE
8
BLACK
6
CONTINUOUS
10
0.2122622440944882
20
0.2107946850393701
11
0.2104608661417323
21
0.2128735826771654
0
LINE
8
BLACK
6
CONTINUOUS
10
0.2104608661417323
20
0.2128735826771654
11
0.2100196850393701
21
0.2149015748031496
0
LINE
8
BLACK
6
CONTINUOUS
10
0.2100196850393701
20
0.2149015748031496
11
0.2100196850393701
21
0.7218836614173229
0
LINE
8
BLACK
6
CONTINUOUS
10
0.2100196850393701
20
0.7218836614173229
11
0.2100196850393701
21
0.8207776771653543
0
LINE
8
BLACK
6
CONTINUOUS
10
0.2100196850393701
20
0.8207776771653543
11
0.2100196850393701
21
0.9050350393700787
0
LINE
8
BLACK
6
CONTINUOUS
10
0.2100196850393701
20
0.9050350393700787
11
0.2100196850393701
21
1.0037972047244095
0
LINE
8
BLACK
6
CONTINUOUS
10
0.2100196850393701
20
1.0037972047244095
11
0.2100196850393701
21
1.1050350393700787
0
LINE
8
BLACK
6
CONTINUOUS
10
0.2100196850393701
20
1.1050350393700787
11
0.2100196850393701
21
1.1907776771653542
0
LINE
8
BLACK
6
CONTINUOUS
10
0.2100196850393701
20
1.1907776771653542
11
0.2100196850393701
21
1.2807776771653543
0
LINE
8
BLACK
6
CONTINUOUS
10
0.2100196850393701
20
1.2807776771653543
11
0.2100196850393701
21
1.2907776771653543
0
LINE
8
BLACK
6
CONTINUOUS
10
0.2100196850393701
20
1.2907776771653543
11
0.2100196850393701
21
1.3807776771653544
0
LINE
8
BLACK
6
CONTINUOUS
10
0.2100196850393701
20
1.3807776771653544
11
0.2100196850393701
21
1.3907776771653544
0
LINE
8
BLACK
6
CONTINUOUS
10
0.2100196850393701
20
1.3907776771653544
11
0.2100196850393701
21
1.7850984251968502
0
LINE
8
BLACK
6
CONTINUOUS
10
0.2100196850393701
20
1.7850984251968502
11
0.2107946850393701
21
1.7877377559055119
0
LINE
8
BLACK
6
CONTINUOUS
10
0.2107946850393701
20
1.7877377559055119
11
0.2128735826771654
21
1.7895391338582676
0
LINE
8
BLACK
6
CONTINUOUS
10
0.2128735826771654
20
1.7895391338582676
11
0.2149015748031496
21
1.7899803149606299
0
LINE
8
BLACK
6
CONTINUOUS
10
0.2149015748031496
20
1.7899803149606299
11
2.5850984251968505
21
1.7899803149606299
0
LINE
8
BLACK
6
CONTINUOUS
10
2.5850984251968505
20
1.7899803149606299
11
2.5877377559055117
21
1.78920531496063
0
LINE
8
BLACK
6
CONTINUOUS
10
2.2103149606299213
20
0.6801574803149606
11
2.2103149606299213
21
0.6581163779527559
0
LINE
8
BLACK
6
CONTINUOUS
10
2.2103149606299213
20
0.6581163779527559
11
2.2105669685039371
21
0.6557727559055118
0
LINE
8
BLACK
6
CONTINUOUS
10
2.2105669685039371
20
0.6557727559055118
11
2.2105670472440946
21
0.6557724803149606
0
LINE
8
BLACK
6
CONTINUOUS
10
2.2105670472440946
20
0.6557724803149606
11
2.2125450787401575
21
0.6504690551181103
0
LINE
8
BLACK
6
CONTINUOUS
10
2.2125450787401575
20
0.6504690551181103
11
2.2125452362204725
21
0.650468779527559
0
LINE
8
BLACK
6
CONTINUOUS
10
2.2125452362204725
20
0.650468779527559
11
2.2159373622047243
21
0.6459375196850393
0
LINE
8
BLACK
6
CONTINUOUS
10
2.2159373622047243
20
0.6459375196850393
11
2.2159374803149605
21
0.6459374015748032
0
LINE
8
BLACK
6
CONTINUOUS
10
2.2159374803149605
20
0.6459374015748032
11
2.2204687401574801
21
0.6425452755905512
0
LINE
8
BLACK
6
CONTINUOUS
10
2.2204687401574801
20
0.6425452755905512
11
2.2204690157480313
21
0.6425451181102362
0
LINE
8
BLACK
6
CONTINUOUS
10
2.2204690157480313
20
0.6425451181102362
11
2.225772440944882
21
0.6405670866141732
0
LINE
8
BLACK
6
CONTINUOUS
10
2.225772440944882
20
0.6405670866141732
11
2.2257727165354328
21
0.6405670078740158
0
LINE
8
BLACK
6
CONTINUOUS
10
2.2257727165354328
20
0.6405670078740158
11
2.228116338582677
21
0.640315
0
LINE
8
BLACK
6
CONTINUOUS
10
2.228116338582677
20
0.640315
11
2.2281170078740158
21
0.6403149606299212
0
LINE
8
BLACK
6
CONTINUOUS
10
2.2281170078740158
20
0.6403149606299212
11
2.2501574803149604
21
0.6403149606299212
0
LINE
8
BLACK
6
CONTINUOUS
10
2.2501574803149604
20
0.6403149606299212
11
2.2501574803149604
21
0.66
0
LINE
8
BLACK
6
CONTINUOUS
10
2.2501574803149604
20
0.66
11
2.23
21
0.66
0
LINE
8
BLACK
6
CONTINUOUS
10
2.23
20
0.66
11
2.23
21
0.6801574803149606
0
LINE
8
BLACK
6
CONTINUOUS
10
2.23
20
0.6801574803149606
11
2.2103149606299213
21
0.6801574803149606
0
LINE
8
BLACK
6
CONTINUOUS
10
2.29
20
0.6801574803149606
11
2.29
21
0.66
0
LINE
8
BLACK
6
CONTINUOUS
10
2.29
20
0.66
11
2.2698425196850391
21
0.66
0
LINE
8
BLACK
6
CONTINUOUS
10
2.2698425196850391
20
0.66
11
2.2698425196850391
21
0.6403149606299212
0
LINE
8
BLACK
6
CONTINUOUS
10
2.2698425196850391
20
0.6403149606299212
11
2.2918829921259842
21
0.6403149606299212
0
LINE
8
BLACK
6
CONTINUOUS
10
2.2918829921259842
20
0.6403149606299212
11
2.2918836220472438
21
0.640315
0
LINE
8
BLACK
6
CONTINUOUS
10
2.2918836220472438
20
0.640315
11
2.294227244094488
21
0.6405670078740158
0
LINE
8
BLACK
6
CONTINUOUS
10
2.294227244094488
20
0.6405670078740158
11
2.2942275196850392
21
0.6405670866141732
0
LINE
8
BLACK
6
CONTINUOUS
10
2.2942275196850392
20
0.6405670866141732
11
2.2995309448818899
21
0.6425451181102362
0
LINE
8
BLACK
6
CONTINUOUS
10
2.2995309448818899
20
0.6425451181102362
11
2.2995312204724407
21
0.6425452755905512
0
LINE
8
BLACK
6
CONTINUOUS
10
2.2995312204724407
20
0.6425452755905512
11
2.304062440944882
21
0.6459373622047244
0
LINE
8
BLACK
6
CONTINUOUS
10
2.304062440944882
20
0.6459373622047244
11
2.3060918503937007
21
0.6486482677165354
0
LINE
8
BLACK
6
CONTINUOUS
10
2.3060918503937007
20
0.6486482677165354
11
2.3082939763779526
21
0.6502967322834645
0
LINE
8
BLACK
6
CONTINUOUS
10
2.3082939763779526
20
0.6502967322834645
11
2.3110377559055117
21
0.6504929527559055
0
LINE
8
BLACK
6
CONTINUOUS
10
2.3110377559055117
20
0.6504929527559055
11
2.3134520472440943
21
0.6491746456692913
0
LINE
8
BLACK
6
CONTINUOUS
10
2.3134520472440943
20
0.6491746456692913
11
2.313908149606299
21
0.6486482677165354
0
LINE
8
BLACK
6
CONTINUOUS
10
2.313908149606299
20
0.6486482677165354
11
2.3159375196850394
21
0.6459373622047244
0
LINE
8
BLACK
6
CONTINUOUS
10
2.3159375196850394
20
0.6459373622047244
11
2.3204687401574802
21
0.6425452755905512
0
LINE
8
BLACK
6
CONTINUOUS
10
2.3204687401574802
20
0.6425452755905512
11
2.3204690157480314
21
0.6425451181102362
0
LINE
8
BLACK
6
CONTINUOUS
10
2.3204690157480314
20
0.6425451181102362
11
2.3257724409448817
21
0.6405670866141732
0
LINE
8
BLACK
6
CONTINUOUS
10
2.3257724409448817
20
0.6405670866141732
11
2.3257727165354329
21
0.6405670078740158
0
LINE
8
BLACK
6
CONTINUOUS
10
2.3257727165354329
20
0.6405670078740158
11
2.3281163385826771
21
0.640315
0
LINE
8
BLACK
6
CONTINUOUS
10
2.3281163385826771
20
0.640315
11
2.3281170078740159
21
0.6403149606299212
0
LINE
8
BLACK
6
CONTINUOUS
10
2.3281170078740159
20
0.6403149606299212
11
2.3501574803149605
21
0.6403149606299212
0
LINE
8
BLACK
6
CONTINUOUS
10
2.3501574803149605
20
0.6403149606299212
11
2.3501574803149605
21
0.66
0
LINE
8
BLACK
6
CONTINUOUS
10
2.3501574803149605
20
0.66
11
2.3300000000000001
21
0.66
0
LINE
8
BLACK
6
CONTINUOUS
10
2.3300000000000001
20
0.66
11
2.3300000000000001
21
0.6801574803149606
0
LINE
8
BLACK
6
CONTINUOUS
10
2.3300000000000001
20
0.6801574803149606
11
2.29
21
0.6801574803149606
0
LINE
8
BLACK
6
CONTINUOUS
10
2.3900000000000001
20
0.66
11
2.3698425196850392
21
0.66
0
LINE
8
BLACK
6
CONTINUOUS
10
2.3698425196850392
20
0.66
11
2.3698425196850392
21
0.6403149606299212
0
LINE
8
BLACK
6
CONTINUOUS
10
2.3698425196850392
20
0.6403149606299212
11
2.3918829921259843
21
0.6403149606299212
0
LINE
8
BLACK
6
CONTINUOUS
10
2.3918829921259843
20
0.6403149606299212
11
2.3918836220472439
21
0.640315
0
LINE
8
BLACK
6
CONTINUOUS
10
2.3918836220472439
20
0.640315
11
2.3942272440944881
21
0.6405670078740158
0
LINE
8
BLACK
6
CONTINUOUS
10
2.3942272440944881
20
0.6405670078740158
11
2.3942275196850393
21
0.6405670866141732
0
LINE
8
BLACK
6
CONTINUOUS
10
2.3942275196850393
20
0.6405670866141732
11
2.3995309448818896
21
0.6425451181102362
0
LINE
8
BLACK
6
CONTINUOUS
10
2.3995309448818896
20
0.6425451181102362
11
2.3995312204724408
21
0.6425452755905512
0
LINE
8
BLACK
6
CONTINUOUS
10
2.3995312204724408
20
0.6425452755905512
11
2.4040624803149604
21
0.6459374015748032
0
LINE
8
BLACK
6
CONTINUOUS
10
2.4040624803149604
20
0.6459374015748032
11
2.4040625984251967
21
0.6459375196850393
0
LINE
8
BLACK
6
CONTINUOUS
10
2.4040625984251967
20
0.6459375196850393
11
2.4074547244094489
21
0.650468779527559
0
LINE
8
BLACK
6
CONTINUOUS
10
2.4074547244094489
20
0.650468779527559
11
2.4074548818897639
21
0.6504690551181103
0
LINE
8
BLACK
6
CONTINUOUS
10
2.4074548818897639
20
0.6504690551181103
11
2.4094329133858268
21
0.6557724803149606
0
LINE
8
BLACK
6
CONTINUOUS
10
2.4094329133858268
20
0.6557724803149606
11
2.4094329921259843
21
0.6557727559055118
0
LINE
8
BLACK
6
CONTINUOUS
10
2.4094329921259843
20
0.6557727559055118
11
2.4096850000000001
21
0.6581163779527559
0
LINE
8
BLACK
6
CONTINUOUS
10
2.4096850000000001
20
0.6581163779527559
11
2.4096850393700788
21
0.6581170472440945
0
LINE
8
BLACK
6
CONTINUOUS
10
2.4096850393700788
20
0.6581170472440945
11
2.4096850393700788
21
0.6801574803149606
0
LINE
8
BLACK
6
CONTINUOUS
10
2.4096850393700788
20
0.6801574803149606
11
2.3900000000000001
21
0.6801574803149606
0
LINE
8
BLACK
6
CONTINUOUS
10
2.3900000000000001
20
0.6801574803149606
11
2.3900000000000001
21
0.66
0
LINE
8
BLACK
6
CONTINUOUS
10
2.3698425196850392
20
0.72
11
2.3900000000000001
21
0.72
0
LINE
8
BLACK
6
CONTINUOUS
10
2.3900000000000001
20
0.72
11
2.3900000000000001
21
0.6998425196850393
0
LINE
8
BLACK
6
CONTINUOUS
10
2.3900000000000001
20
0.6998425196850393
11
2.4096850393700788
21
0.6998425196850393
0
LINE
8
BLACK
6
CONTINUOUS
10
2.4096850393700788
20
0.6998425196850393
11
2.4096850393700788
21
0.7218829921259843
0
LINE
8
BLACK
6
CONTINUOUS
10
2.4096850393700788
20
0.7218829921259843
11
2.4096850000000001
21
0.7218836614173229
0
LINE
8
BLACK
6
CONTINUOUS
10
2.4096850000000001
20
0.7218836614173229
11
2.4094329921259843
21
0.7242272834645669
0
LINE
8
BLACK
6
CONTINUOUS
10
2.4094329921259843
20
0.7242272834645669
11
2.4094329133858268
21
0.724227559055118
0
LINE
8
BLACK
6
CONTINUOUS
10
2.4094329133858268
20
0.724227559055118
11
2.4074548818897639
21
0.7295309842519685
0
LINE
8
BLACK
6
CONTINUOUS
10
2.4074548818897639
20
0.7295309842519685
11
2.4074547244094489
21
0.7295312598425197
0
LINE
8
BLACK
6
CONTINUOUS
10
2.4074547244094489
20
0.7295312598425197
11
2.4040625984251967
21
0.7340625196850393
0
LINE
8
BLACK
6
CONTINUOUS
10
2.4040625984251967
20
0.7340625196850393
11
2.4040624803149604
21
0.7340626377952756
0
LINE
8
BLACK
6
CONTINUOUS
10
2.4040624803149604
20
0.7340626377952756
11
2.3995312204724408
21
0.7374547637795276
0
LINE
8
BLACK
6
CONTINUOUS
10
2.3995312204724408
20
0.7374547637795276
11
2.3995309448818896
21
0.7374549212598425
0
LINE
8
BLACK
6
CONTINUOUS
10
2.3995309448818896
20
0.7374549212598425
11
2.3942275196850393
21
0.7394329527559055
0
LINE
8
BLACK
6
CONTINUOUS
10
2.3942275196850393
20
0.7394329527559055
11
2.3942272440944881
21
0.739433031496063
0
LINE
8
BLACK
6
CONTINUOUS
10
2.3942272440944881
20
0.739433031496063
11
2.3918836220472439
21
0.7396850393700787
0
LINE
8
BLACK
6
CONTINUOUS
10
2.3918836220472439
20
0.7396850393700787
11
2.3698425196850392
21
0.7396850393700787
0
LINE
8
BLACK
6
CONTINUOUS
10
2.3698425196850392
20
0.7396850393700787
11
2.3698425196850392
21
0.72
0
LINE
8
BLACK
6
CONTINUOUS
10
2.2698425196850391
20
0.72
11
2.29
21
0.72
0
LINE
8
BLACK
6
CONTINUOUS
10
2.29
20
0.72
11
2.29
21
0.6998425196850393
0
LINE
8
BLACK
6
CONTINUOUS
10
2.29
20
0.6998425196850393
11
2.3300000000000001
21
0.6998425196850393
0
LINE
8
BLACK
6
CONTINUOUS
10
2.3300000000000001
20
0.6998425196850393
11
2.3300000000000001
21
0.72
0
LINE
8
BLACK
6
CONTINUOUS
10
2.3300000000000001
20
0.72
11
2.3501574803149605
21
0.72
0
LINE
8
BLACK
6
CONTINUOUS
10
2.3501574803149605
20
0.72
11
2.3501574803149605
21
0.7396850393700787
0
LINE
8
BLACK
6
CONTINUOUS
10
2.3501574803149605
20
0.7396850393700787
11
2.3281163385826771
21
0.7396850393700787
0
LINE
8
BLACK
6
CONTINUOUS
10
2.3281163385826771
20
0.7396850393700787
11
2.3257727165354329
21
0.739433031496063
0
LINE
8
BLACK
6
CONTINUOUS
10
2.3257727165354329
20
0.739433031496063
11
2.3257724409448817
21
0.7394329527559055
0
LINE
8
BLACK
6
CONTINUOUS
10
2.3257724409448817
20
0.7394329527559055
11
2.3204690157480314
21
0.7374549212598425
0
LINE
8
BLACK
6
CONTINUOUS
10
2.3204690157480314
20
0.7374549212598425
11
2.3204687401574802
21
0.7374547637795276
0
LINE
8
BLACK
6
CONTINUOUS
10
2.3204687401574802
20
0.7374547637795276
11
2.3159374803149606
21
0.7340626377952756
0
LINE
8
BLACK
6
CONTINUOUS
10
2.3159374803149606
20
0.7340626377952756
11
2.3139081102362202
21
0.7313517322834645
0
LINE
8
BLACK
6
CONTINUOUS
10
2.3139081102362202
20
0.7313517322834645
11
2.3117059842519683
21
0.7297033070866141
0
LINE
8
BLACK
6
CONTINUOUS
10
2.3117059842519683
20
0.7297033070866141
11
2.3089622440944879
21
0.7295070866141732
0
LINE
8
BLACK
6
CONTINUOUS
10
2.3089622440944879
20
0.7295070866141732
11
2.3065479527559054
21
0.7308254330708661
0
LINE
8
BLACK
6
CONTINUOUS
10
2.3065479527559054
20
0.7308254330708661
11
2.3060918897637794
21
0.7313517322834645
0
LINE
8
BLACK
6
CONTINUOUS
10
2.3060918897637794
20
0.7313517322834645
11
2.3040624803149607
21
0.7340626377952756
0
LINE
8
BLACK
6
CONTINUOUS
10
2.3040624803149607
20
0.7340626377952756
11
2.2995312204724407
21
0.7374547637795276
0
LINE
8
BLACK
6
CONTINUOUS
10
2.2995312204724407
20
0.7374547637795276
11
2.2995309448818899
21
0.7374549212598425
0
LINE
8
BLACK
6
CONTINUOUS
10
2.2995309448818899
20
0.7374549212598425
11
2.2942275196850392
21
0.7394329527559055
0
LINE
8
BLACK
6
CONTINUOUS
10
2.2942275196850392
20
0.7394329527559055
11
2.294227244094488
21
0.739433031496063
0
LINE
8
BLACK
6
CONTINUOUS
10
2.294227244094488
20
0.739433031496063
11
2.2918836220472438
21
0.7396850393700787
0
LINE
8
BLACK
6
CONTINUOUS
10
2.2918836220472438
20
0.7396850393700787
11
2.2698425196850391
21
0.7396850393700787
0
LINE
8
BLACK
6
CONTINUOUS
10
2.2698425196850391
20
0.7396850393700787
11
2.2698425196850391
21
0.72
0
LINE
8
BLACK
6
CONTINUOUS
10
2.2257727165354328
20
0.739433031496063
11
2.225772440944882
21
0.7394329527559055
0
LINE
8
BLACK
6
CONTINUOUS
10
2.225772440944882
20
0.7394329527559055
11
2.2204690157480313
21
0.7374549212598425
0
LINE
8
BLACK
6
CONTINUOUS
10
2.2204690157480313
20
0.7374549212598425
11
2.2204687401574801
21
0.7374547637795276
0
LINE
8
BLACK
6
CONTINUOUS
10
2.2204687401574801
20
0.7374547637795276
11
2.2159374803149605
21
0.7340626377952756
0
LINE
8
BLACK
6
CONTINUOUS
10
2.2159374803149605
20
0.7340626377952756
11
2.2159373622047243
21
0.7340625196850393
0
LINE
8
BLACK
6
CONTINUOUS
10
2.2159373622047243
20
0.7340625196850393
11
2.2125452362204725
21
0.7295312598425197
0
LINE
8
BLACK
6
CONTINUOUS
10
2.2125452362204725
20
0.7295312598425197
11
2.2125450787401575
21
0.7295309842519685
0
LINE
8
BLACK
6
CONTINUOUS
10
2.2125450787401575
20
0.7295309842519685
11
2.2105670472440946
21
0.724227559055118
0
LINE
8
BLACK
6
CONTINUOUS
10
2.2105670472440946
20
0.724227559055118
11
2.2105669685039371
21
0.7242272834645669
0
LINE
8
BLACK
6
CONTINUOUS
10
2.2105669685039371
20
0.7242272834645669
11
2.2103149606299213
21
0.7218836614173229
0
LINE
8
BLACK
6
CONTINUOUS
10
2.2103149606299213
20
0.7218836614173229
11
2.2103149606299213
21
0.6998425196850393
0
LINE
8
BLACK
6
CONTINUOUS
10
2.2103149606299213
20
0.6998425196850393
11
2.23
21
0.6998425196850393
0
LINE
8
BLACK
6
CONTINUOUS
10
2.23
20
0.6998425196850393
11
2.23
21
0.72
0
LINE
8
BLACK
6
CONTINUOUS
10
2.23
20
0.72
11
2.2501574803149604
21
0.72
0
LINE
8
BLACK
6
CONTINUOUS
10
2.2501574803149604
20
0.72
11
2.2501574803149604
21
0.7396850393700787
0
LINE
8
BLACK
6
CONTINUOUS
10
2.2501574803149604
20
0.7396850393700787
11
2.228116338582677
21
0.7396850393700787
0
LINE
8
BLACK
6
CONTINUOUS
10
2.228116338582677
20
0.7396850393700787
11
2.2257727165354328
21
0.739433031496063
0
LINE
8
BLACK
6
CONTINUOUS
10
2.2221062992125984
20
0.7592223622047244
11
2.2225642125984253
21
0.7569201181102362
0
LINE
8
BLACK
6
CONTINUOUS
10
2.2225642125984253
20
0.7569201181102362
11
2.222564251968504
21
0.7569200787401574
0
LINE
8
BLACK
6
CONTINUOUS
10
2.222564251968504
20
0.7569200787401574
11
2.2243089370078741
21
0.7543089763779527
0
LINE
8
BLACK
6
CONTINUOUS
10
2.2243089370078741
20
0.7543089763779527
11
2.2269200393700785
21
0.7525642913385827
0
LINE
8
BLACK
6
CONTINUOUS
10
2.2269200393700785
20
0.7525642913385827
11
2.2269200787401573
21
0.752564251968504
0
LINE
8
BLACK
6
CONTINUOUS
10
2.2269200787401573
20
0.752564251968504
11
2.2292223228346457
21
0.7521063385826772
0
LINE
8
BLACK
6
CONTINUOUS
10
2.2292223228346457
20
0.7521063385826772
11
2.229222440944882
21
0.7521062992125984
0
LINE
8
BLACK
6
CONTINUOUS
10
2.229222440944882
20
0.7521062992125984
11
2.2292225196850395
21
0.7521062992125984
0
LINE
8
BLACK
6
CONTINUOUS
10
2.2292225196850395
20
0.7521062992125984
11
2.290777559055118
21
0.7521062992125984
0
LINE
8
BLACK
6
CONTINUOUS
10
2.290777559055118
20
0.7521062992125984
11
2.2907775984251968
21
0.7521063385826772
0
LINE
8
BLACK
6
CONTINUOUS
10
2.2907775984251968
20
0.7521063385826772
11
2.2913609448818897
21
0.7522223622047244
0
LINE
8
BLACK
6
CONTINUOUS
10
2.2913609448818897
20
0.7522223622047244
11
2.2930798818897635
21
0.752564251968504
0
LINE
8
BLACK
6
CONTINUOUS
10
2.2930798818897635
20
0.752564251968504
11
2.2930798818897635
21
0.7525642913385827
0
LINE
8
BLACK
6
CONTINUOUS
10
2.2930798818897635
20
0.7525642913385827
11
2.293079960629921
21
0.7525642913385827
0
LINE
8
BLACK
6
CONTINUOUS
10
2.293079960629921
20
0.7525642913385827
11
2.2956910236220471
21
0.7543089763779527
0
LINE
8
BLACK
6
CONTINUOUS
10
2.2956910236220471
20
0.7543089763779527
11
2.2974357086614172
21
0.7569200393700787
0
LINE
8
BLACK
6
CONTINUOUS
10
2.2974357086614172
20
0.7569200393700787
11
2.2974357086614172
21
0.7569201181102362
0
LINE
8
BLACK
6
CONTINUOUS
10
2.2974357086614172
20
0.7569201181102362
11
2.297435748031496
21
0.7569201181102362
0
LINE
8
BLACK
6
CONTINUOUS
10
2.297435748031496
20
0.7569201181102362
11
2.2978936614173229
21
0.7592223622047244
0
LINE
8
BLACK
6
CONTINUOUS
10
2.2978936614173229
20
0.7592223622047244
11
2.2978937007874016
21
0.7592224409448819
0
LINE
8
BLACK
6
CONTINUOUS
10
2.2978937007874016
20
0.7592224409448819
11
2.2978937007874016
21
0.8207775984251968
0
LINE
8
BLACK
6
CONTINUOUS
10
2.2978937007874016
20
0.8207775984251968
11
2.2978936614173229
21
0.8207776771653543
0
LINE
8
BLACK
6
CONTINUOUS
10
2.2978936614173229
20
0.8207776771653543
11
2.297435748031496
21
0.8230799212598425
0
LINE
8
BLACK
6
CONTINUOUS
10
2.297435748031496
20
0.8230799212598425
11
2.2974357086614172
21
0.8230799606299213
0
LINE
8
BLACK
6
CONTINUOUS
10
2.2974357086614172
20
0.8230799606299213
11
2.2956910236220471
21
0.8256910629921259
0
LINE
8
BLACK
6
CONTINUOUS
10
2.2956910236220471
20
0.8256910629921259
11
2.2930799212598423
21
0.827435748031496
0
LINE
8
BLACK
6
CONTINUOUS
10
2.2930799212598423
20
0.827435748031496
11
2.2930798818897635
21
0.8274357874015748
0
LINE
8
BLACK
6
CONTINUOUS
10
2.2930798818897635
20
0.8274357874015748
11
2.2907776377952755
21
0.8278937007874015
0
LINE
8
BLACK
6
CONTINUOUS
10
2.2907776377952755
20
0.8278937007874015
11
2.2907774803149605
21
0.8278937007874015
0
LINE
8
BLACK
6
CONTINUOUS
10
2.2907774803149605
20
0.8278937007874015
11
2.2292225196850395
21
0.8278937007874015
0
LINE
8
BLACK
6
CONTINUOUS
10
2.2292225196850395
20
0.8278937007874015
11
2.2292223228346457
21
0.8278937007874015
0
LINE
8
BLACK
6
CONTINUOUS
10
2.2292223228346457
20
0.8278937007874015
11
2.2269200787401573
21
0.8274357874015748
0
LINE
8
BLACK
6
CONTINUOUS
10
2.2269200787401573
20
0.8274357874015748
11
2.2269200393700785
21
0.827435748031496
0
LINE
8
BLACK
6
CONTINUOUS
10
2.2269200393700785
20
0.827435748031496
11
2.2243089370078741
21
0.8256910629921259
0
LINE
8
BLACK
6
CONTINUOUS
10
2.2243089370078741
20
0.8256910629921259
11
2.222564251968504
21
0.8230799606299213
0
LINE
8
BLACK
6
CONTINUOUS
10
2.222564251968504
20
0.8230799606299213
11
2.2225642125984253
21
0.8230799212598425
0
LINE
8
BLACK
6
CONTINUOUS
10
2.2225642125984253
20
0.8230799212598425
11
2.2221062992125984
21
0.8207776771653543
0
LINE
8
BLACK
6
CONTINUOUS
10
2.2221062992125984
20
0.8207776771653543
11
2.2221062992125984
21
0.7592223622047244
0
LINE
8
BLACK
6
CONTINUOUS
10
2.3221062992125985
20
0.7592223622047244
11
2.3225642125984249
21
0.7569201181102362
0
LINE
8
BLACK
6
CONTINUOUS
10
2.3225642125984249
20
0.7569201181102362
11
2.3225642519685037
21
0.7569200787401574
0
LINE
8
BLACK
6
CONTINUOUS
10
2.3225642519685037
20
0.7569200787401574
11
2.3243089370078738
21
0.7543089763779527
0
LINE
8
BLACK
6
CONTINUOUS
10
2.3243089370078738
20
0.7543089763779527
11
2.3269200393700786
21
0.7525642913385827
0
LINE
8
BLACK
6
CONTINUOUS
10
2.3269200393700786
20
0.7525642913385827
11
2.3269200787401574
21
0.752564251968504
0
LINE
8
BLACK
6
CONTINUOUS
10
2.3269200787401574
20
0.752564251968504
11
2.3292223228346458
21
0.7521063385826772
0
LINE
8
BLACK
6
CONTINUOUS
10
2.3292223228346458
20
0.7521063385826772
11
2.3292224409448816
21
0.7521062992125984
0
LINE
8
BLACK
6
CONTINUOUS
10
2.3292224409448816
20
0.7521062992125984
11
2.3292225196850391
21
0.7521062992125984
0
LINE
8
BLACK
6
CONTINUOUS
10
2.3292225196850391
20
0.7521062992125984
11
2.3907775590551181
21
0.7521062992125984
0
LINE
8
BLACK
6
CONTINUOUS
10
2.3907775590551181
20
0.7521062992125984
11
2.3907775984251969
21
0.7521063385826772
0
LINE
8
BLACK
6
CONTINUOUS
10
2.3907775984251969
20
0.7521063385826772
11
2.3913609448818898
21
0.7522223622047244
0
LINE
8
BLACK
6
CONTINUOUS
10
2.3913609448818898
20
0.7522223622047244
11
2.3930798818897636
21
0.752564251968504
0
LINE
8
BLACK
6
CONTINUOUS
10
2.3930798818897636
20
0.752564251968504
11
2.3930798818897636
21
0.7525642913385827
0
LINE
8
BLACK
6
CONTINUOUS
10
2.3930798818897636
20
0.7525642913385827
11
2.3930799606299211
21
0.7525642913385827
0
LINE
8
BLACK
6
CONTINUOUS
10
2.3930799606299211
20
0.7525642913385827
11
2.3956910236220472
21
0.7543089763779527
0
LINE
8
BLACK
6
CONTINUOUS
10
2.3956910236220472
20
0.7543089763779527
11
2.3974357086614173
21
0.7569200393700787
0
LINE
8
BLACK
6
CONTINUOUS
10
2.3974357086614173
20
0.7569200393700787
11
2.3974357086614173
21
0.7569201181102362
0
LINE
8
BLACK
6
CONTINUOUS
10
2.3974357086614173
20
0.7569201181102362
11
2.3974357480314961
21
0.7569201181102362
0
LINE
8
BLACK
6
CONTINUOUS
10
2.3974357480314961
20
0.7569201181102362
11
2.397893661417323
21
0.7592223622047244
0
LINE
8
BLACK
6
CONTINUOUS
10
2.397893661417323
20
0.7592223622047244
11
2.3978937007874017
21
0.7592224409448819
0
LINE
8
BLACK
6
CONTINUOUS
10
2.3978937007874017
20
0.7592224409448819
11
2.3978937007874017
21
0.8207775984251968
0
LINE
8
BLACK
6
CONTINUOUS
10
2.3978937007874017
20
0.8207775984251968
11
2.397893661417323
21
0.8207776771653543
0
LINE
8
BLACK
6
CONTINUOUS
10
2.397893661417323
20
0.8207776771653543
11
2.3974357480314961
21
0.8230799212598425
0
LINE
8
BLACK
6
CONTINUOUS
10
2.3974357480314961
20
0.8230799212598425
11
2.3974357086614173
21
0.8230799606299213
0
LINE
8
BLACK
6
CONTINUOUS
10
2.3974357086614173
20
0.8230799606299213
11
2.3956910236220472
21
0.8256910629921259
0
LINE
8
BLACK
6
CONTINUOUS
10
2.3956910236220472
20
0.8256910629921259
11
2.3930799212598424
21
0.827435748031496
0
LINE
8
BLACK
6
CONTINUOUS
10
2.3930799212598424
20
0.827435748031496
11
2.3930798818897636
21
0.8274357874015748
0
LINE
8
BLACK
6
CONTINUOUS
10
2.3930798818897636
20
0.8274357874015748
11
2.3907776377952756
21
0.8278937007874015
0
LINE
8
BLACK
6
CONTINUOUS
10
2.3907776377952756
20
0.8278937007874015
11
2.3907774803149606
21
0.8278937007874015
0
LINE
8
BLACK
6
CONTINUOUS
10
2.3907774803149606
20
0.8278937007874015
11
2.3292225196850391
21
0.8278937007874015
0
LINE
8
BLACK
6
CONTINUOUS
10
2.3292225196850391
20
0.8278937007874015
11
2.3292223228346458
21
0.8278937007874015
0
LINE
8
BLACK
6
CONTINUOUS
10
2.3292223228346458
20
0.8278937007874015
11
2.3269200787401574
21
0.8274357874015748
0
LINE
8
BLACK
6
CONTINUOUS
10
2.3269200787401574
20
0.8274357874015748
11
2.3269200393700786
21
0.827435748031496
0
LINE
8
BLACK
6
CONTINUOUS
10
2.3269200393700786
20
0.827435748031496
11
2.3243089370078738
21
0.8256910629921259
0
LINE
8
BLACK
6
CONTINUOUS
10
2.3243089370078738
20
0.8256910629921259
11
2.3225642519685037
21
0.8230799606299213
0
LINE
8
BLACK
6
CONTINUOUS
10
2.3225642519685037
20
0.8230799606299213
11
2.3225642125984249
21
0.8230799212598425
0
LINE
8
BLACK
6
CONTINUOUS
10
2.3225642125984249
20
0.8230799212598425
11
2.3221062992125985
21
0.8207776771653543
0
LINE
8
BLACK
6
CONTINUOUS
10
2.3221062992125985
20
0.8207776771653543
11
2.3221062992125985
21
0.7592223622047244
0
LINE
8
BLACK
6
CONTINUOUS
10
0.3621421653543307
20
0.8622354330708661
11
0.3559495669291339
21
0.859080157480315
0
LINE
8
BLACK
6
CONTINUOUS
10
0.3559495669291339
20
0.859080157480315
11
0.3493396062992126
21
0.8569324409448819
0
LINE
8
BLACK
6
CONTINUOUS
10
0.3493396062992126
20
0.8569324409448819
11
0.3424750393700787
21
0.8558451968503937
0
LINE
8
BLACK
6
CONTINUOUS
10
0.3424750393700787
20
0.8558451968503937
11
0.3355249606299213
21
0.8558451968503937
0
LINE
8
BLACK
6
CONTINUOUS
10
0.3355249606299213
20
0.8558451968503937
11
0.3286603937007874
21
0.8569324409448819
0
LINE
8
BLACK
6
CONTINUOUS
10
0.3286603937007874
20
0.8569324409448819
11
0.3220504330708661
21
0.859080157480315
0
LINE
8
BLACK
6
CONTINUOUS
10
0.3220504330708661
20
0.859080157480315
11
0.3158578346456693
21
0.8622354330708661
0
LINE
8
BLACK
6
CONTINUOUS
10
0.3158578346456693
20
0.8622354330708661
11
0.3154505905511811
21
0.8625312992125984
0
LINE
8
BLACK
6
CONTINUOUS
10
0.3154505905511811
20
0.8625312992125984
11
0.3012599212598425
21
0.8483406299212598
0
LINE
8
BLACK
6
CONTINUOUS
10
0.3012599212598425
20
0.8483406299212598
11
0.3054690157480315
21
0.8452825196850393
0
LINE
8
BLACK
6
CONTINUOUS
10
0.3054690157480315
20
0.8452825196850393
11
0.3144415354330709
21
0.840710748031496
0
LINE
8
BLACK
6
CONTINUOUS
10
0.3144415354330709
20
0.840710748031496
11
0.3144416535433071
21
0.8407107086614173
0
LINE
8
BLACK
6
CONTINUOUS
10
0.3144416535433071
20
0.8407107086614173
11
0.3240187401574803
21
0.8375989763779528
0
LINE
8
BLACK
6
CONTINUOUS
10
0.3240187401574803
20
0.8375989763779528
11
0.333965
21
0.8360236220472441
0
LINE
8
BLACK
6
CONTINUOUS
10
0.333965
20
0.8360236220472441
11
0.344035
21
0.8360236220472441
0
LINE
8
BLACK
6
CONTINUOUS
10
0.344035
20
0.8360236220472441
11
0.353981220472441
21
0.8375989763779528
0
LINE
8
BLACK
6
CONTINUOUS
10
0.353981220472441
20
0.8375989763779528
11
0.3635583070866142
21
0.8407107086614173
0
LINE
8
BLACK
6
CONTINUOUS
10
0.3635583070866142
20
0.8407107086614173
11
0.3635584251968504
21
0.840710748031496
0
LINE
8
BLACK
6
CONTINUOUS
10
0.3635584251968504
20
0.840710748031496
11
0.372530905511811
21
0.8452824803149606
0
LINE
8
BLACK
6
CONTINUOUS
10
0.372530905511811
20
0.8452824803149606
11
0.3767399606299213
21
0.8483406299212598
0
LINE
8
BLACK
6
CONTINUOUS
10
0.3767399606299213
20
0.8483406299212598
11
0.37674
21
0.8483406299212598
0
LINE
8
BLACK
6
CONTINUOUS
10
0.37674
20
0.8483406299212598
11
0.3625493307086614
21
0.8625312992125984
0
LINE
8
BLACK
6
CONTINUOUS
10
0.3625493307086614
20
0.8625312992125984
11
0.3621421653543307
21
0.8622354330708661
0
LINE
8
BLACK
6
CONTINUOUS
10
0.5621421653543307
20
0.8622354330708661
11
0.5559495669291339
21
0.859080157480315
0
LINE
8
BLACK
6
CONTINUOUS
10
0.5559495669291339
20
0.859080157480315
11
0.5493396062992126
21
0.8569324409448819
0
LINE
8
BLACK
6
CONTINUOUS
10
0.5493396062992126
20
0.8569324409448819
11
0.5424750393700787
21
0.8558451968503937
0
LINE
8
BLACK
6
CONTINUOUS
10
0.5424750393700787
20
0.8558451968503937
11
0.5355249606299213
21
0.8558451968503937
0
LINE
8
BLACK
6
CONTINUOUS
10
0.5355249606299213
20
0.8558451968503937
11
0.5286603937007874
21
0.8569324409448819
0
LINE
8
BLACK
6
CONTINUOUS
10
0.5286603937007874
20
0.8569324409448819
11
0.5220504330708662
21
0.859080157480315
0
LINE
8
BLACK
6
CONTINUOUS
10
0.5220504330708662
20
0.859080157480315
11
0.5158578346456693
21
0.8622354330708661
0
LINE
8
BLACK
6
CONTINUOUS
10
0.5158578346456693
20
0.8622354330708661
11
0.5154505905511811
21
0.8625312992125984
0
LINE
8
BLACK
6
CONTINUOUS
10
0.5154505905511811
20
0.8625312992125984
11
0.5012599212598425
21
0.8483406299212598
0
LINE
8
BLACK
6
CONTINUOUS
10
0.5012599212598425
20
0.8483406299212598
11
0.5054690157480315
21
0.8452825196850393
0
LINE
8
BLACK
6
CONTINUOUS
10
0.5054690157480315
20
0.8452825196850393
11
0.5144415354330708
21
0.840710748031496
0
LINE
8
BLACK
6
CONTINUOUS
10
0.5144415354330708
20
0.840710748031496
11
0.5144416535433071
21
0.8407107086614173
0
LINE
8
BLACK
6
CONTINUOUS
10
0.5144416535433071
20
0.8407107086614173
11
0.5240187401574803
21
0.8375989763779528
0
LINE
8
BLACK
6
CONTINUOUS
10
0.5240187401574803
20
0.8375989763779528
11
0.533965
21
0.8360236220472441
0
LINE
8
BLACK
6
CONTINUOUS
10
0.533965
20
0.8360236220472441
11
0.5440349999999999
21
0.8360236220472441
0
LINE
8
BLACK
6
CONTINUOUS
10
0.5440349999999999
20
0.8360236220472441
11
0.5539812204724409
21
0.8375989763779528
0
LINE
8
BLACK
6
CONTINUOUS
10
0.5539812204724409
20
0.8375989763779528
11
0.5635583070866141
21
0.8407107086614173
0
LINE
8
BLACK
6
CONTINUOUS
10
0.5635583070866141
20
0.8407107086614173
11
0.5635584251968504
21
0.840710748031496
0
LINE
8
BLACK
6
CONTINUOUS
10
0.5635584251968504
20
0.840710748031496
11
0.572530905511811
21
0.8452824803149606
0
LINE
8
BLACK
6
CONTINUOUS
10
0.572530905511811
20
0.8452824803149606
11
0.5767399606299213
21
0.8483406299212598
0
LINE
8
BLACK
6
CONTINUOUS
10
0.5767399606299213
20
0.8483406299212598
11
0.57674
21
0.8483406299212598
0
LINE
8
BLACK
6
CONTINUOUS
10
0.57674
20
0.8483406299212598
11
0.5625493307086614
21
0.8625312992125984
0
LINE
8
BLACK
6
CONTINUOUS
10
0.5625493307086614
20
0.8625312992125984
11
0.5621421653543307
21
0.8622354330708661
0
LINE
8
BLACK
6
CONTINUOUS
10
2.2103149606299213
20
0.8801574803149607
11
2.2103149606299213
21
0.8581163779527559
0
LINE
8
BLACK
6
CONTINUOUS
10
2.2103149606299213
20
0.8581163779527559
11
2.2105669685039371
21
0.8557727559055118
0
LINE
8
BLACK
6
CONTINUOUS
10
2.2105669685039371
20
0.8557727559055118
11
2.2105670472440946
21
0.8557724803149606
0
LINE
8
BLACK
6
CONTINUOUS
10
2.2105670472440946
20
0.8557724803149606
11
2.2125450787401575
21
0.8504690551181102
0
LINE
8
BLACK
6
CONTINUOUS
10
2.2125450787401575
20
0.8504690551181102
11
2.2125452362204725
21
0.8504687795275591
0
LINE
8
BLACK
6
CONTINUOUS
10
2.2125452362204725
20
0.8504687795275591
11
2.2159373622047243
21
0.8459375196850394
0
LINE
8
BLACK
6
CONTINUOUS
10
2.2159373622047243
20
0.8459375196850394
11
2.2159374803149605
21
0.8459374015748031
0
LINE
8
BLACK
6
CONTINUOUS
10
2.2159374803149605
20
0.8459374015748031
11
2.2204687401574801
21
0.8425452755905511
0
LINE
8
BLACK
6
CONTINUOUS
10
2.2204687401574801
20
0.8425452755905511
11
2.2204690157480313
21
0.8425451181102362
0
LINE
8
BLACK
6
CONTINUOUS
10
2.2204690157480313
20
0.8425451181102362
11
2.225772440944882
21
0.8405670866141732
0
LINE
8
BLACK
6
CONTINUOUS
10
2.225772440944882
20
0.8405670866141732
11
2.2257727165354328
21
0.8405670078740157
0
LINE
8
BLACK
6
CONTINUOUS
10
2.2257727165354328
20
0.8405670078740157
11
2.228116338582677
21
0.840315
0
LINE
8
BLACK
6
CONTINUOUS
10
2.228116338582677
20
0.840315
11
2.2281170078740158
21
0.8403149606299213
0
LINE
8
BLACK
6
CONTINUOUS
10
2.2281170078740158
20
0.8403149606299213
11
2.2501574803149604
21
0.8403149606299213
0
LINE
8
BLACK
6
CONTINUOUS
10
2.2501574803149604
20
0.8403149606299213
11
2.2501574803149604
21
0.86
0
LINE
8
BLACK
6
CONTINUOUS
10
2.2501574803149604
20
0.86
11
2.23
21
0.86
0
LINE
8
BLACK
6
CONTINUOUS
10
2.23
20
0.86
11
2.23
21
0.8801574803149607
0
LINE
8
BLACK
6
CONTINUOUS
10
2.23
20
0.8801574803149607
11
2.2103149606299213
21
0.8801574803149607
0
LINE
8
BLACK
6
CONTINUOUS
10
2.29
20
0.8801574803149607
11
2.29
21
0.86
0
LINE
8
BLACK
6
CONTINUOUS
10
2.29
20
0.86
11
2.2698425196850391
21
0.86
0
LINE
8
BLACK
6
CONTINUOUS
10
2.2698425196850391
20
0.86
11
2.2698425196850391
21
0.8403149606299213
0
LINE
8
BLACK
6
CONTINUOUS
10
2.2698425196850391
20
0.8403149606299213
11
2.2918829921259842
21
0.8403149606299213
0
LINE
8
BLACK
6
CONTINUOUS
10
2.2918829921259842
20
0.8403149606299213
11
2.2918836220472438
21
0.840315
0
LINE
8
BLACK
6
CONTINUOUS
10
2.2918836220472438
20
0.840315
11
2.294227244094488
21
0.8405670078740157
0
LINE
8
BLACK
6
CONTINUOUS
10
2.294227244094488
20
0.8405670078740157
11
2.2942275196850392
21
0.8405670866141732
0
LINE
8
BLACK
6
CONTINUOUS
10
2.2942275196850392
20
0.8405670866141732
11
2.2995309448818899
21
0.8425451181102362
0
LINE
8
BLACK
6
CONTINUOUS
10
2.2995309448818899
20
0.8425451181102362
11
2.2995312204724407
21
0.8425452755905511
0
LINE
8
BLACK
6
CONTINUOUS
10
2.2995312204724407
20
0.8425452755905511
11
2.304062440944882
21
0.8459373622047244
0
LINE
8
BLACK
6
CONTINUOUS
10
2.304062440944882
20
0.8459373622047244
11
2.3060918503937007
21
0.8486482677165355
0
LINE
8
BLACK
6
CONTINUOUS
10
2.3060918503937007
20
0.8486482677165355
11
2.3082939763779526
21
0.8502967322834646
0
LINE
8
BLACK
6
CONTINUOUS
10
2.3082939763779526
20
0.8502967322834646
11
2.3110377559055117
21
0.8504929527559055
0
LINE
8
BLACK
6
CONTINUOUS
10
2.3110377559055117
20
0.8504929527559055
11
2.3134520472440943
21
0.8491746456692914
0
LINE
8
BLACK
6
CONTINUOUS
10
2.3134520472440943
20
0.8491746456692914
11
2.313908149606299
21
0.8486482677165355
0
LINE
8
BLACK
6
CONTINUOUS
10
2.313908149606299
20
0.8486482677165355
11
2.3159375196850394
21
0.8459373622047244
0
LINE
8
BLACK
6
CONTINUOUS
10
2.3159375196850394
20
0.8459373622047244
11
2.3204687401574802
21
0.8425452755905511
0
LINE
8
BLACK
6
CONTINUOUS
10
2.3204687401574802
20
0.8425452755905511
11
2.3204690157480314
21
0.8425451181102362
0
LINE
8
BLACK
6
CONTINUOUS
10
2.3204690157480314
20
0.8425451181102362
11
2.3257724409448817
21
0.8405670866141732
0
LINE
8
BLACK
6
CONTINUOUS
10
2.3257724409448817
20
0.8405670866141732
11
2.3257727165354329
21
0.8405670078740157
0
LINE
8
BLACK
6
CONTINUOUS
10
2.3257727165354329
20
0.8405670078740157
11
2.3281163385826771
21
0.840315
0
LINE
8
BLACK
6
CONTINUOUS
10
2.3281163385826771
20
0.840315
11
2.3281170078740159
21
0.8403149606299213
0
LINE
8
BLACK
6
CONTINUOUS
10
2.3281170078740159
20
0.8403149606299213
11
2.3501574803149605
21
0.8403149606299213
0
LINE
8
BLACK
6
CONTINUOUS
10
2.3501574803149605
20
0.8403149606299213
11
2.3501574803149605
21
0.86
0
LINE
8
BLACK
6
CONTINUOUS
10
2.3501574803149605
20
0.86
11
2.3300000000000001
21
0.86
0
LINE
8
BLACK
6
CONTINUOUS
10
2.3300000000000001
20
0.86
11
2.3300000000000001
21
0.8801574803149607
0
LINE
8
BLACK
6
CONTINUOUS
10
2.3300000000000001
20
0.8801574803149607
11
2.29
21
0.8801574803149607
0
LINE
8
BLACK
6
CONTINUOUS
10
2.3900000000000001
20
0.86
11
2.3698425196850392
21
0.86
0
LINE
8
BLACK
6
CONTINUOUS
10
2.3698425196850392
20
0.86
11
2.3698425196850392
21
0.8403149606299213
0
LINE
8
BLACK
6
CONTINUOUS
10
2.3698425196850392
20
0.8403149606299213
11
2.3918829921259843
21
0.8403149606299213
0
LINE
8
BLACK
6
CONTINUOUS
10
2.3918829921259843
20
0.8403149606299213
11
2.3918836220472439
21
0.840315
0
LINE
8
BLACK
6
CONTINUOUS
10
2.3918836220472439
20
0.840315
11
2.3942272440944881
21
0.8405670078740157
0
LINE
8
BLACK
6
CONTINUOUS
10
2.3942272440944881
20
0.8405670078740157
11
2.3942275196850393
21
0.8405670866141732
0
LINE
8
BLACK
6
CONTINUOUS
10
2.3942275196850393
20
0.8405670866141732
11
2.3995309448818896
21
0.8425451181102362
0
LINE
8
BLACK
6
CONTINUOUS
10
2.3995309448818896
20
0.8425451181102362
11
2.3995312204724408
21
0.8425452755905511
0
LINE
8
BLACK
6
CONTINUOUS
10
2.3995312204724408
20
0.8425452755905511
11
2.4040624803149604
21
0.8459374015748031
0
LINE
8
BLACK
6
CONTINUOUS
10
2.4040624803149604
20
0.8459374015748031
11
2.4040625984251967
21
0.8459375196850394
0
LINE
8
BLACK
6
CONTINUOUS
10
2.4040625984251967
20
0.8459375196850394
11
2.4074547244094489
21
0.8504687795275591
0
LINE
8
BLACK
6
CONTINUOUS
10
2.4074547244094489
20
0.8504687795275591
11
2.4074548818897639
21
0.8504690551181102
0
LINE
8
BLACK
6
CONTINUOUS
10
2.4074548818897639
20
0.8504690551181102
11
2.4094329133858268
21
0.8557724803149606
0
LINE
8
BLACK
6
CONTINUOUS
10
2.4094329133858268
20
0.8557724803149606
11
2.4094329921259843
21
0.8557727559055118
0
LINE
8
BLACK
6
CONTINUOUS
10
2.4094329921259843
20
0.8557727559055118
11
2.4096850000000001
21
0.8581163779527559
0
LINE
8
BLACK
6
CONTINUOUS
10
2.4096850000000001
20
0.8581163779527559
11
2.4096850393700788
21
0.8581170472440944
0
LINE
8
BLACK
6
CONTINUOUS
10
2.4096850393700788
20
0.8581170472440944
11
2.4096850393700788
21
0.8801574803149607
0
LINE
8
BLACK
6
CONTINUOUS
10
2.4096850393700788
20
0.8801574803149607
11
2.3900000000000001
21
0.8801574803149607
0
LINE
8
BLACK
6
CONTINUOUS
10
2.3900000000000001
20
0.8801574803149607
11
2.3900000000000001
21
0.86
0
LINE
8
BLACK
6
CONTINUOUS
10
0.4014010236220472
20
0.9149812598425197
11
0.3982892913385827
21
0.9245583464566929
0
LINE
8
BLACK
6
CONTINUOUS
10
0.3982892913385827
20
0.9245583464566929
11
0.398289251968504
21
0.9245584645669291
0
LINE
8
BLACK
6
CONTINUOUS
10
0.398289251968504
20
0.9245584645669291
11
0.3937174803149606
21
0.9335309842519685
0
LINE
8
BLACK
6
CONTINUOUS
10
0.3937174803149606
20
0.9335309842519685
11
0.3906593700787401
21
0.9377400393700788
0
LINE
8
BLACK
6
CONTINUOUS
10
0.3906593700787401
20
0.9377400393700788
11
0.3906593700787401
21
0.9377400787401574
0
LINE
8
BLACK
6
CONTINUOUS
10
0.3906593700787401
20
0.9377400787401574
11
0.3764686614173228
21
0.9235494094488189
0
LINE
8
BLACK
6
CONTINUOUS
10
0.3764686614173228
20
0.9235494094488189
11
0.3767645669291338
21
0.9231421653543307
0
LINE
8
BLACK
6
CONTINUOUS
10
0.3767645669291338
20
0.9231421653543307
11
0.379919842519685
21
0.9169495669291339
0
LINE
8
BLACK
6
CONTINUOUS
10
0.379919842519685
20
0.9169495669291339
11
0.3820675590551181
21
0.9103396062992126
0
LINE
8
BLACK
6
CONTINUOUS
10
0.3820675590551181
20
0.9103396062992126
11
0.3831548031496063
21
0.9034750393700787
0
LINE
8
BLACK
6
CONTINUOUS
10
0.3831548031496063
20
0.9034750393700787
11
0.3831548031496063
21
0.8965249606299213
0
LINE
8
BLACK
6
CONTINUOUS
10
0.3831548031496063
20
0.8965249606299213
11
0.3820675590551181
21
0.8896603937007874
0
LINE
8
BLACK
6
CONTINUOUS
10
0.3820675590551181
20
0.8896603937007874
11
0.379919842519685
21
0.8830504330708662
0
LINE
8
BLACK
6
CONTINUOUS
10
0.379919842519685
20
0.8830504330708662
11
0.3767645669291338
21
0.8768578346456692
0
LINE
8
BLACK
6
CONTINUOUS
10
0.3767645669291338
20
0.8768578346456692
11
0.3764687007874016
21
0.8764506692913385
0
LINE
8
BLACK
6
CONTINUOUS
10
0.3764687007874016
20
0.8764506692913385
11
0.3906593700787401
21
0.86226
0
LINE
8
BLACK
6
CONTINUOUS
10
0.3906593700787401
20
0.86226
11
0.3906593700787401
21
0.8622600393700787
0
LINE
8
BLACK
6
CONTINUOUS
10
0.3906593700787401
20
0.8622600393700787
11
0.3937175196850394
21
0.866469094488189
0
LINE
8
BLACK
6
CONTINUOUS
10
0.3937175196850394
20
0.866469094488189
11
0.398289251968504
21
0.8754415748031495
0
LINE
8
BLACK
6
CONTINUOUS
10
0.398289251968504
20
0.8754415748031495
11
0.3982892913385827
21
0.8754416929133858
0
LINE
8
BLACK
6
CONTINUOUS
10
0.3982892913385827
20
0.8754416929133858
11
0.4014010236220472
21
0.885018779527559
0
LINE
8
BLACK
6
CONTINUOUS
10
0.4014010236220472
20
0.885018779527559
11
0.4029763779527559
21
0.894965
0
LINE
8
BLACK
6
CONTINUOUS
10
0.4029763779527559
20
0.894965
11
0.4029763779527559
21
0.9050350393700787
0
LINE
8
BLACK
6
CONTINUOUS
10
0.4029763779527559
20
0.9050350393700787
11
0.4014010236220472
21
0.9149812598425197
0
LINE
8
BLACK
6
CONTINUOUS
10
0.5982892913385827
20
0.9245583464566929
11
0.5982892519685039
21
0.9245584645669291
0
LINE
8
BLACK
6
CONTINUOUS
10
0.5982892519685039
20
0.9245584645669291
11
0.5937174803149606
21
0.9335309842519685
0
LINE
8
BLACK
6
CONTINUOUS
10
0.5937174803149606
20
0.9335309842519685
11
0.5906593700787401
21
0.9377400393700788
0
LINE
8
BLACK
6
CONTINUOUS
10
0.5906593700787401
20
0.9377400393700788
11
0.5906593700787401
21
0.9377400787401574
0
LINE
8
BLACK
6
CONTINUOUS
10
0.5906593700787401
20
0.9377400787401574
11
0.5764686614173228
21
0.9235494094488189
0
LINE
8
BLACK
6
CONTINUOUS
10
0.5764686614173228
20
0.9235494094488189
11
0.5767645669291338
21
0.9231421653543307
0
LINE
8
BLACK
6
CONTINUOUS
10
0.5767645669291338
20
0.9231421653543307
11
0.579919842519685
21
0.9169495669291339
0
LINE
8
BLACK
6
CONTINUOUS
10
0.579919842519685
20
0.9169495669291339
11
0.5820675590551181
21
0.9103396062992126
0
LINE
8
BLACK
6
CONTINUOUS
10
0.5820675590551181
20
0.9103396062992126
11
0.5831548031496063
21
0.9034750393700787
0
LINE
8
BLACK
6
CONTINUOUS
10
0.5831548031496063
20
0.9034750393700787
11
0.5831548031496063
21
0.8965249606299213
0
LINE
8
BLACK
6
CONTINUOUS
10
0.5831548031496063
20
0.8965249606299213
11
0.5820675590551181
21
0.8896603937007874
0
LINE
8
BLACK
6
CONTINUOUS
10
0.5820675590551181
20
0.8896603937007874
11
0.579919842519685
21
0.8830504330708662
0
LINE
8
BLACK
6
CONTINUOUS
10
0.579919842519685
20
0.8830504330708662
11
0.5767645669291338
21
0.8768578346456692
0
LINE
8
BLACK
6
CONTINUOUS
10
0.5767645669291338
20
0.8768578346456692
11
0.5764687007874015
21
0.8764506692913385
0
LINE
8
BLACK
6
CONTINUOUS
10
0.5764687007874015
20
0.8764506692913385
11
0.5906593700787401
21
0.86226
0
LINE
8
BLACK
6
CONTINUOUS
10
0.5906593700787401
20
0.86226
11
0.5906593700787401
21
0.8622600393700787
0
LINE
8
BLACK
6
CONTINUOUS
10
0.5906593700787401
20
0.8622600393700787
11
0.5937175196850394
21
0.866469094488189
0
LINE
8
BLACK
6
CONTINUOUS
10
0.5937175196850394
20
0.866469094488189
11
0.5982892519685039
21
0.8754415748031495
0
LINE
8
BLACK
6
CONTINUOUS
10
0.5982892519685039
20
0.8754415748031495
11
0.5982892913385827
21
0.8754416929133858
0
LINE
8
BLACK
6
CONTINUOUS
10
0.5982892913385827
20
0.8754416929133858
11
0.6009687401574803
21
0.8836881889763779
0
LINE
8
BLACK
6
CONTINUOUS
10
0.6009687401574803
20
0.8836881889763779
11
0.6009687401574803
21
0.8836882283464567
0
LINE
8
BLACK
6
CONTINUOUS
10
0.6009687401574803
20
0.8836882283464567
11
0.6014010236220473
21
0.8850187007874015
0
LINE
8
BLACK
6
CONTINUOUS
10
0.6014010236220473
20
0.8850187007874015
11
0.6029763779527559
21
0.894965
0
LINE
8
BLACK
6
CONTINUOUS
10
0.6029763779527559
20
0.894965
11
0.6029763779527559
21
0.9050350393700787
0
LINE
8
BLACK
6
CONTINUOUS
10
0.6029763779527559
20
0.9050350393700787
11
0.6014010236220473
21
0.9149813385826772
0
LINE
8
BLACK
6
CONTINUOUS
10
0.6014010236220473
20
0.9149813385826772
11
0.5996062598425197
21
0.9205051968503937
0
LINE
8
BLACK
6
CONTINUOUS
10
0.5996062598425197
20
0.9205051968503937
11
0.5991583464566929
21
0.9218836614173228
0
LINE
8
BLACK
6
CONTINUOUS
10
0.5991583464566929
20
0.9218836614173228
11
0.5982892913385827
21
0.9245583464566929
0
LINE
8
BLACK
6
CONTINUOUS
10
2.3698425196850392
20
0.9199999999999999
11
2.3900000000000001
21
0.9199999999999999
0
LINE
8
BLACK
6
CONTINUOUS
10
2.3900000000000001
20
0.9199999999999999
11
2.3900000000000001
21
0.8998425196850394
0
LINE
8
BLACK
6
CONTINUOUS
10
2.3900000000000001
20
0.8998425196850394
11
2.4096850393700788
21
0.8998425196850394
0
LINE
8
BLACK
6
CONTINUOUS
10
2.4096850393700788
20
0.8998425196850394
11
2.4096850393700788
21
0.9218829921259842
0
LINE
8
BLACK
6
CONTINUOUS
10
2.4096850393700788
20
0.9218829921259842
11
2.4096850000000001
21
0.9218836614173228
0
LINE
8
BLACK
6
CONTINUOUS
10
2.4096850000000001
20
0.9218836614173228
11
2.4094329921259843
21
0.924227283464567
0
LINE
8
BLACK
6
CONTINUOUS
10
2.4094329921259843
20
0.924227283464567
11
2.4094329133858268
21
0.9242275590551181
0
LINE
8
BLACK
6
CONTINUOUS
10
2.4094329133858268
20
0.9242275590551181
11
2.4074548818897639
21
0.9295309842519685
0
LINE
8
BLACK
6
CONTINUOUS
10
2.4074548818897639
20
0.9295309842519685
11
2.4074547244094489
21
0.9295312598425197
0
LINE
8
BLACK
6
CONTINUOUS
10
2.4074547244094489
20
0.9295312598425197
11
2.4040625984251967
21
0.9340625196850394
0
LINE
8
BLACK
6
CONTINUOUS
10
2.4040625984251967
20
0.9340625196850394
11
2.4040624803149604
21
0.9340626377952755
0
LINE
8
BLACK
6
CONTINUOUS
10
2.4040624803149604
20
0.9340626377952755
11
2.3995312204724408
21
0.9374547637795275
0
LINE
8
BLACK
6
CONTINUOUS
10
2.3995312204724408
20
0.9374547637795275
11
2.3995309448818896
21
0.9374549212598425
0
LINE
8
BLACK
6
CONTINUOUS
10
2.3995309448818896
20
0.9374549212598425
11
2.3942275196850393
21
0.9394329527559054
0
LINE
8
BLACK
6
CONTINUOUS
10
2.3942275196850393
20
0.9394329527559054
11
2.3942272440944881
21
0.9394330314960629
0
LINE
8
BLACK
6
CONTINUOUS
10
2.3942272440944881
20
0.9394330314960629
11
2.3918836220472439
21
0.9396850393700787
0
LINE
8
BLACK
6
CONTINUOUS
10
2.3918836220472439
20
0.9396850393700787
11
2.3698425196850392
21
0.9396850393700787
0
LINE
8
BLACK
6
CONTINUOUS
10
2.3698425196850392
20
0.9396850393700787
11
2.3698425196850392
21
0.9199999999999999
0
LINE
8
BLACK
6
CONTINUOUS
10
2.2698425196850391
20
0.9199999999999999
11
2.29
21
0.9199999999999999
0
LINE
8
BLACK
6
CONTINUOUS
10
2.29
20
0.9199999999999999
11
2.29
21
0.8998425196850394
0
LINE
8
BLACK
6
CONTINUOUS
10
2.29
20
0.8998425196850394
11
2.3300000000000001
21
0.8998425196850394
0
LINE
8
BLACK
6
CONTINUOUS
10
2.3300000000000001
20
0.8998425196850394
11
2.3300000000000001
21
0.9199999999999999
0
LINE
8
BLACK
6
CONTINUOUS
10
2.3300000000000001
20
0.9199999999999999
11
2.3501574803149605
21
0.9199999999999999
0
LINE
8
BLACK
6
CONTINUOUS
10
2.3501574803149605
20
0.9199999999999999
11
2.3501574803149605
21
0.9396850393700787
0
LINE
8
BLACK
6
CONTINUOUS
10
2.3501574803149605
20
0.9396850393700787
11
2.3281163385826771
21
0.9396850393700787
0
LINE
8
BLACK
6
CONTINUOUS
10
2.3281163385826771
20
0.9396850393700787
11
2.3257727165354329
21
0.9394330314960629
0
LINE
8
BLACK
6
CONTINUOUS
10
2.3257727165354329
20
0.9394330314960629
11
2.3257724409448817
21
0.9394329527559054
0
LINE
8
BLACK
6
CONTINUOUS
10
2.3257724409448817
20
0.9394329527559054
11
2.3204690157480314
21
0.9374549212598425
0
LINE
8
BLACK
6
CONTINUOUS
10
2.3204690157480314
20
0.9374549212598425
11
2.3204687401574802
21
0.9374547637795275
0
LINE
8
BLACK
6
CONTINUOUS
10
2.3204687401574802
20
0.9374547637795275
11
2.3159374803149606
21
0.9340626377952755
0
LINE
8
BLACK
6
CONTINUOUS
10
2.3159374803149606
20
0.9340626377952755
11
2.3139081102362202
21
0.9313517322834646
0
LINE
8
BLACK
6
CONTINUOUS
10
2.3139081102362202
20
0.9313517322834646
11
2.3117059842519683
21
0.9297033070866142
0
LINE
8
BLACK
6
CONTINUOUS
10
2.3117059842519683
20
0.9297033070866142
11
2.3089622440944879
21
0.9295070866141733
0
LINE
8
BLACK
6
CONTINUOUS
10
2.3089622440944879
20
0.9295070866141733
11
2.3065479527559054
21
0.9308254330708661
0
LINE
8
BLACK
6
CONTINUOUS
10
2.3065479527559054
20
0.9308254330708661
11
2.3060918897637794
21
0.9313517322834646
0
LINE
8
BLACK
6
CONTINUOUS
10
2.3060918897637794
20
0.9313517322834646
11
2.3040624803149607
21
0.9340626377952755
0
LINE
8
BLACK
6
CONTINUOUS
10
2.3040624803149607
20
0.9340626377952755
11
2.2995312204724407
21
0.9374547637795275
0
LINE
8
BLACK
6
CONTINUOUS
10
2.2995312204724407
20
0.9374547637795275
11
2.2995309448818899
21
0.9374549212598425
0
LINE
8
BLACK
6
CONTINUOUS
10
2.2995309448818899
20
0.9374549212598425
11
2.2942275196850392
21
0.9394329527559054
0
LINE
8
BLACK
6
CONTINUOUS
10
2.2942275196850392
20
0.9394329527559054
11
2.294227244094488
21
0.9394330314960629
0
LINE
8
BLACK
6
CONTINUOUS
10
2.294227244094488
20
0.9394330314960629
11
2.2918836220472438
21
0.9396850393700787
0
LINE
8
BLACK
6
CONTINUOUS
10
2.2918836220472438
20
0.9396850393700787
11
2.2698425196850391
21
0.9396850393700787
0
LINE
8
BLACK
6
CONTINUOUS
10
2.2698425196850391
20
0.9396850393700787
11
2.2698425196850391
21
0.9199999999999999
0
LINE
8
BLACK
6
CONTINUOUS
10
0.3240187401574803
20
0.9624010629921259
11
0.3144416535433071
21
0.9592893307086614
0
LINE
8
BLACK
6
CONTINUOUS
10
0.3144416535433071
20
0.9592893307086614
11
0.3144415354330709
21
0.9592892913385827
0
LINE
8
BLACK
6
CONTINUOUS
10
0.3144415354330709
20
0.9592892913385827
11
0.3054688976377953
21
0.9547174409448819
0
LINE
8
BLACK
6
CONTINUOUS
10
0.3054688976377953
20
0.9547174409448819
11
0.3012599606299213
21
0.9516594881889764
0
LINE
8
BLACK
6
CONTINUOUS
10
0.3012599606299213
20
0.9516594881889764
11
0.3012599212598425
21
0.9516594488188976
0
LINE
8
BLACK
6
CONTINUOUS
10
0.3012599212598425
20
0.9516594488188976
11
0.3154506299212598
21
0.9374687401574803
0
LINE
8
BLACK
6
CONTINUOUS
10
0.3154506299212598
20
0.9374687401574803
11
0.3158578346456693
21
0.9377645669291338
0
LINE
8
BLACK
6
CONTINUOUS
10
0.3158578346456693
20
0.9377645669291338
11
0.3220504330708661
21
0.940919842519685
0
LINE
8
BLACK
6
CONTINUOUS
10
0.3220504330708661
20
0.940919842519685
11
0.3286603937007874
21
0.9430675590551181
0
LINE
8
BLACK
6
CONTINUOUS
10
0.3286603937007874
20
0.9430675590551181
11
0.3355249606299213
21
0.9441548031496063
0
LINE
8
BLACK
6
CONTINUOUS
10
0.3355249606299213
20
0.9441548031496063
11
0.3424750393700787
21
0.9441548031496063
0
LINE
8
BLACK
6
CONTINUOUS
10
0.3424750393700787
20
0.9441548031496063
11
0.3493396062992126
21
0.9430675590551181
0
LINE
8
BLACK
6
CONTINUOUS
10
0.3493396062992126
20
0.9430675590551181
11
0.3559495669291339
21
0.940919842519685
0
LINE
8
BLACK
6
CONTINUOUS
10
0.3559495669291339
20
0.940919842519685
11
0.3621421653543307
21
0.9377645669291338
0
LINE
8
BLACK
6
CONTINUOUS
10
0.3621421653543307
20
0.9377645669291338
11
0.3625492519685039
21
0.9374688188976378
0
LINE
8
BLACK
6
CONTINUOUS
10
0.3625492519685039
20
0.9374688188976378
11
0.37674
21
0.9516594488188976
0
LINE
8
BLACK
6
CONTINUOUS
10
0.37674
20
0.9516594488188976
11
0.3725309448818898
21
0.9547175196850394
0
LINE
8
BLACK
6
CONTINUOUS
10
0.3725309448818898
20
0.9547175196850394
11
0.3635584251968504
21
0.9592892913385827
0
LINE
8
BLACK
6
CONTINUOUS
10
0.3635584251968504
20
0.9592892913385827
11
0.3635583070866142
21
0.9592893307086614
0
LINE
8
BLACK
6
CONTINUOUS
10
0.3635583070866142
20
0.9592893307086614
11
0.353981220472441
21
0.9624010629921259
0
LINE
8
BLACK
6
CONTINUOUS
10
0.353981220472441
20
0.9624010629921259
11
0.344035
21
0.9639763779527559
0
LINE
8
BLACK
6
CONTINUOUS
10
0.344035
20
0.9639763779527559
11
0.333965
21
0.9639763779527559
0
LINE
8
BLACK
6
CONTINUOUS
10
0.333965
20
0.9639763779527559
11
0.3240187401574803
21
0.9624010629921259
0
LINE
8
BLACK
6
CONTINUOUS
10
0.5240187401574803
20
0.9624010629921259
11
0.5144416535433071
21
0.9592893307086614
0
LINE
8
BLACK
6
CONTINUOUS
10
0.5144416535433071
20
0.9592893307086614
11
0.5144415354330708
21
0.9592892913385827
0
LINE
8
BLACK
6
CONTINUOUS
10
0.5144415354330708
20
0.9592892913385827
11
0.5054688976377952
21
0.9547174409448819
0
LINE
8
BLACK
6
CONTINUOUS
10
0.5054688976377952
20
0.9547174409448819
11
0.5012599606299213
21
0.9516594881889764
0
LINE
8
BLACK
6
CONTINUOUS
10
0.5012599606299213
20
0.9516594881889764
11
0.5012599212598425
21
0.9516594488188976
0
LINE
8
BLACK
6
CONTINUOUS
10
0.5012599212598425
20
0.9516594488188976
11
0.5154506299212598
21
0.9374687401574803
0
LINE
8
BLACK
6
CONTINUOUS
10
0.5154506299212598
20
0.9374687401574803
11
0.5158578346456693
21
0.9377645669291338
0
LINE
8
BLACK
6
CONTINUOUS
10
0.5158578346456693
20
0.9377645669291338
11
0.5220504330708662
21
0.940919842519685
0
LINE
8
BLACK
6
CONTINUOUS
10
0.5220504330708662
20
0.940919842519685
11
0.5286603937007874
21
0.9430675590551181
0
LINE
8
BLACK
6
CONTINUOUS
10
0.5286603937007874
20
0.9430675590551181
11
0.5355249606299213
21
0.9441548031496063
0
LINE
8
BLACK
6
CONTINUOUS
10
0.5355249606299213
20
0.9441548031496063
11
0.5424750393700787
21
0.9441548031496063
0
LINE
8
BLACK
6
CONTINUOUS
10
0.5424750393700787
20
0.9441548031496063
11
0.5493396062992126
21
0.9430675590551181
0
LINE
8
BLACK
6
CONTINUOUS
10
0.5493396062992126
20
0.9430675590551181
11
0.5559495669291339
21
0.940919842519685
0
LINE
8
BLACK
6
CONTINUOUS
10
0.5559495669291339
20
0.940919842519685
11
0.5621421653543307
21
0.9377645669291338
0
LINE
8
BLACK
6
CONTINUOUS
10
0.5621421653543307
20
0.9377645669291338
11
0.5625492519685039
21
0.9374688188976378
0
LINE
8
BLACK
6
CONTINUOUS
10
0.5625492519685039
20
0.9374688188976378
11
0.57674
21
0.9516594488188976
0
LINE
8
BLACK
6
CONTINUOUS
10
0.57674
20
0.9516594488188976
11
0.5725309448818897
21
0.9547175196850394
0
LINE
8
BLACK
6
CONTINUOUS
10
0.5725309448818897
20
0.9547175196850394
11
0.5635584251968504
21
0.9592892913385827
0
LINE
8
BLACK
6
CONTINUOUS
10
0.5635584251968504
20
0.9592892913385827
11
0.5635583070866141
21
0.9592893307086614
0
LINE
8
BLACK
6
CONTINUOUS
10
0.5635583070866141
20
0.9592893307086614
11
0.5539812204724409
21
0.9624010629921259
0
LINE
8
BLACK
6
CONTINUOUS
10
0.5539812204724409
20
0.9624010629921259
11
0.5440349999999999
21
0.9639763779527559
0
LINE
8
BLACK
6
CONTINUOUS
10
0.5440349999999999
20
0.9639763779527559
11
0.533965
21
0.9639763779527559
0
LINE
8
BLACK
6
CONTINUOUS
10
0.533965
20
0.9639763779527559
11
0.5240187401574803
21
0.9624010629921259
0
LINE
8
BLACK
6
CONTINUOUS
10
0.390751968503937
20
0.9962028346456693
11
0.3919399606299213
21
0.9887020078740157
0
LINE
8
BLACK
6
CONTINUOUS
10
0.3919399606299213
20
0.9887020078740157
11
0.39194
21
0.9887018897637795
0
LINE
8
BLACK
6
CONTINUOUS
10
0.39194
20
0.9887018897637795
11
0.3942868110236221
21
0.9814791732283464
0
LINE
8
BLACK
6
CONTINUOUS
10
0.3942868110236221
20
0.9814791732283464
11
0.3977346062992126
21
0.9747125196850394
0
LINE
8
BLACK
6
CONTINUOUS
10
0.3977346062992126
20
0.9747125196850394
11
0.4021984645669291
21
0.9685685433070866
0
LINE
8
BLACK
6
CONTINUOUS
10
0.4021984645669291
20
0.9685685433070866
11
0.4075685433070866
21
0.9631984645669291
0
LINE
8
BLACK
6
CONTINUOUS
10
0.4075685433070866
20
0.9631984645669291
11
0.4137125196850394
21
0.9587346062992126
0
LINE
8
BLACK
6
CONTINUOUS
10
0.4137125196850394
20
0.9587346062992126
11
0.4204791732283464
21
0.955286811023622
0
LINE
8
BLACK
6
CONTINUOUS
10
0.4204791732283464
20
0.955286811023622
11
0.4277018897637795
21
0.95294
0
LINE
8
BLACK
6
CONTINUOUS
10
0.4277018897637795
20
0.95294
11
0.4352027952755905
21
0.951751968503937
0
LINE
8
BLACK
6
CONTINUOUS
10
0.4352027952755905
20
0.951751968503937
11
0.4352028346456693
21
0.951751968503937
0
LINE
8
BLACK
6
CONTINUOUS
10
0.4352028346456693
20
0.951751968503937
11
0.4427971653543307
21
0.951751968503937
0
LINE
8
BLACK
6
CONTINUOUS
10
0.4427971653543307
20
0.951751968503937
11
0.4427972047244094
21
0.951751968503937
0
LINE
8
BLACK
6
CONTINUOUS
10
0.4427972047244094
20
0.951751968503937
11
0.4502981102362205
21
0.95294
0
LINE
8
BLACK
6
CONTINUOUS
10
0.4502981102362205
20
0.95294
11
0.4575208267716535
21
0.955286811023622
0
LINE
8
BLACK
6
CONTINUOUS
10
0.4575208267716535
20
0.955286811023622
11
0.4642874803149606
21
0.9587346062992126
0
LINE
8
BLACK
6
CONTINUOUS
10
0.4642874803149606
20
0.9587346062992126
11
0.4704314566929134
21
0.9631984645669291
0
LINE
8
BLACK
6
CONTINUOUS
10
0.4704314566929134
20
0.9631984645669291
11
0.4758015354330709
21
0.9685685433070866
0
LINE
8
BLACK
6
CONTINUOUS
10
0.4758015354330709
20
0.9685685433070866
11
0.4802653937007874
21
0.9747125196850394
0
LINE
8
BLACK
6
CONTINUOUS
10
0.4802653937007874
20
0.9747125196850394
11
0.4837131889763779
21
0.9814791732283464
0
LINE
8
BLACK
6
CONTINUOUS
10
0.4837131889763779
20
0.9814791732283464
11
0.48606
21
0.9887018897637795
0
LINE
8
BLACK
6
CONTINUOUS
10
0.48606
20
0.9887018897637795
11
0.487248031496063
21
0.9962027952755905
0
LINE
8
BLACK
6
CONTINUOUS
10
0.487248031496063
20
0.9962027952755905
11
0.487248031496063
21
1.0037972047244095
0
LINE
8
BLACK
6
CONTINUOUS
10
0.487248031496063
20
1.0037972047244095
11
0.48606
21
1.0112981102362204
0
LINE
8
BLACK
6
CONTINUOUS
10
0.48606
20
1.0112981102362204
11
0.4837131889763779
21
1.0185208267716535
0
LINE
8
BLACK
6
CONTINUOUS
10
0.4837131889763779
20
1.0185208267716535
11
0.4802653937007874
21
1.0252874803149605
0
LINE
8
BLACK
6
CONTINUOUS
10
0.4802653937007874
20
1.0252874803149605
11
0.4758015354330709
21
1.0314314566929135
0
LINE
8
BLACK
6
CONTINUOUS
10
0.4758015354330709
20
1.0314314566929135
11
0.4704314566929134
21
1.0368015354330709
0
LINE
8
BLACK
6
CONTINUOUS
10
0.4704314566929134
20
1.0368015354330709
11
0.4642874803149606
21
1.0412653937007874
0
LINE
8
BLACK
6
CONTINUOUS
10
0.4642874803149606
20
1.0412653937007874
11
0.4575208267716535
21
1.0447131889763779
0
LINE
8
BLACK
6
CONTINUOUS
10
0.4575208267716535
20
1.0447131889763779
11
0.4502981102362205
21
1.0470599999999999
0
LINE
8
BLACK
6
CONTINUOUS
10
0.4502981102362205
20
1.0470599999999999
11
0.4502979921259843
21
1.0470600393700786
0
LINE
8
BLACK
6
CONTINUOUS
10
0.4502979921259843
20
1.0470600393700786
11
0.4445359842519685
21
1.0479726377952756
0
LINE
8
BLACK
6
CONTINUOUS
10
0.4445359842519685
20
1.0479726377952756
11
0.4427972047244094
21
1.0482480314960629
0
LINE
8
BLACK
6
CONTINUOUS
10
0.4427972047244094
20
1.0482480314960629
11
0.4352027952755905
21
1.0482480314960629
0
LINE
8
BLACK
6
CONTINUOUS
10
0.4352027952755905
20
1.0482480314960629
11
0.433791220472441
21
1.0480244881889764
0
LINE
8
BLACK
6
CONTINUOUS
10
0.433791220472441
20
1.0480244881889764
11
0.427701968503937
21
1.0470600393700786
0
LINE
8
BLACK
6
CONTINUOUS
10
0.427701968503937
20
1.0470600393700786
11
0.4204790551181102
21
1.0447131496062991
0
LINE
8
BLACK
6
CONTINUOUS
10
0.4204790551181102
20
1.0447131496062991
11
0.4137124803149606
21
1.0412653937007874
0
LINE
8
BLACK
6
CONTINUOUS
10
0.4137124803149606
20
1.0412653937007874
11
0.410207125984252
21
1.038718622047244
0
LINE
8
BLACK
6
CONTINUOUS
10
0.410207125984252
20
1.038718622047244
11
0.4075685433070866
21
1.0368015354330709
0
LINE
8
BLACK
6
CONTINUOUS
10
0.4075685433070866
20
1.0368015354330709
11
0.4075684645669291
21
1.0368014566929133
0
LINE
8
BLACK
6
CONTINUOUS
10
0.4075684645669291
20
1.0368014566929133
11
0.4075684251968504
21
1.0368014566929133
0
LINE
8
BLACK
6
CONTINUOUS
10
0.4075684251968504
20
1.0368014566929133
11
0.4021985433070866
21
1.0314315748031495
0
LINE
8
BLACK
6
CONTINUOUS
10
0.4021985433070866
20
1.0314315748031495
11
0.4021985433070866
21
1.0314315354330708
0
LINE
8
BLACK
6
CONTINUOUS
10
0.4021985433070866
20
1.0314315354330708
11
0.4021984645669291
21
1.0314314566929135
0
LINE
8
BLACK
6
CONTINUOUS
10
0.4021984645669291
20
1.0314314566929135
11
0.4005934645669291
21
1.0292223622047243
0
LINE
8
BLACK
6
CONTINUOUS
10
0.4005934645669291
20
1.0292223622047243
11
0.3977346062992126
21
1.0252875196850393
0
LINE
8
BLACK
6
CONTINUOUS
10
0.3977346062992126
20
1.0252875196850393
11
0.3942868503937008
21
1.0185209448818897
0
LINE
8
BLACK
6
CONTINUOUS
10
0.3942868503937008
20
1.0185209448818897
11
0.3919399606299213
21
1.0112980314960629
0
LINE
8
BLACK
6
CONTINUOUS
10
0.3919399606299213
20
1.0112980314960629
11
0.390751968503937
21
1.0037972047244095
0
LINE
8
BLACK
6
CONTINUOUS
10
0.390751968503937
20
1.0037972047244095
11
0.390751968503937
21
0.9962028346456693
0
LINE
8
BLACK
6
CONTINUOUS
10
2.2269200393700785
20
1.0974357874015748
11
2.2269199999999998
21
1.097435748031496
0
LINE
8
BLACK
6
CONTINUOUS
10
2.2269199999999998
20
1.097435748031496
11
2.2243088976377954
21
1.0956910629921259
0
LINE
8
BLACK
6
CONTINUOUS
10
2.2243088976377954
20
1.0956910629921259
11
2.2225642125984253
21
1.0930799606299213
0
LINE
8
BLACK
6
CONTINUOUS
10
2.2225642125984253
20
1.0930799606299213
11
2.2225641732283465
21
1.0930799212598425
0
LINE
8
BLACK
6
CONTINUOUS
10
2.2225641732283465
20
1.0930799212598425
11
2.2221062598425196
21
1.0907776771653543
0
LINE
8
BLACK
6
CONTINUOUS
10
2.2221062598425196
20
1.0907776771653543
11
2.2221062598425196
21
1.0292223622047243
0
LINE
8
BLACK
6
CONTINUOUS
10
2.2221062598425196
20
1.0292223622047243
11
2.2225641732283465
21
1.0269201181102361
0
LINE
8
BLACK
6
CONTINUOUS
10
2.2225641732283465
20
1.0269201181102361
11
2.2225642125984253
21
1.0269200787401576
0
LINE
8
BLACK
6
CONTINUOUS
10
2.2225642125984253
20
1.0269200787401576
11
2.2243088976377954
21
1.0243089763779527
0
LINE
8
BLACK
6
CONTINUOUS
10
2.2243088976377954
20
1.0243089763779527
11
2.2269199999999998
21
1.0225642913385826
0
LINE
8
BLACK
6
CONTINUOUS
10
2.2269199999999998
20
1.0225642913385826
11
2.2269200393700785
21
1.0225642519685039
0
LINE
8
BLACK
6
CONTINUOUS
10
2.2269200393700785
20
1.0225642519685039
11
2.229222283464567
21
1.0221063385826772
0
LINE
8
BLACK
6
CONTINUOUS
10
2.229222283464567
20
1.0221063385826772
11
2.2292224015748032
21
1.0221062992125984
0
LINE
8
BLACK
6
CONTINUOUS
10
2.2292224015748032
20
1.0221062992125984
11
2.2292224803149607
21
1.0221062992125984
0
LINE
8
BLACK
6
CONTINUOUS
10
2.2292224803149607
20
1.0221062992125984
11
2.2907775196850393
21
1.0221062992125984
0
LINE
8
BLACK
6
CONTINUOUS
10
2.2907775196850393
20
1.0221062992125984
11
2.290777559055118
21
1.0221063385826772
0
LINE
8
BLACK
6
CONTINUOUS
10
2.290777559055118
20
1.0221063385826772
11
2.2913609055118109
21
1.0222223622047244
0
LINE
8
BLACK
6
CONTINUOUS
10
2.2913609055118109
20
1.0222223622047244
11
2.2930798425196848
21
1.0225642519685039
0
LINE
8
BLACK
6
CONTINUOUS
10
2.2930798425196848
20
1.0225642519685039
11
2.2930798425196848
21
1.0225642913385826
0
LINE
8
BLACK
6
CONTINUOUS
10
2.2930798425196848
20
1.0225642913385826
11
2.2930799212598423
21
1.0225642913385826
0
LINE
8
BLACK
6
CONTINUOUS
10
2.2930799212598423
20
1.0225642913385826
11
2.2956909842519684
21
1.0243089763779527
0
LINE
8
BLACK
6
CONTINUOUS
10
2.2956909842519684
20
1.0243089763779527
11
2.2974356692913385
21
1.0269200393700788
0
LINE
8
BLACK
6
CONTINUOUS
10
2.2974356692913385
20
1.0269200393700788
11
2.2974356692913385
21
1.0269201181102361
0
LINE
8
BLACK
6
CONTINUOUS
10
2.2974356692913385
20
1.0269201181102361
11
2.2974357086614172
21
1.0269201181102361
0
LINE
8
BLACK
6
CONTINUOUS
10
2.2974357086614172
20
1.0269201181102361
11
2.2978936220472441
21
1.0292223622047243
0
LINE
8
BLACK
6
CONTINUOUS
10
2.2978936220472441
20
1.0292223622047243
11
2.2978936614173229
21
1.0292224409448818
0
LINE
8
BLACK
6
CONTINUOUS
10
2.2978936614173229
20
1.0292224409448818
11
2.2978936614173229
21
1.0907775984251968
0
LINE
8
BLACK
6
CONTINUOUS
10
2.2978936614173229
20
1.0907775984251968
11
2.2978936220472441
21
1.0907776771653543
0
LINE
8
BLACK
6
CONTINUOUS
10
2.2978936220472441
20
1.0907776771653543
11
2.2974357086614172
21
1.0930799212598425
0
LINE
8
BLACK
6
CONTINUOUS
10
2.2974357086614172
20
1.0930799212598425
11
2.2974356692913385
21
1.0930799606299213
0
LINE
8
BLACK
6
CONTINUOUS
10
2.2974356692913385
20
1.0930799606299213
11
2.2956909842519684
21
1.0956910629921259
0
LINE
8
BLACK
6
CONTINUOUS
10
2.2956909842519684
20
1.0956910629921259
11
2.2930798818897635
21
1.097435748031496
0
LINE
8
BLACK
6
CONTINUOUS
10
2.2930798818897635
20
1.097435748031496
11
2.2930798425196848
21
1.0974357874015748
0
LINE
8
BLACK
6
CONTINUOUS
10
2.2930798425196848
20
1.0974357874015748
11
2.2907775984251968
21
1.0978937007874014
0
LINE
8
BLACK
6
CONTINUOUS
10
2.2907775984251968
20
1.0978937007874014
11
2.2907774409448818
21
1.0978937007874014
0
LINE
8
BLACK
6
CONTINUOUS
10
2.2907774409448818
20
1.0978937007874014
11
2.2292224803149607
21
1.0978937007874014
0
LINE
8
BLACK
6
CONTINUOUS
10
2.2292224803149607
20
1.0978937007874014
11
2.229222283464567
21
1.0978937007874014
0
LINE
8
BLACK
6
CONTINUOUS
10
2.229222283464567
20
1.0978937007874014
11
2.2269200393700785
21
1.0974357874015748
0
LINE
8
BLACK
6
CONTINUOUS
10
2.3221063385826772
20
1.0292223622047243
11
2.3225642519685037
21
1.0269201181102361
0
LINE
8
BLACK
6
CONTINUOUS
10
2.3225642519685037
20
1.0269201181102361
11
2.3225642913385824
21
1.0269200787401576
0
LINE
8
BLACK
6
CONTINUOUS
10
2.3225642913385824
20
1.0269200787401576
11
2.3243089763779525
21
1.0243089763779527
0
LINE
8
BLACK
6
CONTINUOUS
10
2.3243089763779525
20
1.0243089763779527
11
2.3269200787401574
21
1.0225642913385826
0
LINE
8
BLACK
6
CONTINUOUS
10
2.3269200787401574
20
1.0225642913385826
11
2.3269201181102361
21
1.0225642519685039
0
LINE
8
BLACK
6
CONTINUOUS
10
2.3269201181102361
20
1.0225642519685039
11
2.3292223622047246
21
1.0221063385826772
0
LINE
8
BLACK
6
CONTINUOUS
10
2.3292223622047246
20
1.0221063385826772
11
2.3292224803149604
21
1.0221062992125984
0
LINE
8
BLACK
6
CONTINUOUS
10
2.3292224803149604
20
1.0221062992125984
11
2.3292225590551179
21
1.0221062992125984
0
LINE
8
BLACK
6
CONTINUOUS
10
2.3292225590551179
20
1.0221062992125984
11
2.3907775984251969
21
1.0221062992125984
0
LINE
8
BLACK
6
CONTINUOUS
10
2.3907775984251969
20
1.0221062992125984
11
2.3907776377952756
21
1.0221063385826772
0
LINE
8
BLACK
6
CONTINUOUS
10
2.3907776377952756
20
1.0221063385826772
11
2.3913609842519685
21
1.0222223622047244
0
LINE
8
BLACK
6
CONTINUOUS
10
2.3913609842519685
20
1.0222223622047244
11
2.3930799212598424
21
1.0225642519685039
0
LINE
8
BLACK
6
CONTINUOUS
10
2.3930799212598424
20
1.0225642519685039
11
2.3930799212598424
21
1.0225642913385826
0
LINE
8
BLACK
6
CONTINUOUS
10
2.3930799212598424
20
1.0225642913385826
11
2.3930799999999999
21
1.0225642913385826
0
LINE
8
BLACK
6
CONTINUOUS
10
2.3930799999999999
20
1.0225642913385826
11
2.395691062992126
21
1.0243089763779527
0
LINE
8
BLACK
6
CONTINUOUS
10
2.395691062992126
20
1.0243089763779527
11
2.3974357480314961
21
1.0269200393700788
0
LINE
8
BLACK
6
CONTINUOUS
10
2.3974357480314961
20
1.0269200393700788
11
2.3974357480314961
21
1.0269201181102361
0
LINE
8
BLACK
6
CONTINUOUS
10
2.3974357480314961
20
1.0269201181102361
11
2.3974357874015748
21
1.0269201181102361
0
LINE
8
BLACK
6
CONTINUOUS
10
2.3974357874015748
20
1.0269201181102361
11
2.3978937007874017
21
1.0292223622047243
0
LINE
8
BLACK
6
CONTINUOUS
10
2.3978937007874017
20
1.0292223622047243
11
2.3978937401574805
21
1.0292224409448818
0
LINE
8
BLACK
6
CONTINUOUS
10
2.3978937401574805
20
1.0292224409448818
11
2.3978937401574805
21
1.0907775984251968
0
LINE
8
BLACK
6
CONTINUOUS
10
2.3978937401574805
20
1.0907775984251968
11
2.3978937007874017
21
1.0907776771653543
0
LINE
8
BLACK
6
CONTINUOUS
10
2.3978937007874017
20
1.0907776771653543
11
2.3974357874015748
21
1.0930799212598425
0
LINE
8
BLACK
6
CONTINUOUS
10
2.3974357874015748
20
1.0930799212598425
11
2.3974357480314961
21
1.0930799606299213
0
LINE
8
BLACK
6
CONTINUOUS
10
2.3974357480314961
20
1.0930799606299213
11
2.395691062992126
21
1.0956910629921259
0
LINE
8
BLACK
6
CONTINUOUS
10
2.395691062992126
20
1.0956910629921259
11
2.3930799606299211
21
1.097435748031496
0
LINE
8
BLACK
6
CONTINUOUS
10
2.3930799606299211
20
1.097435748031496
11
2.3930799212598424
21
1.0974357874015748
0
LINE
8
BLACK
6
CONTINUOUS
10
2.3930799212598424
20
1.0974357874015748
11
2.3907776771653544
21
1.0978937007874014
0
LINE
8
BLACK
6
CONTINUOUS
10
2.3907776771653544
20
1.0978937007874014
11
2.3907775196850394
21
1.0978937007874014
0
LINE
8
BLACK
6
CONTINUOUS
10
2.3907775196850394
20
1.0978937007874014
11
2.3292225590551179
21
1.0978937007874014
0
LINE
8
BLACK
6
CONTINUOUS
10
2.3292225590551179
20
1.0978937007874014
11
2.3292223622047246
21
1.0978937007874014
0
LINE
8
BLACK
6
CONTINUOUS
10
2.3292223622047246
20
1.0978937007874014
11
2.3269201181102361
21
1.0974357874015748
0
LINE
8
BLACK
6
CONTINUOUS
10
2.3269201181102361
20
1.0974357874015748
11
2.3269200787401574
21
1.097435748031496
0
LINE
8
BLACK
6
CONTINUOUS
10
2.3269200787401574
20
1.097435748031496
11
2.3243089763779525
21
1.0956910629921259
0
LINE
8
BLACK
6
CONTINUOUS
10
2.3243089763779525
20
1.0956910629921259
11
2.3225642913385824
21
1.0930799606299213
0
LINE
8
BLACK
6
CONTINUOUS
10
2.3225642913385824
20
1.0930799606299213
11
2.3225642519685037
21
1.0930799212598425
0
LINE
8
BLACK
6
CONTINUOUS
10
2.3225642519685037
20
1.0930799212598425
11
2.3221063385826772
21
1.0907776771653543
0
LINE
8
BLACK
6
CONTINUOUS
10
2.3221063385826772
20
1.0907776771653543
11
2.3221063385826772
21
1.0292223622047243
0
LINE
8
BLACK
6
CONTINUOUS
10
0.3621421653543307
20
1.0622354330708661
11
0.3559495669291339
21
1.059080157480315
0
LINE
8
BLACK
6
CONTINUOUS
10
0.3559495669291339
20
1.059080157480315
11
0.3493396062992126
21
1.0569324409448819
0
LINE
8
BLACK
6
CONTINUOUS
10
0.3493396062992126
20
1.0569324409448819
11
0.3424750393700787
21
1.0558451968503937
0
LINE
8
BLACK
6
CONTINUOUS
10
0.3424750393700787
20
1.0558451968503937
11
0.3355249606299213
21
1.0558451968503937
0
LINE
8
BLACK
6
CONTINUOUS
10
0.3355249606299213
20
1.0558451968503937
11
0.3286603937007874
21
1.0569324409448819
0
LINE
8
BLACK
6
CONTINUOUS
10
0.3286603937007874
20
1.0569324409448819
11
0.3220504330708661
21
1.059080157480315
0
LINE
8
BLACK
6
CONTINUOUS
10
0.3220504330708661
20
1.059080157480315
11
0.3158578346456693
21
1.0622354330708661
0
LINE
8
BLACK
6
CONTINUOUS
10
0.3158578346456693
20
1.0622354330708661
11
0.3154505905511811
21
1.0625312992125984
0
LINE
8
BLACK
6
CONTINUOUS
10
0.3154505905511811
20
1.0625312992125984
11
0.3012599212598425
21
1.0483406299212599
0
LINE
8
BLACK
6
CONTINUOUS
10
0.3012599212598425
20
1.0483406299212599
11
0.3054690157480315
21
1.0452825196850393
0
LINE
8
BLACK
6
CONTINUOUS
10
0.3054690157480315
20
1.0452825196850393
11
0.3144415354330709
21
1.0407107480314961
0
LINE
8
BLACK
6
CONTINUOUS
10
0.3144415354330709
20
1.0407107480314961
11
0.3144416535433071
21
1.0407107086614173
0
LINE
8
BLACK
6
CONTINUOUS
10
0.3144416535433071
20
1.0407107086614173
11
0.3240187401574803
21
1.0375989763779527
0
LINE
8
BLACK
6
CONTINUOUS
10
0.3240187401574803
20
1.0375989763779527
11
0.333965
21
1.0360236220472441
0
LINE
8
BLACK
6
CONTINUOUS
10
0.333965
20
1.0360236220472441
11
0.344035
21
1.0360236220472441
0
LINE
8
BLACK
6
CONTINUOUS
10
0.344035
20
1.0360236220472441
11
0.353981220472441
21
1.0375989763779527
0
LINE
8
BLACK
6
CONTINUOUS
10
0.353981220472441
20
1.0375989763779527
11
0.3635583070866142
21
1.0407107086614173
0
LINE
8
BLACK
6
CONTINUOUS
10
0.3635583070866142
20
1.0407107086614173
11
0.3635584251968504
21
1.0407107480314961
0
LINE
8
BLACK
6
CONTINUOUS
10
0.3635584251968504
20
1.0407107480314961
11
0.372530905511811
21
1.0452824803149605
0
LINE
8
BLACK
6
CONTINUOUS
10
0.372530905511811
20
1.0452824803149605
11
0.3767399606299213
21
1.0483406299212599
0
LINE
8
BLACK
6
CONTINUOUS
10
0.3767399606299213
20
1.0483406299212599
11
0.37674
21
1.0483406299212599
0
LINE
8
BLACK
6
CONTINUOUS
10
0.37674
20
1.0483406299212599
11
0.3625493307086614
21
1.0625312992125984
0
LINE
8
BLACK
6
CONTINUOUS
10
0.3625493307086614
20
1.0625312992125984
11
0.3621421653543307
21
1.0622354330708661
0
LINE
8
BLACK
6
CONTINUOUS
10
0.5621421653543307
20
1.0622354330708661
11
0.5559495669291339
21
1.059080157480315
0
LINE
8
BLACK
6
CONTINUOUS
10
0.5559495669291339
20
1.059080157480315
11
0.5493396062992126
21
1.0569324409448819
0
LINE
8
BLACK
6
CONTINUOUS
10
0.5493396062992126
20
1.0569324409448819
11
0.5424750393700787
21
1.0558451968503937
0
LINE
8
BLACK
6
CONTINUOUS
10
0.5424750393700787
20
1.0558451968503937
11
0.5355249606299213
21
1.0558451968503937
0
LINE
8
BLACK
6
CONTINUOUS
10
0.5355249606299213
20
1.0558451968503937
11
0.5286603937007874
21
1.0569324409448819
0
LINE
8
BLACK
6
CONTINUOUS
10
0.5286603937007874
20
1.0569324409448819
11
0.5220504330708662
21
1.059080157480315
0
LINE
8
BLACK
6
CONTINUOUS
10
0.5220504330708662
20
1.059080157480315
11
0.5158578346456693
21
1.0622354330708661
0
LINE
8
BLACK
6
CONTINUOUS
10
0.5158578346456693
20
1.0622354330708661
11
0.5154505905511811
21
1.0625312992125984
0
LINE
8
BLACK
6
CONTINUOUS
10
0.5154505905511811
20
1.0625312992125984
11
0.5012599212598425
21
1.0483406299212599
0
LINE
8
BLACK
6
CONTINUOUS
10
0.5012599212598425
20
1.0483406299212599
11
0.5054690157480315
21
1.0452825196850393
0
LINE
8
BLACK
6
CONTINUOUS
10
0.5054690157480315
20
1.0452825196850393
11
0.5144415354330708
21
1.0407107480314961
0
LINE
8
BLACK
6
CONTINUOUS
10
0.5144415354330708
20
1.0407107480314961
11
0.5144416535433071
21
1.0407107086614173
0
LINE
8
BLACK
6
CONTINUOUS
10
0.5144416535433071
20
1.0407107086614173
11
0.5240187401574803
21
1.0375989763779527
0
LINE
8
BLACK
6
CONTINUOUS
10
0.5240187401574803
20
1.0375989763779527
11
0.533965
21
1.0360236220472441
0
LINE
8
BLACK
6
CONTINUOUS
10
0.533965
20
1.0360236220472441
11
0.5440349999999999
21
1.0360236220472441
0
LINE
8
BLACK
6
CONTINUOUS
10
0.5440349999999999
20
1.0360236220472441
11
0.5539812204724409
21
1.0375989763779527
0
LINE
8
BLACK
6
CONTINUOUS
10
0.5539812204724409
20
1.0375989763779527
11
0.5635583070866141
21
1.0407107086614173
0
LINE
8
BLACK
6
CONTINUOUS
10
0.5635583070866141
20
1.0407107086614173
11
0.5635584251968504
21
1.0407107480314961
0
LINE
8
BLACK
6
CONTINUOUS
10
0.5635584251968504
20
1.0407107480314961
11
0.572530905511811
21
1.0452824803149605
0
LINE
8
BLACK
6
CONTINUOUS
10
0.572530905511811
20
1.0452824803149605
11
0.5767399606299213
21
1.0483406299212599
0
LINE
8
BLACK
6
CONTINUOUS
10
0.5767399606299213
20
1.0483406299212599
11
0.57674
21
1.0483406299212599
0
LINE
8
BLACK
6
CONTINUOUS
10
0.57674
20
1.0483406299212599
11
0.5625493307086614
21
1.0625312992125984
0
LINE
8
BLACK
6
CONTINUOUS
10
0.5625493307086614
20
1.0625312992125984
11
0.5621421653543307
21
1.0622354330708661
0
LINE
8
BLACK
6
CONTINUOUS
10
0.4014010236220472
20
1.1149812598425197
11
0.3982892913385827
21
1.1245583464566928
0
LINE
8
BLACK
6
CONTINUOUS
10
0.3982892913385827
20
1.1245583464566928
11
0.398289251968504
21
1.1245584645669291
0
LINE
8
BLACK
6
CONTINUOUS
10
0.398289251968504
20
1.1245584645669291
11
0.3937174803149606
21
1.1335309842519685
0
LINE
8
BLACK
6
CONTINUOUS
10
0.3937174803149606
20
1.1335309842519685
11
0.3906593700787401
21
1.1377400393700787
0
LINE
8
BLACK
6
CONTINUOUS
10
0.3906593700787401
20
1.1377400393700787
11
0.3906593700787401
21
1.1377400787401575
0
LINE
8
BLACK
6
CONTINUOUS
10
0.3906593700787401
20
1.1377400787401575
11
0.3764686614173228
21
1.123549409448819
0
LINE
8
BLACK
6
CONTINUOUS
10
0.3764686614173228
20
1.123549409448819
11
0.3767645669291338
21
1.1231421653543308
0
LINE
8
BLACK
6
CONTINUOUS
10
0.3767645669291338
20
1.1231421653543308
11
0.379919842519685
21
1.1169495669291338
0
LINE
8
BLACK
6
CONTINUOUS
10
0.379919842519685
20
1.1169495669291338
11
0.3820675590551181
21
1.1103396062992126
0
LINE
8
BLACK
6
CONTINUOUS
10
0.3820675590551181
20
1.1103396062992126
11
0.3831548031496063
21
1.1034750393700787
0
LINE
8
BLACK
6
CONTINUOUS
10
0.3831548031496063
20
1.1034750393700787
11
0.3831548031496063
21
1.0965249606299212
0
LINE
8
BLACK
6
CONTINUOUS
10
0.3831548031496063
20
1.0965249606299212
11
0.3820675590551181
21
1.0896603937007874
0
LINE
8
BLACK
6
CONTINUOUS
10
0.3820675590551181
20
1.0896603937007874
11
0.379919842519685
21
1.0830504330708661
0
LINE
8
BLACK
6
CONTINUOUS
10
0.379919842519685
20
1.0830504330708661
11
0.3767645669291338
21
1.0768578346456692
0
LINE
8
BLACK
6
CONTINUOUS
10
0.3767645669291338
20
1.0768578346456692
11
0.3764687007874016
21
1.0764506692913385
0
LINE
8
BLACK
6
CONTINUOUS
10
0.3764687007874016
20
1.0764506692913385
11
0.3906593700787401
21
1.06226
0
LINE
8
BLACK
6
CONTINUOUS
10
0.3906593700787401
20
1.06226
11
0.3906593700787401
21
1.0622600393700787
0
LINE
8
BLACK
6
CONTINUOUS
10
0.3906593700787401
20
1.0622600393700787
11
0.3937175196850394
21
1.0664690944881889
0
LINE
8
BLACK
6
CONTINUOUS
10
0.3937175196850394
20
1.0664690944881889
11
0.398289251968504
21
1.0754415748031496
0
LINE
8
BLACK
6
CONTINUOUS
10
0.398289251968504
20
1.0754415748031496
11
0.3982892913385827
21
1.0754416929133859
0
LINE
8
BLACK
6
CONTINUOUS
10
0.3982892913385827
20
1.0754416929133859
11
0.4014010236220472
21
1.085018779527559
0
LINE
8
BLACK
6
CONTINUOUS
10
0.4014010236220472
20
1.085018779527559
11
0.4029763779527559
21
1.094965
0
LINE
8
BLACK
6
CONTINUOUS
10
0.4029763779527559
20
1.094965
11
0.4029763779527559
21
1.1050350393700787
0
LINE
8
BLACK
6
CONTINUOUS
10
0.4029763779527559
20
1.1050350393700787
11
0.4014010236220472
21
1.1149812598425197
0
LINE
8
BLACK
6
CONTINUOUS
10
0.5764686614173228
20
1.123549409448819
11
0.5767645669291338
21
1.1231421653543308
0
LINE
8
BLACK
6
CONTINUOUS
10
0.5767645669291338
20
1.1231421653543308
11
0.579919842519685
21
1.1169495669291338
0
LINE
8
BLACK
6
CONTINUOUS
10
0.579919842519685
20
1.1169495669291338
11
0.5820675590551181
21
1.1103396062992126
0
LINE
8
BLACK
6
CONTINUOUS
10
0.5820675590551181
20
1.1103396062992126
11
0.5831548031496063
21
1.1034750393700787
0
LINE
8
BLACK
6
CONTINUOUS
10
0.5831548031496063
20
1.1034750393700787
11
0.5831548031496063
21
1.0965249606299212
0
LINE
8
BLACK
6
CONTINUOUS
10
0.5831548031496063
20
1.0965249606299212
11
0.5820675590551181
21
1.0896603937007874
0
LINE
8
BLACK
6
CONTINUOUS
10
0.5820675590551181
20
1.0896603937007874
11
0.579919842519685
21
1.0830504330708661
0
LINE
8
BLACK
6
CONTINUOUS
10
0.579919842519685
20
1.0830504330708661
11
0.5767645669291338
21
1.0768578346456692
0
LINE
8
BLACK
6
CONTINUOUS
10
0.5767645669291338
20
1.0768578346456692
11
0.5764687007874015
21
1.0764506692913385
0
LINE
8
BLACK
6
CONTINUOUS
10
0.5764687007874015
20
1.0764506692913385
11
0.5906593700787401
21
1.06226
0
LINE
8
BLACK
6
CONTINUOUS
10
0.5906593700787401
20
1.06226
11
0.5906593700787401
21
1.0622600393700787
0
LINE
8
BLACK
6
CONTINUOUS
10
0.5906593700787401
20
1.0622600393700787
11
0.5937175196850394
21
1.0664690944881889
0
LINE
8
BLACK
6
CONTINUOUS
10
0.5937175196850394
20
1.0664690944881889
11
0.5982892519685039
21
1.0754415748031496
0
LINE
8
BLACK
6
CONTINUOUS
10
0.5982892519685039
20
1.0754415748031496
11
0.5982892913385827
21
1.0754416929133859
0
LINE
8
BLACK
6
CONTINUOUS
10
0.5982892913385827
20
1.0754416929133859
11
0.6014010236220473
21
1.085018779527559
0
LINE
8
BLACK
6
CONTINUOUS
10
0.6014010236220473
20
1.085018779527559
11
0.6023131496062992
21
1.0907776771653543
0
LINE
8
BLACK
6
CONTINUOUS
10
0.6023131496062992
20
1.0907776771653543
11
0.6024720866141732
21
1.0917810236220473
0
LINE
8
BLACK
6
CONTINUOUS
10
0.6024720866141732
20
1.0917810236220473
11
0.6029763779527559
21
1.094965
0
LINE
8
BLACK
6
CONTINUOUS
10
0.6029763779527559
20
1.094965
11
0.6029763779527559
21
1.1050350393700787
0
LINE
8
BLACK
6
CONTINUOUS
10
0.6029763779527559
20
1.1050350393700787
11
0.6014010236220473
21
1.1149812598425197
0
LINE
8
BLACK
6
CONTINUOUS
10
0.6014010236220473
20
1.1149812598425197
11
0.5982892913385827
21
1.1245583464566928
0
LINE
8
BLACK
6
CONTINUOUS
10
0.5982892913385827
20
1.1245583464566928
11
0.5982892519685039
21
1.1245584645669291
0
LINE
8
BLACK
6
CONTINUOUS
10
0.5982892519685039
20
1.1245584645669291
11
0.5937174803149606
21
1.1335309842519685
0
LINE
8
BLACK
6
CONTINUOUS
10
0.5937174803149606
20
1.1335309842519685
11
0.5906593700787401
21
1.1377400393700787
0
LINE
8
BLACK
6
CONTINUOUS
10
0.5906593700787401
20
1.1377400393700787
11
0.5906593700787401
21
1.1377400787401575
0
LINE
8
BLACK
6
CONTINUOUS
10
0.5906593700787401
20
1.1377400787401575
11
0.5764686614173228
21
1.123549409448819
0
LINE
8
BLACK
6
CONTINUOUS
10
2.2269200393700785
20
1.1974357874015749
11
2.2269199999999998
21
1.1974357480314961
0
LINE
8
BLACK
6
CONTINUOUS
10
2.2269199999999998
20
1.1974357480314961
11
2.2243088976377954
21
1.195691062992126
0
LINE
8
BLACK
6
CONTINUOUS
10
2.2243088976377954
20
1.195691062992126
11
2.2225642125984253
21
1.1930799606299212
0
LINE
8
BLACK
6
CONTINUOUS
10
2.2225642125984253
20
1.1930799606299212
11
2.2225641732283465
21
1.1930799212598424
0
LINE
8
BLACK
6
CONTINUOUS
10
2.2225641732283465
20
1.1930799212598424
11
2.2221062598425196
21
1.1907776771653542
0
LINE
8
BLACK
6
CONTINUOUS
10
2.2221062598425196
20
1.1907776771653542
11
2.2221062598425196
21
1.1292223622047244
0
LINE
8
BLACK
6
CONTINUOUS
10
2.2221062598425196
20
1.1292223622047244
11
2.2225641732283465
21
1.1269201181102362
0
LINE
8
BLACK
6
CONTINUOUS
10
2.2225641732283465
20
1.1269201181102362
11
2.2225642125984253
21
1.1269200787401574
0
LINE
8
BLACK
6
CONTINUOUS
10
2.2225642125984253
20
1.1269200787401574
11
2.2243088976377954
21
1.1243089763779528
0
LINE
8
BLACK
6
CONTINUOUS
10
2.2243088976377954
20
1.1243089763779528
11
2.2269199999999998
21
1.1225642913385827
0
LINE
8
BLACK
6
CONTINUOUS
10
2.2269199999999998
20
1.1225642913385827
11
2.2269200393700785
21
1.122564251968504
0
LINE
8
BLACK
6
CONTINUOUS
10
2.2269200393700785
20
1.122564251968504
11
2.229222283464567
21
1.1221063385826771
0
LINE
8
BLACK
6
CONTINUOUS
10
2.229222283464567
20
1.1221063385826771
11
2.2292224015748032
21
1.1221062992125983
0
LINE
8
BLACK
6
CONTINUOUS
10
2.2292224015748032
20
1.1221062992125983
11
2.2292224803149607
21
1.1221062992125983
0
LINE
8
BLACK
6
CONTINUOUS
10
2.2292224803149607
20
1.1221062992125983
11
2.2907775196850393
21
1.1221062992125983
0
LINE
8
BLACK
6
CONTINUOUS
10
2.2907775196850393
20
1.1221062992125983
11
2.290777559055118
21
1.1221063385826771
0
LINE
8
BLACK
6
CONTINUOUS
10
2.290777559055118
20
1.1221063385826771
11
2.2913609055118109
21
1.1222223622047245
0
LINE
8
BLACK
6
CONTINUOUS
10
2.2913609055118109
20
1.1222223622047245
11
2.2930798425196848
21
1.122564251968504
0
LINE
8
BLACK
6
CONTINUOUS
10
2.2930798425196848
20
1.122564251968504
11
2.2930798425196848
21
1.1225642913385827
0
LINE
8
BLACK
6
CONTINUOUS
10
2.2930798425196848
20
1.1225642913385827
11
2.2930799212598423
21
1.1225642913385827
0
LINE
8
BLACK
6
CONTINUOUS
10
2.2930799212598423
20
1.1225642913385827
11
2.2956909842519684
21
1.1243089763779528
0
LINE
8
BLACK
6
CONTINUOUS
10
2.2956909842519684
20
1.1243089763779528
11
2.2974356692913385
21
1.1269200393700787
0
LINE
8
BLACK
6
CONTINUOUS
10
2.2974356692913385
20
1.1269200393700787
11
2.2974356692913385
21
1.1269201181102362
0
LINE
8
BLACK
6
CONTINUOUS
10
2.2974356692913385
20
1.1269201181102362
11
2.2974357086614172
21
1.1269201181102362
0
LINE
8
BLACK
6
CONTINUOUS
10
2.2974357086614172
20
1.1269201181102362
11
2.2978936220472441
21
1.1292223622047244
0
LINE
8
BLACK
6
CONTINUOUS
10
2.2978936220472441
20
1.1292223622047244
11
2.2978936614173229
21
1.1292224409448819
0
LINE
8
BLACK
6
CONTINUOUS
10
2.2978936614173229
20
1.1292224409448819
11
2.2978936614173229
21
1.1907775984251969
0
LINE
8
BLACK
6
CONTINUOUS
10
2.2978936614173229
20
1.1907775984251969
11
2.2978936220472441
21
1.1907776771653542
0
LINE
8
BLACK
6
CONTINUOUS
10
2.2978936220472441
20
1.1907776771653542
11
2.2974357086614172
21
1.1930799212598424
0
LINE
8
BLACK
6
CONTINUOUS
10
2.2974357086614172
20
1.1930799212598424
11
2.2974356692913385
21
1.1930799606299212
0
LINE
8
BLACK
6
CONTINUOUS
10
2.2974356692913385
20
1.1930799606299212
11
2.2956909842519684
21
1.195691062992126
0
LINE
8
BLACK
6
CONTINUOUS
10
2.2956909842519684
20
1.195691062992126
11
2.2930798818897635
21
1.1974357480314961
0
LINE
8
BLACK
6
CONTINUOUS
10
2.2930798818897635
20
1.1974357480314961
11
2.2930798425196848
21
1.1974357874015749
0
LINE
8
BLACK
6
CONTINUOUS
10
2.2930798425196848
20
1.1974357874015749
11
2.2907775984251968
21
1.1978937007874015
0
LINE
8
BLACK
6
CONTINUOUS
10
2.2907775984251968
20
1.1978937007874015
11
2.2907774409448818
21
1.1978937007874015
0
LINE
8
BLACK
6
CONTINUOUS
10
2.2907774409448818
20
1.1978937007874015
11
2.2292224803149607
21
1.1978937007874015
0
LINE
8
BLACK
6
CONTINUOUS
10
2.2292224803149607
20
1.1978937007874015
11
2.229222283464567
21
1.1978937007874015
0
LINE
8
BLACK
6
CONTINUOUS
10
2.229222283464567
20
1.1978937007874015
11
2.2269200393700785
21
1.1974357874015749
0
LINE
8
BLACK
6
CONTINUOUS
10
2.3221063385826772
20
1.1292223622047244
11
2.3225642519685037
21
1.1269201181102362
0
LINE
8
BLACK
6
CONTINUOUS
10
2.3225642519685037
20
1.1269201181102362
11
2.3225642913385824
21
1.1269200787401574
0
LINE
8
BLACK
6
CONTINUOUS
10
2.3225642913385824
20
1.1269200787401574
11
2.3243089763779525
21
1.1243089763779528
0
LINE
8
BLACK
6
CONTINUOUS
10
2.3243089763779525
20
1.1243089763779528
11
2.3269200787401574
21
1.1225642913385827
0
LINE
8
BLACK
6
CONTINUOUS
10
2.3269200787401574
20
1.1225642913385827
11
2.3269201181102361
21
1.122564251968504
0
LINE
8
BLACK
6
CONTINUOUS
10
2.3269201181102361
20
1.122564251968504
11
2.3292223622047246
21
1.1221063385826771
0
LINE
8
BLACK
6
CONTINUOUS
10
2.3292223622047246
20
1.1221063385826771
11
2.3292224803149604
21
1.1221062992125983
0
LINE
8
BLACK
6
CONTINUOUS
10
2.3292224803149604
20
1.1221062992125983
11
2.3292225590551179
21
1.1221062992125983
0
LINE
8
BLACK
6
CONTINUOUS
10
2.3292225590551179
20
1.1221062992125983
11
2.3907775984251969
21
1.1221062992125983
0
LINE
8
BLACK
6
CONTINUOUS
10
2.3907775984251969
20
1.1221062992125983
11
2.3907776377952756
21
1.1221063385826771
0
LINE
8
BLACK
6
CONTINUOUS
10
2.3907776377952756
20
1.1221063385826771
11
2.3913609842519685
21
1.1222223622047245
0
LINE
8
BLACK
6
CONTINUOUS
10
2.3913609842519685
20
1.1222223622047245
11
2.3930799212598424
21
1.122564251968504
0
LINE
8
BLACK
6
CONTINUOUS
10
2.3930799212598424
20
1.122564251968504
11
2.3930799212598424
21
1.1225642913385827
0
LINE
8
BLACK
6
CONTINUOUS
10
2.3930799212598424
20
1.1225642913385827
11
2.3930799999999999
21
1.1225642913385827
0
LINE
8
BLACK
6
CONTINUOUS
10
2.3930799999999999
20
1.1225642913385827
11
2.395691062992126
21
1.1243089763779528
0
LINE
8
BLACK
6
CONTINUOUS
10
2.395691062992126
20
1.1243089763779528
11
2.3974357480314961
21
1.1269200393700787
0
LINE
8
BLACK
6
CONTINUOUS
10
2.3974357480314961
20
1.1269200393700787
11
2.3974357480314961
21
1.1269201181102362
0
LINE
8
BLACK
6
CONTINUOUS
10
2.3974357480314961
20
1.1269201181102362
11
2.3974357874015748
21
1.1269201181102362
0
LINE
8
BLACK
6
CONTINUOUS
10
2.3974357874015748
20
1.1269201181102362
11
2.3978937007874017
21
1.1292223622047244
0
LINE
8
BLACK
6
CONTINUOUS
10
2.3978937007874017
20
1.1292223622047244
11
2.3978937401574805
21
1.1292224409448819
0
LINE
8
BLACK
6
CONTINUOUS
10
2.3978937401574805
20
1.1292224409448819
11
2.3978937401574805
21
1.1907775984251969
0
LINE
8
BLACK
6
CONTINUOUS
10
2.3978937401574805
20
1.1907775984251969
11
2.3978937007874017
21
1.1907776771653542
0
LINE
8
BLACK
6
CONTINUOUS
10
2.3978937007874017
20
1.1907776771653542
11
2.3974357874015748
21
1.1930799212598424
0
LINE
8
BLACK
6
CONTINUOUS
10
2.3974357874015748
20
1.1930799212598424
11
2.3974357480314961
21
1.1930799606299212
0
LINE
8
BLACK
6
CONTINUOUS
10
2.3974357480314961
20
1.1930799606299212
11
2.395691062992126
21
1.195691062992126
0
LINE
8
BLACK
6
CONTINUOUS
10
2.395691062992126
20
1.195691062992126
11
2.3930799606299211
21
1.1974357480314961
0
LINE
8
BLACK
6
CONTINUOUS
10
2.3930799606299211
20
1.1974357480314961
11
2.3930799212598424
21
1.1974357874015749
0
LINE
8
BLACK
6
CONTINUOUS
10
2.3930799212598424
20
1.1974357874015749
11
2.3907776771653544
21
1.1978937007874015
0
LINE
8
BLACK
6
CONTINUOUS
10
2.3907776771653544
20
1.1978937007874015
11
2.3907775196850394
21
1.1978937007874015
0
LINE
8
BLACK
6
CONTINUOUS
10
2.3907775196850394
20
1.1978937007874015
11
2.3292225590551179
21
1.1978937007874015
0
LINE
8
BLACK
6
CONTINUOUS
10
2.3292225590551179
20
1.1978937007874015
11
2.3292223622047246
21
1.1978937007874015
0
LINE
8
BLACK
6
CONTINUOUS
10
2.3292223622047246
20
1.1978937007874015
11
2.3269201181102361
21
1.1974357874015749
0
LINE
8
BLACK
6
CONTINUOUS
10
2.3269201181102361
20
1.1974357874015749
11
2.3269200787401574
21
1.1974357480314961
0
LINE
8
BLACK
6
CONTINUOUS
10
2.3269200787401574
20
1.1974357480314961
11
2.3243089763779525
21
1.195691062992126
0
LINE
8
BLACK
6
CONTINUOUS
10
2.3243089763779525
20
1.195691062992126
11
2.3225642913385824
21
1.1930799606299212
0
LINE
8
BLACK
6
CONTINUOUS
10
2.3225642913385824
20
1.1930799606299212
11
2.3225642519685037
21
1.1930799212598424
0
LINE
8
BLACK
6
CONTINUOUS
10
2.3225642519685037
20
1.1930799212598424
11
2.3221063385826772
21
1.1907776771653542
0
LINE
8
BLACK
6
CONTINUOUS
10
2.3221063385826772
20
1.1907776771653542
11
2.3221063385826772
21
1.1292223622047244
0
LINE
8
BLACK
6
CONTINUOUS
10
0.3240187401574803
20
1.162401062992126
11
0.3144416535433071
21
1.1592893307086614
0
LINE
8
BLACK
6
CONTINUOUS
10
0.3144416535433071
20
1.1592893307086614
11
0.3144415354330709
21
1.1592892913385826
0
LINE
8
BLACK
6
CONTINUOUS
10
0.3144415354330709
20
1.1592892913385826
11
0.3054688976377953
21
1.1547174409448819
0
LINE
8
BLACK
6
CONTINUOUS
10
0.3054688976377953
20
1.1547174409448819
11
0.3012599606299213
21
1.1516594881889763
0
LINE
8
BLACK
6
CONTINUOUS
10
0.3012599606299213
20
1.1516594881889763
11
0.3012599212598425
21
1.1516594488188976
0
LINE
8
BLACK
6
CONTINUOUS
10
0.3012599212598425
20
1.1516594488188976
11
0.3154506299212598
21
1.1374687401574803
0
LINE
8
BLACK
6
CONTINUOUS
10
0.3154506299212598
20
1.1374687401574803
11
0.3158578346456693
21
1.1377645669291339
0
LINE
8
BLACK
6
CONTINUOUS
10
0.3158578346456693
20
1.1377645669291339
11
0.3220504330708661
21
1.1409198425196849
0
LINE
8
BLACK
6
CONTINUOUS
10
0.3220504330708661
20
1.1409198425196849
11
0.3286603937007874
21
1.143067559055118
0
LINE
8
BLACK
6
CONTINUOUS
10
0.3286603937007874
20
1.143067559055118
11
0.3355249606299213
21
1.1441548031496063
0
LINE
8
BLACK
6
CONTINUOUS
10
0.3355249606299213
20
1.1441548031496063
11
0.3424750393700787
21
1.1441548031496063
0
LINE
8
BLACK
6
CONTINUOUS
10
0.3424750393700787
20
1.1441548031496063
11
0.3493396062992126
21
1.143067559055118
0
LINE
8
BLACK
6
CONTINUOUS
10
0.3493396062992126
20
1.143067559055118
11
0.3559495669291339
21
1.1409198425196849
0
LINE
8
BLACK
6
CONTINUOUS
10
0.3559495669291339
20
1.1409198425196849
11
0.3621421653543307
21
1.1377645669291339
0
LINE
8
BLACK
6
CONTINUOUS
10
0.3621421653543307
20
1.1377645669291339
11
0.3625492519685039
21
1.1374688188976378
0
LINE
8
BLACK
6
CONTINUOUS
10
0.3625492519685039
20
1.1374688188976378
11
0.37674
21
1.1516594488188976
0
LINE
8
BLACK
6
CONTINUOUS
10
0.37674
20
1.1516594488188976
11
0.3725309448818898
21
1.1547175196850394
0
LINE
8
BLACK
6
CONTINUOUS
10
0.3725309448818898
20
1.1547175196850394
11
0.3635584251968504
21
1.1592892913385826
0
LINE
8
BLACK
6
CONTINUOUS
10
0.3635584251968504
20
1.1592892913385826
11
0.3635583070866142
21
1.1592893307086614
0
LINE
8
BLACK
6
CONTINUOUS
10
0.3635583070866142
20
1.1592893307086614
11
0.353981220472441
21
1.162401062992126
0
LINE
8
BLACK
6
CONTINUOUS
10
0.353981220472441
20
1.162401062992126
11
0.344035
21
1.1639763779527559
0
LINE
8
BLACK
6
CONTINUOUS
10
0.344035
20
1.1639763779527559
11
0.333965
21
1.1639763779527559
0
LINE
8
BLACK
6
CONTINUOUS
10
0.333965
20
1.1639763779527559
11
0.3240187401574803
21
1.162401062992126
0
LINE
8
BLACK
6
CONTINUOUS
10
0.5240187401574803
20
1.162401062992126
11
0.5144416535433071
21
1.1592893307086614
0
LINE
8
BLACK
6
CONTINUOUS
10
0.5144416535433071
20
1.1592893307086614
11
0.5144415354330708
21
1.1592892913385826
0
LINE
8
BLACK
6
CONTINUOUS
10
0.5144415354330708
20
1.1592892913385826
11
0.5054688976377952
21
1.1547174409448819
0
LINE
8
BLACK
6
CONTINUOUS
10
0.5054688976377952
20
1.1547174409448819
11
0.5012599606299213
21
1.1516594881889763
0
LINE
8
BLACK
6
CONTINUOUS
10
0.5012599606299213
20
1.1516594881889763
11
0.5012599212598425
21
1.1516594488188976
0
LINE
8
BLACK
6
CONTINUOUS
10
0.5012599212598425
20
1.1516594488188976
11
0.5154506299212598
21
1.1374687401574803
0
LINE
8
BLACK
6
CONTINUOUS
10
0.5154506299212598
20
1.1374687401574803
11
0.5158578346456693
21
1.1377645669291339
0
LINE
8
BLACK
6
CONTINUOUS
10
0.5158578346456693
20
1.1377645669291339
11
0.5220504330708662
21
1.1409198425196849
0
LINE
8
BLACK
6
CONTINUOUS
10
0.5220504330708662
20
1.1409198425196849
11
0.5286603937007874
21
1.143067559055118
0
LINE
8
BLACK
6
CONTINUOUS
10
0.5286603937007874
20
1.143067559055118
11
0.5355249606299213
21
1.1441548031496063
0
LINE
8
BLACK
6
CONTINUOUS
10
0.5355249606299213
20
1.1441548031496063
11
0.5424750393700787
21
1.1441548031496063
0
LINE
8
BLACK
6
CONTINUOUS
10
0.5424750393700787
20
1.1441548031496063
11
0.5493396062992126
21
1.143067559055118
0
LINE
8
BLACK
6
CONTINUOUS
10
0.5493396062992126
20
1.143067559055118
11
0.5559495669291339
21
1.1409198425196849
0
LINE
8
BLACK
6
CONTINUOUS
10
0.5559495669291339
20
1.1409198425196849
11
0.5621421653543307
21
1.1377645669291339
0
LINE
8
BLACK
6
CONTINUOUS
10
0.5621421653543307
20
1.1377645669291339
11
0.5625492519685039
21
1.1374688188976378
0
LINE
8
BLACK
6
CONTINUOUS
10
0.5625492519685039
20
1.1374688188976378
11
0.57674
21
1.1516594488188976
0
LINE
8
BLACK
6
CONTINUOUS
10
0.57674
20
1.1516594488188976
11
0.5725309448818897
21
1.1547175196850394
0
LINE
8
BLACK
6
CONTINUOUS
10
0.5725309448818897
20
1.1547175196850394
11
0.5635584251968504
21
1.1592892913385826
0
LINE
8
BLACK
6
CONTINUOUS
10
0.5635584251968504
20
1.1592892913385826
11
0.5635583070866141
21
1.1592893307086614
0
LINE
8
BLACK
6
CONTINUOUS
10
0.5635583070866141
20
1.1592893307086614
11
0.5539812204724409
21
1.162401062992126
0
LINE
8
BLACK
6
CONTINUOUS
10
0.5539812204724409
20
1.162401062992126
11
0.5440349999999999
21
1.1639763779527559
0
LINE
8
BLACK
6
CONTINUOUS
10
0.5440349999999999
20
1.1639763779527559
11
0.533965
21
1.1639763779527559
0
LINE
8
BLACK
6
CONTINUOUS
10
0.533965
20
1.1639763779527559
11
0.5240187401574803
21
1.162401062992126
0
LINE
8
BLACK
6
CONTINUOUS
10
1.5821062992125985
20
1.2192223622047245
11
1.5825642125984252
21
1.2169201181102363
0
LINE
8
BLACK
6
CONTINUOUS
10
1.5825642125984252
20
1.2169201181102363
11
1.5825642519685039
21
1.2169200787401575
0
LINE
8
BLACK
6
CONTINUOUS
10
1.5825642519685039
20
1.2169200787401575
11
1.584308937007874
21
1.2143089763779527
0
LINE
8
BLACK
6
CONTINUOUS
10
1.584308937007874
20
1.2143089763779527
11
1.5869200393700786
21
1.2125642913385826
0
LINE
8
BLACK
6
CONTINUOUS
10
1.5869200393700786
20
1.2125642913385826
11
1.5869200787401574
21
1.2125642519685038
0
LINE
8
BLACK
6
CONTINUOUS
10
1.5869200787401574
20
1.2125642519685038
11
1.5892223228346456
21
1.2121063385826771
0
LINE
8
BLACK
6
CONTINUOUS
10
1.5892223228346456
20
1.2121063385826771
11
1.5892224409448819
21
1.2121062992125984
0
LINE
8
BLACK
6
CONTINUOUS
10
1.5892224409448819
20
1.2121062992125984
11
1.5892225196850394
21
1.2121062992125984
0
LINE
8
BLACK
6
CONTINUOUS
10
1.5892225196850394
20
1.2121062992125984
11
1.6507775590551181
21
1.2121062992125984
0
LINE
8
BLACK
6
CONTINUOUS
10
1.6507775590551181
20
1.2121062992125984
11
1.6507775984251969
21
1.2121063385826771
0
LINE
8
BLACK
6
CONTINUOUS
10
1.6507775984251969
20
1.2121063385826771
11
1.6513609448818898
21
1.2122223622047243
0
LINE
8
BLACK
6
CONTINUOUS
10
1.6513609448818898
20
1.2122223622047243
11
1.6530798818897638
21
1.2125642519685038
0
LINE
8
BLACK
6
CONTINUOUS
10
1.6530798818897638
20
1.2125642519685038
11
1.6530798818897638
21
1.2125642913385826
0
LINE
8
BLACK
6
CONTINUOUS
10
1.6530798818897638
20
1.2125642913385826
11
1.6530799606299211
21
1.2125642913385826
0
LINE
8
BLACK
6
CONTINUOUS
10
1.6530799606299211
20
1.2125642913385826
11
1.6556910236220472
21
1.2143089763779527
0
LINE
8
BLACK
6
CONTINUOUS
10
1.6556910236220472
20
1.2143089763779527
11
1.6574357086614173
21
1.2169200393700788
0
LINE
8
BLACK
6
CONTINUOUS
10
1.6574357086614173
20
1.2169200393700788
11
1.6574357086614173
21
1.2169201181102363
0
LINE
8
BLACK
6
CONTINUOUS
10
1.6574357086614173
20
1.2169201181102363
11
1.6574357480314961
21
1.2169201181102363
0
LINE
8
BLACK
6
CONTINUOUS
10
1.6574357480314961
20
1.2169201181102363
11
1.6578936614173228
21
1.2192223622047245
0
LINE
8
BLACK
6
CONTINUOUS
10
1.6578936614173228
20
1.2192223622047245
11
1.6578937007874015
21
1.219222440944882
0
LINE
8
BLACK
6
CONTINUOUS
10
1.6578937007874015
20
1.219222440944882
11
1.6578937007874015
21
1.2807775984251968
0
LINE
8
BLACK
6
CONTINUOUS
10
1.6578937007874015
20
1.2807775984251968
11
1.6578936614173228
21
1.2807776771653543
0
LINE
8
BLACK
6
CONTINUOUS
10
1.6578936614173228
20
1.2807776771653543
11
1.6574357480314961
21
1.2830799212598425
0
LINE
8
BLACK
6
CONTINUOUS
10
1.6574357480314961
20
1.2830799212598425
11
1.6574357086614173
21
1.2830799606299212
0
LINE
8
BLACK
6
CONTINUOUS
10
1.6574357086614173
20
1.2830799606299212
11
1.6556910236220472
21
1.2856910629921259
0
LINE
8
BLACK
6
CONTINUOUS
10
1.6556910236220472
20
1.2856910629921259
11
1.6537946062992126
21
1.2869581889763779
0
LINE
8
BLACK
6
CONTINUOUS
10
1.6537946062992126
20
1.2869581889763779
11
1.6537945669291338
21
1.2869582283464567
0
LINE
8
BLACK
6
CONTINUOUS
10
1.6537945669291338
20
1.2869582283464567
11
1.6530799606299211
21
1.287435748031496
0
LINE
8
BLACK
6
CONTINUOUS
10
1.6530799606299211
20
1.287435748031496
11
1.6530798818897638
21
1.2874357874015747
0
LINE
8
BLACK
6
CONTINUOUS
10
1.6530798818897638
20
1.2874357874015747
11
1.6507776377952756
21
1.2878937007874016
0
LINE
8
BLACK
6
CONTINUOUS
10
1.6507776377952756
20
1.2878937007874016
11
1.6507774803149606
21
1.2878937007874016
0
LINE
8
BLACK
6
CONTINUOUS
10
1.6507774803149606
20
1.2878937007874016
11
1.5892225196850394
21
1.2878937007874016
0
LINE
8
BLACK
6
CONTINUOUS
10
1.5892225196850394
20
1.2878937007874016
11
1.5892223228346456
21
1.2878937007874016
0
LINE
8
BLACK
6
CONTINUOUS
10
1.5892223228346456
20
1.2878937007874016
11
1.5869200787401574
21
1.2874357874015747
0
LINE
8
BLACK
6
CONTINUOUS
10
1.5869200787401574
20
1.2874357874015747
11
1.5869200393700786
21
1.287435748031496
0
LINE
8
BLACK
6
CONTINUOUS
10
1.5869200393700786
20
1.287435748031496
11
1.584308937007874
21
1.2856910629921259
0
LINE
8
BLACK
6
CONTINUOUS
10
1.584308937007874
20
1.2856910629921259
11
1.5825642519685039
21
1.2830799606299212
0
LINE
8
BLACK
6
CONTINUOUS
10
1.5825642519685039
20
1.2830799606299212
11
1.5825642125984252
21
1.2830799212598425
0
LINE
8
BLACK
6
CONTINUOUS
10
1.5825642125984252
20
1.2830799212598425
11
1.5821062992125985
21
1.2807776771653543
0
LINE
8
BLACK
6
CONTINUOUS
10
1.5821062992125985
20
1.2807776771653543
11
1.5821062992125985
21
1.2192223622047245
0
LINE
8
BLACK
6
CONTINUOUS
10
2.2221062598425196
20
1.2292223622047245
11
2.2225641732283465
21
1.2269201181102363
0
LINE
8
BLACK
6
CONTINUOUS
10
2.2225641732283465
20
1.2269201181102363
11
2.2225642125984253
21
1.2269200787401575
0
LINE
8
BLACK
6
CONTINUOUS
10
2.2225642125984253
20
1.2269200787401575
11
2.2243088976377954
21
1.2243089763779527
0
LINE
8
BLACK
6
CONTINUOUS
10
2.2243088976377954
20
1.2243089763779527
11
2.2269199999999998
21
1.2225642913385826
0
LINE
8
BLACK
6
CONTINUOUS
10
2.2269199999999998
20
1.2225642913385826
11
2.2269200393700785
21
1.2225642519685038
0
LINE
8
BLACK
6
CONTINUOUS
10
2.2269200393700785
20
1.2225642519685038
11
2.229222283464567
21
1.2221063385826771
0
LINE
8
BLACK
6
CONTINUOUS
10
2.229222283464567
20
1.2221063385826771
11
2.2292224015748032
21
1.2221062992125984
0
LINE
8
BLACK
6
CONTINUOUS
10
2.2292224015748032
20
1.2221062992125984
11
2.2292224803149607
21
1.2221062992125984
0
LINE
8
BLACK
6
CONTINUOUS
10
2.2292224803149607
20
1.2221062992125984
11
2.2907775196850393
21
1.2221062992125984
0
LINE
8
BLACK
6
CONTINUOUS
10
2.2907775196850393
20
1.2221062992125984
11
2.290777559055118
21
1.2221063385826771
0
LINE
8
BLACK
6
CONTINUOUS
10
2.290777559055118
20
1.2221063385826771
11
2.2913609055118109
21
1.2222223622047244
0
LINE
8
BLACK
6
CONTINUOUS
10
2.2913609055118109
20
1.2222223622047244
11
2.2930798425196848
21
1.2225642519685038
0
LINE
8
BLACK
6
CONTINUOUS
10
2.2930798425196848
20
1.2225642519685038
11
2.2930798425196848
21
1.2225642913385826
0
LINE
8
BLACK
6
CONTINUOUS
10
2.2930798425196848
20
1.2225642913385826
11
2.2930799212598423
21
1.2225642913385826
0
LINE
8
BLACK
6
CONTINUOUS
10
2.2930799212598423
20
1.2225642913385826
11
2.2956909842519684
21
1.2243089763779527
0
LINE
8
BLACK
6
CONTINUOUS
10
2.2956909842519684
20
1.2243089763779527
11
2.2974356692913385
21
1.2269200393700788
0
LINE
8
BLACK
6
CONTINUOUS
10
2.2974356692913385
20
1.2269200393700788
11
2.2974356692913385
21
1.2269201181102363
0
LINE
8
BLACK
6
CONTINUOUS
10
2.2974356692913385
20
1.2269201181102363
11
2.2974357086614172
21
1.2269201181102363
0
LINE
8
BLACK
6
CONTINUOUS
10
2.2974357086614172
20
1.2269201181102363
11
2.2978936220472441
21
1.2292223622047245
0
LINE
8
BLACK
6
CONTINUOUS
10
2.2978936220472441
20
1.2292223622047245
11
2.2978936614173229
21
1.2292224409448818
0
LINE
8
BLACK
6
CONTINUOUS
10
2.2978936614173229
20
1.2292224409448818
11
2.2978936614173229
21
1.2907775984251968
0
LINE
8
BLACK
6
CONTINUOUS
10
2.2978936614173229
20
1.2907775984251968
11
2.2978936220472441
21
1.2907776771653543
0
LINE
8
BLACK
6
CONTINUOUS
10
2.2978936220472441
20
1.2907776771653543
11
2.2974357086614172
21
1.2930799212598425
0
LINE
8
BLACK
6
CONTINUOUS
10
2.2974357086614172
20
1.2930799212598425
11
2.2974356692913385
21
1.2930799606299213
0
LINE
8
BLACK
6
CONTINUOUS
10
2.2974356692913385
20
1.2930799606299213
11
2.2956909842519684
21
1.2956910629921259
0
LINE
8
BLACK
6
CONTINUOUS
10
2.2956909842519684
20
1.2956910629921259
11
2.2930798818897635
21
1.297435748031496
0
LINE
8
BLACK
6
CONTINUOUS
10
2.2930798818897635
20
1.297435748031496
11
2.2930798425196848
21
1.2974357874015747
0
LINE
8
BLACK
6
CONTINUOUS
10
2.2930798425196848
20
1.2974357874015747
11
2.2907775984251968
21
1.2978937007874016
0
LINE
8
BLACK
6
CONTINUOUS
10
2.2907775984251968
20
1.2978937007874016
11
2.2907774409448818
21
1.2978937007874016
0
LINE
8
BLACK
6
CONTINUOUS
10
2.2907774409448818
20
1.2978937007874016
11
2.2292224803149607
21
1.2978937007874016
0
LINE
8
BLACK
6
CONTINUOUS
10
2.2292224803149607
20
1.2978937007874016
11
2.229222283464567
21
1.2978937007874016
0
LINE
8
BLACK
6
CONTINUOUS
10
2.229222283464567
20
1.2978937007874016
11
2.2269200393700785
21
1.2974357874015747
0
LINE
8
BLACK
6
CONTINUOUS
10
2.2269200393700785
20
1.2974357874015747
11
2.2269199999999998
21
1.297435748031496
0
LINE
8
BLACK
6
CONTINUOUS
10
2.2269199999999998
20
1.297435748031496
11
2.2243088976377954
21
1.2956910629921259
0
LINE
8
BLACK
6
CONTINUOUS
10
2.2243088976377954
20
1.2956910629921259
11
2.2225642125984253
21
1.2930799606299213
0
LINE
8
BLACK
6
CONTINUOUS
10
2.2225642125984253
20
1.2930799606299213
11
2.2225641732283465
21
1.2930799212598425
0
LINE
8
BLACK
6
CONTINUOUS
10
2.2225641732283465
20
1.2930799212598425
11
2.2221062598425196
21
1.2907776771653543
0
LINE
8
BLACK
6
CONTINUOUS
10
2.2221062598425196
20
1.2907776771653543
11
2.2221062598425196
21
1.2292223622047245
0
LINE
8
BLACK
6
CONTINUOUS
10
2.3221063385826772
20
1.2292223622047245
11
2.3225642519685037
21
1.2269201181102363
0
LINE
8
BLACK
6
CONTINUOUS
10
2.3225642519685037
20
1.2269201181102363
11
2.3225642913385824
21
1.2269200787401575
0
LINE
8
BLACK
6
CONTINUOUS
10
2.3225642913385824
20
1.2269200787401575
11
2.3243089763779525
21
1.2243089763779527
0
LINE
8
BLACK
6
CONTINUOUS
10
2.3243089763779525
20
1.2243089763779527
11
2.3269200787401574
21
1.2225642913385826
0
LINE
8
BLACK
6
CONTINUOUS
10
2.3269200787401574
20
1.2225642913385826
11
2.3269201181102361
21
1.2225642519685038
0
LINE
8
BLACK
6
CONTINUOUS
10
2.3269201181102361
20
1.2225642519685038
11
2.3292223622047246
21
1.2221063385826771
0
LINE
8
BLACK
6
CONTINUOUS
10
2.3292223622047246
20
1.2221063385826771
11
2.3292224803149604
21
1.2221062992125984
0
LINE
8
BLACK
6
CONTINUOUS
10
2.3292224803149604
20
1.2221062992125984
11
2.3292225590551179
21
1.2221062992125984
0
LINE
8
BLACK
6
CONTINUOUS
10
2.3292225590551179
20
1.2221062992125984
11
2.3907775984251969
21
1.2221062992125984
0
LINE
8
BLACK
6
CONTINUOUS
10
2.3907775984251969
20
1.2221062992125984
11
2.3907776377952756
21
1.2221063385826771
0
LINE
8
BLACK
6
CONTINUOUS
10
2.3907776377952756
20
1.2221063385826771
11
2.3913609842519685
21
1.2222223622047244
0
LINE
8
BLACK
6
CONTINUOUS
10
2.3913609842519685
20
1.2222223622047244
11
2.3930799212598424
21
1.2225642519685038
0
LINE
8
BLACK
6
CONTINUOUS
10
2.3930799212598424
20
1.2225642519685038
11
2.3930799212598424
21
1.2225642913385826
0
LINE
8
BLACK
6
CONTINUOUS
10
2.3930799212598424
20
1.2225642913385826
11
2.3930799999999999
21
1.2225642913385826
0
LINE
8
BLACK
6
CONTINUOUS
10
2.3930799999999999
20
1.2225642913385826
11
2.395691062992126
21
1.2243089763779527
0
LINE
8
BLACK
6
CONTINUOUS
10
2.395691062992126
20
1.2243089763779527
11
2.3974357480314961
21
1.2269200393700788
0
LINE
8
BLACK
6
CONTINUOUS
10
2.3974357480314961
20
1.2269200393700788
11
2.3974357480314961
21
1.2269201181102363
0
LINE
8
BLACK
6
CONTINUOUS
10
2.3974357480314961
20
1.2269201181102363
11
2.3974357874015748
21
1.2269201181102363
0
LINE
8
BLACK
6
CONTINUOUS
10
2.3974357874015748
20
1.2269201181102363
11
2.3978937007874017
21
1.2292223622047245
0
LINE
8
BLACK
6
CONTINUOUS
10
2.3978937007874017
20
1.2292223622047245
11
2.3978937401574805
21
1.2292224409448818
0
LINE
8
BLACK
6
CONTINUOUS
10
2.3978937401574805
20
1.2292224409448818
11
2.3978937401574805
21
1.2907775984251968
0
LINE
8
BLACK
6
CONTINUOUS
10
2.3978937401574805
20
1.2907775984251968
11
2.3978937007874017
21
1.2907776771653543
0
LINE
8
BLACK
6
CONTINUOUS
10
2.3978937007874017
20
1.2907776771653543
11
2.3974357874015748
21
1.2930799212598425
0
LINE
8
BLACK
6
CONTINUOUS
10
2.3974357874015748
20
1.2930799212598425
11
2.3974357480314961
21
1.2930799606299213
0
LINE
8
BLACK
6
CONTINUOUS
10
2.3974357480314961
20
1.2930799606299213
11
2.395691062992126
21
1.2956910629921259
0
LINE
8
BLACK
6
CONTINUOUS
10
2.395691062992126
20
1.2956910629921259
11
2.3930799606299211
21
1.297435748031496
0
LINE
8
BLACK
6
CONTINUOUS
10
2.3930799606299211
20
1.297435748031496
11
2.3930799212598424
21
1.2974357874015747
0
LINE
8
BLACK
6
CONTINUOUS
10
2.3930799212598424
20
1.2974357874015747
11
2.3907776771653544
21
1.2978937007874016
0
LINE
8
BLACK
6
CONTINUOUS
10
2.3907776771653544
20
1.2978937007874016
11
2.3907775196850394
21
1.2978937007874016
0
LINE
8
BLACK
6
CONTINUOUS
10
2.3907775196850394
20
1.2978937007874016
11
2.3292225590551179
21
1.2978937007874016
0
LINE
8
BLACK
6
CONTINUOUS
10
2.3292225590551179
20
1.2978937007874016
11
2.3292223622047246
21
1.2978937007874016
0
LINE
8
BLACK
6
CONTINUOUS
10
2.3292223622047246
20
1.2978937007874016
11
2.3269201181102361
21
1.2974357874015747
0
LINE
8
BLACK
6
CONTINUOUS
10
2.3269201181102361
20
1.2974357874015747
11
2.3269200787401574
21
1.297435748031496
0
LINE
8
BLACK
6
CONTINUOUS
10
2.3269200787401574
20
1.297435748031496
11
2.3243089763779525
21
1.2956910629921259
0
LINE
8
BLACK
6
CONTINUOUS
10
2.3243089763779525
20
1.2956910629921259
11
2.3225642913385824
21
1.2930799606299213
0
LINE
8
BLACK
6
CONTINUOUS
10
2.3225642913385824
20
1.2930799606299213
11
2.3225642519685037
21
1.2930799212598425
0
LINE
8
BLACK
6
CONTINUOUS
10
2.3225642519685037
20
1.2930799212598425
11
2.3221063385826772
21
1.2907776771653543
0
LINE
8
BLACK
6
CONTINUOUS
10
2.3221063385826772
20
1.2907776771653543
11
2.3221063385826772
21
1.2292223622047245
0
LINE
8
BLACK
6
CONTINUOUS
10
1.5821062992125985
20
1.3192223622047243
11
1.5825642125984252
21
1.3169201181102361
0
LINE
8
BLACK
6
CONTINUOUS
10
1.5825642125984252
20
1.3169201181102361
11
1.5825642519685039
21
1.3169200787401574
0
LINE
8
BLACK
6
CONTINUOUS
10
1.5825642519685039
20
1.3169200787401574
11
1.584308937007874
21
1.3143089763779527
0
LINE
8
BLACK
6
CONTINUOUS
10
1.584308937007874
20
1.3143089763779527
11
1.5869200393700786
21
1.3125642913385827
0
LINE
8
BLACK
6
CONTINUOUS
10
1.5869200393700786
20
1.3125642913385827
11
1.5869200787401574
21
1.3125642519685039
0
LINE
8
BLACK
6
CONTINUOUS
10
1.5869200787401574
20
1.3125642519685039
11
1.5892223228346456
21
1.3121063385826772
0
LINE
8
BLACK
6
CONTINUOUS
10
1.5892223228346456
20
1.3121063385826772
11
1.5892224409448819
21
1.3121062992125985
0
LINE
8
BLACK
6
CONTINUOUS
10
1.5892224409448819
20
1.3121062992125985
11
1.5892225196850394
21
1.3121062992125985
0
LINE
8
BLACK
6
CONTINUOUS
10
1.5892225196850394
20
1.3121062992125985
11
1.6507775590551181
21
1.3121062992125985
0
LINE
8
BLACK
6
CONTINUOUS
10
1.6507775590551181
20
1.3121062992125985
11
1.6507775984251969
21
1.3121063385826772
0
LINE
8
BLACK
6
CONTINUOUS
10
1.6507775984251969
20
1.3121063385826772
11
1.6513609448818898
21
1.3122223622047244
0
LINE
8
BLACK
6
CONTINUOUS
10
1.6513609448818898
20
1.3122223622047244
11
1.6530798818897638
21
1.3125642519685039
0
LINE
8
BLACK
6
CONTINUOUS
10
1.6530798818897638
20
1.3125642519685039
11
1.6530798818897638
21
1.3125642913385827
0
LINE
8
BLACK
6
CONTINUOUS
10
1.6530798818897638
20
1.3125642913385827
11
1.6530799606299211
21
1.3125642913385827
0
LINE
8
BLACK
6
CONTINUOUS
10
1.6530799606299211
20
1.3125642913385827
11
1.6556910236220472
21
1.3143089763779527
0
LINE
8
BLACK
6
CONTINUOUS
10
1.6556910236220472
20
1.3143089763779527
11
1.6574357086614173
21
1.3169200393700786
0
LINE
8
BLACK
6
CONTINUOUS
10
1.6574357086614173
20
1.3169200393700786
11
1.6574357086614173
21
1.3169201181102361
0
LINE
8
BLACK
6
CONTINUOUS
10
1.6574357086614173
20
1.3169201181102361
11
1.6574357480314961
21
1.3169201181102361
0
LINE
8
BLACK
6
CONTINUOUS
10
1.6574357480314961
20
1.3169201181102361
11
1.6578936614173228
21
1.3192223622047243
0
LINE
8
BLACK
6
CONTINUOUS
10
1.6578936614173228
20
1.3192223622047243
11
1.6578937007874015
21
1.3192224409448818
0
LINE
8
BLACK
6
CONTINUOUS
10
1.6578937007874015
20
1.3192224409448818
11
1.6578937007874015
21
1.3807775984251969
0
LINE
8
BLACK
6
CONTINUOUS
10
1.6578937007874015
20
1.3807775984251969
11
1.6578936614173228
21
1.3807776771653544
0
LINE
8
BLACK
6
CONTINUOUS
10
1.6578936614173228
20
1.3807776771653544
11
1.6574357480314961
21
1.3830799212598426
0
LINE
8
BLACK
6
CONTINUOUS
10
1.6574357480314961
20
1.3830799212598426
11
1.6574357086614173
21
1.3830799606299213
0
LINE
8
BLACK
6
CONTINUOUS
10
1.6574357086614173
20
1.3830799606299213
11
1.6556910236220472
21
1.385691062992126
0
LINE
8
BLACK
6
CONTINUOUS
10
1.6556910236220472
20
1.385691062992126
11
1.6537946062992126
21
1.386958188976378
0
LINE
8
BLACK
6
CONTINUOUS
10
1.6537946062992126
20
1.386958188976378
11
1.6537945669291338
21
1.3869582283464568
0
LINE
8
BLACK
6
CONTINUOUS
10
1.6537945669291338
20
1.3869582283464568
11
1.6530799606299211
21
1.3874357480314961
0
LINE
8
BLACK
6
CONTINUOUS
10
1.6530799606299211
20
1.3874357480314961
11
1.6530798818897638
21
1.3874357874015748
0
LINE
8
BLACK
6
CONTINUOUS
10
1.6530798818897638
20
1.3874357874015748
11
1.6507776377952756
21
1.3878937007874015
0
LINE
8
BLACK
6
CONTINUOUS
10
1.6507776377952756
20
1.3878937007874015
11
1.6507774803149606
21
1.3878937007874015
0
LINE
8
BLACK
6
CONTINUOUS
10
1.6507774803149606
20
1.3878937007874015
11
1.5892225196850394
21
1.3878937007874015
0
LINE
8
BLACK
6
CONTINUOUS
10
1.5892225196850394
20
1.3878937007874015
11
1.5892223228346456
21
1.3878937007874015
0
LINE
8
BLACK
6
CONTINUOUS
10
1.5892223228346456
20
1.3878937007874015
11
1.5869200787401574
21
1.3874357874015748
0
LINE
8
BLACK
6
CONTINUOUS
10
1.5869200787401574
20
1.3874357874015748
11
1.5869200393700786
21
1.3874357480314961
0
LINE
8
BLACK
6
CONTINUOUS
10
1.5869200393700786
20
1.3874357480314961
11
1.584308937007874
21
1.385691062992126
0
LINE
8
BLACK
6
CONTINUOUS
10
1.584308937007874
20
1.385691062992126
11
1.5825642519685039
21
1.3830799606299213
0
LINE
8
BLACK
6
CONTINUOUS
10
1.5825642519685039
20
1.3830799606299213
11
1.5825642125984252
21
1.3830799212598426
0
LINE
8
BLACK
6
CONTINUOUS
10
1.5825642125984252
20
1.3830799212598426
11
1.5821062992125985
21
1.3807776771653544
0
LINE
8
BLACK
6
CONTINUOUS
10
1.5821062992125985
20
1.3807776771653544
11
1.5821062992125985
21
1.3192223622047243
0
LINE
8
BLACK
6
CONTINUOUS
10
2.2221062598425196
20
1.3292223622047243
11
2.2225641732283465
21
1.3269201181102361
0
LINE
8
BLACK
6
CONTINUOUS
10
2.2225641732283465
20
1.3269201181102361
11
2.2225642125984253
21
1.3269200787401574
0
LINE
8
BLACK
6
CONTINUOUS
10
2.2225642125984253
20
1.3269200787401574
11
2.2243088976377954
21
1.3243089763779528
0
LINE
8
BLACK
6
CONTINUOUS
10
2.2243088976377954
20
1.3243089763779528
11
2.2269199999999998
21
1.3225642913385827
0
LINE
8
BLACK
6
CONTINUOUS
10
2.2269199999999998
20
1.3225642913385827
11
2.2269200393700785
21
1.3225642519685039
0
LINE
8
BLACK
6
CONTINUOUS
10
2.2269200393700785
20
1.3225642519685039
11
2.229222283464567
21
1.3221063385826772
0
LINE
8
BLACK
6
CONTINUOUS
10
2.229222283464567
20
1.3221063385826772
11
2.2292224015748032
21
1.3221062992125985
0
LINE
8
BLACK
6
CONTINUOUS
10
2.2292224015748032
20
1.3221062992125985
11
2.2292224803149607
21
1.3221062992125985
0
LINE
8
BLACK
6
CONTINUOUS
10
2.2292224803149607
20
1.3221062992125985
11
2.2907775196850393
21
1.3221062992125985
0
LINE
8
BLACK
6
CONTINUOUS
10
2.2907775196850393
20
1.3221062992125985
11
2.290777559055118
21
1.3221063385826772
0
LINE
8
BLACK
6
CONTINUOUS
10
2.290777559055118
20
1.3221063385826772
11
2.2913609055118109
21
1.3222223622047244
0
LINE
8
BLACK
6
CONTINUOUS
10
2.2913609055118109
20
1.3222223622047244
11
2.2930798425196848
21
1.3225642519685039
0
LINE
8
BLACK
6
CONTINUOUS
10
2.2930798425196848
20
1.3225642519685039
11
2.2930798425196848
21
1.3225642913385827
0
LINE
8
BLACK
6
CONTINUOUS
10
2.2930798425196848
20
1.3225642913385827
11
2.2930799212598423
21
1.3225642913385827
0
LINE
8
BLACK
6
CONTINUOUS
10
2.2930799212598423
20
1.3225642913385827
11
2.2956909842519684
21
1.3243089763779528
0
LINE
8
BLACK
6
CONTINUOUS
10
2.2956909842519684
20
1.3243089763779528
11
2.2974356692913385
21
1.3269200393700786
0
LINE
8
BLACK
6
CONTINUOUS
10
2.2974356692913385
20
1.3269200393700786
11
2.2974356692913385
21
1.3269201181102361
0
LINE
8
BLACK
6
CONTINUOUS
10
2.2974356692913385
20
1.3269201181102361
11
2.2974357086614172
21
1.3269201181102361
0
LINE
8
BLACK
6
CONTINUOUS
10
2.2974357086614172
20
1.3269201181102361
11
2.2978936220472441
21
1.3292223622047243
0
LINE
8
BLACK
6
CONTINUOUS
10
2.2978936220472441
20
1.3292223622047243
11
2.2978936614173229
21
1.3292224409448818
0
LINE
8
BLACK
6
CONTINUOUS
10
2.2978936614173229
20
1.3292224409448818
11
2.2978936614173229
21
1.3907775984251969
0
LINE
8
BLACK
6
CONTINUOUS
10
2.2978936614173229
20
1.3907775984251969
11
2.2978936220472441
21
1.3907776771653544
0
LINE
8
BLACK
6
CONTINUOUS
10
2.2978936220472441
20
1.3907776771653544
11
2.2974357086614172
21
1.3930799212598426
0
LINE
8
BLACK
6
CONTINUOUS
10
2.2974357086614172
20
1.3930799212598426
11
2.2974356692913385
21
1.3930799606299211
0
LINE
8
BLACK
6
CONTINUOUS
10
2.2974356692913385
20
1.3930799606299211
11
2.2956909842519684
21
1.395691062992126
0
LINE
8
BLACK
6
CONTINUOUS
10
2.2956909842519684
20
1.395691062992126
11
2.2930798818897635
21
1.3974357480314961
0
LINE
8
BLACK
6
CONTINUOUS
10
2.2930798818897635
20
1.3974357480314961
11
2.2930798425196848
21
1.3974357874015748
0
LINE
8
BLACK
6
CONTINUOUS
10
2.2930798425196848
20
1.3974357874015748
11
2.2907775984251968
21
1.3978937007874015
0
LINE
8
BLACK
6
CONTINUOUS
10
2.2907775984251968
20
1.3978937007874015
11
2.2907774409448818
21
1.3978937007874015
0
LINE
8
BLACK
6
CONTINUOUS
10
2.2907774409448818
20
1.3978937007874015
11
2.2292224803149607
21
1.3978937007874015
0
LINE
8
BLACK
6
CONTINUOUS
10
2.2292224803149607
20
1.3978937007874015
11
2.229222283464567
21
1.3978937007874015
0
LINE
8
BLACK
6
CONTINUOUS
10
2.229222283464567
20
1.3978937007874015
11
2.2269200393700785
21
1.3974357874015748
0
LINE
8
BLACK
6
CONTINUOUS
10
2.2269200393700785
20
1.3974357874015748
11
2.2269199999999998
21
1.3974357480314961
0
LINE
8
BLACK
6
CONTINUOUS
10
2.2269199999999998
20
1.3974357480314961
11
2.2243088976377954
21
1.395691062992126
0
LINE
8
BLACK
6
CONTINUOUS
10
2.2243088976377954
20
1.395691062992126
11
2.2225642125984253
21
1.3930799606299211
0
LINE
8
BLACK
6
CONTINUOUS
10
2.2225642125984253
20
1.3930799606299211
11
2.2225641732283465
21
1.3930799212598426
0
LINE
8
BLACK
6
CONTINUOUS
10
2.2225641732283465
20
1.3930799212598426
11
2.2221062598425196
21
1.3907776771653544
0
LINE
8
BLACK
6
CONTINUOUS
10
2.2221062598425196
20
1.3907776771653544
11
2.2221062598425196
21
1.3292223622047243
0
LINE
8
BLACK
6
CONTINUOUS
10
2.3221063385826772
20
1.3292223622047243
11
2.3225642519685037
21
1.3269201181102361
0
LINE
8
BLACK
6
CONTINUOUS
10
2.3225642519685037
20
1.3269201181102361
11
2.3225642913385824
21
1.3269200787401574
0
LINE
8
BLACK
6
CONTINUOUS
10
2.3225642913385824
20
1.3269200787401574
11
2.3243089763779525
21
1.3243089763779528
0
LINE
8
BLACK
6
CONTINUOUS
10
2.3243089763779525
20
1.3243089763779528
11
2.3269200787401574
21
1.3225642913385827
0
LINE
8
BLACK
6
CONTINUOUS
10
2.3269200787401574
20
1.3225642913385827
11
2.3269201181102361
21
1.3225642519685039
0
LINE
8
BLACK
6
CONTINUOUS
10
2.3269201181102361
20
1.3225642519685039
11
2.3292223622047246
21
1.3221063385826772
0
LINE
8
BLACK
6
CONTINUOUS
10
2.3292223622047246
20
1.3221063385826772
11
2.3292224803149604
21
1.3221062992125985
0
LINE
8
BLACK
6
CONTINUOUS
10
2.3292224803149604
20
1.3221062992125985
11
2.3292225590551179
21
1.3221062992125985
0
LINE
8
BLACK
6
CONTINUOUS
10
2.3292225590551179
20
1.3221062992125985
11
2.3907775984251969
21
1.3221062992125985
0
LINE
8
BLACK
6
CONTINUOUS
10
2.3907775984251969
20
1.3221062992125985
11
2.3907776377952756
21
1.3221063385826772
0
LINE
8
BLACK
6
CONTINUOUS
10
2.3907776377952756
20
1.3221063385826772
11
2.3913609842519685
21
1.3222223622047244
0
LINE
8
BLACK
6
CONTINUOUS
10
2.3913609842519685
20
1.3222223622047244
11
2.3930799212598424
21
1.3225642519685039
0
LINE
8
BLACK
6
CONTINUOUS
10
2.3930799212598424
20
1.3225642519685039
11
2.3930799212598424
21
1.3225642913385827
0
LINE
8
BLACK
6
CONTINUOUS
10
2.3930799212598424
20
1.3225642913385827
11
2.3930799999999999
21
1.3225642913385827
0
LINE
8
BLACK
6
CONTINUOUS
10
2.3930799999999999
20
1.3225642913385827
11
2.395691062992126
21
1.3243089763779528
0
LINE
8
BLACK
6
CONTINUOUS
10
2.395691062992126
20
1.3243089763779528
11
2.3974357480314961
21
1.3269200393700786
0
LINE
8
BLACK
6
CONTINUOUS
10
2.3974357480314961
20
1.3269200393700786
11
2.3974357480314961
21
1.3269201181102361
0
LINE
8
BLACK
6
CONTINUOUS
10
2.3974357480314961
20
1.3269201181102361
11
2.3974357874015748
21
1.3269201181102361
0
LINE
8
BLACK
6
CONTINUOUS
10
2.3974357874015748
20
1.3269201181102361
11
2.3978937007874017
21
1.3292223622047243
0
LINE
8
BLACK
6
CONTINUOUS
10
2.3978937007874017
20
1.3292223622047243
11
2.3978937401574805
21
1.3292224409448818
0
LINE
8
BLACK
6
CONTINUOUS
10
2.3978937401574805
20
1.3292224409448818
11
2.3978937401574805
21
1.3907775984251969
0
LINE
8
BLACK
6
CONTINUOUS
10
2.3978937401574805
20
1.3907775984251969
11
2.3978937007874017
21
1.3907776771653544
0
LINE
8
BLACK
6
CONTINUOUS
10
2.3978937007874017
20
1.3907776771653544
11
2.3974357874015748
21
1.3930799212598426
0
LINE
8
BLACK
6
CONTINUOUS
10
2.3974357874015748
20
1.3930799212598426
11
2.3974357480314961
21
1.3930799606299211
0
LINE
8
BLACK
6
CONTINUOUS
10
2.3974357480314961
20
1.3930799606299211
11
2.395691062992126
21
1.395691062992126
0
LINE
8
BLACK
6
CONTINUOUS
10
2.395691062992126
20
1.395691062992126
11
2.3930799606299211
21
1.3974357480314961
0
LINE
8
BLACK
6
CONTINUOUS
10
2.3930799606299211
20
1.3974357480314961
11
2.3930799212598424
21
1.3974357874015748
0
LINE
8
BLACK
6
CONTINUOUS
10
2.3930799212598424
20
1.3974357874015748
11
2.3907776771653544
21
1.3978937007874015
0
LINE
8
BLACK
6
CONTINUOUS
10
2.3907776771653544
20
1.3978937007874015
11
2.3907775196850394
21
1.3978937007874015
0
LINE
8
BLACK
6
CONTINUOUS
10
2.3907775196850394
20
1.3978937007874015
11
2.3292225590551179
21
1.3978937007874015
0
LINE
8
BLACK
6
CONTINUOUS
10
2.3292225590551179
20
1.3978937007874015
11
2.3292223622047246
21
1.3978937007874015
0
LINE
8
BLACK
6
CONTINUOUS
10
2.3292223622047246
20
1.3978937007874015
11
2.3269201181102361
21
1.3974357874015748
0
LINE
8
BLACK
6
CONTINUOUS
10
2.3269201181102361
20
1.3974357874015748
11
2.3269200787401574
21
1.3974357480314961
0
LINE
8
BLACK
6
CONTINUOUS
10
2.3269200787401574
20
1.3974357480314961
11
2.3243089763779525
21
1.395691062992126
0
LINE
8
BLACK
6
CONTINUOUS
10
2.3243089763779525
20
1.395691062992126
11
2.3225642913385824
21
1.3930799606299211
0
LINE
8
BLACK
6
CONTINUOUS
10
2.3225642913385824
20
1.3930799606299211
11
2.3225642519685037
21
1.3930799212598426
0
LINE
8
BLACK
6
CONTINUOUS
10
2.3225642519685037
20
1.3930799212598426
11
2.3221063385826772
21
1.3907776771653544
0
LINE
8
BLACK
6
CONTINUOUS
10
2.3221063385826772
20
1.3907776771653544
11
2.3221063385826772
21
1.3292223622047243
0
LINE
8
BLACK
6
CONTINUOUS
10
0.2750236220472441
20
0.894965
11
0.276598937007874
21
0.885018779527559
0
LINE
8
BLACK
6
CONTINUOUS
10
0.276598937007874
20
0.885018779527559
11
0.2797106692913386
21
0.8754416929133858
0
LINE
8
BLACK
6
CONTINUOUS
10
0.2797106692913386
20
0.8754416929133858
11
0.2797107086614173
21
0.8754415748031495
0
LINE
8
BLACK
6
CONTINUOUS
10
0.2797107086614173
20
0.8754415748031495
11
0.2842824803149606
21
0.8664690551181102
0
LINE
8
BLACK
6
CONTINUOUS
10
0.2842824803149606
20
0.8664690551181102
11
0.2873405511811024
21
0.8622600393700787
0
LINE
8
BLACK
6
CONTINUOUS
10
0.2873405511811024
20
0.8622600393700787
11
0.2873405511811024
21
0.86226
0
LINE
8
BLACK
6
CONTINUOUS
10
0.2873405511811024
20
0.86226
11
0.301531220472441
21
0.8764507086614173
0
LINE
8
BLACK
6
CONTINUOUS
10
0.301531220472441
20
0.8764507086614173
11
0.3012354330708661
21
0.8768578346456692
0
LINE
8
BLACK
6
CONTINUOUS
10
0.3012354330708661
20
0.8768578346456692
11
0.298080157480315
21
0.8830504330708662
0
LINE
8
BLACK
6
CONTINUOUS
10
0.298080157480315
20
0.8830504330708662
11
0.2959324409448819
21
0.8896603937007874
0
LINE
8
BLACK
6
CONTINUOUS
10
0.2959324409448819
20
0.8896603937007874
11
0.2948451968503937
21
0.8965249606299213
0
LINE
8
BLACK
6
CONTINUOUS
10
0.2948451968503937
20
0.8965249606299213
11
0.2948451968503937
21
0.9034750393700787
0
LINE
8
BLACK
6
CONTINUOUS
10
0.2948451968503937
20
0.9034750393700787
11
0.2959324409448819
21
0.9103396062992126
0
LINE
8
BLACK
6
CONTINUOUS
10
0.2959324409448819
20
0.9103396062992126
11
0.298080157480315
21
0.9169495669291339
0
LINE
8
BLACK
6
CONTINUOUS
10
0.298080157480315
20
0.9169495669291339
11
0.3012354330708661
21
0.9231421653543307
0
LINE
8
BLACK
6
CONTINUOUS
10
0.3012354330708661
20
0.9231421653543307
11
0.3015312598425197
21
0.9235493700787402
0
LINE
8
BLACK
6
CONTINUOUS
10
0.3015312598425197
20
0.9235493700787402
11
0.2873405511811024
21
0.9377400787401574
0
LINE
8
BLACK
6
CONTINUOUS
10
0.2873405511811024
20
0.9377400787401574
11
0.2873405118110236
21
0.9377400393700788
0
LINE
8
BLACK
6
CONTINUOUS
10
0.2873405118110236
20
0.9377400393700788
11
0.2842825590551181
21
0.9335311023622047
0
LINE
8
BLACK
6
CONTINUOUS
10
0.2842825590551181
20
0.9335311023622047
11
0.2797107086614173
21
0.9245584645669291
0
LINE
8
BLACK
6
CONTINUOUS
10
0.2797107086614173
20
0.9245584645669291
11
0.2797106692913386
21
0.9245583464566929
0
LINE
8
BLACK
6
CONTINUOUS
10
0.2797106692913386
20
0.9245583464566929
11
0.276598937007874
21
0.9149812598425197
0
LINE
8
BLACK
6
CONTINUOUS
10
0.276598937007874
20
0.9149812598425197
11
0.2750236220472441
21
0.9050350393700787
0
LINE
8
BLACK
6
CONTINUOUS
10
0.2750236220472441
20
0.9050350393700787
11
0.2750236220472441
21
0.894965
0
LINE
8
BLACK
6
CONTINUOUS
10
0.4750236220472441
20
0.894965
11
0.476598937007874
21
0.885018779527559
0
LINE
8
BLACK
6
CONTINUOUS
10
0.476598937007874
20
0.885018779527559
11
0.4797106692913386
21
0.8754416929133858
0
LINE
8
BLACK
6
CONTINUOUS
10
0.4797106692913386
20
0.8754416929133858
11
0.4797107086614173
21
0.8754415748031495
0
LINE
8
BLACK
6
CONTINUOUS
10
0.4797107086614173
20
0.8754415748031495
11
0.4842824803149606
21
0.8664690551181102
0
LINE
8
BLACK
6
CONTINUOUS
10
0.4842824803149606
20
0.8664690551181102
11
0.4873405511811024
21
0.8622600393700787
0
LINE
8
BLACK
6
CONTINUOUS
10
0.4873405511811024
20
0.8622600393700787
11
0.4873405511811024
21
0.86226
0
LINE
8
BLACK
6
CONTINUOUS
10
0.4873405511811024
20
0.86226
11
0.5015312204724409
21
0.8764507086614173
0
LINE
8
BLACK
6
CONTINUOUS
10
0.5015312204724409
20
0.8764507086614173
11
0.5012354330708662
21
0.8768578346456692
0
LINE
8
BLACK
6
CONTINUOUS
10
0.5012354330708662
20
0.8768578346456692
11
0.4980801574803149
21
0.8830504330708662
0
LINE
8
BLACK
6
CONTINUOUS
10
0.4980801574803149
20
0.8830504330708662
11
0.4959324409448819
21
0.8896603937007874
0
LINE
8
BLACK
6
CONTINUOUS
10
0.4959324409448819
20
0.8896603937007874
11
0.4948451968503937
21
0.8965249606299213
0
LINE
8
BLACK
6
CONTINUOUS
10
0.4948451968503937
20
0.8965249606299213
11
0.4948451968503937
21
0.9034750393700787
0
LINE
8
BLACK
6
CONTINUOUS
10
0.4948451968503937
20
0.9034750393700787
11
0.4959324409448819
21
0.9103396062992126
0
LINE
8
BLACK
6
CONTINUOUS
10
0.4959324409448819
20
0.9103396062992126
11
0.4980801574803149
21
0.9169495669291339
0
LINE
8
BLACK
6
CONTINUOUS
10
0.4980801574803149
20
0.9169495669291339
11
0.5012354330708662
21
0.9231421653543307
0
LINE
8
BLACK
6
CONTINUOUS
10
0.5012354330708662
20
0.9231421653543307
11
0.5015312598425197
21
0.9235493700787402
0
LINE
8
BLACK
6
CONTINUOUS
10
0.5015312598425197
20
0.9235493700787402
11
0.4873405511811024
21
0.9377400787401574
0
LINE
8
BLACK
6
CONTINUOUS
10
0.4873405511811024
20
0.9377400787401574
11
0.4873405118110236
21
0.9377400393700788
0
LINE
8
BLACK
6
CONTINUOUS
10
0.4873405118110236
20
0.9377400393700788
11
0.4842825590551181
21
0.9335311023622047
0
LINE
8
BLACK
6
CONTINUOUS
10
0.4842825590551181
20
0.9335311023622047
11
0.4797107086614173
21
0.9245584645669291
0
LINE
8
BLACK
6
CONTINUOUS
10
0.4797107086614173
20
0.9245584645669291
11
0.4797106692913386
21
0.9245583464566929
0
LINE
8
BLACK
6
CONTINUOUS
10
0.4797106692913386
20
0.9245583464566929
11
0.476598937007874
21
0.9149812598425197
0
LINE
8
BLACK
6
CONTINUOUS
10
0.476598937007874
20
0.9149812598425197
11
0.4750236220472441
21
0.9050350393700787
0
LINE
8
BLACK
6
CONTINUOUS
10
0.4750236220472441
20
0.9050350393700787
11
0.4750236220472441
21
0.894965
0
LINE
8
BLACK
6
CONTINUOUS
10
2.2103149606299213
20
0.8998425196850394
11
2.23
21
0.8998425196850394
0
LINE
8
BLACK
6
CONTINUOUS
10
2.23
20
0.8998425196850394
11
2.23
21
0.9199999999999999
0
LINE
8
BLACK
6
CONTINUOUS
10
2.23
20
0.9199999999999999
11
2.2501574803149604
21
0.9199999999999999
0
LINE
8
BLACK
6
CONTINUOUS
10
2.2501574803149604
20
0.9199999999999999
11
2.2501574803149604
21
0.9396850393700787
0
LINE
8
BLACK
6
CONTINUOUS
10
2.2501574803149604
20
0.9396850393700787
11
2.228116338582677
21
0.9396850393700787
0
LINE
8
BLACK
6
CONTINUOUS
10
2.228116338582677
20
0.9396850393700787
11
2.2257727165354328
21
0.9394330314960629
0
LINE
8
BLACK
6
CONTINUOUS
10
2.2257727165354328
20
0.9394330314960629
11
2.225772440944882
21
0.9394329527559054
0
LINE
8
BLACK
6
CONTINUOUS
10
2.225772440944882
20
0.9394329527559054
11
2.2204690157480313
21
0.9374549212598425
0
LINE
8
BLACK
6
CONTINUOUS
10
2.2204690157480313
20
0.9374549212598425
11
2.2204687401574801
21
0.9374547637795275
0
LINE
8
BLACK
6
CONTINUOUS
10
2.2204687401574801
20
0.9374547637795275
11
2.2159374803149605
21
0.9340626377952755
0
LINE
8
BLACK
6
CONTINUOUS
10
2.2159374803149605
20
0.9340626377952755
11
2.2159373622047243
21
0.9340625196850394
0
LINE
8
BLACK
6
CONTINUOUS
10
2.2159373622047243
20
0.9340625196850394
11
2.2125452362204725
21
0.9295312598425197
0
LINE
8
BLACK
6
CONTINUOUS
10
2.2125452362204725
20
0.9295312598425197
11
2.2125450787401575
21
0.9295309842519685
0
LINE
8
BLACK
6
CONTINUOUS
10
2.2125450787401575
20
0.9295309842519685
11
2.2105670472440946
21
0.9242275590551181
0
LINE
8
BLACK
6
CONTINUOUS
10
2.2105670472440946
20
0.9242275590551181
11
2.2105669685039371
21
0.924227283464567
0
LINE
8
BLACK
6
CONTINUOUS
10
2.2105669685039371
20
0.924227283464567
11
2.2103149606299213
21
0.9218836614173228
0
LINE
8
BLACK
6
CONTINUOUS
10
2.2103149606299213
20
0.9218836614173228
11
2.2103149606299213
21
0.8998425196850394
0
LINE
8
BLACK
6
CONTINUOUS
10
0.2750236220472441
20
1.094965
11
0.276598937007874
21
1.085018779527559
0
LINE
8
BLACK
6
CONTINUOUS
10
0.276598937007874
20
1.085018779527559
11
0.2797106692913386
21
1.0754416929133859
0
LINE
8
BLACK
6
CONTINUOUS
10
0.2797106692913386
20
1.0754416929133859
11
0.2797107086614173
21
1.0754415748031496
0
LINE
8
BLACK
6
CONTINUOUS
10
0.2797107086614173
20
1.0754415748031496
11
0.2842824803149606
21
1.0664690551181102
0
LINE
8
BLACK
6
CONTINUOUS
10
0.2842824803149606
20
1.0664690551181102
11
0.2873405511811024
21
1.0622600393700787
0
LINE
8
BLACK
6
CONTINUOUS
10
0.2873405511811024
20
1.0622600393700787
11
0.2873405511811024
21
1.06226
0
LINE
8
BLACK
6
CONTINUOUS
10
0.2873405511811024
20
1.06226
11
0.301531220472441
21
1.0764507086614172
0
LINE
8
BLACK
6
CONTINUOUS
10
0.301531220472441
20
1.0764507086614172
11
0.3012354330708661
21
1.0768578346456692
0
LINE
8
BLACK
6
CONTINUOUS
10
0.3012354330708661
20
1.0768578346456692
11
0.298080157480315
21
1.0830504330708661
0
LINE
8
BLACK
6
CONTINUOUS
10
0.298080157480315
20
1.0830504330708661
11
0.2959324409448819
21
1.0896603937007874
0
LINE
8
BLACK
6
CONTINUOUS
10
0.2959324409448819
20
1.0896603937007874
11
0.2948451968503937
21
1.0965249606299212
0
LINE
8
BLACK
6
CONTINUOUS
10
0.2948451968503937
20
1.0965249606299212
11
0.2948451968503937
21
1.1034750393700787
0
LINE
8
BLACK
6
CONTINUOUS
10
0.2948451968503937
20
1.1034750393700787
11
0.2959324409448819
21
1.1103396062992126
0
LINE
8
BLACK
6
CONTINUOUS
10
0.2959324409448819
20
1.1103396062992126
11
0.298080157480315
21
1.1169495669291338
0
LINE
8
BLACK
6
CONTINUOUS
10
0.298080157480315
20
1.1169495669291338
11
0.3012354330708661
21
1.1231421653543308
0
LINE
8
BLACK
6
CONTINUOUS
10
0.3012354330708661
20
1.1231421653543308
11
0.3015312598425197
21
1.1235493700787402
0
LINE
8
BLACK
6
CONTINUOUS
10
0.3015312598425197
20
1.1235493700787402
11
0.2873405511811024
21
1.1377400787401575
0
LINE
8
BLACK
6
CONTINUOUS
10
0.2873405511811024
20
1.1377400787401575
11
0.2873405118110236
21
1.1377400393700787
0
LINE
8
BLACK
6
CONTINUOUS
10
0.2873405118110236
20
1.1377400393700787
11
0.2842825590551181
21
1.1335311023622048
0
LINE
8
BLACK
6
CONTINUOUS
10
0.2842825590551181
20
1.1335311023622048
11
0.2797107086614173
21
1.1245584645669291
0
LINE
8
BLACK
6
CONTINUOUS
10
0.2797107086614173
20
1.1245584645669291
11
0.2797106692913386
21
1.1245583464566928
0
LINE
8
BLACK
6
CONTINUOUS
10
0.2797106692913386
20
1.1245583464566928
11
0.276598937007874
21
1.1149812598425197
0
LINE
8
BLACK
6
CONTINUOUS
10
0.276598937007874
20
1.1149812598425197
11
0.2750236220472441
21
1.1050350393700787
0
LINE
8
BLACK
6
CONTINUOUS
10
0.2750236220472441
20
1.1050350393700787
11
0.2750236220472441
21
1.094965
0
LINE
8
BLACK
6
CONTINUOUS
10
0.4750236220472441
20
1.094965
11
0.476598937007874
21
1.085018779527559
0
LINE
8
BLACK
6
CONTINUOUS
10
0.476598937007874
20
1.085018779527559
11
0.4797106692913386
21
1.0754416929133859
0
LINE
8
BLACK
6
CONTINUOUS
10
0.4797106692913386
20
1.0754416929133859
11
0.4797107086614173
21
1.0754415748031496
0
LINE
8
BLACK
6
CONTINUOUS
10
0.4797107086614173
20
1.0754415748031496
11
0.4842824803149606
21
1.0664690551181102
0
LINE
8
BLACK
6
CONTINUOUS
10
0.4842824803149606
20
1.0664690551181102
11
0.4873405511811024
21
1.0622600393700787
0
LINE
8
BLACK
6
CONTINUOUS
10
0.4873405511811024
20
1.0622600393700787
11
0.4873405511811024
21
1.06226
0
LINE
8
BLACK
6
CONTINUOUS
10
0.4873405511811024
20
1.06226
11
0.5015312204724409
21
1.0764507086614172
0
LINE
8
BLACK
6
CONTINUOUS
10
0.5015312204724409
20
1.0764507086614172
11
0.5012354330708662
21
1.0768578346456692
0
LINE
8
BLACK
6
CONTINUOUS
10
0.5012354330708662
20
1.0768578346456692
11
0.4980801574803149
21
1.0830504330708661
0
LINE
8
BLACK
6
CONTINUOUS
10
0.4980801574803149
20
1.0830504330708661
11
0.4959324409448819
21
1.0896603937007874
0
LINE
8
BLACK
6
CONTINUOUS
10
0.4959324409448819
20
1.0896603937007874
11
0.4948451968503937
21
1.0965249606299212
0
LINE
8
BLACK
6
CONTINUOUS
10
0.4948451968503937
20
1.0965249606299212
11
0.4948451968503937
21
1.1034750393700787
0
LINE
8
BLACK
6
CONTINUOUS
10
0.4948451968503937
20
1.1034750393700787
11
0.4959324409448819
21
1.1103396062992126
0
LINE
8
BLACK
6
CONTINUOUS
10
0.4959324409448819
20
1.1103396062992126
11
0.4980801574803149
21
1.1169495669291338
0
LINE
8
BLACK
6
CONTINUOUS
10
0.4980801574803149
20
1.1169495669291338
11
0.5012354330708662
21
1.1231421653543308
0
LINE
8
BLACK
6
CONTINUOUS
10
0.5012354330708662
20
1.1231421653543308
11
0.5015312598425197
21
1.1235493700787402
0
LINE
8
BLACK
6
CONTINUOUS
10
0.5015312598425197
20
1.1235493700787402
11
0.4873405511811024
21
1.1377400787401575
0
LINE
8
BLACK
6
CONTINUOUS
10
0.4873405511811024
20
1.1377400787401575
11
0.4873405118110236
21
1.1377400393700787
0
LINE
8
BLACK
6
CONTINUOUS
10
0.4873405118110236
20
1.1377400393700787
11
0.4842825590551181
21
1.1335311023622048
0
LINE
8
BLACK
6
CONTINUOUS
10
0.4842825590551181
20
1.1335311023622048
11
0.4797107086614173
21
1.1245584645669291
0
LINE
8
BLACK
6
CONTINUOUS
10
0.4797107086614173
20
1.1245584645669291
11
0.4797106692913386
21
1.1245583464566928
0
LINE
8
BLACK
6
CONTINUOUS
10
0.4797106692913386
20
1.1245583464566928
11
0.476598937007874
21
1.1149812598425197
0
LINE
8
BLACK
6
CONTINUOUS
10
0.476598937007874
20
1.1149812598425197
11
0.4750236220472441
21
1.1050350393700787
0
LINE
8
BLACK
6
CONTINUOUS
10
0.4750236220472441
20
1.1050350393700787
11
0.4750236220472441
21
1.094965
0
CIRCLE
8
BLACK
10
2.3999999999999999
20
0.4
40
0.0068897637795276
0
CIRCLE
8
BLACK
10
0.4
20
0.4
40
0.0068897637795276
0
CIRCLE
8
BLACK
10
0.4
20
1.5999999999999999
40
0.0068897637795276
0
CIRCLE
8
BLACK
10
2.3600000393700786
20
1.3599999999999999
40
0.0068897637795276
0
CIRCLE
8
BLACK
10
2.259999960629921
20
1.3599999999999999
40
0.0068897637795276
0
CIRCLE
8
BLACK
10
2.3600000393700786
20
1.26
40
0.0068897637795276
0
CIRCLE
8
BLACK
10
2.259999960629921
20
1.26
40
0.0068897637795276
0
CIRCLE
8
BLACK
10
2.3999999999999999
20
1.5999999999999999
40
0.0068897637795276
0
CIRCLE
8
BLACK
10
2.3600000393700786
20
1.0600000000000001
40
0.0068897637795276
0
CIRCLE
8
BLACK
10
2.259999960629921
20
1.0600000000000001
40
0.0068897637795276
0
CIRCLE
8
BLACK
10
2.2599999999999998
20
0.89
40
0.0068897637795276
0
CIRCLE
8
BLACK
10
2.3599999999999999
20
0.89
40
0.0068897637795276
0
CIRCLE
8
BLACK
10
2.2599999999999998
20
0.79
40
0.0068897637795276
0
CIRCLE
8
BLACK
10
2.3599999999999999
20
0.79
40
0.0068897637795276
0
CIRCLE
8
BLACK
10
2.2599999999999998
20
0.6899999999999999
40
0.0068897637795276
0
CIRCLE
8
BLACK
10
2.3599999999999999
20
0.6899999999999999
40
0.0068897637795276
0
CIRCLE
8
BLACK
10
2.3600000393700786
20
1.1599999999999999
40
0.0068897637795276
0
CIRCLE
8
BLACK
10
2.259999960629921
20
1.1599999999999999
40
0.0068897637795276
0
CIRCLE
8
BLACK
10
0.439
20
1.
40
0.0068897637795276
0
CIRCLE
8
BLACK
10
0.339
20
1.0999999999999999
40
0.0068897637795276
0
CIRCLE
8
BLACK
10
0.339
20
0.9
40
0.0068897637795276
0
CIRCLE
8
BLACK
10
0.539
20
1.0999999999999999
40
0.0068897637795276
0
CIRCLE
8
BLACK
10
0.539
20
0.9
40
0.0068897637795276
0
CIRCLE
8
BLACK
10
1.6199999999999999
20
1.25
40
0.0068897637795276
0
CIRCLE
8
BLACK
10
1.6199999999999999
20
1.3499999999999999
40
0.0068897637795276
0
CIRCLE
8
BLACK
10
2.1120000000000001
20
0.403
40
0.0078740157480315
0
CIRCLE
8
BLACK
10
1.0389999999999999
20
1.7249999999999999
40
0.0078740157480315
0
CIRCLE
8
BLACK
10
1.2949999999999999
20
1.7289999999999999
40
0.0078740157480315
0
CIRCLE
8
BLACK
10
2.109
20
0.58
40
0.0078740157480315
0
CIRCLE
8
BLACK
10
0.649
20
0.52
40
0.0078740157480315
0
CIRCLE
8
BLACK
10
1.6059999999999999
20
0.265
40
0.0078740157480315
0
CIRCLE
8
BLACK
10
0.638
20
1.256
40
0.0078740157480315
0
CIRCLE
8
BLACK
10
2.476
20
1.0009999999999999
40
0.0078740157480315
0
CIRCLE
8
BLACK
10
2.0829999999999997
20
0.883
40
0.0078740157480315
0
CIRCLE
8
BLACK
10
1.76
20
1.734
40
0.0078740157480315
0
CIRCLE
8
BLACK
10
2.145
20
1.103
40
0.0078740157480315
0
CIRCLE
8
BLACK
10
1.54
20
1.1850000000000001
40
0.0078740157480315
0
CIRCLE
8
BLACK
10
1.02
20
0.285
40
0.0078740157480315
0
CIRCLE
8
BLACK
10
1.825
20
1.02
40
0.0078740157480315
0
CIRCLE
8
BLACK
10
1.5329999999999999
20
1.734
40
0.0078740157480315
0
CIRCLE
8
BLACK
10
1.905
20
1.0175984251968504
40
0.0078740157480315
0
CIRCLE
8
BLACK
10
1.3009999999999999
20
0.268
40
0.0078740157480315
0
CIRCLE
8
BLACK
10
0.657
20
1.5109999999999999
40
0.0078740157480315
0
CIRCLE
8
BLACK
10
0.666
20
1.7169999999999999
40
0.0078740157480315
0
CIRCLE
8
BLACK
10
0.653
20
0.718
40
0.0078740157480315
0
CIRCLE
8
BLACK
10
1.9629999999999999
20
1.7329999999999999
40
0.0078740157480315
0
CIRCLE
8
BLACK
10
2.1499999999999999
20
1.3069999999999999
40
0.0078740157480315
  0
ENDSEC
  0
EOF
