M48
; DRILL file {KiCad 8.0.8+1} date 2025-02-20T08:02:47+0000
; FORMAT={3:3/ absolute / metric / suppress leading zeros}
; #@! TF.CreationDate,2025-02-20T08:02:47+00:00
; #@! TF.GenerationSoftware,Kicad,Pcbnew,8.0.8+1
; #@! TF.FileFunction,Plated,1,2,PTH
FMAT,2
METRIC,TZ
; #@! TA.AperFunction,Plated,PTH,ViaDrill
T1C0.400
; #@! TA.AperFunction,Plated,PTH,ComponentDrill
T2C0.889
; #@! TA.AperFunction,Plated,PTH,ComponentDrill
T3C1.500
; #@! TA.AperFunction,Plated,PTH,ComponentDrill
T4C1.700
; #@! TA.AperFunction,Plated,PTH,ComponentDrill
T5C3.000
%
G90
G05
T1
X39116Y30099
X46355Y25908
X48387Y25847
X52908Y22428
T2
X41148Y34290
X41148Y31750
X57404Y34544
X57404Y32004
X57404Y29464
X57404Y26924
X57404Y22606
X57404Y20066
X57404Y17526
X59944Y22606
X59944Y20066
X59944Y17526
X59944Y34544
X59944Y32004
X59944Y29464
X59944Y26924
T3
X11151Y25400
T4
X8611Y27940
X8611Y22860
X13691Y27940
X13691Y22860
T5
X10160Y40640
X10160Y10160
X60960Y40640
X60960Y10160
M30
