%TF.GenerationSoftware,KiCad,Pcbnew,8.0.8+1*%
%TF.CreationDate,2025-02-17T00:17:54+00:00*%
%TF.ProjectId,EFMADC01,45464d41-4443-4303-912e-6b696361645f,rev?*%
%TF.SameCoordinates,Original*%
%TF.FileFunction,Soldermask,Bot*%
%TF.FilePolarity,Negative*%
%FSLAX46Y46*%
G04 Gerber Fmt 4.6, Leading zero omitted, Abs format (unit mm)*
G04 Created by KiCad (PCBNEW 8.0.8+1) date 2025-02-17 00:17:54*
%MOMM*%
%LPD*%
G01*
G04 APERTURE LIST*
G04 Aperture macros list*
%AMRoundRect*
0 Rectangle with rounded corners*
0 $1 Rounding radius*
0 $2 $3 $4 $5 $6 $7 $8 $9 X,Y pos of 4 corners*
0 Add a 4 corners polygon primitive as box body*
4,1,4,$2,$3,$4,$5,$6,$7,$8,$9,$2,$3,0*
0 Add four circle primitives for the rounded corners*
1,1,$1+$1,$2,$3*
1,1,$1+$1,$4,$5*
1,1,$1+$1,$6,$7*
1,1,$1+$1,$8,$9*
0 Add four rect primitives between the rounded corners*
20,1,$1+$1,$2,$3,$4,$5,0*
20,1,$1+$1,$4,$5,$6,$7,0*
20,1,$1+$1,$6,$7,$8,$9,0*
20,1,$1+$1,$8,$9,$2,$3,0*%
G04 Aperture macros list end*
%ADD10C,6.200000*%
%ADD11RoundRect,0.100000X0.762000X0.762000X-0.762000X0.762000X-0.762000X-0.762000X0.762000X-0.762000X0*%
%ADD12RoundRect,0.100000X-0.762000X-0.762000X0.762000X-0.762000X0.762000X0.762000X-0.762000X0.762000X0*%
%ADD13C,2.250000*%
%ADD14C,2.450000*%
%ADD15RoundRect,0.100000X-0.650000X-0.750000X0.650000X-0.750000X0.650000X0.750000X-0.650000X0.750000X0*%
%ADD16RoundRect,0.100000X-0.350000X-1.500000X0.350000X-1.500000X0.350000X1.500000X-0.350000X1.500000X0*%
%ADD17RoundRect,0.300000X0.300000X0.525000X-0.300000X0.525000X-0.300000X-0.525000X0.300000X-0.525000X0*%
%ADD18RoundRect,0.288462X0.661538X-0.461538X0.661538X0.461538X-0.661538X0.461538X-0.661538X-0.461538X0*%
%ADD19RoundRect,0.200000X0.200000X-0.637500X0.200000X0.637500X-0.200000X0.637500X-0.200000X-0.637500X0*%
%ADD20RoundRect,0.287037X0.512963X0.487963X-0.512963X0.487963X-0.512963X-0.487963X0.512963X-0.487963X0*%
%ADD21RoundRect,0.275000X0.275000X0.300000X-0.275000X0.300000X-0.275000X-0.300000X0.275000X-0.300000X0*%
%ADD22RoundRect,0.100000X0.500000X0.500000X-0.500000X0.500000X-0.500000X-0.500000X0.500000X-0.500000X0*%
%ADD23RoundRect,0.100000X0.500000X1.150000X-0.500000X1.150000X-0.500000X-1.150000X0.500000X-1.150000X0*%
%ADD24RoundRect,0.100000X0.500000X1.900000X-0.500000X1.900000X-0.500000X-1.900000X0.500000X-1.900000X0*%
%ADD25RoundRect,0.100000X1.150000X0.500000X-1.150000X0.500000X-1.150000X-0.500000X1.150000X-0.500000X0*%
%ADD26RoundRect,0.100000X1.900000X0.500000X-1.900000X0.500000X-1.900000X-0.500000X1.900000X-0.500000X0*%
%ADD27C,2.000000*%
%ADD28RoundRect,0.275000X-0.275000X-0.300000X0.275000X-0.300000X0.275000X0.300000X-0.275000X0.300000X0*%
%ADD29RoundRect,0.250000X0.250000X0.325000X-0.250000X0.325000X-0.250000X-0.325000X0.250000X-0.325000X0*%
%ADD30RoundRect,0.250000X-0.325000X0.250000X-0.325000X-0.250000X0.325000X-0.250000X0.325000X0.250000X0*%
%ADD31RoundRect,0.137500X-0.775000X-0.137500X0.775000X-0.137500X0.775000X0.137500X-0.775000X0.137500X0*%
%ADD32RoundRect,0.200000X0.250000X-0.200000X0.250000X0.200000X-0.250000X0.200000X-0.250000X-0.200000X0*%
%ADD33RoundRect,0.200000X0.562500X0.200000X-0.562500X0.200000X-0.562500X-0.200000X0.562500X-0.200000X0*%
%ADD34RoundRect,0.200000X0.637500X0.200000X-0.637500X0.200000X-0.637500X-0.200000X0.637500X-0.200000X0*%
G04 APERTURE END LIST*
D10*
%TO.C,M5*%
X60960000Y10160000D03*
%TD*%
%TO.C,M4*%
X10160000Y10160000D03*
%TD*%
%TO.C,M2*%
X10160000Y40640000D03*
%TD*%
D11*
%TO.C,J6*%
X59944001Y34544000D03*
X57403999Y34544000D03*
%TD*%
%TO.C,J5*%
X59944001Y32004000D03*
X57403999Y32004000D03*
%TD*%
D10*
%TO.C,M3*%
X60960000Y40640000D03*
%TD*%
D11*
%TO.C,J7*%
X59944001Y26924000D03*
X57403999Y26924000D03*
%TD*%
D12*
%TO.C,J1*%
X57404000Y22606000D03*
X59944000Y22606000D03*
X57404000Y20066000D03*
X59944000Y20066000D03*
X57404000Y17526000D03*
X59944000Y17526000D03*
%TD*%
D11*
%TO.C,J4*%
X59944001Y29464000D03*
X57403999Y29464000D03*
%TD*%
D13*
%TO.C,J9*%
X11150600Y25400000D03*
D14*
X8610600Y27940000D03*
X8610600Y22860000D03*
X13690600Y27940000D03*
X13690600Y22860000D03*
%TD*%
D12*
%TO.C,J2*%
X44196000Y34290000D03*
X46736000Y34290000D03*
%TD*%
D15*
%TO.C,C6*%
X46402000Y19558000D03*
D16*
X47752000Y19558000D03*
D15*
X49102000Y19558000D03*
%TD*%
D17*
%TO.C,C7*%
X38228400Y25030400D03*
X36328400Y25030400D03*
%TD*%
D18*
%TO.C,D2*%
X62992000Y19868000D03*
X62992000Y23368000D03*
%TD*%
D19*
%TO.C,U3*%
X47686000Y28272500D03*
X45786000Y28272500D03*
X46736000Y30147501D03*
%TD*%
D20*
%TO.C,C9*%
X43863400Y19000400D03*
X41163400Y19000400D03*
%TD*%
D21*
%TO.C,C5*%
X32913000Y23049400D03*
X31363000Y23049400D03*
%TD*%
D22*
%TO.C,M1*%
X51460000Y9500000D03*
D23*
X51460000Y11150000D03*
D24*
X51460000Y16400000D03*
X51460000Y22400000D03*
X51460000Y28400000D03*
X51460000Y34400000D03*
D23*
X51460000Y39650000D03*
D22*
X51460000Y41300000D03*
D25*
X49810000Y9500000D03*
X49810000Y41300000D03*
D26*
X44560000Y9500000D03*
X44560000Y41300000D03*
X38560000Y9500000D03*
X38560000Y41300000D03*
X32560000Y9500000D03*
X32560000Y41300000D03*
X26560000Y9500000D03*
X26560000Y41300000D03*
D25*
X21310000Y9500000D03*
X21310000Y41300000D03*
D22*
X19660000Y9500000D03*
D23*
X19660000Y11150000D03*
D24*
X19660000Y16400000D03*
X19660000Y22400000D03*
X19660000Y28400000D03*
X19660000Y34400000D03*
D23*
X19660000Y39650000D03*
D22*
X19660000Y41300000D03*
%TD*%
D27*
%TO.C,FID2*%
X7874000Y16764000D03*
%TD*%
D17*
%TO.C,C12*%
X38228400Y12990400D03*
X36328400Y12990400D03*
%TD*%
D28*
%TO.C,C2*%
X13957000Y25400000D03*
X15507000Y25400000D03*
%TD*%
D17*
%TO.C,C10*%
X38228400Y19010400D03*
X36328400Y19010400D03*
%TD*%
D27*
%TO.C,FID1*%
X54864000Y42672000D03*
%TD*%
D29*
%TO.C,R3*%
X32963000Y15519400D03*
X31313000Y15519400D03*
%TD*%
D21*
%TO.C,C3*%
X32913000Y28069400D03*
X31363000Y28069400D03*
%TD*%
D30*
%TO.C,R1*%
X22098000Y27241000D03*
X22098000Y25591000D03*
%TD*%
D31*
%TO.C,U4*%
X43861500Y23384000D03*
X43861500Y23884001D03*
X43861500Y24384000D03*
X43861500Y24883999D03*
X43861500Y25384000D03*
X48086500Y25384000D03*
X48086500Y24883999D03*
X48086500Y24384000D03*
X48086500Y23884001D03*
X48086500Y23384000D03*
%TD*%
D32*
%TO.C,D1*%
X22098000Y24068000D03*
X22098000Y22668000D03*
%TD*%
D29*
%TO.C,R2*%
X32963000Y18029400D03*
X31313000Y18029400D03*
%TD*%
D33*
%TO.C,U2*%
X44885900Y15785400D03*
X44885900Y14835400D03*
X44885900Y13885400D03*
X42610900Y13885400D03*
X42610900Y15785400D03*
%TD*%
D21*
%TO.C,C1*%
X32913000Y33089400D03*
X31363000Y33089400D03*
%TD*%
D17*
%TO.C,C8*%
X38228400Y22020400D03*
X36328400Y22020400D03*
%TD*%
D21*
%TO.C,C4*%
X32913000Y25559400D03*
X31363000Y25559400D03*
%TD*%
D34*
%TO.C,U1*%
X40737000Y35494000D03*
X40737000Y33594000D03*
X38862000Y34544000D03*
%TD*%
D17*
%TO.C,C11*%
X38228400Y16000400D03*
X36328400Y16000400D03*
%TD*%
M02*
