%TF.GenerationSoftware,KiCad,Pcbnew,8.0.8+1*%
%TF.CreationDate,2025-02-20T07:42:20+00:00*%
%TF.ProjectId,EFMADC01,45464d41-4443-4303-912e-6b696361645f,rev?*%
%TF.SameCoordinates,Original*%
%TF.FileFunction,Copper,L1,Top*%
%TF.FilePolarity,Positive*%
%FSLAX46Y46*%
G04 Gerber Fmt 4.6, Leading zero omitted, Abs format (unit mm)*
G04 Created by KiCad (PCBNEW 8.0.8+1) date 2025-02-20 07:42:20*
%MOMM*%
%LPD*%
G01*
G04 APERTURE LIST*
%TA.AperFunction,ComponentPad*%
%ADD10C,6.000000*%
%TD*%
%TA.AperFunction,ComponentPad*%
%ADD11R,1.524000X1.524000*%
%TD*%
%TA.AperFunction,ComponentPad*%
%ADD12C,2.050000*%
%TD*%
%TA.AperFunction,ComponentPad*%
%ADD13C,2.250000*%
%TD*%
%TA.AperFunction,ViaPad*%
%ADD14C,0.800000*%
%TD*%
%TA.AperFunction,Conductor*%
%ADD15C,0.450000*%
%TD*%
%TA.AperFunction,Conductor*%
%ADD16C,0.200000*%
%TD*%
G04 APERTURE END LIST*
D10*
%TO.P,M5,1*%
%TO.N,GND*%
X60960000Y10160000D03*
%TD*%
%TO.P,M4,1*%
%TO.N,GND*%
X10160000Y10160000D03*
%TD*%
%TO.P,M2,1*%
%TO.N,GND*%
X10160000Y40640000D03*
%TD*%
D11*
%TO.P,J6,1*%
%TO.N,Net-(J6-Pad1)*%
X59944001Y34544000D03*
%TO.P,J6,2*%
X57403999Y34544000D03*
%TD*%
%TO.P,J5,1*%
%TO.N,Net-(J5-Pad1)*%
X59944001Y32004000D03*
%TO.P,J5,2*%
X57403999Y32004000D03*
%TD*%
D10*
%TO.P,M3,1*%
%TO.N,GND*%
X60960000Y40640000D03*
%TD*%
D11*
%TO.P,J7,1*%
%TO.N,Net-(J7-Pad1)*%
X59944001Y26924000D03*
%TO.P,J7,2*%
X57403999Y26924000D03*
%TD*%
%TO.P,J1,1*%
%TO.N,GND*%
X57404000Y22606000D03*
%TO.P,J1,2*%
X59944000Y22606000D03*
%TO.P,J1,3*%
%TO.N,VCC*%
X57404000Y20066000D03*
%TO.P,J1,4*%
X59944000Y20066000D03*
%TO.P,J1,5*%
%TO.N,GND*%
X57404000Y17526000D03*
%TO.P,J1,6*%
X59944000Y17526000D03*
%TD*%
%TO.P,J4,1*%
%TO.N,Net-(J4-Pad1)*%
X59944001Y29464000D03*
%TO.P,J4,2*%
X57403999Y29464000D03*
%TD*%
D12*
%TO.P,J9,1,In*%
%TO.N,Net-(J9-In)*%
X11150600Y25400000D03*
D13*
%TO.P,J9,2,Ext*%
%TO.N,GND*%
X8610600Y27940000D03*
X8610600Y22860000D03*
X13690600Y27940000D03*
X13690600Y22860000D03*
%TD*%
D11*
%TO.P,J2,1*%
%TO.N,Net-(U4-V_{REF})*%
X41148000Y31750000D03*
%TO.P,J2,2*%
%TO.N,Net-(U3-Vout)*%
X41148000Y34290000D03*
%TD*%
D14*
%TO.N,GND*%
X52908200Y22428200D03*
X39116000Y30099000D03*
X46355000Y25908000D03*
X48387000Y25847000D03*
%TD*%
D15*
%TO.N,GND*%
X48326000Y25908000D02*
X48387000Y25847000D01*
X46355000Y25908000D02*
X48326000Y25908000D01*
D16*
X47752000Y25847000D02*
X47686000Y25781000D01*
D15*
X59944000Y24434800D02*
X59969400Y24460200D01*
X59944000Y22606000D02*
X59944000Y24434800D01*
D16*
X47686000Y25781000D02*
X47371000Y25781000D01*
%TD*%
%TA.AperFunction,Conductor*%
%TO.N,GND*%
G36*
X59529792Y17697571D02*
G01*
X59499500Y17584520D01*
X59499500Y17467480D01*
X59529792Y17354429D01*
X59575073Y17276000D01*
X57772927Y17276000D01*
X57818208Y17354429D01*
X57848500Y17467480D01*
X57848500Y17584520D01*
X57818208Y17697571D01*
X57772927Y17776000D01*
X59575073Y17776000D01*
X59529792Y17697571D01*
G37*
%TD.AperFunction*%
%TA.AperFunction,Conductor*%
G36*
X59529792Y22777571D02*
G01*
X59499500Y22664520D01*
X59499500Y22547480D01*
X59529792Y22434429D01*
X59575073Y22356000D01*
X57772927Y22356000D01*
X57818208Y22434429D01*
X57848500Y22547480D01*
X57848500Y22664520D01*
X57818208Y22777571D01*
X57772927Y22856000D01*
X59575073Y22856000D01*
X59529792Y22777571D01*
G37*
%TD.AperFunction*%
%TA.AperFunction,Conductor*%
G36*
X65729039Y45446315D02*
G01*
X65774794Y45393511D01*
X65786000Y45342000D01*
X65786000Y5458000D01*
X65766315Y5390961D01*
X65713511Y5345206D01*
X65662000Y5334000D01*
X5458000Y5334000D01*
X5390961Y5353685D01*
X5345206Y5406489D01*
X5334000Y5458000D01*
X5334000Y18335845D01*
X56142000Y18335845D01*
X56142000Y17776000D01*
X57035073Y17776000D01*
X56989792Y17697571D01*
X56959500Y17584520D01*
X56959500Y17467480D01*
X56989792Y17354429D01*
X57035073Y17276000D01*
X56142000Y17276000D01*
X56142000Y16716156D01*
X56148401Y16656628D01*
X56148403Y16656621D01*
X56198645Y16521914D01*
X56198649Y16521907D01*
X56284809Y16406813D01*
X56284812Y16406810D01*
X56399906Y16320650D01*
X56399913Y16320646D01*
X56534620Y16270404D01*
X56534627Y16270402D01*
X56594155Y16264001D01*
X56594172Y16264000D01*
X57154000Y16264000D01*
X57154000Y17157073D01*
X57232429Y17111792D01*
X57345480Y17081500D01*
X57462520Y17081500D01*
X57575571Y17111792D01*
X57654000Y17157073D01*
X57654000Y16264000D01*
X58213828Y16264000D01*
X58213844Y16264001D01*
X58273372Y16270402D01*
X58273379Y16270404D01*
X58408086Y16320646D01*
X58408093Y16320650D01*
X58523186Y16406809D01*
X58574733Y16475666D01*
X58630667Y16517537D01*
X58700359Y16522521D01*
X58761682Y16489036D01*
X58773267Y16475666D01*
X58824813Y16406809D01*
X58939906Y16320650D01*
X58939913Y16320646D01*
X59074620Y16270404D01*
X59074627Y16270402D01*
X59134155Y16264001D01*
X59134172Y16264000D01*
X59694000Y16264000D01*
X59694000Y17157073D01*
X59772429Y17111792D01*
X59885480Y17081500D01*
X60002520Y17081500D01*
X60115571Y17111792D01*
X60194000Y17157073D01*
X60194000Y16264000D01*
X60753828Y16264000D01*
X60753844Y16264001D01*
X60813372Y16270402D01*
X60813379Y16270404D01*
X60948086Y16320646D01*
X60948093Y16320650D01*
X61063187Y16406810D01*
X61063190Y16406813D01*
X61149350Y16521907D01*
X61149354Y16521914D01*
X61199596Y16656621D01*
X61199598Y16656628D01*
X61205999Y16716156D01*
X61206000Y16716173D01*
X61206000Y17276000D01*
X60312927Y17276000D01*
X60358208Y17354429D01*
X60388500Y17467480D01*
X60388500Y17584520D01*
X60358208Y17697571D01*
X60312927Y17776000D01*
X61206000Y17776000D01*
X61206000Y18335828D01*
X61205999Y18335845D01*
X61199598Y18395373D01*
X61199596Y18395380D01*
X61149354Y18530087D01*
X61149350Y18530094D01*
X61063190Y18645188D01*
X61063187Y18645191D01*
X60948093Y18731351D01*
X60948086Y18731355D01*
X60813379Y18781597D01*
X60813372Y18781599D01*
X60753844Y18788000D01*
X60194000Y18788000D01*
X60194000Y17894928D01*
X60115571Y17940208D01*
X60002520Y17970500D01*
X59885480Y17970500D01*
X59772429Y17940208D01*
X59694000Y17894928D01*
X59694000Y18788000D01*
X59134155Y18788000D01*
X59074627Y18781599D01*
X59074620Y18781597D01*
X58939913Y18731355D01*
X58939906Y18731351D01*
X58824812Y18645191D01*
X58773266Y18576334D01*
X58717332Y18534464D01*
X58647641Y18529480D01*
X58586318Y18562966D01*
X58574734Y18576334D01*
X58523187Y18645191D01*
X58408093Y18731351D01*
X58408086Y18731355D01*
X58273379Y18781597D01*
X58273372Y18781599D01*
X58213844Y18788000D01*
X57654000Y18788000D01*
X57654000Y17894928D01*
X57575571Y17940208D01*
X57462520Y17970500D01*
X57345480Y17970500D01*
X57232429Y17940208D01*
X57154000Y17894928D01*
X57154000Y18788000D01*
X56594155Y18788000D01*
X56534627Y18781599D01*
X56534620Y18781597D01*
X56399913Y18731355D01*
X56399906Y18731351D01*
X56284812Y18645191D01*
X56284809Y18645188D01*
X56198649Y18530094D01*
X56198645Y18530087D01*
X56148403Y18395380D01*
X56148401Y18395373D01*
X56142000Y18335845D01*
X5334000Y18335845D01*
X5334000Y20847753D01*
X56441500Y20847753D01*
X56441500Y19284248D01*
X56453131Y19225771D01*
X56453132Y19225770D01*
X56497447Y19159448D01*
X56563769Y19115133D01*
X56563770Y19115132D01*
X56622247Y19103501D01*
X56622250Y19103500D01*
X56622252Y19103500D01*
X58185750Y19103500D01*
X58185751Y19103501D01*
X58200568Y19106448D01*
X58244229Y19115132D01*
X58244229Y19115133D01*
X58244231Y19115133D01*
X58310552Y19159448D01*
X58354867Y19225769D01*
X58354867Y19225771D01*
X58354868Y19225771D01*
X58366499Y19284248D01*
X58366500Y19284250D01*
X58366500Y20847751D01*
X58366499Y20847753D01*
X58981500Y20847753D01*
X58981500Y19284248D01*
X58993131Y19225771D01*
X58993132Y19225770D01*
X59037447Y19159448D01*
X59103769Y19115133D01*
X59103770Y19115132D01*
X59162247Y19103501D01*
X59162250Y19103500D01*
X59162252Y19103500D01*
X60725750Y19103500D01*
X60725751Y19103501D01*
X60740568Y19106448D01*
X60784229Y19115132D01*
X60784229Y19115133D01*
X60784231Y19115133D01*
X60850552Y19159448D01*
X60894867Y19225769D01*
X60894867Y19225771D01*
X60894868Y19225771D01*
X60906499Y19284248D01*
X60906500Y19284250D01*
X60906500Y20847751D01*
X60906499Y20847753D01*
X60894868Y20906230D01*
X60894867Y20906231D01*
X60850552Y20972553D01*
X60784230Y21016868D01*
X60784229Y21016869D01*
X60725752Y21028500D01*
X60725748Y21028500D01*
X59162252Y21028500D01*
X59162247Y21028500D01*
X59103770Y21016869D01*
X59103769Y21016868D01*
X59037447Y20972553D01*
X58993132Y20906231D01*
X58993131Y20906230D01*
X58981500Y20847753D01*
X58366499Y20847753D01*
X58354868Y20906230D01*
X58354867Y20906231D01*
X58310552Y20972553D01*
X58244230Y21016868D01*
X58244229Y21016869D01*
X58185752Y21028500D01*
X58185748Y21028500D01*
X56622252Y21028500D01*
X56622247Y21028500D01*
X56563770Y21016869D01*
X56563769Y21016868D01*
X56497447Y20972553D01*
X56453132Y20906231D01*
X56453131Y20906230D01*
X56441500Y20847753D01*
X5334000Y20847753D01*
X5334000Y22860000D01*
X6980575Y22860000D01*
X7000642Y22605011D01*
X7060352Y22356298D01*
X7158234Y22119988D01*
X7158236Y22119985D01*
X7291875Y21901905D01*
X7291886Y21901890D01*
X7295133Y21898089D01*
X7295135Y21898089D01*
X7856484Y22459439D01*
X7857340Y22457374D01*
X7950362Y22318156D01*
X8068756Y22199762D01*
X8207974Y22106740D01*
X8210037Y22105886D01*
X7648687Y21544536D01*
X7648687Y21544535D01*
X7652488Y21541288D01*
X7652498Y21541281D01*
X7870584Y21407637D01*
X7870587Y21407635D01*
X8106897Y21309753D01*
X8355611Y21250043D01*
X8355610Y21250043D01*
X8610600Y21229976D01*
X8865589Y21250043D01*
X9114302Y21309753D01*
X9350612Y21407635D01*
X9350615Y21407637D01*
X9568703Y21541281D01*
X9572512Y21544536D01*
X9011162Y22105886D01*
X9013226Y22106740D01*
X9152444Y22199762D01*
X9270838Y22318156D01*
X9363860Y22457374D01*
X9364714Y22459438D01*
X9926064Y21898088D01*
X9929319Y21901897D01*
X10062963Y22119985D01*
X10062965Y22119988D01*
X10160847Y22356298D01*
X10220557Y22605011D01*
X10240624Y22860000D01*
X12060575Y22860000D01*
X12080642Y22605011D01*
X12140352Y22356298D01*
X12238234Y22119988D01*
X12238236Y22119985D01*
X12371875Y21901905D01*
X12371886Y21901890D01*
X12375133Y21898089D01*
X12375135Y21898089D01*
X12936484Y22459439D01*
X12937340Y22457374D01*
X13030362Y22318156D01*
X13148756Y22199762D01*
X13287974Y22106740D01*
X13290037Y22105886D01*
X12728687Y21544536D01*
X12728687Y21544535D01*
X12732488Y21541288D01*
X12732498Y21541281D01*
X12950584Y21407637D01*
X12950587Y21407635D01*
X13186897Y21309753D01*
X13435611Y21250043D01*
X13435610Y21250043D01*
X13690600Y21229976D01*
X13945589Y21250043D01*
X14194302Y21309753D01*
X14430612Y21407635D01*
X14430615Y21407637D01*
X14648703Y21541281D01*
X14652512Y21544536D01*
X14091162Y22105886D01*
X14093226Y22106740D01*
X14232444Y22199762D01*
X14350838Y22318156D01*
X14443860Y22457374D01*
X14444714Y22459438D01*
X15006064Y21898088D01*
X15009319Y21901897D01*
X15142963Y22119985D01*
X15142965Y22119988D01*
X15240847Y22356298D01*
X15300557Y22605011D01*
X15320624Y22860000D01*
X15300557Y23114990D01*
X15240847Y23363703D01*
X15219249Y23415845D01*
X56142000Y23415845D01*
X56142000Y22856000D01*
X57035073Y22856000D01*
X56989792Y22777571D01*
X56959500Y22664520D01*
X56959500Y22547480D01*
X56989792Y22434429D01*
X57035073Y22356000D01*
X56142000Y22356000D01*
X56142000Y21796156D01*
X56148401Y21736628D01*
X56148403Y21736621D01*
X56198645Y21601914D01*
X56198649Y21601907D01*
X56284809Y21486813D01*
X56284812Y21486810D01*
X56399906Y21400650D01*
X56399913Y21400646D01*
X56534620Y21350404D01*
X56534627Y21350402D01*
X56594155Y21344001D01*
X56594172Y21344000D01*
X57154000Y21344000D01*
X57154000Y22237073D01*
X57232429Y22191792D01*
X57345480Y22161500D01*
X57462520Y22161500D01*
X57575571Y22191792D01*
X57654000Y22237073D01*
X57654000Y21344000D01*
X58213828Y21344000D01*
X58213844Y21344001D01*
X58273372Y21350402D01*
X58273379Y21350404D01*
X58408086Y21400646D01*
X58408093Y21400650D01*
X58523186Y21486809D01*
X58574733Y21555666D01*
X58630667Y21597537D01*
X58700359Y21602521D01*
X58761682Y21569036D01*
X58773267Y21555666D01*
X58824813Y21486809D01*
X58939906Y21400650D01*
X58939913Y21400646D01*
X59074620Y21350404D01*
X59074627Y21350402D01*
X59134155Y21344001D01*
X59134172Y21344000D01*
X59694000Y21344000D01*
X59694000Y22237073D01*
X59772429Y22191792D01*
X59885480Y22161500D01*
X60002520Y22161500D01*
X60115571Y22191792D01*
X60194000Y22237073D01*
X60194000Y21344000D01*
X60753828Y21344000D01*
X60753844Y21344001D01*
X60813372Y21350402D01*
X60813379Y21350404D01*
X60948086Y21400646D01*
X60948093Y21400650D01*
X61063187Y21486810D01*
X61063190Y21486813D01*
X61149350Y21601907D01*
X61149354Y21601914D01*
X61199596Y21736621D01*
X61199598Y21736628D01*
X61205999Y21796156D01*
X61206000Y21796173D01*
X61206000Y22356000D01*
X60312927Y22356000D01*
X60358208Y22434429D01*
X60388500Y22547480D01*
X60388500Y22664520D01*
X60358208Y22777571D01*
X60312927Y22856000D01*
X61206000Y22856000D01*
X61206000Y23415828D01*
X61205999Y23415845D01*
X61199598Y23475373D01*
X61199596Y23475380D01*
X61149354Y23610087D01*
X61149350Y23610094D01*
X61063190Y23725188D01*
X61063187Y23725191D01*
X60948093Y23811351D01*
X60948086Y23811355D01*
X60813379Y23861597D01*
X60813372Y23861599D01*
X60753844Y23868000D01*
X60194000Y23868000D01*
X60194000Y22974928D01*
X60115571Y23020208D01*
X60002520Y23050500D01*
X59885480Y23050500D01*
X59772429Y23020208D01*
X59694000Y22974928D01*
X59694000Y23868000D01*
X59134155Y23868000D01*
X59074627Y23861599D01*
X59074620Y23861597D01*
X58939913Y23811355D01*
X58939906Y23811351D01*
X58824812Y23725191D01*
X58773266Y23656334D01*
X58717332Y23614464D01*
X58647641Y23609480D01*
X58586318Y23642966D01*
X58574734Y23656334D01*
X58523187Y23725191D01*
X58408093Y23811351D01*
X58408086Y23811355D01*
X58273379Y23861597D01*
X58273372Y23861599D01*
X58213844Y23868000D01*
X57654000Y23868000D01*
X57654000Y22974928D01*
X57575571Y23020208D01*
X57462520Y23050500D01*
X57345480Y23050500D01*
X57232429Y23020208D01*
X57154000Y22974928D01*
X57154000Y23868000D01*
X56594155Y23868000D01*
X56534627Y23861599D01*
X56534620Y23861597D01*
X56399913Y23811355D01*
X56399906Y23811351D01*
X56284812Y23725191D01*
X56284809Y23725188D01*
X56198649Y23610094D01*
X56198645Y23610087D01*
X56148403Y23475380D01*
X56148401Y23475373D01*
X56142000Y23415845D01*
X15219249Y23415845D01*
X15142965Y23600013D01*
X15142963Y23600016D01*
X15009319Y23818102D01*
X15009312Y23818112D01*
X15006065Y23821913D01*
X15006064Y23821913D01*
X14444714Y23260563D01*
X14443860Y23262626D01*
X14350838Y23401844D01*
X14232444Y23520238D01*
X14093226Y23613260D01*
X14091161Y23614116D01*
X14652511Y24175465D01*
X14652511Y24175467D01*
X14648710Y24178714D01*
X14648695Y24178725D01*
X14430615Y24312364D01*
X14430612Y24312366D01*
X14194302Y24410248D01*
X13945588Y24469958D01*
X13945589Y24469958D01*
X13690600Y24490025D01*
X13435610Y24469958D01*
X13186897Y24410248D01*
X12950587Y24312366D01*
X12950584Y24312364D01*
X12732497Y24178720D01*
X12728687Y24175466D01*
X13290038Y23614116D01*
X13287974Y23613260D01*
X13148756Y23520238D01*
X13030362Y23401844D01*
X12937340Y23262626D01*
X12936484Y23260562D01*
X12375133Y23821913D01*
X12371880Y23818103D01*
X12238236Y23600016D01*
X12238234Y23600013D01*
X12140352Y23363703D01*
X12080642Y23114990D01*
X12060575Y22860000D01*
X10240624Y22860000D01*
X10220557Y23114990D01*
X10160847Y23363703D01*
X10062965Y23600013D01*
X10062963Y23600016D01*
X9929319Y23818102D01*
X9929312Y23818112D01*
X9926065Y23821913D01*
X9926064Y23821913D01*
X9364714Y23260563D01*
X9363860Y23262626D01*
X9270838Y23401844D01*
X9152444Y23520238D01*
X9013226Y23613260D01*
X9011161Y23614116D01*
X9572511Y24175465D01*
X9572511Y24175467D01*
X9568710Y24178714D01*
X9568695Y24178725D01*
X9350615Y24312364D01*
X9350612Y24312366D01*
X9114302Y24410248D01*
X8865588Y24469958D01*
X8865589Y24469958D01*
X8610600Y24490025D01*
X8355610Y24469958D01*
X8106897Y24410248D01*
X7870587Y24312366D01*
X7870584Y24312364D01*
X7652497Y24178720D01*
X7648687Y24175466D01*
X8210038Y23614116D01*
X8207974Y23613260D01*
X8068756Y23520238D01*
X7950362Y23401844D01*
X7857340Y23262626D01*
X7856485Y23260562D01*
X7295134Y23821913D01*
X7291880Y23818103D01*
X7158236Y23600016D01*
X7158234Y23600013D01*
X7060352Y23363703D01*
X7000642Y23114990D01*
X6980575Y22860000D01*
X5334000Y22860000D01*
X5334000Y25400002D01*
X9920419Y25400002D01*
X9920419Y25399999D01*
X9939107Y25186387D01*
X9939109Y25186376D01*
X9994605Y24979261D01*
X9994607Y24979257D01*
X9994608Y24979253D01*
X10039920Y24882081D01*
X10085231Y24784910D01*
X10085232Y24784909D01*
X10208227Y24609255D01*
X10359855Y24457627D01*
X10535509Y24334632D01*
X10729853Y24244008D01*
X10936981Y24188508D01*
X11086042Y24175467D01*
X11150598Y24169819D01*
X11150600Y24169819D01*
X11150602Y24169819D01*
X11204004Y24174492D01*
X11364219Y24188508D01*
X11571347Y24244008D01*
X11765691Y24334632D01*
X11941345Y24457627D01*
X12092973Y24609255D01*
X12215968Y24784909D01*
X12306592Y24979253D01*
X12362092Y25186381D01*
X12380781Y25400000D01*
X12362092Y25613619D01*
X12306592Y25820747D01*
X12215968Y26015090D01*
X12167878Y26083769D01*
X12092976Y26190741D01*
X12092971Y26190747D01*
X11941345Y26342373D01*
X11765690Y26465369D01*
X11668519Y26510680D01*
X11571347Y26555992D01*
X11571343Y26555993D01*
X11571339Y26555995D01*
X11364224Y26611491D01*
X11364220Y26611492D01*
X11364219Y26611492D01*
X11364218Y26611493D01*
X11364213Y26611493D01*
X11150602Y26630181D01*
X11150598Y26630181D01*
X10936986Y26611493D01*
X10936975Y26611491D01*
X10729860Y26555995D01*
X10729851Y26555991D01*
X10535510Y26465369D01*
X10535508Y26465368D01*
X10359859Y26342377D01*
X10359853Y26342372D01*
X10208228Y26190747D01*
X10208223Y26190741D01*
X10085232Y26015092D01*
X10085231Y26015090D01*
X9994609Y25820749D01*
X9994605Y25820740D01*
X9939109Y25613625D01*
X9939107Y25613614D01*
X9920419Y25400002D01*
X5334000Y25400002D01*
X5334000Y27940000D01*
X6980575Y27940000D01*
X7000642Y27685011D01*
X7060352Y27436298D01*
X7158234Y27199988D01*
X7158236Y27199985D01*
X7291875Y26981905D01*
X7291886Y26981890D01*
X7295133Y26978089D01*
X7295135Y26978089D01*
X7856484Y27539439D01*
X7857340Y27537374D01*
X7950362Y27398156D01*
X8068756Y27279762D01*
X8207974Y27186740D01*
X8210037Y27185886D01*
X7648687Y26624536D01*
X7648687Y26624535D01*
X7652488Y26621288D01*
X7652498Y26621281D01*
X7870584Y26487637D01*
X7870587Y26487635D01*
X8106897Y26389753D01*
X8355611Y26330043D01*
X8355610Y26330043D01*
X8610600Y26309976D01*
X8865589Y26330043D01*
X9114302Y26389753D01*
X9350612Y26487635D01*
X9350615Y26487637D01*
X9568703Y26621281D01*
X9572512Y26624536D01*
X9011162Y27185886D01*
X9013226Y27186740D01*
X9152444Y27279762D01*
X9270838Y27398156D01*
X9363860Y27537374D01*
X9364714Y27539438D01*
X9926064Y26978088D01*
X9929319Y26981897D01*
X10062963Y27199985D01*
X10062965Y27199988D01*
X10160847Y27436298D01*
X10220557Y27685011D01*
X10240624Y27940000D01*
X12060575Y27940000D01*
X12080642Y27685011D01*
X12140352Y27436298D01*
X12238234Y27199988D01*
X12238236Y27199985D01*
X12371875Y26981905D01*
X12371886Y26981890D01*
X12375133Y26978089D01*
X12375135Y26978089D01*
X12936484Y27539439D01*
X12937340Y27537374D01*
X13030362Y27398156D01*
X13148756Y27279762D01*
X13287974Y27186740D01*
X13290037Y27185886D01*
X12728687Y26624536D01*
X12728687Y26624535D01*
X12732488Y26621288D01*
X12732498Y26621281D01*
X12950584Y26487637D01*
X12950587Y26487635D01*
X13186897Y26389753D01*
X13435611Y26330043D01*
X13435610Y26330043D01*
X13690600Y26309976D01*
X13945589Y26330043D01*
X14194302Y26389753D01*
X14430612Y26487635D01*
X14430615Y26487637D01*
X14648703Y26621281D01*
X14652512Y26624536D01*
X14091162Y27185886D01*
X14093226Y27186740D01*
X14232444Y27279762D01*
X14350838Y27398156D01*
X14443860Y27537374D01*
X14444714Y27539438D01*
X15006064Y26978088D01*
X15009319Y26981897D01*
X15142963Y27199985D01*
X15142965Y27199988D01*
X15240847Y27436298D01*
X15300557Y27685011D01*
X15302189Y27705753D01*
X56441499Y27705753D01*
X56441499Y26142248D01*
X56453130Y26083771D01*
X56453131Y26083770D01*
X56497446Y26017448D01*
X56563768Y25973133D01*
X56563769Y25973132D01*
X56622246Y25961501D01*
X56622249Y25961500D01*
X56622251Y25961500D01*
X58185749Y25961500D01*
X58185750Y25961501D01*
X58200567Y25964448D01*
X58244228Y25973132D01*
X58244228Y25973133D01*
X58244230Y25973133D01*
X58310551Y26017448D01*
X58354866Y26083769D01*
X58354866Y26083771D01*
X58354867Y26083771D01*
X58366498Y26142248D01*
X58366499Y26142250D01*
X58366499Y27705751D01*
X58366498Y27705753D01*
X58981501Y27705753D01*
X58981501Y26142248D01*
X58993132Y26083771D01*
X58993133Y26083770D01*
X59037448Y26017448D01*
X59103770Y25973133D01*
X59103771Y25973132D01*
X59162248Y25961501D01*
X59162251Y25961500D01*
X59162253Y25961500D01*
X60725751Y25961500D01*
X60725752Y25961501D01*
X60740569Y25964448D01*
X60784230Y25973132D01*
X60784230Y25973133D01*
X60784232Y25973133D01*
X60850553Y26017448D01*
X60894868Y26083769D01*
X60894868Y26083771D01*
X60894869Y26083771D01*
X60906500Y26142248D01*
X60906501Y26142250D01*
X60906501Y27705751D01*
X60906500Y27705753D01*
X60894869Y27764230D01*
X60894868Y27764231D01*
X60850553Y27830553D01*
X60784231Y27874868D01*
X60784230Y27874869D01*
X60725753Y27886500D01*
X60725749Y27886500D01*
X59162253Y27886500D01*
X59162248Y27886500D01*
X59103771Y27874869D01*
X59103770Y27874868D01*
X59037448Y27830553D01*
X58993133Y27764231D01*
X58993132Y27764230D01*
X58981501Y27705753D01*
X58366498Y27705753D01*
X58354867Y27764230D01*
X58354866Y27764231D01*
X58310551Y27830553D01*
X58244229Y27874868D01*
X58244228Y27874869D01*
X58185751Y27886500D01*
X58185747Y27886500D01*
X56622251Y27886500D01*
X56622246Y27886500D01*
X56563769Y27874869D01*
X56563768Y27874868D01*
X56497446Y27830553D01*
X56453131Y27764231D01*
X56453130Y27764230D01*
X56441499Y27705753D01*
X15302189Y27705753D01*
X15320624Y27940000D01*
X15300557Y28194990D01*
X15240847Y28443703D01*
X15142965Y28680013D01*
X15142963Y28680016D01*
X15009319Y28898102D01*
X15009312Y28898112D01*
X15006065Y28901913D01*
X15006064Y28901913D01*
X14444714Y28340563D01*
X14443860Y28342626D01*
X14350838Y28481844D01*
X14232444Y28600238D01*
X14093226Y28693260D01*
X14091161Y28694116D01*
X14652511Y29255465D01*
X14652511Y29255467D01*
X14648710Y29258714D01*
X14648695Y29258725D01*
X14430615Y29392364D01*
X14430612Y29392366D01*
X14194302Y29490248D01*
X13945588Y29549958D01*
X13945589Y29549958D01*
X13690600Y29570025D01*
X13435610Y29549958D01*
X13186897Y29490248D01*
X12950587Y29392366D01*
X12950584Y29392364D01*
X12732497Y29258720D01*
X12728687Y29255466D01*
X13290038Y28694116D01*
X13287974Y28693260D01*
X13148756Y28600238D01*
X13030362Y28481844D01*
X12937340Y28342626D01*
X12936484Y28340562D01*
X12375133Y28901913D01*
X12371880Y28898103D01*
X12238236Y28680016D01*
X12238234Y28680013D01*
X12140352Y28443703D01*
X12080642Y28194990D01*
X12060575Y27940000D01*
X10240624Y27940000D01*
X10220557Y28194990D01*
X10160847Y28443703D01*
X10062965Y28680013D01*
X10062963Y28680016D01*
X9929319Y28898102D01*
X9929312Y28898112D01*
X9926065Y28901913D01*
X9926064Y28901913D01*
X9364714Y28340563D01*
X9363860Y28342626D01*
X9270838Y28481844D01*
X9152444Y28600238D01*
X9013226Y28693260D01*
X9011161Y28694116D01*
X9572511Y29255465D01*
X9572511Y29255467D01*
X9568710Y29258714D01*
X9568695Y29258725D01*
X9350615Y29392364D01*
X9350612Y29392366D01*
X9114302Y29490248D01*
X8865588Y29549958D01*
X8865589Y29549958D01*
X8610600Y29570025D01*
X8355610Y29549958D01*
X8106897Y29490248D01*
X7870587Y29392366D01*
X7870584Y29392364D01*
X7652497Y29258720D01*
X7648687Y29255466D01*
X8210038Y28694116D01*
X8207974Y28693260D01*
X8068756Y28600238D01*
X7950362Y28481844D01*
X7857340Y28342626D01*
X7856485Y28340562D01*
X7295134Y28901913D01*
X7291880Y28898103D01*
X7158236Y28680016D01*
X7158234Y28680013D01*
X7060352Y28443703D01*
X7000642Y28194990D01*
X6980575Y27940000D01*
X5334000Y27940000D01*
X5334000Y30245753D01*
X56441499Y30245753D01*
X56441499Y28682248D01*
X56453130Y28623771D01*
X56453131Y28623770D01*
X56497446Y28557448D01*
X56563768Y28513133D01*
X56563769Y28513132D01*
X56622246Y28501501D01*
X56622249Y28501500D01*
X56622251Y28501500D01*
X58185749Y28501500D01*
X58185750Y28501501D01*
X58200567Y28504448D01*
X58244228Y28513132D01*
X58244228Y28513133D01*
X58244230Y28513133D01*
X58310551Y28557448D01*
X58354866Y28623769D01*
X58354866Y28623771D01*
X58354867Y28623771D01*
X58363551Y28667432D01*
X58366499Y28682252D01*
X58366499Y30245748D01*
X58366499Y30245751D01*
X58366498Y30245753D01*
X58981501Y30245753D01*
X58981501Y28682248D01*
X58993132Y28623771D01*
X58993133Y28623770D01*
X59037448Y28557448D01*
X59103770Y28513133D01*
X59103771Y28513132D01*
X59162248Y28501501D01*
X59162251Y28501500D01*
X59162253Y28501500D01*
X60725751Y28501500D01*
X60725752Y28501501D01*
X60740569Y28504448D01*
X60784230Y28513132D01*
X60784230Y28513133D01*
X60784232Y28513133D01*
X60850553Y28557448D01*
X60894868Y28623769D01*
X60894868Y28623771D01*
X60894869Y28623771D01*
X60903553Y28667432D01*
X60906501Y28682252D01*
X60906501Y30245748D01*
X60906501Y30245751D01*
X60906500Y30245753D01*
X60894869Y30304230D01*
X60894868Y30304231D01*
X60850553Y30370553D01*
X60784231Y30414868D01*
X60784230Y30414869D01*
X60725753Y30426500D01*
X60725749Y30426500D01*
X59162253Y30426500D01*
X59162248Y30426500D01*
X59103771Y30414869D01*
X59103770Y30414868D01*
X59037448Y30370553D01*
X58993133Y30304231D01*
X58993132Y30304230D01*
X58981501Y30245753D01*
X58366498Y30245753D01*
X58354867Y30304230D01*
X58354866Y30304231D01*
X58310551Y30370553D01*
X58244229Y30414868D01*
X58244228Y30414869D01*
X58185751Y30426500D01*
X58185747Y30426500D01*
X56622251Y30426500D01*
X56622246Y30426500D01*
X56563769Y30414869D01*
X56563768Y30414868D01*
X56497446Y30370553D01*
X56453131Y30304231D01*
X56453130Y30304230D01*
X56441499Y30245753D01*
X5334000Y30245753D01*
X5334000Y32531753D01*
X40185500Y32531753D01*
X40185500Y30968248D01*
X40197131Y30909771D01*
X40197132Y30909770D01*
X40241447Y30843448D01*
X40307769Y30799133D01*
X40307770Y30799132D01*
X40366247Y30787501D01*
X40366250Y30787500D01*
X40366252Y30787500D01*
X41929750Y30787500D01*
X41929751Y30787501D01*
X41944568Y30790448D01*
X41988229Y30799132D01*
X41988229Y30799133D01*
X41988231Y30799133D01*
X42054552Y30843448D01*
X42098867Y30909769D01*
X42098867Y30909771D01*
X42098868Y30909771D01*
X42110499Y30968248D01*
X42110500Y30968250D01*
X42110500Y32531751D01*
X42110499Y32531753D01*
X42098868Y32590230D01*
X42098867Y32590231D01*
X42054552Y32656553D01*
X41988230Y32700868D01*
X41988229Y32700869D01*
X41929752Y32712500D01*
X41929748Y32712500D01*
X40366252Y32712500D01*
X40366247Y32712500D01*
X40307770Y32700869D01*
X40307769Y32700868D01*
X40241447Y32656553D01*
X40197132Y32590231D01*
X40197131Y32590230D01*
X40185500Y32531753D01*
X5334000Y32531753D01*
X5334000Y32785753D01*
X56441499Y32785753D01*
X56441499Y31222248D01*
X56453130Y31163771D01*
X56453131Y31163770D01*
X56497446Y31097448D01*
X56563768Y31053133D01*
X56563769Y31053132D01*
X56622246Y31041501D01*
X56622249Y31041500D01*
X56622251Y31041500D01*
X58185749Y31041500D01*
X58185750Y31041501D01*
X58200567Y31044448D01*
X58244228Y31053132D01*
X58244228Y31053133D01*
X58244230Y31053133D01*
X58310551Y31097448D01*
X58354866Y31163769D01*
X58354866Y31163771D01*
X58354867Y31163771D01*
X58366498Y31222248D01*
X58366499Y31222250D01*
X58366499Y32785751D01*
X58366498Y32785753D01*
X58981501Y32785753D01*
X58981501Y31222248D01*
X58993132Y31163771D01*
X58993133Y31163770D01*
X59037448Y31097448D01*
X59103770Y31053133D01*
X59103771Y31053132D01*
X59162248Y31041501D01*
X59162251Y31041500D01*
X59162253Y31041500D01*
X60725751Y31041500D01*
X60725752Y31041501D01*
X60740569Y31044448D01*
X60784230Y31053132D01*
X60784230Y31053133D01*
X60784232Y31053133D01*
X60850553Y31097448D01*
X60894868Y31163769D01*
X60894868Y31163771D01*
X60894869Y31163771D01*
X60906500Y31222248D01*
X60906501Y31222250D01*
X60906501Y32785751D01*
X60906500Y32785753D01*
X60894869Y32844230D01*
X60894868Y32844231D01*
X60850553Y32910553D01*
X60784231Y32954868D01*
X60784230Y32954869D01*
X60725753Y32966500D01*
X60725749Y32966500D01*
X59162253Y32966500D01*
X59162248Y32966500D01*
X59103771Y32954869D01*
X59103770Y32954868D01*
X59037448Y32910553D01*
X58993133Y32844231D01*
X58993132Y32844230D01*
X58981501Y32785753D01*
X58366498Y32785753D01*
X58354867Y32844230D01*
X58354866Y32844231D01*
X58310551Y32910553D01*
X58244229Y32954868D01*
X58244228Y32954869D01*
X58185751Y32966500D01*
X58185747Y32966500D01*
X56622251Y32966500D01*
X56622246Y32966500D01*
X56563769Y32954869D01*
X56563768Y32954868D01*
X56497446Y32910553D01*
X56453131Y32844231D01*
X56453130Y32844230D01*
X56441499Y32785753D01*
X5334000Y32785753D01*
X5334000Y35071753D01*
X40185500Y35071753D01*
X40185500Y33508248D01*
X40197131Y33449771D01*
X40197132Y33449770D01*
X40241447Y33383448D01*
X40307769Y33339133D01*
X40307770Y33339132D01*
X40366247Y33327501D01*
X40366250Y33327500D01*
X40366252Y33327500D01*
X41929750Y33327500D01*
X41929751Y33327501D01*
X41944568Y33330448D01*
X41988229Y33339132D01*
X41988229Y33339133D01*
X41988231Y33339133D01*
X42054552Y33383448D01*
X42098867Y33449769D01*
X42098867Y33449771D01*
X42098868Y33449771D01*
X42110499Y33508248D01*
X42110500Y33508250D01*
X42110500Y35071751D01*
X42110499Y35071753D01*
X42098868Y35130230D01*
X42098867Y35130231D01*
X42054552Y35196553D01*
X41988230Y35240868D01*
X41988229Y35240869D01*
X41929752Y35252500D01*
X41929748Y35252500D01*
X40366252Y35252500D01*
X40366247Y35252500D01*
X40307770Y35240869D01*
X40307769Y35240868D01*
X40241447Y35196553D01*
X40197132Y35130231D01*
X40197131Y35130230D01*
X40185500Y35071753D01*
X5334000Y35071753D01*
X5334000Y35325753D01*
X56441499Y35325753D01*
X56441499Y33762248D01*
X56453130Y33703771D01*
X56453131Y33703770D01*
X56497446Y33637448D01*
X56563768Y33593133D01*
X56563769Y33593132D01*
X56622246Y33581501D01*
X56622249Y33581500D01*
X56622251Y33581500D01*
X58185749Y33581500D01*
X58185750Y33581501D01*
X58200567Y33584448D01*
X58244228Y33593132D01*
X58244228Y33593133D01*
X58244230Y33593133D01*
X58310551Y33637448D01*
X58354866Y33703769D01*
X58354866Y33703771D01*
X58354867Y33703771D01*
X58366498Y33762248D01*
X58366499Y33762250D01*
X58366499Y35325751D01*
X58366498Y35325753D01*
X58981501Y35325753D01*
X58981501Y33762248D01*
X58993132Y33703771D01*
X58993133Y33703770D01*
X59037448Y33637448D01*
X59103770Y33593133D01*
X59103771Y33593132D01*
X59162248Y33581501D01*
X59162251Y33581500D01*
X59162253Y33581500D01*
X60725751Y33581500D01*
X60725752Y33581501D01*
X60740569Y33584448D01*
X60784230Y33593132D01*
X60784230Y33593133D01*
X60784232Y33593133D01*
X60850553Y33637448D01*
X60894868Y33703769D01*
X60894868Y33703771D01*
X60894869Y33703771D01*
X60906500Y33762248D01*
X60906501Y33762250D01*
X60906501Y35325751D01*
X60906500Y35325753D01*
X60894869Y35384230D01*
X60894868Y35384231D01*
X60850553Y35450553D01*
X60784231Y35494868D01*
X60784230Y35494869D01*
X60725753Y35506500D01*
X60725749Y35506500D01*
X59162253Y35506500D01*
X59162248Y35506500D01*
X59103771Y35494869D01*
X59103770Y35494868D01*
X59037448Y35450553D01*
X58993133Y35384231D01*
X58993132Y35384230D01*
X58981501Y35325753D01*
X58366498Y35325753D01*
X58354867Y35384230D01*
X58354866Y35384231D01*
X58310551Y35450553D01*
X58244229Y35494868D01*
X58244228Y35494869D01*
X58185751Y35506500D01*
X58185747Y35506500D01*
X56622251Y35506500D01*
X56622246Y35506500D01*
X56563769Y35494869D01*
X56563768Y35494868D01*
X56497446Y35450553D01*
X56453131Y35384231D01*
X56453130Y35384230D01*
X56441499Y35325753D01*
X5334000Y35325753D01*
X5334000Y45342000D01*
X5353685Y45409039D01*
X5406489Y45454794D01*
X5458000Y45466000D01*
X65662000Y45466000D01*
X65729039Y45446315D01*
G37*
%TD.AperFunction*%
%TD*%
M02*
