%TF.GenerationSoftware,KiCad,Pcbnew,8.0.8+1*%
%TF.CreationDate,2025-02-17T00:17:54+00:00*%
%TF.ProjectId,EFMADC01,45464d41-4443-4303-912e-6b696361645f,rev?*%
%TF.SameCoordinates,Original*%
%TF.FileFunction,Copper,L4,Bot*%
%TF.FilePolarity,Positive*%
%FSLAX46Y46*%
G04 Gerber Fmt 4.6, Leading zero omitted, Abs format (unit mm)*
G04 Created by KiCad (PCBNEW 8.0.8+1) date 2025-02-17 00:17:54*
%MOMM*%
%LPD*%
G01*
G04 APERTURE LIST*
G04 Aperture macros list*
%AMRoundRect*
0 Rectangle with rounded corners*
0 $1 Rounding radius*
0 $2 $3 $4 $5 $6 $7 $8 $9 X,Y pos of 4 corners*
0 Add a 4 corners polygon primitive as box body*
4,1,4,$2,$3,$4,$5,$6,$7,$8,$9,$2,$3,0*
0 Add four circle primitives for the rounded corners*
1,1,$1+$1,$2,$3*
1,1,$1+$1,$4,$5*
1,1,$1+$1,$6,$7*
1,1,$1+$1,$8,$9*
0 Add four rect primitives between the rounded corners*
20,1,$1+$1,$2,$3,$4,$5,0*
20,1,$1+$1,$4,$5,$6,$7,0*
20,1,$1+$1,$6,$7,$8,$9,0*
20,1,$1+$1,$8,$9,$2,$3,0*%
G04 Aperture macros list end*
%TA.AperFunction,EtchedComponent*%
%ADD10C,0.000000*%
%TD*%
%TA.AperFunction,ComponentPad*%
%ADD11C,6.000000*%
%TD*%
%TA.AperFunction,ComponentPad*%
%ADD12R,1.524000X1.524000*%
%TD*%
%TA.AperFunction,ComponentPad*%
%ADD13C,2.050000*%
%TD*%
%TA.AperFunction,ComponentPad*%
%ADD14C,2.250000*%
%TD*%
%TA.AperFunction,SMDPad,CuDef*%
%ADD15R,1.300000X1.500000*%
%TD*%
%TA.AperFunction,SMDPad,CuDef*%
%ADD16R,0.700000X3.000000*%
%TD*%
%TA.AperFunction,SMDPad,CuDef*%
%ADD17RoundRect,0.250000X0.250000X0.475000X-0.250000X0.475000X-0.250000X-0.475000X0.250000X-0.475000X0*%
%TD*%
%TA.AperFunction,SMDPad,CuDef*%
%ADD18RoundRect,0.250000X0.600000X-0.400000X0.600000X0.400000X-0.600000X0.400000X-0.600000X-0.400000X0*%
%TD*%
%TA.AperFunction,SMDPad,CuDef*%
%ADD19RoundRect,0.150000X0.150000X-0.587500X0.150000X0.587500X-0.150000X0.587500X-0.150000X-0.587500X0*%
%TD*%
%TA.AperFunction,SMDPad,CuDef*%
%ADD20RoundRect,0.250000X0.450000X0.425000X-0.450000X0.425000X-0.450000X-0.425000X0.450000X-0.425000X0*%
%TD*%
%TA.AperFunction,SMDPad,CuDef*%
%ADD21RoundRect,0.225000X0.225000X0.250000X-0.225000X0.250000X-0.225000X-0.250000X0.225000X-0.250000X0*%
%TD*%
%TA.AperFunction,SMDPad,CuDef*%
%ADD22R,1.000000X1.000000*%
%TD*%
%TA.AperFunction,SMDPad,CuDef*%
%ADD23R,1.000000X2.300000*%
%TD*%
%TA.AperFunction,SMDPad,CuDef*%
%ADD24R,1.000000X3.800000*%
%TD*%
%TA.AperFunction,SMDPad,CuDef*%
%ADD25R,2.300000X1.000000*%
%TD*%
%TA.AperFunction,SMDPad,CuDef*%
%ADD26R,3.800000X1.000000*%
%TD*%
%TA.AperFunction,SMDPad,CuDef*%
%ADD27C,1.000000*%
%TD*%
%TA.AperFunction,SMDPad,CuDef*%
%ADD28RoundRect,0.225000X-0.225000X-0.250000X0.225000X-0.250000X0.225000X0.250000X-0.225000X0.250000X0*%
%TD*%
%TA.AperFunction,SMDPad,CuDef*%
%ADD29RoundRect,0.200000X0.200000X0.275000X-0.200000X0.275000X-0.200000X-0.275000X0.200000X-0.275000X0*%
%TD*%
%TA.AperFunction,SMDPad,CuDef*%
%ADD30RoundRect,0.200000X-0.275000X0.200000X-0.275000X-0.200000X0.275000X-0.200000X0.275000X0.200000X0*%
%TD*%
%TA.AperFunction,SMDPad,CuDef*%
%ADD31RoundRect,0.087500X-0.725000X-0.087500X0.725000X-0.087500X0.725000X0.087500X-0.725000X0.087500X0*%
%TD*%
%TA.AperFunction,SMDPad,CuDef*%
%ADD32RoundRect,0.150000X0.200000X-0.150000X0.200000X0.150000X-0.200000X0.150000X-0.200000X-0.150000X0*%
%TD*%
%TA.AperFunction,SMDPad,CuDef*%
%ADD33C,0.500000*%
%TD*%
%TA.AperFunction,SMDPad,CuDef*%
%ADD34RoundRect,0.150000X0.512500X0.150000X-0.512500X0.150000X-0.512500X-0.150000X0.512500X-0.150000X0*%
%TD*%
%TA.AperFunction,SMDPad,CuDef*%
%ADD35RoundRect,0.150000X0.587500X0.150000X-0.587500X0.150000X-0.587500X-0.150000X0.587500X-0.150000X0*%
%TD*%
G04 APERTURE END LIST*
D10*
%TA.AperFunction,EtchedComponent*%
%TO.C,JP1*%
G36*
X61983400Y12525400D02*
G01*
X60983400Y12525400D01*
X60983400Y13025400D01*
X61983400Y13025400D01*
X61983400Y12525400D01*
G37*
%TD.AperFunction*%
%TD*%
D11*
%TO.P,M5,1*%
%TO.N,GND*%
X60960000Y10160000D03*
%TD*%
%TO.P,M4,1*%
%TO.N,GND*%
X10160000Y10160000D03*
%TD*%
%TO.P,M2,1*%
%TO.N,GND*%
X10160000Y40640000D03*
%TD*%
D12*
%TO.P,J6,1*%
%TO.N,Net-(U4-SDI)*%
X59944001Y34544000D03*
%TO.P,J6,2*%
X57403999Y34544000D03*
%TD*%
%TO.P,J5,1*%
%TO.N,Net-(U4-SDO)*%
X59944001Y32004000D03*
%TO.P,J5,2*%
X57403999Y32004000D03*
%TD*%
D11*
%TO.P,M3,1*%
%TO.N,GND*%
X60960000Y40640000D03*
%TD*%
D12*
%TO.P,J7,1*%
%TO.N,Net-(U4-CONV)*%
X59944001Y26924000D03*
%TO.P,J7,2*%
X57403999Y26924000D03*
%TD*%
%TO.P,J1,1*%
%TO.N,GND*%
X57404000Y22606000D03*
%TO.P,J1,2*%
X59944000Y22606000D03*
%TO.P,J1,3*%
%TO.N,Net-(D2-K)*%
X57404000Y20066000D03*
%TO.P,J1,4*%
X59944000Y20066000D03*
%TO.P,J1,5*%
%TO.N,GND*%
X57404000Y17526000D03*
%TO.P,J1,6*%
X59944000Y17526000D03*
%TD*%
%TO.P,J4,1*%
%TO.N,Net-(U4-SCK)*%
X59944001Y29464000D03*
%TO.P,J4,2*%
X57403999Y29464000D03*
%TD*%
D13*
%TO.P,J9,1,In*%
%TO.N,Net-(J9-In)*%
X11150600Y25400000D03*
D14*
%TO.P,J9,2,Ext*%
%TO.N,GND*%
X8610600Y27940000D03*
X8610600Y22860000D03*
X13690600Y27940000D03*
X13690600Y22860000D03*
%TD*%
D12*
%TO.P,J2,1*%
%TO.N,Net-(U4-V_{REF})*%
X44196000Y34290000D03*
%TO.P,J2,2*%
%TO.N,Net-(U3-Vout)*%
X46736000Y34290000D03*
%TD*%
D15*
%TO.P,C6,1,1*%
%TO.N,VCC*%
X46402000Y19558000D03*
D16*
%TO.P,C6,2,2*%
%TO.N,GND*%
X47752000Y19558000D03*
D15*
%TO.P,C6,3,3*%
%TO.N,Net-(D2-K)*%
X49102000Y19558000D03*
%TD*%
D17*
%TO.P,C7,1*%
%TO.N,Net-(D2-K)*%
X38228400Y25030400D03*
%TO.P,C7,2*%
%TO.N,GND*%
X36328400Y25030400D03*
%TD*%
D18*
%TO.P,D2,1,K*%
%TO.N,Net-(D2-K)*%
X62992000Y19868000D03*
%TO.P,D2,2,A*%
%TO.N,GND*%
X62992000Y23368000D03*
%TD*%
D19*
%TO.P,U3,1,Vin*%
%TO.N,VCC*%
X47686000Y28272500D03*
%TO.P,U3,2,Vout*%
%TO.N,Net-(U3-Vout)*%
X45786000Y28272500D03*
%TO.P,U3,3,GND*%
%TO.N,GNDA*%
X46736000Y30147501D03*
%TD*%
D20*
%TO.P,C9,1*%
%TO.N,VCC*%
X43863400Y19000400D03*
%TO.P,C9,2*%
%TO.N,GND*%
X41163400Y19000400D03*
%TD*%
D21*
%TO.P,C5,1*%
%TO.N,GNDA*%
X32913000Y23049400D03*
%TO.P,C5,2*%
%TO.N,+3.3VA*%
X31363000Y23049400D03*
%TD*%
D22*
%TO.P,M1,1,Shield*%
%TO.N,GND*%
X51460000Y9500000D03*
D23*
X51460000Y11150000D03*
D24*
X51460000Y16400000D03*
X51460000Y22400000D03*
X51460000Y28400000D03*
X51460000Y34400000D03*
D23*
X51460000Y39650000D03*
D22*
X51460000Y41300000D03*
D25*
X49810000Y9500000D03*
X49810000Y41300000D03*
D26*
X44560000Y9500000D03*
X44560000Y41300000D03*
X38560000Y9500000D03*
X38560000Y41300000D03*
X32560000Y9500000D03*
X32560000Y41300000D03*
X26560000Y9500000D03*
X26560000Y41300000D03*
D25*
X21310000Y9500000D03*
X21310000Y41300000D03*
D22*
X19660000Y9500000D03*
D23*
X19660000Y11150000D03*
D24*
X19660000Y16400000D03*
X19660000Y22400000D03*
X19660000Y28400000D03*
X19660000Y34400000D03*
D23*
X19660000Y39650000D03*
D22*
X19660000Y41300000D03*
%TD*%
D27*
%TO.P,FID2,*%
%TO.N,*%
X7874000Y16764000D03*
%TD*%
D17*
%TO.P,C12,1*%
%TO.N,VCC*%
X38228400Y12990400D03*
%TO.P,C12,2*%
%TO.N,GNDA*%
X36328400Y12990400D03*
%TD*%
D28*
%TO.P,C2,1*%
%TO.N,Net-(J9-In)*%
X13957000Y25400000D03*
%TO.P,C2,2*%
%TO.N,Net-(D1-A1)*%
X15507000Y25400000D03*
%TD*%
D17*
%TO.P,C10,1*%
%TO.N,VCC*%
X38228400Y19010400D03*
%TO.P,C10,2*%
%TO.N,GND*%
X36328400Y19010400D03*
%TD*%
D27*
%TO.P,FID1,*%
%TO.N,*%
X54864000Y42672000D03*
%TD*%
D29*
%TO.P,R3,1*%
%TO.N,Net-(U2--)*%
X32963000Y15519400D03*
%TO.P,R3,2*%
%TO.N,Net-(U4-CH0)*%
X31313000Y15519400D03*
%TD*%
D21*
%TO.P,C3,1*%
%TO.N,GNDA*%
X32913000Y28069400D03*
%TO.P,C3,2*%
%TO.N,/REF_1V25*%
X31363000Y28069400D03*
%TD*%
D30*
%TO.P,R1,1*%
%TO.N,/REF_1V25*%
X22098000Y27241000D03*
%TO.P,R1,2*%
%TO.N,Net-(D1-A1)*%
X22098000Y25591000D03*
%TD*%
D31*
%TO.P,U4,1,CONV*%
%TO.N,Net-(U4-CONV)*%
X43861500Y23384000D03*
%TO.P,U4,2,CH0*%
%TO.N,Net-(U4-CH0)*%
X43861500Y23884001D03*
%TO.P,U4,3,CH1*%
%TO.N,/REF_1V25*%
X43861500Y24384000D03*
%TO.P,U4,4,AGND*%
%TO.N,GNDA*%
X43861500Y24883999D03*
%TO.P,U4,5,DGND*%
%TO.N,GND*%
X43861500Y25384000D03*
%TO.P,U4,6,SDI*%
%TO.N,Net-(U4-SDI)*%
X48086500Y25384000D03*
%TO.P,U4,7,SDO*%
%TO.N,Net-(U4-SDO)*%
X48086500Y24883999D03*
%TO.P,U4,8,SCK*%
%TO.N,Net-(U4-SCK)*%
X48086500Y24384000D03*
%TO.P,U4,9,V_{CC}*%
%TO.N,VCC*%
X48086500Y23884001D03*
%TO.P,U4,10,V_{REF}*%
%TO.N,Net-(U4-V_{REF})*%
X48086500Y23384000D03*
%TD*%
D32*
%TO.P,D1,1,A1*%
%TO.N,Net-(D1-A1)*%
X22098000Y24068000D03*
%TO.P,D1,2,A2*%
%TO.N,GNDA*%
X22098000Y22668000D03*
%TD*%
D33*
%TO.P,JP1,1,1*%
%TO.N,GNDA*%
X61983400Y12775400D03*
%TO.P,JP1,2,2*%
%TO.N,GND*%
X60983400Y12775400D03*
%TD*%
D29*
%TO.P,R2,1*%
%TO.N,/REF_1V25*%
X32963000Y18029400D03*
%TO.P,R2,2*%
%TO.N,Net-(U2--)*%
X31313000Y18029400D03*
%TD*%
D34*
%TO.P,U2,1*%
%TO.N,Net-(U4-CH0)*%
X44885900Y15785400D03*
%TO.P,U2,2,V-*%
%TO.N,GNDA*%
X44885900Y14835400D03*
%TO.P,U2,3,+*%
%TO.N,Net-(D1-A1)*%
X44885900Y13885400D03*
%TO.P,U2,4,-*%
%TO.N,Net-(U2--)*%
X42610900Y13885400D03*
%TO.P,U2,5,V+*%
%TO.N,+3.3VA*%
X42610900Y15785400D03*
%TD*%
D21*
%TO.P,C1,1*%
%TO.N,/REF_1V25*%
X32913000Y33089400D03*
%TO.P,C1,2*%
%TO.N,GNDA*%
X31363000Y33089400D03*
%TD*%
D17*
%TO.P,C8,1*%
%TO.N,Net-(D2-K)*%
X38228400Y22020400D03*
%TO.P,C8,2*%
%TO.N,GND*%
X36328400Y22020400D03*
%TD*%
D21*
%TO.P,C4,1*%
%TO.N,Net-(U2--)*%
X32913000Y25559400D03*
%TO.P,C4,2*%
%TO.N,Net-(U4-CH0)*%
X31363000Y25559400D03*
%TD*%
D35*
%TO.P,U1,1,Vin*%
%TO.N,+3.3VA*%
X40737000Y35494000D03*
%TO.P,U1,2,Vout*%
%TO.N,/REF_1V25*%
X40737000Y33594000D03*
%TO.P,U1,3,GND*%
%TO.N,GNDA*%
X38862000Y34544000D03*
%TD*%
D17*
%TO.P,C11,1*%
%TO.N,Net-(U4-V_{REF})*%
X38228400Y16000400D03*
%TO.P,C11,2*%
%TO.N,GNDA*%
X36328400Y16000400D03*
%TD*%
M02*
