%TF.GenerationSoftware,KiCad,Pcbnew,8.0.8+1*%
%TF.CreationDate,2025-02-20T08:18:55+00:00*%
%TF.ProjectId,EFMADC01,45464d41-4443-4303-912e-6b696361645f,rev?*%
%TF.SameCoordinates,Original*%
%TF.FileFunction,Paste,Bot*%
%TF.FilePolarity,Positive*%
%FSLAX46Y46*%
G04 Gerber Fmt 4.6, Leading zero omitted, Abs format (unit mm)*
G04 Created by KiCad (PCBNEW 8.0.8+1) date 2025-02-20 08:18:55*
%MOMM*%
%LPD*%
G01*
G04 APERTURE LIST*
G04 Aperture macros list*
%AMRoundRect*
0 Rectangle with rounded corners*
0 $1 Rounding radius*
0 $2 $3 $4 $5 $6 $7 $8 $9 X,Y pos of 4 corners*
0 Add a 4 corners polygon primitive as box body*
4,1,4,$2,$3,$4,$5,$6,$7,$8,$9,$2,$3,0*
0 Add four circle primitives for the rounded corners*
1,1,$1+$1,$2,$3*
1,1,$1+$1,$4,$5*
1,1,$1+$1,$6,$7*
1,1,$1+$1,$8,$9*
0 Add four rect primitives between the rounded corners*
20,1,$1+$1,$2,$3,$4,$5,0*
20,1,$1+$1,$4,$5,$6,$7,0*
20,1,$1+$1,$6,$7,$8,$9,0*
20,1,$1+$1,$8,$9,$2,$3,0*%
G04 Aperture macros list end*
%ADD10RoundRect,0.250000X-0.262500X-0.450000X0.262500X-0.450000X0.262500X0.450000X-0.262500X0.450000X0*%
%ADD11RoundRect,0.150000X0.150000X-0.587500X0.150000X0.587500X-0.150000X0.587500X-0.150000X-0.587500X0*%
%ADD12RoundRect,0.250000X-0.475000X0.250000X-0.475000X-0.250000X0.475000X-0.250000X0.475000X0.250000X0*%
%ADD13R,1.000000X1.000000*%
%ADD14R,1.000000X2.300000*%
%ADD15R,1.000000X3.800000*%
%ADD16R,2.300000X1.000000*%
%ADD17R,3.800000X1.000000*%
%ADD18RoundRect,0.250000X0.250000X0.475000X-0.250000X0.475000X-0.250000X-0.475000X0.250000X-0.475000X0*%
%ADD19RoundRect,0.250000X0.475000X-0.250000X0.475000X0.250000X-0.475000X0.250000X-0.475000X-0.250000X0*%
%ADD20RoundRect,0.250000X-0.250000X-0.475000X0.250000X-0.475000X0.250000X0.475000X-0.250000X0.475000X0*%
%ADD21RoundRect,0.250000X0.600000X-0.400000X0.600000X0.400000X-0.600000X0.400000X-0.600000X-0.400000X0*%
%ADD22RoundRect,0.250000X-0.450000X0.262500X-0.450000X-0.262500X0.450000X-0.262500X0.450000X0.262500X0*%
%ADD23RoundRect,0.087500X-0.725000X-0.087500X0.725000X-0.087500X0.725000X0.087500X-0.725000X0.087500X0*%
%ADD24RoundRect,0.250000X-0.900000X1.000000X-0.900000X-1.000000X0.900000X-1.000000X0.900000X1.000000X0*%
%ADD25RoundRect,0.150000X-0.512500X-0.150000X0.512500X-0.150000X0.512500X0.150000X-0.512500X0.150000X0*%
%ADD26RoundRect,0.150000X0.587500X0.150000X-0.587500X0.150000X-0.587500X-0.150000X0.587500X-0.150000X0*%
G04 APERTURE END LIST*
D10*
%TO.C,R6*%
X53697500Y34544000D03*
X55522500Y34544000D03*
%TD*%
%TO.C,R7*%
X53570500Y24892000D03*
X55395500Y24892000D03*
%TD*%
D11*
%TO.C,U3*%
X45880875Y34490912D03*
X43980875Y34490912D03*
X44930875Y36365912D03*
%TD*%
D12*
%TO.C,C5*%
X30099000Y25207000D03*
X30099000Y23307000D03*
%TD*%
D13*
%TO.C,M1*%
X51460000Y9500000D03*
D14*
X51460000Y11150000D03*
D15*
X51460000Y16400000D03*
X51460000Y22400000D03*
X51460000Y28400000D03*
X51460000Y34400000D03*
D14*
X51460000Y39650000D03*
D13*
X51460000Y41300000D03*
D16*
X49810000Y9500000D03*
X49810000Y41300000D03*
D17*
X44560000Y9500000D03*
X44560000Y41300000D03*
X38560000Y9500000D03*
X38560000Y41300000D03*
X32560000Y9500000D03*
X32560000Y41300000D03*
X26560000Y9500000D03*
X26560000Y41300000D03*
D16*
X21310000Y9500000D03*
X21310000Y41300000D03*
D13*
X19660000Y9500000D03*
D14*
X19660000Y11150000D03*
D15*
X19660000Y16400000D03*
X19660000Y22400000D03*
X19660000Y28400000D03*
X19660000Y34400000D03*
D14*
X19660000Y39650000D03*
D13*
X19660000Y41300000D03*
%TD*%
D18*
%TO.C,C7*%
X33970000Y32004000D03*
X32070000Y32004000D03*
%TD*%
D10*
%TO.C,R4*%
X53697500Y29464000D03*
X55522500Y29464000D03*
%TD*%
D19*
%TO.C,C12*%
X47752000Y34483000D03*
X47752000Y36383000D03*
%TD*%
D20*
%TO.C,C2*%
X13782000Y25400000D03*
X15682000Y25400000D03*
%TD*%
D19*
%TO.C,C6*%
X54991000Y20767000D03*
X54991000Y22667000D03*
%TD*%
D12*
%TO.C,C10*%
X46355000Y27747000D03*
X46355000Y25847000D03*
%TD*%
D10*
%TO.C,R3*%
X26163900Y29286200D03*
X27988900Y29286200D03*
%TD*%
D12*
%TO.C,C3*%
X29845000Y32573000D03*
X29845000Y30673000D03*
%TD*%
D21*
%TO.C,D2*%
X62839600Y19992400D03*
X62839600Y23492400D03*
%TD*%
D22*
%TO.C,R1*%
X22733000Y27074500D03*
X22733000Y25249500D03*
%TD*%
D10*
%TO.C,R5*%
X53697500Y31877000D03*
X55522500Y31877000D03*
%TD*%
D23*
%TO.C,U4*%
X39162500Y27448000D03*
X39162500Y27948000D03*
X39162500Y28448000D03*
X39162500Y28948000D03*
X39162500Y29448000D03*
X43387500Y29448000D03*
X43387500Y28948000D03*
X43387500Y28448000D03*
X43387500Y27948000D03*
X43387500Y27448000D03*
%TD*%
D24*
%TO.C,D1*%
X22860000Y20565000D03*
X22860000Y16265000D03*
%TD*%
D22*
%TO.C,R2*%
X26136600Y32941900D03*
X26136600Y31116900D03*
%TD*%
D25*
%TO.C,U2*%
X24668900Y23307000D03*
X24668900Y24257000D03*
X24668900Y25207000D03*
X26943900Y25207000D03*
X26943900Y23307000D03*
%TD*%
D19*
%TO.C,C1*%
X36449000Y28006000D03*
X36449000Y29906000D03*
%TD*%
D12*
%TO.C,C8*%
X54991000Y19238000D03*
X54991000Y17338000D03*
%TD*%
D20*
%TO.C,C4*%
X26126400Y27203400D03*
X28026400Y27203400D03*
%TD*%
D26*
%TO.C,U1*%
X33957500Y30160000D03*
X33957500Y28260000D03*
X32082500Y29210000D03*
%TD*%
D12*
%TO.C,C9*%
X48387000Y27747000D03*
X48387000Y25847000D03*
%TD*%
D18*
%TO.C,C11*%
X43393400Y25552400D03*
X41493400Y25552400D03*
%TD*%
M02*
