M48
; DRILL file {KiCad 9.0.1+1} date 2025-07-11T01:06:47+0000
; FORMAT={3:3/ absolute / metric / suppress leading zeros}
; #@! TF.CreationDate,2025-07-11T01:06:47+00:00
; #@! TF.GenerationSoftware,Kicad,Pcbnew,9.0.1+1
; #@! TF.FileFunction,Plated,1,2,PTH
FMAT,2
METRIC,TZ
; #@! TA.AperFunction,Plated,PTH,ViaDrill
T1C0.400
; #@! TA.AperFunction,Plated,PTH,ComponentDrill
T2C0.889
; #@! TA.AperFunction,Plated,PTH,ComponentDrill
T3C1.500
; #@! TA.AperFunction,Plated,PTH,ComponentDrill
T4C1.700
; #@! TA.AperFunction,Plated,PTH,ComponentDrill
T5C3.000
%
G90
G05
T1
X16205Y31902
X16485Y13208
X16586Y18237
X16688Y38379
X16916Y43612
X25908Y7239
X26391Y43815
X32893Y43917
X33045Y6807
X38938Y44044
X39116Y30099
X40792Y6731
X44704Y44044
X46355Y25908
X48387Y25847
X49860Y44018
X52908Y22428
X53569Y14732
X53645Y10236
X54483Y28016
X54610Y33198
X62890Y25425
T2
X41148Y34290
X41148Y31750
X57404Y34544
X57404Y32004
X57404Y29464
X57404Y26924
X57404Y22606
X57404Y20066
X57404Y17526
X59944Y22606
X59944Y20066
X59944Y17526
X59944Y34544
X59944Y32004
X59944Y29464
X59944Y26924
T3
X11151Y25400
T4
X8611Y27940
X8611Y22860
X13691Y27940
X13691Y22860
T5
X10160Y40640
X10160Y10160
X60960Y40640
X60960Y10160
M30
