%TF.GenerationSoftware,KiCad,Pcbnew,9.0.1+1*%
%TF.CreationDate,2025-07-11T01:06:47+00:00*%
%TF.ProjectId,EFMADC01,45464d41-4443-4303-912e-6b696361645f,rev?*%
%TF.SameCoordinates,Original*%
%TF.FileFunction,Copper,L2,Bot*%
%TF.FilePolarity,Positive*%
%FSLAX46Y46*%
G04 Gerber Fmt 4.6, Leading zero omitted, Abs format (unit mm)*
G04 Created by KiCad (PCBNEW 9.0.1+1) date 2025-07-11 01:06:47*
%MOMM*%
%LPD*%
G01*
G04 APERTURE LIST*
G04 Aperture macros list*
%AMRoundRect*
0 Rectangle with rounded corners*
0 $1 Rounding radius*
0 $2 $3 $4 $5 $6 $7 $8 $9 X,Y pos of 4 corners*
0 Add a 4 corners polygon primitive as box body*
4,1,4,$2,$3,$4,$5,$6,$7,$8,$9,$2,$3,0*
0 Add four circle primitives for the rounded corners*
1,1,$1+$1,$2,$3*
1,1,$1+$1,$4,$5*
1,1,$1+$1,$6,$7*
1,1,$1+$1,$8,$9*
0 Add four rect primitives between the rounded corners*
20,1,$1+$1,$2,$3,$4,$5,0*
20,1,$1+$1,$4,$5,$6,$7,0*
20,1,$1+$1,$6,$7,$8,$9,0*
20,1,$1+$1,$8,$9,$2,$3,0*%
G04 Aperture macros list end*
%ADD10C,0.300000*%
%TA.AperFunction,EtchedComponent*%
%ADD11C,0.000000*%
%TD*%
%TA.AperFunction,ComponentPad*%
%ADD12C,6.000000*%
%TD*%
%TA.AperFunction,ComponentPad*%
%ADD13R,1.524000X1.524000*%
%TD*%
%TA.AperFunction,ComponentPad*%
%ADD14C,2.050000*%
%TD*%
%TA.AperFunction,ComponentPad*%
%ADD15C,2.250000*%
%TD*%
%TA.AperFunction,SMDPad,CuDef*%
%ADD16RoundRect,0.250000X-0.262500X-0.450000X0.262500X-0.450000X0.262500X0.450000X-0.262500X0.450000X0*%
%TD*%
%TA.AperFunction,SMDPad,CuDef*%
%ADD17RoundRect,0.150000X0.150000X-0.587500X0.150000X0.587500X-0.150000X0.587500X-0.150000X-0.587500X0*%
%TD*%
%TA.AperFunction,SMDPad,CuDef*%
%ADD18RoundRect,0.250000X-0.475000X0.250000X-0.475000X-0.250000X0.475000X-0.250000X0.475000X0.250000X0*%
%TD*%
%TA.AperFunction,SMDPad,CuDef*%
%ADD19R,1.000000X1.000000*%
%TD*%
%TA.AperFunction,SMDPad,CuDef*%
%ADD20R,1.000000X2.300000*%
%TD*%
%TA.AperFunction,SMDPad,CuDef*%
%ADD21R,1.000000X3.800000*%
%TD*%
%TA.AperFunction,SMDPad,CuDef*%
%ADD22R,2.300000X1.000000*%
%TD*%
%TA.AperFunction,SMDPad,CuDef*%
%ADD23R,3.800000X1.000000*%
%TD*%
%TA.AperFunction,SMDPad,CuDef*%
%ADD24RoundRect,0.250000X0.250000X0.475000X-0.250000X0.475000X-0.250000X-0.475000X0.250000X-0.475000X0*%
%TD*%
%TA.AperFunction,SMDPad,CuDef*%
%ADD25C,1.000000*%
%TD*%
%TA.AperFunction,SMDPad,CuDef*%
%ADD26RoundRect,0.250000X0.475000X-0.250000X0.475000X0.250000X-0.475000X0.250000X-0.475000X-0.250000X0*%
%TD*%
%TA.AperFunction,SMDPad,CuDef*%
%ADD27RoundRect,0.250000X-0.250000X-0.475000X0.250000X-0.475000X0.250000X0.475000X-0.250000X0.475000X0*%
%TD*%
%TA.AperFunction,SMDPad,CuDef*%
%ADD28RoundRect,0.250000X0.600000X-0.400000X0.600000X0.400000X-0.600000X0.400000X-0.600000X-0.400000X0*%
%TD*%
%TA.AperFunction,SMDPad,CuDef*%
%ADD29RoundRect,0.250000X-0.450000X0.262500X-0.450000X-0.262500X0.450000X-0.262500X0.450000X0.262500X0*%
%TD*%
%TA.AperFunction,SMDPad,CuDef*%
%ADD30RoundRect,0.087500X-0.725000X-0.087500X0.725000X-0.087500X0.725000X0.087500X-0.725000X0.087500X0*%
%TD*%
%TA.AperFunction,SMDPad,CuDef*%
%ADD31RoundRect,0.250000X-0.900000X1.000000X-0.900000X-1.000000X0.900000X-1.000000X0.900000X1.000000X0*%
%TD*%
%TA.AperFunction,SMDPad,CuDef*%
%ADD32RoundRect,0.150000X-0.512500X-0.150000X0.512500X-0.150000X0.512500X0.150000X-0.512500X0.150000X0*%
%TD*%
%TA.AperFunction,SMDPad,CuDef*%
%ADD33RoundRect,0.150000X0.587500X0.150000X-0.587500X0.150000X-0.587500X-0.150000X0.587500X-0.150000X0*%
%TD*%
%TA.AperFunction,SMDPad,CuDef*%
%ADD34C,0.500000*%
%TD*%
%TA.AperFunction,ViaPad*%
%ADD35C,0.800000*%
%TD*%
%TA.AperFunction,Conductor*%
%ADD36C,0.450000*%
%TD*%
%TA.AperFunction,Conductor*%
%ADD37C,0.250000*%
%TD*%
%TA.AperFunction,Conductor*%
%ADD38C,0.200000*%
%TD*%
%TA.AperFunction,Conductor*%
%ADD39C,0.300000*%
%TD*%
G04 APERTURE END LIST*
D10*
G36*
X47797121Y7549665D02*
G01*
X47834125Y7512661D01*
X47887304Y7406302D01*
X47950260Y7154480D01*
X47950260Y6834264D01*
X47887304Y6582443D01*
X47834124Y6476083D01*
X47797121Y6439079D01*
X47707708Y6394372D01*
X47635670Y6394372D01*
X47546257Y6439078D01*
X47509253Y6476082D01*
X47456073Y6582442D01*
X47393117Y6834266D01*
X47393117Y7154479D01*
X47456073Y7406303D01*
X47509253Y7512662D01*
X47546257Y7549666D01*
X47635670Y7594372D01*
X47707707Y7594372D01*
X47797121Y7549665D01*
G37*
G36*
X50878832Y6394372D02*
G01*
X50696032Y6394372D01*
X50538429Y6446906D01*
X50437824Y6547512D01*
X50384643Y6653872D01*
X50321689Y6905693D01*
X50321689Y7083052D01*
X50384643Y7334873D01*
X50437824Y7441233D01*
X50538430Y7541839D01*
X50696032Y7594372D01*
X50878832Y7594372D01*
X50878832Y6394372D01*
G37*
G36*
X45035005Y6822943D02*
G01*
X44736946Y6822943D01*
X44885975Y7270031D01*
X45035005Y6822943D01*
G37*
G36*
X52177861Y6822943D02*
G01*
X51879802Y6822943D01*
X52028831Y7270031D01*
X52177861Y6822943D01*
G37*
G36*
X56988356Y5927705D02*
G01*
X44070486Y5927705D01*
X44070486Y6263133D01*
X44237153Y6263133D01*
X44241302Y6204752D01*
X44267476Y6152405D01*
X44311690Y6114058D01*
X44367214Y6095550D01*
X44425595Y6099699D01*
X44477942Y6125873D01*
X44516289Y6170087D01*
X44528277Y6196938D01*
X44636946Y6522943D01*
X45135005Y6522943D01*
X45243673Y6196938D01*
X45255661Y6170087D01*
X45294008Y6125872D01*
X45346356Y6099699D01*
X45404736Y6095549D01*
X45460260Y6114058D01*
X45504474Y6152405D01*
X45530648Y6204752D01*
X45534798Y6263132D01*
X45532410Y6273636D01*
X45667428Y6273636D01*
X45667428Y6215108D01*
X45689826Y6161036D01*
X45731210Y6119652D01*
X45785282Y6097254D01*
X45814546Y6094372D01*
X46671689Y6094372D01*
X46700953Y6097254D01*
X46755025Y6119652D01*
X46796409Y6161036D01*
X46818807Y6215108D01*
X46818807Y6273636D01*
X46796409Y6327708D01*
X46755025Y6369092D01*
X46700953Y6391490D01*
X46671689Y6394372D01*
X46393118Y6394372D01*
X46393118Y7310811D01*
X46422766Y7281163D01*
X46434268Y7271723D01*
X46436864Y7268730D01*
X46441373Y7265892D01*
X46445496Y7262508D01*
X46449158Y7260992D01*
X46461750Y7253065D01*
X46604606Y7181636D01*
X46632070Y7171127D01*
X46690450Y7166978D01*
X46708345Y7172943D01*
X47093117Y7172943D01*
X47093117Y6815800D01*
X47093619Y6810697D01*
X47093294Y6808509D01*
X47094913Y6797558D01*
X47095999Y6786536D01*
X47096845Y6784492D01*
X47097596Y6779419D01*
X47169025Y6493706D01*
X47169796Y6491548D01*
X47169873Y6490467D01*
X47174531Y6478293D01*
X47178918Y6466015D01*
X47179562Y6465145D01*
X47180382Y6463004D01*
X47251811Y6320147D01*
X47259739Y6307552D01*
X47261254Y6303895D01*
X47264633Y6299778D01*
X47267476Y6295261D01*
X47270470Y6292664D01*
X47279908Y6281164D01*
X47351336Y6209735D01*
X47362841Y6200293D01*
X47365436Y6197301D01*
X47369946Y6194462D01*
X47374067Y6191080D01*
X47377726Y6189565D01*
X47390321Y6181636D01*
X47533179Y6110208D01*
X47560642Y6099698D01*
X47566017Y6099317D01*
X47570996Y6097254D01*
X47600260Y6094372D01*
X47743117Y6094372D01*
X47772381Y6097254D01*
X47777359Y6099317D01*
X47782735Y6099698D01*
X47810198Y6110208D01*
X47953057Y6181636D01*
X47965651Y6189565D01*
X47969311Y6191080D01*
X47973431Y6194462D01*
X47977942Y6197301D01*
X47980536Y6200293D01*
X47992042Y6209735D01*
X48063470Y6281164D01*
X48072908Y6292665D01*
X48075902Y6295261D01*
X48078742Y6299774D01*
X48082124Y6303894D01*
X48083639Y6307554D01*
X48091567Y6320147D01*
X48162996Y6463003D01*
X48163815Y6465146D01*
X48164460Y6466015D01*
X48168844Y6478287D01*
X48173505Y6490467D01*
X48173581Y6491548D01*
X48174353Y6493706D01*
X48245781Y6779420D01*
X48246530Y6784492D01*
X48247378Y6786536D01*
X48248463Y6797559D01*
X48250083Y6808509D01*
X48249757Y6810697D01*
X48250260Y6815800D01*
X48250260Y7172943D01*
X48249757Y7178047D01*
X48250083Y7180234D01*
X48248463Y7191185D01*
X48247378Y7202207D01*
X48246530Y7204252D01*
X48245781Y7209323D01*
X48174353Y7495038D01*
X48173581Y7497197D01*
X48173505Y7498277D01*
X48168844Y7510458D01*
X48164460Y7522729D01*
X48163815Y7523599D01*
X48162996Y7525741D01*
X48110477Y7630778D01*
X48524571Y7630778D01*
X48524571Y7572252D01*
X48546968Y7518180D01*
X48588354Y7476794D01*
X48642426Y7454397D01*
X48700952Y7454397D01*
X48755024Y7476794D01*
X48777755Y7495449D01*
X48824144Y7541839D01*
X48981746Y7594372D01*
X49075920Y7594372D01*
X49233518Y7541839D01*
X49334125Y7441232D01*
X49387304Y7334873D01*
X49450260Y7083052D01*
X49450260Y6905693D01*
X49387304Y6653872D01*
X49334125Y6547512D01*
X49233519Y6446906D01*
X49075917Y6394372D01*
X48981746Y6394372D01*
X48824143Y6446906D01*
X48777756Y6493294D01*
X48755025Y6511949D01*
X48700953Y6534347D01*
X48642427Y6534347D01*
X48588355Y6511950D01*
X48546969Y6470565D01*
X48524571Y6416493D01*
X48524571Y6357967D01*
X48546968Y6303895D01*
X48565622Y6281164D01*
X48637050Y6209735D01*
X48659781Y6191080D01*
X48664757Y6189019D01*
X48668832Y6185485D01*
X48695683Y6173497D01*
X48909969Y6102069D01*
X48924481Y6098770D01*
X48928139Y6097254D01*
X48933441Y6096732D01*
X48938643Y6095549D01*
X48942597Y6095831D01*
X48957403Y6094372D01*
X49100260Y6094372D01*
X49115065Y6095831D01*
X49119020Y6095549D01*
X49124221Y6096732D01*
X49129524Y6097254D01*
X49133181Y6098770D01*
X49147694Y6102069D01*
X49361980Y6173497D01*
X49388831Y6185485D01*
X49392902Y6189017D01*
X49397882Y6191079D01*
X49420612Y6209734D01*
X49563469Y6352592D01*
X49572907Y6364094D01*
X49575902Y6366690D01*
X49578742Y6371204D01*
X49582124Y6375323D01*
X49583639Y6378983D01*
X49591567Y6391576D01*
X49662996Y6534432D01*
X49663815Y6536575D01*
X49664460Y6537444D01*
X49668844Y6549716D01*
X49673505Y6561896D01*
X49673581Y6562977D01*
X49674353Y6565135D01*
X49745781Y6850849D01*
X49746530Y6855921D01*
X49747378Y6857965D01*
X49748463Y6868988D01*
X49750083Y6879938D01*
X49749757Y6882126D01*
X49750260Y6887229D01*
X49750260Y7101515D01*
X50021689Y7101515D01*
X50021689Y6887229D01*
X50022191Y6882126D01*
X50021866Y6879938D01*
X50023485Y6868988D01*
X50024571Y6857965D01*
X50025418Y6855921D01*
X50026168Y6850849D01*
X50097596Y6565135D01*
X50098367Y6562977D01*
X50098444Y6561896D01*
X50103102Y6549722D01*
X50107489Y6537444D01*
X50108133Y6536574D01*
X50108953Y6534433D01*
X50180382Y6391576D01*
X50188309Y6378983D01*
X50189825Y6375323D01*
X50193206Y6371204D01*
X50196047Y6366690D01*
X50199040Y6364094D01*
X50208480Y6352592D01*
X50351337Y6209734D01*
X50374067Y6191079D01*
X50379046Y6189017D01*
X50383118Y6185485D01*
X50409969Y6173497D01*
X50624255Y6102069D01*
X50638767Y6098770D01*
X50642425Y6097254D01*
X50647727Y6096732D01*
X50652929Y6095549D01*
X50656883Y6095831D01*
X50671689Y6094372D01*
X51028832Y6094372D01*
X51058096Y6097254D01*
X51112168Y6119652D01*
X51153552Y6161036D01*
X51175950Y6215108D01*
X51178832Y6244372D01*
X51178832Y6263133D01*
X51380009Y6263133D01*
X51384158Y6204752D01*
X51410332Y6152405D01*
X51454546Y6114058D01*
X51510070Y6095550D01*
X51568451Y6099699D01*
X51620798Y6125873D01*
X51659145Y6170087D01*
X51671133Y6196938D01*
X51779802Y6522943D01*
X52277861Y6522943D01*
X52386529Y6196938D01*
X52398517Y6170087D01*
X52436864Y6125872D01*
X52489212Y6099699D01*
X52547592Y6095549D01*
X52603116Y6114058D01*
X52647330Y6152405D01*
X52673504Y6204752D01*
X52677654Y6263132D01*
X52671134Y6291806D01*
X52186944Y7744372D01*
X52878832Y7744372D01*
X52878832Y6244372D01*
X52881714Y6215108D01*
X52904112Y6161036D01*
X52945496Y6119652D01*
X52999568Y6097254D01*
X53058096Y6097254D01*
X53112168Y6119652D01*
X53153552Y6161036D01*
X53175950Y6215108D01*
X53178832Y6244372D01*
X53178832Y7068239D01*
X53392905Y6609510D01*
X53399251Y6598797D01*
X53400572Y6595165D01*
X53402923Y6592597D01*
X53407892Y6584210D01*
X53424697Y6568820D01*
X53440099Y6552002D01*
X53446142Y6549182D01*
X53451055Y6544683D01*
X53472475Y6536894D01*
X53493137Y6527252D01*
X53499794Y6526960D01*
X53506057Y6524682D01*
X53528836Y6525683D01*
X53551607Y6524682D01*
X53557866Y6526959D01*
X53564528Y6527251D01*
X53585195Y6536896D01*
X53606610Y6544683D01*
X53611523Y6549183D01*
X53617565Y6552002D01*
X53632960Y6568815D01*
X53649773Y6584210D01*
X53654741Y6592599D01*
X53657092Y6595165D01*
X53658411Y6598795D01*
X53664759Y6609510D01*
X53878832Y7068238D01*
X53878832Y6244372D01*
X53881714Y6215108D01*
X53904112Y6161036D01*
X53945496Y6119652D01*
X53999568Y6097254D01*
X54058096Y6097254D01*
X54112168Y6119652D01*
X54153552Y6161036D01*
X54175950Y6215108D01*
X54178832Y6244372D01*
X54178832Y7744372D01*
X54176937Y7763610D01*
X54177093Y7767148D01*
X54176401Y7769049D01*
X54175950Y7773636D01*
X54453142Y7773636D01*
X54453142Y7715108D01*
X54475540Y7661036D01*
X54516924Y7619652D01*
X54570996Y7597254D01*
X54600260Y7594372D01*
X55164546Y7594372D01*
X55164546Y7180086D01*
X54814546Y7180086D01*
X54785282Y7177204D01*
X54731210Y7154806D01*
X54689826Y7113422D01*
X54667428Y7059350D01*
X54667428Y7000822D01*
X54689826Y6946750D01*
X54731210Y6905366D01*
X54785282Y6882968D01*
X54814546Y6880086D01*
X55164546Y6880086D01*
X55164546Y6244372D01*
X55167428Y6215108D01*
X55189826Y6161036D01*
X55231210Y6119652D01*
X55285282Y6097254D01*
X55343810Y6097254D01*
X55397882Y6119652D01*
X55439266Y6161036D01*
X55461664Y6215108D01*
X55464546Y6244372D01*
X55464546Y7744372D01*
X55461664Y7773636D01*
X55810285Y7773636D01*
X55810285Y7715108D01*
X55832683Y7661036D01*
X55874067Y7619652D01*
X55928139Y7597254D01*
X55957403Y7594372D01*
X56521689Y7594372D01*
X56521689Y7180086D01*
X56171689Y7180086D01*
X56142425Y7177204D01*
X56088353Y7154806D01*
X56046969Y7113422D01*
X56024571Y7059350D01*
X56024571Y7000822D01*
X56046969Y6946750D01*
X56088353Y6905366D01*
X56142425Y6882968D01*
X56171689Y6880086D01*
X56521689Y6880086D01*
X56521689Y6394372D01*
X55957403Y6394372D01*
X55928139Y6391490D01*
X55874067Y6369092D01*
X55832683Y6327708D01*
X55810285Y6273636D01*
X55810285Y6215108D01*
X55832683Y6161036D01*
X55874067Y6119652D01*
X55928139Y6097254D01*
X55957403Y6094372D01*
X56671689Y6094372D01*
X56700953Y6097254D01*
X56755025Y6119652D01*
X56796409Y6161036D01*
X56818807Y6215108D01*
X56821689Y6244372D01*
X56821689Y7744372D01*
X56818807Y7773636D01*
X56796409Y7827708D01*
X56755025Y7869092D01*
X56700953Y7891490D01*
X56671689Y7894372D01*
X55957403Y7894372D01*
X55928139Y7891490D01*
X55874067Y7869092D01*
X55832683Y7827708D01*
X55810285Y7773636D01*
X55461664Y7773636D01*
X55439266Y7827708D01*
X55397882Y7869092D01*
X55343810Y7891490D01*
X55314546Y7894372D01*
X54600260Y7894372D01*
X54570996Y7891490D01*
X54516924Y7869092D01*
X54475540Y7827708D01*
X54453142Y7773636D01*
X54175950Y7773636D01*
X54165989Y7797682D01*
X54157092Y7822150D01*
X54154832Y7824618D01*
X54153552Y7827708D01*
X54135154Y7846106D01*
X54117565Y7865313D01*
X54114531Y7866729D01*
X54112168Y7869092D01*
X54088137Y7879046D01*
X54064528Y7890064D01*
X54061183Y7890211D01*
X54058096Y7891490D01*
X54032072Y7891490D01*
X54006057Y7892633D01*
X54002914Y7891490D01*
X53999568Y7891490D01*
X53975515Y7881527D01*
X53951055Y7872632D01*
X53948587Y7870373D01*
X53945496Y7869092D01*
X53927087Y7850684D01*
X53907892Y7833105D01*
X53905542Y7829139D01*
X53904112Y7827708D01*
X53902756Y7824436D01*
X53892905Y7807805D01*
X53528832Y7027649D01*
X53164759Y7807805D01*
X53154905Y7824440D01*
X53153552Y7827708D01*
X53152123Y7829137D01*
X53149773Y7833105D01*
X53130565Y7850695D01*
X53112168Y7869092D01*
X53109077Y7870373D01*
X53106610Y7872632D01*
X53082144Y7881529D01*
X53058096Y7891490D01*
X53054750Y7891490D01*
X53051607Y7892633D01*
X53025603Y7891490D01*
X52999568Y7891490D01*
X52996477Y7890210D01*
X52993137Y7890063D01*
X52969541Y7879053D01*
X52945496Y7869092D01*
X52943132Y7866729D01*
X52940099Y7865313D01*
X52922509Y7846106D01*
X52904112Y7827708D01*
X52902831Y7824618D01*
X52900572Y7822150D01*
X52891675Y7797685D01*
X52881714Y7773636D01*
X52881262Y7769048D01*
X52880571Y7767147D01*
X52880726Y7763609D01*
X52878832Y7744372D01*
X52186944Y7744372D01*
X52171133Y7791806D01*
X52159145Y7818657D01*
X52152122Y7826754D01*
X52147330Y7836339D01*
X52133121Y7848663D01*
X52120798Y7862871D01*
X52111212Y7867664D01*
X52103116Y7874686D01*
X52085272Y7880635D01*
X52068451Y7889045D01*
X52057762Y7889805D01*
X52047592Y7893195D01*
X52028826Y7891862D01*
X52010070Y7893194D01*
X51999902Y7889805D01*
X51989212Y7889045D01*
X51972388Y7880634D01*
X51954546Y7874686D01*
X51946451Y7867666D01*
X51936864Y7862872D01*
X51924538Y7848661D01*
X51910332Y7836339D01*
X51905539Y7826755D01*
X51898517Y7818657D01*
X51886529Y7791806D01*
X51386529Y6291806D01*
X51380009Y6263133D01*
X51178832Y6263133D01*
X51178832Y7744372D01*
X51175950Y7773636D01*
X51153552Y7827708D01*
X51112168Y7869092D01*
X51058096Y7891490D01*
X51028832Y7894372D01*
X50671689Y7894372D01*
X50656877Y7892914D01*
X50652928Y7893194D01*
X50647733Y7892013D01*
X50642425Y7891490D01*
X50638763Y7889974D01*
X50624254Y7886674D01*
X50409969Y7815245D01*
X50383118Y7803257D01*
X50379048Y7799728D01*
X50374067Y7797664D01*
X50351337Y7779009D01*
X50208480Y7636152D01*
X50199040Y7624651D01*
X50196047Y7622054D01*
X50193206Y7617541D01*
X50189825Y7613421D01*
X50188309Y7609762D01*
X50180382Y7597168D01*
X50108953Y7454311D01*
X50108133Y7452171D01*
X50107489Y7451300D01*
X50103102Y7439023D01*
X50098444Y7426848D01*
X50098367Y7425768D01*
X50097596Y7423609D01*
X50026168Y7137895D01*
X50025418Y7132824D01*
X50024571Y7130779D01*
X50023485Y7119757D01*
X50021866Y7108806D01*
X50022191Y7106619D01*
X50021689Y7101515D01*
X49750260Y7101515D01*
X49749757Y7106619D01*
X49750083Y7108806D01*
X49748463Y7119757D01*
X49747378Y7130779D01*
X49746530Y7132824D01*
X49745781Y7137895D01*
X49674353Y7423609D01*
X49673581Y7425768D01*
X49673505Y7426848D01*
X49668844Y7439029D01*
X49664460Y7451300D01*
X49663815Y7452170D01*
X49662996Y7454312D01*
X49591567Y7597168D01*
X49583640Y7609760D01*
X49582124Y7613422D01*
X49578740Y7617545D01*
X49575902Y7622054D01*
X49572909Y7624650D01*
X49563469Y7636152D01*
X49420612Y7779009D01*
X49397881Y7797664D01*
X49392901Y7799727D01*
X49388831Y7803257D01*
X49361980Y7815246D01*
X49147694Y7886674D01*
X49133186Y7889973D01*
X49129524Y7891490D01*
X49124215Y7892013D01*
X49119021Y7893194D01*
X49115071Y7892914D01*
X49100260Y7894372D01*
X48957403Y7894372D01*
X48942591Y7892914D01*
X48938642Y7893194D01*
X48933447Y7892013D01*
X48928139Y7891490D01*
X48924477Y7889974D01*
X48909968Y7886674D01*
X48695683Y7815245D01*
X48668832Y7803257D01*
X48664761Y7799728D01*
X48659781Y7797664D01*
X48637051Y7779009D01*
X48565623Y7707581D01*
X48546968Y7684850D01*
X48524571Y7630778D01*
X48110477Y7630778D01*
X48091567Y7668597D01*
X48083640Y7681189D01*
X48082124Y7684851D01*
X48078740Y7688974D01*
X48075902Y7693483D01*
X48072909Y7696079D01*
X48063469Y7707581D01*
X47992041Y7779009D01*
X47980539Y7788449D01*
X47977943Y7791442D01*
X47973429Y7794283D01*
X47969310Y7797664D01*
X47965650Y7799180D01*
X47953057Y7807107D01*
X47810199Y7878536D01*
X47782736Y7889046D01*
X47777358Y7889429D01*
X47772381Y7891490D01*
X47743117Y7894372D01*
X47600260Y7894372D01*
X47570996Y7891490D01*
X47566015Y7889427D01*
X47560641Y7889045D01*
X47533177Y7878536D01*
X47390321Y7807107D01*
X47377729Y7799181D01*
X47374067Y7797664D01*
X47369944Y7794281D01*
X47365435Y7791442D01*
X47362839Y7788450D01*
X47351337Y7779009D01*
X47279909Y7707581D01*
X47270469Y7696080D01*
X47267476Y7693483D01*
X47264635Y7688970D01*
X47261254Y7684850D01*
X47259738Y7681191D01*
X47251811Y7668597D01*
X47180382Y7525740D01*
X47179562Y7523600D01*
X47178918Y7522729D01*
X47174531Y7510452D01*
X47169873Y7498277D01*
X47169796Y7497197D01*
X47169025Y7495038D01*
X47097596Y7209323D01*
X47096846Y7204252D01*
X47095999Y7202207D01*
X47094913Y7191185D01*
X47093294Y7180234D01*
X47093619Y7178047D01*
X47093117Y7172943D01*
X46708345Y7172943D01*
X46745972Y7185485D01*
X46790188Y7223832D01*
X46816362Y7276181D01*
X46820511Y7334561D01*
X46802003Y7390084D01*
X46763657Y7434299D01*
X46738771Y7449964D01*
X46617686Y7510507D01*
X46502545Y7625648D01*
X46367926Y7827577D01*
X46367857Y7827661D01*
X46367838Y7827708D01*
X46367731Y7827815D01*
X46349295Y7850327D01*
X46336955Y7858591D01*
X46326454Y7869092D01*
X46312876Y7874717D01*
X46300665Y7882894D01*
X46286102Y7885807D01*
X46272382Y7891490D01*
X46257686Y7891490D01*
X46243276Y7894372D01*
X46228707Y7891490D01*
X46213854Y7891490D01*
X46200275Y7885866D01*
X46185861Y7883014D01*
X46173503Y7874776D01*
X46159782Y7869092D01*
X46149390Y7858701D01*
X46137163Y7850549D01*
X46128899Y7838210D01*
X46118398Y7827708D01*
X46112773Y7814131D01*
X46104596Y7801919D01*
X46101683Y7787357D01*
X46096000Y7773636D01*
X46093148Y7744684D01*
X46093118Y7744530D01*
X46093128Y7744478D01*
X46093118Y7744372D01*
X46093118Y6394372D01*
X45814546Y6394372D01*
X45785282Y6391490D01*
X45731210Y6369092D01*
X45689826Y6327708D01*
X45667428Y6273636D01*
X45532410Y6273636D01*
X45528278Y6291806D01*
X45028277Y7791806D01*
X45016289Y7818657D01*
X45009266Y7826754D01*
X45004474Y7836339D01*
X44990265Y7848663D01*
X44977942Y7862871D01*
X44968356Y7867664D01*
X44960260Y7874686D01*
X44942416Y7880635D01*
X44925595Y7889045D01*
X44914906Y7889805D01*
X44904736Y7893195D01*
X44885970Y7891862D01*
X44867214Y7893194D01*
X44857046Y7889805D01*
X44846356Y7889045D01*
X44829532Y7880634D01*
X44811690Y7874686D01*
X44803595Y7867666D01*
X44794008Y7862872D01*
X44781682Y7848661D01*
X44767476Y7836339D01*
X44762683Y7826755D01*
X44755661Y7818657D01*
X44743673Y7791806D01*
X44243673Y6291806D01*
X44237153Y6263133D01*
X44070486Y6263133D01*
X44070486Y8061039D01*
X56988356Y8061039D01*
X56988356Y5927705D01*
G37*
D11*
%TA.AperFunction,EtchedComponent*%
%TO.C,JP1*%
G36*
X51325400Y37316600D02*
G01*
X50325400Y37316600D01*
X50325400Y37816600D01*
X51325400Y37816600D01*
X51325400Y37316600D01*
G37*
%TD.AperFunction*%
%TD*%
D12*
%TO.P,M5,1*%
%TO.N,GND*%
X60960000Y10160000D03*
%TD*%
%TO.P,M4,1*%
%TO.N,GND*%
X10160000Y10160000D03*
%TD*%
%TO.P,M2,1*%
%TO.N,GND*%
X10160000Y40640000D03*
%TD*%
D13*
%TO.P,J6,1*%
%TO.N,Net-(J6-Pad1)*%
X59944001Y34544000D03*
%TO.P,J6,2*%
X57403999Y34544000D03*
%TD*%
%TO.P,J5,1*%
%TO.N,Net-(J5-Pad1)*%
X59944001Y32004000D03*
%TO.P,J5,2*%
X57403999Y32004000D03*
%TD*%
D12*
%TO.P,M3,1*%
%TO.N,GND*%
X60960000Y40640000D03*
%TD*%
D13*
%TO.P,J7,1*%
%TO.N,Net-(J7-Pad1)*%
X59944001Y26924000D03*
%TO.P,J7,2*%
X57403999Y26924000D03*
%TD*%
%TO.P,J1,1*%
%TO.N,GND*%
X57404000Y22606000D03*
%TO.P,J1,2*%
X59944000Y22606000D03*
%TO.P,J1,3*%
%TO.N,VCC*%
X57404000Y20066000D03*
%TO.P,J1,4*%
X59944000Y20066000D03*
%TO.P,J1,5*%
%TO.N,GND*%
X57404000Y17526000D03*
%TO.P,J1,6*%
X59944000Y17526000D03*
%TD*%
%TO.P,J4,1*%
%TO.N,Net-(J4-Pad1)*%
X59944001Y29464000D03*
%TO.P,J4,2*%
X57403999Y29464000D03*
%TD*%
D14*
%TO.P,J9,1,In*%
%TO.N,Net-(J9-In)*%
X11150600Y25400000D03*
D15*
%TO.P,J9,2,Ext*%
%TO.N,GND*%
X8610600Y27940000D03*
X8610600Y22860000D03*
X13690600Y27940000D03*
X13690600Y22860000D03*
%TD*%
D13*
%TO.P,J2,1*%
%TO.N,Net-(U4-V_{REF})*%
X41148000Y31750000D03*
%TO.P,J2,2*%
%TO.N,Net-(U3-Vout)*%
X41148000Y34290000D03*
%TD*%
D16*
%TO.P,R6,1*%
%TO.N,Net-(U4-SDI)*%
X53697500Y34544000D03*
%TO.P,R6,2*%
%TO.N,Net-(J6-Pad1)*%
X55522500Y34544000D03*
%TD*%
%TO.P,R7,1*%
%TO.N,Net-(U4-CONV)*%
X53570500Y24892000D03*
%TO.P,R7,2*%
%TO.N,Net-(J7-Pad1)*%
X55395500Y24892000D03*
%TD*%
D17*
%TO.P,U3,1,Vin*%
%TO.N,VCC*%
X45880875Y34490912D03*
%TO.P,U3,2,Vout*%
%TO.N,Net-(U3-Vout)*%
X43980875Y34490912D03*
%TO.P,U3,3,GND*%
%TO.N,GNDA*%
X44930875Y36365912D03*
%TD*%
D18*
%TO.P,C5,1*%
%TO.N,GNDA*%
X30099000Y25207000D03*
%TO.P,C5,2*%
%TO.N,VCC*%
X30099000Y23307000D03*
%TD*%
D19*
%TO.P,M1,1,Shield*%
%TO.N,GND*%
X51460000Y9500000D03*
D20*
X51460000Y11150000D03*
D21*
X51460000Y16400000D03*
X51460000Y22400000D03*
X51460000Y28400000D03*
X51460000Y34400000D03*
D20*
X51460000Y39650000D03*
D19*
X51460000Y41300000D03*
D22*
X49810000Y9500000D03*
X49810000Y41300000D03*
D23*
X44560000Y9500000D03*
X44560000Y41300000D03*
X38560000Y9500000D03*
X38560000Y41300000D03*
X32560000Y9500000D03*
X32560000Y41300000D03*
X26560000Y9500000D03*
X26560000Y41300000D03*
D22*
X21310000Y9500000D03*
X21310000Y41300000D03*
D19*
X19660000Y9500000D03*
D20*
X19660000Y11150000D03*
D21*
X19660000Y16400000D03*
X19660000Y22400000D03*
X19660000Y28400000D03*
X19660000Y34400000D03*
D20*
X19660000Y39650000D03*
D19*
X19660000Y41300000D03*
%TD*%
D24*
%TO.P,C7,1*%
%TO.N,VCC*%
X33970000Y32004000D03*
%TO.P,C7,2*%
%TO.N,GNDA*%
X32070000Y32004000D03*
%TD*%
D25*
%TO.P,FID2,*%
%TO.N,*%
X7874000Y16764000D03*
%TD*%
D16*
%TO.P,R4,1*%
%TO.N,Net-(U4-SCK)*%
X53697500Y29464000D03*
%TO.P,R4,2*%
%TO.N,Net-(J4-Pad1)*%
X55522500Y29464000D03*
%TD*%
D26*
%TO.P,C12,1*%
%TO.N,VCC*%
X47752000Y34483000D03*
%TO.P,C12,2*%
%TO.N,GNDA*%
X47752000Y36383000D03*
%TD*%
D27*
%TO.P,C2,1*%
%TO.N,Net-(J9-In)*%
X13782000Y25400000D03*
%TO.P,C2,2*%
%TO.N,Net-(D1-A1)*%
X15682000Y25400000D03*
%TD*%
D26*
%TO.P,C6,1*%
%TO.N,VCC*%
X54991000Y20767000D03*
%TO.P,C6,2*%
%TO.N,GND*%
X54991000Y22667000D03*
%TD*%
D18*
%TO.P,C10,1*%
%TO.N,VCC*%
X46355000Y27747000D03*
%TO.P,C10,2*%
%TO.N,GND*%
X46355000Y25847000D03*
%TD*%
D25*
%TO.P,FID1,*%
%TO.N,*%
X54864000Y42672000D03*
%TD*%
D16*
%TO.P,R3,1*%
%TO.N,Net-(U2--)*%
X26163900Y29286200D03*
%TO.P,R3,2*%
%TO.N,Net-(U4-CH0)*%
X27988900Y29286200D03*
%TD*%
D18*
%TO.P,C3,1*%
%TO.N,GNDA*%
X29845000Y32573000D03*
%TO.P,C3,2*%
%TO.N,/REF*%
X29845000Y30673000D03*
%TD*%
D28*
%TO.P,D2,1,K*%
%TO.N,VCC*%
X62839600Y19992400D03*
%TO.P,D2,2,A*%
%TO.N,GND*%
X62839600Y23492400D03*
%TD*%
D29*
%TO.P,R1,1*%
%TO.N,/REF*%
X22733000Y27074500D03*
%TO.P,R1,2*%
%TO.N,Net-(D1-A1)*%
X22733000Y25249500D03*
%TD*%
D16*
%TO.P,R5,1*%
%TO.N,Net-(U4-SDO)*%
X53697500Y31877000D03*
%TO.P,R5,2*%
%TO.N,Net-(J5-Pad1)*%
X55522500Y31877000D03*
%TD*%
D30*
%TO.P,U4,1,CONV*%
%TO.N,Net-(U4-CONV)*%
X39162500Y27448000D03*
%TO.P,U4,2,CH0*%
%TO.N,Net-(U4-CH0)*%
X39162500Y27948000D03*
%TO.P,U4,3,CH1*%
%TO.N,/REF*%
X39162500Y28448000D03*
%TO.P,U4,4,AGND*%
%TO.N,GNDA*%
X39162500Y28948000D03*
%TO.P,U4,5,DGND*%
%TO.N,GND*%
X39162500Y29448000D03*
%TO.P,U4,6,SDI*%
%TO.N,Net-(U4-SDI)*%
X43387500Y29448000D03*
%TO.P,U4,7,SDO*%
%TO.N,Net-(U4-SDO)*%
X43387500Y28948000D03*
%TO.P,U4,8,SCK*%
%TO.N,Net-(U4-SCK)*%
X43387500Y28448000D03*
%TO.P,U4,9,V_{CC}*%
%TO.N,VCC*%
X43387500Y27948000D03*
%TO.P,U4,10,V_{REF}*%
%TO.N,Net-(U4-V_{REF})*%
X43387500Y27448000D03*
%TD*%
D31*
%TO.P,D1,1,A1*%
%TO.N,Net-(D1-A1)*%
X22860000Y20565000D03*
%TO.P,D1,2,A2*%
%TO.N,GNDA*%
X22860000Y16265000D03*
%TD*%
D29*
%TO.P,R2,1*%
%TO.N,/REF*%
X26136600Y32941900D03*
%TO.P,R2,2*%
%TO.N,Net-(U2--)*%
X26136600Y31116900D03*
%TD*%
D32*
%TO.P,U2,1*%
%TO.N,Net-(U4-CH0)*%
X24668900Y23307000D03*
%TO.P,U2,2,V-*%
%TO.N,GNDA*%
X24668900Y24257000D03*
%TO.P,U2,3,+*%
%TO.N,Net-(D1-A1)*%
X24668900Y25207000D03*
%TO.P,U2,4,-*%
%TO.N,Net-(U2--)*%
X26943900Y25207000D03*
%TO.P,U2,5,V+*%
%TO.N,VCC*%
X26943900Y23307000D03*
%TD*%
D26*
%TO.P,C1,1*%
%TO.N,/REF*%
X36449000Y28006000D03*
%TO.P,C1,2*%
%TO.N,GNDA*%
X36449000Y29906000D03*
%TD*%
D18*
%TO.P,C8,1*%
%TO.N,VCC*%
X54991000Y19238000D03*
%TO.P,C8,2*%
%TO.N,GND*%
X54991000Y17338000D03*
%TD*%
D27*
%TO.P,C4,1*%
%TO.N,Net-(U2--)*%
X26126400Y27203400D03*
%TO.P,C4,2*%
%TO.N,Net-(U4-CH0)*%
X28026400Y27203400D03*
%TD*%
D33*
%TO.P,U1,1,Vin*%
%TO.N,VCC*%
X33957500Y30160000D03*
%TO.P,U1,2,Vout*%
%TO.N,/REF*%
X33957500Y28260000D03*
%TO.P,U1,3,GND*%
%TO.N,GNDA*%
X32082500Y29210000D03*
%TD*%
D18*
%TO.P,C9,1*%
%TO.N,VCC*%
X48387000Y27747000D03*
%TO.P,C9,2*%
%TO.N,GND*%
X48387000Y25847000D03*
%TD*%
D24*
%TO.P,C11,1*%
%TO.N,Net-(U4-V_{REF})*%
X43393400Y25552400D03*
%TO.P,C11,2*%
%TO.N,GNDA*%
X41493400Y25552400D03*
%TD*%
D34*
%TO.P,JP1,1,1*%
%TO.N,GNDA*%
X50325400Y37566600D03*
%TO.P,JP1,2,2*%
%TO.N,GND*%
X51325400Y37566600D03*
%TD*%
D35*
%TO.N,GND*%
X53644800Y10236200D03*
X26390600Y43815000D03*
X32893000Y43916600D03*
X53568600Y14732000D03*
X16484600Y13208000D03*
X40792400Y6731000D03*
X16205200Y31902400D03*
X62890400Y25425400D03*
X52908200Y22428200D03*
X44704000Y44043600D03*
X54483000Y28016200D03*
X39116000Y30099000D03*
X25908000Y7239000D03*
X46355000Y25908000D03*
X38938200Y44043600D03*
X48387000Y25847000D03*
X33045400Y6807200D03*
X16687800Y38379400D03*
X16916400Y43611800D03*
X16586200Y18237200D03*
X49860200Y44018200D03*
X54610000Y33197800D03*
%TD*%
D36*
%TO.N,GNDA*%
X30414000Y32004000D02*
X29845000Y32573000D01*
X32070000Y32004000D02*
X30414000Y32004000D01*
X32082500Y31991500D02*
X32070000Y32004000D01*
X32082500Y29210000D02*
X32082500Y31991500D01*
%TO.N,Net-(D1-A1)*%
X24668900Y25207000D02*
X22775500Y25207000D01*
X22733000Y20692000D02*
X22860000Y20565000D01*
X22582500Y25400000D02*
X22733000Y25249500D01*
X15682000Y25400000D02*
X22582500Y25400000D01*
X22733000Y25249500D02*
X22733000Y20692000D01*
X22775500Y25207000D02*
X22733000Y25249500D01*
D37*
%TO.N,/REF*%
X37531000Y28006000D02*
X36449000Y28006000D01*
D36*
X29550400Y30673000D02*
X27281500Y32941900D01*
D37*
X37973000Y28448000D02*
X37531000Y28006000D01*
D36*
X29845000Y30673000D02*
X29550400Y30673000D01*
D37*
X39162500Y28448000D02*
X37973000Y28448000D01*
D36*
X22733000Y30632400D02*
X25042500Y32941900D01*
X31176000Y28260000D02*
X33957500Y28260000D01*
X29845000Y29591000D02*
X29845000Y30673000D01*
X22733000Y27074500D02*
X22733000Y30632400D01*
X25042500Y32941900D02*
X26136600Y32941900D01*
X27281500Y32941900D02*
X26136600Y32941900D01*
X31176000Y28260000D02*
X29845000Y29591000D01*
X34211500Y28006000D02*
X36449000Y28006000D01*
X33957500Y28260000D02*
X34211500Y28006000D01*
%TO.N,Net-(J9-In)*%
X11150600Y25400000D02*
X13782000Y25400000D01*
%TO.N,Net-(U2--)*%
X26163900Y29286200D02*
X26163900Y27240900D01*
X26943900Y25207000D02*
X26943900Y26385900D01*
X26163900Y27240900D02*
X26126400Y27203400D01*
X26136600Y31116900D02*
X26136600Y29313500D01*
X26943900Y26385900D02*
X26126400Y27203400D01*
X26136600Y29313500D02*
X26163900Y29286200D01*
%TO.N,Net-(J4-Pad1)*%
X57403999Y29464000D02*
X59944001Y29464000D01*
X57403999Y29464000D02*
X55522500Y29464000D01*
%TO.N,Net-(U4-CH0)*%
X27988900Y29311600D02*
X27988900Y29286200D01*
X34671000Y24257000D02*
X37592000Y27178000D01*
D38*
X37592000Y27240432D02*
X37592000Y27178000D01*
D36*
X28026400Y27203400D02*
X28168600Y27061200D01*
D37*
X37592000Y27275788D02*
X37592000Y27178000D01*
D36*
X28026400Y27203400D02*
X28026400Y29248700D01*
X25464072Y23307000D02*
X26439072Y24282000D01*
X28168600Y24282000D02*
X34696000Y24282000D01*
X24668900Y23307000D02*
X25464072Y23307000D01*
X28168600Y27061200D02*
X28168600Y24282000D01*
X26439072Y24282000D02*
X28168600Y24282000D01*
D37*
X39162500Y27948001D02*
X38264213Y27948001D01*
D36*
X28026400Y29248700D02*
X27988900Y29286200D01*
D37*
X38264213Y27948001D02*
X37592000Y27275788D01*
D36*
X27747000Y29553500D02*
X27988900Y29311600D01*
D37*
%TO.N,VCC*%
X43387500Y27948001D02*
X42489212Y27948000D01*
D36*
X54061522Y26075000D02*
X54508000Y25628522D01*
X42672000Y30480000D02*
X42164000Y29972000D01*
X56576000Y19238000D02*
X57404000Y20066000D01*
X32451000Y19238000D02*
X30099000Y21590000D01*
X44792000Y32981000D02*
X45880875Y34069875D01*
X42672000Y32981000D02*
X44792000Y32981000D01*
D37*
X43387500Y27948001D02*
X44772199Y27948001D01*
D36*
X45880875Y34069875D02*
X45880875Y34490912D01*
X54991000Y19238000D02*
X32451000Y19238000D01*
X33970000Y32004000D02*
X34947000Y32981000D01*
X54991000Y19238000D02*
X56576000Y19238000D01*
X45880875Y34490912D02*
X47744088Y34490912D01*
X46355000Y27747000D02*
X48387000Y27747000D01*
D37*
X44973200Y27747000D02*
X46355000Y27747000D01*
D36*
X57404000Y20066000D02*
X59944000Y20066000D01*
D37*
X42164000Y28273212D02*
X42164000Y29972000D01*
D38*
X60017600Y19992400D02*
X59944000Y20066000D01*
D39*
X54508000Y25628522D02*
X54508000Y24155478D01*
D36*
X53841000Y21917000D02*
X53841000Y23488478D01*
X54889400Y19339600D02*
X54991000Y19238000D01*
X47744088Y34490912D02*
X47752000Y34483000D01*
X50353600Y26075000D02*
X54061522Y26075000D01*
X48681600Y27747000D02*
X50353600Y26075000D01*
X34947000Y32981000D02*
X42672000Y32981000D01*
D37*
X44772199Y27948001D02*
X44973200Y27747000D01*
D36*
X42672000Y32981000D02*
X42672000Y30480000D01*
X53841000Y23488478D02*
X54508000Y24155478D01*
X54991000Y20767000D02*
X53841000Y21917000D01*
X62766000Y20066000D02*
X62839600Y19992400D01*
X59944000Y20066000D02*
X62766000Y20066000D01*
X54991000Y20767000D02*
X54991000Y19238000D01*
X48387000Y27747000D02*
X48681600Y27747000D01*
X33957500Y30160000D02*
X33957500Y31991500D01*
X26943900Y23307000D02*
X30099000Y23307000D01*
X33957500Y31991500D02*
X33970000Y32004000D01*
X30099000Y21590000D02*
X30099000Y23307000D01*
D37*
X42489212Y27948000D02*
X42164000Y28273212D01*
D36*
%TO.N,Net-(U4-V_{REF})*%
X43383200Y25669200D02*
X43393400Y25659000D01*
X41948100Y27647900D02*
X41402000Y28194000D01*
X43393400Y25659000D02*
X43393400Y25552400D01*
D37*
X43287501Y27448000D02*
X43387500Y27348001D01*
X41948100Y27647900D02*
X42148000Y27448000D01*
D36*
X41402000Y28194000D02*
X41402000Y31496000D01*
D37*
X42148000Y27448000D02*
X43287501Y27448000D01*
X43383200Y27343701D02*
X43383200Y25669200D01*
D36*
X41402000Y31496000D02*
X41148000Y31750000D01*
%TO.N,Net-(U3-Vout)*%
X41148000Y34290000D02*
X42203000Y34290000D01*
X42203000Y34290000D02*
X42403912Y34490912D01*
X42403912Y34490912D02*
X43980875Y34490912D01*
%TO.N,Net-(U4-SCK)*%
X49932238Y30725000D02*
X48021119Y28813881D01*
X45755681Y28813881D02*
X45491400Y28549600D01*
X48021119Y28813881D02*
X45755681Y28813881D01*
D37*
X45341950Y28400150D02*
X45491400Y28549600D01*
X44523250Y28400150D02*
X45341950Y28400150D01*
D36*
X53697500Y29464000D02*
X52436500Y30725000D01*
D37*
X44475400Y28448000D02*
X44523250Y28400150D01*
X43387500Y28448000D02*
X44475400Y28448000D01*
D36*
X52436500Y30725000D02*
X49932238Y30725000D01*
%TO.N,Net-(U4-SDO)*%
X48133000Y29845000D02*
X45593000Y29845000D01*
X45593000Y29845000D02*
X44704000Y28956000D01*
D37*
X43387500Y28947999D02*
X44695999Y28947999D01*
D36*
X50165000Y31877000D02*
X48133000Y29845000D01*
D38*
X44695999Y28947999D02*
X44704000Y28956000D01*
D36*
X53697500Y31877000D02*
X50165000Y31877000D01*
D37*
%TO.N,Net-(U4-SDI)*%
X44602400Y29870400D02*
X44180000Y29448000D01*
D36*
X47879000Y30861000D02*
X49657000Y32639000D01*
X53697500Y35412500D02*
X53697500Y34544000D01*
X52385000Y36725000D02*
X53697500Y35412500D01*
X45593000Y30861000D02*
X47879000Y30861000D01*
D37*
X44180000Y29448000D02*
X43387500Y29448000D01*
D36*
X44602400Y29870400D02*
X45593000Y30861000D01*
X49657000Y32639000D02*
X49657000Y35941000D01*
X49657000Y35941000D02*
X50441000Y36725000D01*
X50441000Y36725000D02*
X52385000Y36725000D01*
%TO.N,Net-(U4-CONV)*%
X41148000Y22606000D02*
X48209200Y22606000D01*
X50495200Y24892000D02*
X53570500Y24892000D01*
X39162500Y26843500D02*
X39162500Y24591500D01*
D38*
X39162500Y26843500D02*
X39162500Y27448000D01*
D36*
X48209200Y22606000D02*
X50495200Y24892000D01*
X39162500Y24591500D02*
X41148000Y22606000D01*
%TO.N,Net-(J5-Pad1)*%
X57403999Y32004000D02*
X55649500Y32004000D01*
X59944001Y32004000D02*
X57403999Y32004000D01*
X55649500Y32004000D02*
X55522500Y31877000D01*
%TO.N,GND*%
X46355000Y25847000D02*
X46355000Y25908000D01*
X53213000Y39674800D02*
X53188200Y39650000D01*
D38*
X39162500Y30052500D02*
X39116000Y30099000D01*
X39162500Y29448000D02*
X39162500Y30052500D01*
D36*
X53009800Y37566600D02*
X53670200Y38227000D01*
X52880000Y22400000D02*
X52908200Y22428200D01*
X53670200Y38227000D02*
X53670200Y39217600D01*
X51325400Y37566600D02*
X53009800Y37566600D01*
X53188200Y39650000D02*
X51460000Y39650000D01*
X53670200Y39217600D02*
X53213000Y39674800D01*
X51460000Y22400000D02*
X52880000Y22400000D01*
%TO.N,Net-(J6-Pad1)*%
X57403999Y34544000D02*
X55522500Y34544000D01*
X57403999Y34544000D02*
X59944001Y34544000D01*
%TO.N,Net-(J7-Pad1)*%
X55395500Y24915501D02*
X57403999Y26924000D01*
X55395500Y24892000D02*
X55395500Y24915501D01*
X57403999Y26924000D02*
X59944001Y26924000D01*
%TD*%
%TA.AperFunction,Conductor*%
%TO.N,GND*%
G36*
X59529792Y17697571D02*
G01*
X59499500Y17584520D01*
X59499500Y17467480D01*
X59529792Y17354429D01*
X59575073Y17276000D01*
X57772927Y17276000D01*
X57818208Y17354429D01*
X57848500Y17467480D01*
X57848500Y17584520D01*
X57818208Y17697571D01*
X57772927Y17776000D01*
X59575073Y17776000D01*
X59529792Y17697571D01*
G37*
%TD.AperFunction*%
%TA.AperFunction,Conductor*%
G36*
X52804237Y24446815D02*
G01*
X52849992Y24394011D01*
X52857877Y24364481D01*
X52858744Y24364670D01*
X52860353Y24357299D01*
X52897961Y24249825D01*
X52905207Y24229118D01*
X52985850Y24119850D01*
X53095118Y24039207D01*
X53137845Y24024256D01*
X53223299Y23994354D01*
X53253730Y23991500D01*
X53253734Y23991500D01*
X53442912Y23991500D01*
X53509951Y23971815D01*
X53555706Y23919011D01*
X53565650Y23849853D01*
X53536625Y23786297D01*
X53530593Y23779819D01*
X53500517Y23749744D01*
X53500513Y23749738D01*
X53444498Y23652718D01*
X53444497Y23652715D01*
X53415500Y23544496D01*
X53415500Y21973018D01*
X53415500Y21860982D01*
X53432866Y21796173D01*
X53444497Y21752764D01*
X53444498Y21752761D01*
X53453814Y21736626D01*
X53500515Y21655737D01*
X53500517Y21655735D01*
X54029181Y21127071D01*
X54062666Y21065748D01*
X54065500Y21039390D01*
X54065500Y20462731D01*
X54068353Y20432301D01*
X54068353Y20432299D01*
X54113206Y20304120D01*
X54113207Y20304118D01*
X54193850Y20194850D01*
X54303118Y20114207D01*
X54303122Y20114206D01*
X54307046Y20112132D01*
X54310549Y20108723D01*
X54310595Y20108689D01*
X54310590Y20108683D01*
X54357120Y20063404D01*
X54372900Y19995340D01*
X54349377Y19929549D01*
X54307046Y19892868D01*
X54303114Y19890791D01*
X54193848Y19810149D01*
X54122790Y19713867D01*
X54067143Y19671616D01*
X54023020Y19663500D01*
X51129500Y19663500D01*
X51120814Y19666051D01*
X51111853Y19664762D01*
X51087812Y19675741D01*
X51062461Y19683185D01*
X51056533Y19690026D01*
X51048297Y19693787D01*
X51034007Y19716022D01*
X51016706Y19735989D01*
X51014418Y19746504D01*
X51010523Y19752565D01*
X51005500Y19787500D01*
X51005500Y19876000D01*
X51025185Y19943039D01*
X51077989Y19988794D01*
X51129500Y20000000D01*
X51210000Y20000000D01*
X51710000Y20000000D01*
X52007828Y20000000D01*
X52007844Y20000001D01*
X52067372Y20006402D01*
X52067379Y20006404D01*
X52202086Y20056646D01*
X52202093Y20056650D01*
X52317187Y20142810D01*
X52317190Y20142813D01*
X52403350Y20257907D01*
X52403354Y20257914D01*
X52453596Y20392621D01*
X52453598Y20392628D01*
X52459999Y20452156D01*
X52460000Y20452173D01*
X52460000Y22150000D01*
X51710000Y22150000D01*
X51710000Y20000000D01*
X51210000Y20000000D01*
X51210000Y22276000D01*
X51229685Y22343039D01*
X51282489Y22388794D01*
X51334000Y22400000D01*
X51460000Y22400000D01*
X51460000Y22526000D01*
X51479685Y22593039D01*
X51532489Y22638794D01*
X51584000Y22650000D01*
X52460000Y22650000D01*
X52460000Y24342500D01*
X52462550Y24351186D01*
X52461262Y24360147D01*
X52472240Y24384188D01*
X52479685Y24409539D01*
X52486525Y24415467D01*
X52490287Y24423703D01*
X52512521Y24437993D01*
X52532489Y24455294D01*
X52543003Y24457582D01*
X52549065Y24461477D01*
X52584000Y24466500D01*
X52737198Y24466500D01*
X52804237Y24446815D01*
G37*
%TD.AperFunction*%
%TA.AperFunction,Conductor*%
G36*
X59529792Y22777571D02*
G01*
X59499500Y22664520D01*
X59499500Y22547480D01*
X59529792Y22434429D01*
X59575073Y22356000D01*
X57772927Y22356000D01*
X57818208Y22434429D01*
X57848500Y22547480D01*
X57848500Y22664520D01*
X57818208Y22777571D01*
X57772927Y22856000D01*
X59575073Y22856000D01*
X59529792Y22777571D01*
G37*
%TD.AperFunction*%
%TA.AperFunction,Conductor*%
G36*
X47121021Y26077315D02*
G01*
X47139854Y26062454D01*
X47171490Y26032083D01*
X47190651Y26015819D01*
X47274225Y25978676D01*
X47342786Y25965219D01*
X47367705Y25961895D01*
X47458093Y25975832D01*
X47523046Y26001579D01*
X47545804Y26012255D01*
X47577216Y26040039D01*
X47606433Y26065881D01*
X47669690Y26095552D01*
X47688586Y26097000D01*
X48263000Y26097000D01*
X48330039Y26077315D01*
X48375794Y26024511D01*
X48387000Y25973000D01*
X48387000Y25721000D01*
X48367315Y25653961D01*
X48314511Y25608206D01*
X48263000Y25597000D01*
X47688020Y25597000D01*
X47620981Y25616685D01*
X47602145Y25631549D01*
X47570523Y25661907D01*
X47570507Y25661921D01*
X47569825Y25662500D01*
X47551346Y25678186D01*
X47551341Y25678188D01*
X47551340Y25678189D01*
X47467771Y25715327D01*
X47427054Y25723319D01*
X47427049Y25723319D01*
X47399209Y25728783D01*
X47374294Y25732106D01*
X47313104Y25722672D01*
X47313092Y25722671D01*
X47283907Y25718170D01*
X47218953Y25692422D01*
X47196188Y25681743D01*
X47135568Y25628121D01*
X47072312Y25598449D01*
X47053413Y25597000D01*
X46479000Y25597000D01*
X46411961Y25616685D01*
X46366206Y25669489D01*
X46355000Y25721000D01*
X46355000Y25973000D01*
X46374685Y26040039D01*
X46427489Y26085794D01*
X46479000Y26097000D01*
X47053982Y26097000D01*
X47121021Y26077315D01*
G37*
%TD.AperFunction*%
%TA.AperFunction,Conductor*%
G36*
X39183769Y30489775D02*
G01*
X39223218Y30479205D01*
X39252696Y30471307D01*
X39282600Y30458921D01*
X39338756Y30426500D01*
X39344398Y30423243D01*
X39370080Y30403536D01*
X39420535Y30353081D01*
X39440238Y30327404D01*
X39450865Y30308997D01*
X39467336Y30241099D01*
X39444484Y30175072D01*
X39389562Y30131882D01*
X39343477Y30123000D01*
X39337500Y30123000D01*
X39337500Y29572000D01*
X39334949Y29563315D01*
X39336238Y29554353D01*
X39325259Y29530313D01*
X39317815Y29504961D01*
X39310974Y29499034D01*
X39307213Y29490797D01*
X39284978Y29476508D01*
X39265011Y29459206D01*
X39254496Y29456919D01*
X39248435Y29453023D01*
X39213500Y29448000D01*
X39111500Y29448000D01*
X39044461Y29467685D01*
X38998706Y29520489D01*
X38987500Y29572000D01*
X38987500Y30123000D01*
X38888522Y30123000D01*
X38882699Y30124710D01*
X38876740Y30123561D01*
X38849561Y30134441D01*
X38821483Y30142685D01*
X38817510Y30147270D01*
X38811874Y30149526D01*
X38794891Y30173374D01*
X38775728Y30195489D01*
X38774864Y30201496D01*
X38771344Y30206439D01*
X38769949Y30235675D01*
X38765784Y30264647D01*
X38768231Y30271719D01*
X38768016Y30276229D01*
X38781132Y30308996D01*
X38783456Y30313021D01*
X38791760Y30327405D01*
X38811463Y30353081D01*
X38861920Y30403539D01*
X38887594Y30423240D01*
X38949400Y30458923D01*
X38979300Y30471307D01*
X39004843Y30478150D01*
X39048232Y30489775D01*
X39080323Y30494000D01*
X39151677Y30494000D01*
X39183769Y30489775D01*
G37*
%TD.AperFunction*%
%TA.AperFunction,Conductor*%
G36*
X65728539Y45445815D02*
G01*
X65774294Y45393011D01*
X65785500Y45341500D01*
X65785500Y5458500D01*
X65765815Y5391461D01*
X65713011Y5345706D01*
X65661500Y5334500D01*
X5458500Y5334500D01*
X5391461Y5354185D01*
X5345706Y5406989D01*
X5334500Y5458500D01*
X5334500Y6087647D01*
X44229250Y6087647D01*
X56826689Y6087647D01*
X56826689Y7902216D01*
X44229250Y7902216D01*
X44229250Y6087647D01*
X5334500Y6087647D01*
X5334500Y8952156D01*
X18660000Y8952156D01*
X18666401Y8892628D01*
X18666403Y8892621D01*
X18716645Y8757914D01*
X18716649Y8757907D01*
X18802809Y8642813D01*
X18802812Y8642810D01*
X18917906Y8556650D01*
X18917913Y8556646D01*
X19052620Y8506404D01*
X19052627Y8506402D01*
X19112155Y8500001D01*
X19112172Y8500000D01*
X19410000Y8500000D01*
X19910000Y8500000D01*
X21060000Y8500000D01*
X21560000Y8500000D01*
X22507828Y8500000D01*
X22507844Y8500001D01*
X22567372Y8506402D01*
X22567379Y8506404D01*
X22702086Y8556646D01*
X22702093Y8556650D01*
X22817187Y8642810D01*
X22817190Y8642813D01*
X22903350Y8757907D01*
X22903354Y8757914D01*
X22953596Y8892621D01*
X22953598Y8892628D01*
X22959999Y8952156D01*
X24160000Y8952156D01*
X24166401Y8892628D01*
X24166403Y8892621D01*
X24216645Y8757914D01*
X24216649Y8757907D01*
X24302809Y8642813D01*
X24302812Y8642810D01*
X24417906Y8556650D01*
X24417913Y8556646D01*
X24552620Y8506404D01*
X24552627Y8506402D01*
X24612155Y8500001D01*
X24612172Y8500000D01*
X26310000Y8500000D01*
X26810000Y8500000D01*
X28507828Y8500000D01*
X28507844Y8500001D01*
X28567372Y8506402D01*
X28567379Y8506404D01*
X28702086Y8556646D01*
X28702093Y8556650D01*
X28817187Y8642810D01*
X28817190Y8642813D01*
X28903350Y8757907D01*
X28903354Y8757914D01*
X28953596Y8892621D01*
X28953598Y8892628D01*
X28959999Y8952156D01*
X30160000Y8952156D01*
X30166401Y8892628D01*
X30166403Y8892621D01*
X30216645Y8757914D01*
X30216649Y8757907D01*
X30302809Y8642813D01*
X30302812Y8642810D01*
X30417906Y8556650D01*
X30417913Y8556646D01*
X30552620Y8506404D01*
X30552627Y8506402D01*
X30612155Y8500001D01*
X30612172Y8500000D01*
X32310000Y8500000D01*
X32810000Y8500000D01*
X34507828Y8500000D01*
X34507844Y8500001D01*
X34567372Y8506402D01*
X34567379Y8506404D01*
X34702086Y8556646D01*
X34702093Y8556650D01*
X34817187Y8642810D01*
X34817190Y8642813D01*
X34903350Y8757907D01*
X34903354Y8757914D01*
X34953596Y8892621D01*
X34953598Y8892628D01*
X34959999Y8952156D01*
X36160000Y8952156D01*
X36166401Y8892628D01*
X36166403Y8892621D01*
X36216645Y8757914D01*
X36216649Y8757907D01*
X36302809Y8642813D01*
X36302812Y8642810D01*
X36417906Y8556650D01*
X36417913Y8556646D01*
X36552620Y8506404D01*
X36552627Y8506402D01*
X36612155Y8500001D01*
X36612172Y8500000D01*
X38310000Y8500000D01*
X38810000Y8500000D01*
X40507828Y8500000D01*
X40507844Y8500001D01*
X40567372Y8506402D01*
X40567379Y8506404D01*
X40702086Y8556646D01*
X40702093Y8556650D01*
X40817187Y8642810D01*
X40817190Y8642813D01*
X40903350Y8757907D01*
X40903354Y8757914D01*
X40953596Y8892621D01*
X40953598Y8892628D01*
X40959999Y8952156D01*
X42160000Y8952156D01*
X42166401Y8892628D01*
X42166403Y8892621D01*
X42216645Y8757914D01*
X42216649Y8757907D01*
X42302809Y8642813D01*
X42302812Y8642810D01*
X42417906Y8556650D01*
X42417913Y8556646D01*
X42552620Y8506404D01*
X42552627Y8506402D01*
X42612155Y8500001D01*
X42612172Y8500000D01*
X44310000Y8500000D01*
X44810000Y8500000D01*
X46507828Y8500000D01*
X46507844Y8500001D01*
X46567372Y8506402D01*
X46567379Y8506404D01*
X46702086Y8556646D01*
X46702093Y8556650D01*
X46817187Y8642810D01*
X46817190Y8642813D01*
X46903350Y8757907D01*
X46903354Y8757914D01*
X46953596Y8892621D01*
X46953598Y8892628D01*
X46959999Y8952156D01*
X48160000Y8952156D01*
X48166401Y8892628D01*
X48166403Y8892621D01*
X48216645Y8757914D01*
X48216649Y8757907D01*
X48302809Y8642813D01*
X48302812Y8642810D01*
X48417906Y8556650D01*
X48417913Y8556646D01*
X48552620Y8506404D01*
X48552627Y8506402D01*
X48612155Y8500001D01*
X48612172Y8500000D01*
X49560000Y8500000D01*
X50060000Y8500000D01*
X51210000Y8500000D01*
X51710000Y8500000D01*
X52007828Y8500000D01*
X52007844Y8500001D01*
X52067372Y8506402D01*
X52067379Y8506404D01*
X52202086Y8556646D01*
X52202093Y8556650D01*
X52317187Y8642810D01*
X52317190Y8642813D01*
X52403350Y8757907D01*
X52403354Y8757914D01*
X52453596Y8892621D01*
X52453598Y8892628D01*
X52459999Y8952156D01*
X52460000Y8952173D01*
X52460000Y9250000D01*
X51710000Y9250000D01*
X51710000Y8500000D01*
X51210000Y8500000D01*
X51210000Y9250000D01*
X50060000Y9250000D01*
X50060000Y8500000D01*
X49560000Y8500000D01*
X49560000Y9250000D01*
X48160000Y9250000D01*
X48160000Y8952156D01*
X46959999Y8952156D01*
X46960000Y8952173D01*
X46960000Y9250000D01*
X44810000Y9250000D01*
X44810000Y8500000D01*
X44310000Y8500000D01*
X44310000Y9250000D01*
X42160000Y9250000D01*
X42160000Y8952156D01*
X40959999Y8952156D01*
X40960000Y8952173D01*
X40960000Y9250000D01*
X38810000Y9250000D01*
X38810000Y8500000D01*
X38310000Y8500000D01*
X38310000Y9250000D01*
X36160000Y9250000D01*
X36160000Y8952156D01*
X34959999Y8952156D01*
X34960000Y8952173D01*
X34960000Y9250000D01*
X32810000Y9250000D01*
X32810000Y8500000D01*
X32310000Y8500000D01*
X32310000Y9250000D01*
X30160000Y9250000D01*
X30160000Y8952156D01*
X28959999Y8952156D01*
X28960000Y8952173D01*
X28960000Y9250000D01*
X26810000Y9250000D01*
X26810000Y8500000D01*
X26310000Y8500000D01*
X26310000Y9250000D01*
X24160000Y9250000D01*
X24160000Y8952156D01*
X22959999Y8952156D01*
X22960000Y8952173D01*
X22960000Y9250000D01*
X21560000Y9250000D01*
X21560000Y8500000D01*
X21060000Y8500000D01*
X21060000Y9250000D01*
X19910000Y9250000D01*
X19910000Y8500000D01*
X19410000Y8500000D01*
X19410000Y9250000D01*
X18660000Y9250000D01*
X18660000Y8952156D01*
X5334500Y8952156D01*
X5334500Y9750000D01*
X18660000Y9750000D01*
X19410000Y9750000D01*
X19410000Y10900000D01*
X18660000Y10900000D01*
X18660000Y9750000D01*
X5334500Y9750000D01*
X5334500Y12347845D01*
X18660000Y12347845D01*
X18660000Y11400000D01*
X19410000Y11400000D01*
X19410000Y12800000D01*
X19112155Y12800000D01*
X19052627Y12793599D01*
X19052620Y12793597D01*
X18917913Y12743355D01*
X18917906Y12743351D01*
X18802812Y12657191D01*
X18802809Y12657188D01*
X18716649Y12542094D01*
X18716645Y12542087D01*
X18666403Y12407380D01*
X18666401Y12407373D01*
X18660000Y12347845D01*
X5334500Y12347845D01*
X5334500Y14452156D01*
X18660000Y14452156D01*
X18666401Y14392628D01*
X18666403Y14392621D01*
X18716645Y14257914D01*
X18716649Y14257907D01*
X18802809Y14142813D01*
X18802812Y14142810D01*
X18917906Y14056650D01*
X18917913Y14056646D01*
X19052620Y14006404D01*
X19052627Y14006402D01*
X19112155Y14000001D01*
X19112172Y14000000D01*
X19410000Y14000000D01*
X19410000Y16150000D01*
X18660000Y16150000D01*
X18660000Y14452156D01*
X5334500Y14452156D01*
X5334500Y16665457D01*
X6873499Y16665457D01*
X6911947Y16472171D01*
X6911950Y16472161D01*
X6987364Y16290093D01*
X6987371Y16290080D01*
X7096860Y16126219D01*
X7096863Y16126215D01*
X7236214Y15986864D01*
X7236218Y15986861D01*
X7400079Y15877372D01*
X7400092Y15877365D01*
X7563935Y15809500D01*
X7582165Y15801949D01*
X7582169Y15801949D01*
X7582170Y15801948D01*
X7775456Y15763500D01*
X7775459Y15763500D01*
X7972543Y15763500D01*
X8102582Y15789368D01*
X8165835Y15801949D01*
X8347914Y15877368D01*
X8511782Y15986861D01*
X8651139Y16126218D01*
X8690270Y16184783D01*
X8747381Y16270253D01*
X8760629Y16290082D01*
X8760632Y16290086D01*
X8836051Y16472165D01*
X8872742Y16656621D01*
X8874500Y16665457D01*
X8874500Y16862544D01*
X8836052Y17055830D01*
X8836051Y17055831D01*
X8836051Y17055835D01*
X8771366Y17212000D01*
X8760635Y17237908D01*
X8760628Y17237921D01*
X8651139Y17401782D01*
X8651136Y17401786D01*
X8511785Y17541137D01*
X8511781Y17541140D01*
X8347920Y17650629D01*
X8347907Y17650636D01*
X8165839Y17726050D01*
X8165829Y17726053D01*
X7972543Y17764500D01*
X7972541Y17764500D01*
X7775459Y17764500D01*
X7775457Y17764500D01*
X7582170Y17726053D01*
X7582160Y17726050D01*
X7400092Y17650636D01*
X7400079Y17650629D01*
X7236218Y17541140D01*
X7236214Y17541137D01*
X7096863Y17401786D01*
X7096860Y17401782D01*
X6987371Y17237921D01*
X6987364Y17237908D01*
X6911950Y17055840D01*
X6911947Y17055830D01*
X6873500Y16862544D01*
X6873500Y16862541D01*
X6873500Y16665459D01*
X6873500Y16665457D01*
X6873499Y16665457D01*
X5334500Y16665457D01*
X5334500Y18347845D01*
X18660000Y18347845D01*
X18660000Y16650000D01*
X19410000Y16650000D01*
X19410000Y18800000D01*
X19112155Y18800000D01*
X19052627Y18793599D01*
X19052620Y18793597D01*
X18917913Y18743355D01*
X18917906Y18743351D01*
X18802812Y18657191D01*
X18802809Y18657188D01*
X18716649Y18542094D01*
X18716645Y18542087D01*
X18666403Y18407380D01*
X18666401Y18407373D01*
X18660000Y18347845D01*
X5334500Y18347845D01*
X5334500Y20452156D01*
X18660000Y20452156D01*
X18666401Y20392628D01*
X18666403Y20392621D01*
X18716645Y20257914D01*
X18716649Y20257907D01*
X18802809Y20142813D01*
X18802812Y20142810D01*
X18917906Y20056650D01*
X18917913Y20056646D01*
X19052620Y20006404D01*
X19052627Y20006402D01*
X19112155Y20000001D01*
X19112172Y20000000D01*
X19410000Y20000000D01*
X19410000Y22150000D01*
X18660000Y22150000D01*
X18660000Y20452156D01*
X5334500Y20452156D01*
X5334500Y22987890D01*
X6985600Y22987890D01*
X6985600Y22732111D01*
X7025613Y22479477D01*
X7104651Y22236219D01*
X7104652Y22236216D01*
X7220775Y22008314D01*
X7298450Y21901405D01*
X7298450Y21901404D01*
X7856484Y22459439D01*
X7857340Y22457374D01*
X7950362Y22318156D01*
X8068756Y22199762D01*
X8207974Y22106740D01*
X8210037Y22105886D01*
X7652002Y21547852D01*
X7758913Y21470176D01*
X7986815Y21354053D01*
X7986818Y21354052D01*
X8230076Y21275014D01*
X8482711Y21235000D01*
X8738489Y21235000D01*
X8991123Y21275014D01*
X9234381Y21354052D01*
X9234384Y21354053D01*
X9462285Y21470175D01*
X9569195Y21547852D01*
X9569196Y21547852D01*
X9011162Y22105886D01*
X9013226Y22106740D01*
X9152444Y22199762D01*
X9270838Y22318156D01*
X9363860Y22457374D01*
X9364714Y22459438D01*
X9922748Y21901404D01*
X9922748Y21901405D01*
X10000425Y22008315D01*
X10116547Y22236216D01*
X10116548Y22236219D01*
X10195586Y22479477D01*
X10235600Y22732111D01*
X10235600Y22987890D01*
X10195586Y23240524D01*
X10116548Y23483782D01*
X10116547Y23483785D01*
X10000424Y23711687D01*
X9922748Y23818597D01*
X9922748Y23818598D01*
X9364714Y23260564D01*
X9363860Y23262626D01*
X9270838Y23401844D01*
X9152444Y23520238D01*
X9013226Y23613260D01*
X9011160Y23614116D01*
X9569196Y24172150D01*
X9462286Y24249825D01*
X9234384Y24365948D01*
X9234381Y24365949D01*
X8991123Y24444987D01*
X8738489Y24485000D01*
X8482711Y24485000D01*
X8230076Y24444987D01*
X7986818Y24365949D01*
X7986815Y24365948D01*
X7758910Y24249823D01*
X7652003Y24172151D01*
X7652002Y24172150D01*
X8210037Y23614115D01*
X8207974Y23613260D01*
X8068756Y23520238D01*
X7950362Y23401844D01*
X7857340Y23262626D01*
X7856485Y23260563D01*
X7298450Y23818598D01*
X7298449Y23818597D01*
X7220777Y23711690D01*
X7104652Y23483785D01*
X7104651Y23483782D01*
X7025613Y23240524D01*
X6985600Y22987890D01*
X5334500Y22987890D01*
X5334500Y25496449D01*
X9925100Y25496449D01*
X9925100Y25303552D01*
X9955275Y25113031D01*
X9955276Y25113028D01*
X10014885Y24929571D01*
X10102459Y24757698D01*
X10215841Y24601641D01*
X10352241Y24465241D01*
X10508298Y24351859D01*
X10680171Y24264285D01*
X10863628Y24204676D01*
X11054151Y24174500D01*
X11054152Y24174500D01*
X11247048Y24174500D01*
X11247049Y24174500D01*
X11437572Y24204676D01*
X11621029Y24264285D01*
X11792902Y24351859D01*
X11948959Y24465241D01*
X12085359Y24601641D01*
X12198741Y24757698D01*
X12274710Y24906796D01*
X12322685Y24957591D01*
X12385195Y24974500D01*
X12958853Y24974500D01*
X13025892Y24954815D01*
X13071647Y24902011D01*
X13082311Y24862079D01*
X13084353Y24840301D01*
X13084353Y24840299D01*
X13120203Y24737849D01*
X13129207Y24712118D01*
X13209849Y24602851D01*
X13209851Y24602849D01*
X13210495Y24602205D01*
X13210974Y24601328D01*
X13215368Y24595374D01*
X13214553Y24594773D01*
X13243980Y24540882D01*
X13238996Y24471190D01*
X13197124Y24415257D01*
X13161133Y24396593D01*
X13066815Y24365947D01*
X12838910Y24249823D01*
X12732003Y24172151D01*
X12732002Y24172150D01*
X13290037Y23614115D01*
X13287974Y23613260D01*
X13148756Y23520238D01*
X13030362Y23401844D01*
X12937340Y23262626D01*
X12936485Y23260563D01*
X12378450Y23818598D01*
X12378449Y23818597D01*
X12300777Y23711690D01*
X12184652Y23483785D01*
X12184651Y23483782D01*
X12105613Y23240524D01*
X12065600Y22987890D01*
X12065600Y22732111D01*
X12105613Y22479477D01*
X12184651Y22236219D01*
X12184652Y22236216D01*
X12300775Y22008314D01*
X12378450Y21901405D01*
X12378450Y21901404D01*
X12936484Y22459439D01*
X12937340Y22457374D01*
X13030362Y22318156D01*
X13148756Y22199762D01*
X13287974Y22106740D01*
X13290037Y22105886D01*
X12732002Y21547852D01*
X12838913Y21470176D01*
X13066815Y21354053D01*
X13066818Y21354052D01*
X13310076Y21275014D01*
X13562711Y21235000D01*
X13818489Y21235000D01*
X14071123Y21275014D01*
X14314381Y21354052D01*
X14314384Y21354053D01*
X14542285Y21470175D01*
X14649195Y21547852D01*
X14649196Y21547852D01*
X14091162Y22105886D01*
X14093226Y22106740D01*
X14232444Y22199762D01*
X14350838Y22318156D01*
X14443860Y22457374D01*
X14444714Y22459438D01*
X15002748Y21901404D01*
X15002748Y21901405D01*
X15080425Y22008315D01*
X15196547Y22236216D01*
X15196550Y22236224D01*
X15197674Y22239682D01*
X15275586Y22479477D01*
X15315600Y22732111D01*
X15315600Y22987890D01*
X15275586Y23240524D01*
X15196548Y23483782D01*
X15196547Y23483785D01*
X15080424Y23711687D01*
X15002748Y23818597D01*
X15002748Y23818598D01*
X14444714Y23260564D01*
X14443860Y23262626D01*
X14350838Y23401844D01*
X14232444Y23520238D01*
X14093226Y23613260D01*
X14091160Y23614116D01*
X14649196Y24172150D01*
X14542286Y24249825D01*
X14326805Y24359618D01*
X14276009Y24407593D01*
X14259214Y24475414D01*
X14281751Y24541548D01*
X14309462Y24569870D01*
X14354150Y24602850D01*
X14434793Y24712118D01*
X14477040Y24832853D01*
X14479646Y24840299D01*
X14479646Y24840301D01*
X14482500Y24870731D01*
X14482500Y25929270D01*
X14981500Y25929270D01*
X14981500Y24870731D01*
X14984353Y24840301D01*
X14984353Y24840299D01*
X15020203Y24737849D01*
X15029207Y24712118D01*
X15109850Y24602850D01*
X15219118Y24522207D01*
X15261845Y24507256D01*
X15347299Y24477354D01*
X15377730Y24474500D01*
X15377734Y24474500D01*
X15986270Y24474500D01*
X16016699Y24477354D01*
X16016701Y24477354D01*
X16080790Y24499781D01*
X16144882Y24522207D01*
X16254150Y24602850D01*
X16334793Y24712118D01*
X16377040Y24832853D01*
X16379646Y24840299D01*
X16379646Y24840301D01*
X16381689Y24862079D01*
X16407547Y24926987D01*
X16464393Y24967612D01*
X16505147Y24974500D01*
X18855397Y24974500D01*
X18922436Y24954815D01*
X18968191Y24902011D01*
X18978135Y24832853D01*
X18949110Y24769297D01*
X18924447Y24749422D01*
X18925011Y24748669D01*
X18802812Y24657191D01*
X18802809Y24657188D01*
X18716649Y24542094D01*
X18716645Y24542087D01*
X18666403Y24407380D01*
X18666401Y24407373D01*
X18660000Y24347845D01*
X18660000Y22650000D01*
X19536000Y22650000D01*
X19603039Y22630315D01*
X19648794Y22577511D01*
X19660000Y22526000D01*
X19660000Y22400000D01*
X19786000Y22400000D01*
X19853039Y22380315D01*
X19898794Y22327511D01*
X19910000Y22276000D01*
X19910000Y20000000D01*
X19990500Y20000000D01*
X20057539Y19980315D01*
X20103294Y19927511D01*
X20114500Y19876000D01*
X20114500Y18924000D01*
X20094815Y18856961D01*
X20042011Y18811206D01*
X19990500Y18800000D01*
X19910000Y18800000D01*
X19910000Y14000000D01*
X19990500Y14000000D01*
X20057539Y13980315D01*
X20103294Y13927511D01*
X20114500Y13876000D01*
X20114500Y12924000D01*
X20094815Y12856961D01*
X20042011Y12811206D01*
X19990500Y12800000D01*
X19910000Y12800000D01*
X19910000Y9750000D01*
X22960000Y9750000D01*
X22960000Y9830500D01*
X22979685Y9897539D01*
X23032489Y9943294D01*
X23084000Y9954500D01*
X24036000Y9954500D01*
X24103039Y9934815D01*
X24148794Y9882011D01*
X24160000Y9830500D01*
X24160000Y9750000D01*
X28960000Y9750000D01*
X28960000Y9830500D01*
X28979685Y9897539D01*
X29032489Y9943294D01*
X29084000Y9954500D01*
X30036000Y9954500D01*
X30103039Y9934815D01*
X30148794Y9882011D01*
X30160000Y9830500D01*
X30160000Y9750000D01*
X34960000Y9750000D01*
X34960000Y9830500D01*
X34979685Y9897539D01*
X35032489Y9943294D01*
X35084000Y9954500D01*
X36036000Y9954500D01*
X36103039Y9934815D01*
X36148794Y9882011D01*
X36160000Y9830500D01*
X36160000Y9750000D01*
X40960000Y9750000D01*
X40960000Y9830500D01*
X40979685Y9897539D01*
X41032489Y9943294D01*
X41084000Y9954500D01*
X42036000Y9954500D01*
X42103039Y9934815D01*
X42148794Y9882011D01*
X42160000Y9830500D01*
X42160000Y9750000D01*
X46960000Y9750000D01*
X46960000Y9830500D01*
X46979685Y9897539D01*
X47032489Y9943294D01*
X47084000Y9954500D01*
X48036000Y9954500D01*
X48103039Y9934815D01*
X48148794Y9882011D01*
X48160000Y9830500D01*
X48160000Y9750000D01*
X51210000Y9750000D01*
X51710000Y9750000D01*
X52460000Y9750000D01*
X52460000Y10900000D01*
X51710000Y10900000D01*
X51710000Y9750000D01*
X51210000Y9750000D01*
X51210000Y11400000D01*
X51710000Y11400000D01*
X52460000Y11400000D01*
X52460000Y12347828D01*
X52459999Y12347845D01*
X52453598Y12407373D01*
X52453596Y12407380D01*
X52403354Y12542087D01*
X52403350Y12542094D01*
X52317190Y12657188D01*
X52317187Y12657191D01*
X52202093Y12743351D01*
X52202086Y12743355D01*
X52067379Y12793597D01*
X52067372Y12793599D01*
X52007844Y12800000D01*
X51710000Y12800000D01*
X51710000Y11400000D01*
X51210000Y11400000D01*
X51210000Y12763817D01*
X51087996Y12807152D01*
X51076306Y12815620D01*
X51062461Y12819685D01*
X51048581Y12835703D01*
X51031412Y12848140D01*
X51026156Y12861584D01*
X51016706Y12872489D01*
X51010200Y12902393D01*
X51005970Y12913213D01*
X51006871Y12917696D01*
X51005500Y12924000D01*
X51005500Y13876000D01*
X51025185Y13943039D01*
X51077989Y13988794D01*
X51129500Y14000000D01*
X51210000Y14000000D01*
X51710000Y14000000D01*
X52007828Y14000000D01*
X52007844Y14000001D01*
X52067372Y14006402D01*
X52067379Y14006404D01*
X52202086Y14056646D01*
X52202093Y14056650D01*
X52317187Y14142810D01*
X52317190Y14142813D01*
X52403350Y14257907D01*
X52403354Y14257914D01*
X52453596Y14392621D01*
X52453598Y14392628D01*
X52459999Y14452156D01*
X52460000Y14452173D01*
X52460000Y16150000D01*
X51710000Y16150000D01*
X51710000Y14000000D01*
X51210000Y14000000D01*
X51210000Y16276000D01*
X51229685Y16343039D01*
X51282489Y16388794D01*
X51334000Y16400000D01*
X51460000Y16400000D01*
X51460000Y16526000D01*
X51479685Y16593039D01*
X51532489Y16638794D01*
X51584000Y16650000D01*
X52460000Y16650000D01*
X52460000Y17038014D01*
X53766001Y17038014D01*
X53776494Y16935303D01*
X53831641Y16768881D01*
X53831643Y16768876D01*
X53923684Y16619655D01*
X54047654Y16495685D01*
X54196875Y16403644D01*
X54196880Y16403642D01*
X54363302Y16348495D01*
X54363309Y16348494D01*
X54466019Y16338001D01*
X54740999Y16338001D01*
X54741000Y16338002D01*
X54741000Y17088000D01*
X53766001Y17088000D01*
X53766001Y17038014D01*
X52460000Y17038014D01*
X52460000Y18347828D01*
X52459999Y18347845D01*
X52453598Y18407373D01*
X52453596Y18407380D01*
X52403354Y18542087D01*
X52403352Y18542090D01*
X52349379Y18614188D01*
X52324961Y18679652D01*
X52339812Y18747925D01*
X52389217Y18797331D01*
X52448645Y18812500D01*
X54023020Y18812500D01*
X54090059Y18792815D01*
X54122790Y18762133D01*
X54193848Y18665852D01*
X54193849Y18665852D01*
X54193850Y18665850D01*
X54303118Y18585207D01*
X54367033Y18562842D01*
X54423807Y18522122D01*
X54449555Y18457170D01*
X54436099Y18388608D01*
X54387712Y18338205D01*
X54365082Y18328096D01*
X54196878Y18272358D01*
X54196875Y18272357D01*
X54047654Y18180316D01*
X53923684Y18056346D01*
X53831643Y17907125D01*
X53831641Y17907120D01*
X53776494Y17740698D01*
X53776493Y17740691D01*
X53766000Y17637987D01*
X53766000Y17588000D01*
X56012000Y17588000D01*
X56012000Y17652000D01*
X56031685Y17719039D01*
X56084489Y17764794D01*
X56136000Y17776000D01*
X57035073Y17776000D01*
X56989792Y17697571D01*
X56959500Y17584520D01*
X56959500Y17467480D01*
X56989792Y17354429D01*
X57035073Y17276000D01*
X56346000Y17276000D01*
X56346000Y17212000D01*
X56326315Y17144961D01*
X56273511Y17099206D01*
X56222000Y17088000D01*
X55241000Y17088000D01*
X55241000Y16338001D01*
X55515972Y16338001D01*
X55515986Y16338002D01*
X55618697Y16348495D01*
X55785119Y16403642D01*
X55785124Y16403644D01*
X55934342Y16495683D01*
X55997536Y16558877D01*
X56058859Y16592362D01*
X56128551Y16587378D01*
X56184485Y16545507D01*
X56193410Y16529159D01*
X56194396Y16529696D01*
X56198649Y16521907D01*
X56284809Y16406813D01*
X56284812Y16406810D01*
X56399906Y16320650D01*
X56399913Y16320646D01*
X56534620Y16270404D01*
X56534627Y16270402D01*
X56594155Y16264001D01*
X56594172Y16264000D01*
X57154000Y16264000D01*
X57154000Y17157073D01*
X57232429Y17111792D01*
X57345480Y17081500D01*
X57462520Y17081500D01*
X57575571Y17111792D01*
X57654000Y17157073D01*
X57654000Y16264000D01*
X58213828Y16264000D01*
X58213844Y16264001D01*
X58273372Y16270402D01*
X58273379Y16270404D01*
X58408086Y16320646D01*
X58408093Y16320650D01*
X58523186Y16406809D01*
X58574733Y16475666D01*
X58630667Y16517537D01*
X58700359Y16522521D01*
X58761682Y16489036D01*
X58773267Y16475666D01*
X58824813Y16406809D01*
X58939906Y16320650D01*
X58939913Y16320646D01*
X59074620Y16270404D01*
X59074627Y16270402D01*
X59134155Y16264001D01*
X59134172Y16264000D01*
X59694000Y16264000D01*
X59694000Y17157073D01*
X59772429Y17111792D01*
X59885480Y17081500D01*
X60002520Y17081500D01*
X60115571Y17111792D01*
X60194000Y17157073D01*
X60194000Y16264000D01*
X60753828Y16264000D01*
X60753844Y16264001D01*
X60813372Y16270402D01*
X60813379Y16270404D01*
X60948086Y16320646D01*
X60948093Y16320650D01*
X61063187Y16406810D01*
X61063190Y16406813D01*
X61149350Y16521907D01*
X61149354Y16521914D01*
X61199596Y16656621D01*
X61199598Y16656628D01*
X61205999Y16716156D01*
X61206000Y16716173D01*
X61206000Y17276000D01*
X60312927Y17276000D01*
X60358208Y17354429D01*
X60388500Y17467480D01*
X60388500Y17584520D01*
X60358208Y17697571D01*
X60312927Y17776000D01*
X61206000Y17776000D01*
X61206000Y18335828D01*
X61205999Y18335845D01*
X61199598Y18395373D01*
X61199596Y18395380D01*
X61149354Y18530087D01*
X61149350Y18530094D01*
X61063190Y18645188D01*
X61063187Y18645191D01*
X60948093Y18731351D01*
X60948086Y18731355D01*
X60813379Y18781597D01*
X60813372Y18781599D01*
X60753844Y18788000D01*
X60194000Y18788000D01*
X60194000Y17894928D01*
X60115571Y17940208D01*
X60002520Y17970500D01*
X59885480Y17970500D01*
X59772429Y17940208D01*
X59694000Y17894928D01*
X59694000Y18788000D01*
X59134155Y18788000D01*
X59074627Y18781599D01*
X59074620Y18781597D01*
X58939913Y18731355D01*
X58939906Y18731351D01*
X58824812Y18645191D01*
X58773266Y18576334D01*
X58717332Y18534464D01*
X58647641Y18529480D01*
X58586318Y18562966D01*
X58574734Y18576334D01*
X58523187Y18645191D01*
X58408093Y18731351D01*
X58408086Y18731355D01*
X58273379Y18781597D01*
X58273372Y18781599D01*
X58213844Y18788000D01*
X57654000Y18788000D01*
X57654000Y17894928D01*
X57575571Y17940208D01*
X57462520Y17970500D01*
X57345480Y17970500D01*
X57232429Y17940208D01*
X57154000Y17894928D01*
X57154000Y18778058D01*
X57140989Y18788000D01*
X57027110Y18788000D01*
X56960071Y18807685D01*
X56914316Y18860489D01*
X56904372Y18929647D01*
X56933397Y18993203D01*
X56939429Y18999681D01*
X57006929Y19067181D01*
X57007488Y19067487D01*
X57007801Y19068045D01*
X57038120Y19084214D01*
X57068252Y19100666D01*
X57069157Y19100764D01*
X57069453Y19100921D01*
X57070118Y19100867D01*
X57094610Y19103500D01*
X58185750Y19103500D01*
X58185751Y19103501D01*
X58200568Y19106448D01*
X58244229Y19115132D01*
X58244229Y19115133D01*
X58244231Y19115133D01*
X58310552Y19159448D01*
X58354867Y19225769D01*
X58354867Y19225771D01*
X58354868Y19225771D01*
X58366499Y19284248D01*
X58366500Y19284250D01*
X58366500Y19516500D01*
X58386185Y19583539D01*
X58438989Y19629294D01*
X58490500Y19640500D01*
X58857500Y19640500D01*
X58924539Y19620815D01*
X58970294Y19568011D01*
X58981500Y19516500D01*
X58981500Y19284248D01*
X58993131Y19225771D01*
X58993132Y19225770D01*
X59037447Y19159448D01*
X59103769Y19115133D01*
X59103770Y19115132D01*
X59162247Y19103501D01*
X59162250Y19103500D01*
X59162252Y19103500D01*
X60725750Y19103500D01*
X60725751Y19103501D01*
X60740568Y19106448D01*
X60784229Y19115132D01*
X60784229Y19115133D01*
X60784231Y19115133D01*
X60850552Y19159448D01*
X60894867Y19225769D01*
X60894867Y19225771D01*
X60894868Y19225771D01*
X60906499Y19284248D01*
X60906500Y19284250D01*
X60906500Y19516500D01*
X60926185Y19583539D01*
X60978989Y19629294D01*
X61030500Y19640500D01*
X61666585Y19640500D01*
X61733624Y19620815D01*
X61779379Y19568011D01*
X61790043Y19528076D01*
X61791953Y19507702D01*
X61791953Y19507699D01*
X61836806Y19379520D01*
X61836807Y19379518D01*
X61917450Y19270250D01*
X62026718Y19189607D01*
X62069445Y19174656D01*
X62154899Y19144754D01*
X62185330Y19141900D01*
X62185334Y19141900D01*
X63493870Y19141900D01*
X63524299Y19144754D01*
X63524301Y19144754D01*
X63588390Y19167181D01*
X63652482Y19189607D01*
X63761750Y19270250D01*
X63842393Y19379518D01*
X63864819Y19443610D01*
X63887246Y19507699D01*
X63887246Y19507701D01*
X63890100Y19538131D01*
X63890100Y20446670D01*
X63887246Y20477100D01*
X63887246Y20477102D01*
X63842393Y20605281D01*
X63842392Y20605283D01*
X63761750Y20714550D01*
X63652482Y20795193D01*
X63652480Y20795194D01*
X63524300Y20840047D01*
X63493870Y20842900D01*
X63493866Y20842900D01*
X62185334Y20842900D01*
X62185330Y20842900D01*
X62154900Y20840047D01*
X62154898Y20840047D01*
X62026719Y20795194D01*
X62026717Y20795193D01*
X61917450Y20714550D01*
X61836806Y20605282D01*
X61826051Y20574544D01*
X61785329Y20517768D01*
X61720376Y20492022D01*
X61709010Y20491500D01*
X61030500Y20491500D01*
X60963461Y20511185D01*
X60917706Y20563989D01*
X60906500Y20615500D01*
X60906500Y20847751D01*
X60906499Y20847753D01*
X60894868Y20906230D01*
X60894867Y20906231D01*
X60850552Y20972553D01*
X60784230Y21016868D01*
X60784229Y21016869D01*
X60725752Y21028500D01*
X60725748Y21028500D01*
X59162252Y21028500D01*
X59162247Y21028500D01*
X59103770Y21016869D01*
X59103769Y21016868D01*
X59037447Y20972553D01*
X58993132Y20906231D01*
X58993131Y20906230D01*
X58981500Y20847753D01*
X58981500Y20615500D01*
X58961815Y20548461D01*
X58909011Y20502706D01*
X58857500Y20491500D01*
X58490500Y20491500D01*
X58423461Y20511185D01*
X58377706Y20563989D01*
X58366500Y20615500D01*
X58366500Y20847751D01*
X58366499Y20847753D01*
X58354868Y20906230D01*
X58354867Y20906231D01*
X58310552Y20972553D01*
X58244230Y21016868D01*
X58244229Y21016869D01*
X58185752Y21028500D01*
X58185748Y21028500D01*
X56622252Y21028500D01*
X56622247Y21028500D01*
X56563770Y21016869D01*
X56563769Y21016868D01*
X56497447Y20972553D01*
X56453132Y20906231D01*
X56453131Y20906230D01*
X56441500Y20847753D01*
X56441500Y19787500D01*
X56421815Y19720461D01*
X56369011Y19674706D01*
X56317500Y19663500D01*
X55958980Y19663500D01*
X55891941Y19683185D01*
X55859210Y19713867D01*
X55788151Y19810149D01*
X55678886Y19890790D01*
X55678882Y19890793D01*
X55678877Y19890795D01*
X55674957Y19892866D01*
X55671452Y19896276D01*
X55671405Y19896311D01*
X55671409Y19896318D01*
X55624881Y19941592D01*
X55609099Y20009656D01*
X55632619Y20075448D01*
X55674957Y20112134D01*
X55678871Y20114204D01*
X55678882Y20114207D01*
X55788150Y20194850D01*
X55868793Y20304118D01*
X55891219Y20368210D01*
X55913646Y20432299D01*
X55913646Y20432301D01*
X55916500Y20462731D01*
X55916500Y21071270D01*
X55913646Y21101700D01*
X55913646Y21101702D01*
X55868793Y21229881D01*
X55868792Y21229883D01*
X55788150Y21339150D01*
X55678882Y21419793D01*
X55678880Y21419794D01*
X55614967Y21442158D01*
X55558191Y21482880D01*
X55532444Y21547832D01*
X55545901Y21616394D01*
X55594288Y21666797D01*
X55616918Y21676905D01*
X55785119Y21732642D01*
X55785124Y21732644D01*
X55934340Y21824682D01*
X55935801Y21826142D01*
X55937055Y21826828D01*
X55940007Y21829161D01*
X55940405Y21828657D01*
X55997122Y21859631D01*
X56066814Y21854652D01*
X56122750Y21812785D01*
X56146778Y21751726D01*
X56148401Y21736626D01*
X56148403Y21736621D01*
X56198645Y21601914D01*
X56198649Y21601907D01*
X56284809Y21486813D01*
X56284812Y21486810D01*
X56399906Y21400650D01*
X56399913Y21400646D01*
X56534620Y21350404D01*
X56534627Y21350402D01*
X56594155Y21344001D01*
X56594172Y21344000D01*
X57154000Y21344000D01*
X57154000Y22237073D01*
X57232429Y22191792D01*
X57345480Y22161500D01*
X57462520Y22161500D01*
X57575571Y22191792D01*
X57654000Y22237073D01*
X57654000Y21344000D01*
X58213828Y21344000D01*
X58213844Y21344001D01*
X58273372Y21350402D01*
X58273379Y21350404D01*
X58408086Y21400646D01*
X58408093Y21400650D01*
X58523186Y21486809D01*
X58574733Y21555666D01*
X58630667Y21597537D01*
X58700359Y21602521D01*
X58761682Y21569036D01*
X58773267Y21555666D01*
X58824813Y21486809D01*
X58939906Y21400650D01*
X58939913Y21400646D01*
X59074620Y21350404D01*
X59074627Y21350402D01*
X59134155Y21344001D01*
X59134172Y21344000D01*
X59694000Y21344000D01*
X59694000Y22237073D01*
X59772429Y22191792D01*
X59885480Y22161500D01*
X60002520Y22161500D01*
X60115571Y22191792D01*
X60194000Y22237073D01*
X60194000Y21344000D01*
X60753828Y21344000D01*
X60753844Y21344001D01*
X60813372Y21350402D01*
X60813379Y21350404D01*
X60948086Y21400646D01*
X60948093Y21400650D01*
X61063187Y21486810D01*
X61063190Y21486813D01*
X61149350Y21601907D01*
X61149354Y21601914D01*
X61199596Y21736621D01*
X61199598Y21736628D01*
X61205999Y21796156D01*
X61206000Y21796173D01*
X61206000Y22356000D01*
X60312927Y22356000D01*
X60358208Y22434429D01*
X60388500Y22547480D01*
X60388500Y22664520D01*
X60358208Y22777571D01*
X60312927Y22856000D01*
X61206000Y22856000D01*
X61206000Y23042414D01*
X61489601Y23042414D01*
X61500094Y22939703D01*
X61555241Y22773281D01*
X61555243Y22773276D01*
X61647284Y22624055D01*
X61771254Y22500085D01*
X61920475Y22408044D01*
X61920480Y22408042D01*
X62086902Y22352895D01*
X62086909Y22352894D01*
X62189619Y22342401D01*
X62589599Y22342401D01*
X63089600Y22342401D01*
X63489572Y22342401D01*
X63489586Y22342402D01*
X63592297Y22352895D01*
X63758719Y22408042D01*
X63758724Y22408044D01*
X63907945Y22500085D01*
X64031915Y22624055D01*
X64123956Y22773276D01*
X64123958Y22773281D01*
X64179105Y22939703D01*
X64179106Y22939710D01*
X64189599Y23042414D01*
X64189600Y23042427D01*
X64189600Y23242400D01*
X63089600Y23242400D01*
X63089600Y22342401D01*
X62589599Y22342401D01*
X62589600Y22342402D01*
X62589600Y23242400D01*
X61489601Y23242400D01*
X61489601Y23042414D01*
X61206000Y23042414D01*
X61206000Y23415828D01*
X61205999Y23415845D01*
X61199598Y23475373D01*
X61199596Y23475380D01*
X61149354Y23610087D01*
X61149350Y23610094D01*
X61063190Y23725188D01*
X61063187Y23725191D01*
X60948093Y23811351D01*
X60948086Y23811355D01*
X60899827Y23829354D01*
X60813379Y23861597D01*
X60813372Y23861599D01*
X60753844Y23868000D01*
X60194000Y23868000D01*
X60194000Y22974928D01*
X60115571Y23020208D01*
X60002520Y23050500D01*
X59885480Y23050500D01*
X59772429Y23020208D01*
X59694000Y22974928D01*
X59694000Y23868000D01*
X59134155Y23868000D01*
X59074627Y23861599D01*
X59074620Y23861597D01*
X58939913Y23811355D01*
X58939906Y23811351D01*
X58824812Y23725191D01*
X58773266Y23656334D01*
X58717332Y23614464D01*
X58647641Y23609480D01*
X58586318Y23642966D01*
X58574734Y23656334D01*
X58523187Y23725191D01*
X58408093Y23811351D01*
X58408086Y23811355D01*
X58273379Y23861597D01*
X58273372Y23861599D01*
X58213844Y23868000D01*
X57654000Y23868000D01*
X57654000Y22974928D01*
X57575571Y23020208D01*
X57462520Y23050500D01*
X57345480Y23050500D01*
X57232429Y23020208D01*
X57154000Y22974928D01*
X57154000Y23868000D01*
X56594155Y23868000D01*
X56534627Y23861599D01*
X56534620Y23861597D01*
X56399913Y23811355D01*
X56399906Y23811351D01*
X56284812Y23725191D01*
X56284809Y23725188D01*
X56198649Y23610094D01*
X56198644Y23610085D01*
X56166898Y23524971D01*
X56125027Y23469038D01*
X56059562Y23444622D01*
X55991289Y23459474D01*
X55963036Y23480625D01*
X55934345Y23509316D01*
X55785124Y23601357D01*
X55785119Y23601359D01*
X55618697Y23656506D01*
X55618690Y23656507D01*
X55515986Y23667000D01*
X55241000Y23667000D01*
X55241000Y22917000D01*
X56233638Y22917000D01*
X56300677Y22897315D01*
X56321319Y22880681D01*
X56346000Y22856000D01*
X57035073Y22856000D01*
X56989792Y22777571D01*
X56959500Y22664520D01*
X56959500Y22547480D01*
X56989792Y22434429D01*
X57035073Y22356000D01*
X56124362Y22356000D01*
X56057323Y22375685D01*
X56036681Y22392319D01*
X56012000Y22417000D01*
X55115000Y22417000D01*
X55047961Y22436685D01*
X55002206Y22489489D01*
X54991000Y22541000D01*
X54991000Y22667000D01*
X54865000Y22667000D01*
X54797961Y22686685D01*
X54752206Y22739489D01*
X54741000Y22791000D01*
X54741000Y23690126D01*
X54735331Y23700507D01*
X54740315Y23770199D01*
X54768814Y23814545D01*
X54848484Y23894214D01*
X54876296Y23942387D01*
X61489600Y23942387D01*
X61489600Y23742400D01*
X62589600Y23742400D01*
X63089600Y23742400D01*
X64189599Y23742400D01*
X64189599Y23942372D01*
X64189598Y23942387D01*
X64179105Y24045098D01*
X64123958Y24211520D01*
X64123956Y24211525D01*
X64031915Y24360746D01*
X63907945Y24484716D01*
X63758724Y24576757D01*
X63758719Y24576759D01*
X63592297Y24631906D01*
X63592290Y24631907D01*
X63489586Y24642400D01*
X63089600Y24642400D01*
X63089600Y23742400D01*
X62589600Y23742400D01*
X62589600Y24642400D01*
X62189628Y24642400D01*
X62189612Y24642399D01*
X62086902Y24631906D01*
X61920480Y24576759D01*
X61920475Y24576757D01*
X61771254Y24484716D01*
X61647284Y24360746D01*
X61555243Y24211525D01*
X61555241Y24211520D01*
X61500094Y24045098D01*
X61500093Y24045091D01*
X61489600Y23942387D01*
X54876296Y23942387D01*
X54878797Y23946719D01*
X54929361Y23994933D01*
X54997968Y24008157D01*
X55027136Y24001760D01*
X55048301Y23994354D01*
X55054387Y23993784D01*
X55078730Y23991500D01*
X55078734Y23991500D01*
X55712270Y23991500D01*
X55742699Y23994354D01*
X55742701Y23994354D01*
X55806790Y24016781D01*
X55870882Y24039207D01*
X55980150Y24119850D01*
X56060793Y24229118D01*
X56100467Y24342500D01*
X56105646Y24357299D01*
X56105646Y24357301D01*
X56108500Y24387731D01*
X56108500Y24975391D01*
X56128185Y25042430D01*
X56144819Y25063072D01*
X57006928Y25925181D01*
X57068251Y25958666D01*
X57094609Y25961500D01*
X58185749Y25961500D01*
X58185750Y25961501D01*
X58204444Y25965219D01*
X58244228Y25973132D01*
X58244228Y25973133D01*
X58244230Y25973133D01*
X58310551Y26017448D01*
X58354866Y26083769D01*
X58354866Y26083771D01*
X58354867Y26083771D01*
X58365419Y26136823D01*
X58366499Y26142252D01*
X58366499Y26374500D01*
X58386184Y26441539D01*
X58438988Y26487294D01*
X58490499Y26498500D01*
X58857501Y26498500D01*
X58924540Y26478815D01*
X58970295Y26426011D01*
X58981501Y26374500D01*
X58981501Y26142248D01*
X58993132Y26083771D01*
X58993133Y26083770D01*
X59037448Y26017448D01*
X59103770Y25973133D01*
X59103771Y25973132D01*
X59162248Y25961501D01*
X59162251Y25961500D01*
X59162253Y25961500D01*
X60725751Y25961500D01*
X60725752Y25961501D01*
X60744446Y25965219D01*
X60784230Y25973132D01*
X60784230Y25973133D01*
X60784232Y25973133D01*
X60850553Y26017448D01*
X60894868Y26083769D01*
X60894868Y26083771D01*
X60894869Y26083771D01*
X60905421Y26136823D01*
X60906501Y26142252D01*
X60906501Y27705748D01*
X60906501Y27705751D01*
X60906500Y27705753D01*
X60894869Y27764230D01*
X60894868Y27764231D01*
X60850553Y27830553D01*
X60784231Y27874868D01*
X60784230Y27874869D01*
X60725753Y27886500D01*
X60725749Y27886500D01*
X59162253Y27886500D01*
X59162248Y27886500D01*
X59103771Y27874869D01*
X59103770Y27874868D01*
X59037448Y27830553D01*
X58993133Y27764231D01*
X58993132Y27764230D01*
X58981501Y27705753D01*
X58981501Y27473500D01*
X58961816Y27406461D01*
X58909012Y27360706D01*
X58857501Y27349500D01*
X58490499Y27349500D01*
X58423460Y27369185D01*
X58377705Y27421989D01*
X58366499Y27473500D01*
X58366499Y27705751D01*
X58366498Y27705753D01*
X58354867Y27764230D01*
X58354866Y27764231D01*
X58310551Y27830553D01*
X58244229Y27874868D01*
X58244228Y27874869D01*
X58185751Y27886500D01*
X58185747Y27886500D01*
X56622251Y27886500D01*
X56622246Y27886500D01*
X56563769Y27874869D01*
X56563768Y27874868D01*
X56497446Y27830553D01*
X56453131Y27764231D01*
X56453130Y27764230D01*
X56441499Y27705753D01*
X56441499Y26614610D01*
X56421814Y26547571D01*
X56405180Y26526929D01*
X55707070Y25828819D01*
X55645747Y25795334D01*
X55619389Y25792500D01*
X55078730Y25792500D01*
X55048300Y25789647D01*
X55048299Y25789647D01*
X55027136Y25782241D01*
X54957357Y25778680D01*
X54896730Y25813410D01*
X54878798Y25837280D01*
X54848484Y25889785D01*
X54322785Y26415485D01*
X54225759Y26471503D01*
X54117540Y26500500D01*
X54117539Y26500500D01*
X52584000Y26500500D01*
X52516961Y26520185D01*
X52471206Y26572989D01*
X52460000Y26624500D01*
X52460000Y28150000D01*
X51584000Y28150000D01*
X51516961Y28169685D01*
X51471206Y28222489D01*
X51460000Y28274000D01*
X51460000Y28526000D01*
X51479685Y28593039D01*
X51532489Y28638794D01*
X51584000Y28650000D01*
X52460000Y28650000D01*
X52460000Y29800391D01*
X52479685Y29867430D01*
X52532489Y29913185D01*
X52601647Y29923129D01*
X52665203Y29894104D01*
X52671681Y29888072D01*
X52948181Y29611572D01*
X52981666Y29550249D01*
X52984500Y29523891D01*
X52984500Y28959731D01*
X52987353Y28929301D01*
X52987353Y28929299D01*
X53027664Y28814100D01*
X53032207Y28801118D01*
X53112850Y28691850D01*
X53222118Y28611207D01*
X53253466Y28600238D01*
X53350299Y28566354D01*
X53380730Y28563500D01*
X53380734Y28563500D01*
X54014270Y28563500D01*
X54044699Y28566354D01*
X54044701Y28566354D01*
X54108790Y28588781D01*
X54172882Y28611207D01*
X54282150Y28691850D01*
X54362793Y28801118D01*
X54395634Y28894973D01*
X54407646Y28929299D01*
X54407646Y28929301D01*
X54410500Y28959731D01*
X54410500Y29968270D01*
X54809500Y29968270D01*
X54809500Y28959731D01*
X54812353Y28929301D01*
X54812353Y28929299D01*
X54852664Y28814100D01*
X54857207Y28801118D01*
X54937850Y28691850D01*
X55047118Y28611207D01*
X55078466Y28600238D01*
X55175299Y28566354D01*
X55205730Y28563500D01*
X55205734Y28563500D01*
X55839270Y28563500D01*
X55869699Y28566354D01*
X55869701Y28566354D01*
X55933790Y28588781D01*
X55997882Y28611207D01*
X56107150Y28691850D01*
X56187793Y28801118D01*
X56200458Y28837314D01*
X56241179Y28894089D01*
X56306132Y28919836D01*
X56374694Y28906380D01*
X56425096Y28857992D01*
X56441499Y28796358D01*
X56441499Y28682248D01*
X56453130Y28623771D01*
X56453131Y28623770D01*
X56497446Y28557448D01*
X56563768Y28513133D01*
X56563769Y28513132D01*
X56622246Y28501501D01*
X56622249Y28501500D01*
X56622251Y28501500D01*
X58185749Y28501500D01*
X58185750Y28501501D01*
X58200567Y28504448D01*
X58244228Y28513132D01*
X58244228Y28513133D01*
X58244230Y28513133D01*
X58310551Y28557448D01*
X58354866Y28623769D01*
X58354866Y28623771D01*
X58354867Y28623771D01*
X58366498Y28682248D01*
X58366499Y28682250D01*
X58366499Y28914500D01*
X58386184Y28981539D01*
X58438988Y29027294D01*
X58490499Y29038500D01*
X58857501Y29038500D01*
X58924540Y29018815D01*
X58970295Y28966011D01*
X58981501Y28914500D01*
X58981501Y28682248D01*
X58993132Y28623771D01*
X58993133Y28623770D01*
X59037448Y28557448D01*
X59103770Y28513133D01*
X59103771Y28513132D01*
X59162248Y28501501D01*
X59162251Y28501500D01*
X59162253Y28501500D01*
X60725751Y28501500D01*
X60725752Y28501501D01*
X60740569Y28504448D01*
X60784230Y28513132D01*
X60784230Y28513133D01*
X60784232Y28513133D01*
X60850553Y28557448D01*
X60894868Y28623769D01*
X60894868Y28623771D01*
X60894869Y28623771D01*
X60906500Y28682248D01*
X60906501Y28682250D01*
X60906501Y30245751D01*
X60906500Y30245753D01*
X60894869Y30304230D01*
X60894868Y30304231D01*
X60850553Y30370553D01*
X60784231Y30414868D01*
X60784230Y30414869D01*
X60725753Y30426500D01*
X60725749Y30426500D01*
X59162253Y30426500D01*
X59162248Y30426500D01*
X59103771Y30414869D01*
X59103770Y30414868D01*
X59037448Y30370553D01*
X58993133Y30304231D01*
X58993132Y30304230D01*
X58981501Y30245753D01*
X58981501Y30013500D01*
X58961816Y29946461D01*
X58909012Y29900706D01*
X58857501Y29889500D01*
X58490499Y29889500D01*
X58423460Y29909185D01*
X58377705Y29961989D01*
X58366499Y30013500D01*
X58366499Y30245751D01*
X58366498Y30245753D01*
X58354867Y30304230D01*
X58354866Y30304231D01*
X58310551Y30370553D01*
X58244229Y30414868D01*
X58244228Y30414869D01*
X58185751Y30426500D01*
X58185747Y30426500D01*
X56622251Y30426500D01*
X56622246Y30426500D01*
X56563769Y30414869D01*
X56563768Y30414868D01*
X56497446Y30370553D01*
X56453131Y30304231D01*
X56453130Y30304230D01*
X56441499Y30245753D01*
X56441499Y30131643D01*
X56421814Y30064604D01*
X56369010Y30018849D01*
X56299852Y30008905D01*
X56236296Y30037930D01*
X56200458Y30090687D01*
X56189151Y30123000D01*
X56187793Y30126882D01*
X56107150Y30236150D01*
X55997882Y30316793D01*
X55997880Y30316794D01*
X55869700Y30361647D01*
X55839270Y30364500D01*
X55839266Y30364500D01*
X55205734Y30364500D01*
X55205730Y30364500D01*
X55175300Y30361647D01*
X55175298Y30361647D01*
X55047119Y30316794D01*
X55047117Y30316793D01*
X54937850Y30236150D01*
X54857207Y30126883D01*
X54857206Y30126881D01*
X54812353Y29998702D01*
X54812353Y29998700D01*
X54809500Y29968270D01*
X54410500Y29968270D01*
X54407646Y29998700D01*
X54407646Y29998702D01*
X54362793Y30126881D01*
X54362792Y30126883D01*
X54346081Y30149526D01*
X54282150Y30236150D01*
X54172882Y30316793D01*
X54172880Y30316794D01*
X54044700Y30361647D01*
X54014270Y30364500D01*
X54014266Y30364500D01*
X53450109Y30364500D01*
X53383070Y30384185D01*
X53362428Y30400819D01*
X52697765Y31065483D01*
X52697764Y31065484D01*
X52697763Y31065485D01*
X52600737Y31121503D01*
X52492518Y31150500D01*
X52492517Y31150500D01*
X51129500Y31150500D01*
X51120814Y31153051D01*
X51111853Y31151762D01*
X51087812Y31162741D01*
X51062461Y31170185D01*
X51056533Y31177026D01*
X51048297Y31180787D01*
X51034007Y31203022D01*
X51016706Y31222989D01*
X51014418Y31233504D01*
X51010523Y31239565D01*
X51005500Y31274500D01*
X51005500Y31327500D01*
X51025185Y31394539D01*
X51077989Y31440294D01*
X51129500Y31451500D01*
X52864198Y31451500D01*
X52931237Y31431815D01*
X52976992Y31379011D01*
X52984877Y31349481D01*
X52985744Y31349670D01*
X52987353Y31342299D01*
X53032206Y31214120D01*
X53032207Y31214118D01*
X53112850Y31104850D01*
X53222118Y31024207D01*
X53264845Y31009256D01*
X53350299Y30979354D01*
X53380730Y30976500D01*
X53380734Y30976500D01*
X54014270Y30976500D01*
X54044699Y30979354D01*
X54044701Y30979354D01*
X54108790Y31001781D01*
X54172882Y31024207D01*
X54282150Y31104850D01*
X54362793Y31214118D01*
X54391905Y31297315D01*
X54407646Y31342299D01*
X54407646Y31342301D01*
X54410500Y31372731D01*
X54410500Y32381270D01*
X54809500Y32381270D01*
X54809500Y31372731D01*
X54812353Y31342301D01*
X54812353Y31342299D01*
X54857206Y31214120D01*
X54857207Y31214118D01*
X54937850Y31104850D01*
X55047118Y31024207D01*
X55089845Y31009256D01*
X55175299Y30979354D01*
X55205730Y30976500D01*
X55205734Y30976500D01*
X55839270Y30976500D01*
X55869699Y30979354D01*
X55869701Y30979354D01*
X55933790Y31001781D01*
X55997882Y31024207D01*
X56107150Y31104850D01*
X56187793Y31214118D01*
X56200981Y31251809D01*
X56241700Y31308582D01*
X56306652Y31334330D01*
X56375214Y31320875D01*
X56425617Y31272488D01*
X56439791Y31228123D01*
X56440310Y31228226D01*
X56441219Y31223655D01*
X56441423Y31223017D01*
X56441498Y31222251D01*
X56453130Y31163771D01*
X56453131Y31163770D01*
X56497446Y31097448D01*
X56563768Y31053133D01*
X56563769Y31053132D01*
X56622246Y31041501D01*
X56622249Y31041500D01*
X56622251Y31041500D01*
X58185749Y31041500D01*
X58185750Y31041501D01*
X58200567Y31044448D01*
X58244228Y31053132D01*
X58244228Y31053133D01*
X58244230Y31053133D01*
X58310551Y31097448D01*
X58354866Y31163769D01*
X58354866Y31163771D01*
X58354867Y31163771D01*
X58366498Y31222248D01*
X58366499Y31222250D01*
X58366499Y31454500D01*
X58386184Y31521539D01*
X58438988Y31567294D01*
X58490499Y31578500D01*
X58857501Y31578500D01*
X58924540Y31558815D01*
X58970295Y31506011D01*
X58981501Y31454500D01*
X58981501Y31222248D01*
X58993132Y31163771D01*
X58993133Y31163770D01*
X59037448Y31097448D01*
X59103770Y31053133D01*
X59103771Y31053132D01*
X59162248Y31041501D01*
X59162251Y31041500D01*
X59162253Y31041500D01*
X60725751Y31041500D01*
X60725752Y31041501D01*
X60740569Y31044448D01*
X60784230Y31053132D01*
X60784230Y31053133D01*
X60784232Y31053133D01*
X60850553Y31097448D01*
X60894868Y31163769D01*
X60894868Y31163771D01*
X60894869Y31163771D01*
X60906500Y31222248D01*
X60906501Y31222250D01*
X60906501Y32785751D01*
X60906500Y32785753D01*
X60894869Y32844230D01*
X60894868Y32844231D01*
X60850553Y32910553D01*
X60784231Y32954868D01*
X60784230Y32954869D01*
X60725753Y32966500D01*
X60725749Y32966500D01*
X59162253Y32966500D01*
X59162248Y32966500D01*
X59103771Y32954869D01*
X59103770Y32954868D01*
X59037448Y32910553D01*
X58993133Y32844231D01*
X58993132Y32844230D01*
X58981501Y32785753D01*
X58981501Y32553500D01*
X58961816Y32486461D01*
X58909012Y32440706D01*
X58857501Y32429500D01*
X58490499Y32429500D01*
X58423460Y32449185D01*
X58377705Y32501989D01*
X58366499Y32553500D01*
X58366499Y32785751D01*
X58366498Y32785753D01*
X58354867Y32844230D01*
X58354866Y32844231D01*
X58310551Y32910553D01*
X58244229Y32954868D01*
X58244228Y32954869D01*
X58185751Y32966500D01*
X58185747Y32966500D01*
X56622251Y32966500D01*
X56622246Y32966500D01*
X56563769Y32954869D01*
X56563768Y32954868D01*
X56497446Y32910553D01*
X56453131Y32844231D01*
X56453130Y32844230D01*
X56441499Y32785753D01*
X56441499Y32553500D01*
X56438948Y32544815D01*
X56440237Y32535853D01*
X56429258Y32511813D01*
X56421814Y32486461D01*
X56414973Y32480534D01*
X56411212Y32472297D01*
X56388977Y32458008D01*
X56369010Y32440706D01*
X56358495Y32438419D01*
X56352434Y32434523D01*
X56317499Y32429500D01*
X56314400Y32429500D01*
X56247361Y32449185D01*
X56201606Y32501989D01*
X56197358Y32512547D01*
X56187794Y32539880D01*
X56187793Y32539882D01*
X56184152Y32544815D01*
X56107150Y32649150D01*
X55997882Y32729793D01*
X55997880Y32729794D01*
X55869700Y32774647D01*
X55839270Y32777500D01*
X55839266Y32777500D01*
X55205734Y32777500D01*
X55205730Y32777500D01*
X55175300Y32774647D01*
X55175298Y32774647D01*
X55047119Y32729794D01*
X55047117Y32729793D01*
X54937850Y32649150D01*
X54857207Y32539883D01*
X54857206Y32539881D01*
X54812353Y32411702D01*
X54812353Y32411700D01*
X54809500Y32381270D01*
X54410500Y32381270D01*
X54407646Y32411700D01*
X54407646Y32411702D01*
X54365108Y32533266D01*
X54362793Y32539882D01*
X54282150Y32649150D01*
X54172882Y32729793D01*
X54172880Y32729794D01*
X54044700Y32774647D01*
X54014270Y32777500D01*
X54014266Y32777500D01*
X53380734Y32777500D01*
X53380730Y32777500D01*
X53350300Y32774647D01*
X53350298Y32774647D01*
X53222119Y32729794D01*
X53222117Y32729793D01*
X53112850Y32649150D01*
X53032207Y32539883D01*
X53032206Y32539881D01*
X52987353Y32411702D01*
X52985744Y32404330D01*
X52983620Y32404794D01*
X52961802Y32350018D01*
X52904959Y32309391D01*
X52864198Y32302500D01*
X52581955Y32302500D01*
X52514916Y32322185D01*
X52469161Y32374989D01*
X52458666Y32439755D01*
X52459998Y32452154D01*
X52460000Y32452173D01*
X52460000Y34150000D01*
X51584000Y34150000D01*
X51516961Y34169685D01*
X51471206Y34222489D01*
X51460000Y34274000D01*
X51460000Y34526000D01*
X51479685Y34593039D01*
X51532489Y34638794D01*
X51584000Y34650000D01*
X52460000Y34650000D01*
X52460000Y35748891D01*
X52479685Y35815930D01*
X52532489Y35861685D01*
X52601647Y35871629D01*
X52665203Y35842604D01*
X52671673Y35836579D01*
X52692323Y35815930D01*
X53071048Y35437205D01*
X53104533Y35375882D01*
X53099549Y35306190D01*
X53083137Y35275891D01*
X53032209Y35206887D01*
X53032206Y35206881D01*
X52987353Y35078702D01*
X52987353Y35078700D01*
X52984500Y35048270D01*
X52984500Y34039731D01*
X52987353Y34009301D01*
X52987353Y34009299D01*
X53032206Y33881120D01*
X53032207Y33881118D01*
X53112850Y33771850D01*
X53222118Y33691207D01*
X53264845Y33676256D01*
X53350299Y33646354D01*
X53380730Y33643500D01*
X53380734Y33643500D01*
X54014270Y33643500D01*
X54044699Y33646354D01*
X54044701Y33646354D01*
X54108790Y33668781D01*
X54172882Y33691207D01*
X54282150Y33771850D01*
X54362793Y33881118D01*
X54402467Y33994500D01*
X54407646Y34009299D01*
X54407646Y34009301D01*
X54410500Y34039731D01*
X54410500Y35048270D01*
X54809500Y35048270D01*
X54809500Y34039731D01*
X54812353Y34009301D01*
X54812353Y34009299D01*
X54857206Y33881120D01*
X54857207Y33881118D01*
X54937850Y33771850D01*
X55047118Y33691207D01*
X55089845Y33676256D01*
X55175299Y33646354D01*
X55205730Y33643500D01*
X55205734Y33643500D01*
X55839270Y33643500D01*
X55869699Y33646354D01*
X55869701Y33646354D01*
X55933790Y33668781D01*
X55997882Y33691207D01*
X56107150Y33771850D01*
X56187793Y33881118D01*
X56200458Y33917314D01*
X56241179Y33974089D01*
X56306132Y33999836D01*
X56374694Y33986380D01*
X56425096Y33937992D01*
X56441499Y33876358D01*
X56441499Y33762248D01*
X56453130Y33703771D01*
X56453131Y33703770D01*
X56497446Y33637448D01*
X56563768Y33593133D01*
X56563769Y33593132D01*
X56622246Y33581501D01*
X56622249Y33581500D01*
X56622251Y33581500D01*
X58185749Y33581500D01*
X58185750Y33581501D01*
X58200567Y33584448D01*
X58244228Y33593132D01*
X58244228Y33593133D01*
X58244230Y33593133D01*
X58310551Y33637448D01*
X58354866Y33703769D01*
X58354866Y33703771D01*
X58354867Y33703771D01*
X58366498Y33762248D01*
X58366499Y33762250D01*
X58366499Y33994500D01*
X58386184Y34061539D01*
X58438988Y34107294D01*
X58490499Y34118500D01*
X58857501Y34118500D01*
X58924540Y34098815D01*
X58970295Y34046011D01*
X58981501Y33994500D01*
X58981501Y33762248D01*
X58993132Y33703771D01*
X58993133Y33703770D01*
X59037448Y33637448D01*
X59103770Y33593133D01*
X59103771Y33593132D01*
X59162248Y33581501D01*
X59162251Y33581500D01*
X59162253Y33581500D01*
X60725751Y33581500D01*
X60725752Y33581501D01*
X60740569Y33584448D01*
X60784230Y33593132D01*
X60784230Y33593133D01*
X60784232Y33593133D01*
X60850553Y33637448D01*
X60894868Y33703769D01*
X60894868Y33703771D01*
X60894869Y33703771D01*
X60906500Y33762248D01*
X60906501Y33762250D01*
X60906501Y35325751D01*
X60906500Y35325753D01*
X60894869Y35384230D01*
X60894868Y35384231D01*
X60850553Y35450553D01*
X60784231Y35494868D01*
X60784230Y35494869D01*
X60725753Y35506500D01*
X60725749Y35506500D01*
X59162253Y35506500D01*
X59162248Y35506500D01*
X59103771Y35494869D01*
X59103770Y35494868D01*
X59037448Y35450553D01*
X58993133Y35384231D01*
X58993132Y35384230D01*
X58981501Y35325753D01*
X58981501Y35093500D01*
X58961816Y35026461D01*
X58909012Y34980706D01*
X58857501Y34969500D01*
X58490499Y34969500D01*
X58423460Y34989185D01*
X58377705Y35041989D01*
X58366499Y35093500D01*
X58366499Y35325751D01*
X58366498Y35325753D01*
X58354867Y35384230D01*
X58354866Y35384231D01*
X58310551Y35450553D01*
X58244229Y35494868D01*
X58244228Y35494869D01*
X58185751Y35506500D01*
X58185747Y35506500D01*
X56622251Y35506500D01*
X56622246Y35506500D01*
X56563769Y35494869D01*
X56563768Y35494868D01*
X56497446Y35450553D01*
X56453131Y35384231D01*
X56453130Y35384230D01*
X56441499Y35325753D01*
X56441499Y35211643D01*
X56421814Y35144604D01*
X56369010Y35098849D01*
X56299852Y35088905D01*
X56236296Y35117930D01*
X56200458Y35170687D01*
X56187793Y35206882D01*
X56107150Y35316150D01*
X55997882Y35396793D01*
X55997880Y35396794D01*
X55869700Y35441647D01*
X55839270Y35444500D01*
X55839266Y35444500D01*
X55205734Y35444500D01*
X55205730Y35444500D01*
X55175300Y35441647D01*
X55175298Y35441647D01*
X55047119Y35396794D01*
X55047117Y35396793D01*
X54937850Y35316150D01*
X54857207Y35206883D01*
X54857206Y35206881D01*
X54812353Y35078702D01*
X54812353Y35078700D01*
X54809500Y35048270D01*
X54410500Y35048270D01*
X54407646Y35078700D01*
X54407646Y35078702D01*
X54369091Y35188884D01*
X54362793Y35206882D01*
X54282150Y35316150D01*
X54172882Y35396793D01*
X54172881Y35396794D01*
X54169570Y35399237D01*
X54158667Y35413598D01*
X54144196Y35424352D01*
X54132857Y35447591D01*
X54127320Y35454884D01*
X54127173Y35455270D01*
X54123000Y35466341D01*
X54123000Y35468518D01*
X54109995Y35517052D01*
X54094003Y35576737D01*
X54062727Y35630908D01*
X54037985Y35673763D01*
X53958763Y35752985D01*
X53958762Y35752986D01*
X53954432Y35757316D01*
X53954421Y35757326D01*
X52646265Y37065483D01*
X52646264Y37065484D01*
X52646263Y37065485D01*
X52549237Y37121503D01*
X52441018Y37150500D01*
X52441017Y37150500D01*
X51129500Y37150500D01*
X51062461Y37170185D01*
X51016706Y37222989D01*
X51005500Y37274500D01*
X51005500Y37876000D01*
X51025185Y37943039D01*
X51077989Y37988794D01*
X51129500Y38000000D01*
X51210000Y38000000D01*
X51710000Y38000000D01*
X52007828Y38000000D01*
X52007844Y38000001D01*
X52067372Y38006402D01*
X52067379Y38006404D01*
X52202086Y38056646D01*
X52202093Y38056650D01*
X52317187Y38142810D01*
X52317190Y38142813D01*
X52403350Y38257907D01*
X52403354Y38257914D01*
X52453596Y38392621D01*
X52453598Y38392628D01*
X52459999Y38452156D01*
X52460000Y38452173D01*
X52460000Y39400000D01*
X51710000Y39400000D01*
X51710000Y38000000D01*
X51210000Y38000000D01*
X51210000Y39900000D01*
X51710000Y39900000D01*
X52460000Y39900000D01*
X52460000Y41050000D01*
X51710000Y41050000D01*
X51710000Y39900000D01*
X51210000Y39900000D01*
X51210000Y41050000D01*
X48160000Y41050000D01*
X48160000Y40969500D01*
X48140315Y40902461D01*
X48087511Y40856706D01*
X48036000Y40845500D01*
X47084000Y40845500D01*
X47016961Y40865185D01*
X46971206Y40917989D01*
X46960000Y40969500D01*
X46960000Y41050000D01*
X42160000Y41050000D01*
X42160000Y40969500D01*
X42140315Y40902461D01*
X42087511Y40856706D01*
X42036000Y40845500D01*
X41084000Y40845500D01*
X41016961Y40865185D01*
X40971206Y40917989D01*
X40960000Y40969500D01*
X40960000Y41050000D01*
X36160000Y41050000D01*
X36160000Y40969500D01*
X36140315Y40902461D01*
X36087511Y40856706D01*
X36036000Y40845500D01*
X35084000Y40845500D01*
X35016961Y40865185D01*
X34971206Y40917989D01*
X34960000Y40969500D01*
X34960000Y41050000D01*
X30160000Y41050000D01*
X30160000Y40969500D01*
X30140315Y40902461D01*
X30087511Y40856706D01*
X30036000Y40845500D01*
X29084000Y40845500D01*
X29016961Y40865185D01*
X28971206Y40917989D01*
X28960000Y40969500D01*
X28960000Y41050000D01*
X24160000Y41050000D01*
X24160000Y40969500D01*
X24140315Y40902461D01*
X24087511Y40856706D01*
X24036000Y40845500D01*
X23084000Y40845500D01*
X23016961Y40865185D01*
X22971206Y40917989D01*
X22960000Y40969500D01*
X22960000Y41050000D01*
X19910000Y41050000D01*
X19910000Y38000000D01*
X19990500Y38000000D01*
X20057539Y37980315D01*
X20103294Y37927511D01*
X20114500Y37876000D01*
X20114500Y36924000D01*
X20094815Y36856961D01*
X20042011Y36811206D01*
X19990500Y36800000D01*
X19910000Y36800000D01*
X19910000Y32000000D01*
X19990500Y32000000D01*
X20057539Y31980315D01*
X20103294Y31927511D01*
X20114500Y31876000D01*
X20114500Y30924000D01*
X20094815Y30856961D01*
X20042011Y30811206D01*
X19990500Y30800000D01*
X19910000Y30800000D01*
X19910000Y28524000D01*
X19890315Y28456961D01*
X19837511Y28411206D01*
X19786000Y28400000D01*
X19660000Y28400000D01*
X19660000Y28274000D01*
X19640315Y28206961D01*
X19587511Y28161206D01*
X19536000Y28150000D01*
X18660000Y28150000D01*
X18660000Y26452156D01*
X18666401Y26392628D01*
X18666403Y26392621D01*
X18716645Y26257914D01*
X18716649Y26257907D01*
X18802809Y26142813D01*
X18802812Y26142810D01*
X18925011Y26051331D01*
X18923647Y26049510D01*
X18964232Y26008923D01*
X18979081Y25940649D01*
X18954661Y25875186D01*
X18898726Y25833317D01*
X18855397Y25825500D01*
X16505147Y25825500D01*
X16438108Y25845185D01*
X16392353Y25897989D01*
X16381689Y25937921D01*
X16379646Y25959700D01*
X16379646Y25959702D01*
X16340054Y26072847D01*
X16334793Y26087882D01*
X16254150Y26197150D01*
X16144882Y26277793D01*
X16144880Y26277794D01*
X16016700Y26322647D01*
X15986270Y26325500D01*
X15986266Y26325500D01*
X15377734Y26325500D01*
X15377730Y26325500D01*
X15347300Y26322647D01*
X15347298Y26322647D01*
X15219119Y26277794D01*
X15219117Y26277793D01*
X15109850Y26197150D01*
X15029207Y26087883D01*
X15029206Y26087881D01*
X14984353Y25959702D01*
X14984353Y25959700D01*
X14981500Y25929270D01*
X14482500Y25929270D01*
X14479646Y25959700D01*
X14479646Y25959702D01*
X14440054Y26072847D01*
X14434793Y26087882D01*
X14354150Y26197150D01*
X14309465Y26230129D01*
X14267215Y26285776D01*
X14261757Y26355432D01*
X14294825Y26416981D01*
X14326806Y26440383D01*
X14542282Y26550174D01*
X14649195Y26627852D01*
X14649196Y26627852D01*
X14091162Y27185886D01*
X14093226Y27186740D01*
X14232444Y27279762D01*
X14350838Y27398156D01*
X14443860Y27537374D01*
X14444714Y27539438D01*
X15002748Y26981404D01*
X15002748Y26981405D01*
X15080425Y27088315D01*
X15196547Y27316216D01*
X15196548Y27316219D01*
X15275586Y27559477D01*
X15315600Y27812111D01*
X15315600Y28067890D01*
X15275586Y28320524D01*
X15196548Y28563782D01*
X15196547Y28563785D01*
X15080424Y28791687D01*
X15002748Y28898597D01*
X15002748Y28898598D01*
X14444714Y28340564D01*
X14443860Y28342626D01*
X14350838Y28481844D01*
X14232444Y28600238D01*
X14093226Y28693260D01*
X14091160Y28694116D01*
X14649196Y29252150D01*
X14542286Y29329825D01*
X14314384Y29445948D01*
X14314381Y29445949D01*
X14071123Y29524987D01*
X13818489Y29565000D01*
X13562711Y29565000D01*
X13310076Y29524987D01*
X13066818Y29445949D01*
X13066815Y29445948D01*
X12838910Y29329823D01*
X12732003Y29252151D01*
X12732002Y29252150D01*
X13290037Y28694115D01*
X13287974Y28693260D01*
X13148756Y28600238D01*
X13030362Y28481844D01*
X12937340Y28342626D01*
X12936485Y28340563D01*
X12378450Y28898598D01*
X12378449Y28898597D01*
X12300777Y28791690D01*
X12184652Y28563785D01*
X12184651Y28563782D01*
X12105613Y28320524D01*
X12065600Y28067890D01*
X12065600Y27812111D01*
X12105613Y27559477D01*
X12184651Y27316219D01*
X12184652Y27316216D01*
X12300775Y27088314D01*
X12378450Y26981405D01*
X12378450Y26981404D01*
X12936484Y27539439D01*
X12937340Y27537374D01*
X13030362Y27398156D01*
X13148756Y27279762D01*
X13287974Y27186740D01*
X13290037Y27185886D01*
X12732002Y26627852D01*
X12838913Y26550176D01*
X13066815Y26434053D01*
X13066818Y26434052D01*
X13161132Y26403408D01*
X13218807Y26363971D01*
X13246006Y26299612D01*
X13234092Y26230766D01*
X13210501Y26197802D01*
X13209854Y26197156D01*
X13129207Y26087883D01*
X13129206Y26087881D01*
X13084353Y25959702D01*
X13084353Y25959700D01*
X13082311Y25937921D01*
X13056453Y25873013D01*
X12999607Y25832388D01*
X12958853Y25825500D01*
X12385195Y25825500D01*
X12318156Y25845185D01*
X12274710Y25893205D01*
X12268888Y25904632D01*
X12198741Y26042302D01*
X12085359Y26198359D01*
X11948959Y26334759D01*
X11792902Y26448141D01*
X11637301Y26527424D01*
X11621031Y26535714D01*
X11621030Y26535715D01*
X11621029Y26535715D01*
X11437572Y26595324D01*
X11437570Y26595325D01*
X11437569Y26595325D01*
X11291214Y26618505D01*
X11247049Y26625500D01*
X11054151Y26625500D01*
X11018297Y26619822D01*
X10863630Y26595325D01*
X10680168Y26535714D01*
X10508297Y26448141D01*
X10463348Y26415483D01*
X10352241Y26334759D01*
X10352239Y26334757D01*
X10352238Y26334757D01*
X10215843Y26198362D01*
X10215843Y26198361D01*
X10215841Y26198359D01*
X10167147Y26131339D01*
X10102459Y26042303D01*
X10014886Y25870432D01*
X9955275Y25686970D01*
X9925100Y25496449D01*
X5334500Y25496449D01*
X5334500Y28067890D01*
X6985600Y28067890D01*
X6985600Y27812111D01*
X7025613Y27559477D01*
X7104651Y27316219D01*
X7104652Y27316216D01*
X7220775Y27088314D01*
X7298450Y26981405D01*
X7298450Y26981404D01*
X7856484Y27539439D01*
X7857340Y27537374D01*
X7950362Y27398156D01*
X8068756Y27279762D01*
X8207974Y27186740D01*
X8210037Y27185886D01*
X7652002Y26627852D01*
X7758913Y26550176D01*
X7986815Y26434053D01*
X7986818Y26434052D01*
X8230076Y26355014D01*
X8482711Y26315000D01*
X8738489Y26315000D01*
X8991123Y26355014D01*
X9234381Y26434052D01*
X9234384Y26434053D01*
X9462285Y26550175D01*
X9569195Y26627852D01*
X9569196Y26627852D01*
X9011162Y27185886D01*
X9013226Y27186740D01*
X9152444Y27279762D01*
X9270838Y27398156D01*
X9363860Y27537374D01*
X9364714Y27539438D01*
X9922748Y26981404D01*
X9922748Y26981405D01*
X10000425Y27088315D01*
X10116547Y27316216D01*
X10116548Y27316219D01*
X10195586Y27559477D01*
X10235600Y27812111D01*
X10235600Y28067890D01*
X10195586Y28320524D01*
X10116548Y28563782D01*
X10116547Y28563785D01*
X10000424Y28791687D01*
X9922748Y28898597D01*
X9922748Y28898598D01*
X9364714Y28340564D01*
X9363860Y28342626D01*
X9270838Y28481844D01*
X9152444Y28600238D01*
X9013226Y28693260D01*
X9011160Y28694116D01*
X9569196Y29252150D01*
X9462286Y29329825D01*
X9234384Y29445948D01*
X9234381Y29445949D01*
X8991123Y29524987D01*
X8738489Y29565000D01*
X8482711Y29565000D01*
X8230076Y29524987D01*
X7986818Y29445949D01*
X7986815Y29445948D01*
X7758910Y29329823D01*
X7652003Y29252151D01*
X7652002Y29252150D01*
X8210037Y28694115D01*
X8207974Y28693260D01*
X8068756Y28600238D01*
X7950362Y28481844D01*
X7857340Y28342626D01*
X7856485Y28340563D01*
X7298450Y28898598D01*
X7298449Y28898597D01*
X7220777Y28791690D01*
X7104652Y28563785D01*
X7104651Y28563782D01*
X7025613Y28320524D01*
X6985600Y28067890D01*
X5334500Y28067890D01*
X5334500Y30347845D01*
X18660000Y30347845D01*
X18660000Y28650000D01*
X19410000Y28650000D01*
X19410000Y30800000D01*
X19112155Y30800000D01*
X19052627Y30793599D01*
X19052620Y30793597D01*
X18917913Y30743355D01*
X18917906Y30743351D01*
X18802812Y30657191D01*
X18802809Y30657188D01*
X18716649Y30542094D01*
X18716645Y30542087D01*
X18666403Y30407380D01*
X18666401Y30407373D01*
X18660000Y30347845D01*
X5334500Y30347845D01*
X5334500Y32452156D01*
X18660000Y32452156D01*
X18666401Y32392628D01*
X18666403Y32392621D01*
X18716645Y32257914D01*
X18716649Y32257907D01*
X18802809Y32142813D01*
X18802812Y32142810D01*
X18917906Y32056650D01*
X18917913Y32056646D01*
X19052620Y32006404D01*
X19052627Y32006402D01*
X19112155Y32000001D01*
X19112172Y32000000D01*
X19410000Y32000000D01*
X19410000Y34150000D01*
X18660000Y34150000D01*
X18660000Y32452156D01*
X5334500Y32452156D01*
X5334500Y36347845D01*
X18660000Y36347845D01*
X18660000Y34650000D01*
X19410000Y34650000D01*
X19410000Y36800000D01*
X19112155Y36800000D01*
X19052627Y36793599D01*
X19052620Y36793597D01*
X18917913Y36743355D01*
X18917906Y36743351D01*
X18802812Y36657191D01*
X18802809Y36657188D01*
X18716649Y36542094D01*
X18716645Y36542087D01*
X18666403Y36407380D01*
X18666401Y36407373D01*
X18660000Y36347845D01*
X5334500Y36347845D01*
X5334500Y38452156D01*
X18660000Y38452156D01*
X18666401Y38392628D01*
X18666403Y38392621D01*
X18716645Y38257914D01*
X18716649Y38257907D01*
X18802809Y38142813D01*
X18802812Y38142810D01*
X18917906Y38056650D01*
X18917913Y38056646D01*
X19052620Y38006404D01*
X19052627Y38006402D01*
X19112155Y38000001D01*
X19112172Y38000000D01*
X19410000Y38000000D01*
X19410000Y39400000D01*
X18660000Y39400000D01*
X18660000Y38452156D01*
X5334500Y38452156D01*
X5334500Y39900000D01*
X18660000Y39900000D01*
X19410000Y39900000D01*
X19410000Y41050000D01*
X18660000Y41050000D01*
X18660000Y39900000D01*
X5334500Y39900000D01*
X5334500Y41847845D01*
X18660000Y41847845D01*
X18660000Y41550000D01*
X19410000Y41550000D01*
X19910000Y41550000D01*
X21060000Y41550000D01*
X21560000Y41550000D01*
X22960000Y41550000D01*
X22960000Y41847828D01*
X22959999Y41847845D01*
X24160000Y41847845D01*
X24160000Y41550000D01*
X26310000Y41550000D01*
X26810000Y41550000D01*
X28960000Y41550000D01*
X28960000Y41847828D01*
X28959999Y41847845D01*
X30160000Y41847845D01*
X30160000Y41550000D01*
X32310000Y41550000D01*
X32810000Y41550000D01*
X34960000Y41550000D01*
X34960000Y41847828D01*
X34959999Y41847845D01*
X36160000Y41847845D01*
X36160000Y41550000D01*
X38310000Y41550000D01*
X38810000Y41550000D01*
X40960000Y41550000D01*
X40960000Y41847828D01*
X40959999Y41847845D01*
X42160000Y41847845D01*
X42160000Y41550000D01*
X44310000Y41550000D01*
X44810000Y41550000D01*
X46960000Y41550000D01*
X46960000Y41847828D01*
X46959999Y41847845D01*
X48160000Y41847845D01*
X48160000Y41550000D01*
X49560000Y41550000D01*
X50060000Y41550000D01*
X51210000Y41550000D01*
X51710000Y41550000D01*
X52460000Y41550000D01*
X52460000Y41847828D01*
X52459999Y41847845D01*
X52453598Y41907373D01*
X52453596Y41907380D01*
X52403354Y42042087D01*
X52403350Y42042094D01*
X52317190Y42157188D01*
X52317187Y42157191D01*
X52202093Y42243351D01*
X52202086Y42243355D01*
X52067379Y42293597D01*
X52067372Y42293599D01*
X52007844Y42300000D01*
X51710000Y42300000D01*
X51710000Y41550000D01*
X51210000Y41550000D01*
X51210000Y42300000D01*
X50060000Y42300000D01*
X50060000Y41550000D01*
X49560000Y41550000D01*
X49560000Y42300000D01*
X48612155Y42300000D01*
X48552627Y42293599D01*
X48552620Y42293597D01*
X48417913Y42243355D01*
X48417906Y42243351D01*
X48302812Y42157191D01*
X48302809Y42157188D01*
X48216649Y42042094D01*
X48216645Y42042087D01*
X48166403Y41907380D01*
X48166401Y41907373D01*
X48160000Y41847845D01*
X46959999Y41847845D01*
X46953598Y41907373D01*
X46953596Y41907380D01*
X46903354Y42042087D01*
X46903350Y42042094D01*
X46817190Y42157188D01*
X46817187Y42157191D01*
X46702093Y42243351D01*
X46702086Y42243355D01*
X46567379Y42293597D01*
X46567372Y42293599D01*
X46507844Y42300000D01*
X44810000Y42300000D01*
X44810000Y41550000D01*
X44310000Y41550000D01*
X44310000Y42300000D01*
X42612155Y42300000D01*
X42552627Y42293599D01*
X42552620Y42293597D01*
X42417913Y42243355D01*
X42417906Y42243351D01*
X42302812Y42157191D01*
X42302809Y42157188D01*
X42216649Y42042094D01*
X42216645Y42042087D01*
X42166403Y41907380D01*
X42166401Y41907373D01*
X42160000Y41847845D01*
X40959999Y41847845D01*
X40953598Y41907373D01*
X40953596Y41907380D01*
X40903354Y42042087D01*
X40903350Y42042094D01*
X40817190Y42157188D01*
X40817187Y42157191D01*
X40702093Y42243351D01*
X40702086Y42243355D01*
X40567379Y42293597D01*
X40567372Y42293599D01*
X40507844Y42300000D01*
X38810000Y42300000D01*
X38810000Y41550000D01*
X38310000Y41550000D01*
X38310000Y42300000D01*
X36612155Y42300000D01*
X36552627Y42293599D01*
X36552620Y42293597D01*
X36417913Y42243355D01*
X36417906Y42243351D01*
X36302812Y42157191D01*
X36302809Y42157188D01*
X36216649Y42042094D01*
X36216645Y42042087D01*
X36166403Y41907380D01*
X36166401Y41907373D01*
X36160000Y41847845D01*
X34959999Y41847845D01*
X34953598Y41907373D01*
X34953596Y41907380D01*
X34903354Y42042087D01*
X34903350Y42042094D01*
X34817190Y42157188D01*
X34817187Y42157191D01*
X34702093Y42243351D01*
X34702086Y42243355D01*
X34567379Y42293597D01*
X34567372Y42293599D01*
X34507844Y42300000D01*
X32810000Y42300000D01*
X32810000Y41550000D01*
X32310000Y41550000D01*
X32310000Y42300000D01*
X30612155Y42300000D01*
X30552627Y42293599D01*
X30552620Y42293597D01*
X30417913Y42243355D01*
X30417906Y42243351D01*
X30302812Y42157191D01*
X30302809Y42157188D01*
X30216649Y42042094D01*
X30216645Y42042087D01*
X30166403Y41907380D01*
X30166401Y41907373D01*
X30160000Y41847845D01*
X28959999Y41847845D01*
X28953598Y41907373D01*
X28953596Y41907380D01*
X28903354Y42042087D01*
X28903350Y42042094D01*
X28817190Y42157188D01*
X28817187Y42157191D01*
X28702093Y42243351D01*
X28702086Y42243355D01*
X28567379Y42293597D01*
X28567372Y42293599D01*
X28507844Y42300000D01*
X26810000Y42300000D01*
X26810000Y41550000D01*
X26310000Y41550000D01*
X26310000Y42300000D01*
X24612155Y42300000D01*
X24552627Y42293599D01*
X24552620Y42293597D01*
X24417913Y42243355D01*
X24417906Y42243351D01*
X24302812Y42157191D01*
X24302809Y42157188D01*
X24216649Y42042094D01*
X24216645Y42042087D01*
X24166403Y41907380D01*
X24166401Y41907373D01*
X24160000Y41847845D01*
X22959999Y41847845D01*
X22953598Y41907373D01*
X22953596Y41907380D01*
X22903354Y42042087D01*
X22903350Y42042094D01*
X22817190Y42157188D01*
X22817187Y42157191D01*
X22702093Y42243351D01*
X22702086Y42243355D01*
X22567379Y42293597D01*
X22567372Y42293599D01*
X22507844Y42300000D01*
X21560000Y42300000D01*
X21560000Y41550000D01*
X21060000Y41550000D01*
X21060000Y42300000D01*
X19910000Y42300000D01*
X19910000Y41550000D01*
X19410000Y41550000D01*
X19410000Y42300000D01*
X19112155Y42300000D01*
X19052627Y42293599D01*
X19052620Y42293597D01*
X18917913Y42243355D01*
X18917906Y42243351D01*
X18802812Y42157191D01*
X18802809Y42157188D01*
X18716649Y42042094D01*
X18716645Y42042087D01*
X18666403Y41907380D01*
X18666401Y41907373D01*
X18660000Y41847845D01*
X5334500Y41847845D01*
X5334500Y42573457D01*
X53863499Y42573457D01*
X53901947Y42380171D01*
X53901950Y42380161D01*
X53977364Y42198093D01*
X53977371Y42198080D01*
X54086860Y42034219D01*
X54086863Y42034215D01*
X54226214Y41894864D01*
X54226218Y41894861D01*
X54390079Y41785372D01*
X54390092Y41785365D01*
X54572160Y41709951D01*
X54572165Y41709949D01*
X54572169Y41709949D01*
X54572170Y41709948D01*
X54765456Y41671500D01*
X54765459Y41671500D01*
X54962543Y41671500D01*
X55092582Y41697368D01*
X55155835Y41709949D01*
X55337914Y41785368D01*
X55501782Y41894861D01*
X55641139Y42034218D01*
X55750632Y42198086D01*
X55826051Y42380165D01*
X55864500Y42573459D01*
X55864500Y42770541D01*
X55864500Y42770544D01*
X55826052Y42963830D01*
X55826051Y42963831D01*
X55826051Y42963835D01*
X55826049Y42963840D01*
X55750635Y43145908D01*
X55750628Y43145921D01*
X55641139Y43309782D01*
X55641136Y43309786D01*
X55501785Y43449137D01*
X55501781Y43449140D01*
X55337920Y43558629D01*
X55337907Y43558636D01*
X55155839Y43634050D01*
X55155829Y43634053D01*
X54962543Y43672500D01*
X54962541Y43672500D01*
X54765459Y43672500D01*
X54765457Y43672500D01*
X54572170Y43634053D01*
X54572160Y43634050D01*
X54390092Y43558636D01*
X54390079Y43558629D01*
X54226218Y43449140D01*
X54226214Y43449137D01*
X54086863Y43309786D01*
X54086860Y43309782D01*
X53977371Y43145921D01*
X53977364Y43145908D01*
X53901950Y42963840D01*
X53901947Y42963830D01*
X53863500Y42770544D01*
X53863500Y42770541D01*
X53863500Y42573459D01*
X53863500Y42573457D01*
X53863499Y42573457D01*
X5334500Y42573457D01*
X5334500Y45341500D01*
X5354185Y45408539D01*
X5406989Y45454294D01*
X5458500Y45465500D01*
X65661500Y45465500D01*
X65728539Y45445815D01*
G37*
%TD.AperFunction*%
%TD*%
%TA.AperFunction,Conductor*%
%TO.N,GNDA*%
G36*
X24567991Y40620315D02*
G01*
X24569830Y40619111D01*
X24581769Y40611133D01*
X24581772Y40611133D01*
X24581773Y40611132D01*
X24640247Y40599501D01*
X24640250Y40599500D01*
X24640252Y40599500D01*
X28479750Y40599500D01*
X28479751Y40599501D01*
X28538231Y40611133D01*
X28550157Y40619103D01*
X28616835Y40639980D01*
X28619048Y40640000D01*
X30500952Y40640000D01*
X30567991Y40620315D01*
X30569830Y40619111D01*
X30581769Y40611133D01*
X30581772Y40611133D01*
X30581773Y40611132D01*
X30640247Y40599501D01*
X30640250Y40599500D01*
X30640252Y40599500D01*
X34479750Y40599500D01*
X34479751Y40599501D01*
X34538231Y40611133D01*
X34550157Y40619103D01*
X34616835Y40639980D01*
X34619048Y40640000D01*
X36500952Y40640000D01*
X36567991Y40620315D01*
X36569830Y40619111D01*
X36581769Y40611133D01*
X36581772Y40611133D01*
X36581773Y40611132D01*
X36640247Y40599501D01*
X36640250Y40599500D01*
X36640252Y40599500D01*
X40479750Y40599500D01*
X40479751Y40599501D01*
X40538231Y40611133D01*
X40550157Y40619103D01*
X40616835Y40639980D01*
X40619048Y40640000D01*
X42500952Y40640000D01*
X42567991Y40620315D01*
X42569830Y40619111D01*
X42581769Y40611133D01*
X42581772Y40611133D01*
X42581773Y40611132D01*
X42640247Y40599501D01*
X42640250Y40599500D01*
X42640252Y40599500D01*
X46479750Y40599500D01*
X46479751Y40599501D01*
X46538231Y40611133D01*
X46550157Y40619103D01*
X46616835Y40639980D01*
X46619048Y40640000D01*
X48500952Y40640000D01*
X48567991Y40620315D01*
X48569830Y40619111D01*
X48581769Y40611133D01*
X48581772Y40611133D01*
X48581773Y40611132D01*
X48640247Y40599501D01*
X48640250Y40599500D01*
X48640252Y40599500D01*
X50635500Y40599500D01*
X50702539Y40579815D01*
X50748294Y40527011D01*
X50759500Y40475500D01*
X50759500Y38480248D01*
X50771131Y38421771D01*
X50775627Y38415042D01*
X50779099Y38409847D01*
X50799980Y38343171D01*
X50800000Y38340953D01*
X50800000Y37274500D01*
X50780315Y37207461D01*
X50727511Y37161706D01*
X50676000Y37150500D01*
X50384979Y37150500D01*
X50349899Y37141101D01*
X50349900Y37141100D01*
X50276761Y37121503D01*
X50276760Y37121502D01*
X50179740Y37065487D01*
X50179734Y37065483D01*
X49316517Y36202266D01*
X49316513Y36202260D01*
X49260498Y36105240D01*
X49260497Y36105237D01*
X49231500Y35997018D01*
X49231500Y32866610D01*
X49211815Y32799571D01*
X49195181Y32778929D01*
X47739071Y31322819D01*
X47677748Y31289334D01*
X47651390Y31286500D01*
X45536982Y31286500D01*
X45428763Y31257503D01*
X45428760Y31257502D01*
X45331740Y31201487D01*
X45331734Y31201483D01*
X44261917Y30131666D01*
X44261913Y30131660D01*
X44205898Y30034640D01*
X44205897Y30034639D01*
X44177743Y29929564D01*
X44169724Y29915677D01*
X44166800Y29902231D01*
X44145649Y29873977D01*
X44131491Y29859819D01*
X44070168Y29826334D01*
X44043810Y29823500D01*
X42916608Y29823500D01*
X42849569Y29843185D01*
X42803814Y29895989D01*
X42793870Y29965147D01*
X42822895Y30028703D01*
X42828892Y30035146D01*
X43012484Y30218736D01*
X43020872Y30233263D01*
X43023742Y30238233D01*
X43038145Y30263181D01*
X43068503Y30315763D01*
X43069745Y30320398D01*
X43078482Y30353001D01*
X43088437Y30390157D01*
X43097500Y30423981D01*
X43097500Y30536018D01*
X43097500Y32431500D01*
X43117185Y32498539D01*
X43169989Y32544294D01*
X43221500Y32555500D01*
X44848016Y32555500D01*
X44848018Y32555500D01*
X44956237Y32584497D01*
X45053263Y32640515D01*
X45929341Y33516593D01*
X45990664Y33550078D01*
X46017022Y33552912D01*
X46064136Y33552912D01*
X46091218Y33556858D01*
X46132268Y33562839D01*
X46237358Y33614214D01*
X46320073Y33696929D01*
X46371448Y33802019D01*
X46381375Y33870152D01*
X46381375Y33941412D01*
X46401060Y34008451D01*
X46453864Y34054206D01*
X46505375Y34065412D01*
X46778181Y34065412D01*
X46845220Y34045727D01*
X46877951Y34015045D01*
X46954848Y33910852D01*
X46954849Y33910852D01*
X46954850Y33910850D01*
X47064118Y33830207D01*
X47106845Y33815256D01*
X47192299Y33785354D01*
X47222730Y33782500D01*
X47222734Y33782500D01*
X48281270Y33782500D01*
X48311699Y33785354D01*
X48311701Y33785354D01*
X48375790Y33807781D01*
X48439882Y33830207D01*
X48549150Y33910850D01*
X48629793Y34020118D01*
X48652219Y34084210D01*
X48674646Y34148299D01*
X48674646Y34148301D01*
X48677500Y34178731D01*
X48677500Y34787270D01*
X48674646Y34817700D01*
X48674646Y34817702D01*
X48629793Y34945881D01*
X48629792Y34945883D01*
X48614371Y34966778D01*
X48549150Y35055150D01*
X48439882Y35135793D01*
X48439880Y35135794D01*
X48375967Y35158158D01*
X48319191Y35198880D01*
X48293444Y35263832D01*
X48306901Y35332394D01*
X48355288Y35382797D01*
X48377918Y35392905D01*
X48546119Y35448642D01*
X48546124Y35448644D01*
X48695345Y35540685D01*
X48819315Y35664655D01*
X48911356Y35813876D01*
X48911358Y35813881D01*
X48966505Y35980303D01*
X48966506Y35980310D01*
X48976999Y36083014D01*
X48977000Y36083027D01*
X48977000Y36133000D01*
X46527001Y36133000D01*
X46527001Y36083014D01*
X46537494Y35980303D01*
X46592641Y35813881D01*
X46592643Y35813876D01*
X46684684Y35664655D01*
X46808654Y35540685D01*
X46957875Y35448644D01*
X46957882Y35448641D01*
X47126081Y35392906D01*
X47183526Y35353134D01*
X47210350Y35288618D01*
X47198035Y35219842D01*
X47150493Y35168642D01*
X47128035Y35158159D01*
X47093671Y35146134D01*
X47064118Y35135793D01*
X47064117Y35135793D01*
X47064116Y35135792D01*
X46954850Y35055150D01*
X46889629Y34966778D01*
X46833982Y34924528D01*
X46789859Y34916412D01*
X46505375Y34916412D01*
X46438336Y34936097D01*
X46392581Y34988901D01*
X46381375Y35040412D01*
X46381375Y35111673D01*
X46371448Y35179804D01*
X46371448Y35179805D01*
X46320073Y35284895D01*
X46320071Y35284897D01*
X46320071Y35284898D01*
X46237360Y35367609D01*
X46132266Y35418986D01*
X46064136Y35428912D01*
X46064135Y35428912D01*
X45821365Y35428912D01*
X45754326Y35448597D01*
X45708571Y35501401D01*
X45698627Y35570559D01*
X45702289Y35587507D01*
X45727974Y35675917D01*
X45727975Y35675923D01*
X45730874Y35712763D01*
X45730875Y35712778D01*
X45730875Y36115912D01*
X45180875Y36115912D01*
X45180875Y35131117D01*
X45180876Y35131117D01*
X45183361Y35131312D01*
X45221780Y35142473D01*
X45291650Y35142273D01*
X45350320Y35104330D01*
X45379163Y35040692D01*
X45380375Y35023396D01*
X45380375Y34222485D01*
X45360690Y34155446D01*
X45344056Y34134804D01*
X44652071Y33442819D01*
X44625143Y33428116D01*
X44599325Y33411523D01*
X44593124Y33410632D01*
X44590748Y33409334D01*
X44564390Y33406500D01*
X44429007Y33406500D01*
X44361968Y33426185D01*
X44316213Y33478989D01*
X44306269Y33548147D01*
X44335294Y33611703D01*
X44341326Y33618181D01*
X44420071Y33696927D01*
X44420073Y33696929D01*
X44471448Y33802019D01*
X44481375Y33870152D01*
X44481375Y35023396D01*
X44501060Y35090435D01*
X44553864Y35136190D01*
X44623022Y35146134D01*
X44639970Y35142473D01*
X44678389Y35131312D01*
X44678386Y35131312D01*
X44680873Y35131117D01*
X44680875Y35131117D01*
X44680875Y36115912D01*
X44130875Y36115912D01*
X44130875Y35712763D01*
X44133774Y35675923D01*
X44133775Y35675917D01*
X44159461Y35587507D01*
X44159262Y35517637D01*
X44121320Y35458967D01*
X44057681Y35430124D01*
X44040385Y35428912D01*
X43797614Y35428912D01*
X43729483Y35418986D01*
X43624389Y35367609D01*
X43541678Y35284898D01*
X43490301Y35179804D01*
X43480375Y35111673D01*
X43480375Y35040412D01*
X43460690Y34973373D01*
X43407886Y34927618D01*
X43356375Y34916412D01*
X42347893Y34916412D01*
X42266593Y34894628D01*
X42196743Y34896291D01*
X42138881Y34935454D01*
X42111377Y34999683D01*
X42110500Y35014403D01*
X42110500Y35071751D01*
X42110499Y35071753D01*
X42098868Y35130230D01*
X42098867Y35130231D01*
X42054552Y35196553D01*
X41988230Y35240868D01*
X41988229Y35240869D01*
X41929752Y35252500D01*
X41929748Y35252500D01*
X40366252Y35252500D01*
X40366247Y35252500D01*
X40307770Y35240869D01*
X40307769Y35240868D01*
X40241447Y35196553D01*
X40197132Y35130231D01*
X40197131Y35130230D01*
X40185500Y35071753D01*
X40185500Y33530500D01*
X40165815Y33463461D01*
X40113011Y33417706D01*
X40061500Y33406500D01*
X34890982Y33406500D01*
X34782763Y33377503D01*
X34782760Y33377502D01*
X34685735Y33321484D01*
X34330070Y32965819D01*
X34268747Y32932334D01*
X34242389Y32929500D01*
X33665730Y32929500D01*
X33635300Y32926647D01*
X33635298Y32926647D01*
X33507119Y32881794D01*
X33507117Y32881793D01*
X33397850Y32801150D01*
X33317207Y32691883D01*
X33294842Y32627967D01*
X33254120Y32571192D01*
X33189167Y32545445D01*
X33120605Y32558902D01*
X33070203Y32607289D01*
X33060095Y32629919D01*
X33004358Y32798120D01*
X33004356Y32798125D01*
X32912315Y32947346D01*
X32788345Y33071316D01*
X32639124Y33163357D01*
X32639119Y33163359D01*
X32472697Y33218506D01*
X32472690Y33218507D01*
X32369986Y33229000D01*
X32320000Y33229000D01*
X32320000Y30779001D01*
X32369972Y30779001D01*
X32369986Y30779002D01*
X32472697Y30789495D01*
X32639119Y30844642D01*
X32639124Y30844644D01*
X32788345Y30936685D01*
X32912315Y31060655D01*
X33004356Y31209876D01*
X33004359Y31209883D01*
X33060094Y31378082D01*
X33099866Y31435527D01*
X33164382Y31462351D01*
X33233158Y31450036D01*
X33284358Y31402494D01*
X33294841Y31380035D01*
X33317207Y31316118D01*
X33395616Y31209876D01*
X33397850Y31206850D01*
X33481635Y31145014D01*
X33523884Y31089369D01*
X33532000Y31045246D01*
X33532000Y30784500D01*
X33512315Y30717461D01*
X33459511Y30671706D01*
X33408000Y30660500D01*
X33336739Y30660500D01*
X33268608Y30650574D01*
X33163514Y30599197D01*
X33080803Y30516486D01*
X33029426Y30411392D01*
X33019500Y30343261D01*
X33019500Y30100490D01*
X32999815Y30033451D01*
X32947011Y29987696D01*
X32877853Y29977752D01*
X32860905Y29981414D01*
X32772495Y30007100D01*
X32772489Y30007101D01*
X32735649Y30010000D01*
X32332500Y30010000D01*
X32332500Y29460000D01*
X33317295Y29460000D01*
X33317295Y29460002D01*
X33317100Y29462487D01*
X33305939Y29500905D01*
X33306139Y29570775D01*
X33344082Y29629445D01*
X33407720Y29658288D01*
X33425016Y29659500D01*
X34578261Y29659500D01*
X34600971Y29662809D01*
X34646393Y29669427D01*
X34751483Y29720802D01*
X34834198Y29803517D01*
X34885573Y29908607D01*
X34895500Y29976740D01*
X34895500Y30205987D01*
X35224000Y30205987D01*
X35224000Y30156000D01*
X36199000Y30156000D01*
X36699000Y30156000D01*
X37673999Y30156000D01*
X37673999Y30205972D01*
X37673998Y30205987D01*
X37663505Y30308698D01*
X37608358Y30475120D01*
X37608356Y30475125D01*
X37516315Y30624346D01*
X37392345Y30748316D01*
X37243124Y30840357D01*
X37243119Y30840359D01*
X37076697Y30895506D01*
X37076690Y30895507D01*
X36973986Y30906000D01*
X36699000Y30906000D01*
X36699000Y30156000D01*
X36199000Y30156000D01*
X36199000Y30906000D01*
X35924029Y30906000D01*
X35924012Y30905999D01*
X35821302Y30895506D01*
X35654880Y30840359D01*
X35654875Y30840357D01*
X35505654Y30748316D01*
X35381684Y30624346D01*
X35289643Y30475125D01*
X35289641Y30475120D01*
X35234494Y30308698D01*
X35234493Y30308691D01*
X35224000Y30205987D01*
X34895500Y30205987D01*
X34895500Y30343260D01*
X34885573Y30411393D01*
X34834198Y30516483D01*
X34834196Y30516485D01*
X34834196Y30516486D01*
X34751485Y30599197D01*
X34646391Y30650574D01*
X34578261Y30660500D01*
X34578260Y30660500D01*
X34507000Y30660500D01*
X34498314Y30663051D01*
X34489353Y30661762D01*
X34465312Y30672741D01*
X34439961Y30680185D01*
X34434033Y30687026D01*
X34425797Y30690787D01*
X34411507Y30713022D01*
X34394206Y30732989D01*
X34391918Y30743504D01*
X34388023Y30749565D01*
X34383000Y30784500D01*
X34383000Y31026795D01*
X34402685Y31093834D01*
X34433367Y31126565D01*
X34445991Y31135882D01*
X34542150Y31206850D01*
X34622793Y31316118D01*
X34645219Y31380210D01*
X34667646Y31444299D01*
X34667646Y31444301D01*
X34670500Y31474731D01*
X34670500Y32051390D01*
X34690185Y32118429D01*
X34706819Y32139071D01*
X35086929Y32519181D01*
X35148252Y32552666D01*
X35174610Y32555500D01*
X40061500Y32555500D01*
X40128539Y32535815D01*
X40174294Y32483011D01*
X40185500Y32431500D01*
X40185500Y30968248D01*
X40197131Y30909771D01*
X40197132Y30909770D01*
X40241447Y30843448D01*
X40307769Y30799133D01*
X40307770Y30799132D01*
X40366247Y30787501D01*
X40366250Y30787500D01*
X40366252Y30787500D01*
X40852500Y30787500D01*
X40919539Y30767815D01*
X40965294Y30715011D01*
X40976500Y30663500D01*
X40976500Y28250018D01*
X40976500Y28137982D01*
X41005497Y28029763D01*
X41061515Y27932737D01*
X41686837Y27307415D01*
X41783863Y27251397D01*
X41888937Y27223243D01*
X41944523Y27191150D01*
X41948138Y27187535D01*
X41948140Y27187534D01*
X41948144Y27187531D01*
X42002741Y27156010D01*
X42022362Y27144682D01*
X42105147Y27122500D01*
X42462350Y27122500D01*
X42512436Y27111935D01*
X42595420Y27075293D01*
X42619495Y27072500D01*
X42933700Y27072501D01*
X43000739Y27052817D01*
X43046494Y27000013D01*
X43057700Y26948501D01*
X43057700Y26562679D01*
X43038015Y26495640D01*
X42985211Y26449885D01*
X42974656Y26445638D01*
X42930518Y26430193D01*
X42821250Y26349550D01*
X42740607Y26240283D01*
X42718242Y26176367D01*
X42677520Y26119592D01*
X42612567Y26093845D01*
X42544005Y26107302D01*
X42493603Y26155689D01*
X42483495Y26178319D01*
X42427758Y26346520D01*
X42427756Y26346525D01*
X42335715Y26495746D01*
X42211745Y26619716D01*
X42062524Y26711757D01*
X42062519Y26711759D01*
X41896097Y26766906D01*
X41896090Y26766907D01*
X41793386Y26777400D01*
X41743400Y26777400D01*
X41743400Y24327401D01*
X41793372Y24327401D01*
X41793386Y24327402D01*
X41896097Y24337895D01*
X42062519Y24393042D01*
X42062524Y24393044D01*
X42211745Y24485085D01*
X42335715Y24609055D01*
X42427756Y24758276D01*
X42427759Y24758283D01*
X42483494Y24926482D01*
X42523266Y24983927D01*
X42587782Y25010751D01*
X42656558Y24998436D01*
X42707758Y24950894D01*
X42718241Y24928435D01*
X42731181Y24891456D01*
X42740607Y24864518D01*
X42821250Y24755250D01*
X42930518Y24674607D01*
X42958402Y24664850D01*
X43058699Y24629754D01*
X43089130Y24626900D01*
X43089134Y24626900D01*
X43697670Y24626900D01*
X43728099Y24629754D01*
X43728101Y24629754D01*
X43792190Y24652181D01*
X43856282Y24674607D01*
X43965550Y24755250D01*
X44046193Y24864518D01*
X44077789Y24954815D01*
X44091046Y24992699D01*
X44091046Y24992701D01*
X44093900Y25023131D01*
X44093900Y26081670D01*
X44091046Y26112100D01*
X44091046Y26112102D01*
X44050240Y26228715D01*
X44046193Y26240282D01*
X43965550Y26349550D01*
X43856282Y26430193D01*
X43812143Y26445638D01*
X43791744Y26452776D01*
X43734969Y26493498D01*
X43709222Y26558451D01*
X43708700Y26569817D01*
X43708700Y26948501D01*
X43728385Y27015540D01*
X43781189Y27061295D01*
X43832700Y27072501D01*
X44155496Y27072501D01*
X44155504Y27072501D01*
X44179580Y27075293D01*
X44246062Y27104648D01*
X44278073Y27118782D01*
X44278074Y27118783D01*
X44278079Y27118785D01*
X44354215Y27194921D01*
X44397707Y27293420D01*
X44400500Y27317495D01*
X44400499Y27498502D01*
X44403049Y27507187D01*
X44401761Y27516148D01*
X44412738Y27540186D01*
X44420183Y27565540D01*
X44427025Y27571469D01*
X44430786Y27579704D01*
X44453017Y27593991D01*
X44472987Y27611295D01*
X44483502Y27613583D01*
X44489564Y27617478D01*
X44524499Y27622501D01*
X44586010Y27622501D01*
X44653049Y27602816D01*
X44673691Y27586182D01*
X44712734Y27547139D01*
X44712735Y27547138D01*
X44773338Y27486535D01*
X44773340Y27486534D01*
X44773344Y27486531D01*
X44847555Y27443686D01*
X44847562Y27443682D01*
X44930347Y27421500D01*
X45016053Y27421500D01*
X45341153Y27421500D01*
X45408192Y27401815D01*
X45453947Y27349011D01*
X45458187Y27338472D01*
X45477207Y27284118D01*
X45557850Y27174850D01*
X45667118Y27094207D01*
X45709845Y27079256D01*
X45795299Y27049354D01*
X45825730Y27046500D01*
X45825734Y27046500D01*
X46884270Y27046500D01*
X46914699Y27049354D01*
X46914701Y27049354D01*
X46980852Y27072502D01*
X47042882Y27094207D01*
X47152150Y27174850D01*
X47208645Y27251398D01*
X47223210Y27271133D01*
X47227189Y27274155D01*
X47229267Y27278703D01*
X47254745Y27295077D01*
X47278857Y27313384D01*
X47284986Y27314512D01*
X47288045Y27316477D01*
X47322980Y27321500D01*
X47419020Y27321500D01*
X47486059Y27301815D01*
X47518790Y27271133D01*
X47589848Y27174852D01*
X47589849Y27174852D01*
X47589850Y27174850D01*
X47699118Y27094207D01*
X47741845Y27079256D01*
X47827299Y27049354D01*
X47857730Y27046500D01*
X47857734Y27046500D01*
X48728990Y27046500D01*
X48796029Y27026815D01*
X48816671Y27010181D01*
X49078639Y26748213D01*
X49112124Y26686890D01*
X49107140Y26617198D01*
X49065268Y26561265D01*
X48999804Y26536848D01*
X48950006Y26543490D01*
X48946703Y26544646D01*
X48946699Y26544647D01*
X48916270Y26547500D01*
X48916266Y26547500D01*
X47857734Y26547500D01*
X47857730Y26547500D01*
X47827300Y26544647D01*
X47827298Y26544647D01*
X47699119Y26499794D01*
X47699117Y26499793D01*
X47589850Y26419150D01*
X47509207Y26309883D01*
X47509206Y26309881D01*
X47488041Y26249394D01*
X47447319Y26192618D01*
X47382366Y26166871D01*
X47313805Y26180328D01*
X47263402Y26228715D01*
X47253959Y26249394D01*
X47242483Y26282188D01*
X47232793Y26309882D01*
X47152150Y26419150D01*
X47042882Y26499793D01*
X47042880Y26499794D01*
X46914700Y26544647D01*
X46884270Y26547500D01*
X46884266Y26547500D01*
X45825734Y26547500D01*
X45825730Y26547500D01*
X45795300Y26544647D01*
X45795298Y26544647D01*
X45667119Y26499794D01*
X45667117Y26499793D01*
X45557850Y26419150D01*
X45477207Y26309883D01*
X45477206Y26309881D01*
X45432353Y26181702D01*
X45432353Y26181700D01*
X45429500Y26151270D01*
X45429500Y25542731D01*
X45432353Y25512301D01*
X45432353Y25512299D01*
X45477206Y25384120D01*
X45477207Y25384118D01*
X45557850Y25274850D01*
X45667118Y25194207D01*
X45709845Y25179256D01*
X45795299Y25149354D01*
X45825730Y25146500D01*
X45825734Y25146500D01*
X46884270Y25146500D01*
X46914699Y25149354D01*
X46914701Y25149354D01*
X46978790Y25171781D01*
X47042882Y25194207D01*
X47152150Y25274850D01*
X47232793Y25384118D01*
X47253959Y25444607D01*
X47294680Y25501383D01*
X47359633Y25527130D01*
X47428195Y25513674D01*
X47478598Y25465286D01*
X47488041Y25444607D01*
X47509207Y25384118D01*
X47589850Y25274850D01*
X47699118Y25194207D01*
X47741845Y25179256D01*
X47827299Y25149354D01*
X47857730Y25146500D01*
X47857734Y25146500D01*
X48916270Y25146500D01*
X48946699Y25149354D01*
X48946701Y25149354D01*
X49010790Y25171781D01*
X49074882Y25194207D01*
X49184150Y25274850D01*
X49264793Y25384118D01*
X49289952Y25456018D01*
X49309646Y25512299D01*
X49309646Y25512301D01*
X49312500Y25542731D01*
X49312500Y26151270D01*
X49309796Y26180098D01*
X49309646Y26181699D01*
X49308491Y26185000D01*
X49308358Y26187598D01*
X49308036Y26189073D01*
X49308280Y26189127D01*
X49304927Y26254779D01*
X49339653Y26315407D01*
X49401645Y26347637D01*
X49471221Y26341234D01*
X49513212Y26313640D01*
X50092337Y25734515D01*
X50189363Y25678497D01*
X50297582Y25649500D01*
X50297584Y25649500D01*
X50676000Y25649500D01*
X50684685Y25646950D01*
X50693647Y25648238D01*
X50717687Y25637260D01*
X50743039Y25629815D01*
X50748966Y25622975D01*
X50757203Y25619213D01*
X50771492Y25596979D01*
X50788794Y25577011D01*
X50791081Y25566497D01*
X50794977Y25560435D01*
X50800000Y25525500D01*
X50800000Y25441500D01*
X50780315Y25374461D01*
X50727511Y25328706D01*
X50676000Y25317500D01*
X50439179Y25317500D01*
X50394463Y25305519D01*
X50394464Y25305518D01*
X50330961Y25288503D01*
X50330960Y25288502D01*
X50233940Y25232487D01*
X50233934Y25232483D01*
X48069271Y23067819D01*
X48007948Y23034334D01*
X47981590Y23031500D01*
X41375610Y23031500D01*
X41308571Y23051185D01*
X41287929Y23067819D01*
X39624319Y24731429D01*
X39590834Y24792752D01*
X39588000Y24819110D01*
X39588000Y25027414D01*
X40493401Y25027414D01*
X40503894Y24924703D01*
X40559041Y24758281D01*
X40559043Y24758276D01*
X40651084Y24609055D01*
X40775054Y24485085D01*
X40924275Y24393044D01*
X40924280Y24393042D01*
X41090702Y24337895D01*
X41090709Y24337894D01*
X41193419Y24327401D01*
X41243399Y24327402D01*
X41243400Y24327402D01*
X41243400Y25302400D01*
X40493401Y25302400D01*
X40493401Y25027414D01*
X39588000Y25027414D01*
X39588000Y26077387D01*
X40493400Y26077387D01*
X40493400Y25802400D01*
X41243400Y25802400D01*
X41243400Y26777400D01*
X41243399Y26777401D01*
X41193429Y26777400D01*
X41193411Y26777399D01*
X41090702Y26766906D01*
X40924280Y26711759D01*
X40924275Y26711757D01*
X40775054Y26619716D01*
X40651084Y26495746D01*
X40559043Y26346525D01*
X40559041Y26346520D01*
X40503894Y26180098D01*
X40503893Y26180091D01*
X40493400Y26077387D01*
X39588000Y26077387D01*
X39588000Y26899516D01*
X39588000Y26899518D01*
X39583474Y26916410D01*
X39585137Y26986258D01*
X39624300Y27044120D01*
X39688528Y27071624D01*
X39703249Y27072501D01*
X39930496Y27072501D01*
X39930504Y27072501D01*
X39954580Y27075293D01*
X40021062Y27104648D01*
X40053073Y27118782D01*
X40053074Y27118783D01*
X40053079Y27118785D01*
X40129215Y27194921D01*
X40172707Y27293420D01*
X40175500Y27317495D01*
X40175499Y27578504D01*
X40172707Y27602580D01*
X40152689Y27647914D01*
X40143618Y27717191D01*
X40152691Y27748088D01*
X40172706Y27793416D01*
X40172706Y27793417D01*
X40172706Y27793418D01*
X40172707Y27793420D01*
X40175500Y27817495D01*
X40175499Y28078504D01*
X40172707Y28102580D01*
X40152689Y28147914D01*
X40148795Y28177657D01*
X40142449Y28206967D01*
X40144092Y28213567D01*
X40143618Y28217191D01*
X40149985Y28241447D01*
X40151242Y28244810D01*
X40172707Y28293420D01*
X40174181Y28306126D01*
X40179475Y28320277D01*
X40191738Y28336627D01*
X40199719Y28355444D01*
X40220127Y28375205D01*
X40306509Y28441490D01*
X40306510Y28441491D01*
X40400680Y28564214D01*
X40400683Y28564220D01*
X40459878Y28707132D01*
X40468551Y28773000D01*
X40088783Y28773000D01*
X40080097Y28775551D01*
X40071136Y28774262D01*
X40038696Y28783566D01*
X39954581Y28820707D01*
X39930508Y28823500D01*
X38394503Y28823500D01*
X38394494Y28823499D01*
X38370419Y28820707D01*
X38370418Y28820707D01*
X38287437Y28784066D01*
X38280694Y28783184D01*
X38237350Y28773500D01*
X37925852Y28773500D01*
X37918223Y28773000D01*
X37856449Y28773000D01*
X37840751Y28755100D01*
X37838117Y28752939D01*
X37837269Y28751293D01*
X37809526Y28729474D01*
X37782443Y28713837D01*
X37777921Y28711227D01*
X37773135Y28708464D01*
X37516479Y28451807D01*
X37455156Y28418322D01*
X37385464Y28423306D01*
X37329531Y28465178D01*
X37329028Y28465854D01*
X37301749Y28502816D01*
X37246150Y28578150D01*
X37136882Y28658793D01*
X37136880Y28658794D01*
X37072967Y28681158D01*
X37016191Y28721880D01*
X36990444Y28786832D01*
X37003901Y28855394D01*
X37052288Y28905797D01*
X37074918Y28915905D01*
X37243119Y28971642D01*
X37243124Y28971644D01*
X37392345Y29063685D01*
X37451662Y29123001D01*
X37856448Y29123001D01*
X37856449Y29123000D01*
X38236217Y29123000D01*
X38246046Y29120927D01*
X38252493Y29121927D01*
X38262653Y29117424D01*
X38286304Y29112434D01*
X38370420Y29075293D01*
X38394495Y29072500D01*
X39930504Y29072501D01*
X39954580Y29075293D01*
X39976538Y29084989D01*
X40038697Y29112434D01*
X40088783Y29123000D01*
X40468549Y29123000D01*
X40468550Y29123002D01*
X40459881Y29188860D01*
X40459877Y29188872D01*
X40400683Y29331781D01*
X40400680Y29331787D01*
X40306510Y29454510D01*
X40306509Y29454511D01*
X40220127Y29520795D01*
X40178925Y29577223D01*
X40174684Y29595310D01*
X40172707Y29602576D01*
X40172707Y29602580D01*
X40164930Y29620194D01*
X40129218Y29701074D01*
X40129216Y29701077D01*
X40129215Y29701079D01*
X40053079Y29777215D01*
X39993516Y29803515D01*
X39954581Y29820707D01*
X39930508Y29823500D01*
X39930505Y29823500D01*
X39825463Y29823500D01*
X39758424Y29843185D01*
X39712669Y29895989D01*
X39702725Y29965147D01*
X39705688Y29979593D01*
X39707859Y29987696D01*
X39716500Y30019943D01*
X39716500Y30178057D01*
X39675577Y30330784D01*
X39668374Y30343260D01*
X39596524Y30467710D01*
X39596518Y30467718D01*
X39484717Y30579519D01*
X39484709Y30579525D01*
X39347790Y30658574D01*
X39347786Y30658576D01*
X39347784Y30658577D01*
X39195057Y30699500D01*
X39036943Y30699500D01*
X38884216Y30658577D01*
X38884209Y30658574D01*
X38747290Y30579525D01*
X38747282Y30579519D01*
X38635481Y30467718D01*
X38635475Y30467710D01*
X38556426Y30330791D01*
X38556423Y30330784D01*
X38515500Y30178057D01*
X38515500Y30019943D01*
X38518941Y30007100D01*
X38526312Y29979593D01*
X38524649Y29909743D01*
X38485486Y29851881D01*
X38421258Y29824377D01*
X38406545Y29823500D01*
X38394507Y29823500D01*
X38394494Y29823499D01*
X38370419Y29820707D01*
X38370415Y29820706D01*
X38271926Y29777219D01*
X38271918Y29777213D01*
X38195787Y29701082D01*
X38195783Y29701075D01*
X38152293Y29602583D01*
X38149845Y29593582D01*
X38147985Y29594088D01*
X38125269Y29540543D01*
X38104873Y29520795D01*
X38018488Y29454509D01*
X37924319Y29331787D01*
X37924316Y29331781D01*
X37865121Y29188869D01*
X37856448Y29123001D01*
X37451662Y29123001D01*
X37499825Y29171164D01*
X37516315Y29187655D01*
X37608356Y29336876D01*
X37608358Y29336881D01*
X37663505Y29503303D01*
X37663506Y29503310D01*
X37673999Y29606014D01*
X37674000Y29606027D01*
X37674000Y29656000D01*
X35224001Y29656000D01*
X35224001Y29606014D01*
X35234494Y29503303D01*
X35289641Y29336881D01*
X35289643Y29336876D01*
X35381684Y29187655D01*
X35505654Y29063685D01*
X35654875Y28971644D01*
X35654882Y28971641D01*
X35823081Y28915906D01*
X35880526Y28876134D01*
X35907350Y28811618D01*
X35895035Y28742842D01*
X35847493Y28691642D01*
X35825035Y28681159D01*
X35783422Y28666598D01*
X35761118Y28658793D01*
X35761117Y28658793D01*
X35761116Y28658792D01*
X35651848Y28578149D01*
X35580790Y28481867D01*
X35525143Y28439616D01*
X35481020Y28431500D01*
X35001729Y28431500D01*
X34934690Y28451185D01*
X34889951Y28502816D01*
X34889802Y28502742D01*
X34889525Y28503308D01*
X34888935Y28503989D01*
X34888025Y28506377D01*
X34885573Y28511393D01*
X34834198Y28616483D01*
X34834196Y28616485D01*
X34834196Y28616486D01*
X34751485Y28699197D01*
X34646391Y28750574D01*
X34578261Y28760500D01*
X34578260Y28760500D01*
X33425016Y28760500D01*
X33357977Y28780185D01*
X33312222Y28832989D01*
X33302278Y28902147D01*
X33305939Y28919095D01*
X33317100Y28957514D01*
X33317295Y28959999D01*
X33317295Y28960000D01*
X32206500Y28960000D01*
X32139461Y28979685D01*
X32093706Y29032489D01*
X32082500Y29084000D01*
X32082500Y29210000D01*
X31956500Y29210000D01*
X31889461Y29229685D01*
X31843706Y29282489D01*
X31832500Y29334000D01*
X31832500Y30010000D01*
X31429350Y30010000D01*
X31392510Y30007101D01*
X31392504Y30007100D01*
X31234806Y29961284D01*
X31234803Y29961283D01*
X31093447Y29877686D01*
X31093438Y29877679D01*
X30977321Y29761562D01*
X30977314Y29761553D01*
X30893717Y29620197D01*
X30893716Y29620194D01*
X30846132Y29456407D01*
X30844435Y29456900D01*
X30816844Y29402107D01*
X30756670Y29366598D01*
X30686851Y29369258D01*
X30638610Y29399138D01*
X30306819Y29730929D01*
X30292115Y29757857D01*
X30275523Y29783675D01*
X30274631Y29789876D01*
X30273334Y29792252D01*
X30270500Y29818610D01*
X30270500Y29849854D01*
X30290185Y29916893D01*
X30342989Y29962648D01*
X30382919Y29973312D01*
X30404699Y29975354D01*
X30404701Y29975355D01*
X30404704Y29975355D01*
X30470991Y29998551D01*
X30532882Y30020207D01*
X30642150Y30100850D01*
X30722793Y30210118D01*
X30748505Y30283598D01*
X30767646Y30338299D01*
X30767646Y30338301D01*
X30770500Y30368731D01*
X30770500Y30977270D01*
X30767646Y31007700D01*
X30767646Y31007702D01*
X30722793Y31135881D01*
X30722792Y31135883D01*
X30707400Y31156739D01*
X30642150Y31245150D01*
X30532882Y31325793D01*
X30532880Y31325794D01*
X30468967Y31348158D01*
X30412191Y31388880D01*
X30386444Y31453832D01*
X30399901Y31522394D01*
X30448288Y31572797D01*
X30470918Y31582905D01*
X30639119Y31638642D01*
X30639124Y31638644D01*
X30788342Y31730683D01*
X30858318Y31800659D01*
X30919641Y31834144D01*
X30989333Y31829160D01*
X31045267Y31787289D01*
X31069684Y31721825D01*
X31070000Y31712979D01*
X31070000Y31479030D01*
X31070001Y31479013D01*
X31080494Y31376303D01*
X31135641Y31209881D01*
X31135643Y31209876D01*
X31227684Y31060655D01*
X31351654Y30936685D01*
X31500875Y30844644D01*
X31500880Y30844642D01*
X31667302Y30789495D01*
X31667309Y30789494D01*
X31770019Y30779001D01*
X31819999Y30779002D01*
X31820000Y30779002D01*
X31820000Y33229000D01*
X31819999Y33229001D01*
X31770029Y33229000D01*
X31770011Y33228999D01*
X31667302Y33218506D01*
X31500880Y33163359D01*
X31500875Y33163357D01*
X31351657Y33071318D01*
X31250573Y32970234D01*
X31189250Y32936750D01*
X31119558Y32941734D01*
X31063625Y32983606D01*
X31045186Y33018912D01*
X31004358Y33142120D01*
X31004356Y33142125D01*
X30912315Y33291346D01*
X30788345Y33415316D01*
X30639124Y33507357D01*
X30639119Y33507359D01*
X30472697Y33562506D01*
X30472690Y33562507D01*
X30369986Y33573000D01*
X30095000Y33573000D01*
X30095000Y32697000D01*
X30075315Y32629961D01*
X30022511Y32584206D01*
X29971000Y32573000D01*
X29845000Y32573000D01*
X29845000Y32447000D01*
X29825315Y32379961D01*
X29772511Y32334206D01*
X29721000Y32323000D01*
X28596091Y32323000D01*
X28587424Y32318268D01*
X28517733Y32323257D01*
X28473393Y32351755D01*
X27952161Y32872987D01*
X28620000Y32872987D01*
X28620000Y32823000D01*
X29595000Y32823000D01*
X29595000Y33573000D01*
X29320029Y33573000D01*
X29320012Y33572999D01*
X29217302Y33562506D01*
X29050880Y33507359D01*
X29050875Y33507357D01*
X28901654Y33415316D01*
X28777684Y33291346D01*
X28685643Y33142125D01*
X28685641Y33142120D01*
X28630494Y32975698D01*
X28630493Y32975691D01*
X28620000Y32872987D01*
X27952161Y32872987D01*
X27542765Y33282383D01*
X27542763Y33282385D01*
X27445737Y33338403D01*
X27337518Y33367400D01*
X27337517Y33367400D01*
X27088806Y33367400D01*
X27021767Y33387085D01*
X26989036Y33417766D01*
X26970546Y33442819D01*
X26908750Y33526550D01*
X26799482Y33607193D01*
X26799480Y33607194D01*
X26671300Y33652047D01*
X26640870Y33654900D01*
X26640866Y33654900D01*
X25632334Y33654900D01*
X25632330Y33654900D01*
X25601900Y33652047D01*
X25601898Y33652047D01*
X25473719Y33607194D01*
X25473717Y33607193D01*
X25364450Y33526550D01*
X25284164Y33417766D01*
X25228516Y33375516D01*
X25184394Y33367400D01*
X24986481Y33367400D01*
X24880988Y33339134D01*
X24880987Y33339133D01*
X24879171Y33338647D01*
X24878262Y33338403D01*
X24781240Y33282387D01*
X24781234Y33282383D01*
X24702013Y33203161D01*
X22454296Y30955445D01*
X22454295Y30955445D01*
X22454296Y30955444D01*
X22392514Y30893662D01*
X22392513Y30893660D01*
X22336498Y30796640D01*
X22336497Y30796637D01*
X22307500Y30688418D01*
X22307500Y27907803D01*
X22287815Y27840764D01*
X22235011Y27795009D01*
X22205481Y27787121D01*
X22205670Y27786256D01*
X22198298Y27784647D01*
X22070119Y27739794D01*
X22070117Y27739793D01*
X21960850Y27659150D01*
X21880207Y27549883D01*
X21880206Y27549881D01*
X21835353Y27421702D01*
X21835353Y27421700D01*
X21832500Y27391270D01*
X21832500Y26757731D01*
X21835353Y26727301D01*
X21835353Y26727299D01*
X21880206Y26599120D01*
X21880207Y26599118D01*
X21960850Y26489850D01*
X22070118Y26409207D01*
X22078569Y26406250D01*
X22198299Y26364354D01*
X22228730Y26361500D01*
X22228734Y26361500D01*
X23237270Y26361500D01*
X23267699Y26364354D01*
X23267701Y26364354D01*
X23331790Y26386781D01*
X23395882Y26409207D01*
X23505150Y26489850D01*
X23585793Y26599118D01*
X23625208Y26711759D01*
X23630646Y26727299D01*
X23630646Y26727301D01*
X23633500Y26757731D01*
X23633500Y27391270D01*
X23630646Y27421700D01*
X23630646Y27421702D01*
X23586753Y27547138D01*
X23585793Y27549882D01*
X23505150Y27659150D01*
X23395882Y27739793D01*
X23395880Y27739794D01*
X23267701Y27784647D01*
X23260330Y27786256D01*
X23260792Y27788376D01*
X23205996Y27810217D01*
X23165381Y27867069D01*
X23158500Y27907803D01*
X23158500Y30404791D01*
X23178185Y30471830D01*
X23194819Y30492472D01*
X24156179Y31453832D01*
X25133112Y32430766D01*
X25194433Y32464249D01*
X25264125Y32459265D01*
X25320058Y32417393D01*
X25320561Y32416717D01*
X25325631Y32409848D01*
X25364450Y32357250D01*
X25473718Y32276607D01*
X25516445Y32261656D01*
X25601899Y32231754D01*
X25632330Y32228900D01*
X25632334Y32228900D01*
X26640870Y32228900D01*
X26671299Y32231754D01*
X26671301Y32231754D01*
X26735390Y32254181D01*
X26799482Y32276607D01*
X26908750Y32357250D01*
X26956368Y32421771D01*
X26974209Y32445944D01*
X27029856Y32488195D01*
X27099512Y32493654D01*
X27161062Y32460587D01*
X27161660Y32459992D01*
X28883181Y30738471D01*
X28916666Y30677148D01*
X28919500Y30650790D01*
X28919500Y30368731D01*
X28922353Y30338301D01*
X28922353Y30338299D01*
X28967206Y30210120D01*
X28967207Y30210118D01*
X29047850Y30100850D01*
X29157118Y30020207D01*
X29186288Y30010000D01*
X29285295Y29975355D01*
X29285299Y29975355D01*
X29285301Y29975354D01*
X29307078Y29973312D01*
X29371984Y29947456D01*
X29412610Y29890612D01*
X29419500Y29849854D01*
X29419500Y29647018D01*
X29419500Y29534982D01*
X29448497Y29426763D01*
X29504515Y29329737D01*
X29504516Y29329736D01*
X29504517Y29329735D01*
X30831174Y28003079D01*
X30831184Y28003068D01*
X30835514Y27998738D01*
X30835515Y27998737D01*
X30914737Y27919515D01*
X31011763Y27863497D01*
X31119981Y27834500D01*
X31119982Y27834500D01*
X33106809Y27834500D01*
X33161269Y27821901D01*
X33163516Y27820803D01*
X33163517Y27820802D01*
X33268607Y27769427D01*
X33302673Y27764464D01*
X33336739Y27759500D01*
X33336740Y27759500D01*
X33804890Y27759500D01*
X33826386Y27753188D01*
X33848729Y27751492D01*
X33862544Y27742571D01*
X33871929Y27739815D01*
X33879632Y27734443D01*
X33886488Y27729264D01*
X33950237Y27665515D01*
X34031176Y27618785D01*
X34047263Y27609497D01*
X34155481Y27580500D01*
X34155482Y27580500D01*
X35481020Y27580500D01*
X35548059Y27560815D01*
X35580790Y27530133D01*
X35651848Y27433852D01*
X35651849Y27433852D01*
X35651850Y27433850D01*
X35761118Y27353207D01*
X35773110Y27349011D01*
X35889299Y27308354D01*
X35919730Y27305500D01*
X36818389Y27305500D01*
X36885428Y27285815D01*
X36931183Y27233011D01*
X36941127Y27163853D01*
X36912102Y27100297D01*
X36906070Y27093819D01*
X34556071Y24743819D01*
X34494748Y24710334D01*
X34468390Y24707500D01*
X31440930Y24707500D01*
X31373891Y24727185D01*
X31328136Y24779989D01*
X31317572Y24844103D01*
X31323999Y24907014D01*
X31324000Y24907027D01*
X31324000Y24957000D01*
X28874001Y24957000D01*
X28874001Y24907011D01*
X28880428Y24844101D01*
X28867658Y24775408D01*
X28819777Y24724524D01*
X28757070Y24707500D01*
X28718100Y24707500D01*
X28651061Y24727185D01*
X28605306Y24779989D01*
X28594100Y24831500D01*
X28594100Y25506987D01*
X28874000Y25506987D01*
X28874000Y25457000D01*
X29849000Y25457000D01*
X30349000Y25457000D01*
X31323999Y25457000D01*
X31323999Y25506972D01*
X31323998Y25506987D01*
X31313505Y25609698D01*
X31258358Y25776120D01*
X31258356Y25776125D01*
X31166315Y25925346D01*
X31042345Y26049316D01*
X30893124Y26141357D01*
X30893119Y26141359D01*
X30726697Y26196506D01*
X30726690Y26196507D01*
X30623986Y26207000D01*
X30349000Y26207000D01*
X30349000Y25457000D01*
X29849000Y25457000D01*
X29849000Y26207000D01*
X29574029Y26207000D01*
X29574012Y26206999D01*
X29471302Y26196506D01*
X29304880Y26141359D01*
X29304875Y26141357D01*
X29155654Y26049316D01*
X29031684Y25925346D01*
X28939643Y25776125D01*
X28939641Y25776120D01*
X28884494Y25609698D01*
X28884493Y25609691D01*
X28874000Y25506987D01*
X28594100Y25506987D01*
X28594100Y26359417D01*
X28613785Y26426456D01*
X28618330Y26433050D01*
X28679190Y26515514D01*
X28679189Y26515514D01*
X28679193Y26515518D01*
X28708446Y26599118D01*
X28724046Y26643699D01*
X28724046Y26643701D01*
X28726900Y26674131D01*
X28726900Y27732670D01*
X28724046Y27763100D01*
X28724046Y27763102D01*
X28679193Y27891281D01*
X28679192Y27891283D01*
X28648599Y27932735D01*
X28598550Y28000550D01*
X28544394Y28040519D01*
X28502266Y28071611D01*
X28499243Y28075592D01*
X28494697Y28077668D01*
X28478326Y28103142D01*
X28460015Y28127259D01*
X28458887Y28133390D01*
X28456923Y28136446D01*
X28451900Y28171381D01*
X28451900Y28361671D01*
X28471585Y28428710D01*
X28502267Y28461441D01*
X28558995Y28503308D01*
X28573550Y28514050D01*
X28654193Y28623318D01*
X28680744Y28699197D01*
X28699046Y28751499D01*
X28699046Y28751501D01*
X28701900Y28781931D01*
X28701900Y29790470D01*
X28699046Y29820900D01*
X28699046Y29820902D01*
X28662123Y29926418D01*
X28654193Y29949082D01*
X28573550Y30058350D01*
X28464282Y30138993D01*
X28464280Y30138994D01*
X28336100Y30183847D01*
X28305670Y30186700D01*
X28305666Y30186700D01*
X27672134Y30186700D01*
X27672130Y30186700D01*
X27641700Y30183847D01*
X27641698Y30183847D01*
X27513519Y30138994D01*
X27513517Y30138993D01*
X27404250Y30058350D01*
X27323607Y29949083D01*
X27323606Y29949081D01*
X27278753Y29820902D01*
X27278753Y29820900D01*
X27275900Y29790470D01*
X27275900Y28781931D01*
X27278753Y28751501D01*
X27278753Y28751499D01*
X27323606Y28623320D01*
X27323607Y28623318D01*
X27404250Y28514050D01*
X27488587Y28451807D01*
X27513518Y28433407D01*
X27513521Y28433406D01*
X27517852Y28431890D01*
X27536841Y28418271D01*
X27558103Y28408561D01*
X27564705Y28398287D01*
X27574629Y28391170D01*
X27583242Y28369444D01*
X27595877Y28349783D01*
X27598631Y28330623D01*
X27600378Y28326218D01*
X27600900Y28314848D01*
X27600900Y28171381D01*
X27581215Y28104342D01*
X27550534Y28071611D01*
X27454250Y28000550D01*
X27373607Y27891283D01*
X27373606Y27891281D01*
X27328753Y27763102D01*
X27328753Y27763100D01*
X27325900Y27732670D01*
X27325900Y26905010D01*
X27306215Y26837971D01*
X27253411Y26792216D01*
X27184253Y26782272D01*
X27120697Y26811297D01*
X27114219Y26817329D01*
X26863219Y27068329D01*
X26829734Y27129652D01*
X26826900Y27156010D01*
X26826900Y27732670D01*
X26824046Y27763100D01*
X26824046Y27763102D01*
X26779193Y27891281D01*
X26779192Y27891283D01*
X26748599Y27932735D01*
X26698550Y28000550D01*
X26639765Y28043935D01*
X26636743Y28047915D01*
X26632197Y28049991D01*
X26615825Y28075466D01*
X26597516Y28099581D01*
X26596388Y28105711D01*
X26594423Y28108769D01*
X26589400Y28143704D01*
X26589400Y28333995D01*
X26609085Y28401034D01*
X26639767Y28433765D01*
X26733328Y28502816D01*
X26748550Y28514050D01*
X26829193Y28623318D01*
X26855744Y28699197D01*
X26874046Y28751499D01*
X26874046Y28751501D01*
X26876900Y28781931D01*
X26876900Y29790470D01*
X26874046Y29820900D01*
X26874046Y29820902D01*
X26837123Y29926418D01*
X26829193Y29949082D01*
X26748550Y30058350D01*
X26639282Y30138993D01*
X26639281Y30138994D01*
X26639279Y30138995D01*
X26631067Y30143335D01*
X26632485Y30146019D01*
X26626148Y30150565D01*
X26604897Y30160270D01*
X26598288Y30170553D01*
X26588359Y30177677D01*
X26579754Y30199394D01*
X26567123Y30219048D01*
X26564364Y30238233D01*
X26562621Y30242633D01*
X26562100Y30253983D01*
X26562100Y30283598D01*
X26581785Y30350637D01*
X26634589Y30396392D01*
X26664119Y30404278D01*
X26663930Y30405144D01*
X26671301Y30406754D01*
X26735390Y30429181D01*
X26799482Y30451607D01*
X26908750Y30532250D01*
X26989393Y30641518D01*
X27021400Y30732989D01*
X27034246Y30769699D01*
X27034246Y30769701D01*
X27037100Y30800131D01*
X27037100Y31433670D01*
X27034246Y31464100D01*
X27034246Y31464102D01*
X26989393Y31592281D01*
X26989392Y31592283D01*
X26908750Y31701550D01*
X26799482Y31782193D01*
X26799480Y31782194D01*
X26671300Y31827047D01*
X26640870Y31829900D01*
X26640866Y31829900D01*
X25632334Y31829900D01*
X25632330Y31829900D01*
X25601900Y31827047D01*
X25601898Y31827047D01*
X25473719Y31782194D01*
X25473717Y31782193D01*
X25364450Y31701550D01*
X25283807Y31592283D01*
X25283806Y31592281D01*
X25238953Y31464102D01*
X25238953Y31464100D01*
X25236100Y31433670D01*
X25236100Y30800131D01*
X25238953Y30769701D01*
X25238953Y30769699D01*
X25283806Y30641520D01*
X25283807Y30641518D01*
X25364450Y30532250D01*
X25473718Y30451607D01*
X25493880Y30444552D01*
X25601898Y30406754D01*
X25604183Y30406255D01*
X25604747Y30406336D01*
X25605603Y30405945D01*
X25609270Y30405144D01*
X25609096Y30404350D01*
X25633854Y30393044D01*
X25663582Y30381202D01*
X25665422Y30378627D01*
X25668303Y30377311D01*
X25685602Y30350392D01*
X25704209Y30324359D01*
X25704878Y30320398D01*
X25706077Y30318533D01*
X25711100Y30283598D01*
X25711100Y30218258D01*
X25691415Y30151219D01*
X25660734Y30118488D01*
X25579250Y30058350D01*
X25498607Y29949083D01*
X25498606Y29949081D01*
X25453753Y29820902D01*
X25453753Y29820900D01*
X25450900Y29790470D01*
X25450900Y28781931D01*
X25453753Y28751501D01*
X25453753Y28751499D01*
X25498606Y28623320D01*
X25498607Y28623318D01*
X25579249Y28514051D01*
X25579251Y28514049D01*
X25688033Y28433765D01*
X25691054Y28429786D01*
X25695603Y28427708D01*
X25711976Y28402230D01*
X25730284Y28378118D01*
X25731411Y28371989D01*
X25733377Y28368930D01*
X25738400Y28333995D01*
X25738400Y28195378D01*
X25718715Y28128339D01*
X25670973Y28086972D01*
X25671733Y28085535D01*
X25663520Y28081195D01*
X25554250Y28000550D01*
X25473607Y27891283D01*
X25473606Y27891281D01*
X25428753Y27763102D01*
X25428753Y27763100D01*
X25425900Y27732670D01*
X25425900Y26674131D01*
X25428753Y26643701D01*
X25428753Y26643699D01*
X25463819Y26543490D01*
X25473607Y26515518D01*
X25554250Y26406250D01*
X25663518Y26325607D01*
X25705831Y26310801D01*
X25791699Y26280754D01*
X25822130Y26277900D01*
X26394400Y26277900D01*
X26461439Y26258215D01*
X26507194Y26205411D01*
X26518400Y26153900D01*
X26518400Y25831500D01*
X26498715Y25764461D01*
X26445911Y25718706D01*
X26402515Y25709266D01*
X26402620Y25707825D01*
X26398140Y25707501D01*
X26330008Y25697574D01*
X26224914Y25646197D01*
X26142203Y25563486D01*
X26090826Y25458392D01*
X26080900Y25390261D01*
X26080900Y25023740D01*
X26090826Y24955609D01*
X26142203Y24850515D01*
X26186706Y24806012D01*
X26191168Y24797840D01*
X26198601Y24792227D01*
X26207646Y24767662D01*
X26220191Y24744689D01*
X26219526Y24735401D01*
X26222745Y24726661D01*
X26217074Y24701108D01*
X26215207Y24674997D01*
X26209222Y24665729D01*
X26207608Y24658451D01*
X26195221Y24644041D01*
X26186340Y24630285D01*
X26179402Y24623405D01*
X26177809Y24622485D01*
X26098587Y24543263D01*
X26098585Y24543261D01*
X26098459Y24543136D01*
X26098339Y24543016D01*
X25387974Y23832652D01*
X25326651Y23799167D01*
X25282416Y23797628D01*
X25214660Y23807500D01*
X24123140Y23807500D01*
X24123139Y23807500D01*
X24055008Y23797574D01*
X23949914Y23746197D01*
X23867203Y23663486D01*
X23815826Y23558392D01*
X23805900Y23490261D01*
X23805900Y23123740D01*
X23815826Y23055609D01*
X23867203Y22950515D01*
X23949914Y22867804D01*
X23949915Y22867804D01*
X23949917Y22867802D01*
X24055007Y22816427D01*
X24089073Y22811464D01*
X24123139Y22806500D01*
X24123140Y22806500D01*
X25214661Y22806500D01*
X25237371Y22809809D01*
X25282793Y22816427D01*
X25387883Y22867802D01*
X25387883Y22867803D01*
X25390131Y22868901D01*
X25444591Y22881500D01*
X25520088Y22881500D01*
X25520090Y22881500D01*
X25628309Y22910497D01*
X25725335Y22966515D01*
X25880925Y23122106D01*
X25942246Y23155589D01*
X26011937Y23150605D01*
X26067871Y23108734D01*
X26086328Y23064296D01*
X26087984Y23064807D01*
X26090825Y23055610D01*
X26142203Y22950515D01*
X26224914Y22867804D01*
X26224915Y22867804D01*
X26224917Y22867802D01*
X26330007Y22816427D01*
X26364073Y22811464D01*
X26398139Y22806500D01*
X26398140Y22806500D01*
X27489661Y22806500D01*
X27512371Y22809809D01*
X27557793Y22816427D01*
X27662883Y22867802D01*
X27662883Y22867803D01*
X27665131Y22868901D01*
X27719591Y22881500D01*
X29131020Y22881500D01*
X29198059Y22861815D01*
X29230790Y22831133D01*
X29301848Y22734852D01*
X29301849Y22734852D01*
X29301850Y22734850D01*
X29411118Y22654207D01*
X29442063Y22643379D01*
X29539295Y22609355D01*
X29539299Y22609355D01*
X29539301Y22609354D01*
X29561078Y22607312D01*
X29625984Y22581456D01*
X29666610Y22524612D01*
X29673500Y22483854D01*
X29673500Y21646018D01*
X29673500Y21533982D01*
X29702497Y21425763D01*
X29758515Y21328737D01*
X29758516Y21328736D01*
X29758517Y21328735D01*
X32106174Y18981079D01*
X32106184Y18981068D01*
X32110514Y18976738D01*
X32110515Y18976737D01*
X32189737Y18897515D01*
X32286763Y18841497D01*
X32394981Y18812500D01*
X32394982Y18812500D01*
X32394983Y18812500D01*
X50676000Y18812500D01*
X50684685Y18809950D01*
X50693647Y18811238D01*
X50717687Y18800260D01*
X50743039Y18792815D01*
X50748966Y18785975D01*
X50757203Y18782213D01*
X50771492Y18759979D01*
X50788794Y18740011D01*
X50791081Y18729497D01*
X50794977Y18723435D01*
X50800000Y18688500D01*
X50800000Y18459048D01*
X50780315Y18392009D01*
X50779102Y18390157D01*
X50771133Y18378231D01*
X50771131Y18378227D01*
X50759500Y18319753D01*
X50759500Y14480248D01*
X50771131Y14421771D01*
X50775627Y14415042D01*
X50779099Y14409847D01*
X50799980Y14343171D01*
X50800000Y14340953D01*
X50800000Y12459048D01*
X50780315Y12392009D01*
X50779102Y12390157D01*
X50771133Y12378231D01*
X50771131Y12378227D01*
X50759500Y12319753D01*
X50759500Y10324500D01*
X50739815Y10257461D01*
X50687011Y10211706D01*
X50635500Y10200500D01*
X48640247Y10200500D01*
X48581773Y10188869D01*
X48581769Y10188867D01*
X48569843Y10180898D01*
X48503165Y10160020D01*
X48500952Y10160000D01*
X46619048Y10160000D01*
X46552009Y10179685D01*
X46550157Y10180898D01*
X46538231Y10188867D01*
X46538229Y10188868D01*
X46538226Y10188869D01*
X46479752Y10200500D01*
X46479748Y10200500D01*
X42640252Y10200500D01*
X42640247Y10200500D01*
X42581773Y10188869D01*
X42581769Y10188867D01*
X42569843Y10180898D01*
X42503165Y10160020D01*
X42500952Y10160000D01*
X40619048Y10160000D01*
X40552009Y10179685D01*
X40550157Y10180898D01*
X40538231Y10188867D01*
X40538229Y10188868D01*
X40538226Y10188869D01*
X40479752Y10200500D01*
X40479748Y10200500D01*
X36640252Y10200500D01*
X36640247Y10200500D01*
X36581773Y10188869D01*
X36581769Y10188867D01*
X36569843Y10180898D01*
X36503165Y10160020D01*
X36500952Y10160000D01*
X34619048Y10160000D01*
X34552009Y10179685D01*
X34550157Y10180898D01*
X34538231Y10188867D01*
X34538229Y10188868D01*
X34538226Y10188869D01*
X34479752Y10200500D01*
X34479748Y10200500D01*
X30640252Y10200500D01*
X30640247Y10200500D01*
X30581773Y10188869D01*
X30581769Y10188867D01*
X30569843Y10180898D01*
X30503165Y10160020D01*
X30500952Y10160000D01*
X28619048Y10160000D01*
X28552009Y10179685D01*
X28550157Y10180898D01*
X28538231Y10188867D01*
X28538229Y10188868D01*
X28538226Y10188869D01*
X28479752Y10200500D01*
X28479748Y10200500D01*
X24640252Y10200500D01*
X24640247Y10200500D01*
X24581773Y10188869D01*
X24581769Y10188867D01*
X24569843Y10180898D01*
X24503165Y10160020D01*
X24500952Y10160000D01*
X22619048Y10160000D01*
X22552009Y10179685D01*
X22550157Y10180898D01*
X22538231Y10188867D01*
X22538229Y10188868D01*
X22538226Y10188869D01*
X22479752Y10200500D01*
X22479748Y10200500D01*
X20484500Y10200500D01*
X20417461Y10220185D01*
X20371706Y10272989D01*
X20360500Y10324500D01*
X20360500Y12319751D01*
X20360499Y12319753D01*
X20348868Y12378227D01*
X20348867Y12378228D01*
X20348867Y12378231D01*
X20340897Y12390158D01*
X20320020Y12456835D01*
X20320000Y12459048D01*
X20320000Y14340953D01*
X20339685Y14407992D01*
X20340875Y14409809D01*
X20348867Y14421769D01*
X20348867Y14421771D01*
X20348868Y14421771D01*
X20360499Y14480248D01*
X20360500Y14480250D01*
X20360500Y15215014D01*
X21210001Y15215014D01*
X21220494Y15112303D01*
X21275641Y14945881D01*
X21275643Y14945876D01*
X21367684Y14796655D01*
X21491654Y14672685D01*
X21640875Y14580644D01*
X21640880Y14580642D01*
X21807302Y14525495D01*
X21807309Y14525494D01*
X21910019Y14515001D01*
X22609999Y14515001D01*
X23110000Y14515001D01*
X23809972Y14515001D01*
X23809986Y14515002D01*
X23912697Y14525495D01*
X24079119Y14580642D01*
X24079124Y14580644D01*
X24228345Y14672685D01*
X24352315Y14796655D01*
X24444356Y14945876D01*
X24444358Y14945881D01*
X24499505Y15112303D01*
X24499506Y15112310D01*
X24509999Y15215014D01*
X24510000Y15215027D01*
X24510000Y16015000D01*
X23110000Y16015000D01*
X23110000Y14515001D01*
X22609999Y14515001D01*
X22610000Y14515002D01*
X22610000Y16015000D01*
X21210001Y16015000D01*
X21210001Y15215014D01*
X20360500Y15215014D01*
X20360500Y17314987D01*
X21210000Y17314987D01*
X21210000Y16515000D01*
X22610000Y16515000D01*
X23110000Y16515000D01*
X24509999Y16515000D01*
X24509999Y17314972D01*
X24509998Y17314987D01*
X24499505Y17417698D01*
X24444358Y17584120D01*
X24444356Y17584125D01*
X24352315Y17733346D01*
X24228345Y17857316D01*
X24079124Y17949357D01*
X24079119Y17949359D01*
X23912697Y18004506D01*
X23912690Y18004507D01*
X23809986Y18015000D01*
X23110000Y18015000D01*
X23110000Y16515000D01*
X22610000Y16515000D01*
X22610000Y18015000D01*
X21910028Y18015000D01*
X21910012Y18014999D01*
X21807302Y18004506D01*
X21640880Y17949359D01*
X21640875Y17949357D01*
X21491654Y17857316D01*
X21367684Y17733346D01*
X21275643Y17584125D01*
X21275641Y17584120D01*
X21220494Y17417698D01*
X21220493Y17417691D01*
X21210000Y17314987D01*
X20360500Y17314987D01*
X20360500Y18319751D01*
X20360499Y18319753D01*
X20348868Y18378227D01*
X20348867Y18378228D01*
X20348867Y18378231D01*
X20340897Y18390158D01*
X20320020Y18456835D01*
X20320000Y18459048D01*
X20320000Y20340953D01*
X20339685Y20407992D01*
X20340875Y20409809D01*
X20348867Y20421769D01*
X20348867Y20421771D01*
X20348868Y20421771D01*
X20360499Y20480248D01*
X20360500Y20480250D01*
X20360500Y24319751D01*
X20360499Y24319753D01*
X20348868Y24378227D01*
X20348867Y24378228D01*
X20348867Y24378231D01*
X20340897Y24390158D01*
X20320020Y24456835D01*
X20320000Y24459048D01*
X20320000Y24850500D01*
X20339685Y24917539D01*
X20392489Y24963294D01*
X20444000Y24974500D01*
X21722107Y24974500D01*
X21789146Y24954815D01*
X21834901Y24902011D01*
X21839148Y24891456D01*
X21869047Y24806012D01*
X21880207Y24774118D01*
X21960850Y24664850D01*
X22070118Y24584207D01*
X22102163Y24572994D01*
X22198298Y24539354D01*
X22205670Y24537744D01*
X22205206Y24535621D01*
X22259982Y24513802D01*
X22300609Y24456959D01*
X22307500Y24416198D01*
X22307500Y22139500D01*
X22287815Y22072461D01*
X22235011Y22026706D01*
X22183500Y22015500D01*
X21905730Y22015500D01*
X21875300Y22012647D01*
X21875298Y22012647D01*
X21747119Y21967794D01*
X21747117Y21967793D01*
X21637850Y21887150D01*
X21557207Y21777883D01*
X21557206Y21777881D01*
X21512353Y21649702D01*
X21512353Y21649700D01*
X21509500Y21619270D01*
X21509500Y19510731D01*
X21512353Y19480301D01*
X21512353Y19480299D01*
X21557206Y19352120D01*
X21557207Y19352118D01*
X21637850Y19242850D01*
X21747118Y19162207D01*
X21789845Y19147256D01*
X21875299Y19117354D01*
X21905730Y19114500D01*
X21905734Y19114500D01*
X23814270Y19114500D01*
X23844699Y19117354D01*
X23844701Y19117354D01*
X23908790Y19139781D01*
X23972882Y19162207D01*
X24082150Y19242850D01*
X24162793Y19352118D01*
X24185219Y19416210D01*
X24207646Y19480299D01*
X24207646Y19480301D01*
X24210500Y19510731D01*
X24210500Y21619270D01*
X24207646Y21649700D01*
X24207646Y21649702D01*
X24162793Y21777881D01*
X24162792Y21777883D01*
X24082150Y21887150D01*
X23972882Y21967793D01*
X23972880Y21967794D01*
X23844700Y22012647D01*
X23814270Y22015500D01*
X23814266Y22015500D01*
X23282500Y22015500D01*
X23215461Y22035185D01*
X23169706Y22087989D01*
X23158500Y22139500D01*
X23158500Y24416198D01*
X23178185Y24483237D01*
X23230989Y24528992D01*
X23260519Y24536878D01*
X23260330Y24537744D01*
X23267701Y24539354D01*
X23331790Y24561781D01*
X23395882Y24584207D01*
X23505150Y24664850D01*
X23549191Y24724524D01*
X23554070Y24731134D01*
X23558050Y24734157D01*
X23560127Y24738703D01*
X23585600Y24755074D01*
X23609718Y24773385D01*
X23615848Y24774513D01*
X23618905Y24776477D01*
X23653840Y24781500D01*
X23893209Y24781500D01*
X23947669Y24768901D01*
X23949916Y24767803D01*
X23949917Y24767802D01*
X24055007Y24716427D01*
X24089073Y24711464D01*
X24123139Y24706500D01*
X24123140Y24706500D01*
X25214661Y24706500D01*
X25240974Y24710334D01*
X25282793Y24716427D01*
X25387883Y24767802D01*
X25470598Y24850517D01*
X25521973Y24955607D01*
X25531900Y25023740D01*
X25531900Y25390260D01*
X25521973Y25458393D01*
X25470598Y25563483D01*
X25470596Y25563485D01*
X25470596Y25563486D01*
X25387885Y25646197D01*
X25282791Y25697574D01*
X25214661Y25707500D01*
X25214660Y25707500D01*
X24123140Y25707500D01*
X24123139Y25707500D01*
X24055008Y25697574D01*
X23947669Y25645099D01*
X23935581Y25642303D01*
X23928144Y25637523D01*
X23893209Y25632500D01*
X23706101Y25632500D01*
X23639062Y25652185D01*
X23593307Y25704989D01*
X23589059Y25715547D01*
X23587954Y25718706D01*
X23585793Y25724882D01*
X23505150Y25834150D01*
X23395882Y25914793D01*
X23395880Y25914794D01*
X23267700Y25959647D01*
X23237270Y25962500D01*
X23237266Y25962500D01*
X22228734Y25962500D01*
X22228730Y25962500D01*
X22198300Y25959647D01*
X22198298Y25959647D01*
X22070119Y25914794D01*
X22070117Y25914793D01*
X22047349Y25897989D01*
X21981959Y25849730D01*
X21916332Y25825759D01*
X21908327Y25825500D01*
X20444000Y25825500D01*
X20376961Y25845185D01*
X20331206Y25897989D01*
X20320000Y25949500D01*
X20320000Y26340953D01*
X20339685Y26407992D01*
X20340875Y26409809D01*
X20348867Y26421769D01*
X20348867Y26421771D01*
X20348868Y26421771D01*
X20360499Y26480248D01*
X20360500Y26480250D01*
X20360500Y30319751D01*
X20360499Y30319753D01*
X20348868Y30378227D01*
X20348867Y30378228D01*
X20348867Y30378231D01*
X20340897Y30390158D01*
X20320020Y30456835D01*
X20320000Y30459048D01*
X20320000Y32340953D01*
X20339685Y32407992D01*
X20340875Y32409809D01*
X20348867Y32421769D01*
X20348867Y32421771D01*
X20348868Y32421771D01*
X20360499Y32480248D01*
X20360500Y32480250D01*
X20360500Y36319751D01*
X20360499Y36319753D01*
X20348868Y36378227D01*
X20348867Y36378228D01*
X20348867Y36378231D01*
X20340897Y36390158D01*
X20320020Y36456835D01*
X20320000Y36459048D01*
X20320000Y37019062D01*
X44130875Y37019062D01*
X44130875Y36615912D01*
X44680875Y36615912D01*
X45180875Y36615912D01*
X45730875Y36615912D01*
X45730875Y36682987D01*
X46527000Y36682987D01*
X46527000Y36633000D01*
X47502000Y36633000D01*
X48002000Y36633000D01*
X48976999Y36633000D01*
X48976999Y36682972D01*
X48976998Y36682987D01*
X48966505Y36785698D01*
X48911358Y36952120D01*
X48911356Y36952125D01*
X48819315Y37101346D01*
X48695345Y37225316D01*
X48546124Y37317357D01*
X48546119Y37317359D01*
X48379697Y37372506D01*
X48379690Y37372507D01*
X48276986Y37383000D01*
X48002000Y37383000D01*
X48002000Y36633000D01*
X47502000Y36633000D01*
X47502000Y37383000D01*
X47227029Y37383000D01*
X47227012Y37382999D01*
X47124302Y37372506D01*
X46957880Y37317359D01*
X46957875Y37317357D01*
X46808654Y37225316D01*
X46684684Y37101346D01*
X46592643Y36952125D01*
X46592641Y36952120D01*
X46537494Y36785698D01*
X46537493Y36785691D01*
X46527000Y36682987D01*
X45730875Y36682987D01*
X45730875Y37019047D01*
X45730874Y37019062D01*
X45727975Y37055902D01*
X45727974Y37055908D01*
X45682158Y37213606D01*
X45682157Y37213609D01*
X45598560Y37354965D01*
X45598553Y37354974D01*
X45482436Y37471091D01*
X45482427Y37471098D01*
X45341071Y37554695D01*
X45341068Y37554696D01*
X45183369Y37600512D01*
X45183372Y37600512D01*
X45180875Y37600709D01*
X45180875Y36615912D01*
X44680875Y36615912D01*
X44680875Y37600709D01*
X44678378Y37600512D01*
X44520681Y37554696D01*
X44520678Y37554695D01*
X44379322Y37471098D01*
X44379313Y37471091D01*
X44263196Y37354974D01*
X44263189Y37354965D01*
X44179592Y37213609D01*
X44179591Y37213606D01*
X44133775Y37055908D01*
X44133774Y37055902D01*
X44130875Y37019062D01*
X20320000Y37019062D01*
X20320000Y38340953D01*
X20339685Y38407992D01*
X20340875Y38409809D01*
X20348867Y38421769D01*
X20348867Y38421771D01*
X20348868Y38421771D01*
X20360499Y38480248D01*
X20360500Y38480250D01*
X20360500Y40475500D01*
X20380185Y40542539D01*
X20432989Y40588294D01*
X20484500Y40599500D01*
X22479750Y40599500D01*
X22479751Y40599501D01*
X22538231Y40611133D01*
X22550157Y40619103D01*
X22616835Y40639980D01*
X22619048Y40640000D01*
X24500952Y40640000D01*
X24567991Y40620315D01*
G37*
%TD.AperFunction*%
%TD*%
M02*
