M48
; DRILL file {KiCad 8.0.8+1} date 2025-02-16T10:56:27+0000
; FORMAT={3:3/ absolute / metric / suppress leading zeros}
; #@! TF.CreationDate,2025-02-16T10:56:27+00:00
; #@! TF.GenerationSoftware,Kicad,Pcbnew,8.0.8+1
; #@! TF.FileFunction,Plated,1,4,PTH
FMAT,2
METRIC,TZ
; #@! TA.AperFunction,Plated,PTH,ViaDrill
T1C0.400
; #@! TA.AperFunction,Plated,PTH,ComponentDrill
T2C0.889
%
G90
G05
T1
X-38900Y800
X-37350Y7800
X-37350Y5200
X-37300Y-4700
X-37300Y-7250
X-36800Y10250
X-36500Y-11400
X-35600Y12750
X-35200Y-13700
X-34550Y-17350
X-32700Y19250
X-31850Y-20250
X-31350Y21700
X-30700Y-22500
X-30359Y-8600
X-29150Y17050
X-29100Y24700
X-29100Y-25350
X-28962Y-1988
X-28750Y-550
X-28500Y-16450
X-28000Y9500
X-27650Y-7600
X-27200Y5800
X-27138Y-1013
X-26629Y-3679
X-26295Y552
X-26150Y21950
X-25700Y13800
X-24050Y-18950
X-23900Y-17100
X-23800Y14500
X-23650Y19100
X-21088Y-3258
X-18607Y-6222
X-18325Y-4700
X-17225Y-16625
X-15376Y11600
X-15376Y-2897
X-14700Y4900
X-14700Y-5800
X-14300Y1350
X-14300Y0
X-14300Y-1300
X-13950Y-7450
X-13550Y20000
X-13100Y3000
X-13100Y-2650
X-12500Y-13250
X-12325Y-19133
X-11700Y3000
X-11700Y-2650
X-10650Y1700
X-10650Y-1400
X-10550Y-21200
X-9800Y21850
X-9650Y1700
X-9600Y-1400
X-8500Y1700
X-8500Y-1400
X-7750Y-6450
X-7557Y-8611
X-7050Y22900
X-6300Y19800
X-6200Y-22900
X-5200Y-20825
X-4550Y-7800
X-4400Y-22900
X-3602Y-22198
X-3550Y14650
X-2350Y-10700
X-2250Y23500
X-200Y-10550
X218Y-12667
X750Y24000
X1750Y16050
X2200Y-23600
X3500Y-23500
X3684Y-20100
X3900Y8150
X4500Y23100
X6400Y-12451
X6550Y-15800
X6764Y-18861
X7600Y15600
X7700Y4500
X7800Y22350
X7850Y-18800
X8200Y7500
X8350Y10750
X8550Y-2800
X8600Y12550
X8750Y-16450
X8884Y-210
X9250Y2850
X9250Y-18900
X9650Y-5350
X10700Y-13000
X10950Y4500
X11200Y-4400
X11300Y20900
X11750Y-18450
X11800Y6400
X11950Y-1250
X11950Y-3300
X12051Y-19951
X12750Y-15400
X13283Y-13717
X13460Y-18176
X13500Y-19800
X13750Y-2150
X13900Y-16800
X14000Y-4900
X14950Y18550
X16100Y-7100
X18050Y-800
X18650Y-6400
X19400Y-3950
X19400Y-16100
X20800Y-15500
X22150Y-950
X22300Y-11500
X22300Y-14450
X22550Y1900
X22550Y-17700
X23100Y-7700
X23600Y-19300
X23921Y28238
X24010Y-28130
X25300Y-1150
X25350Y20450
X26150Y-7600
X26400Y3500
X26600Y-22100
X27400Y-13300
X29250Y-25000
X29350Y25450
X29400Y5000
X29800Y-2350
X29800Y-9650
X30250Y2500
X30900Y-4800
X34000Y2650
X34400Y-6650
X34450Y6300
X36000Y4000
X36100Y14950
X36350Y-14400
X38900Y0
T2
X34800Y-4400
M30
