%TF.GenerationSoftware,KiCad,Pcbnew,8.0.8+1*%
%TF.CreationDate,2025-02-16T10:56:27+00:00*%
%TF.ProjectId,EFMADC01,45464d41-4443-4303-912e-6b696361645f,rev?*%
%TF.SameCoordinates,Original*%
%TF.FileFunction,Copper,L3,Inr*%
%TF.FilePolarity,Positive*%
%FSLAX46Y46*%
G04 Gerber Fmt 4.6, Leading zero omitted, Abs format (unit mm)*
G04 Created by KiCad (PCBNEW 8.0.8+1) date 2025-02-16 10:56:27*
%MOMM*%
%LPD*%
G01*
G04 APERTURE LIST*
%TA.AperFunction,ComponentPad*%
%ADD10R,1.524000X1.524000*%
%TD*%
%TA.AperFunction,ViaPad*%
%ADD11C,0.800000*%
%TD*%
G04 APERTURE END LIST*
D10*
%TO.N,Net-(JP5-B)*%
%TO.C,J3*%
X34800000Y-4400000D03*
%TD*%
D11*
%TO.N,GNDA*%
X18650000Y-6400000D03*
X30900000Y-4800000D03*
X34400000Y-6650000D03*
X26150000Y-7600000D03*
X34450000Y6300000D03*
X34000000Y2650000D03*
X20800000Y-15500000D03*
X22300000Y-14450000D03*
X22550000Y-17700000D03*
X22300000Y-11500000D03*
X14000000Y-4900000D03*
X29400000Y5000000D03*
X25300000Y-1150000D03*
X16100000Y-7100000D03*
X26400000Y3500000D03*
%TO.N,+5V*%
X-6300000Y19800000D03*
X-30359000Y-8600000D03*
X-29150000Y17050000D03*
%TO.N,+3V3*%
X8750000Y-16450000D03*
X-15375500Y-2897131D03*
X-14700000Y-5800000D03*
X11200000Y-4400000D03*
X217500Y-12667500D03*
%TO.N,/CPU/RST#_P*%
X13282596Y-13717404D03*
%TO.N,/CPU/PB6*%
X6400000Y-12450500D03*
%TO.N,/CPU/PB7*%
X10700000Y-13000000D03*
%TO.N,/CPU/PB5*%
X12750000Y-15400000D03*
%TO.N,/CPU/TIMEPULSE*%
X-7556958Y-8610980D03*
X7850000Y-18800000D03*
%TO.N,Net-(R8-Pad2)*%
X-18607259Y-6221663D03*
%TO.N,Net-(R9-Pad2)*%
X-15375500Y11600000D03*
%TO.N,/CPU/PC1*%
X-10550000Y-21200000D03*
X-28750000Y-550000D03*
X13500000Y-19800000D03*
X-27200000Y5800000D03*
X-3601511Y-22198489D03*
%TO.N,/CPU/PC0*%
X12050800Y-19950800D03*
X-26628972Y-3678972D03*
X-5200000Y-20824500D03*
X-28962000Y-1988000D03*
X-28000000Y9500000D03*
X-12325000Y-19133000D03*
%TO.N,/CPU/RX0*%
X-23900000Y-17100000D03*
X2200000Y-23600000D03*
%TO.N,/CPU/TX0*%
X-24050000Y-18950000D03*
X3500000Y-23500000D03*
%TO.N,/CPU/TX1*%
X-23800000Y14500000D03*
X6764007Y-18861395D03*
%TO.N,/CPU/RX1*%
X-25700000Y13800000D03*
X3684019Y-20100000D03*
%TO.N,/CPU/BTN*%
X13460450Y-18175500D03*
X27400000Y-13300000D03*
%TO.N,/CPU/GEO_STAT*%
X-27137754Y-1013156D03*
X-26295000Y552000D03*
%TO.N,STATOR*%
X36000000Y3999502D03*
X23920800Y28238000D03*
X24010000Y-28130000D03*
%TO.N,PA1*%
X22550000Y1900000D03*
X22150000Y-950000D03*
%TO.N,COUNT_2*%
X-7750000Y-6450000D03*
X11750000Y-18450000D03*
%TO.N,Net-(JP1-B)*%
X-28500000Y-16450000D03*
X-17224500Y-16624500D03*
%TO.N,Net-(R27-Pad2)*%
X7600000Y15600000D03*
%TO.N,Net-(R10-Pad2)*%
X-18324500Y-4700000D03*
%TO.N,Net-(R11-Pad2)*%
X-14700000Y4900000D03*
%TO.N,Net-(R28-Pad2)*%
X8600000Y12550000D03*
%TO.N,COUNT_3*%
X9650000Y-5350000D03*
X13900000Y-16800000D03*
X8350000Y10750000D03*
X9250000Y2850000D03*
%TO.N,+3.3VA*%
X30250000Y2500000D03*
X19400000Y-3950000D03*
X29800000Y-2350000D03*
X18050000Y-800000D03*
X19400000Y-16100000D03*
X23100000Y-7700000D03*
%TO.N,GND*%
X-200000Y-10550000D03*
X13750000Y-2150000D03*
X-27650000Y-7600000D03*
X-21088000Y-3258000D03*
X-2250000Y23500000D03*
X-9800000Y21850000D03*
X-2350000Y-10700000D03*
X14950000Y18550000D03*
X-34550000Y-17350000D03*
X8550000Y-2800000D03*
X-38900000Y800000D03*
X-4400000Y-22900000D03*
X-29100000Y-25350000D03*
X6550000Y-15800000D03*
X1750000Y16050000D03*
X750000Y24000000D03*
X-11700000Y3000000D03*
X7800000Y22350000D03*
X38900000Y0D03*
X-9600000Y-1400000D03*
X-8500000Y1700000D03*
X-13950000Y-7450000D03*
X-8500000Y-1400000D03*
X-37300000Y-4700000D03*
X-35600000Y12750000D03*
X-37300000Y-7250000D03*
X-11700000Y-2650000D03*
X-13550000Y20000000D03*
X-13100000Y3000000D03*
X-3550000Y14650000D03*
X9250000Y-18900000D03*
X11800000Y6400000D03*
X23600000Y-19300000D03*
X-4550000Y-7800000D03*
X11300000Y20900000D03*
X-37350000Y5200000D03*
X4500000Y23100000D03*
X26600000Y-22100000D03*
X10950000Y4500000D03*
X8884000Y-210000D03*
X-10650000Y-1400000D03*
X29350000Y25450000D03*
X-14300000Y0D03*
X29800000Y-9650000D03*
X-12500000Y-13250000D03*
X-31350000Y21700000D03*
X-36500000Y-11400000D03*
X-29100000Y24700000D03*
X36350000Y-14400000D03*
X25350000Y20450000D03*
X-32700000Y19250000D03*
X-13100000Y-2650000D03*
X-37350000Y7800000D03*
X-14300000Y1350000D03*
X-36800000Y10250000D03*
X-14300000Y-1300000D03*
X-35200000Y-13700000D03*
X-7050000Y22900000D03*
X-6200000Y-22900000D03*
X-10650000Y1700000D03*
X11950000Y-3300000D03*
X-23650000Y19100000D03*
X8200000Y7500000D03*
X7700000Y4500000D03*
X3900000Y8150000D03*
X-31850000Y-20250000D03*
X29250000Y-25000000D03*
X-9650000Y1700000D03*
X11950000Y-1250000D03*
X36100000Y14950000D03*
X-26150000Y21950000D03*
X-30700000Y-22500000D03*
%TD*%
%TA.AperFunction,Conductor*%
%TO.N,GND*%
G36*
X2090844Y39945263D02*
G01*
X2096021Y39944992D01*
X4178556Y39781100D01*
X4183702Y39780559D01*
X6254854Y39507829D01*
X6259909Y39507027D01*
X8313872Y39126378D01*
X8313915Y39126370D01*
X8318987Y39125292D01*
X10350270Y38637605D01*
X10355271Y38636266D01*
X12358234Y38043028D01*
X12363137Y38041434D01*
X14332284Y37344053D01*
X14337067Y37342217D01*
X16267074Y36542803D01*
X16267110Y36542788D01*
X16271844Y36540680D01*
X18157249Y35641418D01*
X18161866Y35639066D01*
X18397713Y35511006D01*
X19997713Y34642241D01*
X20002196Y34639654D01*
X21783407Y33548144D01*
X21787716Y33545346D01*
X23509252Y32362176D01*
X23509261Y32362170D01*
X23513456Y32359122D01*
X25170749Y31087373D01*
X25174774Y31084113D01*
X26763222Y29727487D01*
X26767069Y29724024D01*
X28282411Y28286093D01*
X28282418Y28286087D01*
X28286081Y28282424D01*
X28805155Y27735406D01*
X29724018Y26767077D01*
X29727480Y26763232D01*
X30996298Y25277597D01*
X31084121Y25174767D01*
X31087380Y25170742D01*
X32359112Y23513473D01*
X32362161Y23509278D01*
X32442215Y23392797D01*
X33545324Y21787745D01*
X33545329Y21787739D01*
X33548145Y21783402D01*
X33774620Y21413823D01*
X34639644Y20002209D01*
X34642234Y19997723D01*
X35639066Y18161880D01*
X35641421Y18157258D01*
X36448577Y16464956D01*
X36540690Y16271831D01*
X36542793Y16267106D01*
X37313799Y14405682D01*
X37342202Y14337110D01*
X37344056Y14332282D01*
X37391910Y14197161D01*
X38041433Y12363138D01*
X38043036Y12358203D01*
X38636267Y10355275D01*
X38637607Y10350272D01*
X39125294Y8318993D01*
X39126372Y8313921D01*
X39507024Y6259945D01*
X39507835Y6254830D01*
X39780560Y4183710D01*
X39781102Y4178552D01*
X39945001Y2096022D01*
X39945272Y2090845D01*
X39999932Y2591D01*
X39999932Y-2590D01*
X39945257Y-2090851D01*
X39944986Y-2096027D01*
X39781102Y-4178558D01*
X39780560Y-4183716D01*
X39507830Y-6254813D01*
X39507020Y-6259928D01*
X39126369Y-8313940D01*
X39125290Y-8319012D01*
X38637598Y-10350283D01*
X38636258Y-10355285D01*
X38043038Y-12358203D01*
X38041435Y-12363139D01*
X37344059Y-14332283D01*
X37342202Y-14337118D01*
X36542789Y-16267102D01*
X36540682Y-16271836D01*
X35641409Y-18157271D01*
X35639054Y-18161892D01*
X34642239Y-19997720D01*
X34639649Y-20002207D01*
X33548152Y-21783396D01*
X33545329Y-21787743D01*
X32362161Y-23509281D01*
X32359112Y-23513476D01*
X31087380Y-25170745D01*
X31084121Y-25174770D01*
X29727485Y-26763230D01*
X29724018Y-26767081D01*
X28286087Y-28282426D01*
X28282418Y-28286095D01*
X26767073Y-29724026D01*
X26763222Y-29727493D01*
X25174774Y-31084118D01*
X25170749Y-31087378D01*
X23513456Y-32359122D01*
X23509261Y-32362170D01*
X21787735Y-33545337D01*
X21783388Y-33548160D01*
X20002200Y-34639657D01*
X19997713Y-34642247D01*
X18161877Y-35639066D01*
X18157257Y-35641420D01*
X16271847Y-36540689D01*
X16267111Y-36542798D01*
X14337082Y-37342213D01*
X14332248Y-37344068D01*
X12363153Y-38041434D01*
X12358218Y-38043038D01*
X10355273Y-38636274D01*
X10350270Y-38637614D01*
X8318987Y-39125294D01*
X8313915Y-39126372D01*
X6259936Y-39507032D01*
X6254820Y-39507843D01*
X4183709Y-39780560D01*
X4178552Y-39781102D01*
X2096020Y-39945001D01*
X2090843Y-39945272D01*
X2590Y-39999932D01*
X-2591Y-39999932D01*
X-2090849Y-39945257D01*
X-2096025Y-39944986D01*
X-4178556Y-39781102D01*
X-4183714Y-39780560D01*
X-6254815Y-39507830D01*
X-6259930Y-39507020D01*
X-8313942Y-39126369D01*
X-8319014Y-39125290D01*
X-10350285Y-38637598D01*
X-10355287Y-38636258D01*
X-12358205Y-38043038D01*
X-12363141Y-38041435D01*
X-13068043Y-37791792D01*
X-14332288Y-37344056D01*
X-14337109Y-37342205D01*
X-15946943Y-36675401D01*
X-16267102Y-36542789D01*
X-16271836Y-36540682D01*
X-18157273Y-35641409D01*
X-18161894Y-35639054D01*
X-19997720Y-34642239D01*
X-20002207Y-34639649D01*
X-21358861Y-33808304D01*
X-21783408Y-33548145D01*
X-21787735Y-33545335D01*
X-23509283Y-32362161D01*
X-23513478Y-32359112D01*
X-25170747Y-31087380D01*
X-25174772Y-31084121D01*
X-26763234Y-29727483D01*
X-26767083Y-29724018D01*
X-28282427Y-28286084D01*
X-28286093Y-28282418D01*
X-28326816Y-28239503D01*
X-29724030Y-26767069D01*
X-29727493Y-26763222D01*
X-29942650Y-26511299D01*
X-30301606Y-26091003D01*
X-26786500Y-26091003D01*
X-26742800Y-26506894D01*
X-26613600Y-26904501D01*
X-26613596Y-26904509D01*
X-26404504Y-27266596D01*
X-26404498Y-27266604D01*
X-26208175Y-27484607D01*
X-26124699Y-27577301D01*
X-25958100Y-27735397D01*
X-25525709Y-28145788D01*
X-25525704Y-28145798D01*
X-25525701Y-28145796D01*
X-25426997Y-28239503D01*
X-25141702Y-28483198D01*
X-24833405Y-28746500D01*
X-24612533Y-28935076D01*
X-24612510Y-28935114D01*
X-24612500Y-28935104D01*
X-24479774Y-29048522D01*
X-24435500Y-29086303D01*
X-24435505Y-29086308D01*
X-24435474Y-29086325D01*
X-24405609Y-29111829D01*
X-23993822Y-29463482D01*
X-23993810Y-29463492D01*
X-23993800Y-29463500D01*
X-23654280Y-29724026D01*
X-22498486Y-30610910D01*
X-22272323Y-30775285D01*
X-22160300Y-30856704D01*
X-20606999Y-31924201D01*
X-19000000Y-32908996D01*
X-17343699Y-33808303D01*
X-15642500Y-34619705D01*
X-15642493Y-34619708D01*
X-15642489Y-34619710D01*
X-15581303Y-34646946D01*
X-15260600Y-34789703D01*
X-13519299Y-35511001D01*
X-11742600Y-36140098D01*
X-9935521Y-36675399D01*
X-8102849Y-37115402D01*
X-7817072Y-37176193D01*
X-7693895Y-37202397D01*
X-7693881Y-37202399D01*
X-7693879Y-37202400D01*
X-5840699Y-37545799D01*
X-5840695Y-37545799D01*
X-5840692Y-37545800D01*
X-4906390Y-37668796D01*
X-3972081Y-37791793D01*
X-2093148Y-37939697D01*
X-585876Y-37979137D01*
X-209061Y-37988998D01*
X-209057Y-37988998D01*
X209060Y-37988998D01*
X567930Y-37979607D01*
X2093147Y-37939697D01*
X3972076Y-37791793D01*
X5840698Y-37545799D01*
X7693878Y-37202400D01*
X7693886Y-37202398D01*
X7693893Y-37202397D01*
X7923514Y-37153550D01*
X8102844Y-37115402D01*
X9935516Y-36675399D01*
X11742595Y-36140098D01*
X13519294Y-35511001D01*
X15260597Y-34789703D01*
X15642494Y-34619705D01*
X17343696Y-33808303D01*
X18999996Y-32908996D01*
X20606994Y-31924201D01*
X22160293Y-30856704D01*
X22498489Y-30610900D01*
X23993789Y-29463500D01*
X24435463Y-29086329D01*
X24435493Y-29086304D01*
X24479825Y-29048477D01*
X24546800Y-28991243D01*
X24612462Y-28935132D01*
X24612504Y-28935114D01*
X24612495Y-28935104D01*
X24612528Y-28935076D01*
X24833396Y-28746505D01*
X25021152Y-28586149D01*
X25141696Y-28483198D01*
X25222780Y-28413938D01*
X25427001Y-28239501D01*
X25525684Y-28145807D01*
X25525698Y-28145800D01*
X25525695Y-28145797D01*
X25958099Y-27735397D01*
X26124694Y-27577301D01*
X26404495Y-27266601D01*
X26627156Y-26908907D01*
X26756352Y-26511301D01*
X26786499Y-26091003D01*
X26742797Y-25675201D01*
X26613601Y-25277603D01*
X26547385Y-25162938D01*
X26404495Y-24915495D01*
X26124720Y-24604727D01*
X26124694Y-24604698D01*
X25816696Y-24280502D01*
X25291397Y-23727600D01*
X24700500Y-23105499D01*
X24045394Y-22416000D01*
X24045394Y-22415999D01*
X24045386Y-22415992D01*
X23987683Y-22355247D01*
X23328201Y-21660995D01*
X23328199Y-21660992D01*
X22550697Y-20842597D01*
X22550696Y-20842596D01*
X21714996Y-19962898D01*
X21714996Y-19962897D01*
X20823497Y-19024497D01*
X20823495Y-19024495D01*
X20759150Y-18956762D01*
X20341197Y-18516799D01*
X20249249Y-18449999D01*
X20003006Y-18271104D01*
X20002995Y-18271097D01*
X19620998Y-18100997D01*
X19212000Y-18014099D01*
X19211997Y-18014099D01*
X18793899Y-18014099D01*
X18793895Y-18014099D01*
X18384901Y-18100995D01*
X18384900Y-18100996D01*
X18003000Y-18271097D01*
X17664699Y-18516798D01*
X17131573Y-19022717D01*
X17127722Y-19026184D01*
X16032967Y-19961215D01*
X16028940Y-19964476D01*
X15052556Y-20713721D01*
X15048361Y-20716769D01*
X14034155Y-21413817D01*
X14029805Y-21416643D01*
X12802207Y-22168845D01*
X12797722Y-22171434D01*
X11532382Y-22858464D01*
X11527769Y-22860815D01*
X10417034Y-23390686D01*
X10412291Y-23392797D01*
X9275312Y-23863708D01*
X9270474Y-23865565D01*
X7913287Y-24346134D01*
X7908360Y-24347735D01*
X6527863Y-24756661D01*
X6522856Y-24758003D01*
X5326179Y-25045295D01*
X5321116Y-25046371D01*
X4111082Y-25270728D01*
X4105956Y-25271540D01*
X2678503Y-25459461D01*
X2673344Y-25460003D01*
X1238003Y-25572900D01*
X1232835Y-25573171D01*
X2594Y-25605430D01*
X-2596Y-25605430D01*
X-1232837Y-25573171D01*
X-1238005Y-25572900D01*
X-2673339Y-25460003D01*
X-2678498Y-25459461D01*
X-4105955Y-25271540D01*
X-4111081Y-25270728D01*
X-5321118Y-25046371D01*
X-5326181Y-25045295D01*
X-6522854Y-24758003D01*
X-6527861Y-24756661D01*
X-7908359Y-24347735D01*
X-7913286Y-24346134D01*
X-8810931Y-24028286D01*
X-9270476Y-23865565D01*
X-9275314Y-23863708D01*
X-9912017Y-23599999D01*
X1594318Y-23599999D01*
X1594318Y-23600000D01*
X1614955Y-23756758D01*
X1614957Y-23756766D01*
X1675462Y-23902838D01*
X1675462Y-23902839D01*
X1768844Y-24024537D01*
X1771718Y-24028282D01*
X1897159Y-24124536D01*
X2043238Y-24185044D01*
X2160809Y-24200522D01*
X2199999Y-24205682D01*
X2200000Y-24205682D01*
X2200001Y-24205682D01*
X2231352Y-24201554D01*
X2356762Y-24185044D01*
X2502841Y-24124536D01*
X2628282Y-24028282D01*
X2724536Y-23902841D01*
X2779247Y-23770756D01*
X2818982Y-23724232D01*
X2878477Y-23709948D01*
X2935005Y-23733362D01*
X2962174Y-23770757D01*
X2975463Y-23802838D01*
X2975464Y-23802841D01*
X3071718Y-23928282D01*
X3197159Y-24024536D01*
X3197160Y-24024536D01*
X3197161Y-24024537D01*
X3206212Y-24028286D01*
X3343238Y-24085044D01*
X3460809Y-24100522D01*
X3499999Y-24105682D01*
X3500000Y-24105682D01*
X3500001Y-24105682D01*
X3531352Y-24101554D01*
X3656762Y-24085044D01*
X3802841Y-24024536D01*
X3928282Y-23928282D01*
X4024536Y-23802841D01*
X4085044Y-23656762D01*
X4105682Y-23500000D01*
X4085044Y-23343238D01*
X4065958Y-23297160D01*
X4024537Y-23197161D01*
X4024537Y-23197160D01*
X3928286Y-23071723D01*
X3928285Y-23071722D01*
X3928282Y-23071718D01*
X3928277Y-23071714D01*
X3928276Y-23071713D01*
X3802838Y-22975462D01*
X3656766Y-22914957D01*
X3656758Y-22914955D01*
X3500001Y-22894318D01*
X3499999Y-22894318D01*
X3343241Y-22914955D01*
X3343233Y-22914957D01*
X3197161Y-22975462D01*
X3197160Y-22975462D01*
X3071723Y-23071713D01*
X3071713Y-23071723D01*
X2975463Y-23197160D01*
X2920753Y-23329242D01*
X2881016Y-23375767D01*
X2821521Y-23390051D01*
X2764994Y-23366636D01*
X2737825Y-23329241D01*
X2724537Y-23297161D01*
X2724537Y-23297160D01*
X2628286Y-23171723D01*
X2628285Y-23171722D01*
X2628282Y-23171718D01*
X2628277Y-23171714D01*
X2628276Y-23171713D01*
X2502838Y-23075462D01*
X2356766Y-23014957D01*
X2356758Y-23014955D01*
X2200001Y-22994318D01*
X2199999Y-22994318D01*
X2043241Y-23014955D01*
X2043233Y-23014957D01*
X1897161Y-23075462D01*
X1897160Y-23075462D01*
X1771723Y-23171713D01*
X1771713Y-23171723D01*
X1675462Y-23297160D01*
X1675462Y-23297161D01*
X1614957Y-23443233D01*
X1614955Y-23443241D01*
X1594318Y-23599999D01*
X-9912017Y-23599999D01*
X-10412289Y-23392797D01*
X-10417032Y-23390686D01*
X-11527767Y-22860815D01*
X-11532380Y-22858464D01*
X-12190133Y-22501330D01*
X-12747893Y-22198488D01*
X-4207193Y-22198488D01*
X-4207193Y-22198489D01*
X-4186556Y-22355247D01*
X-4186554Y-22355255D01*
X-4126049Y-22501327D01*
X-4126049Y-22501328D01*
X-4126047Y-22501330D01*
X-4029793Y-22626771D01*
X-3904352Y-22723025D01*
X-3758273Y-22783533D01*
X-3640702Y-22799011D01*
X-3601512Y-22804171D01*
X-3601511Y-22804171D01*
X-3601510Y-22804171D01*
X-3570159Y-22800043D01*
X-3444749Y-22783533D01*
X-3298670Y-22723025D01*
X-3173229Y-22626771D01*
X-3076975Y-22501330D01*
X-3016467Y-22355251D01*
X-2995829Y-22198489D01*
X-3016467Y-22041727D01*
X-3076974Y-21895650D01*
X-3076974Y-21895649D01*
X-3173225Y-21770212D01*
X-3173226Y-21770211D01*
X-3173229Y-21770207D01*
X-3173234Y-21770203D01*
X-3173235Y-21770202D01*
X-3298673Y-21673951D01*
X-3444745Y-21613446D01*
X-3444753Y-21613444D01*
X-3601510Y-21592807D01*
X-3601512Y-21592807D01*
X-3758270Y-21613444D01*
X-3758278Y-21613446D01*
X-3904350Y-21673951D01*
X-3904351Y-21673951D01*
X-4029788Y-21770202D01*
X-4029798Y-21770212D01*
X-4126049Y-21895649D01*
X-4126049Y-21895650D01*
X-4186554Y-22041722D01*
X-4186556Y-22041730D01*
X-4207193Y-22198488D01*
X-12747893Y-22198488D01*
X-12797722Y-22171433D01*
X-12802205Y-22168845D01*
X-13452785Y-21770207D01*
X-14029804Y-21416642D01*
X-14034153Y-21413817D01*
X-14345260Y-21199999D01*
X-11155682Y-21199999D01*
X-11155682Y-21200000D01*
X-11135045Y-21356758D01*
X-11135043Y-21356766D01*
X-11074538Y-21502838D01*
X-11074538Y-21502839D01*
X-11074536Y-21502841D01*
X-10978282Y-21628282D01*
X-10852841Y-21724536D01*
X-10706762Y-21785044D01*
X-10589191Y-21800522D01*
X-10550001Y-21805682D01*
X-10550000Y-21805682D01*
X-10549999Y-21805682D01*
X-10518648Y-21801554D01*
X-10393238Y-21785044D01*
X-10247159Y-21724536D01*
X-10121718Y-21628282D01*
X-10025464Y-21502841D01*
X-9964956Y-21356762D01*
X-9944318Y-21200000D01*
X-9964956Y-21043238D01*
X-10025463Y-20897161D01*
X-10025463Y-20897160D01*
X-10081218Y-20824499D01*
X-5805682Y-20824499D01*
X-5805682Y-20824500D01*
X-5785045Y-20981258D01*
X-5785043Y-20981266D01*
X-5724538Y-21127338D01*
X-5724538Y-21127339D01*
X-5724536Y-21127341D01*
X-5628282Y-21252782D01*
X-5502841Y-21349036D01*
X-5502840Y-21349036D01*
X-5502839Y-21349037D01*
X-5356767Y-21409542D01*
X-5356762Y-21409544D01*
X-5239191Y-21425022D01*
X-5200001Y-21430182D01*
X-5200000Y-21430182D01*
X-5199999Y-21430182D01*
X-5168648Y-21426054D01*
X-5043238Y-21409544D01*
X-4897159Y-21349036D01*
X-4771718Y-21252782D01*
X-4675464Y-21127341D01*
X-4614956Y-20981262D01*
X-4594318Y-20824500D01*
X-4614956Y-20667738D01*
X-4636819Y-20614955D01*
X-4675463Y-20521661D01*
X-4675463Y-20521660D01*
X-4771714Y-20396223D01*
X-4771715Y-20396222D01*
X-4771718Y-20396218D01*
X-4771723Y-20396214D01*
X-4771724Y-20396213D01*
X-4897162Y-20299962D01*
X-5043234Y-20239457D01*
X-5043242Y-20239455D01*
X-5199999Y-20218818D01*
X-5200001Y-20218818D01*
X-5356759Y-20239455D01*
X-5356767Y-20239457D01*
X-5502839Y-20299962D01*
X-5502840Y-20299962D01*
X-5628277Y-20396213D01*
X-5628287Y-20396223D01*
X-5724538Y-20521660D01*
X-5724538Y-20521661D01*
X-5785043Y-20667733D01*
X-5785045Y-20667741D01*
X-5805682Y-20824499D01*
X-10081218Y-20824499D01*
X-10121714Y-20771723D01*
X-10121715Y-20771722D01*
X-10121718Y-20771718D01*
X-10121723Y-20771714D01*
X-10121724Y-20771713D01*
X-10247162Y-20675462D01*
X-10393234Y-20614957D01*
X-10393242Y-20614955D01*
X-10549999Y-20594318D01*
X-10550001Y-20594318D01*
X-10706759Y-20614955D01*
X-10706767Y-20614957D01*
X-10852839Y-20675462D01*
X-10852840Y-20675462D01*
X-10978277Y-20771713D01*
X-10978287Y-20771723D01*
X-11074538Y-20897160D01*
X-11074538Y-20897161D01*
X-11135043Y-21043233D01*
X-11135045Y-21043241D01*
X-11155682Y-21199999D01*
X-14345260Y-21199999D01*
X-15048363Y-20716769D01*
X-15052558Y-20713721D01*
X-15852334Y-20099999D01*
X3078337Y-20099999D01*
X3078337Y-20100000D01*
X3098974Y-20256758D01*
X3098976Y-20256766D01*
X3159481Y-20402838D01*
X3159481Y-20402839D01*
X3255732Y-20528276D01*
X3255737Y-20528282D01*
X3381178Y-20624536D01*
X3381179Y-20624536D01*
X3381180Y-20624537D01*
X3485484Y-20667741D01*
X3527257Y-20685044D01*
X3644828Y-20700522D01*
X3684018Y-20705682D01*
X3684019Y-20705682D01*
X3684020Y-20705682D01*
X3715371Y-20701554D01*
X3840781Y-20685044D01*
X3986860Y-20624536D01*
X4112301Y-20528282D01*
X4208555Y-20402841D01*
X4269063Y-20256762D01*
X4289701Y-20100000D01*
X4270058Y-19950799D01*
X11445118Y-19950799D01*
X11445118Y-19950800D01*
X11465755Y-20107558D01*
X11465757Y-20107566D01*
X11526262Y-20253638D01*
X11526262Y-20253639D01*
X11580663Y-20324536D01*
X11622518Y-20379082D01*
X11747959Y-20475336D01*
X11894038Y-20535844D01*
X12011609Y-20551322D01*
X12050799Y-20556482D01*
X12050800Y-20556482D01*
X12050801Y-20556482D01*
X12082152Y-20552354D01*
X12207562Y-20535844D01*
X12353641Y-20475336D01*
X12479082Y-20379082D01*
X12575336Y-20253641D01*
X12635844Y-20107562D01*
X12656482Y-19950800D01*
X12655486Y-19943238D01*
X12636629Y-19800000D01*
X12636629Y-19799999D01*
X12894318Y-19799999D01*
X12894318Y-19800000D01*
X12914955Y-19956758D01*
X12914957Y-19956766D01*
X12975462Y-20102838D01*
X12975462Y-20102839D01*
X13064456Y-20218818D01*
X13071718Y-20228282D01*
X13071722Y-20228285D01*
X13071723Y-20228286D01*
X13101082Y-20250813D01*
X13197159Y-20324536D01*
X13343238Y-20385044D01*
X13460809Y-20400522D01*
X13499999Y-20405682D01*
X13500000Y-20405682D01*
X13500001Y-20405682D01*
X13531352Y-20401554D01*
X13656762Y-20385044D01*
X13802841Y-20324536D01*
X13928282Y-20228282D01*
X14024536Y-20102841D01*
X14085044Y-19956762D01*
X14105682Y-19800000D01*
X14104897Y-19794041D01*
X14088793Y-19671718D01*
X14085044Y-19643238D01*
X14031908Y-19514956D01*
X14024537Y-19497161D01*
X14024537Y-19497160D01*
X13928286Y-19371723D01*
X13928285Y-19371722D01*
X13928282Y-19371718D01*
X13928277Y-19371714D01*
X13928276Y-19371713D01*
X13821480Y-19289766D01*
X13802841Y-19275464D01*
X13802840Y-19275463D01*
X13802838Y-19275462D01*
X13656766Y-19214957D01*
X13656758Y-19214955D01*
X13500001Y-19194318D01*
X13499999Y-19194318D01*
X13343241Y-19214955D01*
X13343233Y-19214957D01*
X13197161Y-19275462D01*
X13197160Y-19275462D01*
X13071723Y-19371713D01*
X13071713Y-19371723D01*
X12975462Y-19497160D01*
X12975462Y-19497161D01*
X12914957Y-19643233D01*
X12914955Y-19643241D01*
X12894318Y-19799999D01*
X12636629Y-19799999D01*
X12635844Y-19794038D01*
X12604365Y-19718042D01*
X12575337Y-19647961D01*
X12575337Y-19647960D01*
X12479086Y-19522523D01*
X12479085Y-19522522D01*
X12479082Y-19522518D01*
X12479077Y-19522514D01*
X12479076Y-19522513D01*
X12406830Y-19467077D01*
X12353641Y-19426264D01*
X12353640Y-19426263D01*
X12353638Y-19426262D01*
X12207566Y-19365757D01*
X12207558Y-19365755D01*
X12050801Y-19345118D01*
X12050799Y-19345118D01*
X11894041Y-19365755D01*
X11894033Y-19365757D01*
X11747961Y-19426262D01*
X11747960Y-19426262D01*
X11622523Y-19522513D01*
X11622513Y-19522523D01*
X11526262Y-19647960D01*
X11526262Y-19647961D01*
X11465757Y-19794033D01*
X11465755Y-19794041D01*
X11445118Y-19950799D01*
X4270058Y-19950799D01*
X4269063Y-19943238D01*
X4209732Y-19800000D01*
X4208556Y-19797161D01*
X4208556Y-19797160D01*
X4112305Y-19671723D01*
X4112304Y-19671722D01*
X4112301Y-19671718D01*
X4112296Y-19671714D01*
X4112295Y-19671713D01*
X3986857Y-19575462D01*
X3840785Y-19514957D01*
X3840777Y-19514955D01*
X3684020Y-19494318D01*
X3684018Y-19494318D01*
X3527260Y-19514955D01*
X3527252Y-19514957D01*
X3381180Y-19575462D01*
X3381179Y-19575462D01*
X3255742Y-19671713D01*
X3255732Y-19671723D01*
X3159481Y-19797160D01*
X3159481Y-19797161D01*
X3098976Y-19943233D01*
X3098974Y-19943241D01*
X3078337Y-20099999D01*
X-15852334Y-20099999D01*
X-16028942Y-19964476D01*
X-16032969Y-19961215D01*
X-17002661Y-19132999D01*
X-12930682Y-19132999D01*
X-12930682Y-19133000D01*
X-12910045Y-19289758D01*
X-12910043Y-19289766D01*
X-12849538Y-19435838D01*
X-12849538Y-19435839D01*
X-12783027Y-19522518D01*
X-12753282Y-19561282D01*
X-12627841Y-19657536D01*
X-12481762Y-19718044D01*
X-12364191Y-19733522D01*
X-12325001Y-19738682D01*
X-12325000Y-19738682D01*
X-12324999Y-19738682D01*
X-12293648Y-19734554D01*
X-12168238Y-19718044D01*
X-12022159Y-19657536D01*
X-11896718Y-19561282D01*
X-11800464Y-19435841D01*
X-11739956Y-19289762D01*
X-11719318Y-19133000D01*
X-11739956Y-18976238D01*
X-11740661Y-18974536D01*
X-11787526Y-18861394D01*
X6158325Y-18861394D01*
X6158325Y-18861395D01*
X6178962Y-19018153D01*
X6178964Y-19018161D01*
X6239469Y-19164233D01*
X6239469Y-19164234D01*
X6324817Y-19275462D01*
X6335725Y-19289677D01*
X6335729Y-19289680D01*
X6335730Y-19289681D01*
X6335836Y-19289762D01*
X6461166Y-19385931D01*
X6607245Y-19446439D01*
X6724816Y-19461917D01*
X6764006Y-19467077D01*
X6764007Y-19467077D01*
X6764008Y-19467077D01*
X6795359Y-19462949D01*
X6920769Y-19446439D01*
X7066848Y-19385931D01*
X7192289Y-19289677D01*
X7252018Y-19211835D01*
X7302440Y-19177182D01*
X7363604Y-19178783D01*
X7409100Y-19211838D01*
X7411492Y-19214956D01*
X7421718Y-19228282D01*
X7547159Y-19324536D01*
X7547160Y-19324536D01*
X7547161Y-19324537D01*
X7676913Y-19378282D01*
X7693238Y-19385044D01*
X7810809Y-19400522D01*
X7849999Y-19405682D01*
X7850000Y-19405682D01*
X7850001Y-19405682D01*
X7881352Y-19401554D01*
X8006762Y-19385044D01*
X8152841Y-19324536D01*
X8278282Y-19228282D01*
X8374536Y-19102841D01*
X8435044Y-18956762D01*
X8455682Y-18800000D01*
X8435044Y-18643238D01*
X8419935Y-18606762D01*
X8374537Y-18497161D01*
X8374537Y-18497160D01*
X8338349Y-18449999D01*
X11144318Y-18449999D01*
X11144318Y-18450000D01*
X11164955Y-18606758D01*
X11164957Y-18606766D01*
X11225462Y-18752838D01*
X11225462Y-18752839D01*
X11308759Y-18861394D01*
X11321718Y-18878282D01*
X11447159Y-18974536D01*
X11447160Y-18974536D01*
X11447161Y-18974537D01*
X11567775Y-19024497D01*
X11593238Y-19035044D01*
X11710809Y-19050522D01*
X11749999Y-19055682D01*
X11750000Y-19055682D01*
X11750001Y-19055682D01*
X11781352Y-19051554D01*
X11906762Y-19035044D01*
X12052841Y-18974536D01*
X12178282Y-18878282D01*
X12274536Y-18752841D01*
X12335044Y-18606762D01*
X12355682Y-18450000D01*
X12353459Y-18433118D01*
X12340787Y-18336859D01*
X12335044Y-18293238D01*
X12302619Y-18214957D01*
X12286275Y-18175499D01*
X12854768Y-18175499D01*
X12854768Y-18175500D01*
X12875405Y-18332258D01*
X12875407Y-18332266D01*
X12935912Y-18478338D01*
X12935912Y-18478339D01*
X12989331Y-18547956D01*
X13032168Y-18603782D01*
X13032172Y-18603785D01*
X13032173Y-18603786D01*
X13036057Y-18606766D01*
X13157609Y-18700036D01*
X13157610Y-18700036D01*
X13157611Y-18700037D01*
X13285091Y-18752841D01*
X13303688Y-18760544D01*
X13421259Y-18776022D01*
X13460449Y-18781182D01*
X13460450Y-18781182D01*
X13460451Y-18781182D01*
X13491802Y-18777054D01*
X13617212Y-18760544D01*
X13763291Y-18700036D01*
X13888732Y-18603782D01*
X13984986Y-18478341D01*
X14045494Y-18332262D01*
X14066132Y-18175500D01*
X14064340Y-18161892D01*
X14059915Y-18128276D01*
X14045494Y-18018738D01*
X14045492Y-18018733D01*
X13984987Y-17872661D01*
X13984987Y-17872660D01*
X13888736Y-17747223D01*
X13888735Y-17747222D01*
X13888732Y-17747218D01*
X13888727Y-17747214D01*
X13888726Y-17747213D01*
X13827195Y-17699999D01*
X21944318Y-17699999D01*
X21944318Y-17700000D01*
X21964955Y-17856758D01*
X21964957Y-17856766D01*
X22025462Y-18002838D01*
X22025462Y-18002839D01*
X22121713Y-18128276D01*
X22121718Y-18128282D01*
X22247159Y-18224536D01*
X22247160Y-18224536D01*
X22247161Y-18224537D01*
X22393233Y-18285042D01*
X22393238Y-18285044D01*
X22510809Y-18300522D01*
X22549999Y-18305682D01*
X22550000Y-18305682D01*
X22550001Y-18305682D01*
X22581352Y-18301554D01*
X22706762Y-18285044D01*
X22852841Y-18224536D01*
X22978282Y-18128282D01*
X23074536Y-18002841D01*
X23135044Y-17856762D01*
X23155682Y-17700000D01*
X23135044Y-17543238D01*
X23128847Y-17528276D01*
X23074537Y-17397161D01*
X23074537Y-17397160D01*
X22978286Y-17271723D01*
X22978285Y-17271722D01*
X22978282Y-17271718D01*
X22978277Y-17271714D01*
X22978276Y-17271713D01*
X22852838Y-17175462D01*
X22706766Y-17114957D01*
X22706758Y-17114955D01*
X22550001Y-17094318D01*
X22549999Y-17094318D01*
X22393241Y-17114955D01*
X22393233Y-17114957D01*
X22247161Y-17175462D01*
X22247160Y-17175462D01*
X22121723Y-17271713D01*
X22121713Y-17271723D01*
X22025462Y-17397160D01*
X22025462Y-17397161D01*
X21964957Y-17543233D01*
X21964955Y-17543241D01*
X21944318Y-17699999D01*
X13827195Y-17699999D01*
X13763288Y-17650962D01*
X13617216Y-17590457D01*
X13617208Y-17590455D01*
X13460451Y-17569818D01*
X13460449Y-17569818D01*
X13303691Y-17590455D01*
X13303683Y-17590457D01*
X13157611Y-17650962D01*
X13157610Y-17650962D01*
X13032173Y-17747213D01*
X13032163Y-17747223D01*
X12935912Y-17872660D01*
X12935912Y-17872661D01*
X12875407Y-18018733D01*
X12875405Y-18018741D01*
X12854768Y-18175499D01*
X12286275Y-18175499D01*
X12274537Y-18147161D01*
X12274537Y-18147160D01*
X12178286Y-18021723D01*
X12178285Y-18021722D01*
X12178282Y-18021718D01*
X12178277Y-18021714D01*
X12178276Y-18021713D01*
X12052838Y-17925462D01*
X11906766Y-17864957D01*
X11906758Y-17864955D01*
X11750001Y-17844318D01*
X11749999Y-17844318D01*
X11593241Y-17864955D01*
X11593233Y-17864957D01*
X11447161Y-17925462D01*
X11447160Y-17925462D01*
X11321723Y-18021713D01*
X11321713Y-18021723D01*
X11225462Y-18147160D01*
X11225462Y-18147161D01*
X11164957Y-18293233D01*
X11164955Y-18293241D01*
X11144318Y-18449999D01*
X8338349Y-18449999D01*
X8278286Y-18371723D01*
X8278285Y-18371722D01*
X8278282Y-18371718D01*
X8278277Y-18371714D01*
X8278276Y-18371713D01*
X8192222Y-18305682D01*
X8152841Y-18275464D01*
X8152840Y-18275463D01*
X8152838Y-18275462D01*
X8006766Y-18214957D01*
X8006758Y-18214955D01*
X7850001Y-18194318D01*
X7849999Y-18194318D01*
X7693241Y-18214955D01*
X7693233Y-18214957D01*
X7547161Y-18275462D01*
X7547160Y-18275462D01*
X7421723Y-18371713D01*
X7421716Y-18371720D01*
X7361990Y-18449557D01*
X7311565Y-18484212D01*
X7250401Y-18482610D01*
X7204907Y-18449557D01*
X7192289Y-18433113D01*
X7192284Y-18433109D01*
X7192283Y-18433108D01*
X7103465Y-18364956D01*
X7066848Y-18336859D01*
X7066847Y-18336858D01*
X7066845Y-18336857D01*
X6920773Y-18276352D01*
X6920765Y-18276350D01*
X6764008Y-18255713D01*
X6764006Y-18255713D01*
X6607248Y-18276350D01*
X6607240Y-18276352D01*
X6461168Y-18336857D01*
X6461167Y-18336857D01*
X6335730Y-18433108D01*
X6335720Y-18433118D01*
X6239469Y-18558555D01*
X6239469Y-18558556D01*
X6178964Y-18704628D01*
X6178962Y-18704636D01*
X6158325Y-18861394D01*
X-11787526Y-18861394D01*
X-11800463Y-18830161D01*
X-11800463Y-18830160D01*
X-11896714Y-18704723D01*
X-11896715Y-18704722D01*
X-11896718Y-18704718D01*
X-11896723Y-18704714D01*
X-11896724Y-18704713D01*
X-12022162Y-18608462D01*
X-12168234Y-18547957D01*
X-12168242Y-18547955D01*
X-12324999Y-18527318D01*
X-12325001Y-18527318D01*
X-12481759Y-18547955D01*
X-12481767Y-18547957D01*
X-12627839Y-18608462D01*
X-12627840Y-18608462D01*
X-12753277Y-18704713D01*
X-12753287Y-18704723D01*
X-12849538Y-18830160D01*
X-12849538Y-18830161D01*
X-12910043Y-18976233D01*
X-12910045Y-18976241D01*
X-12930682Y-19132999D01*
X-17002661Y-19132999D01*
X-17127722Y-19026184D01*
X-17131573Y-19022717D01*
X-17664699Y-18516798D01*
X-17918779Y-18332266D01*
X-18002999Y-18271099D01*
X-18003000Y-18271098D01*
X-18003002Y-18271097D01*
X-18384902Y-18100996D01*
X-18384903Y-18100995D01*
X-18793895Y-18014099D01*
X-18793898Y-18014099D01*
X-19211998Y-18014099D01*
X-19212002Y-18014099D01*
X-19621000Y-18100997D01*
X-20002997Y-18271097D01*
X-20003008Y-18271104D01*
X-20341192Y-18516794D01*
X-20341200Y-18516801D01*
X-20428277Y-18608464D01*
X-20684597Y-18878282D01*
X-20823496Y-19024495D01*
X-20823498Y-19024497D01*
X-21714999Y-19962897D01*
X-21714999Y-19962898D01*
X-22483359Y-20771713D01*
X-22550698Y-20842597D01*
X-22550700Y-20842598D01*
X-23328197Y-21660992D01*
X-23328198Y-21660995D01*
X-23987695Y-22355255D01*
X-24045392Y-22415993D01*
X-24045399Y-22416000D01*
X-24700504Y-23105504D01*
X-25291392Y-23727591D01*
X-25291400Y-23727600D01*
X-25816700Y-24280501D01*
X-25816700Y-24280502D01*
X-26124699Y-24604698D01*
X-26124709Y-24604709D01*
X-26124726Y-24604727D01*
X-26404495Y-24915489D01*
X-26404503Y-24915500D01*
X-26613599Y-25277603D01*
X-26742799Y-25675201D01*
X-26786500Y-26091003D01*
X-30301606Y-26091003D01*
X-30716313Y-25605430D01*
X-31084118Y-25174774D01*
X-31087378Y-25170749D01*
X-32060329Y-23902839D01*
X-32359133Y-23513450D01*
X-32362176Y-23509261D01*
X-32368541Y-23500000D01*
X-33545352Y-21787716D01*
X-33548150Y-21783407D01*
X-34639662Y-20002196D01*
X-34642249Y-19997713D01*
X-34662067Y-19961215D01*
X-35211135Y-18949999D01*
X-24655682Y-18949999D01*
X-24655682Y-18950000D01*
X-24635045Y-19106758D01*
X-24635043Y-19106766D01*
X-24574538Y-19252838D01*
X-24574538Y-19252839D01*
X-24487894Y-19365756D01*
X-24478282Y-19378282D01*
X-24352841Y-19474536D01*
X-24352840Y-19474536D01*
X-24352839Y-19474537D01*
X-24206767Y-19535042D01*
X-24206762Y-19535044D01*
X-24089191Y-19550522D01*
X-24050001Y-19555682D01*
X-24050000Y-19555682D01*
X-24049999Y-19555682D01*
X-24018648Y-19551554D01*
X-23893238Y-19535044D01*
X-23747159Y-19474536D01*
X-23621718Y-19378282D01*
X-23525464Y-19252841D01*
X-23464956Y-19106762D01*
X-23444318Y-18950000D01*
X-23464956Y-18793238D01*
X-23501657Y-18704633D01*
X-23525463Y-18647161D01*
X-23525463Y-18647160D01*
X-23621714Y-18521723D01*
X-23621715Y-18521722D01*
X-23621718Y-18521718D01*
X-23621723Y-18521714D01*
X-23621724Y-18521713D01*
X-23747162Y-18425462D01*
X-23893234Y-18364957D01*
X-23893242Y-18364955D01*
X-24049999Y-18344318D01*
X-24050001Y-18344318D01*
X-24206759Y-18364955D01*
X-24206767Y-18364957D01*
X-24352839Y-18425462D01*
X-24352840Y-18425462D01*
X-24478277Y-18521713D01*
X-24478287Y-18521723D01*
X-24574538Y-18647160D01*
X-24574538Y-18647161D01*
X-24635043Y-18793233D01*
X-24635045Y-18793241D01*
X-24655682Y-18949999D01*
X-35211135Y-18949999D01*
X-35639074Y-18161866D01*
X-35641426Y-18157249D01*
X-35646238Y-18147161D01*
X-36145692Y-17099999D01*
X-24505682Y-17099999D01*
X-24505682Y-17100000D01*
X-24485045Y-17256758D01*
X-24485043Y-17256766D01*
X-24424538Y-17402838D01*
X-24424538Y-17402839D01*
X-24424536Y-17402841D01*
X-24328282Y-17528282D01*
X-24202841Y-17624536D01*
X-24202840Y-17624536D01*
X-24202839Y-17624537D01*
X-24056767Y-17685042D01*
X-24056762Y-17685044D01*
X-23943167Y-17699999D01*
X-23900001Y-17705682D01*
X-23900000Y-17705682D01*
X-23899999Y-17705682D01*
X-23856833Y-17699999D01*
X-23743238Y-17685044D01*
X-23597159Y-17624536D01*
X-23471718Y-17528282D01*
X-23375464Y-17402841D01*
X-23314956Y-17256762D01*
X-23294318Y-17100000D01*
X-23314956Y-16943238D01*
X-23374287Y-16800000D01*
X-23375463Y-16797161D01*
X-23375463Y-16797160D01*
X-23471714Y-16671723D01*
X-23471715Y-16671722D01*
X-23471718Y-16671718D01*
X-23471723Y-16671714D01*
X-23471724Y-16671713D01*
X-23533255Y-16624499D01*
X-17830182Y-16624499D01*
X-17830182Y-16624500D01*
X-17809545Y-16781258D01*
X-17809543Y-16781266D01*
X-17749038Y-16927338D01*
X-17749038Y-16927339D01*
X-17666393Y-17035044D01*
X-17652782Y-17052782D01*
X-17527341Y-17149036D01*
X-17527340Y-17149036D01*
X-17527339Y-17149037D01*
X-17381267Y-17209542D01*
X-17381262Y-17209544D01*
X-17263691Y-17225022D01*
X-17224501Y-17230182D01*
X-17224500Y-17230182D01*
X-17224499Y-17230182D01*
X-17193148Y-17226054D01*
X-17067738Y-17209544D01*
X-16921659Y-17149036D01*
X-16796218Y-17052782D01*
X-16699964Y-16927341D01*
X-16639456Y-16781262D01*
X-16618818Y-16624500D01*
X-16639456Y-16467738D01*
X-16646804Y-16449999D01*
X8144318Y-16449999D01*
X8144318Y-16450000D01*
X8164955Y-16606758D01*
X8164957Y-16606766D01*
X8225462Y-16752838D01*
X8225462Y-16752839D01*
X8261650Y-16800000D01*
X8321718Y-16878282D01*
X8447159Y-16974536D01*
X8593238Y-17035044D01*
X8710809Y-17050522D01*
X8749999Y-17055682D01*
X8750000Y-17055682D01*
X8750001Y-17055682D01*
X8781352Y-17051554D01*
X8906762Y-17035044D01*
X9052841Y-16974536D01*
X9178282Y-16878282D01*
X9238350Y-16799999D01*
X13294318Y-16799999D01*
X13294318Y-16800000D01*
X13314955Y-16956758D01*
X13314957Y-16956766D01*
X13375462Y-17102838D01*
X13375462Y-17102839D01*
X13471713Y-17228276D01*
X13471718Y-17228282D01*
X13597159Y-17324536D01*
X13743238Y-17385044D01*
X13860809Y-17400522D01*
X13899999Y-17405682D01*
X13900000Y-17405682D01*
X13900001Y-17405682D01*
X13931352Y-17401554D01*
X14056762Y-17385044D01*
X14202841Y-17324536D01*
X14328282Y-17228282D01*
X14424536Y-17102841D01*
X14485044Y-16956762D01*
X14505682Y-16800000D01*
X14485044Y-16643238D01*
X14477297Y-16624536D01*
X14424537Y-16497161D01*
X14424537Y-16497160D01*
X14328286Y-16371723D01*
X14328285Y-16371722D01*
X14328282Y-16371718D01*
X14328277Y-16371714D01*
X14328276Y-16371713D01*
X14257104Y-16317101D01*
X14202841Y-16275464D01*
X14202840Y-16275463D01*
X14202838Y-16275462D01*
X14056766Y-16214957D01*
X14056758Y-16214955D01*
X13900001Y-16194318D01*
X13899999Y-16194318D01*
X13743241Y-16214955D01*
X13743233Y-16214957D01*
X13597161Y-16275462D01*
X13597160Y-16275462D01*
X13471723Y-16371713D01*
X13471713Y-16371723D01*
X13375462Y-16497160D01*
X13375462Y-16497161D01*
X13314957Y-16643233D01*
X13314955Y-16643241D01*
X13294318Y-16799999D01*
X9238350Y-16799999D01*
X9274536Y-16752841D01*
X9335044Y-16606762D01*
X9355682Y-16450000D01*
X9335044Y-16293238D01*
X9319935Y-16256762D01*
X9274537Y-16147161D01*
X9274537Y-16147160D01*
X9238349Y-16099999D01*
X18794318Y-16099999D01*
X18794318Y-16100000D01*
X18814955Y-16256758D01*
X18814957Y-16256766D01*
X18875462Y-16402838D01*
X18875462Y-16402839D01*
X18961493Y-16514957D01*
X18971718Y-16528282D01*
X19097159Y-16624536D01*
X19097160Y-16624536D01*
X19097161Y-16624537D01*
X19211054Y-16671713D01*
X19243238Y-16685044D01*
X19360809Y-16700522D01*
X19399999Y-16705682D01*
X19400000Y-16705682D01*
X19400001Y-16705682D01*
X19431352Y-16701554D01*
X19556762Y-16685044D01*
X19702841Y-16624536D01*
X19828282Y-16528282D01*
X19924536Y-16402841D01*
X19985044Y-16256762D01*
X20005682Y-16100000D01*
X19985044Y-15943238D01*
X19952619Y-15864957D01*
X19924537Y-15797161D01*
X19924537Y-15797160D01*
X19828286Y-15671723D01*
X19828285Y-15671722D01*
X19828282Y-15671718D01*
X19828277Y-15671714D01*
X19828276Y-15671713D01*
X19702838Y-15575462D01*
X19556766Y-15514957D01*
X19556758Y-15514955D01*
X19443153Y-15499999D01*
X20194318Y-15499999D01*
X20194318Y-15500000D01*
X20214955Y-15656758D01*
X20214957Y-15656766D01*
X20275462Y-15802838D01*
X20275462Y-15802839D01*
X20371713Y-15928276D01*
X20371718Y-15928282D01*
X20497159Y-16024536D01*
X20497160Y-16024536D01*
X20497161Y-16024537D01*
X20533179Y-16039456D01*
X20643238Y-16085044D01*
X20756552Y-16099962D01*
X20799999Y-16105682D01*
X20800000Y-16105682D01*
X20800001Y-16105682D01*
X20843167Y-16099999D01*
X20956762Y-16085044D01*
X21102841Y-16024536D01*
X21228282Y-15928282D01*
X21324536Y-15802841D01*
X21385044Y-15656762D01*
X21405682Y-15500000D01*
X21385044Y-15343238D01*
X21324537Y-15197161D01*
X21324537Y-15197160D01*
X21228286Y-15071723D01*
X21228285Y-15071722D01*
X21228282Y-15071718D01*
X21228277Y-15071714D01*
X21228276Y-15071713D01*
X21102838Y-14975462D01*
X20956766Y-14914957D01*
X20956758Y-14914955D01*
X20800001Y-14894318D01*
X20799999Y-14894318D01*
X20643241Y-14914955D01*
X20643233Y-14914957D01*
X20497161Y-14975462D01*
X20497160Y-14975462D01*
X20371723Y-15071713D01*
X20371713Y-15071723D01*
X20275462Y-15197160D01*
X20275462Y-15197161D01*
X20214957Y-15343233D01*
X20214955Y-15343241D01*
X20194318Y-15499999D01*
X19443153Y-15499999D01*
X19400001Y-15494318D01*
X19399999Y-15494318D01*
X19243241Y-15514955D01*
X19243233Y-15514957D01*
X19097161Y-15575462D01*
X19097160Y-15575462D01*
X18971723Y-15671713D01*
X18971713Y-15671723D01*
X18875462Y-15797160D01*
X18875462Y-15797161D01*
X18814957Y-15943233D01*
X18814955Y-15943241D01*
X18794318Y-16099999D01*
X9238349Y-16099999D01*
X9178286Y-16021723D01*
X9178285Y-16021722D01*
X9178282Y-16021718D01*
X9178277Y-16021714D01*
X9178276Y-16021713D01*
X9107104Y-15967101D01*
X9052841Y-15925464D01*
X9052840Y-15925463D01*
X9052838Y-15925462D01*
X8906766Y-15864957D01*
X8906758Y-15864955D01*
X8750001Y-15844318D01*
X8749999Y-15844318D01*
X8593241Y-15864955D01*
X8593233Y-15864957D01*
X8447161Y-15925462D01*
X8447160Y-15925462D01*
X8321723Y-16021713D01*
X8321713Y-16021723D01*
X8225462Y-16147160D01*
X8225462Y-16147161D01*
X8164957Y-16293233D01*
X8164955Y-16293241D01*
X8144318Y-16449999D01*
X-16646804Y-16449999D01*
X-16666338Y-16402839D01*
X-16699963Y-16321661D01*
X-16699963Y-16321660D01*
X-16796214Y-16196223D01*
X-16796215Y-16196222D01*
X-16796218Y-16196218D01*
X-16796223Y-16196214D01*
X-16796224Y-16196213D01*
X-16921612Y-16100000D01*
X-16921659Y-16099964D01*
X-16921660Y-16099963D01*
X-16921662Y-16099962D01*
X-17067734Y-16039457D01*
X-17067742Y-16039455D01*
X-17224499Y-16018818D01*
X-17224501Y-16018818D01*
X-17381259Y-16039455D01*
X-17381267Y-16039457D01*
X-17527339Y-16099962D01*
X-17527340Y-16099962D01*
X-17652777Y-16196213D01*
X-17652787Y-16196223D01*
X-17749038Y-16321660D01*
X-17749038Y-16321661D01*
X-17809543Y-16467733D01*
X-17809545Y-16467741D01*
X-17830182Y-16624499D01*
X-23533255Y-16624499D01*
X-23597162Y-16575462D01*
X-23743234Y-16514957D01*
X-23743242Y-16514955D01*
X-23899999Y-16494318D01*
X-23900001Y-16494318D01*
X-24056759Y-16514955D01*
X-24056767Y-16514957D01*
X-24202839Y-16575462D01*
X-24202840Y-16575462D01*
X-24328277Y-16671713D01*
X-24328287Y-16671723D01*
X-24424538Y-16797160D01*
X-24424538Y-16797161D01*
X-24485043Y-16943233D01*
X-24485045Y-16943241D01*
X-24505682Y-17099999D01*
X-36145692Y-17099999D01*
X-36455715Y-16449999D01*
X-29105682Y-16449999D01*
X-29105682Y-16450000D01*
X-29085045Y-16606758D01*
X-29085043Y-16606766D01*
X-29024538Y-16752838D01*
X-29024538Y-16752839D01*
X-28988350Y-16800000D01*
X-28928282Y-16878282D01*
X-28802841Y-16974536D01*
X-28656762Y-17035044D01*
X-28539191Y-17050522D01*
X-28500001Y-17055682D01*
X-28500000Y-17055682D01*
X-28499999Y-17055682D01*
X-28468648Y-17051554D01*
X-28343238Y-17035044D01*
X-28197159Y-16974536D01*
X-28071718Y-16878282D01*
X-27975464Y-16752841D01*
X-27914956Y-16606762D01*
X-27894318Y-16450000D01*
X-27914956Y-16293238D01*
X-27930065Y-16256762D01*
X-27975463Y-16147161D01*
X-27975463Y-16147160D01*
X-28071714Y-16021723D01*
X-28071715Y-16021722D01*
X-28071718Y-16021718D01*
X-28071723Y-16021714D01*
X-28071724Y-16021713D01*
X-28142896Y-15967101D01*
X-28197159Y-15925464D01*
X-28197160Y-15925463D01*
X-28197162Y-15925462D01*
X-28343234Y-15864957D01*
X-28343242Y-15864955D01*
X-28499999Y-15844318D01*
X-28500001Y-15844318D01*
X-28656759Y-15864955D01*
X-28656767Y-15864957D01*
X-28802839Y-15925462D01*
X-28802840Y-15925462D01*
X-28928277Y-16021713D01*
X-28928287Y-16021723D01*
X-29024538Y-16147160D01*
X-29024538Y-16147161D01*
X-29085043Y-16293233D01*
X-29085045Y-16293241D01*
X-29105682Y-16449999D01*
X-36455715Y-16449999D01*
X-36516928Y-16321660D01*
X-36540688Y-16271844D01*
X-36542796Y-16267110D01*
X-36542799Y-16267102D01*
X-36901956Y-15399999D01*
X12144318Y-15399999D01*
X12144318Y-15400000D01*
X12164955Y-15556758D01*
X12164957Y-15556766D01*
X12225462Y-15702838D01*
X12225462Y-15702839D01*
X12297837Y-15797160D01*
X12321718Y-15828282D01*
X12447159Y-15924536D01*
X12447160Y-15924536D01*
X12447161Y-15924537D01*
X12593233Y-15985042D01*
X12593238Y-15985044D01*
X12710809Y-16000522D01*
X12749999Y-16005682D01*
X12750000Y-16005682D01*
X12750001Y-16005682D01*
X12781352Y-16001554D01*
X12906762Y-15985044D01*
X13052841Y-15924536D01*
X13178282Y-15828282D01*
X13274536Y-15702841D01*
X13335044Y-15556762D01*
X13355682Y-15400000D01*
X13335044Y-15243238D01*
X13315958Y-15197160D01*
X13274537Y-15097161D01*
X13274537Y-15097160D01*
X13178286Y-14971723D01*
X13178285Y-14971722D01*
X13178282Y-14971718D01*
X13178277Y-14971714D01*
X13178276Y-14971713D01*
X13104307Y-14914955D01*
X13052841Y-14875464D01*
X13052840Y-14875463D01*
X13052838Y-14875462D01*
X12906766Y-14814957D01*
X12906758Y-14814955D01*
X12750001Y-14794318D01*
X12749999Y-14794318D01*
X12593241Y-14814955D01*
X12593233Y-14814957D01*
X12447161Y-14875462D01*
X12447160Y-14875462D01*
X12321723Y-14971713D01*
X12321713Y-14971723D01*
X12225462Y-15097160D01*
X12225462Y-15097161D01*
X12164957Y-15243233D01*
X12164955Y-15243241D01*
X12144318Y-15399999D01*
X-36901956Y-15399999D01*
X-37342225Y-14337067D01*
X-37344061Y-14332283D01*
X-37497156Y-13899999D01*
X-8250000Y-13899999D01*
X-8250000Y-13900002D01*
X-8188821Y-14286297D01*
X-8188820Y-14286302D01*
X-8025509Y-14606758D01*
X-8011269Y-14634700D01*
X-7734730Y-14911300D01*
X-7386269Y-15088798D01*
X-7386268Y-15088798D01*
X-7386266Y-15088799D01*
X-7000001Y-15150001D01*
X-7000000Y-15150001D01*
X-6999998Y-15150001D01*
X-6613736Y-15088799D01*
X-6613735Y-15088798D01*
X-6613732Y-15088798D01*
X-6265271Y-14911300D01*
X-5988732Y-14634700D01*
X-5894605Y-14449999D01*
X21694318Y-14449999D01*
X21694318Y-14450000D01*
X21714955Y-14606758D01*
X21714957Y-14606766D01*
X21775462Y-14752838D01*
X21775462Y-14752839D01*
X21871713Y-14878276D01*
X21871718Y-14878282D01*
X21997159Y-14974536D01*
X21997160Y-14974536D01*
X21997161Y-14974537D01*
X21999399Y-14975464D01*
X22143238Y-15035044D01*
X22260809Y-15050522D01*
X22299999Y-15055682D01*
X22300000Y-15055682D01*
X22300001Y-15055682D01*
X22331352Y-15051554D01*
X22456762Y-15035044D01*
X22602841Y-14974536D01*
X22728282Y-14878282D01*
X22824536Y-14752841D01*
X22885044Y-14606762D01*
X22905682Y-14450000D01*
X22885044Y-14293238D01*
X22824537Y-14147161D01*
X22824537Y-14147160D01*
X22728286Y-14021723D01*
X22728285Y-14021722D01*
X22728282Y-14021718D01*
X22728277Y-14021714D01*
X22728276Y-14021713D01*
X22602838Y-13925462D01*
X22456766Y-13864957D01*
X22456758Y-13864955D01*
X22300001Y-13844318D01*
X22299999Y-13844318D01*
X22143241Y-13864955D01*
X22143233Y-13864957D01*
X21997161Y-13925462D01*
X21997160Y-13925462D01*
X21871723Y-14021713D01*
X21871713Y-14021723D01*
X21775462Y-14147160D01*
X21775462Y-14147161D01*
X21714957Y-14293233D01*
X21714955Y-14293241D01*
X21694318Y-14449999D01*
X-5894605Y-14449999D01*
X-5811181Y-14286300D01*
X-5750000Y-13900001D01*
X-5761952Y-13824537D01*
X-5778919Y-13717403D01*
X12676914Y-13717403D01*
X12676914Y-13717404D01*
X12697551Y-13874162D01*
X12697553Y-13874170D01*
X12758058Y-14020242D01*
X12758058Y-14020243D01*
X12758060Y-14020245D01*
X12854314Y-14145686D01*
X12854318Y-14145689D01*
X12854319Y-14145690D01*
X12856235Y-14147160D01*
X12979755Y-14241940D01*
X13125834Y-14302448D01*
X13243405Y-14317926D01*
X13282595Y-14323086D01*
X13282596Y-14323086D01*
X13282597Y-14323086D01*
X13313948Y-14318958D01*
X13439358Y-14302448D01*
X13585437Y-14241940D01*
X13710878Y-14145686D01*
X13807132Y-14020245D01*
X13867640Y-13874166D01*
X13888278Y-13717404D01*
X13867640Y-13560642D01*
X13824613Y-13456766D01*
X13807133Y-13414565D01*
X13807133Y-13414564D01*
X13719224Y-13299999D01*
X26794318Y-13299999D01*
X26794318Y-13300000D01*
X26814955Y-13456758D01*
X26814957Y-13456766D01*
X26875462Y-13602838D01*
X26875462Y-13602839D01*
X26875464Y-13602841D01*
X26971718Y-13728282D01*
X27097159Y-13824536D01*
X27097160Y-13824536D01*
X27097161Y-13824537D01*
X27216976Y-13874166D01*
X27243238Y-13885044D01*
X27356833Y-13899999D01*
X27399999Y-13905682D01*
X27400000Y-13905682D01*
X27400001Y-13905682D01*
X27443144Y-13900002D01*
X27556762Y-13885044D01*
X27702841Y-13824536D01*
X27828282Y-13728282D01*
X27924536Y-13602841D01*
X27985044Y-13456762D01*
X28005682Y-13300000D01*
X27985044Y-13143238D01*
X27925713Y-13000000D01*
X27924537Y-12997161D01*
X27924537Y-12997160D01*
X27828286Y-12871723D01*
X27828285Y-12871722D01*
X27828282Y-12871718D01*
X27828277Y-12871714D01*
X27828276Y-12871713D01*
X27702838Y-12775462D01*
X27556766Y-12714957D01*
X27556758Y-12714955D01*
X27400001Y-12694318D01*
X27399999Y-12694318D01*
X27243241Y-12714955D01*
X27243233Y-12714957D01*
X27097161Y-12775462D01*
X27097160Y-12775462D01*
X26971723Y-12871713D01*
X26971713Y-12871723D01*
X26875462Y-12997160D01*
X26875462Y-12997161D01*
X26814957Y-13143233D01*
X26814955Y-13143241D01*
X26794318Y-13299999D01*
X13719224Y-13299999D01*
X13710882Y-13289127D01*
X13710881Y-13289126D01*
X13710878Y-13289122D01*
X13710873Y-13289118D01*
X13710872Y-13289117D01*
X13585434Y-13192866D01*
X13439362Y-13132361D01*
X13439354Y-13132359D01*
X13282597Y-13111722D01*
X13282595Y-13111722D01*
X13125837Y-13132359D01*
X13125829Y-13132361D01*
X12979757Y-13192866D01*
X12979756Y-13192866D01*
X12854319Y-13289117D01*
X12854309Y-13289127D01*
X12758058Y-13414564D01*
X12758058Y-13414565D01*
X12697553Y-13560637D01*
X12697551Y-13560645D01*
X12676914Y-13717403D01*
X-5778919Y-13717403D01*
X-5797063Y-13602839D01*
X-5811181Y-13513698D01*
X-5811182Y-13513696D01*
X-5811182Y-13513695D01*
X-5918639Y-13302838D01*
X-5988732Y-13165298D01*
X-6265271Y-12888698D01*
X-6613732Y-12711200D01*
X-6613733Y-12711199D01*
X-6613734Y-12711199D01*
X-6613738Y-12711198D01*
X-6889555Y-12667499D01*
X-388182Y-12667499D01*
X-388182Y-12667500D01*
X-367545Y-12824258D01*
X-367543Y-12824266D01*
X-307038Y-12970338D01*
X-307038Y-12970339D01*
X-241168Y-13056182D01*
X-210782Y-13095782D01*
X-85341Y-13192036D01*
X-85340Y-13192036D01*
X-85339Y-13192037D01*
X60733Y-13252542D01*
X60738Y-13252544D01*
X178309Y-13268022D01*
X217499Y-13273182D01*
X217500Y-13273182D01*
X217501Y-13273182D01*
X248852Y-13269054D01*
X374262Y-13252544D01*
X520341Y-13192036D01*
X645782Y-13095782D01*
X742036Y-12970341D01*
X802544Y-12824262D01*
X823182Y-12667500D01*
X802544Y-12510738D01*
X777592Y-12450499D01*
X5794318Y-12450499D01*
X5794318Y-12450500D01*
X5814955Y-12607258D01*
X5814957Y-12607266D01*
X5875462Y-12753338D01*
X5875462Y-12753339D01*
X5966301Y-12871723D01*
X5971718Y-12878782D01*
X6097159Y-12975036D01*
X6097160Y-12975036D01*
X6097161Y-12975037D01*
X6150571Y-12997160D01*
X6243238Y-13035544D01*
X6360809Y-13051022D01*
X6399999Y-13056182D01*
X6400000Y-13056182D01*
X6400001Y-13056182D01*
X6431352Y-13052054D01*
X6556762Y-13035544D01*
X6642575Y-12999999D01*
X10094318Y-12999999D01*
X10094318Y-13000000D01*
X10114955Y-13156758D01*
X10114957Y-13156766D01*
X10175462Y-13302838D01*
X10175462Y-13302839D01*
X10271713Y-13428276D01*
X10271718Y-13428282D01*
X10397159Y-13524536D01*
X10397160Y-13524536D01*
X10397161Y-13524537D01*
X10543233Y-13585042D01*
X10543238Y-13585044D01*
X10660809Y-13600522D01*
X10699999Y-13605682D01*
X10700000Y-13605682D01*
X10700001Y-13605682D01*
X10731352Y-13601554D01*
X10856762Y-13585044D01*
X11002841Y-13524536D01*
X11128282Y-13428282D01*
X11224536Y-13302841D01*
X11285044Y-13156762D01*
X11305682Y-13000000D01*
X11285044Y-12843238D01*
X11256970Y-12775462D01*
X11224537Y-12697161D01*
X11224537Y-12697160D01*
X11128286Y-12571723D01*
X11128285Y-12571722D01*
X11128282Y-12571718D01*
X11128277Y-12571714D01*
X11128276Y-12571713D01*
X11002838Y-12475462D01*
X10856766Y-12414957D01*
X10856758Y-12414955D01*
X10700001Y-12394318D01*
X10699999Y-12394318D01*
X10543241Y-12414955D01*
X10543233Y-12414957D01*
X10397161Y-12475462D01*
X10397160Y-12475462D01*
X10271723Y-12571713D01*
X10271713Y-12571723D01*
X10175462Y-12697160D01*
X10175462Y-12697161D01*
X10114957Y-12843233D01*
X10114955Y-12843241D01*
X10094318Y-12999999D01*
X6642575Y-12999999D01*
X6702841Y-12975036D01*
X6828282Y-12878782D01*
X6924536Y-12753341D01*
X6985044Y-12607262D01*
X7005682Y-12450500D01*
X6985044Y-12293738D01*
X6924537Y-12147661D01*
X6924537Y-12147660D01*
X6828286Y-12022223D01*
X6828285Y-12022222D01*
X6828282Y-12022218D01*
X6828277Y-12022214D01*
X6828276Y-12022213D01*
X6702838Y-11925962D01*
X6556766Y-11865457D01*
X6556758Y-11865455D01*
X6400001Y-11844818D01*
X6399999Y-11844818D01*
X6243241Y-11865455D01*
X6243233Y-11865457D01*
X6097161Y-11925962D01*
X6097160Y-11925962D01*
X5971723Y-12022213D01*
X5971713Y-12022223D01*
X5875462Y-12147660D01*
X5875462Y-12147661D01*
X5814957Y-12293733D01*
X5814955Y-12293741D01*
X5794318Y-12450499D01*
X777592Y-12450499D01*
X742037Y-12364661D01*
X742037Y-12364660D01*
X645786Y-12239223D01*
X645785Y-12239222D01*
X645782Y-12239218D01*
X645777Y-12239214D01*
X645776Y-12239213D01*
X526461Y-12147660D01*
X520341Y-12142964D01*
X520340Y-12142963D01*
X520338Y-12142962D01*
X374266Y-12082457D01*
X374258Y-12082455D01*
X217501Y-12061818D01*
X217499Y-12061818D01*
X60741Y-12082455D01*
X60733Y-12082457D01*
X-85339Y-12142962D01*
X-85340Y-12142962D01*
X-210777Y-12239213D01*
X-210787Y-12239223D01*
X-307038Y-12364660D01*
X-307038Y-12364661D01*
X-367543Y-12510733D01*
X-367545Y-12510741D01*
X-388182Y-12667499D01*
X-6889555Y-12667499D01*
X-6999998Y-12650001D01*
X-7000002Y-12650001D01*
X-7386264Y-12711198D01*
X-7386268Y-12711199D01*
X-7734731Y-12888698D01*
X-8011269Y-13165296D01*
X-8188821Y-13513704D01*
X-8250000Y-13899999D01*
X-37497156Y-13899999D01*
X-38041441Y-12363137D01*
X-38043040Y-12358218D01*
X-38062137Y-12293741D01*
X-38297227Y-11499999D01*
X21694318Y-11499999D01*
X21694318Y-11500000D01*
X21714955Y-11656758D01*
X21714957Y-11656766D01*
X21775462Y-11802838D01*
X21775462Y-11802839D01*
X21869939Y-11925964D01*
X21871718Y-11928282D01*
X21997159Y-12024536D01*
X21997160Y-12024536D01*
X21997161Y-12024537D01*
X22136990Y-12082456D01*
X22143238Y-12085044D01*
X22260809Y-12100522D01*
X22299999Y-12105682D01*
X22300000Y-12105682D01*
X22300001Y-12105682D01*
X22331352Y-12101554D01*
X22456762Y-12085044D01*
X22602841Y-12024536D01*
X22728282Y-11928282D01*
X22824536Y-11802841D01*
X22885044Y-11656762D01*
X22905682Y-11500000D01*
X22885044Y-11343238D01*
X22824537Y-11197161D01*
X22824537Y-11197160D01*
X22728286Y-11071723D01*
X22728285Y-11071722D01*
X22728282Y-11071718D01*
X22728277Y-11071714D01*
X22728276Y-11071713D01*
X22602838Y-10975462D01*
X22456766Y-10914957D01*
X22456758Y-10914955D01*
X22300001Y-10894318D01*
X22299999Y-10894318D01*
X22143241Y-10914955D01*
X22143233Y-10914957D01*
X21997161Y-10975462D01*
X21997160Y-10975462D01*
X21871723Y-11071713D01*
X21871713Y-11071723D01*
X21775462Y-11197160D01*
X21775462Y-11197161D01*
X21714957Y-11343233D01*
X21714955Y-11343241D01*
X21694318Y-11499999D01*
X-38297227Y-11499999D01*
X-38636273Y-10355271D01*
X-38637612Y-10350270D01*
X-39057832Y-8599999D01*
X-30964682Y-8599999D01*
X-30964682Y-8600000D01*
X-30944045Y-8756758D01*
X-30944043Y-8756766D01*
X-30883538Y-8902838D01*
X-30883538Y-8902839D01*
X-30875111Y-8913821D01*
X-30787282Y-9028282D01*
X-30661841Y-9124536D01*
X-30515762Y-9185044D01*
X-30398191Y-9200522D01*
X-30359001Y-9205682D01*
X-30359000Y-9205682D01*
X-30358999Y-9205682D01*
X-30327648Y-9201554D01*
X-30202238Y-9185044D01*
X-30056159Y-9124536D01*
X-29930718Y-9028282D01*
X-29834464Y-8902841D01*
X-29773956Y-8756762D01*
X-29754763Y-8610979D01*
X-8162640Y-8610979D01*
X-8162640Y-8610980D01*
X-8142003Y-8767738D01*
X-8142001Y-8767746D01*
X-8081496Y-8913818D01*
X-8081496Y-8913819D01*
X-7985245Y-9039256D01*
X-7985240Y-9039262D01*
X-7859799Y-9135516D01*
X-7713720Y-9196024D01*
X-7596149Y-9211502D01*
X-7556959Y-9216662D01*
X-7556958Y-9216662D01*
X-7556957Y-9216662D01*
X-7525606Y-9212534D01*
X-7400196Y-9196024D01*
X-7254117Y-9135516D01*
X-7128676Y-9039262D01*
X-7032422Y-8913821D01*
X-6971914Y-8767742D01*
X-6951276Y-8610980D01*
X-6952722Y-8600000D01*
X-6971914Y-8454221D01*
X-6971914Y-8454218D01*
X-7027918Y-8319012D01*
X-7032421Y-8308141D01*
X-7032421Y-8308140D01*
X-7128672Y-8182703D01*
X-7128673Y-8182702D01*
X-7128676Y-8182698D01*
X-7128681Y-8182694D01*
X-7128682Y-8182693D01*
X-7254120Y-8086442D01*
X-7400192Y-8025937D01*
X-7400200Y-8025935D01*
X-7556957Y-8005298D01*
X-7556959Y-8005298D01*
X-7713717Y-8025935D01*
X-7713725Y-8025937D01*
X-7859797Y-8086442D01*
X-7859798Y-8086442D01*
X-7985235Y-8182693D01*
X-7985245Y-8182703D01*
X-8081496Y-8308140D01*
X-8081496Y-8308141D01*
X-8142001Y-8454213D01*
X-8142003Y-8454221D01*
X-8162640Y-8610979D01*
X-29754763Y-8610979D01*
X-29753318Y-8600000D01*
X-29773956Y-8443238D01*
X-29825412Y-8319012D01*
X-29834463Y-8297161D01*
X-29834463Y-8297160D01*
X-29930714Y-8171723D01*
X-29930715Y-8171722D01*
X-29930718Y-8171718D01*
X-29930723Y-8171714D01*
X-29930724Y-8171713D01*
X-30056162Y-8075462D01*
X-30202234Y-8014957D01*
X-30202242Y-8014955D01*
X-30358999Y-7994318D01*
X-30359001Y-7994318D01*
X-30515759Y-8014955D01*
X-30515767Y-8014957D01*
X-30661839Y-8075462D01*
X-30661840Y-8075462D01*
X-30787277Y-8171713D01*
X-30787287Y-8171723D01*
X-30883538Y-8297160D01*
X-30883538Y-8297161D01*
X-30944043Y-8443233D01*
X-30944045Y-8443241D01*
X-30964682Y-8599999D01*
X-39057832Y-8599999D01*
X-39125300Y-8318987D01*
X-39126378Y-8313915D01*
X-39129483Y-8297160D01*
X-39507035Y-6259909D01*
X-39507837Y-6254854D01*
X-39512208Y-6221662D01*
X-19212941Y-6221662D01*
X-19212941Y-6221663D01*
X-19192304Y-6378421D01*
X-19192302Y-6378429D01*
X-19131797Y-6524501D01*
X-19131797Y-6524502D01*
X-19035546Y-6649939D01*
X-19035541Y-6649945D01*
X-19035537Y-6649948D01*
X-19035536Y-6649949D01*
X-19007172Y-6671713D01*
X-18910100Y-6746199D01*
X-18910099Y-6746199D01*
X-18910098Y-6746200D01*
X-18787067Y-6797161D01*
X-18764021Y-6806707D01*
X-18646450Y-6822185D01*
X-18607260Y-6827345D01*
X-18607259Y-6827345D01*
X-18607258Y-6827345D01*
X-18575907Y-6823217D01*
X-18450497Y-6806707D01*
X-18304418Y-6746199D01*
X-18178977Y-6649945D01*
X-18082723Y-6524504D01*
X-18051862Y-6449999D01*
X-8355682Y-6449999D01*
X-8355682Y-6450000D01*
X-8335045Y-6606758D01*
X-8335043Y-6606766D01*
X-8274538Y-6752838D01*
X-8274538Y-6752839D01*
X-8178287Y-6878276D01*
X-8178282Y-6878282D01*
X-8052841Y-6974536D01*
X-8052840Y-6974536D01*
X-8052839Y-6974537D01*
X-8005083Y-6994318D01*
X-7906762Y-7035044D01*
X-7789191Y-7050522D01*
X-7750001Y-7055682D01*
X-7750000Y-7055682D01*
X-7749999Y-7055682D01*
X-7718648Y-7051554D01*
X-7593238Y-7035044D01*
X-7447159Y-6974536D01*
X-7321718Y-6878282D01*
X-7225464Y-6752841D01*
X-7164956Y-6606762D01*
X-7144318Y-6450000D01*
X-7164956Y-6293238D01*
X-7191864Y-6228276D01*
X-7225463Y-6147161D01*
X-7225463Y-6147160D01*
X-7321714Y-6021723D01*
X-7321715Y-6021722D01*
X-7321718Y-6021718D01*
X-7321723Y-6021714D01*
X-7321724Y-6021713D01*
X-7447162Y-5925462D01*
X-7593234Y-5864957D01*
X-7593242Y-5864955D01*
X-7749999Y-5844318D01*
X-7750001Y-5844318D01*
X-7906759Y-5864955D01*
X-7906767Y-5864957D01*
X-8052839Y-5925462D01*
X-8052840Y-5925462D01*
X-8178277Y-6021713D01*
X-8178287Y-6021723D01*
X-8274538Y-6147160D01*
X-8274538Y-6147161D01*
X-8335043Y-6293233D01*
X-8335045Y-6293241D01*
X-8355682Y-6449999D01*
X-18051862Y-6449999D01*
X-18022215Y-6378425D01*
X-18001577Y-6221663D01*
X-18022215Y-6064901D01*
X-18067455Y-5955682D01*
X-18082722Y-5918824D01*
X-18082722Y-5918823D01*
X-18173899Y-5799999D01*
X-15305682Y-5799999D01*
X-15305682Y-5800000D01*
X-15285045Y-5956758D01*
X-15285043Y-5956766D01*
X-15224538Y-6102838D01*
X-15224538Y-6102839D01*
X-15133362Y-6221662D01*
X-15128282Y-6228282D01*
X-15002841Y-6324536D01*
X-15002840Y-6324536D01*
X-15002839Y-6324537D01*
X-14872742Y-6378425D01*
X-14856762Y-6385044D01*
X-14743167Y-6399999D01*
X-14700001Y-6405682D01*
X-14700000Y-6405682D01*
X-14699999Y-6405682D01*
X-14656833Y-6399999D01*
X-14543238Y-6385044D01*
X-14397159Y-6324536D01*
X-14271718Y-6228282D01*
X-14175464Y-6102841D01*
X-14114956Y-5956762D01*
X-14094318Y-5800000D01*
X-14114956Y-5643238D01*
X-14126246Y-5615981D01*
X-14175463Y-5497161D01*
X-14175463Y-5497160D01*
X-14271714Y-5371723D01*
X-14271715Y-5371722D01*
X-14271718Y-5371718D01*
X-14271723Y-5371714D01*
X-14271724Y-5371713D01*
X-14356644Y-5306552D01*
X-14397159Y-5275464D01*
X-14397160Y-5275463D01*
X-14397162Y-5275462D01*
X-14543234Y-5214957D01*
X-14543242Y-5214955D01*
X-14699999Y-5194318D01*
X-14700001Y-5194318D01*
X-14856759Y-5214955D01*
X-14856767Y-5214957D01*
X-15002839Y-5275462D01*
X-15002840Y-5275462D01*
X-15128277Y-5371713D01*
X-15128287Y-5371723D01*
X-15224538Y-5497160D01*
X-15224538Y-5497161D01*
X-15285043Y-5643233D01*
X-15285045Y-5643241D01*
X-15305682Y-5799999D01*
X-18173899Y-5799999D01*
X-18178973Y-5793386D01*
X-18178974Y-5793385D01*
X-18178977Y-5793381D01*
X-18178982Y-5793377D01*
X-18178983Y-5793376D01*
X-18304421Y-5697125D01*
X-18450493Y-5636620D01*
X-18450501Y-5636618D01*
X-18607258Y-5615981D01*
X-18607260Y-5615981D01*
X-18764018Y-5636618D01*
X-18764026Y-5636620D01*
X-18910098Y-5697125D01*
X-18910099Y-5697125D01*
X-19035536Y-5793376D01*
X-19035546Y-5793386D01*
X-19131797Y-5918823D01*
X-19131797Y-5918824D01*
X-19192302Y-6064896D01*
X-19192304Y-6064904D01*
X-19212941Y-6221662D01*
X-39512208Y-6221662D01*
X-39712580Y-4699999D01*
X-18930182Y-4699999D01*
X-18930182Y-4700000D01*
X-18909545Y-4856758D01*
X-18909543Y-4856766D01*
X-18849038Y-5002838D01*
X-18849038Y-5002839D01*
X-18807658Y-5056766D01*
X-18752782Y-5128282D01*
X-18627341Y-5224536D01*
X-18627340Y-5224536D01*
X-18627339Y-5224537D01*
X-18504395Y-5275462D01*
X-18481262Y-5285044D01*
X-18363691Y-5300522D01*
X-18324501Y-5305682D01*
X-18324500Y-5305682D01*
X-18324499Y-5305682D01*
X-18293148Y-5301554D01*
X-18167738Y-5285044D01*
X-18021659Y-5224536D01*
X-17896218Y-5128282D01*
X-17799964Y-5002841D01*
X-17739456Y-4856762D01*
X-17718818Y-4700000D01*
X-17739456Y-4543238D01*
X-17758542Y-4497160D01*
X-17799963Y-4397161D01*
X-17799963Y-4397160D01*
X-17896214Y-4271723D01*
X-17896215Y-4271722D01*
X-17896218Y-4271718D01*
X-17896223Y-4271714D01*
X-17896224Y-4271713D01*
X-18017627Y-4178558D01*
X-18021659Y-4175464D01*
X-18021660Y-4175463D01*
X-18021662Y-4175462D01*
X-18167734Y-4114957D01*
X-18167742Y-4114955D01*
X-18324499Y-4094318D01*
X-18324501Y-4094318D01*
X-18481259Y-4114955D01*
X-18481267Y-4114957D01*
X-18627339Y-4175462D01*
X-18627340Y-4175462D01*
X-18752777Y-4271713D01*
X-18752787Y-4271723D01*
X-18849038Y-4397160D01*
X-18849038Y-4397161D01*
X-18909543Y-4543233D01*
X-18909545Y-4543241D01*
X-18930182Y-4699999D01*
X-39712580Y-4699999D01*
X-39780566Y-4183702D01*
X-39781107Y-4178550D01*
X-39786718Y-4107258D01*
X-39820424Y-3678971D01*
X-27234654Y-3678971D01*
X-27234654Y-3678972D01*
X-27214017Y-3835730D01*
X-27214015Y-3835738D01*
X-27153510Y-3981810D01*
X-27153510Y-3981811D01*
X-27057259Y-4107248D01*
X-27057254Y-4107254D01*
X-26931813Y-4203508D01*
X-26931812Y-4203508D01*
X-26931811Y-4203509D01*
X-26835889Y-4243241D01*
X-26785734Y-4264016D01*
X-26698777Y-4275464D01*
X-26628973Y-4284654D01*
X-26628972Y-4284654D01*
X-26628971Y-4284654D01*
X-26597620Y-4280526D01*
X-26472210Y-4264016D01*
X-26326131Y-4203508D01*
X-26200690Y-4107254D01*
X-26104436Y-3981813D01*
X-26043928Y-3835734D01*
X-26023290Y-3678972D01*
X-26043928Y-3522210D01*
X-26044134Y-3521713D01*
X-26104435Y-3376133D01*
X-26104435Y-3376132D01*
X-26200686Y-3250695D01*
X-26200687Y-3250694D01*
X-26200690Y-3250690D01*
X-26200695Y-3250686D01*
X-26200696Y-3250685D01*
X-26326134Y-3154434D01*
X-26472206Y-3093929D01*
X-26472214Y-3093927D01*
X-26628971Y-3073290D01*
X-26628973Y-3073290D01*
X-26785731Y-3093927D01*
X-26785739Y-3093929D01*
X-26931811Y-3154434D01*
X-26931812Y-3154434D01*
X-27057249Y-3250685D01*
X-27057259Y-3250695D01*
X-27153510Y-3376132D01*
X-27153510Y-3376133D01*
X-27214015Y-3522205D01*
X-27214017Y-3522213D01*
X-27234654Y-3678971D01*
X-39820424Y-3678971D01*
X-39881954Y-2897130D01*
X-15981182Y-2897130D01*
X-15981182Y-2897131D01*
X-15960545Y-3053889D01*
X-15960543Y-3053897D01*
X-15900038Y-3199969D01*
X-15900038Y-3199970D01*
X-15900036Y-3199972D01*
X-15803782Y-3325413D01*
X-15678341Y-3421667D01*
X-15678340Y-3421667D01*
X-15678339Y-3421668D01*
X-15612030Y-3449134D01*
X-15532262Y-3482175D01*
X-15414691Y-3497653D01*
X-15375501Y-3502813D01*
X-15375500Y-3502813D01*
X-15375499Y-3502813D01*
X-15344148Y-3498685D01*
X-15218738Y-3482175D01*
X-15072659Y-3421667D01*
X-14947218Y-3325413D01*
X-14850964Y-3199972D01*
X-14790456Y-3053893D01*
X-14769818Y-2897131D01*
X-14772793Y-2874537D01*
X-14785465Y-2778282D01*
X-14790456Y-2740369D01*
X-14826712Y-2652839D01*
X-14850963Y-2594292D01*
X-14850963Y-2594291D01*
X-14947214Y-2468854D01*
X-14947215Y-2468853D01*
X-14947218Y-2468849D01*
X-14947223Y-2468845D01*
X-14947224Y-2468844D01*
X-15072662Y-2372593D01*
X-15218734Y-2312088D01*
X-15218742Y-2312086D01*
X-15375499Y-2291449D01*
X-15375501Y-2291449D01*
X-15532259Y-2312086D01*
X-15532267Y-2312088D01*
X-15678339Y-2372593D01*
X-15678340Y-2372593D01*
X-15803777Y-2468844D01*
X-15803787Y-2468854D01*
X-15900038Y-2594291D01*
X-15900038Y-2594292D01*
X-15960543Y-2740364D01*
X-15960545Y-2740372D01*
X-15981182Y-2897130D01*
X-39881954Y-2897130D01*
X-39945000Y-2096019D01*
X-39945270Y-2090845D01*
X-39946413Y-2047161D01*
X-39947962Y-1987999D01*
X-29567682Y-1987999D01*
X-29567682Y-1988000D01*
X-29547045Y-2144758D01*
X-29547043Y-2144766D01*
X-29486538Y-2290838D01*
X-29486538Y-2290839D01*
X-29390287Y-2416276D01*
X-29390282Y-2416282D01*
X-29264841Y-2512536D01*
X-29118762Y-2573044D01*
X-29001191Y-2588522D01*
X-28962001Y-2593682D01*
X-28962000Y-2593682D01*
X-28961999Y-2593682D01*
X-28930648Y-2589554D01*
X-28805238Y-2573044D01*
X-28659159Y-2512536D01*
X-28533718Y-2416282D01*
X-28437464Y-2290841D01*
X-28376956Y-2144762D01*
X-28356318Y-1988000D01*
X-28376956Y-1831238D01*
X-28379348Y-1825464D01*
X-28437463Y-1685161D01*
X-28437463Y-1685160D01*
X-28533714Y-1559723D01*
X-28533715Y-1559722D01*
X-28533718Y-1559718D01*
X-28533723Y-1559714D01*
X-28533724Y-1559713D01*
X-28604896Y-1505101D01*
X-28659159Y-1463464D01*
X-28659160Y-1463463D01*
X-28659162Y-1463462D01*
X-28805234Y-1402957D01*
X-28805242Y-1402955D01*
X-28961999Y-1382318D01*
X-28962001Y-1382318D01*
X-29118759Y-1402955D01*
X-29118767Y-1402957D01*
X-29264839Y-1463462D01*
X-29264840Y-1463462D01*
X-29390277Y-1559713D01*
X-29390287Y-1559723D01*
X-29486538Y-1685160D01*
X-29486538Y-1685161D01*
X-29547043Y-1831233D01*
X-29547045Y-1831241D01*
X-29567682Y-1987999D01*
X-39947962Y-1987999D01*
X-39985603Y-549999D01*
X-29355682Y-549999D01*
X-29355682Y-550000D01*
X-29335045Y-706758D01*
X-29335043Y-706766D01*
X-29274538Y-852838D01*
X-29274538Y-852839D01*
X-29194798Y-956758D01*
X-29178282Y-978282D01*
X-29052841Y-1074536D01*
X-29052840Y-1074536D01*
X-29052839Y-1074537D01*
X-28975041Y-1106762D01*
X-28906762Y-1135044D01*
X-28793167Y-1149999D01*
X-28750001Y-1155682D01*
X-28750000Y-1155682D01*
X-28749999Y-1155682D01*
X-28706833Y-1149999D01*
X-28593238Y-1135044D01*
X-28447159Y-1074536D01*
X-28367166Y-1013155D01*
X-27743436Y-1013155D01*
X-27743436Y-1013156D01*
X-27722799Y-1169914D01*
X-27722797Y-1169922D01*
X-27662292Y-1315994D01*
X-27662292Y-1315995D01*
X-27566041Y-1441432D01*
X-27566036Y-1441438D01*
X-27440595Y-1537692D01*
X-27440594Y-1537692D01*
X-27440593Y-1537693D01*
X-27387432Y-1559713D01*
X-27294516Y-1598200D01*
X-27176945Y-1613678D01*
X-27137755Y-1618838D01*
X-27137754Y-1618838D01*
X-27137753Y-1618838D01*
X-27106402Y-1614710D01*
X-26980992Y-1598200D01*
X-26834913Y-1537692D01*
X-26709472Y-1441438D01*
X-26613218Y-1315997D01*
X-26552710Y-1169918D01*
X-26532072Y-1013156D01*
X-26532321Y-1011268D01*
X-26550392Y-874001D01*
X-26552710Y-856394D01*
X-26554182Y-852841D01*
X-26613217Y-710317D01*
X-26613217Y-710316D01*
X-26709468Y-584879D01*
X-26709469Y-584878D01*
X-26709472Y-584874D01*
X-26709477Y-584870D01*
X-26709478Y-584869D01*
X-26823782Y-497161D01*
X-26834913Y-488620D01*
X-26834914Y-488619D01*
X-26834916Y-488618D01*
X-26980988Y-428113D01*
X-26980996Y-428111D01*
X-27137753Y-407474D01*
X-27137755Y-407474D01*
X-27294513Y-428111D01*
X-27294521Y-428113D01*
X-27440593Y-488618D01*
X-27440594Y-488618D01*
X-27566031Y-584869D01*
X-27566041Y-584879D01*
X-27662292Y-710316D01*
X-27662292Y-710317D01*
X-27722797Y-856389D01*
X-27722799Y-856397D01*
X-27743436Y-1013155D01*
X-28367166Y-1013155D01*
X-28321718Y-978282D01*
X-28225464Y-852841D01*
X-28164956Y-706762D01*
X-28144318Y-550000D01*
X-28164956Y-393238D01*
X-28225463Y-247161D01*
X-28225463Y-247160D01*
X-28321714Y-121723D01*
X-28321715Y-121722D01*
X-28321718Y-121718D01*
X-28321723Y-121714D01*
X-28321724Y-121713D01*
X-28392896Y-67101D01*
X-28447159Y-25464D01*
X-28447160Y-25463D01*
X-28447162Y-25462D01*
X-28593234Y35043D01*
X-28593242Y35045D01*
X-28749999Y55682D01*
X-28750001Y55682D01*
X-28906759Y35045D01*
X-28906767Y35043D01*
X-29052839Y-25462D01*
X-29052840Y-25462D01*
X-29178277Y-121713D01*
X-29178287Y-121723D01*
X-29274538Y-247160D01*
X-29274538Y-247161D01*
X-29335043Y-393233D01*
X-29335045Y-393241D01*
X-29355682Y-549999D01*
X-39985603Y-549999D01*
X-39999933Y-2559D01*
X-39999933Y2560D01*
X-39985551Y552001D01*
X-26900682Y552001D01*
X-26900682Y552000D01*
X-26880045Y395242D01*
X-26880043Y395234D01*
X-26819538Y249162D01*
X-26819538Y249161D01*
X-26819536Y249159D01*
X-26723282Y123718D01*
X-26597841Y27464D01*
X-26597840Y27464D01*
X-26597839Y27463D01*
X-26470067Y-25462D01*
X-26451762Y-33044D01*
X-26334191Y-48522D01*
X-26295001Y-53682D01*
X-26295000Y-53682D01*
X-26294999Y-53682D01*
X-26263648Y-49554D01*
X-26138238Y-33044D01*
X-26058456Y3D01*
X-23850001Y3D01*
X-23850001Y-2D01*
X-23788802Y-386268D01*
X-23611300Y-734730D01*
X-23334762Y-1011206D01*
X-23334700Y-1011268D01*
X-23210550Y-1074537D01*
X-22986303Y-1188818D01*
X-22986302Y-1188818D01*
X-22986300Y-1188819D01*
X-22793151Y-1219409D01*
X-22600003Y-1250000D01*
X-22600001Y-1250000D01*
X-22599999Y-1250000D01*
X-22445481Y-1225527D01*
X-22213700Y-1188819D01*
X-21865300Y-1011268D01*
X-21588700Y-734729D01*
X-21411200Y-386272D01*
X-21369286Y-121723D01*
X-21350001Y-2D01*
X-21350001Y3D01*
X-21411201Y386270D01*
X-21411202Y386272D01*
X-21411202Y386273D01*
X-21588702Y734730D01*
X-21588703Y734732D01*
X-21854030Y1000000D01*
X-13500000Y1000000D01*
X-13500000Y-1000000D01*
X-13448601Y-1324470D01*
X-13299501Y-1617167D01*
X-13299499Y-1617169D01*
X-13067203Y-1849470D01*
X-13067204Y-1849470D01*
X-13067200Y-1849472D01*
X-12774500Y-1998611D01*
X-12450001Y-2049999D01*
X-12125500Y-1998611D01*
X-11832800Y-1849472D01*
X-11600501Y-1617168D01*
X-11590838Y-1598200D01*
X-11527845Y-1474537D01*
X-11451401Y-1324470D01*
X-11400000Y-1000000D01*
X-11400000Y-874001D01*
X-11381093Y-815810D01*
X-11331593Y-779846D01*
X-11301000Y-775001D01*
X-8101471Y-775001D01*
X-8043280Y-793908D01*
X-8007316Y-843408D01*
X-8003318Y-861079D01*
X-7950891Y-1259299D01*
X-7950886Y-1259327D01*
X-7874099Y-1673661D01*
X-7874088Y-1673715D01*
X-7775704Y-2083474D01*
X-7775704Y-2083476D01*
X-7656003Y-2487579D01*
X-7655999Y-2487590D01*
X-7515320Y-2884860D01*
X-7354043Y-3274230D01*
X-7354034Y-3274250D01*
X-7354033Y-3274251D01*
X-7354029Y-3274260D01*
X-7172608Y-3654605D01*
X-7172600Y-3654621D01*
X-6994952Y-3981811D01*
X-6971501Y-4025001D01*
X-6755010Y-4378286D01*
X-6751294Y-4384349D01*
X-6691244Y-4471723D01*
X-6512589Y-4731670D01*
X-6512569Y-4731696D01*
X-6256053Y-5065987D01*
X-6256030Y-5066015D01*
X-6256020Y-5066028D01*
X-6256007Y-5066043D01*
X-5982317Y-5386504D01*
X-5982306Y-5386515D01*
X-5729575Y-5652839D01*
X-5692212Y-5692211D01*
X-5692193Y-5692229D01*
X-5692192Y-5692230D01*
X-5386517Y-5982304D01*
X-5386506Y-5982315D01*
X-5289741Y-6064957D01*
X-5066029Y-6256019D01*
X-5066014Y-6256031D01*
X-5065989Y-6256051D01*
X-4870990Y-6405682D01*
X-4731671Y-6512588D01*
X-4384339Y-6751300D01*
X-4025002Y-6971500D01*
X-3654622Y-7172599D01*
X-3274231Y-7354042D01*
X-2884861Y-7515319D01*
X-2487591Y-7655998D01*
X-2083489Y-7775699D01*
X-2083480Y-7775701D01*
X-2083477Y-7775702D01*
X-1673717Y-7874086D01*
X-1673711Y-7874087D01*
X-1673691Y-7874092D01*
X-1466496Y-7912490D01*
X-1259329Y-7950884D01*
X-1259301Y-7950889D01*
X-841454Y-8005901D01*
X-421303Y-8038970D01*
X-70218Y-8048160D01*
X-4Y-8049999D01*
X0Y-8049999D01*
X4Y-8049999D01*
X67408Y-8048234D01*
X421302Y-8038970D01*
X841453Y-8005901D01*
X1259300Y-7950889D01*
X1673690Y-7874092D01*
X2083488Y-7775699D01*
X2487590Y-7655998D01*
X2884860Y-7515319D01*
X3274230Y-7354042D01*
X3654621Y-7172599D01*
X3788334Y-7099999D01*
X15494318Y-7099999D01*
X15494318Y-7100000D01*
X15514955Y-7256758D01*
X15514957Y-7256766D01*
X15575462Y-7402838D01*
X15575462Y-7402839D01*
X15661771Y-7515319D01*
X15671718Y-7528282D01*
X15797159Y-7624536D01*
X15943238Y-7685044D01*
X16056833Y-7699999D01*
X16099999Y-7705682D01*
X16100000Y-7705682D01*
X16100001Y-7705682D01*
X16143167Y-7699999D01*
X22494318Y-7699999D01*
X22494318Y-7700000D01*
X22514955Y-7856758D01*
X22514957Y-7856766D01*
X22575462Y-8002838D01*
X22575462Y-8002839D01*
X22668844Y-8124537D01*
X22671718Y-8128282D01*
X22797159Y-8224536D01*
X22943238Y-8285044D01*
X23060809Y-8300522D01*
X23099999Y-8305682D01*
X23100000Y-8305682D01*
X23100001Y-8305682D01*
X23131352Y-8301554D01*
X23256762Y-8285044D01*
X23402841Y-8224536D01*
X23528282Y-8128282D01*
X23624536Y-8002841D01*
X23685044Y-7856762D01*
X23705682Y-7700000D01*
X23692517Y-7599999D01*
X25544318Y-7599999D01*
X25544318Y-7600000D01*
X25564955Y-7756758D01*
X25564957Y-7756766D01*
X25625462Y-7902838D01*
X25625462Y-7902839D01*
X25721713Y-8028276D01*
X25721718Y-8028282D01*
X25847159Y-8124536D01*
X25847160Y-8124536D01*
X25847161Y-8124537D01*
X25856212Y-8128286D01*
X25993238Y-8185044D01*
X26110809Y-8200522D01*
X26149999Y-8205682D01*
X26150000Y-8205682D01*
X26150001Y-8205682D01*
X26181352Y-8201554D01*
X26306762Y-8185044D01*
X26452841Y-8124536D01*
X26578282Y-8028282D01*
X26674536Y-7902841D01*
X26735044Y-7756762D01*
X26755682Y-7600000D01*
X26735044Y-7443238D01*
X26715958Y-7397160D01*
X26674537Y-7297161D01*
X26674537Y-7297160D01*
X26578286Y-7171723D01*
X26578285Y-7171722D01*
X26578282Y-7171718D01*
X26578277Y-7171714D01*
X26578276Y-7171713D01*
X26477412Y-7094318D01*
X26452841Y-7075464D01*
X26452840Y-7075463D01*
X26452838Y-7075462D01*
X26306766Y-7014957D01*
X26306758Y-7014955D01*
X26150001Y-6994318D01*
X26149999Y-6994318D01*
X25993241Y-7014955D01*
X25993233Y-7014957D01*
X25847161Y-7075462D01*
X25847160Y-7075462D01*
X25721723Y-7171713D01*
X25721713Y-7171723D01*
X25625462Y-7297160D01*
X25625462Y-7297161D01*
X25564957Y-7443233D01*
X25564955Y-7443241D01*
X25544318Y-7599999D01*
X23692517Y-7599999D01*
X23685044Y-7543238D01*
X23624537Y-7397161D01*
X23624537Y-7397160D01*
X23528286Y-7271723D01*
X23528285Y-7271722D01*
X23528282Y-7271718D01*
X23528277Y-7271714D01*
X23528276Y-7271713D01*
X23402838Y-7175462D01*
X23256766Y-7114957D01*
X23256758Y-7114955D01*
X23100001Y-7094318D01*
X23099999Y-7094318D01*
X22943241Y-7114955D01*
X22943233Y-7114957D01*
X22797161Y-7175462D01*
X22797160Y-7175462D01*
X22671723Y-7271713D01*
X22671713Y-7271723D01*
X22575462Y-7397160D01*
X22575462Y-7397161D01*
X22514957Y-7543233D01*
X22514955Y-7543241D01*
X22494318Y-7699999D01*
X16143167Y-7699999D01*
X16256762Y-7685044D01*
X16402841Y-7624536D01*
X16528282Y-7528282D01*
X16624536Y-7402841D01*
X16685044Y-7256762D01*
X16705682Y-7100000D01*
X16685044Y-6943238D01*
X16637425Y-6828276D01*
X16624537Y-6797161D01*
X16624537Y-6797160D01*
X16528286Y-6671723D01*
X16528285Y-6671722D01*
X16528282Y-6671718D01*
X16528277Y-6671714D01*
X16528276Y-6671713D01*
X16402838Y-6575462D01*
X16256766Y-6514957D01*
X16256758Y-6514955D01*
X16100001Y-6494318D01*
X16099999Y-6494318D01*
X15943241Y-6514955D01*
X15943233Y-6514957D01*
X15797161Y-6575462D01*
X15797160Y-6575462D01*
X15671723Y-6671713D01*
X15671713Y-6671723D01*
X15575462Y-6797160D01*
X15575462Y-6797161D01*
X15514957Y-6943233D01*
X15514955Y-6943241D01*
X15494318Y-7099999D01*
X3788334Y-7099999D01*
X4025001Y-6971500D01*
X4384338Y-6751300D01*
X4731670Y-6512588D01*
X4878395Y-6399999D01*
X18044318Y-6399999D01*
X18044318Y-6400000D01*
X18064955Y-6556758D01*
X18064957Y-6556766D01*
X18125462Y-6702838D01*
X18125462Y-6702839D01*
X18197837Y-6797160D01*
X18221718Y-6828282D01*
X18347159Y-6924536D01*
X18347160Y-6924536D01*
X18347161Y-6924537D01*
X18415486Y-6952838D01*
X18493238Y-6985044D01*
X18610809Y-7000522D01*
X18649999Y-7005682D01*
X18650000Y-7005682D01*
X18650001Y-7005682D01*
X18681352Y-7001554D01*
X18806762Y-6985044D01*
X18952841Y-6924536D01*
X19078282Y-6828282D01*
X19174536Y-6702841D01*
X19196424Y-6649999D01*
X33794318Y-6649999D01*
X33794318Y-6650000D01*
X33814955Y-6806758D01*
X33814957Y-6806766D01*
X33875462Y-6952838D01*
X33875462Y-6952839D01*
X33971713Y-7078276D01*
X33971718Y-7078282D01*
X34097159Y-7174536D01*
X34097160Y-7174536D01*
X34097161Y-7174537D01*
X34099399Y-7175464D01*
X34243238Y-7235044D01*
X34360809Y-7250522D01*
X34399999Y-7255682D01*
X34400000Y-7255682D01*
X34400001Y-7255682D01*
X34431352Y-7251554D01*
X34556762Y-7235044D01*
X34702841Y-7174536D01*
X34828282Y-7078282D01*
X34924536Y-6952841D01*
X34985044Y-6806762D01*
X35005682Y-6650000D01*
X34985044Y-6493238D01*
X34948777Y-6405682D01*
X34924537Y-6347161D01*
X34924537Y-6347160D01*
X34828286Y-6221723D01*
X34828285Y-6221722D01*
X34828282Y-6221718D01*
X34828277Y-6221714D01*
X34828276Y-6221713D01*
X34731116Y-6147160D01*
X34702841Y-6125464D01*
X34702840Y-6125463D01*
X34702838Y-6125462D01*
X34556766Y-6064957D01*
X34556758Y-6064955D01*
X34400001Y-6044318D01*
X34399999Y-6044318D01*
X34243241Y-6064955D01*
X34243233Y-6064957D01*
X34097161Y-6125462D01*
X34097160Y-6125462D01*
X33971723Y-6221713D01*
X33971713Y-6221723D01*
X33875462Y-6347160D01*
X33875462Y-6347161D01*
X33814957Y-6493233D01*
X33814955Y-6493241D01*
X33794318Y-6649999D01*
X19196424Y-6649999D01*
X19235044Y-6556762D01*
X19255682Y-6400000D01*
X19235044Y-6243238D01*
X19174537Y-6097161D01*
X19174537Y-6097160D01*
X19078286Y-5971723D01*
X19078285Y-5971722D01*
X19078282Y-5971718D01*
X19078277Y-5971714D01*
X19078276Y-5971713D01*
X18952838Y-5875462D01*
X18806766Y-5814957D01*
X18806758Y-5814955D01*
X18650001Y-5794318D01*
X18649999Y-5794318D01*
X18493241Y-5814955D01*
X18493233Y-5814957D01*
X18347161Y-5875462D01*
X18347160Y-5875462D01*
X18221723Y-5971713D01*
X18221713Y-5971723D01*
X18125462Y-6097160D01*
X18125462Y-6097161D01*
X18064957Y-6243233D01*
X18064955Y-6243241D01*
X18044318Y-6399999D01*
X4878395Y-6399999D01*
X5017521Y-6293241D01*
X5065987Y-6256051D01*
X5065996Y-6256042D01*
X5066028Y-6256019D01*
X5386501Y-5982318D01*
X5692211Y-5692211D01*
X5982318Y-5386501D01*
X6013493Y-5349999D01*
X9044318Y-5349999D01*
X9044318Y-5350000D01*
X9064955Y-5506758D01*
X9064957Y-5506766D01*
X9125462Y-5652838D01*
X9125462Y-5652839D01*
X9221713Y-5778276D01*
X9221718Y-5778282D01*
X9347159Y-5874536D01*
X9347160Y-5874536D01*
X9347161Y-5874537D01*
X9470105Y-5925462D01*
X9493238Y-5935044D01*
X9610809Y-5950522D01*
X9649999Y-5955682D01*
X9650000Y-5955682D01*
X9650001Y-5955682D01*
X9681352Y-5951554D01*
X9806762Y-5935044D01*
X9952841Y-5874536D01*
X10078282Y-5778282D01*
X10174536Y-5652841D01*
X10235044Y-5506762D01*
X10255682Y-5350000D01*
X10235044Y-5193238D01*
X10197600Y-5102841D01*
X10174537Y-5047161D01*
X10174537Y-5047160D01*
X10078286Y-4921723D01*
X10078285Y-4921722D01*
X10078282Y-4921718D01*
X10078277Y-4921714D01*
X10078276Y-4921713D01*
X9993624Y-4856758D01*
X9952841Y-4825464D01*
X9952840Y-4825463D01*
X9952838Y-4825462D01*
X9806766Y-4764957D01*
X9806758Y-4764955D01*
X9650001Y-4744318D01*
X9649999Y-4744318D01*
X9493241Y-4764955D01*
X9493233Y-4764957D01*
X9347161Y-4825462D01*
X9347160Y-4825462D01*
X9221723Y-4921713D01*
X9221713Y-4921723D01*
X9125462Y-5047160D01*
X9125462Y-5047161D01*
X9064957Y-5193233D01*
X9064955Y-5193241D01*
X9044318Y-5349999D01*
X6013493Y-5349999D01*
X6256019Y-5066028D01*
X6256042Y-5065996D01*
X6256051Y-5065987D01*
X6383421Y-4899999D01*
X6512588Y-4731670D01*
X6740537Y-4399999D01*
X10594318Y-4399999D01*
X10594318Y-4400000D01*
X10614955Y-4556758D01*
X10614957Y-4556766D01*
X10675462Y-4702838D01*
X10675462Y-4702839D01*
X10771713Y-4828276D01*
X10771718Y-4828282D01*
X10897159Y-4924536D01*
X10897160Y-4924536D01*
X10897161Y-4924537D01*
X10974959Y-4956762D01*
X11043238Y-4985044D01*
X11160809Y-5000522D01*
X11199999Y-5005682D01*
X11200000Y-5005682D01*
X11200001Y-5005682D01*
X11231352Y-5001554D01*
X11356762Y-4985044D01*
X11502841Y-4924536D01*
X11534818Y-4899999D01*
X13394318Y-4899999D01*
X13394318Y-4900000D01*
X13414955Y-5056758D01*
X13414957Y-5056766D01*
X13475462Y-5202838D01*
X13475462Y-5202839D01*
X13568844Y-5324537D01*
X13571718Y-5328282D01*
X13697159Y-5424536D01*
X13843238Y-5485044D01*
X13960809Y-5500522D01*
X13999999Y-5505682D01*
X14000000Y-5505682D01*
X14000001Y-5505682D01*
X14031352Y-5501554D01*
X14156762Y-5485044D01*
X14302841Y-5424536D01*
X14428282Y-5328282D01*
X14524536Y-5202841D01*
X14585044Y-5056762D01*
X14605682Y-4900000D01*
X14592517Y-4799999D01*
X30294318Y-4799999D01*
X30294318Y-4800000D01*
X30314955Y-4956758D01*
X30314957Y-4956766D01*
X30375462Y-5102838D01*
X30375462Y-5102839D01*
X30468844Y-5224537D01*
X30471718Y-5228282D01*
X30597159Y-5324536D01*
X30597160Y-5324536D01*
X30597161Y-5324537D01*
X30688807Y-5362498D01*
X30743238Y-5385044D01*
X30860809Y-5400522D01*
X30899999Y-5405682D01*
X30900000Y-5405682D01*
X30900001Y-5405682D01*
X30931352Y-5401554D01*
X31056762Y-5385044D01*
X31202841Y-5324536D01*
X31328282Y-5228282D01*
X31424536Y-5102841D01*
X31485044Y-4956762D01*
X31505682Y-4800000D01*
X31485044Y-4643238D01*
X31465958Y-4597160D01*
X31424537Y-4497161D01*
X31424537Y-4497160D01*
X31328286Y-4371723D01*
X31328285Y-4371722D01*
X31328282Y-4371718D01*
X31328277Y-4371714D01*
X31328276Y-4371713D01*
X31227412Y-4294318D01*
X31202841Y-4275464D01*
X31202840Y-4275463D01*
X31202838Y-4275462D01*
X31056766Y-4214957D01*
X31056758Y-4214955D01*
X30900001Y-4194318D01*
X30899999Y-4194318D01*
X30743241Y-4214955D01*
X30743233Y-4214957D01*
X30597161Y-4275462D01*
X30597160Y-4275462D01*
X30471723Y-4371713D01*
X30471713Y-4371723D01*
X30375462Y-4497160D01*
X30375462Y-4497161D01*
X30314957Y-4643233D01*
X30314955Y-4643241D01*
X30294318Y-4799999D01*
X14592517Y-4799999D01*
X14585044Y-4743238D01*
X14524537Y-4597161D01*
X14524537Y-4597160D01*
X14428286Y-4471723D01*
X14428285Y-4471722D01*
X14428282Y-4471718D01*
X14428277Y-4471714D01*
X14428276Y-4471713D01*
X14331116Y-4397160D01*
X14302841Y-4375464D01*
X14302840Y-4375463D01*
X14302838Y-4375462D01*
X14156766Y-4314957D01*
X14156758Y-4314955D01*
X14000001Y-4294318D01*
X13999999Y-4294318D01*
X13843241Y-4314955D01*
X13843233Y-4314957D01*
X13697161Y-4375462D01*
X13697160Y-4375462D01*
X13571723Y-4471713D01*
X13571713Y-4471723D01*
X13475462Y-4597160D01*
X13475462Y-4597161D01*
X13414957Y-4743233D01*
X13414955Y-4743241D01*
X13394318Y-4899999D01*
X11534818Y-4899999D01*
X11628282Y-4828282D01*
X11724536Y-4702841D01*
X11785044Y-4556762D01*
X11805682Y-4400000D01*
X11785044Y-4243238D01*
X11731908Y-4114956D01*
X11724537Y-4097161D01*
X11724537Y-4097160D01*
X11628286Y-3971723D01*
X11628285Y-3971722D01*
X11628282Y-3971718D01*
X11628277Y-3971714D01*
X11628276Y-3971713D01*
X11599977Y-3949999D01*
X18794318Y-3949999D01*
X18794318Y-3950000D01*
X18814955Y-4106758D01*
X18814957Y-4106766D01*
X18875462Y-4252838D01*
X18875462Y-4252839D01*
X18971713Y-4378276D01*
X18971718Y-4378282D01*
X19097159Y-4474536D01*
X19097160Y-4474536D01*
X19097161Y-4474537D01*
X19151778Y-4497160D01*
X19243238Y-4535044D01*
X19360809Y-4550522D01*
X19399999Y-4555682D01*
X19400000Y-4555682D01*
X19400001Y-4555682D01*
X19431352Y-4551554D01*
X19556762Y-4535044D01*
X19702841Y-4474536D01*
X19828282Y-4378282D01*
X19924536Y-4252841D01*
X19985044Y-4106762D01*
X20005682Y-3950000D01*
X19985044Y-3793238D01*
X19985042Y-3793233D01*
X19924537Y-3647161D01*
X19924537Y-3647160D01*
X19902356Y-3618253D01*
X33837500Y-3618253D01*
X33837500Y-5181746D01*
X33837501Y-5181758D01*
X33849132Y-5240227D01*
X33849134Y-5240233D01*
X33893445Y-5306548D01*
X33893448Y-5306552D01*
X33959769Y-5350867D01*
X34004231Y-5359711D01*
X34018241Y-5362498D01*
X34018246Y-5362498D01*
X34018252Y-5362500D01*
X34018253Y-5362500D01*
X35581747Y-5362500D01*
X35581748Y-5362500D01*
X35640231Y-5350867D01*
X35706552Y-5306552D01*
X35750867Y-5240231D01*
X35762500Y-5181748D01*
X35762500Y-3618252D01*
X35750867Y-3559769D01*
X35706552Y-3493448D01*
X35706548Y-3493445D01*
X35640233Y-3449134D01*
X35640231Y-3449133D01*
X35640228Y-3449132D01*
X35640227Y-3449132D01*
X35581758Y-3437501D01*
X35581748Y-3437500D01*
X34018252Y-3437500D01*
X34018251Y-3437500D01*
X34018241Y-3437501D01*
X33959772Y-3449132D01*
X33959766Y-3449134D01*
X33893451Y-3493445D01*
X33893445Y-3493451D01*
X33849134Y-3559766D01*
X33849132Y-3559772D01*
X33837501Y-3618241D01*
X33837500Y-3618253D01*
X19902356Y-3618253D01*
X19828286Y-3521723D01*
X19828285Y-3521722D01*
X19828282Y-3521718D01*
X19828277Y-3521714D01*
X19828276Y-3521713D01*
X19718528Y-3437501D01*
X19702841Y-3425464D01*
X19702840Y-3425463D01*
X19702838Y-3425462D01*
X19556766Y-3364957D01*
X19556758Y-3364955D01*
X19400001Y-3344318D01*
X19399999Y-3344318D01*
X19243241Y-3364955D01*
X19243233Y-3364957D01*
X19097161Y-3425462D01*
X19097160Y-3425462D01*
X18971723Y-3521713D01*
X18971713Y-3521723D01*
X18875462Y-3647160D01*
X18875462Y-3647161D01*
X18814957Y-3793233D01*
X18814955Y-3793241D01*
X18794318Y-3949999D01*
X11599977Y-3949999D01*
X11502838Y-3875462D01*
X11356766Y-3814957D01*
X11356758Y-3814955D01*
X11200001Y-3794318D01*
X11199999Y-3794318D01*
X11043241Y-3814955D01*
X11043233Y-3814957D01*
X10897161Y-3875462D01*
X10897160Y-3875462D01*
X10771723Y-3971713D01*
X10771713Y-3971723D01*
X10675462Y-4097160D01*
X10675462Y-4097161D01*
X10614957Y-4243233D01*
X10614955Y-4243241D01*
X10594318Y-4399999D01*
X6740537Y-4399999D01*
X6751300Y-4384338D01*
X6971500Y-4025001D01*
X7172599Y-3654621D01*
X7354042Y-3274230D01*
X7515319Y-2884860D01*
X7655998Y-2487590D01*
X7696754Y-2349999D01*
X29194318Y-2349999D01*
X29194318Y-2350000D01*
X29214955Y-2506758D01*
X29214957Y-2506766D01*
X29275462Y-2652838D01*
X29275462Y-2652839D01*
X29371713Y-2778276D01*
X29371718Y-2778282D01*
X29497159Y-2874536D01*
X29497160Y-2874536D01*
X29497161Y-2874537D01*
X29551708Y-2897131D01*
X29643238Y-2935044D01*
X29760809Y-2950522D01*
X29799999Y-2955682D01*
X29800000Y-2955682D01*
X29800001Y-2955682D01*
X29831352Y-2951554D01*
X29956762Y-2935044D01*
X30102841Y-2874536D01*
X30228282Y-2778282D01*
X30324536Y-2652841D01*
X30385044Y-2506762D01*
X30405682Y-2350000D01*
X30385044Y-2193238D01*
X30342634Y-2090851D01*
X30324537Y-2047161D01*
X30324537Y-2047160D01*
X30228286Y-1921723D01*
X30228285Y-1921722D01*
X30228282Y-1921718D01*
X30228277Y-1921714D01*
X30228276Y-1921713D01*
X30134126Y-1849470D01*
X30102841Y-1825464D01*
X30102840Y-1825463D01*
X30102838Y-1825462D01*
X29956766Y-1764957D01*
X29956758Y-1764955D01*
X29800001Y-1744318D01*
X29799999Y-1744318D01*
X29643241Y-1764955D01*
X29643233Y-1764957D01*
X29497161Y-1825462D01*
X29497160Y-1825462D01*
X29371723Y-1921713D01*
X29371713Y-1921723D01*
X29275462Y-2047160D01*
X29275462Y-2047161D01*
X29214957Y-2193233D01*
X29214955Y-2193241D01*
X29194318Y-2349999D01*
X7696754Y-2349999D01*
X7775699Y-2083488D01*
X7874092Y-1673690D01*
X7950889Y-1259300D01*
X8005901Y-841453D01*
X8009164Y-799999D01*
X17444318Y-799999D01*
X17444318Y-800000D01*
X17464955Y-956758D01*
X17464957Y-956766D01*
X17525462Y-1102838D01*
X17525462Y-1102839D01*
X17619604Y-1225527D01*
X17621718Y-1228282D01*
X17747159Y-1324536D01*
X17747160Y-1324536D01*
X17747161Y-1324537D01*
X17876913Y-1378282D01*
X17893238Y-1385044D01*
X18010809Y-1400522D01*
X18049999Y-1405682D01*
X18050000Y-1405682D01*
X18050001Y-1405682D01*
X18081352Y-1401554D01*
X18206762Y-1385044D01*
X18352841Y-1324536D01*
X18478282Y-1228282D01*
X18574536Y-1102841D01*
X18635044Y-956762D01*
X18635934Y-949999D01*
X21544318Y-949999D01*
X21544318Y-950000D01*
X21564955Y-1106758D01*
X21564957Y-1106766D01*
X21625462Y-1252838D01*
X21625462Y-1252839D01*
X21680477Y-1324536D01*
X21721718Y-1378282D01*
X21847159Y-1474536D01*
X21993238Y-1535044D01*
X22110809Y-1550522D01*
X22149999Y-1555682D01*
X22150000Y-1555682D01*
X22150001Y-1555682D01*
X22181352Y-1551554D01*
X22306762Y-1535044D01*
X22452841Y-1474536D01*
X22578282Y-1378282D01*
X22674536Y-1252841D01*
X22717135Y-1149999D01*
X24694318Y-1149999D01*
X24694318Y-1150000D01*
X24714955Y-1306758D01*
X24714957Y-1306766D01*
X24775462Y-1452838D01*
X24775462Y-1452839D01*
X24857473Y-1559718D01*
X24871718Y-1578282D01*
X24997159Y-1674536D01*
X24997160Y-1674536D01*
X24997161Y-1674537D01*
X25022810Y-1685161D01*
X25143238Y-1735044D01*
X25260809Y-1750522D01*
X25299999Y-1755682D01*
X25300000Y-1755682D01*
X25300001Y-1755682D01*
X25331352Y-1751554D01*
X25456762Y-1735044D01*
X25602841Y-1674536D01*
X25728282Y-1578282D01*
X25824536Y-1452841D01*
X25885044Y-1306762D01*
X25905682Y-1150000D01*
X25885044Y-993238D01*
X25869935Y-956762D01*
X25824537Y-847161D01*
X25824537Y-847160D01*
X25728286Y-721723D01*
X25728285Y-721722D01*
X25728282Y-721718D01*
X25728277Y-721714D01*
X25728276Y-721713D01*
X25631116Y-647160D01*
X25602841Y-625464D01*
X25602840Y-625463D01*
X25602838Y-625462D01*
X25456766Y-564957D01*
X25456758Y-564955D01*
X25300001Y-544318D01*
X25299999Y-544318D01*
X25143241Y-564955D01*
X25143233Y-564957D01*
X24997161Y-625462D01*
X24997160Y-625462D01*
X24871723Y-721713D01*
X24871713Y-721723D01*
X24775462Y-847160D01*
X24775462Y-847161D01*
X24714957Y-993233D01*
X24714955Y-993241D01*
X24694318Y-1149999D01*
X22717135Y-1149999D01*
X22735044Y-1106762D01*
X22755682Y-950000D01*
X22735044Y-793238D01*
X22710809Y-734729D01*
X22674537Y-647161D01*
X22674537Y-647160D01*
X22578286Y-521723D01*
X22578285Y-521722D01*
X22578282Y-521718D01*
X22578277Y-521714D01*
X22578276Y-521713D01*
X22456292Y-428112D01*
X22452841Y-425464D01*
X22452840Y-425463D01*
X22452838Y-425462D01*
X22306766Y-364957D01*
X22306758Y-364955D01*
X22150001Y-344318D01*
X22149999Y-344318D01*
X21993241Y-364955D01*
X21993233Y-364957D01*
X21847161Y-425462D01*
X21847160Y-425462D01*
X21721723Y-521713D01*
X21721713Y-521723D01*
X21625462Y-647160D01*
X21625462Y-647161D01*
X21564957Y-793233D01*
X21564955Y-793241D01*
X21544318Y-949999D01*
X18635934Y-949999D01*
X18655682Y-800000D01*
X18635044Y-643238D01*
X18602619Y-564957D01*
X18574537Y-497161D01*
X18574537Y-497160D01*
X18478286Y-371723D01*
X18478285Y-371722D01*
X18478282Y-371718D01*
X18478277Y-371714D01*
X18478276Y-371713D01*
X18352838Y-275462D01*
X18206766Y-214957D01*
X18206758Y-214955D01*
X18050001Y-194318D01*
X18049999Y-194318D01*
X17893241Y-214955D01*
X17893233Y-214957D01*
X17747161Y-275462D01*
X17747160Y-275462D01*
X17621723Y-371713D01*
X17621713Y-371723D01*
X17525462Y-497160D01*
X17525462Y-497161D01*
X17464957Y-643233D01*
X17464955Y-643241D01*
X17444318Y-799999D01*
X8009164Y-799999D01*
X8038970Y-421302D01*
X8049999Y0D01*
X8038970Y421303D01*
X8005901Y841454D01*
X7950889Y1259301D01*
X7944399Y1294318D01*
X7884567Y1617169D01*
X7874092Y1673691D01*
X7831887Y1849469D01*
X7819754Y1900001D01*
X21944318Y1900001D01*
X21944318Y1900000D01*
X21964955Y1743242D01*
X21964957Y1743234D01*
X22025462Y1597162D01*
X22025462Y1597161D01*
X22025464Y1597159D01*
X22121718Y1471718D01*
X22247159Y1375464D01*
X22393238Y1314956D01*
X22510809Y1299478D01*
X22549999Y1294318D01*
X22550000Y1294318D01*
X22550001Y1294318D01*
X22581352Y1298446D01*
X22706762Y1314956D01*
X22852841Y1375464D01*
X22978282Y1471718D01*
X23074536Y1597159D01*
X23135044Y1743238D01*
X23155682Y1900000D01*
X23135044Y2056762D01*
X23074537Y2202839D01*
X23074537Y2202840D01*
X22978286Y2328277D01*
X22978285Y2328278D01*
X22978282Y2328282D01*
X22978277Y2328286D01*
X22978276Y2328287D01*
X22907104Y2382899D01*
X22852841Y2424536D01*
X22852840Y2424537D01*
X22852838Y2424538D01*
X22706766Y2485043D01*
X22706758Y2485045D01*
X22593153Y2500001D01*
X29644318Y2500001D01*
X29644318Y2500000D01*
X29664955Y2343242D01*
X29664957Y2343234D01*
X29725462Y2197162D01*
X29725462Y2197161D01*
X29821713Y2071724D01*
X29821718Y2071718D01*
X29947159Y1975464D01*
X30093238Y1914956D01*
X30206833Y1900001D01*
X30249999Y1894318D01*
X30250000Y1894318D01*
X30250001Y1894318D01*
X30293167Y1900001D01*
X30406762Y1914956D01*
X30552841Y1975464D01*
X30678282Y2071718D01*
X30774536Y2197159D01*
X30835044Y2343238D01*
X30855682Y2500000D01*
X30835934Y2650001D01*
X33394318Y2650001D01*
X33394318Y2650000D01*
X33414955Y2493242D01*
X33414957Y2493234D01*
X33475462Y2347162D01*
X33475462Y2347161D01*
X33538540Y2264956D01*
X33571718Y2221718D01*
X33697159Y2125464D01*
X33697160Y2125464D01*
X33697161Y2125463D01*
X33826913Y2071718D01*
X33843238Y2064956D01*
X33956841Y2050000D01*
X33999999Y2044318D01*
X34000000Y2044318D01*
X34000001Y2044318D01*
X34043159Y2050000D01*
X34156762Y2064956D01*
X34302841Y2125464D01*
X34428282Y2221718D01*
X34524536Y2347159D01*
X34585044Y2493238D01*
X34605682Y2650000D01*
X34585044Y2806762D01*
X34524537Y2952839D01*
X34524537Y2952840D01*
X34428286Y3078277D01*
X34428285Y3078278D01*
X34428282Y3078282D01*
X34428277Y3078286D01*
X34428276Y3078287D01*
X34331116Y3152840D01*
X34302841Y3174536D01*
X34302840Y3174537D01*
X34302838Y3174538D01*
X34156766Y3235043D01*
X34156758Y3235045D01*
X34000001Y3255682D01*
X33999999Y3255682D01*
X33843241Y3235045D01*
X33843233Y3235043D01*
X33697161Y3174538D01*
X33697160Y3174538D01*
X33571723Y3078287D01*
X33571713Y3078277D01*
X33475462Y2952840D01*
X33475462Y2952839D01*
X33414957Y2806767D01*
X33414955Y2806759D01*
X33394318Y2650001D01*
X30835934Y2650001D01*
X30835044Y2656762D01*
X30819935Y2693238D01*
X30774537Y2802839D01*
X30774537Y2802840D01*
X30678286Y2928277D01*
X30678285Y2928278D01*
X30678282Y2928282D01*
X30678277Y2928286D01*
X30678276Y2928287D01*
X30607104Y2982899D01*
X30552841Y3024536D01*
X30552840Y3024537D01*
X30552838Y3024538D01*
X30406766Y3085043D01*
X30406758Y3085045D01*
X30250001Y3105682D01*
X30249999Y3105682D01*
X30093241Y3085045D01*
X30093233Y3085043D01*
X29947161Y3024538D01*
X29947160Y3024538D01*
X29821723Y2928287D01*
X29821713Y2928277D01*
X29725462Y2802840D01*
X29725462Y2802839D01*
X29664957Y2656767D01*
X29664955Y2656759D01*
X29644318Y2500001D01*
X22593153Y2500001D01*
X22550001Y2505682D01*
X22549999Y2505682D01*
X22393241Y2485045D01*
X22393233Y2485043D01*
X22247161Y2424538D01*
X22247160Y2424538D01*
X22121723Y2328287D01*
X22121713Y2328277D01*
X22025462Y2202840D01*
X22025462Y2202839D01*
X21964957Y2056767D01*
X21964955Y2056759D01*
X21944318Y1900001D01*
X7819754Y1900001D01*
X7775702Y2083476D01*
X7775702Y2083478D01*
X7773518Y2090850D01*
X7655998Y2487591D01*
X7527663Y2850001D01*
X8644318Y2850001D01*
X8644318Y2850000D01*
X8664955Y2693242D01*
X8664957Y2693234D01*
X8725462Y2547162D01*
X8725462Y2547161D01*
X8821713Y2421724D01*
X8821718Y2421718D01*
X8947159Y2325464D01*
X9093238Y2264956D01*
X9210809Y2249478D01*
X9249999Y2244318D01*
X9250000Y2244318D01*
X9250001Y2244318D01*
X9281352Y2248446D01*
X9406762Y2264956D01*
X9552841Y2325464D01*
X9678282Y2421718D01*
X9774536Y2547159D01*
X9835044Y2693238D01*
X9855682Y2850000D01*
X9851092Y2884861D01*
X9842143Y2952841D01*
X9835044Y3006762D01*
X9808136Y3071724D01*
X9774537Y3152839D01*
X9774537Y3152840D01*
X9678286Y3278277D01*
X9678285Y3278278D01*
X9678282Y3278282D01*
X9678277Y3278286D01*
X9678276Y3278287D01*
X9552838Y3374538D01*
X9406766Y3435043D01*
X9406758Y3435045D01*
X9250001Y3455682D01*
X9249999Y3455682D01*
X9093241Y3435045D01*
X9093233Y3435043D01*
X8947161Y3374538D01*
X8947160Y3374538D01*
X8821723Y3278287D01*
X8821713Y3278277D01*
X8725462Y3152840D01*
X8725462Y3152839D01*
X8664957Y3006767D01*
X8664955Y3006759D01*
X8644318Y2850001D01*
X7527663Y2850001D01*
X7515319Y2884861D01*
X7354042Y3274231D01*
X7246352Y3500001D01*
X25794318Y3500001D01*
X25794318Y3500000D01*
X25814955Y3343242D01*
X25814957Y3343234D01*
X25875462Y3197162D01*
X25875462Y3197161D01*
X25961493Y3085043D01*
X25971718Y3071718D01*
X26097159Y2975464D01*
X26097160Y2975464D01*
X26097161Y2975463D01*
X26151778Y2952840D01*
X26243238Y2914956D01*
X26360809Y2899478D01*
X26399999Y2894318D01*
X26400000Y2894318D01*
X26400001Y2894318D01*
X26431352Y2898446D01*
X26556762Y2914956D01*
X26702841Y2975464D01*
X26828282Y3071718D01*
X26924536Y3197159D01*
X26985044Y3343238D01*
X27005682Y3500000D01*
X26985044Y3656762D01*
X26968517Y3696661D01*
X26924537Y3802839D01*
X26924537Y3802840D01*
X26828286Y3928277D01*
X26828285Y3928278D01*
X26828282Y3928282D01*
X26828277Y3928286D01*
X26828276Y3928287D01*
X26735465Y3999503D01*
X35394318Y3999503D01*
X35394318Y3999502D01*
X35414955Y3842744D01*
X35414957Y3842736D01*
X35475462Y3696664D01*
X35475462Y3696663D01*
X35507733Y3654607D01*
X35571718Y3571220D01*
X35697159Y3474966D01*
X35697160Y3474966D01*
X35697161Y3474965D01*
X35793539Y3435044D01*
X35843238Y3414458D01*
X35960809Y3398980D01*
X35999999Y3393820D01*
X36000000Y3393820D01*
X36000001Y3393820D01*
X36031352Y3397948D01*
X36156762Y3414458D01*
X36302841Y3474966D01*
X36428282Y3571220D01*
X36524536Y3696661D01*
X36585044Y3842740D01*
X36605682Y3999502D01*
X36585044Y4156264D01*
X36575806Y4178566D01*
X36524537Y4302341D01*
X36524537Y4302342D01*
X36428286Y4427779D01*
X36428285Y4427780D01*
X36428282Y4427784D01*
X36428277Y4427788D01*
X36428276Y4427789D01*
X36302838Y4524040D01*
X36156766Y4584545D01*
X36156758Y4584547D01*
X36000001Y4605184D01*
X35999999Y4605184D01*
X35843241Y4584547D01*
X35843233Y4584545D01*
X35697161Y4524040D01*
X35697160Y4524040D01*
X35571723Y4427789D01*
X35571713Y4427779D01*
X35475462Y4302342D01*
X35475462Y4302341D01*
X35414957Y4156269D01*
X35414955Y4156261D01*
X35394318Y3999503D01*
X26735465Y3999503D01*
X26702838Y4024538D01*
X26556766Y4085043D01*
X26556758Y4085045D01*
X26400001Y4105682D01*
X26399999Y4105682D01*
X26243241Y4085045D01*
X26243233Y4085043D01*
X26097161Y4024538D01*
X26097160Y4024538D01*
X25971723Y3928287D01*
X25971713Y3928277D01*
X25875462Y3802840D01*
X25875462Y3802839D01*
X25814957Y3656767D01*
X25814955Y3656759D01*
X25794318Y3500001D01*
X7246352Y3500001D01*
X7172599Y3654622D01*
X6971500Y4025002D01*
X6751300Y4384339D01*
X6512588Y4731671D01*
X6467069Y4790990D01*
X6306686Y5000001D01*
X28794318Y5000001D01*
X28794318Y5000000D01*
X28814955Y4843242D01*
X28814957Y4843234D01*
X28875462Y4697162D01*
X28875462Y4697161D01*
X28971713Y4571724D01*
X28971718Y4571718D01*
X29097159Y4475464D01*
X29097160Y4475464D01*
X29097161Y4475463D01*
X29243233Y4414958D01*
X29243238Y4414956D01*
X29360809Y4399478D01*
X29399999Y4394318D01*
X29400000Y4394318D01*
X29400001Y4394318D01*
X29431352Y4398446D01*
X29556762Y4414956D01*
X29702841Y4475464D01*
X29828282Y4571718D01*
X29924536Y4697159D01*
X29985044Y4843238D01*
X30005682Y5000000D01*
X29985044Y5156762D01*
X29965958Y5202840D01*
X29924537Y5302839D01*
X29924537Y5302840D01*
X29828286Y5428277D01*
X29828285Y5428278D01*
X29828282Y5428282D01*
X29828277Y5428286D01*
X29828276Y5428287D01*
X29738517Y5497161D01*
X29702841Y5524536D01*
X29702840Y5524537D01*
X29702838Y5524538D01*
X29556766Y5585043D01*
X29556758Y5585045D01*
X29400001Y5605682D01*
X29399999Y5605682D01*
X29243241Y5585045D01*
X29243233Y5585043D01*
X29097161Y5524538D01*
X29097160Y5524538D01*
X28971723Y5428287D01*
X28971713Y5428277D01*
X28875462Y5302840D01*
X28875462Y5302839D01*
X28814957Y5156767D01*
X28814955Y5156759D01*
X28794318Y5000001D01*
X6306686Y5000001D01*
X6256051Y5065989D01*
X6256031Y5066014D01*
X6256019Y5066029D01*
X6053770Y5302840D01*
X5982315Y5386506D01*
X5982304Y5386517D01*
X5692230Y5692192D01*
X5692229Y5692193D01*
X5692211Y5692212D01*
X5386501Y5982319D01*
X5066032Y6256020D01*
X5066014Y6256034D01*
X5065991Y6256053D01*
X5008718Y6300001D01*
X33844318Y6300001D01*
X33844318Y6300000D01*
X33864955Y6143242D01*
X33864957Y6143234D01*
X33925462Y5997162D01*
X33925462Y5997161D01*
X34021713Y5871724D01*
X34021718Y5871718D01*
X34147159Y5775464D01*
X34293238Y5714956D01*
X34410809Y5699478D01*
X34449999Y5694318D01*
X34450000Y5694318D01*
X34450001Y5694318D01*
X34481352Y5698446D01*
X34606762Y5714956D01*
X34752841Y5775464D01*
X34878282Y5871718D01*
X34974536Y5997159D01*
X35035044Y6143238D01*
X35055682Y6300000D01*
X35035044Y6456762D01*
X34974537Y6602839D01*
X34974537Y6602840D01*
X34878286Y6728277D01*
X34878285Y6728278D01*
X34878282Y6728282D01*
X34878277Y6728286D01*
X34878276Y6728287D01*
X34752838Y6824538D01*
X34606766Y6885043D01*
X34606758Y6885045D01*
X34450001Y6905682D01*
X34449999Y6905682D01*
X34293241Y6885045D01*
X34293233Y6885043D01*
X34147161Y6824538D01*
X34147160Y6824538D01*
X34021723Y6728287D01*
X34021713Y6728277D01*
X33925462Y6602840D01*
X33925462Y6602839D01*
X33864957Y6456767D01*
X33864955Y6456759D01*
X33844318Y6300001D01*
X5008718Y6300001D01*
X4731696Y6512570D01*
X4731675Y6512585D01*
X4731670Y6512589D01*
X4417839Y6728277D01*
X4384349Y6751294D01*
X4166085Y6885045D01*
X4025001Y6971501D01*
X4025000Y6971502D01*
X4024996Y6971504D01*
X4024989Y6971508D01*
X3654621Y7172600D01*
X3654605Y7172608D01*
X3274260Y7354029D01*
X3274251Y7354033D01*
X3274250Y7354034D01*
X3274230Y7354043D01*
X2884860Y7515320D01*
X2487590Y7655999D01*
X2487591Y7655999D01*
X2487579Y7656003D01*
X2083475Y7775704D01*
X1673715Y7874088D01*
X1673661Y7874099D01*
X1259327Y7950886D01*
X1259299Y7950891D01*
X841474Y8005900D01*
X841455Y8005902D01*
X841453Y8005902D01*
X841445Y8005903D01*
X841441Y8005903D01*
X778465Y8010860D01*
X421302Y8038971D01*
X421294Y8038972D01*
X421281Y8038972D01*
X4Y8050000D01*
X-4Y8050000D01*
X-421283Y8038972D01*
X-421298Y8038972D01*
X-421303Y8038971D01*
X-689176Y8017888D01*
X-841443Y8005903D01*
X-841476Y8005900D01*
X-1259301Y7950891D01*
X-1259329Y7950886D01*
X-1673663Y7874099D01*
X-1673717Y7874088D01*
X-2083476Y7775704D01*
X-2083478Y7775704D01*
X-2487581Y7656003D01*
X-2769815Y7556060D01*
X-2884861Y7515320D01*
X-3274231Y7354043D01*
X-3274246Y7354037D01*
X-3274253Y7354033D01*
X-3274262Y7354029D01*
X-3654607Y7172608D01*
X-3654623Y7172600D01*
X-4024991Y6971508D01*
X-4024998Y6971504D01*
X-4384351Y6751294D01*
X-4600354Y6602840D01*
X-4731671Y6512589D01*
X-4731683Y6512580D01*
X-4731698Y6512569D01*
X-5065989Y6256053D01*
X-5066045Y6256007D01*
X-5386506Y5982317D01*
X-5386517Y5982306D01*
X-5692192Y5692232D01*
X-5692232Y5692192D01*
X-5982306Y5386517D01*
X-5982317Y5386506D01*
X-6256007Y5066045D01*
X-6256053Y5065989D01*
X-6512569Y4731698D01*
X-6512580Y4731683D01*
X-6512589Y4731671D01*
X-6592311Y4615675D01*
X-6751294Y4384351D01*
X-6971504Y4024998D01*
X-6971508Y4024991D01*
X-7172600Y3654623D01*
X-7172608Y3654607D01*
X-7354029Y3274262D01*
X-7354033Y3274253D01*
X-7354043Y3274231D01*
X-7515320Y2884861D01*
X-7515323Y2884852D01*
X-7656003Y2487581D01*
X-7775704Y2083478D01*
X-7775704Y2083476D01*
X-7874088Y1673717D01*
X-7874099Y1673663D01*
X-7950886Y1259329D01*
X-7950891Y1259301D01*
X-8003318Y861080D01*
X-8029659Y805855D01*
X-8083430Y776660D01*
X-8101471Y775002D01*
X-11301000Y775002D01*
X-11359191Y793909D01*
X-11395155Y843409D01*
X-11400000Y874002D01*
X-11400000Y999996D01*
X-11400000Y999997D01*
X-11400000Y1000000D01*
X-11451401Y1324471D01*
X-11600501Y1617169D01*
X-11726573Y1743242D01*
X-11832798Y1849468D01*
X-11832800Y1849470D01*
X-12125497Y1998611D01*
X-12125500Y1998612D01*
X-12450001Y2050000D01*
X-12774500Y1998612D01*
X-12774504Y1998611D01*
X-13067198Y1849471D01*
X-13299500Y1617169D01*
X-13448601Y1324472D01*
X-13460398Y1250000D01*
X-13500000Y1000000D01*
X-21854030Y1000000D01*
X-21865302Y1011269D01*
X-21865304Y1011270D01*
X-22213700Y1188820D01*
X-22213705Y1188821D01*
X-22599999Y1250000D01*
X-22600003Y1250000D01*
X-22986298Y1188821D01*
X-22986303Y1188820D01*
X-23334699Y1011270D01*
X-23334701Y1011269D01*
X-23611300Y734732D01*
X-23788802Y386270D01*
X-23850001Y3D01*
X-26058456Y3D01*
X-25992159Y27464D01*
X-25866718Y123718D01*
X-25770464Y249159D01*
X-25709956Y395238D01*
X-25689318Y552000D01*
X-25709956Y708762D01*
X-25720713Y734732D01*
X-25770463Y854839D01*
X-25770463Y854840D01*
X-25866714Y980277D01*
X-25866715Y980278D01*
X-25866718Y980282D01*
X-25866723Y980286D01*
X-25866724Y980287D01*
X-25992162Y1076538D01*
X-26138234Y1137043D01*
X-26138242Y1137045D01*
X-26294999Y1157682D01*
X-26295001Y1157682D01*
X-26451759Y1137045D01*
X-26451767Y1137043D01*
X-26597839Y1076538D01*
X-26597840Y1076538D01*
X-26723277Y980287D01*
X-26723287Y980277D01*
X-26819538Y854840D01*
X-26819538Y854839D01*
X-26880043Y708767D01*
X-26880045Y708759D01*
X-26900682Y552001D01*
X-39985551Y552001D01*
X-39945270Y2090853D01*
X-39944999Y2096026D01*
X-39936593Y2202840D01*
X-39781107Y4178566D01*
X-39780565Y4183714D01*
X-39686245Y4900001D01*
X-15305682Y4900001D01*
X-15305682Y4900000D01*
X-15285045Y4743242D01*
X-15285043Y4743234D01*
X-15224538Y4597162D01*
X-15224538Y4597161D01*
X-15131156Y4475463D01*
X-15128282Y4471718D01*
X-15002841Y4375464D01*
X-14856762Y4314956D01*
X-14760941Y4302341D01*
X-14700001Y4294318D01*
X-14700000Y4294318D01*
X-14699999Y4294318D01*
X-14668648Y4298446D01*
X-14543238Y4314956D01*
X-14397159Y4375464D01*
X-14271718Y4471718D01*
X-14175464Y4597159D01*
X-14114956Y4743238D01*
X-14094318Y4900000D01*
X-14114956Y5056762D01*
X-14118788Y5066014D01*
X-14175463Y5202839D01*
X-14175463Y5202840D01*
X-14271714Y5328277D01*
X-14271715Y5328278D01*
X-14271718Y5328282D01*
X-14271723Y5328286D01*
X-14271724Y5328287D01*
X-14397162Y5424538D01*
X-14543234Y5485043D01*
X-14543242Y5485045D01*
X-14699999Y5505682D01*
X-14700001Y5505682D01*
X-14856759Y5485045D01*
X-14856767Y5485043D01*
X-15002839Y5424538D01*
X-15002840Y5424538D01*
X-15128277Y5328287D01*
X-15128287Y5328277D01*
X-15224538Y5202840D01*
X-15224538Y5202839D01*
X-15285043Y5056767D01*
X-15285045Y5056759D01*
X-15305682Y4900001D01*
X-39686245Y4900001D01*
X-39567733Y5800001D01*
X-27805682Y5800001D01*
X-27805682Y5800000D01*
X-27785045Y5643242D01*
X-27785043Y5643234D01*
X-27724538Y5497162D01*
X-27724538Y5497161D01*
X-27628287Y5371724D01*
X-27628282Y5371718D01*
X-27502841Y5275464D01*
X-27356762Y5214956D01*
X-27239191Y5199478D01*
X-27200001Y5194318D01*
X-27200000Y5194318D01*
X-27199999Y5194318D01*
X-27168648Y5198446D01*
X-27043238Y5214956D01*
X-26897159Y5275464D01*
X-26771718Y5371718D01*
X-26675464Y5497159D01*
X-26614956Y5643238D01*
X-26594318Y5800000D01*
X-26614956Y5956762D01*
X-26675463Y6102839D01*
X-26675463Y6102840D01*
X-26771714Y6228277D01*
X-26771715Y6228278D01*
X-26771718Y6228282D01*
X-26771723Y6228286D01*
X-26771724Y6228287D01*
X-26897162Y6324538D01*
X-27043234Y6385043D01*
X-27043242Y6385045D01*
X-27199999Y6405682D01*
X-27200001Y6405682D01*
X-27356759Y6385045D01*
X-27356767Y6385043D01*
X-27502839Y6324538D01*
X-27502840Y6324538D01*
X-27628277Y6228287D01*
X-27628287Y6228277D01*
X-27724538Y6102840D01*
X-27724538Y6102839D01*
X-27785043Y5956767D01*
X-27785045Y5956759D01*
X-27805682Y5800001D01*
X-39567733Y5800001D01*
X-39507836Y6254870D01*
X-39507036Y6259913D01*
X-39126377Y8313933D01*
X-39125303Y8318987D01*
X-38841755Y9500001D01*
X-28605682Y9500001D01*
X-28605682Y9500000D01*
X-28585045Y9343242D01*
X-28585043Y9343234D01*
X-28524538Y9197162D01*
X-28524538Y9197161D01*
X-28524536Y9197159D01*
X-28428282Y9071718D01*
X-28302841Y8975464D01*
X-28156762Y8914956D01*
X-28039191Y8899478D01*
X-28000001Y8894318D01*
X-28000000Y8894318D01*
X-27999999Y8894318D01*
X-27968648Y8898446D01*
X-27843238Y8914956D01*
X-27697159Y8975464D01*
X-27571718Y9071718D01*
X-27475464Y9197159D01*
X-27414956Y9343238D01*
X-27394318Y9500000D01*
X-27414956Y9656762D01*
X-27475463Y9802839D01*
X-27475463Y9802840D01*
X-27571714Y9928277D01*
X-27571715Y9928278D01*
X-27571718Y9928282D01*
X-27571723Y9928286D01*
X-27571724Y9928287D01*
X-27697162Y10024538D01*
X-27843234Y10085043D01*
X-27843242Y10085045D01*
X-27999999Y10105682D01*
X-28000001Y10105682D01*
X-28156759Y10085045D01*
X-28156767Y10085043D01*
X-28302839Y10024538D01*
X-28302840Y10024538D01*
X-28428277Y9928287D01*
X-28428287Y9928277D01*
X-28524538Y9802840D01*
X-28524538Y9802839D01*
X-28585043Y9656767D01*
X-28585045Y9656759D01*
X-28605682Y9500001D01*
X-38841755Y9500001D01*
X-38637610Y10350291D01*
X-38636272Y10355283D01*
X-38519365Y10750001D01*
X7744318Y10750001D01*
X7744318Y10750000D01*
X7764955Y10593242D01*
X7764957Y10593234D01*
X7825462Y10447162D01*
X7825462Y10447161D01*
X7921713Y10321724D01*
X7921718Y10321718D01*
X8047159Y10225464D01*
X8193238Y10164956D01*
X8310809Y10149478D01*
X8349999Y10144318D01*
X8350000Y10144318D01*
X8350001Y10144318D01*
X8381352Y10148446D01*
X8506762Y10164956D01*
X8652841Y10225464D01*
X8778282Y10321718D01*
X8874536Y10447159D01*
X8935044Y10593238D01*
X8955682Y10750000D01*
X8935044Y10906762D01*
X8874537Y11052839D01*
X8874537Y11052840D01*
X8778286Y11178277D01*
X8778285Y11178278D01*
X8778282Y11178282D01*
X8778277Y11178286D01*
X8778276Y11178287D01*
X8652838Y11274538D01*
X8506766Y11335043D01*
X8506758Y11335045D01*
X8350001Y11355682D01*
X8349999Y11355682D01*
X8193241Y11335045D01*
X8193233Y11335043D01*
X8047161Y11274538D01*
X8047160Y11274538D01*
X7921723Y11178287D01*
X7921713Y11178277D01*
X7825462Y11052840D01*
X7825462Y11052839D01*
X7764957Y10906767D01*
X7764955Y10906759D01*
X7744318Y10750001D01*
X-38519365Y10750001D01*
X-38267612Y11600001D01*
X-15981182Y11600001D01*
X-15981182Y11600000D01*
X-15960545Y11443242D01*
X-15960543Y11443234D01*
X-15900038Y11297162D01*
X-15900038Y11297161D01*
X-15882677Y11274536D01*
X-15803782Y11171718D01*
X-15678341Y11075464D01*
X-15678340Y11075464D01*
X-15678339Y11075463D01*
X-15623722Y11052840D01*
X-15532262Y11014956D01*
X-15414691Y10999478D01*
X-15375501Y10994318D01*
X-15375500Y10994318D01*
X-15375499Y10994318D01*
X-15344148Y10998446D01*
X-15218738Y11014956D01*
X-15072659Y11075464D01*
X-14947218Y11171718D01*
X-14850964Y11297159D01*
X-14790456Y11443238D01*
X-14769818Y11600000D01*
X-14790456Y11756762D01*
X-14850963Y11902839D01*
X-14850963Y11902840D01*
X-14947214Y12028277D01*
X-14947215Y12028278D01*
X-14947218Y12028282D01*
X-14947223Y12028286D01*
X-14947224Y12028287D01*
X-15018396Y12082899D01*
X-15072659Y12124536D01*
X-15072660Y12124537D01*
X-15072662Y12124538D01*
X-15218734Y12185043D01*
X-15218742Y12185045D01*
X-15375499Y12205682D01*
X-15375501Y12205682D01*
X-15532259Y12185045D01*
X-15532267Y12185043D01*
X-15678339Y12124538D01*
X-15678340Y12124538D01*
X-15803777Y12028287D01*
X-15803787Y12028277D01*
X-15900038Y11902840D01*
X-15900038Y11902839D01*
X-15960543Y11756767D01*
X-15960545Y11756759D01*
X-15981182Y11600001D01*
X-38267612Y11600001D01*
X-38043032Y12358255D01*
X-38041444Y12363138D01*
X-37975266Y12550001D01*
X7994318Y12550001D01*
X7994318Y12550000D01*
X8014955Y12393242D01*
X8014957Y12393234D01*
X8075462Y12247162D01*
X8075462Y12247161D01*
X8171713Y12121724D01*
X8171718Y12121718D01*
X8297159Y12025464D01*
X8443238Y11964956D01*
X8560809Y11949478D01*
X8599999Y11944318D01*
X8600000Y11944318D01*
X8600001Y11944318D01*
X8631352Y11948446D01*
X8756762Y11964956D01*
X8902841Y12025464D01*
X9028282Y12121718D01*
X9124536Y12247159D01*
X9185044Y12393238D01*
X9205682Y12550000D01*
X9185044Y12706762D01*
X9124537Y12852839D01*
X9124537Y12852840D01*
X9028286Y12978277D01*
X9028285Y12978278D01*
X9028282Y12978282D01*
X9028277Y12978286D01*
X9028276Y12978287D01*
X8902838Y13074538D01*
X8756766Y13135043D01*
X8756758Y13135045D01*
X8600001Y13155682D01*
X8599999Y13155682D01*
X8443241Y13135045D01*
X8443233Y13135043D01*
X8297161Y13074538D01*
X8297160Y13074538D01*
X8171723Y12978287D01*
X8171713Y12978277D01*
X8075462Y12852840D01*
X8075462Y12852839D01*
X8014957Y12706767D01*
X8014955Y12706759D01*
X7994318Y12550001D01*
X-37975266Y12550001D01*
X-37532574Y13800001D01*
X-26305682Y13800001D01*
X-26305682Y13800000D01*
X-26285045Y13643242D01*
X-26285043Y13643234D01*
X-26224538Y13497162D01*
X-26224538Y13497161D01*
X-26224536Y13497159D01*
X-26128282Y13371718D01*
X-26002841Y13275464D01*
X-25856762Y13214956D01*
X-25739191Y13199478D01*
X-25700001Y13194318D01*
X-25700000Y13194318D01*
X-25699999Y13194318D01*
X-25668648Y13198446D01*
X-25543238Y13214956D01*
X-25397159Y13275464D01*
X-25271718Y13371718D01*
X-25175464Y13497159D01*
X-25114956Y13643238D01*
X-25094318Y13800000D01*
X-25114956Y13956762D01*
X-25175463Y14102839D01*
X-25175463Y14102840D01*
X-25271714Y14228277D01*
X-25271715Y14228278D01*
X-25271718Y14228282D01*
X-25271723Y14228286D01*
X-25271724Y14228287D01*
X-25397162Y14324538D01*
X-25543234Y14385043D01*
X-25543242Y14385045D01*
X-25699999Y14405682D01*
X-25700001Y14405682D01*
X-25856759Y14385045D01*
X-25856767Y14385043D01*
X-26002839Y14324538D01*
X-26002840Y14324538D01*
X-26128277Y14228287D01*
X-26128287Y14228277D01*
X-26224538Y14102840D01*
X-26224538Y14102839D01*
X-26285043Y13956767D01*
X-26285045Y13956759D01*
X-26305682Y13800001D01*
X-37532574Y13800001D01*
X-37344057Y14332303D01*
X-37342231Y14337060D01*
X-37274740Y14500001D01*
X-24405682Y14500001D01*
X-24405682Y14500000D01*
X-24385045Y14343242D01*
X-24385043Y14343234D01*
X-24324538Y14197162D01*
X-24324538Y14197161D01*
X-24252163Y14102840D01*
X-24228282Y14071718D01*
X-24102841Y13975464D01*
X-24102840Y13975464D01*
X-24102839Y13975463D01*
X-23956767Y13914958D01*
X-23956762Y13914956D01*
X-23843174Y13900002D01*
X-23800001Y13894318D01*
X-23800000Y13894318D01*
X-23799999Y13894318D01*
X-23768648Y13898446D01*
X-23756829Y13900002D01*
X-8250000Y13900002D01*
X-8250000Y13899999D01*
X-8188821Y13513700D01*
X-8188820Y13513695D01*
X-8011270Y13165299D01*
X-8011269Y13165297D01*
X-7734732Y12888698D01*
X-7734730Y12888697D01*
X-7386269Y12711197D01*
X-7386267Y12711197D01*
X-7386264Y12711196D01*
X-7000003Y12650000D01*
X-7000000Y12650000D01*
X-6999997Y12650000D01*
X-6613736Y12711200D01*
X-6613735Y12711201D01*
X-6613732Y12711201D01*
X-6265271Y12888699D01*
X-5988732Y13165299D01*
X-5811181Y13513699D01*
X-5750000Y13900000D01*
X-5752369Y13914956D01*
X-5797063Y14197161D01*
X-5811181Y14286301D01*
X-5811182Y14286303D01*
X-5811182Y14286304D01*
X-5920086Y14500000D01*
X-5988732Y14634701D01*
X-6265271Y14911301D01*
X-6613732Y15088799D01*
X-6613734Y15088800D01*
X-6613737Y15088801D01*
X-6613736Y15088801D01*
X-6999998Y15150000D01*
X-7000002Y15150000D01*
X-7386266Y15088801D01*
X-7734731Y14911301D01*
X-8011269Y14634702D01*
X-8011270Y14634700D01*
X-8188820Y14286304D01*
X-8188821Y14286299D01*
X-8250000Y13900002D01*
X-23756829Y13900002D01*
X-23643238Y13914956D01*
X-23497159Y13975464D01*
X-23371718Y14071718D01*
X-23275464Y14197159D01*
X-23214956Y14343238D01*
X-23194318Y14500000D01*
X-23214956Y14656762D01*
X-23275463Y14802839D01*
X-23275463Y14802840D01*
X-23371714Y14928277D01*
X-23371715Y14928278D01*
X-23371718Y14928282D01*
X-23371723Y14928286D01*
X-23371724Y14928287D01*
X-23497162Y15024538D01*
X-23643234Y15085043D01*
X-23643242Y15085045D01*
X-23799999Y15105682D01*
X-23800001Y15105682D01*
X-23956759Y15085045D01*
X-23956767Y15085043D01*
X-24102839Y15024538D01*
X-24102840Y15024538D01*
X-24228277Y14928287D01*
X-24228287Y14928277D01*
X-24324538Y14802840D01*
X-24324538Y14802839D01*
X-24385043Y14656767D01*
X-24385045Y14656759D01*
X-24405682Y14500001D01*
X-37274740Y14500001D01*
X-36819117Y15600001D01*
X6994318Y15600001D01*
X6994318Y15600000D01*
X7014955Y15443242D01*
X7014957Y15443234D01*
X7075462Y15297162D01*
X7075462Y15297161D01*
X7075464Y15297159D01*
X7171718Y15171718D01*
X7297159Y15075464D01*
X7443238Y15014956D01*
X7560809Y14999478D01*
X7599999Y14994318D01*
X7600000Y14994318D01*
X7600001Y14994318D01*
X7631352Y14998446D01*
X7756762Y15014956D01*
X7902841Y15075464D01*
X8028282Y15171718D01*
X8124536Y15297159D01*
X8185044Y15443238D01*
X8205682Y15600000D01*
X8185044Y15756762D01*
X8124537Y15902839D01*
X8124537Y15902840D01*
X8028286Y16028277D01*
X8028285Y16028278D01*
X8028282Y16028282D01*
X8028277Y16028286D01*
X8028276Y16028287D01*
X7902838Y16124538D01*
X7756766Y16185043D01*
X7756758Y16185045D01*
X7600001Y16205682D01*
X7599999Y16205682D01*
X7443241Y16185045D01*
X7443233Y16185043D01*
X7297161Y16124538D01*
X7297160Y16124538D01*
X7171723Y16028287D01*
X7171713Y16028277D01*
X7075462Y15902840D01*
X7075462Y15902839D01*
X7014957Y15756767D01*
X7014955Y15756759D01*
X6994318Y15600001D01*
X-36819117Y15600001D01*
X-36542785Y16267144D01*
X-36540695Y16271837D01*
X-36458428Y16444318D01*
X-36169542Y17050001D01*
X-29755682Y17050001D01*
X-29755682Y17050000D01*
X-29735045Y16893242D01*
X-29735043Y16893234D01*
X-29674538Y16747162D01*
X-29674538Y16747161D01*
X-29674536Y16747159D01*
X-29578282Y16621718D01*
X-29452841Y16525464D01*
X-29306762Y16464956D01*
X-29189191Y16449478D01*
X-29150001Y16444318D01*
X-29150000Y16444318D01*
X-29149999Y16444318D01*
X-29118648Y16448446D01*
X-28993238Y16464956D01*
X-28847159Y16525464D01*
X-28721718Y16621718D01*
X-28625464Y16747159D01*
X-28564956Y16893238D01*
X-28544318Y17050000D01*
X-28564956Y17206762D01*
X-28625463Y17352839D01*
X-28625463Y17352840D01*
X-28721714Y17478277D01*
X-28721715Y17478278D01*
X-28721718Y17478282D01*
X-28721723Y17478286D01*
X-28721724Y17478287D01*
X-28847162Y17574538D01*
X-28993234Y17635043D01*
X-28993242Y17635045D01*
X-29149999Y17655682D01*
X-29150001Y17655682D01*
X-29306759Y17635045D01*
X-29306767Y17635043D01*
X-29452839Y17574538D01*
X-29452840Y17574538D01*
X-29578277Y17478287D01*
X-29578287Y17478277D01*
X-29674538Y17352840D01*
X-29674538Y17352839D01*
X-29735043Y17206767D01*
X-29735045Y17206759D01*
X-29755682Y17050001D01*
X-36169542Y17050001D01*
X-35709705Y18014102D01*
X-35641418Y18157273D01*
X-35639071Y18161880D01*
X-34642233Y19997742D01*
X-34639668Y20002186D01*
X-33548135Y21783435D01*
X-33545359Y21787709D01*
X-32362154Y23509295D01*
X-32359142Y23513441D01*
X-31087367Y25170769D01*
X-31084115Y25174783D01*
X-30301607Y26091007D01*
X-26786507Y26091007D01*
X-26786507Y26091006D01*
X-26742807Y25675206D01*
X-26709651Y25573173D01*
X-26613608Y25277607D01*
X-26613604Y25277599D01*
X-26404511Y24915510D01*
X-26404509Y24915508D01*
X-26404507Y24915505D01*
X-26262177Y24757405D01*
X-26124698Y24604694D01*
X-25816709Y24280506D01*
X-25291407Y23727604D01*
X-25291409Y23727603D01*
X-25291401Y23727597D01*
X-24700507Y23105504D01*
X-24045413Y22416009D01*
X-24045409Y22416002D01*
X-24045407Y22416003D01*
X-23328210Y21661006D01*
X-22550709Y20842606D01*
X-22550708Y20842604D01*
X-21715007Y19962905D01*
X-21715006Y19962904D01*
X-20823508Y19024506D01*
X-20823507Y19024504D01*
X-20823506Y19024504D01*
X-20341206Y18516804D01*
X-20003006Y18271103D01*
X-19757719Y18161880D01*
X-19621010Y18101005D01*
X-19621007Y18101004D01*
X-19212006Y18014103D01*
X-19212004Y18014103D01*
X-18793910Y18014103D01*
X-18793908Y18014103D01*
X-18589406Y18057553D01*
X-18384906Y18101001D01*
X-18384906Y18101002D01*
X-18384903Y18101002D01*
X-18003003Y18271103D01*
X-17664702Y18516802D01*
X-17131567Y19022732D01*
X-17127726Y19026190D01*
X-17127715Y19026199D01*
X-16221733Y19800001D01*
X-6905682Y19800001D01*
X-6905682Y19800000D01*
X-6885045Y19643242D01*
X-6885043Y19643234D01*
X-6824538Y19497162D01*
X-6824538Y19497161D01*
X-6824536Y19497159D01*
X-6728282Y19371718D01*
X-6602841Y19275464D01*
X-6456762Y19214956D01*
X-6339191Y19199478D01*
X-6300001Y19194318D01*
X-6300000Y19194318D01*
X-6299999Y19194318D01*
X-6268648Y19198446D01*
X-6143238Y19214956D01*
X-5997159Y19275464D01*
X-5871718Y19371718D01*
X-5775464Y19497159D01*
X-5714956Y19643238D01*
X-5694318Y19800000D01*
X-5714956Y19956762D01*
X-5717500Y19962904D01*
X-5775463Y20102839D01*
X-5775463Y20102840D01*
X-5871714Y20228277D01*
X-5871715Y20228278D01*
X-5871718Y20228282D01*
X-5871723Y20228286D01*
X-5871724Y20228287D01*
X-5997162Y20324538D01*
X-6143234Y20385043D01*
X-6143242Y20385045D01*
X-6299999Y20405682D01*
X-6300001Y20405682D01*
X-6456759Y20385045D01*
X-6456767Y20385043D01*
X-6602839Y20324538D01*
X-6602840Y20324538D01*
X-6728277Y20228287D01*
X-6728287Y20228277D01*
X-6824538Y20102840D01*
X-6824538Y20102839D01*
X-6885043Y19956767D01*
X-6885045Y19956759D01*
X-6905682Y19800001D01*
X-16221733Y19800001D01*
X-16032944Y19961246D01*
X-16028999Y19964441D01*
X-15052549Y20713733D01*
X-15048374Y20716766D01*
X-14034111Y21413854D01*
X-14029835Y21416631D01*
X-12802177Y22168871D01*
X-12797753Y22171425D01*
X-11532343Y22858488D01*
X-11527783Y22860811D01*
X-10417032Y23390694D01*
X-10412329Y23392789D01*
X-9275274Y23863732D01*
X-9270526Y23865555D01*
X-7913252Y24346152D01*
X-7908400Y24347728D01*
X-6527849Y24756672D01*
X-6522875Y24758005D01*
X-5326144Y25045312D01*
X-5321157Y25046372D01*
X-4111078Y25270732D01*
X-4105964Y25271543D01*
X-2678485Y25459469D01*
X-2673360Y25460008D01*
X-1237996Y25572903D01*
X-1232846Y25573173D01*
X-2593Y25605437D01*
X2593Y25605437D01*
X1232842Y25573173D01*
X1237996Y25572903D01*
X2673350Y25460008D01*
X2678483Y25459469D01*
X4059891Y25277607D01*
X4105953Y25271543D01*
X4111079Y25270731D01*
X5321147Y25046373D01*
X5326149Y25045310D01*
X6522859Y24758008D01*
X6527852Y24756669D01*
X7908378Y24347732D01*
X7913267Y24346143D01*
X9270484Y23865567D01*
X9275291Y23863722D01*
X10412304Y23392794D01*
X10417036Y23390688D01*
X11527761Y22860819D01*
X11532352Y22858480D01*
X12797728Y22171434D01*
X12802185Y22168861D01*
X14029812Y21416642D01*
X14034122Y21413842D01*
X15048349Y20716779D01*
X15052543Y20713732D01*
X16028951Y19964474D01*
X16032978Y19961212D01*
X17127708Y19026199D01*
X17131559Y19022732D01*
X17664689Y18516806D01*
X17664695Y18516800D01*
X18002994Y18271101D01*
X18384895Y18101002D01*
X18384898Y18101002D01*
X18384899Y18101001D01*
X18589395Y18057552D01*
X18793895Y18014102D01*
X18793897Y18014102D01*
X19211992Y18014102D01*
X19211994Y18014102D01*
X19620994Y18101002D01*
X20002994Y18271101D01*
X20341194Y18516800D01*
X20823493Y19024502D01*
X21714996Y19962903D01*
X22550689Y20842602D01*
X23094772Y21415303D01*
X23328195Y21661003D01*
X23810619Y22168853D01*
X24045390Y22415998D01*
X24045395Y22416000D01*
X24045394Y22416001D01*
X24045403Y22416010D01*
X24700500Y23105502D01*
X25291397Y23727603D01*
X25816696Y24280503D01*
X26124694Y24604702D01*
X26404495Y24915503D01*
X26613594Y25277604D01*
X26742797Y25675204D01*
X26786499Y26091004D01*
X26742797Y26506903D01*
X26613594Y26904503D01*
X26613593Y26904505D01*
X26613590Y26904511D01*
X26404498Y27266600D01*
X26404492Y27266608D01*
X26124703Y27577293D01*
X26124687Y27577310D01*
X25958102Y27735401D01*
X25958099Y27735405D01*
X25958099Y27735404D01*
X25525695Y28145804D01*
X25525687Y28145812D01*
X25426993Y28239505D01*
X25426990Y28239508D01*
X25263964Y28378762D01*
X25141693Y28483204D01*
X25055266Y28557015D01*
X24833395Y28746500D01*
X24833395Y28746499D01*
X24809258Y28767106D01*
X24612487Y28935105D01*
X24479789Y29048504D01*
X24479759Y29048530D01*
X24479759Y29048531D01*
X24435486Y29086303D01*
X24435482Y29086306D01*
X24420072Y29099467D01*
X23993796Y29463498D01*
X23495355Y29845970D01*
X22498489Y30610903D01*
X22160293Y30856703D01*
X21030199Y31633354D01*
X20606992Y31924201D01*
X18999989Y32909005D01*
X17343712Y33808291D01*
X17343692Y33808302D01*
X16353799Y34280440D01*
X15642482Y34619708D01*
X15260574Y34789709D01*
X13519309Y35510995D01*
X13519293Y35511001D01*
X13150971Y35641418D01*
X11742591Y36140103D01*
X11742586Y36140105D01*
X11742585Y36140105D01*
X9935506Y36675406D01*
X9935502Y36675407D01*
X8102856Y37115401D01*
X7693877Y37202404D01*
X5840687Y37545805D01*
X3972076Y37791802D01*
X3435235Y37834060D01*
X2093143Y37939702D01*
X2093130Y37939703D01*
X2093126Y37939703D01*
X209053Y37989003D01*
X209049Y37989003D01*
X-209065Y37989003D01*
X-209069Y37989003D01*
X-2093139Y37939703D01*
X-2093144Y37939703D01*
X-2093155Y37939702D01*
X-3301041Y37844624D01*
X-3972093Y37791802D01*
X-5840704Y37545805D01*
X-5840705Y37545805D01*
X-7693894Y37202404D01*
X-8102869Y37115401D01*
X-9935519Y36675407D01*
X-9935523Y36675406D01*
X-11742603Y36140107D01*
X-11742606Y36140106D01*
X-11742608Y36140105D01*
X-11913841Y36079475D01*
X-13519303Y35511006D01*
X-15260626Y34789696D01*
X-15642497Y34619710D01*
X-16684254Y34122836D01*
X-17343707Y33808304D01*
X-17343709Y33808304D01*
X-17343709Y33808303D01*
X-19000006Y32909007D01*
X-20607010Y31924203D01*
X-22160308Y30856705D01*
X-22498494Y30610915D01*
X-23993800Y29463511D01*
X-23993809Y29463504D01*
X-24435475Y29086333D01*
X-24435507Y29086306D01*
X-24479807Y29048506D01*
X-24612507Y28935107D01*
X-24833407Y28746506D01*
X-24833413Y28746502D01*
X-25141711Y28483203D01*
X-25426999Y28239513D01*
X-25427010Y28239503D01*
X-25525708Y28145806D01*
X-25525716Y28145799D01*
X-25958102Y27735411D01*
X-25958107Y27735406D01*
X-26124703Y27577310D01*
X-26404505Y27266610D01*
X-26404511Y27266602D01*
X-26613604Y26904513D01*
X-26613608Y26904505D01*
X-26742808Y26506904D01*
X-26786507Y26091007D01*
X-30301607Y26091007D01*
X-29727468Y26763256D01*
X-29724027Y26767077D01*
X-28286067Y28282447D01*
X-28282443Y28286071D01*
X-26767057Y29724047D01*
X-26763252Y29727472D01*
X-25174769Y31084127D01*
X-25170754Y31087377D01*
X-23513462Y32359127D01*
X-23509292Y32362158D01*
X-21787705Y33545363D01*
X-21783431Y33548139D01*
X-20002182Y34639672D01*
X-19997738Y34642237D01*
X-18161866Y35639077D01*
X-18157292Y35641407D01*
X-16271790Y36540715D01*
X-16267138Y36542785D01*
X-14337056Y37342231D01*
X-14332299Y37344057D01*
X-12363130Y38041445D01*
X-12358249Y38043032D01*
X-10355263Y38636276D01*
X-10350283Y38637610D01*
X-8318984Y39125303D01*
X-8313930Y39126377D01*
X-6259909Y39507036D01*
X-6254866Y39507836D01*
X-4183700Y39780567D01*
X-4178562Y39781107D01*
X-2096019Y39945000D01*
X-2090850Y39945270D01*
X-2560Y39999933D01*
X2559Y39999933D01*
X2090844Y39945263D01*
G37*
%TD.AperFunction*%
%TD*%
M02*
